<svg xmlns="http://www.w3.org/2000/svg" width="35" height="41" fill="none"><g clip-path="url(#a)"><path fill="#fff" d="M5.485 38.087c-.075 1.759-1.22 2.904-2.751 2.904-.803 0-1.493-.319-2.038-.949C.243 39.52 0 38.842 0 38.08c0-.771.287-1.479.841-2.04.523-.538 1.168-.803 1.955-.803 1.098 0 1.946.554 2.364 1.51h-.963c-.356-.466-.856-.707-1.462-.707-.507 0-.977.202-1.334.575-.379.396-.59.942-.59 1.471 0 .584.197 1.114.546 1.486.372.396.88.623 1.38.623.81 0 1.447-.445 1.856-1.331h-2.44v-.78h3.332v.003Zm.837 2.795h-.825l2.107-5.535h.757l2.105 5.535h-.855l-.59-1.611H6.93l-.607 1.611Zm1.66-4.492-.773 2.102h1.53l-.757-2.102Zm2.78 4.492v-5.535h1.158l1.561 4.283 1.562-4.283h1.143v5.535h-.735l.053-4.803-1.75 4.803H13.2l-1.742-4.803.052 4.803h-.749Zm8.853.109c-.796 0-1.47-.304-2-.88-.507-.552-.765-1.237-.765-2.055 0-.764.28-1.465.817-2.001a2.679 2.679 0 0 1 1.963-.818c1.258 0 2.332.849 2.681 2.212h-1.424c-.287-.545-.72-.834-1.25-.834-.802 0-1.43.637-1.43 1.448 0 .88.667 1.557 1.41 1.557.507 0 .954-.28 1.242-.795h1.431c-.357 1.348-1.38 2.166-2.675 2.166Zm4.005-.109h-1.439l2.069-5.535h1.076l2.069 5.535H25.94l-.266-.802h-1.78l-.274.802Zm1.166-3.721-.539 1.775h1.07l-.53-1.775Zm2.71 3.721v-5.535h1.789c.567 0 1 .039 1.364.304.477.342.727.865.727 1.549 0 .895-.455 1.565-1.22 1.783l1.318 1.9h-1.629l-1.03-1.783v1.783h-1.319Zm1.577-2.982c.65 0 .968-.172.968-.67 0-.46-.28-.645-.862-.645h-.364V37.9h.258Zm2.998 2.982v-5.535h2.925v1.223h-1.605v.895h1.605v1.23h-1.605v.965h1.605v1.222h-2.925Zm1.97-20.74a1.296 1.296 0 0 0-.475-.165c-.04-.006-.08-.009-.121-.012-.023-.002-.042-.006-.065-.006h-.061c-.055-.002-.109-.006-.162 0H22.625c-.745 0-1.35.62-1.35 1.386 0 .765.605 1.386 1.35 1.386h4.093a.25.25 0 0 1 .243.254c0 .08-.041.146-.098.192-2.244 1.232-5.13 1.978-8.288 1.978a19.78 19.78 0 0 1-2.251-.13v3.149c.637.047 1.284.075 1.94.075 4.395 0 8.392-1.105 11.389-2.908v.005a.26.26 0 0 1 .125-.031.27.27 0 0 1 .253.354l-.625 1.742c-.327.916.128 1.934 1.019 2.271.196.075.398.11.595.11.7 0 1.359-.442 1.614-1.157l2.258-6.302a1.782 1.782 0 0 0-.85-2.19ZM18.575 8.245c3.183 0 6.095.753 8.348 2.002 0 0 1.43 1.058 2.11.043.78-1.165-.778-1.89-.778-1.89-2.794-1.35-6.249-2.149-9.989-2.148-.656 0-1.303.026-1.94.075v2.049c.73-.085 1.482-.131 2.249-.131ZM2.401.99C1.088.991.021 2.086.021 3.436v26.688c0 1.35 1.067 2.445 2.38 2.445h13.923v-4.397C7.946 27.544 1.44 22.893 1.44 17.248S7.947 6.954 16.324 6.325V.99H2.4ZM5.656 16.7c0 4.166 4.606 7.626 10.668 8.325V8.376c-6.06.697-10.668 4.158-10.668 8.324Z"/></g><defs><clipPath id="a"><path fill="#fff" d="M0 .991h35v40H0z"/></clipPath></defs></svg>