<svg width="20" height="20" viewBox="0 0 20 20" fill="none" xmlns="http://www.w3.org/2000/svg">
<path fill-rule="evenodd" clip-rule="evenodd" d="M18.6737 1.32178L11.7354 18.7646L7.79053 12.2236L18.6737 1.32178Z" fill="#2C2C2C"/>
<path fill-rule="evenodd" clip-rule="evenodd" d="M18.9484 0.903984C19.1466 1.03434 19.226 1.2861 19.1383 1.50659L12.2 18.9494C12.1298 19.1259 11.9656 19.2474 11.7764 19.263C11.5871 19.2785 11.4053 19.1855 11.3072 19.0229L7.36238 12.4818C7.24375 12.2851 7.2744 12.0329 7.43668 11.8703L18.3198 0.968535C18.4875 0.800601 18.7501 0.773632 18.9484 0.903984ZM8.42061 12.3001L11.6432 17.6436L17.3112 3.39435L8.42061 12.3001Z" fill="#2B2A29"/>
<path fill-rule="evenodd" clip-rule="evenodd" d="M7.78932 12.2232L1.24023 8.29538L18.6736 1.32153L7.78932 12.2232Z" fill="#2B2A29"/>
<path fill-rule="evenodd" clip-rule="evenodd" d="M19.0909 1.04617C19.2216 1.24424 19.1951 1.50691 19.0274 1.67486L8.14316 12.5766C7.98098 12.739 7.72901 12.7702 7.53215 12.6521L0.983069 8.72422C0.82015 8.62651 0.726679 8.44491 0.741834 8.25554C0.756988 8.06618 0.878149 7.90175 1.05453 7.83119L18.4879 0.857351C18.7082 0.769208 18.9602 0.848098 19.0909 1.04617ZM2.36203 8.3852L7.71149 11.5936L16.602 2.68879L2.36203 8.3852Z" fill="#2B2A29"/>
</svg>
