<svg width="300" height="71" viewBox="0 0 300 71" fill="none" xmlns="http://www.w3.org/2000/svg">
<path fill-rule="evenodd" clip-rule="evenodd" d="M2.85034 61.5939C4.76733 61.608 6.91406 61.3058 8.3374 59.905C10.1245 58.1298 11.0105 55.517 11.7148 53.1569L29.0737 0.824219H30.6414L49.2327 53.2494C50.1327 55.7956 50.8844 58.6162 52.988 60.4679C54.4329 61.6047 56.375 61.6788 58.1401 61.6437V63.1401H35.0737V61.6437C37.2114 61.6437 38.6865 61.3586 39.5273 60.8456C41.8085 59.3441 40.5373 56.2227 39.8123 54.2114L36.0569 43.7292H19.0403L15.1924 55.5012C14.5945 57.2861 14.2095 59.6439 16.1045 60.7958C17.0452 61.4086 18.7268 61.6437 21.2637 61.5939V63.0902H2.85034V61.5939ZM27.2422 18.5464H27.0784L20.1165 40.2589H34.9167L27.2422 18.5464Z" fill="black"/>
<path fill-rule="evenodd" clip-rule="evenodd" d="M157.596 60.9382C156.983 61.3586 155.907 61.5439 154.411 61.5439V62.6555H170.943V61.5297C169.7 61.551 168.247 61.545 167.259 60.6816C165.813 59.292 165.226 57.0542 164.608 55.2162L151.268 15.6888H150.142L137.786 55.2162C137.271 56.9885 136.681 58.9478 135.392 60.3254C134.394 61.3583 132.861 61.6155 131.48 61.5939V62.7554H144.591V61.6294C142.76 61.6793 141.542 61.4869 140.886 61.0166C139.485 60.0675 139.887 58.3134 140.201 56.9431L140.202 56.9406L142.967 48.0332H155.159L157.831 55.8717C158.136 56.8551 158.532 57.8774 158.537 58.9216C158.596 59.7118 158.24 60.476 157.596 60.9382ZM143.772 45.5249L148.76 29.1354H148.881L154.318 45.5249H143.772Z" fill="black"/>
<path d="M104.081 60.5177C102.888 61.603 101 61.5796 99.4846 61.5438V62.6697H116.587V61.5438C115.3 61.5548 113.564 61.5278 112.696 60.418C111.633 59.0928 111.645 57.0636 111.663 55.4512V23.9762C111.626 22.4 111.597 20.4412 112.561 19.1021C113.51 18.0092 115.14 17.8481 116.501 17.8835V16.7576H105.199L92.7791 50.7053H92.6365L80.1877 16.6721H68.323V17.798C69.7959 17.7611 71.7051 17.8594 72.7766 19.0165C73.8132 20.3489 73.8013 22.283 73.7673 23.8906V55.4014L73.7693 55.6023C73.7854 57.1943 73.8059 59.2421 72.6841 60.4678C71.5793 61.6047 69.7983 61.6301 68.3159 61.5938V62.7053H82.0476V61.5795C80.5283 61.616 78.6592 61.6414 77.4585 60.5604C76.2944 59.2502 76.3186 57.2064 76.3384 55.5448L76.3396 55.4512V25.3015H76.4751L90.3562 62.7196H91.2329L105.157 24.4536H105.299V55.4014C105.342 57.0789 105.288 59.2091 104.081 60.5177Z" fill="black"/>
<path d="M300 68.2992H0V70.3586H300V68.2992Z" fill="black"/>
<path d="M203.751 19.3159H198.642V55.4513C198.594 57.1589 198.651 59.212 199.846 60.5605C201.142 61.6493 203.127 61.6125 204.747 61.5825L204.905 61.5796V62.7054H185.665V61.5939L185.899 61.5981C187.483 61.6276 189.517 61.6655 190.76 60.5962C191.987 59.2987 192 57.1239 191.965 55.4513V19.3018H186.977C184.858 19.2535 182.381 19.5389 180.791 21.0831C179.199 22.6183 178.842 25.1133 178.853 27.2257H177.727V16.7649H212.986V27.1901H211.86C211.767 24.3397 211.112 22.2661 209.893 21.0974C208.675 19.9288 206.658 19.3159 203.751 19.3159Z" fill="black"/>
<path d="M295.725 30.9882H296.965L296.116 15.7958H294.898C294.836 16.5564 294.646 17.3009 294.335 17.9977C294.134 18.4061 293.714 18.6616 293.259 18.6533C292.719 18.6256 292.192 18.4822 291.713 18.2328C288.893 17.0383 286.051 15.8039 282.927 15.8457C277.216 15.7795 271.941 18.5991 268.404 23.0143C264.354 28.1127 262.579 34.6631 262.625 41.1141C262.555 44.4744 263.128 47.817 264.314 50.962C267.157 58.4836 274.294 63.8817 282.463 63.8599C289.589 63.8599 294.812 60.2471 298.14 53.0713L297.014 52.5084C294.601 57.4509 290.261 61.6471 284.451 61.4514C277.714 61.5503 272.965 56.8264 271.511 50.3849C270.843 47.3698 270.528 44.2875 270.57 41.1996C270.57 33.5535 271.625 27.7388 273.763 23.848C275.591 20.1125 279.455 17.8115 283.611 17.9834C286.779 17.8823 289.834 19.1677 291.976 21.5037C294.135 23.7982 295.397 26.9906 295.725 30.9241V30.9882Z" fill="black"/>
<path d="M245.858 17.9238C244.326 17.8921 242.34 17.8508 241.197 19.0095C240.026 20.3457 239.973 22.3398 240.029 24.0261V55.5012C239.964 57.2601 240.151 59.2891 241.34 60.6816C242.43 61.6737 244.181 61.6727 245.619 61.6719C245.744 61.6718 245.866 61.6716 245.986 61.6722V62.791H227.416V61.6437L227.464 61.644C229.046 61.6575 231.061 61.6748 232.247 60.4679C233.354 59.1379 233.424 57.1948 233.373 55.5439V24.0284C233.388 22.3562 233.406 20.322 232.197 19.0166C230.981 17.8615 229.014 17.9052 227.443 17.9398L227.416 17.9406V16.8147H245.986V17.9264L245.858 17.9238Z" fill="black"/>
</svg>
