<?xml version="1.0" encoding="utf-8"?>
<!-- Generator: Adobe Illustrator 25.0.1, SVG Export Plug-In . SVG Version: 6.00 Build 0)  -->
<svg version="1.1" id="Layer_1" xmlns="http://www.w3.org/2000/svg" xmlns:xlink="http://www.w3.org/1999/xlink" x="0px" y="0px"
	 width="150px" height="50px" viewBox="0 0 150 50" xml:space="preserve">
<g>
	<g>
		<path style="fill-rule:evenodd;clip-rule:evenodd;fill:#FF333A;" class="st0" d="M146,50H4c-2.209,0-4-1.791-4-4V4c0-2.209,1.791-4,4-4h142c2.209,0,4,1.791,4,4v42
			C150,48.209,148.209,50,146,50z"/>
	</g>
	<g>
		<g>
			<path style="fill:#FFFFFF;" d="M17.551,40.44l-0.69-3.093h-3.673l-0.663,3.093H8.879l4.308-18.42h3.811l4.419,18.42H17.551z M16.308,34.503
				c-0.387-1.767-0.773-3.507-1.049-5.302c-0.111-0.801-0.221-1.629-0.304-2.43c-0.166,2.596-0.69,5.164-1.215,7.733H16.308z"/>
		</g>
		<g>
			<path style="fill:#FFFFFF;" d="M30.264,26.19c-0.746-0.635-1.602-1.187-2.623-1.187c-1.077,0-1.823,0.718-1.823,1.795
				c0,3.176,5.523,3.121,5.523,8.257c0,3.176-1.906,5.689-5.247,5.689c-1.132,0-2.237-0.304-3.176-0.939v-3.48
				c0.828,0.552,1.685,0.994,2.706,0.994c1.243,0,2.154-0.773,2.154-2.044c0-0.331-0.055-0.635-0.193-0.939
				c-0.331-0.69-1.353-1.298-1.961-1.712c-2.071-1.436-3.397-2.762-3.397-5.44c0-2.9,1.685-5.44,4.805-5.44
				c1.243,0,2.154,0.276,3.231,0.884V26.19z"/>
		</g>
		<g>
			<path style="fill:#FFFFFF;" d="M39.884,40.44l-3.397-9.362v9.362h-3.645V22.02h3.645v8.23l3.065-8.23h3.728l-3.397,8.506l3.811,9.914
				H39.884z"/>
		</g>
		<g>
			<path style="fill:#FFFFFF;" d="M55.974,30.195c0.028,0.469,0.028,0.939,0.028,1.408c0,1.298-0.055,2.624-0.331,3.894
				c-0.608,2.844-2.458,5.247-5.578,5.247c-4.971,0-6.545-5.358-6.545-9.445c0-4.225,1.381-9.555,6.545-9.555
				c2.817,0,4.639,1.767,5.413,4.363l-3.535,1.381c-0.166-1.077-0.469-2.541-1.85-2.541c-2.485,0-2.679,4.557-2.679,6.297
				c0,1.823,0.083,6.186,2.706,6.186c1.988,0,2.209-2.485,2.237-3.977h-2.32v-3.259H55.974z"/>
		</g>
		<g>
			<path style="fill:#FFFFFF;" d="M64.94,40.44l-0.69-3.093h-3.673l-0.663,3.093h-3.645l4.308-18.42h3.811l4.419,18.42H64.94z M63.698,34.503
				c-0.387-1.767-0.773-3.507-1.049-5.302c-0.111-0.801-0.221-1.629-0.304-2.43c-0.166,2.596-0.69,5.164-1.215,7.733H63.698z"/>
		</g>
		<g>
			<path style="fill:#FFFFFF;" d="M82.79,40.44l-0.911-13.256c-0.083,1.436-0.304,2.844-0.552,4.253l-1.629,9.003h-2.789l-1.712-8.34
				c-0.193-0.911-0.387-1.823-0.469-2.762l-0.221-2.154l-0.58,13.256h-3.894l1.602-18.42h4.805l1.795,10.881l1.464-10.881h4.916
				l1.905,18.42H82.79z"/>
		</g>
		<g>
			<path style="fill:#FFFFFF;" d="M91.919,22.02c0.967,0,2.596,0.055,3.866,1.298c0.994,0.967,1.519,2.485,1.519,3.977
				c0,0.911-0.193,1.823-0.856,2.624c-0.304,0.359-0.773,0.801-1.464,1.077c1.187,0.442,1.767,1.27,1.988,1.629
				c0.525,0.884,0.635,1.906,0.635,2.596c0,1.381-0.359,2.624-1.381,3.645c-1.408,1.408-3.259,1.574-4.336,1.574h-3.866V22.02
				H91.919z M91.671,29.587c0.58-0.028,1.243-0.276,1.602-0.635c0.525-0.525,0.58-1.298,0.58-1.712c0-0.442-0.055-1.132-0.58-1.657
				c-0.304-0.304-0.801-0.552-1.602-0.552V29.587z M91.671,37.292c0.58,0,1.243-0.193,1.657-0.58c0.387-0.359,0.69-0.994,0.69-1.795
				c0-0.884-0.304-1.547-0.718-1.933c-0.442-0.387-1.105-0.58-1.629-0.58V37.292z"/>
		</g>
		<g>
			<path style="fill:#FFFFFF;" d="M99.37,40.44V22.02h3.645v14.968h3.811v3.452H99.37z"/>
		</g>
		<g>
			<path style="fill:#FFFFFF;" d="M108.327,40.44V22.02h7.318v3.424h-3.673v3.977h3.231v3.48h-3.231v4.142h3.728v3.397H108.327z"/>
		</g>
		<g>
			<path style="fill:#FFFFFF;" d="M124.336,40.44l-3.231-8.478v8.478h-3.645V22.02h3.949c1.353,0,2.844,0.111,4.004,0.884
				c1.464,0.967,2.182,2.762,2.182,4.474c0,2.099-0.828,3.59-2.623,4.695l3.203,8.368H124.336z M121.104,29.946
				c0.193,0.028,0.414,0.028,0.608,0.028c1.574,0,2.347-1.077,2.347-2.568s-0.663-2.513-2.264-2.513h-0.69V29.946z"/>
		</g>
		<g>
			<path style="fill:#FFFFFF;" d="M137.021,26.19c-0.746-0.635-1.602-1.187-2.623-1.187c-1.077,0-1.823,0.718-1.823,1.795
				c0,3.176,5.523,3.121,5.523,8.257c0,3.176-1.906,5.689-5.247,5.689c-1.132,0-2.237-0.304-3.176-0.939v-3.48
				c0.828,0.552,1.685,0.994,2.706,0.994c1.243,0,2.154-0.773,2.154-2.044c0-0.331-0.055-0.635-0.193-0.939
				c-0.331-0.69-1.353-1.298-1.961-1.712c-2.071-1.436-3.397-2.762-3.397-5.44c0-2.9,1.685-5.44,4.805-5.44
				c1.243,0,2.154,0.276,3.231,0.884V26.19z"/>
		</g>
		<g>
			<circle style="fill:#FFFFFF;" cx="140.919" cy="24.495" r="2.398"/>
		</g>
	</g>
	<g>
		<path style="fill:#FFFFFF;" d="M31.418,18.402l-1.703-3.081h-1.352v3.081h-1.846V9.731h4.056c1.807,0,2.925,1.183,2.925,2.795
			c0,1.521-0.975,2.354-1.911,2.574l1.963,3.302H31.418z M31.6,12.513c0-0.715-0.559-1.157-1.287-1.157h-1.95v2.34h1.95
			C31.041,13.696,31.6,13.254,31.6,12.513z"/>
		<path style="fill:#FFFFFF;" d="M36.176,18.402V9.731h6.136v1.625h-4.29v1.82h4.199v1.625h-4.199v1.976h4.29v1.625H36.176z"/>
		<path style="fill:#FFFFFF;" d="M47.486,18.402l-3.341-8.671h2.093l2.405,6.656l2.405-6.656h2.093L49.8,18.402H47.486z"/>
		<path style="fill:#FFFFFF;" d="M55.246,18.402V9.731h1.846v8.671H55.246z"/>
		<path style="fill:#FFFFFF;" d="M60.108,18.402V9.731h6.136v1.625h-4.29v1.82h4.199v1.625h-4.199v1.976h4.29v1.625H60.108z"/>
		<path style="fill:#FFFFFF;" d="M75.617,18.402l-1.521-5.954l-1.508,5.954h-1.963l-2.483-8.671h2.067l1.521,6.266l1.651-6.266h1.443
			l1.638,6.266l1.521-6.266h2.067l-2.47,8.671H75.617z"/>
		<path style="fill:#FFFFFF;" d="M82.221,18.402V9.731h6.136v1.625h-4.29v1.82h4.199v1.625h-4.199v1.976h4.29v1.625H82.221z"/>
		<path style="fill:#FFFFFF;" d="M91.1,18.402V9.731h3.419c2.717,0,4.602,1.729,4.602,4.329c0,2.626-1.885,4.342-4.589,4.342H91.1z
			 M97.237,14.06c0-1.521-0.936-2.704-2.704-2.704h-1.586v5.421h1.573C96.236,16.777,97.237,15.542,97.237,14.06z"/>
		<path style="fill:#FFFFFF;" d="M106.375,18.402V9.731h4.563c1.651,0,2.496,1.053,2.496,2.21c0,1.079-0.676,1.82-1.495,1.989
			c0.936,0.143,1.664,1.04,1.664,2.119c0,1.313-0.858,2.353-2.522,2.353H106.375z M111.549,12.266c0-0.533-0.39-0.91-1.014-0.91
			h-2.314v1.82h2.314C111.159,13.176,111.549,12.825,111.549,12.266z M111.718,15.789c0-0.546-0.39-0.988-1.105-0.988h-2.392v1.976
			h2.392C111.302,16.777,111.718,16.413,111.718,15.789z"/>
		<path style="fill:#FFFFFF;" d="M118.322,18.402v-3.549l-3.328-5.122h2.106l2.145,3.471l2.145-3.471h2.093l-3.315,5.122v3.549H118.322z"/>
	</g>
</g>
</svg>
