<svg width="300" height="112" viewBox="0 0 300 112" fill="none" xmlns="http://www.w3.org/2000/svg">
<path d="M98.4386 6.65643C95.6847 7.48845 93.0246 8.28533 90.3644 9.10563C90.0239 9.20492 89.662 9.20492 89.3215 9.10563C77.7503 5.97068 65.4872 6.54449 54.2593 10.7462C48.9299 12.6741 44.1316 15.8342 40.2555 19.9688C40.0313 20.207 39.8051 20.4985 39.5055 20.6368L38.6969 18.293C37.8297 15.7735 36.986 13.2306 36.0837 10.7228C35.872 10.3389 36.051 9.84106 36.4586 9.67984C42.3349 6.0502 48.8302 3.5355 55.6186 2.26194C61.2264 1.14839 66.9437 0.684408 72.6576 0.879144C81.4247 1.14226 90.067 3.02965 98.1456 6.4455L98.4386 6.65643Z" fill="#FE0000"/>
<path fill-rule="evenodd" clip-rule="evenodd" d="M221.895 17.3907C223.934 29.064 215.849 38.1586 204.692 39.9374C201.919 40.3861 199.142 40.2655 196.349 40.2655C195.856 40.2303 195.751 40.3827 195.751 40.8632V60.9841C195.763 61.5348 195.622 61.6638 195.083 61.6638H185.028C184.419 61.6638 184.278 61.5114 184.278 60.9138V4.55878C184.278 4.05488 184.384 3.80878 184.911 3.72675C191.33 2.85566 197.907 2.06914 204.388 2.73067C212.801 3.45371 220.648 8.51631 221.895 17.3907ZM209.919 25.125V25.0899C212.799 18.4319 208.332 12.4875 201.399 12.5157C199.711 12.4278 198.02 12.4631 196.337 12.6212C195.821 12.6798 195.716 12.797 195.716 13.2775V29.3437C195.692 30.1171 196.044 30.2812 196.677 30.2812C201.585 30.2812 207.511 30.2014 209.919 25.125Z" fill="black"/>
<path fill-rule="evenodd" clip-rule="evenodd" d="M50.8379 60.3632C44.4962 41.4968 37.9426 22.7025 31.6427 3.82066C31.5115 3.21523 30.9361 2.7875 30.3185 2.8363H20.4983C19.9839 2.78567 19.5021 3.14826 19.4085 3.6566C13.2646 22.5432 6.17371 41.1168 0.166428 60.0468C-0.196851 61.2186 -0.0327895 61.6874 1.33829 61.6522C4.34986 61.5936 7.36181 61.6522 10.3851 61.6522C11.557 61.6522 11.639 61.5702 11.9905 60.4804C13.6468 55.4648 15.2952 50.4492 16.9358 45.4336C17.0463 44.899 17.5666 44.5296 18.1077 44.6016H32.5685C33.0499 44.5441 33.5332 44.8892 33.6349 45.3633C35.2811 50.4968 37.0551 55.5908 38.7677 60.703C38.9434 61.2304 39.1544 61.6874 39.9395 61.6874H50.0644C50.3768 61.693 50.6816 61.5216 50.8392 61.2519C50.9967 60.9821 50.9962 60.6325 50.8379 60.3632ZM28.7013 34.7228H21.8694C20.2288 34.7228 20.2639 34.1251 20.6272 33.0821C21.8537 29.5197 23.0725 25.9533 24.2834 22.383C24.4433 21.9033 24.6185 21.1958 25.2678 21.2932C25.7365 21.3635 25.8772 21.6447 26.0061 22.0432C27.261 25.7566 28.5666 29.4528 29.8615 33.1525C30.2716 34.3243 29.9435 34.711 28.7013 34.7228Z" fill="black"/>
<path d="M88.9938 28.6878C88.9938 28.1956 88.8766 28.0432 88.3727 28.055H83.4978C83.0642 28.055 82.9353 27.9495 82.947 27.5042V18.6918C82.947 18.2582 83.0525 18.1293 83.4861 18.141H88.4431C88.8766 18.141 89.0056 18.0355 88.9938 17.6019V11.9535C88.9938 11.5551 88.9938 11.4145 89.5094 11.2738C92.8915 10.3275 96.4883 9.45232 99.7633 8.13324C100.299 7.91883 100.296 8.15558 100.291 8.46664C100.291 8.49559 100.291 8.52518 100.291 8.55512V17.0629C100.291 18.0941 100.291 18.0941 101.275 18.0941H109.783C110.31 18.0941 110.533 18.0941 110.521 18.7738V27.3518C110.521 27.926 110.357 28.0198 109.841 28.0081H101.017C100.502 28.0081 100.279 28.0667 100.279 28.6995V47.1681C100.277 48.961 100.516 52.0051 102.869 52.1602C104.963 52.2945 107.062 51.9581 109.009 51.1759C109.52 50.9794 109.679 51.5026 109.701 51.9258C109.81 54.0867 110.181 58.8361 110.181 60.3164C110.181 60.8203 109.994 60.9844 109.572 61.125C107.734 61.7687 105.826 62.1935 103.888 62.3906C98.4159 63.1993 92.188 60.9573 90.236 55.4063C88.9067 51.6357 88.9465 47.6494 89.0079 43.702C89.0857 38.6996 88.9938 33.6912 88.9938 28.6878Z" fill="black"/>
<path d="M77.0979 29.6897C77.567 29.9863 78.0368 30.2834 78.5174 30.5628C79.4381 27.7538 80.3201 24.9316 81.3182 22.1488C81.5994 21.3636 81.5877 21.0355 80.8143 20.4964C77.9571 18.6306 74.6495 17.5699 71.2401 17.4261C68.9577 17.2113 66.6553 17.4097 64.4433 18.0121C60.0254 19.2543 56.5918 21.6917 54.7754 26.0394C53.586 28.7551 53.4441 31.815 54.377 34.6291C55.1035 36.7794 56.4388 38.6725 58.2207 40.0783C60.1102 41.5903 62.2105 42.8181 64.455 43.7228C66.4922 44.3753 68.4141 45.3442 70.1503 46.5939C71.0815 47.342 71.5385 48.5714 71.3222 49.7462C71.1829 50.8268 70.4355 51.791 69.4237 52.1954C67.6098 52.9361 65.608 53.0838 63.705 52.6173C61.1135 52.1035 58.6486 51.0841 56.4512 49.6173C55.3613 48.9142 55.3613 48.9142 54.9863 50.086C54.1305 52.7824 53.2888 55.4834 52.4082 58.1719C52.3028 58.5 52.2911 58.6875 52.5957 58.8516C53.7054 59.5138 54.8517 60.1124 56.0293 60.6445C59.9373 62.2305 64.1713 62.8457 68.369 62.4375C70.9882 62.2275 73.5347 61.4732 75.8456 60.2227C78.0694 59.0454 79.8898 57.2291 81.0721 55.0079C82.4267 52.4293 82.9234 49.4859 82.49 46.6056C82.1754 44.0661 81.0587 41.6933 79.3026 39.8322C77.1271 37.6702 74.4911 36.0277 71.5917 35.0276C69.7647 34.3912 68.0122 33.5582 66.3652 32.5432C65.4231 31.9636 64.9608 30.8907 65.1195 29.8106C65.3041 28.5536 66.2897 27.5226 67.537 27.2815C69.2816 26.9163 71.0914 27.0133 72.787 27.5628C74.3817 27.9724 75.7369 28.8292 77.0979 29.6897Z" fill="black"/>
<path d="M279.047 44.1329C275.85 35.6611 272.753 27.1561 269.695 18.6331C269.617 18.3217 269.285 18.1071 268.969 18.1643H257.52C257.016 18.1643 256.863 18.1878 257.145 18.762C257.429 19.3432 257.567 19.9816 257.813 20.5784L266.168 41.4376C266.51 42.2905 266.852 43.1434 267.193 43.9962L267.245 44.1246C268.969 48.4314 270.693 52.7354 272.449 57.0234C273.14 58.4742 272.133 59.8389 271.395 61.0429C270.001 63.4179 268.12 65.4707 265.875 67.0663C264.064 68.2438 262.09 69.148 260.016 69.7498L259.997 69.7571C259.717 69.8691 259.585 69.9218 259.723 70.2889C260.72 73.2447 261.506 76.2896 262.43 79.2654C262.512 79.5115 262.641 79.7576 263.027 79.6873C265.531 79.2721 267.947 78.4403 270.176 77.2263C273.712 75.2204 276.727 72.4103 278.977 69.0233C280.63 66.5391 282.08 63.9252 283.312 61.2069C286.038 55.2289 288.329 49.0696 290.648 42.9258C293.688 34.8843 296.793 26.8619 299.894 18.844C300.129 18.2464 299.976 18.1643 299.414 18.1643H288.363C288.015 18.109 287.678 18.355 287.625 18.7034C284.796 27.19 281.903 35.6558 279.047 44.1329Z" fill="black"/>
<path d="M126.845 19.3478C125.974 19.8744 125.184 20.5258 124.501 21.2814C124.326 20.2736 124.478 19.4885 124.279 18.715C124.173 18.176 124.009 18.176 123.611 18.176L114.835 18.176C114.241 18.1759 113.955 18.1759 113.818 18.3186C113.582 18.5654 113.697 19.096 113.697 19.4416C113.718 20.4402 113.785 21.4363 113.852 22.4312C113.933 23.6312 114.013 24.8294 114.013 26.0275V60.9022C114.013 61.5116 114.166 61.6522 114.763 61.6522H124.9C125.509 61.6522 125.638 61.4881 125.638 60.8905V37.6993C125.611 35.8625 126.059 34.05 126.939 32.4376C127.495 31.2711 128.368 30.2844 129.458 29.5902C130.548 28.8961 131.811 28.5224 133.103 28.5118C134.49 28.5194 135.869 28.7125 137.204 29.086C137.708 29.215 137.708 29.0274 137.708 28.6759V18.3049C137.708 18.1057 137.908 17.7072 137.462 17.7072C135.555 17.4139 133.619 17.3549 131.697 17.5315C129.978 17.8206 128.331 18.4372 126.845 19.3478Z" fill="black"/>
<path fill-rule="evenodd" clip-rule="evenodd" d="M175.161 25.4066C171.239 20.0613 164.657 17.2064 158.087 17.391C154.314 17.1478 150.289 18.4579 147.083 20.3441C143.993 22.1958 141.456 24.8424 139.736 28.0081C137.779 31.8088 136.77 36.0262 136.794 40.301C136.729 44.6153 137.872 49.0108 140.017 52.7462C143.38 58.4588 149.444 62.0492 156.025 62.4844C161.712 62.9659 167.543 61.178 171.939 57.5274C174.107 55.715 175.864 53.462 177.095 50.9181C178.567 47.7876 179.388 44.3909 179.509 40.9338C179.773 35.4876 178.393 29.8427 175.161 25.4066ZM167.743 39.8088C167.844 42.4365 167.284 45.0474 166.115 47.4025C164.864 50.2619 162.169 52.3281 159.083 52.7931C153.476 53.5298 149.254 48.0144 148.759 42.8674C147.978 38.5834 148.913 34.1641 151.361 30.5628C153.348 27.6662 157.278 26.4255 160.617 27.4006C165.729 28.893 167.883 34.9187 167.743 39.8088Z" fill="black"/>
<path fill-rule="evenodd" clip-rule="evenodd" d="M257.027 57.3046C257.113 58.5577 257.309 59.8008 257.613 61.0194C257.719 61.3944 257.649 61.6522 257.192 61.7108H247.453C246.914 61.7225 246.727 61.5584 246.727 61.0077C246.704 60.4153 246.649 59.8246 246.563 59.2381C244.106 61.0702 241.208 62.2178 238.163 62.5636C235.118 62.9095 232.036 62.4413 229.231 61.2069C226.937 60.1313 225.033 58.3708 223.782 56.1679C222.695 54.3088 222.075 52.2137 221.977 50.0624C221.687 46.7435 222.566 43.4276 224.461 40.6875C226.283 38.1928 228.762 36.2535 231.621 35.086C233.5 34.2656 235.466 33.6602 237.481 33.2813C238.765 33.0198 240.064 32.8397 241.371 32.7423C242.269 32.7022 243.162 32.6127 244.06 32.5227C244.475 32.4811 244.891 32.4394 245.309 32.4024C244.906 29.7962 243.354 27.4462 240.551 27.1642C237.269 26.7599 233.941 27.339 230.989 28.8282C229.882 29.4509 228.813 30.1396 227.789 30.8907C227.26 31.2294 227.209 31.071 227.092 30.7092C226.429 28.6625 225.743 26.6242 225.048 24.5881L225.047 24.5861C224.813 23.883 224.543 23.1916 224.274 22.5002C224.131 22.2324 224.238 21.8887 224.508 21.7502C229.565 18.5224 235.632 17.0538 241.606 17.426C247.446 17.6483 252.995 20.9259 255.176 26.4845C256.228 29.1169 256.711 31.9636 256.711 34.793V51.1171C256.719 53.1796 256.824 55.2421 257.027 57.3046ZM245.368 45.9316C245.364 45.5523 245.361 45.1857 245.403 44.8359L245.426 42.8555C245.423 42.7319 245.428 42.6064 245.433 42.4837C245.446 42.1757 245.458 41.8847 245.332 41.6836C245.225 41.5114 245.038 41.5896 244.831 41.6761C244.701 41.7309 244.562 41.7891 244.43 41.7891C242.712 41.7586 240.997 41.9596 239.332 42.3867C237.812 42.6736 236.379 43.3116 235.149 44.25C234.319 44.9487 233.724 45.8857 233.446 46.9339C233.167 47.9821 233.217 49.0908 233.59 50.1093C233.766 50.7507 234.121 51.3291 234.612 51.7771C235.104 52.2252 235.712 52.5246 236.367 52.6405C237.52 52.9382 238.73 52.9382 239.883 52.6405C240.994 52.3823 242.031 51.8716 242.913 51.1482C243.795 50.4247 244.498 49.5078 244.969 48.4687C245.383 47.5933 245.375 46.7342 245.368 45.9316Z" fill="black"/>
</svg>
