<svg width="300" height="68" viewBox="0 0 300 68" fill="none" xmlns="http://www.w3.org/2000/svg">
<path fill-rule="evenodd" clip-rule="evenodd" d="M25.5835 66.3691C43.3512 70.7997 61.3448 59.9877 65.774 42.2221C70.2031 24.4554 59.3926 6.45871 41.6258 2.02948C23.8633 -2.39974 5.86965 8.4132 1.44249 26.1809C-2.98881 43.9454 7.82309 61.9399 25.5835 66.3691ZM40.9357 21.1081C45.5297 22.6906 48.8894 25.0627 48.2293 29.4753C47.7515 32.7056 45.9608 34.2694 43.5835 34.8176C46.8479 36.5172 48.5091 39.1235 46.9266 43.6418C44.9628 49.2535 40.2973 49.7271 34.0929 48.553L32.5871 54.5872L28.9486 53.6807L30.4347 47.727C29.4916 47.4928 28.5278 47.244 27.535 46.9746L26.0438 52.9564L22.4094 52.0494L23.9152 46.0036C23.5755 45.9166 23.2337 45.8274 22.8894 45.7376C22.3724 45.6029 21.8501 45.4666 21.3213 45.3341L16.5863 44.1538L18.3927 39.9888C18.3927 39.9888 21.0736 40.7018 21.0374 40.6489C22.0674 40.9039 22.5244 40.2323 22.7048 39.7847L25.0842 30.2453C25.1733 30.2667 25.2607 30.2886 25.3449 30.3098C25.387 30.3203 25.4283 30.3307 25.4686 30.3407C25.3236 30.2827 25.1919 30.2453 25.0904 30.2194L26.7879 23.4098C26.8324 22.6366 26.5661 21.6615 25.0925 21.2936C25.1495 21.2552 22.4499 20.6366 22.4499 20.6366L23.4177 16.7504L28.4356 18.0033L28.4314 18.022C29.1859 18.2095 29.9631 18.3878 30.7549 18.5681L32.2461 12.5927L35.8826 13.4995L34.4214 19.3578C35.3976 19.5806 36.38 19.8055 37.3366 20.0438L38.7874 14.2239L42.4259 15.1307L40.9357 21.1081ZM29.4268 42.7803C32.3957 43.5645 38.8844 45.2783 39.916 41.1329C40.973 36.8944 34.6801 35.4823 31.6094 34.7933C31.2663 34.7163 30.9634 34.6483 30.7155 34.5865L28.7175 42.5962C28.9211 42.6467 29.1597 42.7097 29.4268 42.7803ZM32.2264 31.0762C34.7017 31.7368 40.1009 33.1777 41.0414 29.4101C42.0018 25.5563 36.7542 24.3946 34.1913 23.8273C33.903 23.7635 33.6487 23.7072 33.441 23.6554L31.6295 30.92C31.8006 30.9626 32.0014 31.0162 32.2264 31.0762Z" fill="#F7941D"/>
<path fill-rule="evenodd" clip-rule="evenodd" d="M105.036 18.7683C107.414 18.7683 109.469 19.1943 111.195 20.0309C112.929 20.8756 114.36 22.0136 115.508 23.4448C116.641 24.8833 117.484 26.5646 118.028 28.4915C118.568 30.4239 118.84 32.501 118.84 34.7247C118.84 38.1404 118.214 41.3675 116.951 44.4095C115.687 47.4559 113.973 50.0984 111.792 52.3524C109.613 54.6036 107.041 56.3782 104.074 57.6895C101.111 59.0018 97.8909 59.6577 94.4331 59.6577C93.9859 59.6577 93.1997 59.6447 92.089 59.6217C90.9789 59.5988 89.7025 59.4845 88.2729 59.2913C86.8343 59.0906 85.3133 58.7936 83.7075 58.3958C82.1022 58.0054 80.5772 57.4584 79.1416 56.764L91.9802 2.81921L103.479 1.03711L98.8822 20.1802C99.8661 19.7368 100.857 19.3931 101.847 19.143C102.838 18.8966 103.9 18.7683 105.036 18.7683ZM95.3915 50.5354C97.1231 50.5354 98.7549 50.1094 100.288 49.2728C101.825 48.4354 103.152 47.3048 104.263 45.8965C105.375 44.4818 106.254 42.8885 106.896 41.1082C107.537 39.3279 107.861 37.4707 107.861 35.5383C107.861 33.1643 107.464 31.3126 106.674 29.974C105.883 28.6408 104.42 27.9701 102.295 27.9701C101.599 27.9701 100.702 28.103 99.5895 28.3403C98.4734 28.5923 97.475 29.1154 96.5795 29.9025L91.6852 50.2321C91.9802 50.2844 92.2413 50.3339 92.4639 50.3806C92.682 50.431 92.9231 50.4668 93.1627 50.4915C93.4168 50.5199 93.7073 50.5345 94.0582 50.5345C94.2142 50.5345 94.3875 50.5347 94.5796 50.5349H94.5883C94.8263 50.5352 95.0931 50.5354 95.3915 50.5354Z" fill="#4D4D4D"/>
<path d="M130.764 58.6249H119.781L129.056 19.5957H140.114L130.764 58.6249Z" fill="#4D4D4D"/>
<path d="M136.109 14.8403C134.576 14.8403 133.186 14.384 131.952 13.4696C130.709 12.5607 130.094 11.1616 130.094 9.27595C130.094 8.23878 130.304 7.2657 130.722 6.34763C131.146 5.43138 131.7 4.6425 132.395 3.97181C133.089 3.30662 133.892 2.77518 134.805 2.37478C135.723 1.9808 136.7 1.78381 137.74 1.78381C139.272 1.78381 140.655 2.24011 141.893 3.15452C143.126 4.07351 143.746 5.47262 143.746 7.34817C143.746 8.38903 143.537 9.36575 143.115 10.282C142.697 11.1982 142.142 11.9871 141.448 12.6578C140.759 13.3239 139.949 13.8535 139.038 14.2503C138.119 14.6506 137.146 14.8403 136.109 14.8403Z" fill="#4D4D4D"/>
<path d="M161.244 8.08948L149.74 9.87156L142.464 40.5906C141.872 43.1139 141.528 45.5099 141.426 47.7895C141.328 50.0636 141.679 52.0819 142.464 53.8329C143.26 55.5905 144.591 56.9787 146.473 57.9945C148.358 59.0033 151.003 59.51 154.415 59.51C156.788 59.51 158.841 59.3178 160.576 58.918C162.307 58.5241 163.914 58.0559 165.399 57.5118L164.58 49.0493C163.442 49.4497 162.317 49.7557 161.208 49.9756C160.092 50.1992 158.938 50.3119 157.753 50.3119C156.314 50.3119 155.217 50.1112 154.452 49.7127C153.682 49.3205 153.151 48.7662 152.856 48.0469C152.559 47.3295 152.434 46.4774 152.488 45.4851C152.536 44.4974 152.706 43.4346 153.007 42.2966L156.269 28.6445H168.514L170.739 19.5939H158.419L161.244 8.08948Z" fill="#4D4D4D"/>
<path d="M170.254 43.0397C170.254 39.678 170.799 36.5078 171.886 33.54C172.972 30.5695 174.536 27.972 176.565 25.7428C178.588 23.5245 181.051 21.7672 183.951 20.4771C186.837 19.1944 190.069 18.5475 193.63 18.5475C195.86 18.5475 197.85 18.7582 199.603 19.1806C201.362 19.6067 202.953 20.1574 204.393 20.8482L200.605 29.4609C199.615 29.0596 198.588 28.7059 197.526 28.3852C196.463 28.0581 195.166 27.9005 193.631 27.9005C189.966 27.9005 187.067 29.164 184.91 31.6828C182.762 34.2034 181.68 37.5962 181.68 41.8522C181.68 44.3746 182.224 46.4142 183.316 47.9746C184.403 49.5349 186.41 50.311 189.325 50.311C190.763 50.311 192.151 50.1607 193.481 49.8675C194.82 49.5707 196.003 49.1969 197.045 48.7552L197.865 57.5842C196.476 58.1228 194.944 58.6095 193.264 59.0353C191.58 59.4471 189.575 59.6602 187.251 59.6602C184.182 59.6602 181.585 59.2115 179.46 58.3274C177.334 57.4294 175.578 56.2374 174.194 54.7274C172.803 53.2135 171.804 51.4464 171.187 49.4177C170.569 47.3909 170.254 45.2616 170.254 43.0397Z" fill="#4D4D4D"/>
<path fill-rule="evenodd" clip-rule="evenodd" d="M212.215 58.4702C214.146 59.2609 216.423 59.6602 219.045 59.6602C222.656 59.6602 225.838 58.9035 228.581 57.3955C231.328 55.8875 233.615 53.9457 235.444 51.5737C237.276 49.196 238.664 46.5205 239.6 43.5619C240.534 40.5887 241.005 37.6164 241.005 34.6523C241.005 32.2802 240.686 30.1115 240.041 28.1617C239.399 26.2046 238.445 24.5159 237.19 23.0774C235.921 21.6463 234.316 20.5275 232.367 19.7386C230.409 18.9479 228.144 18.5475 225.57 18.5475C222.063 18.5475 218.94 19.3043 216.225 20.8088C213.508 22.3233 211.2 24.2658 209.329 26.6416C207.443 29.0138 206.018 31.6828 205.058 34.6533C204.093 37.6174 203.616 40.5897 203.616 43.5628C203.616 45.9332 203.928 48.0964 204.575 50.0498C205.223 52.004 206.168 53.7001 207.432 55.1313C208.694 56.5699 210.289 57.6795 212.215 58.4702ZM220.234 29.3079C221.466 28.3742 222.906 27.9015 224.534 27.9015C226.611 27.9015 228.048 28.596 228.839 29.9767C229.632 31.363 230.03 33.2963 230.03 35.7665C230.03 37.2985 229.818 38.923 229.403 40.6263C228.978 42.3342 228.346 43.9074 227.504 45.3385C226.66 46.7733 225.621 47.9618 224.391 48.899C223.151 49.8428 221.719 50.3119 220.085 50.3119C218.007 50.3119 216.576 49.6174 215.78 48.2366C214.995 46.8485 214.595 44.9198 214.595 42.4432C214.595 40.9085 214.802 39.2932 215.222 37.5844C215.646 35.8792 216.274 34.3106 217.121 32.8721C217.958 31.44 218.997 30.2525 220.234 29.3079Z" fill="#4D4D4D"/>
<path d="M252.974 58.6249H241.981L251.256 19.5957H262.32L252.974 58.6249Z" fill="#4D4D4D"/>
<path d="M258.31 14.8403C256.778 14.8403 255.389 14.384 254.157 13.4696C252.92 12.5607 252.299 11.1616 252.299 9.27595C252.299 8.23878 252.512 7.2657 252.931 6.34763C253.35 5.43138 253.908 4.6425 254.602 3.97181C255.292 3.30662 256.103 2.77518 257.014 2.37478C257.927 1.9808 258.903 1.78381 259.94 1.78381C261.476 1.78381 262.863 2.24011 264.099 3.15452C265.335 4.07351 265.958 5.47262 265.958 7.34817C265.958 8.38903 265.737 9.36575 265.322 10.282C264.907 11.1982 264.349 11.9871 263.657 12.6578C262.96 13.3239 262.16 13.8535 261.247 14.2503C260.327 14.6506 259.352 14.8403 258.31 14.8403Z" fill="#4D4D4D"/>
<path d="M273.013 20.5146C272.001 20.8334 271.07 21.1266 270.235 21.3703L261.252 58.6204H272.312L279.511 28.4218C280.998 28.1249 282.455 27.971 283.887 27.971C285.372 27.971 286.467 28.2559 287.192 28.8231C287.906 29.3994 288.365 30.1434 288.56 31.0524C288.765 31.9722 288.775 33.0351 288.6 34.2408C288.427 35.4576 288.192 36.7028 287.893 37.991L282.997 58.6214H294.053L299.105 37.5476C300.534 31.713 300.153 27.1097 297.95 23.7462C295.746 20.3826 291.753 18.6958 285.96 18.6958C283.99 18.6958 282.215 18.782 280.659 18.9588C279.102 19.132 277.687 19.3556 276.432 19.6313C275.164 19.8989 274.029 20.1958 273.013 20.5146Z" fill="#4D4D4D"/>
</svg>
