<svg xmlns="http://www.w3.org/2000/svg" width="70" height="15" viewBox="0 0 71 15"><path d="M32.21 1.7h-2.167c-.254 0-.344.085-.39.34l-.903 5.179c-.04.258.027.34.277.34h.657c.246 0 .34-.082.382-.34l.274-1.567h1.2c1.214 0 2.089-.625 2.308-1.863.21-1.238-.418-2.09-1.637-2.09Zm-.6 2.726h-1.06l.266-1.5h1.055c.469 0 .707.289.625.754-.082.472-.414.746-.887.746Zm7.144-2.727h-3.27c-.254 0-.34.086-.39.34l-.903 5.18c-.039.258.024.34.278.34h3.347c.246 0 .34-.082.383-.34l.098-.555c.047-.246-.024-.336-.27-.336h-2.363l.195-1.121h1.875c.246 0 .352-.082.391-.34l.098-.55c.039-.247-.024-.329-.266-.329h-1.879l.176-1.062h2.289c.25 0 .344-.082.387-.332l.101-.555c.047-.254-.027-.34-.277-.34Zm3.844-.39c.644 0 1.183-.309 1.468-.836.075-.157.051-.211-.086-.278l-.44-.172c-.134-.046-.196-.027-.282.106a.587.587 0 0 1-.516.32c-.21 0-.36-.113-.406-.32-.04-.133-.098-.16-.27-.098l-.46.164c-.157.059-.204.121-.172.278.09.53.527.836 1.164.836Zm1.933.39h-.691c-.172 0-.262.055-.348.16l-1.879 2.368c-.523.668-.707.964-1.09 1.68h-.043c.336-.798.446-1.055.602-1.997l.32-1.87c.051-.255-.027-.337-.27-.337h-.655c-.25 0-.344.082-.391.336l-.902 5.184c-.04.254.023.336.277.336h.687c.164 0 .254-.043.352-.157l1.902-2.41c.528-.668.692-.922 1.067-1.64h.047c-.332.808-.442 1.039-.602 1.996l-.336 1.87c-.039.259.027.34.277.34h.66c.247 0 .34-.081.391-.34l.89-5.179c.052-.254-.023-.336-.265-.336Zm5.371 0h-3.867c-.242 0-.34.086-.39.34l-.09.555c-.051.25.023.332.265.332h1.278l-.746 4.293c-.043.258.023.34.27.34h.655c.25 0 .352-.082.391-.34l.75-4.293h1.273c.243 0 .34-.082.391-.332l.09-.555c.047-.254-.024-.34-.27-.34Zm5.57 0h-.69a.406.406 0 0 0-.352.16l-1.875 2.368c-.524.668-.707.964-1.09 1.68h-.04c.333-.798.438-1.055.598-1.997l.32-1.87c.048-.255-.023-.337-.269-.337h-.66c-.25 0-.34.082-.387.336l-.902 5.184c-.043.254.023.336.277.336h.688c.164 0 .254-.043.351-.157l1.903-2.41c.527-.668.691-.922 1.062-1.64h.047c-.332.808-.437 1.039-.598 1.996l-.335 1.87c-.04.259.027.34.277.34h.656c.246 0 .344-.081.395-.34l.89-5.179c.051-.254-.023-.336-.265-.336Zm5.86 0h-.66c-.25 0-.34.086-.387.34l-.332 1.938h-1.969l.332-1.938c.051-.254-.023-.34-.265-.34h-.66c-.243 0-.344.086-.391.34l-.902 5.18c-.04.258.023.34.277.34h.656c.242 0 .344-.082.395-.34l.344-2.012h1.96l-.351 2.012c-.04.258.023.34.277.34h.66c.243 0 .34-.082.383-.34l.903-5.18c.046-.254-.024-.34-.27-.34Zm4.918 0h-2.996c-.254 0-.34.086-.39.34l-.903 5.18c-.04.258.023.34.277.34h.66c.243 0 .34-.082.38-.34l.745-4.293h2.02c.25 0 .348-.082.387-.332l.097-.555c.051-.254-.023-.34-.273-.34ZM32.094 14.336l-.692-2.012c-.14-.406-.3-.648-.617-.836l2.121-2.324c.145-.176.114-.324-.113-.324h-.715c-.394 0-.48.039-.691.277l-1.778 2h-.222l.34-1.945c.05-.25-.024-.332-.27-.332h-.656c-.25 0-.34.082-.39.332l-.903 5.18c-.04.257.027.34.277.34h.66c.242 0 .34-.083.38-.34l.359-2.028h.21c.465 0 .594.114.72.496l.484 1.567c.082.254.195.304.609.304h.652c.243 0 .305-.156.235-.355Zm5.75.023L36.82 9.102c-.039-.215-.136-.262-.363-.262h-.629c-.226 0-.336.047-.445.277l-2.863 5.246c-.122.219-.079.328.164.328h.597c.41 0 .524-.066.649-.304l.386-.778h2.016l.113.774c.035.242.14.308.555.308h.566c.235 0 .32-.109.278-.328Zm-1.867-3.113.203 1.274h-1.317l.649-1.286a4.83 4.83 0 0 0 .398-1.168h.067s-.082.586 0 1.18Zm7.464-.73c.2-1.09-.46-1.805-1.789-1.805-1.367 0-2.148.496-2.625 1.387-.132.23-.09.347.13.43l.558.222c.222.066.324.031.457-.219.226-.398.574-.605 1.25-.605.52 0 .738.195.676.605-.075.418-.34.606-.739.606h-.812c-.254 0-.34.082-.39.34l-.09.507c-.044.25.023.332.273.332h.953c.43 0 .594.23.527.645-.082.398-.347.64-.965.64-.75 0-1.066-.203-1.148-.609-.047-.25-.137-.297-.379-.215l-.644.223c-.243.082-.325.2-.286.43.172.89.954 1.383 2.32 1.383 1.509 0 2.282-.626 2.477-1.731.106-.562.043-1.09-.558-1.45.437-.25.707-.581.804-1.116Zm5.887-1.68h-.691c-.172 0-.262.05-.352.152L46.41 11.36c-.52.668-.707.965-1.09 1.68h-.039c.332-.8.438-1.055.602-1.996l.316-1.871c.051-.25-.027-.332-.27-.332h-.656c-.253 0-.34.082-.39.332l-.903 5.18c-.042.257.024.34.278.34h.691a.4.4 0 0 0 .348-.157l1.902-2.406c.528-.672.692-.926 1.067-1.64h.05c-.336.804-.445 1.034-.605 1.991l-.332 1.872c-.043.257.023.34.273.34h.664c.243 0 .336-.083.387-.34l.895-5.18c.047-.25-.024-.332-.27-.332Zm5.86 0h-.657c-.254 0-.34.086-.39.336l-.336 1.941H51.84l.332-1.941c.05-.25-.024-.332-.266-.332h-.656c-.246 0-.344.082-.395.332l-.902 5.18c-.039.257.027.34.277.34h.66c.243 0 .34-.083.391-.34l.348-2.012h1.957l-.348 2.012c-.039.257.024.34.274.34h.66c.246 0 .344-.083.383-.34l.902-5.18c.047-.25-.023-.332-.27-.332Zm1.085 2.02-.293 1.675c-.226 1.367.497 2.285 2.032 2.285 1.547 0 2.504-.754 2.738-2.12l.293-1.673c.23-1.37-.488-2.312-2.031-2.312-1.535 0-2.504.773-2.739 2.144Zm3.477.05-.297 1.715c-.113.64-.562.965-1.254.965-.683 0-1.023-.324-.91-.965l.3-1.715c.106-.644.56-.965 1.243-.965.691 0 1.027.32.918.965Zm0 0" style="stroke:none;fill-rule:nonzero;fill:#d2150d;fill-opacity:1"/><path d="m22.457 13.793-1.586-4.578c-.215-.621-.45-1.004-.922-1.332l4.278-5.387c.363-.473.238-.805-.305-.805h-2.094c-.922 0-1.101.114-1.555.68l-3.3 4.156h-.395l.703-4.062c.106-.567-.054-.774-.633-.774H14.61c-.574 0-.793.207-.902.774l-1.98 11.457c-.11.566.05.765.628.765h2.04c.578 0 .793-.199.902-.765l.723-4.195h.304c.688 0 .903.332 1.082.918l1.012 3.273c.219.64.508.77 1.46.77h1.95c.598 0 .793-.403.633-.895Zm0 0" style="stroke:none;fill-rule:nonzero;fill:#000;fill-opacity:1"/><path d="M2.938 1.7h4.98c2.812 0 4.293 1.945 3.809 4.855-.508 2.89-2.547 4.246-5.364 4.246H1.13a.453.453 0 0 1-.442-.54l1.348-7.788c.11-.567.324-.77.902-.77Zm3.554 5.898H4.727l.468-2.692h1.766c.863 0 1.266.547 1.117 1.356-.144.804-.738 1.332-1.586 1.332Zm0 0" style="stroke:none;fill-rule:evenodd;fill:#000;fill-opacity:1"/><path d="M.977 12.055a.724.724 0 0 0-.707.605l-.262 1.492a.465.465 0 0 0 .097.375c.086.106.211.164.348.164h2.442a.725.725 0 0 0 .71-.605l.262-1.488a.458.458 0 0 0-.445-.543Zm61.78 1.906c.157 0 .259.027.306.09.05.058.062.168.039.328l-.024.101c-.023.16-.074.27-.144.329-.07.058-.184.09-.34.09h-.09c-.156 0-.258-.032-.305-.09-.047-.059-.058-.168-.035-.329l.023-.101c.024-.16.07-.266.141-.328.07-.063.184-.09.34-.09Zm3.274-3.027c.086 0 .137.015.164.05.028.032.032.09.016.176l-.496 2.871h1.406c.082 0 .137.02.164.055.024.031.028.09.016.172l-.063.367a.275.275 0 0 1-.082.176c-.031.035-.094.05-.18.05H64.91c-.078 0-.137-.015-.168-.05-.023-.031-.027-.09-.015-.176l.605-3.465a.35.35 0 0 1 .082-.176c.031-.035.094-.05.176-.05Zm4.75 0c.149 0 .184.074.102.222l-1.848 3.508a.381.381 0 0 1-.125.149.356.356 0 0 1-.18.039h-.437a.39.39 0 0 1-.176-.032c-.031-.027-.055-.078-.066-.144l-.637-3.52c-.023-.148.04-.222.188-.222h.406c.129 0 .21.015.262.043.046.03.074.082.085.16l.278 2.062c.012.086.02.184.023.297.008.106.008.195.008.266v.097h.035c.07-.238.153-.453.25-.656l1-2.066a.386.386 0 0 1 .137-.16.656.656 0 0 1 .277-.043Zm0 0" style="stroke:none;fill-rule:nonzero;fill:#000;fill-opacity:1"/></svg>