<svg xmlns="http://www.w3.org/2000/svg" width="209" height="93" fill="none" viewBox="0 0 209 93"><path fill="#44BE4C" d="M90.971 41.422c-1.665.333-3.205.5-6.576.5-4.869 0-10.446-2.622-10.446-12.194v-1.332c0-9.697 5.577-12.194 10.446-12.194 2.498 0 4.911.374 6.618.624.374.042.624.167.624.5v1.997c0 .25-.083.416-.458.416h-.125c-1.415-.124-4.328-.374-6.617-.374-3.87 0-6.867 2.247-6.867 8.948v1.332c0 6.617 2.997 8.947 6.867 8.947 2.247 0 5.077-.208 6.534-.332h.166c.417 0 .625.208.625.624v1.623c0 .624-.333.832-.791.916ZM120.395 41.672h-2.33c-.375 0-.583-.25-.666-.5l-2.581-7.823H104.58l-2.538 7.824c-.084.291-.375.5-.708.5h-2.33c-.375 0-.666-.25-.666-.542 0-.083 0-.166.041-.25l7.325-22.182c.666-2.08 2.539-2.58 4.037-2.58 1.457 0 3.329.457 3.995 2.538l7.325 22.224a.524.524 0 0 1 .042.25c-.042.291-.25.541-.708.541Zm-9.905-22.265c-.125-.375-.375-.625-.749-.625-.416 0-.666.25-.791.625l-3.537 11.028h8.615l-3.538-11.028ZM151.567 41.672h-2.164c-.375 0-.708-.374-.708-.79v-23.64c0-.374.292-.749.708-.749h2.164c.375 0 .708.333.708.75V40.88c0 .417-.292.791-.708.791ZM179.451 41.672h-2.455c-.624 0-1.082-.25-1.249-.624l-12.194-19.02c-.041-.083-.083-.124-.125-.124-.041 0-.041.041-.041.124v18.895c0 .375-.333.75-.708.75h-2.039c-.375 0-.708-.084-.708-.459V17.617c0-.624.5-1.124 1.166-1.124h2.164c1.124 0 1.29.208 1.623.79l12.111 18.895.083.125c.042 0 .042-.083.042-.124V17.241c0-.374.333-.749.707-.749h2.081c.416 0 .708.375.708.75v23.264c-.042.666-.541 1.165-1.166 1.165ZM198.346 41.963c-6.201 0-10.696-3.62-10.696-12.402v-.915c0-8.782 4.495-12.403 10.696-12.403S209 19.864 209 28.646v.915c0 8.74-4.453 12.402-10.654 12.402Zm7.033-13.317c0-6.618-2.705-9.156-7.033-9.156-4.287 0-7.075 2.538-7.075 9.156v.915c0 6.617 2.705 9.156 7.075 9.156 4.287 0 7.033-2.538 7.033-9.156v-.915Z"/><path fill="#2f2fde" d="M66.791 37.718c-3.33-.998-12.444-2.33-20.601-2.33-10.03 0-24.721 3.454-24.721 25.553v6.41c0 21.724 14.4 25.553 23.972 25.553 7.075 0 16.73-1.123 21.35-2.122 1.373-.292 1.582-.375 1.582-1.665V62.689a1.58 1.58 0 0 0-1.582-1.581H47.938c-.832 0-1.498.624-1.498 1.415v6.617c0 .791.666 1.415 1.498 1.415h4.536c.25 0 .458.208.458.458v5.868c0 .333-.25.624-.583.624-1.747.125-6.284.167-6.866.167-2.248 0-5.952-.291-5.952-10.155v-6.575c0-8.282 4.62-10.114 14.275-9.864 4.661.125 11.07.458 13.36.75 1.04.166 1.29-.209 1.29-1.374v-11.07c-.084-1-.125-1.208-1.665-1.666ZM114.61 45.75h-12.152c-.666 0-1.249.542-1.249 1.25v27.26c0 4.91-2.996 5.992-6.243 5.992-3.246 0-6.242-1.04-6.242-5.993V47c0-.666-.583-1.248-1.249-1.248H75.323c-.666 0-1.29.54-1.29 1.248v27.26c0 16.023 11.278 18.479 20.975 18.479 9.656 0 20.976-2.414 20.976-18.479V47c-.042-.707-.666-1.248-1.374-1.248ZM207.169 45.75h-12.153c-.665 0-1.248.542-1.248 1.25v27.26c0 4.91-2.997 5.992-6.243 5.992-3.246 0-6.243-1.04-6.243-5.993V47c0-.666-.582-1.248-1.248-1.248h-12.153c-.665 0-1.29.54-1.29 1.248v27.26c0 16.023 11.279 18.479 20.976 18.479 9.655 0 20.975-2.414 20.975-18.479V47c-.083-.707-.707-1.248-1.373-1.248ZM153.939 74.01c3.371-1.499 7.159-5.41 7.159-12.111V60.65c0-11.778-7.783-15.523-20.352-15.523-4.286 0-13.609.416-15.731.749-3.371.582-4.37 1.415-4.37 5.285v39.704c0 .666.624 1.248 1.29 1.248h12.153c.665 0 1.248-.582 1.248-1.248v-14.65h4.079l7.408 14.65c.333.624.582 1.248 1.664 1.248h13.027c.583 0 1.124-.416 1.124-1.123 0-.209-.042-.458-.167-.666l-8.532-16.315Zm-7.491-12.028c0 1.706-1.207 3.288-4.287 3.288h-6.742v-7.866h6.742c3.163 0 4.287 1.165 4.287 3.288v1.29Z"/><path fill="#44BE4C" d="m136.252 28.146-3.621-1.831c-2.622-1.498-3.787-2.456-3.787-3.954 0-2.206 1.581-3.08 5.452-3.08 1.539 0 3.579.084 6.034.25h.083c.417 0 .708-.25.708-.624V17.45c0-.25-.125-.54-.666-.665-1.207-.167-3.912-.458-6.118-.458-5.701 0-8.864 2.122-8.864 5.993 0 2.913 1.956 4.62 4.91 6.326l3.788 1.956c3.079 1.79 4.162 2.747 4.162 4.411 0 2.58-1.832 3.87-5.619 3.87-1.581 0-4.12-.124-5.785-.249h-.125c-.416 0-.707.25-.707.624v1.332c0 .416.125.583.749.707h.042c1.581.25 3.371.5 5.826.5 8.49 0 9.156-5.202 9.156-6.784-.042-2.705-1.54-4.578-5.618-6.867ZM17.057 58.86a.836.836 0 0 1-.54-.166c-4.454-2.788-6.243-7.74-5.078-14.4.707-4.078 4.287-9.863 8.115-13.234 1.582-1.374 2.997-2.497 4.287-3.371a10.03 10.03 0 0 1-.458-.958c-.208.375-.5.708-.79 1-1.416 1.331-2.04 1.622-2.54 1.622h-.124c-.083.084-.375.333-1.124 1.29l-.125.125c-2.788 3.33-5.41 6.493-6.908 9.614-2.164 4.495-1.748 9.031-1.29 11.362.041.291 0 .624-.208.832-.209.25-.5.375-.791.375-.292 0-.541-.125-.75-.333-5.576-6.076-6.991-17.064 5.952-29.632l.083-.042c1.873-1.54 4.37-3.33 5.785-4.287-.041-.124-.041-.29-.041-.416-.791.541-1.79 1.207-3.038 2.081C9.899 26.274 5.529 32.558 4.489 38.926c-.084.499-.5.873-1 .873-.374 0-.707-.208-.915-.54-2.663-4.828.375-9.115 1.665-10.946.083-.125.208-.291.25-.375l.041-.041c4.911-6.201 12.028-10.405 14.525-11.362.458-.166.916-.333 1.332-.416v-.25c-4.12 1.415-11.03 6.326-14.858 10.53-.208.208-.458.332-.749.332-.541 0-.999-.416-1.04-.998-.125-3.746 3.162-7.7 4.91-9.281 1.082-.958 4.079-2.955 7.242-4.87-1.332.666-2.705 1.374-3.787 1.998a1.108 1.108 0 0 1-.5.125c-.374 0-.749-.208-.915-.541-.167-.333-.167-.75.083-1.04 2.206-3.164 6.617-5.952 9.863-7.076.292-.083.625-.166.958-.166.624 0 1.331.166 2.039.54l.666-.082-.083-.084a1.71 1.71 0 0 1-.333-1.331c.083-.375.333-.708.707-.791 1.582-.458 5.993-1.124 10.946-1.124 4.62 0 10.987.583 15.232 3.33.374.25.541.707.416 1.165-.125.458-.54.75-.999.75h-.166a15.33 15.33 0 0 0-2.913-.292c-1.04 0-2.123.125-3.372.416-.083 0-.166.042-.208.042-.124 0-.25 0-.333-.042-.499-.166-.998-.333-1.456-.458.208.208.291.458.291.75a1.06 1.06 0 0 1-.79.915c-2.623.666-5.619 1.873-7.409 2.913l1.082 1.082c4.786-3.412 9.364-5.119 13.693-5.119 4.578 0 7.491 1.915 8.74 2.747 2.455 1.582 3.912 5.369 3.745 9.655-.041.541-.457 1-1.04 1a.916.916 0 0 1-.541-.167c-5.203-3.08-11.445-3.496-16.315-3.496-1.082 0-2.164.041-3.08.041h-.416a.804.804 0 0 1 .209.375c1.415-.083 2.705-.166 3.87-.166 6.284 0 11.403 1.415 16.564 4.578 2.788 1.79 3.954 5.077 3.704 10.32-.041.542-.5 1-.999 1-.083 0-.166 0-.25-.042.209.458.375.999.458 1.54.042.374-.041.707-.29.999-.209.208-.459.333-.75.333h-.166c-1.25-.208-1.707-.25-2.872-.416-.375-.042-.583-.333-.666-.458-.916-1.332-6.201-6.451-15.19-6.992h-.042l-1.498 1.124h.499c3.246 0 9.322.54 13.193 4.037.291.29.416.707.25 1.123a1.041 1.041 0 0 1-1 .666h-.083a48.132 48.132 0 0 0-4.952-.25c-2.58 0-4.953.209-6.326.5-.291.083-.666.166-1.124.25-4.828.957-16.19 3.246-20.642 18.561-.167.541-.708.874-1.457.874-.874 0-1.79-.416-1.914-1.248-.583-3.455-.125-10.488 9.863-18.853l-.458-.833-.374.416c-.5.541-1.082 1.083-1.665 1.707-4.412 4.453-10.488 10.53-7.325 21.267.084.333.042.624-.166.915-.416.125-.708.292-1.04.292Z"/><path fill="#000" d="M35.37 2.593c5.202 0 11.028.707 14.857 3.204.333.208.166.75-.208.75h-.083c-1.04-.167-1.998-.292-3.038-.292-1.04 0-2.123.125-3.496.416h-.084c-.041 0-.083 0-.124-.041-3.33-1.166-6.16-1.582-8.948-1.582-1.415 0-2.83.083-4.329.25-.291.042-.458.333-.333.583l.084.166c.083.125.208.25.374.25.999-.042 2.705-.208 4.537-.208 2.164 0 4.536.208 6.284.999.416.166.333.624-.083.749-2.747.707-5.952 1.997-7.825 3.121a.416.416 0 0 0-.124.583l1.415 1.415c.083.083.208.166.333.166a.59.59 0 0 0 .25-.083c5.451-3.912 9.946-5.12 13.483-5.12 4.329 0 7.2 1.832 8.407 2.623 2.456 1.581 3.621 5.369 3.455 9.073 0 .25-.208.374-.416.374-.084 0-.125 0-.209-.041-5.243-3.122-11.57-3.58-16.647-3.58-1.498 0-2.871.042-4.12.042a.397.397 0 0 0-.25.707l.375.292c.042.042.083.125.125.166l.041.167c.042.166.208.25.375.25h.041c1.332-.084 2.664-.167 3.996-.167 5.285 0 10.488.957 16.273 4.495 2.33 1.498 3.662 4.286 3.412 9.78 0 .208-.208.375-.374.375h-.084c-1.373-.333-2.538-3.704-5.618-4.828-.042 0-.083-.042-.125-.042-.333 0-.54.458-.25.708 1.873 1.623 5.203 3.163 5.66 6.409.042.291-.124.624-.374.624h-.042c-1.29-.208-1.748-.25-2.871-.416-.084 0-.167-.083-.209-.166-.707-1.04-5.95-6.7-15.69-7.242-.083 0-.166-.042-.208-.042l-2.289 1.707c-.332.25-.166.707.25.707.375 0 .75-.041 1.165-.041 4.079 0 9.406.832 12.777 3.87.291.25.083.708-.291.708h-.042a50.816 50.816 0 0 0-4.994-.25c-2.663 0-5.077.208-6.45.541-3.58.874-17.23 2.122-22.225 19.227-.083.292-.458.458-.874.458-.582 0-1.248-.291-1.332-.749-.582-3.288-.124-10.113 9.78-18.353.167-.125.209-.333.084-.5-.208-.374-.416-.79-.708-1.29a.437.437 0 0 0-.374-.208.378.378 0 0 0-.291.125c-.209.208-.375.416-.583.624-4.245 4.578-12.819 11.029-9.114 23.556.083.291-.125.541-.375.541-.083 0-.125 0-.208-.042-4.536-2.788-5.827-7.824-4.786-13.775.624-3.746 3.995-9.49 7.907-12.86 1.707-1.498 3.163-2.622 4.37-3.454a.397.397 0 0 0 .125-.5c-.25-.458-.5-.999-.75-1.54-.082-.166-.207-.25-.374-.25-.125 0-.291.084-.333.209-.208.457-.5.873-.874 1.207-1.373 1.331-1.83 1.456-2.122 1.456h-.167c-.25 0-.5.125-1.581 1.54-2.83 3.413-5.535 6.617-7.117 9.864-1.997 4.161-1.956 8.573-1.332 11.736a.42.42 0 0 1-.416.5.45.45 0 0 1-.291-.126c-4.37-4.744-7.99-15.232 5.91-28.758l.041-.041c1.873-1.582 4.37-3.33 5.827-4.37a.396.396 0 0 0 .166-.417c-.083-.499-.166-1.04-.166-1.581-.666.458-1.873 1.29-3.954 2.664h-.041C6.403 27.897 4.323 34.972 3.74 38.635a.405.405 0 0 1-.417.332.496.496 0 0 1-.374-.208c-2.664-4.87.832-9.114 1.914-10.696v-.041c4.953-6.243 11.945-10.28 14.234-11.154.582-.208 1.04-.333 1.415-.416a.405.405 0 0 0 .333-.417v-.707a.417.417 0 0 0-.417-.416c-.041 0-.125 0-.166.041-.083.042-.125.042-.208.084-4.328 1.456-11.404 6.575-15.15 10.696a.45.45 0 0 1-.29.124c-.209 0-.417-.166-.417-.374C4.114 22.028 7.235 18.2 8.9 16.7c1.623-1.456 8.033-5.493 12.236-7.74.125-.042.166-.167.208-.292.042-.208.083-.375.125-.583-.208.084-.375.167-.541.208-1.207.375-6.285 2.789-9.281 4.495-.083.042-.125.042-.208.042-.291 0-.541-.333-.333-.624 2.04-2.955 6.284-5.702 9.572-6.826.25-.083.5-.125.75-.125.665 0 1.29.25 1.83.5.042.041.125.041.167.041h.041l3.039-.416.041-.083c-2.206-.125-2.289-1.124-2.206-1.582.042-.166.125-.25.292-.29 1.373-.126 5.743-.833 10.737-.833Zm0-1.249c-4.995 0-9.531.666-11.113 1.124-.624.166-1.04.666-1.165 1.29-.042.25-.042.541 0 .79-.583-.207-1.124-.332-1.665-.332-.416 0-.79.042-1.165.166-3.33 1.124-7.908 4.037-10.197 7.325a1.78 1.78 0 0 0-.124 1.707c.166.29.374.499.624.665-1.124.75-1.998 1.415-2.497 1.873-1.831 1.623-5.202 5.785-5.12 9.739 0 .707.459 1.29 1.124 1.498-.041.083-.124.125-.166.208-.042.042-.042.083-.083.083l-.25.375C2.2 29.769-.963 34.265 1.867 39.466c.291.541.832.874 1.456.874.25 0 .5-.041.708-.166-.042.291-.042.541-.083.832-.333 6.077 2.497 10.114 4.245 11.986.333.333.749.541 1.207.541.499 0 .957-.208 1.29-.624.166-.208.291-.416.333-.666.832 2.955 2.538 5.286 5.16 6.909.25.166.541.25.874.25.5 0 1-.25 1.332-.666.333-.417.416-.958.25-1.457-.208-.75-.416-1.498-.541-2.206.5.375 1.165.583 1.831.583 1.04 0 1.831-.5 2.04-1.332 4.37-14.94 15.44-17.188 20.184-18.145.458-.084.832-.167 1.165-.25 1.29-.333 3.621-.5 6.16-.5 1.623 0 3.33.084 4.87.209h.166c.707 0 1.331-.417 1.581-1.082a1.84 1.84 0 0 0 .083-.833c.833.708 1.374 1.332 1.623 1.665.292.416.666.666 1.082.707 1.166.167 1.582.209 2.872.416h.25c.458 0 .915-.208 1.207-.54.333-.417.5-.958.416-1.499a5.894 5.894 0 0 0-.208-.915c.583-.25.999-.791 1.04-1.457.292-5.494-.998-8.948-3.995-10.862-.083-.042-.125-.084-.208-.125a1.7 1.7 0 0 0 1.207-1.54c.208-4.536-1.332-8.449-3.995-10.196-.916-.583-2.955-1.915-5.952-2.54.083-.124.125-.249.167-.374.208-.707-.084-1.456-.708-1.873C46.565 1.97 40.031 1.386 35.37 1.344ZM34.578 11.5l.998-.5c-.29.209-.582.417-.915.625l-.083-.125Z"/><path fill="#FCEE21" d="M30.916 41.506c-.79 0-1.415-.208-1.831-.625-.624-.624-.583-1.54-.541-2.205v-.416c-.042-.375-.042-.958 0-1.873 0-1.998 0-5.328-.208-10.447v-.374l.291-.208c.25-.167 2.372-1.582 3.704-1.582.541 0 .874.25 1.04.458l2.165 2.58c2.58 3.039 6.076 7.242 6.742 8.158.54.749.5 1.373.416 1.79-.25.915-1.165 1.414-1.665 1.622-.125.042-2.996 1.29-5.868 2.04-1.873.749-3.246 1.082-4.245 1.082Z"/><path fill="#000" d="M32.29 24.442c.25 0 .416.042.54.208.708.874 7.95 9.406 8.865 10.738.916 1.331-.208 2.164-.999 2.497-.79.333-3.37 1.373-5.826 2.04-1.873.707-3.121.998-3.954.998-2.206 0-1.665-1.831-1.706-2.664-.083-1.165.125-4.869-.25-12.319 0-.041 2.164-1.498 3.33-1.498Zm0-1.248c-1.415 0-3.455 1.29-4.037 1.664l-.583.375.041.707c.25 5.12.25 8.449.209 10.447v2.288c-.042.666-.084 1.79.707 2.664.541.541 1.29.833 2.248.833 1.082 0 2.497-.333 4.37-1.041 2.954-.79 5.826-2.04 5.95-2.08.625-.25 1.707-.875 2.04-2.04.167-.541.167-1.374-.5-2.33-.624-.875-3.537-4.37-6.783-8.2-1.082-1.29-1.956-2.33-2.164-2.58-.208-.291-.666-.707-1.498-.707Z"/><path fill="#FCEE21" d="M24.382 34.764c-2.58 0-5.285-1.332-7.033-3.496-1.665-2.04-2.29-4.495-1.748-6.95l.124-.5c.75-3.538 2.997-14.358 6.451-22.307l.25-.583.583.25c3.662 1.706 18.936 14.608 20.268 15.94 2.08 2.08 2.663 4.994 1.498 7.782-1.249 2.997-4.037 4.91-7.2 4.91-1.914 0-3.829-.707-5.702-2.08-1.04 4.453-3.787 7.034-7.49 7.034Z"/><path fill="#000" d="M22.717 1.76c3.621 1.665 18.853 14.608 20.06 15.815 4.328 4.329.624 11.612-5.244 11.612-1.873 0-3.953-.75-6.076-2.58-.916 5.41-3.954 7.532-7.075 7.532-4.536 0-9.28-4.453-8.199-9.697.625-2.788 2.955-14.358 6.534-22.682ZM22.093.096l-.5 1.165c-3.454 8.032-5.743 18.853-6.492 22.432l-.125.5c-.54 2.621.125 5.285 1.873 7.49 1.873 2.29 4.745 3.746 7.533 3.746 3.746 0 6.576-2.455 7.866-6.658 1.706 1.082 3.537 1.664 5.327 1.664 3.371 0 6.45-2.08 7.782-5.327 1.25-2.996.625-6.2-1.623-8.448C42.361 15.286 27.13 2.385 23.3.595l-1.207-.5Z"/></svg>
