<svg xmlns="http://www.w3.org/2000/svg" width="105" height="43" viewBox="0 0 104 43"><defs><linearGradient id="o" gradientUnits="userSpaceOnUse" x1="18628.7" y1="2845.43" x2="19915.2" y2="4248.16" gradientTransform="scale(.0044 .00446)"><stop offset="0" style="stop-color:#ddde0e;stop-opacity:1"/><stop offset="1" style="stop-color:#95ab00;stop-opacity:1"/></linearGradient><linearGradient id="a" gradientUnits="userSpaceOnUse" x1="21148.5" y1="1584.9" x2="23476.3" y2="1584.9" gradientTransform="scale(.0044 .00446)"><stop offset="0" style="stop-color:#feed9d;stop-opacity:1"/><stop offset="1" style="stop-color:#ffdc84;stop-opacity:1"/></linearGradient><linearGradient id="c" gradientUnits="userSpaceOnUse" x1="19662.2" y1="8126.17" x2="23103.1" y2="8126.17" gradientTransform="scale(.0044 .00446)"><stop offset="0" style="stop-color:#fecc47;stop-opacity:1"/><stop offset="1" style="stop-color:#fd8;stop-opacity:1"/></linearGradient><linearGradient id="d" gradientUnits="userSpaceOnUse" x1="18182.1" y1="6211.02" x2="19703" y2="6211.02" gradientTransform="scale(.0044 .00446)"><stop offset="0" style="stop-color:#4b6e00;stop-opacity:1"/><stop offset="1" style="stop-color:#6ea303;stop-opacity:1"/></linearGradient><linearGradient id="e" gradientUnits="userSpaceOnUse" x1="18199.7" y1="6358.77" x2="19575.7" y2="6358.77" gradientTransform="scale(.0044 .00446)"><stop offset="0" style="stop-color:#f6ff64;stop-opacity:1"/><stop offset="1" style="stop-color:#8fca10;stop-opacity:1"/></linearGradient><linearGradient id="f" gradientUnits="userSpaceOnUse" x1="18438.8" y1="6399.37" x2="19613.5" y2="6399.37" gradientTransform="scale(.0044 .00446)"><stop offset="0" style="stop-color:#2d5900;stop-opacity:1"/><stop offset="1" style="stop-color:#628e05;stop-opacity:1"/></linearGradient><linearGradient id="g" gradientUnits="userSpaceOnUse" x1="17026.6" y1="4983.9" x2="19623.5" y2="4983.9" gradientTransform="scale(.0044 .00446)"><stop offset="0" style="stop-color:#d4e300;stop-opacity:1"/><stop offset="1" style="stop-color:#bfc200;stop-opacity:1"/></linearGradient><linearGradient id="h" gradientUnits="userSpaceOnUse" x1="17098.8" y1="4664.34" x2="19002.1" y2="4664.34" gradientTransform="scale(.0044 .00446)"><stop offset="0" style="stop-color:#f7f86c;stop-opacity:1"/><stop offset="1" style="stop-color:#dfe300;stop-opacity:1"/></linearGradient><linearGradient id="i" gradientUnits="userSpaceOnUse" x1="18060.2" y1="6344.88" x2="19236.7" y2="5081.85" gradientTransform="scale(.0044 .00446)"><stop offset="0" style="stop-color:#305c00;stop-opacity:1"/><stop offset="1" style="stop-color:#6b9f03;stop-opacity:1"/></linearGradient><linearGradient id="j" gradientUnits="userSpaceOnUse" x1="18285.1" y1="6235.11" x2="18689.5" y2="4995.84" gradientTransform="scale(.0044 .00446)"><stop offset="0" style="stop-color:#77a600;stop-opacity:1"/><stop offset="1" style="stop-color:#8eb500;stop-opacity:1"/></linearGradient><linearGradient id="k" gradientUnits="userSpaceOnUse" x1="17881.7" y1="5451.24" x2="18721.5" y2="5451.24" gradientTransform="scale(.0044 .00446)"><stop offset="0" style="stop-color:#f8f96f;stop-opacity:1"/><stop offset="1" style="stop-color:#c7e200;stop-opacity:1"/></linearGradient><linearGradient id="l" gradientUnits="userSpaceOnUse" x1="18068.8" y1="3114.11" x2="19354.4" y2="4536.73" gradientTransform="scale(.0044 .00446)"><stop offset="0" style="stop-color:#a8c900;stop-opacity:1"/><stop offset="1" style="stop-color:#2a4d00;stop-opacity:1"/></linearGradient><linearGradient id="m" gradientUnits="userSpaceOnUse" x1="17911.8" y1="3191.61" x2="19296.8" y2="4154.6" gradientTransform="scale(.0044 .00446)"><stop offset="0" style="stop-color:#cde800;stop-opacity:1"/><stop offset="1" style="stop-color:#446e00;stop-opacity:1"/></linearGradient><linearGradient id="n" gradientUnits="userSpaceOnUse" x1="18005.3" y1="2927.84" x2="18749.8" y2="3402.83" gradientTransform="scale(.0044 .00446)"><stop offset="0" style="stop-color:#f7ff33;stop-opacity:1"/><stop offset="1" style="stop-color:#c4de00;stop-opacity:1"/></linearGradient><linearGradient id="b" gradientUnits="userSpaceOnUse" x1="16034.7" y1="7648.51" x2="16034.7" y2="1398.4" gradientTransform="scale(.0044 .00446)"><stop offset="0" style="stop-color:#ffd068;stop-opacity:1"/><stop offset="1" style="stop-color:#fff9ac;stop-opacity:1"/></linearGradient><linearGradient id="p" gradientUnits="userSpaceOnUse" x1="18743.3" y1="2641.95" x2="19800.7" y2="3794.86" gradientTransform="scale(.0044 .00446)"><stop offset="0" style="stop-color:#efec13;stop-opacity:1"/><stop offset="1" style="stop-color:#b5c002;stop-opacity:1"/></linearGradient><linearGradient id="q" gradientUnits="userSpaceOnUse" x1="18900.8" y1="2457.91" x2="19582.8" y2="3201.49" gradientTransform="scale(.0044 .00446)"><stop offset="0" style="stop-color:#fffa91;stop-opacity:1"/><stop offset="1" style="stop-color:#ecf90b;stop-opacity:1"/></linearGradient><linearGradient id="r" gradientUnits="userSpaceOnUse" x1="21213.1" y1="3122.92" x2="20331.6" y2="4742.91" gradientTransform="scale(.0044 .00446)"><stop offset="0" style="stop-color:#cad606;stop-opacity:1"/><stop offset="1" style="stop-color:#1e3c00;stop-opacity:1"/></linearGradient><linearGradient id="s" gradientUnits="userSpaceOnUse" x1="21214" y1="3111.16" x2="20361.8" y2="4677.33" gradientTransform="scale(.0044 .00446)"><stop offset="0" style="stop-color:#c9db00;stop-opacity:1"/><stop offset="1" style="stop-color:#406500;stop-opacity:1"/></linearGradient><linearGradient id="t" gradientUnits="userSpaceOnUse" x1="21151" y1="3081.93" x2="20642.7" y2="4016.01" gradientTransform="scale(.0044 .00446)"><stop offset="0" style="stop-color:#fff956;stop-opacity:1"/><stop offset="1" style="stop-color:#d7eb00;stop-opacity:1"/></linearGradient><linearGradient id="u" gradientUnits="userSpaceOnUse" x1="20019.1" y1="4706.99" x2="22029.3" y2="4116.04" gradientTransform="scale(.0044 .00446)"><stop offset="0" style="stop-color:#7c9e00;stop-opacity:1"/><stop offset="1" style="stop-color:#7eab03;stop-opacity:1"/></linearGradient><linearGradient id="v" gradientUnits="userSpaceOnUse" x1="20496.6" y1="4532.16" x2="22067.7" y2="4070.29" gradientTransform="scale(.0044 .00446)"><stop offset="0" style="stop-color:#a1b600;stop-opacity:1"/><stop offset="1" style="stop-color:#d9e800;stop-opacity:1"/></linearGradient><linearGradient id="w" gradientUnits="userSpaceOnUse" x1="21334.4" y1="4207.47" x2="22049.7" y2="3997.17" gradientTransform="scale(.0044 .00446)"><stop offset="0" style="stop-color:#fff920;stop-opacity:1"/><stop offset="1" style="stop-color:#fcf762;stop-opacity:1"/></linearGradient><linearGradient id="x" gradientUnits="userSpaceOnUse" x1="20265.7" y1="5152.73" x2="21529" y2="6749.59" gradientTransform="scale(.0044 .00446)"><stop offset="0" style="stop-color:#406500;stop-opacity:1"/><stop offset="1" style="stop-color:#7ea903;stop-opacity:1"/></linearGradient><linearGradient id="y" gradientUnits="userSpaceOnUse" x1="20282.5" y1="5074.11" x2="21382.2" y2="6464.22" gradientTransform="scale(.0044 .00446)"><stop offset="0" style="stop-color:#7c9e00;stop-opacity:1"/><stop offset="1" style="stop-color:#c3d700;stop-opacity:1"/></linearGradient><linearGradient id="z" gradientUnits="userSpaceOnUse" x1="20712.1" y1="5095.72" x2="21270" y2="5800.97" gradientTransform="scale(.0044 .00446)"><stop offset="0" style="stop-color:#c8e600;stop-opacity:1"/><stop offset="1" style="stop-color:#fefe44;stop-opacity:1"/></linearGradient><linearGradient id="A" gradientUnits="userSpaceOnUse" x1="19582" y1="6502.2" x2="20938.7" y2="5695.05" gradientTransform="scale(.0044 .00446)"><stop offset="0" style="stop-color:#537d00;stop-opacity:1"/><stop offset="1" style="stop-color:#b5d100;stop-opacity:1"/></linearGradient><linearGradient id="B" gradientUnits="userSpaceOnUse" x1="20367" y1="6788.87" x2="20264.9" y2="5033.7" gradientTransform="scale(.0044 .00446)"><stop offset="0" style="stop-color:#c5cf00;stop-opacity:1"/><stop offset="1" style="stop-color:#96bf00;stop-opacity:1"/></linearGradient><linearGradient id="C" gradientUnits="userSpaceOnUse" x1="20307.2" y1="6082.3" x2="20264" y2="5340.03" gradientTransform="scale(.0044 .00446)"><stop offset="0" style="stop-color:#fcec61;stop-opacity:1"/><stop offset="1" style="stop-color:#c8e600;stop-opacity:1"/></linearGradient></defs><path style="stroke:none;fill-rule:nonzero;fill:#000;fill-opacity:1" d="M69.855 5.684h9.368L86.34.114a.535.535 0 0 1 .668.007l7.11 5.563h9.366c.297 0 .54.238.543.546v27.848a.56.56 0 0 1-.34.508L86.91 42.934a.546.546 0 0 1-.48 0l-16.813-8.368c-.27-.132-.305-.355-.305-.609V6.23c0-.304.247-.546.543-.546Zm0 0"/><path style="stroke:none;fill-rule:evenodd;fill:#3e314b;fill-opacity:1" d="M69.855 6.23h9.555L86.668.547l7.266 5.683h9.546v27.848l-16.812 8.363-16.813-8.363Zm0 0"/><path style="stroke:none;fill-rule:evenodd;fill:#6a5c80;fill-opacity:1" d="M74.11 11.176h1.632l.117 16.25.106-16.25h2.89l.11 23.222-4.856-2.46Zm4.964 0h2.172l1.774-1.434.07 6.543.07-6.652.23-.188.07 7.305.083-7.43 1.039-.84.05 5.446.063-5.535.246-.204.067 6.192.066-6.297.79-.637.066 6.48.066-6.593.3-.238.22 20.476.222-20.726 2.446 1.98.129 11.989.128-11.782 1.801 1.461.137 12.89.137-12.671.578.465h2.601l.086 7.914.082-7.914h1.371l.09 8.176.082-8.176h.938l.047 5.101.05-5.101h.844l.094 5.828.098-5.828h.75v20.761l-6.024 3.047-.066-3.172-.067 3.247-1.578.8-.125-11.53-.125 11.655-1.14.575-.07-7.137-.083 7.215-1.074.55-.102-9.152-.101 9.25-1.906.965-.176-16.813-.18 16.735-1.457-.742-.047-9.043-.047 9-.902-.457-.09-8.106-.09 8.016-1.886-.961-.106-9.684-.101 9.582-2.723-1.382Zm0 0"/><path style="stroke:none;fill-rule:evenodd;fill:#fccd4b;fill-opacity:1" d="m80.836 9.566 5.832-4.562 5.836 4.562h7.672v22.332l-13.508 6.727-13.508-6.727V9.566Zm22.648 24.512V6.23h-9.55L86.668.547 79.41 6.23h-9.555v27.848l16.813 8.363Zm0 0"/><path style="stroke:none;fill-rule:evenodd;fill:#fccd4b;fill-opacity:1" d="M71.5 7.89h8.621l-.715-1.66h-9.55Zm0 0"/><path style="stroke:none;fill-rule:evenodd;fill:#ffe46f;fill-opacity:1" d="M86.668.547 79.41 6.23l.711 1.66 6.547-5.124Zm0 0"/><path style="stroke:none;fill-rule:evenodd;fill:#fccd4b;fill-opacity:1" d="m93.223 7.89.71-1.66L86.669.547v2.219Zm0 0"/><path style="stroke:none;fill-rule:evenodd;fill:url(#a)" d="M103.484 6.23h-9.55l-.711 1.66h8.613Zm0 0"/><path style="stroke:none;fill-rule:evenodd;fill:#ff9934;fill-opacity:1" d="M101.836 7.89v25.098l1.644 1.09V6.23Zm0 0"/><path style="stroke:none;fill-rule:evenodd;fill:#fbb03d;fill-opacity:1" d="M92.504 9.566h7.672l1.66-1.675h-8.613l-6.555-5.125v2.238Zm0 0"/><path style="stroke:none;fill-rule:evenodd;fill:#ff953a;fill-opacity:1" d="m80.836 9.566 5.832-4.562V2.766l-6.55 5.125Zm0 0"/><path style="stroke:none;fill-rule:evenodd;fill:url(#b)" d="M71.5 32.988V7.891l-1.645-1.66v27.847Zm0 0"/><path style="stroke:none;fill-rule:evenodd;fill:#fecc47;fill-opacity:1" d="M86.668 38.625 73.16 31.898V9.566h7.668l-.707-1.675H71.5v25.097l15.168 7.52Zm0 0"/><path style="stroke:none;fill-rule:evenodd;fill:#ffb63f;fill-opacity:1" d="M86.668 40.508 71.5 32.988l-1.645 1.09 16.813 8.363Zm0 0"/><path style="stroke:none;fill-rule:evenodd;fill:#ff9934;fill-opacity:1" d="m101.836 32.988-15.168 7.52v1.933l16.816-8.363Zm0 0"/><path style="stroke:none;fill-rule:evenodd;fill:url(#c)" d="m86.668 40.508 15.168-7.52-1.66-1.09-13.508 6.727Zm0 0"/><path style="stroke:none;fill-rule:evenodd;fill:#facd50;fill-opacity:1" d="M100.176 9.566v22.332l1.66 1.09V7.891Zm0 0"/><path style="stroke:none;fill-rule:nonzero;fill:#fffd99;fill-opacity:1" d="m80.07 7.781 6.598-5.152 6.598 5.152h8.68v25.282l-15.278 7.566-15.273-7.566V7.78ZM71.61 8v24.918l15.058 7.473 15.059-7.473V8h-8.559l-6.5-5.09L80.164 8Zm0 0"/><path style="stroke:none;fill-rule:nonzero;fill:#000;fill-opacity:1" d="m25.035 22.61-1.2 2.062c-.323.558-.87.39-1.339.187-.512-.226-2.074-.8-2.41-.23-.285.488 1.36 1.078 1.644 1.203.739.3 1.344.555 2.075 1.215a4.108 4.108 0 0 1 1.23 1.988Zm.02-1.094a.948.948 0 0 1 .93-.774h3.074a.97.97 0 0 1 .96.969v8.484h3.442c.121 0 .234.024.34.063a6.584 6.584 0 0 1-.578-2.715 6.68 6.68 0 0 1 2.07-4.828 7.168 7.168 0 0 1 4.969-1.988 7.123 7.123 0 0 1 5.668 2.765v-1.781c0-.531.433-.969.953-.969h10.394c.52 0 .953.438.953.969v1.14c.407-.581.973-1.07 1.641-1.437 1.281-.707 2.824-.914 4.266-.824 1.125.074 2.25.308 3.3.62.676.2.903.724.551 1.333l-1.238 2.129c-.273.476-.766.441-1.195.25a9.448 9.448 0 0 0-.989-.39c-.351-.098-1.359-.298-1.562.105-.168.332.566.718.824.836 1.078.507 1.957.722 2.89 1.574a4.087 4.087 0 0 1 1.235 2.008c.195.758.164 1.57-.101 2.36-.25.722-.7 1.355-1.297 1.835a5.43 5.43 0 0 1-2.176 1.055c-.852.199-1.832.242-2.82.187a16.437 16.437 0 0 1-3.235-.527c-.601-.168-.8-.61-.61-1.195l.68-2.07c.211-.634.598-.891 1.32-.614.907.352 1.563.617 2.556.582.359-.008.52-.176.523-.309 0-.257-.586-.468-.832-.574-1.766-.742-3.426-1.52-4.14-3.457a3.965 3.965 0 0 1-.262-1.476c-.086.015-.188.043-.282.043H54.57v8.484a.96.96 0 0 1-.953.965h-3.074a.96.96 0 0 1-.953-.965v-8.492h-2.707c-.043 0-.086 0-.137-.004.363.812.566 1.715.566 2.66 0 1.887-.792 3.594-2.082 4.828-2.73 2.637-7.195 2.637-9.945 0-.32-.312-.61-.66-.863-1.027v2.035a.969.969 0 0 1-.961.965h-7.477a.966.966 0 0 1-.949-.965v-2.297a4.032 4.032 0 0 1-1.394 2.16 5.386 5.386 0 0 1-2.18 1.063c-.852.195-1.832.238-2.816.187a16.056 16.056 0 0 1-3.243-.535c-.601-.16-.793-.602-.605-1.187l.75-2.258c.226-.68.836-.586 1.336-.399.847.328 1.523.57 2.488.54.192-.012.45-.079.473-.305.027-.254-.453-.422-.64-.504-1.477-.614-3.18-1.324-4.02-2.887a5.35 5.35 0 0 1-.286-.629c-.382-1.062-.312-2.05.09-2.902.387-.836 1.09-1.524 1.969-2.012 1.281-.707 2.82-.914 4.262-.824 1.097.066 2.191.3 3.222.598.239.066.434.12.614.32ZM54.992 5.738h3.278c.542 0 .984.45.984.989v3.898h3.332V6.727c0-.54.445-.989.984-.989h3.282a.99.99 0 0 1 .976.989v12.449a.987.987 0 0 1-.976.988H63.57a.989.989 0 0 1-.984-.988v-3.863h-3.332v3.87a.991.991 0 0 1-.918.981h-3.344a.985.985 0 0 1-.98-.988v-2.293c-.02.058-.043.117-.059.18A4.291 4.291 0 0 1 52.586 19c-.664.547-1.477.918-2.3 1.113-.903.215-1.95.266-2.997.203a17.02 17.02 0 0 1-3.437-.562c-.25-.067-.422-.168-.536-.317-.058.438-.418.727-.851.727h-3.856c-.492 0-.992-.363-1.12-.848l-.407-1.57h-3.035l-.473 1.543c-.156.496-.597.875-1.125.875h-3.777a.832.832 0 0 1-.852-.844.99.99 0 0 1-.972.844h-7.973a.983.983 0 0 1-.98-.988V6.988a1.25 1.25 0 0 1-.168.41l-1.282 2.336c-.453.813-.629.641-1.437.567-.492-.051-1-.098-1.492-.07-.786.039-1.454.351-1.922.855-.461.488-.735 1.176-.735 1.969 0 .664.211 1.27.563 1.75a2.56 2.56 0 0 0 1.426.98c.543.137 1.144.027 1.742-.082.746-.137 1.203-.265 1.59.52l1.168 2.382c.257.536.078 1.094-.535 1.25-.86.215-1.997.415-3.13.504-.933.07-1.859.063-2.632-.074-1.672-.3-3.14-1.215-4.188-2.508a7.443 7.443 0 0 1-1.64-4.683 7.51 7.51 0 0 1 .847-3.477c1.664-3.199 5.203-4.402 8.625-4.058.852.086 1.7.253 2.52.484.402.105.61.3.676.61 0 .007.004.011.004.027a.987.987 0 0 1 .293-.649.955.955 0 0 1 .687-.293h3.281c.543 0 .985.45.985.989v9.09h3.707c.27 0 .52.113.691.292.18.184.293.434.293.703v2.372c.008-.063.027-.125.047-.188l4.367-12.445c.16-.457.625-.817 1.106-.817h4.351c.484 0 .942.36 1.106.809l4.363 12.2c.016-.071.035-.138.058-.212l.758-2.328c.2-.601.723-.734 1.27-.535.879.336 2.277.852 3.05.59.422-.149.434-.403.079-.633-.317-.215-.848-.398-1.035-.48-1.723-.743-3.305-1.582-4.016-3.497-.41-1.12-.332-2.164.09-3.062.41-.883 1.156-1.613 2.082-2.125 1.363-.75 2.992-.973 4.523-.875 1.157.066 2.309.316 3.399.629.23.066.43.11.605.289.11-.45.504-.77.957-.77Zm-.98 8.649V7.77l-1.227 2.105c-.293.512-.808.441-1.262.238a8.397 8.397 0 0 0-1.023-.398 3.291 3.291 0 0 0-1.117-.14c-.39.015-.863.3-.488.698.32.356 1.207.7 1.671.891.774.32 1.426.59 2.2 1.29a4.362 4.362 0 0 1 1.246 1.933Zm-18.106-2.614-.566 2.13h1.16Zm-24.71 17.52h-1.79a.792.792 0 0 1-.785-.793v-2.11c-.21.712-.598 1.36-1.133 1.868a4.43 4.43 0 0 1-3.09 1.242 4.459 4.459 0 0 1-3.101-1.242A4.157 4.157 0 0 1 0 25.238c0-1.175.496-2.246 1.297-3.02.84-.8 1.95-1.241 3.101-1.238a4.438 4.438 0 0 1 3.09 1.247 4.193 4.193 0 0 1 1.133 1.863v-2.367c0-.438.356-.793.785-.793h4.34c.434 0 .79.355.79.793v1.28c0 .22-.09.423-.235.56a.761.761 0 0 1-.555.23h-1.773v.395h1.773c.219 0 .41.09.555.23.148.148.23.352.234.562v1.176c0 .215-.09.41-.234.555a.744.744 0 0 1-.555.234h-1.773V28.5a.79.79 0 0 1-.778.793ZM4.39 23.887c-.621 0-.899.843-.899 1.351 0 .516.278 1.36.899 1.36.617 0 .894-.844.894-1.36 0-.508-.277-1.351-.887-1.351Zm35.87.98c-1.28 0-1.894 1.59-1.894 2.676 0 1.082.613 2.672 1.895 2.672 1.281 0 1.886-1.59 1.886-2.672 0-1.086-.605-2.676-1.886-2.676Zm0 0"/><path style="stroke:none;fill-rule:evenodd;fill:#fff;fill-opacity:1" d="m23.367 24.395 1.238-2.133c.118-.211.133-.41-.144-.496-2.094-.621-4.45-.985-6.55-.184-2.138.805-3.493 2.8-2.243 5.11.754 1.413 2.387 2.078 3.793 2.667.34.145.703.332.875.618.203.34.047.761-.254.992a1.246 1.246 0 0 1-.691.234 5.711 5.711 0 0 1-2.387-.457l-.5-.183c-.203-.079-.387-.06-.469.195l-.719 2.187c-.093.278-.066.41.23.485 1.712.465 4.067.746 5.794.336 1.344-.317 2.613-1.164 3.082-2.532.46-1.359.105-2.8-.973-3.777-.918-.82-1.664-.965-2.773-1.488-.242-.117-.54-.274-.774-.473-.859-.707-.308-1.598.688-1.644.89-.036 1.558.25 2.34.593.14.07.336.114.437-.05Zm31.625-18.11h3.278c.246 0 .44.207.44.442v4.007a.44.44 0 0 0 .435.442h3.55c.239 0 .438-.2.438-.442V6.727c0-.235.195-.434.437-.434h3.282c.238 0 .437.195.437.434v12.449c0 .242-.2.441-.437.441H63.57a.44.44 0 0 1-.437-.441v-3.977c0-.242-.2-.441-.438-.441h-3.55a.44.44 0 0 0-.434.441v3.977a.444.444 0 0 1-.441.441h-3.278a.449.449 0 0 1-.441-.441V6.726c0-.238.203-.433.441-.433ZM8.727 7.425a6.808 6.808 0 0 0-2.961 5.669c0 3.328 2.324 6.097 5.375 6.648 1.617.293 4.027-.035 5.543-.422.27-.066.285-.254.18-.472l-1.173-2.383c-.183-.356-.27-.344-.632-.285-.774.129-1.563.336-2.34.14-1.383-.347-2.41-1.68-2.41-3.265 0-1.89 1.343-3.278 3.18-3.375.624-.035 1.257.047 1.855.097.39.036.43.043.629-.308l1.28-2.332c.165-.305.177-.473-.175-.567-.8-.222-1.613-.375-2.433-.46-2.024-.208-4.215.163-5.918 1.316Zm10.148-1.14h3.281c.246 0 .442.207.442.442v9.203c0 .25.195.441.433.441h3.817c.246 0 .441.203.441.442v2.363c0 .242-.2.441-.441.441h-7.973a.45.45 0 0 1-.438-.441V6.726c0-.238.204-.433.438-.433Zm14.477 0h4.351c.246 0 .508.207.598.442l4.449 12.449c.086.242-.035.441-.281.441h-3.86c-.246 0-.53-.191-.593-.441l-.446-1.703a.423.423 0 0 0-.37-.278h-3.25a.438.438 0 0 0-.38.278l-.515 1.648c-.082.274-.313.496-.606.496h-3.777c-.235 0-.363-.199-.281-.441l4.367-12.45c.086-.238.347-.433.594-.433Zm2.546 3.422-1.191 4.469c-.062.156.02.277.172.277h2.086c.156 0 .234-.121.18-.277Zm16.422-.105 1.32-2.274c.13-.226.137-.441-.16-.523-2.222-.66-4.734-1.047-6.972-.2-2.274.856-3.719 2.985-2.395 5.446.813 1.5 2.547 2.219 4.043 2.84.364.148.75.351.934.652.215.367.05.816-.262 1.059-.21.152-.48.238-.746.25a5.975 5.975 0 0 1-2.539-.48l-.535-.208c-.207-.078-.41-.059-.496.211l-.766 2.332c-.098.29-.066.426.242.52 1.828.496 4.332.785 6.172.355 1.43-.344 2.781-1.238 3.278-2.703.492-1.442.12-2.977-1.036-4.016-.976-.883-1.77-1.027-2.945-1.582a4.19 4.19 0 0 1-.828-.504c-.918-.761-.328-1.707.734-1.75.946-.043 1.657.266 2.492.637.145.063.364.113.465-.062ZM9.406 28.738h1.79a.225.225 0 0 0 .163-.07.246.246 0 0 0 .067-.168v-1.863c0-.133.117-.242.242-.242h2.078a.256.256 0 0 0 .172-.067.256.256 0 0 0 .066-.172V24.98a.254.254 0 0 0-.066-.175.249.249 0 0 0-.172-.067h-2.078a.248.248 0 0 1-.242-.238v-1.012c0-.133.117-.242.242-.242h2.078a.242.242 0 0 0 .172-.07.242.242 0 0 0 .066-.172v-1.281a.24.24 0 0 0-.238-.243h-4.34a.217.217 0 0 0-.168.075.224.224 0 0 0-.066.168V28.5c0 .133.101.238.234.238Zm-5.008-7.21c-2.132 0-3.855 1.66-3.855 3.71 0 2.043 1.723 3.711 3.855 3.711 2.122 0 3.84-1.668 3.84-3.71 0-2.052-1.718-3.712-3.84-3.712Zm0 1.804c-.8 0-1.449.855-1.449 1.906 0 1.055.649 1.91 1.45 1.91.792 0 1.437-.855 1.437-1.91 0-1.05-.645-1.906-1.438-1.906Zm35.864-2.055c-3.586 0-6.496 2.805-6.496 6.266 0 3.46 2.906 6.266 6.496 6.266 3.593 0 6.504-2.805 6.504-6.266s-2.91-6.266-6.504-6.266Zm0 3.043c-1.344 0-2.434 1.442-2.434 3.223s1.09 3.223 2.434 3.223c1.347 0 2.437-1.442 2.437-3.223s-1.09-3.223-2.437-3.223Zm10.281 9.477h3.074a.42.42 0 0 0 .41-.418v-8.625c0-.23.184-.418.41-.418h2.84a.41.41 0 0 0 .41-.414V21.71c0-.23-.18-.418-.41-.418H46.883a.418.418 0 0 0-.29.125.424.424 0 0 0-.113.293v2.207c0 .23.176.418.403.418h2.836c.226 0 .414.187.414.418v8.625c0 .223.183.41.41.41Zm15.738-9.402 1.242-2.133c.122-.211.13-.41-.144-.496-2.098-.621-4.453-.985-6.555-.184-2.129.805-3.492 2.8-2.242 5.11.758 1.413 2.39 2.078 3.793 2.667.34.145.707.332.875.618.203.34.047.761-.254.992-.2.144-.437.226-.687.234a5.718 5.718 0 0 1-2.391-.457l-.496-.183c-.2-.079-.39-.06-.469.195l-.723 2.187c-.09.278-.066.41.23.485 1.712.465 4.075.746 5.794.336 1.348-.317 2.613-1.164 3.082-2.532.46-1.359.11-2.8-.973-3.777-.918-.82-1.66-.965-2.773-1.488-.242-.117-.54-.274-.774-.473-.855-.707-.304-1.598.688-1.644.894-.036 1.562.25 2.344.593.136.07.336.114.433-.05Zm-40.297-3.098h3.075c.226 0 .41.183.41.414v8.625c0 .227.187.41.414.41h3.578c.223 0 .41.195.41.418v2.215a.425.425 0 0 1-.41.418h-7.477a.42.42 0 0 1-.41-.418V21.71c0-.23.188-.418.41-.418Zm0 0"/><path style="stroke:none;fill-rule:evenodd;fill:#473a56;fill-opacity:1" d="M85.93 13.871v.055l.004-.063.425-1.074.157 14.781.168-15.59.254-.64 2.3 2.008.075 7.464.082-7.335c.683.597 1.242 1.078 1.218 1.046-.011-.02.254-.023.68-.03l.086 8.89.094-8.895c.902-.008 2.32.004 3.254.012l.054 4.59.047-4.59c.527.004.883.012.883.012l.562.52.051 4.32.043-4.239 1.024.946v.226l.007-.219.985.903v.035-.035l.844.781v14.188l-6.02 3.054-.066-3.176-.07 3.243-1.579.8-.125-11.53-.125 11.655-1.14.578-.07-7.14-.083 7.215-1.074.55-.098-9.152-.105 9.25-1.906.965-.176-16.809-.172 16.59-1.465-1.164-.047-8.48-.047 8.406-.914-.734-.078-7.235-.07 7.113-1.922-1.53-.04-3.634.247-.52-.254-.1-.043-3.958-.039 3.926-1.953-.812Zm-4.192 17.113-.035 3.286-1.094-.88Zm0 0"/><path style="stroke:none;fill-rule:evenodd;fill:#2f213d;fill-opacity:1" d="M86.363 22.805c-.832 1.242-1.312 2.691-2.058 4-.653 1.144-1.282 2.25-2.653 2.61-1.304.335-3.015-.321-3.703-1.517-.383-.66-.445-1.464-.254-2.394-.507.012-.953-.04-1.34-.176-1.285-.426-1.933-1.758-1.863-3.058a3.422 3.422 0 0 1 1.028-2.247c1.32-1.293 3.382-1.441 5.113-1.187-1.668-.953-3.453-2.461-2.945-4.629.414-1.75 2.351-2.277 3.847-1.61-.086-1.3.742-2.163 1.953-2.417 1.125-.235 2.352.195 3.219.941 1.477 1.274 1.805 3.57 1.688 5.41 1.02-1.785 2.203-2.922 3.585-3.254 1.13-.265 2.497.082 3.383.868.871.765 1.192 1.945.516 2.96.824.125 1.55.41 2.035 1 .941 1.145.711 2.579-.27 3.543-1.37 1.348-3.824 1.082-5.582.989 2.68 1.117 4.747 2.531 5.055 4.77.235 1.722-.566 3.316-2.305 3.808a2.865 2.865 0 0 1-2.738-.652c-.476 1.18-1.504 1.859-2.699 1.94-.86.056-1.652-.163-2.266-.608-1.89-1.383-1.175-3.946-.75-5.856.207-.957.407-2.074.442-2.957-.34 1.863-.828 3.578-1.461 5.05-.903 2.083-2.031 3.782-3.86 5.126-.332.234-.738.265-1.066.027-.41-.277-.625-.98-.578-1.469.039-.32.219-.52.512-.628a6.354 6.354 0 0 0 1.527-.786c2.43-1.672 3.543-4.91 4.488-7.597Zm0 0"/><path style="stroke:none;fill-rule:evenodd;fill:url(#d)" d="M86.848 22.168a27.282 27.282 0 0 1-1.508 5.36c-.93 2.312-2.149 4.023-4.113 5.495-.711.536-1.086-.515-1.086-1.152.011-.223.027-.453.25-.531 1.582-.578 2.77-1.656 3.707-3.055 1.105-1.648 2.007-4.25 2.75-6.117Zm0 0"/><path style="stroke:none;fill-rule:evenodd;fill:url(#e)" d="M81.34 31.793c2.617-1.434 3.93-4.605 4.953-8.188-.625 1.618-1.36 3.422-2.195 4.68-.938 1.399-2.125 2.477-3.707 3.047a.376.376 0 0 0-.168.145c.64.128.988.609.855 1.57.207-.234.3-.567.18-1.008-.043-.129-.059-.168.082-.246Zm0 0"/><path style="stroke:none;fill-rule:evenodd;fill:url(#f)" d="M86.453 24.035c-1.012 3.277-2.234 6.402-4.902 8.399a.645.645 0 0 0-.274.55c1.934-1.468 3.145-3.168 4.063-5.457a25.027 25.027 0 0 0 1.113-3.492Zm0 0"/><path style="stroke:none;fill-rule:evenodd;fill:url(#g)" d="M86.504 21.629c-2.777-.137-5.227.508-7.172 2.285-.45.406-.918.84-1.39 1.387-.926-.051-1.56-.293-2-.664-.825-.676-1.07-1.907-.758-2.91.129-.422.316-.82.574-1.137 1.281-1.567 3.746-1.668 5.57-1.32 1.719.335 3.45 1.207 5.176 2.359Zm0 0"/><path style="stroke:none;fill-rule:evenodd;fill:url(#h)" d="M83.586 20.492c-1.656-.39-3.98-.707-5.613-.113a4.648 4.648 0 0 0-2.254 1.683c-.055.083-.153.172-.262.13-.094-.036-.105-.145-.07-.243.37-1.191 1.164-1.926 2.34-2.3 1.773-.567 3.753-.294 5.878.648.207.094.211.254-.02.195Zm0 0"/><path style="stroke:none;fill-rule:evenodd;fill:url(#i)" d="M86.504 22.031c-.895 1.176-1.461 2.114-2.094 3.367a18.417 18.417 0 0 1-1.094 1.852c-.863 1.297-1.918 1.969-3.398 1.531-1.508-.453-2.188-2.008-1.977-3.48 2.317-2.778 5.07-3.492 8.563-3.27Zm0 0"/><path style="stroke:none;fill-rule:evenodd;fill:url(#j)" d="M83.266 25.16c.64-.894 1.218-1.848 1.812-2.777-2.187.004-4.062.633-5.793 1.57a10.43 10.43 0 0 0-1.344 1.348c-.046.293-.05.586-.023.883.195 1.086 1.574 1.66 2.555 1.41 1.21-.301 2.082-1.446 2.793-2.434Zm0 0"/><path style="stroke:none;fill-rule:evenodd;fill:url(#k)" d="M82.52 23.074c-1.2.164-2.653.606-3.497 1.61a.753.753 0 0 0-.203.445c-.011.258.145.387.356.367a.587.587 0 0 0 .34-.168c.964-.867 1.84-1.605 3.004-2.254Zm0 0"/><path style="stroke:none;fill-rule:evenodd;fill:url(#l)" d="M86.707 21.402c-1.121-.761-2.27-1.336-3.441-1.902-1.645-.79-4.309-1.922-4.899-3.824-.265-.887-.055-1.86.598-2.453.75-.688 1.93-.606 2.844-.391 1.523 1.3 2.882 3.18 3.742 5 .547 1.145.96 2.328 1.152 3.57Zm0 0"/><path style="stroke:none;fill-rule:evenodd;fill:url(#m)" d="M78.965 13.223c-.512.464-.754 1.164-.707 1.867.156 1.355 5.195 4.035 6.719 4.765.921.442.847.09.68-.64-.352-1.508-.872-2.84-1.622-3.93-.683-.945-1.398-1.62-2.226-2.453-.914-.215-2.094-.297-2.844.39Zm0 0"/><path style="stroke:none;fill-rule:evenodd;fill:url(#n)" d="M78.578 14.281c.234-.527.574-.91 1-1.144.5-.282 1.16-.274 1.73-.07.805.292 1.618 1.308 2.087 1.995.187.278-.043.278-.204.114a5.922 5.922 0 0 0-1.894-1.293c-.516-.215-1.012-.301-1.496-.125-.364.129-.754.414-1.012.695-.152.164-.305.035-.21-.172Zm0 0"/><path style="stroke:none;fill-rule:evenodd;fill:url(#o)" d="M87.063 21.11c-.633-2.61-1.668-4.41-2.868-5.868l-2.386-2.41a2.346 2.346 0 0 1 .421-1.488c.926-1.301 3.004-.93 4.106-.043 2 1.625 2.035 4.672 1.363 6.953-.289.984-.398 1.883-.636 2.855Zm0 0"/><path style="stroke:none;fill-rule:evenodd;fill:url(#p)" d="M85.234 16.684c.63.89 2.16 2.527 2.704.593.386-2.117.128-4.574-1.602-5.976-1.102-.887-3.18-1.258-4.106.043-.3.43-.445.922-.421 1.488.507.43 1 .934 1.457 1.469.8.812 1.347 1.39 1.968 2.383Zm0 0"/><path style="stroke:none;fill-rule:evenodd;fill:url(#q)" d="M82.176 12.277c.144-.449.383-.808.726-1.086 1.067-.879 2.586-.375 3.457.551.625.664.957 1.57 1.137 2.535.027.176-.09.274-.172.141a9.003 9.003 0 0 0-1.418-1.836c-.601-.602-1.363-.871-2.191-.77-.516.067-.89.305-1.25.672-.29.297-.395.098-.29-.207Zm0 0"/><path style="stroke:none;fill-rule:evenodd;fill:url(#r)" d="M87.215 21.453c.41-2.574 1.191-4.422 2.133-5.734.855-1.207 2.105-2.121 3.558-2.121 1.39-.012 3.055.851 3.008 2.457a2.454 2.454 0 0 1-.312 1.093c-5.305 1.852-7.024 3.106-8.387 4.297Zm0 0"/><path style="stroke:none;fill-rule:evenodd;fill:url(#s)" d="M87.77 19.008c-.149.683-.301 1.363-.418 2.101 2.816-2.332 4.886-2.836 6.73-3.425.063-.024.125-.051.191-.075.434-.168.88-.316 1.329-.46.18-.333.296-.688.312-1.094.047-1.606-1.617-2.47-3.008-2.457-1.453 0-2.703.914-3.558 2.113-.614.855-1.157 1.941-1.578 3.297Zm0 0"/><path style="stroke:none;fill-rule:evenodd;fill:url(#t)" d="M88.773 17.371c.77-1.582 1.586-2.422 2.426-2.918 1.172-.687 3.285-.625 3.992.68.2.375.27.82.297 1.285.008.195-.101.48-.297.25a3.802 3.802 0 0 0-1.418-1.102c-1.02-.453-2.132-.168-3.046.41-.66.407-1.258.981-1.778 1.547-.152.168-.277.047-.176-.152Zm0 0"/><path style="stroke:none;fill-rule:evenodd;fill:url(#u)" d="M87.387 21.86c1.922-1.669 4.441-3.297 6.886-4.25.434-.169.88-.317 1.329-.462 2.53.7 3.335 3.457.851 4.575-1.05.468-2.516.476-3.574.414-1.86-.11-3.723-.23-5.492-.278Zm0 0"/><path style="stroke:none;fill-rule:evenodd;fill:url(#v)" d="M89.895 20.508c-.22.199-.329.445.058.48 1.426.121 5.363.39 6.625-.05.832-.293 1.348-.778 1.348-1.583-.172-.94-1.024-1.851-2.324-2.207-.387.13-.754.262-1.11.391-1.414.523-3.515 1.973-4.597 2.969Zm0 0"/><path style="stroke:none;fill-rule:evenodd;fill:url(#w)" d="M93.809 18.21c.609-.339 1.492-.757 2.21-.597.618.137 1.067.598 1.485 1.145.148.187-.05.277-.18.164-.351-.32-.707-.567-1.129-.711-.664-.23-1.574.02-2.242.207-.21.059-.414-.047-.144-.207Zm0 0"/><path style="stroke:none;fill-rule:evenodd;fill:url(#x)" d="M87.598 22.09c2.718.164 5.07.816 6.882 2.187 1.348 1.094 2.223 2.328 2.141 3.828-.062 1.204-.68 2.184-1.73 2.625a2.699 2.699 0 0 1-2.829-.472c-.164-1.445-.69-3.567-1.453-4.817-.77-1.27-1.828-2.359-3.011-3.351Zm0 0"/><path style="stroke:none;fill-rule:evenodd;fill:url(#y)" d="M90.61 25.441c.578.946 1.015 2.395 1.269 3.672a.63.63 0 0 1 .023.13c2.278.405 5.043-.856 3.871-3.657-.347-.461-.789-.895-1.293-1.309-1.812-1.37-4.164-2.023-6.882-2.187 1.183.992 2.242 2.082 3.011 3.351Zm0 0"/><path style="stroke:none;fill-rule:evenodd;fill:url(#z)" d="M90.129 22.777c1.855.348 3.539 1.098 4.887 2.586.199.227-.032.551-.293.336-1.368-1.094-2.934-2.015-4.672-2.77-.121-.05-.137-.171.078-.152Zm0 0"/><path style="stroke:none;fill-rule:evenodd;fill:url(#A)" d="M87.215 22.3c-.024.622-.04 1.516-.149 2.473-.168 1.426-.507 2.84-.515 4.282-.004.898.207 1.746.902 2.34.774.66 1.957.828 2.887.449.687-.285 1.277-.836 1.722-1.586a10.652 10.652 0 0 0-.437-2.098c-.758-2.398-2.523-4.289-4.41-5.86Zm0 0"/><path style="stroke:none;fill-rule:evenodd;fill:url(#B)" d="M91.625 28.16c-.758-2.398-2.523-4.289-4.41-5.86.101.18.133.497.195 1.075.164 1.574-.48 4.191-.074 5.703.559 2.082 3.434 1.277 4.566.164a8.775 8.775 0 0 0-.277-1.082Zm0 0"/><path style="stroke:none;fill-rule:evenodd;fill:url(#C)" d="M88.555 23.762c.496.55 1.949 2.105 1.832 2.91-.035.285-.235.492-.547.476-.637-.027-.656-1.07-.738-1.503a6.953 6.953 0 0 0-.649-1.817c-.043-.078.04-.129.102-.066Zm0 0"/></svg>