<svg width="301" height="74" viewBox="0 0 301 74" fill="none" xmlns="http://www.w3.org/2000/svg">
<path fill-rule="evenodd" clip-rule="evenodd" d="M112.528 56.1565C106.285 56.1565 101.177 54.1701 97.2032 50.1966L97.1862 50.2056C95.2977 48.3511 93.811 46.1283 92.8178 43.675C91.825 41.2218 91.3472 38.5905 91.4141 35.9448C91.3487 33.2577 91.8375 30.5859 92.8493 28.0959C93.8615 25.6059 95.3756 23.3509 97.2971 21.4713C101.225 17.5777 106.287 15.6309 112.486 15.6309C118.792 15.6366 123.866 17.572 127.708 21.4373C129.607 23.3287 131.101 25.588 132.096 28.0767C133.091 30.5654 133.568 33.2312 133.497 35.9107C133.581 38.5651 133.123 41.2087 132.153 43.6807C131.183 46.1528 129.72 48.4016 127.853 50.2905C123.88 54.201 118.772 56.1565 112.528 56.1565ZM108.974 27.0671C107.874 27.5916 106.922 28.3806 106.202 29.3636C104.878 31.2651 104.203 33.5435 104.278 35.8596C104.204 38.1899 104.908 40.4786 106.279 42.3641C106.976 43.3569 107.911 44.1587 108.998 44.6957C110.086 45.2328 111.291 45.4879 112.503 45.4376C113.727 45.493 114.946 45.2407 116.048 44.7038C117.15 44.1669 118.1 43.3626 118.811 42.3641C120.145 40.4639 120.821 38.1796 120.736 35.8596C120.798 33.5546 120.094 31.294 118.735 29.4317C118.035 28.4394 117.099 27.6381 116.01 27.1012C114.922 26.5643 113.715 26.3089 112.503 26.3582C111.286 26.299 110.073 26.5426 108.974 27.0671Z" fill="#033564"/>
<path fill-rule="evenodd" clip-rule="evenodd" d="M47.1396 39.0769C48.9385 39.1703 50.7225 38.7066 52.2481 37.7487C52.9619 37.299 53.5448 36.6683 53.9367 35.9206C54.3281 35.173 54.515 34.3351 54.4785 33.4918C54.465 30.0037 53.2674 26.6237 51.0814 23.9053C48.8208 20.9634 45.8218 18.6722 42.3889 17.2645C39.7759 16.2147 36.9805 15.6938 34.1646 15.7321C28.0574 15.7321 23.0456 17.7186 19.1293 21.6917C17.2276 23.5576 15.7254 25.7908 14.714 28.2556C13.7026 30.7204 13.2033 33.3651 13.2463 36.029C13.1975 38.7022 13.7215 41.355 14.7832 43.8089C15.845 46.2627 17.4198 48.4609 19.4018 50.2556C23.494 54.0751 28.6137 55.9881 34.7606 55.9936C37.9635 56.0171 41.1518 55.5613 44.2194 54.64C47.8009 53.5673 50.4146 52.0067 52.0607 49.9577C52.9054 49.0386 53.3968 47.8501 53.4483 46.603C53.4483 43.6686 51.8082 42.1986 48.5274 42.1929C47.8037 42.1929 45.9733 42.8144 42.9849 44.0489C40.5901 45.1482 38.0059 45.7755 35.3736 45.8964C33.1251 45.9836 30.9026 45.3901 28.9968 44.1937C28.1465 43.6384 27.4339 42.8967 26.9131 42.0248C26.3924 41.153 26.0772 40.1739 25.9914 39.162L47.1396 39.0769ZM28.6817 26.8085C30.2476 25.5465 32.2142 24.888 34.2242 24.9525C36.2252 24.9002 38.178 25.5713 39.7241 26.8425C40.4496 27.4286 41.0458 28.1586 41.4752 28.9864C41.9045 29.8144 42.1576 30.7223 42.2187 31.6529H25.8382C26.1922 29.7559 27.1981 28.0423 28.6817 26.8085Z" fill="#033564"/>
<path d="M61.3685 50.1195C65.1545 53.996 70.1772 55.9315 76.4381 55.926C79.6438 56.014 82.833 55.4342 85.8033 54.223C89.2939 52.6394 91.0364 50.7044 91.0304 48.4168C91.0539 47.1326 90.5705 45.8909 89.6853 44.9602C89.2359 44.496 88.693 44.1323 88.0932 43.893C87.4928 43.6538 86.8485 43.5446 86.2032 43.5724C84.934 43.6382 83.6863 43.9264 82.5166 44.4238C80.967 44.9992 79.3254 45.2877 77.6723 45.2752C74.7041 45.2752 72.3967 44.3273 70.7506 42.4316C69.2385 40.5328 68.4727 38.1468 68.5967 35.7227C68.5107 33.3435 69.2405 31.0064 70.6656 29.099C71.4419 28.1233 72.4407 27.3476 73.5784 26.8366C74.7156 26.3256 75.9588 26.0942 77.2039 26.1617C78.8935 26.144 80.5726 26.4324 82.1592 27.0131C83.3709 27.5091 84.6575 27.7969 85.9647 27.8645C86.6425 27.8887 87.3184 27.7777 87.9527 27.538C88.5871 27.2983 89.1674 26.9346 89.6598 26.4683C90.1276 26.0346 90.4996 25.5072 90.7505 24.9205C91.0009 24.3337 91.1254 23.7008 91.1159 23.0627C91.1159 20.4462 89.4128 18.488 86.0072 17.1882C83.1669 16.2049 80.1752 15.7322 77.17 15.792C70.7336 15.7976 65.5684 17.6792 61.6749 21.4366C57.7814 25.194 55.8344 30.0185 55.8344 35.9101C55.8344 41.6369 57.6794 46.3649 61.3685 50.094V50.1195Z" fill="#033564"/>
<path d="M51.6873 0.152344C23.1149 0.152344 0 13.6893 0 30.4955C0 37.6215 4.18026 44.1175 11.2637 49.4045C7.78161 45.088 5.80641 40.3033 5.80641 35.1695C5.80641 17.7759 28.453 3.66853 56.3356 3.66853C74.334 3.66853 90.1355 9.50899 99.0747 18.3803C91.0972 7.61892 72.8269 0.152344 51.6873 0.152344Z" fill="#8CC23C"/>
<path fill-rule="evenodd" clip-rule="evenodd" d="M150.951 47.3603V38.6592H159.567C165.612 38.6592 170.38 37.1437 173.87 34.1128C177.361 31.0819 179.103 26.8251 179.098 21.3422C179.098 15.8025 177.173 11.4917 173.325 8.40976C169.687 5.48101 164.766 4.01379 158.563 4.00812H147.035C143.697 4.00812 141.39 4.61259 140.113 5.82157C138.828 7.03901 138.189 9.15042 138.189 12.1813V47.3347C138.189 52.8233 140.315 55.5706 144.566 55.5761C148.817 55.5816 150.946 52.8433 150.951 47.3603ZM150.951 14.6759H156.485C162.331 14.6759 165.254 16.8894 165.254 21.3166C165.254 25.8573 162.331 28.1277 156.485 28.1277H150.951V14.6759Z" fill="#8CC23C"/>
<path fill-rule="evenodd" clip-rule="evenodd" d="M221.171 47.3095C221.165 52.8208 219.116 55.5766 215.024 55.5766L215.058 55.5506C212.3 55.5506 210.333 54.2225 209.098 51.5661C206.539 54.4044 203.053 55.8231 198.643 55.8231C196.012 55.8805 193.401 55.3447 191.004 54.256C188.608 53.1667 186.487 51.5521 184.8 49.5316C181.509 45.7639 179.729 40.9116 179.802 35.9095C179.732 30.8344 181.588 25.9213 184.996 22.1598C186.726 20.13 188.887 18.5119 191.321 17.4235C193.756 16.335 196.403 15.8036 199.069 15.8681C200.928 15.789 202.782 16.1098 204.507 16.809C206.231 17.5081 207.785 18.5692 209.064 19.9207C209.631 18.8333 210.488 17.9242 211.54 17.2945C212.591 16.6648 213.798 16.339 215.024 16.3534C219.122 16.3534 221.171 19.0863 221.171 24.5521V47.3095ZM197.305 27.3963C196.253 27.8943 195.336 28.6389 194.633 29.5668H194.659C193.311 31.3567 192.609 33.5503 192.667 35.7904C192.598 38.0409 193.271 40.2516 194.582 42.082C195.285 43.0344 196.21 43.8001 197.277 44.3121C198.345 44.8241 199.521 45.067 200.704 45.0193C201.876 45.0724 203.043 44.8314 204.099 44.3184C205.155 43.8054 206.066 43.0367 206.748 42.082C208.013 40.2328 208.657 38.0295 208.587 35.7904C208.656 33.5687 208.002 31.3848 206.723 29.5668C206.027 28.6307 205.112 27.8801 204.058 27.3813C203.003 26.8824 201.843 26.6506 200.678 26.7061C199.515 26.6616 198.358 26.8983 197.305 27.3963Z" fill="#8CC23C"/>
<path d="M250.005 20.8319L242.394 38.8641L235.319 21.8366C234.855 20.442 234.164 19.1332 233.276 17.9628C232.722 17.4053 232.056 16.9714 231.322 16.6897C230.588 16.408 229.803 16.2847 229.019 16.3282C227.417 16.278 225.859 16.8554 224.677 17.9372C224.125 18.4414 223.687 19.0578 223.394 19.7451C223.1 20.4323 222.957 21.1745 222.974 21.9217C222.967 23.0098 223.203 24.0859 223.663 25.0718L236.196 51.6942L231.088 61.8171C230.471 63.0043 230.122 64.3119 230.066 65.6486C230.034 66.3939 230.17 67.1367 230.465 67.8225C230.76 68.5079 231.206 69.1177 231.768 69.6076C233.027 70.6238 234.614 71.1447 236.23 71.0717C238.438 71.0717 240.26 69.5561 241.695 66.5254L260.69 25.6592C261.298 24.44 261.638 23.1046 261.686 21.7429C261.686 18.1501 259.634 16.3537 255.53 16.3537C253.172 16.3537 251.359 17.8521 250.073 20.8319H250.005Z" fill="#8CC23C"/>
<path d="M279.891 44.527H292.168L292.244 44.5355C297.415 44.5412 300 46.3149 300 49.8567C300 53.3018 297.383 55.0244 292.151 55.0244H269.47C265.11 55.0189 262.931 53.8552 262.931 51.5338C263.004 49.9112 263.66 48.3698 264.779 47.1917L281.806 27.1333H271.087C265.854 27.0879 263.237 25.3625 263.237 21.9569C263.237 18.5514 265.88 16.8486 271.164 16.8486H291.112C293.102 16.7712 295.094 16.9718 297.029 17.4446C297.635 17.6095 298.162 17.986 298.515 18.506C298.868 19.026 299.024 19.6552 298.953 20.2797C298.953 21.6306 298.101 23.2851 296.399 25.2432L279.891 44.527Z" fill="#8CC23C"/>
</svg>
