<svg width="300" height="234" viewBox="0 0 300 234" fill="none" xmlns="http://www.w3.org/2000/svg">
<path d="M54.5925 233.111V217.66C54.5925 211.738 50.9874 207.875 44.8071 207.875C41.717 207.875 38.3693 208.905 36.0517 212.253C34.2492 209.42 31.674 207.875 27.8114 207.875C25.2363 207.875 22.6612 208.647 20.6011 211.48V208.39H15.1934V233.111H20.6011V219.463C20.6011 215.085 22.9187 213.025 26.5238 213.025C30.129 213.025 31.9316 215.343 31.9316 219.463V233.111H37.3393V219.463C37.3393 215.085 39.9144 213.025 43.262 213.025C46.8672 213.025 48.6698 215.343 48.6698 219.463V233.111H54.5925ZM134.678 208.39H125.923V200.922H120.515V208.39H115.623V213.283H120.515V224.613C120.515 230.278 122.833 233.626 129.013 233.626C131.331 233.626 133.906 232.853 135.708 231.823L134.163 227.188C132.618 228.218 130.816 228.476 129.528 228.476C126.953 228.476 125.923 226.931 125.923 224.356V213.283H134.678V208.39ZM180.515 207.875C177.425 207.875 175.365 209.42 174.077 211.48V208.39H168.67V233.111H174.077V219.205C174.077 215.085 175.88 212.768 179.228 212.768C180.258 212.768 181.545 213.025 182.575 213.283L184.12 208.132C183.09 207.875 181.545 207.875 180.515 207.875ZM111.245 210.45C108.67 208.647 105.065 207.875 101.202 207.875C95.0217 207.875 90.9015 210.965 90.9015 215.858C90.9015 219.978 93.9916 222.295 99.3993 223.068L101.974 223.325C104.807 223.84 106.352 224.613 106.352 225.901C106.352 227.703 104.292 228.991 100.687 228.991C97.0817 228.991 94.2492 227.703 92.4466 226.416L89.8715 230.536C92.7041 232.596 96.5668 233.626 100.429 233.626C107.64 233.626 111.76 230.278 111.76 225.643C111.76 221.265 108.412 218.948 103.262 218.175L100.687 217.918C98.3693 217.66 96.5668 217.145 96.5668 215.6C96.5668 213.798 98.3693 212.768 101.202 212.768C104.292 212.768 107.382 214.055 108.927 214.828L111.245 210.45ZM254.936 207.875C251.846 207.875 249.786 209.42 248.498 211.48V208.39H243.09V233.111H248.498V219.205C248.498 215.085 250.301 212.768 253.648 212.768C254.678 212.768 255.966 213.025 256.996 213.283L258.541 208.132C257.511 207.875 255.966 207.875 254.936 207.875ZM185.923 220.75C185.923 228.218 191.073 233.626 199.056 233.626C202.661 233.626 205.236 232.853 207.811 230.793L205.236 226.416C203.176 227.961 201.116 228.733 198.798 228.733C194.421 228.733 191.331 225.643 191.331 220.75C191.331 216.115 194.421 213.025 198.798 212.768C201.116 212.768 203.176 213.54 205.236 215.085L207.811 210.707C205.236 208.647 202.661 207.875 199.056 207.875C191.073 207.875 185.923 213.283 185.923 220.75ZM235.88 220.75V208.39H230.472V211.48C228.67 209.162 226.095 207.875 222.747 207.875C215.794 207.875 210.386 213.283 210.386 220.75C210.386 228.218 215.794 233.626 222.747 233.626C226.352 233.626 228.927 232.338 230.472 230.021V233.111H235.88V220.75ZM216.052 220.75C216.052 216.373 218.884 212.768 223.52 212.768C227.897 212.768 230.987 216.115 230.987 220.75C230.987 225.128 227.897 228.733 223.52 228.733C218.884 228.476 216.052 225.128 216.052 220.75ZM151.417 207.875C144.206 207.875 139.056 213.025 139.056 220.75C139.056 228.476 144.206 233.626 151.674 233.626C155.279 233.626 158.884 232.596 161.717 230.278L159.142 226.416C157.082 227.961 154.507 228.991 151.932 228.991C148.584 228.991 145.236 227.446 144.464 223.068H162.747V221.008C163.005 213.025 158.369 207.875 151.417 207.875ZM151.417 212.51C154.764 212.51 157.082 214.57 157.597 218.433H144.721C145.236 215.085 147.554 212.51 151.417 212.51ZM285.58 220.75V198.604H280.172V211.48C278.369 209.162 275.794 207.875 272.447 207.875C265.494 207.875 260.086 213.283 260.086 220.75C260.086 228.218 265.494 233.626 272.447 233.626C276.052 233.626 278.627 232.338 280.172 230.021V233.111H285.58V220.75ZM265.751 220.75C265.751 216.373 268.584 212.768 273.219 212.768C277.597 212.768 280.687 216.115 280.687 220.75C280.687 225.128 277.597 228.733 273.219 228.733C268.584 228.476 265.751 225.128 265.751 220.75ZM84.9788 220.75V208.39H79.571V211.48C77.7685 209.162 75.1934 207.875 71.8457 207.875C64.8929 207.875 59.4852 213.283 59.4852 220.75C59.4852 228.218 64.8929 233.626 71.8457 233.626C75.4509 233.626 78.026 232.338 79.571 230.021V233.111H84.9788V220.75ZM64.8929 220.75C64.8929 216.373 67.7255 212.768 72.3607 212.768C76.7384 212.768 79.8286 216.115 79.8286 220.75C79.8286 225.128 76.7384 228.733 72.3607 228.733C67.7255 228.476 64.8929 225.128 64.8929 220.75Z" fill="black"/>
<path d="M190.558 20.6641H109.442V166.415H190.558V20.6641Z" fill="#FF5F00"/>
<path d="M114.592 93.5398C114.592 63.9261 128.498 37.66 149.871 20.6643C134.163 8.30378 114.335 0.835938 92.7039 0.835938C41.4592 0.835938 0 42.2952 0 93.5398C0 144.784 41.4592 186.244 92.7039 186.244C114.335 186.244 134.163 178.776 149.871 166.415C128.498 149.677 114.592 123.154 114.592 93.5398Z" fill="#EB001B"/>
<path d="M300 93.5398C300 144.784 258.541 186.244 207.296 186.244C185.665 186.244 165.837 178.776 150.129 166.415C171.76 149.42 185.408 123.154 185.408 93.5398C185.408 63.9261 171.502 37.66 150.129 20.6643C165.837 8.30378 185.665 0.835938 207.296 0.835938C258.541 0.835938 300 42.5527 300 93.5398Z" fill="#F79E1B"/>
</svg>
