<svg width="300" height="139" viewBox="0 0 300 139" fill="none" xmlns="http://www.w3.org/2000/svg">
<path d="M19.9418 43.9096L52.7696 59.204C51.9981 58.6897 36.386 48.1757 31.5752 39.8553C26.6284 31.3382 26.9915 25.0298 31.1668 18.9332C35.3421 12.8366 45.6897 8.99413 61.4228 10.0077C77.156 11.0213 94.4624 15.7866 107.442 27.4654C107.442 27.4654 96.3686 7.78388 68.1851 2.27728C40.0016 -3.22932 18.308 7.88978 5.79708 19.2812C2.48405 22.3068 0.774581 25.1811 0.214844 27.9344C0.47202 36.3153 19.9418 43.9096 19.9418 43.9096Z" fill="#2F98D5"/>
<path d="M31.1668 120.048C26.9763 113.951 26.6284 107.643 31.5752 99.1256C36.5221 90.6085 52.7999 79.7617 52.7999 79.7617L19.9418 95.0713C19.9418 95.0713 0.456892 102.666 0.214844 111.046C0.774581 113.8 2.48405 116.674 5.79708 119.7C18.308 131.091 39.9864 142.195 68.1699 136.688C96.3686 131.197 107.442 111.515 107.442 111.515C94.4624 123.194 77.156 127.975 61.4228 128.973C45.6897 129.987 35.3421 126.159 31.1668 120.048Z" fill="#F9AE00"/>
<path d="M19.9417 95.0723L52.7998 79.7627C52.7998 79.7627 62.1338 74.7705 62.1338 69.8236C62.1338 69.7177 62.1338 69.5967 62.1187 69.4908C62.1187 69.3849 62.1338 69.2639 62.1338 69.158C62.1338 64.2111 52.7998 59.2188 52.7998 59.2188C52.7998 59.2188 52.7847 59.2037 52.7695 59.2037L19.9417 43.9093C19.9417 43.9093 0.471955 36.3301 0.214778 27.9492C-1.34341 35.5586 5.88779 42.1393 11.8482 47.7821C19.8207 55.3007 23.3607 62.7739 23.3001 69.4908C23.3607 76.2076 19.8207 83.6809 11.8482 91.2146C5.88779 96.8422 -1.34341 103.423 0.214778 111.047C0.456827 102.667 19.9417 95.0723 19.9417 95.0723Z" fill="#E40E20"/>
<path d="M80.5731 72.8032C80.5731 74.8042 83.231 75.1444 84.7333 75.1632C87.6088 75.1996 90.9825 74.8327 93.2655 74.3917C93.3714 76.5852 92.9327 78.1434 91.9645 79.0511C90.9963 79.9588 89.0448 80.4126 86.1099 80.4126C82.0708 80.4126 79.1057 79.5957 77.1995 77.9468C75.3085 76.2978 74.3555 73.4689 74.3555 69.4146C74.3555 66.4807 74.8656 62.9578 77.3962 61.079C79.6204 59.4614 82.33 59.067 85.0207 59.067C88.1522 59.067 90.4668 59.7326 91.9342 61.0639C93.4168 62.3952 94.1581 64.5131 94.1581 67.4177C94.1581 69.0739 93.5405 70.871 91.8283 71.4417C90.1255 71.997 88.2367 72.1178 86.4579 72.0317C84.5298 71.9399 82.3846 72.0928 80.5731 72.8032ZM80.3764 68.8246C80.8 68.522 81.511 68.3253 82.4792 68.2194C83.4474 68.1135 84.3551 68.0682 85.2023 68.053C86.5228 68.0295 88.4437 67.5663 88.4094 65.92C88.4094 65.2695 87.895 64.7249 86.8512 64.2862C85.4141 63.681 84.0071 63.6357 82.6456 64.1349C80.7546 64.8156 79.9982 66.3738 80.3764 68.8246Z" fill="black"/>
<path d="M118.575 66.2827V80.0795C117.697 80.1249 116.926 80.1249 116.305 80.0644C114.177 79.8616 112.844 78.7812 112.887 76.5547V66.4038C112.508 64.5581 110.784 63.832 107.728 64.2102C106.139 64.4069 105.217 64.5581 104.959 64.664C105.035 65.0876 105.08 65.602 105.08 66.1768V76.5547C105.165 78.7628 103.739 79.8665 101.662 80.0644C101.026 80.1249 100.27 80.14 99.3923 80.0795V61.6233C99.3923 59.9743 102.04 59.0969 107.319 58.9759C114.808 58.7792 118.56 61.2148 118.575 66.2827Z" fill="black"/>
<path d="M138.407 50.8674C139.235 51.4636 140.401 51.5179 141.388 51.5179C143.554 51.5179 144.096 53.0793 144.096 55.0428V77.402C143.717 78.2276 142.2 79.3332 140.571 79.762C138.738 80.2442 136.785 80.3822 134.898 80.3822C131.01 80.3822 128.211 79.535 126.517 77.8558C124.823 76.1766 123.975 73.3779 123.975 69.4598C123.975 66.4412 124.872 63.4484 127.285 61.4792C129.162 59.9479 131.657 59.203 134.247 59.203C136.199 59.203 137.575 59.5055 138.423 60.1106V50.8674H138.407ZM138.407 64.4221C137.588 64.1613 136.739 64.0286 135.881 63.9834C134.772 63.8959 133.646 63.9719 132.629 64.4524C132.069 64.7096 131.6 65.0424 131.191 65.4508C130.104 66.578 129.83 68.324 129.83 69.8228C129.83 71.2967 130.241 72.951 131.403 73.9528C132.307 74.7317 133.611 75.0451 134.777 75.1479C135.711 75.2303 137.667 75.3426 138.438 74.7848C138.322 75.0157 138.438 72.1374 138.407 64.4221Z" fill="black"/>
<path d="M149.527 67.4931C149.723 65.9244 150.199 64.5176 151.024 63.1664C152.154 61.3529 153.89 60.2351 155.911 59.6265C157.166 59.2332 158.619 59.0365 160.237 59.0365C162.815 59.0365 165.682 59.4668 167.726 61.1695C168.695 61.9776 169.492 62.9079 169.965 64.0892C170.372 65.1074 170.672 66.1269 170.782 67.2207C170.893 68.6697 170.944 70.1429 170.812 71.5927C170.706 72.7531 170.505 73.9628 170.055 75.0419C169.501 76.4091 168.473 77.6947 167.242 78.5063C165.439 79.6942 163.128 80.0796 161.009 80.0796C158.841 80.0796 156.563 79.8882 154.519 79.1114C153.137 78.5861 151.956 77.5913 151.145 76.3581C150.33 75.1168 149.995 73.5832 149.754 72.1374C149.494 70.5796 149.335 69.0578 149.527 67.4931ZM155.109 69.9287C155.185 70.8061 155.29 71.5171 155.427 72.0315C155.754 73.2695 156.596 74.2775 157.832 74.6637C158.558 74.8907 159.496 75.0117 160.631 75.0117C161.508 75.0117 162.28 74.8755 162.9 74.5881C163.944 74.1405 164.644 73.4175 165.033 72.3491C165.381 71.3913 165.381 70.3881 165.381 69.3841C165.381 68.5529 165.222 67.7241 164.927 66.9484C164.208 64.9707 162.188 64.1951 160.237 64.1951C158.155 64.1951 156.012 64.8754 155.351 67.0241C155.041 68.0316 155.109 68.9016 155.109 69.9287Z" fill="black"/>
<path d="M190.13 59.052C190.115 59.6686 190.341 62.6109 188.905 63.8627C188.436 64.1652 187.831 64.3165 187.105 64.3165C185.775 64.3165 184.237 64.2414 183.081 65.0124C181.945 65.7695 181.946 67.3478 181.946 68.5675V80.7002C180.909 79.9397 179.486 79.7434 178.255 79.4899C176.832 79.1971 176.273 77.7583 176.273 76.4492V66.2983C176.273 64.6739 176.636 63.0452 177.604 61.7145C178.941 59.7966 181.261 59.052 183.519 59.052C185.723 59.052 187.927 59.052 190.13 59.052Z" fill="black"/>
<path d="M200.448 88.4606C199.44 87.7218 197.95 87.7799 196.756 87.7799C195.066 87.7799 194.775 85.5212 194.775 84.2853V61.9261C197.362 59.339 200.438 58.9459 203.972 58.9459C207.86 58.9459 210.659 59.793 212.353 61.4722C214.048 63.1515 214.895 65.9501 214.895 69.8683C214.895 71.7593 214.592 73.4083 213.987 74.8C211.837 79.7458 205.242 81.2242 200.448 79.6259V88.4606ZM200.448 74.8908C201.446 75.1868 202.469 75.3 203.503 75.39C206.73 75.596 208.964 73.1907 209.095 70.0798C209.192 67.7792 208.266 65.1506 205.818 64.4979C204.093 63.9994 202.199 64.0789 200.463 64.513H200.417C200.417 67.9723 200.448 71.4314 200.448 74.8908Z" fill="black"/>
<path d="M225.908 59.7779C227.149 59.2787 229.221 59.0215 232.126 59.0215C234.182 59.0215 236.664 59.639 237.95 61.3966C238.918 62.7199 239.572 64.6356 239.387 66.2981V80.0948C235.59 80.5941 233.699 79.4292 233.699 76.57C233.699 75.511 233.699 74.1193 233.699 72.3947C233.729 68.6278 233.548 66.3434 233.169 65.5114C232.791 64.6945 231.596 64.2558 229.614 64.2104C228.374 64.2104 227.133 64.4373 225.893 64.8912V76.57C225.993 79.9089 222.883 80.2485 220.205 80.0948V50.5195C221.212 51.2584 222.703 51.2003 223.896 51.2003C225.586 51.2003 225.878 53.459 225.878 54.6949V59.7779H225.908Z" fill="black"/>
<path d="M244.848 54.7251C244.848 53.0658 246.232 51.6843 247.889 51.6843C249.548 51.6843 250.93 53.068 250.93 54.7251C250.93 56.3843 249.546 57.7658 247.889 57.7658C246.211 57.7658 244.848 56.4055 244.848 54.7251ZM250.688 62.8337C250.688 61.6009 250.394 59.3391 248.706 59.3391C247.513 59.3391 246.022 59.3972 245.015 58.6584V80.0645C247.696 80.2184 250.802 79.8792 250.703 76.5397V62.8337H250.688Z" fill="black"/>
<path d="M275.483 66.2827V80.0795C272.797 80.2184 269.73 79.9151 269.794 76.5547V66.4038C269.416 64.5581 267.692 63.832 264.636 64.2102C263.047 64.4069 262.125 64.5581 261.867 64.664C261.943 65.0876 261.988 65.602 261.988 66.1768V76.5547C262.116 79.8766 258.92 80.2602 256.3 80.0795V61.6233C256.3 59.9743 258.948 59.0969 264.227 58.9759C271.701 58.7792 275.452 61.2148 275.483 66.2827Z" fill="black"/>
<path d="M282.381 64.3616C281.97 62.3328 282.894 60.1194 284.862 59.3542C285.625 59.1424 288.794 58.9896 291.957 59.1424C294.671 59.3194 297.335 60.3804 298.78 62.7883C300.42 65.5222 299.929 69.157 299.929 72.213C299.929 77.0067 296.947 80.125 292.048 80.125H286.813C283.51 80.125 280.777 77.8199 280.777 74.4066C280.777 72.3675 281.139 69.9852 282.91 68.7033C284.556 67.5376 286.573 67.3267 288.538 67.3267C290.732 67.3267 292.229 67.1754 293.031 66.888C293.833 66.6006 294.226 66.1467 294.226 65.5416C294.226 64.6793 293.394 64.1044 291.745 63.8019C290.096 63.4993 288.341 63.4388 286.481 63.6052C284.635 63.7414 283.258 63.9985 282.381 64.3616ZM294.393 70.08C293.503 71.0968 291.972 71.6684 290.641 71.6684C289.544 71.6684 286.481 71.7218 286.481 73.4082C286.481 75.4555 289.216 75.3899 290.641 75.3899C291.484 75.3899 292.478 75.5245 293.243 75.0874C294.332 74.4651 294.339 73.3637 294.378 72.1979C294.378 71.7441 294.393 71.0331 294.393 70.08Z" fill="black"/>
</svg>
