<svg width="10" height="10" viewBox="0 0 10 10" fill="none" xmlns="http://www.w3.org/2000/svg">
<path d="M7.84386 0.83806C8.18598 0.492782 8.74067 0.492782 9.08279 0.83806C9.42491 1.18334 9.42491 1.74315 9.08279 2.08842L6.23811 4.95936L9.16364 7.91188C9.50576 8.25716 9.50576 8.81697 9.16364 9.16225C8.82152 9.50753 8.26683 9.50753 7.92471 9.16225L4.99918 6.20972L2.07365 9.16225C1.73153 9.50753 1.17684 9.50753 0.834716 9.16225C0.492595 8.81697 0.492595 8.25716 0.834716 7.91188L3.76025 4.95936L0.915563 2.08842C0.573442 1.74315 0.573442 1.18334 0.915563 0.83806C1.25768 0.492782 1.81237 0.492782 2.15449 0.83806L4.99918 3.70899L7.84386 0.83806Z" fill="black" fill-opacity="0.7"/>
</svg>
