<svg width="300" height="106" viewBox="0 0 300 106" fill="none" xmlns="http://www.w3.org/2000/svg">
<g clip-path="url(#clip0_2000_38)">
<path d="M43.8926 74.5288L53.0746 58.9832L62.1712 74.6933L80.6887 43.3992L71.5598 43.399L80.6632 27.7578H107.668L62.0991 105.494L43.8926 74.5288Z" fill="#18161C"/>
<path d="M34.4387 58.4507L43.8928 74.5297L53.0748 58.9841L53.0782 58.978L44.0557 43.4023H62.3609L71.4643 27.761L34.574 27.7607L27.4047 15.6468L78.6745 15.73L87.7772 0.0901629L0 0L25.6868 43.4023H25.7268L34.4387 58.4507Z" fill="#D71A20"/>
<path d="M139.24 33.4484H125.194V41.2179H136.703V46.9626H125.194V58.7816H118.852V27.7039H139.24V33.4484Z" fill="#18161C"/>
<path d="M170.057 45.9266C170.057 54.2611 164.42 59.3466 156.903 59.3466C149.34 59.3466 143.749 54.2611 143.749 45.9266V27.7039H150.091V46.3975C150.091 51.0592 153.051 53.4605 156.903 53.4605C160.802 53.4605 163.715 51.0592 163.715 46.3975V27.7039H170.057V45.9266Z" fill="#18161C"/>
<path d="M204.821 33.872L200.311 37.5922C198.244 34.7199 195.473 33.0244 191.667 33.0244C185.653 33.0244 181.707 37.3097 181.707 43.2424C181.707 49.2696 185.795 53.6491 192.042 53.6491C195.661 53.6491 198.525 52.1422 200.217 49.7878V47.2449H191.667V41.7356H206.56V50.9178C203.835 55.815 198.385 59.3466 191.761 59.3466C182.459 59.3466 175.177 52.3777 175.177 43.2424C175.177 34.1076 182.411 27.1387 191.761 27.1387C197.304 27.1387 201.862 29.6344 204.821 33.872Z" fill="#18161C"/>
<path d="M229.908 54.7321H217.224L215.485 58.7816H208.674L222.532 27.1387H224.647L238.458 58.7816H231.646L229.908 54.7321ZM223.566 39.0048L219.432 49.5052H227.7L223.566 39.0048Z" fill="#18161C"/>
<path d="M262.463 33.0244L258.141 36.3678C256.638 34.1076 254.759 32.7894 252.222 32.7894C250.155 32.7894 248.37 33.7309 248.37 35.8029C248.37 37.5922 249.733 38.3455 251.988 39.3813L255.511 40.9354C260.396 43.1015 263.169 45.5967 263.169 50.0231C263.169 55.815 258.471 59.3466 252.316 59.3466C246.961 59.3466 242.639 56.6155 240.338 52.4719L244.706 49.1755C246.397 51.5298 248.606 53.6959 252.316 53.6959C255.041 53.6959 256.732 52.4247 256.732 50.2586C256.732 48.2339 255.229 47.5278 252.786 46.3975L249.451 44.8906C245.035 42.8659 241.935 40.3233 241.935 35.944C241.935 30.576 246.397 27.1387 252.222 27.1387C257.156 27.1387 260.632 29.6344 262.463 33.0244Z" fill="#18161C"/>
<path d="M300 43.2424C300 52.3777 292.575 59.3466 283.462 59.3466C274.348 59.3466 267.019 52.3777 267.019 43.2424C267.019 34.1076 274.348 27.1387 283.462 27.1387C292.575 27.1387 300 34.1076 300 43.2424ZM273.55 43.2424C273.55 49.2696 277.73 53.4604 283.51 53.4604C289.193 53.4604 293.469 49.2696 293.469 43.2424C293.469 37.2625 289.193 33.0244 283.51 33.0244C277.73 33.0244 273.55 37.2625 273.55 43.2424Z" fill="#18161C"/>
</g>
<defs>
<clipPath id="clip0_2000_38">
<rect width="300" height="105.495" fill="white"/>
</clipPath>
</defs>
</svg>
