<svg xmlns="http://www.w3.org/2000/svg" width="301" height="67" fill="none" viewBox="0 0 301 67"><path fill="#000" d="M33.875 32.578h31.638l.093 2.651a30.708 30.708 0 0 1-.423 5.031.701.701 0 0 0-.528.547c-1.52 6.006-4.269 11.591-8.374 16.267-4.038 4.591-9.777 7.06-15.727 8.032-6.134 1.001-12.774.615-18.56-1.75-5.56-2.268-10.91-5.635-14.494-10.544C3.48 47.32 1.32 40.765.327 34.088a.7.7 0 0 0 .06-.178c.122-.7.144-1.392.167-2.093.01-.328.021-.659.042-.992.052-.838.319-1.642.583-2.44.067-.2.133-.4.195-.6.25-.801.444-1.614.637-2.426.258-1.085.516-2.17.909-3.224.09-.24.18-.479.272-.717.248-.645.494-1.287.696-1.95.263-.987.635-1.94 1.11-2.843.187-.332.365-.674.54-1.018.233-.277.497-.55.766-.828.799-.826 1.631-1.686 1.745-2.774a14.097 14.097 0 0 1 2.32-2.572.816.816 0 0 0 .853-.746.81.81 0 0 0 .093-.54C17.403 2.718 24.949.004 33.955.004a38.836 38.836 0 0 1 15.347 3.039c4.02 1.711 7.954 4.647 11.802 8.809l-8.43 8.336c-5.334-5.643-11.553-8.465-18.659-8.465-6.19.002-11.375 2.053-15.553 6.156-4.179 4.102-6.268 9.09-6.268 14.962-.002 6.069 2.166 11.212 6.504 15.43 4.337 4.217 9.687 6.326 16.049 6.326 4.146-.007 7.637-.876 10.474-2.607 2.836-1.732 5.126-4.454 6.868-8.166H33.875V32.578Z"/><path fill="#000" fill-rule="evenodd" d="M94.775 9.125H83.993L62.453 64.98h11.05l4.543-11.505h22.791l4.372 11.505h11.048L94.775 9.125ZM81.96 43.105l7.493-19.17 7.45 19.17H81.96Z" clip-rule="evenodd"/><path fill="#000" d="M129.896 9.125h10.359l12.95 38.96 13.066-38.96h10.352l9.382 55.855h-10.287l-5.997-35.276-11.864 35.276h-9.37l-11.762-35.276-6.127 35.276h-10.37l9.668-55.855ZM225.293 9.125h-33.795v10.517h18.165l-19.79 45.34h34.132V54.768h-18.597l19.885-45.643ZM232.584 9.125h10.557V64.98h-10.557V9.125ZM263.435 9.125h-11.96l17.712 27.057-18.892 28.798h12.03l12.858-19.638 12.859 19.638h11.96l-18.836-28.774 17.721-27.081H286.94l-11.764 17.933-11.741-17.933Z"/><path fill="url(#a)" d="M17.927 57.135c.94.117 1.94.221 2.992.305 5.992.48 13.934.183 20.513-1.664 6.688-1.87 12.956-5.719 17.197-9.352 3.23-2.777 5.309-5.425 6.2-6.562.346-.44.514-.654.502-.56a31.162 31.162 0 0 1-4.007 11.574c-2.849 4.933-6.54 8.695-11.074 11.287-4.534 2.592-9.85 3.888-15.947 3.89-3.482 0-6.763-.404-9.844-1.21a28.968 28.968 0 0 1-8.712-3.498c-3.836-2.338-6.165-5-7.745-6.836A30.892 30.892 0 0 1 .563 39.163a33.097 33.097 0 0 1 1.403-17.3A31.756 31.756 0 0 1 8.004 11.41a33.24 33.24 0 0 1 3.46-3.386s-1.28 5.707-2.277 12.929c-1.402 10.232.999 19.464.999 19.464A48.629 48.629 0 0 0 15.69 53.77a47.388 47.388 0 0 0 2.236 3.365Z"/><path fill="#DEA329" d="M247.118 8.103C247.015 6.89 245.538 0 237.715 0c-7.498 0-9.141 8.103-9.141 8.103.725-.877 4.08-3.077 9.272-3.077s8.545 2.2 9.272 3.077Z"/><defs><linearGradient id="a" x1="11.984" x2="67.176" y1="61.814" y2="49.19" gradientUnits="userSpaceOnUse"><stop offset=".01" stop-color="#352B19"/><stop offset="1" stop-color="#DEA329"/></linearGradient></defs></svg>