<svg id="Layer_1" data-name="Layer 1" xmlns="http://www.w3.org/2000/svg" viewBox="0 0 488.13 135.96"><path d="M239.22,426.32l-45.36-1.69a37,37,0,0,0,6.39,9.68,31.79,31.79,0,0,0,24.28,10.63,37.48,37.48,0,0,0,13.86-3.13ZM122.53,422l-5.13,21.46h24l1.89-11h15.65l1.73,11h24l-4.07-19.29Zm23.8-67L130.81,419.9l58.06,2.17L174.73,355h-28.4Zm8.35,56.88L157,398.33l1.61-10.46c0-.19.11-.73.22-1.62s.3-2.5.56-4.81c.15-1.16.29-2.22.42-3.19s.23-1.85.31-2.63l.72,8.17c.19,1.68.33,3.07.45,4.17s.2,2,.28,2.6c.71,5.67,1.09,8.91,1.17,9.73a11.18,11.18,0,0,0,.22,1.51l1.5,10.07Zm92.81,12.37.51-9.47q-6.08,5.6-12.08,5.59a12.64,12.64,0,0,1-6.24-1.51,13,13,0,0,1-4.59-4.36,22.38,22.38,0,0,1-2.87-7,40,40,0,0,1-1-9.4q0-10.85,4-17a12.61,12.61,0,0,1,11.14-6.1q5.46,0,10.63,5.2V355.53a33.36,33.36,0,0,0-11.47-2.12q-17.33,0-27.67,12.31T197.5,398.5c0,9.4,1.56,17.41,4.63,24.05Zm83.64-29.57a29.51,29.51,0,0,0,4.34,5.82,52,52,0,0,0,6.46,5.68l3.79,3q4.13,3.3,4.12,6.77a5,5,0,0,1-1.89,4,7.37,7.37,0,0,1-4.9,1.6q-8,0-14.81-9.4v15.16l41.27,1.54a31.53,31.53,0,0,0,3.6-15.25,25.75,25.75,0,0,0-3.23-13.09q-3.18-5.59-10.52-10.91l-3.68-2.74c-3.15-2.27-4.73-4.57-4.73-6.88a4.61,4.61,0,0,1,1.78-3.64,6.32,6.32,0,0,1,4.4-1.57,12.45,12.45,0,0,1,7.13,2.54,24.73,24.73,0,0,1,6.46,7v-26.4A35.71,35.71,0,0,0,354,353.4a24.46,24.46,0,0,0-20.1,10.09,32,32,0,0,0-6,18.26,28.1,28.1,0,0,0,.78,6.71A23.67,23.67,0,0,0,331.13,394.67ZM76.42,420.25l-23.22-.87v24H76.42Zm8.27-13.64H95.77v12l23.22.87V355H95.77v30.54H84.69V355H61.47v62.32l23.22.87Zm2.81,36.81h23.22v-21.9l-23.22-.87ZM295.32,355l-13.7,37,.61-37H259v69.69l23,.86-.37-24,9.43,24.35,24.26.91-14-30.12L319.82,355h-24.5Zm101.51,0-17.74,74.17,62.26,2.32L425.22,355Zm8.35,56.88,2.34-13.54,1.61-10.46c0-.19.11-.73.22-1.62s.3-2.5.56-4.81c.15-1.16.29-2.22.42-3.19s.23-1.85.3-2.63l.72,8.17q.28,2.52.45,4.17c.11,1.1.2,2,.28,2.6q1.05,8.51,1.17,9.73a11.18,11.18,0,0,0,.22,1.51l1.5,10.07ZM455,443.42h22.61l1.15-8.17-25.78-1ZM250.75,426.75v16.67H274l-.24-15.82ZM518.65,355l-4.23,26.79q-.88,5.6-1.61,12.47T511.47,410q-2.06-19.8-4.84-34.29L502.73,355h-20l-4.34,24.67q-1.84,10.68-3,22.54l-.72,6.77-.78-7.89q-.84-8.11-3-22.32L467.09,355H444.15l17.13,77.23,25.78,1L490.31,410q.56-3.92.95-7.44t.67-6.71q.56-6.27.84-8.56.11,1.13.39,3.24c.18,1.42.41,3.19.67,5.31q.78,6.43,2.34,15.21l4,22.58,25.1.94L541.33,355H518.65ZM517,436.68l-25.1-.94,1.36,7.68h22.38Zm-107.51-4,1.69,10.75h24l-2.08-9.87ZM320,441.3a48.66,48.66,0,0,0,17.54,3.64,25.67,25.67,0,0,0,19.6-8.28,28.31,28.31,0,0,0,4.14-5.78L320,429.34v12ZM282.79,428l6,15.48h25.06l-6.79-14.57Zm85.11,15.47h24l1.89-11-23-1.23ZM76.09,478h6.26a6,6,0,0,1-.74,2.19,4.49,4.49,0,0,1-1.38,1.46,5.65,5.65,0,0,1-1.89.82,9.22,9.22,0,0,1-2.18.25,8.09,8.09,0,0,1-3.34-.64,6.61,6.61,0,0,1-2.41-1.82A7.89,7.89,0,0,1,69,477.52,12.69,12.69,0,0,1,69,470.3a9,9,0,0,1,1.55-2.87A6.82,6.82,0,0,1,73,465.59a7.33,7.33,0,0,1,3.11-.64A6.57,6.57,0,0,1,79.74,466a7.38,7.38,0,0,1,2.62,3.47l7.23-3a13.75,13.75,0,0,0-5.48-6.17,15.82,15.82,0,0,0-8-2,17.46,17.46,0,0,0-6.41,1.13,14.26,14.26,0,0,0-4.92,3.16,13.87,13.87,0,0,0-3.15,4.9,18.39,18.39,0,0,0,0,12.64,14.43,14.43,0,0,0,3.15,4.92,14,14,0,0,0,4.84,3.18,16.7,16.7,0,0,0,6.24,1.13,17.9,17.9,0,0,0,4.74-.62,15.72,15.72,0,0,0,4.14-1.81A12.7,12.7,0,0,0,88,484a14.31,14.31,0,0,0,2.22-4.08,15.1,15.1,0,0,0,.78-3.55,42.37,42.37,0,0,0,.19-4.26H76.09Zm83.16-18.89L148.1,488.57h8.12l1.75-5.11h10.88l1.75,5.11h8.12l-11.15-29.43Zm.74,18.5,3.42-9.8,3.42,9.8Zm100.92-18.5-5.83,15.69-5.87-15.69h-7.54l-5,29.43h7.58l2.53-16.94,6.57,16.94h3l6.92-16.94,2.53,16.94h7.58l-5-29.43Zm73.28,29.43h7.62V459.14h-7.62Zm91.4-11.43-14.07-18H403.9v29.43h7.62v-18l14.07,18h7.58V459.14h-7.58Zm84.48.89h6.26a6,6,0,0,1-.74,2.19,4.49,4.49,0,0,1-1.38,1.46,5.78,5.78,0,0,1-1.88.82,9.16,9.16,0,0,1-2.18.25,8.06,8.06,0,0,1-3.34-.64,6.61,6.61,0,0,1-2.41-1.82,7.89,7.89,0,0,1-1.46-2.77,12.69,12.69,0,0,1,.07-7.22,8.78,8.78,0,0,1,1.55-2.87,6.82,6.82,0,0,1,2.39-1.84,7.33,7.33,0,0,1,3.11-.64,6.57,6.57,0,0,1,3.67,1.05,7.31,7.31,0,0,1,2.62,3.47l7.23-3a13.75,13.75,0,0,0-5.48-6.17,15.8,15.8,0,0,0-8-2,17.46,17.46,0,0,0-6.41,1.13,14.22,14.22,0,0,0-4.91,3.16,13.87,13.87,0,0,0-3.15,4.9,18.39,18.39,0,0,0,0,12.64,14.43,14.43,0,0,0,3.15,4.92,14,14,0,0,0,4.84,3.18,16.7,16.7,0,0,0,6.24,1.13,17.9,17.9,0,0,0,4.74-.62,15.72,15.72,0,0,0,4.14-1.81,12.7,12.7,0,0,0,3.28-3,14,14,0,0,0,2.21-4.08,15.1,15.1,0,0,0,.78-3.55,42.18,42.18,0,0,0,.2-4.26H510.07v6Z" transform="translate(-53.2 -353.4)"/></svg>