<svg xmlns="http://www.w3.org/2000/svg" width="2047" height="638" fill="none" viewBox="0 0 2047 638"><path fill="#000" d="M141 118h616l-93 415H32l109-415Z"/><path fill="#FFA200" d="M542.5 0H570l104 65h-29L542.5 0Z"/><path fill="#FDE43B" d="M435 638h27.5l104-65h-29L435 638Z"/><path fill="url(#a)" d="M361.08 515 427 316l59.387 199h144.741l-18.412 51c-14.215 3.312-22.322 4.743-36.824 6.5-15.098 1.829-38.871 2.5-38.871 2.5H128.88c-30.687 0-49.61 0-79.786-9.5-17.48-5.503-28.642-13-37.337-23.5C.944 528.942 0 515 0 515h361.08Z"/><path fill="url(#b)" d="M125.3 104.5c10.977-9.204 18.141-13.424 31.199-19.5 13.288-6.183 35.802-11.5 35.802-11.5l-17.39 51.5-45.008 167.5L68.529 515H0s0-42.856 3.574-58c19.307-81.821 24.04-89 45.52-168 12.535-46.103 20.458-72 33.755-117 12.068-40.838 18.425-47.354 42.451-67.5Z"/><path fill="url(#c)" d="M615.778 125 561 323l-70.527-198H174.4l17.901-51.5s15.822-3.228 26.084-4.5c10.136-1.257 26.084-2.141 26.084-2.141l431.668-2c30.687 0 49.61.141 79.786 9.641 17.479 5.503 28.642 13 37.336 23.5C804.072 111.058 804 125 804 125H615.778Z"/><path fill="url(#d)" d="M679.716 534.5c-10.976 9.204-18.141 13.424-31.198 19.5-13.289 6.184-21.428 8.912-35.802 12l17.389-52 45.008-167.5L736.488 124H804s-.112 30.292-2.557 49.5c-4.516 35.486-65.819 265.492-79.276 293.5-13.457 28.008-18.424 47.354-42.451 67.5Z"/><path fill="url(#e)" d="m542.5 0 102.781 65.143-207.609 1.607L542.5 0Z"/><path fill="url(#f)" d="m435 638-104.734-66.75h209.95L435 638Z"/><path fill="url(#g)" d="M300.143 125h48.663L244.032 515h-48.663l104.774-390Z"/><path fill="url(#h)" d="M112.514 226h175.94v49h-175.94v-49Z"/><path fill="#FFF348" d="m492 515-65-199 40 199h25Z"/><path fill="#FFA200" d="m629 125-68 198 42.5-198H629Z"/><path fill="#FFF348" d="m788.725 154.998 1.942-14.034A58.943 58.943 0 0 0 745.325 75.4L699.501 65h15.929c4.035 0 8.059.432 12.002 1.287l32.647 7.087a66.971 66.971 0 0 1 52.766 65.448v9.71a98.216 98.216 0 0 1-3.346 25.417l-82.292 307.12a111.334 111.334 0 0 1-78.402 78.637l-8.902 2.414a325.785 325.785 0 0 1-62.846 10.583l-11.557.797 70.388-25.288a106.683 106.683 0 0 0 66.98-72.792l85.857-320.422Z"/><path fill="url(#i)" d="M79.5 515H55l65.627-240H143L79.5 515Z"/><path fill="#FFF349" d="M258.5 515H234l104-390h23L258.5 515Z"/><path fill="url(#j)" d="M258.5 515H234l104-390h23L258.5 515Z"/><path fill="#FFAA06" d="M157 226h-24.717l27.344-101H182l-25 101Z"/><path fill="#000" d="M949.812 126.811s-38.565 5.974-49.609 10.32c-28.969 11.587-50.695 36.935-62.826 73.327-3.621 10.863-50.333 184.856-56.489 210.747-6.517 27.158-6.517 47.798 0 61.377 7.605 15.39 20.097 24.08 42.548 29.331 9.777 2.353 28.426 3.078 107.003 3.621 122.031 1.086 141.761-.905 172.541-17.019 21.55-11.407 40.92-36.935 51.6-68.62 5.44-15.751 54.5-199.702 58.48-218.894 9.78-47.074-3.07-70.973-43.99-81.837-9.96-2.534-24.81-3.078-111.89-3.259-55.22-.181-107.368.906-107.368.906Zm137.238 104.468c-2.53 10.682-44.54 166.57-46.35 172.001l-1.99 5.975H905.092c0-1.086 41.642-156.793 46.349-173.45l2.716-9.415h134.163l-1.27 4.889ZM1276.19 125c-4.35 13.036-79.67 300.55-81.48 310.87-6.7 36.935 1.27 59.205 24.62 69.344 22.64 9.596 26.8 9.958 141.05 9.958 95.41 0 107.54-.362 122.21-3.259 43.63-8.872 66.99-28.607 84.37-70.974 3.98-9.595 22.99-76.585 46.71-165.121 22.09-81.836 40.01-150.275 40.01-150.818h-122.39l-37.84 140.317c-20.82 77.129-39.11 142.852-39.83 143.938H1322.35l38.21-140.317c20.82-76.767 37.84-142.671 37.84-143.938h-122.21ZM1684.89 125c-.36 1.267-6.15 24.804-12.67 49.79-6.52 24.804-13.94 49.971-14.49 51.6h120.59l-1.27 3.983c-.73 2.354-17.93 66.085-38.2 141.766-20.28 75.68-39.84 142.308-40.38 143.938h124.93c.54-2.173 19.01-71.335 39.65-148.464l37.93-140.861h119.77c.54-1.629 19.73-76.948 26.25-101.752h-362.11Z"/><defs><linearGradient id="a" x1="346.5" x2="469.559" y1="743.5" y2="43.395" gradientUnits="userSpaceOnUse"><stop offset=".38" stop-color="#FFA200"/><stop offset="1" stop-color="#FDE43B"/></linearGradient><linearGradient id="b" x1="346.5" x2="469.559" y1="743.5" y2="43.395" gradientUnits="userSpaceOnUse"><stop offset=".38" stop-color="#FFA200"/><stop offset="1" stop-color="#FDE43B"/></linearGradient><linearGradient id="c" x1="346.5" x2="469.559" y1="743.5" y2="43.395" gradientUnits="userSpaceOnUse"><stop offset=".38" stop-color="#FFA200"/><stop offset="1" stop-color="#FDE43B"/></linearGradient><linearGradient id="d" x1="346.5" x2="469.559" y1="743.5" y2="43.395" gradientUnits="userSpaceOnUse"><stop offset=".38" stop-color="#FFA200"/><stop offset="1" stop-color="#FDE43B"/></linearGradient><linearGradient id="e" x1="346.5" x2="469.559" y1="743.5" y2="43.395" gradientUnits="userSpaceOnUse"><stop offset=".38" stop-color="#FFA200"/><stop offset="1" stop-color="#FDE43B"/></linearGradient><linearGradient id="f" x1="346.5" x2="469.559" y1="743.5" y2="43.395" gradientUnits="userSpaceOnUse"><stop offset=".38" stop-color="#FFA200"/><stop offset="1" stop-color="#FDE43B"/></linearGradient><linearGradient id="g" x1="346.5" x2="469.559" y1="743.5" y2="43.395" gradientUnits="userSpaceOnUse"><stop offset=".38" stop-color="#FFA200"/><stop offset="1" stop-color="#FDE43B"/></linearGradient><linearGradient id="h" x1="346.5" x2="469.559" y1="743.5" y2="43.395" gradientUnits="userSpaceOnUse"><stop offset=".38" stop-color="#FFA200"/><stop offset="1" stop-color="#FDE43B"/></linearGradient><linearGradient id="i" x1="99" x2="55" y1="275" y2="515" gradientUnits="userSpaceOnUse"><stop stop-color="#FFAA06"/><stop offset="1" stop-color="#FFF348"/></linearGradient><linearGradient id="j" x1="315.5" x2="177" y1="275" y2="772.999" gradientUnits="userSpaceOnUse"><stop stop-color="#FFAB00"/><stop offset="1" stop-color="#FFE600" stop-opacity="0"/></linearGradient></defs></svg>