<svg xmlns="http://www.w3.org/2000/svg" width="300" height="300" fill="none" viewBox="0 0 300 300"><path fill="#FFB92A" fill-rule="evenodd" d="M300 253.287C300 279.085 279.085 300 253.287 300H46.34C20.746 300 0 279.254 0 253.666V44.671C0 19.999 19.999 0 44.67 0H255.33C280.001 0 300 19.999 300 44.665v208.622Z" clip-rule="evenodd"/><path fill="#2D2926" d="M28.304 116.763v76.239l-13.606 3.055v-76.239l13.606-3.055Zm36.02 9.832c-8.395 1.884-13.549 11.338-13.549 11.338v-7.106l-13.204 2.88v45.485a14.492 14.492 0 0 1 5.188-.973c2.941 0 5.674.883 7.96 2.387v-22.205c.101-10.636 3.15-16.847 9.52-18.279 5.596-1.256 7.695 2.914 7.604 9.352v34.731l12.961-2.925.09-34.623c.114-16.956-6.726-22.274-16.57-20.062Zm19.62-3.304 7.428-1.668v-10.67l13.137-2.925v10.647l9.352-2.104-.131 11.529-9.363 2.105-.067 28.869c.062 3.525.678 5.709 4.633 4.821a28.74 28.74 0 0 0 4.186-1.273l.034 10.828c-3.281 1.556-5.261 2.184-7.96 2.789-7.513 1.737-13.996-3.151-13.996-13.136l.045-29.951-7.434 1.669.136-11.53Zm45.746 21.832c.006 1.217-.028 2.212.17 3.383.984 5.85 3.858 10.393 9.77 9.069 5.431-1.216 7.236-4.825 8.277-8.808l13.764-3.089c-1.437 8.82-6.206 19.936-21.232 23.303-13.476 3.021-21.623-4.758-23.857-18.053-2.45-14.574 1.346-36.287 21.317-40.767 14.737-3.304 21.634 5.414 23.529 16.689.752 4.469.707 7.79.447 11.049l-32.185 7.224Zm19.122-14.33c.034-1.001-.108-1.85-.215-2.489-.803-4.786-3.44-8.503-9.256-7.196-6.013 1.346-8.978 6.427-9.527 13.945l18.998-4.26Zm45.57-16.757c-9.148 2.167-13.561 8.543-13.612 21.045l-.118 23.762-13.125 2.947v-57.275l12.666-2.84c.164 1.403.464 5.646.442 10.296 2.133-7.332 5.057-11.1 13.741-13.046v15.111h.006Zm46.623 30.838-.074.017-13.176 2.976c-.905-1.646-1.816-4.26-2.212-6.098-1.867 3.954-4.424 8.508-13.691 10.59-9.844 2.212-15.439-4.492-16.661-10.964-2.891-15.269 8.068-22.686 19.281-25.543 4.033-1.03 7.428-1.635 11.258-2.602l-.193-3.434c-.084-4.181-1.052-9.273-8.095-7.689-6.274 1.409-6.602 5.38-7.163 8.271l-13.413 3.01c.169-9.216 4.192-18.11 19.727-21.6 12.158-2.732 22.268.877 22.177 15.824v27.167s.322 4.582.843 6.788c.526 2.241 1.392 3.287 1.392 3.287Zm-15.479-22.341a72.076 72.076 0 0 0-8.582 2.484c-7.095 2.919-9.488 6.223-8.605 10.885.6 3.179 2.897 5.21 7.145 4.254 9.069-2.036 9.861-10.619 10.014-16.729l.028-.894Zm62.825-7.292c-.735 10.998-5.866 21.108-20.632 24.423-12.644 2.84-20.848-3.83-23.337-16.984-3.01-15.908 1.539-37.604 20.067-41.762 16.214-3.644 22.652 8.073 23.303 15.224l-12.741 2.862c-.899-4.22-2.976-8.288-8.865-6.964-9.267 2.082-10.042 18.177-8.378 26.98 1.442 7.638 4.888 10.398 9.611 9.341 4.345-.974 6.835-4.3 7.836-10.161l13.136-2.959Zm-215.54 97.364L54.23 199.96l-.005 31.031c0 .951-.775 1.726-1.72 1.726a1.72 1.72 0 0 1-1.714-1.726c0-.334-.04-33.927-.04-38.029 0-4.396-3.57-7.977-7.965-7.977a7.979 7.979 0 0 0-7.977 7.977l.011 66.254c0 11.892 9.68 21.589 21.577 21.589h1.426c11.734 0 21.153-9.511 21.153-21.25l.011-34.962c0-4.6-2.54-9.199-6.177-11.988Zm-53.91-9.878c-3.287.792-5.318 4.096-4.526 7.383.792 3.287 4.096 5.318 7.383 4.526l9.284-2.229v-12.599l-12.14 2.919Zm0 16.231c-3.287.792-5.318 4.096-4.526 7.383.792 3.287 4.096 5.318 7.383 4.526l9.284-2.229v-12.599l-12.14 2.919Zm-4.526 23.62a6.122 6.122 0 0 0 7.383 4.525l9.284-2.229v-12.599l-12.14 2.914a6.135 6.135 0 0 0-4.527 7.389Z"/></svg>