<svg xmlns="http://www.w3.org/2000/svg" width="105" height="47" viewBox="0 0 104 47"><defs><clipPath id="y"><path d="M22 28h7v5h-7Zm0 0"/></clipPath><clipPath id="a"><path d="M0 37h7v7H0Zm0 0"/></clipPath><clipPath id="c"><path d="M5 15h38v29H5Zm0 0"/></clipPath><clipPath id="d"><path d="M43.105 21.61c0 11.93-9.644 21.605-21.542 21.605-11.895 0-21.54-9.676-21.54-21.606C.023 9.676 9.668 0 21.563 0 33.46 0 43.105 9.676 43.105 21.61Zm0 0"/></clipPath><clipPath id="e"><path d="M11 42h30v2H11Zm0 0"/></clipPath><clipPath id="f"><path d="M43.105 21.61c0 11.93-9.644 21.605-21.542 21.605-11.895 0-21.54-9.676-21.54-21.606C.023 9.676 9.668 0 21.563 0 33.46 0 43.105 9.676 43.105 21.61Zm0 0"/></clipPath><clipPath id="g"><path d="M39 42h1v1h-1Zm0 0"/></clipPath><clipPath id="h"><path d="M43.105 21.61c0 11.93-9.644 21.605-21.542 21.605-11.895 0-21.54-9.676-21.54-21.606C.023 9.676 9.668 0 21.563 0 33.46 0 43.105 9.676 43.105 21.61Zm0 0"/></clipPath><clipPath id="i"><path d="M39 36h2v7h-2Zm0 0"/></clipPath><clipPath id="j"><path d="M43.105 21.61c0 11.93-9.644 21.605-21.542 21.605-11.895 0-21.54-9.676-21.54-21.606C.023 9.676 9.668 0 21.563 0 33.46 0 43.105 9.676 43.105 21.61Zm0 0"/></clipPath><clipPath id="k"><path d="M5 36h36v8H5Zm0 0"/></clipPath><clipPath id="l"><path d="M43.105 21.61c0 11.93-9.644 21.605-21.542 21.605-11.895 0-21.54-9.676-21.54-21.606C.023 9.676 9.668 0 21.563 0 33.46 0 43.105 9.676 43.105 21.61Zm0 0"/></clipPath><clipPath id="m"><path d="M21 36h20v8H21Zm0 0"/></clipPath><clipPath id="n"><path d="M43.105 21.61c0 11.93-9.644 21.605-21.542 21.605-11.895 0-21.54-9.676-21.54-21.606C.023 9.676 9.668 0 21.563 0 33.46 0 43.105 9.676 43.105 21.61Zm0 0"/></clipPath><clipPath id="o"><path d="M20 0h24v13H20Zm0 0"/></clipPath><clipPath id="p"><path d="M43.105 21.61c0 11.93-9.644 21.605-21.542 21.605-11.895 0-21.54-9.676-21.54-21.606C.023 9.676 9.668 0 21.563 0 33.46 0 43.105 9.676 43.105 21.61Zm0 0"/></clipPath><clipPath id="q"><path d="M12 2h32v14H12Zm0 0"/></clipPath><clipPath id="r"><path d="M43.105 21.61c0 11.93-9.644 21.605-21.542 21.605-11.895 0-21.54-9.676-21.54-21.606C.023 9.676 9.668 0 21.563 0 33.46 0 43.105 9.676 43.105 21.61Zm0 0"/></clipPath><clipPath id="s"><path d="M12 2h8v5h-8Zm0 0"/></clipPath><clipPath id="t"><path d="M43.105 21.61c0 11.93-9.644 21.605-21.542 21.605-11.895 0-21.54-9.676-21.54-21.606C.023 9.676 9.668 0 21.563 0 33.46 0 43.105 9.676 43.105 21.61Zm0 0"/></clipPath><clipPath id="u"><path d="M17 19h16v14H17Zm0 0"/></clipPath><clipPath id="v"><path d="M43.105 21.61c0 11.93-9.644 21.605-21.542 21.605-11.895 0-21.54-9.676-21.54-21.606C.023 9.676 9.668 0 21.563 0 33.46 0 43.105 9.676 43.105 21.61Zm0 0"/></clipPath><clipPath id="w"><path d="M18 20h12v7H18Zm0 0"/></clipPath><clipPath id="x"><path d="M43.105 21.61c0 11.93-9.644 21.605-21.542 21.605-11.895 0-21.54-9.676-21.54-21.606C.023 9.676 9.668 0 21.563 0 33.46 0 43.105 9.676 43.105 21.61Zm0 0"/></clipPath><clipPath id="b"><path d="M43.105 21.61c0 11.93-9.644 21.605-21.542 21.605-11.895 0-21.54-9.676-21.54-21.606C.023 9.676 9.668 0 21.563 0 33.46 0 43.105 9.676 43.105 21.61Zm0 0"/></clipPath><clipPath id="z"><path d="M43.105 21.61c0 11.93-9.644 21.605-21.542 21.605-11.895 0-21.54-9.676-21.54-21.606C.023 9.676 9.668 0 21.563 0 33.46 0 43.105 9.676 43.105 21.61Zm0 0"/></clipPath><clipPath id="A"><path d="M19 8h7v10h-7Zm0 0"/></clipPath><clipPath id="B"><path d="M43.105 21.61c0 11.93-9.644 21.605-21.542 21.605-11.895 0-21.54-9.676-21.54-21.606C.023 9.676 9.668 0 21.563 0 33.46 0 43.105 9.676 43.105 21.61Zm0 0"/></clipPath><clipPath id="C"><path d="M24 9h9v10h-9Zm0 0"/></clipPath><clipPath id="D"><path d="M43.105 21.61c0 11.93-9.644 21.605-21.542 21.605-11.895 0-21.54-9.676-21.54-21.606C.023 9.676 9.668 0 21.563 0 33.46 0 43.105 9.676 43.105 21.61Zm0 0"/></clipPath><clipPath id="E"><path d="M7 17h3v3H7Zm0 0"/></clipPath><clipPath id="F"><path d="M43.105 21.61c0 11.93-9.644 21.605-21.542 21.605-11.895 0-21.54-9.676-21.54-21.606C.023 9.676 9.668 0 21.563 0 33.46 0 43.105 9.676 43.105 21.61Zm0 0"/></clipPath><clipPath id="G"><path d="M6 21h4v5H6Zm0 0"/></clipPath><clipPath id="H"><path d="M43.105 21.61c0 11.93-9.644 21.605-21.542 21.605-11.895 0-21.54-9.676-21.54-21.606C.023 9.676 9.668 0 21.563 0 33.46 0 43.105 9.676 43.105 21.61Zm0 0"/></clipPath><clipPath id="I"><path d="M26 11h4v5h-4Zm0 0"/></clipPath><clipPath id="J"><path d="M43.105 21.61c0 11.93-9.644 21.605-21.542 21.605-11.895 0-21.54-9.676-21.54-21.606C.023 9.676 9.668 0 21.563 0 33.46 0 43.105 9.676 43.105 21.61Zm0 0"/></clipPath><clipPath id="K"><path d="M21 11h3v4h-3Zm0 0"/></clipPath><clipPath id="L"><path d="M43.105 21.61c0 11.93-9.644 21.605-21.542 21.605-11.895 0-21.54-9.676-21.54-21.606C.023 9.676 9.668 0 21.563 0 33.46 0 43.105 9.676 43.105 21.61Zm0 0"/></clipPath><clipPath id="M"><path d="M26 12h2v2h-2Zm0 0"/></clipPath><clipPath id="N"><path d="M43.105 21.61c0 11.93-9.644 21.605-21.542 21.605-11.895 0-21.54-9.676-21.54-21.606C.023 9.676 9.668 0 21.563 0 33.46 0 43.105 9.676 43.105 21.61Zm0 0"/></clipPath><clipPath id="O"><path d="M20 12h2v2h-2Zm0 0"/></clipPath><clipPath id="P"><path d="M43.105 21.61c0 11.93-9.644 21.605-21.542 21.605-11.895 0-21.54-9.676-21.54-21.606C.023 9.676 9.668 0 21.563 0 33.46 0 43.105 9.676 43.105 21.61Zm0 0"/></clipPath><clipPath id="Q"><path d="M12 8h10v11H12Zm0 0"/></clipPath><clipPath id="R"><path d="M43.105 21.61c0 11.93-9.644 21.605-21.542 21.605-11.895 0-21.54-9.676-21.54-21.606C.023 9.676 9.668 0 21.563 0 33.46 0 43.105 9.676 43.105 21.61Zm0 0"/></clipPath><clipPath id="S"><path d="M9 12h7v32H9Zm0 0"/></clipPath><clipPath id="T"><path d="M43.105 21.61c0 11.93-9.644 21.605-21.542 21.605-11.895 0-21.54-9.676-21.54-21.606C.023 9.676 9.668 0 21.563 0 33.46 0 43.105 9.676 43.105 21.61Zm0 0"/></clipPath><clipPath id="U"><path d="M34 39h10v5H34Zm0 0"/></clipPath><clipPath id="V"><path d="M43.105 21.61c0 11.93-9.644 21.605-21.542 21.605-11.895 0-21.54-9.676-21.54-21.606C.023 9.676 9.668 0 21.563 0 33.46 0 43.105 9.676 43.105 21.61Zm0 0"/></clipPath></defs><path style="fill-rule:nonzero;fill:#f8bc18;fill-opacity:1;stroke-width:2.216;stroke-linecap:butt;stroke-linejoin:miter;stroke:#f8bc18;stroke-opacity:1;stroke-miterlimit:10" d="M327.951 156.462c-9.007 0-16.588-3.077-22.76-9.247-6.153-6.152-9.239-13.692-9.239-22.565 0-8.873 3.121-16.128 9.347-21.747 6.207-5.62 13.556-8.429 22.01-8.429 8.455 0 16.856 3.628 25.204 10.883l11.95-14.688c-10.024-10.029-22.296-15.043-36.797-15.043-14.501 0-26.791 4.623-36.887 13.87-10.095 9.246-15.143 21.249-15.143 35.99 0 14.74 4.834 26.672 14.501 35.794 9.668 9.122 21.208 13.692 34.622 13.692 15.357 0 28.877-5.92 40.596-17.764l-11.95-13.051c-7.974 8.197-16.464 12.305-25.454 12.305ZM460.907 89.033c-9.203-8.944-20.244-13.407-33.176-13.407-12.932 0-23.384 6.099-31.357 18.297V38.995h-20.299v134.502h20.299v-14.493c9.667 10.634 20.566 15.95 32.712 15.95 12.147 0 22.778-4.658 31.91-13.958 9.115-9.3 13.681-21.391 13.681-36.257s-4.584-26.762-13.77-35.706Zm-15.41 59.089c-5.922 5.797-12.861 8.695-20.834 8.695-7.991 0-14.751-2.934-20.298-8.784-5.566-5.868-8.348-13.39-8.348-22.565 0-9.193 2.782-16.84 8.348-22.938 5.547-6.1 12.378-9.158 20.476-9.158 8.08 0 15.037 3.058 20.852 9.158 5.797 6.099 8.704 13.78 8.704 23.027 0 9.229-2.979 16.768-8.9 22.565ZM257.514 153.634c-2.408-2.72-3.621-6.366-3.621-10.971V38.995h-20.299V142.13c0 10.153 3.05 18.226 9.15 24.2 6.012 5.886 13.253 8.874 21.726 8.962h.428l2.765-17.568c-4.335-.018-7.724-1.37-10.15-4.09Zm0 0" transform="matrix(.219 0 0 .21968 .023 0)"/><path style="stroke:none;fill-rule:nonzero;fill:#f4f4f4;fill-opacity:1" d="M43.105 21.61c0 11.93-9.644 21.605-21.542 21.605-11.895 0-21.54-9.676-21.54-21.606C.023 9.676 9.668 0 21.563 0 33.46 0 43.105 9.676 43.105 21.61Zm0 0"/><g clip-path="url(#a)"><g clip-path="url(#b)"><path style="stroke:none;fill-rule:nonzero;fill:#fee2d4;fill-opacity:1" d="M5.414 37.266s-14.629 7.382-10.45 15.32c.036.012.075.012.106.035 1.172.875 1.793.3 2.696.223 1.363-.114 2.675-.54 3.574-1.524.144-2.027.95-6.793 5.273-7.027.203-.2-1.199-7.027-1.199-7.027Zm0 0"/></g></g><g clip-path="url(#c)"><g clip-path="url(#d)"><path style="stroke:none;fill-rule:nonzero;fill:#fee2d4;fill-opacity:1" d="m41.36 19.047-29.657-3.719c-1.09-.137-2.8.14-3.793.613 0 0-1.379.653-1.73 1.77-.063.203-1.578 10.96-.59 20.18 3.59 5.027 9.34 11.543 15.336 12.195 0-.094 12.539-5.648 19.21-13.582 1.098-6.668 2.813-15.238 2.813-15.238a1.839 1.839 0 0 0-1.59-2.22Zm0 0"/></g></g><g clip-path="url(#e)"><g clip-path="url(#f)"><path style="stroke:none;fill-rule:nonzero;fill:#fee2d4;fill-opacity:1" d="M39.64 57.344c-5.617 1.96-13.245 7.73-13.245 7.73l-2.27-1.87s-1.2 2.542-1.465 2.542c-1.945-1.598-7.566-1.668-11.148-1.531.445 1.37.925 2.77 1.433 4.195.582.531 1.426.79 2.188.602l23.332-5.73c1.07-.266 1.816-1.376 1.66-2.466 0 0-1.492-10.351-.848-18.054-.449 5.054-.136 10.336.364 14.582Zm0 0"/></g></g><g clip-path="url(#g)"><g clip-path="url(#h)"><path style="stroke:none;fill-rule:nonzero;fill:#181817;fill-opacity:1" d="M39.344 42.055c-.028.23-.047.465-.067.703.02-.235.04-.473.067-.703Zm0 0"/></g></g><g clip-path="url(#i)"><g clip-path="url(#j)"><path style="stroke:none;fill-rule:nonzero;fill:#181817;fill-opacity:1" d="m40.148 36.488-.015.016c-.356 2.172-.645 4.14-.793 5.55.14-1.35.437-3.331.808-5.566Zm0 0"/></g></g><g clip-path="url(#k)"><g clip-path="url(#l)"><path style="stroke:none;fill-rule:nonzero;fill:#f8bc18;fill-opacity:1" d="M20.926 50.086v.008-.008C14.93 49.434 9.18 42.918 5.59 37.89c.762 7.117 2.504 15.87 5.922 26.324 3.582-.133 9.203-.063 11.148 1.531.266 0 1.465-2.543 1.465-2.543l2.27 1.871s7.628-5.77 13.246-7.73c-.504-4.25-.813-9.528-.364-14.586.02-.238.04-.473.067-.703.144-1.41.433-3.38.793-5.551-6.672 7.934-19.211 13.488-19.211 13.582Zm0 0"/></g></g><g clip-path="url(#m)"><g clip-path="url(#n)"><path style="stroke:none;fill-rule:nonzero;fill:#f8bc18;fill-opacity:1" d="M39.371 42.867c.02-.238.043-.472.066-.703.145-1.41.438-3.379.797-5.55-6.672 7.933-19.214 13.488-19.214 13.581v.008l3.203 13.11 2.27 1.874s7.624-5.769 13.245-7.73c-.504-4.25-.816-9.527-.367-14.59Zm0 0"/></g></g><g clip-path="url(#o)"><g clip-path="url(#p)"><path style="stroke:none;fill-rule:nonzero;fill:#f8bc18;fill-opacity:1" d="m20.125 6.746 6.008-19.476s.8-1.606 2.601-1.606 11.258.754 15.614 7.129c.449.55-.805 3.012-.805 3.012l-7.938 16.53Zm0 0"/></g></g><g clip-path="url(#q)"><g clip-path="url(#r)"><path style="stroke:none;fill-rule:nonzero;fill:#eca32f;fill-opacity:1" d="M42.445 12.469c-2.101-1.809-10.207-1.406-14.011-3.114-3.579-1.605-7.247-2.234-8.75-3.304-1.243-.008-5.614-1.598-6.563-3.086-.113-.176-.156-.32-.152-.442a1.23 1.23 0 0 0-.348.309c-.5.902 1.3 3.414 8.004 6.023 6.707 2.61 9.207 5.02 9.207 5.02s5.906 2.207 8.61 2.008c2.703-.2 6.105-1.606 4.003-3.414Zm0 0"/></g></g><g clip-path="url(#s)"><g clip-path="url(#t)"><path style="stroke:none;fill-rule:nonzero;fill:#f8bc18;fill-opacity:1" d="M13.121 2.965c.95 1.488 5.32 3.078 6.563 3.086a3.724 3.724 0 0 1-.258-.207c-1.207-1.117-4.82-4.305-6.457-3.32-.004.12.039.265.152.44Zm0 0"/></g></g><g clip-path="url(#u)"><g clip-path="url(#v)"><path style="stroke:none;fill-rule:nonzero;fill:#181817;fill-opacity:1" d="M17.426 19.297s2.699 2.008 4.3 2.11c1.602.1 6.907-.102 10.813-1.509.7.102-.902 1.407-1.504 2.512-.601 1.106-2.805 6.223-3.203 7.531-.398 1.305-2.102 2.91-4.805 2.41-2.699-.503-3.902-2.511-4.101-5.722-.203-3.215-1.102-6.93-1.5-7.332Zm0 0"/></g></g><g clip-path="url(#w)"><g clip-path="url(#x)"><path style="stroke:none;fill-rule:nonzero;fill:#faf8f6;fill-opacity:1" d="M19.191 24.316c.704 1.508 2.332 2.262 3.938 2.11 3.137-.301 5.203-2.207 6.105-3.313.563-.687.696-1.765.72-2.48-3.376.742-6.958.855-8.227.773-.934-.058-2.239-.761-3.168-1.343-.075 1.093.14 3.195.632 4.253Zm0 0"/></g></g><g clip-path="url(#y)"><g clip-path="url(#z)"><path style="stroke:none;fill-rule:nonzero;fill:#e53227;fill-opacity:1" d="M22.172 32.117c.27.094.55.172.855.23 2.703.505 4.407-1.105 4.805-2.41.11-.347.344-.972.645-1.718-1.543.031-5.348.46-6.305 3.898Zm0 0"/></g></g><g clip-path="url(#A)"><g clip-path="url(#B)"><path style="stroke:none;fill-rule:nonzero;fill:#fff;fill-opacity:1" d="M23.773 12.988c-.128-1.215.063-2.363.489-3.312-1.836-.653-3.192-.965-4.121-1.114-.551.961-.883 2.18-.883 3.504 0 3.106 1.808 5.621 4.039 5.621.812 0 1.574-.335 2.207-.914-.91-.878-1.567-2.226-1.73-3.785Zm0 0"/></g></g><g clip-path="url(#C)"><g clip-path="url(#D)"><path style="stroke:none;fill-rule:nonzero;fill:#fff;fill-opacity:1" d="M24.684 9.828c-.442.957-.641 2.125-.508 3.363.308 2.914 2.332 5.09 4.523 4.852 1.946-.207 3.367-2.25 3.442-4.75-3.04-1.648-5.508-2.742-7.457-3.465Zm0 0"/></g></g><g clip-path="url(#E)"><g clip-path="url(#F)"><path style="stroke:none;fill-rule:nonzero;fill:#eca32f;fill-opacity:1" d="m8.996 19.043.285.941h.414l-.902-2.777-.441-.012-1.332 2.793h.453l.433-.957Zm-.976-.3.359-.786c.074-.168.129-.324.184-.469h.007c.032.149.07.309.117.469l.247.797Zm0 0"/></g></g><g clip-path="url(#G)"><g clip-path="url(#H)"><path style="stroke:none;fill-rule:nonzero;fill:#eca32f;fill-opacity:1" d="m6.55 23.285 1.434 2.504 1.735-2.617-1.41-2.106Zm0 0"/></g></g><g clip-path="url(#I)"><g clip-path="url(#J)"><path style="stroke:none;fill-rule:nonzero;fill:#181817;fill-opacity:1" d="M29.332 13.375c0 .902-.582 1.637-1.3 1.637-.716 0-1.302-.735-1.302-1.637 0-.906.586-1.64 1.301-1.64.719 0 1.301.73 1.301 1.64Zm0 0"/></g></g><g clip-path="url(#K)"><g clip-path="url(#L)"><path style="stroke:none;fill-rule:nonzero;fill:#181817;fill-opacity:1" d="M23.313 13.305c0-.793-.481-1.438-1.067-1.438-.59 0-1.066.645-1.066 1.438 0 .797.476 1.441 1.066 1.441.586 0 1.067-.644 1.067-1.441Zm0 0"/></g></g><g clip-path="url(#M)"><g clip-path="url(#N)"><path style="stroke:none;fill-rule:nonzero;fill:#fff;fill-opacity:1" d="M27.664 12.672c0 .332-.27.601-.598.601a.602.602 0 0 1 0-1.203c.329 0 .598.27.598.602Zm0 0"/></g></g><g clip-path="url(#O)"><g clip-path="url(#P)"><path style="stroke:none;fill-rule:nonzero;fill:#fff;fill-opacity:1" d="M21.91 12.77a.502.502 0 0 1-.5.503.502.502 0 0 1-.5-.503c0-.278.223-.504.5-.504s.5.226.5.504Zm0 0"/></g></g><g clip-path="url(#Q)"><g clip-path="url(#R)"><path style="fill:none;stroke-width:.4432;stroke-linecap:butt;stroke-linejoin:miter;stroke:#eca32f;stroke-opacity:1;stroke-miterlimit:10" d="M93.932 61.027c0 8.41-6.814 15.221-15.233 15.221-8.401 0-15.233-6.81-15.233-15.221 0-8.41 6.832-15.239 15.233-15.239 8.419 0 15.233 6.828 15.233 15.239Zm0 0" transform="matrix(.219 0 0 .21968 .023 0)"/></g></g><g clip-path="url(#S)"><g clip-path="url(#T)"><path style="fill:none;stroke-width:.4432;stroke-linecap:butt;stroke-linejoin:miter;stroke:#eca32f;stroke-opacity:1;stroke-miterlimit:10" d="M64.073 64.388s-17.374 12.483-13.717 44.17c3.246 28.077 6.011 80.604 5.315 98.101" transform="matrix(.219 0 0 .21968 .023 0)"/></g></g><g clip-path="url(#U)"><g clip-path="url(#V)"><path style="stroke:none;fill-rule:nonzero;fill:#fee2d4;fill-opacity:1" d="M38.742 53.328c-3.07 2.578-3.77 1.906-3.87 2.512-.102.601 1 5.02 2.202 5.824 1.2.805 10.074-2.11 9.676-8.836-.398-6.726-7.008-13.351-7.008-13.351l-.5 5.824c0-.004 2.567 5.453-.5 8.027Zm0 0"/></g></g><path style="stroke:none;fill-rule:nonzero;fill:#f8bc18;fill-opacity:1" d="M31.8 40.316c.188-2.941 2.415-7.836-1.644-6.71-4.058 1.128-6.468 3.578-6.468 3.578s-.93-.954-2.18-1.086c-1.262-.032-2.305.797-2.305.797s-2.078-2.743-5.953-4.383c-3.879-1.645-2.305 3.496-2.496 6.441-.191 2.942-2.371 4.54.45 6.457 2.82 1.922 7.737-1.754 7.737-1.754s.293 1.364 1.989 1.375c1.68.211 2.152-1.11 2.152-1.11s4.402 4.286 7.445 2.747c3.043-1.543 1.082-3.41 1.274-6.352Zm0 0"/><path style="stroke:none;fill-rule:nonzero;fill:#eca32f;fill-opacity:1" d="M23.91 40.59s.406-3.887 2.192-5.23c-1.586.953-2.465 1.847-2.465 1.847s-.707-.723-1.719-.988c.719.406 1.96.863 1.992 4.37ZM18.953 42.582c-3.21 2.406-6.113 3-7.379 2.992 2.84 1.446 7.364-1.945 7.364-1.945s.003.031.023.086c.043-.63-.012-1.11-.008-1.133ZM23.668 42.254c-.508 1.277-1.98 2.52-2.668 2.738 1.61.309 2.05-1.11 2.05-1.11s2.345 2.266 4.774 2.9c-1.562-.544-4.531-2.598-4.156-4.528Zm0 0"/></svg>