<svg width="601" height="220" viewBox="0 0 601 220" fill="none" xmlns="http://www.w3.org/2000/svg">
<style>
    :root {
        --c-whisker: #1D1D1B;
    }

    .wlc-body--theme-alt {
        --c-whisker: var(--mc-baseMain, #000);
    }

    .dynamic-color {
        fill: var(--mc-baseMain, #000);
    }

    .whisker {
        fill: var(--c-whisker);
    }
</style>
<path d="M128.3 143.6C121.4 129.5 117.5 115.9 117.5 99.1C117.5 61.2 137.4 30.3 167.3 11.6L161.4 0.600006C146.3 9.10001 128.9 13.9 110.4 13.9C91.9998 13.9 74.5998 9.09999 59.5998 0.799988L53.6998 11.8C83.4998 30.5 103.3 61.4 103.3 99.2C103.3 114.7 99.8998 127.2 93.8998 140.5C70.2998 183.9 13.7998 203.9 13.7998 203.9L22.7998 219.8C45.6998 198.3 76.4998 185.1 110.4 185.1C144.3 185.1 175.1 198.3 198 219.8L207.3 204C207.2 204 155.9 184.9 128.3 143.6Z" fill="#FF00FF"/>
<g class="dynamic-color">
    <path d="M326.1 126.8C317.6 126.8 309.5 125.1 301.8 121.7C294.2 118.3 287.5 113.8 281.7 108C275.9 102.2 271.4 95.5 268 87.9C264.6 80.3 262.9 72.2 262.9 63.6C262.9 55.1 264.6 47 268 39.3C271.4 31.6 275.9 25 281.7 19.2C287.5 13.4 294.2 8.9 301.8 5.5C309.4 2.1 317.5 0.399994 326.1 0.399994C333.5 0.399994 340.3 1.50001 346.4 3.70001C352.5 5.90001 357.9 8.79999 362.5 12.4C367.1 16 370.9 20.2 374 24.9C377.1 29.6 379.4 34.5 380.8 39.4L355.1 42.7C353.9 40.3 352.4 37.9 350.5 35.6C348.7 33.3 346.5 31.2 344.1 29.5C341.7 27.7 338.9 26.3 335.8 25.3C332.7 24.2 329.2 23.7 325.2 23.7C320.4 23.7 315.8 24.7 311.4 26.8C307 28.9 303.1 31.7 299.7 35.3C296.3 38.9 293.6 43.1 291.6 47.9C289.6 52.7 288.6 57.9 288.6 63.6C288.6 69.2 289.6 74.5 291.6 79.3C293.6 84.1 296.3 88.3 299.7 91.9C303.1 95.5 307 98.3 311.4 100.4C315.8 102.5 320.4 103.5 325.2 103.5C329.5 103.5 333.4 102.9 336.9 101.8C340.4 100.6 343.5 99.1 346.2 97.1C348.9 95.1 351.3 92.8 353.3 90.2C355.3 87.6 357 84.9 358.4 82L384.1 85.3C382.7 90.5 380.3 95.6 377 100.6C373.7 105.6 369.6 110 364.7 113.9C359.8 117.8 354 120.9 347.5 123.3C341.1 125.6 333.9 126.8 326.1 126.8Z"/>
    <path d="M418.3 5.60001H477.3L505.5 121.9H478.9L473.1 97.8H422.4L416.6 121.9H390L418.3 5.60001ZM428.2 74.5H467.2L456.4 28.8H439L428.2 74.5Z"/>
    <path d="M501.3 28.8V5.5H600.1V28.8H563.6V121.8H537.9V28.8H501.3Z"/>
    <path d="M294.7 219.8C290.4 219.8 286.3 218.9 282.4 217.2C278.5 215.5 275.1 213.2 272.2 210.3C269.3 207.4 267 204 265.3 200.1C263.6 196.2 262.7 192.1 262.7 187.8C262.7 183.5 263.6 179.4 265.3 175.5C267 171.6 269.3 168.2 272.2 165.3C275.1 162.4 278.5 160.1 282.4 158.4C286.3 156.7 290.4 155.8 294.7 155.8C298.5 155.8 301.9 156.4 305 157.5C308.1 158.6 310.8 160.1 313.2 161.9C315.5 163.7 317.5 165.8 319.1 168.2C320.7 170.6 321.8 173 322.6 175.6L309.5 177.3C308.9 176.1 308.1 174.9 307.2 173.7C306.3 172.5 305.2 171.5 304 170.6C302.8 169.7 301.4 169 299.8 168.5C298.2 168 296.4 167.7 294.4 167.7C292 167.7 289.7 168.2 287.4 169.3C285.2 170.3 283.2 171.8 281.5 173.6C279.8 175.4 278.4 177.6 277.4 180C276.4 182.4 275.9 185.1 275.9 188C275.9 190.9 276.4 193.5 277.4 196C278.4 198.4 279.8 200.6 281.5 202.4C283.2 204.2 285.2 205.7 287.4 206.7C289.6 207.7 292 208.3 294.4 208.3C296.6 208.3 298.6 208 300.3 207.4C302.1 206.8 303.6 206 305 205C306.4 204 307.6 202.8 308.6 201.5C309.6 200.2 310.5 198.8 311.2 197.3L324.3 199C323.6 201.6 322.4 204.2 320.7 206.7C319 209.2 317 211.5 314.5 213.4C312 215.4 309.1 217 305.8 218.2C302.3 219.2 298.7 219.8 294.7 219.8Z"/>
    <path d="M341.4 158.4H371.3L385.6 217.3H372.1L369.2 205.1H343.5L340.6 217.3H327.1L341.4 158.4ZM346.5 193.3H366.3L360.8 170.1H352L346.5 193.3Z"/>
    <path d="M426.9 200.5C426.9 198.7 426.1 197.3 424.4 196.2C422.7 195.1 420.6 194.2 418.1 193.3C415.6 192.5 412.8 191.6 409.9 190.8C407 190 404.2 188.8 401.7 187.4C399.2 186 397.1 184.2 395.4 182.1C393.7 179.9 392.9 177.1 392.9 173.6C392.9 171.4 393.4 169.3 394.5 167.1C395.6 165 397.1 163.1 399 161.4C401 159.7 403.3 158.4 406.2 157.4C409 156.4 412.2 155.9 415.6 155.9C419 155.9 422.2 156.4 424.9 157.3C427.6 158.2 430 159.5 432.1 161.2C434.1 162.9 435.8 164.8 437.1 167C438.4 169.2 439.4 171.5 440 174.1L426.9 175.8C426.1 173.5 424.7 171.6 422.9 170.1C421.1 168.6 418.6 167.8 415.5 167.8C412.5 167.8 410.2 168.5 408.6 169.9C407 171.3 406.2 172.8 406.2 174.5C406.2 176.2 407 177.5 408.7 178.5C410.4 179.5 412.5 180.4 415 181.1C417.5 181.9 420.3 182.7 423.2 183.5C426.1 184.4 428.9 185.5 431.4 187C433.9 188.5 436 190.3 437.7 192.6C439.4 194.9 440.2 197.8 440.2 201.5C440.2 203.8 439.6 206.1 438.5 208.3C437.4 210.5 435.8 212.5 433.7 214.2C431.6 215.9 429 217.3 426 218.4C423 219.5 419.6 220 415.8 220C412 220 408.6 219.5 405.7 218.5C402.8 217.5 400.2 216.1 398 214.4C395.8 212.7 394 210.5 392.6 208.1C391.2 205.7 390.1 203 389.4 200.2L402.5 198.5C403.3 201.3 404.8 203.6 407 205.4C409.2 207.2 412.1 208.2 416 208.2C419.9 208.2 422.6 207.5 424.3 206C426 204.4 426.9 202.6 426.9 200.5Z"/>
    <path d="M462.2 217.3H449.1V158.4H462.2V217.3Z"/>
    <path d="M511.5 195.4H512.3V158.4H525.4V217.3H511.1L488.4 180.3H487.6V217.3H474.5V158.4H488.8L511.5 195.4Z"/>
    <path d="M599.9 187.8C599.9 192.2 599.1 196.4 597.4 200.3C595.7 204.2 593.4 207.6 590.5 210.4C587.6 213.3 584.2 215.6 580.2 217.3C576.3 219 572 219.8 567.5 219.8C563 219.8 558.7 219 554.8 217.3C550.9 215.6 547.4 213.3 544.5 210.4C541.6 207.5 539.3 204.1 537.6 200.3C535.9 196.4 535.1 192.3 535.1 187.8C535.1 183.4 535.9 179.2 537.6 175.3C539.3 171.4 541.6 168 544.5 165.2C547.4 162.3 550.8 160 554.8 158.3C558.7 156.6 563 155.8 567.5 155.8C572 155.8 576.3 156.6 580.2 158.3C584.1 160 587.6 162.3 590.5 165.2C593.4 168.1 595.7 171.5 597.4 175.3C599.1 179.1 599.9 183.4 599.9 187.8ZM548.1 187.8C548.1 190.7 548.6 193.3 549.7 195.8C550.7 198.2 552.1 200.4 553.9 202.2C555.7 204 557.7 205.5 560 206.5C562.3 207.5 564.8 208.1 567.5 208.1C570.1 208.1 572.6 207.6 575 206.5C577.3 205.5 579.4 204 581.1 202.2C582.9 200.4 584.3 198.2 585.3 195.8C586.3 193.4 586.9 190.7 586.9 187.8C586.9 184.9 586.4 182.3 585.3 179.8C584.2 177.3 582.9 175.2 581.1 173.4C579.3 171.6 577.3 170.1 575 169.1C572.7 168.1 570.2 167.5 567.5 167.5C564.9 167.5 562.4 168 560 169.1C557.7 170.1 555.6 171.6 553.9 173.4C552.1 175.2 550.7 177.4 549.7 179.8C548.7 182.2 548.1 185 548.1 187.8Z"/>
</g>
<g class="whisker">
    <path d="M51.8751 123.8L4.22803 148.131L7.18421 153.92L54.8313 129.588L51.8751 123.8Z"/>
    <path d="M48.4001 97.4H0.600098V103.9H48.4001V97.4Z"/>
    <path d="M8.51495 49.8706L5.75635 55.7564L51.9368 77.4008L54.6954 71.515L8.51495 49.8706Z"/>
    <path d="M205.821 49.888L160.976 71.546L163.803 77.3992L208.648 55.7412L205.821 49.888Z"/>
    <path d="M213.5 97.2H167.3V103.7H213.5V97.2Z"/>
    <path d="M163.753 126.443L160.995 132.329L207.175 153.973L209.934 148.087L163.753 126.443Z"/>
</g>
</svg>
