<svg width="300" height="113" viewBox="0 0 300 113" fill="none" xmlns="http://www.w3.org/2000/svg">
<path d="M57.1289 24.2344H100.069V36.9219H70.3289V50.5091H95.6689V63.3666H70.3289V77.4638H100.069V89.9613H57.1289V24.2344Z" fill="black"/>
<path d="M120.966 36.8169H106.141V24.2344H149.426V36.8169H134.171V89.9813H120.966V36.8169Z" fill="black"/>
<path d="M0 24.2344H11.835L36.875 63.8365H37.045V24.2344H50.25V89.9813H38.37L13.37 50.1242H13.2V89.9813H0V24.2344Z" fill="black"/>
<path d="M201.341 24.2344H213.176L238.216 63.8365H238.386V24.2344H251.591V89.9813H239.711L214.711 50.1242H214.536V89.9813H201.336L201.341 24.2344Z" fill="#78BE20"/>
<path d="M271.97 36.8169H257.145V24.2344H300V36.8169H285.175V89.9813H271.97V36.8169Z" fill="#78BE20"/>
<path d="M194.845 36.967V24.2346H160.745V0.824219H158.27V112.622H160.745V90.0265H194.845V77.464H165.105V63.3668H190.4V50.5093H165.105V36.967H194.845Z" fill="#78BE20"/>
</svg>
