<svg width="174" height="50" viewBox="0 0 174 50" fill="none" xmlns="http://www.w3.org/2000/svg">
<path d="M61.6641 10.0841C61.0413 10.0841 60.4782 9.94422 59.9748 9.66438C59.4799 9.37605 59.0831 8.9902 58.7845 8.50682C58.4944 8.01497 58.3494 7.46799 58.3494 6.86589C58.3494 6.26379 58.4944 5.7253 58.7845 5.2504C59.0746 4.76703 59.4714 4.38542 59.9748 4.10557C60.4782 3.81724 61.037 3.67307 61.6513 3.67307C62.2827 3.67307 62.8458 3.81724 63.3407 4.10557C63.8441 4.38542 64.2408 4.76703 64.5309 5.2504C64.821 5.7253 64.9661 6.26379 64.9661 6.86589C64.9661 7.46799 64.821 8.01497 64.5309 8.50682C64.2408 8.9902 63.8441 9.37605 63.3407 9.66438C62.8458 9.94422 62.287 10.0841 61.6641 10.0841ZM61.6513 8.53226C61.967 8.53226 62.2443 8.46442 62.4832 8.32873C62.7306 8.18457 62.9184 7.98952 63.0463 7.7436C63.1829 7.48919 63.2511 7.20086 63.2511 6.87861C63.2511 6.55636 63.1829 6.27227 63.0463 6.02634C62.9098 5.78042 62.7221 5.58961 62.4832 5.45393C62.2443 5.30976 61.967 5.23768 61.6513 5.23768C61.3442 5.23768 61.0711 5.30976 60.8322 5.45393C60.5933 5.58961 60.4056 5.78042 60.2691 6.02634C60.1326 6.27227 60.0643 6.55636 60.0643 6.87861C60.0643 7.20086 60.1326 7.48919 60.2691 7.7436C60.4056 7.98952 60.5933 8.18457 60.8322 8.32873C61.0711 8.46442 61.3442 8.53226 61.6513 8.53226Z" fill="black"/>
<path fill-rule="evenodd" clip-rule="evenodd" d="M72.0861 9.95695H70.4224V9.39879C70.2604 9.55802 70.0727 9.69319 69.8593 9.80429C69.5009 9.99086 69.0999 10.0841 68.6563 10.0841C68.0846 10.0841 67.5727 9.94422 67.1205 9.66437C66.6683 9.38452 66.3099 9.00291 66.0454 8.51953C65.7895 8.03616 65.6615 7.49342 65.6615 6.89132C65.6615 6.28075 65.7895 5.73377 66.0454 5.2504C66.3099 4.76702 66.664 4.38541 67.1077 4.10556C67.5599 3.82571 68.0761 3.68579 68.6563 3.68579C69.0999 3.68579 69.4967 3.77483 69.8465 3.95292C70.0599 4.05897 70.2476 4.1906 70.4096 4.34778V3.05407C70.4096 2.13376 71.1602 1.3877 72.0861 1.3877C72.0861 4.45331 72.0861 6.89134 72.0861 9.95695ZM69.7569 8.34145C69.5265 8.47713 69.2535 8.54498 68.9378 8.54498C68.6392 8.54498 68.3704 8.47713 68.1315 8.34145C67.8926 8.19728 67.7049 8.00224 67.5684 7.75631C67.4404 7.5019 67.3764 7.20934 67.3764 6.8786C67.3764 6.55636 67.4404 6.27227 67.5684 6.02634C67.7049 5.78041 67.8884 5.58537 68.1187 5.4412C68.3576 5.29704 68.6349 5.22495 68.9506 5.22495C69.2578 5.22495 69.5265 5.29704 69.7569 5.4412C69.9958 5.57689 70.1793 5.77193 70.3072 6.02634C70.4437 6.27227 70.512 6.55636 70.512 6.8786C70.512 7.20934 70.4437 7.5019 70.3072 7.75631C70.1793 8.00224 69.9958 8.19728 69.7569 8.34145Z" fill="black"/>
<path fill-rule="evenodd" clip-rule="evenodd" d="M74.6316 9.66438C75.0838 9.94423 75.5915 10.0842 76.1546 10.0842C76.5983 10.0842 76.995 9.99511 77.3448 9.81703C77.5774 9.69301 77.7779 9.54089 77.9463 9.36066V9.95694H79.6101V3.81299H77.9463V4.40363C77.7779 4.22155 77.5774 4.07131 77.3448 3.95293C76.995 3.77485 76.5983 3.6858 76.1546 3.6858C75.5915 3.6858 75.0838 3.82573 74.6316 4.10558C74.1794 4.38542 73.8253 4.76704 73.5694 5.25041C73.3134 5.73378 73.1854 6.28076 73.1854 6.89134C73.1854 7.49344 73.3134 8.03617 73.5694 8.51955C73.8253 9.00292 74.1794 9.38453 74.6316 9.66438ZM77.6008 8.08706C77.3107 8.39235 76.931 8.54499 76.4618 8.54499C76.1546 8.54499 75.8816 8.47715 75.6427 8.34146C75.4123 8.1973 75.2289 8.00225 75.0924 7.75633C74.9644 7.50192 74.9004 7.20935 74.9004 6.87862C74.9004 6.55637 74.9644 6.27228 75.0924 6.02635C75.2289 5.77195 75.4123 5.5769 75.6427 5.44122C75.8816 5.29705 76.1546 5.22497 76.4618 5.22497C76.7775 5.22497 77.0505 5.29705 77.2808 5.44122C77.5197 5.5769 77.7032 5.77195 77.8312 6.02635C77.9677 6.27228 78.0359 6.55637 78.0359 6.87862C78.0359 7.37047 77.8909 7.77329 77.6008 8.08706Z" fill="black"/>
<path d="M55.7318 8.29058C55.7318 9.21089 56.4824 9.95695 57.4084 9.95695V6.06451C57.4084 5.64898 57.306 5.26313 57.1012 4.90696C56.8964 4.54231 56.6149 4.24974 56.2565 4.02925C55.8982 3.80029 55.4929 3.6858 55.0407 3.6858C54.5714 3.6858 54.1491 3.78757 53.7737 3.99109C53.5766 4.10043 53.4016 4.23303 53.2488 4.38887V3.81302H51.5723V8.29059C51.5723 9.2109 52.3229 9.95696 53.2488 9.95696V6.43336C53.2488 6.18743 53.3001 5.97123 53.4025 5.78467C53.5134 5.5981 53.6627 5.45394 53.8504 5.35217C54.0382 5.25041 54.2515 5.19953 54.4904 5.19953C54.8572 5.19953 55.1559 5.31401 55.3862 5.54298C55.6166 5.77195 55.7318 6.06875 55.7318 6.43341V8.29058Z" fill="black"/>
<path fill-rule="evenodd" clip-rule="evenodd" d="M15.6537 3.66134H12.1201C12.0694 3.66134 12.0172 3.66129 11.9638 3.66124L11.9628 3.66124C11.2499 3.66056 10.312 3.65966 9.49138 3.77322C8.47381 3.91404 6.96963 4.30426 5.68503 5.62649C4.40045 6.94873 4.02134 8.49699 3.88453 9.54437C3.7742 10.3891 3.77508 11.3544 3.77574 12.0882L3.77574 12.0893C3.77579 12.1443 3.77584 12.1979 3.77584 12.2502V15.9315L8.46836 15.9315V12.2502C8.46836 10.4783 8.46836 9.5923 9.00315 9.04184C9.53795 8.49138 10.3987 8.49138 12.1201 8.49138H12.1201H15.6537V3.66134ZM40.8779 15.9315V12.2502C40.8779 10.4783 40.8779 9.5923 40.343 9.04184C39.8083 8.49138 38.9475 8.49138 37.2261 8.49138H33.6438V3.66134H37.2261C37.2768 3.66134 37.3289 3.66129 37.3823 3.66124L37.3823 3.66124L37.3834 3.66124C38.0963 3.66056 39.0341 3.65966 39.8548 3.77322C40.8724 3.91404 42.3765 4.30426 43.6611 5.62649C44.9457 6.94873 45.3248 8.49699 45.4616 9.54437C45.572 10.3891 45.5711 11.3544 45.5704 12.0882L45.5703 12.1737L45.5703 12.1865L45.5703 12.2502V15.9315L40.8779 15.9315ZM33.6438 41.3807H37.2261C38.9475 41.3807 39.8083 41.3807 40.343 40.8303C40.8779 40.2797 40.8779 39.3939 40.8779 37.622V33.9216L45.5703 33.9216V37.622L45.5703 37.7009L45.5704 37.7839C45.5711 38.5177 45.572 39.483 45.4616 40.3277C45.3248 41.3751 44.9457 42.9234 43.6611 44.2456C42.3765 45.5678 40.8724 45.9581 39.8548 46.0989C39.036 46.2122 38.1003 46.2115 37.3879 46.2109H37.3834C37.3296 46.2108 37.2771 46.2108 37.2261 46.2108H33.6438V41.3807ZM8.46836 33.9216V37.622C8.46836 39.3939 8.46836 40.2797 9.00315 40.8303C9.53795 41.3807 10.3987 41.3807 12.1201 41.3807H15.6537V46.2108H12.1201L12.0557 46.2108C12.0252 46.2108 11.9942 46.2108 11.9627 46.2109H11.9582C11.2459 46.2115 10.3103 46.2122 9.49138 46.0989C8.47381 45.9581 6.96963 45.5678 5.68503 44.2456C4.40045 42.9234 4.02134 41.3751 3.88453 40.3277C3.7742 39.483 3.77508 38.5177 3.77574 37.7839L3.77574 37.7834C3.77579 37.7283 3.77584 37.6743 3.77584 37.622V33.9216L8.46836 33.9216Z" fill="black"/>
<path d="M36.5632 18.0095C36.5632 20.9196 34.2459 23.2787 31.3874 23.2787C28.529 23.2787 26.2117 20.9196 26.2117 18.0095C26.2117 15.0993 28.529 12.7402 31.3874 12.7402C34.2459 12.7402 36.5632 15.0993 36.5632 18.0095Z" fill="black"/>
<path d="M31.3874 26.9668C28.529 26.9668 26.2117 29.326 26.2117 32.236V36.9783H36.5632V32.236C36.5632 29.326 34.2459 26.9668 31.3874 26.9668Z" fill="black"/>
<path opacity="0.3" d="M12.7827 32.1269C12.7827 29.3623 14.9841 27.1211 17.6997 27.1211H22.6166V37.1326H17.6997C14.9841 37.1326 12.7827 34.8914 12.7827 32.1269Z" fill="black"/>
<path opacity="0.3" d="M12.7827 12.8936H18.4761C20.7628 12.8936 22.6166 14.7808 22.6166 17.1089V22.9051H12.7827V12.8936Z" fill="black"/>
<path d="M165.229 35.625C166.441 35.625 167.35 35.961 167.956 36.6331C168.563 37.3052 168.866 38.2738 168.866 39.5389V46.2992H164.932V40.0133C164.932 39.5652 164.813 39.2094 164.576 38.9459C164.352 38.6691 164.029 38.5307 163.608 38.5307C163.12 38.5307 162.725 38.6889 162.422 39.0052C162.118 39.3214 161.967 39.7102 161.967 40.1714V46.2992H158.033V35.8622H161.255L161.512 37.4436C161.921 36.8901 162.455 36.4486 163.113 36.1192C163.786 35.7897 164.491 35.625 165.229 35.625Z" fill="black"/>
<path d="M150.64 35.625C152.472 35.625 153.909 36.0928 154.95 37.0284C156.004 37.9509 156.531 39.3017 156.531 41.0807C156.531 42.8598 156.004 44.2171 154.95 45.1528C153.909 46.0752 152.472 46.5365 150.64 46.5365C148.809 46.5365 147.372 46.0752 146.331 45.1528C145.29 44.2303 144.77 42.8729 144.77 41.0807C144.77 39.2885 145.29 37.9311 146.331 37.0087C147.372 36.0862 148.809 35.625 150.64 35.625ZM150.64 38.2935C149.349 38.2935 148.703 39.0381 148.703 40.5272V41.654C148.703 43.1299 149.349 43.8679 150.64 43.8679C151.945 43.8679 152.597 43.1299 152.597 41.654V40.5272C152.597 39.0381 151.945 38.2935 150.64 38.2935Z" fill="black"/>
<path d="M139.195 34.6366V31.968H143.129V34.6366H139.195ZM139.195 46.2992V35.8622H143.129V46.2992H139.195Z" fill="black"/>
<path d="M137.627 35.8622V38.5307H135.413V42.504C135.413 42.9784 135.492 43.3276 135.65 43.5516C135.808 43.7625 136.098 43.8679 136.52 43.8679H137.627V46.1806C137.311 46.2861 136.902 46.3717 136.401 46.4376C135.901 46.5035 135.466 46.5365 135.097 46.5365C133.937 46.5365 133.041 46.3256 132.408 45.9039C131.789 45.4822 131.479 44.764 131.479 43.7493V38.5307H130.017V35.8622H131.637L132.487 32.6994H135.413V35.8622H137.627Z" fill="black"/>
<path d="M123.367 35.625C124.962 35.625 126.26 35.8951 127.261 36.4354C128.263 36.9626 128.763 37.8257 128.763 39.0249V43.097C128.763 43.321 128.816 43.5055 128.922 43.6504C129.027 43.7954 129.185 43.8679 129.396 43.8679H130.108V46.1411C130.068 46.1675 129.963 46.2136 129.791 46.2795C129.633 46.3322 129.403 46.3849 129.1 46.4376C128.796 46.5035 128.447 46.5365 128.052 46.5365C127.288 46.5365 126.655 46.4244 126.154 46.2004C125.667 45.9632 125.331 45.6403 125.146 45.2318C124.645 45.6272 124.085 45.9434 123.466 46.1806C122.847 46.4179 122.122 46.5365 121.291 46.5365C118.84 46.5365 117.615 45.5613 117.615 43.6109C117.615 42.5962 117.885 41.8253 118.425 41.2982C118.979 40.7579 119.769 40.3889 120.797 40.1912C121.825 39.9935 123.169 39.8947 124.83 39.8947V39.3807C124.83 38.9722 124.685 38.6625 124.395 38.4517C124.118 38.2408 123.756 38.1354 123.308 38.1354C122.899 38.1354 122.543 38.2079 122.24 38.3528C121.95 38.4978 121.805 38.7284 121.805 39.0447V39.1238H117.931C117.918 39.0579 117.911 38.9656 117.911 38.847C117.911 37.8587 118.379 37.0746 119.315 36.4947C120.264 35.9149 121.614 35.625 123.367 35.625ZM124.83 41.7528C123.71 41.7528 122.879 41.878 122.339 42.1284C121.812 42.3656 121.548 42.6884 121.548 43.097C121.548 43.7559 121.997 44.0853 122.893 44.0853C123.407 44.0853 123.855 43.947 124.237 43.6702C124.632 43.3935 124.83 43.0508 124.83 42.6423V41.7528Z" fill="black"/>
<path d="M110.815 35.625C112.528 35.625 113.912 35.994 114.966 36.7319C116.034 37.4567 116.567 38.5703 116.567 40.0726H112.752C112.752 38.8866 112.107 38.2935 110.815 38.2935C109.524 38.2935 108.878 39.0381 108.878 40.5272V41.654C108.878 43.1299 109.55 43.8679 110.894 43.8679C112.238 43.8679 112.91 43.2617 112.91 42.0493H116.567C116.567 43.5648 116.034 44.6915 114.966 45.4295C113.912 46.1675 112.528 46.5365 110.815 46.5365C108.983 46.5365 107.547 46.0752 106.506 45.1528C105.465 44.2303 104.944 42.8729 104.944 41.0807C104.944 39.2885 105.465 37.9311 106.506 37.0087C107.547 36.0862 108.983 35.625 110.815 35.625Z" fill="black"/>
<path d="M96.7607 31.7308C97.0243 31.7308 97.3472 31.7704 97.7293 31.8494C98.1115 31.9153 98.4212 31.9944 98.6584 32.0866V34.3994H97.9468C97.5251 34.3994 97.2417 34.4785 97.0968 34.6366C96.9518 34.7948 96.8793 35.0649 96.8793 35.4471V35.8622H98.6584V38.5307H96.8793V46.2992H92.9457V38.5307H91.6015V35.8622H92.9457V35.4273C92.9457 34.0831 93.2751 33.1343 93.934 32.5808C94.5929 32.0142 95.5352 31.7308 96.7607 31.7308ZM99.4886 34.6366V31.968H103.422V34.6366H99.4886ZM99.4886 46.2992V35.8622H103.422V46.2992H99.4886Z" fill="black"/>
<path d="M86.5805 34.6366V31.968H90.5142V34.6366H86.5805ZM86.5805 46.2992V35.8622H90.5142V46.2992H86.5805Z" fill="black"/>
<path d="M84.3995 35.6052C84.7026 35.6052 84.9727 35.6447 85.2099 35.7238C85.4471 35.7897 85.5657 35.8292 85.5657 35.8424V39.1435H84.3006C83.4836 39.1435 82.8906 39.3544 82.5216 39.7761C82.1658 40.1978 81.9879 40.8237 81.9879 41.654V46.2992H78.0542V35.8622H81.2763L81.5332 37.4436C81.7704 36.8374 82.146 36.3827 82.66 36.0796C83.1739 35.7633 83.7537 35.6052 84.3995 35.6052Z" fill="black"/>
<path d="M70.6614 35.625C72.5723 35.625 74.0284 36.073 75.03 36.9691C76.0447 37.8653 76.5521 39.2358 76.5521 41.0807V41.7528H68.7242C68.7242 42.504 68.889 43.0706 69.2184 43.4528C69.5611 43.8349 70.0948 44.026 70.8196 44.026C71.4785 44.026 71.9595 43.8877 72.2626 43.6109C72.5788 43.3342 72.737 42.9652 72.737 42.504H76.5521C76.5521 43.769 76.071 44.7574 75.109 45.469C74.147 46.1806 72.7436 46.5365 70.8986 46.5365C68.9615 46.5365 67.4592 46.0884 66.3917 45.1923C65.3243 44.283 64.7906 42.9125 64.7906 41.0807C64.7906 39.2885 65.3111 37.9311 66.3522 37.0087C67.3933 36.0862 68.8297 35.625 70.6614 35.625ZM70.8196 38.1354C69.5808 38.1354 68.889 38.7218 68.744 39.8947H72.5788C72.5788 39.3544 72.4207 38.9261 72.1044 38.6098C71.8013 38.2935 71.373 38.1354 70.8196 38.1354Z" fill="black"/>
<path d="M55.2521 46.2992L50.429 32.6994H55.094L57.8219 41.7923H57.9009L60.6486 32.6994H65.116L60.3125 46.2992H55.2521Z" fill="black"/>
<path d="M127.073 27.7034C126.532 29.1662 125.867 30.2731 125.076 31.0243C124.299 31.7886 123.205 32.1708 121.795 32.1708C120.938 32.1708 120.181 32.0522 119.522 31.815V29.4627H121.103C122.091 29.4627 122.678 28.9817 122.862 28.0197L118.711 17.5826H122.941L124.938 24.5209H125.076L126.915 17.5826H130.789L127.073 27.7034Z" fill="black"/>
<path d="M118.467 17.5826V20.2512H116.253V24.2244C116.253 24.6988 116.333 25.048 116.491 25.272C116.649 25.4829 116.939 25.5883 117.36 25.5883H118.467V27.9011C118.151 28.0065 117.743 28.0922 117.242 28.158C116.741 28.2239 116.306 28.2569 115.937 28.2569C114.778 28.2569 113.881 28.046 113.249 27.6243C112.63 27.2026 112.32 26.4844 112.32 25.4697V20.2512H110.857V17.5826H112.478L113.328 14.4199H116.253V17.5826H118.467Z" fill="black"/>
<path d="M105.46 16.357V13.6885H109.394V16.357H105.46ZM105.46 28.0197V17.5826H109.394V28.0197H105.46Z" fill="black"/>
<path d="M103.892 17.5826V20.2512H101.678V24.2244C101.678 24.6988 101.757 25.048 101.915 25.272C102.074 25.4829 102.364 25.5883 102.785 25.5883H103.892V27.9011C103.576 28.0065 103.167 28.0922 102.667 28.158C102.166 28.2239 101.731 28.2569 101.362 28.2569C100.202 28.2569 99.3062 28.046 98.6737 27.6243C98.0543 27.2026 97.7446 26.4844 97.7446 25.4697V20.2512H96.2818V17.5826H97.9028L98.7527 14.4199H101.678V17.5826H103.892Z" fill="black"/>
<path d="M91.3402 17.3454C92.5526 17.3454 93.4619 17.6814 94.0681 18.3535C94.6743 19.0256 94.9774 19.9942 94.9774 21.2593V28.0197H91.0437V21.7337C91.0437 21.2857 90.9251 20.9299 90.6879 20.6663C90.4639 20.3895 90.141 20.2512 89.7193 20.2512C89.2317 20.2512 88.8364 20.4093 88.5333 20.7256C88.2302 21.0419 88.0786 21.4306 88.0786 21.8919V28.0197H84.145V17.5826H87.367L87.624 19.164C88.0325 18.6105 88.5662 18.169 89.2251 17.8396C89.8972 17.5101 90.6022 17.3454 91.3402 17.3454Z" fill="black"/>
<path d="M76.7522 17.3454C78.663 17.3454 80.1192 17.7935 81.1207 18.6896C82.1355 19.5857 82.6428 20.9562 82.6428 22.8011V23.4732H74.815C74.815 24.2244 74.9797 24.791 75.3092 25.1732C75.6518 25.5554 76.1855 25.7465 76.9103 25.7465C77.5692 25.7465 78.0502 25.6081 78.3533 25.3313C78.6696 25.0546 78.8277 24.6856 78.8277 24.2244H82.6428C82.6428 25.4895 82.1618 26.4778 81.1998 27.1895C80.2378 27.9011 78.8343 28.2569 76.9894 28.2569C75.0522 28.2569 73.5499 27.8088 72.4825 26.9127C71.4151 26.0034 70.8813 24.6329 70.8813 22.8011C70.8813 21.0089 71.4019 19.6516 72.4429 18.7291C73.484 17.8066 74.9204 17.3454 76.7522 17.3454ZM76.9103 19.8558C75.6716 19.8558 74.9797 20.4423 74.8348 21.6151H78.6696C78.6696 21.0748 78.5115 20.6465 78.1952 20.3302C77.8921 20.014 77.4638 19.8558 76.9103 19.8558Z" fill="black"/>
<path d="M66.1571 28.0197L65.8211 26.5371C65.0568 27.6836 63.9498 28.2569 62.5002 28.2569C61.0902 28.2569 60.003 27.7956 59.2386 26.8732C58.4743 25.9507 58.0921 24.5868 58.0921 22.7814C58.0921 20.9892 58.4743 19.6384 59.2386 18.7291C60.003 17.8066 61.0902 17.3454 62.5002 17.3454C63.6994 17.3454 64.6746 17.7473 65.4258 18.5512V13.6885H69.3594V28.0197H66.1571ZM63.7258 20.2512C62.5925 20.2512 62.0258 20.9299 62.0258 22.2872V23.3349C62.0258 24.679 62.5925 25.3511 63.7258 25.3511C64.3056 25.3511 64.7405 25.1468 65.0304 24.7383C65.3203 24.3298 65.4653 23.7961 65.4653 23.1372V22.4849C65.4653 21.826 65.3203 21.2922 65.0304 20.8837C64.7405 20.462 64.3056 20.2512 63.7258 20.2512Z" fill="black"/>
<path d="M51.7534 28.0197V14.4199H56.1219V28.0197H51.7534Z" fill="black"/>
</svg>
