<svg width="300" height="261" viewBox="0 0 300 261" fill="none" xmlns="http://www.w3.org/2000/svg">
<g clip-path="url(#clip0_3791_57)">
<path d="M60.0126 215.713C58.742 215.713 57.4714 215.957 56.2985 216.397C55.0767 216.837 54.0016 217.472 53.0242 218.303C52.0957 219.134 51.3137 220.16 50.7273 221.333C50.1409 222.506 49.8476 223.874 49.8476 225.438C49.8476 226.953 50.1409 228.37 50.7273 229.543C51.3137 230.716 52.0468 231.742 53.0242 232.573C53.9527 233.404 55.0767 234.039 56.2985 234.479C57.5203 234.919 58.742 235.163 60.0126 235.163C61.2833 235.163 62.5539 234.919 63.7268 234.479C64.9485 234.039 66.0237 233.404 67.0011 232.573C67.9296 231.742 68.7115 230.716 69.298 229.543C69.8844 228.37 70.1776 227.002 70.1776 225.438C70.1776 223.923 69.8844 222.555 69.298 221.333C68.7115 220.16 67.9296 219.134 67.0011 218.303C66.0725 217.472 64.9485 216.837 63.7268 216.397C62.5539 215.957 61.2833 215.713 60.0126 215.713ZM60.0126 240.734C57.7157 240.734 55.5166 240.441 53.464 239.904C51.4115 239.317 49.6033 238.389 48.0394 237.118C46.5245 235.847 45.3027 234.186 44.3742 232.28C43.4945 230.325 43.0547 228.077 43.0547 225.487C43.0547 222.897 43.4945 220.6 44.3742 218.645C45.2538 216.69 46.4756 215.078 48.0394 213.807C49.5544 212.536 51.3626 211.559 53.4152 210.924C55.4677 210.288 57.6669 209.946 59.9638 209.946C62.2607 209.946 64.4598 210.288 66.5124 210.924C68.5649 211.559 70.3731 212.536 71.8881 213.807C73.4031 215.078 74.6737 216.739 75.5534 218.645C76.433 220.6 76.8728 222.897 76.8728 225.487C76.8728 228.077 76.433 230.374 75.5534 232.28C74.6737 234.235 73.4519 235.847 71.8881 237.118C70.3731 238.389 68.5649 239.317 66.4635 239.904C64.5087 240.441 62.3095 240.734 60.0126 240.734Z" fill="#00285A"/>
<path d="M125.548 215.713C124.277 215.713 123.007 215.957 121.834 216.397C120.612 216.837 119.537 217.472 118.559 218.303C117.631 219.134 116.849 220.16 116.263 221.333C115.676 222.506 115.383 223.874 115.383 225.438C115.383 227.002 115.676 228.37 116.263 229.543C116.849 230.716 117.582 231.742 118.559 232.573C119.488 233.404 120.612 234.039 121.834 234.479C123.055 234.919 124.326 235.163 125.548 235.163C126.818 235.163 128.089 234.919 129.262 234.479C130.484 234.039 131.559 233.404 132.536 232.573C133.465 231.742 134.247 230.716 134.833 229.543C135.42 228.37 135.713 227.002 135.713 225.438C135.713 223.874 135.42 222.555 134.833 221.333C134.247 220.16 133.465 219.134 132.536 218.303C131.608 217.472 130.484 216.837 129.262 216.397C128.089 215.957 126.818 215.713 125.548 215.713ZM125.548 240.734C123.251 240.734 121.052 240.441 118.999 239.904C116.947 239.317 115.138 238.389 113.575 237.118C112.06 235.847 110.838 234.186 109.909 232.28C109.03 230.325 108.541 228.077 108.541 225.487C108.541 222.897 108.981 220.6 109.909 218.645C110.789 216.69 112.011 215.078 113.575 213.807C115.09 212.536 116.898 211.559 118.95 210.924C121.003 210.288 123.202 209.946 125.499 209.946C127.796 209.946 129.995 210.288 132.048 210.924C134.1 211.559 135.908 212.536 137.423 213.807C138.938 215.078 140.209 216.739 141.089 218.645C141.968 220.6 142.408 222.897 142.408 225.487C142.408 228.077 141.968 230.374 141.089 232.28C140.209 234.235 138.987 235.847 137.423 237.118C135.908 238.389 134.1 239.317 131.999 239.904C130.093 240.441 127.894 240.734 125.548 240.734Z" fill="#00285A"/>
<path d="M31.5213 244.107L7.33052 216.153V244.107H0V204.864H7.67262L30.9348 231.742V204.864H38.2653V244.107H31.5213Z" fill="#00285A"/>
<path d="M95.9328 240.49H89.5308L76.4336 210.289H83.7153L92.7562 231.303L101.748 210.289H109.03L95.9328 240.49Z" fill="#00285A"/>
<path d="M224.411 240.49V216.055H213.855V210.289H241.76V216.055H231.204V240.49H224.411Z" fill="#00285A"/>
<path d="M253.686 210.289H246.795V240.49H253.686V210.289Z" fill="#00285A"/>
<path d="M204.766 227.393L200.612 217.668L196.458 227.393H204.766ZM210.386 240.49L207.258 233.16H194.063L190.936 240.49H184.143L197.484 210.289H203.837L217.179 240.49H210.386Z" fill="#00285A"/>
<path d="M281.052 244.351C278.169 244.351 275.335 243.96 272.647 243.178C269.959 242.396 267.564 241.125 265.512 239.464C263.459 237.802 261.797 235.701 260.625 233.208C259.403 230.765 258.816 227.784 258.816 224.461C258.816 221.186 259.403 218.254 260.625 215.762C261.797 213.269 263.459 211.119 265.512 209.457C267.564 207.796 269.959 206.476 272.647 205.646C275.335 204.815 278.12 204.375 281.052 204.375C286.966 204.375 292.439 206.33 296.007 207.845C296.398 208.04 298.792 209.067 298.792 209.067L295.078 215.273L294.541 214.931C290.875 212.732 286.721 211.315 282.909 210.875C282.225 210.777 281.639 210.777 281.052 210.777H280.759H280.564C278.804 210.826 277.045 211.119 275.432 211.657C273.673 212.243 272.109 213.123 270.79 214.296C269.47 215.42 268.395 216.886 267.613 218.498C266.831 220.16 266.44 222.066 266.44 224.216C266.44 226.367 266.831 228.273 267.613 229.934C268.395 231.596 269.47 233.013 270.79 234.137C272.109 235.261 273.673 236.141 275.432 236.776C277.192 237.362 279.098 237.656 281.052 237.656C287.357 237.656 292.635 234.772 295.958 232.329L296.544 231.938L299.867 237.656L299.379 237.998C295.225 240.637 288.872 243.911 282.274 244.302C281.834 244.302 281.443 244.351 281.052 244.351Z" fill="#00285A"/>
<path d="M173.685 210.289L163.862 228.224L153.99 210.289H147.344V240.49H153.355V221.724L163.862 240.588L174.369 221.724V240.49H180.38V210.289H173.685Z" fill="#00285A"/>
<path d="M218.918 19.0594C214.275 11.8755 204.99 6.84182 190.427 3.71413C179.235 1.27062 165.21 0 149.767 0C134.372 0 120.298 1.27062 109.155 3.71413C94.641 6.89069 85.3068 11.8755 80.713 19.0594C73.0892 30.8371 74.8974 47.9905 76.9011 67.8807C77.2921 71.5459 77.683 75.3089 77.9762 78.9742C78.6116 86.3047 80.0777 100.77 82.7655 114.698C86.6751 134.979 90.878 142.114 93.7124 145.731C105.783 160.978 139.699 162.151 149.815 162.151C159.932 162.151 193.847 160.978 205.918 145.731C208.753 142.114 213.005 135.028 216.865 114.698C219.553 100.721 221.019 86.3047 221.655 78.9742C221.948 75.3089 222.339 71.5459 222.73 67.8807C224.733 47.9905 226.493 30.7882 218.918 19.0594ZM217.11 67.2942C216.719 70.9595 216.328 74.7714 216.034 78.4855C215.399 85.7183 213.982 99.9395 211.343 113.672C207.678 132.78 203.964 139.133 201.471 142.261C190.72 155.896 156.511 156.58 149.767 156.58C143.022 156.58 108.813 155.896 98.0619 142.261C95.5695 139.133 91.8554 132.731 88.1901 113.672C85.5511 99.9395 84.1339 85.7672 83.4986 78.4855C83.1565 74.7714 82.8144 70.9595 82.4234 67.2942C80.4686 48.4303 78.807 32.1566 85.3556 22.0404C89.1675 16.176 97.3288 11.9243 110.328 9.13872C121.129 6.79295 134.763 5.5712 149.767 5.5712C164.77 5.5712 178.404 6.79295 189.205 9.13872C202.204 11.9732 210.366 16.176 214.177 22.0404C220.726 32.2054 219.064 48.4792 217.11 67.2942ZM149.815 13.5859C178.795 13.5859 202.302 18.3752 207.531 26.4388C213.64 35.9196 209.926 57.0804 208.118 77.8502C206.309 98.62 201.96 128.822 195.265 137.374C189.4 144.802 168.435 148.614 149.815 148.614C131.245 148.614 110.231 144.753 104.366 137.374C97.6221 128.871 93.2726 98.62 91.5133 77.8502C89.754 57.0804 85.991 35.9196 92.0997 26.4388C97.3288 18.3752 120.835 13.5859 149.815 13.5859ZM107.054 42.4193C106.272 42.8591 105.93 44.2764 105.93 44.2764L105.099 47.9416C105.099 47.9416 104.806 48.8702 105.344 49.9942C105.93 51.1182 109.595 51.8024 109.595 51.8024C109.595 51.8024 115.997 52.7798 118.587 55.9563C121.177 59.1329 120.151 63.4824 120.151 63.4824L113.163 97.7403C113.163 97.7403 112.479 101.064 110.719 102.676C109.009 104.24 106.174 104.338 106.174 104.338C106.174 104.338 104.513 104.387 103.438 104.827C102.509 105.217 102.216 106.732 102.216 106.732L101.776 108.98C101.776 108.98 101.532 109.909 102.069 110.74C102.607 111.571 104.122 111.766 104.122 111.766L139.455 112.01C139.455 112.01 140.53 111.962 141.117 111.375C141.703 110.789 141.85 109.567 141.85 109.567L142.436 106.341C142.436 106.341 142.68 105.364 142.192 104.778C141.605 104.093 141.117 104.142 139.504 103.751C137.842 103.36 136.865 102.872 135.252 101.552C133.248 99.8906 133.933 96.7141 133.933 96.7141L137.011 79.5606C137.011 79.5606 137.402 78.29 138.233 78.3389C139.455 78.3878 139.846 79.5118 139.846 79.5118L156.706 109.665C156.706 109.665 157.293 110.691 158.172 111.375C159.052 112.059 161.056 112.108 161.056 112.108L189.498 111.864C189.498 111.864 190.915 111.913 191.697 111.277C192.626 110.495 192.87 109.274 192.87 109.274L193.408 106.781C193.408 106.781 193.799 105.608 193.261 104.484C192.626 103.165 190.182 102.872 187.397 102.041C185.344 101.406 182.656 99.9395 181.728 98.5711C181.092 97.5937 181.728 95.5901 181.728 95.5901L191.208 56.5917C191.208 56.5917 191.502 54.9789 193.114 53.3174C194.58 51.8024 198.588 50.9716 198.588 50.9716C198.588 50.9716 199.614 50.7761 200.249 50.1897C200.689 49.7498 200.885 48.8213 200.885 48.8213L201.96 44.6185C201.96 44.6185 202.253 43.5433 201.618 42.8103C201.08 42.175 199.565 42.175 199.565 42.175H167.067C167.067 42.175 165.991 42.1261 164.965 42.9569C164.037 43.7388 163.89 44.5207 163.89 44.5207L163.108 48.0394C163.108 48.0394 162.864 48.919 163.157 49.6032C163.548 50.4829 164.428 50.5318 164.428 50.5318L165.796 50.7761C165.796 50.7761 168.337 51.2648 169.657 52.5843C170.976 53.9038 170.341 57.3247 170.341 57.3247L165.6 80.0493L148.398 47.2575C148.398 47.2575 147.909 45.7425 146.004 43.8854C144.146 42.0284 141.263 42.175 141.263 42.175H109.155C109.204 41.9306 107.836 41.9795 107.054 42.4193Z" fill="#00285A"/>
<rect y="255" width="300" height="5" fill="#00285A"/>
</g>
<defs>
<clipPath id="clip0_3791_57">
<rect width="300" height="260.248" fill="white"/>
</clipPath>
</defs>
</svg>
