<svg width="300" height="69" viewBox="0 0 300 69" fill="none" xmlns="http://www.w3.org/2000/svg">
<path fill-rule="evenodd" clip-rule="evenodd" d="M15.0945 6.55984C20.6797 2.82787 27.2463 0.835938 33.9636 0.835938C38.4238 0.835938 42.8403 1.71443 46.9609 3.42126C51.0816 5.1281 54.8257 7.62984 57.9795 10.7837C61.1334 13.9375 63.6351 17.6816 65.3419 21.8022C67.0488 25.9229 67.9273 30.3394 67.9273 34.7996C67.9273 41.5169 65.9353 48.0834 62.2034 53.6687C58.4714 59.254 53.167 63.6072 46.9609 66.1779C40.7549 68.7485 33.926 69.4211 27.3377 68.1106C20.7494 66.8001 14.6976 63.5654 9.94773 58.8155C5.19783 54.0656 1.96311 48.0138 0.652617 41.4255C-0.657877 34.8372 0.0147159 28.0083 2.58534 21.8022C5.15597 15.5962 9.50917 10.2918 15.0945 6.55984ZM30.9813 47.8378L34.5141 35.9169L39.9611 34.3313L41.1195 30.4124L35.7218 32.0555L41.4728 12.4776C41.5135 12.3331 41.5201 12.1812 41.4921 12.0338C41.4641 11.8864 41.4023 11.7475 41.3115 11.628C41.2207 11.5086 41.1034 11.4118 40.9689 11.3454C40.8343 11.279 40.6862 11.2447 40.5362 11.2452H33.2242C32.9427 11.2457 32.669 11.3383 32.445 11.5089C32.221 11.6795 32.059 11.9187 31.9837 12.19L25.1318 35.3418L19.7259 36.9849L18.5346 40.8381L23.9323 39.1949L19.0522 55.6756H47.9139C48.1954 55.676 48.4695 55.5849 48.6948 55.416C48.92 55.2471 49.0842 55.0094 49.1626 54.739L50.8058 49.0784C50.8478 48.9341 50.8557 48.7821 50.8289 48.6342C50.8021 48.4864 50.7412 48.3468 50.6512 48.2264C50.5612 48.1061 50.4444 48.0084 50.3101 47.941C50.1758 47.8735 50.0277 47.8382 49.8774 47.8378H30.9813Z" fill="#A5A8A9"/>
<path d="M124.038 57.414H118.247V25.0362H124.038V57.414Z" fill="#A5A8A9"/>
<path d="M121.111 19.1834C120.074 19.1834 119.181 18.8513 118.434 18.1871C117.728 17.4815 117.376 16.5475 117.376 15.3852C117.376 14.223 117.728 13.3097 118.434 12.6456C119.181 11.9399 120.074 11.587 121.111 11.587C122.149 11.587 123.021 11.9399 123.727 12.6456C124.474 13.3097 124.848 14.223 124.848 15.3852C124.848 16.5475 124.474 17.4815 123.727 18.1871C123.021 18.8513 122.149 19.1834 121.111 19.1834Z" fill="#A5A8A9"/>
<path d="M112.298 52.1838V57.4141H86.3333V14.2645H92.3729V52.1838H112.298Z" fill="#A5A8A9"/>
<path d="M151.679 25.0362H139.413V15.0117L133.622 16.0079V44.8988C133.622 47.0573 133.789 48.9667 134.121 50.6271C134.494 52.246 135.117 53.6158 135.989 54.7365C136.86 55.8575 138.002 56.7083 139.413 57.2894C140.866 57.8289 142.692 58.0991 144.892 58.0991C146.76 58.0991 148.421 57.8704 149.874 57.414C151.326 56.9991 152.343 56.6463 152.924 56.3555L151.804 51.5611C151.389 51.7272 150.641 52.0177 149.562 52.4328C148.524 52.8064 147.134 52.9932 145.39 52.9932C144.394 52.9932 143.523 52.8687 142.775 52.6196C142.028 52.3706 141.406 51.9554 140.908 51.3743C140.409 50.7517 140.036 49.9215 139.787 48.8837C139.537 47.8044 139.413 46.4554 139.413 44.8365V29.893H151.679V25.0362Z" fill="#A5A8A9"/>
<path fill-rule="evenodd" clip-rule="evenodd" d="M156.634 41.2873C156.634 38.4231 157.049 35.9325 157.88 33.8155C158.709 31.657 159.809 29.8721 161.179 28.4608C162.55 27.0494 164.127 25.9909 165.912 25.2853C167.696 24.5796 169.523 24.2268 171.391 24.2268C175.749 24.2268 179.091 25.5966 181.416 28.3362C183.74 31.0344 184.903 35.1646 184.903 40.7269V41.7232C184.903 42.0968 184.882 42.4496 184.84 42.7817H162.674C162.923 46.144 163.898 48.6968 165.6 50.4403C167.302 52.1837 169.959 53.0554 173.57 53.0554C175.604 53.0554 177.306 52.8893 178.676 52.5573C180.087 52.1837 181.146 51.8308 181.852 51.4988L182.661 56.3554C181.955 56.7288 180.71 57.1231 178.925 57.5385C177.182 57.9534 175.189 58.1611 172.947 58.1611C170.125 58.1611 167.676 57.7462 165.6 56.9159C163.567 56.0441 161.885 54.861 160.557 53.3667C159.228 51.8723 158.233 50.1082 157.568 48.0742C156.945 45.9987 156.634 43.7364 156.634 41.2873ZM178.863 38.1118C178.904 35.4967 178.24 33.3589 176.87 31.6985C175.542 29.9966 173.695 29.1457 171.329 29.1457C170.001 29.1457 168.817 29.4155 167.779 29.9551C166.784 30.4532 165.932 31.1174 165.227 31.9476C164.521 32.7778 163.961 33.7325 163.546 34.8118C163.172 35.891 162.923 36.991 162.798 38.1118H178.863Z" fill="#A5A8A9"/>
<path d="M200.381 56.9159C202.373 57.7462 204.677 58.1611 207.293 58.1611C208.123 58.1611 208.974 58.0991 209.845 57.9744C210.758 57.8914 211.61 57.7667 212.398 57.6006C213.187 57.476 213.892 57.3308 214.515 57.1647C215.138 56.9575 215.615 56.7498 215.947 56.5421L215.138 51.6855C214.432 52.0176 213.457 52.3289 212.211 52.6195C210.966 52.9101 209.575 53.0554 208.04 53.0554C206.13 53.0554 204.511 52.7856 203.183 52.2459C201.854 51.6648 200.754 50.8554 199.883 49.8176C199.053 48.7799 198.43 47.5346 198.015 46.0817C197.642 44.6289 197.454 43.0307 197.454 41.2873C197.454 37.3854 198.306 34.4174 200.007 32.3835C201.751 30.3494 204.241 29.3324 207.479 29.3324C208.766 29.3324 209.97 29.457 211.091 29.706C212.253 29.9551 213.27 30.2872 214.141 30.7023L215.449 25.7834C214.121 25.2438 212.73 24.8494 211.277 24.6004C209.824 24.3513 208.372 24.2268 206.919 24.2268C204.553 24.2268 202.394 24.6626 200.443 25.5343C198.534 26.3645 196.915 27.5475 195.587 29.0834C194.258 30.5778 193.22 32.3627 192.473 34.4382C191.768 36.5137 191.415 38.7967 191.415 41.2873C191.415 43.7779 191.747 46.061 192.411 48.1365C193.075 50.1704 194.072 51.9346 195.4 53.429C196.77 54.9231 198.43 56.0857 200.381 56.9159Z" fill="#A5A8A9"/>
<path fill-rule="evenodd" clip-rule="evenodd" d="M249.953 41.225C249.953 43.7987 249.58 46.1232 248.832 48.1987C248.085 50.2742 247.027 52.0591 245.657 53.5535C244.329 55.0477 242.731 56.2103 240.862 57.0406C238.995 57.8288 236.961 58.2232 234.761 58.2232C232.561 58.2232 230.527 57.8288 228.658 57.0406C226.791 56.2103 225.172 55.0477 223.802 53.5535C222.474 52.0591 221.436 50.2742 220.688 48.1987C219.941 46.1232 219.568 43.7987 219.568 41.225C219.568 38.693 219.941 36.3892 220.688 34.3137C221.436 32.1966 222.474 30.391 223.802 28.8966C225.172 27.4022 226.791 26.2607 228.658 25.472C230.527 24.6418 232.561 24.2268 234.761 24.2268C236.961 24.2268 238.995 24.6418 240.862 25.472C242.731 26.2607 244.329 27.4022 245.657 28.8966C247.027 30.391 248.085 32.1966 248.832 34.3137C249.58 36.3892 249.953 38.693 249.953 41.225ZM243.913 41.225C243.913 37.5722 243.083 34.6873 241.423 32.5702C239.804 30.4117 237.583 29.3324 234.761 29.3324C231.938 29.3324 229.696 30.4117 228.036 32.5702C226.417 34.6873 225.608 37.5722 225.608 41.225C225.608 44.8779 226.417 47.7836 228.036 49.9421C229.696 52.0591 231.938 53.1176 234.761 53.1176C237.583 53.1176 239.804 52.0591 241.423 49.9421C243.083 47.7836 243.913 44.8779 243.913 41.225Z" fill="#A5A8A9"/>
<path d="M258.1 57.414H263.891V25.0362H258.1V57.414Z" fill="#A5A8A9"/>
<path d="M258.287 18.1871C259.034 18.8513 259.926 19.1834 260.964 19.1834C262.002 19.1834 262.874 18.8513 263.579 18.1871C264.327 17.4815 264.7 16.5475 264.7 15.3852C264.7 14.223 264.327 13.3097 263.579 12.6456C262.874 11.9399 262.002 11.587 260.964 11.587C259.926 11.587 259.034 11.9399 258.287 12.6456C257.581 13.3097 257.228 14.223 257.228 15.3852C257.228 16.5475 257.581 17.4815 258.287 18.1871Z" fill="#A5A8A9"/>
<path d="M273.849 25.9702C275.177 25.6381 276.941 25.2853 279.141 24.9117C281.341 24.5381 283.874 24.3513 286.738 24.3513C289.311 24.3513 291.449 24.7249 293.151 25.4721C294.853 26.1778 296.202 27.1947 297.198 28.5231C298.236 29.8099 298.962 31.3665 299.378 33.1929C299.792 35.0194 300 37.0326 300 39.2326V57.414H294.209V40.4779C294.209 38.4855 294.064 36.7835 293.773 35.3722C293.525 33.9609 293.089 32.8194 292.466 31.9476C291.843 31.0759 291.013 30.4533 289.975 30.0797C288.938 29.6646 287.651 29.4571 286.115 29.4571C285.492 29.4571 284.849 29.4778 284.185 29.5193C283.521 29.5608 282.877 29.6231 282.254 29.7061C281.673 29.7476 281.134 29.8099 280.635 29.8929C280.179 29.9759 279.847 30.0382 279.64 30.0797V57.414H273.849V25.9702Z" fill="#A5A8A9"/>
</svg>
