<svg width="300" height="73" viewBox="0 0 300 73" fill="none" xmlns="http://www.w3.org/2000/svg">
<path d="M0.0830078 37.2813L21.7725 50.0465V1.25781L0.0830078 37.2813Z" fill="#D0D0D0"/>
<path d="M21.7725 1.25781V50.0465L43.4619 37.2193L21.7725 1.25781Z" fill="#717171"/>
<path d="M85.6429 43.416C85.6429 43.668 85.5431 43.9097 85.3649 44.0878C85.1867 44.266 84.9451 44.3662 84.693 44.3662H66.3496C66.4689 46.6283 67.4213 48.7663 69.0231 50.3681C70.6255 51.97 72.7634 52.9224 75.0256 53.0417C76.5091 53.1041 77.9832 52.7806 79.3045 52.1037C80.6258 51.4269 81.7494 50.4192 82.5651 49.1789C82.6819 48.9836 82.8665 48.8378 83.0832 48.7693C83.3003 48.7008 83.5349 48.7142 83.7426 48.8071C83.8764 48.8662 83.9937 48.9575 84.084 49.0728C84.1739 49.1881 84.2343 49.3239 84.2592 49.4681C84.2967 49.6895 84.2522 49.917 84.1349 50.1084C83.1666 51.637 81.8133 52.8844 80.211 53.7255C78.6086 54.5666 76.8131 54.9715 75.0052 54.9006C72.0935 54.7718 69.3501 53.4999 67.3704 51.3615C65.3902 49.2233 64.3334 46.3906 64.4288 43.478C64.3334 40.5654 65.3902 37.7326 67.3704 35.5943C69.3501 33.4559 72.0935 32.1843 75.0052 32.0554C77.9253 32.1685 80.6832 33.4296 82.6794 35.5646C84.675 37.6995 85.7478 40.536 85.6639 43.4573L85.6429 43.416ZM83.5983 42.5691C83.4925 40.3023 82.5446 38.1565 80.9398 36.5519C79.3349 34.9472 77.189 33.9993 74.9223 33.8937C72.6601 34.013 70.5221 34.9653 68.9203 36.5672C67.318 38.169 66.3661 40.3069 66.2468 42.5691H83.5983ZM107.849 32.5098C108.089 32.5151 108.317 32.6125 108.486 32.7818C108.655 32.9512 108.752 33.1793 108.758 33.4186C108.761 33.5388 108.739 33.6582 108.695 33.7698C108.65 33.8813 108.583 33.9826 108.498 34.0676C108.413 34.1526 108.312 34.2194 108.2 34.2641C108.089 34.3087 107.969 34.3303 107.849 34.3275H103.015V53.6407C103.015 53.8843 102.919 54.1184 102.746 54.2906C102.574 54.4628 102.34 54.5596 102.096 54.5596C101.852 54.5596 101.618 54.4628 101.446 54.2906C101.274 54.1184 101.177 53.8843 101.177 53.6407V34.3068H96.4464C96.3266 34.3097 96.2068 34.2881 96.0955 34.2434C95.9837 34.1987 95.8824 34.1319 95.7975 34.0469C95.7126 33.962 95.6458 33.8606 95.6013 33.7491C95.5564 33.6376 95.5349 33.5181 95.5374 33.398C95.5479 33.1602 95.6468 32.9349 95.815 32.7666C95.9832 32.5983 96.2088 32.4993 96.4464 32.4891H101.177V25.4042C101.173 25.1868 101.244 24.9747 101.38 24.8048C101.516 24.635 101.708 24.5182 101.921 24.4747C102.055 24.4467 102.193 24.4493 102.326 24.4823C102.458 24.5152 102.582 24.5777 102.687 24.6651C102.792 24.7524 102.877 24.8624 102.934 24.9868C102.991 25.1112 103.018 25.2468 103.015 25.3836V32.4685H107.932L107.849 32.5098ZM137.946 41.7842V53.4755C137.94 53.7146 137.843 53.9427 137.674 54.1124C137.504 54.2816 137.276 54.3789 137.037 54.3839C136.917 54.3869 136.797 54.3655 136.686 54.3205C136.574 54.2761 136.473 54.2092 136.388 54.1244C136.303 54.0395 136.236 53.9382 136.191 53.8264C136.147 53.715 136.125 53.5952 136.128 53.4755V41.7842C136.128 37.839 133.897 33.8937 129.497 33.8937C123.858 33.8937 121.42 38.8305 121.751 43.8704C121.751 43.9944 121.751 44.5934 121.751 44.6553V53.434C121.755 53.6517 121.683 53.8638 121.548 54.0335C121.412 54.2032 121.221 54.32 121.007 54.3635C120.873 54.3914 120.735 54.3889 120.602 54.356C120.469 54.323 120.346 54.2606 120.241 54.1733C120.135 54.0859 120.051 53.9756 119.994 53.8513C119.938 53.727 119.91 53.5913 119.912 53.4545V15.0764C119.912 14.8326 120.009 14.5988 120.182 14.4264C120.354 14.2541 120.588 14.1572 120.832 14.1572C121.075 14.1572 121.309 14.2541 121.482 14.4264C121.654 14.5988 121.751 14.8326 121.751 15.0764V36.8062C122.489 35.4004 123.592 34.2193 124.944 33.387C126.296 32.5547 127.848 32.1018 129.435 32.076C134.826 32.076 137.904 36.8062 137.904 41.8048L137.946 41.7842ZM170.81 43.416C170.81 43.668 170.71 43.9097 170.532 44.0878C170.354 44.266 170.112 44.3662 169.86 44.3662H151.538C151.657 46.6283 152.609 48.7663 154.211 50.3681C155.813 51.97 157.951 52.9224 160.214 53.0417C161.697 53.1041 163.171 52.7806 164.493 52.1037C165.814 51.4269 166.937 50.4192 167.753 49.1789C167.87 48.9836 168.055 48.8378 168.271 48.7693C168.488 48.7008 168.723 48.7142 168.931 48.8071C169.064 48.8662 169.182 48.9575 169.272 49.0728C169.362 49.1881 169.422 49.3239 169.447 49.4681C169.485 49.6895 169.441 49.917 169.323 50.1084C168.35 51.6365 166.993 52.8814 165.387 53.719C163.78 54.5566 161.982 54.957 160.172 54.8801C157.261 54.7508 154.518 53.4794 152.538 51.341C150.558 49.2027 149.501 46.3699 149.596 43.4573C149.505 42.0074 149.713 40.5542 150.206 39.1876C150.698 37.8208 151.466 36.5695 152.461 35.5108C153.455 34.452 154.656 33.6082 155.99 33.0314C157.323 32.4546 158.761 32.157 160.214 32.157C161.666 32.157 163.104 32.4546 164.437 33.0314C165.771 33.6082 166.972 34.452 167.967 35.5108C168.962 36.5695 169.729 37.8208 170.221 39.1876C170.714 40.5542 170.922 42.0074 170.831 43.4573L170.81 43.416ZM168.765 42.5691C168.765 40.2683 167.851 38.0616 166.225 36.4347C164.597 34.8078 162.391 33.8937 160.09 33.8937C157.789 33.8937 155.582 34.8078 153.955 36.4347C152.328 38.0616 151.414 40.2683 151.414 42.5691H168.765ZM193.264 33.3773C193.276 33.4984 193.263 33.6205 193.226 33.7364C193.189 33.8523 193.129 33.9596 193.05 34.0521C192.972 34.1446 192.875 34.2202 192.766 34.2746C192.657 34.329 192.539 34.3611 192.417 34.3688C187.026 35.1537 184.609 39.5534 184.609 44.6966V53.4755C184.613 53.6926 184.542 53.9047 184.406 54.075C184.27 54.2447 184.079 54.3615 183.866 54.4049C183.731 54.4329 183.593 54.4304 183.46 54.3974C183.328 54.3645 183.204 54.3021 183.099 54.2147C182.994 54.1274 182.909 54.017 182.852 53.8928C182.796 53.7685 182.768 53.6327 182.771 53.4959V33.5219C182.767 33.3045 182.838 33.0924 182.974 32.9225C183.11 32.7527 183.301 32.6359 183.514 32.5924C183.648 32.5644 183.787 32.567 183.92 32.5999C184.052 32.6329 184.176 32.6954 184.281 32.7827C184.386 32.8701 184.47 32.9801 184.527 33.1045C184.584 33.2289 184.612 33.3645 184.609 33.5013V37.6324C185.377 36.1947 186.491 34.9714 187.851 34.0733C189.21 33.1751 190.773 32.6306 192.396 32.4891C192.64 32.472 192.88 32.5511 193.066 32.7096C193.252 32.868 193.367 33.093 193.388 33.336L193.264 33.3773ZM223.547 43.4366C223.547 43.6887 223.447 43.9303 223.269 44.1085C223.09 44.2867 222.849 44.3868 222.597 44.3868H204.233C204.352 46.649 205.304 48.787 206.906 50.3887C208.508 51.9904 210.647 52.9428 212.909 53.0621C214.392 53.1245 215.866 52.8016 217.188 52.1247C218.509 51.4478 219.633 50.4399 220.448 49.1996C220.565 49.0042 220.749 48.8585 220.966 48.79C221.184 48.7214 221.418 48.7349 221.626 48.8278C221.76 48.8869 221.877 48.9781 221.967 49.0935C222.057 49.2088 222.117 49.3446 222.142 49.4887C222.18 49.7102 222.135 49.9376 222.018 50.1291C221.05 51.6575 219.697 52.9049 218.094 53.746C216.492 54.5871 214.696 54.9924 212.888 54.921C209.977 54.7923 207.233 53.5209 205.254 51.3824C203.273 49.244 202.217 46.4112 202.312 43.4986C202.222 42.0487 202.429 40.5956 202.921 39.2288C203.414 37.8622 204.181 36.6109 205.176 35.5521C206.171 34.4933 207.372 33.6495 208.706 33.0727C210.039 32.4959 211.477 32.1984 212.929 32.1984C214.382 32.1984 215.819 32.4959 217.153 33.0727C218.487 33.6495 219.688 34.4933 220.682 35.5521C221.677 36.6109 222.444 37.8622 222.937 39.2288C223.43 40.5956 223.637 42.0487 223.547 43.4986V43.4366ZM221.481 42.6104C221.481 40.3096 220.567 38.103 218.94 36.476C217.313 34.849 215.107 33.935 212.805 33.935C210.504 33.935 208.298 34.849 206.671 36.476C205.044 38.103 204.129 40.3096 204.129 42.6104H221.481ZM253.127 33.5219V53.5788C253.122 53.8179 253.024 54.046 252.855 54.2152C252.686 54.3849 252.458 54.4823 252.218 54.4873C252.098 54.4903 251.979 54.4688 251.867 54.4239C251.756 54.3794 251.654 54.3126 251.569 54.2277C251.485 54.1423 251.418 54.041 251.373 53.9297C251.328 53.8184 251.307 53.6986 251.309 53.5788V49.7986C250.663 51.2976 249.602 52.5814 248.252 53.4994C246.903 54.4179 245.319 54.9325 243.687 54.9829C238.234 54.9829 235.218 50.253 235.218 45.2543V33.5219C235.218 33.2782 235.315 33.0443 235.487 32.872C235.659 32.6996 235.894 32.6027 236.137 32.6027C236.381 32.6027 236.615 32.6996 236.787 32.872C236.96 33.0443 237.057 33.2782 237.057 33.5219V45.275C237.057 49.2202 239.287 53.1655 243.687 53.1655C249.884 53.1655 251.309 47.3819 251.309 40.9993V33.5219C251.311 33.3793 251.345 33.239 251.409 33.1116C251.473 32.9843 251.565 32.8734 251.679 32.7875C251.793 32.7017 251.925 32.6431 252.065 32.6165C252.205 32.5898 252.35 32.5957 252.487 32.6337C252.669 32.7025 252.827 32.8235 252.941 32.9814C253.055 33.1394 253.119 33.3274 253.127 33.5219ZM299.563 41.7842V53.5373C299.558 53.7765 299.461 54.0046 299.291 54.1743C299.122 54.3435 298.894 54.4408 298.654 54.4463C298.534 54.4488 298.415 54.4274 298.303 54.3829C298.192 54.338 298.09 54.2711 298.005 54.1863C297.921 54.1014 297.854 54.0001 297.809 53.8883C297.764 53.7769 297.743 53.6576 297.745 53.5373V41.7842C297.745 37.839 295.515 33.9763 291.115 33.9763C285.6 33.9763 283.493 39.8839 283.493 44.4901V53.5578C283.487 53.7974 283.39 54.0255 283.221 54.1948C283.051 54.364 282.823 54.4613 282.584 54.4668C282.463 54.4698 282.344 54.4478 282.232 54.4034C282.121 54.3585 282.02 54.2921 281.935 54.2067C281.85 54.1219 281.783 54.0205 281.738 53.9092C281.694 53.7974 281.672 53.6781 281.675 53.5578V41.7842C281.675 37.839 279.444 33.9763 275.044 33.9763C269.467 33.9763 267.153 38.376 267.36 44.3042C267.36 44.4281 267.36 44.6966 267.36 44.7586V53.5992C267.364 53.8169 267.292 54.029 267.156 54.1987C267.02 54.3685 266.829 54.4853 266.616 54.5287C266.482 54.5566 266.344 54.5542 266.211 54.5212C266.078 54.4883 265.954 54.4259 265.85 54.3385C265.744 54.2512 265.66 54.1413 265.603 54.0165C265.547 53.8923 265.518 53.7565 265.521 53.6197V33.5219C265.517 33.3045 265.589 33.0924 265.725 32.9225C265.861 32.7527 266.052 32.6359 266.265 32.5924C266.399 32.5644 266.537 32.567 266.67 32.5999C266.803 32.6329 266.926 32.6954 267.032 32.7827C267.137 32.8701 267.221 32.9801 267.278 33.1045C267.335 33.2289 267.363 33.3645 267.36 33.5013V36.8475C268.102 35.4504 269.208 34.2795 270.561 33.458C271.913 32.6364 273.462 32.1947 275.044 32.1793C276.797 32.1991 278.499 32.7761 279.903 33.827C281.306 34.8779 282.34 36.3481 282.852 38.0248C283.495 36.3412 284.623 34.8864 286.094 33.8456C287.566 32.8047 289.313 32.2247 291.115 32.1793C296.506 32.1793 299.584 36.8268 299.584 41.8255" fill="#3C3C3B"/>
<path d="M21.7725 27.3252L0.0830078 37.2812L21.7725 50.0464L43.462 37.2193L21.7725 27.3252Z" fill="#595959"/>
<path d="M0.0830078 41.3926L21.7725 71.9838V54.1785L0.0830078 41.3926Z" fill="#D0D0D0"/>
<path d="M21.7725 54.1777V71.9416L43.4826 41.3711L21.7725 54.1777Z" fill="#717171"/>
<path fill-rule="evenodd" clip-rule="evenodd" d="M21.7725 27.3252L0.0830078 37.2813L21.7725 50.0463V27.3252Z" fill="#A3A3A3"/>
</svg>
