<svg width="300" height="52" viewBox="0 0 300 52" fill="none" xmlns="http://www.w3.org/2000/svg">
<path d="M191.196 34.4585C191.996 37.778 194.859 39.66 198.693 39.66C205.009 39.66 208.125 35.5102 208.127 29.8805V13.0793H201.976V30.2565C201.976 32.9818 201.011 34.7938 198.145 34.7938C195.409 34.7938 194.273 32.9818 194.273 30.2565V13.0793H188.165V30.2565C188.122 32.9818 187.027 34.7938 184.291 34.7938C181.425 34.7938 180.458 32.9818 180.458 30.2565V13.0793H174.308V29.8788C174.308 35.5085 177.428 39.66 183.741 39.66C187.574 39.66 190.437 37.778 191.196 34.4585Z" fill="black"/>
<path fill-rule="evenodd" clip-rule="evenodd" d="M226.667 37.3953V39.2432H232.815V25.7209C232.815 20.3891 228.097 17.195 222.707 17.195C217.864 17.195 215.002 18.6227 213.95 19.1632L215.422 23.1128C216.938 22.359 218.832 21.8967 221.359 21.8967C223.889 21.8967 226.667 22.2304 226.667 25.5093V26.2239H220.9C216.434 26.2239 212.688 27.9057 212.688 32.6904C212.688 37.1902 216.6 39.66 220.644 39.66C222.836 39.66 225.192 38.9941 226.667 37.3953ZM222.456 29.7502H226.667V32.145C226.667 33.1544 224.983 34.9647 221.907 34.9647C220.265 34.9647 218.832 34.0368 218.832 32.3143C218.832 30.5903 220.138 29.7502 222.456 29.7502Z" fill="black"/>
<path d="M238.244 8.30273V39.2351H244.284V8.30273H238.244Z" fill="black"/>
<path d="M249.834 8.30273V39.2351H255.874V8.30273H249.834Z" fill="black"/>
<path fill-rule="evenodd" clip-rule="evenodd" d="M266.348 30.7205V30.3428L281.257 30.2809L281.298 26.5642C281.298 20.9329 276.875 17.1982 270.727 17.1982C264.622 17.1982 260.201 20.8905 260.201 26.5642V30.2924C260.201 35.9269 264.622 39.6616 270.727 39.6616C275.573 39.6616 279.151 37.944 280.206 37.397L278.479 33.239C276.621 34.1166 273.97 34.9664 271.445 34.9664C268.834 34.9664 266.348 33.9554 266.348 30.7205ZM266.348 26.3916C266.348 22.7367 268.622 21.8544 270.727 21.8544C272.876 21.8544 275.15 22.7367 275.152 26.3916H266.348Z" fill="black"/>
<path d="M287.822 31.3489C287.822 36.0507 292.246 39.2448 297.549 39.2448H299.995V34.3738H297.508C295.442 34.3738 293.93 33.239 293.93 31.6827V22.4877H299.995V17.6199H293.93V11.0199H287.822V17.6606H283.991V22.4877H287.822V31.3489Z" fill="black"/>
<path fill-rule="evenodd" clip-rule="evenodd" d="M81.4406 30.7213V30.3436H96.3898V26.5649C96.3898 20.9336 91.9663 17.199 85.8187 17.199C79.712 17.199 75.293 20.8913 75.293 26.5649V30.2931C75.293 35.9276 79.7137 39.6623 85.8187 39.6623C90.6621 39.6623 94.2418 37.9447 95.2961 37.3977L93.5692 33.2398C91.7132 34.1173 89.062 34.9671 86.5323 34.9671C83.925 34.9671 81.4406 33.9561 81.4406 30.7213ZM81.4406 26.3923C81.4406 22.7375 83.7128 21.8551 85.8187 21.8551C87.9667 21.8551 90.2427 22.7375 90.2427 26.3923H81.4406Z" fill="black"/>
<path d="M99.7234 35.4246V39.2455H120.781V34.3745H107.64L120.19 16.9043V13.0801H100.691V17.9495H112.149L99.7234 35.4246Z" fill="black"/>
<path fill-rule="evenodd" clip-rule="evenodd" d="M130.477 30.7213V30.3436H145.426V26.5649C145.426 20.9336 141.004 17.199 134.855 17.199C128.747 17.199 124.328 20.8913 124.328 26.5649V30.2931C124.328 35.9276 128.747 39.6623 134.855 39.6623C139.7 39.6623 143.276 37.9447 144.331 37.3977L142.605 33.2398C140.751 34.1173 138.097 34.9671 135.571 34.9671C132.96 34.9671 130.477 33.9561 130.477 30.7213ZM130.477 26.3923C130.477 22.7375 132.749 21.8551 134.855 21.8551C137.003 21.8551 139.277 22.7375 139.277 26.3923H130.477Z" fill="black"/>
<path fill-rule="evenodd" clip-rule="evenodd" d="M154.719 30.7213V30.3436H169.67V26.5649C169.67 20.9336 165.247 17.199 159.099 17.199C152.991 17.199 148.57 20.8913 148.57 26.5649V30.2931C148.57 35.9276 152.991 39.6623 159.099 39.6623C163.942 39.6623 167.52 37.9447 168.575 37.3977L166.848 33.2398C164.993 34.1173 162.339 34.9671 159.814 34.9671C157.204 34.9671 154.719 33.9561 154.719 30.7213ZM154.719 26.3923C154.719 22.7375 156.993 21.8551 159.099 21.8551C161.245 21.8551 163.521 22.7375 163.521 26.3923H154.719Z" fill="black"/>
<path d="M49.1342 29.2685V35.9433H23.0163C21.2077 35.9433 19.6618 34.3218 19.6618 32.5196C19.6618 30.719 21.126 29.2522 22.9347 29.2522L49.1342 29.2685ZM23.0163 15.9188C21.2077 15.9188 19.5884 17.537 19.5884 19.3376C19.5884 21.1398 21.126 22.7303 22.9347 22.7303L49.1342 22.7564V15.9188H23.0163ZM17.8205 42.3089C13.9796 42.3089 10.8683 40.816 10.8683 35.9824C10.8683 29.5826 17.1855 31.3589 17.1855 25.9929C17.1855 20.6254 10.6953 22.5725 10.6953 16.1727C10.6953 11.3391 13.9796 9.6753 17.8205 9.6753L52.2357 9.56949V0H16.3236C7.58886 0 0.355855 4.70822 0.355855 14.4552C0.355855 22.7287 6.57353 22.7287 6.57353 25.9929C6.57353 29.2554 0 29.1692 0 37.4443C0 47.1945 7.7521 51.8979 16.4869 51.8979H52.3989L52.381 42.3089H17.8205Z" fill="#03C5D3"/>
</svg>
