<svg width="300" height="112" viewBox="0 0 300 112" fill="none" xmlns="http://www.w3.org/2000/svg">
<path d="M111.656 56.8273C110.915 56.8273 110.343 56.6148 109.942 56.1875C109.542 55.7603 109.342 55.1662 109.342 54.4053V26.7121C109.342 25.9192 109.549 25.3183 109.965 24.907C110.381 24.4957 110.959 24.29 111.7 24.29H122.334C125.716 24.29 128.326 25.1515 130.165 26.872C132.005 28.5948 132.924 31.0077 132.924 34.1152C132.924 37.2227 132.005 39.6836 130.165 41.4041C128.326 43.1269 125.716 43.9861 122.334 43.9861H113.969V54.4053C113.969 55.1662 113.776 55.7603 113.391 56.1875C113.006 56.6148 112.428 56.8273 111.656 56.8273ZM113.969 40.1931H121.667C123.892 40.1931 125.576 39.6836 126.717 38.6622C127.858 37.6431 128.43 36.1259 128.43 34.1152C128.43 32.1045 127.858 30.6353 126.717 29.6139C125.576 28.5948 123.892 28.083 121.667 28.083H113.969V40.1931Z" fill="#005CA1"/>
<path d="M140.402 56.5074C139.601 56.5074 138.985 56.2858 138.555 55.8448C138.126 55.4038 137.91 54.7709 137.91 53.9483V26.8491C137.91 26.0266 138.124 25.3937 138.555 24.9527C138.985 24.5117 139.601 24.29 140.402 24.29H156.643C157.265 24.29 157.739 24.45 158.066 24.7699C158.393 25.0898 158.556 25.5536 158.556 26.1637C158.556 26.8035 158.393 27.2901 158.066 27.626C157.739 27.9619 157.265 28.1287 156.643 28.1287H142.36V38.2281H155.664C156.315 38.2281 156.798 38.3949 157.11 38.7307C157.421 39.0666 157.577 39.5373 157.577 40.1474C157.577 40.7872 157.421 41.267 157.11 41.5869C156.798 41.9068 156.315 42.0667 155.664 42.0667H142.36V52.6688H156.643C157.265 52.6688 157.739 52.8356 158.066 53.1714C158.393 53.5073 158.556 53.9803 158.556 54.5881C158.556 55.2279 158.393 55.7077 158.066 56.0276C157.739 56.3475 157.265 56.5074 156.643 56.5074H140.402Z" fill="#005CA1"/>
<path d="M166.292 56.8288C165.609 56.8288 165.075 56.6301 164.69 56.2348C164.305 55.8395 164.111 55.2751 164.111 54.5439V26.348C164.111 25.5871 164.296 24.9999 164.668 24.5886C165.039 24.1773 165.535 23.9717 166.158 23.9717C166.692 23.9717 167.099 24.0699 167.382 24.2687C167.664 24.4675 167.998 24.8262 168.383 25.3426L186.715 50.1569H185.602V26.2109C185.602 25.5117 185.787 24.9633 186.159 24.5658C186.53 24.1705 187.055 23.9717 187.738 23.9717C188.421 23.9717 188.984 24.1705 189.34 24.5658C189.696 24.9611 189.874 25.5094 189.874 26.2109V54.5896C189.874 55.2911 189.703 55.8395 189.362 56.2348C189.02 56.6301 188.568 56.8288 188.005 56.8288C187.471 56.8288 187.033 56.7215 186.692 56.509C186.35 56.2965 185.987 55.9309 185.602 55.4122L167.359 30.6437H168.383V54.5439C168.383 55.2751 168.205 55.8395 167.849 56.2348C167.493 56.6301 166.975 56.8288 166.292 56.8288Z" fill="#005CA1"/>
<path d="M211.861 56.9198C208.45 56.9198 205.571 56.2572 203.229 54.932C200.886 53.6067 199.113 51.7102 197.911 49.2425C196.71 46.7748 196.109 43.8341 196.109 40.4227C196.109 37.8636 196.459 35.5718 197.155 33.5451C197.851 31.5184 198.861 29.7818 200.181 28.3355C201.5 26.8891 203.117 25.7832 205.031 25.0223C206.944 24.2615 209.117 23.8799 211.549 23.8799C213.329 23.8799 215.08 24.1152 216.799 24.5882C218.519 25.0612 220.092 25.8289 221.516 26.896C221.932 27.1999 222.199 27.5518 222.317 27.947C222.435 28.3423 222.444 28.7468 222.339 29.1581C222.235 29.5693 222.043 29.9281 221.761 30.232C221.478 30.5359 221.138 30.7187 220.737 30.7803C220.337 30.842 219.899 30.7187 219.425 30.4148C218.268 29.5922 217.051 28.9913 215.776 28.6097C214.501 28.2281 213.091 28.0384 211.549 28.0384C209.235 28.0384 207.284 28.5251 205.698 29.5008C204.112 30.4765 202.917 31.884 202.116 33.7279C201.315 35.5718 200.915 37.8019 200.915 40.4227C200.915 44.4739 201.849 47.5517 203.718 49.6538C205.587 51.7559 208.361 52.807 212.039 52.807C213.373 52.807 214.686 52.6767 215.976 52.4186C217.267 52.1604 218.506 51.7856 219.692 51.2989L218.757 53.6753V43.0275H213.017C212.423 43.0275 211.956 42.8676 211.616 42.5477C211.275 42.2278 211.104 41.7777 211.104 41.1996C211.104 40.6215 211.275 40.1874 211.616 39.8972C211.956 39.607 212.423 39.463 213.017 39.463H220.715C221.338 39.463 221.812 39.6298 222.139 39.9657C222.466 40.3016 222.628 40.7883 222.628 41.4281V52.9441C222.628 53.4925 222.533 53.9586 222.339 54.3379C222.146 54.7195 221.827 55.0005 221.382 55.1833C220.108 55.702 218.608 56.1201 216.888 56.44C215.169 56.7599 213.491 56.9198 211.861 56.9198Z" fill="#005CA1"/>
<path d="M242.378 56.9202C240.271 56.9202 238.418 56.6392 236.816 56.0748C235.214 55.5104 233.873 54.665 232.789 53.5386C231.706 52.4121 230.883 51.0092 230.32 49.3343C229.757 47.6595 229.475 45.7241 229.475 43.5306V26.348C229.475 25.5551 229.675 24.9611 230.075 24.5658C230.476 24.1705 231.048 23.9717 231.788 23.9717C232.529 23.9717 233.101 24.1705 233.501 24.5658C233.902 24.9611 234.102 25.5551 234.102 26.348V43.4392C234.102 46.5764 234.807 48.923 236.216 50.4768C237.624 52.0305 239.68 52.8074 242.378 52.8074C245.077 52.8074 247.168 52.0305 248.563 50.4768C249.958 48.923 250.654 46.5764 250.654 43.4392V26.348C250.654 25.5551 250.854 24.9611 251.255 24.5658C251.655 24.1705 252.212 23.9717 252.923 23.9717C253.635 23.9717 254.229 24.1705 254.614 24.5658C254.999 24.9611 255.193 25.5551 255.193 26.348V43.5306C255.193 46.4553 254.71 48.9162 253.747 50.9109C252.783 52.9056 251.351 54.4068 249.453 55.4122C247.555 56.4176 245.197 56.9202 242.378 56.9202Z" fill="#005CA1"/>
<path d="M264.626 56.8288C263.885 56.8288 263.314 56.6164 262.913 56.1891C262.513 55.7618 262.312 55.1677 262.312 54.4068V26.3937C262.312 25.6008 262.513 24.9999 262.913 24.5886C263.314 24.1773 263.885 23.9717 264.626 23.9717C265.367 23.9717 265.939 24.1773 266.339 24.5886C266.74 24.9999 266.94 25.6008 266.94 26.3937V54.4068C266.94 55.1677 266.746 55.7618 266.362 56.1891C265.977 56.6164 265.398 56.8288 264.626 56.8288Z" fill="#005CA1"/>
<path d="M276.417 56.8288C275.734 56.8288 275.2 56.6301 274.815 56.2348C274.43 55.8395 274.236 55.2751 274.236 54.5439V26.348C274.236 25.5871 274.421 24.9999 274.793 24.5886C275.164 24.1773 275.66 23.9717 276.283 23.9717C276.817 23.9717 277.224 24.0699 277.507 24.2687C277.789 24.4675 278.123 24.8262 278.508 25.3426L296.84 50.1569H295.727V26.2109C295.727 25.5117 295.912 24.9633 296.284 24.5658C296.655 24.1705 297.18 23.9717 297.863 23.9717C298.546 23.9717 299.109 24.1705 299.465 24.5658C299.821 24.9611 299.999 25.5094 299.999 26.2109V54.5896C299.999 55.2911 299.828 55.8395 299.487 56.2348C299.145 56.6301 298.693 56.8288 298.13 56.8288C297.596 56.8288 297.158 56.7215 296.817 56.509C296.475 56.2965 296.112 55.9309 295.727 55.4122L277.484 30.6437H278.508V54.5439C278.508 55.2751 278.33 55.8395 277.974 56.2348C277.618 56.6301 277.1 56.8288 276.417 56.8288Z" fill="#005CA1"/>
<path d="M157.404 101.671C156.663 101.671 156.09 101.458 155.689 101.031C155.288 100.603 155.088 100.009 155.088 99.2485V71.1889C155.088 70.396 155.288 69.8019 155.689 69.4066C156.09 69.0113 156.663 68.8125 157.404 68.8125C158.146 68.8125 158.719 69.0113 159.12 69.4066C159.521 69.8019 159.721 70.396 159.721 71.1889V83.6192H159.81L173.487 70.0464C173.932 69.6191 174.355 69.3083 174.756 69.1095C175.157 68.9108 175.609 68.8125 176.115 68.8125C176.799 68.8125 177.296 68.9884 177.607 69.338C177.919 69.6876 178.046 70.1081 177.986 70.5948C177.926 71.0815 177.674 71.5545 177.229 72.0115L163.018 85.9042L163.107 83.5735L177.897 98.1974C178.432 98.7161 178.714 99.2485 178.743 99.7969C178.772 100.345 178.61 100.795 178.253 101.145C177.897 101.495 177.391 101.671 176.739 101.671C176.144 101.671 175.669 101.549 175.313 101.305C174.957 101.063 174.54 100.711 174.066 100.254L159.81 86.3155H159.721V99.2485C159.721 100.009 159.527 100.606 159.142 101.031C158.756 101.458 158.177 101.671 157.404 101.671Z" fill="#FF9900"/>
<path d="M186.047 101.671C185.305 101.671 184.733 101.458 184.332 101.031C183.931 100.603 183.73 100.009 183.73 99.2485V71.2346C183.73 70.444 183.931 69.8407 184.332 69.4294C184.733 69.0182 185.305 68.8125 186.047 68.8125C186.789 68.8125 187.361 69.0182 187.762 69.4294C188.163 69.8407 188.364 70.444 188.364 71.2346V99.2485C188.364 100.009 188.17 100.606 187.784 101.031C187.399 101.458 186.82 101.671 186.047 101.671Z" fill="#FF9900"/>
<path d="M197.853 101.671C197.169 101.671 196.634 101.472 196.249 101.076C195.864 100.681 195.67 100.117 195.67 99.3856V71.1889C195.67 70.428 195.855 69.8407 196.227 69.4294C196.599 69.0182 197.095 68.8125 197.719 68.8125C198.254 68.8125 198.661 68.9108 198.944 69.1095C199.227 69.3083 199.561 69.6648 199.947 70.1835L218.301 94.9984H217.187V71.0518C217.187 70.3503 217.372 69.8019 217.744 69.4066C218.116 69.0113 218.642 68.8125 219.325 68.8125C220.009 68.8125 220.573 69.0113 220.929 69.4066C221.286 69.8019 221.464 70.3503 221.464 71.0518V99.4313C221.464 100.133 221.292 100.681 220.951 101.076C220.608 101.472 220.156 101.671 219.593 101.671C219.058 101.671 218.619 101.563 218.278 101.351C217.935 101.138 217.572 100.773 217.187 100.254L198.922 75.4847H199.947V99.3856C199.947 100.117 199.768 100.681 199.412 101.076C199.056 101.472 198.537 101.671 197.853 101.671Z" fill="#FF9900"/>
<path d="M243.471 101.762C240.057 101.762 237.174 101.099 234.829 99.7736C232.483 98.4484 230.708 96.5518 229.505 94.084C228.303 91.6163 227.701 88.6755 227.701 85.264C227.701 82.7048 228.051 80.413 228.748 78.3862C229.445 76.3594 230.457 74.6228 231.777 73.1764C233.098 71.73 234.718 70.6241 236.633 69.8632C238.549 69.1023 240.725 68.7207 243.16 68.7207C244.942 68.7207 246.695 68.9583 248.416 69.429C250.138 69.902 251.713 70.6721 253.139 71.7369C253.555 72.0408 253.822 72.3927 253.94 72.788C254.059 73.1833 254.067 73.5877 253.963 73.999C253.858 74.4103 253.667 74.7691 253.384 75.073C253.101 75.3769 252.76 75.5597 252.359 75.6214C251.958 75.6831 251.519 75.5597 251.045 75.2558C249.887 74.4332 248.668 73.8322 247.392 73.4506C246.115 73.069 244.703 72.8794 243.16 72.8794C240.843 72.8794 238.89 73.3661 237.301 74.3418C235.713 75.3175 234.517 76.7273 233.715 78.569C232.913 80.413 232.512 82.6431 232.512 85.264C232.512 89.3153 233.448 92.3931 235.319 94.4953C237.19 96.5975 239.968 97.6486 243.65 97.6486C244.986 97.6486 246.3 97.5207 247.592 97.2602C248.884 97.002 250.125 96.6272 251.312 96.1405L250.377 98.5169V87.8689H244.63C244.035 87.8689 243.567 87.7089 243.226 87.389C242.886 87.0691 242.714 86.619 242.714 86.0409C242.714 85.4628 242.886 85.0286 243.226 84.7384C243.567 84.4483 244.035 84.3043 244.63 84.3043H252.337C252.96 84.3043 253.435 84.4711 253.762 84.807C254.09 85.1429 254.252 85.6296 254.252 86.2694V97.7857C254.252 98.3341 254.157 98.798 253.963 99.1796C253.769 99.5611 253.45 99.8422 253.005 100.025C251.729 100.544 250.227 100.962 248.506 101.282C246.784 101.602 245.104 101.762 243.471 101.762Z" fill="#FF9900"/>
<path d="M66.4215 27.722C62.6204 18.3423 51.2325 19.0766 51.2325 19.0766C51.2325 19.0766 38.067 13.8623 38.1547 23.2248C38.2424 32.5873 29.8488 33.0012 29.8488 33.0012C29.8831 33.1099 29.9212 33.2148 29.9575 33.3216C29.9327 33.3311 29.9079 33.3387 29.8831 33.3483C16.1721 38.5588 11.0093 40.2143 11.0093 40.2143L9.21651 51.3162C9.21651 51.3162 10.7175 78.8773 34.7732 95.3366C34.7732 95.3366 53.5688 101.958 54.2516 95.9202C54.2516 95.9202 55.3234 82.48 46.6551 68.9426C37.9868 55.4052 51.6215 51.5107 51.6215 51.5107C51.6215 51.5107 52.4989 50.5647 53.0062 48.9798C53.893 48.9569 54.7246 48.8997 55.4836 48.8234L55.7125 50.7364L62.0635 46.7312L61.0851 46.716C63.6503 43.5118 69.4216 35.1258 66.4215 27.722Z" fill="white"/>
<path d="M52.8174 73.5943C52.4569 72.675 52.1994 71.7291 52.0259 70.7659C51.7245 70.169 51.8904 69.5129 51.6177 68.9255C51.4613 68.586 51.551 68.2637 51.7455 68.0386C51.6597 65.481 52.0259 62.8777 52.5122 60.425C53.3704 56.1014 54.8028 51.9303 55.9204 47.6734C55.9757 47.4617 56.092 47.3186 56.2351 47.229C54.2516 45.9378 51.9648 45.1978 49.5274 45.1978C41.9481 45.1978 35.805 52.3174 35.805 61.1002C35.805 69.8829 41.9481 77.0025 49.5274 77.0025C51.1409 77.0025 52.6877 76.6745 54.1238 76.0813C53.6031 75.3146 53.1645 74.4888 52.8154 73.5981L52.8174 73.5943Z" fill="#FF9900"/>
<path d="M56.6661 18.4186L64.9606 4.10305L66.4215 17.1541L77.9621 14.3295L78.4484 14.2323L73.4324 24.7506L85.4613 29.2783L68.0274 34.0025L64.8633 25.0328L56.6661 18.4186Z" fill="#FF9900"/>
<path d="M56.2427 32.7361C56.2427 32.7361 55.7087 34.2447 50.8072 33.0431C45.9056 31.8416 42.5623 27.7201 42.5623 27.7201C42.5623 27.7201 40.6474 25.3494 39.5756 22.9482C38.5037 20.5471 38.3092 17.3639 38.3092 17.3639C38.3092 17.3639 36.0701 9.63779 33.3428 8.53351C33.3428 8.53351 32.0764 7.85263 34.3498 7.62377C36.6232 7.3949 41.9024 7.75346 44.6182 12.7523C47.3341 17.7511 52.5942 28.6584 52.5942 28.6584C52.5942 28.6584 54.2802 32.5549 56.2446 32.7342L56.2427 32.7361Z" fill="#FF9900"/>
<path d="M64.6974 28.05C64.6974 28.05 64.953 29.4099 64.8652 31.0291C64.9091 29.593 64.8576 30.4836 64.7909 31.8397C64.7546 32.12 64.7069 32.4004 64.6421 32.6808C64.4285 33.5314 64.0966 34.1608 63.7972 34.5956C62.9523 35.7247 61.8976 36.2911 61.1042 36.5696C60.4443 36.7755 59.5822 36.9415 58.4818 36.9739C58.1061 36.9853 57.7761 37.0349 57.4824 37.1112L57.471 37.115C57.4118 37.1303 57.3546 37.1475 57.2974 37.1646C57.286 37.1684 57.2745 37.1703 57.2612 37.1742C57.2516 37.178 57.2421 37.1818 57.2326 37.1837C57.2001 37.1951 57.1658 37.2066 57.1353 37.218C55.8441 37.6815 55.415 38.5817 55.2834 39.2568C55.2452 39.4247 55.2224 39.6154 55.2262 39.829C55.2204 39.9015 55.2204 39.9434 55.2204 39.9434C55.2204 39.9434 55.2262 39.9663 55.2357 40.0064C55.2376 40.0273 55.2395 40.0502 55.2433 40.0712C55.2452 40.096 55.2491 40.1113 55.2491 40.1113C55.3139 40.6052 55.5294 41.1946 56.031 41.8602H56.0329C56.1264 42.0051 56.2275 42.1463 56.3419 42.2779C57.1696 43.2524 58.6801 45.4915 58.6801 45.4915L58.9719 46.0675C58.9719 46.0675 66.5188 42.0795 66.4215 32.9993C66.4215 32.9993 65.7521 26.4289 64.6993 28.0462L64.6974 28.05Z" fill="#FF9900"/>
<path d="M51.366 44.6943C51.366 44.6943 46.5846 35.4786 28.405 38.0763C28.405 38.0763 29.6313 31.2427 37.3289 32.1925C37.3289 32.1925 48.7283 35.0896 52.1689 40.5442C55.6095 45.9988 51.366 44.6962 51.366 44.6962V44.6943Z" fill="#FF9900"/>
<path d="M77.0523 109.053C77.0447 108.95 77.0199 108.847 76.9894 108.748C76.6785 107.686 75.8298 106.698 75.2004 105.798C74.5024 104.798 73.791 103.808 73.0758 102.822C72.3129 101.77 71.4833 100.745 70.7623 99.6621L61.5486 86.5214C59.1188 83.3688 55.1957 75.2212 53.5059 71.607C53.5059 71.607 53.5059 71.4811 53.6203 71.5536C55.2758 74.4888 57.1925 77.2943 59.464 79.789C60.9841 81.4578 62.67 82.9931 64.5486 84.2518C66.0038 85.2264 67.5868 86.1285 69.3319 86.4375C69.9766 86.5519 70.8215 86.6244 71.3727 86.1705C72.6524 85.1177 71.0561 82.604 70.4763 81.6351C68.7502 78.7476 67.7146 76.7164 67.0089 75.1621C66.1965 73.2587 64.4704 68.5078 62.5384 58.905C62.3725 58.0448 62.2047 57.1827 62.0349 56.3283C62.0044 56.1776 61.9739 56.0289 61.9415 55.8782V55.8687C61.9415 55.8687 60.0648 44.187 49.6304 37.3134L49.6151 37.3038C47.8796 36.0375 45.8694 34.834 43.5788 33.8518C42.3811 33.3178 41.3188 32.9554 40.4205 32.7075C38.4751 32.1734 37.3289 32.1925 37.3289 32.1925C36.8101 32.3546 38.9195 32.9058 38.9195 32.9058C45.4116 35.0152 49.4378 40.0159 49.4378 40.0159C49.4378 40.0159 49.5369 40.1265 49.6914 40.3172C50.5993 41.4597 53.3952 45.6059 48.8046 49.0313C43.1344 53.2615 39.7434 58.3042 40.3289 64.9375C40.9087 72.1582 50.8968 86.2849 49.0544 91.6995C47.685 95.7237 42.5584 95.2279 41.3455 95.1344C40.1801 95.0314 39.0988 94.7987 38.1623 94.4631C33.8253 93.0784 26.8678 86.8247 26.8678 86.8247C26.8678 86.8247 22.0463 82.2569 17.347 74.6986C11.8351 65.6203 9.44347 53.5533 9.44347 53.5533C9.40723 53.4866 9.37481 53.4713 9.34811 53.4827C9.25275 53.4522 9.22032 53.6105 9.22414 53.8547C9.22032 53.8871 9.21651 53.91 9.21651 53.91C9.22032 53.9348 9.22414 53.9615 9.22795 53.9863C9.26228 54.6271 9.46826 55.6417 9.46826 55.6417C9.60749 56.6163 11.1199 67.1098 16.6833 76.7965C22.1779 86.3689 30.0319 92.3995 31.1075 93.2005C31.1304 93.2196 31.2143 93.2959 31.119 93.3798C27.9797 96.0499 18.1671 97.5413 17.5262 97.6062C17.4404 97.6138 17.3584 97.6271 17.2783 97.6424C16.8149 97.7187 16.5402 97.835 16.38 97.9514C16.3667 97.959 16.359 97.9628 16.359 97.9628C16.359 97.9628 16.3438 97.9743 16.3209 97.9971C16.1378 98.1535 16.1473 98.2928 16.1473 98.2928C16.0634 98.6189 16.2484 99.1453 17.7875 99.685C20.2879 100.562 24.0852 100.562 29.3777 99.7499C31.1857 99.4733 33.1139 99.3322 34.8724 99.2673C36.8635 99.0595 38.8947 98.9508 40.9545 98.9508C44.7098 98.9508 48.3602 99.3093 51.8637 99.9826C55.2166 100.528 58.518 101.4 61.6821 102.637C64.0032 103.545 66.248 104.646 68.3726 105.948C69.7801 106.81 71.1037 107.789 72.4445 108.754C72.8488 109.044 73.2551 109.336 73.6937 109.57C74.573 110.039 75.7592 110.36 76.6614 109.763C76.8177 109.66 76.9627 109.522 77.0237 109.345C77.0562 109.252 77.0619 109.154 77.0542 109.057L77.0523 109.053Z" fill="#005CA1"/>
<path d="M29.8488 33.0012C15.9375 33.0126 5.40589 42.5239 5.40589 42.5239C5.40589 42.5239 3.96976 43.6911 3.35373 44.6066L3.3461 44.618C3.24883 44.7649 3.17064 44.9041 3.12486 45.0319C1.9977 47.6371 5.93228 50.1318 5.93228 50.1318C6.4644 50.4999 7.14337 50.8889 8.00924 51.2647C11.1008 52.6035 12.7334 53.7002 14.1943 54.5756C15.6553 55.4529 15.9967 54.3563 15.9967 54.3563C17.8467 48.4076 13.1301 42.049 12.3157 41.0134C12.27 40.9562 12.3195 40.8703 12.3939 40.8818C13.5802 41.0649 14.8161 42.8348 15.106 43.2753C15.1365 43.323 15.2052 43.323 15.2376 43.2753C18.8117 38.2079 27.9606 34.0005 29.8831 33.1557C29.9632 33.1194 29.9365 32.9993 29.8488 32.9993V33.0012Z" fill="#005CA1"/>
<path d="M86.6819 28.6089L86.6399 28.5879L80.1954 26.1581C80.081 26.1142 80.0219 25.9883 80.0619 25.8739C80.3118 25.1701 81.1185 22.8929 81.2539 22.5096C81.416 22.0557 81.2539 21.7467 81.2539 21.7467C81.1776 21.5731 81.0232 21.4549 80.8496 21.3748C80.5654 21.2432 77.7656 20.7797 76.8311 20.6272C76.6823 20.6024 76.5984 20.4403 76.669 20.3067C77.2507 19.1681 79.4688 14.8197 79.793 14.1998C80.1668 13.4865 79.9227 13.1776 79.9227 13.1776C79.566 12.6588 78.9977 12.8038 78.9977 12.8038L77.3747 13.21L71.7789 14.6328C71.6378 14.669 71.4985 14.5622 71.4985 14.4154L71.4833 10.6143V10.5857C71.4985 10.4979 71.5557 10.0021 71.304 9.70645C71.0274 9.38222 70.3141 9.65686 70.3141 9.65686L67.0967 10.6238C66.9594 10.6658 66.8201 10.5704 66.8068 10.4274L66.1259 2.83857C66.1259 2.83857 66.1259 2.01465 65.4202 2.01465C65.2028 2.01465 65.0388 2.08522 64.972 2.12336C64.9472 2.13671 64.8748 2.18058 64.7966 2.25496C64.6478 2.398 64.4323 2.86336 64.3751 2.96253C61.5829 7.84882 58.7927 12.737 56.0005 17.6233C54.7761 17.3467 53.5001 17.1999 52.188 17.1999C51.7875 17.1999 51.3908 17.2171 50.996 17.2457C50.9616 17.2476 50.6965 16.5228 50.6679 16.4599C50.5058 16.088 50.3323 15.7218 50.153 15.3575C49.6743 14.3925 49.1383 13.456 48.5414 12.5596C47.8243 11.4802 47.0194 10.4579 46.1135 9.53098C45.1351 8.52969 44.0384 7.64093 42.8216 6.94671C42.0263 6.49279 41.1929 6.098 40.2946 5.90155C39.4459 5.71465 38.5819 5.60593 37.7122 5.61547C36.3848 5.63073 35.0497 5.92444 33.8749 6.55382C33.3485 6.83609 32.8965 7.11263 32.4292 7.50361C32.2538 7.64856 32.0859 7.83928 32.0535 8.07196C32.0173 8.33707 32.1584 8.45531 32.3548 8.58691C32.5322 8.70516 32.7039 8.83294 32.8736 8.96454C33.2074 9.22201 33.5259 9.49856 33.8272 9.79227C34.4223 10.3682 34.9525 11.0091 35.4159 11.6938C35.8794 12.3785 36.2742 13.1013 36.6098 13.8508C36.9455 14.6004 37.2221 15.3804 37.4452 16.1738C37.6683 16.9672 37.8343 17.7625 37.9563 18.5712C38.0784 19.3798 38.149 20.1561 38.1795 20.9533C38.21 21.7505 38.2005 22.4714 38.1509 23.2286C38.1051 23.9247 38.0269 24.619 37.9067 25.3056C37.8018 25.9101 37.6645 26.509 37.4814 27.0964C37.3517 27.5122 37.2011 27.9203 37.0123 28.3113C36.8463 28.8434 36.2494 29.5491 36.8349 29.4099C38.5304 28.3743 39.1483 25.4581 39.3353 24.2585C39.3543 24.1345 39.5222 24.1155 39.5737 24.228C39.7987 24.7258 40.018 25.1453 40.2049 25.4829C40.8362 26.6253 41.9996 27.6934 42.2018 27.8212C42.4383 27.9852 42.6786 27.9776 42.7377 27.8936C42.7949 27.8116 42.7244 27.6037 42.5184 27.4397C42.5108 27.434 42.505 27.4283 42.4993 27.4207C40.1954 24.7048 39.9036 21.9145 39.505 19.4123C39.0015 16.6697 38.5628 14.5031 37.2411 12.1935C36.4973 10.8298 35.4674 9.47758 34.1438 8.62887C34.0942 8.59645 34.0427 8.56402 34.0122 8.51253C33.8806 8.28748 34.9754 8.14444 35.086 8.12918C35.702 8.04526 36.3028 8.09485 36.9093 8.23598C38.4179 8.58691 39.7606 9.46804 40.8496 10.5513C41.5991 11.2971 42.2438 12.1515 42.7644 13.0727C43.0886 13.6448 43.3442 14.2399 43.6036 14.8426C44.9825 18.0448 45.4784 21.2222 46.4282 23.5338C47.378 25.8472 48.4689 27.4779 48.4689 27.4779C51.7512 32.1525 55.2166 32.9325 55.2166 32.9325C55.2166 32.9325 57.1639 33.3216 55.9719 31.3495C54.778 29.3775 53.3914 25.872 53.3914 25.872C53.3914 25.872 50.7461 19.5267 54.8314 20.2285C54.9305 20.2343 55.0297 20.2457 55.1289 20.261C55.1842 20.2724 55.2414 20.28 55.2967 20.2915C55.3063 20.2934 55.3177 20.2953 55.3272 20.2972C61.4666 21.5579 66.0839 26.9915 66.0839 33.5028C66.0839 38.513 63.3452 42.8767 59.2885 45.1997L58.6744 45.4953L59.9408 48.0605L60.7304 47.5875C65.302 44.9499 68.4775 40.2658 68.9162 34.8283L70.0548 34.5403C70.0548 34.5403 85.7016 30.3196 86.4168 30.1423C87.1301 29.963 87.1301 29.4118 87.1301 29.4118C87.2025 28.9808 86.7772 28.6775 86.68 28.6127L86.6819 28.6089ZM83.8382 29.2459L77.7027 30.8861L73.1521 32.0666C73.0357 32.0971 72.9175 32.0304 72.8813 31.916C71.8418 28.708 71.0313 27.5103 71.0313 27.5103C71.0313 27.5103 70.7547 26.9744 70.3332 27.2013C69.9117 27.4283 70.2512 28.1111 70.2512 28.1111C71.1934 30.3673 71.3993 32.5415 71.3993 32.5415L71.3231 32.5587L68.9677 33.1938C68.8208 26.1485 64.089 20.198 57.5568 18.0524L60.2517 13.3073L64.3903 5.99882C64.499 5.80619 64.7909 5.86913 64.8099 6.09037L65.7368 16.5533C65.7368 16.5533 65.7368 17.1694 66.0611 17.4459C66.3853 17.7225 67.1329 17.4955 67.1329 17.4955L77.2659 14.814C77.4529 14.7644 77.6112 14.9589 77.5253 15.1325L73.194 23.8103L73.1788 23.837C73.1292 23.9076 72.8717 24.3081 72.9595 24.7353C73.0567 25.2064 73.4458 25.3361 73.4458 25.3361L83.9317 29.2001L83.8344 29.2497L83.8382 29.2459Z" fill="#005CA1"/>
<path d="M61.4208 29.8943C61.6478 30.2262 61.7946 30.3654 61.7946 30.3654C62.1589 30.5599 62.0464 30.0087 62.0464 30.0087C61.0889 26.8599 58.6706 25.6431 57.8829 25.2197C57.5396 25.0366 56.7729 24.8478 56.6699 25.4238C56.6261 25.6641 56.7996 25.9121 56.9999 26.0322C59.792 27.331 61.1957 29.5625 61.4227 29.8962L61.4208 29.8943Z" fill="#005CA1"/>
</svg>
