<svg xmlns="http://www.w3.org/2000/svg" width="300" height="115" fill="none"><path fill="#2196F3" fill-rule="evenodd" d="M98.03 78.825c.412-.412.617-.935.617-1.57v-13.29h9.017c2.726 0 5.153-.599 7.281-1.795 2.165-1.196 3.846-2.86 5.041-4.991 1.194-2.13 1.792-4.56 1.792-7.29 0-2.766-.598-5.215-1.792-7.346a12.61 12.61 0 0 0-5.041-5.047c-2.128-1.234-4.555-1.85-7.281-1.85H96.463c-.635 0-1.157.205-1.569.616-.41.412-.616.935-.616 1.57v39.422c0 .636.206 1.16.616 1.571.411.411.934.617 1.569.617.635 0 1.157-.206 1.568-.617Zm14.731-20.3c-1.494.822-3.192 1.234-5.097 1.234h-9.017V39.85h9.017c1.905 0 3.603.43 5.097 1.29a8.92 8.92 0 0 1 3.472 3.589c.859 1.495 1.288 3.215 1.288 5.16 0 1.906-.429 3.607-1.288 5.102a9.015 9.015 0 0 1-3.472 3.533Z" clip-rule="evenodd"/><path fill="#2196F3" d="M129.524 49.385c-.411.411-.616.934-.616 1.57v26.3c0 .636.205 1.16.616 1.57.411.412.933.617 1.568.617s1.139-.205 1.512-.617c.411-.41.616-.934.616-1.57v-26.3c0-.636-.205-1.159-.616-1.57-.373-.411-.877-.617-1.512-.617s-1.157.206-1.568.617ZM133.22 37.665a3.003 3.003 0 0 0-2.128-.841c-.859 0-1.587.28-2.184.84-.598.562-.896 1.29-.896 2.188 0 .86.28 1.589.84 2.187.597.598 1.325.897 2.184.897.859 0 1.587-.299 2.184-.897.598-.598.897-1.327.897-2.187 0-.897-.299-1.626-.897-2.187Z"/><path fill="#2196F3" fill-rule="evenodd" d="M158.148 48.488c2.912 0 5.544.692 7.896 2.075a14.428 14.428 0 0 1 5.601 5.608c1.382 2.392 2.073 5.047 2.073 7.963v13.178c0 .598-.206 1.103-.616 1.514-.411.411-.934.617-1.569.617-.635 0-1.157-.187-1.568-.56-.411-.412-.616-.936-.616-1.57v-3.366c-1.307 1.794-2.968 3.215-4.985 4.262-2.016 1.01-4.238 1.514-6.664 1.514-2.838 0-5.415-.673-7.73-2.018-2.277-1.384-4.088-3.253-5.432-5.608-1.307-2.393-1.961-5.047-1.961-7.963 0-2.916.672-5.57 2.017-7.963 1.381-2.393 3.248-4.262 5.601-5.608 2.389-1.383 5.04-2.075 7.953-2.075Zm0 27.31c2.128 0 4.051-.505 5.768-1.514a10.761 10.761 0 0 0 4.033-4.15c1.008-1.794 1.512-3.795 1.512-6 0-2.206-.504-4.187-1.512-5.945-.971-1.794-2.315-3.196-4.033-4.205-1.717-1.047-3.64-1.57-5.768-1.57-2.129 0-4.071.523-5.825 1.57-1.718 1.01-3.081 2.411-4.089 4.205-.97 1.758-1.456 3.74-1.456 5.945s.486 4.206 1.456 6a11.172 11.172 0 0 0 4.089 4.15c1.754 1.01 3.696 1.513 5.825 1.513Z" clip-rule="evenodd"/><path fill="#2196F3" d="M199.131 49.778c-1.829-.86-3.976-1.29-6.441-1.29-3.173 0-5.825.748-7.953 2.243-2.091 1.496-3.136 3.608-3.136 6.337 0 2.094.896 3.888 2.688 5.384 1.83 1.457 4.574 2.486 8.233 3.084 2.838.448 4.91 1.121 6.217 2.018 1.307.898 1.96 2.02 1.96 3.365-.037 1.458-.709 2.636-2.016 3.533-1.307.897-3.267 1.346-5.881 1.346-1.792 0-3.435-.28-4.928-.841-1.457-.56-2.633-1.365-3.529-2.411-.448-.524-.99-.786-1.624-.786-.486 0-.952.168-1.4.505-.598.486-.897 1.047-.897 1.682 0 .411.187.842.561 1.29 1.307 1.42 3.024 2.523 5.152 3.309a19.11 19.11 0 0 0 6.665 1.177c2.315 0 4.387-.374 6.218-1.121 1.829-.748 3.248-1.795 4.256-3.14 1.045-1.346 1.568-2.88 1.568-4.599 0-2.243-.859-4.112-2.576-5.607-1.718-1.534-4.574-2.637-8.569-3.31-2.95-.485-5.004-1.12-6.161-1.906-1.158-.822-1.737-1.907-1.737-3.252 0-1.271.616-2.318 1.849-3.14 1.232-.86 2.875-1.29 4.928-1.29 3.174 0 5.676 1.047 7.506 3.14.522.56 1.175.841 1.959.841.449 0 .803-.094 1.065-.28.597-.374.896-.879.896-1.514 0-.374-.149-.804-.448-1.29-1.121-1.496-2.595-2.654-4.425-3.477ZM225.795 75.124c.597 0 1.083.206 1.456.618.373.41.559.934.559 1.57 0 .598-.225 1.103-.672 1.514-.449.41-1.008.617-1.681.617h-1.175c-1.979 0-3.753-.467-5.321-1.402a10.498 10.498 0 0 1-3.697-3.87c-.858-1.644-1.288-3.495-1.288-5.55V53.646h-3.64c-.598 0-1.083-.168-1.456-.504a1.945 1.945 0 0 1-.505-1.346c0-.561.169-1.01.505-1.346.373-.374.858-.56 1.456-.56h3.64v-8.693c0-.635.187-1.159.56-1.57.411-.411.934-.617 1.569-.617.634 0 1.157.206 1.567.617.411.411.617.935.617 1.57v8.692h6.329c.597 0 1.064.187 1.399.56.375.337.562.786.562 1.347 0 .523-.187.972-.562 1.346-.335.336-.802.504-1.399.504h-6.329V68.62c0 1.906.56 3.477 1.68 4.71 1.12 1.197 2.557 1.794 4.313 1.794h1.513ZM252.36 49.049c-.894-.412-2.127-.617-3.695-.617-1.942 0-3.752.43-5.432 1.29a11.105 11.105 0 0 0-4.145 3.645v-2.468c0-.673-.187-1.196-.56-1.57-.375-.374-.896-.56-1.568-.56-.674 0-1.195.186-1.568.56-.375.374-.562.897-.562 1.57v26.412c0 .673.187 1.196.562 1.57.373.374.894.561 1.568.561.672 0 1.193-.186 1.568-.56.373-.375.56-.898.56-1.57V60.543c0-2.392.878-4.336 2.633-5.832 1.79-1.495 4.088-2.243 6.887-2.243.598 0 1.045.019 1.344.056.822.075 1.402.113 1.737.113.561 0 .99-.094 1.289-.281.335-.187.578-.542.728-1.065a1.75 1.75 0 0 0 .056-.505c0-.748-.467-1.327-1.402-1.738ZM261.378 50.955c0-.636.206-1.159.618-1.57.409-.411.932-.617 1.568-.617.633 0 1.137.206 1.512.617.408.411.615.934.615 1.57v26.3c0 .636-.207 1.16-.615 1.57-.375.412-.879.617-1.512.617-.636 0-1.159-.205-1.568-.617-.412-.41-.618-.934-.618-1.57v-26.3ZM263.564 36.824c.82 0 1.53.28 2.127.84.598.562.897 1.29.897 2.188 0 .86-.299 1.589-.897 2.187-.597.598-1.325.897-2.183.897-.861 0-1.589-.299-2.186-.897-.56-.598-.841-1.327-.841-2.187 0-.897.299-1.626.897-2.187.597-.56 1.325-.841 2.186-.841ZM299.969 77.592c0-.485-.204-.99-.615-1.514l-9.521-12.224 9.296-11.552c.411-.524.616-1.066.616-1.626 0-.524-.187-.972-.56-1.346-.335-.374-.802-.561-1.4-.561-.709 0-1.325.337-1.848 1.01l-8.906 11.27-9.015-11.607a2.215 2.215 0 0 0-1.624-.673c-.636 0-1.121.187-1.458.56-.335.375-.504.842-.504 1.403 0 .598.187 1.103.56 1.514l9.186 11.664-9.689 12.112c-.373.412-.56.916-.56 1.514 0 .524.166.972.503 1.346.373.374.859.561 1.456.561.672 0 1.177-.224 1.512-.673l9.521-12.056 9.186 11.72c.261.373.541.635.84.785.299.15.672.224 1.122.224.485 0 .914-.168 1.287-.505.411-.373.615-.822.615-1.346Z"/><path fill="#FFD833" d="M52.96 46.954c-.184.062-.377.11-.556.191a10.646 10.646 0 0 0-5.296 4.79 10.849 10.849 0 0 0-1.122 7.098c.057.32.114.64.194.954.08.316.179.636.287.955a11.325 11.325 0 0 0 3.985 5.324c.155.105.306.21.471.31.344.216.7.412 1.066.587.255.13.514.253.783.364 1.26.507 2.604.772 3.96.778.128 0 .245-.034.368-.039v-.038a11.965 11.965 0 0 0 4.164-.955 10.907 10.907 0 0 0 5.536-5.52 11.107 11.107 0 0 0 .469-7.852 10.96 10.96 0 0 0-4.84-6.155 10.731 10.731 0 0 0-7.663-1.298c-.156.034-.307.057-.471.096-.453.107-.9.244-1.335.41Z"/><path fill="url(#a)" d="M64.418 44.83c3.82-5.958 5.98-12.107 6.48-18.448v-.243a21.41 21.41 0 0 0 .122-2.33 26.453 26.453 0 0 0-3.513-12.89C65.253 6.839 61.909 3.199 57.473 0h-.029C53 3.183 49.647 6.824 47.387 10.923a26.455 26.455 0 0 0-3.513 12.89c-.002.78.04 1.557.122 2.33v.244c.481 6.114 2.512 12.052 6.093 17.813a14.258 14.258 0 0 1 14.334.635l-.005-.005Z"/><path fill="url(#b)" d="M46.93 46.425C43.1 40.3 40.868 33.948 40.236 27.366c-5.573-4.583-14.46-6.833-26.66-6.75a36.168 36.168 0 0 0 2.178 14.714h-.122a29.007 29.007 0 0 0 5.215 8.23.357.357 0 0 0 .122.244 17.766 17.766 0 0 0 2.547 2.33c5.366 4.163 11.724 6.74 19.073 7.734a14.738 14.738 0 0 1 4.343-7.443Z"/><path fill="url(#c)" d="M23.51 75.342h-.123c-3.474 5.319-5.696 12.927-6.667 22.826 5.344.817 10.273.572 14.787-.736a28.343 28.343 0 0 0 10.543-5.89v-.125l.726-.735h.132c4.832-5.176 8.054-11.615 9.667-19.317a14.481 14.481 0 0 1-5.895-3.47c-7.409 4.89-15.132 7.374-23.17 7.447Z"/><path fill="url(#d)" d="M18.786 47.122a27.973 27.973 0 0 0 2.3 2.086c5.995 4.637 13.034 7.502 21.116 8.593.084 2.48.791 4.898 2.056 7.023-6.602 4.326-13.517 6.523-20.748 6.593h-1.089A25.775 25.775 0 0 1 10.79 67.98 33.601 33.601 0 0 1 0 57.797c6.865-5.564 13.127-9.122 18.786-10.675Z"/><path fill="url(#e)" d="M69.562 88.103v.124c.246 1.387.287 2.803.123 4.201.005.264.089.52.24.736a26.875 26.875 0 0 1-3.272 10.307 35.425 35.425 0 0 1-9.94 11.043c-6.3-7.706-10.056-14.708-11.27-21.007a.11.11 0 0 0 .05-.004.116.116 0 0 0 .042-.027.106.106 0 0 0 .027-.043.107.107 0 0 0 .004-.05.111.111 0 0 1 .073-.12.1.1 0 0 1 .05-.004c5.375-5.722 8.946-12.815 10.712-21.279h.284c2.296.002 4.559-.55 6.601-1.613 3.43 5.796 5.522 11.708 6.276 17.736Z"/><defs><radialGradient id="a" cx="0" cy="0" r="1" gradientTransform="matrix(-77.893 0 0 -50.2696 52.692 58.425)" gradientUnits="userSpaceOnUse"><stop stop-color="#FFA73F"/><stop offset=".757" stop-color="#FF4081"/></radialGradient><radialGradient id="b" cx="0" cy="0" r="1" gradientTransform="matrix(-77.893 0 0 -50.2696 52.692 58.425)" gradientUnits="userSpaceOnUse"><stop stop-color="#FFA73F"/><stop offset=".757" stop-color="#FF4081"/></radialGradient><radialGradient id="c" cx="0" cy="0" r="1" gradientTransform="matrix(-77.893 0 0 -50.2696 52.692 58.425)" gradientUnits="userSpaceOnUse"><stop stop-color="#FFA73F"/><stop offset=".757" stop-color="#FF4081"/></radialGradient><radialGradient id="d" cx="0" cy="0" r="1" gradientTransform="matrix(-77.893 0 0 -50.2696 52.692 58.425)" gradientUnits="userSpaceOnUse"><stop stop-color="#FFA73F"/><stop offset=".757" stop-color="#FF4081"/></radialGradient><radialGradient id="e" cx="0" cy="0" r="1" gradientTransform="matrix(-77.893 0 0 -50.2696 52.692 58.425)" gradientUnits="userSpaceOnUse"><stop stop-color="#FFA73F"/><stop offset=".757" stop-color="#FF4081"/></radialGradient></defs></svg>