<svg width="300" height="107" viewBox="0 0 300 107" fill="none" xmlns="http://www.w3.org/2000/svg">
<path fill-rule="evenodd" clip-rule="evenodd" d="M10.5643 13.5287H285.212L300 0.824219V96.0976C300.004 101.857 295.196 106.677 289.436 106.681H10.5643C4.80427 106.677 -0.00434688 101.857 3.01807e-06 96.0976V24.1124C-0.00434688 18.3534 4.80427 13.533 10.5643 13.5287Z" fill="#263459"/>
<path d="M80.4731 29.8516H71.1226V76.8751H80.4731V29.8516Z" fill="#F3E24E"/>
<path fill-rule="evenodd" clip-rule="evenodd" d="M40.1765 42.8238H31.2891V88.8772H40.6356V72.674H40.7714C42.9826 76.0588 47.0182 77.8299 50.9923 77.8101C55.3117 77.894 59.4807 75.9391 62.1195 72.5103C64.79 69.0205 65.9559 64.5797 65.9364 60.2253C65.9578 55.6931 64.8432 51.0323 62.1195 47.3489C59.3958 43.7212 54.9614 41.8084 50.4653 41.9051C46.4433 41.8521 42.448 43.674 40.3242 47.1731H40.1765V42.8238ZM54.7612 67.4901C53.3625 69.6724 51.0423 70.745 48.477 70.745C45.9401 70.745 43.5369 69.6093 42.1408 67.4579C40.7101 65.2351 40.2905 62.5377 40.3242 59.9336C40.2986 57.2873 40.7276 54.5513 42.1208 52.2616C43.4451 50.0909 45.8847 48.8669 48.4091 48.9347C50.9582 48.8671 53.3852 50.1658 54.6934 52.3612C56.0496 54.6285 56.5804 57.3126 56.5699 59.9336C56.5937 62.5341 56.1718 65.2601 54.7612 67.4901Z" fill="#F3E24E"/>
<path fill-rule="evenodd" clip-rule="evenodd" d="M86.7935 53.2995C86.9322 49.6493 88.8715 46.2263 92.0277 44.3573C95.2542 42.4649 99.0849 41.8899 102.78 41.9051C106.23 41.902 109.807 42.2391 112.953 43.7542C115.948 45.2007 117.862 48.2515 117.74 51.594V69.3107C117.718 71.7912 117.757 74.6289 118.925 76.8831H109.443C109.08 75.82 108.858 74.7134 108.784 73.5922C107.364 75.0504 105.614 76.1461 103.682 76.7873C98.987 78.3615 92.9869 78.4472 88.9654 75.2056C85.4642 72.3841 84.8716 66.8659 86.6936 62.9206C87.883 60.4592 90.2949 58.9324 92.8541 58.18C95.2995 57.4681 97.8364 57.152 100.36 56.8578C103.166 56.5067 105.207 56.0898 106.485 55.6077C107.681 55.2196 108.482 54.0311 108.393 52.7764C108.393 50.9311 107.861 49.701 106.796 49.0858C105.731 48.471 104.24 48.1634 102.32 48.1634C100.476 48.1634 99.0266 48.5626 97.9726 49.3616C96.9185 50.1602 96.3037 51.4676 96.128 53.2836L86.7935 53.2995ZM108.389 60.2128C106.311 61.8505 103.158 61.8143 100.62 62.1899C97.8116 62.7511 95.09 63.9276 95.09 67.1779C95.09 70.5247 97.8837 71.523 100.815 71.5272C103.312 71.5272 105.918 70.7955 107.267 68.528C108.133 67.0637 108.393 65.3823 108.397 63.7033L108.389 60.2128Z" fill="#F3E24E"/>
<path d="M143.02 42.8234H136.173V32.6151H126.823V42.8234H121.161V49.0938H126.831V69.183C126.744 71.7215 127.71 74.3789 129.957 75.7367C132.23 77.0724 134.977 77.306 137.563 77.2824C139.39 77.3154 141.218 77.2062 143.028 76.9551V69.6422C142.074 69.8271 141.102 69.9155 140.13 69.9058C138.557 69.9004 137.504 69.6342 136.972 69.1069C136.439 68.5799 136.173 67.5253 136.173 65.9436V49.0816H143.02V42.8234Z" fill="#F3E24E"/>
<path d="M156.451 37.5675H147.101V29.8516H156.451V37.5675Z" fill="#F3E24E"/>
<path d="M147.101 42.8355H156.451V76.8873H147.101V42.8355Z" fill="#F3E24E"/>
<path fill-rule="evenodd" clip-rule="evenodd" d="M172.078 42.8238H163.167V88.8647H172.505V72.6618H172.637C174.851 76.0454 178.883 77.8178 182.858 77.798C187.174 77.8779 191.332 75.9235 193.969 72.4982C196.644 69.0152 197.81 64.5632 197.786 60.2128C197.811 55.6988 196.705 51.0246 194.001 47.3489C191.279 43.7219 186.842 41.8052 182.347 41.9051C178.324 41.852 174.33 43.6736 172.206 47.1731H172.078V42.8238ZM184.136 69.8619V69.838C181.783 71.0154 178.951 71.0154 176.598 69.838C174.443 68.6379 173.124 66.3857 172.617 64.0193C172.023 61.316 172.034 58.4565 172.613 55.7517C173.408 51.9532 176.174 48.8238 180.283 48.9343C181.594 48.8996 182.89 49.2185 184.036 49.8567C186.214 51.1225 187.434 53.4951 187.984 55.8835C188.615 58.5644 188.601 61.4096 188.024 64.0988C187.523 66.4269 186.253 68.6659 184.136 69.8619Z" fill="#F3E24E"/>
<path d="M234.669 76.8756H225.782V72.1349H225.578C223.411 75.7109 219.342 77.7946 215.198 77.798C211.589 77.9041 207.612 76.93 205.288 73.9798C203.116 71.0988 202.706 67.2772 202.753 63.7715V42.8238H212.104V62.058C212.104 66.1741 213.266 70.4148 218.096 70.4215C223.884 70.4215 225.339 65.7028 225.339 60.6765V42.8238H234.685L234.669 76.8756Z" fill="#F3E24E"/>
<path d="M250.472 70.126C249.109 69.1835 248.406 67.7454 248.364 65.8126H239.456C239.519 69.5424 241.345 73.1293 244.531 75.1303C247.779 77.1683 251.689 77.817 255.475 77.7821C257.435 77.7934 259.39 77.5841 261.304 77.1589C266.746 75.9615 271.18 71.8611 271.013 65.9403C271.118 61.779 268.142 58.9797 264.43 57.6091C260.245 56.0726 255.756 55.6989 251.594 54.0864C250.276 53.5142 249.617 52.5914 249.617 51.3186C249.617 48.6267 252.653 48.0962 254.816 48.1558C257.984 48.1509 260.929 49.242 261.204 52.7726H270.111C269.997 50.9629 269.467 49.2038 268.562 47.6327C265.825 43.0974 260.025 41.8727 255.099 41.9051C248.19 41.8664 240 44.6438 240.263 52.8446C240.145 56.923 243.299 59.5727 246.883 60.7723C250.948 62.1482 255.341 62.4923 259.295 64.1988C260.868 64.8781 261.667 65.8804 261.667 67.1942C261.833 70.3598 258.166 71.6001 255.542 71.5435C253.746 71.6084 251.974 71.1129 250.472 70.126Z" fill="#F3E24E"/>
</svg>
