<svg width="302" height="85" viewBox="0 0 302 85" fill="none" xmlns="http://www.w3.org/2000/svg">
<path d="M278.385 64.8321H12.8687C6.26954 64.8321 3.01995 61.4825 1.62013 57.733C0.82023 55.3833 0.82023 52.8336 1.47015 50.334L6.36953 32.5862C7.76935 27.7868 11.8188 19.8878 21.9176 19.8878C21.9176 19.8878 222.092 19.8878 288.884 19.8878C298.083 19.8878 302.232 26.237 300.682 33.3361C299.632 38.5354 295.383 52.0837 295.383 52.0837C293.783 59.6828 287.434 64.8321 278.385 64.8321ZM240.59 83.4798C222.842 83.4798 187.547 83.4798 169.949 83.4798C159.35 83.4798 149.101 73.631 150.551 63.1823C152.101 51.9337 158.45 34.336 161.95 23.4373C166.199 10.489 178.748 1.04019 189.496 1.04019C207.744 0.89021 244.339 0.640242 262.737 1.04019C278.135 1.44014 284.584 15.6383 281.485 25.6371C278.135 36.4857 272.686 53.7335 269.336 63.6823C266.237 73.1311 251.189 83.4798 240.59 83.4798ZM263.737 7.2394C263.737 7.2394 252.088 7.2394 247.839 7.2394C236.34 7.08942 226.642 14.9884 223.642 24.0373L215.493 49.784C206.444 72.1812 217.943 75.9307 225.992 75.9307C230.791 75.9307 235.59 75.9307 239.34 75.9307C249.189 75.9307 259.937 68.8316 262.737 59.7328L273.886 24.3872C276.935 16.3383 272.036 7.2394 263.737 7.2394ZM245.889 59.1328H230.341L241.09 24.9872H256.638L245.889 59.1328ZM191.946 33.6361H215.993L208.644 59.2828C205.794 68.3317 197.145 75.9807 185.247 75.9807C181.497 75.9807 176.698 75.9807 171.899 75.9807C164.649 75.9807 151.201 73.781 161.4 49.834L169.549 24.0873C171.599 16.8382 181.047 8.0393 192.596 8.18928C196.845 8.18928 223.392 8.18928 223.392 8.18928L218.743 24.4872L218.593 24.9872H186.647L183.947 33.5361L178.498 50.6339L178.098 51.9337L175.748 59.1828H192.446L195.146 50.5339H186.597L191.946 33.6361ZM136.453 54.6334L139.953 42.335H133.503L129.904 54.7334H122.605L126.504 41.935C127.654 38.5854 131.154 35.3358 135.803 35.4858C137.503 35.4858 142.552 35.4858 142.552 35.4858C146.302 35.4858 148.102 38.5854 147.352 42.235L143.452 54.7834L136.453 54.6334ZM130.604 27.9368H121.305L118.455 36.0858H127.904L130.604 27.9368ZM105.907 40.8852H99.5577L103.807 27.1869H96.5581L92.1587 41.4351C91.3588 45.0346 93.2085 48.1842 96.9581 48.1842L94.9083 54.6334H101.907L103.957 48.1842C108.357 48.0342 111.706 44.9346 112.906 41.735L117.455 27.3869H110.456L105.907 40.8852ZM91.8087 34.036L84.9596 54.6334H77.9605L79.9102 47.8843H73.561L71.3613 54.6334H64.2622L71.1113 33.786C72.2612 30.4365 75.7607 27.1869 80.4102 27.3369C82.1099 27.3369 87.1593 27.3369 87.1593 27.3369C90.8588 27.3369 92.7086 30.4365 91.8087 34.036ZM84.4096 34.186H77.6605L75.3108 40.9351H82.0599L84.4096 34.186ZM49.2141 27.3369L40.5652 54.6334H61.4126L65.812 40.9351H58.8129L56.7631 47.7843H50.264L56.6132 27.3369C56.6132 27.3369 49.2141 27.3369 49.2141 27.3369ZM44.4147 34.186C44.4147 34.186 42.7149 39.3853 41.965 41.5851C39.3653 48.3342 32.7662 48.0342 32.7662 48.0342H26.417L24.2173 54.7834H17.1182L25.917 27.4868H39.5153C43.2649 27.3369 45.6146 30.0365 44.4147 34.186ZM37.4156 34.186H30.7164L28.3667 40.9351H35.1159L37.4156 34.186Z" stroke="black" stroke-width="1.5" stroke-miterlimit="10"/>
<path d="M278.385 64.831H12.8687C6.26954 64.831 3.01995 61.4814 1.62013 57.7319C0.82023 55.3822 0.82023 52.8325 1.47015 50.3329L6.36953 32.5851C7.76935 27.7857 11.8188 19.8867 21.9176 19.8867C21.9176 19.8867 222.092 19.8867 288.884 19.8867C298.083 19.8867 302.232 26.2359 300.682 33.335C299.632 38.5344 295.383 52.0826 295.383 52.0826C293.783 59.6817 287.434 64.831 278.385 64.831Z" fill="#007CBB"/>
<path d="M240.59 83.4798C222.842 83.4798 187.547 83.4798 169.949 83.4798C159.351 83.4798 149.102 73.631 150.552 63.1823C152.101 51.9337 158.451 34.336 161.95 23.4373C166.2 10.489 178.748 1.04019 189.497 1.04019C207.744 0.89021 244.34 0.640242 262.737 1.04019C278.135 1.44014 284.585 15.6383 281.485 25.6371C278.135 36.4857 272.686 53.7335 269.337 63.6823C266.237 73.1311 251.189 83.4798 240.59 83.4798Z" fill="black"/>
<path d="M263.736 7.24038C263.736 7.24038 252.088 7.24038 247.838 7.24038C236.34 7.0904 226.641 14.9894 223.641 24.0383L215.492 49.785C206.443 72.1822 217.942 75.9317 225.991 75.9317C230.79 75.9317 235.59 75.9317 239.339 75.9317C249.188 75.9317 259.937 68.8326 262.736 59.7337L273.885 24.3882C276.934 16.3392 272.035 7.24038 263.736 7.24038ZM245.888 59.1338H230.34L241.089 24.9881H256.637L245.888 59.1338ZM191.945 33.6371H215.992L208.643 59.2838C205.793 68.3326 197.145 75.9817 185.246 75.9817C181.497 75.9817 176.697 75.9817 171.898 75.9817C164.649 75.9817 151.2 73.782 161.399 49.835L169.548 24.0883C171.598 16.8392 181.047 8.04028 192.595 8.19026C196.845 8.19026 223.391 8.19026 223.391 8.19026L218.742 24.4882L218.592 24.9881H186.646L183.946 33.5371L178.497 50.6349L178.097 51.9347L175.747 59.1838H192.445L195.145 50.5349H186.596L191.945 33.6371Z" fill="#DD2027"/>
<path d="M136.452 54.634L139.952 42.3356H133.502L129.903 54.734H122.604L126.503 41.9356C127.653 38.5861 131.153 35.3365 135.802 35.4865C137.502 35.4865 142.551 35.4865 142.551 35.4865C146.301 35.4865 148.101 38.5861 147.351 42.2356L143.451 54.784L136.452 54.634ZM130.603 27.9374H121.304L118.454 36.0864H127.903L130.603 27.9374ZM105.906 40.8858H99.5567L103.806 27.1875H96.5571L92.1577 41.4357C91.3578 45.0352 93.2076 48.1848 96.9571 48.1848L94.9073 54.634H101.906L103.956 48.1848C108.356 48.0349 111.705 44.9353 112.905 41.7357L117.454 27.3875H110.455L105.906 40.8858ZM91.8077 34.0366L84.9586 54.634H77.9595L79.9092 47.8849H73.56L71.3603 54.634H64.2612L71.1104 33.7867C72.2602 30.4371 75.7598 27.1875 80.4092 27.3375C82.109 27.3375 87.1583 27.3375 87.1583 27.3375C90.8579 27.3375 92.7076 30.4371 91.8077 34.0366ZM84.4087 34.1866H77.6595L75.3098 40.9358H82.059L84.4087 34.1866ZM49.2131 27.3375L40.5642 54.634H61.4116L65.811 40.9358H58.8119L56.7622 47.7849H50.263L56.6122 27.3375H49.2131ZM44.4137 34.1866C44.4137 34.1866 42.7139 39.386 41.964 41.5857C39.3644 48.3348 32.7652 48.0349 32.7652 48.0349H26.416L24.2163 54.784H17.1172L25.9161 27.4875H39.5144C43.2639 27.3375 45.6136 30.0371 44.4137 34.1866ZM37.4146 34.1866H30.7155L28.3658 40.9358H35.1149L37.4146 34.1866Z" fill="black"/>
</svg>
