<svg width="300" height="141" viewBox="0 0 300 141" fill="none" xmlns="http://www.w3.org/2000/svg">
<path d="M121.588 74.3967V15.4407L171.38 40.3234L143.173 54.4134V40.3234C143.173 37.1897 140.634 34.6406 137.487 34.6406C134.352 34.6406 131.802 37.178 131.802 40.3234V63.6041C131.802 65.5802 132.819 67.3926 134.492 68.4333C136.177 69.474 138.26 69.5675 140.026 68.6789L186.624 45.3981C188.554 44.4393 189.759 42.4749 189.759 40.3234C189.759 38.1719 188.542 36.2074 186.624 35.2486L118.441 1.17525C116.675 0.298273 114.592 0.391817 112.908 1.4208C111.223 2.46148 110.217 4.27389 110.217 6.25V74.3967C110.217 77.5305 112.755 80.0795 115.903 80.0795C119.05 80.0795 121.588 77.5422 121.588 74.3967Z" fill="#FF002A"/>
<path d="M34.4304 110.949C33.787 109.429 32.7224 108.154 31.377 107.242C30.7101 106.786 29.9614 106.424 29.1659 106.178C28.3703 105.933 27.528 105.804 26.6622 105.804H3.50973C2.5855 105.804 1.68467 106.178 1.02952 106.833C0.374372 107.488 0 108.388 0 109.312V137.375C0 139.316 1.56768 140.883 3.50973 140.883C5.45178 140.883 7.01946 139.316 7.01946 137.375V129.19H26.6739C27.8322 129.19 28.9436 128.956 29.9497 128.524C31.4706 127.881 32.7458 126.816 33.6583 125.472C34.1146 124.805 34.4772 124.057 34.7229 123.262C34.9686 122.467 35.0973 121.625 35.0973 120.76V114.211C35.0973 113.066 34.8633 111.955 34.4304 110.949ZM28.0778 120.771C28.0778 120.97 28.0427 121.145 27.9725 121.321C27.8673 121.566 27.6918 121.789 27.4578 121.941C27.3408 122.022 27.2238 122.081 27.0951 122.116C26.9664 122.151 26.826 122.174 26.6739 122.174H7.01946V112.82H26.6739C26.8728 112.82 27.0483 112.855 27.2238 112.925C27.4695 113.03 27.6918 113.206 27.8439 113.44C27.9257 113.557 27.9842 113.674 28.0193 113.802C28.0544 113.931 28.0778 114.071 28.0778 114.223V120.771Z" fill="#101820"/>
<path d="M202.43 121.274C201.763 120.818 201.014 120.456 200.219 120.21C199.423 119.964 198.581 119.836 197.715 119.836H177.125C176.926 119.836 176.75 119.801 176.575 119.731C176.329 119.625 176.107 119.45 175.955 119.216C175.873 119.099 175.814 118.982 175.779 118.854C175.744 118.725 175.721 118.585 175.721 118.433V114.223C175.721 114.024 175.756 113.849 175.826 113.674C175.931 113.428 176.107 113.206 176.341 113.054C176.458 112.972 176.575 112.914 176.703 112.878C176.832 112.843 176.972 112.82 177.125 112.82H201.459C203.401 112.82 204.968 111.253 204.968 109.312C204.968 107.371 203.401 105.804 201.459 105.804H177.125C175.966 105.804 174.855 106.038 173.849 106.471C172.328 107.114 171.053 108.178 170.14 109.523C169.684 110.189 169.321 110.937 169.076 111.733C168.83 112.528 168.701 113.37 168.701 114.235V118.444C168.701 119.602 168.935 120.713 169.368 121.718C170.011 123.238 171.076 124.513 172.421 125.425C173.088 125.881 173.837 126.244 174.633 126.489C175.428 126.735 176.27 126.863 177.136 126.863H197.727C197.926 126.863 198.101 126.898 198.277 126.969C198.522 127.074 198.744 127.249 198.897 127.483C198.978 127.6 199.037 127.717 199.072 127.845C199.107 127.974 199.131 128.114 199.131 128.266V132.476C199.131 132.675 199.095 132.85 199.025 133.025C198.92 133.271 198.745 133.493 198.511 133.645C198.394 133.727 198.277 133.786 198.148 133.821C198.019 133.856 197.879 133.879 197.727 133.879H173.393C171.45 133.879 169.883 135.446 169.883 137.387C169.883 139.328 171.45 140.895 173.393 140.895H197.727C198.885 140.895 199.996 140.661 201.002 140.228C202.523 139.585 203.799 138.521 204.711 137.176C205.167 136.51 205.53 135.762 205.776 134.967C206.021 134.171 206.15 133.329 206.15 132.464V128.255C206.15 127.097 205.916 125.986 205.483 124.981C204.828 123.461 203.775 122.186 202.43 121.274Z" fill="#101820"/>
<path d="M160.254 106.67C158.792 105.395 156.581 105.547 155.305 106.997L141.559 122.689L127.824 106.997C126.549 105.535 124.326 105.395 122.876 106.67C121.425 107.944 121.273 110.166 122.548 111.616L138.061 129.331V137.364C138.061 139.305 139.629 140.872 141.571 140.872C143.513 140.872 145.08 139.305 145.08 137.364V129.331L160.593 111.616C161.857 110.166 161.705 107.944 160.254 106.67Z" fill="#101820"/>
<path d="M252.163 110.949C251.519 109.429 250.455 108.154 249.109 107.242C248.443 106.786 247.694 106.424 246.898 106.178C246.103 105.933 245.26 105.804 244.395 105.804H223.804C222.646 105.804 221.535 106.038 220.528 106.471C219.008 107.114 217.732 108.178 216.82 109.523C216.364 110.189 216.001 110.937 215.755 111.733C215.51 112.528 215.381 113.37 215.381 114.235V132.476C215.381 133.634 215.615 134.744 216.048 135.75C216.691 137.27 217.756 138.545 219.101 139.457C219.768 139.913 220.517 140.275 221.312 140.521C222.108 140.766 222.95 140.895 223.816 140.895H244.406C245.565 140.895 246.676 140.661 247.682 140.228C249.203 139.585 250.478 138.521 251.391 137.176C251.847 136.51 252.21 135.762 252.455 134.967C252.701 134.171 252.83 133.329 252.83 132.464V114.223C252.83 113.066 252.584 111.955 252.163 110.949ZM245.81 132.464C245.81 132.663 245.775 132.838 245.705 133.014C245.6 133.259 245.424 133.482 245.19 133.634C245.073 133.715 244.956 133.774 244.827 133.809C244.699 133.844 244.558 133.867 244.406 133.867H223.816C223.617 133.867 223.442 133.832 223.266 133.762C223.02 133.657 222.798 133.481 222.646 133.248C222.564 133.131 222.506 133.014 222.471 132.885C222.435 132.757 222.412 132.616 222.412 132.464V114.223C222.412 114.024 222.447 113.849 222.517 113.674C222.623 113.428 222.798 113.206 223.032 113.054C223.149 112.972 223.266 112.914 223.395 112.878C223.523 112.843 223.664 112.82 223.816 112.82H244.406C244.605 112.82 244.781 112.855 244.956 112.925C245.202 113.03 245.424 113.206 245.576 113.44C245.658 113.557 245.717 113.674 245.752 113.802C245.787 113.931 245.81 114.071 245.81 114.223V132.464Z" fill="#101820"/>
<path d="M296.478 105.804C294.536 105.804 292.968 107.371 292.968 109.312V129.366L268.447 106.74C267.418 105.793 265.944 105.547 264.657 106.108C263.381 106.669 262.551 107.921 262.551 109.324V137.387C262.551 139.328 264.118 140.895 266.061 140.895C268.003 140.895 269.57 139.328 269.57 137.387V117.333L294.103 139.959C295.133 140.907 296.607 141.152 297.894 140.591C299.169 140.03 300 138.778 300 137.375V109.312C299.988 107.371 298.42 105.804 296.478 105.804Z" fill="#101820"/>
<path d="M72.3005 133.867H51.2421V109.312C51.2421 107.371 49.6744 105.804 47.7324 105.804C45.7903 105.804 44.2227 107.371 44.2227 109.312V137.375C44.2227 138.299 44.597 139.199 45.2522 139.854C45.9073 140.509 46.8082 140.883 47.7324 140.883H72.3005C74.2425 140.883 75.8102 139.316 75.8102 137.375C75.8102 135.434 74.2425 133.867 72.3005 133.867Z" fill="#101820"/>
<path d="M120.033 140.883C118.828 140.883 117.646 140.263 117.003 139.141L103.654 116.269L90.3054 139.141C89.3344 140.813 87.1818 141.374 85.5088 140.404C83.8358 139.433 83.2743 137.282 84.2453 135.61L100.624 107.546C101.256 106.471 102.402 105.804 103.654 105.804C104.906 105.804 106.052 106.471 106.684 107.546L123.063 135.61C124.034 137.282 123.472 139.433 121.799 140.404C121.25 140.731 120.641 140.883 120.033 140.883Z" fill="#101820"/>
</svg>
