<svg width="300" height="157" viewBox="0 0 300 157" fill="none" xmlns="http://www.w3.org/2000/svg">
<path d="M239.273 49.3928C239.275 49.3811 239.276 49.3691 239.274 49.3571C239.628 34.8729 248.125 29.835 249.773 29.2696C249.796 29.2651 249.818 29.2673 249.839 29.2759C249.851 29.281 249.862 29.2876 249.872 29.2961C249.879 29.3025 249.885 29.3094 249.891 29.317C249.904 29.3357 249.911 29.3575 249.912 29.38C249.912 29.3946 249.91 29.4088 249.905 29.4221C249.903 29.4297 249.899 29.437 249.895 29.4439C243.469 40.3442 246.814 56.0441 247.168 57.556C247.2 57.6143 247.142 57.6725 247.078 57.6725C239.368 58.3509 231.914 60.7826 225.286 64.7823C225.279 64.7858 225.273 64.7889 225.265 64.7912C225.256 64.794 225.247 64.7959 225.237 64.7969C225.22 64.7981 225.203 64.7962 225.186 64.7908C225.17 64.7852 225.155 64.7766 225.142 64.7652C225.129 64.7538 225.119 64.7399 225.112 64.7244C224.583 63.0116 218.993 45.921 207.383 39.937C207.298 39.9107 207.298 39.7626 207.415 39.731C209.259 39.4665 218.961 39.1969 227.373 52.6292C227.432 52.714 227.579 52.6875 227.548 52.566C225.656 45.2074 223.051 20.3197 224.472 19.7913C225.714 19.3261 237.762 43.5794 239.094 49.389C239.096 49.4029 239.102 49.4159 239.11 49.427C239.116 49.4349 239.123 49.4422 239.131 49.4479C239.151 49.4618 239.176 49.4672 239.2 49.4627C239.212 49.4605 239.223 49.4561 239.234 49.4495C239.243 49.4431 239.252 49.4349 239.258 49.4254C239.265 49.4156 239.27 49.4045 239.273 49.3928Z" fill="#F59238"/>
<path d="M266.905 72.1779C259.195 69.2756 251.295 71.2738 249.277 76.6446C247.253 82.0156 251.871 88.729 259.576 91.6366C267.28 94.544 275.18 92.5457 277.204 87.175C279.228 81.8039 274.615 75.0798 266.905 72.1779Z" fill="#F59238"/>
<path fill-rule="evenodd" clip-rule="evenodd" d="M251.623 156.852C277.97 156.821 299.972 134.793 300 108.452C300 89.0864 288.024 71.1476 270.132 63.7346C252.242 56.3223 231.093 60.5335 217.404 74.229C203.712 87.9269 199.509 109.084 206.919 126.977C214.329 144.868 232.257 156.855 251.623 156.852ZM228.03 73.1597C235.013 68.4924 243.224 66.0021 251.623 66.0031C274.745 66.0349 294.053 85.3656 294.082 108.483C294.082 125.48 283.57 141.224 267.867 147.73C260.107 150.945 251.569 151.786 243.331 150.147C226.661 146.829 213.282 133.437 209.969 116.767C206.655 100.096 213.897 82.6041 228.03 73.1597Z" fill="#F59238"/>
<path d="M19.0973 121.288V96.8131H25.7027C28.0383 96.8131 30.1996 97.3734 31.3886 98.2615C33.3702 99.7734 33.9039 102.379 33.9039 103.891C33.9545 105.584 33.4083 107.24 32.3609 108.57C31.7109 109.4 30.0516 110.156 28.9261 110.615C30.4374 112.83 34.9977 121.606 34.9977 121.606H29.5919C29.5919 121.606 24.5296 111.356 24.0276 111.356H23.2508V121.288H19.0973ZM25.3645 101.079H23.2508V106.677H25.3645C26.6632 106.772 28.3411 106.281 29.012 105.062C29.4027 104.352 29.4117 103.438 29.0277 102.723C28.3653 101.49 26.6673 100.991 25.3645 101.079ZM0 121.288V96.8131H6.60005C8.94098 96.8131 11.1022 97.3734 12.2859 98.2615C14.2675 99.7734 14.7959 102.379 14.7959 103.891C14.7959 107.534 12.4233 110.082 10.1722 110.674C8.18683 111.103 6.16336 111.331 4.1323 111.356V121.288H0ZM6.27771 101.09H4.164V106.688H6.27771C7.57464 106.786 9.24967 106.301 9.91992 105.083C10.1171 104.725 10.2185 104.322 10.2145 103.913C10.2682 101.93 7.96239 100.975 6.27771 101.079V101.09ZM216.354 121.606V97.1408H223.255C225.591 97.1408 227.757 97.7012 228.941 98.5893C230.922 100.101 231.456 102.707 231.456 104.219C231.505 105.91 230.961 107.565 229.918 108.897C229.263 109.727 227.609 110.483 226.484 110.943C224.999 111.504 221.12 111.387 221.12 111.387L221.094 121.632H216.338V121.606H216.354ZM222.927 101.402H221.12V107.016H222.927C224.231 107.109 225.89 106.621 226.563 105.4C226.957 104.684 226.963 103.796 226.578 103.075C225.916 101.835 224.246 101.3 222.927 101.402ZM87.6132 100.191L84.3845 103.363C82.4346 101.555 79.3803 99.9848 76.8068 99.9848C75.6915 99.9777 74.5855 100.19 73.5517 100.609C70.1242 101.954 68.3452 105.422 68.3679 108.993C68.3679 111.713 69.1376 113.905 70.6771 115.569C72.1262 117.048 74.0711 117.939 76.1374 118.07C79.3115 118.27 83.3853 116.402 84.1467 113.047L76.8333 113.021L76.7751 108.792H89.4204C89.4204 113.354 88.5907 115.574 86.2498 118.243C83.9089 120.913 80.7753 122.24 76.7381 122.24C73.222 122.278 69.658 120.978 67.1375 118.498C65.9252 117.305 64.9699 115.876 64.3307 114.3C63.6459 112.623 63.3028 110.825 63.3214 109.014C63.2664 104.336 65.7497 99.8038 69.9056 97.5796C71.9924 96.4656 74.3253 95.8931 76.6906 95.9144C80.8203 95.8515 84.416 97.709 87.6132 100.191ZM117.549 96.8131L121.369 121.288H116.692L114.468 105.768L109.051 121.288H104.755L99.2227 105.562L97.0614 121.288H92.443L96.3216 96.8237H100.612L106.954 114.982L113.263 96.8237L117.549 96.8131ZM134.87 96.5171H139.098L149.286 121.606H144.002L141.92 116.531H132.149L130.072 121.627H124.983L134.87 96.5382V96.5171ZM140.466 111.847L138.781 107.845C138.252 106.482 137.623 104.705 136.942 102.517H136.826C136.028 105.16 135.43 106.931 135.108 107.845L133.449 111.815H140.466V111.847ZM258.517 96.5171H262.781L272.969 121.606H267.685L265.598 116.531H255.822L253.751 121.627H248.656L258.517 96.5382V96.5171ZM264.113 111.847L262.427 107.845C261.899 106.482 261.27 104.705 260.588 102.517H260.472C259.674 105.16 259.082 106.931 258.755 107.845L257.095 111.815H264.113V111.847ZM48.1767 96.5171H52.4041L62.5869 121.606H57.3026L55.2206 116.531H45.4447L43.3733 121.627H38.2845L48.1767 96.5171ZM53.741 111.847L52.0553 107.845C51.5269 106.482 50.8981 104.705 50.2164 102.517H50.1001C49.2969 105.16 48.7051 106.931 48.3828 107.845L46.7235 111.815H53.741V111.847ZM148.699 101.275V96.5646H163.326V101.275H158.438V121.537H153.556V101.285L148.699 101.275ZM166.671 121.78V96.8395H171.527V121.78H166.671ZM234.209 121.78V97.1408H239.092V117.229H245.877V121.785L234.209 121.78ZM276.875 121.574V110.795L269.413 96.9717H273.915L279.036 106.593H279.126L284.251 96.9717H288.748L281.171 110.774V121.553L276.875 121.574ZM189.055 118.169C187.917 118.228 186.78 118.03 185.729 117.589C182.33 116.162 180.648 112.6 180.648 109.045C180.648 106.349 181.414 104.187 182.984 102.501C184.53 100.824 186.775 99.8821 189.055 99.9531C194.561 99.9531 196.781 103.595 196.781 103.595L199.803 100.952C198.76 99.5602 197.439 98.3993 195.925 97.5426C193.836 96.3782 191.478 95.7856 189.087 95.8246C184.37 95.7531 179.767 98.1609 177.419 102.3C176.246 104.366 175.643 106.707 175.67 109.082L175.612 109.114C175.566 113.822 178.018 118.365 182.154 120.68C184.266 121.818 186.629 122.411 189.028 122.406C193.206 122.396 197.316 120.561 199.83 117.181L196.781 114.163C196.781 114.163 193.853 118.021 189.055 118.169Z" fill="black"/>
<path d="M35.0644 1.85896C34.5141 0.807164 33.2154 0.400618 32.1636 0.950914C31.1118 1.50121 30.7052 2.79996 31.2555 3.85176L39.3856 19.3911H44.2345C44.2203 19.3605 44.2053 19.3301 44.1895 19.3L35.0644 1.85896Z" fill="#E4E4E4"/>
<path d="M54.9587 39.565C57.1758 38.6467 59.552 38.174 61.9518 38.174C63.6137 38.174 64.9609 36.8268 64.9609 35.1649C64.9609 33.503 63.6137 32.1558 61.9518 32.1558C58.7617 32.1558 55.6029 32.7842 52.6556 34.0049C49.7084 35.2257 47.0304 37.0151 44.7747 39.2708C42.519 41.5265 40.7297 44.2045 39.5089 47.1517C38.2881 50.099 37.6597 53.2578 37.6597 56.4479C37.6597 58.1098 39.007 59.457 40.6688 59.457C42.3307 59.457 43.6779 58.1098 43.6779 56.4479C43.6779 54.0481 44.1506 51.6719 45.069 49.4548C45.9873 47.2377 47.3333 45.2232 49.0302 43.5263C50.7271 41.8294 52.7416 40.4834 54.9587 39.565Z" fill="#E4E4E4"/>
<path d="M58.7603 48.7406C59.7725 48.3213 60.8573 48.1055 61.9528 48.1055C63.6147 48.1055 64.9619 46.7583 64.9619 45.0964C64.9619 43.4346 63.6147 42.0874 61.9528 42.0874C60.067 42.0874 58.1996 42.4588 56.4572 43.1805C54.7149 43.9022 53.1318 44.96 51.7983 46.2935C50.4648 47.627 49.407 49.2101 48.6853 50.9525C47.9636 52.6948 47.5921 54.5622 47.5921 56.4481C47.5921 58.11 48.9393 59.4572 50.6012 59.4572C52.2631 59.4572 53.6103 58.11 53.6103 56.4481C53.6103 55.3525 53.8261 54.2677 54.2453 53.2555C54.6646 52.2434 55.2791 51.3237 56.0538 50.549C56.8285 49.7743 57.7481 49.1598 58.7603 48.7406Z" fill="#E4E4E4"/>
<path d="M64.9624 56.2794C64.9624 58.0342 63.5398 59.4568 61.785 59.4568C60.0301 59.4568 58.6076 58.0342 58.6076 56.2794C58.6076 54.5245 60.0301 53.102 61.785 53.102C63.5398 53.102 64.9624 54.5245 64.9624 56.2794Z" fill="#E4E4E4"/>
<path fill-rule="evenodd" clip-rule="evenodd" d="M27.1884 21.6509C21.0157 21.6509 16.0117 26.6548 16.0117 32.8275V62.0276C16.0117 68.2003 21.0157 73.2043 27.1884 73.2043H80.447C86.6197 73.2043 91.6236 68.2003 91.6236 62.0276V32.8275C91.6236 26.6548 86.6197 21.6509 80.447 21.6509H27.1884ZM26.0952 28.7538C25.1599 28.7538 24.3119 29.1274 23.6923 29.7328C23.0542 30.3574 22.6562 31.2289 22.6562 32.1928V62.6632C22.6562 64.5624 24.1961 66.1022 26.0952 66.1022H70.7716C72.6707 66.1022 74.2105 64.5624 74.2105 62.6632V32.1928C74.2105 30.2936 72.6707 28.7538 70.7716 28.7538H26.0952ZM85.8808 32.4959C85.8808 34.2514 84.4586 35.6737 82.7038 35.6737C80.9491 35.6737 79.5268 34.2514 79.5268 32.4959C79.5268 30.7411 80.9491 29.3188 82.7038 29.3188C84.4586 29.3188 85.8808 30.7411 85.8808 32.4959Z" fill="#E4E4E4"/>
<path d="M63.0744 0.950914C62.0226 0.400618 60.7238 0.807164 60.1735 1.85896L51.0485 19.3C51.0327 19.3301 51.0177 19.3605 51.0035 19.3911H55.8523L63.9824 3.85176C64.5327 2.79996 64.1262 1.50121 63.0744 0.950914Z" fill="#E4E4E4"/>
<path fill-rule="evenodd" clip-rule="evenodd" d="M103.975 49.7007C103.975 37.9878 113.47 28.4927 125.183 28.4927H177.395C189.108 28.4927 198.603 37.9878 198.603 49.7007C198.603 61.4135 189.108 70.9086 177.395 70.9086H125.183C113.47 70.9086 103.975 61.4135 103.975 49.7007ZM162.309 39.9009C163.185 40.2685 163.596 41.2763 163.229 42.1519L156.438 58.3258C156.171 58.9609 155.551 59.3756 154.862 59.3796C154.174 59.3836 153.549 58.9762 153.275 58.3442L146.261 42.1704C145.883 41.2991 146.283 40.2865 147.155 39.9087C148.026 39.5309 149.038 39.9309 149.416 40.8022L154.827 53.2793L160.058 40.8206C160.426 39.945 161.433 39.5332 162.309 39.9009ZM125.127 39.7668C126.077 39.7668 126.847 40.5366 126.847 41.4863V55.9407H134.479C135.429 55.9407 136.199 56.7105 136.199 57.6602C136.199 58.6098 135.429 59.3796 134.479 59.3796H125.127C124.178 59.3796 123.408 58.6098 123.408 57.6602V41.4863C123.408 40.5366 124.178 39.7668 125.127 39.7668ZM141.048 39.7668C141.997 39.7668 142.767 40.5366 142.767 41.4863V57.6602C142.767 58.6098 141.997 59.3796 141.048 59.3796C140.098 59.3796 139.328 58.6098 139.328 57.6602V41.4863C139.328 40.5366 140.098 39.7668 141.048 39.7668ZM167.271 41.49C167.271 40.5404 168.041 39.7705 168.991 39.7705H177.452C178.402 39.7705 179.172 40.5404 179.172 41.49C179.172 42.4397 178.402 43.2095 177.452 43.2095H170.71V47.8004H176.009C176.959 47.8004 177.729 48.5702 177.729 49.5199C177.729 50.4695 176.959 51.2394 176.009 51.2394H170.71V55.8306H177.452C178.402 55.8306 179.172 56.6004 179.172 57.5501C179.172 58.4997 178.402 59.2696 177.452 59.2696H168.991C168.041 59.2696 167.271 58.4997 167.271 57.5501V41.49Z" fill="#E4E4E4"/>
</svg>
