<svg width="300" height="95" viewBox="0 0 300 95" fill="none" xmlns="http://www.w3.org/2000/svg">
<path fill-rule="evenodd" clip-rule="evenodd" d="M35.407 31.9779L47.7496 52.9036C48.1374 53.4724 47.684 54.2295 47.0248 54.2264H37.0667C36.487 54.2381 35.9223 53.9099 35.645 53.4018L24.2041 33.1342H11.1977V53.2081C11.1977 53.7623 10.7342 54.2264 10.1798 54.2264H1.01828C0.463848 54.2264 0.000379793 53.7623 0.000379793 53.2081V1.86446C-0.0147401 1.31244 0.444485 0.831283 1.00169 0.824219H27.0035C37.714 0.984749 46.195 3.91229 46.195 16.6525C46.195 26.2218 41.7858 30.6273 35.407 31.9779ZM11.1977 23.8475H27.1086C33.0282 23.8475 34.8538 20.6872 34.8538 17.04C34.8538 13.3932 33.0558 10.4432 27.1086 10.4432H11.1977V23.8475Z" fill="black"/>
<path d="M77.5298 14.3227C75.949 16.6298 75.5381 19.8746 75.5381 22.6024H105.667C106.223 22.6024 106.685 23.069 106.685 23.6207V30.8601C106.685 31.4124 106.214 31.8784 105.667 31.8784H75.5381C75.5381 34.801 75.8254 38.2691 77.5298 40.7552C79.5755 43.5221 82.9425 44.92 86.3316 44.9504H105.667C106.215 44.9592 106.668 45.421 106.668 45.9687V53.1968C106.668 53.7572 106.204 54.2151 105.65 54.2151H84.3234C72.5506 54.2151 63.0019 43.8882 63.0019 31.1586V23.892C63.0019 11.1517 72.5506 0.824219 84.3234 0.824219H105.667C106.222 0.824219 106.685 1.288 106.685 1.84252V9.10921C106.685 9.66911 106.22 10.1275 105.667 10.1275H86.3482C82.9561 10.1589 79.5846 11.5602 77.5298 14.3227Z" fill="black"/>
<path d="M259.177 8.69932C259.177 13.0369 255.662 16.553 251.327 16.553C246.991 16.553 243.476 13.0369 243.476 8.69932C243.476 4.36232 246.991 0.846158 251.327 0.846158C255.662 0.846158 259.177 4.36232 259.177 8.69932Z" fill="black"/>
<path d="M239.239 94.3007C239.947 94.3007 240.301 93.8801 240.301 93.0614L240.295 75.6331C240.295 74.7754 239.886 74.3436 239.067 74.3436C238.363 74.3245 237.868 74.9602 237.889 75.6331V89.8514L227.604 75.1184C227.324 74.6325 226.793 74.3109 226.232 74.2884C225.557 74.2884 225.22 74.7197 225.22 75.578V93.0058C225.22 93.8304 225.613 94.2456 226.398 94.2456C227.083 94.3496 227.696 93.7481 227.604 93.0614V78.7325L237.894 93.5259C238.174 93.9959 238.689 94.2942 239.239 94.3007Z" fill="black"/>
<path d="M135.846 94.3173C136.631 94.3173 137.024 93.8026 137.024 92.696L134.153 75.921C134.058 74.9887 133.231 74.2677 132.294 74.305C131.512 74.2909 130.766 74.7782 130.562 75.539L126.43 89.9787H126.38L122.209 75.6497C122.02 74.8219 121.258 74.2885 120.422 74.3104C119.457 74.308 118.716 75.1069 118.613 76.0371L115.763 92.5852C115.5 93.8242 115.763 94.4532 116.815 94.5442C117.51 94.6043 118.131 94.0517 118.153 93.3547L120.455 77.4375L125.174 93.3547C125.289 93.9287 125.822 94.3457 126.408 94.3173C126.98 94.3321 127.486 93.9142 127.586 93.3547L132.36 77.4429L134.612 93.2493C134.63 93.8803 135.22 94.3899 135.846 94.3173Z" fill="black"/>
<path d="M17.3881 85.159C17.3881 88.5238 16.4108 91.0382 14.456 92.7024C13.2278 93.7501 11.4427 94.2745 9.10073 94.2745C6.24609 94.2745 4.05345 93.1674 2.52285 90.9537C1.21092 89.1001 0.510667 86.8826 0.520165 84.6111C0.498025 81.7183 1.22463 79.3291 2.6999 77.4439C4.23153 75.4686 6.67295 74.3737 9.15605 74.3666C11.5279 74.327 14.2066 74.959 15.8502 76.7799C16.2325 77.2277 16.2402 77.9679 15.7616 78.3461C15.2398 78.7735 14.5182 78.6986 14.0134 78.2905C12.6606 77.1804 11.1017 76.4233 9.32206 76.4476C7.38674 76.3612 5.51298 77.3668 4.5145 79.0268C3.56757 80.5609 3.07635 82.3326 3.09822 84.1349C3.07608 86.9243 3.85432 89.1199 5.43281 90.7209C6.36255 91.6493 7.62124 92.1726 8.93478 92.1769C9.968 92.1956 10.9906 91.9655 11.9167 91.507C13.9747 90.5143 15.0037 88.6805 15.0037 86.0056V85.1537H11.5128C10.9131 85.1983 10.3818 84.6905 10.4064 84.0851C10.4673 83.2937 10.8047 82.9009 11.4188 82.9009H15.8059C16.8681 82.9009 17.3992 83.504 17.3992 84.7106L17.3881 85.159Z" fill="black"/>
<path d="M299.729 85.159C299.729 88.5238 298.751 91.0382 296.797 92.7024C295.569 93.7501 293.784 94.2745 291.441 94.2745C288.587 94.2745 286.394 93.1674 284.864 90.9537C283.554 89.0985 282.854 86.8821 282.861 84.6111C282.839 81.7183 283.565 79.3291 285.041 77.4439C286.572 75.4686 289.014 74.3737 291.497 74.3666C293.869 74.327 296.547 74.959 298.191 76.7799C298.476 77.1137 298.563 77.6066 298.375 78.0042C298.241 78.2848 297.968 78.4836 297.677 78.5789C297.223 78.729 296.72 78.5865 296.354 78.2905C295.001 77.1803 293.442 76.4233 291.663 76.4476C289.727 76.3612 287.854 77.3669 286.855 79.0268C285.908 80.5609 285.417 82.3326 285.439 84.1349C285.417 86.9243 286.195 89.1199 287.774 90.7209C288.703 91.6493 289.962 92.1726 291.276 92.1769C292.309 92.1956 293.331 91.9655 294.257 91.507C296.315 90.5143 297.344 88.6805 297.344 86.0056V85.1537H293.854C293.564 85.1751 293.27 85.0691 293.061 84.8679C292.848 84.6617 292.743 84.3775 292.747 84.0851C292.808 83.2937 293.145 82.9009 293.759 82.9009H298.147C299.209 82.9009 299.74 83.504 299.74 84.7106L299.729 85.159Z" fill="black"/>
<path d="M181.974 92.8956C181.974 93.7977 181.587 94.2461 180.818 94.2461C180.049 94.2461 179.59 93.8143 179.59 92.9512V75.6337C179.59 74.7759 179.999 74.3441 180.818 74.3441C181.636 74.3441 181.974 74.7759 181.974 75.6337V92.8956Z" fill="black"/>
<path fill-rule="evenodd" clip-rule="evenodd" d="M73.4857 94.3013C72.9281 94.3013 72.4193 93.9273 72.252 93.3937L70.9574 89.8519H61.8955L60.6009 93.3991C60.409 94.0361 59.7856 94.3009 59.1653 94.2515C58.2458 94.1782 58.2475 93.3073 58.4213 92.6243L64.728 75.7498C64.9688 75.008 65.5749 74.3066 66.4043 74.2943C67.2392 74.2919 67.8516 74.9435 68.1027 75.6947L74.4981 92.6243C74.7193 93.4369 74.5651 94.3013 73.4857 94.3013ZM70.2437 87.7709L66.4541 77.1502H66.3877L62.6258 87.7709H70.2437Z" fill="black"/>
<path d="M300 8.69986C300.004 13.5844 295.36 17.349 290.622 16.4085C287.539 15.7967 285.064 13.3217 284.451 10.2399C283.499 5.45805 287.272 0.852044 292.15 0.852044C296.424 0.852044 299.997 4.42586 300 8.69986Z" fill="black"/>
<path d="M259.177 46.8933C259.177 51.2309 255.662 54.747 251.327 54.747C246.991 54.747 243.476 51.2309 243.476 46.8933C243.476 42.5558 246.991 39.0402 251.327 39.0402C255.662 39.0402 259.177 42.5558 259.177 46.8933Z" fill="black"/>
<path d="M300 46.8933C300 51.7681 295.4 55.5473 290.618 54.5961C287.536 53.9821 285.063 51.5073 284.45 48.4253C283.5 43.6441 287.274 39.0402 292.15 39.0402C296.427 39.0402 300 42.617 300 46.8933Z" fill="black"/>
<path d="M279.586 27.7832C279.583 23.5091 276.011 19.9349 271.736 19.9349C266.859 19.9349 263.084 24.5412 264.036 29.3227C264.65 32.4049 267.125 34.879 270.207 35.4919C274.991 36.4413 279.589 32.6586 279.586 27.7832Z" fill="black"/>
<path fill-rule="evenodd" clip-rule="evenodd" d="M230.57 52.9475L208.684 1.72587C208.536 1.24647 208.078 0.891644 207.577 0.868097H198.101C197.589 0.892149 197.144 1.24101 196.994 1.72587L175.075 52.9475C174.757 53.5166 175.19 54.2258 175.828 54.2258H185.576C186.07 54.2248 186.539 53.9021 186.715 53.4398L191.218 41.5353H214.41L218.913 53.4398C219.09 53.9055 219.552 54.2248 220.053 54.2258H229.795C230.448 54.2558 230.923 53.504 230.57 52.9475ZM194.814 32.0383L202.825 11.3834L210.83 32.0383H194.814Z" fill="black"/>
<path d="M160.359 54.2157C160.862 54.1635 161.245 53.7055 161.2 53.1974V45.9692C161.245 45.464 160.864 45.0025 160.359 44.9509H144.316C141.337 44.9153 138.526 43.2904 137.007 40.7279C136.463 39.5913 136.166 38.352 136.139 37.0919V1.7264C136.069 1.23249 135.63 0.849852 135.127 0.852044H125.965C125.316 0.852044 124.892 1.44233 124.947 2.05335V36.8928C125.037 41.5257 126.943 45.9382 130.255 49.1788C133.566 52.4188 138.018 54.228 142.65 54.2157H160.359Z" fill="black"/>
</svg>
