<svg width="300" height="189" viewBox="0 0 300 189" fill="none" xmlns="http://www.w3.org/2000/svg">
<path d="M74.5416 140.667C74.5291 139.073 73.1581 137.766 71.5654 137.826C69.7427 137.855 68.3583 139.601 68.7501 141.383C69.0032 142.534 69.9538 143.44 71.1151 143.64C72.9118 143.949 74.5959 142.49 74.5416 140.667Z" fill="black"/>
<path d="M69.442 176.787H73.7873V148.977H69.442V176.787Z" fill="black"/>
<path fill-rule="evenodd" clip-rule="evenodd" d="M23.2037 151.295H27.5397C26.6673 148.285 25.3382 145.624 22.6535 143.807C20.3595 142.255 17.3317 141.384 13.5962 141.384C10.2287 141.384 7.13473 142.272 4.85879 143.996C2.56002 145.738 1.13738 148.306 1.13738 151.514C1.13738 154.301 2.39176 156.65 4.75132 158.142C6.96866 159.544 10.127 160.398 13.8684 161.245L13.8718 161.245C17.3216 162.012 19.7371 162.601 21.3087 163.478C22.7088 164.259 23.4143 165.448 23.4143 167.055C23.4143 169.003 22.6188 170.468 21.2133 171.477C19.7716 172.513 17.6179 173.114 14.8746 173.114C11.8591 173.114 9.56518 172.458 7.89428 171.286C5.86206 169.862 4.9253 167.692 4.33557 165.368H0C0.665684 168.816 1.90357 172.013 4.75457 174.262C7.22827 176.213 10.6257 177.317 14.9724 177.317C18.369 177.317 21.5474 176.508 23.9024 174.782C26.2909 173.032 27.7665 170.383 27.7665 166.901C27.7665 163.989 26.5116 161.506 24.0048 159.98C21.7245 158.591 18.5108 157.821 14.8343 157.023C10.8956 156.148 8.52549 155.407 7.13911 154.551C6.04002 153.871 5.48262 152.936 5.48262 151.64C5.48262 149.697 6.28889 148.227 7.6687 147.214C9.07947 146.178 11.1514 145.58 13.694 145.58C17.9697 145.58 21.5259 147.271 23.2037 151.295Z" fill="black"/>
<path fill-rule="evenodd" clip-rule="evenodd" d="M39.0482 153.031V148.978H34.7029V188.609H39.0482V172.733C39.9254 173.773 40.9662 174.673 42.136 175.395C44.2216 176.682 46.6308 177.349 49.0817 177.318C56.9092 177.315 62.2891 171.099 62.2891 162.89C62.2891 154.682 56.8895 148.436 49.0814 148.433C46.6279 148.404 44.2168 149.075 42.1309 150.366C40.9627 151.089 39.9236 151.99 39.0482 153.031ZM48.6986 152.706C54.3839 152.706 57.9438 157.489 57.9438 162.89C57.9438 168.265 54.3949 173.073 48.7265 173.073C43.2591 173.073 39.0482 168.843 39.0482 162.89C39.0482 156.931 43.1947 152.706 48.6986 152.706Z" fill="black"/>
<path d="M101.478 176.788H105.851V159.345C105.851 155.993 104.93 153.243 103.112 151.327C101.288 149.405 98.6737 148.444 95.535 148.455C92.8233 148.455 90.5547 149.176 88.7336 150.459C87.8731 151.066 87.124 151.789 86.48 152.605V148.978H82.1348V176.788H86.48V162.744C86.48 159.661 87.291 157.15 88.7253 155.428C90.1423 153.726 92.2381 152.707 95.0197 152.707C97.1358 152.707 98.7129 153.313 99.7657 154.404C100.823 155.498 101.478 157.21 101.478 159.673V176.788Z" fill="black"/>
<path d="M182.999 176.788H187.337V158.78C187.337 155.616 186.556 153.009 184.924 151.187C183.278 149.349 180.887 148.444 177.957 148.455C175.358 148.455 173.257 149.199 171.6 150.523C170.576 151.342 169.746 152.364 169.073 153.522C168.538 152.268 167.774 151.212 166.774 150.39C165.191 149.088 163.111 148.455 160.649 148.455C158.161 148.455 156.147 149.149 154.54 150.405C153.871 150.928 153.283 151.54 152.766 152.222V148.978H148.379V176.788H152.769L152.724 162.709V162.706C152.724 159.903 153.369 157.363 154.604 155.553C155.815 153.778 157.608 152.672 160.076 152.672C161.98 152.672 163.333 153.217 164.224 154.195C165.128 155.188 165.689 156.773 165.689 159.122V176.788H170.079L170.034 162.709V162.706C170.035 159.903 170.679 157.363 171.914 155.553C173.125 153.778 174.918 152.672 177.386 152.672C179.318 152.672 180.668 153.219 181.551 154.193C182.448 155.184 182.999 156.768 182.999 159.122V176.788Z" fill="black"/>
<path fill-rule="evenodd" clip-rule="evenodd" d="M201.58 170.577C200.06 169.162 199.023 167.152 198.723 164.611H222.089C222.16 160.351 221.401 156.059 218.493 152.761C216.069 150.013 212.559 148.433 208.318 148.433C200.172 148.433 194.253 154.466 194.253 162.98C194.253 167.216 195.73 170.812 198.277 173.352C200.823 175.891 204.382 177.318 208.444 177.318C214.869 177.318 219.451 173.654 221.828 167.923H217.314C215.556 171.343 212.342 173.073 208.507 173.073C205.68 173.073 203.29 172.169 201.58 170.577ZM208.318 152.657C213.17 152.657 216.573 155.783 217.471 160.408H198.856C199.817 155.812 203.443 152.657 208.318 152.657Z" fill="black"/>
<path d="M248.216 176.788H252.561V159.345C252.561 155.993 251.64 153.244 249.831 151.329C248.016 149.407 245.418 148.444 242.308 148.455C239.593 148.455 237.323 149.176 235.501 150.459C234.64 151.066 233.89 151.79 233.246 152.606V148.978H228.873V176.788H233.218V162.744C233.218 159.661 234.031 157.151 235.466 155.428C236.884 153.726 238.98 152.707 241.758 152.707C243.874 152.707 245.451 153.313 246.504 154.404C247.561 155.498 248.216 157.21 248.216 159.673V176.788Z" fill="black"/>
<path fill-rule="evenodd" clip-rule="evenodd" d="M282.69 176.788H287.035V148.978H282.697V153.009C281.824 151.972 280.788 151.075 279.623 150.355C277.54 149.067 275.133 148.401 272.684 148.434C264.906 148.437 259.47 154.68 259.47 162.89C259.47 171.102 264.852 177.316 272.727 177.318C275.161 177.344 277.553 176.679 279.624 175.402C280.784 174.687 281.817 173.796 282.69 172.766V176.788ZM273.067 152.706C278.535 152.706 282.745 156.937 282.745 162.89C282.745 168.88 278.504 173.074 273.067 173.074C267.682 173.074 263.822 168.893 263.822 162.89C263.822 156.885 267.649 152.706 273.067 152.706Z" fill="black"/>
<path d="M300 138.58H295.606V176.787H300V138.58Z" fill="black"/>
<path fill-rule="evenodd" clip-rule="evenodd" d="M127.025 177.317C135.008 177.315 141.275 171.137 141.275 162.889C141.275 155.127 134.778 148.649 127.02 148.649C119.267 148.649 112.772 155.12 112.766 162.878C112.589 170.744 119.162 177.388 127.025 177.317ZM127.02 173.073C121.532 173.073 117.153 168.814 117.153 162.889C117.153 156.868 121.573 152.705 127.02 152.705C132.461 152.705 136.88 156.966 136.88 162.889C136.88 168.815 132.508 173.073 127.02 173.073Z" fill="black"/>
<path d="M99.4083 0.824219H147.765C165.027 1.30366 194.552 18.1938 201 39.2595C196.986 37.2066 192.255 34.4599 187.245 33.2156C179.519 30.798 168.977 31.6003 159.198 31.6003H129.475C129.078 33.6221 129.475 36.4568 129.475 38.4786C144.52 38.8851 160.767 38.4786 176.209 38.4786C182.963 38.4786 192.04 38.4786 196.38 42.6052C199.577 46.1261 200.284 48.7081 201 51.4223V106.011C200.284 106.92 197.774 106.813 196.53 106.813H165.625C153.804 106.813 142.467 107.219 133.924 103.176C126.036 100.041 118.86 95.3632 112.819 89.4191C107.124 83.3537 101.848 76.8819 99 68.3882C103.475 70.7722 107.789 73.1982 112.819 74.4322C120.492 76.8818 131.109 76.0689 140.909 76.0689H170.525V68.784H119.729C110.148 68.784 99.8379 66.8503 99 55.4338V1.63721C99 1.23072 99.4083 1.23072 99.4083 0.824219Z" fill="url(#paint0_linear)"/>
<defs>
<linearGradient id="paint0_linear" x1="99" y1="53.872" x2="201" y2="53.872" gradientUnits="userSpaceOnUse">
<stop stop-color="#00BED6"/>
<stop offset="1" stop-color="#B94CA1"/>
</linearGradient>
</defs>
</svg>
