<svg xmlns="http://www.w3.org/2000/svg" width="301" height="123" fill="none" viewBox="0 0 301 123"><path fill="#000" d="M.438 77.986v-6.203h16.35v7.219c0 6.608 2.55 9.913 7.647 9.913h.064c5.05 0 7.578-3.295 7.578-9.88 0-3.764-1.088-7.292-3.272-10.587-2.18-3.294-4.787-6.307-7.822-9.036l-8.195-8.468c-3.387-2.963-6.22-6.633-8.5-11.008C2.002 35.556.86 30.709.86 25.393c0-8.182 2.155-14.457 6.465-18.832C11.632 2.186 17.486 0 24.88 0c7.395 0 13.072 2.186 17.037 6.558 3.965 4.371 5.947 10.646 5.947 18.824v3.245h-15.08V24.4c0-6.63-2.664-9.946-7.997-9.946-5.334 0-7.998 3.32-7.998 9.953 0 2.776.581 5.423 1.741 7.942a26.423 26.423 0 0 0 4.515 6.811 82.276 82.276 0 0 0 6.116 5.996 156.643 156.643 0 0 1 6.597 6.214 62.925 62.925 0 0 1 6.02 6.952c1.838 2.468 3.335 5.387 4.492 8.75 1.156 3.367 1.734 7.023 1.734 10.976 0 8.16-2.029 14.42-6.087 18.782-4.058 4.361-9.786 6.543-17.184 6.543-7.398 0-13.299-2.186-17.698-6.558-4.4-4.371-6.598-10.65-6.598-18.828Z"/><path fill="#000" fill-rule="evenodd" d="M57.065 102.241V1.13H80.53c15.83 0 23.749 8.353 23.749 25.057V39.32c0 16.657-7.911 24.989-23.731 24.989h-7.556v37.932H57.064Zm15.927-52.39h7.574c2.593 0 4.54-.729 5.84-2.185 1.296-1.456 1.946-3.924 1.946-7.405V25.103c0-3.481-.65-5.935-1.947-7.37-1.3-1.434-3.246-2.15-5.839-2.15h-7.574v34.269ZM111.709 1.126v101.115h15.927V61.136h5.52c3.681 0 6.335.994 7.966 2.99 1.627 1.993 2.442 5.291 2.442 9.888v15.838c.047 5.399.539 9.527 1.476 12.389h16.146c-1.131-2.58-1.698-6.45-1.698-11.613V74.437c0-11.384-3.523-18.557-10.569-21.523 6.952-3.29 10.429-10.135 10.429-20.53v-7.972c0-7.902-1.886-13.759-5.657-17.569-3.767-3.81-9.754-5.717-17.949-5.717h-24.033Zm22.155 45.553h-6.228V15.583h7.715c5.426 0 8.116 3.481 8.069 10.436v9.942c0 3.856-.79 6.604-2.37 8.25-1.58 1.645-3.976 2.468-7.186 2.468Z" clip-rule="evenodd"/><path fill="#000" d="M169.967 102.242h15.927V1.127h-15.927v101.115Z"/><path fill="#000" fill-rule="evenodd" d="M197.5 1.13v101.114h25.06c7.926 0 13.942-2.046 18.05-6.135 4.105-4.09 6.156-10.039 6.156-17.841v-8.25c0-11.327-3.962-18.546-11.891-21.648 6.891-3.194 10.336-9.988 10.336-20.377v-3.595c0-7.9-1.889-13.752-5.664-17.559-3.774-3.806-9.768-5.71-17.978-5.71H197.5Zm25.06 86.657h-9.133V56.763h7.151c3.681 0 6.31.891 7.89 2.68 1.584 1.785 2.374 4.98 2.374 9.587v8.815c0 3.667-.686 6.24-2.055 7.72-1.368 1.482-3.444 2.222-6.227 2.222Zm-2.876-45.48h-6.257V15.581h7.75c5.452 0 8.153 3.481 8.106 10.436v5.642c0 3.806-.794 6.532-2.385 8.178-1.587 1.646-3.993 2.468-7.214 2.468Z" clip-rule="evenodd"/><path fill="#000" d="M256.322 102.242V1.127h43.462v14.457H272.25v28.134h21.871V58.17H272.25v29.614h27.534v14.457h-43.462ZM300.008 122.831h-300v-14.039h300v14.039Z"/></svg>