<svg width="300" height="97" viewBox="0 0 300 97" fill="none" xmlns="http://www.w3.org/2000/svg">
<path d="M42.8255 89.4927C64.8932 89.4927 82.7826 71.5415 82.7826 49.3977C82.7826 27.2539 64.8932 9.30273 42.8255 9.30273C20.7577 9.30273 2.86829 27.2539 2.86829 49.3977C2.86829 71.5415 20.7577 89.4927 42.8255 89.4927Z" fill="#26A17B"/>
<path d="M47.0846 53.0978V53.0914C46.8084 53.1107 45.3822 53.1945 42.2088 53.1945C39.6713 53.1945 37.8919 53.1236 37.2623 53.0914V53.0978C27.5043 52.6659 20.2259 50.9641 20.2259 48.9207C20.2259 46.8837 27.5107 45.1755 37.2623 44.7436V51.4025C37.8983 51.4476 39.7291 51.5572 42.2538 51.5572C45.2859 51.5572 46.8019 51.4283 47.0846 51.4025V44.7501C56.8234 45.1884 64.0825 46.8902 64.0825 48.9272C64.0825 50.9641 56.8169 52.6659 47.0846 53.1042V53.0978ZM47.0846 44.0603V38.1041H60.6713V29.0215H23.682V38.1041H37.2688V44.0603C26.2259 44.5696 17.9261 46.7613 17.9261 49.3913C17.9261 52.0213 26.2324 54.213 37.2688 54.7287V73.8221H47.091V54.7287C58.1146 54.2194 66.4015 52.0277 66.4015 49.3977C66.4015 46.7741 58.1146 44.576 47.091 44.0668" fill="white"/>
<path d="M116.724 31.5032V41.1337H126.051V48.3598H116.66V63.0119C116.66 66.2479 118.439 67.8272 121.047 67.8272C122.351 67.8272 123.861 67.4146 125.094 66.7958L127.426 73.951C125.03 74.9115 123.039 75.324 120.501 75.3949C113.165 75.6721 108.366 71.4757 108.366 63.0119V48.3598H102.058V41.1337H108.366V32.3992L116.724 31.5032ZM277.535 40.6825L278.152 44.6017C280.76 40.4053 284.255 39.7865 287.685 39.7865C291.18 39.7865 294.54 41.1595 296.39 43.016L292.619 50.3066C290.904 48.8626 289.33 48.102 286.587 48.102C282.199 48.102 278.152 50.4419 278.152 56.7011V74.5892H269.788V40.6696L277.535 40.6825ZM257.036 53.6843C256.49 49.2816 253.06 47.0771 248.261 47.0771C243.739 47.0771 240.032 49.2816 238.799 53.6843H257.036ZM238.664 60.6333C239.21 64.8297 242.846 67.8594 248.743 67.8594C251.827 67.8594 255.874 66.6862 257.794 64.6943L263.139 69.9931C259.574 73.7061 253.747 75.4981 248.602 75.4981C236.949 75.4981 230.017 68.272 230.017 57.4038C230.017 47.0835 237.013 39.6511 247.985 39.6511C259.298 39.6511 266.364 46.6709 265.06 60.6333H238.664ZM201.777 26.4365V45.285C204.797 41.3658 208.497 40.1926 212.338 40.1926C221.936 40.1926 226.188 46.729 226.188 56.7076V74.5956H217.824V56.7785C217.824 50.5838 214.6 47.9731 210.141 47.9731C205.201 47.9731 201.777 52.1695 201.777 57.262V74.6021H193.413V26.443L201.777 26.4365ZM179.563 31.1164V40.7469H188.891V47.9731H179.499V62.6251C179.499 65.8611 181.285 67.4404 183.886 67.4404C185.191 67.4404 186.7 67.0278 187.934 66.409L190.266 73.5642C187.869 74.5247 185.878 74.9373 183.34 75.0082C176.004 75.2854 171.206 71.0825 171.206 62.6251V47.9731H164.897V40.7469H171.206V32.0124L179.563 31.1164ZM156.456 53.6843C155.91 49.2816 152.48 47.0771 147.681 47.0771C143.158 47.0771 139.452 49.2816 138.218 53.6843H156.456ZM138.083 60.6333C138.63 64.8297 142.266 67.8594 148.163 67.8594C151.246 67.8594 155.293 66.6862 157.214 64.6943L162.559 69.9931C158.994 73.7061 153.167 75.4981 148.021 75.4981C136.362 75.4981 129.437 68.272 129.437 57.4038C129.437 47.0835 136.433 39.6511 147.398 39.6511C158.711 39.6511 165.771 46.6709 164.473 60.6333H138.083Z" fill="#5B5A5D"/>
</svg>
