<svg width="300" height="98" viewBox="0 0 300 98" fill="none" xmlns="http://www.w3.org/2000/svg">
<g clip-path="url(#clip0_10165_207)">
<path d="M113.903 2.32751L74.6266 96.1115H49.0016L29.6734 21.2676C28.5 16.6577 27.4797 14.9688 23.9109 13.0267C18.0875 9.8632 8.46562 6.89677 0 5.05468L0.575 2.32751H41.8234C47.0813 2.32751 51.8078 5.8303 53.0016 11.8898L63.2094 66.158L88.4375 2.32751H113.903ZM214.308 65.4919C214.411 40.7393 180.108 39.3758 180.344 28.3185C180.417 24.9533 183.619 21.3755 190.627 20.4623C194.1 20.0072 203.67 19.6601 214.525 24.6593L218.783 4.77165C212.95 2.65277 205.445 0.613647 196.108 0.613647C172.147 0.613647 155.284 13.3613 155.142 31.6149C154.988 45.1163 167.178 52.6504 176.362 57.1368C185.811 61.7311 188.981 64.6834 188.945 68.7929C188.878 75.0839 181.409 77.8611 174.43 77.9705C162.245 78.1582 155.175 74.671 149.539 72.0486L145.145 92.5947C150.809 95.1952 161.264 97.4642 172.103 97.5783C197.57 97.5783 214.23 84.9886 214.308 65.4919ZM277.58 96.1131H300L280.43 2.32751H259.736C255.083 2.32751 251.158 5.03905 249.42 9.20799L213.044 96.1115H238.498L243.553 82.102H274.655L277.581 96.1115L277.58 96.1131ZM250.531 62.882L263.291 27.6696L270.634 62.882H250.533H250.531ZM148.541 2.32751L128.495 96.1115H104.255L124.308 2.32751H148.541Z" fill="#1434CB"/>
</g>
<defs>
<clipPath id="clip0_10165_207">
<rect width="300" height="98" fill="white"/>
</clipPath>
</defs>
</svg>
