<svg width="284" height="35" viewBox="0 0 284 35" fill="none" xmlns="http://www.w3.org/2000/svg">
<path fill-rule="evenodd" clip-rule="evenodd" d="M90.9349 0H3.68622C0.408226 0 -1.23186 4.04159 1.08408 6.40592L27.3498 33.1949C29.6746 35.566 33.4413 35.566 35.7638 33.1949L54.2011 14.3903C56.4158 12.1315 60.2046 13.7302 60.2046 16.9275V30.5095C60.2046 34.5017 64.9377 36.5023 67.7072 33.6777L93.8034 7.06156C96.3593 4.45473 94.5497 0 90.9349 0ZM210.901 13.413V0H217V34.506H211.177L210.784 31.9572C209.233 33.8008 206.65 35 203.245 35C196.668 35 192 29.7722 192 22.4785C192 15.1848 196.668 10.0109 203.245 10.0109C206.963 10.0109 209.359 11.4144 210.901 13.413ZM198.234 22.4516C198.234 26.2579 200.825 29.2512 204.522 29.2512C208.177 29.2512 210.829 26.2713 210.829 22.4516C210.829 18.6318 208.219 15.7574 204.522 15.7574C200.825 15.7574 198.234 18.6453 198.234 22.4516ZM163.183 10.4987L162.787 13.0506C161.265 11.2759 158.919 10 155.243 10C148.666 10 144 15.1757 144 22.4742C144 29.7727 148.666 35 155.243 35C158.652 35 161.239 33.8004 162.787 31.9494L163.183 34.499H169V10.4987H163.183ZM156.525 29.2515C152.826 29.2515 150.239 26.2503 150.239 22.4495C150.239 18.6486 152.826 15.7507 156.525 15.7507C160.224 15.7507 162.833 18.6261 162.833 22.4495C162.833 26.2728 160.174 29.2515 156.525 29.2515ZM190.266 14.6495V10H172.123V15.3503H183.102L172 29.3752V34H191V28.6497H179.165L190.266 14.6495ZM239.185 10.4987L238.786 13.0506C237.263 11.2759 234.917 10 231.242 10C224.666 10 220 15.1757 220 22.4742C220 29.7727 224.666 35 231.242 35C234.65 35 237.237 33.8004 238.786 31.9494L239.185 34.499H245V10.4987H239.185ZM232.526 29.2515C228.827 29.2515 226.24 26.2503 226.24 22.4495C226.24 18.6486 228.827 15.7507 232.526 15.7507C236.225 15.7507 238.834 18.6261 238.834 22.4495C238.834 26.2728 236.175 29.2515 232.526 29.2515ZM254.197 13.2079C255.441 11.5666 258.004 10 261.564 10L261.567 10.0022C267.093 10.0022 271 13.5776 271 19.2343V34H264.628V20.8493C264.628 17.5908 262.488 15.8284 259.674 15.8284C256.861 15.8284 254.372 17.593 254.372 20.8493V34H248V10.4907H253.788L254.197 13.2079ZM281.335 0L279.51 4.41756L277.665 0H275H269V1.34207H271.129V7H272.868V1.34207H275V7H276.826V2.03853H276.865L278.802 7H280.198L282.138 2.03853H282.174V7H284V0H281.335ZM106.231 0H100V34H106.972L122.274 12.1063V33.9978L129.235 34L153 0H145.768L128.496 24.9938V0H123.501L106.231 24.9938V0Z" fill="#191919"/>
</svg>
