<svg width="14" height="14" viewBox="0 0 14 14" fill="none" xmlns="http://www.w3.org/2000/svg">
<path d="M13.6538 4.25329C13.6225 3.54484 13.508 3.05778 13.3439 2.63574C13.1746 2.18776 12.9141 1.78668 12.5728 1.45326C12.2394 1.11465 11.8357 0.851542 11.3929 0.684883C10.9684 0.520768 10.4839 0.406203 9.77547 0.374967C9.06173 0.341086 8.83514 0.333252 7.02489 0.333252C5.21465 0.333252 4.98806 0.341086 4.27696 0.372322C3.56851 0.403558 3.08146 0.518225 2.65952 0.682238C2.21144 0.851542 1.81036 1.11201 1.47694 1.45326C1.13834 1.78668 0.875324 2.19041 0.708564 2.6332C0.54445 3.05778 0.429885 3.54219 0.398649 4.25064C0.364768 4.96438 0.356934 5.19097 0.356934 7.00122C0.356934 8.81147 0.364768 9.03806 0.396004 9.74915C0.427239 10.4576 0.541906 10.9447 0.706021 11.3667C0.875324 11.8147 1.13834 12.2158 1.47694 12.5492C1.81036 12.8878 2.21408 13.1509 2.65688 13.3176C3.08146 13.4817 3.56587 13.5962 4.27442 13.6275C4.98541 13.6588 5.2121 13.6665 7.02235 13.6665C8.8326 13.6665 9.05918 13.6588 9.77028 13.6275C10.4787 13.5962 10.9658 13.4817 11.3877 13.3176C12.2838 12.9711 12.9922 12.2627 13.3387 11.3667C13.5027 10.9421 13.6174 10.4576 13.6486 9.74915C13.6798 9.03806 13.6877 8.81147 13.6877 7.00122C13.6877 5.19097 13.685 4.96438 13.6538 4.25329ZM12.4531 9.69706C12.4244 10.3482 12.315 10.6999 12.2239 10.9343C11.9998 11.5151 11.5388 11.9761 10.9579 12.2002C10.7235 12.2914 10.3694 12.4007 9.72073 12.4293C9.01747 12.4607 8.80655 12.4684 7.02754 12.4684C5.24853 12.4684 5.03496 12.4607 4.33425 12.4293C3.68308 12.4007 3.33145 12.2914 3.09703 12.2002C2.80797 12.0934 2.54486 11.9241 2.3313 11.7027C2.1099 11.4865 1.94059 11.226 1.83376 10.9369C1.7426 10.7025 1.63322 10.3482 1.60463 9.6997C1.57329 8.99644 1.56556 8.78542 1.56556 7.00641C1.56556 5.2274 1.57329 5.01383 1.60463 4.31322C1.63322 3.66205 1.7426 3.31042 1.83376 3.076C1.94059 2.78684 2.1099 2.52382 2.33394 2.31016C2.55005 2.08876 2.81051 1.91946 3.09967 1.81273C3.33409 1.72156 3.68837 1.61219 4.33689 1.5835C5.04015 1.55226 5.25117 1.54443 7.03008 1.54443C8.81174 1.54443 9.02266 1.55226 9.72337 1.5835C10.3745 1.61219 10.7262 1.72156 10.9606 1.81273C11.2497 1.91946 11.5128 2.08876 11.7263 2.31016C11.9477 2.52637 12.117 2.78684 12.2239 3.076C12.315 3.31042 12.4244 3.66459 12.4531 4.31322C12.4843 5.01648 12.4922 5.2274 12.4922 7.00641C12.4922 8.78542 12.4843 8.9938 12.4531 9.69706Z" fill="white"/>
<path d="M7.02489 3.57607C5.13396 3.57607 3.59974 5.11019 3.59974 7.00123C3.59974 8.89226 5.13396 10.4264 7.02489 10.4264C8.91593 10.4264 10.45 8.89226 10.45 7.00123C10.45 5.11019 8.91593 3.57607 7.02489 3.57607ZM7.02489 9.22304C5.79815 9.22304 4.80308 8.22807 4.80308 7.00123C4.80308 5.77438 5.79815 4.77941 7.02489 4.77941C8.25173 4.77941 9.2467 5.77438 9.2467 7.00123C9.2467 8.22807 8.25173 9.22304 7.02489 9.22304Z" fill="white"/>
<path d="M11.3852 3.44065C11.3852 3.88223 11.0272 4.24027 10.5855 4.24027C10.1439 4.24027 9.78586 3.88223 9.78586 3.44065C9.78586 2.99898 10.1439 2.64103 10.5855 2.64103C11.0272 2.64103 11.3852 2.99898 11.3852 3.44065Z" fill="white"/>
</svg>
