<svg width="8" height="16" viewBox="0 0 8 16" fill="none" xmlns="http://www.w3.org/2000/svg">
<path d="M7.7084 0.6698L5.85689 0.666748C3.77678 0.666748 2.43253 2.08347 2.43253 4.27623V5.94045H0.570917C0.410052 5.94045 0.279785 6.07442 0.279785 6.23966V8.65092C0.279785 8.81617 0.4102 8.94998 0.570917 8.94998H2.43253V15.0344C2.43253 15.1996 2.56279 15.3334 2.72366 15.3334H5.15253C5.31339 15.3334 5.44366 15.1994 5.44366 15.0344V8.94998H7.62032C7.78118 8.94998 7.91145 8.81617 7.91145 8.65092L7.91234 6.23966C7.91234 6.16032 7.88159 6.08433 7.82708 6.02818C7.77257 5.97203 7.6983 5.94045 7.62106 5.94045H5.44366V4.52967C5.44366 3.8516 5.60096 3.50737 6.46084 3.50737L7.7081 3.50691C7.86882 3.50691 7.99908 3.37295 7.99908 3.20785V0.968861C7.99908 0.80392 7.86896 0.670105 7.7084 0.6698Z" fill="white"/>
</svg>
