<svg width="24" height="25" viewBox="0 0 24 25" fill="none" xmlns="http://www.w3.org/2000/svg">
<path d="M5 10.418H7C9 10.418 10 9.41797 10 7.41797V5.41797C10 3.41797 9 2.41797 7 2.41797H5C3 2.41797 2 3.41797 2 5.41797V7.41797C2 9.41797 3 10.418 5 10.418Z" stroke="white" stroke-width="1.5" stroke-miterlimit="10" stroke-linecap="round" stroke-linejoin="round"/>
<path d="M17 10.418H19C21 10.418 22 9.41797 22 7.41797V5.41797C22 3.41797 21 2.41797 19 2.41797H17C15 2.41797 14 3.41797 14 5.41797V7.41797C14 9.41797 15 10.418 17 10.418Z" stroke="white" stroke-width="1.5" stroke-miterlimit="10" stroke-linecap="round" stroke-linejoin="round"/>
<path d="M17 22.418H19C21 22.418 22 21.418 22 19.418V17.418C22 15.418 21 14.418 19 14.418H17C15 14.418 14 15.418 14 17.418V19.418C14 21.418 15 22.418 17 22.418Z" stroke="white" stroke-width="1.5" stroke-miterlimit="10" stroke-linecap="round" stroke-linejoin="round"/>
<path d="M5 22.418H7C9 22.418 10 21.418 10 19.418V17.418C10 15.418 9 14.418 7 14.418H5C3 14.418 2 15.418 2 17.418V19.418C2 21.418 3 22.418 5 22.418Z" stroke="white" stroke-width="1.5" stroke-miterlimit="10" stroke-linecap="round" stroke-linejoin="round"/>
</svg>
