<svg width="24" height="25" viewBox="0 0 24 25" fill="none" xmlns="http://www.w3.org/2000/svg">
<g opacity="0.5">
<path d="M5.1499 22.7867C4.7399 22.7867 4.3999 22.4467 4.3999 22.0367V2.03674C4.3999 1.62674 4.7399 1.28674 5.1499 1.28674C5.5599 1.28674 5.8999 1.62674 5.8999 2.03674V22.0367C5.8999 22.4467 5.5599 22.7867 5.1499 22.7867Z" fill="white"/>
<path d="M16.3499 16.7867H5.1499C4.7399 16.7867 4.3999 16.4467 4.3999 16.0367C4.3999 15.6267 4.7399 15.2867 5.1499 15.2867H16.3499C17.4399 15.2867 17.9499 14.9967 18.0499 14.7467C18.1499 14.4967 17.9999 13.9367 17.2199 13.1667L16.0199 11.9667C15.5299 11.5367 15.2299 10.8867 15.1999 10.1667C15.1699 9.40674 15.4699 8.65674 16.0199 8.10674L17.2199 6.90674C17.9599 6.16674 18.1899 5.56674 18.0799 5.30674C17.9699 5.04674 17.3999 4.78674 16.3499 4.78674H5.1499C4.7299 4.78674 4.3999 4.44674 4.3999 4.03674C4.3999 3.62674 4.7399 3.28674 5.1499 3.28674H16.3499C18.5399 3.28674 19.2399 4.19674 19.4699 4.73674C19.6899 5.27674 19.8399 6.41674 18.2799 7.97674L17.0799 9.17674C16.8299 9.42674 16.6899 9.77674 16.6999 10.1267C16.7099 10.4267 16.8299 10.6967 17.0399 10.8867L18.2799 12.1167C19.8099 13.6467 19.6599 14.7867 19.4399 15.3367C19.2099 15.8667 18.4999 16.7867 16.3499 16.7867Z" fill="white"/>
</g>
</svg>
