<svg width="24" height="25" viewBox="0 0 24 25" fill="none" xmlns="http://www.w3.org/2000/svg">
<path d="M19 8.41797C20.6569 8.41797 22 7.07482 22 5.41797C22 3.76111 20.6569 2.41797 19 2.41797C17.3431 2.41797 16 3.76111 16 5.41797C16 7.07482 17.3431 8.41797 19 8.41797Z" stroke="white" stroke-width="1.5" stroke-linecap="round" stroke-linejoin="round"/>
<path d="M14 2.41797H9C4 2.41797 2 4.41797 2 9.41797V15.418C2 20.418 4 22.418 9 22.418H15C20 22.418 22 20.418 22 15.418V10.418" stroke="white" stroke-width="1.5" stroke-linecap="round" stroke-linejoin="round"/>
<path d="M6.81001 15.348C6.46001 14.248 6.87001 12.878 8.03001 12.508C8.64001 12.308 9.39001 12.478 9.82001 13.068C10.22 12.458 11 12.318 11.6 12.508C12.76 12.878 13.17 14.248 12.82 15.348C12.27 17.098 10.35 18.008 9.82001 18.008C9.28001 17.998 7.38001 17.108 6.81001 15.348Z" stroke="white" stroke-width="1.5" stroke-linecap="round" stroke-linejoin="round"/>
</svg>
