<svg width="25" height="24" viewBox="0 0 25 24" fill="none" xmlns="http://www.w3.org/2000/svg">
<g opacity="0.5">
<path d="M18.29 22.74H6.71C3.97 22.74 1.75 20.51 1.75 17.77V10.36C1.75 8.99996 2.59 7.28996 3.67 6.44996L9.06 2.24996C10.68 0.989964 13.27 0.929964 14.95 2.10996L21.13 6.43996C22.32 7.26996 23.25 9.04996 23.25 10.5V17.78C23.25 20.51 21.03 22.74 18.29 22.74ZM9.98 3.42996L4.59 7.62996C3.88 8.18996 3.25 9.45996 3.25 10.36V17.77C3.25 19.68 4.8 21.24 6.71 21.24H18.29C20.2 21.24 21.75 19.69 21.75 17.78V10.5C21.75 9.53996 21.06 8.20996 20.27 7.66996L14.09 3.33996C12.95 2.53996 11.07 2.57996 9.98 3.42996Z" fill="white"/>
<path d="M14 18.75H11C8.93 18.75 7.25 17.07 7.25 15V12C7.25 9.93 8.93 8.25 11 8.25H14C16.07 8.25 17.75 9.93 17.75 12V15C17.75 17.07 16.07 18.75 14 18.75ZM11 9.75C9.76 9.75 8.75 10.76 8.75 12V15C8.75 16.24 9.76 17.25 11 17.25H14C15.24 17.25 16.25 16.24 16.25 15V12C16.25 10.76 15.24 9.75 14 9.75H11Z" fill="white"/>
<path d="M12.5 18.75C12.09 18.75 11.75 18.41 11.75 18V9C11.75 8.59 12.09 8.25 12.5 8.25C12.91 8.25 13.25 8.59 13.25 9V18C13.25 18.41 12.91 18.75 12.5 18.75Z" fill="white"/>
<path d="M17 14.25H8C7.59 14.25 7.25 13.91 7.25 13.5C7.25 13.09 7.59 12.75 8 12.75H17C17.41 12.75 17.75 13.09 17.75 13.5C17.75 13.91 17.41 14.25 17 14.25Z" fill="white"/>
</g>
</svg>
