<svg width="28" height="29" viewBox="0 0 28 29" fill="none" xmlns="http://www.w3.org/2000/svg">
<path d="M14 27.6554C21.1797 27.6554 27 21.8351 27 14.6554C27 7.4757 21.1797 1.6554 14 1.6554C6.82031 1.6554 1 7.4757 1 14.6554C1 21.8351 6.82031 27.6554 14 27.6554Z" stroke="white" stroke-width="2"/>
<path d="M7.14625 14.3926C7.14625 14.3926 13.0904 11.8637 15.152 10.9733C15.9423 10.6171 18.6223 9.4773 18.6223 9.4773C18.6223 9.4773 19.8593 8.97868 19.7562 10.1897C19.7218 10.6883 19.4469 12.4336 19.1721 14.3214C18.7597 16.9927 18.3131 19.9134 18.3131 19.9134C18.3131 19.9134 18.2443 20.7326 17.6602 20.8751C17.0761 21.0176 16.114 20.3765 15.9423 20.234C15.8048 20.1271 13.3653 18.5243 12.472 17.7407C12.2314 17.527 11.9566 17.0996 12.5063 16.6009C13.7433 15.4255 15.2207 13.9652 16.114 13.0391C16.5264 12.6117 16.9387 11.6144 15.2207 12.8254C12.7812 14.5707 10.376 16.2091 10.376 16.2091C10.376 16.2091 9.82627 16.5653 8.7955 16.2447C7.76468 15.9242 6.5621 15.4968 6.5621 15.4968C6.5621 15.4968 5.73752 14.9625 7.14625 14.3926Z" fill="white"/>
</svg>
