<svg width="25" height="24" viewBox="0 0 25 24" fill="none" xmlns="http://www.w3.org/2000/svg">
<g opacity="0.5">
<path d="M12.5 12.75C9.33 12.75 6.75 10.17 6.75 7C6.75 3.83 9.33 1.25 12.5 1.25C15.67 1.25 18.25 3.83 18.25 7C18.25 10.17 15.67 12.75 12.5 12.75ZM12.5 2.75C10.16 2.75 8.25 4.66 8.25 7C8.25 9.34 10.16 11.25 12.5 11.25C14.84 11.25 16.75 9.34 16.75 7C16.75 4.66 14.84 2.75 12.5 2.75Z" fill="white"/>
<path d="M3.91016 22.75C3.50016 22.75 3.16016 22.41 3.16016 22C3.16016 17.73 7.35015 14.25 12.5002 14.25C13.5102 14.25 14.5001 14.38 15.4601 14.65C15.8601 14.76 16.0902 15.17 15.9802 15.57C15.8702 15.97 15.4601 16.2 15.0602 16.09C14.2402 15.86 13.3802 15.75 12.5002 15.75C8.18015 15.75 4.66016 18.55 4.66016 22C4.66016 22.41 4.32016 22.75 3.91016 22.75Z" fill="white"/>
<path d="M18.5 22.75C16.84 22.75 15.28 21.87 14.44 20.44C13.99 19.72 13.75 18.87 13.75 18C13.75 16.54 14.4 15.19 15.53 14.29C16.37 13.62 17.43 13.25 18.5 13.25C21.12 13.25 23.25 15.38 23.25 18C23.25 18.87 23.01 19.72 22.56 20.45C22.31 20.87 21.99 21.25 21.61 21.57C20.78 22.33 19.67 22.75 18.5 22.75ZM18.5 14.75C17.76 14.75 17.06 15 16.47 15.47C15.7 16.08 15.25 17.01 15.25 18C15.25 18.59 15.41 19.17 15.72 19.67C16.3 20.65 17.37 21.25 18.5 21.25C19.29 21.25 20.05 20.96 20.63 20.44C20.89 20.22 21.11 19.96 21.27 19.68C21.59 19.17 21.75 18.59 21.75 18C21.75 16.21 20.29 14.75 18.5 14.75Z" fill="white"/>
<path d="M17.9299 19.7401C17.7399 19.7401 17.5499 19.6701 17.3999 19.5201L16.4099 18.5301C16.1199 18.2401 16.1199 17.76 16.4099 17.47C16.6999 17.18 17.1799 17.18 17.4699 17.47L17.9499 17.9501L19.5499 16.47C19.8499 16.19 20.3299 16.2101 20.6099 16.5101C20.8899 16.8101 20.8699 17.2901 20.5699 17.5701L18.4399 19.54C18.2899 19.67 18.1099 19.7401 17.9299 19.7401Z" fill="white"/>
</g>
</svg>
