<svg width="24" height="26" viewBox="0 0 24 26" fill="none" xmlns="http://www.w3.org/2000/svg">
<path d="M5.80707 23.1581C5.80707 22.7288 5.80707 22.2994 5.80707 21.8701C5.81012 21.8526 5.8095 21.8346 5.80525 21.8173C5.801 21.8 5.79321 21.7837 5.78235 21.7695C5.7715 21.7553 5.75782 21.7435 5.74216 21.7347C5.72649 21.726 5.70918 21.7205 5.69129 21.7186C4.61645 21.4163 3.62438 20.8778 2.78902 20.1432C2.18037 19.5951 1.6736 18.9455 1.29177 18.2239C0.753589 17.1817 0.395424 16.0576 0.232119 14.8982C0.0297841 13.444 -0.0404863 11.9747 0.0221511 10.508C0.0358873 9.82423 0.071209 9.14821 0.149702 8.46443C0.274883 7.16503 0.605991 5.89325 1.13086 4.69583C1.77898 3.22355 2.95475 2.04093 4.43148 1.37597C5.43743 0.920263 6.49572 0.587575 7.58296 0.38526C8.64918 0.185337 9.7287 0.0626291 10.8129 0.0181131C11.7903 -0.0161013 12.7687 -0.00183791 13.7446 0.0608498C15.1414 0.119213 16.5255 0.34823 17.8655 0.742694C18.859 1.02621 19.8042 1.45507 20.6697 2.01508C21.513 2.58816 22.195 3.36431 22.6516 4.27041C23.1884 5.3287 23.5533 6.46415 23.7328 7.63495C23.8495 8.33005 23.9261 9.03116 23.9624 9.73487C24.0135 10.6071 24.0076 11.4832 23.9742 12.3515C23.9408 13.2199 23.8663 14.0629 23.7584 14.9138C23.6219 16.1908 23.2254 17.4272 22.5927 18.5483C21.7692 19.9665 20.4501 21.0375 18.884 21.5593C17.8131 21.9306 16.7074 22.1948 15.5833 22.348C14.7611 22.4607 13.9369 22.5423 13.1089 22.5753C12.475 22.6044 11.8412 22.5967 11.2074 22.5869C10.8483 22.5869 10.4911 22.552 10.134 22.5209C10.0989 22.5144 10.0627 22.5182 10.0299 22.5321C9.99702 22.5459 9.96907 22.5691 9.94952 22.5986C9.22739 23.4572 8.47778 24.2925 7.72229 25.124C7.58467 25.2756 7.42534 25.4065 7.24937 25.5125C7.13386 25.5875 7.00215 25.6346 6.86487 25.6499C6.72759 25.6652 6.58859 25.6484 6.45909 25.6008C6.3296 25.5531 6.21324 25.476 6.1194 25.3756C6.02557 25.2752 5.95689 25.1544 5.91892 25.0229C5.84414 24.7893 5.80705 24.5454 5.80903 24.3003C5.80707 23.9157 5.80707 23.5369 5.80707 23.1581ZM6.6803 24.7879L6.77253 24.7024L8.41106 22.9016C9.04162 22.2088 9.67152 21.5153 10.3008 20.8211C10.3317 20.7788 10.3734 20.7453 10.4217 20.7242C10.47 20.703 10.523 20.6949 10.5755 20.7007C10.7894 20.7221 11.0033 20.7298 11.2191 20.7318C11.9648 20.7318 12.7105 20.7318 13.4562 20.6793C14.1332 20.6269 14.8082 20.5453 15.4793 20.4404C16.2019 20.3159 16.9172 20.1531 17.6222 19.9528C19.192 19.5352 20.4067 18.6416 21.1701 17.1944C21.6207 16.3046 21.9034 15.3408 22.004 14.3504C22.1233 13.417 22.1947 12.4782 22.2179 11.5376C22.2527 10.356 22.1712 9.17387 21.9746 8.00792C21.8383 7.16318 21.5929 6.33927 21.2446 5.55639C20.8011 4.58511 20.1732 3.78088 19.2058 3.26416C17.7223 2.47159 16.1171 2.11804 14.4629 1.93738C13.9939 1.88687 13.5249 1.85967 13.0539 1.84219C12.0896 1.79298 11.1232 1.79816 10.1595 1.85773C9.4664 1.90865 8.77704 2.00077 8.09513 2.13358C7.09229 2.31454 6.12214 2.64187 5.21641 3.10486C4.69132 3.36752 4.21494 3.71628 3.80746 4.13637C3.14708 4.86705 2.66267 5.73646 2.39067 6.6792C2.068 7.77716 1.89185 8.91219 1.86673 10.0554C1.80359 11.1986 1.81801 12.3447 1.9099 13.486C1.96707 14.1652 2.08194 14.8384 2.25331 15.4985C2.50827 16.5272 3.00288 17.4825 3.69757 18.288C4.44757 19.1099 5.41692 19.7052 6.49388 20.0053C6.62928 20.0461 6.69011 20.0927 6.69011 20.2442C6.67833 20.8037 6.69011 21.3631 6.69011 21.9226L6.6803 24.7879Z" fill="white"/>
<path d="M5.30651 7.437C5.29277 7.01158 5.52629 6.70271 5.80886 6.42492C6.18155 6.07151 6.59215 5.75949 7.03335 5.49443C7.23453 5.3716 7.47375 5.3248 7.70701 5.36263C7.94027 5.40047 8.15189 5.52038 8.30297 5.70034C8.83679 6.25583 9.31458 6.86154 9.72957 7.50888C9.93508 7.80007 10.0903 8.12306 10.1888 8.46463C10.2281 8.59792 10.2307 8.73922 10.1962 8.87383C10.1617 9.00844 10.0913 9.13143 9.99253 9.23C9.76614 9.44998 9.52487 9.65443 9.27039 9.84191C9.14217 9.94307 9.04683 10.0793 8.99623 10.2337C8.94564 10.3881 8.94203 10.5538 8.98586 10.7102C9.14301 11.4447 9.49915 12.1229 10.0161 12.6722C10.6442 13.4313 11.4535 14.0235 12.3709 14.3953C12.5963 14.51 12.8545 14.545 13.1028 14.4944C13.2388 14.4577 13.3596 14.3795 13.4482 14.271C13.5855 14.0981 13.7347 13.931 13.8583 13.7465C14.0186 13.5163 14.2635 13.3572 14.5406 13.3031C14.8177 13.2491 15.1052 13.3043 15.3418 13.457C16.007 13.8391 16.635 14.2813 17.2178 14.778C17.3551 14.8945 17.4984 15.0072 17.6358 15.1257C17.7983 15.2484 17.9157 15.4205 17.9699 15.6156C18.0241 15.8107 18.0122 16.018 17.936 16.2058C17.8147 16.5215 17.638 16.8135 17.414 17.0683C17.1356 17.4513 16.781 17.7739 16.372 18.0163C16.1765 18.1299 15.9568 18.1967 15.7305 18.2112C15.5043 18.2257 15.2777 18.1875 15.069 18.0998C13.4814 17.467 11.9979 16.6034 10.6676 15.5375C9.36635 14.4771 8.2292 13.2336 7.29237 11.8466C6.50409 10.6985 5.87696 9.44964 5.42817 8.13439C5.38039 7.97531 5.34108 7.81385 5.31043 7.65069C5.30171 7.57978 5.3004 7.50818 5.30651 7.437Z" fill="white"/>
<path d="M12.082 5.37001C13.4103 5.39432 14.6879 5.87937 15.692 6.74059C16.6961 7.60182 17.363 8.78459 17.5764 10.0827C17.6624 10.5547 17.7083 11.0329 17.7138 11.5124C17.7138 11.6251 17.6844 11.7067 17.5627 11.7183C17.441 11.73 17.4096 11.627 17.4096 11.5241C17.4279 10.5541 17.2267 9.59237 16.8209 8.70929C16.4792 7.98368 15.973 7.34589 15.3417 6.84556C14.7103 6.34522 13.9709 5.99583 13.1808 5.82457C12.7632 5.72884 12.336 5.67932 11.9073 5.67693C11.8656 5.67764 11.8239 5.67241 11.7837 5.66139C11.7494 5.65183 11.7202 5.62947 11.7023 5.59903C11.6844 5.56859 11.6791 5.53245 11.6875 5.49822C11.6878 5.48198 11.6913 5.46595 11.6979 5.45107C11.7044 5.43619 11.7139 5.42275 11.7258 5.41154C11.7377 5.40033 11.7517 5.39157 11.767 5.38577C11.7823 5.37998 11.7987 5.37726 11.8151 5.37778C11.9034 5.36612 11.9936 5.37001 12.082 5.37001Z" fill="white"/>
<path d="M15.8717 10.6384C15.8651 10.0987 15.7309 9.56804 15.4797 9.089C15.2285 8.60996 14.8675 8.19586 14.4255 7.8799C13.9096 7.52117 13.3099 7.29853 12.6829 7.23302C12.577 7.21942 12.471 7.21359 12.3631 7.20194C12.2551 7.19028 12.1904 7.1456 12.2002 7.03682C12.21 6.92804 12.2787 6.88918 12.3964 6.89695C14.135 7.00185 15.6146 7.97508 16.0699 9.78751C16.1532 10.137 16.1947 10.4949 16.1935 10.854C16.1935 10.887 16.1935 10.92 16.1935 10.9511C16.1935 11.0482 16.1307 11.1123 16.0346 11.1104C16.0132 11.1097 15.9923 11.1047 15.973 11.0957C15.9537 11.0867 15.9364 11.0739 15.9223 11.0581C15.9081 11.0423 15.8974 11.0238 15.8907 11.0037C15.8841 10.9836 15.8816 10.9624 15.8835 10.9414C15.8678 10.8501 15.8717 10.7569 15.8717 10.6384Z" fill="white"/>
<path d="M12.8256 8.47408C13.7793 8.53818 14.4445 9.00051 14.627 10.0048C14.6492 10.1335 14.6649 10.2631 14.6741 10.3933C14.6741 10.4982 14.6506 10.5876 14.5348 10.5876C14.419 10.5876 14.3798 10.5099 14.3758 10.3933C14.3748 10.0084 14.2549 9.63289 14.0324 9.31715C13.7986 9.03118 13.4629 8.84486 13.0944 8.79654C13.0121 8.78129 12.9288 8.77091 12.8452 8.76546C12.7079 8.76546 12.6313 8.69747 12.649 8.59257C12.6667 8.48767 12.7491 8.46825 12.8256 8.47408Z" fill="white"/>
</svg>
