<svg width="24" height="25" viewBox="0 0 24 25" fill="none" xmlns="http://www.w3.org/2000/svg">
<path d="M18.04 13.968C17.62 14.378 17.38 14.968 17.44 15.598C17.53 16.678 18.52 17.468 19.6 17.468H21.5V18.658C21.5 20.728 19.81 22.418 17.74 22.418H6.26C4.19 22.418 2.5 20.728 2.5 18.658V11.928C2.5 9.85798 4.19 8.16797 6.26 8.16797H17.74C19.81 8.16797 21.5 9.85798 21.5 11.928V13.368H19.48C18.92 13.368 18.41 13.588 18.04 13.968Z" stroke="white" stroke-width="1.5" stroke-linecap="round" stroke-linejoin="round"/>
<path d="M2.5 12.828V8.25807C2.5 7.06807 3.23 6.00803 4.34 5.58803L12.28 2.58803C13.52 2.11803 14.85 3.03806 14.85 4.36806V8.16805" stroke="white" stroke-width="1.5" stroke-linecap="round" stroke-linejoin="round"/>
<path d="M22.5588 14.3882V16.4483C22.5588 16.9983 22.1188 17.4483 21.5588 17.4683H19.5988C18.5188 17.4683 17.5288 16.6783 17.4388 15.5983C17.3788 14.9683 17.6188 14.3783 18.0388 13.9683C18.4088 13.5883 18.9188 13.3683 19.4788 13.3683H21.5588C22.1188 13.3883 22.5588 13.8382 22.5588 14.3882Z" stroke="white" stroke-width="1.5" stroke-linecap="round" stroke-linejoin="round"/>
<path d="M7 12.4181H14" stroke="white" stroke-width="1.5" stroke-linecap="round" stroke-linejoin="round"/>
</svg>
