<svg width="24" height="25" viewBox="0 0 24 25" fill="none" xmlns="http://www.w3.org/2000/svg">
<path d="M0 24.6554L1.72334 18.2533C0.333509 15.7594 -0.108053 12.8491 0.479677 10.0567C1.06741 7.26421 2.64501 4.77681 4.92298 3.05092C7.20096 1.32502 10.0265 0.476403 12.8811 0.66078C15.7358 0.845157 18.428 2.05016 20.4638 4.05468C22.4996 6.0592 23.7424 8.72877 23.9642 11.5735C24.186 14.4183 23.3718 17.2474 21.6712 19.5417C19.9705 21.836 17.4974 23.4417 14.7056 24.064C11.9139 24.6863 8.99076 24.2836 6.47269 22.9297L0 24.6554ZM6.78479 20.5339L7.18509 20.7708C9.00898 21.8491 11.1393 22.2953 13.2439 22.0399C15.3486 21.7845 17.3095 20.8419 18.821 19.3588C20.3325 17.8757 21.3097 15.9356 21.6003 13.8408C21.8909 11.7459 21.4786 9.61401 20.4277 7.77728C19.3767 5.94055 17.7462 4.50217 15.7901 3.68629C13.834 2.87041 11.6623 2.72287 9.6134 3.26665C7.56448 3.81042 5.75344 5.01498 4.46252 6.69261C3.1716 8.37023 2.4733 10.4267 2.47645 12.5415C2.47473 14.295 2.96092 16.0146 3.8809 17.5089L4.13194 17.9217L3.1685 21.4949L6.78479 20.5339Z" fill="white"/>
<path fill-rule="evenodd" clip-rule="evenodd" d="M16.5025 14.1853C16.2678 13.9965 15.9931 13.8636 15.6991 13.7968C15.4052 13.7299 15.0998 13.7309 14.8063 13.7995C14.3653 13.9823 14.0803 14.6725 13.7954 15.0177C13.7353 15.1004 13.647 15.1585 13.547 15.1809C13.4471 15.2033 13.3424 15.1886 13.2526 15.1395C11.638 14.5087 10.2847 13.352 9.41238 11.8573C9.33798 11.764 9.30277 11.6455 9.31416 11.5269C9.32555 11.4082 9.38265 11.2986 9.47345 11.2211C9.79127 10.9073 10.0246 10.5186 10.1519 10.0909C10.1802 9.61924 10.0719 9.1494 9.83983 8.73742C9.66045 8.15985 9.31907 7.64557 8.85603 7.25533C8.61721 7.14819 8.3524 7.11227 8.09357 7.1519C7.83473 7.19153 7.59292 7.30501 7.3973 7.47866C7.0577 7.77091 6.78815 8.13542 6.6085 8.54535C6.42884 8.95528 6.34366 9.40018 6.35923 9.8473C6.36028 10.0984 6.39218 10.3484 6.45422 10.5917C6.61176 11.1764 6.85405 11.7349 7.1734 12.2498C7.40381 12.6441 7.65521 13.0259 7.92652 13.3935C8.80823 14.6008 9.91657 15.6259 11.19 16.4118C11.829 16.8112 12.512 17.1359 13.2254 17.3796C13.9665 17.7146 14.7848 17.8433 15.5933 17.7518C16.054 17.6822 16.4905 17.5008 16.8643 17.2235C17.2382 16.9462 17.538 16.5814 17.7373 16.1614C17.8544 15.9077 17.89 15.624 17.8391 15.3493C17.717 14.7876 16.9639 14.456 16.5025 14.1853Z" fill="white"/>
</svg>
