<svg width="28" height="28" viewBox="0 0 28 28" fill="none" xmlns="http://www.w3.org/2000/svg">
<path d="M13.9125 0.570801C11.2899 0.570801 8.72617 1.34849 6.54555 2.80554C4.36493 4.26258 2.66535 6.33353 1.66172 8.7565C0.658089 11.1795 0.395494 13.8456 0.90714 16.4179C1.41878 18.9901 2.68169 21.3528 4.53615 23.2073C6.39062 25.0617 8.75335 26.3246 11.3256 26.8363C13.8978 27.3479 16.5639 27.0853 18.9869 26.0817C21.4099 25.0781 23.4808 23.3785 24.9379 21.1979C26.3949 19.0173 27.1726 16.4535 27.1726 13.8309C27.1726 12.0896 26.8296 10.3653 26.1633 8.7565C25.4969 7.14771 24.5201 5.68592 23.2888 4.4546C22.0575 3.22329 20.5957 2.24655 18.9869 1.58017C17.3781 0.913784 15.6538 0.570801 13.9125 0.570801ZM20.158 10.7944L12.2019 18.7504C12.0787 18.8747 11.932 18.9734 11.7704 19.0407C11.6088 19.108 11.4355 19.1427 11.2605 19.1427C11.0854 19.1427 10.9121 19.108 10.7505 19.0407C10.5889 18.9734 10.4423 18.8747 10.319 18.7504L7.66696 16.0984C7.54332 15.9748 7.44525 15.828 7.37834 15.6665C7.31143 15.5049 7.27699 15.3318 7.27699 15.1569C7.27699 14.9821 7.31143 14.809 7.37834 14.6474C7.44525 14.4859 7.54332 14.3391 7.66696 14.2155C7.7906 14.0918 7.93737 13.9938 8.09891 13.9269C8.26045 13.8599 8.43358 13.8255 8.60843 13.8255C8.78328 13.8255 8.95641 13.8599 9.11795 13.9269C9.27949 13.9938 9.42626 14.0918 9.5499 14.2155L11.2605 15.9393L18.2751 8.91143C18.5248 8.66173 18.8634 8.52146 19.2165 8.52146C19.5697 8.52146 19.9083 8.66173 20.158 8.91143C20.4077 9.16112 20.548 9.49977 20.548 9.85289C20.548 10.206 20.4077 10.5447 20.158 10.7944Z" fill="#0B1B35"/>
</svg>
