<svg xmlns="http://www.w3.org/2000/svg" width="300" height="67" fill="none" viewBox="0 0 300 67"><path fill="url(#a)" fill-rule="evenodd" d="M59.459 10.043a26.904 26.904 0 0 0-6.15-4.864C49.684 2.826 42-1.001 29.11 2.319 46.5 7 48.76 11.506 51.5 14c1.5 1.5 1.613 2.606 1.613 2.606s-1.744.486-2.74.554c-.413.033-.483.203-.21.51l10.5 11.55a.389.389 0 0 0 .65-.11l5.88-13.52c.207-.46.06-.647-.44-.56l-2.01.36a.819.819 0 0 1-.78-.3l-4.504-5.046Z" clip-rule="evenodd"/><path fill="url(#b)" fill-rule="evenodd" d="M11.825 56.304a26.904 26.904 0 0 0 6.149 4.865c3.626 2.353 11.31 6.18 24.2 2.86-17.39-4.681-19.65-9.187-22.39-11.68-1.5-1.5-1.613-2.606-1.613-2.606s1.744-.486 2.74-.554c.413-.034.483-.204.21-.51l-10.5-11.55a.39.39 0 0 0-.65.11l-5.88 13.52c-.207.46-.06.646.44.56l2.01-.36a.82.82 0 0 1 .78.3l4.504 5.045Z" clip-rule="evenodd"/><path fill="url(#c)" fill-rule="evenodd" d="M58.532 57.916a26.906 26.906 0 0 0 5.047-6c2.461-3.554 6.518-11.12 3.587-24.103-5.202 17.24-9.774 19.364-12.348 22.028-1.545 1.454-2.654 1.534-2.654 1.534s-.433-1.758-.471-2.755c-.021-.415-.189-.49-.504-.226L39.33 58.542a.39.39 0 0 0 .09.653l13.337 6.284c.453.22.644.08.573-.423l-.3-2.02a.82.82 0 0 1 .324-.77l5.179-4.35Z" clip-rule="evenodd"/><path fill="url(#d)" fill-rule="evenodd" d="M12.931 9.092a26.905 26.905 0 0 0-5.047 6c-2.462 3.554-6.519 11.12-3.587 24.103 5.202-17.241 9.774-19.364 12.348-22.028 1.545-1.454 2.653-1.534 2.653-1.534s.434 1.758.472 2.755c.021.414.189.49.504.225l11.86-10.147a.391.391 0 0 0-.09-.653L18.707 1.529c-.454-.22-.645-.08-.573.423l.3 2.02a.82.82 0 0 1-.324.77l-5.179 4.35Z" clip-rule="evenodd"/><path fill="#fff" d="m34.89 39.12-13.33.01a.31.31 0 0 1-.22-.09l-4.72-4.75a.312.312 0 0 1-.068-.339.311.311 0 0 1 .068-.1l21.97-21.96a.311.311 0 0 1 .44 0l3.3 3.29a.309.309 0 0 1 .09.22l.01 17.42a.31.31 0 0 0 .31.31l5.94-.02a.31.31 0 0 1 .31.31v5.4a.31.31 0 0 1-.31.31h-5.94a.31.31 0 0 0-.31.31l.01 6.03a.31.31 0 0 1-.09.22l-6.68 6.75a.31.31 0 0 1-.53-.22l.06-12.79a.31.31 0 0 0-.31-.31Zm.29-13.17a.33.33 0 0 0-.56-.23l-6.85 6.85a.33.33 0 0 0 .23.56h6.85a.33.33 0 0 0 .33-.33v-6.85Z"/><path fill="#fff" fill-rule="evenodd" d="M210.51 42.88c-2.52-.014-3.843-.01-3.97.01-.44.053-.723.233-.85.54l-1.66 3.76c-.186.426-.513.64-.98.64l-5.51-.04c-.42 0-.543-.194-.37-.58 3.72-8.074 7.974-17.474 12.76-28.2.187-.428.407-.64.66-.64.254 0 .474.212.66.64 4.714 10.76 8.9 20.19 12.56 28.29.174.386.05.58-.37.58h-5.51c-.466 0-.793-.218-.98-.65l-1.63-3.77c-.126-.307-.41-.488-.85-.54-.126-.02-1.446-.034-3.96-.04Zm-2.87-5.67a.35.35 0 0 0 .32.48l5-.03a.353.353 0 0 0 .286-.157.35.35 0 0 0 .034-.324l-2.53-6.13a.351.351 0 0 0-.65 0l-2.46 6.16ZM83.34 19.32c3.6.007 6.99 0 10.17-.02a.45.45 0 0 1 .45.45v2.01c0 .32-.157.48-.47.48h-8.05c-.373 0-.56.19-.56.57v24.03c0 .354-.18.544-.54.57-.12.007-.447.01-.98.01-.54 0-.87-.003-.99-.01-.36-.026-.54-.216-.54-.57l-.03-24.03c-.007-.38-.197-.57-.57-.57l-8.05.01c-.313.007-.47-.15-.47-.47v-2.01a.45.45 0 0 1 .45-.46c3.18.02 6.573.024 10.18.01Zm19.81 15.23c1.354-.013 3.57-.023 6.65-.03 3.08-.006 5.297-.006 6.65 0 .32.007.48.167.48.48l.04 12.03c0 .314.157.47.47.47l2.19-.01c.347 0 .52-.176.52-.53l-.1-27.15c0-.28-.136-.42-.41-.42l-2.36.01c-.24 0-.36.12-.36.36l.04 11.18c0 .34-.17.534-.51.58-.513.067-2.733.104-6.66.11-3.926.007-6.146-.02-6.66-.08-.34-.046-.51-.24-.51-.58V19.79c0-.24-.12-.36-.36-.36H99.9c-.273 0-.41.14-.41.42V47c0 .354.174.53.52.53h2.19c.314 0 .47-.156.47-.47V35.03c0-.313.16-.473.48-.48Zm28.58 10.02h12.95a.404.404 0 0 1 .373.254c.019.05.029.103.027.156l-.02 2.14a.4.4 0 0 1-.4.39h-16.08a.4.4 0 0 1-.4-.4V19.72a.4.4 0 0 1 .4-.4h15.68a.4.4 0 0 1 .4.4l.03 2.12a.402.402 0 0 1-.247.37c-.048.02-.1.03-.153.03l-12.53.04a.4.4 0 0 0-.4.4l-.05 8.51a.403.403 0 0 0 .4.4l12.44-.02a.4.4 0 0 1 .4.4l.02 2.21a.39.39 0 0 1-.117.293.399.399 0 0 1-.293.117l-12.45-.1a.403.403 0 0 0-.369.247.403.403 0 0 0-.031.153l.02 9.28a.4.4 0 0 0 .4.4Zm27.26 3.01v-8.56c0-.4.197-.613.59-.64 4.707-.352 7.693-.796 8.96-1.33 3.047-1.292 4.687-3.48 4.92-6.56.527-6.84-2.63-10.532-9.47-11.08-2.433-.2-6.033-.23-10.8-.09-.307.008-.46.164-.46.47v27.74c0 .08.031.157.085.213a.284.284 0 0 0 .205.088h5.72a.251.251 0 0 0 .25-.25Zm.08-15.05-.06-7.3a.295.295 0 0 1 .018-.11.29.29 0 0 1 .06-.094.283.283 0 0 1 .202-.086l3.43-.03c1.153-.01 2.262.345 3.084.987.821.641 1.287 1.517 1.296 2.434v.94c.004.454-.104.906-.319 1.328a3.532 3.532 0 0 1-.933 1.131 4.558 4.558 0 0 1-1.405.763 5.335 5.335 0 0 1-1.663.278l-3.43.03a.281.281 0 0 1-.28-.27Zm24.91 9.72 9.18-.02a.31.31 0 0 1 .31.31l.05 4.97a.31.31 0 0 1-.31.31h-15.47a.31.31 0 0 1-.31-.31l-.07-28.02a.31.31 0 0 1 .31-.31h5.66a.31.31 0 0 1 .31.31l.03 22.45c0 .04.008.08.023.118a.316.316 0 0 0 .287.192Zm50.29-11.83a.451.451 0 0 1-.13.01.442.442 0 0 1-.13-.01c-.114-.026-.19-.08-.23-.16l-5.77-10.73a.53.53 0 0 0-.5-.3l-6.69.01a.19.19 0 0 0-.16.29l10.05 17.35c.186.32.28.667.28 1.04l.01 9.26c.006.36.186.544.54.55.48.02 1.35.03 2.61.03 1.266 0 2.14-.01 2.62-.03.353-.013.53-.2.53-.56v-9.26c0-.373.093-.72.28-1.04l10.02-17.36a.191.191 0 0 0-.064-.263.19.19 0 0 0-.096-.026h-6.69c-.227 0-.394.1-.5.3l-5.75 10.74c-.04.08-.117.133-.23.16Zm23.21 11.84 11.66-.06a.298.298 0 0 1 .3.3l-.02 4.88a.298.298 0 0 1-.3.3h-17.64a.3.3 0 0 1-.3-.3V19.62a.301.301 0 0 1 .3-.3h17.16a.298.298 0 0 1 .3.3l-.02 5.02a.298.298 0 0 1-.3.3l-11.1-.02a.3.3 0 0 0-.3.31l.12 4.67a.302.302 0 0 0 .3.29l10.23.07a.298.298 0 0 1 .3.3l.02 5.03a.298.298 0 0 1-.3.3l-10.33-.03a.306.306 0 0 0-.212.088.296.296 0 0 0-.088.212l-.09 5.79a.31.31 0 0 0 .088.223.301.301 0 0 0 .222.087Zm23.85 5.19V38.3c0-.547.17-.603.51-.17l7.55 9.52c.093.113.217.17.37.17h6.92a.212.212 0 0 0 .105-.031.2.2 0 0 0 .094-.183.18.18 0 0 0-.039-.096l-7.24-10.35c-.207-.293-.14-.5.2-.62 3.38-1.17 5.7-2.72 6.44-6.47 1.15-5.81-2.45-10.2-8.51-10.58-5.133-.313-9.233-.397-12.3-.25-.327.013-.49.187-.49.52V47.3c0 .273.133.41.4.41h5.74c.167 0 .25-.087.25-.26Zm.01-15.49-.04-6.84c0-.07.027-.137.075-.187a.272.272 0 0 1 .185-.083l3.98-.03a5.586 5.586 0 0 1 1.661.235 4.63 4.63 0 0 1 1.412.697c.405.3.727.657.948 1.052.221.394.336.818.339 1.246v.86c.006.864-.443 1.695-1.25 2.312-.806.617-1.903.969-3.05.978l-3.98.03a.268.268 0 0 1-.197-.075.272.272 0 0 1-.062-.09.274.274 0 0 1-.021-.105Zm-7.364 33.959c-1.742.01-3.417-.713-4.656-2.008-1.239-1.295-1.94-3.057-1.95-4.898a7.292 7.292 0 0 1 .486-2.658 6.979 6.979 0 0 1 1.413-2.259 6.562 6.562 0 0 1 2.123-1.515 6.272 6.272 0 0 1 2.512-.542c1.742-.009 3.417.713 4.656 2.008 1.239 1.296 1.94 3.057 1.95 4.898a7.271 7.271 0 0 1-.486 2.658 6.979 6.979 0 0 1-1.413 2.259 6.551 6.551 0 0 1-2.123 1.515 6.267 6.267 0 0 1-2.512.542Zm-.093-1.47a4.602 4.602 0 0 0 1.911-.393 4.976 4.976 0 0 0 1.63-1.163 5.51 5.51 0 0 0 1.101-1.758 5.91 5.91 0 0 0 .405-2.085c.017-1.448-.49-2.843-1.412-3.878-.921-1.036-2.181-1.626-3.501-1.643a4.607 4.607 0 0 0-1.911.393 4.986 4.986 0 0 0-1.63 1.164 5.527 5.527 0 0 0-1.101 1.758 5.91 5.91 0 0 0-.404 2.084c-.018 1.448.49 2.843 1.411 3.879.921 1.035 2.181 1.626 3.501 1.642ZM256.73 62.02c-.473-.593-.723-1.573-.75-2.94-.027-1.373.183-2.367.63-2.98 2.227-3.04 4.86-3.38 7.9-1.02a.544.544 0 0 0 .635.035.565.565 0 0 0 .165-.155l.18-.23a.65.65 0 0 0-.13-.91c-3.1-2.38-6.077-2.367-8.93.04-1.407 1.187-2.09 2.937-2.05 5.25.053 2.313.807 4.033 2.26 5.16 2.953 2.287 5.93 2.177 8.93-.33a.65.65 0 0 0 .09-.91l-.19-.23a.57.57 0 0 0-.386-.212.55.55 0 0 0-.414.132c-2.94 2.48-5.587 2.247-7.94-.7Zm32.64.12c.16 0 .293-.127.4-.38 1.607-3.947 2.847-6.917 3.72-8.91.393-.907.677-.874.85.1l2.14 12.04c.06.353-.083.56-.43.62l-.46.08a.498.498 0 0 1-.58-.4l-1.39-7.87c-.113-.64-.303-.664-.57-.07-1.393 3.133-2.513 5.826-3.36 8.08-.047.12-.153.18-.32.18-.173 0-.283-.06-.33-.18-.84-2.254-1.953-4.95-3.34-8.09-.267-.594-.457-.57-.57.07l-1.41 7.87a.5.5 0 0 1-.58.4l-.46-.08c-.347-.06-.49-.267-.43-.62l2.16-12.04c.173-.974.457-1.007.85-.1.873 2 2.11 4.973 3.71 8.92.107.253.24.38.4.38Zm-36.78 2.72a1 1 0 1 1-2 0 1 1 0 0 1 2 0Z" clip-rule="evenodd"/><defs><linearGradient id="a" x1="31" x2="61.5" y1="1" y2="27.5" gradientUnits="userSpaceOnUse"><stop stop-color="#DA001F" stop-opacity="0"/><stop offset="1" stop-color="#DA001F"/></linearGradient><linearGradient id="b" x1="40.284" x2="9.784" y1="65.348" y2="38.848" gradientUnits="userSpaceOnUse"><stop stop-color="#DA001F" stop-opacity="0"/><stop offset="1" stop-color="#DA001F"/></linearGradient><linearGradient id="c" x1="68.427" x2="41.022" y1="29.741" y2="59.43" gradientUnits="userSpaceOnUse"><stop stop-color="#DA001F" stop-opacity="0"/><stop offset="1" stop-color="#DA001F"/></linearGradient><linearGradient id="d" x1="3.035" x2="30.441" y1="37.266" y2="7.578" gradientUnits="userSpaceOnUse"><stop stop-color="#DA001F" stop-opacity="0"/><stop offset="1" stop-color="#DA001F"/></linearGradient></defs></svg>