<svg width="300" height="71" viewBox="0 0 300 71" fill="none" xmlns="http://www.w3.org/2000/svg">
<path fill-rule="evenodd" clip-rule="evenodd" d="M2.85034 61.6837C4.76733 61.6979 6.91406 61.3956 8.3374 59.9949C10.1245 58.2196 11.0105 55.6068 11.7148 53.2467L29.0737 0.914062H30.6414L49.2327 53.3392C50.1327 55.8854 50.8844 58.706 52.988 60.5577C54.4329 61.6946 56.375 61.7687 58.1401 61.7335V63.23H35.0737V61.7335C37.2114 61.7335 38.6865 61.4485 39.5273 60.9354C41.8085 59.434 40.5373 56.3125 39.8123 54.3013L36.0569 43.8191H19.0403L15.1924 55.5911C14.5945 57.376 14.2095 59.7338 16.1045 60.8856C17.0452 61.4984 18.7268 61.7335 21.2637 61.6837V63.1801H2.85034V61.6837ZM27.2422 18.6362H27.0784L20.1165 40.3488H34.9167L27.2422 18.6362Z" fill="white"/>
<path fill-rule="evenodd" clip-rule="evenodd" d="M157.596 61.0281C156.983 61.4485 155.907 61.6338 154.411 61.6338V62.7454H170.943V61.6195C169.7 61.6409 168.247 61.6349 167.259 60.7715C165.813 59.3819 165.226 57.144 164.608 55.306L151.268 15.7787H150.142L137.786 55.306C137.271 57.0784 136.681 59.0376 135.392 60.4153C134.394 61.4481 132.861 61.7053 131.48 61.6837V62.8452H144.591V61.7192C142.76 61.7692 141.542 61.5768 140.886 61.1064C139.485 60.1573 139.887 58.4032 140.201 57.033L140.202 57.0304L142.967 48.123H155.159L157.831 55.9615C158.136 56.9449 158.532 57.9672 158.537 59.0115C158.596 59.8016 158.24 60.5658 157.596 61.0281ZM143.772 45.6147L148.76 29.2252H148.881L154.318 45.6147H143.772Z" fill="white"/>
<path d="M104.081 60.6075C102.888 61.6929 101 61.6694 99.4846 61.6337V62.7595H116.587V61.6337C115.3 61.6447 113.564 61.6177 112.696 60.5078C111.633 59.1826 111.645 57.1534 111.663 55.541V24.066C111.626 22.4899 111.597 20.531 112.561 19.1919C113.51 18.099 115.14 17.938 116.501 17.9734V16.8474H105.199L92.7791 50.7952H92.6365L80.1877 16.762H68.323V17.8878C69.7959 17.851 71.7051 17.9492 72.7766 19.1063C73.8132 20.4387 73.8013 22.3728 73.7673 23.9805V55.4912L73.7693 55.6921C73.7854 57.2842 73.8059 59.3319 72.6841 60.5576C71.5793 61.6946 69.7983 61.72 68.3159 61.6836V62.7952H82.0476V61.6693C80.5283 61.7058 78.6592 61.7312 77.4585 60.6503C76.2944 59.3401 76.3186 57.2963 76.3384 55.6346L76.3396 55.541V25.3914H76.4751L90.3562 62.8094H91.2329L105.157 24.5435H105.299V55.4912C105.342 57.1687 105.288 59.299 104.081 60.6075Z" fill="white"/>
<path d="M300 68.389H0V70.4485H300V68.389Z" fill="white"/>
<path d="M203.751 19.4058H198.642V55.5411C198.594 57.2488 198.651 59.3019 199.846 60.6504C201.142 61.7391 203.127 61.7024 204.747 61.6724L204.905 61.6694V62.7953H185.665V61.6837L185.899 61.688C187.483 61.7174 189.517 61.7554 190.76 60.686C191.987 59.3885 192 57.2137 191.965 55.5411V19.3916H186.977C184.858 19.3434 182.381 19.6288 180.791 21.173C179.199 22.7081 178.842 25.2031 178.853 27.3156H177.727V16.8547H212.986V27.2799H211.86C211.767 24.4296 211.112 22.356 209.893 21.1873C208.675 20.0187 206.658 19.4058 203.751 19.4058Z" fill="white"/>
<path d="M295.725 31.078H296.965L296.116 15.8856H294.898C294.836 16.6462 294.646 17.3907 294.335 18.0875C294.134 18.496 293.714 18.7515 293.259 18.7432C292.719 18.7155 292.192 18.572 291.713 18.3226C288.893 17.1282 286.051 15.8937 282.927 15.9355C277.216 15.8694 271.941 18.689 268.404 23.1041C264.354 28.2025 262.579 34.7529 262.625 41.204C262.555 44.5642 263.128 47.9069 264.314 51.0519C267.157 58.5735 274.294 63.9716 282.463 63.9497C289.589 63.9497 294.812 60.3369 298.14 53.1611L297.014 52.5983C294.601 57.5408 290.261 61.7369 284.451 61.5413C277.714 61.6401 272.965 56.9163 271.511 50.4747C270.843 47.4596 270.528 44.3773 270.57 41.2894C270.57 33.6433 271.625 27.8286 273.763 23.9379C275.591 20.2024 279.455 17.9014 283.611 18.0732C286.779 17.9722 289.834 19.2576 291.976 21.5935C294.135 23.8881 295.397 27.0804 295.725 31.0139V31.078Z" fill="white"/>
<path d="M245.858 18.0137C244.326 17.9819 242.34 17.9407 241.197 19.0994C240.026 20.4355 239.973 22.4297 240.029 24.116V55.5911C239.964 57.35 240.151 59.3789 241.34 60.7715C242.43 61.7635 244.181 61.7626 245.619 61.7617C245.744 61.7616 245.866 61.7615 245.986 61.7621V62.8809H227.416V61.7335L227.464 61.7339C229.046 61.7473 231.061 61.7646 232.247 60.5577C233.354 59.2278 233.424 57.2847 233.373 55.6338V24.1183C233.388 22.446 233.406 20.4119 232.197 19.1064C230.981 17.9513 229.014 17.995 227.443 18.0297L227.416 18.0304V16.9045H245.986V18.0162L245.858 18.0137Z" fill="white"/>
</svg>
