<svg width="14" height="14" viewBox="0 0 14 14" fill="#dafe31" xmlns="http://www.w3.org/2000/svg">
    <path fill-rule="evenodd" clip-rule="evenodd" d="M7.05482 13.1031C10.5167 13.1031 13.323 10.3041 13.323 6.85136C13.323 3.39861 10.5167 0.599609 7.05482 0.599609C3.59299 0.599609 0.786621 3.39861 0.786621 6.85136C0.786621 10.3041 3.59299 13.1031 7.05482 13.1031ZM6.82311 4.14085C6.63482 3.95305 6.32952 3.95305 6.14122 4.14085C5.95293 4.32866 5.95293 4.63315 6.14122 4.82095L8.21113 6.88542L6.14122 8.94989C5.95293 9.1377 5.95293 9.44219 6.14122 9.62999C6.32952 9.8178 6.63482 9.8178 6.82311 9.62999L9.23396 7.22547C9.42226 7.03767 9.42226 6.73318 9.23396 6.54537L6.82311 4.14085Z" fill="#dafe31"/>
</svg>
