<svg xmlns="http://www.w3.org/2000/svg" width="105" height="25"><path style="stroke:none;fill-rule:nonzero;fill:#ff333a;fill-opacity:1" d="M102.523.031H2.836a2.486 2.486 0 0 0-2.48 2.492v19.95a2.487 2.487 0 0 0 2.48 2.496h99.687A2.487 2.487 0 0 0 105 22.473V2.527a2.487 2.487 0 0 0-2.477-2.496Zm0 0"/><path style="stroke:none;fill-rule:evenodd;fill:#fff;fill-opacity:1" d="M99.172 6.531a1.461 1.461 0 0 0-.594-.527 1.728 1.728 0 0 0-.75-.172c-.43 0-.812.137-1.144.41-.332.274-.516.653-.551 1.133 0 .52.164.926.492 1.21.328.29.719.435 1.168.435.281 0 .547-.063.8-.184.255-.121.466-.316.614-.555.152-.25.23-.55.23-.906a1.71 1.71 0 0 0-.265-.844Zm-4.399 6.211a4.402 4.402 0 0 0-.78-.851c-.235-.184-.473-.371-.716-.551a14.18 14.18 0 0 1-.965-.793 3.655 3.655 0 0 1-.566-.649 1.376 1.376 0 0 1-.23-.753c0-.34.113-.63.343-.868.227-.242.528-.363.903-.363.535 0 1.12.266 1.758.79V6.311c-.692-.394-1.403-.59-2.13-.59-.71 0-1.335.192-1.882.575-.543.379-.926.918-1.137 1.61-.148.464-.223.948-.226 1.437 0 1.293.515 2.367 1.546 3.21.13.13.352.301.66.512.31.215.563.403.762.563.203.16.39.367.563.625.172.258.261.535.261.828-.035.402-.199.719-.492.945-.293.227-.652.34-1.07.34-.66 0-1.242-.25-1.742-.754v2.524c.75.398 1.484.597 2.203.597.469 0 .902-.082 1.3-.25.391-.156.743-.386 1.048-.675.3-.29.546-.63.734-1 .332-.66.496-1.325.496-1.993a3.698 3.698 0 0 0-.64-2.074Zm-9.39-3.066a.863.863 0 0 1 .004.125c0 .363-.13.719-.383 1.058-.258.34-.758.508-1.5.508-.106 0-.184 0-.238-.008V7.906c.132-.023.27-.035.402-.031.445 0 .844.11 1.195.336.348.223.524.64.524 1.25 0 .035 0 .066-.004.09-.004.027-.004.054-.004.082 0 .012 0 .027.004.043Zm1.91 1.875c.27-.387.437-.739.5-1.059a5.12 5.12 0 0 0 .094-.992c0-.734-.172-1.387-.52-1.953a3.459 3.459 0 0 0-1.414-1.309c-.598-.304-1.273-.457-2.027-.457h-3.172v12.754h2.64v-5.98l2.247 5.98h2.644l-2.246-5.848c.566-.37.984-.75 1.254-1.136Zm-12.906 6.984h5.152v-2.39h-2.512v-2.793h2.114v-2.524h-2.114V8.172h2.512v-2.39h-5.152ZM70.793 5.781h-2.512v12.754h5.414v-2.39h-2.902Zm-6.367 10.313c-.262.308-.617.465-1.067.465-.086 0-.172-.008-.257-.016v-3.457c.09-.008.152-.016.199-.016.297 0 .562.086.797.25.234.164.41.387.535.657.125.27.183.55.183.84 0 .542-.129.968-.39 1.277Zm-1.324-8.055c.394 0 .703.035.921.102.215.066.38.214.493.445.113.234.171.582.171 1.047 0 .566-.136.976-.414 1.238-.277.258-.582.39-.914.39-.074 0-.16-.011-.257-.034Zm3.445 4.805a2.749 2.749 0 0 0-.934-.688 2.89 2.89 0 0 0 .844-.71 2.6 2.6 0 0 0 .453-.883c.094-.317.137-.637.137-.961 0-.418-.063-.832-.192-1.25-.132-.418-.28-.747-.453-.977a4.179 4.179 0 0 0-.597-.727 3.45 3.45 0 0 0-.684-.507 3.1 3.1 0 0 0-.664-.282 2.124 2.124 0 0 0-.562-.078H60.59v12.754h3.305c.703 0 1.316-.172 1.835-.512.52-.34.918-.78 1.188-1.324a3.77 3.77 0 0 0 .41-1.71c0-.391-.062-.782-.187-1.153a2.884 2.884 0 0 0-.594-.992ZM54.75 5.78l-1.055 7.84-1.191-7.84h-3.3l-1.192 12.754h2.644l.528-8.902 1.586 8.902h1.98l1.453-8.902.66 8.902h2.645L58.055 5.781Zm-12.18 8.77.793-5.582 1.055 5.582Zm-.398-8.77-2.906 12.754h2.511l.528-2.125h2.511l.395 2.125h2.644L44.816 5.781Zm-7.293 5.711v2.39h1.719c-.04.528-.13.981-.27 1.364-.14.383-.332.672-.57.867a1.344 1.344 0 0 1-.88.297c-.425-.035-.753-.215-.991-.535a2.752 2.752 0 0 1-.477-1.082 9.935 9.935 0 0 1-.18-1.32c-.035-.485-.058-.746-.07-.786 0-.19.008-.503.028-.93.007-.417.042-.898.101-1.429.059-.535.148-.945.27-1.226.164-.403.375-.707.625-.915.254-.203.523-.304.8-.304.243 0 .465.066.672.203.203.133.367.328.489.578.125.254.187.531.187.836l2.379-.93c-.32-.797-.652-1.414-1-1.855-.348-.442-.852-.75-1.512-.934a5.05 5.05 0 0 0-1.379-.207c-1.066 0-1.922.348-2.562 1.051-.64.7-1.094 1.469-1.352 2.313-.258.84-.386 1.472-.386 1.89-.043.41-.067.824-.067 1.238 0 1.13.16 2.2.485 3.211.32 1.008.824 1.832 1.511 2.473.692.64 1.551.957 2.586.957.188 0 .399-.012.637-.039.812-.117 1.457-.441 1.93-.973.476-.53.793-1.043.957-1.53.16-.49.257-.852.285-1.083a10.49 10.49 0 0 0 .223-2.242 9.28 9.28 0 0 0-.094-1.348Zm-5.18-5.71h-2.64l-2.118 5.843V5.781h-2.507v12.754h2.507V12.29l2.38 6.246h2.644l-2.645-6.644Zm-9.023 6.96a4.489 4.489 0 0 0-.781-.851 42.449 42.449 0 0 0-.715-.551 14.18 14.18 0 0 1-.965-.793 3.655 3.655 0 0 1-.567-.649 1.36 1.36 0 0 1-.23-.753c0-.34.113-.63.344-.868.226-.242.527-.363.902-.363.535 0 1.121.266 1.758.79V6.311c-.692-.394-1.402-.59-2.129-.59-.711 0-1.336.192-1.883.575-.543.379-.926.918-1.14 1.61-.145.464-.22.948-.223 1.437 0 1.293.515 2.367 1.547 3.21.133.13.351.301.66.512.308.215.562.403.762.563.203.16.39.367.562.625.172.258.262.535.262.828-.035.402-.2.719-.492.945-.297.227-.653.34-1.07.34-.66 0-1.243-.25-1.743-.754v2.524c.75.398 1.485.597 2.203.597.469 0 .903-.082 1.301-.25a3.345 3.345 0 0 0 1.047-.675c.3-.29.547-.63.734-1 .328-.66.496-1.325.496-1.993 0-.367-.054-.726-.168-1.086a3.598 3.598 0 0 0-.472-.988ZM9.168 14.551l.793-5.582 1.055 5.582ZM8.77 5.78 5.863 18.535h2.512l.527-2.125h2.512l.395 2.125h2.64L11.414 5.781Zm0 0"/></svg>