<svg xmlns="http://www.w3.org/2000/svg" width="300" height="300" fill="none" viewBox="0 0 300 300"><path fill="#fff" d="m26.183 220.877 95.46-188.615L165.543 0l92.904 229.078L148.35 87.053 26.183 220.877Z"/><path fill="#7FD4F7" d="m102.995 187.277 38.403 34.94L283.133 81.318l-139.54 171.628-40.598-65.669Z"/><path fill="#fff" fill-rule="evenodd" d="M41.89 299.903h6.308l-2.884-5.208-13.209-23.945-13.215 23.945-2.89 5.208h6.321l2.884-5.208 6.9-12.494 6.9 12.494 2.884 5.208Zm26.873-23.939 2.89-5.214h-6.32l-2.884 5.214-6.9 12.488-6.901-12.488-2.884-5.214h-6.308l2.877 5.214 13.215 23.939 13.215-23.939Zm26.424 23.939h-6.32l-2.885-5.208-6.9-12.494-6.894 12.494-2.89 5.208H62.99l2.884-5.208 13.208-23.945 13.215 23.945 2.89 5.208Zm25.297-23.901v-5.207H88.956v5.207h12.938v23.946h5.639v-23.946h12.951Zm26.057 23.901h-6.321l-2.877-5.208-6.907-12.494-6.9 12.494-2.878 5.208h-6.314l2.884-5.208 13.208-23.945 13.215 23.945 2.89 5.208Zm32.79.039-2.884-5.201-4.557-8.291a7.68 7.68 0 0 0 2.433-.624c2.903-1.101 4.879-3.933 4.982-7.158-.032-2.15-.94-4.178-2.491-5.587-1.674-1.494-3.804-2.311-6.006-2.285h-19.929v29.152h5.639V286.54h5.678c1.886-.038 3.669.895 4.776 2.491l.141.258 3.013 5.452 2.89 5.201h6.315Zm-7.313-18.854a2.796 2.796 0 0 1-1.171.238l-14.329.045v-5.368h14.355a3.002 3.002 0 0 1 2.034.747c.527.489.824 1.184.83 1.918-.039 1.101-.721 2.06-1.719 2.42Z" clip-rule="evenodd"/><path fill="#7FD4F7" fill-rule="evenodd" d="M224.389 293.39v-22.542h-2.298v22.542c.09 2.06-1.422 3.817-3.398 3.939h-25.111c-1.983-.122-3.495-1.879-3.399-3.939v-22.542h-2.304v22.542c0 3.662 2.536 6.611 5.703 6.611h25.111c3.115 0 5.696-2.949 5.696-6.611Zm42.555 6.591-16.298-14.56 16.298-14.573h-3.74l-14.425 12.899-14.373-12.899h-3.785l16.291 14.573-16.291 14.56h3.785l14.373-12.899 14.425 12.899h3.74Z" clip-rule="evenodd"/></svg>