<svg xmlns="http://www.w3.org/2000/svg" width="300" height="130" fill="none" viewBox="0 0 300 130"><path fill="#fff" fill-rule="evenodd" d="m94.529 12.875-1.138 27.41 25.545-12.276-18.965 22.797 30.256 10.45-30.164 2.186 16.347 22.186-25.778-13.55.485 21.256-10.901-18.532-11.9 14.61.978-17.649-22.166 10.94 15.032-18.49-22.75-1.208 22.11-7.77-23.867-14.44 29.866 3.55-7.505-23.276 19.272 17.525 15.243-25.719ZM82.89 52.125l-1.257 2.12-.588-.534.34 1.058 1.4-.102.105-2.542Zm-.688 3.936-.251-.34-.103.126.354.214Zm-.669-.835.056.003-.097-.131.041.128Z" clip-rule="evenodd"/><path fill="#fff" fill-rule="evenodd" d="m96.416 6.635-1.333 31.087 29.607-14.263-22.119 26.63 35.322 12.236-34.88 2.503 18.795 25.48L92.32 74.764l.583 24.563-12.888-21.784L66.42 94.21l1.147-19.864L41.635 87.02l17.372-21.463-27.474-1.568 26.299-9.164-27.198-16.467 34.615 4.126-8.54-26.61 22.196 20.23 17.511-29.47Z" clip-rule="evenodd"/><path fill="#FFCE05" d="m74.76 63.49-9.3 4.59 6.78-8.34-7.35-.39 8.28-2.91-13.14-7.95 14.64 1.74-4.14-12.84 9.93 9.03 8.25-13.92-.66 15.9 12.36-5.94-8.91 10.71 14.07 4.86-14.91 1.08 8.82 11.97-14.04-7.38.24 10.53-4.8-8.16-6.72 8.25.6-10.83Z"/><path fill="#E62E20" d="m86.85 38.74-.3 6.99-.21 5.25 4.8-2.31 3.45-1.65-2.88 3.48-2.85 3.42 4.26 1.47 4.77 1.65-4.5.3-5.67.42 3.33 4.53 3.09 4.2-5.52-2.91-4.83-2.55.12 5.34.06 1.77-.57-.93-2.34-3.96-2.91 3.57-2.16 2.64.18-3.24.33-5.34-4.89 2.4-.45.24.36-.45 3.84-4.71-2.61-.15 4.05-1.41-5.64-3.39-4.17-2.52 4.98.6 4.89.57-1.47-4.62-1.59-4.92 4.08 3.72 2.91 2.64 1.98-3.39 4.08-6.75Zm3.72-12.48-10.5 17.67L67.2 32.2l5.19 16.17-19.38-2.31 16.5 9.99-12.57 4.38 12.09.69-9.3 11.49 13.32-6.51-.75 12.99 8.37-10.26 6.78 11.46-.33-13.92 17.7 9.33L93.6 60.49l19.65-1.41-19.14-6.63 12.06-14.52-16.44 7.92.84-19.59Z"/><path fill="#fff" fill-rule="evenodd" d="M81.39 54.05a17.441 17.441 0 0 0-11.303 4.169l-.007.006a.6.6 0 0 0-.105.116l-.001.005c0 .004-.003.02-.001.05.008.127.101.551.677 1.204.307.336.545.508.701.593.144.077.21.078.23.078.013 0 .142-.003.397-.182a14.618 14.618 0 0 1 9.412-3.448h.038c.215 0 .563 0 .921.03h.151c.34 0 .65-.12.872-.31.295-.264.444-.57.478-.95v-.007c.022-.24-.065-.564-.315-.85-.214-.24-.518-.407-.963-.45-.443-.03-.835-.053-1.182-.053Zm-14.553.37a22.441 22.441 0 0 1 14.553-5.37c.544 0 1.103.037 1.546.066l.027.002.027.002c1.582.14 3.131.811 4.293 2.124l.004.005c1.068 1.214 1.7 2.868 1.543 4.605a6.372 6.372 0 0 1-2.153 4.26l-.008.006-.008.007a6.344 6.344 0 0 1-4.16 1.544h-.41l-.137-.015a5.862 5.862 0 0 0-.564-.015 9.616 9.616 0 0 0-6.229 2.304l-.063.055-.068.05c-.911.684-2.084 1.22-3.45 1.22-1.926 0-3.476-1.038-4.64-2.317l-.01-.012-.01-.011c-1.065-1.2-1.84-2.647-1.938-4.228-.103-1.677.582-3.197 1.855-4.282Z" clip-rule="evenodd"/><path fill="#fff" fill-rule="evenodd" d="M66.416 53.881a23.05 23.05 0 0 1 14.974-5.52c.53 0 1.053.031 1.517.059l.09.005c1.908.099 3.624 1 4.815 2.328l.03.033.029.035c1.102 1.323 1.79 3.048 1.654 4.968-.106 1.903-1.032 3.587-2.387 4.762l-.009.006-.008.007a7.132 7.132 0 0 1-4.59 1.677h-.486l-.155-.019a4.835 4.835 0 0 0-.47-.01 8.938 8.938 0 0 0-5.788 2.106c-1.174 1.06-2.602 1.583-4.052 1.583-2.1 0-3.83-1.09-5.146-2.554-1.036-1.119-1.858-2.522-2.069-4.065-.305-2.079.467-4.015 2.029-5.382l.01-.01.012-.009Zm16.122.854-.044-.003c-.446-.03-.766-.05-1.104-.05-3.952 0-7.716 1.346-10.672 3.886l.03.057c.086.154.218.342.404.547l.008.01.009.008c.156.176.285.292.382.366a15.244 15.244 0 0 1 9.87-3.605h.032c.252 0 .58 0 .95.03h.097a.735.735 0 0 0 .485-.188.57.57 0 0 0 .2-.374.694.694 0 0 0-.645-.683h-.002Z" clip-rule="evenodd"/><path fill="#fff" fill-rule="evenodd" d="M63.144 48.96h.456c2.777 0 6.6 1.322 11.045 5.961l.002.003c3.375 3.53 5.568 7.239 5.4 10.96v.015l-.001.017a7.776 7.776 0 0 1-1.007 3.444 7.088 7.088 0 0 1-.68.984l-.044.088-.287.287c-.075.074-3.816 3.571-4.99 4.657l-.008.007-.008.008c-1.196 1.087-2.73 1.58-4.352 1.58-1.964 0-4-.702-5.868-1.74-1.895-1.053-3.774-2.54-5.458-4.322-2.413-2.545-4.138-5.392-4.895-8.069-.727-2.573-.703-5.68 1.545-7.735l.004-.004c.643-.584 3.27-3.031 4.374-4.076l.007-.007.008-.007a7.702 7.702 0 0 1 4.661-2.043l.096-.007Zm.208 5a2.7 2.7 0 0 0-1.552.705 538.468 538.468 0 0 1-4.438 4.136l-1.682-1.85 1.686 1.846c-.181.166-.623.852-.105 2.682.488 1.725 1.717 3.887 3.713 5.992l.004.003c1.375 1.457 2.856 2.61 4.253 3.387 1.425.792 2.613 1.11 3.44 1.11.589 0 .855-.162.982-.275.96-.888 3.352-3.123 4.37-4.074a1055.296 1055.296 0 0 1 .43-.403 2.008 2.008 0 0 0 .25-.35c.142-.246.314-.648.35-1.227.066-1.62-.925-4.025-4.019-7.262-3.775-3.94-6.371-4.42-7.434-4.42h-.248Z" clip-rule="evenodd"/><path fill="#fff" fill-rule="evenodd" d="M63.185 48.3h.475c4.022 0 7.906 2.422 11.48 6.277 3.54 3.7 5.724 7.57 5.569 11.4-.088 3.022-1.642 4.775-2.261 5.34-.529.512-3.763 3.575-4.975 4.64-1.303 1.15-2.998 1.704-4.773 1.704-3.963 0-8.417-2.66-11.813-6.28l-.005-.004c-2.288-2.452-4.08-5.29-4.939-8.042l-.006-.022-.007-.021c-.892-3.054-.8-6.423 1.66-8.655.338-.321.925-.862 1.579-1.465.98-.903 2.112-1.947 2.788-2.604l.004-.003c1.411-1.367 3.27-2.13 5.139-2.258l.085-.006Zm-.882 6.821a2.117 2.117 0 0 1 1.025-.509c.14.009.27.009.322.009h.01c1.026 0 3.383.474 6.916 4.2l.009.01c3.494 3.647 3.882 5.863 3.845 6.79-.02.48-.153.776-.239.923a1 1 0 0 1-.081.122l-.577.54-1.41 1.316c-1.067.997-2.274 2.124-2.877 2.682a.304.304 0 0 1-.103.051 1.427 1.427 0 0 1-.443.056c-.674 0-1.75-.272-3.097-1.018-1.313-.728-2.737-1.827-4.076-3.26l-.01-.009c-1.837-1.946-3.015-3.97-3.512-5.58-.249-.805-.296-1.402-.254-1.784.02-.183.058-.291.083-.346a.198.198 0 0 1 .044-.07m16.254 7.401Z" clip-rule="evenodd"/><path fill="#fff" fill-rule="evenodd" d="M65.24 50.88a6.308 6.308 0 0 0-4.947 1.031l-.026.02-.027.019c-.413.31-.75.653-.96.884a8.203 8.203 0 0 0-.352.411l-.027.034-.01.013-.003.005-.003.003 1.985 1.52-1.986-1.519-1.655 2.165 2.299 1.463.026.017.075.048.25.16c.204.133.409.268.518.344l1.718 1.203 1.872-1.872.055-.063a1.022 1.022 0 0 1 .184-.162l.025-.015.023-.014c.31-.196.637-.227.987-.17a2.234 2.234 0 0 1 .516.153l.004.002-.006-.003-.015-.008-.011-.006-.006-.003-.004-.002-.002-.001.009-.016 2.72-4.154c-.871-.677-1.874-1.085-2.695-1.359l-.385-.128h-.145Z" clip-rule="evenodd"/><path fill="#fff" fill-rule="evenodd" d="M14.253 68.082c5.92-9.198 16.098-14.691 27.267-14.691L14.253 68.082Zm-4.205-2.704C16.908 54.717 28.689 48.39 41.52 48.39c7.007 0 13.85 1.96 19.791 5.621l.007.005c8.389 5.206 14.227 13.324 16.418 22.832 2.194 9.516.446 19.321-4.829 27.586l-.005.008c-6.86 10.661-18.61 16.988-31.472 16.988a37.72 37.72 0 0 1-19.792-5.622l-.005-.003C4.29 105.059-.917 82.438 10.047 65.379v-.001ZM41.52 53.39a32.721 32.721 0 0 1 17.165 4.876L41.52 53.39Zm17.165 4.876c7.27 4.513 12.29 11.514 14.179 19.705 1.886 8.183.395 16.616-4.17 23.77-5.92 9.197-16.068 14.689-27.264 14.689a32.724 32.724 0 0 1-17.166-4.877C9.27 102.26 4.818 82.764 14.252 68.084" clip-rule="evenodd"/><path fill="#fff" fill-rule="evenodd" d="M23.523 52.19a38.616 38.616 0 0 1 17.997-4.46c7.12 0 14.085 1.958 20.18 5.712h.002c8.548 5.27 14.472 13.542 16.723 23.222l.001.006c2.223 9.664.447 19.653-4.953 28.042M23.523 52.19c-5.713 3.016-10.569 7.45-14.017 12.86-5.401 8.363-7.175 18.353-4.921 28.047 2.25 9.679 8.174 17.95 16.721 23.22a38.23 38.23 0 0 0 20.154 5.713 38.61 38.61 0 0 0 18-4.46 37.452 37.452 0 0 0 14.012-12.856m-58.65-36.269c-9.283 14.409-4.923 33.456 9.804 42.57l.005.003c5.224 3.251 11.062 4.782 16.829 4.782 10.48 0 20.733-5.129 26.696-14.42l.002-.003c9.283-14.41 4.923-33.457-9.804-42.57l-.005-.004c-5.224-3.251-11.062-4.782-16.829-4.782-10.477 0-20.703 5.126-26.698 14.423" clip-rule="evenodd"/><path fill="#fff" fill-rule="evenodd" d="M52.886 58.987c-13.303-5.559-28.988-.536-36.261 12.054l-4.33-2.501c8.567-14.83 26.962-20.667 42.519-14.166l-1.928 4.613Z" clip-rule="evenodd"/><path fill="#fff" fill-rule="evenodd" d="M42.999 51.246c4.159.26 8.264 1.332 11.961 3.164l-1.916 4.607c-6.652-2.264-13.857-2.391-20.414-.178l-.013.004c-6.582 2.185-12.205 6.625-16.088 12.35l-4.324-2.481c5.424-11.342 18.277-18.276 30.794-17.466ZM15.136 74.05c-5.578 12.94-.51 28.254 12.33 35.406l-2.433 4.368C9.973 105.436 3.942 87.39 10.544 72.07l4.592 1.98Z" clip-rule="evenodd"/><path fill="#fff" fill-rule="evenodd" d="M7.405 83.705a29.47 29.47 0 0 1 3.211-11.787l4.585 1.963c-2.26 6.501-2.409 13.536-.154 19.916l.004.01.004.011c2.203 6.419 6.685 11.923 12.554 15.724l-2.407 4.368C13.71 108.606 6.562 96.046 7.405 83.705Z" clip-rule="evenodd"/><path fill="#000" d="M71.58 62.77c-.96 0-1.89-.51-2.79-1.5-1.65-1.86-1.74-3.75-.33-4.95 3.57-3.06 8.19-4.77 12.93-4.77.45 0 .93.03 1.38.06 1.02.09 1.95.51 2.64 1.29.66.75 1.02 1.74.93 2.73a3.872 3.872 0 0 1-1.32 2.61c-.69.6-1.59.93-2.52.93h-.27c-.27-.03-.57-.03-.84-.03-2.88 0-5.7 1.05-7.86 2.91-.6.45-1.26.72-1.95.72Z"/><path fill="#fff" d="M81.39 52.181c.45 0 .87.03 1.32.06 1.74.12 3.06 1.62 2.97 3.33a3.07 3.07 0 0 1-1.08 2.13c-.57.48-1.29.78-2.1.78h-.21c-.3-.03-.57-.03-.87-.03-3.06 0-6 1.08-8.31 3.06-.51.45-1.02.63-1.53.63-.78 0-1.56-.48-2.28-1.29-1.17-1.29-1.71-2.91-.36-4.05 3.45-3.03 7.86-4.62 12.45-4.62Zm0-1.32c-4.89 0-9.63 1.74-13.35 4.92-.96.84-1.38 1.95-1.2 3.15.12.9.63 1.86 1.44 2.73 1.02 1.14 2.13 1.74 3.3 1.74.84 0 1.68-.3 2.4-.96 2.07-1.77 4.71-2.73 7.44-2.73.27 0 .54 0 .78.03h.33c1.08 0 2.16-.39 2.97-1.08.9-.78 1.47-1.86 1.53-3.03.09-1.2-.33-2.31-1.08-3.21-.78-.87-1.89-1.44-3.09-1.5-.51-.03-.99-.06-1.47-.06Z"/><path fill="#000" d="M68.67 74.47c-2.79 0-6.45-2.04-9.51-5.28-4.41-4.65-5.91-10.02-3.48-12.24.66-.6 3.3-3.06 4.41-4.11.87-.81 1.98-1.29 3.15-1.38h.36c1.92 0 5.13.9 9.24 5.19 3.24 3.39 4.83 6.45 4.71 9.12-.12 2.07-1.26 3.12-1.29 3.18-.03.03-3.72 3.48-4.92 4.59-.66.6-1.56.93-2.67.93Z"/><path fill="#fff" d="M63.66 52.12c1.92 0 4.89.93 8.73 4.98 7.5 7.83 3.45 11.37 3.45 11.37s-3.72 3.48-4.92 4.59c-.57.51-1.32.75-2.22.75-2.49 0-6-1.86-9-5.07-4.08-4.32-5.64-9.39-3.51-11.34.69-.63 3.3-3.06 4.41-4.11.75-.69 1.71-1.11 2.73-1.2.09.03.21.03.33.03Zm0-1.32h-.39c-1.32.09-2.61.63-3.57 1.56-1.08 1.05-3.75 3.48-4.41 4.11-1.44 1.29-1.74 3.45-.96 6.12.72 2.31 2.28 4.83 4.38 7.08 3.18 3.39 7.02 5.49 9.99 5.49 1.26 0 2.34-.39 3.12-1.08 1.23-1.08 4.71-4.38 4.92-4.59.24-.21 1.41-1.38 1.47-3.6.12-2.82-1.5-6.06-4.89-9.6-3.39-3.66-6.66-5.49-9.66-5.49Z"/><path fill="#fff" d="M66.93 54.34s-2.04-1.11-3.99.12c-.3.18-.57.42-.78.66l-.33.33c-.3-.21-.96-.63-.96-.63s.39-.51.87-.87c.93-.66 2.1-.87 3.21-.57h.03c.72.24 1.41.54 1.95.96Z"/><path fill="#000" d="M41.43 118.931c-6.54 0-12.93-1.83-18.48-5.25-16.17-10.02-21-31.08-10.8-46.95 6.39-9.93 17.37-15.84 29.37-15.84 6.54 0 12.93 1.83 18.48 5.25C67.83 61 73.26 68.56 75.3 77.41c2.04 8.85.42 17.97-4.5 25.68-6.39 9.93-17.34 15.84-29.37 15.84Z"/><path fill="#fff" d="M41.52 51.52c6.21 0 12.51 1.65 18.15 5.16 15.9 9.84 20.64 30.45 10.59 46.05-6.45 10.05-17.52 15.57-28.8 15.57-6.21 0-12.51-1.65-18.15-5.16-15.9-9.84-20.64-30.45-10.59-46.05 6.48-10.05 17.52-15.57 28.8-15.57Zm0-1.29c-5.85 0-11.67 1.44-16.83 4.17-5.34 2.82-9.87 6.96-13.08 12-5.04 7.8-6.69 17.1-4.59 26.13 2.1 9.03 7.62 16.74 15.6 21.66a35.732 35.732 0 0 0 18.84 5.34c5.85 0 11.67-1.44 16.83-4.17 5.34-2.82 9.84-6.96 13.08-12 5.04-7.83 6.69-17.13 4.62-26.13-2.1-9.03-7.62-16.74-15.6-21.66a35.913 35.913 0 0 0-18.87-5.34Z"/><path fill="#E62E20" fill-rule="evenodd" d="M38.683 74.16a96.684 96.684 0 0 0-2.127.197 5.397 5.397 0 0 0-.28.137 2.95 2.95 0 0 0-.882.712l2.178 1.842-.434-.367 1.545-2.522ZM36.972 78l-2.541-.368c-.025.27-.037.746.095 1.365a6.023 6.023 0 0 0 1.27 2.59c.233-.088.47-.174.711-.256.35-.118.1-.232.465-.331v-3Zm-.085 11.262a6.704 6.704 0 0 0-.125 1.021v.015a7.284 7.284 0 0 0-.002.698L36.5 91l.262-2.074c-.38-.007.6-.02.247-.059a3.54 3.54 0 0 0-.122.395ZM39 94.5l-1.082-.118c.614.72 1.197.426 1.313.487l.258-.487L39 94.5Zm.667.271-.12.256c.101.048.2.09.296.13l-.176-.386ZM59.55 80.383l.058-.132c.987-2.27 1.6-4.942 1.21-7.742a13.212 13.212 0 0 0-3.009-6.742c-.901-1.058-2.102-2.315-3.63-3.373-1.265-.875-2.675-1.62-4.116-2.288a7.494 7.494 0 0 0-1.545-.52c-1.908-.42-3.896-.56-5.694-.594-1.993-.038-4.49.114-7.332.395l-.008.001c-3.008.3-6.696.884-10.974 1.679a7.5 7.5 0 0 0-6.13 7.446l.33 34.38a7.5 7.5 0 0 0 6.665 7.381c4.225.473 7.901.703 11.077.736l.078.001c2.98 0 5.688-.09 7.919-.351 2.02-.235 3.904-.563 5.488-1.003 1.122-.311 2.665-.789 3.932-1.528l.12-.069a38.93 38.93 0 0 0 .665-.398 8.7 8.7 0 0 0 .668-.472c.117-.093.375-.3.671-.596 1.418-1.418 2.608-2.784 3.585-4.074l.15-.204c1.056-1.497 1.93-3.101 2.677-4.832.02-.044.038-.089.056-.133.944-2.308 1.41-4.846 1.199-7.53-.218-3.185-1.518-5.95-3.117-8.19l-.017-.022a16.278 16.278 0 0 0-.976-1.226ZM37 93l-.24-1.278h.096c.088.442.225.783.36 1.035.152.28-.381.024-.216.243Zm.138-16.078-1.916-1.505c-.278.354-.434.65-.505.799l2.42.706Z" clip-rule="evenodd"/><path fill="#E62E20" fill-rule="evenodd" d="M72.655 62.355a7.5 7.5 0 0 1 6.525 3.319l18.42 27.48a7.5 7.5 0 0 1-3.617 11.206l-11.46 4.26a7.502 7.502 0 0 1-8.488-2.368 7.497 7.497 0 0 1-8.589 3.081l-10.98-3.51a7.5 7.5 0 0 1-4.254-10.817l16.2-28.83a7.5 7.5 0 0 1 6.243-3.82Z" clip-rule="evenodd"/><path fill="#E62E20" fill-rule="evenodd" d="M71.98 61.9a7.5 7.5 0 0 1 6.45 2.353l.36.39c.264.284.504.59.72.911l18.42 27.48.01.015.18.27a7.5 7.5 0 0 1-4.267 11.397l-.005.001-10.972 4.079-.041.017a7.501 7.501 0 0 1-8.715-2.088 7.499 7.499 0 0 1-8.583 2.91l-.225-.075-10.872-3.476-.236-.07a7.503 7.503 0 0 1-4.552-10.538l.15-.3c.054-.11.111-.217.171-.323l16.166-28.74.177-.329A7.5 7.5 0 0 1 71.98 61.9Z" clip-rule="evenodd"/><path fill="#E62E20" fill-rule="evenodd" d="M102.244 65.151a7.5 7.5 0 0 1 5.537-1.944l11.19.72a7.5 7.5 0 0 1 7.005 7.94l-1.71 28.08a7.5 7.5 0 0 1-10.784 6.28l-3.804-1.862a7.499 7.499 0 0 1-6.299 4.232l-10.77.66a7.5 7.5 0 0 1-7.958-7.603l.48-30.57a7.5 7.5 0 0 1 12.233-5.7l3.004 2.445a7.5 7.5 0 0 1 1.876-2.677Z" clip-rule="evenodd"/><path fill="#E62E20" fill-rule="evenodd" d="M100.215 67.32a7.503 7.503 0 0 1 6.845-4.43h.3c.161 0 .321.006.482.016l11.19.72c.115.008.231.018.346.03l.27.03a7.498 7.498 0 0 1 6.626 8.283l-.009.084-1.699 27.894-.008.119-.03.39a7.5 7.5 0 0 1-10.832 6.133l-.334-.167-3.386-1.66a7.498 7.498 0 0 1-5.868 4.073l-.27.03a9.024 9.024 0 0 1-.369.032l-10.626.651-.157.015a7.499 7.499 0 0 1-8.246-7.462v-.411l.45-30.574v-.485a7.5 7.5 0 0 1 12.134-5.898l.42.33.103.083 2.668 2.174Z" clip-rule="evenodd"/><path fill="#E62E20" fill-rule="evenodd" d="M158.076 89.425a24.77 24.77 0 0 1-2.101 5.805 36.089 36.089 0 0 1-2.502 4.199 40.317 40.317 0 0 1-2.101 2.763l-.138.161a25.777 25.777 0 0 1-1.101 1.181c-1.458 1.458-3.193 2.697-5.156 3.669a24.024 24.024 0 0 1-5.824 2.095c-2.065.464-4.12.662-6.143.662l-.144-.001c-2.329-.045-4.666-.45-6.896-1.274a20.934 20.934 0 0 1-6.073-3.499l-.084-.071c-2.159-1.834-3.731-4.087-4.859-6.524l-.01-.022c-1.174-2.558-1.9-5.202-2.128-7.936a24.282 24.282 0 0 1 .648-7.662 24.127 24.127 0 0 1 2.912-6.903 27.124 27.124 0 0 1 4.596-5.589 27.766 27.766 0 0 1 5.907-4.175 25.513 25.513 0 0 1 7.126-2.573c.305-.062.613-.105.922-.129.074-.008.193-.023.362-.046l.061-.008c1.027-.128 2.232-.157 3.529-.07 1.475.097 2.94.375 4.289.694l.181.045c1.858.49 3.641 1.26 5.34 2.166.021.01.042.022.062.033 1.952 1.065 3.823 2.443 5.611 4.19a7.498 7.498 0 0 1 1.989 7.36 7.462 7.462 0 0 1 2.059 4.215 19.61 19.61 0 0 1-.334 7.244ZM134.868 63.61c-.001 0-.001 0 0 0Z" clip-rule="evenodd"/><path fill="#fff" d="M25.88 68.44c4.2-.78 7.65-1.32 10.35-1.59 2.73-.27 4.89-.39 6.45-.36 1.56.03 3 .15 4.23.42 1.23.57 2.22 1.11 3 1.65.78.54 1.5 1.26 2.19 2.07.69.81 1.14 1.83 1.29 2.91.15 1.08-.06 2.34-.66 3.72-.6 1.38-1.83 2.91-3.63 4.56 2.49 1.29 4.26 2.67 5.34 4.17 1.05 1.47 1.65 2.94 1.74 4.38.12 1.44-.12 2.82-.66 4.14-.57 1.32-1.2 2.46-1.92 3.48-.75.99-1.71 2.101-2.91 3.301-.03.03-.24.15-.6.36s-1.08.48-2.16.78c-1.08.3-2.55.57-4.35.78-1.8.21-4.17.3-7.05.3-2.88-.03-6.3-.24-10.32-.69l-.33-34.38Zm18.33 21.81c-.06-.3-.18-.66-.39-1.05-.21-.39-.57-.69-1.08-.96-.51-.24-1.23-.3-2.13-.21-.9.09-2.07.48-3.51 1.14l.57 4.62c1.65.15 2.91.09 3.81-.21.9-.3 1.56-.66 1.95-1.08.39-.45.69-1.02.81-1.8.03 0 0-.15-.03-.45ZM41.6 76.84c-.21-.3-.63-.51-1.23-.63-.57-.09-1.47.09-2.67.54l-.18 4.62c.93.15 1.68.06 2.25-.24.57-.3 1.02-.69 1.35-1.08.33-.42.57-1.02.78-1.74.06-.66-.06-1.17-.3-1.47ZM72.95 69.852l18.42 27.48-11.46 4.26-3.06-5.01-7.65.27-1.47 5.34-10.98-3.51 16.2-28.83Zm-1.86 21.27 4.35-.75-1.83-4.86-2.52 5.61ZM92.63 71.201l14.34 11.67.33-12.18 11.19.72-1.71 28.08-14.4-7.05.54 8.67-10.77.66.48-30.57ZM142.22 83.08c-.33-.84-.9-1.44-1.65-1.8-.75-.36-1.59-.57-2.55-.57-.96 0-1.86.21-2.85.57-1.02.36-1.89.93-2.7 1.65-.81.69-1.47 1.56-2.01 2.58-.54 1.02-.78 2.16-.78 3.45-.03 1.2.15 2.13.57 2.85.42.72.93 1.23 1.56 1.53.63.3 1.32.48 2.1.42s1.5-.21 2.25-.54c.75-.33 1.41-.75 2.01-1.29.6-.54 1.05-1.17 1.35-1.86l-5.25.99.57-5.85 16.14-2.01c.21 1.53.15 3.03-.21 4.53-.33 1.47-.84 2.85-1.47 4.08s-1.29 2.34-1.98 3.33c-.69.99-1.26 1.71-1.71 2.25-.45.51-.72.78-.78.84-.87.87-1.95 1.65-3.24 2.28-1.26.66-2.61 1.14-4.08 1.47-1.47.33-2.97.48-4.5.48-1.56-.03-3.06-.3-4.44-.81-1.38-.51-2.7-1.26-3.9-2.25-1.2-1.02-2.16-2.34-2.91-3.96-.84-1.83-1.32-3.63-1.47-5.43-.12-1.8.03-3.54.45-5.22.42-1.68 1.08-3.27 2.01-4.77.93-1.5 2.04-2.85 3.33-4.05 1.29-1.2 2.76-2.22 4.35-3.06 1.59-.87 3.3-1.47 5.07-1.83.06 0 .33-.03.78-.09.48-.06 1.2-.09 2.1-.03.9.06 1.92.24 3.06.51 1.14.3 2.37.81 3.72 1.53 1.32.72 2.64 1.68 3.96 2.97l-6.9 7.11Z"/><path fill="#E62E20" fill-rule="evenodd" d="M175.614 74.157c-.536.043-1.116.095-1.742.157l-.15.015-.227.024a5.57 5.57 0 0 0-.288.14c-.325.172-.731.465-1.132.985l1.825 1.404.334-.157 1.38-2.568Zm-2.249 2.568-1.448-1.033a3.271 3.271 0 0 0-.311.52l1.759.513ZM174.03 78l-2.699-.368c-.013.142-.04.558.068 1.15.091.505.33 1.4.988 2.359l.11.154.03.04a6.152 6.152 0 0 0 .199.252c.233-.088.47-.174.711-.256.35-.118.229-.232.593-.331v-3Zm-.174 11.08-.025.115-.018.091c-.097.502-.114.87-.121.998v.014a7.292 7.292 0 0 0-.002.698l.166-.153.174-1.672-.03-.671c-.385-.008.284.405-.074.366a2.749 2.749 0 0 0-.07.214ZM176 94h-1c.615.72 1.045.808 1.161.87l.258-.488L176 94Zm.597.771-.12.256c.101.048.201.09.296.13l-.176-.386Zm19.853-14.388a6.67 6.67 0 0 0 .058-.132c.987-2.27 1.6-4.942 1.211-7.742a13.216 13.216 0 0 0-3.01-6.742c-.901-1.058-2.102-2.315-3.63-3.373-1.264-.875-2.675-1.62-4.115-2.288a7.499 7.499 0 0 0-1.546-.52c-1.908-.42-3.896-.56-5.694-.594-1.993-.038-4.49.114-7.332.395l-.008.001c-3.008.3-6.696.884-10.973 1.679a7.5 7.5 0 0 0-6.131 7.446l.33 34.38a7.5 7.5 0 0 0 6.666 7.381c4.224.473 7.901.703 11.076.736l.078.001c2.979 0 5.688-.09 7.919-.351 2.02-.235 3.904-.563 5.488-1.003l.053-.015c.976-.278 2.596-.764 3.879-1.513l.119-.069a41.845 41.845 0 0 0 .666-.398 8.563 8.563 0 0 0 .668-.472c.118-.093.375-.3.671-.596 1.418-1.418 2.608-2.784 3.585-4.074.051-.067.101-.135.149-.204 1.057-1.497 1.931-3.101 2.679-4.832l.056-.133c.943-2.305 1.409-4.812 1.199-7.523-.217-3.188-1.517-5.956-3.118-8.197l-.016-.022a16.283 16.283 0 0 0-.977-1.226ZM174.147 93.61 174 91.722h-.214c.088.442.225.783.361 1.035.151.28-.166.634 0 .853Z" clip-rule="evenodd"/><path fill="#E62E20" fill-rule="evenodd" d="M209.585 62.355a7.501 7.501 0 0 1 6.523 3.316l18.42 27.45a7.502 7.502 0 0 1-3.615 11.209l-11.46 4.26a7.5 7.5 0 0 1-8.488-2.368 7.5 7.5 0 0 1-8.589 3.081l-10.98-3.51a7.497 7.497 0 0 1-4.253-10.82l16.2-28.8a7.5 7.5 0 0 1 6.242-3.818Z" clip-rule="evenodd"/><path fill="#E62E20" fill-rule="evenodd" d="M208.898 61.9a7.502 7.502 0 0 1 6.448 2.337l.39.42c.268.289.514.599.734.927l18.42 27.48.01.016.18.27a7.499 7.499 0 0 1-4.267 11.396l-.005.001-10.973 4.079-.041.018a7.5 7.5 0 0 1-8.712-2.088 7.504 7.504 0 0 1-8.584 2.909l-.226-.075-10.782-3.447-.173-.047a7.498 7.498 0 0 1-4.735-10.59l.15-.3c.054-.108.11-.215.169-.32l16.167-28.771.178-.33a7.5 7.5 0 0 1 5.652-3.884Z" clip-rule="evenodd"/><path fill="#E62E20" fill-rule="evenodd" d="M239.175 65.151a7.5 7.5 0 0 1 5.537-1.944l11.19.72a7.5 7.5 0 0 1 7.004 7.94l-1.71 28.08a7.499 7.499 0 0 1-10.778 6.283l-3.776-1.844a7.497 7.497 0 0 1-6.303 4.241l-10.77.66a7.5 7.5 0 0 1-7.958-7.596l.45-30.6a7.5 7.5 0 0 1 12.233-5.707l3.004 2.445a7.502 7.502 0 0 1 1.877-2.677Z" clip-rule="evenodd"/><path fill="#E62E20" fill-rule="evenodd" d="M237.145 67.32a7.503 7.503 0 0 1 6.845-4.43h.27c.161 0 .321.006.482.016l11.19.72c.115.008.231.018.346.03l.27.03a7.502 7.502 0 0 1 6.626 8.283l-.009.084-1.699 27.894-.008.119-.03.39a7.498 7.498 0 0 1-11.069 6.009l-.187-.102-3.267-1.602a7.505 7.505 0 0 1-5.866 4.074l-.271.03a9.024 9.024 0 0 1-.369.032l-10.626.651-.157.015a7.5 7.5 0 0 1-8.246-7.462v-.3l.001-.111.449-30.574v-.485a7.5 7.5 0 0 1 12.134-5.898l.42.33.103.083 2.668 2.174Z" clip-rule="evenodd"/><path fill="#E62E20" fill-rule="evenodd" d="M295.006 89.425a24.812 24.812 0 0 1-2.1 5.805 36.243 36.243 0 0 1-2.503 4.199 39.677 39.677 0 0 1-2.101 2.763 26.649 26.649 0 0 1-1.238 1.342 19.51 19.51 0 0 1-5.157 3.669 24.024 24.024 0 0 1-5.824 2.095c-2.065.464-4.12.662-6.143.662l-.144-.001c-2.298-.044-4.603-.439-6.806-1.241-2.405-.833-4.446-2.116-6.163-3.532l-.084-.071c-2.158-1.834-3.731-4.087-4.859-6.524l-.01-.022c-1.172-2.553-1.919-5.24-2.107-8.06-.17-2.546.04-5.07.657-7.538a24.127 24.127 0 0 1 2.912-6.903 27.127 27.127 0 0 1 4.596-5.589 27.776 27.776 0 0 1 5.932-4.188 25.86 25.86 0 0 1 7.101-2.56c.305-.062.613-.105.923-.129.074-.008.193-.023.361-.046l.061-.008c1.029-.128 2.2-.157 3.513-.072l.016.001c1.475.098 2.94.376 4.29.695l.18.045c1.859.49 3.642 1.26 5.341 2.166 2.068 1.103 3.924 2.515 5.672 4.224a7.499 7.499 0 0 1 1.983 7.382 7.476 7.476 0 0 1 2.036 4.192c.327 2.386.242 4.81-.335 7.244ZM271.828 63.61c-.001 0-.001 0 0 0Z" clip-rule="evenodd"/><path fill="#fff" d="M162.78 68.44c4.2-.78 7.65-1.32 10.35-1.59 2.73-.27 4.89-.39 6.45-.36 1.56.03 3 .15 4.23.42 1.23.57 2.22 1.11 3 1.65.78.54 1.5 1.26 2.19 2.07.69.81 1.14 1.83 1.29 2.91.15 1.08-.06 2.34-.66 3.72-.6 1.38-1.83 2.91-3.63 4.56 2.49 1.29 4.26 2.67 5.34 4.17 1.05 1.47 1.65 2.94 1.74 4.38.12 1.47-.12 2.82-.66 4.14-.57 1.32-1.2 2.46-1.92 3.48-.75.99-1.71 2.101-2.91 3.301-.03.03-.24.15-.6.36s-1.11.48-2.16.78c-1.08.3-2.55.57-4.35.78-1.8.21-4.17.3-7.05.3-2.88-.03-6.3-.24-10.32-.69l-.33-34.38Zm18.36 21.81c-.06-.3-.18-.66-.39-1.05-.21-.39-.57-.69-1.08-.96-.51-.24-1.23-.3-2.13-.21-.9.09-2.07.48-3.51 1.14l.57 4.62c1.65.15 2.91.09 3.81-.21.9-.3 1.56-.66 1.95-1.08.39-.45.66-1.02.81-1.8.03 0 0-.15-.03-.45Zm-2.61-13.41c-.21-.3-.63-.51-1.23-.63-.57-.09-1.47.09-2.67.54l-.18 4.62c.93.15 1.68.06 2.25-.24.57-.3 1.02-.69 1.32-1.08.3-.42.57-1.02.78-1.74.06-.66-.03-1.17-.27-1.47ZM209.88 69.852l18.42 27.45-11.46 4.26-3.06-5.01-7.65.27-1.47 5.34-10.98-3.51 16.2-28.8Zm-1.86 21.27 4.35-.75-1.83-4.86-2.52 5.61ZM229.56 71.201l14.34 11.67.33-12.18 11.19.72-1.71 28.08-14.37-7.02.54 8.67-10.77.66.45-30.6ZM279.15 83.08c-.33-.84-.9-1.44-1.65-1.8-.75-.36-1.59-.57-2.55-.57-.96 0-1.86.21-2.85.57-.99.39-1.89.93-2.7 1.65-.81.69-1.47 1.56-2.01 2.58-.54 1.02-.78 2.16-.78 3.45-.03 1.2.15 2.13.57 2.85.42.72.93 1.23 1.56 1.53.63.3 1.32.48 2.1.42s1.5-.21 2.25-.54c.75-.33 1.41-.75 2.01-1.29.6-.54 1.05-1.17 1.35-1.86l-5.25.99.57-5.85 16.14-2.01c.21 1.53.15 3.03-.21 4.53-.33 1.47-.84 2.85-1.47 4.08s-1.29 2.34-1.98 3.33c-.69.99-1.26 1.71-1.71 2.25-.45.51-.72.78-.78.84-.87.87-1.95 1.65-3.24 2.28-1.26.66-2.61 1.14-4.08 1.47-1.47.33-2.97.48-4.5.48-1.56-.03-3.06-.3-4.44-.81-1.41-.48-2.7-1.26-3.9-2.25-1.2-1.02-2.16-2.34-2.91-3.96-.84-1.83-1.32-3.63-1.44-5.43-.12-1.8.03-3.54.45-5.22.42-1.68 1.08-3.27 2.01-4.77.93-1.5 2.04-2.85 3.33-4.05 1.29-1.2 2.76-2.22 4.35-3.06 1.62-.87 3.3-1.47 5.07-1.83.06 0 .33-.03.78-.09.48-.06 1.17-.09 2.1-.03.9.06 1.92.24 3.06.51 1.14.3 2.37.81 3.72 1.53s2.64 1.68 3.96 2.97l-6.93 7.11Z"/></svg>