<svg width="300" height="223" viewBox="0 0 300 223" fill="none" xmlns="http://www.w3.org/2000/svg">
<path d="M33.2559 190.677C35.0405 190.677 43.8309 190.678 43.8311 196.538C43.8311 202.763 35.1534 203.034 31.377 203.035C29.0279 203.034 26.4385 202.909 26.4385 202.909V190.677H33.2559Z" fill="white"/>
<path d="M32.1084 173.604C34.9115 173.604 42.3018 173.604 42.3018 179.146C42.3013 184.688 34.9129 184.943 33.2559 184.943H26.4385V173.922C28.8592 173.731 30.0063 173.604 32.1084 173.604Z" fill="white"/>
<path fill-rule="evenodd" clip-rule="evenodd" d="M54.5342 153.791C62.6265 153.791 69.1865 160.351 69.1865 168.443V208.324C69.1865 216.417 62.6266 222.977 54.5342 222.978H14.6523C6.56003 222.977 0 216.417 0 208.324V168.443C2.47389e-05 160.351 6.56005 153.791 14.6523 153.791H54.5342ZM31.7266 167.934C24.1142 167.934 19.8496 168.945 19.8135 168.953V208.133C19.8453 208.141 22.7204 208.834 29.9424 208.834C34.0834 208.834 39.9452 208.706 43.1943 207.305C47.2714 205.521 50.7752 202.336 50.7754 196.666C50.7754 189.212 44.5314 187.364 43.958 187.173C44.5951 186.791 49.0546 184.243 49.0547 178.955C49.0547 175.196 47.3989 172.265 44.0225 170.227C41.0919 168.443 36.8869 167.934 31.7266 167.934Z" fill="white"/>
<path d="M116.14 190.422H106.583L111.361 176.916L116.14 190.422Z" fill="white"/>
<path fill-rule="evenodd" clip-rule="evenodd" d="M131.429 153.791C139.521 153.791 146.082 160.351 146.082 168.443V208.324C146.082 216.417 139.521 222.978 131.429 222.978H91.5479C83.4555 222.977 76.8955 216.417 76.8955 208.324V168.443C76.8955 160.351 83.4555 153.791 91.5479 153.791H131.429ZM108.239 167.934L93.0137 208.834H100.085L104.545 196.092H118.241L122.701 208.834H129.837L114.61 167.934H108.239Z" fill="white"/>
<path fill-rule="evenodd" clip-rule="evenodd" d="M208.324 153.791C216.417 153.791 222.978 160.351 222.978 168.443V208.324C222.978 216.417 216.417 222.978 208.324 222.978H168.443C160.351 222.978 153.791 216.417 153.791 208.324V168.443C153.791 160.351 160.351 153.791 168.443 153.791H208.324ZM173.349 167.934V208.834H179.975V180.038L196.793 208.834H203.419V167.934H196.793V196.793L179.975 167.934H173.349Z" fill="white"/>
<path fill-rule="evenodd" clip-rule="evenodd" d="M285.348 153.791C293.44 153.791 300 160.351 300 168.443V208.324C300 216.417 293.44 222.977 285.348 222.978H245.466C237.373 222.977 230.813 216.417 230.813 208.324V168.443C230.814 160.351 237.373 153.791 245.466 153.791H285.348ZM269.548 167.934C255.723 167.934 247.377 177.108 247.377 188.384C247.377 199.66 253.494 208.834 269.548 208.834C274.835 208.834 279.04 207.815 282.353 206.095V186.6H267.318V192.461H275.728V202.145C273.944 202.718 271.905 203.036 269.548 203.036C258.654 203.036 254.513 196.475 254.513 188.384C254.513 180.293 260.119 173.73 269.548 173.73C273.37 173.73 276.683 174.496 279.358 175.961L281.397 170.354C277.83 168.507 274.135 167.934 269.548 167.934Z" fill="white"/>
<path d="M33.2559 113.718C35.0405 113.718 43.8309 113.718 43.8311 119.579C43.8311 125.804 35.1534 126.075 31.377 126.076C29.0279 126.075 26.4385 125.95 26.4385 125.95V113.718H33.2559Z" fill="white"/>
<path d="M32.1084 96.6445C34.9115 96.6445 42.3013 96.6444 42.3018 102.187C42.3018 107.729 34.913 107.984 33.2559 107.984H26.4385V96.9629C28.8592 96.7718 30.0063 96.6445 32.1084 96.6445Z" fill="white"/>
<path fill-rule="evenodd" clip-rule="evenodd" d="M54.5342 76.8955C62.6265 76.8957 69.1864 83.4556 69.1865 91.5479V131.429C69.1865 139.521 62.6266 146.082 54.5342 146.082H14.6523C6.56003 146.082 0 139.521 0 131.429V91.5479C0.000136062 83.4556 6.56012 76.8957 14.6523 76.8955H54.5342ZM31.7266 90.9746C24.1137 90.9746 19.8491 91.9857 19.8135 91.9941V131.174C19.8455 131.182 22.7207 131.875 29.9424 131.875C34.0834 131.875 39.9452 131.747 43.1943 130.346C47.2714 128.562 50.7752 125.377 50.7754 119.707C50.7754 112.253 44.5314 110.405 43.958 110.214C44.5951 109.832 49.0546 107.284 49.0547 101.996C49.0547 98.2374 47.3989 95.3062 44.0225 93.2676C41.0919 91.4838 36.8869 90.9746 31.7266 90.9746Z" fill="white"/>
<path d="M116.14 113.527H106.583L111.361 100.021L116.14 113.527Z" fill="white"/>
<path fill-rule="evenodd" clip-rule="evenodd" d="M131.429 76.8955C139.521 76.8955 146.082 83.4555 146.082 91.5479V131.429C146.082 139.521 139.521 146.082 131.429 146.082H91.5479C83.4555 146.082 76.8955 139.521 76.8955 131.429V91.5479C76.8956 83.4555 83.4555 76.8956 91.5479 76.8955H131.429ZM108.239 91.0381L93.0137 131.938H100.085L104.545 119.197H118.241L122.701 131.938H129.837L114.61 91.0381H108.239Z" fill="white"/>
<path d="M185.771 96.8359C188.511 96.8359 196.729 96.7718 196.729 103.143C196.729 108.876 189.595 109.259 188.002 109.259L188.065 109.322H180.611V97.2812C181.949 97.0901 183.351 96.836 185.771 96.8359Z" fill="white"/>
<path fill-rule="evenodd" clip-rule="evenodd" d="M208.324 76.8955C216.417 76.8955 222.977 83.4555 222.978 91.5479V131.429C222.978 139.521 216.417 146.082 208.324 146.082H168.443C160.351 146.082 153.791 139.521 153.791 131.429V91.5479C153.791 83.4555 160.351 76.8955 168.443 76.8955H208.324ZM186.346 91.0381C181.568 91.0381 175.898 91.6111 173.986 91.9297V131.938H180.611V115.12H187.429C189.913 115.12 191.952 115.82 193.099 117.222C194.245 118.623 194.882 120.662 195.392 123.02C196.092 126.46 197.431 130.664 198.514 132.002H206.031C204.502 129.9 203.101 126.205 202.272 123.083L202.336 122.956C200.807 116.968 199.533 113.973 196.857 112.635C198.196 111.997 203.482 109.513 203.482 102.633C203.482 97.3451 200.424 94.3505 196.793 92.7578C192.843 91.038 188.767 91.0381 186.346 91.0381Z" fill="white"/>
<path d="M270.058 113.527H260.501L265.279 100.021L270.058 113.527Z" fill="white"/>
<path fill-rule="evenodd" clip-rule="evenodd" d="M285.348 76.8955C293.44 76.8958 300 83.4556 300 91.5479V131.429C300 139.521 293.44 146.082 285.348 146.082H245.466C237.373 146.082 230.813 139.521 230.813 131.429V91.5479C230.814 83.4556 237.374 76.8957 245.466 76.8955H285.348ZM262.157 91.0381L246.932 131.938H254.003L258.463 119.197H272.16L276.619 131.938H283.755L268.528 91.0381H262.157Z" fill="white"/>
<path d="M33.2559 36.8232C35.0405 36.8232 43.8307 36.8232 43.8311 42.6836C43.8311 48.9089 35.1534 49.1791 31.377 49.1807C29.0279 49.1796 26.4385 49.0547 26.4385 49.0547V36.8232H33.2559Z" fill="white"/>
<path d="M32.1084 19.749C34.9115 19.749 42.3018 19.7494 42.3018 25.292C42.3015 30.8338 34.913 31.0888 33.2559 31.0889H26.4385V20.0674C28.8592 19.8763 30.0063 19.749 32.1084 19.749Z" fill="white"/>
<path fill-rule="evenodd" clip-rule="evenodd" d="M54.5342 0C62.6264 0.000162862 69.1863 6.56014 69.1865 14.6523V54.5342C69.1864 62.6264 62.6265 69.1864 54.5342 69.1865H14.6523C6.56014 69.1863 0.000166995 62.6264 0 54.5342V14.6523C0.000242745 6.56018 6.56018 0.000239667 14.6523 0H54.5342ZM31.7266 14.0791C24.1168 14.0791 19.8525 15.0893 19.8135 15.0986V54.2148C19.846 54.2227 22.7212 54.916 29.9424 54.916C34.0834 54.916 39.9452 54.7883 43.1943 53.3867C47.2714 51.6029 50.7752 48.4176 50.7754 42.748C50.7754 35.5192 44.9028 33.5631 44.0254 33.2773C44.8591 32.7797 49.0547 30.2292 49.0547 25.1006C49.0547 21.342 47.3987 18.4117 44.0225 16.373C41.0919 14.5892 36.8869 14.0791 31.7266 14.0791Z" fill="white"/>
<path d="M116.14 36.5684H106.583L111.361 23.0615L116.14 36.5684Z" fill="white"/>
<path fill-rule="evenodd" clip-rule="evenodd" d="M131.429 0C139.521 0 146.082 6.56004 146.082 14.6523V54.5342C146.082 62.6266 139.521 69.1865 131.429 69.1865H91.5479C83.4556 69.1864 76.8957 62.6265 76.8955 54.5342V14.6523C76.8958 6.56012 83.4556 0.000140194 91.5479 0H131.429ZM108.239 14.0791L93.0137 54.9795H100.085L104.545 42.2383H118.241L122.701 54.9795H129.837L114.61 14.0791H108.239Z" fill="white"/>
<path d="M185.771 20.0039C188.511 20.0039 196.729 19.9402 196.729 26.3105C196.729 32.044 189.595 32.4267 188.002 32.4268L188.065 32.4902H180.611V20.4502C181.949 20.2591 183.351 20.0039 185.771 20.0039Z" fill="white"/>
<path fill-rule="evenodd" clip-rule="evenodd" d="M208.324 0C216.417 0 222.977 6.56004 222.978 14.6523V54.5342C222.977 62.6266 216.417 69.1865 208.324 69.1865H168.443C160.351 69.1865 153.791 62.6265 153.791 54.5342V14.6523C153.791 6.56006 160.351 3.29874e-05 168.443 0H208.324ZM186.346 14.1426C181.568 14.1426 175.898 14.7166 173.986 15.0352V55.043H180.611V38.2246H187.429C189.913 38.2247 191.952 38.9256 193.099 40.3271C194.245 41.7287 194.882 43.7671 195.392 46.124C196.092 49.5641 197.431 53.7684 198.514 55.1064H206.031C204.502 53.0041 203.101 49.3091 202.272 46.1875L202.336 46.0605C200.807 40.0724 199.533 37.0782 196.857 35.7402C198.195 35.1031 203.482 32.6176 203.482 25.7373C203.482 20.4498 200.424 17.4559 196.793 15.8633C192.843 14.1434 188.767 14.1426 186.346 14.1426Z" fill="white"/>
</svg>
