<svg width="301" height="99" viewBox="0 0 301 99" fill="none" xmlns="http://www.w3.org/2000/svg">
<path fill-rule="evenodd" clip-rule="evenodd" d="M58.7957 38.9623C58.8047 41.9965 57.9216 44.9662 56.2561 47.5023H28.2734V0.915432H42.9822C51.243 0.797905 59.3277 8.26267 58.761 16.7733L58.7957 38.9623ZM42.8984 11.4872H38.7122V44.2382C42.62 44.2382 48.2043 44.4423 48.1992 38.9623L48.1597 16.7733C47.9294 13.918 45.9383 11.4356 42.8984 11.4872Z" fill="white"/>
<path fill-rule="evenodd" clip-rule="evenodd" d="M57.356 51.5263C58.957 54.0175 59.9552 57.1002 59.7917 60.0863L59.8262 82.2753C59.8751 90.7833 52.6444 98.2504 44.0671 98.1083H28.2883V51.5263H57.356ZM49.2249 82.2753L49.2939 60.0912C49.2939 57.2497 46.9843 54.7757 44.0869 54.8051H38.801V87.5561H44.0327C46.8722 87.5783 49.2566 85.0949 49.2249 82.2753Z" fill="white"/>
<path d="M112.631 47.3988H123.124L123.139 11.4872L132.581 11.4774L132.621 0.915432L102.192 0.9501L102.153 11.5121L112.646 11.5019L112.631 47.3988Z" fill="white"/>
<path d="M112.606 98.1181L112.626 51.4179H123.119L123.099 98.1034L112.606 98.1181Z" fill="white"/>
<path d="M94.6975 47.3988L94.7122 44.2235L77.8438 44.2333L77.8584 11.4872L94.6135 11.5019L94.6482 0.939846L67.4248 0.915432L67.4099 47.3988H94.6975Z" fill="white"/>
<path d="M94.6677 54.8105L77.9126 54.7953L77.9028 87.5365L94.7122 87.581L94.6184 98.1181L67.395 98.0888L67.4099 51.4179H94.6826L94.6677 54.8105Z" fill="white"/>
<path d="M0 67.4782V30.9453L18.4366 49.377L0 67.4782Z" fill="#FDE100"/>
<path d="M242.902 44.2222L242.922 47.3975H215.388L215.402 0.933594L242.951 0.914062L242.917 11.4761L225.964 11.4858L225.95 44.2368L242.902 44.2222Z" fill="#FDE100"/>
<path d="M257.458 47.3975H267.985L267.99 11.481H277.462L277.502 0.914062L246.98 0.923828L246.94 11.4907L257.468 11.4858L257.458 47.3975Z" fill="#FDE100"/>
<path d="M267.975 51.4165H257.453V98.1118H267.975V51.4165Z" fill="#FDE100"/>
<path d="M215.388 51.4165L215.368 98.1167L225.964 98.1069L226.018 54.7993L242.971 54.7891L242.946 51.4165H215.388Z" fill="#FDE100"/>
<path d="M187.375 16.7671L187.321 47.3975H176.976V16.772C176.953 12.5679 178.624 8.53174 181.611 5.57373C187.516 -0.44043 197.136 -0.65918 203.307 5.08057C206.479 7.93997 208.658 12.4094 208.351 16.7471V47.3975H197.898V16.7573C197.502 14.9126 197.442 13.9969 196.197 12.8521C195.226 11.9419 193.937 11.4497 192.607 11.481C191.23 11.4697 189.909 12.0239 188.953 13.0146C187.932 13.9941 187.361 15.3521 187.375 16.7671Z" fill="#FDE100"/>
<path d="M197.858 51.4165V82.2642C197.871 83.6797 197.298 85.0376 196.275 86.0166C195.314 87.0073 193.988 87.5615 192.607 87.5498C189.557 87.5971 187.493 85.1336 187.301 82.269L187.336 51.4165H176.981V82.2788C176.676 86.6146 178.799 91.0687 181.951 93.9502C184.817 96.6826 188.643 98.1772 192.602 98.1118C196.773 98.1729 200.778 96.4849 203.647 93.457C206.635 90.4976 208.306 86.46 208.282 82.2544V51.4165H197.858Z" fill="#FDE100"/>
<path d="M161.424 47.3975H144.25C141.564 44.0874 140.012 39.9702 139.595 35.0459C139.501 33.8862 139.475 32.7225 139.516 31.5596L139.546 16.7671C139.545 12.5586 141.236 8.52637 144.24 5.57861C150.149 -0.425293 159.76 -0.643555 165.936 5.08545C169.097 7.96496 171.221 12.4269 170.916 16.7622V24.1582H160.457C160.457 21.5538 160.423 18.939 160.423 16.3379C160.342 15.0073 159.753 13.7593 158.776 12.8521C157.814 11.9497 156.539 11.458 155.221 11.481C153.85 11.4707 152.536 12.0254 151.587 13.0146C150.571 13.9956 150.003 15.3501 150.014 16.7622L149.93 28.3843C149.93 33.7713 151.624 38.9465 155.719 42.6489C157.632 44.2334 159.534 45.8164 161.424 47.3975Z" fill="#FDE100"/>
<path d="M165.867 51.4165H148.633C150.606 53.0601 152.606 54.7153 154.634 56.3818C158.046 59.4785 159.782 63.4233 160.181 68.2158C160.246 68.9909 160.226 70.6818 160.236 70.6421L160.255 82.2739C160.264 83.6909 159.688 85.0483 158.663 86.0264C156.635 88.0806 153.326 88.1021 151.271 86.0742C150.362 85.1768 149.813 83.9775 149.728 82.7031C149.728 80.1008 149.77 77.4883 149.812 74.8828H139.353V82.2788C139.047 86.6132 141.18 91.0763 144.343 93.9502C150.52 99.6768 160.129 99.4585 166.039 93.457C169.036 90.5078 170.722 86.4785 170.719 82.2739L170.748 67.4814C170.941 61.7764 169.578 55.8771 165.867 51.4165Z" fill="#FDE100"/>
<path d="M300.002 31.165V67.6978L281.565 49.4341L300.002 31.165Z" fill="#FDE100"/>
</svg>
