<svg xmlns="http://www.w3.org/2000/svg" width="120" height="60" fill="none" viewBox="0 0 120 60"><path fill="#fff" d="M33.16 28.32h-2.02a.21.21 0 0 0-.207.209v4.557c0 .823-.496 1-1.034 1-.539 0-1.036-.177-1.036-1v-4.557a.21.21 0 0 0-.206-.208h-2.019a.219.219 0 0 0-.217.209v4.556c0 2.68 1.873 3.086 3.478 3.086 1.605 0 3.478-.407 3.478-3.086v-4.557a.219.219 0 0 0-.218-.208zm15.343 0h-2.019a.207.207 0 0 0-.207.21v4.556c0 .823-.497 1-1.035 1-.538 0-1.035-.177-1.035-1v-4.557a.21.21 0 0 0-.207-.208h-2.02a.216.216 0 0 0-.217.208v4.557c0 2.68 1.874 3.086 3.478 3.086 1.605 0 3.479-.407 3.479-3.086v-4.557a.22.22 0 0 0-.218-.208zm-8.823 4.724c.559-.25 1.19-.908 1.19-2.023v-.208c0-1.97-1.294-2.597-3.374-2.597-.715 0-2.26.073-2.613.125-.558.094-.724.24-.724.887v6.63a.22.22 0 0 0 .217.21h2.019a.207.207 0 0 0 .207-.21v-2.45h.676l1.232 2.451c.052.104.093.209.28.209h2.163a.184.184 0 0 0 .172-.116.189.189 0 0 0 .014-.072.275.275 0 0 0-.03-.115l-1.43-2.721zm-1.242-2.013c0 .282-.197.553-.715.553h-1.121V30.27h1.121c.528 0 .715.199.715.553v.208zm-15.371-1.824c.775.018 1.837.076 2.212.126.175.025.213-.038.213-.227v-1.85c0-.164-.013-.201-.263-.277-.405-.12-1.337-.276-2.34-.349a8.83 8.83 0 0 0-.538-.017c-.423 0-.805.031-1.022.084a.41.41 0 0 1-.012.158c-.053.193-.232.297-.334.342a7.83 7.83 0 0 1-.986.347c-.306.117-.543.174-.722.174a.607.607 0 0 1-.228-.04c-.499.438-.959 1.087-1.246 2.067a6.852 6.852 0 0 0-.085 1.111v1.07c0 3.625 2.387 4.268 3.974 4.268 1.175 0 2.776-.19 3.539-.353.225-.05.262-.063.262-.277v-4.41a.268.268 0 0 0-.264-.267h-3.122a.246.246 0 0 0-.25.236v1.101a.246.246 0 0 0 .25.236h.747a.08.08 0 0 1 .08.08v.977a.107.107 0 0 1-.1.106c-.286.019-1.045.028-1.141.028-.375 0-.988-.05-.988-1.7v-1.095c0-1.384.765-1.687 2.364-1.649zm38.981-5.504h3.61v.955h-2.567v1.017h2.263v.955H63.09v1.849h-1.043v-4.776zm5.324-.034h.962l2.032 4.81h-1.09l-.434-1.071h-2.005l-.433 1.07H65.34l2.032-4.81zm1.098 2.81-.63-1.548-.63 1.549h1.26zm2.472-2.776h1.043v4.776h-1.043v-4.776zm2.025 0h2.168c.603 0 1.07.17 1.382.484.264.266.406.642.406 1.092v.014c0 .77-.413 1.255-1.016 1.48l1.158 1.706h-1.219L74.83 26.95h-.82v1.529h-1.043v-4.776zm2.1 2.32c.508 0 .8-.273.8-.676v-.014c0-.45-.312-.682-.82-.682H74.01v1.372h1.056zM61.974 33.18v-.014c0-1.35 1.002-2.47 2.37-2.47.847 0 1.355.314 1.843.765l-.25.259c-.414-.403-.888-.703-1.6-.703-1.137 0-1.998.935-1.998 2.136v.013c0 1.208.874 2.15 2.005 2.15.684 0 1.152-.267 1.633-.744l.237.232c-.501.498-1.043.832-1.883.832-1.355 0-2.357-1.085-2.357-2.456zm7.01-2.436h.34l2.207 4.81h-.386l-.603-1.337h-2.797l-.603 1.337h-.366l2.208-4.81zm1.41 3.152-1.247-2.763-1.253 2.763h2.5zm1.733.962.23-.266c.522.484 1.004.71 1.701.71.711 0 1.199-.403 1.199-.949v-.014c0-.504-.264-.798-1.341-1.016-1.138-.232-1.599-.62-1.599-1.344v-.014c0-.71.644-1.255 1.524-1.255.691 0 1.145.19 1.626.58l-.224.28c-.447-.39-.894-.54-1.415-.54-.698 0-1.159.403-1.159.9v.015c0 .505.258.812 1.382 1.043 1.098.226 1.558.621 1.558 1.317v.014c0 .77-.657 1.303-1.571 1.303-.76 0-1.342-.252-1.91-.764zm4.688-4.08h.352v4.776h-.352v-4.776zm1.808 0h.332l3.272 4.155v-4.155h.338v4.776h-.264l-3.339-4.243v4.243h-.339v-4.776zm5.141 2.402v-.014c0-1.303.956-2.47 2.392-2.47 1.435 0 2.377 1.153 2.377 2.457v.013c0 1.303-.955 2.47-2.39 2.47-1.437 0-2.379-1.153-2.379-2.456zm4.403 0v-.014c0-1.18-.853-2.149-2.025-2.149s-2.012.955-2.012 2.136v.013c0 1.18.854 2.15 2.026 2.15 1.171 0 2.011-.956 2.011-2.136z"/><path fill="#B3B3B3" d="M55.507 23.012a.17.17 0 0 0-.17.172v13.095a.172.172 0 0 0 .17.171.17.17 0 0 0 .17-.171V23.184a.172.172 0 0 0-.17-.172z"/><g fill="#44BE4C"><path d="M29.237 27.602c-.275.053-.53.086-1.087.086-.806 0-1.73-.436-1.73-2.039v-.22c0-1.615.924-2.038 1.73-2.038.368.007.736.042 1.1.106.059.006.105.026.105.085v.337c0 .04-.014.073-.08.073h-.019c-.236-.02-.72-.06-1.1-.06-.642 0-1.14.376-1.14 1.498v.22c0 1.108.498 1.497 1.14 1.497.373 0 .845-.033 1.08-.053h.027a.09.09 0 0 1 .08.026.092.092 0 0 1 .025.08v.27c0 .08-.06.12-.131.132zm4.879.04h-.386a.114.114 0 0 1-.111-.086l-.426-1.31h-1.696l-.42 1.31a.13.13 0 0 1-.118.086h-.386a.1.1 0 0 1-.1-.053.1.1 0 0 1-.011-.038.086.086 0 0 1 .006-.04l1.212-3.707c.111-.347.42-.433.668-.433.242 0 .55.08.661.427l1.212 3.713a.084.084 0 0 1 .007.04c0 .051-.04.09-.112.09zm-1.644-3.718a.127.127 0 0 0-.124-.103.128.128 0 0 0-.131.103l-.586 1.843h1.429l-.588-1.843zm6.813 3.718h-.36a.124.124 0 0 1-.119-.132v-3.947a.12.12 0 0 1 .118-.125h.36a.117.117 0 0 1 .086.037.118.118 0 0 1 .032.088v3.947a.126.126 0 0 1-.117.132zm4.622 0H43.5c-.105 0-.177-.04-.21-.106l-2.024-3.175c-.006-.013-.013-.02-.02-.02-.006 0-.006.007-.006.02v3.156a.125.125 0 0 1-.118.125h-.34c-.066 0-.118-.013-.118-.079v-3.94a.188.188 0 0 1 .118-.173.185.185 0 0 1 .072-.012h.36c.183 0 .216.033.268.132l2.01 3.155.014.02c.007 0 .007-.013.007-.02v-3.162a.125.125 0 0 1 .117-.125h.348a.117.117 0 0 1 .085.037.12.12 0 0 1 .032.088v3.888a.193.193 0 0 1-.19.19zm3.135.046c-1.029 0-1.775-.607-1.775-2.071v-.154c0-1.465.746-2.072 1.775-2.072 1.028 0 1.768.607 1.768 2.072v.154c0 1.464-.74 2.071-1.768 2.071zm1.165-2.225c0-1.108-.445-1.53-1.165-1.53-.714 0-1.173.422-1.173 1.53v.154c0 1.108.452 1.53 1.173 1.53.713 0 1.165-.422 1.165-1.53v-.154zm-11.461-.08-.597-.307c-.434-.252-.627-.407-.627-.662 0-.366.261-.515.902-.515.255 0 .591.014 1.001.04h.012a.103.103 0 0 0 .106-.062.103.103 0 0 0 .008-.043v-.24c0-.04-.019-.092-.112-.11a8.06 8.06 0 0 0-1.015-.074c-.947 0-1.469.356-1.469 1.004 0 .485.325.773.812 1.058l.626.329c.51.3.691.457.691.734 0 .433-.305.643-.93.643-.263 0-.685-.018-.962-.04h-.017a.102.102 0 0 0-.115.104v.224c0 .07.019.098.124.116h.005c.318.055.64.084.964.086 1.406 0 1.515-.867 1.515-1.133 0-.457-.25-.769-.922-1.152zm-17.964 1.753a.68.68 0 0 0 .002-.06c-.004-.065-.003-.165-.003-.317v-.1c-1.567 1.346-1.638 2.462-1.546 3 .014.075.124.121.22.121.066 0 .126-.023.141-.074.293-1.012.767-1.691 1.283-2.154-.11-.137-.102-.31-.097-.416zm-2.74-4.269a.067.067 0 0 0 .034-.01c.334-.194.822-.438 1.168-.597.06-.196.122-.393.189-.587-.52.213-1.135.637-1.446 1.088a.068.068 0 0 0 .02.096c.01.006.023.01.035.01zm3.089-1.294c.231-.026.463-.04.696-.042.506 0 1.008.09 1.483.265a.066.066 0 0 0 .037.002c.19-.046.386-.07.582-.072a2.79 2.79 0 0 1 .517.053.067.067 0 0 0 .063-.05.069.069 0 0 0-.028-.075c-.637-.415-1.606-.536-2.467-.536a9.6 9.6 0 0 0-1.354.096c.146.108.306.23.471.359zm1.799.294c-.29-.131-.683-.164-1.041-.164-.21 0-.408.011-.566.02.236.188.478.385.712.577.286-.126.581-.23.883-.312.07-.018.079-.091.013-.121zm-.567.706c.463.388.846.72.989.852.825.005 1.833.092 2.674.595a.067.067 0 0 0 .102-.056c.027-.624-.166-1.253-.57-1.518a2.446 2.446 0 0 0-1.396-.439c-.487 0-1.089.14-1.799.566zm-3.398 3.414-.015-.018a1.475 1.475 0 0 1-.313-1.248l.018-.083.012-.057-.02.017a.096.096 0 0 0-.005.004c-2.309 2.259-1.705 4.008-.981 4.802a.064.064 0 0 0 .077.016.068.068 0 0 0 .037-.075c-.104-.528-.112-1.265.22-1.96.221-.463.578-.922.97-1.398zm7.095-1.561a4.832 4.832 0 0 0-2.492-.746 1.285 1.285 0 0 1 .1 1.199 1.47 1.47 0 0 1-.258.414c1.546.13 2.378 1.038 2.491 1.204a.054.054 0 0 0 .036.03 14.041 14.041 0 0 1 .489.07c.045 0 .072-.055.065-.103-.08-.54-.628-.8-.94-1.068a.068.068 0 0 1 .042-.12.07.07 0 0 1 .025.005c.508.189.697.75.928.808.005.002.01.002.014.002a.068.068 0 0 0 .065-.065c.046-.913-.181-1.383-.564-1.63zm-2.942 1.251a5.04 5.04 0 0 0-.194.004h-.003a.063.063 0 0 1-.04-.013 1.35 1.35 0 0 1-.235.07c.296.357.523.635.59.73l.02.031.025-.005c.23-.056.626-.09 1.07-.09.267 0 .551.012.828.04h.008a.068.068 0 0 0 .064-.042.07.07 0 0 0-.014-.076c-.562-.511-1.445-.649-2.12-.649zm-6.202-.639a.065.065 0 0 0 .05-.023c.474-.53 1.274-1.153 1.946-1.526.075-.312.165-.656.267-1.009-.632.37-1.34.83-1.552 1.025-.274.25-.795.891-.778 1.468a.067.067 0 0 0 .067.065z"/><path d="M16.758 24.153c.025-.114.053-.24.085-.375-.526.31-1.293.867-1.882 1.617l-.003.005c-.175.26-.756.97-.315 1.784a.068.068 0 0 0 .07.034.067.067 0 0 0 .056-.055c.092-.584.42-1.698 1.989-3.01zm1.61 2.429a1.354 1.354 0 0 1-.172.012 1.61 1.61 0 0 1-1.004-.38c-.528.568-.952 1.348-1.044 1.884-.17.997.046 1.831.796 2.3.01.007.022.01.034.01a.068.068 0 0 0 .064-.087c-.558-1.922.587-2.987 1.326-3.74z"/><path d="M87.064 44.923H2.699V13.712h106.218v16.07a38.927 38.927 0 0 1 1.699-.978V12H1v34.635h87.192a67.054 67.054 0 0 0-1.128-1.712zm21.853-10.94v10.94H98.835a87.124 87.124 0 0 0-1.284 1.712h13.065V32.49c-.571.488-1.138.985-1.699 1.492z"/></g><g fill="#FCEE21"><path d="m56.813 18.547 1.32-.979a.163.163 0 0 0-.094-.295l-1.634-.01a.16.16 0 0 1-.155-.112l-.514-1.563a.163.163 0 0 0-.25-.082.164.164 0 0 0-.059.082l-.514 1.563a.162.162 0 0 1-.154.111l-1.635.011a.161.161 0 0 0-.153.114.164.164 0 0 0 .06.181l1.32.98a.179.179 0 0 1 .06.183l-.497 1.569a.164.164 0 0 0 .057.183.161.161 0 0 0 .191 0l1.332-.962a.165.165 0 0 1 .187 0l1.332.962a.16.16 0 0 0 .25-.082.165.165 0 0 0-.002-.101l-.497-1.57a.157.157 0 0 1 .05-.183zm5.305-.239.748-.554a.092.092 0 0 0-.054-.167l-.925-.006a.091.091 0 0 1-.088-.063l-.29-.885a.093.093 0 0 0-.088-.064.092.092 0 0 0-.087.064l-.291.885a.091.091 0 0 1-.088.063l-.925.006a.091.091 0 0 0-.087.064.093.093 0 0 0 .033.103l.748.554a.102.102 0 0 1 .034.104l-.281.888a.093.093 0 0 0 .032.104.092.092 0 0 0 .108 0l.754-.545a.094.094 0 0 1 .106 0l.754.545a.092.092 0 0 0 .108 0 .092.092 0 0 0 .032-.104l-.281-.888a.088.088 0 0 1 .028-.104zm-11.678 0 .747-.554a.092.092 0 0 0-.053-.167l-.926-.006a.092.092 0 0 1-.087-.063l-.291-.885a.093.093 0 0 0-.088-.064.092.092 0 0 0-.087.064l-.291.885a.092.092 0 0 1-.087.063l-.926.006a.092.092 0 0 0-.087.12.092.092 0 0 0 .034.047l.747.554a.101.101 0 0 1 .035.104l-.282.888a.092.092 0 0 0 .14.104l.754-.545a.094.094 0 0 1 .106 0l.754.545a.09.09 0 0 0 .141-.047.093.093 0 0 0 0-.057l-.282-.888a.09.09 0 0 1 .029-.104zm-30.042 7.457h-.018a1.63 1.63 0 0 1-.88-.28c-.108.358-.284.638-.513.828.004.405-.002.644.004.75.008.139-.082.446.285.446.14 0 .35-.046.658-.164.33-.091.652-.204.966-.34.133-.057.322-.196.167-.416a25.7 25.7 0 0 0-.669-.824z"/><path d="M18.196 26.385c.518 0 1.02-.352 1.174-1.256.352.303.7.428 1.01.428.975 0 1.59-1.22.871-1.941-.202-.203-2.732-2.362-3.33-2.64-.598 1.39-.983 3.32-1.08 3.788-.185.878.603 1.621 1.355 1.621zm64.142 14.233c.488-1.401 2.146-2.992 5.026-2.54 2.277.494 4.156 2.046 5.662 4.59 8.335-8.996 15.51-15.192 25.01-17.548.847-.156 1.294-.122.677.42-9.8 6.16-18.647 15.069-25.503 26.126-.16.258-.737.241-.932-.039-2.123-2.94-3.636-5.81-5.759-8.75-.948-1.52-2.145-2.613-4.18-2.26z"/></g></svg>