<svg xmlns="http://www.w3.org/2000/svg" width="41" height="54" viewBox="0 0 41 53"><path style="stroke:none;fill-rule:nonzero;fill:#fff;fill-opacity:1" d="M20.688 49.984h-.981l-.203-.047-.172-.015c-.3-.027-.61-.055-.906-.098a11.306 11.306 0 0 1-4.102-1.426 11.114 11.114 0 0 1-3.894-3.804A87.9 87.9 0 0 1 8.8 41.8a25.613 25.613 0 0 1-1.738-3.707l-.023-.07a7.183 7.183 0 0 1-3.21-2.243c-.876-1.07-1.384-2.258-1.509-3.539l-.058-.226-.012-.258v-.656l.063-.254c.054-.332.074-.496.105-.676.41-2.035 1.566-3.629 3.348-4.688v-.011c.027-.442.02-.727-.02-.973l-.281-1.59c-.055-.297-.098-.531-.152-.64a3.594 3.594 0 0 1-.25-1.782 2.746 2.746 0 0 1-1.114-1.008 3.785 3.785 0 0 1-.496-1.109c-.265-.871-.18-1.672-.098-2.195a5.914 5.914 0 0 1 1.262-2.844c-.668-.895-.676-2.008-.027-2.883.2-.261.437-.504.703-.703.453-.332.937-.61 1.46-.836l.595-1.187c.257-.414.644-1.016 1.453-1.403l.941-.449.578-.266a7.06 7.06 0 0 1 3.39-2.187c.9-.277 1.782-.332 2.376-.356l1.324-.03.668-.009.367-.007c.47 0 .926.027 1.395.09a8.429 8.429 0 0 1 3.062 1.007c1.168.676 2.125 1.63 2.848 2.817.863.379 1.566.773 2.207 1.304a7.823 7.823 0 0 1 1.707 1.98c.152.063.305.122.453.192l.438.2.508.234a6.781 6.781 0 0 1 3.613 3.46c.285.614.578 1.235.914 1.833l.445.8.41.747c.371.703.516 1.472.426 2.293l-.21 1.629-.243 1.765-.203 1.613-.04.305-.042.371-.055.43a6.83 6.83 0 0 1 1.063 1.062c.843 1.036 1.343 2.18 1.492 3.395l.047.14.015.399v1.035l-.07.262-.008.09-.035.25c-.422 2.16-1.863 4.008-3.898 5.004a41.15 41.15 0 0 1-.395 1.007 18.75 18.75 0 0 1-3.414 5.333l-.172.226c-.316.5-.664.969-1.039 1.418a11.715 11.715 0 0 1-3.797 3.027c-1.426.711-2.992 1.106-4.781 1.207l-.184.028Zm-.973-9.953h.062l.125.008.297.016.434.011c.285 0 .57.016.847.036a3.27 3.27 0 0 1 1.278.343c-.016-.054-.024-.11-.035-.156l-.614-.152a7.256 7.256 0 0 1-1.582-.586 7.457 7.457 0 0 1-1.761.605l-.27.07.02.047a2.934 2.934 0 0 1 1.199-.242Zm.437-7.215c.118.02.23.055.348.086a6.04 6.04 0 0 1 .57-.136 7.475 7.475 0 0 1-.445-.602 8.371 8.371 0 0 1-.473.652Zm-1.965-1.894.899.746Zm-3.851-1.98.008.097h.027l-.012-.164Zm-3.723-.399v.172h.09a2.75 2.75 0 0 1 .117-.387l-.011-.066a1.817 1.817 0 0 0-.512-.125l.168.441.09-.027v-.016l.008.016h.023v-.016.016Zm16.223-.816v.195l.062-.207c-.02.008-.035.008-.062.012Zm.133-.707h.008l-.008-1.274Zm-12.7 0v-1.258Zm-.093-5.73c1.984 0 3.683.608 5.058 1.765a4.83 4.83 0 0 1 2.563-.067c.082.028.164.04.242.067a7.593 7.593 0 0 1 4.91-1.774c.535 0 1.078.059 1.613.153l.391-.407a.524.524 0 0 0-.07-.109c-.422-.492-.856-.969-1.281-1.45l-.235-.261-.265.02c-.375.035-.747.074-1.11.125-.234.035-.472.093-.715.144l-.46.098-.137.031-.196.016-.488.043c-.05.039-.105.066-.16.093a2.706 2.706 0 0 1-1.457.422h-.738l-.082-.054-.899.25-.398.011h-.278l-.32-.07-.586-.145-.812-.191c-.852-.215-1.7-.387-2.555-.523-.488-.07-.984-.133-1.484-.168-.301.351-.606.71-.887 1.09-.164.23-.34.464-.422.648-.05.117-.086.242-.098.367.438-.07.883-.117 1.352-.125Zm10.168-9.821c-.153.125-.32.25-.215.61.11.362.34.46.652.503l.07-.539ZM12.992 8.156a7.81 7.81 0 0 0-.187.125l.941.98.106-.027a1.938 1.938 0 0 0-.86-1.078Zm1.918.168v.184c.29 0 .547-.13.688-.344l-.063-.043Zm-.45.145c.142 0 .294.039.45.039v-.192l-.523.157c.02 0 .043-.004.074-.004Zm0 0"/><path style="stroke:none;fill-rule:nonzero;fill:#fff;fill-opacity:1" d="m20.688 47.844.265-.035c1.363-.075 2.668-.364 3.887-.973 1.21-.598 2.21-1.441 3.07-2.457.32-.383.613-.793.883-1.211.113-.18.242-.355.39-.512a16.689 16.689 0 0 0 3.024-4.726c.18-.45.352-.899.512-1.348a.932.932 0 0 1 .55-.586 5.191 5.191 0 0 0 1.583-.988 4.843 4.843 0 0 0 1.523-2.692c.023-.109.027-.21.043-.324a.548.548 0 0 1 .043-.144v-.766a.398.398 0 0 1-.043-.117c-.078-.953-.461-1.781-1.059-2.52a5.287 5.287 0 0 0-1.28-1.125c-.079-.054-.153-.101-.224-.172a.485.485 0 0 1-.125-.433c.083-.567.145-1.133.208-1.692l.257-1.941c.078-.543.149-1.082.22-1.625.065-.566.151-1.14.222-1.715.039-.37 0-.73-.188-1.066-.281-.52-.558-1.035-.844-1.547a35.628 35.628 0 0 1-.988-1.969 4.624 4.624 0 0 0-2.488-2.379c-.32-.144-.64-.297-.961-.441a7.403 7.403 0 0 0-.633-.258 1.092 1.092 0 0 1-.66-.535 5.782 5.782 0 0 0-1.395-1.7 4.366 4.366 0 0 0-1.378-.792 2.437 2.437 0 0 1-1.293-1.063 5.85 5.85 0 0 0-2.075-2.058 6.09 6.09 0 0 0-2.203-.715 8.458 8.458 0 0 0-1.414-.063c-.644.012-1.3.02-1.957.047-.598.016-1.195.07-1.773.254a4.99 4.99 0 0 0-2.438 1.625 1.336 1.336 0 0 1-.437.344c-.567.261-1.137.539-1.707.808-.223.11-.34.282-.453.461-.02.035-.02.082 0 .11.015.015.07.027.097.023.242-.05.48-.105.719-.16.11-.027.215-.047.324-.07a.798.798 0 0 1 .195-.036c-.039.06-.054.098-.09.126-.109.124-.23.25-.34.374-.097.118-.202.239-.284.372-.348.574-.88.937-1.528 1.168-.097.03-.195.066-.297.093-.543.145-1.023.41-1.476.739-.09.07-.176.152-.25.242-.121.168-.094.324.047.465.078.058.168.12.265.171.125.063.266.102.403.145.488.152.984.297 1.476.453.043.008.09.031.133.05.027.09-.016.13-.09.165-.133.055-.265.11-.398.168-.66.289-1.254.66-1.735 1.184-.535.59-.82 1.273-.937 2.03-.078.427-.098.868.035 1.29.047.187.125.387.234.555.25.39.446.308.649.02.062-.106.117-.216.16-.325a8.299 8.299 0 0 1 1.832-2.879c.25-.262.527-.512.8-.758.04-.035.09-.07.138-.105.023.043.043.07.05.105.223.676.438 1.36.66 2.043a.506.506 0 0 1-.097.508c-.555.68-1.094 1.39-1.7 2.023-.187.196-.374.38-.542.586-.27.297-.446.672-.5 1.063-.043.285-.016.574.097.844.145.335.207.695.27 1.062.105.543.195 1.078.293 1.613.086.485.078.97.043 1.446-.016.226-.02.453-.028.687-.007.05 0 .106-.007.168a.585.585 0 0 1-.348.504c-.098.055-.203.094-.3.145-1.49.738-2.38 1.89-2.696 3.449-.04.222-.063.441-.09.668-.012.058-.035.097-.039.152v.387c.012.09.047.187.055.277.09.89.453 1.73 1.035 2.422a4.99 4.99 0 0 0 2.558 1.676c.098.027.188.062.27.097.258.11.437.297.535.54.086.207.156.414.23.62a23.52 23.52 0 0 0 1.602 3.41c.508.903 1.04 1.821 1.582 2.72a9.001 9.001 0 0 0 3.125 3.054 9.114 9.114 0 0 0 3.29 1.14c.347.048.695.075 1.05.11.047 0 .105.008.16.02h.695m-.972-5.68a.828.828 0 0 0-.602.23c-.48.461-1.07.633-1.738.594-.516-.035-.969-.215-1.316-.59a1.255 1.255 0 0 1-.336-.793c-.008-.273.02-.55.09-.82.07-.27.132-.531.195-.808.035-.137.023-.157-.04-.336-.042.035-.077.054-.113.082a3.662 3.662 0 0 0-.71.898c-.188.336-.364.68-.551 1.02-.074.16-.164.316-.258.496-.066-.063-.117-.102-.16-.145a13.896 13.896 0 0 1-2.297-2.937c-.758-1.301-1.281-2.688-1.672-4.121a.581.581 0 0 0-.055-.2c-.3-.023-.57-.027-.843-.058-1.477-.145-2.688-1.207-2.973-2.621-.215-1 .086-2.035.809-2.79.105-.109.207-.171.367-.163.414.015.808.007 1.215.007.257 0 .359.082.418.325.445 1.972 2.082 3.5 4.14 3.855 2.203.414 4.43-.562 5.55-2.434a4.777 4.777 0 0 0 .661-2.933c-.027-.29-.101-.578-.172-.871-.058-.281-.008-.524.207-.73.223-.208.508-.34.817-.372.515-.086.953.028 1.355.328.266.203.344.387.246.7a4.573 4.573 0 0 0-.215 1.457 4.832 4.832 0 0 0 1.282 3.222 5.088 5.088 0 0 0 3.195 1.668c1.613.215 3.055-.199 4.281-1.242a4.688 4.688 0 0 0 1.61-2.61.604.604 0 0 0 .027-.09c.047-.175.168-.273.363-.273.305 0 .617.008.903.008.292-.008.292-.008.48.2.488.566.766 1.199.816 1.93.055.98-.277 1.823-1.004 2.519-.445.422-1 .664-1.593.824-.117.027-.239.058-.364.082-.207.047-.324.183-.394.387-.125.468-.273.93-.434 1.398a14.292 14.292 0 0 1-2.66 4.668c-.418.473-.847.938-1.273 1.406-.02.035-.047.043-.09.082-.043-.074-.086-.129-.117-.191-.23-.442-.442-.89-.672-1.324-.242-.485-.5-.953-.875-1.368-.043-.042-.09-.09-.125-.14-.16.035-.152.035-.16.14-.008.2.039.399.09.586.078.297.152.586.203.883.09.516-.043.98-.446 1.34a1.468 1.468 0 0 1-.672.352c-.386.101-.8.136-1.203.062a1.91 1.91 0 0 1-1.004-.476.918.918 0 0 0-.597-.25c-.266-.02-.535-.028-.801-.028-.238-.011-.48-.011-.719-.027-.02-.008-.047-.008-.066-.008m-7.145-10.71c.5.237 1.016.374 1.578.401-.074.344-.171.692-.277 1.028a4.45 4.45 0 0 1-1.586-.395c.094-.343.188-.675.285-1.035m12.707 0a4.225 4.225 0 0 0 1.586.402l-.293 1.02a4.238 4.238 0 0 1-1.578-.398c.098-.332.18-.664.285-1.024m4.79-1.18c.265.258.515.5.78.747a3.94 3.94 0 0 1-1.105 1.05c-.273-.222-.512-.476-.789-.738.434-.312.809-.648 1.113-1.059m-12.671-.003.765.722a3.964 3.964 0 0 1-1.101 1.063c-.27-.242-.528-.48-.793-.723.195-.152.41-.312.586-.484.187-.188.347-.371.543-.578m-3.125-4.852h.003c1.723 0 3.137 1.289 3.137 2.965 0 1.683-1.402 2.98-3.148 2.976a3.159 3.159 0 0 1-2.196-.87 2.92 2.92 0 0 1-.91-2.106c.02-1.649 1.406-2.965 3.114-2.965m12.699 0h.027c1.817.004 3.149 1.426 3.113 2.973.008.8-.32 1.558-.914 2.117-.59.555-1.39.863-2.234.851-.82 0-1.61-.32-2.191-.879a2.951 2.951 0 0 1-.907-2.117c.028-1.636 1.414-2.945 3.106-2.945m-3.7 3.11c.016 0 .036.007.051.007.047.258.082.512.153.758.07.238.175.477.265.719-.035.015-.07.043-.105.043-.25.066-.508.136-.758.191-.168.043-.203.024-.273-.125a4.08 4.08 0 0 1-.332-1.18c-.024-.12.007-.164.117-.191.285-.074.57-.145.855-.215.008-.008.024-.008.028-.008m-12.715.008c.023 0 .043.008.058.008.047.242.082.496.153.738.07.242.168.477.27.739-.263.07-.52.136-.778.199-.285.07-.293.062-.406-.207a4.142 4.142 0 0 1-.29-1.082c-.015-.11.004-.153.11-.172.293-.078.586-.153.883-.223M31.23 26.52c.079 0 .106.05.16.171.16.36.266.727.313 1.114.008.043.008.074.008.117 0 .02 0 .043-.008.082l-1.043.262a8.041 8.041 0 0 0-.152-.766c-.07-.246-.176-.48-.258-.73a.588.588 0 0 1 .133-.047c.234-.059.472-.118.715-.176.054-.012.097-.027.132-.027m-12.722 0c.086.007.113.043.168.152.18.414.3.844.336 1.32-.344.102-.692.184-1.075.274a3.646 3.646 0 0 0-.425-1.485c.062-.027.105-.039.148-.058.25-.063.48-.125.73-.18a.285.285 0 0 1 .118-.023m5.781-1.82c.242.226.5.476.758.73-.16.125-.293.215-.426.316a4.16 4.16 0 0 0-.375.367c-.117.11-.215.254-.32.387-.27-.25-.524-.484-.781-.719.125-.289.738-.883 1.144-1.082m-12.738.008c.273.242.515.48.797.742-.47.297-.836.637-1.11 1.043l-.8-.746c.3-.414.675-.77 1.109-1.039m15.402-1.293c-1.414 0-2.652.504-3.699 1.492-.223.2-.402.442-.598.676-.035.043-.062.082-.105.137-.047-.04-.106-.074-.152-.11a3.605 3.605 0 0 0-1.157-.558c-.648-.16-1.254-.047-1.832.25-.23.12-.445.273-.687.418-1.086-1.489-2.578-2.317-4.52-2.297-1.93.027-3.39.902-4.465 2.457-.011-.074-.02-.11-.02-.137.009-.379.098-.734.298-1.062.273-.45.539-.926.797-1.383a.472.472 0 0 0 .027-.461c-.348-.871-.371-1.734.008-2.602.164-.386.41-.726.668-1.07.48-.648 1.015-1.25 1.55-1.863a.369.369 0 0 1 .258-.145c.196-.015.407-.027.606-.015a27.93 27.93 0 0 1 4.89.789c.465.117.938.218 1.41.336a.227.227 0 0 0 .114-.004c-.063-.063-.113-.117-.176-.176a14.778 14.778 0 0 0-3.242-2.324c-.258-.137-.516-.27-.774-.414a1.006 1.006 0 0 1-.382-.317.632.632 0 0 1-.028-.699.64.64 0 0 1 .614-.371c.171 0 .34.043.492.117 1.433.711 2.758 1.54 3.941 2.59.39.336.738.715 1.11 1.074.082.09.164.18.261.242.184.13.356.075.524-.027.07-.043.043-.11.027-.16-.07-.246-.117-.496-.203-.738-.383-1.125-.953-2.153-1.656-3.125a15.596 15.596 0 0 0-2.235-2.446c-.09-.086-.175-.164-.25-.254a.68.68 0 0 1 .082-.953.742.742 0 0 1 .996-.004c.829.696 1.559 1.461 2.223 2.297a13.29 13.29 0 0 1 2.094 3.574c.14.372.25.754.379 1.125.031.075.054.165.082.25.047-.007.082-.007.117-.015.453-.09.879-.2 1.324-.27.57-.082 1.133-.125 1.7-.187.195-.02.39-.028.585-.04a.677.677 0 0 1 .61.22c.683.78 1.386 1.546 2.062 2.335.399.461.598 1.012.64 1.606.036.492-.179.898-.562 1.223-.043.027-.078.062-.14.117.054.101.097.199.14.308.207.387.41.766.625 1.16.239.465.446.934.535 1.438.07.336.079.695.016 1.039-.082-.004-.082-.074-.098-.117a4.992 4.992 0 0 0-1.175-1.559 5.231 5.231 0 0 0-2.946-1.324 6.013 6.013 0 0 0-.703-.043m-12.144.477h.054c.454.054.899.18 1.317.351a.31.31 0 0 1 .113.07c-.094.325-.191.649-.289 1.008a4.486 4.486 0 0 0-1.566-.406v-.098c.078-.27.156-.53.23-.793.035-.105.055-.132.14-.132m12.7.015c.023 0 .058 0 .09.004.433.043.843.16 1.242.32.027.012.062.02.09.036.015.011.027.02.062.054-.09.325-.18.649-.285.973-.273-.082-.523-.18-.781-.25-.25-.063-.516-.094-.785-.137.008-.035.008-.07.011-.09.063-.253.141-.496.211-.757.036-.118.055-.153.145-.153m-2.442-13.445c.438.055 1.06.457 1.231 1.035.187.629-.16 1.324-.5 1.61-.063-.098-.703-2.403-.73-2.645M12.198 10h-.222c-.145 0-.243-.043-.286-.18.02-.02.036-.043.055-.062.285-.242.594-.488.887-.738a.325.325 0 0 1 .402-.047c.356.172.711.363 1.067.55.132.075.16.207.222.34-.16.137-.312.211-.531.2-.348-.02-.688-.043-1.043-.055C12.57 10 12.387 10 12.2 10m2.71-3.629c.262 0 .52.066.777.234.442.29.692.696.825 1.172.004.028 0 .063 0 .11-.969-.235-1.922-.45-2.899-.676a.67.67 0 0 1 .078-.172 1.455 1.455 0 0 1 1.22-.668m-.204 32.445c.055 0 .11 0 .168-.004.473-.023.926-.132 1.379-.25.66-.152 1.308-.308 1.976-.468.473-.117.926-.254 1.356-.485.293-.156.55-.351.797-.578.097-.09.125-.09.234-.015.059.043.113.078.168.125.55.441 1.164.754 1.867.918.836.199 1.676.414 2.52.613.433.105.871.16 1.308.133a2.969 2.969 0 0 0 1.84-.746c.332-.29.524-.704.508-1.137a1.449 1.449 0 0 0-.578-1.098.799.799 0 0 0-.668-.187c-.437.078-.719.351-.918.754.066-.008.098-.016.137-.008.148-.035.3-.07.453-.098a.56.56 0 0 1 .406.047c.262.148.367.383.29.68a.71.71 0 0 1-.384.476.778.778 0 0 1-.632.032 4.366 4.366 0 0 1-.66-.336c-1.067-.664-2.133-1.325-3.192-1.989-.668-.414-1.379-.488-2.11-.172a1.068 1.068 0 0 1-.937 0 2.175 2.175 0 0 0-1.875.028c-.203.097-.367.219-.562.308-.543.258-1.024.594-1.512.926-.461.305-.934.61-1.414.906-.238.157-.5.262-.781.329a.606.606 0 0 1-.278-.012c-.496-.172-.648-.547-.523-.98.027-.09.078-.173.183-.196.305-.066.606-.102.899.035.047.024.098.043.16.07a1.431 1.431 0 0 0-.418-.566c-.316-.281-.773-.336-1.101-.117-.497.34-.696.8-.66 1.351.034.45.277.782.624 1.06.57.44 1.211.651 1.938.651m-.445-8.043h.003c.079-.007.122-.05.122-.148.003-.082 0-.172 0-.266.097-.023.171-.035.242-.058.152-.055.312-.094.46-.172.419-.246.579-.633.544-1.082-.028-.422-.282-.692-.684-.856-.133-.054-.285-.09-.418-.14-.125-.031-.14-.031-.14-.164v-.856c0-.047.023-.074.03-.117a.538.538 0 0 1 .41.34l.071.18c.067.12.18.183.32.164.13-.016.243-.082.27-.215a.48.48 0 0 0-.012-.246c-.133-.383-.418-.594-.824-.692-.082-.02-.172-.035-.27-.054 0-.098 0-.188-.015-.278a.124.124 0 0 0-.14-.11c-.063.009-.098.048-.102.118-.008.04-.008.09-.008.129-.016.043-.016.09-.016.14-.097.02-.195.036-.277.063-.473.09-.8.39-.863.848-.063.469.097.87.593 1.082.13.05.262.097.387.14.16.055.176.067.176.227v.918c0 .039-.016.09-.016.137-.035 0-.054 0-.074-.008a.623.623 0 0 1-.406-.352c-.047-.11-.082-.226-.137-.336-.07-.14-.187-.195-.344-.168a.332.332 0 0 0-.27.27.379.379 0 0 0 0 .133c.048.27.161.496.391.668.188.144.403.23.641.297.215.054.215.054.227.285v.031c.007.098.05.148.129.148m.234-2.05c.117 0 .25.07.355.172a.5.5 0 0 1 .098.593c-.082.207-.285.332-.543.344v-1.098c.027-.004.063-.011.09-.011m-.395-1.809v.973a.498.498 0 0 1-.504-.461c-.007-.285.184-.469.504-.512m12.88 3.852c.085 0 .12-.043.124-.153v-.254c.157-.043.29-.062.414-.105.332-.098.582-.29.723-.594.238-.469.125-.992-.25-1.297a1.876 1.876 0 0 0-.488-.234 3.563 3.563 0 0 0-.364-.11v-1.105c.211.055.344.18.418.36.036.07.059.128.086.19.07.118.172.153.297.153.133-.02.219-.074.274-.191a.428.428 0 0 0 0-.262c-.133-.402-.426-.621-.852-.71a2.559 2.559 0 0 0-.262-.071c0-.098.004-.172 0-.262-.007-.078-.062-.125-.125-.117-.07.008-.105.047-.125.11-.007.042-.007.07-.007.109v.168l-.25.062a1.024 1.024 0 0 0-.907.938c-.023.457.16.793.59.992.125.055.258.097.399.14.16.055.168.067.168.227v1.035c-.07.02-.079.027-.098.012a.538.538 0 0 1-.399-.336c-.046-.11-.097-.242-.144-.352-.086-.168-.258-.207-.434-.132-.125.05-.199.195-.172.347.028.356.258.668.598.828.152.067.313.118.48.164.169.055.169.047.169.215v.082c.02.11.054.153.136.153m.219-2.059a.56.56 0 0 1 .543.527.57.57 0 0 1-.594.586c-.043-.113-.047-.941-.008-1.105.024 0 .036-.008.059-.008m-.363-1.785v.957a.48.48 0 0 1-.508-.442c-.008-.3.195-.515.508-.515m-6.157 25.195h-.695a5.31 5.31 0 0 1-.754-.054c-.52-.051-.84-.083-1.168-.133a13.717 13.717 0 0 1-4.918-1.711 13.193 13.193 0 0 1-4.664-4.555 74.276 74.276 0 0 1-1.664-2.852 27.939 27.939 0 0 1-1.558-3.187 9.508 9.508 0 0 1-3.204-2.523C.978 35.77.329 34.297.113 32.71l-.015-.047A4.41 4.41 0 0 1 0 31.758v-.387c0-.324.035-.64.113-.953.028-.207.063-.414.094-.613.45-2.223 1.563-4.035 3.254-5.367l-.277-1.512a4.867 4.867 0 0 1-.356-1.367 5.297 5.297 0 0 1-.781-.938 5.861 5.861 0 0 1-.758-1.68c-.281-.949-.336-1.964-.148-3.09.14-.953.46-1.87.933-2.71a4.369 4.369 0 0 1 .676-3.922c.328-.434.719-.82 1.156-1.153.383-.273.774-.53 1.192-.75.097-.293.234-.566.41-.824A5.347 5.347 0 0 1 7.793 4.41l1.129-.531a9.429 9.429 0 0 1 4.113-2.5c1.149-.352 2.242-.426 2.973-.453l2.445-.043c.559 0 1.121.027 1.68.105 1.469.2 2.777.633 3.933 1.305a9.979 9.979 0 0 1 3.278 3.027 8.926 8.926 0 0 1 2.082 1.297 10.135 10.135 0 0 1 1.785 1.918l.785.36c2.11.89 3.8 2.507 4.734 4.543.266.57.543 1.144.86 1.703l.84 1.554c.601 1.094.816 2.262.675 3.496l-.667 5.094c.175.188.34.371.5.574 1.082 1.336 1.726 2.828 1.93 4.414.05.278.085.547.085.801v.774c0 .297-.035.593-.098.882-.023.125-.042.262-.062.387a9.084 9.084 0 0 1-2.8 4.95 9.227 9.227 0 0 1-1.485 1.117l-.137.34a20.553 20.553 0 0 1-3.805 5.94c-.34.544-.722 1.075-1.14 1.575-1.29 1.54-2.805 2.746-4.52 3.586-1.683.836-3.601 1.332-5.683 1.45-.243.042-.278.042-.535.042Zm0 0"/><path style="stroke:none;fill-rule:nonzero;fill:#920071;fill-opacity:1" d="M20.688 49.984h-.981l-.203-.047-.172-.015c-.3-.027-.61-.055-.906-.098a11.306 11.306 0 0 1-4.102-1.426 11.114 11.114 0 0 1-3.894-3.804A87.9 87.9 0 0 1 8.8 41.8a25.613 25.613 0 0 1-1.738-3.707l-.023-.07a7.183 7.183 0 0 1-3.21-2.243c-.876-1.07-1.384-2.258-1.509-3.539l-.058-.226-.012-.258v-.656l.063-.254c.054-.332.074-.496.105-.676.41-2.035 1.566-3.629 3.348-4.688v-.011c.027-.442.02-.727-.02-.973l-.281-1.59c-.055-.297-.098-.531-.152-.64a3.594 3.594 0 0 1-.25-1.782 2.746 2.746 0 0 1-1.114-1.008 3.785 3.785 0 0 1-.496-1.109c-.265-.871-.18-1.672-.098-2.195a5.914 5.914 0 0 1 1.262-2.844c-.668-.895-.676-2.008-.027-2.883.2-.261.437-.504.703-.703.453-.332.937-.61 1.46-.836l.595-1.187c.257-.414.644-1.016 1.453-1.403l.941-.449.578-.266a7.06 7.06 0 0 1 3.39-2.187c.9-.277 1.782-.332 2.376-.356l1.324-.03.668-.009.367-.007c.47 0 .926.027 1.395.09a8.429 8.429 0 0 1 3.062 1.007c1.168.676 2.125 1.63 2.848 2.817.863.379 1.566.773 2.207 1.304a7.823 7.823 0 0 1 1.707 1.98c.152.063.305.122.453.192l.438.2.508.234a6.781 6.781 0 0 1 3.613 3.46c.285.614.578 1.235.914 1.833l.445.8.41.747c.371.703.516 1.472.426 2.293l-.21 1.629-.243 1.765-.203 1.613-.04.305-.042.371-.055.43a6.83 6.83 0 0 1 1.063 1.062c.843 1.036 1.343 2.18 1.492 3.395l.047.14.015.399v1.035l-.07.262-.008.09-.035.25c-.422 2.16-1.863 4.008-3.898 5.004a41.15 41.15 0 0 1-.395 1.007 18.75 18.75 0 0 1-3.414 5.333l-.172.226c-.316.5-.664.969-1.039 1.418a11.715 11.715 0 0 1-3.797 3.027c-1.426.711-2.992 1.106-4.781 1.207l-.184.028Zm-.973-9.953h.062l.125.008.297.016.434.011c.285 0 .57.016.847.036a3.27 3.27 0 0 1 1.278.343c-.016-.054-.024-.11-.035-.156l-.614-.152a7.256 7.256 0 0 1-1.582-.586 7.457 7.457 0 0 1-1.761.605l-.27.07.02.047a2.934 2.934 0 0 1 1.199-.242Zm.437-7.215c.118.02.23.055.348.086a6.04 6.04 0 0 1 .57-.136 7.475 7.475 0 0 1-.445-.602 8.371 8.371 0 0 1-.473.652Zm-1.965-1.894.899.746Zm-3.851-1.98.008.097h.027l-.012-.164Zm-3.723-.399v.172h.09a2.75 2.75 0 0 1 .117-.387l-.011-.066a1.817 1.817 0 0 0-.512-.125l.168.441.09-.027v-.016l.008.016h.023v-.016.016Zm16.223-.816v.195l.062-.207c-.02.008-.035.008-.062.012Zm.133-.707h.008l-.008-1.274Zm-12.7 0v-1.258Zm-.093-5.73c1.984 0 3.683.608 5.058 1.765a4.83 4.83 0 0 1 2.563-.067c.082.028.164.04.242.067a7.593 7.593 0 0 1 4.91-1.774c.535 0 1.078.059 1.613.153l.391-.407a.524.524 0 0 0-.07-.109c-.422-.492-.856-.969-1.281-1.45l-.235-.261-.265.02c-.375.035-.747.074-1.11.125-.234.035-.472.093-.715.144l-.46.098-.137.031-.196.016-.488.043c-.05.039-.105.066-.16.093a2.706 2.706 0 0 1-1.457.422h-.738l-.082-.054-.899.25-.398.011h-.278l-.32-.07-.586-.145-.812-.191c-.852-.215-1.7-.387-2.555-.523-.488-.07-.984-.133-1.484-.168-.301.351-.606.71-.887 1.09-.164.23-.34.464-.422.648-.05.117-.086.242-.098.367.438-.07.883-.117 1.352-.125Zm10.168-9.821c-.153.125-.32.25-.215.61.11.362.34.46.652.503l.07-.539ZM12.992 8.156a7.81 7.81 0 0 0-.187.125l.941.98.106-.027a1.938 1.938 0 0 0-.86-1.078Zm1.918.168v.184c.29 0 .547-.13.688-.344l-.063-.043Zm-.45.145c.142 0 .294.039.45.039v-.192l-.523.157c.02 0 .043-.004.074-.004Zm0 0"/><path style="stroke:none;fill-rule:nonzero;fill:#fff;fill-opacity:1" d="m20.688 47.844.265-.035c1.363-.075 2.668-.364 3.887-.973 1.21-.598 2.21-1.441 3.07-2.457.32-.383.613-.793.883-1.211.113-.18.242-.355.39-.512a16.689 16.689 0 0 0 3.024-4.726c.18-.45.352-.899.512-1.348a.932.932 0 0 1 .55-.586 5.191 5.191 0 0 0 1.583-.988 4.843 4.843 0 0 0 1.523-2.692c.023-.109.027-.21.043-.324a.548.548 0 0 1 .043-.144v-.766a.398.398 0 0 1-.043-.117c-.078-.953-.461-1.781-1.059-2.52a5.287 5.287 0 0 0-1.28-1.125c-.079-.054-.153-.101-.224-.172a.485.485 0 0 1-.125-.433c.083-.567.145-1.133.208-1.692l.257-1.941c.078-.543.149-1.082.22-1.625.065-.566.151-1.14.222-1.715.039-.37 0-.73-.188-1.066-.281-.52-.558-1.035-.844-1.547a35.628 35.628 0 0 1-.988-1.969 4.624 4.624 0 0 0-2.488-2.379c-.32-.144-.64-.297-.961-.441a7.403 7.403 0 0 0-.633-.258 1.092 1.092 0 0 1-.66-.535 5.782 5.782 0 0 0-1.395-1.7 4.366 4.366 0 0 0-1.378-.792 2.437 2.437 0 0 1-1.293-1.063 5.85 5.85 0 0 0-2.075-2.058 6.09 6.09 0 0 0-2.203-.715 8.458 8.458 0 0 0-1.414-.063c-.644.012-1.3.02-1.957.047-.598.016-1.195.07-1.773.254a4.99 4.99 0 0 0-2.438 1.625 1.336 1.336 0 0 1-.437.344c-.567.261-1.137.539-1.707.808-.223.11-.34.282-.453.461-.02.035-.02.082 0 .11.015.015.07.027.097.023.242-.05.48-.105.719-.16.11-.027.215-.047.324-.07a.798.798 0 0 1 .195-.036c-.039.06-.054.098-.09.126-.109.124-.23.25-.34.374-.097.118-.202.239-.284.372-.348.574-.88.937-1.528 1.168-.097.03-.195.066-.297.093-.543.145-1.023.41-1.476.739-.09.07-.176.152-.25.242-.121.168-.094.324.047.465.078.058.168.12.265.171.125.063.266.102.403.145.488.152.984.297 1.476.453.043.008.09.031.133.05.027.09-.016.13-.09.165-.133.055-.265.11-.398.168-.66.289-1.254.66-1.735 1.184-.535.59-.82 1.273-.937 2.03-.078.427-.098.868.035 1.29.047.187.125.387.234.555.25.39.446.308.649.02.062-.106.117-.216.16-.325a8.299 8.299 0 0 1 1.832-2.879c.25-.262.527-.512.8-.758.04-.035.09-.07.138-.105.023.043.043.07.05.105.223.676.438 1.36.66 2.043a.506.506 0 0 1-.097.508c-.555.68-1.094 1.39-1.7 2.023-.187.196-.374.38-.542.586-.27.297-.446.672-.5 1.063-.043.285-.016.574.097.844.145.335.207.695.27 1.062.105.543.195 1.078.293 1.613.086.485.078.97.043 1.446-.016.226-.02.453-.028.687-.007.05 0 .106-.007.168a.585.585 0 0 1-.348.504c-.098.055-.203.094-.3.145-1.49.738-2.38 1.89-2.696 3.449-.04.222-.063.441-.09.668-.012.058-.035.097-.039.152v.387c.012.09.047.187.055.277.09.89.453 1.73 1.035 2.422a4.99 4.99 0 0 0 2.558 1.676c.098.027.188.062.27.097.258.11.437.297.535.54.086.207.156.414.23.62a23.52 23.52 0 0 0 1.602 3.41c.508.903 1.04 1.821 1.582 2.72a9.001 9.001 0 0 0 3.125 3.054 9.114 9.114 0 0 0 3.29 1.14c.347.048.695.075 1.05.11.047 0 .105.008.16.02h.695m-.972-5.68a.828.828 0 0 0-.602.23c-.48.461-1.07.633-1.738.594-.516-.035-.969-.215-1.316-.59a1.255 1.255 0 0 1-.336-.793c-.008-.273.02-.55.09-.82.07-.27.132-.531.195-.808.035-.137.023-.157-.04-.336-.042.035-.077.054-.113.082a3.662 3.662 0 0 0-.71.898c-.188.336-.364.68-.551 1.02-.074.16-.164.316-.258.496-.066-.063-.117-.102-.16-.145a13.896 13.896 0 0 1-2.297-2.937c-.758-1.301-1.281-2.688-1.672-4.121a.581.581 0 0 0-.055-.2c-.3-.023-.57-.027-.843-.058-1.477-.145-2.688-1.207-2.973-2.621-.215-1 .086-2.035.809-2.79.105-.109.207-.171.367-.163.414.015.808.007 1.215.007.257 0 .359.082.418.325.445 1.972 2.082 3.5 4.14 3.855 2.203.414 4.43-.562 5.55-2.434a4.777 4.777 0 0 0 .661-2.933c-.027-.29-.101-.578-.172-.871-.058-.281-.008-.524.207-.73.223-.208.508-.34.817-.372.515-.086.953.028 1.355.328.266.203.344.387.246.7a4.573 4.573 0 0 0-.215 1.457 4.832 4.832 0 0 0 1.282 3.222 5.088 5.088 0 0 0 3.195 1.668c1.613.215 3.055-.199 4.281-1.242a4.688 4.688 0 0 0 1.61-2.61.604.604 0 0 0 .027-.09c.047-.175.168-.273.363-.273.305 0 .617.008.903.008.292-.008.292-.008.48.2.488.566.766 1.199.816 1.93.055.98-.277 1.823-1.004 2.519-.445.422-1 .664-1.593.824-.117.027-.239.058-.364.082-.207.047-.324.183-.394.387-.125.468-.273.93-.434 1.398a14.292 14.292 0 0 1-2.66 4.668c-.418.473-.847.938-1.273 1.406-.02.035-.047.043-.09.082-.043-.074-.086-.129-.117-.191-.23-.442-.442-.89-.672-1.324-.242-.485-.5-.953-.875-1.368-.043-.042-.09-.09-.125-.14-.16.035-.152.035-.16.14-.008.2.039.399.09.586.078.297.152.586.203.883.09.516-.043.98-.446 1.34a1.468 1.468 0 0 1-.672.352c-.386.101-.8.136-1.203.062a1.91 1.91 0 0 1-1.004-.476.918.918 0 0 0-.597-.25c-.266-.02-.535-.028-.801-.028-.238-.011-.48-.011-.719-.027-.02-.008-.047-.008-.066-.008m-7.145-10.71c.5.237 1.016.374 1.578.401-.074.344-.171.692-.277 1.028a4.45 4.45 0 0 1-1.586-.395c.094-.343.188-.675.285-1.035m12.707 0a4.225 4.225 0 0 0 1.586.402l-.293 1.02a4.238 4.238 0 0 1-1.578-.398c.098-.332.18-.664.285-1.024m4.79-1.18c.265.258.515.5.78.747a3.94 3.94 0 0 1-1.105 1.05c-.273-.222-.512-.476-.789-.738.434-.312.809-.648 1.113-1.059m-12.671-.003.765.722a3.964 3.964 0 0 1-1.101 1.063c-.27-.242-.528-.48-.793-.723.195-.152.41-.312.586-.484.187-.188.347-.371.543-.578m-3.125-4.852h.003c1.723 0 3.137 1.289 3.137 2.965 0 1.683-1.402 2.98-3.148 2.976a3.159 3.159 0 0 1-2.196-.87 2.92 2.92 0 0 1-.91-2.106c.02-1.649 1.406-2.965 3.114-2.965m12.699 0h.027c1.817.004 3.149 1.426 3.113 2.973.008.8-.32 1.558-.914 2.117-.59.555-1.39.863-2.234.851-.82 0-1.61-.32-2.191-.879a2.951 2.951 0 0 1-.907-2.117c.028-1.636 1.414-2.945 3.106-2.945m-3.7 3.11c.016 0 .036.007.051.007.047.258.082.512.153.758.07.238.175.477.265.719-.035.015-.07.043-.105.043-.25.066-.508.136-.758.191-.168.043-.203.024-.273-.125a4.08 4.08 0 0 1-.332-1.18c-.024-.12.007-.164.117-.191.285-.074.57-.145.855-.215.008-.008.024-.008.028-.008m-12.715.008c.023 0 .043.008.058.008.047.242.082.496.153.738.07.242.168.477.27.739-.263.07-.52.136-.778.199-.285.07-.293.062-.406-.207a4.142 4.142 0 0 1-.29-1.082c-.015-.11.004-.153.11-.172.293-.078.586-.153.883-.223M31.23 26.52c.079 0 .106.05.16.171.16.36.266.727.313 1.114.008.043.008.074.008.117 0 .02 0 .043-.008.082l-1.043.262a8.041 8.041 0 0 0-.152-.766c-.07-.246-.176-.48-.258-.73a.588.588 0 0 1 .133-.047c.234-.059.472-.118.715-.176.054-.012.097-.027.132-.027m-12.722 0c.086.007.113.043.168.152.18.414.3.844.336 1.32-.344.102-.692.184-1.075.274a3.646 3.646 0 0 0-.425-1.485c.062-.027.105-.039.148-.058.25-.063.48-.125.73-.18a.285.285 0 0 1 .118-.023m5.781-1.82c.242.226.5.476.758.73-.16.125-.293.215-.426.316a4.16 4.16 0 0 0-.375.367c-.117.11-.215.254-.32.387-.27-.25-.524-.484-.781-.719.125-.289.738-.883 1.144-1.082m-12.738.008c.273.242.515.48.797.742-.47.297-.836.637-1.11 1.043l-.8-.746c.3-.414.675-.77 1.109-1.039m15.402-1.293c-1.414 0-2.652.504-3.699 1.492-.223.2-.402.442-.598.676-.035.043-.062.082-.105.137-.047-.04-.106-.074-.152-.11a3.605 3.605 0 0 0-1.157-.558c-.648-.16-1.254-.047-1.832.25-.23.12-.445.273-.687.418-1.086-1.489-2.578-2.317-4.52-2.297-1.93.027-3.39.902-4.465 2.457-.011-.074-.02-.11-.02-.137.009-.379.098-.734.298-1.062.273-.45.539-.926.797-1.383a.472.472 0 0 0 .027-.461c-.348-.871-.371-1.734.008-2.602.164-.386.41-.726.668-1.07.48-.648 1.015-1.25 1.55-1.863a.369.369 0 0 1 .258-.145c.196-.015.407-.027.606-.015a27.93 27.93 0 0 1 4.89.789c.465.117.938.218 1.41.336a.227.227 0 0 0 .114-.004c-.063-.063-.113-.117-.176-.176a14.778 14.778 0 0 0-3.242-2.324c-.258-.137-.516-.27-.774-.414a1.006 1.006 0 0 1-.382-.317.632.632 0 0 1-.028-.699.64.64 0 0 1 .614-.371c.171 0 .34.043.492.117 1.433.711 2.758 1.54 3.941 2.59.39.336.738.715 1.11 1.074.082.09.164.18.261.242.184.13.356.075.524-.027.07-.043.043-.11.027-.16-.07-.246-.117-.496-.203-.738-.383-1.125-.953-2.153-1.656-3.125a15.596 15.596 0 0 0-2.235-2.446c-.09-.086-.175-.164-.25-.254a.68.68 0 0 1 .082-.953.742.742 0 0 1 .996-.004c.829.696 1.559 1.461 2.223 2.297a13.29 13.29 0 0 1 2.094 3.574c.14.372.25.754.379 1.125.031.075.054.165.082.25.047-.007.082-.007.117-.015.453-.09.879-.2 1.324-.27.57-.082 1.133-.125 1.7-.187.195-.02.39-.028.585-.04a.677.677 0 0 1 .61.22c.683.78 1.386 1.546 2.062 2.335.399.461.598 1.012.64 1.606.036.492-.179.898-.562 1.223-.043.027-.078.062-.14.117.054.101.097.199.14.308.207.387.41.766.625 1.16.239.465.446.934.535 1.438.07.336.079.695.016 1.039-.082-.004-.082-.074-.098-.117a4.992 4.992 0 0 0-1.175-1.559 5.231 5.231 0 0 0-2.946-1.324 6.013 6.013 0 0 0-.703-.043m-12.144.477h.054c.454.054.899.18 1.317.351a.31.31 0 0 1 .113.07c-.094.325-.191.649-.289 1.008a4.486 4.486 0 0 0-1.566-.406v-.098c.078-.27.156-.53.23-.793.035-.105.055-.132.14-.132m12.7.015c.023 0 .058 0 .09.004.433.043.843.16 1.242.32.027.012.062.02.09.036.015.011.027.02.062.054-.09.325-.18.649-.285.973-.273-.082-.523-.18-.781-.25-.25-.063-.516-.094-.785-.137.008-.035.008-.07.011-.09.063-.253.141-.496.211-.757.036-.118.055-.153.145-.153m-2.442-13.445c.438.055 1.06.457 1.231 1.035.187.629-.16 1.324-.5 1.61-.063-.098-.703-2.403-.73-2.645M12.198 10h-.222c-.145 0-.243-.043-.286-.18.02-.02.036-.043.055-.062.285-.242.594-.488.887-.738a.325.325 0 0 1 .402-.047c.356.172.711.363 1.067.55.132.075.16.207.222.34-.16.137-.312.211-.531.2-.348-.02-.688-.043-1.043-.055C12.57 10 12.387 10 12.2 10m2.71-3.629c.262 0 .52.066.777.234.442.29.692.696.825 1.172.004.028 0 .063 0 .11-.969-.235-1.922-.45-2.899-.676a.67.67 0 0 1 .078-.172 1.455 1.455 0 0 1 1.22-.668m-.204 32.445c.055 0 .11 0 .168-.004.473-.023.926-.132 1.379-.25.66-.152 1.308-.308 1.976-.468.473-.117.926-.254 1.356-.485.293-.156.55-.351.797-.578.097-.09.125-.09.234-.015.059.043.113.078.168.125.55.441 1.164.754 1.867.918.836.199 1.676.414 2.52.613.433.105.871.16 1.308.133a2.969 2.969 0 0 0 1.84-.746c.332-.29.524-.704.508-1.137a1.449 1.449 0 0 0-.578-1.098.799.799 0 0 0-.668-.187c-.437.078-.719.351-.918.754.066-.008.098-.016.137-.008.148-.035.3-.07.453-.098a.56.56 0 0 1 .406.047c.262.148.367.383.29.68a.71.71 0 0 1-.384.476.778.778 0 0 1-.632.032 4.366 4.366 0 0 1-.66-.336c-1.067-.664-2.133-1.325-3.192-1.989-.668-.414-1.379-.488-2.11-.172a1.068 1.068 0 0 1-.937 0 2.175 2.175 0 0 0-1.875.028c-.203.097-.367.219-.562.308-.543.258-1.024.594-1.512.926-.461.305-.934.61-1.414.906-.238.157-.5.262-.781.329a.606.606 0 0 1-.278-.012c-.496-.172-.648-.547-.523-.98.027-.09.078-.173.183-.196.305-.066.606-.102.899.035.047.024.098.043.16.07a1.431 1.431 0 0 0-.418-.566c-.316-.281-.773-.336-1.101-.117-.497.34-.696.8-.66 1.351.034.45.277.782.624 1.06.57.44 1.211.651 1.938.651m-.445-8.043h.003c.079-.007.122-.05.122-.148.003-.082 0-.172 0-.266.097-.023.171-.035.242-.058.152-.055.312-.094.46-.172.419-.246.579-.633.544-1.082-.028-.422-.282-.692-.684-.856-.133-.054-.285-.09-.418-.14-.125-.031-.14-.031-.14-.164v-.856c0-.047.023-.074.03-.117a.538.538 0 0 1 .41.34l.071.18c.067.12.18.183.32.164.13-.016.243-.082.27-.215a.48.48 0 0 0-.012-.246c-.133-.383-.418-.594-.824-.692-.082-.02-.172-.035-.27-.054 0-.098 0-.188-.015-.278a.124.124 0 0 0-.14-.11c-.063.009-.098.048-.102.118-.008.04-.008.09-.008.129-.016.043-.016.09-.016.14-.097.02-.195.036-.277.063-.473.09-.8.39-.863.848-.063.469.097.87.593 1.082.13.05.262.097.387.14.16.055.176.067.176.227v.918c0 .039-.016.09-.016.137-.035 0-.054 0-.074-.008a.623.623 0 0 1-.406-.352c-.047-.11-.082-.226-.137-.336-.07-.14-.187-.195-.344-.168a.332.332 0 0 0-.27.27.379.379 0 0 0 0 .133c.048.27.161.496.391.668.188.144.403.23.641.297.215.054.215.054.227.285v.031c.007.098.05.148.129.148m.234-2.05c.117 0 .25.07.355.172a.5.5 0 0 1 .098.593c-.082.207-.285.332-.543.344v-1.098c.027-.004.063-.011.09-.011m-.395-1.809v.973a.498.498 0 0 1-.504-.461c-.007-.285.184-.469.504-.512m12.88 3.852c.085 0 .12-.043.124-.153v-.254c.157-.043.29-.062.414-.105.332-.098.582-.29.723-.594.238-.469.125-.992-.25-1.297a1.876 1.876 0 0 0-.488-.234 3.563 3.563 0 0 0-.364-.11v-1.105c.211.055.344.18.418.36.036.07.059.128.086.19.07.118.172.153.297.153.133-.02.219-.074.274-.191a.428.428 0 0 0 0-.262c-.133-.402-.426-.621-.852-.71a2.559 2.559 0 0 0-.262-.071c0-.098.004-.172 0-.262-.007-.078-.062-.125-.125-.117-.07.008-.105.047-.125.11-.007.042-.007.07-.007.109v.168l-.25.062a1.024 1.024 0 0 0-.907.938c-.023.457.16.793.59.992.125.055.258.097.399.14.16.055.168.067.168.227v1.035c-.07.02-.079.027-.098.012a.538.538 0 0 1-.399-.336c-.046-.11-.097-.242-.144-.352-.086-.168-.258-.207-.434-.132-.125.05-.199.195-.172.347.028.356.258.668.598.828.152.067.313.118.48.164.169.055.169.047.169.215v.082c.02.11.054.153.136.153m.219-2.059a.56.56 0 0 1 .543.527.57.57 0 0 1-.594.586c-.043-.113-.047-.941-.008-1.105.024 0 .036-.008.059-.008m-.363-1.785v.957a.48.48 0 0 1-.508-.442c-.008-.3.195-.515.508-.515m-6.157 25.195h-.695a5.31 5.31 0 0 1-.754-.054c-.52-.051-.84-.083-1.168-.133a13.717 13.717 0 0 1-4.918-1.711 13.193 13.193 0 0 1-4.664-4.555 74.276 74.276 0 0 1-1.664-2.852 27.939 27.939 0 0 1-1.558-3.187 9.508 9.508 0 0 1-3.204-2.523C.978 35.77.329 34.297.113 32.71l-.015-.047A4.41 4.41 0 0 1 0 31.758v-.387c0-.324.035-.64.113-.953.028-.207.063-.414.094-.613.45-2.223 1.563-4.035 3.254-5.367l-.277-1.512a4.867 4.867 0 0 1-.356-1.367 5.297 5.297 0 0 1-.781-.938 5.861 5.861 0 0 1-.758-1.68c-.281-.949-.336-1.964-.148-3.09.14-.953.46-1.87.933-2.71a4.369 4.369 0 0 1 .676-3.922c.328-.434.719-.82 1.156-1.153.383-.273.774-.53 1.192-.75.097-.293.234-.566.41-.824A5.347 5.347 0 0 1 7.793 4.41l1.129-.531a9.429 9.429 0 0 1 4.113-2.5c1.149-.352 2.242-.426 2.973-.453l2.445-.043c.559 0 1.121.027 1.68.105 1.469.2 2.777.633 3.933 1.305a9.979 9.979 0 0 1 3.278 3.027 8.926 8.926 0 0 1 2.082 1.297 10.135 10.135 0 0 1 1.785 1.918l.785.36c2.11.89 3.8 2.507 4.734 4.543.266.57.543 1.144.86 1.703l.84 1.554c.601 1.094.816 2.262.675 3.496l-.667 5.094c.175.188.34.371.5.574 1.082 1.336 1.726 2.828 1.93 4.414.05.278.085.547.085.801v.774c0 .297-.035.593-.098.882-.023.125-.042.262-.062.387a9.084 9.084 0 0 1-2.8 4.95 9.227 9.227 0 0 1-1.485 1.117l-.137.34a20.553 20.553 0 0 1-3.805 5.94c-.34.544-.722 1.075-1.14 1.575-1.29 1.54-2.805 2.746-4.52 3.586-1.683.836-3.601 1.332-5.683 1.45-.243.042-.278.042-.535.042Zm0 0"/></svg>