<svg xmlns="http://www.w3.org/2000/svg" width="85" height="35" viewBox="0 0 85 35"><defs><linearGradient id="a" gradientUnits="userSpaceOnUse" x1="21148.5" y1="1584.9" x2="23476.3" y2="1584.9" gradientTransform="scale(.0036 .00363)"><stop offset="0" style="stop-color:#feed9d;stop-opacity:1"/><stop offset="1" style="stop-color:#ffdc84;stop-opacity:1"/></linearGradient><linearGradient id="b" gradientUnits="userSpaceOnUse" x1="16034.7" y1="7648.51" x2="16034.7" y2="1398.4" gradientTransform="scale(.0036 .00363)"><stop offset="0" style="stop-color:#ffd068;stop-opacity:1"/><stop offset="1" style="stop-color:#fff9ac;stop-opacity:1"/></linearGradient><linearGradient id="c" gradientUnits="userSpaceOnUse" x1="19662.2" y1="8126.17" x2="23103.1" y2="8126.17" gradientTransform="scale(.0036 .00363)"><stop offset="0" style="stop-color:#fecc47;stop-opacity:1"/><stop offset="1" style="stop-color:#fd8;stop-opacity:1"/></linearGradient><linearGradient id="d" gradientUnits="userSpaceOnUse" x1="18182.1" y1="6211.02" x2="19703" y2="6211.02" gradientTransform="scale(.0036 .00363)"><stop offset="0" style="stop-color:#4b6e00;stop-opacity:1"/><stop offset="1" style="stop-color:#6ea303;stop-opacity:1"/></linearGradient><linearGradient id="e" gradientUnits="userSpaceOnUse" x1="18199.7" y1="6358.77" x2="19575.7" y2="6358.77" gradientTransform="scale(.0036 .00363)"><stop offset="0" style="stop-color:#f6ff64;stop-opacity:1"/><stop offset="1" style="stop-color:#8fca10;stop-opacity:1"/></linearGradient><linearGradient id="f" gradientUnits="userSpaceOnUse" x1="18438.8" y1="6399.37" x2="19613.5" y2="6399.37" gradientTransform="scale(.0036 .00363)"><stop offset="0" style="stop-color:#2d5900;stop-opacity:1"/><stop offset="1" style="stop-color:#628e05;stop-opacity:1"/></linearGradient><linearGradient id="g" gradientUnits="userSpaceOnUse" x1="17026.6" y1="4983.9" x2="19623.5" y2="4983.9" gradientTransform="scale(.0036 .00363)"><stop offset="0" style="stop-color:#d4e300;stop-opacity:1"/><stop offset="1" style="stop-color:#bfc200;stop-opacity:1"/></linearGradient><linearGradient id="h" gradientUnits="userSpaceOnUse" x1="17098.8" y1="4664.34" x2="19002.1" y2="4664.34" gradientTransform="scale(.0036 .00363)"><stop offset="0" style="stop-color:#f7f86c;stop-opacity:1"/><stop offset="1" style="stop-color:#dfe300;stop-opacity:1"/></linearGradient><linearGradient id="i" gradientUnits="userSpaceOnUse" x1="18060.2" y1="6344.88" x2="19236.7" y2="5081.85" gradientTransform="scale(.0036 .00363)"><stop offset="0" style="stop-color:#305c00;stop-opacity:1"/><stop offset="1" style="stop-color:#6b9f03;stop-opacity:1"/></linearGradient><linearGradient id="j" gradientUnits="userSpaceOnUse" x1="18285.1" y1="6235.11" x2="18689.5" y2="4995.84" gradientTransform="scale(.0036 .00363)"><stop offset="0" style="stop-color:#77a600;stop-opacity:1"/><stop offset="1" style="stop-color:#8eb500;stop-opacity:1"/></linearGradient><linearGradient id="k" gradientUnits="userSpaceOnUse" x1="17881.7" y1="5451.24" x2="18721.5" y2="5451.24" gradientTransform="scale(.0036 .00363)"><stop offset="0" style="stop-color:#f8f96f;stop-opacity:1"/><stop offset="1" style="stop-color:#c7e200;stop-opacity:1"/></linearGradient><linearGradient id="l" gradientUnits="userSpaceOnUse" x1="18068.8" y1="3114.11" x2="19354.4" y2="4536.73" gradientTransform="scale(.0036 .00363)"><stop offset="0" style="stop-color:#a8c900;stop-opacity:1"/><stop offset="1" style="stop-color:#2a4d00;stop-opacity:1"/></linearGradient><linearGradient id="m" gradientUnits="userSpaceOnUse" x1="17911.8" y1="3191.61" x2="19296.8" y2="4154.6" gradientTransform="scale(.0036 .00363)"><stop offset="0" style="stop-color:#cde800;stop-opacity:1"/><stop offset="1" style="stop-color:#446e00;stop-opacity:1"/></linearGradient><linearGradient id="n" gradientUnits="userSpaceOnUse" x1="18005.3" y1="2927.84" x2="18749.8" y2="3402.83" gradientTransform="scale(.0036 .00363)"><stop offset="0" style="stop-color:#f7ff33;stop-opacity:1"/><stop offset="1" style="stop-color:#c4de00;stop-opacity:1"/></linearGradient><linearGradient id="o" gradientUnits="userSpaceOnUse" x1="18628.7" y1="2845.43" x2="19915.2" y2="4248.16" gradientTransform="scale(.0036 .00363)"><stop offset="0" style="stop-color:#ddde0e;stop-opacity:1"/><stop offset="1" style="stop-color:#95ab00;stop-opacity:1"/></linearGradient><linearGradient id="p" gradientUnits="userSpaceOnUse" x1="18743.3" y1="2641.95" x2="19800.7" y2="3794.86" gradientTransform="scale(.0036 .00363)"><stop offset="0" style="stop-color:#efec13;stop-opacity:1"/><stop offset="1" style="stop-color:#b5c002;stop-opacity:1"/></linearGradient><linearGradient id="q" gradientUnits="userSpaceOnUse" x1="18900.8" y1="2457.91" x2="19582.8" y2="3201.49" gradientTransform="scale(.0036 .00363)"><stop offset="0" style="stop-color:#fffa91;stop-opacity:1"/><stop offset="1" style="stop-color:#ecf90b;stop-opacity:1"/></linearGradient><linearGradient id="r" gradientUnits="userSpaceOnUse" x1="21213.1" y1="3122.92" x2="20331.6" y2="4742.91" gradientTransform="scale(.0036 .00363)"><stop offset="0" style="stop-color:#cad606;stop-opacity:1"/><stop offset="1" style="stop-color:#1e3c00;stop-opacity:1"/></linearGradient><linearGradient id="s" gradientUnits="userSpaceOnUse" x1="21214" y1="3111.16" x2="20361.8" y2="4677.33" gradientTransform="scale(.0036 .00363)"><stop offset="0" style="stop-color:#c9db00;stop-opacity:1"/><stop offset="1" style="stop-color:#406500;stop-opacity:1"/></linearGradient><linearGradient id="t" gradientUnits="userSpaceOnUse" x1="21151" y1="3081.93" x2="20642.7" y2="4016.01" gradientTransform="scale(.0036 .00363)"><stop offset="0" style="stop-color:#fff956;stop-opacity:1"/><stop offset="1" style="stop-color:#d7eb00;stop-opacity:1"/></linearGradient><linearGradient id="u" gradientUnits="userSpaceOnUse" x1="20019.1" y1="4706.99" x2="22029.3" y2="4116.04" gradientTransform="scale(.0036 .00363)"><stop offset="0" style="stop-color:#7c9e00;stop-opacity:1"/><stop offset="1" style="stop-color:#7eab03;stop-opacity:1"/></linearGradient><linearGradient id="v" gradientUnits="userSpaceOnUse" x1="20496.6" y1="4532.16" x2="22067.7" y2="4070.29" gradientTransform="scale(.0036 .00363)"><stop offset="0" style="stop-color:#a1b600;stop-opacity:1"/><stop offset="1" style="stop-color:#d9e800;stop-opacity:1"/></linearGradient><linearGradient id="w" gradientUnits="userSpaceOnUse" x1="21334.4" y1="4207.47" x2="22049.7" y2="3997.17" gradientTransform="scale(.0036 .00363)"><stop offset="0" style="stop-color:#fff920;stop-opacity:1"/><stop offset="1" style="stop-color:#fcf762;stop-opacity:1"/></linearGradient><linearGradient id="x" gradientUnits="userSpaceOnUse" x1="20265.7" y1="5152.73" x2="21529" y2="6749.59" gradientTransform="scale(.0036 .00363)"><stop offset="0" style="stop-color:#406500;stop-opacity:1"/><stop offset="1" style="stop-color:#7ea903;stop-opacity:1"/></linearGradient><linearGradient id="y" gradientUnits="userSpaceOnUse" x1="20282.5" y1="5074.11" x2="21382.2" y2="6464.22" gradientTransform="scale(.0036 .00363)"><stop offset="0" style="stop-color:#7c9e00;stop-opacity:1"/><stop offset="1" style="stop-color:#c3d700;stop-opacity:1"/></linearGradient><linearGradient id="z" gradientUnits="userSpaceOnUse" x1="20712.1" y1="5095.72" x2="21270" y2="5800.97" gradientTransform="scale(.0036 .00363)"><stop offset="0" style="stop-color:#c8e600;stop-opacity:1"/><stop offset="1" style="stop-color:#fefe44;stop-opacity:1"/></linearGradient><linearGradient id="A" gradientUnits="userSpaceOnUse" x1="19582" y1="6502.2" x2="20938.7" y2="5695.05" gradientTransform="scale(.0036 .00363)"><stop offset="0" style="stop-color:#537d00;stop-opacity:1"/><stop offset="1" style="stop-color:#b5d100;stop-opacity:1"/></linearGradient><linearGradient id="B" gradientUnits="userSpaceOnUse" x1="20367" y1="6788.87" x2="20264.9" y2="5033.7" gradientTransform="scale(.0036 .00363)"><stop offset="0" style="stop-color:#c5cf00;stop-opacity:1"/><stop offset="1" style="stop-color:#96bf00;stop-opacity:1"/></linearGradient><linearGradient id="C" gradientUnits="userSpaceOnUse" x1="20307.2" y1="6082.3" x2="20264" y2="5340.03" gradientTransform="scale(.0036 .00363)"><stop offset="0" style="stop-color:#fcec61;stop-opacity:1"/><stop offset="1" style="stop-color:#c8e600;stop-opacity:1"/></linearGradient></defs><path style="stroke:none;fill-rule:nonzero;fill:#000;fill-opacity:1" d="M57.094 4.625h7.656L70.566.094a.44.44 0 0 1 .547.004l5.809 4.527h7.656c.242 0 .442.195.445.445v22.668a.463.463 0 0 1-.277.414l-13.715 6.793a.43.43 0 0 1-.39 0l-13.743-6.808c-.218-.11-.25-.29-.25-.496V5.07c0-.247.204-.446.446-.446Zm0 0"/><path style="stroke:none;fill-rule:evenodd;fill:#3e314b;fill-opacity:1" d="M57.094 5.07h7.808L70.836.445l5.937 4.625h7.801v22.668l-13.738 6.809-13.742-6.809Zm0 0"/><path style="stroke:none;fill-rule:evenodd;fill:#6a5c80;fill-opacity:1" d="M60.57 9.098h1.336L62 22.324l.086-13.226h2.363L64.54 28l-3.969-2.004Zm4.059 0h1.773l1.45-1.168.058 5.324.059-5.414.187-.152.059 5.945.066-6.047.848-.684.043 4.434.05-4.508.2-.164.055 5.04.054-5.126.645-.52.054 5.278.055-5.367.246-.196.18 16.668.18-16.87 2 1.613.105 9.757.106-9.59 1.472 1.188.11 10.492.113-10.312.473.379h2.125l.07 6.441.066-6.441h1.121l.075 6.652.066-6.652h.766l.039 4.152.043-4.152h.687l.078 4.742.078-4.742h.614v16.898l-4.922 2.48-.055-2.581-.055 2.64-1.289.652-.101-9.386-.102 9.488-.933.469-.059-5.809-.066 5.871-.88.45-.081-7.45-.082 7.528-1.559.785-.144-13.684-.145 13.621-1.191-.605-.04-7.36-.039 7.325-.738-.371-.07-6.598-.074 6.523-1.543-.78-.086-7.884-.082 7.801-2.227-1.125Zm0 0"/><path style="stroke:none;fill-rule:evenodd;fill:#fccd4b;fill-opacity:1" d="m66.066 7.785 4.77-3.71 4.77 3.71h6.269v18.18l-11.04 5.473-11.042-5.473V7.785Zm18.512 19.953V5.07h-7.805L70.836.445 64.902 5.07h-7.808v22.668l13.742 6.809Zm0 0"/><path style="stroke:none;fill-rule:evenodd;fill:#fccd4b;fill-opacity:1" d="M58.438 6.422h7.046l-.586-1.352h-7.804Zm0 0"/><path style="stroke:none;fill-rule:evenodd;fill:#ffe46f;fill-opacity:1" d="M70.836.445 64.902 5.07l.582 1.352 5.352-4.172Zm0 0"/><path style="stroke:none;fill-rule:evenodd;fill:#fccd4b;fill-opacity:1" d="m76.191 6.422.582-1.352L70.836.445V2.25Zm0 0"/><path style="stroke:none;fill-rule:evenodd;fill:url(#a)" d="M84.578 5.07h-7.805l-.582 1.352h7.04Zm0 0"/><path style="stroke:none;fill-rule:evenodd;fill:#ff9934;fill-opacity:1" d="M83.23 6.422v20.43l1.344.886V5.07Zm0 0"/><path style="stroke:none;fill-rule:evenodd;fill:#fbb03d;fill-opacity:1" d="M75.605 7.785h6.27l1.355-1.363h-7.039L70.836 2.25v1.824Zm0 0"/><path style="stroke:none;fill-rule:evenodd;fill:#ff953a;fill-opacity:1" d="m66.066 7.785 4.77-3.71V2.25L65.48 6.422Zm0 0"/><path style="stroke:none;fill-rule:evenodd;fill:url(#b)" d="M58.438 26.852V6.422L57.093 5.07v22.668Zm0 0"/><path style="stroke:none;fill-rule:evenodd;fill:#fecc47;fill-opacity:1" d="m70.836 31.438-11.043-5.473V7.785h6.27l-.579-1.363h-7.046v20.43l12.398 6.12Zm0 0"/><path style="stroke:none;fill-rule:evenodd;fill:#ffb63f;fill-opacity:1" d="m70.836 32.973-12.398-6.121-1.344.886 13.742 6.809Zm0 0"/><path style="stroke:none;fill-rule:evenodd;fill:#ff9934;fill-opacity:1" d="m83.23 26.852-12.394 6.12v1.575l13.742-6.809Zm0 0"/><path style="stroke:none;fill-rule:evenodd;fill:url(#c)" d="m70.836 32.973 12.394-6.121-1.355-.887-11.04 5.473Zm0 0"/><path style="stroke:none;fill-rule:evenodd;fill:#facd50;fill-opacity:1" d="M81.875 7.785v18.18l1.355.887V6.422Zm0 0"/><path style="stroke:none;fill-rule:nonzero;fill:#fffd99;fill-opacity:1" d="m65.441 6.332 5.395-4.191 5.39 4.191h7.094V26.91l-12.484 6.16-12.484-6.16V6.332Zm-6.914.18v20.281l12.309 6.082 12.305-6.082V6.512h-6.993l-5.312-4.145-5.316 4.145Zm0 0"/><path style="stroke:none;fill-rule:nonzero;fill:#000;fill-opacity:1" d="m20.46 18.402-.98 1.68c-.265.453-.71.316-1.093.152-.418-.183-1.696-.652-1.969-.187-.234.398 1.11.879 1.344.98.601.243 1.097.45 1.695.989.484.43.832.992 1.004 1.617Zm.017-.89a.777.777 0 0 1 .761-.63h2.512c.43 0 .785.356.785.79v6.906h2.813c.097 0 .191.02.277.05a5.33 5.33 0 0 1-.473-2.21c0-1.535.645-2.926 1.692-3.93a5.872 5.872 0 0 1 4.062-1.617 5.85 5.85 0 0 1 4.633 2.25v-1.45a.79.79 0 0 1 .777-.788h8.496a.79.79 0 0 1 .782.789v.93a3.908 3.908 0 0 1 1.34-1.172c1.046-.575 2.308-.742 3.484-.672.922.062 1.84.254 2.7.508.55.16.737.586.448 1.082l-1.011 1.734c-.223.387-.625.36-.977.203a7.23 7.23 0 0 0-.808-.316c-.286-.082-1.11-.242-1.278.086-.137.27.465.582.676.68.879.413 1.598.585 2.363 1.28.489.434.84 1 1.008 1.633.16.618.133 1.278-.082 1.922a3.33 3.33 0 0 1-1.062 1.492c-.52.418-1.13.711-1.778.86-.695.164-1.496.2-2.304.152-.895-.054-1.782-.199-2.645-.43-.492-.136-.652-.496-.496-.972l.555-1.684c.171-.515.488-.726 1.078-.5.742.285 1.277.504 2.09.473.292-.004.421-.14.425-.25 0-.211-.476-.383-.68-.469-1.44-.601-2.8-1.234-3.382-2.812a3.169 3.169 0 0 1-.215-1.203c-.07.015-.152.035-.23.035h-2.211v6.906a.782.782 0 0 1-.782.785H41.31a.781.781 0 0 1-.778-.785v-6.91h-2.215c-.035 0-.07 0-.109-.004.297.66.461 1.394.461 2.164a5.418 5.418 0 0 1-1.7 3.93c-2.234 2.148-5.882 2.148-8.128 0a5.561 5.561 0 0 1-.707-.836v1.656a.79.79 0 0 1-.785.785h-6.11a.786.786 0 0 1-.777-.785v-1.867a3.287 3.287 0 0 1-1.14 1.758 4.403 4.403 0 0 1-1.782.863c-.695.16-1.496.195-2.3.152-.895-.054-1.782-.199-2.65-.433-.491-.133-.648-.493-.495-.97l.613-1.835c.184-.555.684-.477 1.09-.324.695.265 1.246.465 2.035.437.156-.008.367-.062.387-.246.023-.207-.371-.344-.524-.41-1.207-.5-2.597-1.078-3.285-2.352a4.037 4.037 0 0 1-.234-.511c-.313-.864-.254-1.668.074-2.364.316-.68.89-1.238 1.61-1.636 1.046-.575 2.304-.742 3.484-.672.894.055 1.789.246 2.633.488.195.055.355.098.5.262Zm24.468-12.84h2.68c.441 0 .805.363.805.805v3.171h2.722V5.477c0-.442.364-.805.805-.805h2.68c.437 0 .8.363.8.805v10.132a.808.808 0 0 1-.8.805h-2.68c-.445 0-.8-.36-.805-.805v-3.144H48.43v3.148a.812.812 0 0 1-.75.801h-2.735c-.441 0-.8-.36-.8-.805v-1.867c-.016.047-.036.094-.047.145a3.52 3.52 0 0 1-1.118 1.578 4.686 4.686 0 0 1-1.882.906c-.739.176-1.594.215-2.45.164-.949-.055-1.89-.207-2.808-.457-.203-.055-.344-.137-.438-.258a.68.68 0 0 1-.695.594h-3.152c-.403 0-.809-.297-.914-.691l-.332-1.278h-2.48L27.44 15.7c-.128.406-.488.715-.921.715h-3.086a.68.68 0 0 1-.696-.687.81.81 0 0 1-.797.687h-6.515c-.442 0-.801-.36-.801-.805V5.688c-.02.113-.07.218-.137.335l-1.047 1.899c-.37.664-.515.523-1.175.46-.403-.038-.817-.077-1.22-.054-.64.031-1.187.285-1.57.695-.378.399-.601.957-.601 1.602 0 .543.172 1.035.46 1.426.29.394.7.68 1.165.797.445.113.938.023 1.426-.067.61-.11.98-.215 1.297.422l.957 1.942c.21.433.062.89-.438 1.015-.703.176-1.633.34-2.558.41-.762.059-1.52.051-2.153-.058a5.714 5.714 0 0 1-3.422-2.043 6.04 6.04 0 0 1-1.34-3.813c0-1.023.25-1.984.692-2.828 1.36-2.605 4.254-3.582 7.05-3.305.696.07 1.387.207 2.06.395.327.086.495.246.55.496 0 .008.004.012.004.024a.796.796 0 0 1 .238-.528.786.786 0 0 1 .563-.238h2.683c.442 0 .805.363.805.805v7.398h3.027c.223 0 .426.09.567.238a.807.807 0 0 1 .238.57v1.93a1.09 1.09 0 0 1 .04-.152l3.57-10.129c.128-.371.511-.664.902-.664h3.558c.395 0 .77.293.903.656l3.566 9.93c.012-.055.028-.11.047-.172l.621-1.895c.16-.488.59-.597 1.035-.433.719.273 1.864.691 2.496.48.344-.12.352-.328.063-.515-.258-.176-.692-.324-.848-.39-1.406-.606-2.699-1.29-3.281-2.849-.336-.91-.27-1.761.074-2.492.336-.718.946-1.312 1.703-1.73 1.114-.61 2.446-.79 3.696-.711.945.055 1.886.258 2.777.512.187.054.352.09.496.234a.812.812 0 0 1 .781-.625Zm-.8 7.039V6.324L43.14 8.04c-.239.414-.66.36-1.032.191a7.246 7.246 0 0 0-.836-.324 2.785 2.785 0 0 0-.914-.113c-.316.012-.703.246-.398.57.262.29.988.567 1.367.723.633.262 1.164.48 1.797 1.05.473.423.828.966 1.02 1.575ZM29.348 9.582l-.465 1.734h.949Zm-20.2 14.262h-1.46a.644.644 0 0 1-.641-.645V21.48A3.439 3.439 0 0 1 6.12 23a3.629 3.629 0 0 1-2.527 1.012A3.648 3.648 0 0 1 1.059 23a3.377 3.377 0 0 1 0-4.914 3.658 3.658 0 0 1 2.535-1.008A3.643 3.643 0 0 1 6.12 18.09c.438.414.754.937.926 1.52v-1.93c0-.356.289-.645.64-.645h3.547c.356 0 .645.29.645.645v1.043c0 .18-.074.343-.191.457a.62.62 0 0 1-.454.187H9.785v.32h1.45a.647.647 0 0 1 .644.645v.957a.641.641 0 0 1-.191.453.617.617 0 0 1-.454.192H9.785v1.265c0 .352-.285.64-.637.645ZM3.59 19.44c-.508 0-.735.688-.735 1.102 0 .418.227 1.105.735 1.105.504 0 .73-.687.73-1.105 0-.414-.226-1.102-.726-1.102Zm29.316.801c-1.047 0-1.547 1.293-1.547 2.176 0 .883.5 2.176 1.547 2.176s1.543-1.293 1.543-2.176c0-.883-.496-2.176-1.543-2.176Zm0 0"/><path style="stroke:none;fill-rule:evenodd;fill:#fff;fill-opacity:1" d="m19.098 19.855 1.011-1.734c.098-.172.11-.336-.117-.406-1.71-.504-3.637-.8-5.355-.149-1.746.657-2.852 2.282-1.832 4.16.617 1.149 1.953 1.692 3.101 2.172.278.118.574.27.715.5.164.278.04.622-.207.809-.16.117-.363.184-.566.191a4.708 4.708 0 0 1-1.95-.37l-.41-.153c-.164-.063-.316-.047-.383.16l-.585 1.781c-.079.227-.055.332.187.395 1.398.379 3.324.605 4.734.273 1.098-.257 2.137-.949 2.52-2.062a2.839 2.839 0 0 0-.797-3.074c-.75-.668-1.36-.785-2.266-1.211a3.005 3.005 0 0 1-.632-.383c-.703-.578-.25-1.3.562-1.34.727-.027 1.274.203 1.914.484.113.055.274.09.356-.043ZM44.945 5.117h2.68c.2 0 .36.168.36.36v3.261c0 .196.16.36.355.36h2.902a.36.36 0 0 0 .356-.36V5.477a.36.36 0 0 1 .359-.356h2.68c.195 0 .36.16.36.356v10.132c0 .196-.165.36-.36.36h-2.68a.36.36 0 0 1-.36-.36v-3.238a.36.36 0 0 0-.355-.36H48.34a.36.36 0 0 0-.356.36v3.238c0 .094-.039.188-.105.254a.364.364 0 0 1-.254.106h-2.68a.363.363 0 0 1-.36-.36V5.477a.36.36 0 0 1 .36-.356Zm-37.812.926a5.545 5.545 0 0 0-2.422 4.613c0 2.711 1.902 4.965 4.394 5.414 1.32.239 3.293-.03 4.532-.343.218-.055.23-.207.144-.387l-.957-1.938c-.148-.289-.219-.28-.515-.234-.633.105-1.278.273-1.914.117-1.13-.285-1.97-1.367-1.97-2.66 0-1.54 1.098-2.668 2.598-2.746.512-.027 1.028.039 1.516.078.32.031.352.035.516-.25l1.047-1.898c.132-.247.144-.383-.145-.461a12.304 12.304 0 0 0-1.988-.375c-1.653-.168-3.446.132-4.836 1.07Zm8.293-.926h2.683c.2 0 .36.168.36.36v7.488c0 .203.16.36.355.36h3.117c.204 0 .364.167.364.359v1.925c0 .196-.164.36-.364.36h-6.515a.365.365 0 0 1-.356-.36V5.477a.36.36 0 0 1 .356-.356Zm11.832 0h3.558c.2 0 .414.168.489.36l3.636 10.132c.07.196-.03.36-.23.36h-3.156c-.2 0-.434-.156-.485-.36l-.363-1.386a.347.347 0 0 0-.305-.227h-2.656a.357.357 0 0 0-.308.227l-.422 1.34c-.067.222-.254.406-.496.406h-3.086c-.192 0-.297-.164-.23-.36l3.57-10.132c.07-.196.285-.356.484-.356Zm2.082 2.785-.973 3.637c-.05.125.016.227.14.227h1.704c.129 0 .191-.102.148-.227Zm13.422-.086 1.078-1.851c.105-.184.113-.36-.13-.426-1.815-.539-3.87-.851-5.698-.164-1.86.7-3.04 2.43-1.957 4.434.664 1.222 2.082 1.804 3.304 2.312.297.121.614.285.762.531.176.297.043.664-.215.86-.172.125-.39.195-.61.203a4.855 4.855 0 0 1-2.073-.39l-.438-.169c-.168-.062-.336-.047-.406.172l-.625 1.899c-.078.234-.055.347.2.421 1.491.407 3.538.641 5.042.29 1.168-.278 2.274-1.008 2.68-2.2.402-1.172.097-2.422-.848-3.27-.797-.718-1.445-.835-2.406-1.284a3.627 3.627 0 0 1-.676-.41c-.75-.622-.27-1.391.598-1.426.773-.035 1.355.215 2.039.52.117.05.297.089.379-.052ZM7.687 23.391h1.461c.051 0 .102-.02.137-.055a.202.202 0 0 0 .055-.137v-1.52c0-.105.094-.195.195-.195h1.7c.05 0 .1-.02.14-.054a.212.212 0 0 0 .055-.14v-.958a.194.194 0 0 0-.055-.14.205.205 0 0 0-.14-.055h-1.7a.198.198 0 0 1-.195-.196v-.824c0-.105.094-.195.195-.195h1.7c.05 0 .1-.02.14-.059a.198.198 0 0 0 .055-.14V17.68c0-.051-.02-.102-.055-.137a.198.198 0 0 0-.14-.059H7.687c-.051 0-.102.02-.137.059a.18.18 0 0 0-.055.137v5.52a.19.19 0 0 0 .191.19Zm-4.093-5.868c-1.742 0-3.149 1.352-3.149 3.02 0 1.664 1.407 3.02 3.149 3.02 1.734 0 3.14-1.356 3.14-3.02 0-1.668-1.406-3.02-3.14-3.02Zm0 1.47c-.653 0-1.184.695-1.184 1.55 0 .86.531 1.555 1.184 1.555.648 0 1.176-.696 1.176-1.555 0-.855-.528-1.55-1.176-1.55Zm29.312-1.673c-2.93 0-5.308 2.282-5.308 5.098s2.375 5.102 5.308 5.102c2.938 0 5.317-2.286 5.317-5.102 0-2.816-2.38-5.098-5.317-5.098Zm0 2.477c-1.097 0-1.988 1.172-1.988 2.621 0 1.45.89 2.625 1.988 2.625 1.102 0 1.992-1.176 1.992-2.625 0-1.45-.89-2.621-1.992-2.621Zm8.403 7.71h2.511a.34.34 0 0 0 .336-.339v-7.02a.34.34 0 0 1 .336-.34h2.32a.336.336 0 0 0 .336-.335v-1.801a.337.337 0 0 0-.336-.34h-8.496a.333.333 0 0 0-.328.34v1.797c0 .187.145.34.328.34h2.32a.34.34 0 0 1 .337.34v7.019c0 .184.152.336.336.336Zm12.863-7.652 1.016-1.734c.097-.172.105-.336-.118-.406-1.715-.504-3.64-.8-5.36-.149-1.737.657-2.85 2.282-1.831 4.16.621 1.149 1.953 1.692 3.101 2.172.278.118.579.27.715.5.164.278.04.622-.207.809-.164.117-.36.184-.562.191a4.714 4.714 0 0 1-1.953-.37l-.407-.153c-.164-.063-.32-.047-.382.16l-.59 1.781c-.074.227-.055.332.187.395 1.399.379 3.328.605 4.735.273 1.101-.257 2.136-.949 2.52-2.062.374-1.106.089-2.277-.798-3.074-.75-.668-1.355-.785-2.265-1.211a3.005 3.005 0 0 1-.633-.383c-.7-.578-.25-1.3.562-1.34.73-.027 1.278.203 1.914.484.114.055.278.09.356-.043Zm-32.934-2.52h2.512c.184 0 .336.15.336.337v7.02c0 .183.152.335.336.335h2.926c.183 0 .336.157.336.34v1.801a.344.344 0 0 1-.336.34h-6.11a.34.34 0 0 1-.336-.34v-9.496a.34.34 0 0 1 .336-.34Zm0 0"/><path style="stroke:none;fill-rule:evenodd;fill:#473a56;fill-opacity:1" d="M70.23 11.29v.046l.004-.05.348-.876.129 12.031.137-12.691.207-.52 1.879 1.633.062 6.078.067-5.972c.558.488 1.015.879.996.851-.008-.015.207-.02.554-.023l.07 7.234.079-7.238c.738-.008 1.894.004 2.66.008l.043 3.738.039-3.738c.43.004.723.011.723.011l.457.422.043 3.516.035-3.45.836.77v.184l.007-.176.805.735v.027-.027l.688.636v11.547L76.18 28.48l-.055-2.582-.059 2.637-1.289.652-.101-9.386-.102 9.488-.933.473-.059-5.813-.066 5.871-.88.45-.077-7.45-.086 7.528-1.559.785-.144-13.68-.141 13.504-1.195-.95-.04-6.902-.039 6.844-.746-.597-.062-5.891-.059 5.789-1.57-1.246-.031-2.957.199-.422-.207-.082-.035-3.223-.031 3.196-1.598-.66Zm-3.425 13.929-.028 2.676-.894-.715Zm0 0"/><path style="stroke:none;fill-rule:evenodd;fill:#2f213d;fill-opacity:1" d="M70.586 18.563c-.68 1.011-1.074 2.19-1.684 3.253-.53.934-1.047 1.832-2.168 2.125-1.066.274-2.464-.261-3.027-1.234-.312-.535-.363-1.191-.207-1.95-.414.013-.777-.03-1.094-.14-1.05-.347-1.582-1.433-1.523-2.492a2.785 2.785 0 0 1 .84-1.828c1.078-1.05 2.765-1.172 4.18-.965-1.364-.777-2.825-2.004-2.407-3.77.336-1.421 1.922-1.851 3.145-1.308-.07-1.059.605-1.762 1.593-1.969.922-.191 1.922.16 2.633.766 1.207 1.039 1.473 2.906 1.38 4.406.831-1.453 1.8-2.379 2.929-2.648.922-.22 2.039.066 2.765.703.711.625.973 1.586.422 2.41.672.101 1.266.336 1.664.816.77.93.578 2.098-.222 2.883-1.121 1.098-3.125.879-4.563.805 2.192.91 3.88 2.058 4.133 3.883.191 1.402-.465 2.699-1.883 3.097a2.341 2.341 0 0 1-2.238-.531c-.39.96-1.23 1.516-2.207 1.582-.703.043-1.352-.133-1.852-.496-1.547-1.125-.96-3.211-.613-4.766.168-.78.332-1.687.36-2.406-.278 1.516-.676 2.91-1.192 4.11-.738 1.695-1.66 3.078-3.156 4.171-.27.192-.602.215-.871.024-.336-.227-.512-.801-.473-1.196.031-.261.18-.425.418-.511a5.253 5.253 0 0 0 1.25-.64c1.984-1.36 2.894-3.997 3.668-6.184Zm0 0"/><path style="stroke:none;fill-rule:evenodd;fill:url(#d)" d="M70.98 18.043a22.005 22.005 0 0 1-1.23 4.363c-.762 1.883-1.758 3.274-3.363 4.473-.582.437-.887-.418-.887-.938.008-.18.023-.367.203-.433 1.293-.469 2.266-1.348 3.031-2.485.903-1.343 1.641-3.46 2.246-4.98Zm0 0"/><path style="stroke:none;fill-rule:evenodd;fill:url(#e)" d="M66.48 25.879c2.137-1.168 3.211-3.75 4.047-6.664-.511 1.316-1.109 2.785-1.793 3.808-.765 1.137-1.738 2.016-3.03 2.48a.285.285 0 0 0-.138.118c.524.106.809.496.7 1.277.168-.191.246-.46.148-.82-.035-.105-.05-.137.066-.2Zm0 0"/><path style="stroke:none;fill-rule:evenodd;fill:url(#f)" d="M70.66 19.563c-.828 2.667-1.828 5.21-4.008 6.835a.522.522 0 0 0-.222.45c1.578-1.196 2.57-2.578 3.32-4.442.371-.926.676-1.875.91-2.843Zm0 0"/><path style="stroke:none;fill-rule:evenodd;fill:url(#g)" d="M70.7 17.605c-2.27-.113-4.27.415-5.86 1.86-.367.332-.75.683-1.137 1.129-.758-.043-1.273-.239-1.637-.54-.671-.55-.875-1.554-.617-2.37.106-.344.258-.668.469-.926 1.047-1.274 3.062-1.356 4.55-1.074 1.407.273 2.821.984 4.231 1.921Zm0 0"/><path style="stroke:none;fill-rule:evenodd;fill:url(#h)" d="M68.316 16.68c-1.355-.317-3.254-.575-4.59-.094a3.808 3.808 0 0 0-1.84 1.371c-.046.066-.124.14-.214.105-.078-.027-.086-.117-.059-.195.305-.972.953-1.57 1.914-1.875 1.45-.46 3.067-.238 4.805.528.168.078.172.207-.016.16Zm0 0"/><path style="stroke:none;fill-rule:evenodd;fill:url(#i)" d="M70.7 17.934a16.428 16.428 0 0 0-1.712 2.738c-.265.52-.566 1.023-.894 1.508-.703 1.054-1.567 1.601-2.778 1.246-1.23-.367-1.785-1.633-1.613-2.832 1.89-2.262 4.145-2.844 6.996-2.66Zm0 0"/><path style="stroke:none;fill-rule:evenodd;fill:url(#j)" d="M68.055 20.48c.523-.73.996-1.503 1.48-2.261-1.789.004-3.32.515-4.734 1.277-.38.313-.746.68-1.098 1.098-.039.238-.043.476-.02.718.16.883 1.286 1.352 2.087 1.149.992-.246 1.703-1.176 2.285-1.98Zm0 0"/><path style="stroke:none;fill-rule:evenodd;fill:url(#k)" d="M67.445 18.781c-.98.133-2.168.492-2.86 1.309a.618.618 0 0 0-.163.363c-.012.211.117.317.289.3a.493.493 0 0 0 .277-.136c.79-.707 1.504-1.308 2.457-1.836Zm0 0"/><path style="stroke:none;fill-rule:evenodd;fill:url(#l)" d="M70.867 17.422c-.918-.621-1.855-1.09-2.812-1.55-1.344-.642-3.524-1.563-4.004-3.114-.219-.719-.047-1.512.488-1.996.613-.559 1.578-.492 2.324-.317 1.246 1.059 2.356 2.586 3.059 4.07.445.93.785 1.895.941 2.907Zm0 0"/><path style="stroke:none;fill-rule:evenodd;fill:url(#m)" d="M64.54 10.762c-.419.379-.618.949-.58 1.52.13 1.105 4.247 3.284 5.493 3.878.754.36.692.074.555-.52-.29-1.226-.711-2.312-1.324-3.199-.559-.77-1.145-1.32-1.82-1.996-.747-.175-1.712-.242-2.325.317Zm0 0"/><path style="stroke:none;fill-rule:evenodd;fill:url(#n)" d="M64.223 11.625c.191-.43.468-.742.816-.934.41-.226.95-.222 1.414-.054.66.238 1.324 1.062 1.707 1.625.153.222-.035.222-.168.09a4.807 4.807 0 0 0-1.547-1.051c-.422-.176-.828-.246-1.222-.102a2.24 2.24 0 0 0-.828.567c-.125.132-.25.027-.172-.141Zm0 0"/><path style="stroke:none;fill-rule:evenodd;fill:url(#o)" d="M71.156 17.184c-.515-2.125-1.363-3.59-2.344-4.778l-1.949-1.96a1.88 1.88 0 0 1 .344-1.212c.758-1.058 2.457-.757 3.356-.035 1.636 1.32 1.664 3.801 1.113 5.66-.235.801-.324 1.532-.52 2.325Zm0 0"/><path style="stroke:none;fill-rule:evenodd;fill:url(#p)" d="M69.664 13.578c.512.727 1.766 2.059 2.207.485.317-1.723.106-3.723-1.308-4.864-.899-.722-2.598-1.023-3.356.035-.246.348-.363.75-.344 1.211.414.348.817.758 1.192 1.196.652.66 1.101 1.132 1.61 1.937Zm0 0"/><path style="stroke:none;fill-rule:evenodd;fill:url(#q)" d="M67.164 9.992c.117-.363.313-.656.594-.883.87-.714 2.113-.304 2.824.45.512.539.781 1.277.93 2.062.023.145-.075.223-.14.113a7.287 7.287 0 0 0-1.161-1.492c-.492-.492-1.113-.71-1.79-.629-.421.055-.73.25-1.023.547-.234.242-.32.082-.234-.168Zm0 0"/><path style="stroke:none;fill-rule:evenodd;fill:url(#r)" d="M71.281 17.46c.336-2.093.973-3.597 1.742-4.667.7-.98 1.723-1.727 2.91-1.727 1.137-.007 2.497.696 2.458 2a2 2 0 0 1-.254.891c-4.336 1.508-5.742 2.527-6.856 3.5Zm0 0"/><path style="stroke:none;fill-rule:evenodd;fill:url(#s)" d="M71.734 15.473c-.12.554-.246 1.109-.34 1.71 2.301-1.898 3.993-2.308 5.5-2.788.051-.02.102-.043.157-.063.355-.137.719-.258 1.086-.375a2 2 0 0 0 .254-.89c.039-1.305-1.32-2.008-2.457-2-1.188 0-2.211.745-2.91 1.722-.5.695-.946 1.578-1.29 2.684Zm0 0"/><path style="stroke:none;fill-rule:evenodd;fill:url(#t)" d="M72.555 14.14c.629-1.288 1.297-1.972 1.984-2.374.957-.563 2.684-.512 3.262.55.164.305.219.668.242 1.047.008.16-.082.39-.242.203a3.106 3.106 0 0 0-1.16-.894c-.832-.371-1.743-.137-2.489.332-.539.332-1.027.797-1.453 1.258-.125.136-.226.039-.144-.121Zm0 0"/><path style="stroke:none;fill-rule:evenodd;fill:url(#u)" d="M71.422 17.793c1.57-1.36 3.629-2.684 5.629-3.461.355-.137.719-.258 1.086-.375 2.066.57 2.726 2.816.695 3.723-.86.383-2.055.39-2.922.34-1.52-.09-3.043-.188-4.488-.227Zm0 0"/><path style="stroke:none;fill-rule:evenodd;fill:url(#v)" d="M73.473 16.691c-.18.164-.27.364.047.391 1.164.102 4.382.32 5.414-.039.68-.238 1.101-.633 1.101-1.29-.14-.765-.836-1.507-1.898-1.796-.317.105-.617.215-.907.32-1.156.426-2.875 1.606-3.757 2.414Zm0 0"/><path style="stroke:none;fill-rule:evenodd;fill:url(#w)" d="M76.672 14.824c.496-.277 1.219-.617 1.805-.488.503.113.87.488 1.214.934.121.152-.043.222-.148.132-.285-.261-.578-.46-.922-.578-.543-.187-1.285.016-1.832.168-.172.047-.34-.039-.117-.168Zm0 0"/><path style="stroke:none;fill-rule:evenodd;fill:url(#x)" d="M71.594 17.98c2.222.133 4.144.665 5.625 1.782 1.101.89 1.816 1.894 1.75 3.113-.051.98-.555 1.777-1.414 2.137a2.218 2.218 0 0 1-2.313-.383c-.133-1.176-.562-2.902-1.187-3.922-.63-1.031-1.493-1.918-2.461-2.727Zm0 0"/><path style="stroke:none;fill-rule:evenodd;fill:url(#y)" d="M74.055 20.707c.472.77.832 1.95 1.039 2.988.008.032.015.07.02.106 1.859.332 4.12-.696 3.163-2.977a6.323 6.323 0 0 0-1.058-1.062c-1.48-1.117-3.403-1.649-5.625-1.782.969.81 1.832 1.696 2.46 2.727Zm0 0"/><path style="stroke:none;fill-rule:evenodd;fill:url(#z)" d="M73.664 18.54c1.516.284 2.89.894 3.992 2.105.164.183-.023.449-.238.273-1.117-.89-2.398-1.64-3.82-2.254-.098-.043-.11-.14.066-.125Zm0 0"/><path style="stroke:none;fill-rule:evenodd;fill:url(#A)" d="M71.281 18.152c-.02.504-.031 1.235-.12 2.012-.138 1.16-.415 2.313-.423 3.484-.004.73.168 1.422.739 1.907.632.535 1.597.672 2.359.363.562-.23 1.043-.68 1.406-1.29a8.447 8.447 0 0 0-.355-1.706c-.621-1.953-2.063-3.492-3.606-4.77Zm0 0"/><path style="stroke:none;fill-rule:evenodd;fill:url(#B)" d="M74.887 22.922c-.621-1.953-2.063-3.492-3.606-4.77.082.145.11.403.16.875.133 1.282-.394 3.41-.062 4.641.457 1.695 2.808 1.039 3.734.133a7.52 7.52 0 0 0-.227-.879Zm0 0"/><path style="stroke:none;fill-rule:evenodd;fill:url(#C)" d="M72.375 19.34c.406.45 1.594 1.715 1.5 2.37-.031.231-.191.4-.45.388-.519-.024-.534-.871-.6-1.223a5.682 5.682 0 0 0-.532-1.48c-.035-.063.031-.106.082-.055Zm0 0"/></svg>