<svg width="56" height="56" viewBox="0 0 56 56" fill="none" xmlns="http://www.w3.org/2000/svg">
<path d="M44.3333 7H11.6667C9.093 7 7 9.093 7 11.6667V44.3333C7 46.907 9.093 49 11.6667 49H44.3333C46.907 49 49 46.907 49 44.3333V11.6667C49 9.093 46.907 7 44.3333 7ZM11.6667 44.3333V11.6667H44.3333L44.338 44.3333H11.6667Z" fill="white"/>
<path d="M37.3334 40.8334C38.2616 40.8334 39.1518 40.4646 39.8082 39.8082C40.4646 39.1518 40.8334 38.2616 40.8334 37.3334C40.8334 36.4051 40.4646 35.5149 39.8082 34.8585C39.1518 34.2021 38.2616 33.8334 37.3334 33.8334C36.4051 33.8334 35.5149 34.2021 34.8585 34.8585C34.2021 35.5149 33.8334 36.4051 33.8334 37.3334C33.8334 38.2616 34.2021 39.1518 34.8585 39.8082C35.5149 40.4646 36.4051 40.8334 37.3334 40.8334ZM28 31.5C28.9283 31.5 29.8185 31.1313 30.4749 30.4749C31.1313 29.8185 31.5 28.9283 31.5 28C31.5 27.0718 31.1313 26.1815 30.4749 25.5251C29.8185 24.8688 28.9283 24.5 28 24.5C27.0718 24.5 26.1815 24.8688 25.5251 25.5251C24.8688 26.1815 24.5 27.0718 24.5 28C24.5 28.9283 24.8688 29.8185 25.5251 30.4749C26.1815 31.1313 27.0718 31.5 28 31.5ZM18.6667 22.1667C19.5949 22.1667 20.4852 21.7979 21.1416 21.1416C21.7979 20.4852 22.1667 19.5949 22.1667 18.6667C22.1667 17.7384 21.7979 16.8482 21.1416 16.1918C20.4852 15.5354 19.5949 15.1667 18.6667 15.1667C17.7384 15.1667 16.8482 15.5354 16.1918 16.1918C15.5354 16.8482 15.1667 17.7384 15.1667 18.6667C15.1667 19.5949 15.5354 20.4852 16.1918 21.1416C16.8482 21.7979 17.7384 22.1667 18.6667 22.1667Z" fill="white"/>
</svg>
