<svg width="300" height="139" viewBox="0 0 300 139" fill="none" xmlns="http://www.w3.org/2000/svg">
<path d="M19.9418 43.9995L52.7696 59.2939C51.9981 58.7795 36.386 48.2656 31.5752 39.9451C26.6284 31.4281 26.9915 25.1197 31.1668 19.0231C35.3421 12.9265 45.6897 9.08397 61.4228 10.0975C77.156 11.1111 94.4624 15.8765 107.442 27.5553C107.442 27.5553 96.3686 7.87373 68.1851 2.36713C40.0016 -3.13948 18.308 7.97962 5.79708 19.371C2.48405 22.3966 0.774581 25.271 0.214844 28.0243C0.47202 36.4052 19.9418 43.9995 19.9418 43.9995Z" fill="#2F98D5"/>
<path d="M31.1668 120.137C26.9763 114.041 26.6284 107.733 31.5752 99.2154C36.5221 90.6984 52.7999 79.8516 52.7999 79.8516L19.9418 95.1611C19.9418 95.1611 0.456892 102.755 0.214844 111.136C0.774581 113.89 2.48405 116.764 5.79708 119.79C18.308 131.181 39.9864 142.285 68.1699 136.778C96.3686 131.287 107.442 111.605 107.442 111.605C94.4624 123.284 77.156 128.065 61.4228 129.063C45.6897 130.077 35.3421 126.249 31.1668 120.137Z" fill="#F9AE00"/>
<path d="M19.9417 95.1621L52.7998 79.8525C52.7998 79.8525 62.1338 74.8603 62.1338 69.9134C62.1338 69.8075 62.1338 69.6865 62.1187 69.5806C62.1187 69.4747 62.1338 69.3537 62.1338 69.2478C62.1338 64.3009 52.7998 59.3087 52.7998 59.3087C52.7998 59.3087 52.7847 59.2936 52.7695 59.2936L19.9417 43.9991C19.9417 43.9991 0.471955 36.42 0.214778 28.0391C-1.34341 35.6485 5.88779 42.2291 11.8482 47.8719C19.8207 55.3905 23.3607 62.8638 23.3001 69.5806C23.3607 76.2975 19.8207 83.7707 11.8482 91.3045C5.88779 96.9321 -1.34341 103.513 0.214778 111.137C0.456827 102.756 19.9417 95.1621 19.9417 95.1621Z" fill="#E40E20"/>
<path d="M80.5731 72.8931C80.5731 74.8941 83.231 75.2343 84.7333 75.2531C87.6088 75.2894 90.9825 74.9225 93.2655 74.4815C93.3714 76.6751 92.9327 78.2333 91.9645 79.141C90.9963 80.0486 89.0448 80.5025 86.1099 80.5025C82.0708 80.5025 79.1057 79.6856 77.1995 78.0366C75.3085 76.3877 74.3555 73.5587 74.3555 69.5044C74.3555 66.5705 74.8656 63.0476 77.3962 61.1689C79.6204 59.5513 82.33 59.1568 85.0207 59.1568C88.1522 59.1568 90.4668 59.8225 91.9342 61.1537C93.4168 62.485 94.1581 64.6029 94.1581 67.5075C94.1581 69.1637 93.5405 70.9608 91.8283 71.5316C90.1255 72.0868 88.2367 72.2076 86.4579 72.1216C84.5298 72.0297 82.3846 72.1827 80.5731 72.8931ZM80.3764 68.9144C80.8 68.6118 81.511 68.4152 82.4792 68.3093C83.4474 68.2034 84.3551 68.158 85.2023 68.1429C86.5228 68.1193 88.4437 67.6561 88.4094 66.0098C88.4094 65.3593 87.895 64.8147 86.8512 64.376C85.4141 63.7709 84.0071 63.7255 82.6456 64.2247C80.7546 64.9055 79.9982 66.4637 80.3764 68.9144Z" fill="white"/>
<path d="M118.575 66.3726V80.1693C117.697 80.2147 116.926 80.2147 116.305 80.1542C114.177 79.9515 112.844 78.871 112.887 76.6445V66.4936C112.508 64.648 110.784 63.9218 107.728 64.3C106.139 64.4967 105.217 64.648 104.959 64.7539C105.035 65.1775 105.08 65.6918 105.08 66.2667V76.6445C105.165 78.8527 103.739 79.9563 101.662 80.1542C101.026 80.2147 100.27 80.2298 99.3923 80.1693V61.7131C99.3923 60.0642 102.04 59.1868 107.319 59.0657C114.808 58.8691 118.56 61.3047 118.575 66.3726Z" fill="white"/>
<path d="M138.407 50.9573C139.235 51.5534 140.401 51.6078 141.388 51.6078C143.554 51.6078 144.096 53.1692 144.096 55.1326V77.4918C143.717 78.3174 142.2 79.423 140.571 79.8518C138.738 80.334 136.785 80.472 134.898 80.472C131.01 80.472 128.211 79.6249 126.517 77.9457C124.823 76.2665 123.975 73.4678 123.975 69.5496C123.975 66.5311 124.872 63.5383 127.285 61.5691C129.162 60.0378 131.657 59.2928 134.247 59.2928C136.199 59.2928 137.575 59.5954 138.423 60.2005V50.9573H138.407ZM138.407 64.512C137.588 64.2511 136.739 64.1184 135.881 64.0733C134.772 63.9857 133.646 64.0618 132.629 64.5422C132.069 64.7994 131.6 65.1322 131.191 65.5407C130.104 66.6679 129.83 68.4138 129.83 69.9127C129.83 71.3866 130.241 73.0408 131.403 74.0426C132.307 74.8215 133.611 75.1349 134.777 75.2378C135.711 75.3202 137.667 75.4325 138.438 74.8747C138.322 75.1056 138.438 72.2272 138.407 64.512Z" fill="white"/>
<path d="M149.527 67.5829C149.723 66.0142 150.199 64.6074 151.024 63.2563C152.154 61.4427 153.89 60.325 155.911 59.7163C157.166 59.323 158.619 59.1263 160.237 59.1263C162.815 59.1263 165.682 59.5566 167.726 61.2594C168.695 62.0674 169.492 62.9977 169.965 64.1791C170.372 65.1972 170.672 66.2167 170.782 67.3106C170.893 68.7596 170.944 70.2328 170.812 71.6826C170.706 72.843 170.505 74.0527 170.055 75.1318C169.501 76.499 168.473 77.7846 167.242 78.5961C165.439 79.784 163.128 80.1694 161.009 80.1694C158.841 80.1694 156.563 79.978 154.519 79.2012C153.137 78.676 151.956 77.6811 151.145 76.4479C150.33 75.2067 149.995 73.6731 149.754 72.2272C149.494 70.6695 149.335 69.1476 149.527 67.5829ZM155.109 70.0185C155.185 70.8959 155.29 71.607 155.427 72.1213C155.754 73.3593 156.596 74.3673 157.832 74.7536C158.558 74.9805 159.496 75.1015 160.631 75.1015C161.508 75.1015 162.28 74.9654 162.9 74.6779C163.944 74.2303 164.644 73.5074 165.033 72.439C165.381 71.4812 165.381 70.478 165.381 69.4739C165.381 68.6427 165.222 67.8139 164.927 67.0383C164.208 65.0606 162.188 64.285 160.237 64.285C158.155 64.285 156.012 64.9652 155.351 67.1139C155.041 68.1214 155.109 68.9915 155.109 70.0185Z" fill="white"/>
<path d="M190.13 59.1418C190.115 59.7585 190.341 62.7007 188.905 63.9525C188.436 64.2551 187.831 64.4064 187.105 64.4064C185.775 64.4064 184.237 64.3312 183.081 65.1022C181.945 65.8593 181.946 67.4376 181.946 68.6573V80.79C180.909 80.0295 179.486 79.8332 178.255 79.5798C176.832 79.2869 176.273 77.8482 176.273 76.539V66.3881C176.273 64.7637 176.636 63.135 177.604 61.8043C178.941 59.8864 181.261 59.1418 183.519 59.1418C185.723 59.1418 187.927 59.1418 190.13 59.1418Z" fill="white"/>
<path d="M200.448 88.5505C199.44 87.8116 197.95 87.8697 196.756 87.8697C195.066 87.8697 194.775 85.6111 194.775 84.3751V62.0159C197.362 59.4288 200.438 59.0357 203.972 59.0357C207.86 59.0357 210.659 59.8829 212.353 61.5621C214.048 63.2413 214.895 66.04 214.895 69.9581C214.895 71.8491 214.592 73.4981 213.987 74.8899C211.837 79.8356 205.242 81.314 200.448 79.7157V88.5505ZM200.448 74.9806C201.446 75.2766 202.469 75.3899 203.503 75.4799C206.73 75.6858 208.964 73.2805 209.095 70.1696C209.192 67.869 208.266 65.2404 205.818 64.5877C204.093 64.0893 202.199 64.1687 200.463 64.6028H200.417C200.417 68.0621 200.448 71.5213 200.448 74.9806Z" fill="white"/>
<path d="M225.908 59.8677C227.149 59.3685 229.221 59.1113 232.126 59.1113C234.182 59.1113 236.664 59.7289 237.95 61.4864C238.918 62.8098 239.572 64.7254 239.387 66.3879V80.1847C235.59 80.6839 233.699 79.519 233.699 76.6598C233.699 75.6009 233.699 74.2091 233.699 72.4845C233.729 68.7176 233.548 66.4333 233.169 65.6012C232.791 64.7843 231.596 64.3456 229.614 64.3002C228.374 64.3002 227.133 64.5272 225.893 64.981V76.6598C225.993 79.9987 222.883 80.3383 220.205 80.1847V50.6094C221.212 51.3482 222.703 51.2901 223.896 51.2901C225.586 51.2901 225.878 53.5488 225.878 54.7847V59.8677H225.908Z" fill="white"/>
<path d="M244.848 54.8149C244.848 53.1556 246.232 51.7742 247.889 51.7742C249.548 51.7742 250.93 53.1578 250.93 54.8149C250.93 56.4742 249.546 57.8556 247.889 57.8556C246.211 57.8556 244.848 56.4953 244.848 54.8149ZM250.688 62.9235C250.688 61.6907 250.394 59.429 248.706 59.429C247.513 59.429 246.022 59.487 245.015 58.7482V80.1544C247.696 80.3082 250.802 79.969 250.703 76.6295V62.9235H250.688Z" fill="white"/>
<path d="M275.483 66.3726V80.1693C272.797 80.3083 269.73 80.005 269.794 76.6445V66.4936C269.416 64.648 267.692 63.9218 264.636 64.3C263.047 64.4967 262.125 64.648 261.867 64.7539C261.943 65.1775 261.988 65.6918 261.988 66.2667V76.6445C262.116 79.9664 258.92 80.35 256.3 80.1693V61.7131C256.3 60.0642 258.948 59.1868 264.227 59.0657C271.701 58.8691 275.452 61.3047 275.483 66.3726Z" fill="white"/>
<path d="M282.381 64.4514C281.97 62.4227 282.894 60.2092 284.862 59.4441C285.625 59.2323 288.794 59.0795 291.957 59.2323C294.671 59.4093 297.335 60.4702 298.78 62.8781C300.42 65.612 299.929 69.2469 299.929 72.3029C299.929 77.0966 296.947 80.2148 292.048 80.2148H286.813C283.51 80.2148 280.777 77.9097 280.777 74.4965C280.777 72.4574 281.139 70.075 282.91 68.7932C284.556 67.6275 286.573 67.4165 288.538 67.4165C290.732 67.4165 292.229 67.2653 293.031 66.9778C293.833 66.6904 294.226 66.2366 294.226 65.6314C294.226 64.7691 293.394 64.1943 291.745 63.8917C290.096 63.5892 288.341 63.5286 286.481 63.695C284.635 63.8312 283.258 64.0884 282.381 64.4514ZM294.393 70.1698C293.503 71.1867 291.972 71.7583 290.641 71.7583C289.544 71.7583 286.481 71.8116 286.481 73.498C286.481 75.5453 289.216 75.4798 290.641 75.4798C291.484 75.4798 292.478 75.6144 293.243 75.1772C294.332 74.5549 294.339 73.4535 294.378 72.2878C294.378 71.8339 294.393 71.1229 294.393 70.1698Z" fill="white"/>
</svg>
