<svg width="300" height="40" viewBox="0 0 300 40" fill="none" xmlns="http://www.w3.org/2000/svg">
<path d="M57.3488 23.7831H70.2696L63.7333 14.3022L57.3488 23.7831Z" fill="white"/>
<path d="M255.468 1.99658V10.5266H273.076V39.4646H282.389V10.5266H300V1.99658H255.468Z" fill="white"/>
<path d="M176.413 0.977987L0 0.914062V39.4848H158.382L162.753 32.9525H187.78L192.258 39.4848H202.822L176.413 0.977987ZM41.0958 29.6803C36.782 33.4112 30.9961 34.4747 25.4382 34.4747C13.7678 34.4747 6.79203 29.1529 6.79203 20.2634C6.79203 15.7247 8.68181 12.009 12.2656 9.47602C15.8494 6.94299 20.0964 5.93217 25.4501 5.93217C30.9317 5.93217 36.2437 6.94645 40.5444 10.5028L37.2363 14.6619C33.7923 11.7188 29.8464 10.9503 25.3542 10.9503C17.0999 10.9503 12.9208 14.0467 12.9208 20.1795C12.9208 26.3123 16.9961 29.4486 25.3542 29.4486C29.7491 29.4486 33.0772 28.7094 35.4944 27.1792V23.128H22.6175V17.9341H41.0958V29.6803ZM77.2494 33.9473L73.7974 28.9212H53.9127L50.5367 33.9473H44.1442L63.2178 5.58059H64.4164L83.9016 33.9473H77.2494ZM125.88 33.9473H119.935V17.5905L108.225 28.8133H107.25L94.9007 17.5266V33.9673H88.9596V6.0001H90.4898L107.758 21.7936L124.35 5.98012H125.876L125.88 33.9473ZM163.952 11.7733H141.178V17.2509H160.38L156.984 22.4448H141.194V28.6375H152.929L149.429 34.0032H135.277V6.43558H167.483L163.952 11.7733ZM168.334 24.6222L175.143 14.4981L182.078 24.6182L168.334 24.6222Z" fill="white"/>
<path d="M240.849 25.1654C249.271 22.98 250.586 17.2947 250.586 13.9426C250.586 4.12163 240.474 2.0166 232.527 2.0166H207.073V39.4647H216.406V26.0844H229.942L242.1 39.4926H253.814L240.849 25.1654ZM231.896 17.9739H216.406V10.3548H231.916C241.105 10.3548 241.105 12.3725 241.105 14.1544C241.105 15.9363 241.105 17.9939 231.916 17.9939L231.896 17.9739Z" fill="white"/>
</svg>
