<svg width="68" height="68" viewBox="0 0 68 68" fill="none" xmlns="http://www.w3.org/2000/svg">
<path d="M34.0001 67.3334C15.5901 67.3334 0.666748 52.4101 0.666748 34.0001C0.666748 15.5901 15.5901 0.666748 34.0001 0.666748C52.4101 0.666748 67.3334 15.5901 67.3334 34.0001C67.3334 52.4101 52.4101 67.3334 34.0001 67.3334ZM34.0001 60.6667C41.0725 60.6667 47.8553 57.8572 52.8563 52.8563C57.8572 47.8553 60.6667 41.0725 60.6667 34.0001C60.6667 26.9276 57.8572 20.1449 52.8563 15.1439C47.8553 10.1429 41.0725 7.33341 34.0001 7.33341C26.9276 7.33341 20.1449 10.1429 15.1439 15.1439C10.1429 20.1449 7.33341 26.9276 7.33341 34.0001C7.33341 41.0725 10.1429 47.8553 15.1439 52.8563C20.1449 57.8572 26.9276 60.6667 34.0001 60.6667ZM29.4067 22.0501L45.6701 32.8901C45.853 33.0118 46.0029 33.1768 46.1067 33.3705C46.2104 33.5641 46.2647 33.7804 46.2647 34.0001C46.2647 34.2198 46.2104 34.4361 46.1067 34.6297C46.0029 34.8234 45.853 34.9884 45.6701 35.1101L29.4034 45.9501C29.2028 46.083 28.97 46.1592 28.7297 46.1706C28.4893 46.1819 28.2503 46.128 28.0381 46.0146C27.8259 45.9011 27.6483 45.7324 27.5243 45.5262C27.4002 45.32 27.3343 45.084 27.3334 44.8434V23.1567C27.3339 22.9156 27.3997 22.6791 27.5239 22.4724C27.6482 22.2656 27.8261 22.0965 28.0389 21.983C28.2517 21.8694 28.4912 21.8157 28.7321 21.8275C28.973 21.8393 29.2061 21.9162 29.4067 22.0501Z" fill="#FF7A00"/>
</svg>
