<svg xmlns="http://www.w3.org/2000/svg" width="300" height="104" fill="none" viewBox="0 0 300 104"><path fill="#fff" d="M90.38 59.75c4.038 4.359 9.011 6.538 14.92 6.537 2.51 0 5.35-.642 8.521-1.927l.51-9.522-27.88-1.039a22.73 22.73 0 0 0 3.929 5.951Zm-47.767-7.59-3.155 13.198h14.75l1.163-6.743h9.616l1.06 6.743h14.75l-2.5-11.865-35.684-1.333Zm14.623-41.196-9.542 39.92 35.685 1.333-8.691-41.253H57.236Zm5.133 34.987 1.437-8.325.992-6.433c.022-.115.069-.448.137-.998.069-.55.183-1.537.343-2.96.09-.71.176-1.364.256-1.96.08-.596.143-1.135.188-1.617l.445 5.023c.114 1.031.206 1.885.274 2.563.069.677.126 1.21.17 1.6.435 3.486.674 5.482.72 5.986.02.313.066.624.137.93l.924 6.192h-6.023Zm46.096 4.301a7.99 7.99 0 0 1-2.823-2.683 13.695 13.695 0 0 1-1.763-4.3 24.702 24.702 0 0 1-.616-5.78c0-4.45.822-7.935 2.464-10.458 1.643-2.5 3.924-3.75 6.844-3.75 2.236 0 4.415 1.066 6.536 3.199V11.307a20.553 20.553 0 0 0-7.05-1.307c-7.095 0-12.764 2.523-17.007 7.569-4.243 5.068-6.365 11.788-6.364 20.16 0 5.783.959 10.704 2.847 14.791l27.879 1.041.311-5.821c-2.487 2.293-4.962 3.44-7.425 3.44a7.768 7.768 0 0 1-3.833-.928Zm62.352-14.878a17.996 17.996 0 0 0 2.668 3.579 31.807 31.807 0 0 0 3.97 3.492l2.327 1.822c1.688 1.353 2.532 2.74 2.533 4.163a3.08 3.08 0 0 1-1.164 2.459 4.51 4.51 0 0 1-3.012.981c-3.262 0-6.297-1.926-9.102-5.78v9.325l25.368.948c1.464-2.706 2.212-5.825 2.212-9.379 0-3.072-.661-5.756-1.985-8.05-1.299-2.293-3.455-4.53-6.467-6.709l-2.259-1.685c-1.939-1.399-2.909-2.81-2.908-4.232a2.84 2.84 0 0 1 1.094-2.236c.745-.655 1.713-1 2.704-.963 1.437 0 2.897.522 4.38 1.565a15.147 15.147 0 0 1 3.97 4.284v-16.24c-3.445-1.81-6.867-2.716-10.266-2.716-3.811 0-7.062 1.146-9.753 3.44a14.613 14.613 0 0 0-2.601 2.77 19.71 19.71 0 0 0-3.694 11.232c-.007 1.39.154 2.776.479 4.128.328 1.329.834 2.607 1.506 3.8v.002ZM0 65.358h14.27V51.103L0 50.57v14.788ZM26.16 50.08l14.27.533v-39.65H26.163v18.784h-6.81V10.964H5.082v38.329l14.27.532v-7.108h6.81v7.363h-.002Zm-5.081 15.278h14.273V51.89l-14.27-.533v14h-.003ZM148.81 10.964l-8.417 22.774.376-22.774h-14.271v42.862l14.121.527-.228-14.767 5.795 14.975 14.911.557-8.625-18.525 11.398-25.63h-15.06Zm62.386 0L200.293 56.58l38.268 1.429-9.911-47.046h-17.453Zm5.133 34.987 1.438-8.325.992-6.433c.022-.115.067-.448.137-.998.069-.551.183-1.537.342-2.96.091-.71.176-1.364.257-1.96.081-.596.143-1.135.187-1.617l.446 5.023c.114 1.031.205 1.885.274 2.563.068.677.125 1.21.171 1.6.434 3.486.673 5.482.718 5.986.022.313.067.624.137.93l.924 6.192h-6.023Zm30.646 19.407h13.894l.703-5.023-15.842-.591 1.245 5.614ZM121.418 55.103v10.255h14.27l-.149-9.729-14.121-.526Zm164.656-44.14-2.603 16.48c-.364 2.293-.695 4.85-.992 7.671a268.373 268.373 0 0 0-.82 9.701c-.846-8.118-1.839-15.148-2.977-21.089l-2.395-12.762h-12.286l-2.668 15.17A193.994 193.994 0 0 0 259.481 40l-.442 4.163-.479-4.851c-.342-3.325-.959-7.9-1.849-13.727l-2.327-14.62h-14.099l10.528 47.504 15.843.592 1.998-14.244c.227-1.605.422-3.13.582-4.575.161-1.445.297-2.82.41-4.128.228-2.568.399-4.323.514-5.264.046.46.124 1.124.241 1.996.117.871.25 1.96.41 3.268.319 2.638.798 5.757 1.438 9.357l2.45 13.89 15.426.576L300 10.966h-13.926v-.002Zm-15.621 54.395h13.757l.836-4.146-15.426-.576.833 4.722Zm-51.484-6.613 1.041 6.613h14.75l-1.279-6.072-14.512-.541Zm-55.014 5.306c3.833 1.49 7.427 2.236 10.78 2.236 4.859 0 8.874-1.697 12.046-5.092a17.035 17.035 0 0 0 2.542-3.557l-25.368-.947v7.36Zm-22.848-8.213 3.684 9.52h15.401l-4.174-8.964-14.911-.556Zm52.312 9.52h14.749l1.164-6.743-14.121-.757-1.792 7.5ZM14.067 82.993h9.291c.005.874-.035 1.748-.119 2.618a9.333 9.333 0 0 1-.477 2.184 8.757 8.757 0 0 1-1.362 2.51 7.967 7.967 0 0 1-2.017 1.824 9.435 9.435 0 0 1-2.544 1.116c-.95.26-1.93.389-2.913.384a10.19 10.19 0 0 1-3.834-.696 8.627 8.627 0 0 1-2.973-1.956 8.858 8.858 0 0 1-1.935-3.026 10.592 10.592 0 0 1-.692-3.902 10.699 10.699 0 0 1 .68-3.878 8.526 8.526 0 0 1 1.935-3.014 8.785 8.785 0 0 1 3.02-1.944 10.68 10.68 0 0 1 3.942-.695 9.723 9.723 0 0 1 4.944 1.224 8.454 8.454 0 0 1 3.367 3.794l-4.442 1.848a4.535 4.535 0 0 0-1.612-2.137 4.03 4.03 0 0 0-2.257-.648 4.527 4.527 0 0 0-1.91.395c-.569.261-1.071.647-1.47 1.129a5.449 5.449 0 0 0-.955 1.764 7.223 7.223 0 0 0-.346 2.306 7.32 7.32 0 0 0 .298 2.136c.181.623.486 1.203.896 1.705.4.482.907.865 1.48 1.118a5 5 0 0 0 2.055.395c.45.001.899-.05 1.337-.156a3.509 3.509 0 0 0 1.159-.504c.344-.235.632-.542.846-.9.238-.414.393-.87.455-1.344h-3.846v-3.65Zm57.01 6.988h-6.686l-1.074 3.145h-4.992l6.854-18.104h5.11l6.855 18.103h-4.991l-1.076-3.144Zm-1.241-3.58-2.102-6.026-2.102 6.026h4.204Zm42.942 6.724 3.057-18.104h4.633l3.608 9.656 3.582-9.652h4.633l3.059 18.103h-4.659l-1.551-10.422-4.251 10.421h-1.866l-4.034-10.42-1.553 10.42h-4.657l-.001-.002Zm64.605-18.104v18.103h-4.681V75.022h4.681Zm38.166 18.103V75.022h4.682l8.645 11.069V75.023h4.657v18.104h-4.658l-8.645-11.069v11.07h-4.682l.001-.004Zm65.248-10.13h9.292c0 .96-.042 1.834-.12 2.618a9.289 9.289 0 0 1-.479 2.185 8.747 8.747 0 0 1-1.36 2.51 7.952 7.952 0 0 1-2.017 1.823 9.446 9.446 0 0 1-2.544 1.117c-.95.259-1.931.388-2.916.384-1.31.016-2.611-.22-3.833-.696a8.64 8.64 0 0 1-2.973-1.957 8.887 8.887 0 0 1-1.933-3.026 11.36 11.36 0 0 1-.013-7.779 8.501 8.501 0 0 1 1.936-3.014 8.79 8.79 0 0 1 3.019-1.944 10.684 10.684 0 0 1 3.941-.696 9.713 9.713 0 0 1 4.942 1.225 8.463 8.463 0 0 1 3.371 3.793l-4.445 1.848a4.53 4.53 0 0 0-1.61-2.136 4.033 4.033 0 0 0-2.258-.648 4.525 4.525 0 0 0-1.91.395c-.569.26-1.07.646-1.468 1.129a5.417 5.417 0 0 0-.956 1.764 7.218 7.218 0 0 0-.349 2.306 7.32 7.32 0 0 0 .3 2.136c.18.623.486 1.203.898 1.705.4.482.907.865 1.48 1.117.649.276 1.349.41 2.053.395.451.002.9-.05 1.338-.155a3.521 3.521 0 0 0 1.158-.504c.345-.236.634-.543.849-.9.237-.415.39-.872.452-1.345h-3.845v-3.65Z"/></svg>