<svg xmlns="http://www.w3.org/2000/svg" width="300" height="181" fill="none" viewBox="0 0 300 181"><path fill="#fff" fill-rule="evenodd" d="m134.227 15 27.856 34.328H290l-20.922 87.615H10l20.928-87.616h61.223L134.227 15Zm-68.023 86.738 10.554 25.199v-.007h44.714L139.8 49.811h10.619l-16.528-20.837-27.179 20.837h10.096l-17.677 74.19-10.806-24.992c5.671-2.787 9.832-7.645 10.89-12.303l2.89-12.747c1.613-7.103-3.78-14.658-14.154-14.658l-47.475-.032-15.335 67.584h21.883l5.697-25.115h13.483Zm133.732-16.89c-.05.176-.671 2.502-6.396 27.741-2.013 8.858-9.645 14.322-19.019 14.322h-44.12l4.006-17.67h37.902l1.722-7.587h-23.083a46.78 46.78 0 0 0-2.251-.052c-13.096 0-9.903-11.096-9.903-11.096l-.11.233c.929-4.052 2.2-9.6 3.923-17.2 1.974-8.716 8.509-14.315 20.728-14.315h42.411l-4.09 18.038H164.09l-1.723 7.586h37.569Zm31.751-.006 1.722-7.587v.013h38.076l4.167-18.038h-43.017c-9.993 0-18.425 4.174-20.728 14.316a93835.54 93835.54 0 0 0-4.323 19.067l-.104.458-.112.495-4.319 19.03c-2.877 12.683 7.793 14.321 14.232 14.321h42.411l4.316-17.67h-37.863l1.722-7.586h31.031l4.013-16.82h-31.224Zm-154.4-7.502-.007.032c5.568-.11 4.013 7.206-1.683 7.393l-.007.039H56.56l1.697-7.464h19.031Zm141.903 70.622c1.226-4.851-.232-5.716-3.116-5.735-19.238-.103-22.321-.103-22.321-.103l-6.019 23.805 7.09.039 4.361-17.258 3.129.02-4.362 17.257 6.316.032 4.361-17.257 3.278.019-4.361 17.258 7.09.038 4.58-18.115h-.026Zm-65.171 3.239 8.645.045c1.464.007 2.316 1.31 1.922 2.916l-2.916 11.606-15.741-.084c-3.387-.019-5.129-2.141-4.4-5.038L145 146.905c.748-2.962 3.419-4.994 6.929-4.974l15.741.083-1.658 6.561-14.29-.077-2.787 11.012 7.174.039.639-2.535-4.193-.02 1.464-5.793Zm35.779-3.471c.787-3.122.336-5.645-3.129-5.658-16.631-.09-16.631-.07-16.631-.07l-6.039 23.805h.026l7.09.039 2.252-8.897 7.012.039-2.251 8.896 7.09.039h.013l4.587-18.186h-.02v-.007Zm-7.967 3.458-7.013-.039.684-2.696 7.013.039-.684 2.696Zm56.255 6.071-10.909-.058-.665 2.626 13.2.07-1.548 6.129-14.909-.077c-2.265-.013-6-.6-4.891-5l1.713-6.768.016-.063.004-.017 1.693-6.693c.89-3.523 3.884-4.955 7.4-4.936l14.909.078-1.581 6.258-13.199-.071-.665 2.632 10.909.058-1.477 5.832Zm7.413-9.73c-.664 2.633-1.155 4.562-1.516 5.968l.039-.078s-1.213 3.845 3.393 3.871c.209 0 .405.007.585.013l.202.007 8.116.045-.665 2.632-13.322-.071-1.548 6.129s.6.006 15.509.084c3.297.019 6.026-1.865 6.8-4.936 2.335-9.238 2.471-9.625 2.471-9.625l-13.206-.071.664-2.632 13.206.071 1.581-6.258-14.909-.077c-4.297-.026-6.639 1.909-7.4 4.928ZM92.873 44.805H85.12l4.2-16.98h-6.555l1.516-6.115h20.851l-1.51 6.116h-6.554l-4.194 16.98Zm-51.068-8.49h5.406l-2.096 8.497h7.747l5.716-23.115h-7.754l-2.097 8.496h-5.406l2.097-8.496H37.67l-5.716 23.115h7.754l2.097-8.496ZM70.12 45h-8.716c-2.245 0-5.954-.561-4.87-4.929l1.66-6.722 1.662-6.722c.864-3.49 3.825-4.929 7.31-4.929h8.715c3.484 0 5.735 1.439 4.87 4.929a14904.3 14904.3 0 0 0-1.66 6.722l-1.662 6.722C76.352 44.438 72.365 45 70.12 45Zm2.529-17.09H67.32l-2.722 11.013h5.328L72.65 27.91Z" clip-rule="evenodd"/></svg>