<svg width="56" height="56" viewBox="0 0 56 56" fill="none" xmlns="http://www.w3.org/2000/svg">
<path fill-rule="evenodd" clip-rule="evenodd" d="M29.1468 13.225C30.2602 13.225 31.1628 14.1404 31.1628 15.2696V15.989C32.4175 16.1811 33.6438 16.5929 34.6949 17.254C36.3308 18.2829 37.6279 19.9989 37.6279 22.343C37.6279 23.4722 36.7253 24.3876 35.6119 24.3876C34.4985 24.3876 33.5959 23.4722 33.5959 22.343C33.5959 21.7277 33.3093 21.1942 32.57 20.7292C32.1839 20.4864 31.7036 20.2885 31.1628 20.1529V26.3375C32.5361 26.6866 34.0555 27.1499 35.3072 27.9313C36.14 28.4511 36.9263 29.1509 37.4968 30.1144C38.0735 31.0883 38.3604 32.2148 38.3604 33.4724C38.3604 36.0236 36.9747 37.9053 35.1917 39.0653C34.0011 39.84 32.5977 40.3284 31.1628 40.5657V41.4481C31.1628 42.5772 30.2602 43.4926 29.1468 43.4926C28.0334 43.4926 27.1308 42.5772 27.1308 41.4481V40.5934C25.7219 40.3783 24.3407 39.9157 23.1621 39.1573C21.3426 37.9865 19.9849 36.0716 19.9849 33.4724C19.9849 32.3433 20.8875 31.4279 22.0009 31.4279C23.1143 31.4279 24.0169 32.3433 24.0169 33.4724C24.0169 34.4303 24.4522 35.1447 25.3221 35.7045C25.8159 36.0222 26.4345 36.272 27.1308 36.4347V29.5483C26.0709 29.2553 24.9826 28.8843 24.0514 28.3548C23.2287 27.887 22.4255 27.2444 21.8336 26.3296C21.2296 25.3961 20.9273 24.3048 20.9273 23.0862C20.9273 20.6271 22.0955 18.755 23.7553 17.5593C24.7616 16.8344 25.9315 16.3637 27.1308 16.1057V15.2696C27.1308 14.1404 28.0334 13.225 29.1468 13.225ZM26.0902 20.893C26.3868 20.6794 26.7384 20.4958 27.1308 20.3489V25.2764C26.715 25.1303 26.3462 24.9717 26.0231 24.7879C25.5894 24.5414 25.3456 24.3041 25.2046 24.0862C25.0758 23.887 24.9593 23.5929 24.9593 23.0862C24.9593 22.0945 25.3746 21.4085 26.0902 20.893ZM31.1628 36.3959V30.5738C31.9778 30.8157 32.6547 31.0771 33.1937 31.4136C33.6173 31.678 33.878 31.9456 34.0403 32.2197C34.1965 32.4834 34.3284 32.8648 34.3284 33.4724C34.3284 34.3246 33.9211 35.0338 33.0147 35.6235C32.5065 35.9541 31.8724 36.2185 31.1628 36.3959Z" fill="#DAFE31"/>
<path fill-rule="evenodd" clip-rule="evenodd" d="M30.4982 3.56532C30.1156 3.08151 29.5371 2.79999 28.9256 2.79999C28.3141 2.79999 27.7356 3.08151 27.3529 3.56532L22.225 10.0494L14.1872 8.42517C13.5875 8.30398 12.9659 8.46544 12.4975 8.8641C12.029 9.26276 11.7643 9.85553 11.7778 10.4756L11.9592 18.7855L4.77249 22.7812C4.23625 23.0793 3.86242 23.6082 3.75623 24.219C3.65004 24.8298 3.82296 25.4564 4.22632 25.9226L9.63215 32.1701L6.65924 39.916C6.43741 40.4939 6.48626 41.1428 6.79203 41.6799C7.0978 42.217 7.62743 42.5843 8.23188 42.6785L16.3327 43.9403L18.9647 51.812C19.161 52.3994 19.6097 52.8646 20.1844 53.0767C20.759 53.2888 21.3976 53.2249 21.9203 52.903L28.9256 48.5887L35.9309 52.903C36.4536 53.2249 37.0922 53.2888 37.6668 53.0767C38.2415 52.8646 38.6901 52.3994 38.8865 51.812L41.5185 43.9403L49.6193 42.6785C50.2237 42.5843 50.7534 42.217 51.0591 41.6799C51.3649 41.1428 51.4138 40.4939 51.1919 39.916L48.219 32.1701L53.6249 25.9226C54.0282 25.4564 54.2011 24.8298 54.0949 24.219C53.9888 23.6082 53.6149 23.0793 53.0787 22.7812L45.892 18.7855L46.0734 10.4756C46.0869 9.85553 45.8222 9.26276 45.3537 8.8641C44.8853 8.46544 44.2637 8.30398 43.6639 8.42517L35.6261 10.0494L30.4982 3.56532ZM24.6044 13.5764L28.9256 8.11234L33.2468 13.5764C33.7175 14.1715 34.4757 14.4514 35.2134 14.3023L41.9867 12.9336L41.8339 19.9363C41.8172 20.699 42.2206 21.4076 42.8803 21.7744L48.9364 25.1415L44.381 30.4062C43.8848 30.9796 43.7447 31.7854 44.0176 32.4964L46.5228 39.0237L39.6964 40.087C38.9529 40.2028 38.3348 40.7288 38.0932 41.4513L35.8753 48.0847L29.972 44.4491C29.329 44.0531 28.5222 44.0531 27.8792 44.4491L21.9759 48.0847L19.758 41.4513C19.5164 40.7288 18.8983 40.2028 18.1548 40.087L11.3284 39.0237L13.8336 32.4964C14.1064 31.7854 13.9663 30.9796 13.4702 30.4062L8.91475 25.1414L14.9709 21.7744C15.6305 21.4076 16.034 20.699 16.0173 19.9363L15.8644 12.9336L22.6378 14.3023C23.3755 14.4514 24.1337 14.1715 24.6044 13.5764Z" fill="#DAFE31"/>
</svg>
