<svg width="608" height="400" viewBox="0 0 608 400" fill="none" xmlns="http://www.w3.org/2000/svg">
<g opacity="0.85">
<path d="M607.836 0H0V400H91.0376C103.99 377.029 115.066 352.481 126.196 327.817C167.588 236.087 209.711 142.736 351.774 122.807C354.602 122.589 357.445 122.373 360.301 122.156C442.547 115.905 535.428 108.846 588.234 37.5688C588.608 37.0997 588.972 36.6203 589.336 36.141C589.701 35.6617 590.065 35.1823 590.439 34.7132C598.41 23.9469 604.179 12.1997 607.836 0Z" fill="#7A78E3"/>
<path fill-rule="evenodd" clip-rule="evenodd" d="M0.952353 237.511L-1 237.206V235.509L-0.87885 235.135C5.3217 216.066 12.9856 197.352 23.2715 180.022C34.1368 161.7 47.8636 145.163 63.9577 131.179C83.4857 114.178 106.078 101.036 129.713 90.7286C139.928 86.2542 150.386 82.6074 160.825 78.9676L160.843 78.9612C165.511 77.3335 170.175 75.7073 174.822 74.006C189.531 68.6102 203.852 62.1812 217.485 54.5297C239.268 42.3334 259.113 26.9257 276.175 8.68991C279.027 5.64657 281.793 2.53052 284.483 -0.646232L284.783 -1H287.961L286.556 0.648607C275.458 13.6719 263.156 25.6421 249.571 36.1575C227.003 53.6157 201.425 66.7817 174.686 76.4862C170.54 77.9875 166.386 79.4384 162.243 80.8853C151.422 84.6649 140.673 88.4195 130.187 93.0255C117.579 98.5574 105.333 104.877 93.6929 112.172C74.2304 124.367 56.5534 139.357 42.0976 157.191L42.0967 157.192C29.4105 172.796 19.3833 190.369 11.503 208.885C7.51208 218.244 4.0576 227.815 0.952353 237.511ZM277.635 10.057C277.634 10.0572 277.635 10.0568 277.635 10.057L277.18 9.63065C277.18 9.63073 277.18 9.63057 277.18 9.63065L277.635 10.057Z" fill="white"/>
</g>
</svg>
