<svg width="600" height="200" viewBox="0 0 600 200" fill="none" xmlns="http://www.w3.org/2000/svg">
<g clip-path="url(#clip0_1_10)">
<path d="M73.4843 99.9548H73.4572L51.2196 24H24.8559L47.0935 99.9548H47.1116L47.1026 100L47.1116 100.045H47.0935L24.8559 176H51.2196L73.4572 100.045H73.4843L73.4753 100L73.4843 99.9548Z" fill="#FF7A00"/>
<path d="M126.627 99.9548H126.6L104.362 24H90.088H68.031H63.7153L85.9529 99.9548H85.98L85.9619 100L85.98 100.045H85.9529L63.7153 176H68.031H90.088H104.362L126.6 100.045H126.627L126.618 100L126.627 99.9548Z" fill="#735CFC"/>
<path d="M33.695 100.045L33.686 100L33.695 99.9548H33.6679L11.4303 24H0L22.2466 100L0 176H11.4303L33.6679 100.045H33.695Z" fill="#DAFE31"/>
<path d="M195.579 50.7725C226.448 50.7725 245.535 65.2246 247.241 84.8253H220.498C218.918 78.1322 211.379 72.1797 195.696 72.1797C173.089 72.1797 167.03 85.4214 167.03 97.3535C167.03 109.285 172.745 122.762 198.757 122.762C210.548 122.762 217.961 120.82 225.988 117.415V109.141H195.218V92.7288H247.241V129.816C229.373 139.752 214.539 142.462 197.403 142.462C163.247 142.462 140.64 126.294 140.64 96.4954C140.64 66.9498 162.877 50.7725 195.579 50.7725Z" fill="white"/>
<path d="M348.732 106.811V140.032H327.65V131.614C315.543 138.061 302.037 141.43 288.321 141.423C270.183 141.423 258.057 135.525 258.057 120.224C258.057 102.737 277.063 97.8141 296.185 97.8141C306.791 97.9029 317.35 99.2245 327.65 101.752C326.991 90.3803 315.01 88.3119 304.266 88.3119C293.522 88.3119 282.597 89.73 267.456 93.6682L263.411 78.8277C277.288 75.3321 291.599 72.9204 307.769 72.9204C335.081 72.9204 348.507 81.8084 348.732 106.811ZM327.65 120.576V115.003C318.194 112.885 308.539 111.786 298.849 111.724C286.507 111.724 280.277 113.802 280.277 119.158C280.277 124.514 285.152 126.068 295.418 126.068C304.158 126.068 318.802 122.979 327.65 120.576Z" fill="white"/>
<path d="M499.818 104.29V140.032H478.844V107.244C478.844 95.5018 473.599 90.6332 461.365 90.6332C450.657 90.6332 440.599 95.8811 440.599 108.698V140.068H419.634V107.244C419.634 95.5018 414.389 90.6332 402.155 90.6332C391.32 90.6332 381.389 95.8811 381.389 108.698V140.068H360.307V75.1062H381.398V87.1376C388.494 78.2767 398.002 72.9204 411.111 72.9204C423.679 72.9204 434.053 77.9515 438.423 90.0822C445.745 79.478 455.794 72.9204 470.321 72.9204C487.042 72.9204 499.71 81.8084 499.818 104.29Z" fill="white"/>
<path d="M600 106.811V140.032H578.918V131.614C566.808 138.062 553.299 141.431 539.58 141.423C521.451 141.423 509.325 135.525 509.325 120.224C509.325 102.737 528.285 97.8141 547.453 97.8141C558.059 97.9029 568.618 99.2245 578.918 101.752C578.259 90.3803 566.278 88.3119 555.534 88.3119C544.79 88.3119 533.865 89.73 518.715 93.6682L514.679 78.8277C529.154 74.9967 544.055 73.0118 559.028 72.9204C586.34 72.9204 599.783 81.8084 600 106.811ZM578.918 120.576V115.003C569.433 112.879 559.746 111.78 550.026 111.724C537.684 111.724 531.454 113.802 531.454 119.158C531.454 124.514 536.42 126.068 546.686 126.068C555.425 126.068 570.061 122.979 578.918 120.576Z" fill="white"/>
</g>
<defs>
<clipPath id="clip0_1_10">
<rect width="600" height="152" fill="white" transform="translate(0 24)"/>
</clipPath>
</defs>
</svg>
