<svg xmlns="http://www.w3.org/2000/svg" width="16" height="16" viewBox="0 0 16 16" fill="none"><g clip-path="url(#clip0_1028_3120)"><mask id="mask0_1028_3120" style="mask-type:luminance" maskUnits="userSpaceOnUse" x="0" y="0" width="16" height="16"><path d="M16 0H0V16H16V0Z" fill="#ff7a00"></path></mask><path d="M14.2272 3.30123L15.6741 4.74812C15.9613 5.03531 15.9434 5.51942 15.6341 5.8287L5.82879 15.634C5.5195 15.9433 5.0354 15.9612 4.74819 15.674L3.31741 14.2432C3.78164 13.779 3.80825 13.0532 3.37746 12.6224C2.9464 12.1913 2.22081 12.2182 1.75659 12.6824L0.325817 11.2516C0.0386207 10.9644 0.05655 10.4803 0.365836 10.171L10.1711 0.365764C10.4804 0.0564762 10.9645 0.0385297 11.2517 0.325721L12.6664 1.74036C12.2021 2.20459 12.1753 2.9302 12.6063 3.36125C13.0371 3.79205 13.763 3.76542 14.2272 3.30123ZM10.6313 2.50691C10.3442 2.21971 9.86008 2.23764 9.5508 2.54693L2.54701 9.55071C2.23773 9.86 2.2198 10.3441 2.507 10.6313L5.36854 13.4928C5.65573 13.78 6.13984 13.7621 6.44913 13.4528L13.4529 6.44904C13.7622 6.13975 13.7801 5.65565 13.4929 5.36847L10.6313 2.50691ZM13.1928 6.18889L6.18898 13.1927C6.03405 13.3476 5.79228 13.3563 5.6487 13.2127L2.78714 10.3511C2.64329 10.2073 2.65223 9.96578 2.80716 9.81085L9.81091 2.80708C9.96555 2.65243 10.2074 2.6432 10.3512 2.78706L13.2128 5.6486C13.3563 5.79221 13.3474 6.03425 13.1928 6.18889ZM5.78024 9.71908L4.85498 9.30202L5.27205 10.2273L4.56834 10.9882L5.58706 10.8561L6.07729 11.7436L6.28992 10.7369L7.29622 10.5246L6.40928 10.0344L6.54115 9.01592L5.78024 9.71908ZM8.02145 7.47787L7.09619 7.06081L7.51326 7.98607L6.80956 8.747L7.82827 8.61485L8.31849 9.50232L8.53113 8.49574L9.53743 8.28339L8.65049 7.79314L8.78236 6.77471L8.02145 7.47787ZM10.2627 5.23665L9.33736 4.81961L9.75451 5.74484L9.05105 6.5055L10.0694 6.37365L10.5597 7.26111L10.7723 6.25454L11.7786 6.04218L10.8917 5.55192L11.0236 4.53351L10.2627 5.23665Z" fill="#ff7a00"></path></g><defs><clipPath id="clip0_1028_3120"><rect width="16" height="16" fill="#ff7a00"></rect></clipPath></defs></svg>