<svg xmlns="http://www.w3.org/2000/svg" width="301" height="76" fill="none" viewBox="0 0 301 76"><path fill="#fff" d="M5.49 5.833h62.54v23.531a12.212 12.212 0 0 1-20.197 9.228 10.47 10.47 0 0 0-2.102 5.28 17.633 17.633 0 0 0 27.733-14.457V.398H.008v28.965c.01 1.79.285 3.57.818 5.28a19.98 19.98 0 0 1 4.665-5.28V5.833Z"/><path fill="#fff" d="M38.192 29.368c.006 1.791.282 3.571.819 5.28a19.98 19.98 0 0 1 4.664-5.28 12.21 12.21 0 0 1 7.946-11.431 4.322 4.322 0 0 0 5.183 2.255 4.265 4.265 0 0 0 2.921-3.177 4.297 4.297 0 0 0-2.563-8.204 4.156 4.156 0 0 0-4.203-.922 4.317 4.317 0 0 0-2.973 4.818 17.662 17.662 0 0 0-11.79 16.661h-.004ZM138.68 33.388l1.718-1.67c-.54-.605-1.26-1.088-2.16-1.448a7.412 7.412 0 0 0-2.823-.54 8.134 8.134 0 0 0-2.848.49c-.867.328-1.604.885-2.209 1.67-.606.77-.909 1.702-.909 2.799 0 .753.123 1.416.369 1.988a3.582 3.582 0 0 0 1.08 1.424c.491.36.957.647 1.399.86.458.196 1.015.4 1.669.613.606.18 1.04.32 1.301.418.279.098.639.253 1.081.466.442.196.761.393.957.59.196.196.377.457.54.785.164.327.246.695.246 1.105 0 .949-.352 1.685-1.056 2.209-.704.507-1.514.761-2.43.761a4.665 4.665 0 0 1-2.234-.565 4.62 4.62 0 0 1-1.645-1.473l-1.89 1.596c.638.818 1.464 1.448 2.479 1.89a8.412 8.412 0 0 0 3.241.639c1.669 0 3.085-.45 4.247-1.35 1.178-.917 1.767-2.226 1.767-3.928 0-.672-.114-1.269-.344-1.793-.212-.523-.466-.94-.761-1.252-.278-.327-.687-.638-1.227-.932-.54-.295-.982-.5-1.326-.614-.327-.131-.81-.295-1.448-.491a53.395 53.395 0 0 1-1.424-.491 9.32 9.32 0 0 1-1.056-.54c-.392-.246-.671-.524-.834-.835-.164-.327-.246-.72-.246-1.178 0-.917.344-1.612 1.031-2.087.688-.491 1.473-.736 2.357-.736.704 0 1.35.147 1.939.441.606.295 1.089.688 1.449 1.179ZM94.19 30.172l5.204 13.355h.05l5.13-13.355h3.781v17.38h-2.43V33.02h-.05l-5.769 14.533H98.56L92.815 33.02h-.049v14.533h-2.357V30.172h3.78Z"/><path fill="#fff" fill-rule="evenodd" d="m115.04 43.281-1.743 4.272h-2.7l7.536-17.381h2.21l7.463 17.38h-2.75l-1.767-4.27h-8.249Zm4.125-10.286-3.266 8.15h6.506l-3.24-8.15Z" clip-rule="evenodd"/><path fill="#fff" d="m156.977 43.527 1.94 1.325c-1.539 2.095-3.748 3.143-6.628 3.143-2.668 0-4.861-.86-6.58-2.578-1.718-1.718-2.577-3.912-2.577-6.58 0-2.683.875-4.868 2.626-6.554 1.752-1.702 3.961-2.553 6.629-2.553 1.244 0 2.438.237 3.584.712 1.146.474 2.029 1.137 2.651 1.988l-1.915 1.473c-.425-.605-1.031-1.096-1.816-1.473a5.723 5.723 0 0 0-2.504-.564c-1.964 0-3.56.67-4.787 2.013-1.212 1.342-1.817 2.995-1.817 4.959 0 1.996.597 3.666 1.792 5.008 1.195 1.326 2.774 1.988 4.738 1.988 2.046 0 3.601-.769 4.664-2.307Z"/><path fill="#fff" fill-rule="evenodd" d="M176.01 45.417c1.752-1.718 2.627-3.912 2.627-6.58 0-2.683-.875-4.868-2.627-6.554-1.734-1.702-3.936-2.553-6.603-2.553-2.668 0-4.869.85-6.604 2.553-1.719 1.686-2.578 3.87-2.578 6.555 0 2.667.868 4.86 2.602 6.579 1.735 1.718 3.928 2.578 6.58 2.578 2.667 0 4.869-.86 6.603-2.578Zm-1.816-11.538c1.211 1.342 1.816 2.995 1.816 4.959 0 1.98-.605 3.641-1.816 4.983-1.211 1.326-2.807 1.989-4.787 1.989-1.948 0-3.527-.663-4.738-1.989-1.212-1.342-1.817-3.003-1.817-4.983 0-1.964.605-3.617 1.817-4.96 1.211-1.341 2.79-2.012 4.738-2.012 1.98 0 3.576.67 4.787 2.013Z" clip-rule="evenodd"/><path fill="#fff" d="M187.287 32.308v15.245h-2.43V32.308h-5.573v-2.136h13.576v2.136h-5.573ZM213.824 33.756l1.693-1.768c-1.554-1.505-3.698-2.258-6.432-2.258-2.667 0-4.877.85-6.628 2.553-1.751 1.686-2.627 3.87-2.627 6.555 0 2.684.868 4.885 2.603 6.603 1.734 1.703 3.96 2.554 6.677 2.554 2.471 0 4.648-.508 6.53-1.522v-8.42h-6.26v2.061h3.854v4.837c-1.063.572-2.414.859-4.05.859-2.03 0-3.658-.663-4.886-1.989-1.211-1.325-1.816-2.987-1.816-4.983 0-1.964.605-3.617 1.816-4.96 1.228-1.341 2.832-2.012 4.812-2.012 1.997 0 3.568.63 4.714 1.89Z"/><path fill="#fff" fill-rule="evenodd" d="m222.276 43.281-1.743 4.272h-2.7l7.537-17.381h2.209l7.463 17.38h-2.749l-1.768-4.27h-8.249Zm4.125-10.286-3.265 8.15h6.505l-3.24-8.15Z" clip-rule="evenodd"/><path fill="#fff" d="m246.26 43.527-5.205-13.355h-3.78v17.38h2.356V33.02h.049l5.745 14.533h1.547l5.769-14.533h.049v14.533h2.43V30.172h-3.78l-5.131 13.355h-.049ZM261.881 30.172v17.38h-2.43v-17.38h2.43ZM278.366 44.067l-9.084-13.895h-3.167v17.38h2.431V33.364h.049l9.181 14.19h3.069V30.172h-2.43v13.895h-.049ZM299.882 31.988l-1.694 1.768c-1.145-1.26-2.716-1.89-4.713-1.89-1.98 0-3.584.67-4.812 2.013-1.211 1.342-1.817 2.995-1.817 4.959 0 1.996.606 3.658 1.817 4.983 1.228 1.326 2.856 1.989 4.886 1.989 1.636 0 2.986-.287 4.05-.86v-4.836h-3.854v-2.062h6.26v8.42c-1.882 1.015-4.059 1.523-6.53 1.523-2.717 0-4.943-.851-6.678-2.553-1.734-1.719-2.602-3.92-2.602-6.604s.876-4.87 2.627-6.555c1.751-1.702 3.961-2.553 6.628-2.553 2.734 0 4.877.753 6.432 2.258ZM38.192 44.852a17.633 17.633 0 0 1 27.733-14.457c-.2 1.92-.928 3.748-2.102 5.28a12.204 12.204 0 1 0-12.251 20.66 4.322 4.322 0 0 1 5.182-2.255 4.264 4.264 0 0 1 2.922 3.178 4.296 4.296 0 1 1-2.563 8.202 4.153 4.153 0 0 1-4.203.923 4.317 4.317 0 0 1-2.972-4.818 17.852 17.852 0 0 1-11.74-16.712l-.006-.001ZM34.505 39.57a17.78 17.78 0 0 1 .818 5.28l-.002-.002A17.712 17.712 0 0 1 23.53 61.51a4.316 4.316 0 0 1-2.973 4.819 4.153 4.153 0 0 1-4.204-.922 4.297 4.297 0 1 1-2.564-8.202 4.262 4.262 0 0 1 2.923-3.178 4.32 4.32 0 0 1 5.183 2.254 12.21 12.21 0 0 0 7.946-11.43 19.994 19.994 0 0 0 4.664-5.28Z"/><path fill="#fff" d="M35.326 29.364a17.66 17.66 0 0 0-11.79-16.66 4.256 4.256 0 0 0-2.974-4.82 4.394 4.394 0 0 0-4.203.923 4.298 4.298 0 0 0-2.563 8.203 4.313 4.313 0 0 0 8.1.922 12.201 12.201 0 1 1-12.252 20.66 9.64 9.64 0 0 0-2.101 5.28 17.672 17.672 0 0 0 27.784-14.508h-.001Z"/><path fill="#fff" d="M2.61 35.704a17.634 17.634 0 0 0-2.555 9.143H.052V75.34H73.51V44.898c-.01-1.79-.285-3.57-.819-5.28a19.992 19.992 0 0 1-4.664 5.28v23.53H5.486v-23.53a12.212 12.212 0 0 1 20.2-9.228 10.469 10.469 0 0 0 2.101-5.28 17.634 17.634 0 0 0-25.176 5.314Z"/></svg>