<svg width="300" height="183" viewBox="0 0 300 183" fill="none" xmlns="http://www.w3.org/2000/svg">
<path d="M149.51 0.914062C135.053 0.914063 121.188 6.65756 110.966 16.881C100.743 27.1045 95 40.9706 95 55.4288C94.9933 60.7151 95.7684 65.9733 97.3004 71.0327C111.705 51.8273 128.006 21.9203 129.902 17.3192C131.702 13.115 133.209 11.1158 137.986 12.1154C139.382 12.4168 141.381 14.6144 140.786 19.2155C137.626 45.0139 140.206 85.0344 146.445 80.0291C152.008 75.5309 164.708 50.8938 168.61 41.3389C170.712 36.3335 171.712 33.4377 176.21 33.8346C179.708 34.1359 180.311 38.1343 180.413 39.4352C180.934 50.6693 184.232 61.599 190.012 71.2459C191.812 74.3476 188.814 74.546 184.309 69.842C181.611 66.8433 177.51 60.4414 174.813 52.9371C174.012 50.7321 159.211 96.052 142.006 90.6498C129.005 86.6441 128.902 56.84 129.608 42.3385C129.703 40.9346 115.901 69.3422 104.098 85.5489C109.308 93.4002 116.464 99.7664 124.868 104.026C133.272 108.286 142.637 110.294 152.048 109.855C161.46 109.415 170.597 106.542 178.567 101.517C186.537 96.4921 193.069 89.4862 197.523 81.1833C201.978 72.8805 204.205 63.5643 203.985 54.1442C203.766 44.724 201.108 35.5218 196.271 27.4355C191.434 19.3492 184.583 12.6553 176.388 8.00697C168.192 3.35868 158.932 0.914866 149.51 0.914063V0.914062Z" fill="url(#paint0_linear)"/>
<path d="M29.9033 137.418L18.547 171.949H16.3703L4.82626 137.418H4.25601V171.949H0V133.914H7.64969L17.4969 163.53H17.5873L27.2399 133.914H35.0425V171.949H30.87L30.6822 137.418H29.9033Z" fill="url(#paint1_linear)"/>
<path d="M96.9355 145.65C95.0439 145.65 92.7629 145.177 89.6474 146.595C88.2981 147.143 87.0428 147.898 85.9269 148.834V171.636H81.198V142.806H84.6751L85.2384 145.837C86.436 144.804 87.8156 144.002 89.3067 143.474C93.66 142.083 96.5043 142.083 97.3528 142.521L96.9355 145.65Z" fill="url(#paint2_linear)"/>
<path fill-rule="evenodd" clip-rule="evenodd" d="M123.501 165.136C124.347 161.71 124.127 158.745 124.127 155.403C124.161 153.293 123.908 151.188 123.376 149.146C122.669 146.055 120.339 143.397 117.221 142.618C113.601 141.645 109.596 141.638 105.976 142.618C102.869 143.536 100.602 145.991 99.8423 149.132C99.3029 151.173 99.0478 153.279 99.0843 155.389C99.0843 158.675 99.0476 161.918 99.8423 165.136C100.541 168.202 102.873 170.942 105.997 171.664C109.731 172.545 113.619 172.545 117.353 171.664C120.471 170.739 122.732 168.288 123.501 165.136ZM119.147 150.092C119.448 151.681 119.576 153.299 119.53 154.916C119.506 157.981 119.607 161.057 119.12 164.093C118.802 166.175 117.481 168.093 115.364 168.612C112.88 169.251 110.275 169.251 107.791 168.612C105.639 168.149 104.36 166.132 104.008 164.072C103.551 161.192 103.625 158.294 103.625 155.389C103.582 153.615 103.71 151.841 104.008 150.092C104.414 148.009 105.635 146.087 107.791 145.552C110.276 144.922 112.879 144.922 115.364 145.552C117.501 146.082 118.789 148.003 119.147 150.092Z" fill="url(#paint3_linear)"/>
<path d="M75.8988 162.202C75.9672 163.148 75.9346 164.099 75.8014 165.039C75.6667 168.335 73.0572 170.773 70.0294 171.664C63.7757 173.139 54.5476 172.994 52.8106 165.317C52.2749 163.152 52.0202 160.928 52.0526 158.698C52.0526 155.505 51.9862 152.349 52.8106 149.23C53.5314 146.243 55.6782 143.555 58.7704 142.882C60.5849 142.403 62.4576 142.181 64.3338 142.222C67.6371 142.139 71.5063 142.624 73.889 145.149C74.9399 146.289 75.5448 147.77 75.5928 149.32C75.7096 150.369 75.7805 151.106 75.7805 152.163L71.8097 152.254C71.7123 150.46 71.149 147.902 70.5788 147.144C68.3323 144.514 63.5112 144.883 60.5437 145.635C58.369 146.165 57.1547 148.123 56.7815 150.224C56.3108 153.012 56.406 155.827 56.406 158.643C56.3669 160.504 56.4925 162.365 56.7815 164.204C57.129 166.261 58.4268 168.271 60.5646 168.744C63.0496 169.374 65.6528 169.374 68.1378 168.744C71.1007 168.015 71.7332 165.115 71.7332 162.404L75.8988 162.202Z" fill="url(#paint4_linear)"/>
<path d="M193.057 145.267L192.564 142.806L189.086 142.903V171.775H193.342L193.523 147.825C195.711 146.118 198.482 144.993 201.284 145.079C204.957 145.087 207.63 147.656 207.341 151.419V171.761H211.514L211.417 147.63C213.689 145.849 216.302 145.11 219.178 145.176C222.527 145.212 224.889 148.245 224.762 151.51V171.789L229.115 171.698V151.357C229.345 145.576 225.839 142.191 219.97 142.02C216.514 142.036 212.995 143.345 210.13 145.239C208.401 142.899 205.354 141.88 202.522 142.02C199.079 142.019 195.878 143.362 193.057 145.267Z" fill="url(#paint5_linear)"/>
<path d="M235.645 134.102H240.284V138.739H235.645V134.102Z" fill="url(#paint6_linear)"/>
<path d="M235.743 142.806H240.193V171.775H235.743V142.806Z" fill="url(#paint7_linear)"/>
<path d="M46.6352 134.297H41.9967V138.927H46.6352V134.297Z" fill="url(#paint8_linear)"/>
<path d="M46.5379 142.994H42.0941V171.949H46.5379V142.994Z" fill="url(#paint9_linear)"/>
<path d="M249.846 142.806L250.409 145.65C253.393 143.451 256.906 142.18 260.632 142.243C264.607 142.222 269.157 143.234 270.187 147.631C270.599 149.205 270.791 150.829 270.757 152.456V171.664H265.924V152.553C265.91 151.155 265.784 149.76 265.549 148.382C264.72 145.621 262.109 145.031 259.519 145.073C256.548 145.115 253.468 146.065 251 147.721V171.657H246.452V142.806H249.846Z" fill="url(#paint10_linear)"/>
<path fill-rule="evenodd" clip-rule="evenodd" d="M295.16 168.912C294.004 169.777 292.736 170.481 291.391 171.004C289.943 171.587 288.403 171.907 286.843 171.95C283.972 171.973 280.867 171.465 278.734 169.391C276.136 166.656 275.738 162.392 275.799 158.796C275.799 155.394 275.716 152.025 276.557 148.695C278.176 142.205 286.167 140.856 291.655 143.092C293.228 143.739 294.721 144.565 296.106 145.553L296.203 142.716H300V172.04C300 175.356 298.769 178.38 296.975 179.993C295.181 181.606 292.802 182.162 288.63 182.162C285.56 182.162 282.696 182.337 279.638 181.689L280.208 178.853C281.724 179.326 290.146 179.138 290.994 178.95C294.092 177.858 295.286 175.294 295.16 172.13V168.912ZM284.478 145.664C286.867 144.938 289.74 144.947 292.065 145.851C293.454 146.391 294.709 147.226 295.744 148.299V166.214C294.64 167.074 293.389 167.724 292.051 168.133C290.59 168.628 289.053 168.863 287.51 168.828C285.571 168.895 283.366 168.566 282.114 166.93C280.444 164.949 280.344 161.141 280.41 158.706C280.41 156.086 280.288 153.451 280.785 150.864C281.27 148.746 282.219 146.352 284.478 145.664Z" fill="url(#paint11_linear)"/>
<path fill-rule="evenodd" clip-rule="evenodd" d="M144.419 171.004C145.741 170.489 146.987 169.801 148.126 168.958C148.126 171.078 148.328 173.286 147.743 175.349C147.261 177.165 145.667 178.348 143.96 178.95C143.112 179.137 134.683 179.325 133.174 178.852L132.604 181.689C135.663 182.336 138.525 182.162 141.596 182.162C145.768 182.162 148.14 181.605 149.941 179.993C151.742 178.38 152.973 175.356 152.973 172.039V142.716H149.19L149.092 145.552C147.708 144.564 146.215 143.739 144.642 143.091C141.666 141.864 138.263 141.898 135.184 142.716C132.297 143.448 130.26 145.841 129.586 148.694C129.039 150.859 128.784 153.087 128.828 155.32C128.828 158.722 128.753 162.09 129.586 165.421C130.295 168.277 132.379 170.595 135.24 171.379C138.273 172.165 141.485 172.184 144.419 171.004ZM137.43 145.663C135.176 146.346 134.223 148.752 133.744 150.863C133.451 152.358 133.323 153.88 133.362 155.403C133.362 158.054 133.233 160.72 133.744 163.335C134.245 165.495 134.903 167.718 137.242 168.445C139.73 169.134 142.576 168.957 145.003 168.132C146.334 167.723 147.579 167.072 148.675 166.214V148.298C147.55 147.167 146.193 146.295 144.697 145.74C142.418 144.955 139.732 144.965 137.43 145.663Z" fill="url(#paint12_linear)"/>
<path fill-rule="evenodd" clip-rule="evenodd" d="M178.773 145.177L179.434 142.806H182.723V171.886H179.246L178.676 169.335C178.676 169.335 174.51 171.789 172.904 172.171C170.589 172.595 168.216 172.595 165.901 172.171C164.573 171.754 162.111 170.433 161.262 169.391C160.219 168.16 159.273 165.039 158.988 163.433C158.425 160.687 158.801 155.048 158.988 152.268C159.122 150.661 159.439 149.075 159.934 147.54C161.331 144.51 163.83 142.888 167.034 142.145C169.271 141.727 171.576 141.856 173.752 142.521C175.366 142.994 178.773 145.177 178.773 145.177ZM173.279 169.001C174.698 168.619 178.488 166.443 178.488 166.443L178.558 166.464V147.554C178.558 147.554 174.274 145.594 172.883 145.281C169.97 144.626 166.242 145.237 164.67 148.027C163.815 149.535 164.009 150.293 163.815 151.148C163.251 155.196 163.251 159.302 163.815 163.349C164.009 164.267 164.009 165.782 164.858 166.825C165.796 167.912 167.055 168.674 168.453 169.001C170.045 169.331 171.688 169.331 173.279 169.001Z" fill="url(#paint13_linear)"/>
<defs>
<linearGradient id="paint0_linear" x1="198.851" y1="12.0925" x2="94.9674" y2="93.7392" gradientUnits="userSpaceOnUse">
<stop stop-color="#2FBDCB"/>
<stop offset="1" stop-color="#23DE33"/>
</linearGradient>
<linearGradient id="paint1_linear" x1="-1.67638e-06" y1="158.119" x2="304.62" y2="158.119" gradientUnits="userSpaceOnUse">
<stop stop-color="#31B6E7"/>
<stop offset="1" stop-color="#22E220"/>
</linearGradient>
<linearGradient id="paint2_linear" x1="-1.67638e-06" y1="158.119" x2="304.62" y2="158.119" gradientUnits="userSpaceOnUse">
<stop stop-color="#31B6E7"/>
<stop offset="1" stop-color="#22E220"/>
</linearGradient>
<linearGradient id="paint3_linear" x1="-1.67638e-06" y1="158.119" x2="304.62" y2="158.119" gradientUnits="userSpaceOnUse">
<stop stop-color="#31B6E7"/>
<stop offset="1" stop-color="#22E220"/>
</linearGradient>
<linearGradient id="paint4_linear" x1="-1.67638e-06" y1="158.119" x2="304.62" y2="158.119" gradientUnits="userSpaceOnUse">
<stop stop-color="#31B6E7"/>
<stop offset="1" stop-color="#22E220"/>
</linearGradient>
<linearGradient id="paint5_linear" x1="-1.67638e-06" y1="158.119" x2="304.62" y2="158.119" gradientUnits="userSpaceOnUse">
<stop stop-color="#31B6E7"/>
<stop offset="1" stop-color="#22E220"/>
</linearGradient>
<linearGradient id="paint6_linear" x1="-1.67638e-06" y1="158.119" x2="304.62" y2="158.119" gradientUnits="userSpaceOnUse">
<stop stop-color="#31B6E7"/>
<stop offset="1" stop-color="#22E220"/>
</linearGradient>
<linearGradient id="paint7_linear" x1="-1.67638e-06" y1="158.119" x2="304.62" y2="158.119" gradientUnits="userSpaceOnUse">
<stop stop-color="#31B6E7"/>
<stop offset="1" stop-color="#22E220"/>
</linearGradient>
<linearGradient id="paint8_linear" x1="-1.67638e-06" y1="158.119" x2="304.62" y2="158.119" gradientUnits="userSpaceOnUse">
<stop stop-color="#31B6E7"/>
<stop offset="1" stop-color="#22E220"/>
</linearGradient>
<linearGradient id="paint9_linear" x1="-1.67638e-06" y1="158.119" x2="304.62" y2="158.119" gradientUnits="userSpaceOnUse">
<stop stop-color="#31B6E7"/>
<stop offset="1" stop-color="#22E220"/>
</linearGradient>
<linearGradient id="paint10_linear" x1="-1.67638e-06" y1="158.119" x2="304.62" y2="158.119" gradientUnits="userSpaceOnUse">
<stop stop-color="#31B6E7"/>
<stop offset="1" stop-color="#22E220"/>
</linearGradient>
<linearGradient id="paint11_linear" x1="-1.67638e-06" y1="158.119" x2="304.62" y2="158.119" gradientUnits="userSpaceOnUse">
<stop stop-color="#31B6E7"/>
<stop offset="1" stop-color="#22E220"/>
</linearGradient>
<linearGradient id="paint12_linear" x1="-1.67638e-06" y1="158.119" x2="304.62" y2="158.119" gradientUnits="userSpaceOnUse">
<stop stop-color="#31B6E7"/>
<stop offset="1" stop-color="#22E220"/>
</linearGradient>
<linearGradient id="paint13_linear" x1="-1.67638e-06" y1="158.119" x2="304.62" y2="158.119" gradientUnits="userSpaceOnUse">
<stop stop-color="#31B6E7"/>
<stop offset="1" stop-color="#22E220"/>
</linearGradient>
</defs>
</svg>
