<svg width="300" height="278" viewBox="0 0 300 278" fill="none" xmlns="http://www.w3.org/2000/svg"><path d="M48.509 276.307h2.42v-14.274l14.394 15.12v-19.959h-2.419v14.153l-14.395-15.121v20.081Zm-17.782 0h10.282v-2.178h-7.863v-7.258h7.742v-2.177h-7.742v-5.323h7.863v-2.177H30.727v19.113Zm50.08-17.057H76.21v16.936h-2.419V259.25h-4.597v-2.177h11.492v2.177h.121Zm5.444 17.057h10.282v-2.178H88.67v-7.258h7.742v-2.177H88.67v-5.323h7.863v-2.177H86.251v19.113Zm28.306-13.791c0 2.783-1.814 5.081-4.597 5.323l6.049 8.347h-2.903l-5.686-8.105h-.968v8.105h-2.419v-19.234h2.903c1.694 0 3.508 0 5.081.847 1.693 1.088 2.54 2.903 2.54 4.717Zm-7.379-3.266h-.605v6.895h.726c2.419 0 5.081-.483 5.081-3.508 0-3.024-2.903-3.387-5.202-3.387Zm19.476 0h4.597v-2.177h-11.492v2.177h4.597v16.936h2.419V259.25h-.121Zm23.226 17.057-2.178-4.839h-8.83l-2.178 4.839h-2.54l9.194-19.96 9.193 19.96h-2.661Zm-6.532-14.758-3.388 7.742h6.775l-3.387-7.742Zm16.572-4.476h-2.419v19.234h2.419v-19.234Zm8.589 19.234h-2.42v-20.081l14.396 15.121v-14.153h2.419v19.959l-14.395-15.12v14.274Zm31.814.363 5.807-13.065 2.298 12.702h2.42l-3.871-19.96-6.533 15.121-6.532-15.121-3.871 19.96h2.419l2.299-12.702 5.564 13.065Zm27.823-.363h-10.282v-19.234h10.282v2.177h-7.863v5.323h7.742v2.177h-7.742v7.258h7.863v2.299Zm5.322 0h2.42v-14.274l14.395 15.12v-19.959h-2.419v14.153l-14.396-15.121v20.081Zm33.509-17.057h-4.597v16.936h-2.42V259.25h-4.596v-2.177h11.492v2.177h.121Z" fill="#00FF68"/><path d="M0 233.483h5.927v-35.322l35.686 37.379v-49.355h-5.928v35.081L0 183.887v49.596Zm49.597 0H75.12v-5.443H55.524v-17.903h19.113v-5.444H55.524v-13.306h19.597v-5.444H49.597v47.54Zm62.056-41.975h-11.25v42.096h-5.927v-42.096h-11.25v-5.444h28.548l-.121 5.444Zm29.637 18.024v5.443h12.339c-.242 7.742-8.226 14.154-15.605 14.154-10.282 0-18.508-9.436-18.508-19.355 0-10.645 8.347-19.234 18.992-19.234 5.807 0 11.492 3.024 15 7.742l4.113-3.992c-4.718-5.807-11.976-9.194-19.355-9.194-13.669 0-24.677 11.25-24.677 24.799 0 13.185 10.766 24.556 24.072 24.556 13.307 0 22.5-10.04 22.5-22.984v-1.935H141.29Zm61.452 23.951-5.444-11.854h-21.774l-5.443 11.854h-6.412l22.742-49.475 22.742 49.475h-6.411ZM187.5 196.951l-8.468 19.234h16.936l-8.468-19.234Zm52.984 37.5 14.274-32.298h.121l5.565 31.33h6.169l-9.678-49.475-16.33 37.379-16.331-37.379-9.677 49.475h6.169l5.565-31.33h.121l14.032 32.298Zm59.516-.968h-25.524v-47.419H300v5.444h-19.597v13.306h19.113v5.444h-19.113v17.903H300v5.322Z" fill="#fff"/><path d="m151.327 131.75 30.968 31.331h-61.936l30.968-31.331Z" fill="#13FF74"/><path d="M151.327 131.75v31.331h-30.968l30.968-31.331Z" fill="#00C178"/><path d="m150.608.5 54.314 54.92-54.193 54.919-54.315-54.92L150.608.5Z" fill="#13FF74"/><path d="M150.608 55.42h54.314l-54.193 54.919-54.315-54.92h54.194Z" fill="#00BB75"/><path d="M150.608.5v109.839l-54.194-54.92L150.608.5Z" fill="#00C178"/><path d="M125.204 55.42h25.404v54.919l-54.194-54.92h28.79Z" fill="#009169"/><path d="M137.299 55.419s3.992-1.33 7.984-5.323c3.992-3.992 5.322-7.984 5.322-7.984s1.452 4.234 5.323 7.984c3.871 3.871 7.984 5.323 7.984 5.323s-3.992.968-7.984 5.322c-3.992 4.355-5.323 7.984-5.323 7.984s-.726-2.661-4.717-7.379c-3.992-4.597-8.589-5.927-8.589-5.927Z" fill="#fff"/><path d="m150.607 20.822 34.596 34.597-34.596 34.597-34.597-34.597 34.597-34.597Zm0 10.283-24.315 24.314 24.315 24.315 24.314-24.315-24.314-24.314Z" fill="#000"/><path d="m204.309 77.169 41.822 42.288-41.729 42.288-41.822-42.288 41.729-42.288Z" fill="#13FF74"/><path d="M204.309 119.457h41.822l-41.729 42.287-41.822-42.287h41.729Z" fill="#00BB75"/><path d="M204.309 77.169v84.576l-41.729-42.288 41.729-42.288Z" fill="#00C178"/><path d="M184.749 119.457h19.56v42.287l-41.729-42.287h22.169Z" fill="#009169"/><path d="M194.064 119.457s3.074-1.025 6.148-4.098c3.074-3.074 4.098-6.148 4.098-6.148s1.118 3.26 4.099 6.148c2.98 2.98 6.147 4.098 6.147 4.098s-3.073.745-6.147 4.098c-3.074 3.354-4.099 6.148-4.099 6.148s-.558-2.049-3.632-5.682c-3.074-3.54-6.614-4.564-6.614-4.564Z" fill="#fff"/><path d="m204.306 92.817 26.639 26.639-26.639 26.64-26.64-26.64 26.64-26.64Zm0 7.917-18.723 18.722 18.723 18.723 18.722-18.723-18.722-18.722Z" fill="#000"/><path d="m98.126 77.169 41.822 42.288-41.73 42.288-41.822-42.288 41.73-42.288Z" fill="#13FF74"/><path d="M98.126 119.457h41.822l-41.73 42.287-41.822-42.287h41.73Z" fill="#00BB75"/><path d="M98.126 77.169v84.576l-41.73-42.288 41.73-42.288Z" fill="#00BB75"/><path d="M78.565 119.457h19.56v42.287l-41.728-42.287h22.168Z" fill="#009169"/><path d="M87.88 119.457s3.075-1.025 6.148-4.098c3.074-3.074 4.099-6.148 4.099-6.148s1.118 3.26 4.098 6.148c2.981 2.98 6.148 4.098 6.148 4.098s-3.074.745-6.148 4.098c-3.074 3.354-4.098 6.148-4.098 6.148s-.56-2.049-3.633-5.682c-3.074-3.54-6.613-4.564-6.613-4.564Z" fill="#fff"/><path d="m98.122 92.817 26.639 26.639-26.64 26.64-26.639-26.64 26.64-26.64Zm0 7.917L79.4 119.456l18.722 18.723 18.722-18.723-18.722-18.722Z" fill="#000"/></svg>