<svg width="302" height="85" viewBox="0 0 302 85" fill="none" xmlns="http://www.w3.org/2000/svg">
<path d="M278.385 64.922H12.8687C6.26954 64.922 3.01995 61.5724 1.62013 57.8229C0.82023 55.4732 0.82023 52.9235 1.47015 50.4238L6.36953 32.676C7.76935 27.8767 11.8188 19.9777 21.9176 19.9777C21.9176 19.9777 222.092 19.9777 288.884 19.9777C298.083 19.9777 302.232 26.3268 300.682 33.4259C299.632 38.6253 295.383 52.1736 295.383 52.1736C293.783 59.7726 287.434 64.922 278.385 64.922ZM240.59 83.5696C222.842 83.5696 187.547 83.5696 169.949 83.5696C159.35 83.5696 149.101 73.7208 150.551 63.2722C152.101 52.0236 158.45 34.4258 161.95 23.5272C166.199 10.5788 178.748 1.13004 189.496 1.13004C207.744 0.980054 244.339 0.730086 262.737 1.13004C278.135 1.52998 284.584 15.7282 281.485 25.7269C278.135 36.5756 272.686 53.8234 269.336 63.7721C266.237 73.2209 251.189 83.5696 240.59 83.5696ZM263.737 7.32925C263.737 7.32925 252.088 7.32925 247.839 7.32925C236.34 7.17927 226.642 15.0783 223.642 24.1271L215.493 49.8739C206.444 72.271 217.943 76.0206 225.992 76.0206C230.791 76.0206 235.59 76.0206 239.34 76.0206C249.189 76.0206 259.937 68.9214 262.737 59.8226L273.886 24.4771C276.935 16.4281 272.036 7.32925 263.737 7.32925ZM245.889 59.2227H230.341L241.09 25.077H256.638L245.889 59.2227ZM191.946 33.7259H215.993L208.644 59.3727C205.794 68.4215 197.145 76.0705 185.247 76.0705C181.497 76.0705 176.698 76.0705 171.899 76.0705C164.649 76.0705 151.201 73.8708 161.4 49.9239L169.549 24.1771C171.599 16.928 181.047 8.12914 192.596 8.27912C196.845 8.27912 223.392 8.27912 223.392 8.27912L218.743 24.5771L218.593 25.077H186.647L183.947 33.6259L178.498 50.7238L178.098 52.0236L175.748 59.2727H192.446L195.146 50.6238H186.597L191.946 33.7259ZM136.453 54.7233L139.953 42.4248H133.503L129.904 54.8232H122.605L126.504 42.0249C127.654 38.6753 131.154 35.4257 135.803 35.5757C137.503 35.5757 142.552 35.5757 142.552 35.5757C146.302 35.5757 148.102 38.6753 147.352 42.3248L143.452 54.8732L136.453 54.7233ZM130.604 28.0266H121.305L118.455 36.1756H127.904L130.604 28.0266ZM105.907 40.975H99.5577L103.807 27.2767H96.5581L92.1587 41.5249C91.3588 45.1245 93.2085 48.2741 96.9581 48.2741L94.9083 54.7233H101.907L103.957 48.2741C108.357 48.1241 111.706 45.0245 112.906 41.8249L117.455 27.4767H110.456L105.907 40.975ZM91.8087 34.1259L84.9596 54.7233H77.9605L79.9102 47.9741H73.561L71.3613 54.7233H64.2622L71.1113 33.8759C72.2612 30.5263 75.7607 27.2767 80.4102 27.4267C82.1099 27.4267 87.1593 27.4267 87.1593 27.4267C90.8588 27.4267 92.7086 30.5263 91.8087 34.1259ZM84.4096 34.2758H77.6605L75.3108 41.025H82.0599L84.4096 34.2758ZM49.2141 27.4267L40.5652 54.7233H61.4126L65.812 41.025H58.8129L56.7631 47.8741H50.264L56.6132 27.4267C56.6132 27.4267 49.2141 27.4267 49.2141 27.4267ZM44.4147 34.2758C44.4147 34.2758 42.7149 39.4752 41.965 41.6749C39.3653 48.424 32.7662 48.1241 32.7662 48.1241H26.417L24.2173 54.8732H17.1182L25.917 27.5767H39.5153C43.2649 27.4267 45.6146 30.1264 44.4147 34.2758ZM37.4156 34.2758H30.7164L28.3667 41.025H35.1159L37.4156 34.2758Z" stroke="white" stroke-width="1.5" stroke-miterlimit="10"/>
<path d="M278.385 64.9209H12.8687C6.26954 64.9209 3.01995 61.5713 1.62013 57.8218C0.82023 55.4721 0.82023 52.9224 1.47015 50.4227L6.36953 32.675C7.76935 27.8756 11.8188 19.9766 21.9176 19.9766C21.9176 19.9766 222.092 19.9766 288.884 19.9766C298.083 19.9766 302.232 26.3258 300.682 33.4249C299.632 38.6242 295.383 52.1725 295.383 52.1725C293.783 59.7715 287.434 64.9209 278.385 64.9209Z" fill="#007CBB"/>
<path d="M240.59 83.5696C222.842 83.5696 187.547 83.5696 169.949 83.5696C159.351 83.5696 149.102 73.7208 150.552 63.2722C152.101 52.0236 158.451 34.4258 161.95 23.5272C166.2 10.5788 178.748 1.13004 189.497 1.13004C207.744 0.980054 244.34 0.730086 262.737 1.13004C278.135 1.52998 284.585 15.7282 281.485 25.7269C278.135 36.5756 272.686 53.8234 269.337 63.7721C266.237 73.2209 251.189 83.5696 240.59 83.5696Z" fill="white"/>
<path d="M263.736 7.33023C263.736 7.33023 252.088 7.33023 247.838 7.33023C236.34 7.18025 226.641 15.0792 223.641 24.1281L215.492 49.8748C206.443 72.272 217.942 76.0215 225.991 76.0215C230.79 76.0215 235.59 76.0215 239.339 76.0215C249.188 76.0215 259.937 68.9224 262.736 59.8236L273.885 24.4781C276.934 16.4291 272.035 7.33023 263.736 7.33023ZM245.888 59.2237H230.34L241.089 25.078H256.637L245.888 59.2237ZM191.945 33.7269H215.992L208.643 59.3736C205.793 68.4225 197.145 76.0715 185.246 76.0715C181.497 76.0715 176.697 76.0715 171.898 76.0715C164.649 76.0715 151.2 73.8718 161.399 49.9248L169.548 24.1781C171.598 16.929 181.047 8.13012 192.595 8.2801C196.845 8.2801 223.391 8.2801 223.391 8.2801L218.742 24.578L218.592 25.078H186.646L183.946 33.6269L178.497 50.7247L178.097 52.0246L175.747 59.2736H192.445L195.145 50.6247H186.596L191.945 33.7269Z" fill="#DD2027"/>
<path d="M136.452 54.7239L139.952 42.4254H133.502L129.903 54.8239H122.604L126.503 42.0255C127.653 38.6759 131.153 35.4263 135.802 35.5763C137.502 35.5763 142.551 35.5763 142.551 35.5763C146.301 35.5763 148.101 38.6759 147.351 42.3254L143.451 54.8739L136.452 54.7239ZM130.603 28.0272H121.304L118.454 36.1762H127.903L130.603 28.0272ZM105.906 40.9756H99.5567L103.806 27.2773H96.5571L92.1577 41.5255C91.3578 45.1251 93.2076 48.2747 96.9571 48.2747L94.9073 54.7239H101.906L103.956 48.2747C108.356 48.1247 111.705 45.0251 112.905 41.8255L117.454 27.4773H110.455L105.906 40.9756ZM91.8077 34.1265L84.9586 54.7239H77.9595L79.9092 47.9747H73.56L71.3603 54.7239H64.2612L71.1104 33.8765C72.2602 30.5269 75.7598 27.2774 80.4092 27.4273C82.109 27.4273 87.1583 27.4273 87.1583 27.4273C90.8579 27.4273 92.7076 30.5269 91.8077 34.1265ZM84.4087 34.2765H77.6595L75.3098 41.0256H82.059L84.4087 34.2765ZM49.2131 27.4273L40.5642 54.7239H61.4116L65.811 41.0256H58.8119L56.7622 47.8747H50.263L56.6122 27.4273H49.2131ZM44.4137 34.2765C44.4137 34.2765 42.7139 39.4758 41.964 41.6755C39.3644 48.4247 32.7652 48.1247 32.7652 48.1247H26.416L24.2163 54.8739H17.1172L25.9161 27.5773H39.5144C43.2639 27.4273 45.6136 30.127 44.4137 34.2765ZM37.4146 34.2765H30.7155L28.3658 41.0256H35.1149L37.4146 34.2765Z" fill="white"/>
</svg>
