<svg width="300" height="157" viewBox="0 0 300 157" fill="none" xmlns="http://www.w3.org/2000/svg">
<path d="M239.273 49.1365C239.275 49.1248 239.276 49.1127 239.274 49.1007C239.628 34.6165 248.125 29.5787 249.773 29.0132C249.796 29.0088 249.818 29.011 249.839 29.0195C249.851 29.0246 249.862 29.0312 249.872 29.0398C249.879 29.0461 249.885 29.0531 249.891 29.0607C249.904 29.0793 249.911 29.1012 249.912 29.1236C249.912 29.1382 249.91 29.1524 249.905 29.1657C249.903 29.1733 249.899 29.1806 249.895 29.1876C243.469 40.0879 246.814 55.7878 247.168 57.2997C247.2 57.3579 247.142 57.4161 247.078 57.4161C239.368 58.0946 231.914 60.5263 225.286 64.526C225.279 64.5294 225.273 64.5326 225.265 64.5348C225.256 64.5377 225.247 64.5396 225.237 64.5405C225.22 64.5418 225.203 64.5399 225.186 64.5345C225.17 64.5288 225.155 64.5203 225.142 64.5089C225.129 64.4975 225.119 64.4836 225.112 64.468C224.583 62.7552 218.993 45.6646 207.383 39.6806C207.298 39.6544 207.298 39.5063 207.415 39.4746C209.259 39.2101 218.961 38.9405 227.373 52.3729C227.432 52.4577 227.579 52.4311 227.548 52.3096C225.656 44.9511 223.051 20.0634 224.472 19.5349C225.714 19.0698 237.762 43.323 239.094 49.1327C239.096 49.1466 239.102 49.1596 239.11 49.1706C239.116 49.1786 239.123 49.1858 239.131 49.1915C239.151 49.2054 239.176 49.2108 239.2 49.2064C239.212 49.2042 239.223 49.1998 239.234 49.1931C239.243 49.1868 239.252 49.1786 239.258 49.1691C239.265 49.1593 239.27 49.1482 239.273 49.1365Z" fill="#F59238"/>
<path d="M266.905 71.9215C259.195 69.0192 251.295 71.0175 249.277 76.3882C247.253 81.7593 251.871 88.4726 259.576 91.3803C267.28 94.2876 275.18 92.2894 277.204 86.9186C279.228 81.5476 274.615 74.8235 266.905 71.9215Z" fill="#F59238"/>
<path fill-rule="evenodd" clip-rule="evenodd" d="M251.623 156.596C277.97 156.565 299.972 134.536 300 108.195C300 88.8301 288.024 70.8912 270.132 63.4783C252.242 56.0659 231.093 60.2771 217.404 73.9726C203.712 87.6706 199.509 108.828 206.919 126.721C214.329 144.611 232.257 156.598 251.623 156.596ZM228.03 72.9034C235.013 68.2361 243.224 65.7458 251.623 65.7467C274.745 65.7786 294.053 85.1093 294.082 108.227C294.082 125.224 283.57 140.967 267.867 147.474C260.107 150.689 251.569 151.53 243.331 149.89C226.661 146.573 213.282 133.181 209.969 116.511C206.655 99.8401 213.897 82.3478 228.03 72.9034Z" fill="#F59238"/>
<path d="M19.0973 121.032V96.5567H25.7027C28.0383 96.5567 30.1996 97.1171 31.3886 98.0052C33.3702 99.517 33.9039 102.123 33.9039 103.635C33.9545 105.327 33.4083 106.983 32.3609 108.313C31.7109 109.143 30.0516 109.899 28.9261 110.359C30.4374 112.574 34.9977 121.349 34.9977 121.349H29.5919C29.5919 121.349 24.5296 111.099 24.0276 111.099H23.2508V121.032H19.0973ZM25.3645 100.823H23.2508V106.421H25.3645C26.6632 106.516 28.3411 106.025 29.012 104.806C29.4027 104.095 29.4117 103.181 29.0277 102.467C28.3653 101.234 26.6673 100.734 25.3645 100.823ZM0 121.032V96.5567H6.60005C8.94098 96.5567 11.1022 97.1171 12.2859 98.0052C14.2675 99.517 14.7959 102.123 14.7959 103.635C14.7959 107.277 12.4233 109.825 10.1722 110.417C8.18683 110.846 6.16336 111.075 4.1323 111.099V121.032H0ZM6.27771 100.833H4.164V106.431H6.27771C7.57464 106.529 9.24967 106.045 9.91992 104.827C10.1171 104.468 10.2185 104.065 10.2145 103.656C10.2682 101.673 7.96239 100.719 6.27771 100.823V100.833ZM216.354 121.349V96.8845H223.255C225.591 96.8845 227.757 97.4448 228.941 98.3329C230.922 99.8448 231.456 102.451 231.456 103.963C231.505 105.654 230.961 107.309 229.918 108.641C229.263 109.471 227.609 110.227 226.484 110.687C224.999 111.247 221.12 111.131 221.12 111.131L221.094 121.376H216.338V121.349H216.354ZM222.927 101.145H221.12V106.759H222.927C224.231 106.852 225.89 106.364 226.563 105.144C226.957 104.428 226.963 103.54 226.578 102.819C225.916 101.579 224.246 101.043 222.927 101.145ZM87.6132 99.9346L84.3845 103.106C82.4346 101.298 79.3803 99.7285 76.8068 99.7285C75.6915 99.7213 74.5855 99.9333 73.5517 100.352C70.1242 101.698 68.3452 105.165 68.3679 108.736C68.3679 111.457 69.1376 113.649 70.6771 115.312C72.1262 116.792 74.0711 117.682 76.1374 117.813C79.3115 118.014 83.3853 116.146 84.1467 112.791L76.8333 112.764L76.7751 108.535H89.4204C89.4204 113.097 88.5907 115.318 86.2498 117.987C83.9089 120.657 80.7753 121.984 76.7381 121.984C73.222 122.022 69.658 120.721 67.1375 118.241C65.9252 117.049 64.9699 115.62 64.3307 114.044C63.6459 112.366 63.3028 110.569 63.3214 108.757C63.2664 104.08 65.7497 99.5474 69.9056 97.3232C71.9924 96.2092 74.3253 95.6367 76.6906 95.6581C80.8203 95.5952 84.416 97.4527 87.6132 99.9346ZM117.549 96.5567L121.369 121.032H116.692L114.468 105.512L109.051 121.032H104.755L99.2227 105.305L97.0614 121.032H92.443L96.3216 96.5673H100.612L106.954 114.726L113.263 96.5673L117.549 96.5567ZM134.87 96.2607H139.098L149.286 121.349H144.002L141.92 116.274H132.149L130.072 121.37H124.983L134.87 96.2818V96.2607ZM140.466 111.591L138.781 107.589C138.252 106.225 137.623 104.449 136.942 102.261H136.826C136.028 104.904 135.43 106.675 135.108 107.589L133.449 111.559H140.466V111.591ZM258.517 96.2607H262.781L272.969 121.349H267.685L265.598 116.274H255.822L253.751 121.37H248.656L258.517 96.2818V96.2607ZM264.113 111.591L262.427 107.589C261.899 106.225 261.27 104.449 260.588 102.261H260.472C259.674 104.904 259.082 106.675 258.755 107.589L257.095 111.559H264.113V111.591ZM48.1767 96.2607H52.4041L62.5869 121.349H57.3026L55.2206 116.274H45.4447L43.3733 121.37H38.2845L48.1767 96.2607ZM53.741 111.591L52.0553 107.589C51.5269 106.225 50.8981 104.449 50.2164 102.261H50.1001C49.2969 104.904 48.7051 106.675 48.3828 107.589L46.7235 111.559H53.741V111.591ZM148.699 101.018V96.3083H163.326V101.018H158.438V121.28H153.556V101.029L148.699 101.018ZM166.671 121.524V96.5832H171.527V121.524H166.671ZM234.209 121.524V96.8845H239.092V116.972H245.877V121.529L234.209 121.524ZM276.875 121.317V110.539L269.413 96.7153H273.915L279.036 106.336H279.126L284.251 96.7153H288.748L281.171 110.518V121.296L276.875 121.317ZM189.055 117.913C187.917 117.972 186.78 117.773 185.729 117.332C182.33 115.906 180.648 112.344 180.648 108.789C180.648 106.093 181.414 103.931 182.984 102.245C184.53 100.568 186.775 99.6258 189.055 99.6968C194.561 99.6968 196.781 103.339 196.781 103.339L199.803 100.696C198.76 99.3038 197.439 98.1429 195.925 97.2862C193.836 96.1218 191.478 95.5292 189.087 95.5682C184.37 95.4967 179.767 97.9045 177.419 102.044C176.246 104.11 175.643 106.45 175.67 108.826L175.612 108.858C175.566 113.566 178.018 118.108 182.154 120.424C184.266 121.562 186.629 122.155 189.028 122.149C193.206 122.14 197.316 120.305 199.83 116.925L196.781 113.906C196.781 113.906 193.853 117.765 189.055 117.913Z" fill="white"/>
<path d="M35.0644 1.60261C34.5141 0.550816 33.2154 0.14427 32.1636 0.694567C31.1118 1.24486 30.7052 2.54362 31.2555 3.59541L39.3856 19.1347H44.2345C44.2203 19.1042 44.2053 19.0738 44.1895 19.0436L35.0644 1.60261Z" fill="#E4E4E4"/>
<path d="M54.9587 39.3087C57.1758 38.3903 59.552 37.9177 61.9518 37.9177C63.6137 37.9177 64.9609 36.5705 64.9609 34.9086C64.9609 33.2467 63.6137 31.8995 61.9518 31.8995C58.7617 31.8995 55.6029 32.5278 52.6556 33.7486C49.7084 34.9694 47.0304 36.7587 44.7747 39.0145C42.519 41.2702 40.7297 43.9481 39.5089 46.8954C38.2881 49.8426 37.6597 53.0014 37.6597 56.1915C37.6597 57.8534 39.007 59.2006 40.6688 59.2006C42.3307 59.2006 43.6779 57.8534 43.6779 56.1915C43.6779 53.7918 44.1506 51.4155 45.069 49.1984C45.9873 46.9813 47.3333 44.9668 49.0302 43.27C50.7271 41.5731 52.7416 40.227 54.9587 39.3087Z" fill="#E4E4E4"/>
<path d="M58.7603 48.4842C59.7725 48.065 60.8573 47.8492 61.9528 47.8492C63.6147 47.8492 64.9619 46.502 64.9619 44.8401C64.9619 43.1782 63.6147 41.831 61.9528 41.831C60.067 41.831 58.1996 42.2025 56.4572 42.9241C54.7149 43.6458 53.1318 44.7036 51.7983 46.0372C50.4648 47.3707 49.407 48.9538 48.6853 50.6961C47.9636 52.4384 47.5921 54.3059 47.5921 56.1917C47.5921 57.8536 48.9393 59.2008 50.6012 59.2008C52.2631 59.2008 53.6103 57.8536 53.6103 56.1917C53.6103 55.0962 53.8261 54.0113 54.2453 52.9992C54.6646 51.987 55.2791 51.0673 56.0538 50.2927C56.8285 49.518 57.7481 48.9035 58.7603 48.4842Z" fill="#E4E4E4"/>
<path d="M64.9624 56.023C64.9624 57.7779 63.5398 59.2004 61.785 59.2004C60.0301 59.2004 58.6076 57.7779 58.6076 56.023C58.6076 54.2682 60.0301 52.8456 61.785 52.8456C63.5398 52.8456 64.9624 54.2682 64.9624 56.023Z" fill="#E4E4E4"/>
<path fill-rule="evenodd" clip-rule="evenodd" d="M27.1884 21.3945C21.0157 21.3945 16.0117 26.3985 16.0117 32.5711V61.7713C16.0117 67.944 21.0157 72.9479 27.1884 72.9479H80.447C86.6197 72.9479 91.6236 67.944 91.6236 61.7713V32.5711C91.6236 26.3985 86.6197 21.3945 80.447 21.3945H27.1884ZM26.0952 28.4975C25.1599 28.4975 24.3119 28.8711 23.6923 29.4764C23.0542 30.1011 22.6562 30.9726 22.6562 31.9364V62.4069C22.6562 64.306 24.1961 65.8458 26.0952 65.8458H70.7716C72.6707 65.8458 74.2105 64.306 74.2105 62.4069V31.9364C74.2105 30.0373 72.6707 28.4975 70.7716 28.4975H26.0952ZM85.8808 32.2395C85.8808 33.9951 84.4586 35.4174 82.7038 35.4174C80.9491 35.4174 79.5268 33.9951 79.5268 32.2395C79.5268 30.4848 80.9491 29.0625 82.7038 29.0625C84.4586 29.0625 85.8808 30.4848 85.8808 32.2395Z" fill="#E4E4E4"/>
<path d="M63.0744 0.694567C62.0226 0.14427 60.7238 0.550816 60.1735 1.60261L51.0485 19.0436C51.0327 19.0738 51.0177 19.1042 51.0035 19.1347H55.8523L63.9824 3.59541C64.5327 2.54362 64.1262 1.24486 63.0744 0.694567Z" fill="#E4E4E4"/>
<path fill-rule="evenodd" clip-rule="evenodd" d="M103.975 49.4443C103.975 37.7315 113.47 28.2363 125.183 28.2363H177.395C189.108 28.2363 198.603 37.7315 198.603 49.4443C198.603 61.1572 189.108 70.6523 177.395 70.6523H125.183C113.47 70.6523 103.975 61.1572 103.975 49.4443ZM162.309 39.6445C163.185 40.0122 163.596 41.02 163.229 41.8956L156.438 58.0695C156.171 58.7046 155.551 59.1193 154.862 59.1233C154.174 59.1273 153.549 58.7198 153.275 58.0879L146.261 41.914C145.883 41.0428 146.283 40.0302 147.155 39.6524C148.026 39.2746 149.038 39.6746 149.416 40.5458L154.827 53.023L160.058 40.5643C160.426 39.6887 161.433 39.2769 162.309 39.6445ZM125.127 39.5104C126.077 39.5104 126.847 40.2803 126.847 41.2299V55.6843H134.479C135.429 55.6843 136.199 56.4542 136.199 57.4038C136.199 58.3535 135.429 59.1233 134.479 59.1233H125.127C124.178 59.1233 123.408 58.3535 123.408 57.4038V41.2299C123.408 40.2803 124.178 39.5104 125.127 39.5104ZM141.048 39.5104C141.997 39.5104 142.767 40.2803 142.767 41.2299V57.4038C142.767 58.3535 141.997 59.1233 141.048 59.1233C140.098 59.1233 139.328 58.3535 139.328 57.4038V41.2299C139.328 40.2803 140.098 39.5104 141.048 39.5104ZM167.271 41.2337C167.271 40.284 168.041 39.5142 168.991 39.5142H177.452C178.402 39.5142 179.172 40.284 179.172 41.2337C179.172 42.1833 178.402 42.9532 177.452 42.9532H170.71V47.544H176.009C176.959 47.544 177.729 48.3139 177.729 49.2635C177.729 50.2132 176.959 50.983 176.009 50.983H170.71V55.5742H177.452C178.402 55.5742 179.172 56.3441 179.172 57.2937C179.172 58.2434 178.402 59.0132 177.452 59.0132H168.991C168.041 59.0132 167.271 58.2434 167.271 57.2937V41.2337Z" fill="#E4E4E4"/>
</svg>
