<svg width="15" height="15" viewBox="0 0 15 15" fill="none" xmlns="http://www.w3.org/2000/svg">
<g clip-path="url(#clip0_2736_16083)">
<path d="M6.6386 6.89368L7.18397 4.27566L6.37485 4.10711C5.47885 3.92046 5.11651 3.2935 5.22352 2.77977C5.33466 2.24627 5.83496 2.02064 6.416 2.14167C7.08393 2.28081 7.50748 2.85869 7.34387 3.64409L7.21112 4.28132L8.11799 4.47023L8.25074 3.833C8.41435 3.0476 9.03341 2.68692 9.70132 2.82605C10.2824 2.9471 10.6564 3.35487 10.5452 3.88836C10.4382 4.40209 9.83938 4.82883 8.95424 4.64444L8.14512 4.47589L7.59975 7.09391L11.4281 7.89142C12.0201 8.01472 12.3837 7.87401 12.4938 7.34545L12.7325 6.19946C12.8416 5.67585 12.5654 5.3967 11.9735 5.2734L10.7082 5.00982C11.1025 4.80333 11.3817 4.46976 11.4702 4.04496C11.6688 3.0916 10.981 2.23191 9.92747 2.01245C9.14553 1.84956 8.42786 2.11236 8.00477 2.75612C7.87395 1.99698 7.3155 1.46834 6.53354 1.30545C5.4855 1.08712 4.50619 1.59953 4.30759 2.55288C4.2191 2.97769 4.33637 3.39384 4.62086 3.74173L3.35561 3.47816C2.79628 3.36164 2.39907 3.50052 2.29 4.02413L2.05127 5.17012C1.94116 5.69869 2.22375 5.97401 2.81024 6.09618L6.6386 6.89368ZM5.5746 12.0013L6.52849 7.42223L2.56436 6.59644L1.87184 9.92087C1.69999 10.7458 2.14264 11.2864 3.04949 11.4753L5.5746 12.0013ZM7.48965 7.62245L6.53575 12.2016L9.06086 12.7276C9.9677 12.9165 10.5894 12.5976 10.7612 11.7727L11.4538 8.44824L7.48965 7.62245Z" fill="white"/>
</g>
<defs>
<clipPath id="clip0_2736_16083">
<rect width="12" height="12" fill="white" transform="translate(2.44727) rotate(11.7673)"/>
</clipPath>
</defs>
</svg>
