<svg width="416" height="400" viewBox="0 0 416 400" fill="none" xmlns="http://www.w3.org/2000/svg">
<path opacity="0.4" d="M384.324 0C379.191 19.386 375.072 39.1709 370.959 58.9261C351.24 153.641 331.664 247.675 201.095 293.794C101.735 326.926 57.1954 354.089 32 399.981V400H416V0H384.324Z" fill="#1DC0C0"/>
<path d="M376.482 400.138L376.586 400.5H376.962H377.586H378.25L378.067 399.862C373.379 383.541 369.253 367.062 365.14 350.588L364.437 347.771L364.435 347.762C358.755 325 353.068 302.206 345.806 279.841L345.33 279.995L345.805 279.841C338.242 256.581 328.9 233.774 316.372 212.666C303.138 190.351 286.421 170.211 266.821 153.181C243.036 132.473 215.507 116.456 186.686 103.888C174.233 98.4328 161.48 93.9857 148.72 89.5364L148.711 89.5332C143.01 87.5453 137.308 85.5569 131.625 83.4765C113.626 76.8739 96.0981 69.0054 79.4071 59.6382L79.4067 59.638C52.7366 44.705 28.4378 25.8394 7.54426 3.50867L7.54397 3.50835C6.3525 2.23716 5.17356 0.955772 4.00653 -0.335287L3.85764 -0.5H3.63561H2.99951H1.87118L2.62911 0.335865C14.3647 13.2781 27.1395 25.2607 41.0091 35.9969L41.0093 35.997C68.5066 57.2684 99.6815 73.3172 132.286 85.1506L132.286 85.1507C137.344 86.9823 142.411 88.7522 147.47 90.5192L147.476 90.5211C160.69 95.1364 173.846 99.7316 186.685 105.371L186.686 105.371C202.113 112.14 217.103 119.875 231.356 128.808L231.573 128.461L231.356 128.808C255.187 143.74 276.842 162.101 294.557 183.955L294.557 183.956C310.103 203.077 322.384 224.603 332.031 247.272L332.031 247.272C341.613 269.742 348.66 293.187 354.91 316.816L354.91 316.816C357.774 327.618 360.472 338.462 363.172 349.312L363.174 349.317C366.429 362.397 369.686 375.483 373.233 388.501C374.287 392.387 375.368 396.267 376.482 400.138Z" fill="white" stroke="white"/>
</svg>
