<svg width="56" height="56" viewBox="0 0 56 56" fill="none" xmlns="http://www.w3.org/2000/svg">
<g clip-path="url(#clip0_45281_68601)">
<path d="M4.66669 20.986C4.66546 19.1478 5.02684 17.3274 5.73015 15.6291C6.43345 13.9308 7.46485 12.3879 8.7653 11.0887C10.0658 9.78958 11.6097 8.75972 13.3087 8.05812C15.0078 7.35651 16.8285 6.99695 18.6667 7.00002H37.3334C45.0637 7.00002 51.3334 13.2884 51.3334 20.986V49H18.6667C10.9364 49 4.66669 42.7117 4.66669 35.014V20.986ZM46.6667 44.3334V20.986C46.6605 18.5139 45.6748 16.1449 43.9254 14.3981C42.1759 12.6513 39.8055 11.6691 37.3334 11.6667H18.6667C17.4413 11.6636 16.2274 11.9025 15.0946 12.3695C13.9617 12.8366 12.9322 13.5227 12.0651 14.3886C11.198 15.2544 10.5104 16.2828 10.0416 17.415C9.5728 18.5471 9.33212 19.7607 9.33336 20.986V35.014C9.33953 37.4862 10.3253 39.8551 12.0747 41.6019C13.8241 43.3487 16.1945 44.3309 18.6667 44.3334H46.6667ZM32.6667 25.6667H37.3334V30.3334H32.6667V25.6667ZM18.6667 25.6667H23.3334V30.3334H18.6667V25.6667Z" fill="#735CFC"/>
</g>
<defs>
<clipPath id="clip0_45281_68601">
<rect width="56" height="56" fill="white"/>
</clipPath>
</defs>
</svg>
