<svg width="87" height="28" viewBox="0 0 87 28" fill="none" xmlns="http://www.w3.org/2000/svg">
<path d="M1.6564 22V4.65512H5.1585V22H1.6564ZM19.1854 22H15.8607V15.5874C15.8607 14.2307 15.7898 13.3552 15.6478 12.9608C15.5058 12.5585 15.2731 12.247 14.9497 12.0261C14.6342 11.8053 14.2517 11.6948 13.8021 11.6948C13.2263 11.6948 12.7096 11.8526 12.2522 12.1681C11.7947 12.4836 11.4792 12.9016 11.3056 13.4222C11.14 13.9428 11.0572 14.9051 11.0572 16.3091V22H7.73255V9.43502H10.8206V11.2807C11.9169 9.86095 13.2973 9.15107 14.9616 9.15107C15.6951 9.15107 16.3656 9.28516 16.9729 9.55333C17.5802 9.81363 18.0377 10.1489 18.3453 10.559C18.6608 10.9692 18.8778 11.4345 18.9961 11.9551C19.1223 12.4757 19.1854 13.2211 19.1854 14.1913V22ZM33.3661 22H30.2781V20.1543C29.7654 20.8721 29.158 21.4084 28.456 21.7634C27.7619 22.1104 27.0599 22.284 26.35 22.284C24.9066 22.284 23.6682 21.7042 22.6349 20.5447C21.6096 19.3774 21.0969 17.7525 21.0969 15.6702C21.0969 13.5405 21.5977 11.9236 22.5995 10.8193C23.6012 9.70714 24.8671 9.15107 26.3973 9.15107C27.8013 9.15107 29.016 9.73475 30.0414 10.9021V4.65512H33.3661V22ZM24.4925 15.4454C24.4925 16.7863 24.6778 17.7565 25.0486 18.3559C25.5849 19.2236 26.3342 19.6574 27.2965 19.6574C28.0616 19.6574 28.7124 19.334 29.2487 18.6872C29.7851 18.0325 30.0533 17.0584 30.0533 15.7648C30.0533 14.3214 29.793 13.2842 29.2724 12.6532C28.7518 12.0143 28.0853 11.6948 27.2729 11.6948C26.4841 11.6948 25.8215 12.0103 25.2852 12.6413C24.7567 13.2645 24.4925 14.1991 24.4925 15.4454ZM35.9283 7.73129V4.65512H39.2529V7.73129H35.9283ZM35.9283 22V9.43502H39.2529V22H35.9283Z" fill="white"/>
<rect x="41" y="0.538452" width="45.7692" height="26.9231" rx="2.69231" fill="white"/>
<path d="M49.4401 6.19769V11.8663C50.3937 10.7515 51.533 10.1941 52.8581 10.1941C53.5382 10.1941 54.1517 10.3203 54.6986 10.5727C55.2454 10.8251 55.6556 11.1476 55.929 11.5402C56.2095 11.9329 56.3988 12.3676 56.4969 12.8443C56.6021 13.3211 56.6547 14.0608 56.6547 15.0634V21.6154H53.6995V15.7154C53.6995 14.5445 53.6434 13.8014 53.5312 13.4858C53.419 13.1703 53.2192 12.9214 52.9317 12.7392C52.6513 12.5499 52.2972 12.4552 51.8695 12.4552C51.3787 12.4552 50.9405 12.5744 50.5549 12.8128C50.1693 13.0512 49.8854 13.4122 49.7031 13.896C49.5278 14.3728 49.4401 15.0809 49.4401 16.0204V21.6154H46.4849V6.19769H49.4401ZM66.583 21.6154V19.9432C66.1763 20.5391 65.64 21.0089 64.9739 21.3524C64.3149 21.696 63.6172 21.8678 62.8811 21.8678C62.1309 21.8678 61.4578 21.703 60.8618 21.3735C60.2659 21.0439 59.8347 20.5812 59.5683 19.9852C59.3018 19.3893 59.1686 18.5655 59.1686 17.5138V10.4465H62.1239V15.5787C62.1239 17.1492 62.1764 18.1133 62.2816 18.4708C62.3938 18.8214 62.5936 19.1018 62.8811 19.3122C63.1685 19.5155 63.5331 19.6172 63.9748 19.6172C64.4796 19.6172 64.9318 19.4804 65.3315 19.207C65.7311 18.9266 66.0046 18.583 66.1518 18.1764C66.299 17.7627 66.3727 16.7566 66.3727 15.158V10.4465H69.3279V21.6154H66.583ZM71.8418 21.6154V6.19769H74.7971V11.7506C75.7085 10.7129 76.7882 10.1941 78.0362 10.1941C79.3964 10.1941 80.5217 10.6884 81.4121 11.677C82.3026 12.6585 82.7478 14.0713 82.7478 15.9152C82.7478 17.8223 82.292 19.2911 81.3806 20.3218C80.4761 21.3524 79.3754 21.8678 78.0783 21.8678C77.4403 21.8678 76.8093 21.71 76.1853 21.3945C75.5683 21.072 75.0354 20.5987 74.5867 19.9747V21.6154H71.8418ZM74.776 15.789C74.776 16.9459 74.9583 17.8013 75.3229 18.3551C75.8347 19.1404 76.5148 19.533 77.3632 19.533C78.0152 19.533 78.5691 19.2561 79.0248 18.7022C79.4876 18.1413 79.7189 17.2614 79.7189 16.0625C79.7189 14.7864 79.4876 13.868 79.0248 13.3071C78.5621 12.7392 77.9696 12.4552 77.2475 12.4552C76.5393 12.4552 75.9504 12.7321 75.4806 13.286C75.0109 13.8329 74.776 14.6672 74.776 15.789Z" fill="black"/>
</svg>
