<svg width="64" height="64" viewBox="0 0 64 64" fill="none" xmlns="http://www.w3.org/2000/svg">
<g clip-path="url(#clip0_26385_104147)">
<path d="M0 32C0 49.6731 14.3269 64 32 64C49.6731 64 64 49.6731 64 32C64 14.3269 49.6731 0 32 0C14.3269 0 0 14.3269 0 32Z" fill="#00434F"/>
<path d="M51 43V21L32 10L13 21V43L32 54L51 43Z" fill="#E3A355"/>
<path d="M32 10L13 21V43L32 32V10Z" fill="#FFFAEE"/>
<path d="M21.3907 33.8895V24.3216L18.4115 27.582L17.3779 25.6319L21.9075 20.208L24.9171 18.4712V31.8479L21.3907 33.8895Z" fill="#001C20"/>
<path d="M41.7281 33.4018V31.3603L35.9521 28.039V25.7841L38.6577 18.5625L42.1233 20.5431L39.0226 27.1858L41.7586 28.7703L41.9409 25.7536L44.7681 27.3381V30.5376L45.8017 31.147V33.737L44.7681 33.1276V35.1691L41.7281 33.4018Z" fill="#001C20"/>
<path d="M37.9271 39.5571L35.9511 42.9698L39.6599 45.8646L33.4583 45.8341L29.9015 48.7593L28.0471 45.3161L22.1191 44.2496L27.1655 42.1776L27.0743 38.582L32.0599 40.715L37.9271 39.5571Z" fill="#001C20"/>
</g>
<defs>
<clipPath id="clip0_26385_104147">
<rect width="64" height="64" rx="32" fill="white"/>
</clipPath>
</defs>
</svg>
