<svg width="1529" height="283" viewBox="0 0 1529 283" fill="none" xmlns="http://www.w3.org/2000/svg">
<path d="M1514.05 283H1259.35L1245.2 254.7H1528.2L1514.05 283Z" fill="#E3A355"/>
<path d="M1514.05 0H1259.35L1245.2 254.7H1528.2L1514.05 0Z" fill="#F3E4BF"/>
<path d="M933.9 169.8H1216.9L1202.75 283H948.05L933.9 169.8Z" fill="#E3A355"/>
<path d="M1216.9 169.8H933.9L948.05 0H1202.75L1216.9 169.8Z" fill="#F3E4BF"/>
<path d="M622.6 141.5H905.6L891.45 283H636.75L622.6 141.5Z" fill="#E3A355"/>
<path d="M905.6 141.5H622.6L636.75 0H891.45L905.6 141.5Z" fill="#F3E4BF"/>
<path d="M594.299 113.2H311.299L325.449 0H580.149L594.299 113.2Z" fill="#F3E4BF"/>
<path d="M311.299 113.2H594.299L580.149 283H325.449L311.299 113.2Z" fill="#E3A355"/>
<path d="M14.15 0H268.85L283 28.3H0L14.15 0Z" fill="#E3A355"/>
<path d="M14.15 283H268.85L283 28.2998H0L14.15 283Z" fill="#F3E4BF"/>
<path d="M123.686 217.593V127.486L91.152 141.839L79.832 117.728L129.165 91.5107H161.879V217.593H123.686Z" fill="#001C20"/>
<path d="M454.295 95.722C448.424 95.722 442.258 95.5258 435.798 95.1334C429.346 94.7485 423.165 94.2731 417.301 93.6844C411.438 93.0958 406.525 92.5751 402.517 92.1223L404.306 76.2743C408.577 76.5007 413.543 76.8101 419.203 77.2025C424.863 77.595 430.561 77.927 436.296 78.1987C442.017 78.4704 447.02 78.6062 451.307 78.6062C454.624 78.6777 457.939 78.4046 461.2 77.7912C463.177 77.4815 465.036 76.6534 466.589 75.3913C467.153 74.8681 467.597 74.2288 467.89 73.5174C468.183 72.8061 468.318 72.0396 468.287 71.2709C468.31 70.6327 468.178 69.9984 467.902 69.4226C467.626 68.8467 467.214 68.3467 466.702 67.9654C464.829 66.8589 462.748 66.1499 460.589 65.8825C457.57 65.2939 453.276 64.7279 447.707 64.1845C440.362 63.5283 433.055 62.5007 425.814 61.1055C420.866 60.2328 416.055 58.7103 411.505 56.5775C408.295 55.1325 405.585 52.7691 403.717 49.7855C401.653 45.6568 400.901 40.9959 401.56 36.4274C402.22 31.859 404.26 27.6013 407.408 24.2249C412.382 20.1632 418.355 17.5124 424.705 16.55C433.481 14.9574 442.388 14.1993 451.307 14.286C456.106 14.286 461.517 14.4445 467.585 14.7388C473.652 15.0331 479.584 15.418 485.38 15.8029C491.176 16.1877 496.224 16.6179 500.481 17.0707L499.077 33.3262L484.995 32.5791C479.576 32.3074 474.143 32.0584 468.694 31.832C463.215 31.5829 458.438 31.4697 454.295 31.4697C451.053 31.429 447.812 31.6486 444.605 32.1263C442.62 32.3242 440.707 32.9748 439.013 34.028C438.469 34.4035 438.027 34.9084 437.726 35.4973C437.426 36.0862 437.277 36.7405 437.292 37.4014C437.27 38.1144 437.424 38.822 437.74 39.4616C438.056 40.1012 438.524 40.6533 439.104 41.0691C441.023 42.2501 443.166 43.021 445.398 43.3331C448.416 43.9217 452.718 44.6009 458.302 45.3707C466.951 46.4574 474.15 47.6347 480.082 48.744C484.945 49.581 489.684 51.0262 494.187 53.0456C497.349 54.4193 500.029 56.7054 501.884 59.6113C503.606 62.7549 504.435 66.309 504.284 69.8898C504.415 72.6947 503.968 75.4966 502.971 78.1216C501.974 80.7465 500.448 83.1386 498.488 85.1492C493.711 89.4481 487.818 92.3123 481.486 93.4128C472.531 95.1509 463.415 95.9251 454.295 95.722Z" fill="#001C20"/>
<path d="M712.982 118.86V15.9381H765.054C775.297 15.7096 785.524 16.8595 795.46 19.3567C802.7 21.0696 809.167 25.139 813.844 30.9258C817.979 36.3594 820.047 43.906 820.047 53.5658C820.047 63.2255 817.979 70.8854 813.844 76.5454C809.241 82.5513 802.775 86.8593 795.46 88.7936C785.559 91.5044 775.316 92.7553 765.054 92.5066H748.663V118.86H712.982ZM748.573 70.6137H763.583C770.782 70.6137 775.944 69.2477 779.069 66.5158C782.193 63.7764 783.778 59.4748 783.778 53.5884C783.778 47.702 782.238 43.4004 779.25 41.0232C776.261 38.646 770.986 37.4461 763.673 37.4461H748.663L748.573 70.6137Z" fill="#001C20"/>
<path d="M696.724 266.608L676.732 163.596H712.323L724.707 239.825H728.918L744.766 164.796H784.159L800.551 239.825H804.762L815.561 163.596H851.536L832.02 266.608H778.092L764.1 192.507H763.693L749.701 266.608H696.724Z" fill="#001C20"/>
<path d="M1057.52 144.059V25.4702H1093.31V144.059H1057.52Z" fill="#001C20"/>
<path d="M459.593 257.145V239.78H402.02V217.14L426.765 139.236H466.747L436.568 213.699H459.593L462.197 187.55L494.391 186.848V213.699H503.583V239.825H494.391V257.19L459.593 257.145Z" fill="#001C20"/>
<path d="M1057.52 268.85V187.459H1093.31V268.85H1057.52Z" fill="#001C20"/>
<path d="M1324.62 189.995V64.2974H1366.98L1407.73 135.591H1411.12V64.2974H1448.84V189.995H1406.39L1365.94 116.46H1362.34V189.995H1324.62Z" fill="#001C20"/>
</svg>
