<svg width="114" height="36" viewBox="0 0 114 36" fill="none" xmlns="http://www.w3.org/2000/svg">
<g clip-path="url(#clip0_13873_4678)">
<path d="M100.539 17.0104C99.9267 17.4312 99.0403 17.6393 97.8272 17.6393H97.3H96.6226L97.545 12.7126H98.0144H98.4314C99.4393 12.7126 100.176 12.8722 100.682 13.198C101.079 13.4536 101.548 13.9581 101.548 14.9157C101.548 16.0709 101.001 16.6931 100.539 17.0104ZM28.7071 23.192H19.3886L19.9908 19.9706H25.8362L26.5003 16.3454H20.711L21.2705 13.1591H30.5729L28.7071 23.192ZM105.56 10.3965C104.189 9.46835 102.116 9.00095 99.3985 9.00095H92.2792L89.6334 23.192H80.3064L80.9039 19.9725H86.5241L87.1901 16.3558L81.5756 16.3653L82.1769 13.1591H87.9643L88.7347 9H76.9785L74.4677 22.4615H70.1575L72.6864 9H66.5427L64.0319 22.4615H59.8272L62.3599 9H56.2219L53.5695 23.1911H44.1769L44.7687 19.9715H50.4127L51.0777 16.3767L45.4423 16.372L46.0408 13.1601H51.8909L52.6566 9.00095H16.0398L13.9555 20.248L9.80305 9.00095H3.43045L0 27.354H6.08571L8.16145 15.7992L12.1914 27.354H34.0053L36.6567 13.1601H40.0701L37.4177 27.354H94.8167L96.4792 18.3936L99.1734 27.354H105.263L102.472 20.0323L103.11 19.8946C104.513 19.5972 105.612 18.9598 106.374 18.0012C107.137 17.0341 107.525 15.7934 107.525 14.3019C107.527 12.5663 106.883 11.2885 105.56 10.3965Z" fill="#8DC640"/>
<path d="M110.577 25.1834L111.407 25.1406C111.581 25.1311 111.72 25.1055 111.819 25.0646C111.916 25.0257 111.988 24.963 112.036 24.8794C112.083 24.7977 112.105 24.7102 112.099 24.6181C112.092 24.4803 112.036 24.3711 111.93 24.2856C111.826 24.2039 111.665 24.1688 111.449 24.1802L110.525 24.2267L110.577 25.1834ZM110.271 26.8126L110.121 23.9255L111.418 23.8629C111.677 23.8477 111.874 23.8647 112.012 23.9094C112.152 23.954 112.264 24.0414 112.351 24.1687C112.44 24.297 112.489 24.4357 112.495 24.5953C112.507 24.8014 112.447 24.9753 112.32 25.1244C112.194 25.2707 111.992 25.3714 111.713 25.4227C111.817 25.4674 111.899 25.5102 111.955 25.5529C112.073 25.6498 112.185 25.7733 112.294 25.9224L112.839 26.6834L112.357 26.7071L111.94 26.1248C111.817 25.9557 111.719 25.8274 111.641 25.741C111.563 25.6517 111.495 25.5928 111.435 25.5576C111.375 25.5244 111.314 25.5016 111.256 25.4892C111.209 25.4835 111.139 25.4816 111.038 25.4873L110.591 25.5092L110.655 26.7917L110.271 26.8126Z" fill="#8DC640"/>
<path d="M109.004 25.4151C108.975 24.8175 109.181 24.2466 109.584 23.8048C109.991 23.3593 110.55 23.098 111.154 23.0686C112.401 23.004 113.468 23.954 113.533 25.189C113.535 25.226 113.538 25.2669 113.538 25.302C113.538 26.4857 112.594 27.4766 111.386 27.5393C110.135 27.601 109.07 26.6491 109.004 25.4151ZM111.128 22.6059C110.4 22.6449 109.729 22.9584 109.241 23.4932C108.751 24.029 108.503 24.7216 108.54 25.4417C108.62 26.9265 109.906 28.0713 111.41 27.9962C112.911 27.9202 114.075 26.6491 113.997 25.1652V25.1633C113.921 23.6766 112.635 22.5318 111.128 22.6059Z" fill="#8DC640"/>
</g>
<defs>
<clipPath id="clip0_13873_4678">
<rect width="114.001" height="36" fill="white"/>
</clipPath>
</defs>
</svg>
