<?xml version="1.0" encoding="utf-8"?>
<!-- Generator: Adobe Illustrator 21.0.1, SVG Export Plug-In . SVG Version: 6.00 Build 0)  -->
<svg version="1.1" id="Слой_1" xmlns="http://www.w3.org/2000/svg" xmlns:xlink="http://www.w3.org/1999/xlink" x="0px" y="0px"
	 width="17.1px" height="11.4px" viewBox="0 0 17.1 11.4" style="enable-background:new 0 0 17.1 11.4;" xml:space="preserve">
<style type="text/css">
	.st0{fill:#FFFFFF;}
</style>
<path class="st0" d="M1,4.7h12.5l-3-3c-0.4-0.4-0.4-1,0-1.4l0,0c0.4-0.4,1-0.4,1.4,0L16.8,5c0.4,0.4,0.4,1,0,1.4l0,0L12,11.1
	c-0.2,0.2-0.5,0.3-0.7,0.3c-0.3,0-0.5-0.1-0.7-0.3c-0.4-0.4-0.4-1,0-1.4l0,0l3-3H1c-0.6,0-1-0.4-1-1C0,5.1,0.5,4.7,1,4.7L1,4.7z"/>
</svg>
