<svg width="24" height="24" viewBox="0 0 24 24" fill="none" xmlns="http://www.w3.org/2000/svg">
<g clip-path="url(#clip0_6005_128335)">
<path d="M11.8702 24C18.426 24 23.7405 18.6274 23.7405 12C23.7405 5.37258 18.426 0 11.8702 0C5.31449 0 0 5.37258 0 12C0 18.6274 5.31449 24 11.8702 24Z" fill="#1940EE"/>
<path fill-rule="evenodd" clip-rule="evenodd" d="M11.2217 0.0175781C11.2216 0.962965 11.1154 1.90058 11.0329 2.62911L11.0068 2.86071C10.7056 5.57997 5.56725 5.02108 3.49352 4.79553L3.49326 4.7955C3.40656 4.78607 3.32523 4.77722 3.24983 4.76922C3.06887 4.74943 2.97839 4.64764 2.97839 4.46386V4.05011C3.97263 2.91447 5.17646 1.97071 6.52863 1.28072C6.56046 1.30157 6.59424 1.31944 6.62955 1.33407C6.70365 1.36476 6.78306 1.38056 6.86327 1.38056H7.12621C7.20642 1.38056 7.28583 1.36476 7.35993 1.33407C7.43402 1.30338 7.50135 1.2584 7.55806 1.20169C7.61477 1.14497 7.65976 1.07765 7.69045 1.00355C7.72114 0.929456 7.73694 0.85004 7.73694 0.76984V0.747488C8.8314 0.336466 10.0021 0.0839644 11.2217 0.0175781ZM13.5 0.112143V13.3716C13.5 13.4492 13.5308 13.5237 13.5857 13.5786C13.6406 13.6334 13.715 13.6643 13.7926 13.6643L19.9211 13.694C19.9987 13.694 20.0731 13.6631 20.128 13.6082C20.1829 13.5534 20.2137 13.4789 20.2137 13.4013L20.2222 10.5004C20.2222 10.4228 20.1914 10.3483 20.1365 10.2935C20.0816 10.2386 20.0072 10.2077 19.9295 10.2077H17.0795C17.0019 10.2077 16.9275 10.1769 16.8726 10.122C16.8177 10.0672 16.7869 9.99272 16.7869 9.91511V6.47555C16.7869 6.39867 16.8171 6.32487 16.8711 6.27011C16.925 6.21535 16.9984 6.18403 17.0753 6.18292L19.3612 6.16595C19.4 6.16596 19.4384 6.15825 19.4742 6.14328C19.51 6.12831 19.5424 6.10637 19.5697 6.07875C19.5969 6.05112 19.6184 6.01836 19.6328 5.98237C19.6473 5.94637 19.6544 5.90786 19.6539 5.86907L19.6454 3.60855C19.6454 3.53094 19.6146 3.45651 19.5597 3.40163C19.5048 3.34675 19.4304 3.31592 19.3528 3.31592H17.0795C17.0019 3.31592 16.9275 3.28508 16.8726 3.2302C16.8177 3.17532 16.7869 3.10089 16.7869 3.02328V1.0745C15.7611 0.601988 14.6571 0.272767 13.5 0.112143ZM16.7869 22.9254V19.7025C16.7868 19.6263 16.8165 19.5531 16.8696 19.4985C16.9226 19.4438 16.9949 19.412 17.071 19.4098L19.8956 19.3505C19.9718 19.3483 20.044 19.3165 20.0971 19.2618C20.1501 19.2072 20.1798 19.134 20.1798 19.0578V16.2926C20.1798 16.215 20.1489 16.1406 20.0941 16.0857C20.0392 16.0308 19.9647 16 19.8871 16H13.7926C13.715 16 13.6406 16.0308 13.5857 16.0857C13.5308 16.1406 13.5 16.215 13.5 16.2926V23.8878C14.6571 23.7272 15.7611 23.398 16.7869 22.9254ZM10.5277 23.9241C10.7886 23.6429 10.9589 23.2933 11.0068 22.8607L11.0329 22.6291C11.2548 20.6697 11.648 17.1977 9.68786 16.13C9.48994 16.0226 9.48287 15.9039 9.66665 15.7738C10.4385 15.2224 10.8796 14.7941 11.0238 13.7974C11.9653 7.27034 8.93718 6.46452 3.19469 7.24489C3.05049 7.26468 2.97839 7.34809 2.97839 7.49511V19.9498C4.87427 22.1153 7.53227 23.5832 10.5277 23.9241ZM7.74481 13.8925C7.74578 14.0032 7.71506 14.1067 7.66112 14.1945C7.63868 14.2312 7.61209 14.2652 7.58183 14.296C7.52952 14.3492 7.46723 14.3917 7.39853 14.4208C7.32983 14.45 7.25606 14.4653 7.18143 14.466L6.84214 14.4689C6.69143 14.4702 6.54637 14.4116 6.43887 14.306C6.39271 14.2606 6.35509 14.2082 6.3271 14.1512C6.30282 14.1019 6.28548 14.0485 6.27635 13.9924C6.27168 13.9639 6.26917 13.9349 6.26891 13.9056L6.2447 11.132C6.24454 11.1142 6.24522 11.0965 6.24673 11.0788C6.27093 10.7895 6.51209 10.5611 6.80808 10.5586L7.14736 10.5556C7.46122 10.5529 7.71787 10.8051 7.72061 11.1189L7.74481 13.8925ZM7.73694 17.9622C7.73694 17.8002 7.67259 17.6449 7.55806 17.5304C7.44353 17.4158 7.28819 17.3515 7.12621 17.3515H6.86327C6.70129 17.3515 6.54595 17.4158 6.43142 17.5304C6.31689 17.6449 6.25254 17.8002 6.25254 17.9622V20.7698C6.25254 20.85 6.26834 20.9295 6.29903 21.0036C6.32972 21.0776 6.37471 21.145 6.43142 21.2017C6.48813 21.2584 6.55546 21.3034 6.62955 21.3341C6.70365 21.3648 6.78306 21.3806 6.86327 21.3806H7.12621C7.20642 21.3806 7.28583 21.3648 7.35993 21.3341C7.43402 21.3034 7.50135 21.2584 7.55806 21.2017C7.61477 21.145 7.65976 21.0776 7.69045 21.0036C7.72114 20.9295 7.73694 20.85 7.73694 20.7698V17.9622Z" fill="white"/>
</g>
<defs>
<clipPath id="clip0_6005_128335">
<rect width="24" height="24" fill="white"/>
</clipPath>
</defs>
</svg>
