<svg width="24" height="24" viewBox="0 0 24 24" fill="none" xmlns="http://www.w3.org/2000/svg">
<g clip-path="url(#clip0_6005_128324)">
<path d="M12 24C18.6274 24 24 18.6274 24 12C24 5.37258 18.6274 0 12 0C5.37258 0 0 5.37258 0 12C0 18.6274 5.37258 24 12 24Z" fill="#FFCC29"/>
<path fill-rule="evenodd" clip-rule="evenodd" d="M8.25 19.5V4.5H12.65C14.2055 4.5 15.4055 4.83333 16.2722 5.52222C17.1389 6.21111 17.5833 7.23333 17.5833 8.58892C17.5833 9.3 17.4278 9.94448 17.1167 10.5C16.7834 11.0555 16.3167 11.4556 15.6722 11.7445C16.4722 11.9222 17.05 12.3222 17.4277 12.9445C17.8055 13.5667 18.0056 14.2778 18.0056 15.1222C18.0056 16.5445 17.5833 17.6333 16.7611 18.3889C15.9389 19.1222 14.7833 19.5 13.25 19.5H8.25ZM10.9611 10.8333H12.5833C13.1833 10.8111 13.65 10.6334 13.9611 10.3C14.2722 9.96668 14.4278 9.50002 14.4278 8.85555C14.4278 8.16667 14.2722 7.65555 13.9389 7.32222C13.6056 6.98889 13.1167 6.83333 12.45 6.83333H10.9611V10.8333ZM10.9611 12.8778V17.1445H13.0278C13.65 17.1445 14.1167 16.9666 14.4278 16.6333C14.7167 16.2778 14.8722 15.7889 14.8722 15.1C14.8722 14.3889 14.7389 13.8333 14.4944 13.4555C14.2278 13.0556 13.8056 12.8778 13.2278 12.8778H10.9611Z" fill="white"/>
</g>
<defs>
<clipPath id="clip0_6005_128324">
<rect width="24" height="24" fill="white"/>
</clipPath>
</defs>
</svg>
