<?xml version="1.0" encoding="utf-8"?>
<!-- Generator: Adobe Illustrator 24.2.1, SVG Export Plug-In . SVG Version: 6.00 Build 0)  -->
<svg version="1.1" id="Layer_1" xmlns="http://www.w3.org/2000/svg" xmlns:xlink="http://www.w3.org/1999/xlink" x="0px" y="0px"
	 viewBox="0 0 40 24" style="enable-background:new 0 0 40 24;" xml:space="preserve">
<style type="text/css">
	.st0{fill:#8F9395;}
</style>
<g transform="translate(-7.143054,659.000000) scale(0.100000,-0.100000)">
	<path class="st0" d="M150.243,6489.607c-31.058-55.251-56.486-100.65-56.563-100.907c-0.115-0.441,14.476-0.515,91.795-0.515
		h91.948v45.215v45.215h-34.351l-34.39-0.037l-6.97-12.756l-6.932-12.756l26.386-0.11l26.386-0.074v-16.91v-16.91h-49.402H148.75
		l1.34,2.316c0.728,1.25,19.301,33.636,41.283,71.94l40.019,69.661h7.966h8.004l0.115-29.666l0.077-29.703h14.935h14.935v43.194
		V6590h-35.347H206.73L150.243,6489.607z"/>
	<path class="st0" d="M286.232,6489.092v-100.907h15.701h15.701v32.349v32.349l30.675-0.073l30.675-0.11l18.037-31.798
		c9.957-17.498,18.229-32.019,18.382-32.276c0.23-0.331,4.174-0.441,17.157-0.441c9.229,0,16.812,0.11,16.812,0.22
		c0,0.147-25.467,45.546-56.563,100.908L336.208,6590h-24.969h-25.007V6489.092z M341.033,6518.869
		c12.599-21.983,22.939-40.032,22.939-40.106c0-0.073-10.416-0.147-23.169-0.147h-23.169v40.326c0,22.167,0.115,40.216,0.23,40.106
		C317.979,6558.9,328.396,6540.851,341.033,6518.869z"/>
	<path class="st0" d="M88.357,6380.024c-0.153-0.257-4.021-7.095-8.617-15.182l-8.31-14.705l99.914-0.11
		c54.955-0.037,144.95-0.037,199.981,0l100.105,0.11l-8.502,15.072l-8.502,15.072l-182.901,0.11
		C125.504,6380.465,88.625,6380.392,88.357,6380.024z"/>
</g>
</svg>
