<svg xmlns="http://www.w3.org/2000/svg" width="133" height="25" fill="none"><g filter="url(#a)"><mask id="c" width="131" height="23" x="0" y="0" fill="#000" maskUnits="userSpaceOnUse"><path fill="#fff" d="M0 0h131v23H0z"/><path d="M1.884 21.576 3.43 14.23h1.385a38 38 0 0 0 1.633-2.59 44 44 0 0 0 1.547-2.964 55 55 0 0 0 1.472-3.427q.72-1.837 1.418-3.953h8.228l-2.75 12.933h1.998l-1.557 7.348H13.55L14.538 17H6.116l-.999 4.576zm6.563-7.347h4.555l2.17-10.163h-2.149q-.386 1.107-.87 2.396-.483 1.279-1.063 2.632-.57 1.353-1.236 2.664a29 29 0 0 1-1.407 2.47m12.644 2.986a7 7 0 0 1-.827-.043 13 13 0 0 1-.623-.086l.505-2.567q.215.032.408.064.204.021.44.021.613 0 1.096-.29.495-.29.86-.794.375-.506.622-1.16.258-.656.376-1.397a9 9 0 0 0 .13-1.504q0-1.02-.388-1.547-.386-.526-1.085-.526a2.4 2.4 0 0 0-.666.086q-.3.086-.633.204V5.055a5 5 0 0 1 .795-.204 6.3 6.3 0 0 1 1.117-.086q1.794 0 2.922 1.181 1.128 1.17 1.128 3.46v.3q0 .14-.022.28h1.783l1.075-4.996h3.104l-1.074 4.995h1.686a8.7 8.7 0 0 1 .795-2.062 6.9 6.9 0 0 1 1.268-1.665 5.4 5.4 0 0 1 1.719-1.096q.967-.397 2.137-.397.473 0 .827.043.366.042.634.096l-.558 2.568a8 8 0 0 0-.409-.054 3 3 0 0 0-.45-.032q-.603 0-1.096.29a3 3 0 0 0-.86.795 5.3 5.3 0 0 0-.623 1.16q-.247.655-.376 1.396a9.5 9.5 0 0 0-.118 1.504q0 1.02.387 1.547.397.527 1.085.527.365-.001.666-.086l.633-.204v2.62a6.144 6.144 0 0 1-1.912.28q-1.192 0-2.105-.505t-1.429-1.525-.515-2.546q0-.15.01-.29.01-.15.011-.194h-1.87L30.642 17h-3.105l1.031-4.845h-1.632a8.6 8.6 0 0 1-.795 2.03 6.1 6.1 0 0 1-1.246 1.601 5.3 5.3 0 0 1-1.687 1.053q-.956.376-2.116.376m25.599 0q-1.408 0-2.482-.505a3.8 3.8 0 0 1-1.665-1.547q-.602-1.03-.602-2.589 0-1.504.43-2.9A7.9 7.9 0 0 1 43.65 7.16a6.3 6.3 0 0 1 2.106-1.75q1.257-.645 2.9-.645 2.02 0 3.019.923 1.01.914 1.01 2.353 0 .945-.43 1.719-.42.773-1.278 1.332-.86.548-2.16.848-1.3.29-3.05.29h-.548l-.022.226v.215q0 .967.559 1.536t1.579.57q.945 0 1.719-.215.773-.216 1.826-.71v2.439a9.4 9.4 0 0 1-1.923.698q-.978.225-2.267.226m-1.118-7.165h.484q1.245 0 2.02-.269.783-.268 1.138-.709.365-.44.365-.956t-.3-.762q-.291-.258-.828-.258-.6 0-1.192.376-.59.376-1.042 1.042t-.645 1.536M53.64 17l2.567-12.01h3.244l-1.192 5.586 4.726-5.586h3.696l-5.146 6.027L64.511 17H60.88l-2.75-5.854L56.873 17zm12.718 0 2.546-12.01h2.471l-.226 2.224h.097q.462-.72 1.02-1.268a4.4 4.4 0 0 1 1.236-.86 3.55 3.55 0 0 1 1.525-.321q1.031 0 1.72.43.698.418 1.041 1.192.345.773.344 1.837 0 .398-.065.891-.064.495-.182 1.042L76.456 17h-3.233l1.471-7.015q.086-.364.13-.687a5 5 0 0 0 .042-.591q0-.677-.29-.999t-.87-.322q-.73 0-1.321.634-.591.622-1.032 1.675a14 14 0 0 0-.709 2.331L69.592 17zm18.466.215q-1.353 0-2.395-.559a4.07 4.07 0 0 1-1.622-1.59q-.58-1.042-.58-2.47 0-1.279.247-2.439.257-1.17.762-2.148A6.4 6.4 0 0 1 82.515 6.3a5.5 5.5 0 0 1 1.794-1.128q1.02-.408 2.298-.408 1.397 0 2.417.569 1.02.558 1.58 1.622.558 1.064.558 2.567 0 1.226-.247 2.364a8.5 8.5 0 0 1-.73 2.105 6.4 6.4 0 0 1-1.246 1.697 5.45 5.45 0 0 1-1.784 1.128q-1.02.398-2.33.398m.269-2.632q.537 0 .977-.268.44-.28.785-.763.343-.495.569-1.128.236-.645.354-1.386.13-.741.13-1.515 0-.612-.151-1.085a1.42 1.42 0 0 0-.484-.751q-.332-.28-.902-.28-.59 0-1.063.333a3 3 0 0 0-.806.87q-.344.549-.57 1.225-.225.677-.343 1.396a9 9 0 0 0-.108 1.365q0 .977.398 1.482t1.214.505M92.526 17l2.546-12.01h2.471l-.226 2.224h.097q.462-.72 1.02-1.268a4.4 4.4 0 0 1 1.236-.86 3.55 3.55 0 0 1 1.525-.321q1.236 0 1.912.655.689.645.903 1.794h.086q.45-.72 1.02-1.268a4.4 4.4 0 0 1 1.268-.86 3.7 3.7 0 0 1 1.536-.321q1.504 0 2.245.934.752.935.752 2.525 0 .398-.064.891-.065.495-.183 1.042L109.241 17h-3.233l1.482-7.015q.086-.364.129-.687t.043-.591q0-.677-.268-.999-.258-.322-.785-.322-.558 0-1.031.354-.472.355-.859.989a8 8 0 0 0-.688 1.471 14 14 0 0 0-.483 1.805L102.517 17h-3.234l1.472-7.015q.085-.364.129-.687.042-.323.043-.591 0-.677-.269-.999-.258-.322-.784-.322-.547 0-1.02.365-.474.365-.86 1.01a8 8 0 0 0-.687 1.471 15 15 0 0 0-.495 1.794L95.76 17zm24.847.215q-1.58 0-2.503-.462-.913-.473-1.3-1.257a4 4 0 0 1-.386-1.772q0-.28.053-.828.054-.547.194-1.203l1.45-6.703h3.233l-1.052 4.877q.43-.096.977-.161.558-.075 1.203-.075.977 0 1.73.397.763.387 1.192 1.107.44.709.44 1.686 0 1.117-.537 2.127t-1.697 1.644q-1.149.623-2.997.623m.258-2.256a1.8 1.8 0 0 0 1.257-.483q.236-.237.354-.57.129-.333.129-.73 0-.43-.15-.71a.94.94 0 0 0-.451-.429 1.8 1.8 0 0 0-.742-.14 4.4 4.4 0 0 0-.676.054 7 7 0 0 0-.731.14q-.129.58-.172.86a4.6 4.6 0 0 0-.043.687q0 .709.365 1.02.366.3.86.301M123.55 17l2.556-12.01h3.234L126.783 17z"/></mask><path fill="#fff" d="M1.884 21.576 3.43 14.23h1.385a38 38 0 0 0 1.633-2.59 44 44 0 0 0 1.547-2.964 55 55 0 0 0 1.472-3.427q.72-1.837 1.418-3.953h8.228l-2.75 12.933h1.998l-1.557 7.348H13.55L14.538 17H6.116l-.999 4.576zm6.563-7.347h4.555l2.17-10.163h-2.149q-.386 1.107-.87 2.396-.483 1.279-1.063 2.632-.57 1.353-1.236 2.664a29 29 0 0 1-1.407 2.47m12.644 2.986a7 7 0 0 1-.827-.043 13 13 0 0 1-.623-.086l.505-2.567q.215.032.408.064.204.021.44.021.613 0 1.096-.29.495-.29.86-.794.375-.506.622-1.16.258-.656.376-1.397a9 9 0 0 0 .13-1.504q0-1.02-.388-1.547-.386-.526-1.085-.526a2.4 2.4 0 0 0-.666.086q-.3.086-.633.204V5.055a5 5 0 0 1 .795-.204 6.3 6.3 0 0 1 1.117-.086q1.794 0 2.922 1.181 1.128 1.17 1.128 3.46v.3q0 .14-.022.28h1.783l1.075-4.996h3.104l-1.074 4.995h1.686a8.7 8.7 0 0 1 .795-2.062 6.9 6.9 0 0 1 1.268-1.665 5.4 5.4 0 0 1 1.719-1.096q.967-.397 2.137-.397.473 0 .827.043.366.042.634.096l-.558 2.568a8 8 0 0 0-.409-.054 3 3 0 0 0-.45-.032q-.603 0-1.096.29a3 3 0 0 0-.86.795 5.3 5.3 0 0 0-.623 1.16q-.247.655-.376 1.396a9.5 9.5 0 0 0-.118 1.504q0 1.02.387 1.547.397.527 1.085.527.365-.001.666-.086l.633-.204v2.62a6.144 6.144 0 0 1-1.912.28q-1.192 0-2.105-.505t-1.429-1.525-.515-2.546q0-.15.01-.29.01-.15.011-.194h-1.87L30.642 17h-3.105l1.031-4.845h-1.632a8.6 8.6 0 0 1-.795 2.03 6.1 6.1 0 0 1-1.246 1.601 5.3 5.3 0 0 1-1.687 1.053q-.956.376-2.116.376m25.599 0q-1.408 0-2.482-.505a3.8 3.8 0 0 1-1.665-1.547q-.602-1.03-.602-2.589 0-1.504.43-2.9A7.9 7.9 0 0 1 43.65 7.16a6.3 6.3 0 0 1 2.106-1.75q1.257-.645 2.9-.645 2.02 0 3.019.923 1.01.914 1.01 2.353 0 .945-.43 1.719-.42.773-1.278 1.332-.86.548-2.16.848-1.3.29-3.05.29h-.548l-.022.226v.215q0 .967.559 1.536t1.579.57q.945 0 1.719-.215.773-.216 1.826-.71v2.439a9.4 9.4 0 0 1-1.923.698q-.978.225-2.267.226m-1.118-7.165h.484q1.245 0 2.02-.269.783-.268 1.138-.709.365-.44.365-.956t-.3-.762q-.291-.258-.828-.258-.6 0-1.192.376-.59.376-1.042 1.042t-.645 1.536M53.64 17l2.567-12.01h3.244l-1.192 5.586 4.726-5.586h3.696l-5.146 6.027L64.511 17H60.88l-2.75-5.854L56.873 17zm12.718 0 2.546-12.01h2.471l-.226 2.224h.097q.462-.72 1.02-1.268a4.4 4.4 0 0 1 1.236-.86 3.55 3.55 0 0 1 1.525-.321q1.031 0 1.72.43.698.418 1.041 1.192.345.773.344 1.837 0 .398-.065.891-.064.495-.182 1.042L76.456 17h-3.233l1.471-7.015q.086-.364.13-.687a5 5 0 0 0 .042-.591q0-.677-.29-.999t-.87-.322q-.73 0-1.321.634-.591.622-1.032 1.675a14 14 0 0 0-.709 2.331L69.592 17zm18.466.215q-1.353 0-2.395-.559a4.07 4.07 0 0 1-1.622-1.59q-.58-1.042-.58-2.47 0-1.279.247-2.439.257-1.17.762-2.148A6.4 6.4 0 0 1 82.515 6.3a5.5 5.5 0 0 1 1.794-1.128q1.02-.408 2.298-.408 1.397 0 2.417.569 1.02.558 1.58 1.622.558 1.064.558 2.567 0 1.226-.247 2.364a8.5 8.5 0 0 1-.73 2.105 6.4 6.4 0 0 1-1.246 1.697 5.45 5.45 0 0 1-1.784 1.128q-1.02.398-2.33.398m.269-2.632q.537 0 .977-.268.44-.28.785-.763.343-.495.569-1.128.236-.645.354-1.386.13-.741.13-1.515 0-.612-.151-1.085a1.42 1.42 0 0 0-.484-.751q-.332-.28-.902-.28-.59 0-1.063.333a3 3 0 0 0-.806.87q-.344.549-.57 1.225-.225.677-.343 1.396a9 9 0 0 0-.108 1.365q0 .977.398 1.482t1.214.505M92.526 17l2.546-12.01h2.471l-.226 2.224h.097q.462-.72 1.02-1.268a4.4 4.4 0 0 1 1.236-.86 3.55 3.55 0 0 1 1.525-.321q1.236 0 1.912.655.689.645.903 1.794h.086q.45-.72 1.02-1.268a4.4 4.4 0 0 1 1.268-.86 3.7 3.7 0 0 1 1.536-.321q1.504 0 2.245.934.752.935.752 2.525 0 .398-.064.891-.065.495-.183 1.042L109.241 17h-3.233l1.482-7.015q.086-.364.129-.687t.043-.591q0-.677-.268-.999-.258-.322-.785-.322-.558 0-1.031.354-.472.355-.859.989a8 8 0 0 0-.688 1.471 14 14 0 0 0-.483 1.805L102.517 17h-3.234l1.472-7.015q.085-.364.129-.687.042-.323.043-.591 0-.677-.269-.999-.258-.322-.784-.322-.547 0-1.02.365-.474.365-.86 1.01a8 8 0 0 0-.687 1.471 15 15 0 0 0-.495 1.794L95.76 17zm24.847.215q-1.58 0-2.503-.462-.913-.473-1.3-1.257a4 4 0 0 1-.386-1.772q0-.28.053-.828.054-.547.194-1.203l1.45-6.703h3.233l-1.052 4.877q.43-.096.977-.161.558-.075 1.203-.075.977 0 1.73.397.763.387 1.192 1.107.44.709.44 1.686 0 1.117-.537 2.127t-1.697 1.644q-1.149.623-2.997.623m.258-2.256a1.8 1.8 0 0 0 1.257-.483q.236-.237.354-.57.129-.333.129-.73 0-.43-.15-.71a.94.94 0 0 0-.451-.429 1.8 1.8 0 0 0-.742-.14 4.4 4.4 0 0 0-.676.054 7 7 0 0 0-.731.14q-.129.58-.172.86a4.6 4.6 0 0 0-.043.687q0 .709.365 1.02.366.3.86.301M123.55 17l2.556-12.01h3.234L126.783 17z"/><path fill="url(#b)" d="m1.884 21.576-.979-.206-.254 1.206h1.233zM3.43 14.23v-1h-.812l-.167.794zm1.385 0v1h.525l.298-.432zm1.633-2.59.866.501.002-.003zm1.547-2.964.903.43.001-.003zm2.89-7.38v-1h-.723l-.227.687zm8.228 0 .978.208.257-1.208h-1.235zm-2.75 12.934-.978-.208-.257 1.207h1.235zm1.998 0 .979.207.255-1.207h-1.234zm-1.557 7.347v1h.81l.168-.792zm-3.255 0-.978-.21-.261 1.21h1.239zM14.538 17l.978.211.261-1.211h-1.239zm-8.422 0v-1h-.805l-.172.787zm-.999 4.576v1h.805l.172-.787zm3.33-7.347-.842-.539-.983 1.539h1.825zm4.555 0v1h.809l.169-.792zm2.17-10.163.978.21.258-1.21h-1.236zm-2.149 0v-1h-.71l-.234.67zm-.87 2.396.936.354v-.003zM11.09 9.094l-.92-.394-.002.006zm-1.236 2.664-.891-.453zm-7.97 9.818.978.206 1.547-7.347-.978-.207-.979-.205L.905 21.37zM3.43 14.23v1h1.385v-2H3.431zm1.385 0 .823.568a39 39 0 0 0 1.676-2.657l-.866-.5-.866-.5a37 37 0 0 1-1.59 2.52zm1.633-2.59.868.498a45 45 0 0 0 1.582-3.032l-.903-.43-.903-.43a43 43 0 0 1-1.511 2.897zm1.547-2.964.904.427a56 56 0 0 0 1.499-3.49l-.931-.364-.931-.365a54 54 0 0 1-1.445 3.364zm1.472-3.427.93.365a78 78 0 0 0 1.437-4.005l-.95-.313-.949-.313a76 76 0 0 1-1.4 3.901zm1.418-3.953v1h8.228v-2h-8.228zm8.228 0-.978-.208-2.75 12.934.978.207.978.209 2.75-12.934zm-2.75 12.934v1h1.998v-2h-1.998zm1.998 0-.978-.208-1.558 7.348.979.207.978.208 1.558-7.348zm-1.557 7.347v-1H13.55v2h3.255zm-3.255 0 .977.211.989-4.576-.978-.211-.977-.211-.989 4.576zM14.538 17v-1H6.116v2h8.422zm-8.422 0-.977-.213-.999 4.576.977.213.977.213 1-4.576zm-.999 4.576v-1H1.884v2h3.233zm3.33-7.347v1h4.555v-2H8.447zm4.555 0 .978.208 2.17-10.162-.978-.209-.978-.208-2.17 10.162zm2.17-10.163v-1h-2.149v2h2.149zm-2.149 0-.944-.33q-.382 1.095-.862 2.375l.936.35.937.352q.486-1.297.877-2.417zm-.87 2.396-.935-.354A65 65 0 0 1 10.171 8.7l.919.394.919.394q.588-1.373 1.08-2.672zM11.09 9.094l-.922-.388q-.555 1.32-1.205 2.599l.891.453.892.453q.682-1.342 1.266-2.73zm-1.236 2.664-.891-.453a28 28 0 0 1-1.358 2.385l.842.539.843.538q.77-1.204 1.456-2.556zm9.787 5.328-.982-.193-.198 1.01 1.015.17zm.505-2.567.148-.99-.945-.141-.185.938zm.408.064-.165.986.03.005.03.004zm1.536-.268-.506-.863-.009.005zm.86-.795-.803-.598-.008.011zm.622-1.16-.93-.367-.003.007-.002.007zm.376-1.397-.985-.17-.002.013zm-2.642-3.287h-1v1.416l1.334-.474zm0-2.621-.335-.943-.665.236v.707zm.795-.204-.18-.984h-.003zm4.039 1.095-.724.69.003.004zm1.106 4.04-.988-.153-.177 1.152h1.165zm1.783 0v1h.808l.17-.79zm1.075-4.996v-1h-.808l-.17.79zm3.104 0 .978.21.26-1.21h-1.238zm-1.074 4.995-.978-.21-.26 1.21h1.238zm1.686 0v1h.781l.19-.757zm.795-2.062-.876-.482-.002.003zm1.268-1.665-.686-.728-.005.005zm1.719-1.096.371.929.009-.004zm2.964-.354-.12.992h.004zm.634.096.977.213.217-.994-.998-.2zm-.558 2.568-.156.987.932.148.2-.923zm-.409-.054-.156.988.026.004.026.002zm-1.546.258-.507-.863-.008.005zm-.86.795-.802-.598-.008.012zm-.623 1.16-.93-.366-.003.006-.003.007zm-.376 1.396-.985-.171-.002.014zm.269 3.051-.806.592.008.01zm1.75.44.275.962.016-.004.016-.005zm.634-.203h1V12.94l-1.307.422zm0 2.62.307.952.693-.223v-.729zm-.805.194-.18-.984h-.003zm-3.212-.419-.484.875zm-1.429-1.525-.892.45zm-.505-2.836.997.076v-.005zm.011-.194h1v-1h-1zm-1.87 0v-1h-.809l-.168.792zM30.642 17v1h.81l.168-.792zm-3.105 0-.978-.208L26.301 18h1.235zm1.031-4.845.979.209.257-1.209h-1.236zm-1.632 0v-1h-.777l-.192.753zm-.795 2.03-.876-.482-.002.003zm-1.246 1.601-.675-.738-.005.005zm-3.803 1.429v-1q-.417 0-.71-.036l-.117.993-.117.993q.436.05.944.05zm-.827-.043.117-.993a12 12 0 0 1-.576-.08l-.164.987-.165.986q.29.048.67.093zm-.623-.086.98.193.506-2.568-.982-.192-.98-.193-.506 2.567zm.505-2.567-.149.989q.209.03.392.061l.165-.986.164-.986-.424-.067zm.408.064-.105.995q.264.027.545.027v-2q-.191 0-.336-.017zm.44.021v1c.573 0 1.12-.137 1.61-.432l-.514-.857-.515-.858a1.1 1.1 0 0 1-.58.147zm1.096-.29.506.863c.459-.27.846-.633 1.163-1.071l-.81-.586-.81-.587c-.17.235-.355.402-.555.519zm.86-.794.801.597q.468-.631.757-1.405l-.936-.353-.935-.352c-.136.359-.3.661-.49.915zm.622-1.16.93.366q.3-.764.434-1.606l-.988-.157-.987-.157a5.7 5.7 0 0 1-.32 1.187zm.376-1.397.986.169a10 10 0 0 0 .143-1.673h-2q0 .666-.114 1.335zm.13-1.504h1c0-.782-.145-1.544-.582-2.139l-.806.592-.806.592c.08.107.193.376.193.955zm-.388-1.547.806-.592c-.46-.627-1.133-.934-1.89-.934v2c.172 0 .224.044.278.118zm-1.085-.526v-1c-.32 0-.637.037-.94.124l.274.962.275.961c.098-.028.226-.047.392-.047zm-.666.086-.274-.962q-.334.096-.694.223l.335.943.334.942a10 10 0 0 1 .574-.185zm-.633.204h1V5.055h-2v2.62zm0-2.621.334.942c.16-.057.371-.113.643-.163l-.182-.983-.183-.984a6 6 0 0 0-.947.245zm.795-.204.178.983c.24-.043.55-.07.939-.07v-2c-.471 0-.906.032-1.296.103zm1.117-.086v1c.952 0 1.655.302 2.198.872l.724-.69.723-.691c-.96-1.006-2.206-1.491-3.645-1.491zm2.922 1.181-.72.694c.51.53.848 1.392.848 2.765h2c0-1.678-.415-3.121-1.408-4.152zm1.128 3.46h-1v.3h2v-.3zm0 .3h-1a1 1 0 0 1-.01.127l.988.152.989.152q.032-.213.033-.431zm-.022.28v1h1.783v-2h-1.783zm1.783 0 .978.21L31.08 5.2l-.977-.21-.978-.21-1.074 4.995zm1.075-4.996v1h3.104v-2h-3.104zm3.104 0-.978-.21-1.074 4.995.978.21.977.21L34.186 5.2zm-1.074 4.995v1h1.686v-2h-1.686zm1.686 0 .97.243a7.7 7.7 0 0 1 .703-1.826l-.878-.48-.878-.478a9.7 9.7 0 0 0-.887 2.299zm.795-2.062.876.482a5.9 5.9 0 0 1 1.083-1.425l-.691-.722-.691-.723a7.9 7.9 0 0 0-1.453 1.906zm1.268-1.665.686.727c.41-.385.875-.683 1.404-.894l-.371-.929-.372-.928q-1.142.457-2.033 1.296zm1.719-1.096.38.925c.51-.21 1.091-.322 1.757-.322v-2c-.895 0-1.739.152-2.518.472zm2.137-.397v1q.43.001.707.035l.12-.992.12-.993a8 8 0 0 0-.947-.05zm.827.043-.116.993q.336.04.554.084l.196-.98.196-.981a9 9 0 0 0-.713-.11zm.634.096-.977-.212-.559 2.567.978.213.977.212.558-2.567zm-.558 2.568.156-.988a9 9 0 0 0-.46-.06l-.105.994-.104.994q.178.02.357.047zm-.409-.054.156-.988a4 4 0 0 0-.607-.044v2q.183.001.295.02zm-.45-.032v-1c-.57 0-1.112.14-1.603.427l.507.863.506.862c.168-.098.357-.152.59-.152zm-1.096.29-.515-.858a4 4 0 0 0-1.147 1.055l.802.598.802.597a2 2 0 0 1 .572-.535zm-.86.795-.81-.586a6.3 6.3 0 0 0-.744 1.38l.931.366.93.366q.22-.552.503-.94zm-.623 1.16-.936-.353q-.282.75-.425 1.578l.985.171.985.172a6.7 6.7 0 0 1 .327-1.215zm-.376 1.396-.987-.157a10.5 10.5 0 0 0-.131 1.661h2q0-.684.106-1.346zm-.118 1.504h-1c0 .782.144 1.544.58 2.14l.807-.593.806-.592c-.079-.107-.193-.376-.193-.955zm.387 1.547-.798.603c.463.613 1.126.924 1.883.924v-2c-.16 0-.22-.041-.287-.13zm1.085.527v1c.32 0 .637-.038.94-.125l-.274-.961-.275-.962a1.4 1.4 0 0 1-.391.047zm.666-.086.306.952.634-.205-.307-.951-.307-.952-.632.204zm.633-.204h-1v2.62h2v-2.62zm0 2.62-.307-.951q-.248.082-.677.161l.179.984.179.984a7 7 0 0 0 .933-.226zm-.805.194-.183-.983a5 5 0 0 1-.924.069v2c.47 0 .904-.031 1.29-.103zm-1.107.086v-1c-.65 0-1.18-.137-1.621-.38l-.484.875-.484.875c.777.43 1.65.63 2.59.63zm-2.105-.505.484-.875c-.416-.23-.758-.582-1.02-1.101l-.893.45-.892.452c.425.841 1.036 1.506 1.837 1.95zm-1.429-1.525.893-.451c-.254-.502-.408-1.185-.408-2.095h-2c0 1.123.189 2.138.623 2.997zm-.515-2.546h1q0-.115.007-.214l-.997-.076-.997-.077q-.014.18-.014.367zm.01-.29.998.07c.006-.09.013-.192.013-.264h-2v-.01l-.001.025-.007.107zm.011-.194v-1h-1.87v2h1.87zm-1.87 0-.977-.208-1.031 4.845.978.208.978.208 1.031-4.844zM30.642 17v-1h-3.105v2h3.105zm-3.105 0 .978.208 1.032-4.844-.979-.209-.978-.208-1.031 4.845zm1.031-4.845v-1h-1.632v2h1.632zm-1.632 0-.97-.247a7.6 7.6 0 0 1-.7 1.795l.875.482.875.484a9.6 9.6 0 0 0 .889-2.267zm-.795 2.03-.878-.479a5.1 5.1 0 0 1-1.043 1.342l.675.738.674.739a7.1 7.1 0 0 0 1.45-1.86zm-1.246 1.601-.68-.733c-.393.363-.848.649-1.373.855l.366.93.366.931a6.3 6.3 0 0 0 2-1.25zm-1.687 1.053-.366-.93c-.507.199-1.086.306-1.75.306v2c.882 0 1.714-.143 2.482-.445zm21.001-.129-.436.9.01.005zm-1.665-1.547-.864.504zm-.172-5.49.956.295v-.002zM43.65 7.16l-.79-.613-.003.005zm2.106-1.75-.456-.89-.004.001zm5.919.278-.68.735.01.007zm.58 4.072-.874-.486-.005.01zm-1.278 1.332.537.843.008-.005zm-2.16.848.218.976.008-.001zm-3.598.29v-1h-.92l-.077.917zm-.022.226-.994-.11-.006.055v.055zm5.683 1.396h1v-1.574l-1.425.67zm0 2.439.439.898.56-.274v-.624zm-1.923.698.225.975.01-.003zm-3.384-6.94-.976-.216-.27 1.217h1.246zm2.503-.268-.324-.946-.004.002zm1.139-.709-.77-.638-.005.006-.004.005zm.064-1.718-.664.747.015.013.015.012zm-2.588 9.86v-1c-.819 0-1.496-.146-2.057-.41l-.425.906-.425.905c.871.41 1.848.6 2.907.6zm-2.482-.504.436-.9a2.8 2.8 0 0 1-1.237-1.15l-.864.503-.864.504a4.8 4.8 0 0 0 2.093 1.943zm-1.665-1.547.864-.504c-.289-.495-.466-1.17-.466-2.085h-2c0 1.163.225 2.213.738 3.093zm-.602-2.589h1q.001-1.358.386-2.606l-.956-.294-.956-.294a10.8 10.8 0 0 0-.474 3.194zm.43-2.9.956.292q.382-1.243 1.116-2.197l-.794-.609-.793-.608a8.9 8.9 0 0 0-1.441 2.83zM43.65 7.16l.79.614a5.3 5.3 0 0 1 1.775-1.477l-.46-.888-.459-.888a7.3 7.3 0 0 0-2.435 2.026zm2.106-1.75.456.889c.675-.346 1.481-.534 2.444-.534v-2c-1.228 0-2.356.241-3.356.754zm2.9-.645v1c1.215 0 1.93.28 2.34.658l.679-.735.679-.734c-.923-.853-2.22-1.19-3.698-1.19zm3.019.923-.67.742c.45.407.68.916.68 1.611h2c0-1.224-.443-2.284-1.34-3.094zm1.01 2.353h-1c0 .472-.106.876-.304 1.233l.874.486.874.485a4.5 4.5 0 0 0 .556-2.204zm-.43 1.719-.88-.477c-.187.347-.487.674-.943.97l.545.839.545.838c.69-.448 1.241-1.009 1.612-1.694zm-1.278 1.332-.538-.843c-.453.288-1.059.535-1.847.717l.225.974.226.975c.945-.219 1.778-.538 2.471-.98zm-2.16.848-.217-.976c-.777.174-1.718.266-2.833.266v2c1.219 0 2.312-.1 3.268-.314zm-3.05.29v-1h-.548v2h.548zm-.548 0-.997-.083-.019.199.994.11.994.11.024-.253zm-.022.226h-1v.214h2v-.213zm0 .215h-1c0 .847.252 1.632.845 2.236l.714-.7.714-.7c-.152-.155-.273-.394-.273-.836zm.559 1.536-.714.7c.61.621 1.423.87 2.293.87v-2c-.49 0-.73-.132-.865-.27zm1.579.57v1c.705 0 1.37-.08 1.986-.252l-.267-.963-.268-.964a5.4 5.4 0 0 1-1.451.178zm1.719-.215.267.963c.588-.163 1.252-.424 1.984-.767l-.425-.905-.425-.906c-.672.316-1.225.528-1.669.651zm1.826-.71h-1v2.439h2v-2.439zm0 2.439-.44-.899a8.4 8.4 0 0 1-1.718.625l.235.972.235.972a10.4 10.4 0 0 0 2.127-.771zm-1.923.698-.225-.974c-.56.13-1.238.2-2.041.2v2c.914 0 1.748-.08 2.49-.251zm-3.384-6.94v1h.484v-2h-.484zm.484 0v1c.89 0 1.686-.093 2.347-.323l-.328-.945-.328-.944c-.37.128-.92.213-1.691.213zm2.02-.268.323.946c.623-.213 1.196-.533 1.594-1.028l-.78-.627-.778-.627c-.075.093-.261.246-.684.39zm1.138-.709.77.639c.374-.452.595-.992.595-1.595h-2c0 .085-.023.183-.135.318zm.365-.956h1c0-.539-.164-1.123-.666-1.535l-.635.773-.634.772a.3.3 0 0 1-.07-.091c-.006-.016.005.004.005.081zm-.3-.762.664-.748c-.437-.388-.983-.51-1.492-.51v2c.102 0 .156.012.178.019.018.005.006.005-.015-.014zm-.828-.258v-1c-.62 0-1.202.196-1.73.532l.538.844.537.843c.26-.165.474-.22.655-.22zm-1.192.376-.537-.844a4.6 4.6 0 0 0-1.333 1.325l.828.56.828.562c.235-.348.488-.593.75-.76zm-1.042 1.042-.828-.561a5.4 5.4 0 0 0-.793 1.88l.976.217.976.217a3.4 3.4 0 0 1 .497-1.192zM53.64 17l-.978-.21-.259 1.21h1.237zm2.567-12.01v-1h-.809l-.169.791zm3.244 0 .978.209.258-1.209h-1.236zm-1.192 5.586-.978-.209 1.741.855zm4.726-5.586v-1h-.463l-.3.354zm3.696 0 .76.65 1.408-1.65h-2.168zm-5.146 6.027-.76-.65-.43.503.295.592zM64.511 17v1h1.614l-.719-1.445zm-3.631 0-.905.425.27.575h.635zm-2.75-5.854.905-.426-1.26-2.683-.623 2.899zM56.873 17v1h.808l.17-.79zm-3.233 0 .978.21L57.185 5.2l-.978-.21-.978-.209-2.567 12.01zm2.567-12.01v1h3.244v-2h-3.244zm3.244 0-.978-.209-1.192 5.586.978.21.978.208 1.192-5.586zm-1.192 5.586.763.646 4.727-5.586-.764-.646-.763-.646-4.727 5.586zm4.726-5.586v1h3.696v-2h-3.696zm3.696 0-.76-.65-5.146 6.027.76.65.76.649 5.146-6.026zm-5.146 6.027-.895.445 2.975 5.983.896-.445.895-.445-2.976-5.984zM64.511 17v-1H60.88v2h3.63zm-3.631 0 .905-.425-2.75-5.855-.905.425-.905.426 2.75 5.854zm-2.75-5.854-.978-.21-1.257 5.854.978.21.978.21 1.257-5.855zM56.873 17v-1H53.64v2h3.233zm9.485 0-.978-.207L65.124 18h1.234zm2.546-12.01v-1h-.81l-.168.793zm2.471 0 .995.101.112-1.1h-1.107zm-.226 2.224-.995-.101-.111 1.1h1.106zm.097 0v1h.547l.295-.46zm2.256-2.127.418.908.006-.003zm3.244.107-.53.848.008.005.008.005zm1.321 3.921-.991-.13zm-.182 1.042-.978-.21-.001.006zM76.456 17v1h.813l.166-.796zm-3.233 0-.979-.205L71.991 18h1.232zm1.471-7.015-.973-.229-.003.012-.002.012zm-2.31-1.965.726.688.006-.007zm-1.03 1.675-.923-.386-.003.008zm-.71 2.331-.976-.213-.002.006zM69.592 17v1h.81l.168-.793zm-3.234 0 .979.207 2.546-12.01-.979-.207-.978-.207-2.546 12.01zm2.546-12.01v1h2.471v-2h-2.47zm2.471 0-.995-.1-.225 2.223.994.1.995.102.226-2.224zm-.226 2.224v1h.097v-2h-.097zm.097 0 .842.54q.406-.633.879-1.094l-.7-.714-.7-.714a8.3 8.3 0 0 0-1.162 1.442zm1.02-1.268.7.714c.295-.289.613-.508.954-.665l-.418-.908-.418-.908a5.4 5.4 0 0 0-1.518 1.053zm1.236-.86.424.906a2.55 2.55 0 0 1 1.101-.227v-2c-.69 0-1.345.133-1.95.416zm1.525-.321v1c.55 0 .928.114 1.19.277l.53-.848.53-.848c-.656-.41-1.425-.581-2.25-.581zm1.72.43-.515.857c.281.169.493.405.642.74l.914-.405.914-.406a3.57 3.57 0 0 0-1.441-1.644zm1.041 1.192-.914.406c.16.36.258.827.258 1.43h2c0-.814-.132-1.57-.43-2.242zm.344 1.837h-1q.001.317-.056.762l.991.13.992.129q.072-.545.073-1.021zm-.065.891-.991-.13a12 12 0 0 1-.169.961l.978.211.977.211q.126-.584.197-1.123zm-.182 1.042-.98-.204-1.428 6.843.98.204.978.204 1.429-6.842zM76.456 17v-1h-3.233v2h3.233zm-3.233 0 .978.205 1.472-7.014-.979-.206-.978-.205-1.472 7.015zm1.471-7.015.974.23q.096-.407.146-.785l-.99-.132-.992-.132q-.035.266-.111.59zm.13-.687.99.132q.052-.376.052-.723h-2q.001.19-.034.459zm.042-.591h1c0-.565-.117-1.19-.546-1.668l-.744.669-.743.669c-.022-.025-.014-.03 0 .02.016.054.033.152.033.31zm-.29-.999.744-.669c-.442-.49-1.044-.653-1.614-.653v2a.5.5 0 0 1 .16.018l-.008-.005a.1.1 0 0 1-.025-.022zm-.87-.322v-1c-.816 0-1.508.367-2.053.952l.732.682.731.681c.243-.26.432-.315.59-.315zm-1.321.634-.726-.689c-.5.527-.902 1.2-1.228 1.978l.922.386.923.386c.261-.624.546-1.07.834-1.373zm-1.032 1.675-.925-.378a15 15 0 0 0-.76 2.496l.976.213.977.214q.265-1.206.658-2.167zm-.709 2.331-.978-.207-1.052 4.974.978.207.978.207 1.053-4.974zM69.592 17v-1h-3.234v2h3.234zm12.837-.344-.477.88.004.002zm-1.622-1.59-.874.487.006.01zm-.333-4.909-.977-.215-.001.007zm.762-2.148-.886-.463-.002.004zM82.515 6.3l.686.727zm1.794-1.128.362.932.009-.004zm4.715.161-.487.873.007.004zm1.58 1.622-.886.465zm.311 4.93-.977-.211-.002.007zm-.73 2.106.89.455.002-.004zm-1.246 1.697.691.723.005-.005zm-1.784 1.128.363.932.005-.002zm-1.085-2.502.52.853.008-.004.008-.005zm.785-.763.814.58.006-.01zm.569-1.128-.94-.344-.002.008zm.354-1.386-.985-.171-.002.014zm-.021-2.6-.96.278.003.013.004.013zm-.484-.751-.642.766.013.01.014.012zm-1.965.053.572.82.004-.002zm-1.72 3.491-.986-.162-.002.013zm.29 2.847.787-.618zm.946 3.137v-1c-.761 0-1.393-.156-1.923-.44l-.472.881-.473.882c.86.46 1.825.677 2.868.677zm-2.395-.559.476-.879a3.08 3.08 0 0 1-1.23-1.208l-.868.497-.868.497a5.07 5.07 0 0 0 2.013 1.972zm-1.622-1.59.873-.486c-.289-.519-.453-1.168-.453-1.984h-2c0 1.089.221 2.086.706 2.957zm-.58-2.47h1q0-1.181.225-2.23l-.978-.209-.978-.208a12.7 12.7 0 0 0-.27 2.647zm.247-2.439.976.215a7.8 7.8 0 0 1 .675-1.904l-.889-.46-.888-.458a9.8 9.8 0 0 0-.851 2.392zm.762-2.148.887.462A5.4 5.4 0 0 1 83.2 7.028l-.686-.727-.687-.728a7.4 7.4 0 0 0-1.478 1.973zM82.515 6.3l.686.727c.42-.396.907-.704 1.47-.923l-.362-.932-.363-.932a6.5 6.5 0 0 0-2.118 1.333zm1.794-1.128.371.928c.545-.218 1.182-.336 1.927-.336v-2c-.959 0-1.854.153-2.67.48zm2.298-.408v1c.794 0 1.425.16 1.93.442l.487-.873.488-.873c-.856-.478-1.836-.696-2.905-.696zm2.417.569-.48.877c.502.275.89.67 1.174 1.21l.885-.465.886-.465a4.84 4.84 0 0 0-1.984-2.034zm1.58 1.622-.886.465c.28.534.444 1.222.444 2.102h2c0-1.124-.209-2.148-.673-3.032zm.558 2.567h-1q0 1.124-.224 2.152l.977.212.977.212q.27-1.248.27-2.576zm-.247 2.364-.979-.205a7.5 7.5 0 0 1-.644 1.86l.893.45.892.451q.555-1.1.817-2.351zm-.73 2.105-.89-.455a5.4 5.4 0 0 1-1.053 1.435l.697.718.696.717a7.4 7.4 0 0 0 1.44-1.96zm-1.246 1.697-.692-.722a4.45 4.45 0 0 1-1.46.92l.368.93.368.93c.8-.316 1.506-.76 2.107-1.335zm-1.784 1.128-.363-.931c-.544.212-1.194.329-1.968.329v2c.974 0 1.878-.148 2.694-.466zm-2.062-2.234v1a2.84 2.84 0 0 0 1.498-.415l-.52-.853-.521-.854a.84.84 0 0 1-.457.122zm.977-.268.536.844c.417-.264.77-.614 1.063-1.028l-.814-.58-.816-.579c-.164.231-.334.39-.504.498zm.785-.763.82.57q.427-.616.69-1.363l-.941-.335-.942-.335a3.8 3.8 0 0 1-.448.892zm.569-1.128.939.344q.271-.743.403-1.573l-.988-.157-.987-.157q-.106.653-.306 1.199zm.354-1.386.985.171a10 10 0 0 0 .144-1.686h-2q0 .69-.114 1.344zm.13-1.515h1c0-.488-.06-.955-.198-1.388l-.953.303-.953.304c.063.197.103.453.103.781zm-.151-1.085.96-.277a2.42 2.42 0 0 0-.828-1.262l-.616.788-.615.788c.038.03.094.089.138.241zm-.484-.751.643-.767c-.451-.378-1.004-.513-1.545-.513v2c.11 0 .177.014.215.025.034.011.044.02.045.02zm-.902-.28v-1c-.595 0-1.152.172-1.64.516l.577.817.576.818c.142-.1.295-.15.487-.15zm-1.063.333-.573-.82c-.433.302-.79.697-1.08 1.159l.847.531.847.532c.168-.268.348-.454.53-.582zm-.806.87-.847-.531q-.413.66-.671 1.44l.949.316.948.316a4.7 4.7 0 0 1 .468-1.01zm-.57 1.225-.948-.316q-.252.754-.382 1.55l.987.162.987.162q.105-.642.305-1.242zm-.343 1.396-.989-.15a10 10 0 0 0-.119 1.515h2q0-.574.097-1.215zm-.108 1.365h-1c0 .765.153 1.517.612 2.1l.786-.618.786-.618c-.07-.09-.184-.326-.184-.864zm.398 1.482-.786.619c.504.64 1.24.886 2 .886v-2c-.329 0-.403-.09-.428-.123zM92.526 17l-.978-.207L91.292 18h1.234zm2.546-12.01v-1h-.81l-.168.793zm2.471 0 .995.101.112-1.1h-1.107zm-.226 2.224-.994-.101-.112 1.1h1.106zm.097 0v1h.546l.296-.46zm2.256-2.127.418.908.006-.003zm3.437.333-.695.718.006.006.005.005zm.903 1.794-.983.184.152.816h.831zm.086 0v1h.553l.294-.469zm2.288-2.127.407.913.007-.003zm3.781.612-.783.622.004.005zm.688 3.416-.992-.13zm-.183 1.042-.978-.21-.001.006zM109.241 17v1h.813l.166-.796zm-3.233 0-.979-.207-.255 1.207h1.234zm1.482-7.015-.973-.229-.003.011-.002.012zm-.096-2.277-.781.625.006.008.006.007zm-2.675 1.02.853.521zm-.688 1.472-.941-.338-.004.011zm-.483 1.805.979.202.001-.006zM102.517 17v1h.814l.165-.798zm-3.234 0-.978-.205L98.052 18h1.231zm1.472-7.015-.974-.229-.002.012-.003.012zm-.097-2.277-.78.625.006.008.006.007zm-2.664 1.053.854.52.004-.006zm-.687 1.471-.942-.337-.003.01zm-.495 1.794-.977-.208v.001zM95.76 17v1h.81l.168-.793zm-3.234 0 .979.207 2.546-12.01-.979-.207-.978-.207-2.546 12.01zm2.546-12.01v1h2.471v-2h-2.47zm2.471 0-.995-.1-.225 2.223.994.1.995.102.226-2.224zm-.226 2.224v1h.097v-2h-.097zm.097 0 .842.54q.406-.633.879-1.094l-.7-.714-.7-.714a8.3 8.3 0 0 0-1.162 1.442zm1.02-1.268.7.714c.295-.289.613-.508.954-.665l-.418-.908-.418-.908a5.4 5.4 0 0 0-1.518 1.053zm1.236-.86.424.906a2.56 2.56 0 0 1 1.101-.227v-2c-.69 0-1.345.133-1.95.416zm1.525-.321v1c.648 0 1.005.168 1.217.373l.695-.718.696-.718c-.69-.669-1.608-.937-2.608-.937zm1.912.655-.684.73c.27.252.49.64.604 1.248l.983-.184.983-.184c-.173-.924-.554-1.732-1.202-2.34zm.903 1.794v1h.086v-2h-.086zm.086 0 .847.531q.391-.623.867-1.078l-.694-.72-.693-.721a7.6 7.6 0 0 0-1.175 1.457zm1.02-1.268.694.72q.448-.429.981-.666l-.407-.913-.408-.913a5.4 5.4 0 0 0-1.553 1.052zm1.268-.86.414.911a2.7 2.7 0 0 1 1.122-.232v-2a4.7 4.7 0 0 0-1.95.412zm1.536-.321v1c.784 0 1.205.233 1.462.556l.783-.622.784-.621c-.733-.923-1.808-1.313-3.029-1.313zm2.245.934-.779.627c.318.395.531.991.531 1.898h2c0-1.214-.288-2.3-.973-3.152zm.752 2.525h-1q.001.317-.056.762l.992.13.991.129a8 8 0 0 0 .073-1.021zm-.064.891-.992-.13q-.058.45-.169.961l.978.211.977.211a14 14 0 0 0 .197-1.123zm-.183 1.042-.979-.204-1.429 6.843.979.204.979.204 1.429-6.842zM109.241 17v-1h-3.233v2h3.233zm-3.233 0 .978.207 1.483-7.015-.979-.207-.978-.206-1.483 7.014zm1.482-7.015.974.23q.096-.407.146-.785l-.991-.132-.991-.132q-.035.266-.111.59zm.129-.687.991.132a5 5 0 0 0 .052-.723h-2q.001.19-.034.459zm.043-.591h1c0-.551-.104-1.163-.5-1.64l-.768.641-.769.64c-.022-.026-.012-.028.004.03.017.061.033.166.033.329zm-.268-.999.78-.625c-.412-.515-1.001-.697-1.565-.697v2c.076 0 .095.012.079.005a.19.19 0 0 1-.075-.059zm-.785-.322v-1c-.601 0-1.153.196-1.631.554l.6.8.6.8a.7.7 0 0 1 .431-.154zm-1.031.354-.6-.8c-.439.33-.805.764-1.113 1.268l.854.52.853.521c.208-.34.415-.565.606-.709zm-.859.989-.854-.521a9 9 0 0 0-.775 1.654l.941.338.941.338c.182-.507.384-.934.6-1.289zm-.688 1.471-.945-.327a15 15 0 0 0-.519 1.936l.981.196.98.196q.182-.907.448-1.674zm-.483 1.805-.979-.202-1.032 4.995.98.202.979.202 1.031-4.995zM102.517 17v-1h-3.234v2h3.234zm-3.234 0 .979.205 1.472-7.014-.979-.206-.979-.205-1.471 7.015zm1.472-7.015.973.23a8 8 0 0 0 .147-.785l-.991-.132-.991-.132q-.035.266-.112.59zm.129-.687.991.132a6 6 0 0 0 .052-.723h-2q.001.19-.034.459zm.043-.591h1c0-.551-.104-1.163-.501-1.64l-.768.641-.768.64c-.022-.026-.012-.028.004.03.016.061.033.166.033.329zm-.269-.999.781-.625c-.412-.515-1.001-.697-1.565-.697v2c.076 0 .094.012.08.005a.21.21 0 0 1-.076-.059zm-.784-.322v-1c-.607 0-1.158.208-1.632.574l.611.791.612.791a.64.64 0 0 1 .409-.156zm-1.02.365-.612-.791c-.435.336-.8.776-1.105 1.286l.857.515.858.514c.21-.35.418-.582.613-.733zm-.86 1.01-.853-.521c-.3.49-.556 1.044-.776 1.655l.942.337.94.338a7 7 0 0 1 .6-1.288zm-.687 1.471-.945-.327a16 16 0 0 0-.527 1.913l.978.208.977.21q.194-.902.462-1.677zm-.495 1.794-.978-.207-1.053 4.974.979.207.978.207 1.053-4.974zM95.76 17v-1h-3.234v2h3.234zm19.11-.247-.46.888.013.006zm-1.3-1.257-.899.438.002.004zm-.139-3.803-.978-.211v.003zm1.45-6.703v-1h-.807l-.171.789zm3.233 0 .978.211.261-1.21h-1.239zm-1.052 4.877-.978-.21-.33 1.53 1.527-.344zm.977-.161.117.993h.008l.008-.002zm2.933.322-.468.884.008.004.007.004zm1.192 1.107-.859.512.005.008.005.007zm-.097 3.813-.882-.47zm-1.697 1.644.477.879.003-.002zm-2.041-1.762-.371-.928-.011.004zm.559-.354.69.723.009-.008.008-.008zm.354-.57-.932-.36-.005.013-.005.013zm-.021-1.44-.888.461.004.007.003.007zm-1.869-.515.128.992.013-.002.013-.002zm-.731.14-.236-.972-.605.147-.135.608zm-.172.86.988.157.001-.006zm.322 1.707-.648.761.006.006.007.005zM123.55 17l-.978-.208-.257 1.208h1.235zm2.556-12.01v-1h-.809l-.169.792zm3.234 0 .978.208.257-1.208h-1.235zM126.783 17v1h.81l.168-.792zm-9.41.215v-1c-.972 0-1.633-.145-2.056-.357l-.447.895-.447.894c.809.405 1.817.568 2.95.568zm-2.503-.462.46-.888c-.454-.235-.715-.512-.863-.811l-.897.442-.897.442c.368.747.974 1.308 1.737 1.703zm-1.3-1.257.9-.437a3 3 0 0 1-.286-1.335h-2c0 .787.156 1.53.487 2.21zm-.386-1.772h1c0-.136.013-.372.049-.73l-.996-.098-.995-.097a10 10 0 0 0-.058.925zm.053-.828.996.098a10 10 0 0 1 .176-1.092l-.978-.209-.978-.208q-.15.7-.211 1.314zm.194-1.203.977.212 1.45-6.703-.977-.212-.978-.211-1.45 6.703zm1.45-6.703v1h3.233v-2h-3.233zm3.233 0-.977-.21-1.053 4.876.978.211.977.211 1.053-4.877zm-1.052 4.877.219.976q.367-.083.875-.144l-.117-.993-.117-.993a11 11 0 0 0-1.08.179zm.977-.161.133.991a8 8 0 0 1 1.07-.066v-2q-.703 0-1.336.084zm1.203-.075v1c.513 0 .925.103 1.262.281l.468-.884.467-.884c-.666-.352-1.407-.513-2.197-.513zm1.73.397-.453.892c.344.174.599.413.786.727l.859-.512.859-.513a3.88 3.88 0 0 0-1.599-1.486zm1.192 1.107-.849.527c.179.29.289.662.289 1.16h2c0-.806-.183-1.558-.59-2.215zm.44 1.686h-1c0 .577-.136 1.126-.419 1.658l.882.47.883.469a5.47 5.47 0 0 0 .654-2.597zm-.537 2.127-.882-.47c-.253.476-.665.892-1.294 1.236l.479.878.48.877c.917-.5 1.637-1.18 2.1-2.051zm-1.697 1.644-.476-.88c-.572.31-1.391.503-2.521.503v2c1.333 0 2.513-.223 3.474-.744zm-2.739-1.633v1c.37 0 .735-.062 1.08-.205l-.382-.924-.382-.924a.8.8 0 0 1-.316.053zm.698-.129.371.929c.326-.13.623-.316.878-.56l-.69-.723-.691-.724a.7.7 0 0 1-.239.15zm.559-.354.707.707c.269-.269.464-.588.59-.942l-.943-.335-.942-.334a.5.5 0 0 1-.119.197zm.354-.57.933.361a3 3 0 0 0 .196-1.091h-2c0 .155-.025.275-.061.37zm.129-.73h1c0-.396-.068-.809-.27-1.183l-.88.474-.881.474c-.001-.002.031.058.031.235zm-.15-.71.887-.46a1.93 1.93 0 0 0-.917-.876l-.421.907-.422.907.004.002-.018-.018q-.003-.004-.001 0zm-.451-.429.421-.907a2.75 2.75 0 0 0-1.163-.232v2c.194 0 .288.03.32.046zm-.742-.14v-1q-.414 0-.831.066l.155.988.154.988a3.4 3.4 0 0 1 .522-.041zm-.676.054-.128-.992a8 8 0 0 0-.839.16l.236.972.236.972q.355-.086.623-.12zm-.731.14-.976-.217c-.087.39-.15.704-.184.924l.988.152.989.152c.023-.152.074-.411.159-.794zm-.172.86-.987-.159c-.04.251-.056.539-.056.846h2c0-.252.014-.423.031-.53zm-.043.687h-1c0 .623.161 1.307.717 1.781l.648-.76.649-.762c.028.024.029.04.019.013a.9.9 0 0 1-.033-.272zm.365 1.02-.635.772a2.3 2.3 0 0 0 1.495.529v-2a.32.32 0 0 1-.224-.073zM123.55 17l.978.208 2.557-12.01-.979-.208-.978-.208-2.556 12.01zm2.556-12.01v1h3.234v-2h-3.234zm3.234 0-.978-.208-2.557 12.01.978.208.978.208 2.557-12.01zM126.783 17v-1h-3.233v2h3.233z" mask="url(#c)"/></g><defs><linearGradient id="b" x1="130" x2="4" y1="-7" y2="-7" gradientUnits="userSpaceOnUse"><stop stop-color="#6D3EEB"/><stop offset="1" stop-color="#3E3EEB"/></linearGradient><filter id="a" width="131.924" height="24.281" x=".651" y=".295" color-interpolation-filters="sRGB" filterUnits="userSpaceOnUse"><feFlood flood-opacity="0" result="BackgroundImageFix"/><feColorMatrix in="SourceAlpha" result="hardAlpha" values="0 0 0 0 0 0 0 0 0 0 0 0 0 0 0 0 0 0 127 0"/><feOffset dx="2" dy="2"/><feComposite in2="hardAlpha" operator="out"/><feColorMatrix values="0 0 0 0 0 0 0 0 0 0 0 0 0 0 0 0 0 0 0.25 0"/><feBlend in2="BackgroundImageFix" result="effect1_dropShadow_29518_25649"/><feBlend in="SourceGraphic" in2="effect1_dropShadow_29518_25649" result="shape"/></filter></defs></svg>