<?xml version="1.0" encoding="UTF-8"?>
<svg id="Skrill_Lockup_SkrillPurple_RGB" xmlns="http://www.w3.org/2000/svg" viewBox="0 0 1796.22 400">
  <defs>
    <style>
      .cls-1 {
        fill: #910591;
      }
    </style>
  </defs>
  <path class="cls-1" d="M1064.19,282.75c0,71.16-54.61,114.74-125.77,114.74h-27.58c-70.06,0-122.46-47.99-126.05-120.26h70.06c2.76,35.86,24.82,60.4,59.3,60.4h26.2c24.82,0,53.51-16.82,53.51-51.58,0-82.47-203.55-31.44-203.55-174.87,0-65.09,53.78-108.67,116.4-108.67h27.86c62.89,0,113.64,38.06,119.98,110.88h-69.23c-4.41-33.65-22.62-51.03-52.41-51.03h-25.38c-23.99,0-46.89,16.55-46.89,44.41,0,82.19,203.55,25.93,203.55,175.97ZM1333.12,115.05h-81.92l-100.4,101.5V6.42h-64.82v386.65h64.82v-93.23l31.72-31.44,83.85,124.67h75.85l-113.09-174.04,103.98-103.98ZM1415.86,153.39v-38.34h-64.82v278.03h64.82v-155.29c0-32.27,18.76-68.4,51.03-68.4h40.55v-54.34h-35.58c-25.93,0-45.79,14.34-55.99,38.34ZM1530.5,393.07h64.82V115.05h-64.82v278.03ZM1632.57,393.07h64.54V6.42h-64.54v386.65ZM1731.67,6.42v386.65h64.54V6.42h-64.54ZM1528.02,74.91h70.06V6.51h-70.06v68.4ZM408.17,1.19c-.76-.76-1.8-1.19-2.88-1.19h-1.22c-2.25,0-4.07,1.82-4.07,4.07v195.81c0-2.16-.86-4.23-2.38-5.76L205.87,2.38c-1.53-1.53-3.6-2.38-5.76-2.38h-.23c-2.16,0-4.23.86-5.76,2.38L2.38,194.13c-1.53,1.53-2.38,3.6-2.38,5.76v.23c0,2.16.86,4.23,2.38,5.76l191.74,191.74c1.53,1.53,3.6,2.38,5.76,2.38h.23c2.16,0,4.23-.86,5.76-2.38l191.74-191.74c1.53-1.53,2.38-3.6,2.38-5.76v195.81c0,2.25,1.82,4.07,4.07,4.07h1.22c1.08,0,2.11-.43,2.88-1.19l192.94-192.94c1.53-1.53,2.38-3.6,2.38-5.76v-.23c0-2.16-.86-4.23-2.38-5.76L408.17,1.19Z"/>
</svg>