<svg width="1486" height="488" viewBox="0 0 1486 488" fill="none" xmlns="http://www.w3.org/2000/svg">
<path d="M250.447 9.23337C253.761 10.0976 257.076 10.9588 260.391 11.8171C269.09 14.0782 277.778 16.3804 286.465 18.6919C295.068 20.9734 303.682 23.2147 312.295 25.4597C327.478 29.4228 342.647 33.4337 357.812 37.4672C367.6 40.0667 377.398 42.629 387.205 45.1558C393.386 46.7498 399.563 48.3588 405.739 49.9697C408.602 50.7126 411.467 51.4486 414.334 52.1772C454.978 62.5155 454.978 62.5155 465.047 76.8867C469.266 85.5215 470.102 93.7106 470.053 103.219C470.057 104.474 470.061 105.729 470.065 107.023C470.071 111.278 470.052 115.534 470.03 119.789C470.027 121.284 470.023 122.779 470.02 124.318C469.941 157.327 469.102 190.324 468.256 223.32C468.223 224.588 468.191 225.857 468.158 227.163C467.505 252.499 466.804 277.834 465.893 303.162C465.837 304.742 465.781 306.322 465.724 307.951C464.817 332.017 463.732 354.4 448.745 374.462C445.58 377.214 442.486 379.728 439.129 382.21C437.246 383.644 435.365 385.082 433.487 386.522C432.54 387.247 431.593 387.972 430.617 388.718C426.344 392.056 422.234 395.572 418.124 399.108C410.681 405.486 403.056 411.578 395.316 417.592C389.352 422.247 383.541 427.048 377.795 431.969C370.411 438.286 362.884 444.378 355.204 450.332C350.574 453.923 346.003 457.564 341.503 461.317C322.885 476.769 305.509 487.014 280.706 487.048C279.373 487.085 278.041 487.121 276.668 487.159C251.147 487.267 225.95 475.456 202.287 467.07C199.487 466.083 196.687 465.095 193.887 464.108C166.481 454.444 139.137 444.607 111.826 434.676C110.163 434.071 108.5 433.467 106.787 432.843C97.3504 429.408 87.9224 425.951 78.5001 422.478C73.6284 420.692 68.7475 418.932 63.8657 417.174C60.6387 415.997 57.4118 414.82 54.1852 413.642C52.7093 413.117 51.2334 412.592 49.7127 412.051C35.3483 406.764 25.864 400.124 18.5644 386.411C14.0098 375.823 11.1294 365.74 10.5194 354.214C10.3844 351.735 10.3844 351.735 10.2466 349.206C10.1542 347.406 10.0618 345.606 9.96662 343.752C9.86442 341.844 9.76222 339.936 9.65692 337.97C9.37691 332.733 9.1041 327.497 8.83323 322.26C8.66253 318.966 8.49028 315.672 8.31752 312.378C7.71132 300.82 7.11106 289.261 6.51612 277.702C5.96763 267.048 5.40628 256.394 4.8386 245.741C4.34784 236.52 3.86671 227.298 3.39242 218.076C3.11082 212.604 2.82583 207.132 2.53094 201.66C1.3781 180.193 0.396431 158.717 0.164351 137.219C0.128456 134.311 0.0652153 131.404 0.000911521 128.496C-0.0766231 110.045 4.78572 96.9105 17.0707 83.194C17.8871 82.2563 18.7035 81.3186 19.5446 80.3525C29.8276 69.2691 43.7135 62.8643 57.2134 56.4944C58.6514 55.8117 60.0893 55.129 61.5708 54.4256C84.3878 43.685 107.494 33.5687 130.591 23.4467C131.637 22.9873 132.684 22.5279 133.763 22.0546C140.477 19.1089 147.2 16.1838 153.929 13.271C155.59 12.5462 157.251 11.8214 158.963 11.0746C163.423 9.15838 167.905 7.32028 172.414 5.52251C173.557 5.03657 174.7 4.55064 175.878 4.04997C200.047 -4.88972 226.717 2.85035 250.447 9.23337Z" fill="#D4342C"/>
<path d="M58.7398 109.223C60.913 109.911 63.0867 110.598 65.2608 111.283C71.0858 113.125 76.9039 114.988 82.7205 116.856C87.5707 118.411 92.4246 119.954 97.2786 121.496C113.374 126.613 129.453 131.779 145.525 136.967C146.684 137.341 147.843 137.715 149.037 138.1C163.954 142.916 178.862 147.757 193.762 152.629C195.703 153.263 197.644 153.898 199.586 154.532C205.942 156.607 212.295 158.693 218.645 160.784C220.192 161.29 221.739 161.796 223.332 162.317C231.262 164.94 239.135 167.696 246.966 170.603C248.511 171.177 250.057 171.75 251.649 172.341C266.411 178.931 275.333 190.282 282.276 204.428C285.899 214.3 285.074 224.936 285.041 235.305C285.05 237.7 285.06 240.096 285.072 242.492C285.099 248.973 285.097 255.453 285.089 261.934C285.084 267.354 285.093 272.773 285.102 278.193C285.123 290.98 285.121 303.768 285.104 316.556C285.087 329.731 285.108 342.906 285.148 356.081C285.181 367.412 285.191 378.742 285.182 390.073C285.177 396.832 285.18 403.591 285.206 410.35C285.229 416.706 285.223 423.061 285.195 429.417C285.19 431.744 285.194 434.07 285.21 436.397C285.295 450.107 284.979 460.527 276.012 471.587C265.737 480.216 256.013 481.267 242.978 480.144C228.281 477.964 214.116 471.661 200.231 466.604C196.681 465.33 193.131 464.058 189.579 462.789C181.207 459.788 172.843 456.765 164.483 453.727C157.912 451.34 151.337 448.961 144.761 446.587C122.663 438.61 100.575 430.609 78.5298 422.489C73.6407 420.698 68.7426 418.932 63.8437 417.168C60.6174 415.991 57.3913 414.814 54.1654 413.636C51.9532 412.849 51.9532 412.849 49.6963 412.047C35.3384 406.762 25.8582 400.118 18.5621 386.412C14.0041 375.815 11.1259 365.729 10.5171 354.194C10.3821 351.709 10.3821 351.709 10.2443 349.173C10.1519 347.369 10.0595 345.564 9.96432 343.705C9.81102 340.835 9.81102 340.835 9.65463 337.908C9.37464 332.66 9.10184 327.411 8.83093 322.162C8.66026 318.862 8.48802 315.562 8.31523 312.262C7.70913 300.688 7.10879 289.113 6.51383 277.538C5.96484 266.86 5.40361 256.183 4.83631 245.506C4.34611 236.27 3.86489 227.033 3.39012 217.795C3.10813 212.311 2.82296 206.828 2.52864 201.344C1.34528 179.227 0.408252 157.118 0.218193 134.968C0.189055 133.126 0.159919 131.284 0.129898 129.386C0.127213 127.696 0.124527 126.007 0.121761 124.267C0.112518 122.783 0.103273 121.3 0.09375 119.772C0.733981 115.399 1.78439 114.332 5.11897 111.574C6.01238 110.311 6.90579 109.048 7.82627 107.747C20.2964 93.8513 43.779 104.392 58.7398 109.223Z" fill="#DA3D32"/>
<path d="M463.367 84.8274C466.669 86.181 466.669 86.181 469.656 90.6621C469.956 94.7057 470.074 98.59 470.053 102.635C470.057 103.899 470.061 105.162 470.065 106.465C470.071 110.782 470.052 115.098 470.03 119.415C470.027 120.925 470.024 122.435 470.02 123.99C469.942 157.108 469.106 190.214 468.256 223.32C468.224 224.588 468.191 225.855 468.158 227.162C467.506 252.498 466.804 277.833 465.893 303.162C465.837 304.742 465.782 306.322 465.724 307.95C464.818 332.017 463.733 354.4 448.745 374.462C445.58 377.214 442.486 379.727 439.129 382.21C437.246 383.644 435.366 385.081 433.487 386.522C432.54 387.247 431.593 387.971 430.617 388.718C426.344 392.055 422.234 395.572 418.124 399.107C410.681 405.485 403.056 411.578 395.317 417.592C389.352 422.247 383.542 427.048 377.795 431.968C368.671 439.771 359.3 447.217 349.807 454.565C347.108 456.666 344.427 458.788 341.748 460.914C340.01 462.282 338.271 463.649 336.532 465.016C334.988 466.237 333.444 467.458 331.853 468.715C324.663 473.693 316.915 474.266 308.339 473.045C302.537 470.036 300.473 468.023 297.836 462.14C295.025 452.938 294.659 443.985 294.753 434.462C294.76 433.172 294.766 431.881 294.773 430.552C294.884 413.52 295.192 396.491 295.497 379.462C295.56 375.824 295.624 372.186 295.687 368.549C295.819 360.963 295.954 353.377 296.09 345.791C296.228 338.105 296.362 330.419 296.494 322.732C296.891 299.602 297.317 276.473 297.795 253.344C297.876 249.358 297.952 245.371 298.026 241.384C298.142 235.329 298.29 229.275 298.449 223.22C298.49 220.855 298.49 220.855 298.533 218.442C299.109 199.77 302.712 181.834 315.995 168.019C324.905 159.821 333.889 153.924 344.654 148.449C347.845 146.774 351.035 145.095 354.223 143.414C355.806 142.584 357.388 141.754 359.019 140.9C365.769 137.309 372.392 133.513 379.009 129.684C392.859 121.703 406.809 113.906 420.805 106.183C428.222 102.087 435.621 97.9785 442.916 93.6669C444.567 92.6999 444.567 92.6999 446.252 91.7134C448.212 90.5592 450.162 89.388 452.099 88.1958C456.097 85.8535 458.686 84.67 463.367 84.8274Z" fill="#8A0103"/>
<path d="M174.711 199.376C181.591 199.471 187.414 201.164 193.871 203.412C195.008 203.796 196.144 204.179 197.315 204.575C199.695 205.384 202.073 206.203 204.447 207.031C208.085 208.294 211.736 209.513 215.39 210.729C217.709 211.524 220.027 212.321 222.345 213.121C223.435 213.482 224.526 213.844 225.65 214.216C233.153 216.884 233.153 216.884 235.853 220.894C236.112 221.787 236.372 222.68 236.64 223.6C230.698 231.448 224.533 239.072 218.155 246.566C211.936 253.878 205.736 261.199 199.718 268.679C197.235 271.748 194.72 274.759 192.156 277.758C190.77 279.433 189.385 281.11 188.002 282.787C186.737 284.285 185.472 285.783 184.168 287.327C180.544 293.788 180.092 298.597 181.373 305.753C184.398 313.655 188.24 321.089 192.115 328.601C193.231 330.812 194.344 333.023 195.456 335.236C198.382 341.046 201.341 346.838 204.306 352.628C207.287 358.464 210.235 364.317 213.187 370.168C217.545 378.789 221.913 387.406 226.31 396.008C226.799 396.969 227.288 397.93 227.792 398.92C230.188 403.597 232.642 408.224 235.238 412.794C236.197 414.495 237.156 416.197 238.145 417.949C239.006 419.434 239.867 420.919 240.754 422.449C242.818 427.21 242.979 430.569 242.614 435.703C234.869 436.06 229.205 435.079 221.977 432.319C220.589 431.793 220.589 431.793 219.173 431.257C217.23 430.517 215.291 429.768 213.355 429.011C210.417 427.865 207.468 426.75 204.517 425.638C182.777 417.305 174.634 408.452 165.13 387.812C159.048 374.838 152.763 361.99 146.304 349.202C142.023 340.713 137.795 332.197 133.576 323.677C132.887 322.288 132.887 322.288 132.184 320.872C129.112 314.673 126.103 308.447 123.12 302.205C122.339 300.627 121.559 299.048 120.754 297.422C116.5 288.385 114.341 282.643 117.145 272.892C119.549 268.422 119.549 268.422 122.746 264.116C123.334 263.309 123.922 262.502 124.527 261.67C125.826 259.889 127.135 258.116 128.452 256.349C131.536 252.199 134.549 247.998 137.569 243.802C140.03 240.387 142.5 236.979 144.971 233.572C150.859 225.43 156.645 217.217 162.413 208.989C168.912 199.733 168.912 199.733 174.711 199.376Z" fill="#FDFCFC"/>
<path d="M403.932 166.84C409.265 171.763 409.772 178.222 410.835 185.068C411.15 186.955 411.15 186.955 411.473 188.88C411.934 191.645 412.388 194.41 412.836 197.177C414.076 204.83 415.369 212.473 416.664 220.117C416.944 221.778 417.225 223.44 417.514 225.152C419.905 239.163 422.515 253.126 425.182 267.086C425.598 269.268 426.014 271.451 426.43 273.633C428.285 283.36 430.151 293.084 432.041 302.804C432.638 305.887 433.229 308.97 433.817 312.054C434.543 315.856 435.28 319.656 436.029 323.454C436.349 325.148 436.67 326.842 437.001 328.587C437.429 330.799 437.429 330.799 437.867 333.055C438.406 338.271 438.281 342.721 434.936 346.921C434.168 347.561 433.401 348.2 432.61 348.859C431.766 349.57 430.921 350.28 430.051 351.012C429.165 351.727 428.278 352.441 427.364 353.177C426.495 353.914 425.626 354.652 424.73 355.412C416.94 361.852 416.94 361.852 411.401 362.513C407.561 358.673 407.636 356.338 406.867 351.001C406.614 349.292 406.361 347.583 406.1 345.822C405.847 344.029 405.593 342.235 405.333 340.387C404.818 336.861 404.303 333.335 403.786 329.809C403.563 328.24 403.339 326.671 403.109 325.055C402.499 321.08 401.769 317.157 400.945 313.221C400.109 313.839 399.272 314.457 398.411 315.093C394.62 317.893 390.827 320.692 387.035 323.49C385.719 324.462 384.403 325.435 383.047 326.437C381.148 327.837 381.148 327.837 379.211 329.266C378.045 330.127 376.88 330.987 375.679 331.874C373.188 333.68 370.644 335.413 368.084 337.12C367.022 340.039 367.022 340.039 366.573 343.487C366.354 344.804 366.134 346.12 365.908 347.477C365.688 348.903 365.469 350.33 365.242 351.8C364.74 354.813 364.237 357.825 363.734 360.838C362.965 365.593 362.203 370.349 361.444 375.106C360.706 379.694 359.941 384.278 359.174 388.862C358.958 390.277 358.741 391.691 358.518 393.149C356.828 403.211 353.859 411.01 345.486 417.44C344.65 418.085 343.813 418.73 342.951 419.395C342.095 420.032 341.239 420.67 340.357 421.326C339.496 421.998 338.634 422.67 337.746 423.363C331.327 428.235 331.327 428.235 326.261 428.235C324.86 420.735 324.902 415.027 326.541 407.591C326.746 406.631 326.952 405.67 327.164 404.68C327.61 402.603 328.063 400.527 328.524 398.453C329.786 392.761 330.985 387.056 332.195 381.353C332.448 380.166 332.701 378.979 332.962 377.756C335.616 365.273 338.008 352.744 340.357 340.201C340.568 339.08 340.779 337.96 340.996 336.806C343.35 324.288 345.673 311.765 347.99 299.241C348.783 294.949 349.578 290.658 350.373 286.366C351.382 280.919 352.386 275.47 353.386 270.021C355.922 256.264 358.624 242.559 361.552 228.879C362.904 222.535 364.174 216.193 365.283 209.801C365.507 208.518 365.73 207.234 365.96 205.912C366.393 203.378 366.812 200.842 367.22 198.304C369.411 185.965 374.435 178.932 384.514 171.321C385.685 170.428 386.856 169.534 388.062 168.614C393.821 166.009 397.623 166.128 403.932 166.84Z" fill="#E7E5E5"/>
<path d="M57.088 158.775C64.7362 160.16 71.9661 162.963 79.2438 165.627C80.9151 166.205 82.5864 166.784 84.3083 167.38C101.924 173.739 101.924 173.739 106.69 183.271C106.901 186.92 107.026 190.532 107.087 194.185C107.111 195.313 107.136 196.441 107.161 197.603C107.214 200.067 107.263 202.53 107.31 204.994C107.386 208.949 107.47 212.903 107.558 216.858C107.804 228.109 108.032 239.36 108.258 250.611C108.424 258.832 108.6 267.052 108.785 275.272C108.83 277.303 108.83 277.303 108.877 279.375C109.354 300.054 110.255 320.676 111.683 341.311C112.058 346.883 112.379 352.454 112.665 358.032C112.724 359.04 112.783 360.049 112.844 361.088C113.011 364.152 113.122 367.214 113.219 370.282C113.293 372.087 113.367 373.892 113.443 375.751C112.665 380.437 112.665 380.437 109.172 384.025C104.319 386.939 101.818 387.083 96.2344 386.412C91.9973 385.249 91.9973 385.249 87.6749 383.628C85.3225 382.749 85.3225 382.749 82.9226 381.852C81.3081 381.231 79.6936 380.61 78.0302 379.97C75.5824 379.065 75.5824 379.065 73.0853 378.141C58.1986 372.5 58.1986 372.5 54.3303 365.732C52.8614 362.384 52.4601 360.022 52.2849 356.391C52.2201 355.184 52.1554 353.977 52.0886 352.733C52.0319 351.421 51.9751 350.109 51.9166 348.758C51.8103 346.669 51.8103 346.669 51.7018 344.537C51.4701 339.92 51.2574 335.302 51.0447 330.684C50.8863 327.453 50.7267 324.221 50.5659 320.989C50.1446 312.454 49.7394 303.918 49.3375 295.382C48.9312 286.81 48.5097 278.239 48.0894 269.668C47.2621 252.74 46.4523 235.812 45.6506 218.882C45.4444 214.537 45.2372 210.191 45.0296 205.845C44.9618 204.427 44.8941 203.009 44.8244 201.548C44.6972 198.885 44.5699 196.221 44.4424 193.558C43.1521 166.519 43.1521 166.519 46.3186 161.898C50.1254 159.235 52.4554 158.492 57.088 158.775Z" fill="#F7F6F6"/>
<path d="M1435.82 199.357C1437.2 199.357 1438.57 199.358 1439.99 199.359C1442.87 199.363 1445.75 199.375 1448.64 199.394C1453.07 199.421 1457.51 199.424 1461.94 199.424C1464.75 199.431 1467.56 199.44 1470.36 199.45C1472.36 199.453 1472.36 199.453 1474.4 199.455C1483.69 199.528 1483.69 199.528 1485.36 201.195C1485.71 204.45 1485.71 204.45 1485.82 208.476C1485.91 210.458 1485.91 210.458 1485.99 212.479C1485.36 216.132 1485.36 216.132 1482.34 218.85C1481.37 219.432 1480.39 220.013 1479.38 220.613C1480.12 222.091 1480.12 222.091 1480.88 223.6C1482.85 248.209 1482.85 248.209 1475.81 257.144C1463.54 268.935 1449.29 270.384 1432.86 270.108C1427.38 269.846 1422.07 269.244 1416.65 268.41C1416.16 270.382 1415.66 272.354 1415.15 274.385C1416.84 274.747 1418.52 275.109 1420.25 275.482C1471.94 286.716 1471.94 286.716 1480.04 296.884C1484.74 305.732 1485.22 314.341 1482.37 323.863C1479.41 330.929 1474.18 335.202 1467.43 338.613C1457.55 341.807 1448.18 342.148 1437.84 342.161C1436.32 342.197 1434.8 342.234 1433.24 342.272C1420.5 342.32 1409.59 339.614 1398.72 332.825C1390.73 324.336 1390.51 315.82 1390.69 304.685C1391.22 300.099 1391.68 298.024 1394.43 294.456C1395.35 293.255 1396.28 292.053 1397.23 290.816C1396.38 286.761 1396.38 286.761 1394.24 283.347C1392.1 276.907 1392.07 270.667 1392.75 263.929C1394 261.896 1394 261.896 1395.27 259.822C1395.92 258.713 1396.56 257.604 1397.23 256.461C1396.21 254.526 1396.21 254.526 1395.16 252.552C1392.23 246.405 1391.94 241.701 1392 234.989C1392.01 233.862 1392.02 232.736 1392.03 231.574C1392.31 222.794 1393.73 216.462 1400.22 210.157C1410.78 200.472 1422 199.244 1435.82 199.357ZM1421.13 223.6C1417.46 229.561 1416.47 232.691 1417.4 239.657C1420.03 245.356 1421.51 246.385 1427.1 248.993C1432.19 249.754 1432.19 249.754 1437.56 249.646C1440.24 249.689 1440.24 249.689 1442.97 249.734C1448.89 248.864 1451.33 247.237 1455.48 243.018C1457.71 236.204 1456.87 231.58 1453.99 225.094C1451.03 221.365 1449.67 220.666 1445.03 219.119C1436.27 218.335 1428.4 218.105 1421.13 223.6ZM1419.64 296.79C1418.86 298.937 1418.1 301.089 1417.35 303.243C1416.92 304.441 1416.5 305.639 1416.06 306.873C1414.87 310.363 1414.87 310.363 1415.9 314.528C1418.77 318.594 1421.1 320.026 1425.61 322.183C1429.74 322.614 1433.45 322.811 1437.56 322.743C1438.6 322.76 1439.65 322.778 1440.72 322.796C1447.35 322.758 1451.8 321.929 1456.98 317.702C1458.22 313.221 1458.22 313.221 1456.98 308.74C1450.37 303.44 1442.17 302.131 1434.11 300.244C1432.71 299.908 1431.32 299.572 1429.89 299.226C1426.47 298.403 1423.06 297.591 1419.64 296.79Z" fill="white"/>
<path d="M1128.56 197.554C1129.57 197.54 1130.59 197.525 1131.64 197.51C1138.62 197.626 1143.22 199.361 1149.28 202.689C1153.66 202.352 1157.24 201.033 1161.42 199.655C1167.8 198.058 1173.45 197.712 1179.99 197.741C1181.08 197.717 1182.17 197.693 1183.29 197.668C1190.48 197.661 1195.32 198.782 1201.56 202.689C1209.45 210.753 1212.41 218.099 1212.35 229.309C1212.35 230.983 1212.35 232.657 1212.35 234.381C1212.34 236.165 1212.32 237.948 1212.31 239.786C1212.3 241.629 1212.3 243.473 1212.29 245.373C1212.28 251.248 1212.24 257.122 1212.2 262.996C1212.19 266.985 1212.17 270.974 1212.16 274.963C1212.13 284.728 1212.08 294.494 1212.02 304.259C1208.06 304.299 1204.11 304.329 1200.16 304.352C1199.03 304.365 1197.9 304.377 1196.74 304.39C1193.87 304.403 1190.99 304.337 1188.12 304.259C1185.68 301.818 1186.4 299.042 1186.36 295.674C1186.34 294.163 1186.32 292.653 1186.3 291.096C1186.28 288.63 1186.28 288.63 1186.26 286.113C1186.21 282.667 1186.16 279.22 1186.11 275.774C1186.04 270.313 1185.97 264.851 1185.91 259.39C1185.85 254.139 1185.77 248.888 1185.7 243.636C1185.68 241.998 1185.67 240.359 1185.66 238.671C1185.63 237.151 1185.61 235.631 1185.58 234.065C1185.56 232.057 1185.56 232.057 1185.54 230.008C1185.34 226.174 1185.34 226.174 1182.14 222.106C1178.47 221.503 1178.47 221.503 1174.3 221.733C1172.84 221.771 1171.37 221.81 1169.86 221.85C1165.41 222.125 1161.11 222.657 1156.75 223.6C1157.49 225.079 1157.49 225.079 1158.24 226.587C1158.39 229.02 1158.43 231.459 1158.44 233.896C1158.44 235.416 1158.45 236.936 1158.45 238.502C1158.45 240.148 1158.44 241.794 1158.44 243.491C1158.44 245.174 1158.44 246.857 1158.45 248.591C1158.45 252.153 1158.44 255.715 1158.44 259.277C1158.43 264.752 1158.44 270.226 1158.45 275.701C1158.45 279.154 1158.44 282.607 1158.44 286.06C1158.44 287.71 1158.45 289.359 1158.45 291.058C1158.44 293.331 1158.44 293.331 1158.44 295.65C1158.44 296.991 1158.43 298.332 1158.43 299.714C1158.24 302.765 1158.24 302.765 1156.75 304.259C1152.72 304.368 1148.73 304.397 1144.71 304.352C1143.57 304.346 1142.44 304.339 1141.27 304.332C1138.47 304.314 1135.66 304.287 1132.85 304.259C1132.81 302.301 1132.78 300.343 1132.74 298.326C1132.6 291.004 1132.45 283.683 1132.29 276.362C1132.23 273.204 1132.17 270.046 1132.11 266.888C1132.02 262.327 1131.93 257.766 1131.83 253.205C1131.8 251.812 1131.78 250.419 1131.75 248.984C1131.55 239.962 1130.89 231.071 1129.86 222.106C1127.31 222.025 1124.76 221.967 1122.21 221.92C1120.79 221.885 1119.37 221.85 1117.9 221.815C1113 222.135 1109.09 223.471 1104.47 225.094C1104.47 226.064 1104.48 227.033 1104.48 228.032C1104.51 238.087 1104.54 248.142 1104.55 258.197C1104.56 261.954 1104.57 265.711 1104.58 269.468C1104.6 274.855 1104.61 280.242 1104.62 285.629C1104.62 287.32 1104.63 289.011 1104.64 290.754C1104.64 293.086 1104.64 293.086 1104.64 295.466C1104.64 296.842 1104.65 298.219 1104.65 299.637C1104.47 302.765 1104.47 302.765 1102.98 304.259C1095.09 304.259 1087.2 304.259 1079.08 304.259C1079.08 269.755 1079.08 235.251 1079.08 199.701C1086.96 199.701 1094.85 199.701 1102.98 199.701C1103.47 201.18 1103.96 202.659 1104.47 204.182C1105.95 203.196 1107.43 202.211 1108.95 201.195C1115.36 197.97 1121.5 197.586 1128.56 197.554Z" fill="white"/>
<path d="M577.199 166.84C585.579 166.84 593.958 166.84 602.592 166.84C605.664 169.912 604.47 176.333 604.558 180.569C604.589 181.793 604.62 183.018 604.652 184.28C604.75 188.206 604.838 192.133 604.926 196.06C604.99 198.716 605.055 201.371 605.121 204.027C605.281 210.551 605.433 217.075 605.579 223.6C606.51 222.284 607.441 220.968 608.4 219.613C616.47 208.241 624.705 197.028 633.212 185.977C635.283 183.281 637.352 180.583 639.42 177.885C640.311 176.727 641.201 175.57 642.119 174.377C643.962 171.924 645.7 169.393 647.402 166.84C650.484 166.331 650.484 166.331 654.229 166.402C655.567 166.417 656.905 166.431 658.284 166.446C660.384 166.502 660.384 166.502 662.526 166.56C663.937 166.58 665.348 166.6 666.803 166.621C670.295 166.674 673.785 166.748 677.276 166.84C676.549 173.781 673.434 178.015 669.154 183.27C667.786 184.997 666.419 186.724 665.052 188.451C664.352 189.327 663.651 190.204 662.929 191.106C659.692 195.176 656.537 199.306 653.377 203.435C652.152 205.028 650.927 206.621 649.701 208.214C649.087 209.011 648.474 209.809 647.841 210.631C639.407 221.596 639.407 221.596 630.972 232.562C637.12 242.712 643.782 252.38 650.763 261.969C657.334 271.009 663.878 280.063 670.274 289.228C670.982 290.226 671.69 291.224 672.42 292.252C677.276 299.258 677.276 299.258 677.276 304.258C666.383 306.14 655.151 307.484 644.415 304.258C634.439 297.215 628.832 285.53 622.943 275.132C621.233 272.318 619.512 269.512 617.78 266.712C613.585 259.88 609.531 252.979 605.579 246.005C605.542 247.716 605.504 249.428 605.466 251.191C605.325 257.519 605.176 263.846 605.023 270.173C604.958 272.916 604.896 275.659 604.836 278.402C604.75 282.335 604.655 286.269 604.558 290.203C604.521 292.053 604.521 292.053 604.482 293.942C604.256 302.595 604.256 302.595 602.592 304.258C594.212 304.258 585.833 304.258 577.199 304.258C577.199 258.91 577.199 213.562 577.199 166.84Z" fill="white"/>
<path d="M741.411 164.693C742.957 164.648 742.957 164.648 744.535 164.603C752.255 164.61 756.697 166.172 762.416 171.321C769.448 182.871 772.146 196.044 775.509 209.007C776.169 211.518 776.83 214.028 777.492 216.538C778.871 221.777 780.241 227.019 781.604 232.263C783.35 238.977 785.116 245.686 786.888 252.393C788.254 257.567 789.61 262.743 790.963 267.92C791.611 270.395 792.261 272.869 792.914 275.343C793.824 278.797 794.722 282.254 795.616 285.711C795.886 286.727 796.156 287.743 796.435 288.79C797.838 294.274 798.264 298.483 798.264 304.259C789.391 304.259 780.519 304.259 771.378 304.259C766.958 291.842 762.416 278.694 762.416 265.423C748.614 265.423 734.812 265.423 720.593 265.423C720.1 269.366 719.607 273.31 719.099 277.373C718.57 279.737 717.987 282.092 717.319 284.421C716.87 286.014 716.87 286.014 716.412 287.639C715.847 289.581 715.847 289.581 715.271 291.563C714.07 295.752 712.868 299.942 711.63 304.259C702.758 304.259 693.885 304.259 684.744 304.259C685.671 291.156 689.047 278.735 692.329 266.071C692.946 263.674 693.562 261.277 694.178 258.88C695.467 253.876 696.764 248.873 698.065 243.872C699.725 237.49 701.356 231.103 702.981 224.713C704.243 219.766 705.524 214.825 706.81 209.885C707.42 207.533 708.022 205.179 708.618 202.823C715.577 175.371 715.577 175.371 725.546 166.881C730.857 164.848 735.804 164.636 741.411 164.693ZM740.01 187.752C736.128 201.355 732.35 214.967 729.088 228.735C728.832 229.802 728.577 230.87 728.313 231.97C727.314 236.261 726.567 240.089 726.567 244.512C736.426 244.512 746.284 244.512 756.441 244.512C754.351 232.408 751.776 220.504 748.879 208.57C748.478 206.888 748.076 205.206 747.663 203.473C745.921 195.406 745.921 195.406 742.998 187.752C742.012 187.752 741.026 187.752 740.01 187.752Z" fill="#B11219"/>
<path d="M927.281 165.16C929.035 165.297 930.789 165.433 932.596 165.574C945.494 166.626 945.494 166.626 950.619 168.334C950.619 175.235 950.619 182.136 950.619 189.246C947.398 189.194 944.177 189.142 940.858 189.088C937.709 189.053 934.56 189.026 931.411 188.999C929.236 188.977 927.062 188.947 924.887 188.908C921.747 188.853 918.607 188.828 915.465 188.808C913.58 188.785 911.695 188.761 909.753 188.737C903.35 189.336 899.538 190.751 893.86 193.727C881.337 209.633 883.687 235.153 885.364 254.332C886.611 263.206 888.27 270.273 893.86 277.373C900.969 282.164 906.646 282.037 915.156 281.953C917.984 281.932 917.984 281.932 920.869 281.91C923.026 281.882 923.026 281.882 925.227 281.854C925.219 280.369 925.211 278.883 925.203 277.353C925.176 271.861 925.159 266.369 925.145 260.876C925.137 258.496 925.127 256.115 925.114 253.735C925.096 250.32 925.088 246.905 925.081 243.491C925.073 242.42 925.066 241.35 925.058 240.247C925.057 237.685 925.134 235.123 925.227 232.562C927.849 229.94 931.255 230.871 934.743 230.865C935.793 230.87 936.842 230.876 937.923 230.882C938.972 230.876 940.022 230.87 941.103 230.865C948.937 230.88 948.937 230.88 950.619 232.562C950.758 234.763 950.795 236.971 950.789 239.176C950.789 240.582 950.789 241.987 950.789 243.435C950.781 244.963 950.773 246.491 950.765 248.065C950.763 249.621 950.761 251.177 950.759 252.781C950.75 257.773 950.732 262.765 950.713 267.757C950.705 271.133 950.698 274.508 950.692 277.883C950.676 286.177 950.651 294.471 950.619 302.765C938.888 305.636 927.881 306.4 915.798 306.5C913.943 306.561 912.088 306.623 910.176 306.686C895.333 306.811 883.591 303.464 872.249 293.578C857.345 278.643 856.217 259.192 856.159 239.2C856.144 236.248 856.098 233.295 856.051 230.342C855.97 210.162 858.493 193.03 872.108 177.67C888.846 162.972 906.183 163.341 927.281 165.16Z" fill="white"/>
<path d="M1010.93 197.834C1012.57 197.803 1014.21 197.772 1015.9 197.741C1027.51 197.685 1035.81 199.052 1045.84 205.209C1054.54 214.153 1055.86 222.689 1055.85 234.72C1055.82 236.488 1055.79 238.256 1055.76 240.077C1055.75 241.917 1055.74 243.757 1055.73 245.652C1055.7 251.496 1055.63 257.339 1055.55 263.183C1055.52 267.158 1055.49 271.133 1055.47 275.109C1055.4 284.826 1055.3 294.542 1055.18 304.259C1051.5 304.339 1047.83 304.399 1044.16 304.446C1043.12 304.471 1042.07 304.496 1041 304.521C1038.25 304.548 1035.51 304.413 1032.77 304.259C1031.29 302.78 1031.29 302.78 1029.78 301.271C1028.34 302.011 1026.89 302.75 1025.4 303.512C1014.38 307.611 999.422 308.23 988.299 304.282C981.202 300.008 977.134 295.322 974.238 287.548C971.78 276.014 972.283 265.703 977.505 254.967C983.862 247.065 991.435 242.975 1001.4 241.524C1006.29 241.35 1011.17 241.383 1016.06 241.431C1017.38 241.438 1018.7 241.444 1020.06 241.451C1023.3 241.469 1026.54 241.496 1029.78 241.524C1029.61 239.127 1029.42 236.731 1029.22 234.336C1029.07 232.334 1029.07 232.334 1028.91 230.292C1028.49 226.223 1028.49 226.223 1025.3 222.106C1020.38 220.465 1016.8 220.465 1011.61 220.519C1009.82 220.531 1008.02 220.542 1006.17 220.554C1003.35 220.583 1003.35 220.583 1000.47 220.613C996.748 220.651 993.026 220.682 989.303 220.706C987.65 220.723 985.996 220.741 984.293 220.758C980.493 220.613 980.493 220.613 978.999 219.119C978.773 216.418 978.668 213.707 978.625 210.997C978.587 209.52 978.548 208.043 978.509 206.522C978.67 205.257 978.832 203.992 978.999 202.688C988.311 196.48 1000.1 197.884 1010.93 197.834ZM1001.79 262.774C999.155 266.485 999.314 269.22 999.35 273.732C999.339 275.182 999.327 276.631 999.315 278.125C999.512 279.356 999.708 280.586 999.91 281.854C1004.84 285.138 1006.57 285.284 1012.33 285.308C1013.71 285.333 1015.09 285.358 1016.51 285.384C1021.83 284.956 1021.83 284.956 1029.78 280.36C1029.78 272.966 1029.78 265.572 1029.78 257.955C1020.56 257.619 1009.65 257.228 1001.79 262.774Z" fill="white"/>
<path d="M1337.76 197.554C1338.92 197.54 1340.07 197.525 1341.26 197.51C1348.53 197.617 1353.59 198.716 1359.89 202.689C1372.36 215.726 1372.07 229.479 1372.04 246.554C1372.04 248.16 1372.04 249.766 1372.04 251.421C1372.04 254.798 1372.04 258.175 1372.03 261.552C1372.03 266.744 1372.03 271.936 1372.04 277.128C1372.04 280.411 1372.04 283.694 1372.04 286.977C1372.04 288.537 1372.04 290.097 1372.05 291.705C1372.04 293.852 1372.04 293.852 1372.03 296.043C1372.03 297.308 1372.03 298.574 1372.03 299.877C1371.84 302.765 1371.84 302.765 1370.34 304.259C1366.32 304.368 1362.33 304.397 1358.3 304.352C1357.17 304.346 1356.04 304.339 1354.87 304.332C1352.06 304.314 1349.25 304.287 1346.45 304.259C1346.4 301.39 1346.4 301.39 1346.36 298.463C1346.24 291.308 1346.11 284.154 1345.97 277C1345.92 273.914 1345.86 270.829 1345.82 267.743C1345.75 263.286 1345.66 258.829 1345.57 254.372C1345.55 253.012 1345.54 251.651 1345.52 250.25C1345.32 241.251 1344.69 232.234 1341.96 223.6C1337.49 219.942 1333.4 220.502 1327.87 220.893C1321.87 221.526 1317.42 223.851 1312.09 226.587C1312.08 227.538 1312.06 228.49 1312.04 229.469C1311.88 239.33 1311.71 249.191 1311.54 259.052C1311.47 262.737 1311.41 266.421 1311.35 270.106C1311.26 275.389 1311.17 280.672 1311.07 285.955C1311.05 287.614 1311.02 289.273 1310.99 290.981C1310.96 292.507 1310.94 294.032 1310.9 295.603C1310.88 296.953 1310.86 298.303 1310.83 299.694C1310.6 302.765 1310.6 302.765 1309.1 304.259C1301.22 304.259 1293.33 304.259 1285.21 304.259C1285.21 269.755 1285.21 235.251 1285.21 199.701C1293.09 199.701 1300.98 199.701 1309.1 199.701C1309.6 201.18 1310.09 202.659 1310.6 204.182C1312.26 203.196 1313.92 202.211 1315.64 201.195C1323.01 197.891 1329.82 197.586 1337.76 197.554Z" fill="white"/>
<path d="M1235.91 199.701C1243.8 199.701 1251.69 199.701 1259.81 199.701C1259.81 234.205 1259.81 268.709 1259.81 304.259C1251.93 304.259 1244.04 304.259 1235.91 304.259C1233.15 301.499 1234.23 296.988 1234.23 293.296C1234.22 291.813 1234.22 291.813 1234.22 290.3C1234.21 287.018 1234.22 283.736 1234.22 280.453C1234.22 278.182 1234.22 275.91 1234.22 273.639C1234.22 268.872 1234.22 264.106 1234.23 259.339C1234.23 253.216 1234.23 247.093 1234.22 240.97C1234.22 236.277 1234.22 231.585 1234.22 226.893C1234.22 224.634 1234.22 222.376 1234.22 220.118C1234.21 216.966 1234.22 213.816 1234.23 210.665C1234.23 208.868 1234.23 207.071 1234.23 205.22C1234.42 201.195 1234.42 201.195 1235.91 199.701Z" fill="white"/>
<path d="M155.253 66.1915C157.476 68.257 157.476 68.257 159.623 72.6447C158.904 77.6722 158.297 78.5857 154.768 81.9802C143.065 90.5517 129.837 91.4145 115.746 91.3157C114.241 91.3455 112.736 91.3754 111.186 91.4061C99.2457 91.3984 87.2847 89.6947 77.8615 81.8135C75.323 78.7127 75.323 78.7127 75.043 73.5782C77.4048 66.4928 80.8177 64.1823 87.2725 60.7886C107.921 52.1848 136.574 53.275 155.253 66.1915Z" fill="#F8F6F5"/>
<path d="M273.307 66.1916C275.477 68.2571 275.477 68.2571 277.624 72.6448C276.746 78.7911 274.18 80.6503 269.356 84.3083C254.298 94.234 228.753 93.0047 211.681 89.5362C207.809 88.184 204.364 86.6914 200.793 84.6876C199.191 83.7942 197.589 82.9008 195.939 81.9803C193.325 78.7129 193.325 78.7129 192.951 73.5783C195.384 66.6459 198.886 63.8975 205.274 60.7887C225.769 52.2975 254.828 53.2259 273.307 66.1916Z" fill="#F8F6F6"/>
<path d="M350.999 57.4281C352.564 57.3973 354.128 57.3665 355.74 57.3348C367.883 57.2744 379.89 58.3764 389.928 65.8301C393.476 69.751 393.476 69.751 394.596 73.4852C392.924 79.0592 389.231 81.668 384.514 84.6878C377.125 88.5192 370.35 90.2335 362.109 90.6626C359.414 90.807 359.414 90.807 356.665 90.9543C341.608 91.4952 328.603 89.9065 315.524 81.7005C311.197 76.9249 311.197 76.9249 311.323 72.7384C319.64 58.2743 336.132 57.4995 350.999 57.4281Z" fill="#F8F6F6"/>
<path d="M175.773 198.768C181.375 199.701 181.375 199.701 184.362 202.688C182.791 204.121 182.791 204.121 181.188 205.583C176.837 209.922 173.728 214.809 170.405 219.953C167.857 223.71 165.113 227.185 162.237 230.695C152.702 242.463 143.657 254.314 137.988 268.434C135.944 272.689 133.062 275.851 129.884 279.304C126.244 283.371 123.243 287.829 120.134 292.309C116.488 288.664 116.022 285.706 115.51 280.658C115.937 270.842 123.837 262.022 129.656 254.594C137.802 243.977 145.534 233.114 153.149 222.111C154.784 219.752 156.427 217.397 158.077 215.049C159.685 212.758 161.276 210.456 162.85 208.142C163.614 207.055 164.378 205.967 165.166 204.847C165.835 203.877 166.504 202.907 167.193 201.907C170.069 199.065 171.777 198.874 175.773 198.768Z" fill="#D6D5D6"/>
<path d="M55.9047 154.891C62.2182 156.489 68.3326 158.544 74.4824 160.679C76.1258 161.224 77.7691 161.769 79.4623 162.33C91.5514 166.437 91.5514 166.437 93.2468 169.828C83.2206 169.226 74.873 166.144 65.5611 162.447C59.9681 160.738 55.7419 160.259 49.93 160.866C47.2735 162.601 47.2735 162.601 45.4489 165.347C44.8385 168.603 44.8385 168.603 45.07 172.418C45.1111 174.028 45.1522 175.638 45.1944 177.296C45.2764 179.288 45.3616 181.279 45.4489 183.271C45.4957 184.445 45.5425 185.618 45.5906 186.828C46.009 197.223 46.5172 207.614 47.0301 218.005C47.1944 221.394 47.3582 224.783 47.5217 228.172C47.952 237.068 48.3874 245.963 48.8239 254.858C49.1763 262.055 49.5249 269.252 49.8734 276.449C51.3349 306.633 52.7967 336.817 54.411 366.994C48.2381 361.358 48.1755 356.066 47.7485 347.965C47.693 346.943 47.6375 345.922 47.5803 344.87C47.3967 341.466 47.2222 338.062 47.0476 334.658C46.9194 332.243 46.7907 329.828 46.6615 327.414C46.3893 322.305 46.1211 317.196 45.8561 312.087C45.4604 304.461 45.0549 296.835 44.6481 289.21C44.0429 277.836 43.4503 266.461 42.8669 255.085C42.5363 248.639 42.2028 242.194 41.8628 235.748C41.5239 229.323 41.1919 222.898 40.8646 216.473C40.7419 214.085 40.617 211.698 40.4894 209.311C39.817 196.692 39.312 184.071 39.119 171.436C39.086 170.293 39.053 169.151 39.0189 167.974C38.9592 160.155 38.9592 160.155 41.4186 156.418C46.0528 153.629 50.7582 154.165 55.9047 154.891Z" fill="#E30617"/>
<path d="M351 57.4281C352.565 57.3973 354.129 57.3665 355.741 57.3348C367.883 57.2744 379.89 58.3764 389.929 65.8301C393.477 69.751 393.477 69.751 394.037 73.952C393.76 75.5694 393.76 75.5694 393.477 77.2194C392.042 76.251 390.608 75.2827 389.13 74.2849C382.437 70.4807 376.486 70.3541 368.918 70.3987C367.595 70.3894 366.272 70.3802 364.909 70.3706C362.126 70.3601 359.342 70.3647 356.56 70.3837C352.313 70.4045 348.072 70.3534 343.826 70.2966C341.112 70.2951 338.398 70.2979 335.684 70.3053C334.424 70.2855 333.163 70.2657 331.864 70.2453C322.974 70.385 319.061 72.3601 312.818 78.7131C311.698 76.1925 311.698 76.1925 311.324 72.7384C319.641 58.2743 336.132 57.4995 351 57.4281Z" fill="#CDC8C8"/>
<path d="M273.347 65.9064C276.454 69.3367 276.505 72.721 276.97 77.2199C275.836 76.5902 274.702 75.9606 273.534 75.3119C272.049 74.4936 270.565 73.6753 269.035 72.8322C267.562 72.0177 266.089 71.2032 264.572 70.3641C255.289 65.5145 246.061 66.3757 235.801 66.2973C233.951 66.254 232.102 66.2107 230.197 66.166C217.054 66.0756 205.644 67.3002 195.378 76.0996C194.7 76.9622 194.023 77.8248 193.324 78.7135C193.418 73.9524 193.418 73.9524 194.818 68.2578C214.59 49.3456 251.388 52.9492 273.347 65.9064Z" fill="#CDC7C7"/>
<path d="M155.295 65.906C158.469 69.3268 158.508 72.6853 158.97 77.2195C157.836 76.5899 156.702 75.9603 155.534 75.3116C154.049 74.4933 152.565 73.6749 151.035 72.8318C149.562 72.0174 148.089 71.2029 146.572 70.3638C137.289 65.5141 128.061 66.3754 117.801 66.297C115.951 66.2536 114.102 66.2103 112.197 66.1657C99.0536 66.0752 87.644 67.2998 77.378 76.0993C76.7003 76.9619 76.0225 77.8245 75.3242 78.7132C75.5017 69.6609 75.5017 69.6609 78.9301 66.0052C100.303 50.2813 133.273 53.0978 155.295 65.906Z" fill="#CDC7C8"/>
<path d="M387.502 219.119C391.789 226.704 392.416 235.083 393.757 243.578C394.041 245.257 394.325 246.936 394.617 248.666C394.878 250.295 395.139 251.924 395.408 253.602C395.647 255.082 395.886 256.561 396.132 258.085C396.496 262.861 396.118 266.752 394.97 271.398C391.662 274.56 391.662 274.56 387.595 277.186C386.257 278.076 384.919 278.965 383.54 279.882C380.033 281.854 380.033 281.854 377.046 281.854C376.902 274.883 377.339 268.454 378.575 261.596C378.898 259.79 379.222 257.984 379.555 256.123C380.069 253.333 380.069 253.333 380.593 250.486C381.09 247.696 381.09 247.696 381.597 244.85C383.178 236.127 384.81 227.572 387.502 219.119Z" fill="#890D0E"/>
<path d="M1234.42 162.359C1238.62 162.319 1242.82 162.29 1247.02 162.266C1248.22 162.254 1249.42 162.241 1250.66 162.228C1253.71 162.215 1256.76 162.281 1259.81 162.359C1261.31 163.853 1261.31 163.853 1261.5 168.521C1261.5 170.431 1261.5 172.341 1261.49 174.309C1261.5 177.174 1261.5 177.174 1261.5 180.097C1261.31 184.765 1261.31 184.765 1259.81 186.258C1255.81 186.407 1251.86 186.466 1247.86 186.445C1246.18 186.454 1246.18 186.454 1244.47 186.463C1236.1 186.447 1236.1 186.447 1234.42 184.765C1234.31 180.985 1234.28 177.247 1234.33 173.469C1234.33 172.407 1234.34 171.345 1234.35 170.251C1234.36 167.62 1234.39 164.99 1234.42 162.359Z" fill="white"/>
<path d="M52.9177 159.372C52.4248 206.692 51.9319 254.012 51.424 302.766C50.9311 302.766 50.4382 302.766 49.9303 302.766C49.1459 287.495 48.3665 272.225 47.5933 256.954C47.234 249.861 46.8731 242.769 46.5083 235.677C46.1556 228.82 45.8075 221.963 45.4623 215.106C45.3305 212.503 45.1971 209.899 45.0621 207.296C44.6996 200.298 44.3637 193.301 44.083 186.3C43.9633 183.454 43.8153 180.611 43.6653 177.767C43.6109 176.174 43.5565 174.581 43.5005 172.939C43.4142 170.925 43.4142 170.925 43.3262 168.871C44.2591 163.647 47.31 159.372 52.9177 159.372Z" fill="#C8BBBD"/>
<path d="M181.375 195.22C185.286 196.091 188.936 197.025 192.735 198.225C193.761 198.539 194.788 198.853 195.845 199.176C197.995 199.839 200.143 200.511 202.287 201.192C205.553 202.221 208.829 203.207 212.109 204.191C214.209 204.845 216.309 205.501 218.408 206.16C219.862 206.592 219.862 206.592 221.345 207.033C228.085 209.225 231.993 212.335 236.641 217.625C236.148 218.611 235.655 219.597 235.147 220.613C234.412 220.264 233.677 219.915 232.919 219.555C222.665 214.832 212.139 211.14 201.446 207.543C199.683 206.929 197.921 206.315 196.104 205.682C182.996 200.953 182.996 200.953 169.425 201.195C165.771 204.362 163.446 208.113 160.93 212.211C159.392 214.548 157.852 216.884 156.309 219.218C155.523 220.433 154.738 221.649 153.928 222.901C149.977 228.902 145.745 234.693 141.512 240.497C140.705 241.614 139.897 242.73 139.065 243.88C132.366 253.135 125.547 262.296 118.64 271.398C118.147 270.412 117.654 269.426 117.146 268.411C123.037 259.444 129.127 250.661 135.444 241.991C137.15 239.64 138.856 237.289 140.561 234.937C141.398 233.783 142.235 232.63 143.097 231.441C146.003 227.421 148.886 223.386 151.76 219.343C153.002 217.6 154.249 215.861 155.502 214.126C158.086 210.546 160.596 206.959 162.955 203.225C164.032 201.573 164.032 201.573 165.131 199.888C165.689 198.968 166.248 198.047 166.823 197.099C171.155 193.971 176.249 194.829 181.375 195.22Z" fill="#E30C1D"/>
<path d="M172.185 199.556C175.248 199.604 178.312 199.653 181.375 199.702C181.375 200.194 181.375 200.687 181.375 201.195C178.91 201.195 176.446 201.195 173.906 201.195C173.598 202.428 173.29 203.66 172.973 204.929C170.773 210.529 168.003 214.314 164.314 218.997C162.021 222.022 160.069 225.102 158.129 228.362C155.01 233.486 151.388 237.386 147.02 241.525C144.571 244.539 142.536 247.505 140.579 250.86C131.447 265.742 131.447 265.742 126.109 268.411C125.462 270.213 125.462 270.213 124.802 272.052C122.797 276.619 121.448 276.785 117.147 278.867C115.944 281.929 115.944 281.929 115.653 284.841C115.42 272.967 121.634 265.495 128.453 256.349C131.537 252.199 134.55 247.998 137.571 243.802C140.031 240.387 142.501 236.979 144.972 233.572C150.86 225.43 156.647 217.217 162.414 208.989C168.917 199.728 168.917 199.728 172.185 199.556Z" fill="#B9B5B6"/>
<path d="M173.906 201.195C177.357 201.195 180.807 201.195 184.362 201.195C183.315 202.396 182.267 203.598 181.188 204.836C178.065 208.571 175.341 212.421 172.693 216.505C169.448 221.472 165.994 226.103 162.237 230.695C153.927 240.91 145.061 251.925 139.552 263.929C138.566 263.929 137.58 263.929 136.564 263.929C138.457 255.938 142.602 250.395 147.335 243.87C149.712 240.455 151.712 237.077 153.648 233.402C157.337 226.49 161.896 220.379 166.636 214.154C169.537 209.997 171.748 205.774 173.906 201.195Z" fill="#D3D2D2"/>
<path d="M406.919 162.359C411.779 167.219 412.109 173.615 412.894 180.283C412.732 183.957 412.185 187.129 411.4 190.739C410.907 190.739 410.414 190.739 409.906 190.739C409.726 189.497 409.545 188.255 409.358 186.975C409.108 185.352 408.857 183.729 408.6 182.057C408.236 179.639 408.236 179.639 407.864 177.173C407.141 172.556 407.141 172.556 403.932 168.333C395.878 167.062 391.681 168.02 384.887 172.534C382.749 174.092 380.632 175.678 378.539 177.295C376.548 178.789 374.556 180.283 372.564 181.776C374.547 173.352 380.569 169.737 387.501 165.346C394.182 161.483 399.318 160.061 406.919 162.359Z" fill="#C22334"/>
<path d="M381.527 68.2572C381.527 68.7501 381.527 69.2431 381.527 69.7509C362.797 69.7509 344.066 69.7509 324.768 69.7509C335.942 58.5766 368.39 63.3103 381.527 68.2572Z" fill="#DFDFE0"/>
<path d="M234.96 64.9899C236.853 64.9716 238.746 64.9533 240.696 64.9344C242.527 64.9315 244.358 64.9286 246.245 64.9257C247.912 64.9195 249.579 64.9134 251.297 64.9071C256.301 65.2884 260.346 66.4779 265.021 68.2573C265.021 68.7502 265.021 69.2431 265.021 69.751C245.304 69.751 225.588 69.751 205.273 69.751C212.599 62.4257 225.346 64.9947 234.96 64.9899Z" fill="#E1E1E1"/>
<path d="M116.96 64.9899C118.853 64.9716 120.746 64.9533 122.696 64.9344C124.527 64.9315 126.358 64.9286 128.245 64.9257C129.912 64.9195 131.579 64.9134 133.297 64.9071C138.301 65.2884 142.346 66.4779 147.021 68.2573C147.021 68.7502 147.021 69.2431 147.021 69.751C127.304 69.751 107.588 69.751 87.2734 69.751C94.5987 62.4257 107.346 64.9947 116.96 64.9899Z" fill="#E1E1E1"/>
<path d="M173.906 210.157C174.892 210.65 175.878 211.143 176.894 211.65C175.369 213.611 173.844 215.571 172.319 217.532C171.359 218.77 170.398 220.008 169.408 221.283C167.579 223.63 165.741 225.969 163.888 228.297C150.287 245.212 150.287 245.212 139.552 263.929C138.566 263.929 137.58 263.929 136.564 263.929C139.603 251.1 148.975 240.966 157.61 231.407C163.423 224.631 168.622 217.347 173.906 210.157Z" fill="#D9D9D9"/>
<path d="M139.551 241.524C140.044 242.51 140.537 243.496 141.045 244.512C140.45 245.253 139.855 245.994 139.242 246.758C134.196 253.229 130.598 259.212 127.602 266.917C124.8 273.373 123.432 275.933 117.146 278.866C115.943 281.929 115.943 281.929 115.653 284.841C115.399 271.889 123.157 263.347 130.589 253.474C131.541 252.186 132.492 250.898 133.472 249.57C135.476 246.87 137.499 244.188 139.551 241.524Z" fill="#AAA0A2"/>
<path d="M151.5 234.056C151.992 235.534 152.485 237.013 152.993 238.537C149.528 243.542 145.418 247.762 141.044 251.98C141.528 243.986 146.267 239.608 151.5 234.056ZM139.55 251.98C140.043 252.966 140.536 253.952 141.044 254.967C139.048 260.754 134.942 264.264 130.588 268.41C129.448 269.55 128.308 270.69 127.134 271.864C125.886 273.112 125.886 273.112 124.613 274.385C125.24 267.075 128.326 264.331 133.575 259.448C135.6 256.986 137.603 254.504 139.55 251.98Z" fill="#C8C8C8"/>
<path d="M176.052 198.86C177.808 199.138 179.564 199.415 181.373 199.7C181.373 200.193 181.373 200.686 181.373 201.194C178.908 201.194 176.444 201.194 173.905 201.194C173.504 202.064 173.104 202.935 172.691 203.831C170.895 207.21 168.918 209.866 166.436 212.77C165.666 213.687 164.896 214.603 164.102 215.547C161.955 217.625 161.955 217.625 158.968 217.625C158.968 218.61 158.968 219.596 158.968 220.612C157.982 220.612 156.996 220.612 155.98 220.612C159.397 211.274 164.72 198.78 176.052 198.86Z" fill="#B8A3A5"/>
<path d="M61.8804 157.878C72.712 160.597 82.9769 163.945 93.2477 168.334C93.2477 168.827 93.2477 169.32 93.2477 169.828C81.5374 169.125 71.2597 165.004 60.3867 160.866C60.8796 159.88 61.3725 158.894 61.8804 157.878Z" fill="#E71B2B"/>
<path d="M408.413 165.347C410.984 169.888 411.989 173.702 412.52 178.883C412.667 180.164 412.813 181.444 412.964 182.763C412.894 186.258 412.894 186.258 409.906 190.739C409.635 188.902 409.635 188.902 409.358 187.028C409.108 185.419 408.857 183.809 408.599 182.151C408.357 180.556 408.114 178.962 407.864 177.319C407.02 173.297 405.972 170.372 403.932 166.84C405.41 166.347 406.889 165.855 408.413 165.347Z" fill="#B6303F"/>
<path d="M436.793 317.702C437.286 317.702 437.779 317.702 438.286 317.702C440.262 325.112 439.913 332.506 439.78 340.107C435.955 336.282 436.192 334.219 435.766 328.905C435.637 327.441 435.508 325.978 435.375 324.47C435.299 320.69 435.299 320.69 436.793 317.702Z" fill="#BB3443"/>
<path d="M144.033 235.549C144.526 235.549 145.019 235.549 145.527 235.549C146.087 238.63 146.087 238.63 145.527 243.018C142.85 246.805 139.787 250.145 136.564 253.473C136.564 248.743 137.329 246.937 139.458 242.831C139.996 241.78 140.533 240.728 141.086 239.645C142.539 237.043 142.539 237.043 144.033 235.549Z" fill="#B0AAAC"/>
<path d="M123.121 263.929C123.614 264.915 124.107 265.901 124.614 266.917C123.558 269.612 123.558 269.612 121.907 272.705C121.374 273.717 120.84 274.73 120.291 275.774C119.746 276.794 119.201 277.815 118.64 278.866C117.638 280.855 116.641 282.846 115.652 284.841C116.27 275.889 117.623 271.024 123.121 263.929Z" fill="#AB9496"/>
<path d="M135.069 256.461C135.562 257.94 136.055 259.418 136.563 260.942C134.421 264.32 134.421 264.32 131.428 267.944C130.444 269.151 129.46 270.358 128.447 271.602C127.675 272.52 126.902 273.439 126.107 274.385C125.144 271.637 125.144 271.637 124.613 268.41C128.067 264.583 128.067 264.583 132.082 260.942C133.068 259.463 134.053 257.984 135.069 256.461Z" fill="#C1C1C2"/>
<path d="M123.12 274.385C123.12 280.161 121 284.107 118.639 289.322C118.146 289.322 117.653 289.322 117.145 289.322C116.772 284.374 116.772 284.374 117.145 278.866C120.133 275.972 120.133 275.972 123.12 274.385Z" fill="#C2C0C0"/>
<path d="M399.453 162.359C401.917 162.359 404.382 162.359 406.921 162.359C407.414 164.331 407.907 166.303 408.415 168.334C404.964 167.348 401.514 166.362 397.959 165.347C398.452 164.361 398.945 163.375 399.453 162.359Z" fill="#C4061C"/>
</svg>
