<svg xmlns="http://www.w3.org/2000/svg" width="152" height="72" fill="none" viewBox="0 0 152 72">
    <path fill="#fff" fill-rule="evenodd"
          d="M36.57 55.66C33.04 59.1 28.03 61 21.47 61c-6.93 0-13.28-3.09-16.81-8.64l9.32-8.07c2.54 3.44 4.94 4.77 7.9 4.77a7.4 7.4 0 0 0 5.3-2.25c1.34-1.33 2.33-3.23 3.74-8.35L38.34 11h13.62l-8.05 30.06c-1.9 7.02-3.95 11.23-7.34 14.6Zm53.3-7.09-3.1 11.59H46.8L60.08 11h39.6l-3.17 11.59H70.53l-2.05 7.44h23.58l-2.9 10.75H65.6l-2.12 7.79h26.4Zm29.44 11.59 10.03-37.22h14.82L147.34 11h-43.28l-3.24 11.94h14.82l-10.1 37.22h13.77Z"
          clip-rule="evenodd"/>
</svg>