<svg width="1504" height="713" viewBox="0 0 1504 713" fill="none" xmlns="http://www.w3.org/2000/svg">
<mask id="mask0_2_509" style="mask-type:luminance" maskUnits="userSpaceOnUse" x="0" y="0" width="1504" height="713">
<path d="M0 0H1504V713H0V0Z" fill="white"/>
</mask>
<g mask="url(#mask0_2_509)">
<path d="M321.426 19.1685C365.149 38.5163 398.309 74.2379 418.577 117.161C439.991 71.1924 476.839 33.751 524.502 15.4423C578.359 -5.76856 641.348 -3.22469 694.74 18.1653C745.411 38.3729 787.917 77.1042 812.446 125.832C855.167 209.851 844.102 317.589 784.479 390.717C758.589 422.39 719.843 447.542 678.447 451.089C689.118 441.809 700.255 433.998 709.386 423.07C736.172 391.684 749.994 349.119 749.959 308.131C749.636 275.204 740.218 241.954 717.193 217.59C683.997 182.621 631.429 170.117 585.844 185.667C602.244 194.731 617.177 205.158 627.991 220.743C649.047 249.478 653.559 288.747 639.88 321.602C631.68 342.312 616.783 358.076 598.914 370.903C611.805 398.313 624.733 425.686 637.23 453.274C606.47 457.932 577.894 450.695 551.18 435.432C549.533 448.832 546.238 457.574 539.184 468.968C545.808 489.104 554.474 499.996 571.448 512.357C558.306 514.542 545.844 515.116 532.523 514.471C539.363 530.128 548.96 542.059 561.171 553.775C549.568 554.958 537.93 555.567 526.292 556.606C528.011 559.365 529.802 562.123 531.628 564.811C544.949 572.908 560.204 578.39 574.17 585.448C583.981 564.201 593.865 542.955 603.712 521.708C627.92 532.851 652.127 543.994 676.37 555.137C666.952 575.523 657.57 595.946 648.224 616.369C644.679 623.499 641.671 631.059 633.327 633.603C623.73 636.505 615.351 633.065 606.685 629.231C580.186 616.906 553.83 604.33 527.188 592.363C529.766 612.535 534.672 627.547 544.34 645.247C534.278 644.315 522.783 644.244 513.508 639.944C505.952 636.541 500.187 630.235 494.279 624.574C494.279 648.185 496.499 670.614 504.019 693.115C477.949 687.776 457.252 679.177 435.945 663.197C442.426 674.949 448.192 686.056 458.111 695.408C465.524 702.609 474.154 706.766 483.249 711.316C446.724 713.143 412.275 711.137 381.049 690.069C355.302 673.015 341.193 646.573 333.959 617.157C328.767 629.805 325.258 642.202 322.751 655.673C297.075 628.981 292.922 589.748 305.562 555.817C295.679 555.495 285.903 554.814 276.091 553.847C288.159 541.987 297.577 530.02 304.631 514.506C291.274 515.116 278.777 514.542 265.563 512.357C282.465 500.031 291.31 489.104 297.863 469.003C290.809 457.538 287.622 448.832 285.76 435.36C259.046 450.946 230.577 457.789 199.709 453.31C212.422 425.829 225.17 398.348 238.169 371.011C225.098 361.122 213.066 350.588 204.615 336.292C185.636 305.623 184.311 265.458 201.178 233.534C212.171 211.929 230.219 196.523 251.633 185.738C206.835 170.511 155.592 181.869 122.074 215.333C98.3685 238.873 88.1628 271.764 87.2317 304.584C86.3007 346.109 99.7292 389.427 126.443 421.601C135.861 433.174 147.463 441.379 158.636 451.017C118.422 447.793 80.2847 423.5 54.645 393.189C-8.6662 317.769 -19.2658 204.119 28.6831 118.129C59.3003 62.5934 113.731 21.999 175.395 7.66737C223.451 -4.01293 276.055 -1.28992 321.426 19.1685Z" fill="black"/>
<path d="M505.415 183.732C474.19 197.884 453.42 219.812 442.534 252.524C425.453 249.227 411.63 249.156 394.585 252.488C388.856 236.902 381.622 222.284 369.948 210.245C359.205 198.422 345.848 190.826 331.703 183.768C344.738 169.794 359.599 158.293 377.755 151.915C422.875 135.47 473.617 147.544 505.415 183.732ZM277.416 213.542C301.194 207.737 326.905 215.154 343.95 232.71C364.254 253.097 369.805 285.128 357.594 311.212C345.239 338.299 315.983 355.103 286.333 351.663C252.994 348.438 225.779 320.169 223.774 286.705C221.124 252.954 244.543 221.245 277.416 213.542ZM524.574 214.115C551.001 206.734 580.043 215.942 597.339 237.153C616.031 259.367 618.717 292.437 603.784 317.374C589.067 342.813 558.772 356.643 529.873 350.803C497.824 344.891 473.259 315.726 473.044 283.05C472.184 251.485 494.136 222.32 524.574 214.115Z" fill="white"/>
<path d="M332.204 240.879C346.85 255.282 348.784 273.233 347.602 292.831C341.837 281.939 337.182 271.621 327.155 263.81C308.678 248.869 281.462 248.367 262.34 262.377C251.203 270.295 246.226 281.294 239.637 292.76C239.243 274.2 240.317 257.217 253.495 242.921C273.692 219.847 310.826 218.88 332.204 240.879ZM583.945 243.387C596.837 257.647 597.875 274.379 597.159 292.724C591.322 282.262 586.846 272.051 577.285 264.347C558.986 249.156 531.663 248.081 512.362 261.983C500.975 269.614 495.711 280.757 489.909 292.76C487.868 273.054 490.447 254.745 505.308 240.449C526.901 218.665 564.035 220.098 583.945 243.387Z" fill="black"/>
<path d="M438.272 282.262C439.776 302.649 444.288 322.104 455.89 339.23C468.961 359.76 488.405 372.444 510.285 382.01C489.122 378.857 471.074 372.515 452.023 363.021C471.861 387.85 492.953 401.179 523.785 408.99C523.642 419.452 524.215 430.2 522.783 440.591C518.664 454.385 503.982 465.779 501.834 480.003C500.974 503.686 501.834 527.441 501.547 551.16C478.414 540.339 455.282 529.59 432.184 518.806C432.184 500.354 432.184 481.938 432.149 463.486C443.5 452.522 455.138 441.845 466.418 430.809C471.897 425.113 477.197 420.312 478.128 411.963C474.869 401.43 463.84 402.684 454.959 402.11C427.529 402.361 400.027 401.645 372.633 402.504C363.896 402.899 355.122 407.485 359.097 417.66C367.656 431.884 382.911 442.561 394.477 454.457C398.058 458.505 405.184 462.877 404.611 468.788C405.363 485.449 404.647 502.181 404.826 518.842C381.729 529.626 358.632 540.375 335.499 551.16C335.141 526.437 336.107 501.572 335.176 476.886C331.81 463.951 317.845 453.955 314.264 440.842C312.939 430.38 313.619 419.595 313.512 409.061C343.09 401.035 363.108 387.779 381.299 363.057C364.146 371.512 347.208 377.818 328.373 381.544C345.597 373.268 361.64 364.131 373.851 349.047C390.18 330.022 397.378 306.59 398.846 281.832C413.313 278.858 423.841 279.001 438.272 282.262Z" fill="white"/>
<path fill-rule="evenodd" clip-rule="evenodd" d="M1017.8 308.32C1006.47 308.378 995.136 308.435 983.795 308.062C984.722 309.148 985.653 310.184 986.563 311.198C991.351 316.518 995.558 321.194 995.469 329.417C996.167 356.647 996.053 383.949 995.942 411.24C995.866 428.688 995.795 446.134 995.934 463.557H1020.36C1020.37 454.267 1020.37 444.973 1020.36 435.682C1020.36 423.296 1020.35 410.914 1020.39 398.528C1024.01 398.384 1027.74 398.348 1031.52 398.316C1047.22 398.173 1063.89 398.019 1077.08 389.821C1099.78 377.173 1102 340.699 1084.46 323C1074.89 312.323 1059.6 308.955 1045.85 308.417C1036.5 308.224 1027.15 308.274 1017.8 308.32ZM1028.17 316.758C1025.72 316.778 1023.27 316.769 1020.82 316.73C1020.79 341.093 1020.75 365.457 1020.86 389.821C1023.51 389.726 1026.16 389.699 1028.81 389.739C1038.64 389.796 1049.3 389.86 1056.77 383.838C1068.2 375.059 1069.56 360.728 1068.84 347.292C1068.41 334.572 1060.57 320.957 1047.57 317.769C1041.24 316.704 1034.67 316.73 1028.17 316.758Z" fill="black"/>
<path d="M1258.63 331.24C1258.74 340.018 1258.7 348.797 1258.81 357.61C1268.77 357.861 1279.33 356.571 1289.11 358.363C1290.61 360.226 1292.15 362.232 1293.73 364.346C1282.05 365.421 1270.41 365.314 1258.7 365.278C1258.85 389.283 1258.49 413.289 1258.78 437.295C1259.06 445.464 1260.03 453.704 1268.48 457.287C1277.33 460.44 1288.36 454.385 1296.7 451.447L1295.19 461.228C1279.58 465.707 1263.04 469.147 1248.32 460.082C1239.15 453.919 1236.61 444.21 1236.43 433.712C1236 410.996 1236.5 388.209 1236.32 365.493C1230.74 365.242 1225.12 364.991 1219.53 364.705C1231.96 352.845 1245.24 341.953 1258.63 331.24ZM1479.69 356.106C1488.35 353.418 1495.48 357.216 1503.61 359.689L1500.28 373.949C1490.57 370.975 1481.19 366.675 1471.56 372.587C1460.21 379.681 1457.45 392.186 1456.91 404.726C1456.45 424.289 1456.98 443.815 1456.84 463.378C1449.21 463.521 1441.58 463.521 1433.96 463.593C1433.74 434.392 1434.31 405.156 1433.74 375.991C1434.21 367.643 1428.87 363.558 1424.36 357.431C1434.85 357.646 1445.38 357.61 1455.87 357.646C1455.98 365.027 1456.02 372.408 1456.05 379.789C1462.32 370.33 1468.08 359.581 1479.69 356.106Z" fill="black"/>
<path fill-rule="evenodd" clip-rule="evenodd" d="M1208.98 406.449C1208.03 393.218 1207.18 381.233 1198.19 370.473C1180.93 349.155 1143.47 350.266 1125.31 369.972C1102.54 393.655 1104.08 438.871 1132.8 457.323C1156.54 470.974 1184.11 467.463 1207.28 454.385C1206.57 451.805 1205.85 449.226 1205.13 446.61L1205.01 446.675C1192.74 452.705 1181.38 458.287 1167.21 457.251C1157.22 456.786 1148.45 452.128 1142.86 443.78C1136.55 434.636 1135.4 424.514 1134.2 413.981C1134.01 412.257 1133.81 410.519 1133.59 408.775C1148.97 408.642 1164.37 408.66 1179.76 408.674C1189.56 408.685 1199.35 408.696 1209.14 408.667L1208.98 406.449ZM1185.72 397.159C1184.83 387.234 1183.96 377.403 1177.67 369.076C1171.26 360.047 1155.65 360.083 1148.02 367.428C1139.37 375.242 1137.05 387.019 1134.88 398.029C1134.65 399.187 1134.43 400.333 1134.2 401.465C1151.53 401.501 1168.82 401.501 1186.12 401.465C1185.98 400.032 1185.85 398.592 1185.72 397.159ZM1406.37 405.944C1405.11 392.931 1403.97 381.046 1395.46 370.258C1382.89 353.239 1355.03 351.448 1337.13 359.581C1306.08 374.773 1298.38 417.266 1317.07 444.89C1328.39 461.264 1348.94 466.997 1367.96 465.85C1381.11 465.496 1392.18 460.444 1403.86 455.116L1404.13 454.994L1403.46 451.164C1403.2 449.631 1402.93 448.101 1402.66 446.574C1386.87 454.779 1368.64 462.16 1351.27 453.812C1334.59 443.959 1332.58 426.331 1331.04 408.775C1346.45 408.642 1361.85 408.66 1377.25 408.674C1387.05 408.685 1396.84 408.696 1406.63 408.667L1406.37 405.944ZM1383.28 396.614C1382.31 386.747 1381.37 377.291 1374.87 369.004C1368.35 360.011 1352.74 360.047 1345.22 367.679C1336.92 375.658 1334.31 387.668 1331.94 398.606C1331.74 399.556 1331.53 400.498 1331.33 401.43C1348.8 401.537 1366.31 401.501 1383.79 401.465C1383.61 399.85 1383.44 398.233 1383.28 396.614Z" fill="black"/>
<path d="M378.937 412.286C404.254 409.634 432.973 409.025 458.147 412.787C447.333 424.074 433.689 424.503 418.972 425.041C404.218 424.611 389.644 423.715 378.937 412.286Z" fill="white"/>
<path d="M1110.99 476.742C1111.1 481.759 1111.24 486.739 1111.35 491.755C1096.7 480.827 1081.52 473.375 1063.01 479.931C1047 486.022 1041.59 506.373 1053.16 519.343C1067.02 534.212 1090.04 538.942 1104.94 553.381C1125.39 571.582 1122.06 608.379 1098.92 622.925C1078.08 636.612 1047.68 632.814 1026.23 622.28C1026.19 616.225 1026.12 610.17 1026.09 604.115C1041.3 618.088 1058.39 628.085 1079.73 621.349C1099.42 614.792 1103.11 586.953 1088.18 573.804C1073.86 560.762 1049.9 554.993 1036.08 539.694C1019.71 521.923 1025.51 489.104 1046.32 477.137C1065.66 464.955 1090.79 468.358 1110.99 476.742Z" fill="black"/>
<path fill-rule="evenodd" clip-rule="evenodd" d="M968.898 456.535C972.088 470.343 962.839 476.789 953.31 483.432C951.935 484.392 950.553 485.356 949.203 486.345C953.281 490.967 957.292 495.642 961.303 500.315H961.306C967.122 507.097 972.941 513.876 978.96 520.49C981.861 507.341 981.181 498.24 977.958 485.413L988.607 486.044L988.88 486.058C990.061 501.035 988.915 511.174 981.825 524.682L985.581 529.222L985.592 529.232C989.151 533.519 992.694 537.818 996.221 542.131C989.56 542.131 982.935 542.131 976.275 542.167C974.341 540.053 972.407 537.975 970.473 535.896C955.469 544.424 938.066 547.326 922.417 538.619C913.214 533.353 909.275 523.32 910.779 513.037C912.258 502.862 919.527 497.369 926.979 491.733C928.003 490.96 929.028 490.182 930.044 489.39C929.45 488.301 928.848 487.237 928.254 486.184C923.946 478.534 920.032 471.59 922.202 462.017C925.747 441.809 961.951 436.399 968.898 456.535ZM956.365 455.281C960.805 467.893 954.717 475.632 945.98 483.765C945.106 482.228 944.082 480.619 943.022 478.96L943.018 478.957C938.209 471.429 932.709 462.812 937.636 454.385C942.041 447.076 952.784 447.327 956.365 455.281ZM967.344 532.407C956.329 518.82 945.206 505.098 933.088 492.436C925.747 505.8 924.243 521.063 936.168 532.278C945.486 540.364 954.599 537.147 964.529 533.639C965.51 533.292 966.502 532.944 967.501 532.6L967.344 532.407Z" fill="black"/>
<path d="M1332.79 520.92C1343.82 518.842 1358.43 519.487 1367.21 527.441C1376.09 535.538 1376.41 547.684 1376.7 558.899C1376.73 581.973 1376.59 605.047 1376.66 628.121H1353.81C1353.67 602.611 1354.07 577.064 1353.74 551.518C1353.56 543.636 1352.24 536.362 1344.75 532.278C1330.32 525.291 1311.34 538.226 1305.87 551.518C1304.36 576.921 1305.72 602.646 1305.26 628.121H1282.88C1282.7 598.992 1283.16 569.827 1282.77 540.698C1283.2 532.35 1277.47 528.444 1273.14 522.102C1283.99 522.21 1294.84 522.21 1305.65 522.317C1305.76 527.728 1305.87 533.174 1305.94 538.584C1314.25 531.096 1321.3 523.141 1332.79 520.92ZM1468.62 525.327L1471.09 537.402C1457.81 530.773 1446.85 523.428 1431.52 529.447C1421.89 533.281 1417.99 546.896 1426.79 553.632C1438.04 562.446 1454.83 566.029 1465.72 575.774C1478.5 588.064 1477.86 611.245 1463.07 621.815C1444.81 634.785 1422.96 631.955 1402.77 625.792C1402.62 621.063 1402.55 616.369 1402.48 611.64C1415.84 618.984 1428.41 627.225 1444.16 620.883C1456.19 616.226 1460.38 599.923 1450.25 591.145C1439.18 582.475 1421.75 579.178 1411.36 569.146C1398.86 556.964 1401.84 534.249 1417.27 525.829C1430.95 517.731 1454.69 518.09 1468.62 525.327Z" fill="black"/>
<path fill-rule="evenodd" clip-rule="evenodd" d="M1236.5 532.744C1221.07 520.383 1198.69 517.086 1179.89 522.138C1160.41 527.548 1144.72 543.313 1140.71 563.306C1136.92 583.119 1142.86 604.653 1158.8 617.623C1179.64 635.251 1216.02 635.215 1236.82 617.587C1262.25 597.594 1262.07 552.45 1236.5 532.744ZM1218.71 536.255C1210.86 527.226 1198.11 524.682 1187.09 528.91C1173.73 534.356 1167.18 549.368 1165.28 562.804C1162.95 579.859 1164.53 600.819 1176.63 614.219C1185.12 624 1199.62 626.903 1210.97 620.453C1223.58 613.037 1229.3 598.132 1230.52 584.194C1231.6 567.605 1230.31 549.261 1218.71 536.255Z" fill="black"/>
<path d="M418.505 541.952C445.398 553.775 471.862 566.602 498.432 579.107C488.585 587.096 478.809 594.764 467.099 599.923C424.092 619.45 373.242 611.066 338.614 579.071C365.221 566.638 391.648 553.775 418.505 541.952Z" fill="white"/>
</g>
</svg>
