<svg width="1267" height="443" viewBox="0 0 1267 443" fill="none" xmlns="http://www.w3.org/2000/svg">
<path opacity="0.995" fill-rule="evenodd" clip-rule="evenodd" d="M1267 0.207983C1267 140.774 1267 281.339 1267 421.906C1262.47 430.996 1255.45 437.673 1245.92 441.937C837.639 443.343 429.361 443.343 21.0815 441.937C11.5528 437.673 4.52557 430.996 0 421.906C0 312.265 0 202.623 0 92.9816C4.88984 82.1448 13.3225 75.4678 25.2978 72.9509C414.604 72.2482 803.908 71.5452 1193.21 70.8424C1214.68 48.3172 1235.77 25.4751 1256.46 2.31647C1259.72 0.30942 1263.23 -0.393412 1267 0.207983Z" fill="#832CFF"/>
<path fill-rule="evenodd" clip-rule="evenodd" d="M636.662 135.151C652.825 135.151 668.986 135.151 685.15 135.151C685.15 148.505 685.15 161.859 685.15 175.213C668.986 175.213 652.825 175.213 636.662 175.213C636.662 161.859 636.662 148.505 636.662 135.151Z" fill="#FCFAFF"/>
<path fill-rule="evenodd" clip-rule="evenodd" d="M265.627 143.585C281.086 143.585 296.547 143.585 312.006 143.585C312.006 206.137 312.006 268.689 312.006 331.241C296.547 331.241 281.086 331.241 265.627 331.241C265.627 268.689 265.627 206.137 265.627 143.585Z" fill="#FEFFFE"/>
<path fill-rule="evenodd" clip-rule="evenodd" d="M151.787 282.746C149.696 298.522 148.993 314.685 149.679 331.241C133.516 331.241 117.354 331.241 101.191 331.241C101.191 271.501 101.191 211.759 101.191 152.019C134.341 151.098 167.368 152.152 200.275 155.182C234.593 169.338 248.998 194.991 243.492 232.142C234.473 260.849 215.15 277.365 185.518 281.692C174.296 282.744 163.052 283.096 151.787 282.746Z" fill="#FEFEFF"/>
<path fill-rule="evenodd" clip-rule="evenodd" d="M579.744 192.08C590.579 194.164 601.824 194.867 613.474 194.189C613.474 206.137 613.474 218.085 613.474 230.033C602.231 230.033 590.986 230.033 579.744 230.033C579.394 246.214 579.744 262.38 580.798 278.529C582.383 284.688 586.247 288.2 592.392 289.071C598.98 291.135 606.007 291.84 613.474 291.18C613.474 304.533 613.474 317.888 613.474 331.241C600.123 331.241 586.77 331.241 573.419 331.241C552.283 329.43 539.282 318.185 534.418 297.505C533.364 275.026 533.012 252.535 533.364 230.033C524.23 230.033 515.093 230.033 505.958 230.033C505.617 225.759 505.969 221.542 507.012 217.382C528.469 196.554 549.201 175.118 569.203 153.073C572.648 152.033 576.162 151.681 579.744 152.019C579.744 165.373 579.744 178.727 579.744 192.08Z" fill="#FEFDFF"/>
<path fill-rule="evenodd" clip-rule="evenodd" d="M455.362 194.189C466.604 194.189 477.849 194.189 489.092 194.189C489.092 239.874 489.092 285.556 489.092 331.241C477.063 331.935 465.118 331.231 453.253 329.133C452.37 326.661 450.966 324.553 449.037 322.807C430.376 334.739 409.996 338.604 387.901 334.404C359.042 326.623 341.825 307.997 336.251 278.529C331.368 218.055 359.124 188.185 419.523 188.918C430.186 191.791 440.023 196.359 449.037 202.623C451.19 199.668 453.298 196.857 455.362 194.189Z" fill="#FEFDFF"/>
<path fill-rule="evenodd" clip-rule="evenodd" d="M716.773 381.845C716.773 319.292 716.773 256.742 716.773 194.189C727.314 194.189 737.855 194.189 748.396 194.189C749.484 197.773 751.592 200.585 754.72 202.623C783.085 183.652 811.898 183.301 841.154 201.569C864.61 222.043 873.394 247.694 867.506 278.529C860.406 312.334 839.677 331.663 805.316 336.513C791.065 339.022 777.712 336.561 765.261 329.133C763.157 346.648 762.455 364.218 763.153 381.845C747.694 381.845 732.233 381.845 716.773 381.845Z" fill="#FEFDFF"/>
<path fill-rule="evenodd" clip-rule="evenodd" d="M1165.81 225.816C1165.81 228.627 1165.81 231.44 1165.81 234.25C1150.87 234.872 1136.11 234.17 1121.54 232.142C1116.06 221.125 1107.98 219.016 1097.29 225.816C1095.59 230.2 1095.94 234.417 1098.35 238.467C1110.48 243.469 1123.13 246.631 1136.29 247.955C1170.48 259.782 1179.26 281.921 1162.65 314.373C1153.9 324.53 1143 331.205 1129.97 334.404C1112.94 336.303 1096.07 335.601 1079.37 332.295C1059.17 323.836 1048.63 308.724 1047.75 286.963C1063.21 286.963 1078.67 286.963 1094.13 286.963C1094.81 296.078 1099.73 300.997 1108.89 301.722C1122.33 300.701 1125.85 294.728 1119.43 283.8C1107.9 279.414 1095.95 276.604 1083.59 275.366C1050.01 263.191 1041.23 241.052 1057.24 208.948C1078.47 188.36 1103.42 182.386 1132.08 191.026C1149.54 196.889 1160.78 208.486 1165.81 225.816Z" fill="#FDFCFF"/>
<path fill-rule="evenodd" clip-rule="evenodd" d="M455.361 194.189C466.903 192.104 478.85 191.401 491.2 192.081C491.898 238.832 491.194 285.219 489.092 331.241C489.092 285.556 489.092 239.874 489.092 194.189C477.849 194.189 466.604 194.189 455.361 194.189Z" fill="#EDE0FF"/>
<path fill-rule="evenodd" clip-rule="evenodd" d="M579.742 192.081C591.689 192.081 603.634 192.081 615.581 192.081C616.262 205.132 615.56 217.783 613.473 230.033C613.473 218.085 613.473 206.137 613.473 194.189C601.823 194.867 590.578 194.164 579.742 192.081Z" fill="#B782FF"/>
<path fill-rule="evenodd" clip-rule="evenodd" d="M685.15 194.189C669.691 194.189 654.229 194.189 638.77 194.189C638.77 239.874 638.77 285.557 638.77 331.241C654.229 331.241 669.691 331.241 685.15 331.241C669.376 333.333 653.215 334.035 636.662 333.35C636.662 286.261 636.662 239.17 636.662 192.081C653.215 191.395 669.376 192.098 685.15 194.189Z" fill="#D8BCFF"/>
<path fill-rule="evenodd" clip-rule="evenodd" d="M685.151 194.189C685.151 239.874 685.151 285.556 685.151 331.241C669.692 331.241 654.231 331.241 638.771 331.241C638.771 285.556 638.771 239.874 638.771 194.189C654.231 194.189 669.692 194.189 685.151 194.189Z" fill="#FEFFFE"/>
<path fill-rule="evenodd" clip-rule="evenodd" d="M748.396 194.189C737.855 194.189 727.314 194.189 716.773 194.189C716.773 256.742 716.773 319.292 716.773 381.845C714.669 318.951 713.967 255.696 714.665 192.081C726.315 191.403 737.56 192.106 748.396 194.189Z" fill="#DEC8FF"/>
<path fill-rule="evenodd" clip-rule="evenodd" d="M889.642 194.189C905.101 194.189 920.562 194.189 936.021 194.189C935.328 220.568 936.032 246.574 938.129 272.203C941.066 291.249 951.607 297.222 969.752 290.125C975.073 286.155 977.885 280.884 978.184 274.312C980.282 247.979 980.986 221.27 980.292 194.189C995.751 194.189 1011.21 194.189 1026.67 194.189C1027.02 225.121 1026.67 256.046 1025.62 286.963C1015.38 319.636 992.899 336.504 958.157 337.566C923.45 336.55 900.965 319.682 890.696 286.963C889.642 256.046 889.29 225.121 889.642 194.189Z" fill="#FEFDFF"/>
<path fill-rule="evenodd" clip-rule="evenodd" d="M889.641 194.189C905.414 192.098 921.575 191.395 938.128 192.081C938.128 218.789 938.128 245.495 938.128 272.203C936.031 246.575 935.326 220.569 936.02 194.189C920.561 194.189 905.1 194.189 889.641 194.189Z" fill="#DDC7FF"/>
<path fill-rule="evenodd" clip-rule="evenodd" d="M1026.67 194.189C1011.21 194.189 995.751 194.189 980.292 194.189C980.985 221.271 980.281 247.979 978.184 274.312C978.184 246.902 978.184 219.491 978.184 192.081C994.737 191.395 1010.9 192.098 1026.67 194.189Z" fill="#DEC7FF"/>
<path fill-rule="evenodd" clip-rule="evenodd" d="M177.085 196.298C168.652 196.298 160.22 196.298 151.787 196.298C151.787 210.355 151.787 224.41 151.787 238.467C149.697 224.102 148.995 209.342 149.679 194.189C159.234 193.518 168.369 194.221 177.085 196.298Z" fill="#C69EFF"/>
<path fill-rule="evenodd" clip-rule="evenodd" d="M177.085 196.298C194.655 203.408 198.52 215.356 188.68 232.142C185.687 234.166 182.525 235.923 179.193 237.413C170.085 238.466 160.949 238.818 151.787 238.468C151.787 224.41 151.787 210.355 151.787 196.298C160.22 196.298 168.652 196.298 177.085 196.298Z" fill="#8530FF"/>
<path fill-rule="evenodd" clip-rule="evenodd" d="M406.874 230.034C439.15 231.339 450.744 247.505 441.658 278.529C430.411 293.147 416.006 297.012 398.441 290.126C382.818 277.123 379.655 261.309 388.954 242.685C394.585 237.62 400.56 233.403 406.874 230.034Z" fill="#8530FF"/>
<path fill-rule="evenodd" clip-rule="evenodd" d="M782.126 230.034C817.609 232.163 828.501 249.735 814.803 282.746C802.744 293.628 789.041 296.088 773.694 290.126C757.353 275.712 754.895 259.196 766.315 240.576C771.541 236.751 776.812 233.236 782.126 230.034Z" fill="#8530FF"/>
<path fill-rule="evenodd" clip-rule="evenodd" d="M1165.81 225.816C1167.82 228.808 1168.52 232.321 1167.92 236.359C1151.6 237.687 1136.14 236.281 1121.54 232.142C1136.11 234.17 1150.87 234.872 1165.81 234.25C1165.81 231.44 1165.81 228.627 1165.81 225.816Z" fill="#C9A3FF"/>
<path fill-rule="evenodd" clip-rule="evenodd" d="M592.391 289.071C600.122 289.071 607.85 289.071 615.581 289.071C615.581 303.831 615.581 318.59 615.581 333.35C601.132 334.033 587.077 333.331 573.418 331.241C586.769 331.241 600.122 331.241 613.473 331.241C613.473 317.888 613.473 304.533 613.473 291.18C606.006 291.84 598.979 291.136 592.391 289.071Z" fill="#CCA8FF"/>
<path fill-rule="evenodd" clip-rule="evenodd" d="M151.787 282.746C151.787 299.614 151.787 316.481 151.787 333.349C134.534 334.037 117.669 333.333 101.191 331.241C117.354 331.241 133.516 331.241 149.679 331.241C148.993 314.685 149.696 298.521 151.787 282.746Z" fill="#BD90FF"/>
</svg>
