<svg width="1399" height="344" viewBox="0 0 1399 344" fill="none" xmlns="http://www.w3.org/2000/svg">
<g clip-path="url(#clip0_8280_2628)">
<path d="M1388.5 136.453H1385.92V144.567H1384.56V136.453H1382.01V134.978H1388.5V136.453ZM1398.28 144.567H1396.95V137.633L1394.26 144.511H1393.54L1390.9 137.633V144.511H1389.65V134.978H1391.21L1393.98 142.114L1396.78 134.978H1398.33L1398.28 144.567Z" fill="white"/>
<path d="M1370.37 238.184C1372.31 233.781 1373.29 229.018 1373.26 224.207C1373.37 217.181 1371.03 210.336 1366.64 204.846C1362.01 199.148 1355.97 194.767 1349.11 192.141L1325.97 182.792C1322.81 181.419 1319.94 179.461 1317.5 177.02C1316.02 175.445 1314.87 173.582 1314.13 171.546C1313.4 169.509 1313.09 167.343 1313.23 165.182C1313.14 162.426 1313.77 159.694 1315.07 157.259C1316.36 154.823 1318.27 152.768 1320.6 151.297C1322.75 149.925 1325.1 148.898 1327.57 148.255C1330.04 147.594 1332.58 147.253 1335.13 147.24C1344.07 147.159 1352.91 149.048 1361.04 152.772C1361.95 153.194 1362.93 153.426 1363.93 153.455C1365.94 153.557 1367.92 152.899 1369.47 151.611C1370.19 151.005 1370.77 150.241 1371.15 149.378C1371.53 148.515 1371.72 147.576 1371.68 146.632C1371.73 145.081 1371.29 143.553 1370.44 142.259C1369.58 140.965 1368.35 139.967 1366.9 139.404C1362.53 137.576 1358.01 136.114 1353.39 135.033C1348.08 133.835 1342.64 133.259 1337.2 133.319C1332.06 133.292 1326.94 134.069 1322.04 135.623C1317.51 137.04 1313.29 139.291 1309.59 142.262C1306.11 145.109 1303.24 148.635 1301.17 152.625C1299.03 156.743 1297.91 161.316 1297.92 165.957C1297.92 174.439 1300 181.114 1304.13 185.779C1308.18 190.428 1313.22 194.108 1318.89 196.548L1342.01 206.155C1346.54 207.931 1350.63 210.682 1353.98 214.213C1356.8 217.853 1358.22 222.391 1357.96 226.992C1358.06 229.715 1357.48 232.42 1356.27 234.861C1355.06 237.303 1353.26 239.402 1351.03 240.969C1346.46 244.259 1340.96 245.992 1335.33 245.911C1330.58 245.933 1325.85 245.351 1321.25 244.177C1316.95 243.04 1312.75 241.541 1308.71 239.696C1308.18 239.424 1307.63 239.184 1307.07 238.977C1306.58 238.836 1306.08 238.768 1305.57 238.774C1303.54 238.692 1301.55 239.414 1300.04 240.784C1299.34 241.44 1298.79 242.239 1298.42 243.127C1298.06 244.014 1297.89 244.97 1297.92 245.929C1297.83 247.421 1298.22 248.903 1299.03 250.16C1299.84 251.417 1301.02 252.383 1302.42 252.918C1307.17 255.204 1312.16 256.96 1317.3 258.154C1322.98 259.43 1328.78 260.049 1334.6 259.998C1339.85 260.042 1345.07 259.104 1349.98 257.233C1354.53 255.495 1358.71 252.911 1362.29 249.617C1365.74 246.397 1368.49 242.506 1370.37 238.184ZM1275.87 232.192C1278.2 226.109 1279.36 219.639 1279.28 213.125V179.934C1279.35 173.42 1278.2 166.951 1275.87 160.867C1273.74 155.366 1270.53 150.349 1266.43 146.116C1262.29 141.889 1257.3 138.594 1251.78 136.453C1239.49 131.93 1225.98 131.93 1213.69 136.453C1208.19 138.571 1203.2 141.826 1199.05 146.005C1194.94 150.239 1191.73 155.255 1189.61 160.757C1187.29 166.843 1186.14 173.311 1186.21 179.823V213.014C1186.13 219.527 1187.29 225.995 1189.61 232.081C1191.73 237.582 1194.94 242.599 1199.05 246.833C1203.2 251.016 1208.19 254.271 1213.69 256.384C1225.98 260.908 1239.49 260.908 1251.78 256.384C1257.29 254.276 1262.28 251.02 1266.43 246.833C1270.52 242.632 1273.73 237.653 1275.87 232.192ZM1263.97 214.36C1263.97 224.189 1261.21 231.97 1255.77 237.502C1250.33 243.034 1242.57 245.837 1232.74 245.837C1222.91 245.837 1215.15 243.034 1209.72 237.502C1204.3 231.97 1201.52 224.189 1201.52 214.36V178.68C1201.52 168.852 1204.27 161.052 1209.72 155.538C1215.18 150.025 1222.91 147.204 1232.74 147.204C1242.57 147.204 1250.31 150.006 1255.77 155.538C1261.23 161.07 1263.97 168.852 1263.97 178.68V214.36ZM1164.84 140.787C1164.84 138.757 1164.04 136.811 1162.6 135.375C1161.17 133.94 1159.22 133.134 1157.19 133.134C1155.16 133.134 1153.21 133.94 1151.78 135.375C1150.34 136.811 1149.54 138.757 1149.54 140.787V252.254C1149.54 254.283 1150.34 256.23 1151.78 257.665C1153.21 259.1 1155.16 259.906 1157.19 259.906C1159.22 259.906 1161.17 259.1 1162.6 257.665C1164.04 256.23 1164.84 254.283 1164.84 252.254V140.787ZM1149.83 101.768C1150.79 102.759 1151.93 103.547 1153.2 104.084C1154.47 104.622 1155.83 104.9 1157.21 104.9C1158.58 104.9 1159.95 104.622 1161.21 104.084C1162.48 103.547 1163.63 102.759 1164.58 101.768C1165.57 100.789 1166.34 99.6204 1166.85 98.3336C1167.37 97.0468 1167.62 95.6686 1167.59 94.2823C1167.61 92.9152 1167.36 91.5577 1166.85 90.2902C1166.33 89.0228 1165.57 87.8713 1164.6 86.9045C1163.64 85.9377 1162.49 85.1753 1161.22 84.6625C1159.95 84.1496 1158.59 83.8968 1157.23 83.9193C1155.87 83.9068 1154.52 84.1669 1153.26 84.6842C1152 85.2015 1150.86 85.9656 1149.9 86.9314C1148.94 87.8972 1148.18 89.045 1147.67 90.3075C1147.17 91.57 1146.92 92.9215 1146.94 94.2823C1146.89 95.6604 1147.13 97.033 1147.63 98.3189C1148.12 99.6048 1148.87 100.778 1149.83 101.768ZM1126.1 249.857C1127.47 248.074 1128.2 245.888 1128.18 243.643V91.5717C1128.18 89.5421 1127.38 87.5958 1125.94 86.1607C1124.51 84.7256 1122.56 83.9193 1120.53 83.9193C1118.5 83.9193 1116.56 84.7256 1115.12 86.1607C1113.69 87.5958 1112.88 89.5421 1112.88 91.5717V140.989L1111.81 140.436C1107.57 138.153 1103.08 136.353 1098.44 135.07C1093.68 133.804 1088.78 133.184 1083.86 133.226C1070.34 133.226 1059.5 137.246 1051.64 145.194C1043.79 153.141 1039.78 164.02 1039.78 177.537V215.688C1039.71 221.855 1040.78 227.982 1042.94 233.759C1044.92 238.967 1047.96 243.703 1051.88 247.662C1055.86 251.595 1060.6 254.681 1065.8 256.735C1071.55 258.974 1077.68 260.083 1083.86 259.998C1090.21 260.008 1096.55 259.478 1102.81 258.413C1108.91 257.358 1114.92 255.848 1120.79 253.895C1122.93 253.116 1124.78 251.708 1126.1 249.857ZM1112.88 241.559L1112.36 241.725C1103.12 244.518 1093.51 245.935 1083.86 245.929C1074.84 245.929 1067.72 243.329 1062.69 238.221C1057.65 233.114 1055.09 225.922 1055.09 216.924V176.356C1055.09 167.34 1057.65 160.185 1062.69 155.059C1067.72 149.933 1074.84 147.333 1083.86 147.333C1089.09 147.325 1094.31 148.083 1099.33 149.582C1104.33 151.085 1108.9 153.759 1112.66 157.382L1112.88 157.585V241.559ZM1019.17 249.875C1020.47 248.058 1021.16 245.876 1021.14 243.643V140.787C1021.13 138.761 1020.32 136.823 1018.89 135.391C1017.45 133.959 1015.52 133.149 1013.49 133.134C1011.46 133.144 1009.52 133.953 1008.09 135.386C1006.66 136.819 1005.85 138.76 1005.84 140.787V241.559L1005.32 241.725C996.162 244.505 986.644 245.921 977.072 245.929C968.036 245.929 960.863 243.329 955.756 238.221C950.648 233.114 948.048 225.941 948.048 216.924V140.787C948.048 138.757 947.242 136.811 945.807 135.375C944.371 133.94 942.425 133.134 940.395 133.134C938.366 133.134 936.419 133.94 934.984 135.375C933.549 136.811 932.743 138.757 932.743 140.787V215.596C932.743 229.112 936.726 239.992 944.6 247.939C952.473 255.886 963.371 259.998 977.072 259.998C983.381 259.996 989.678 259.466 995.899 258.413C1002.03 257.367 1008.08 255.856 1013.99 253.895C1016.1 253.137 1017.91 251.73 1019.17 249.875ZM912.404 256.126C913.498 254.747 914.09 253.037 914.082 251.277C914.134 250.284 913.952 249.294 913.552 248.384C913.151 247.475 912.544 246.672 911.777 246.04C910.42 244.887 908.708 244.236 906.928 244.196C904.899 244.253 902.874 244.413 900.861 244.675C898.549 244.973 896.222 245.14 893.891 245.173C891.756 245.199 889.639 244.79 887.667 243.973C885.696 243.155 883.911 241.945 882.421 240.416C880.806 238.692 879.554 236.661 878.74 234.443C877.926 232.226 877.566 229.867 877.682 227.508V150.154H906.688C907.659 150.184 908.626 150.022 909.534 149.677C910.443 149.332 911.274 148.811 911.98 148.144C912.677 147.486 913.226 146.687 913.589 145.799C913.951 144.912 914.119 143.957 914.082 142.999C914.1 142.026 913.921 141.059 913.556 140.156C913.192 139.253 912.649 138.433 911.961 137.745C911.272 137.056 910.452 136.514 909.55 136.149C908.647 135.785 907.68 135.606 906.706 135.623H877.719V91.5717C877.73 90.564 877.535 89.5647 877.145 88.6355C876.755 87.7063 876.178 86.8668 875.451 86.169C874.754 85.4475 873.917 84.8759 872.991 84.489C872.065 84.1022 871.07 83.9083 870.067 83.9193C868.04 83.929 866.1 84.7383 864.666 86.1713C863.233 87.6043 862.424 89.5451 862.414 91.5717V226.918C862.369 231.497 863.227 236.04 864.941 240.287C866.484 244.178 868.755 247.739 871.634 250.779C874.467 253.677 877.862 255.967 881.61 257.509C885.506 259.109 889.679 259.924 893.891 259.906C896.206 259.907 898.52 259.79 900.824 259.556C903.074 259.316 905.434 259.021 907.813 258.689C909.622 258.475 911.272 257.553 912.404 256.126ZM840.84 238.184C842.778 233.781 843.764 229.018 843.735 224.207C843.842 217.181 841.502 210.336 837.115 204.846C832.485 199.146 826.437 194.765 819.579 192.141L796.438 182.792C793.273 181.417 790.396 179.459 787.955 177.02C786.464 175.442 785.314 173.572 784.578 171.529C783.842 169.486 783.535 167.312 783.677 165.145C783.58 162.379 784.21 159.637 785.504 157.19C786.799 154.744 788.712 152.68 791.053 151.205C793.203 149.833 795.555 148.806 798.023 148.162C800.49 147.502 803.031 147.161 805.584 147.148C814.49 147.076 823.304 148.964 831.399 152.68C832.309 153.099 833.293 153.331 834.294 153.362C836.273 153.442 838.211 152.785 839.734 151.518C840.46 150.91 841.037 150.143 841.421 149.277C841.804 148.411 841.984 147.468 841.946 146.521C842.012 144.955 841.585 143.409 840.725 142.098C839.865 140.788 838.615 139.781 837.152 139.219C832.775 137.392 828.254 135.93 823.636 134.849C818.324 133.65 812.891 133.075 807.446 133.134C802.304 133.107 797.19 133.885 792.289 135.439C787.758 136.847 783.535 139.099 779.842 142.077C776.354 144.919 773.486 148.446 771.415 152.44C769.317 156.631 768.273 161.271 768.373 165.957C768.373 174.439 770.456 181.114 774.587 185.779C778.635 190.428 783.677 194.108 789.338 196.548L812.462 206.155C816.993 207.931 821.079 210.682 824.429 214.213C827.254 217.853 828.669 222.391 828.412 226.992C828.513 229.717 827.93 232.424 826.716 234.865C825.501 237.307 823.694 239.405 821.46 240.969C816.904 244.261 811.407 245.995 805.786 245.911C801.036 245.934 796.302 245.352 791.699 244.177C787.4 243.04 783.206 241.541 779.16 239.696C778.623 239.42 778.069 239.18 777.5 238.977C777.022 238.835 776.524 238.767 776.025 238.774C773.988 238.688 772 239.411 770.493 240.784C769.798 241.444 769.25 242.243 768.888 243.13C768.525 244.017 768.356 244.971 768.391 245.929C768.306 247.42 768.695 248.9 769.504 250.155C770.312 251.411 771.498 252.378 772.89 252.918C777.642 255.206 782.633 256.963 787.771 258.154C793.447 259.43 799.25 260.049 805.067 259.998C810.321 260.04 815.536 259.102 820.446 257.233C824.996 255.495 829.176 252.911 832.764 249.617C836.202 246.392 838.949 242.503 840.84 238.184ZM732.489 93.2867C732.492 92.0559 732.251 90.8367 731.781 89.6991C731.311 88.5615 730.621 87.5278 729.751 86.6575C728.881 85.7871 727.847 85.0972 726.709 84.6274C725.572 84.1575 724.353 83.9168 723.122 83.9193C721.519 83.9036 719.939 84.2972 718.53 85.0626L679.678 107.687C678.502 108.414 677.53 109.43 676.857 110.638C676.196 111.808 675.847 113.129 675.843 114.473C675.791 115.39 675.952 116.307 676.314 117.152C676.675 117.996 677.227 118.746 677.926 119.341C679.331 120.56 681.137 121.217 682.997 121.185C684.351 121.186 685.677 120.795 686.814 120.06L717.184 102.451V252.254C717.184 254.283 717.991 256.23 719.426 257.665C720.861 259.1 722.807 259.906 724.837 259.906C726.866 259.906 728.813 259.1 730.248 257.665C731.683 256.23 732.489 254.283 732.489 252.254V93.2867ZM692.475 206.026C691.769 205.359 690.938 204.838 690.03 204.493C689.121 204.148 688.154 203.986 687.183 204.016H667.766V169.644C667.766 167.615 666.96 165.669 665.525 164.233C664.09 162.798 662.143 161.992 660.114 161.992C658.084 161.992 656.138 162.798 654.703 164.233C653.268 165.669 652.461 167.615 652.461 169.644V204.09H605.938L606.289 203.112L645.915 94.3193C646.153 93.4328 646.301 92.5247 646.358 91.6087C646.408 89.6073 645.681 87.6643 644.329 86.1873C643.733 85.4746 642.984 84.9043 642.139 84.5183C641.293 84.1322 640.372 83.9402 639.443 83.9562C637.874 83.9267 636.337 84.3982 635.054 85.3023C633.741 86.2556 632.761 87.5971 632.252 89.1377L590.172 205.546C589.709 206.721 589.472 207.972 589.472 209.234C589.448 210.461 589.668 211.679 590.121 212.819C590.574 213.959 591.25 214.997 592.109 215.873C592.933 216.765 593.938 217.47 595.058 217.941C596.178 218.411 597.385 218.637 598.599 218.602H652.461V252.254C652.461 254.283 653.268 256.23 654.703 257.665C656.138 259.1 658.084 259.906 660.114 259.906C662.143 259.906 664.09 259.1 665.525 257.665C666.96 256.23 667.766 254.283 667.766 252.254V218.565H687.183C688.155 218.577 689.12 218.395 690.02 218.028C690.921 217.662 691.739 217.119 692.426 216.432C693.114 215.745 693.656 214.927 694.023 214.026C694.389 213.126 694.571 212.161 694.559 211.189C694.601 210.229 694.437 209.272 694.078 208.381C693.718 207.49 693.172 206.687 692.475 206.026ZM570.811 91.5717C570.811 89.5421 570.005 87.5958 568.569 86.1607C567.134 84.7256 565.188 83.9193 563.158 83.9193C561.129 83.9193 559.182 84.7256 557.747 86.1607C556.312 87.5958 555.506 89.5421 555.506 91.5717V252.254C555.506 254.283 556.312 256.23 557.747 257.665C559.182 259.1 561.129 259.906 563.158 259.906C565.188 259.906 567.134 259.1 568.569 257.665C570.005 256.23 570.811 254.283 570.811 252.254V91.5717ZM536.864 91.5717C536.864 89.5421 536.057 87.5958 534.622 86.1607C533.187 84.7256 531.241 83.9193 529.211 83.9193C527.182 83.9193 525.235 84.7256 523.8 86.1607C522.365 87.5958 521.559 89.5421 521.559 91.5717V252.254C521.559 254.283 522.365 256.23 523.8 257.665C525.235 259.1 527.182 259.906 529.211 259.906C531.241 259.906 533.187 259.1 534.622 257.665C536.057 256.23 536.864 254.283 536.864 252.254V91.5717ZM500.833 249.857C502.188 248.07 502.914 245.885 502.898 243.643V169.884C503.02 164.343 501.866 158.847 499.523 153.823C497.342 149.372 494.192 145.465 490.304 142.391C486.303 139.267 481.749 136.927 476.88 135.494C466.387 132.323 454.346 132.544 442.434 135.384C436.141 136.904 430.141 139.452 424.677 142.926C423.49 143.606 422.508 144.593 421.833 145.784C421.158 146.975 420.816 148.325 420.842 149.693C420.799 150.675 420.981 151.654 421.374 152.555C421.767 153.457 422.361 154.256 423.11 154.893C424.638 156.149 426.572 156.804 428.549 156.737C429.818 156.705 431.052 156.315 432.108 155.612C436.56 152.991 441.3 150.894 446.233 149.361C450.935 147.951 455.818 147.236 460.726 147.24C468.711 147.24 475.238 149.084 480.106 152.938C484.975 156.792 487.482 162.527 487.482 170.105V186.24H458.717C452.06 186.15 445.421 186.931 438.968 188.564C433.789 189.877 428.998 192.405 424.991 195.939C417.965 202.485 414.406 211.502 414.406 222.732C414.406 234.275 417.965 243.292 424.991 249.506C432.68 256.421 444.039 259.906 458.717 259.906C464.983 259.909 471.238 259.378 477.414 258.32C483.518 257.266 489.533 255.756 495.411 253.803C497.572 253.058 499.46 251.684 500.833 249.857ZM487.593 241.559L487.095 241.725C477.929 244.504 468.405 245.92 458.827 245.929C453.653 246.098 448.488 245.374 443.559 243.79C440.189 242.7 437.138 240.8 434.671 238.258C432.708 236.121 431.335 233.509 430.688 230.68C430.12 228.124 429.824 225.516 429.803 222.898C429.82 220.317 430.116 217.744 430.688 215.227C431.346 212.462 432.72 209.918 434.671 207.851C437.163 205.374 440.219 203.538 443.578 202.504C448.517 201.008 453.668 200.329 458.827 200.494H487.593V241.559Z" fill="white"/>
<path d="M300.419 57.7718V286.054C328.378 254.607 343.823 213.992 343.823 171.913C343.823 129.834 328.378 89.2187 300.419 57.7718ZM279.712 38.0414L236.803 68.9277C234.828 70.177 232.57 70.9065 230.238 71.0483C228.794 71.0879 227.357 70.8282 226.018 70.2856C224.678 69.7429 223.466 68.929 222.457 67.8951C220.526 65.586 219.52 62.6422 219.635 59.6342C219.659 57.4763 220.223 55.3588 221.277 53.4754C222.279 51.5585 223.759 49.9327 225.573 48.7548L260.608 24.5621C245.72 15.6184 229.552 9.00213 212.665 4.94238L150.671 239.568H210.987V168.225C210.834 164.847 211.998 161.542 214.233 159.005C215.112 157.908 216.239 157.035 217.521 156.458C218.803 155.881 220.204 155.616 221.608 155.686C222.879 155.673 224.137 155.938 225.293 156.464C226.45 156.99 227.477 157.763 228.302 158.729C230.475 161.162 231.596 164.358 231.418 167.616V333.222C248.903 326.754 265.219 317.488 279.73 305.784V38.0414H279.712Z" fill="white"/>
<path d="M210.989 263.299H144.385L124.913 337.278C152.97 345.236 182.591 345.928 210.989 339.288V263.299Z" fill="white"/>
<path d="M154.99 141.174H59.6203L107.453 325.33L154.99 141.174ZM53.3693 118.88H160.78L191.869 1.23557C185.248 0.440691 178.586 0.0281895 171.917 0.000118213C146.487 -0.0297393 121.368 5.5967 98.3802 16.4719C75.3923 27.3472 55.1109 43.1989 39.0049 62.8791L53.3693 118.88Z" fill="white"/>
<path d="M23.5684 85.0811C12.1206 104.621 4.64862 126.232 1.58226 148.67C-1.4841 171.108 -0.0843616 193.932 5.70096 215.827C11.4863 237.723 21.5431 258.258 35.2929 276.253C49.0428 294.249 66.2145 309.348 85.8205 320.683L23.5684 85.0811Z" fill="white"/>
</g>
<defs>
<clipPath id="clip0_8280_2628">
<rect width="1399" height="344" fill="white"/>
</clipPath>
</defs>
</svg>
