<svg width="15" height="15" viewBox="0 0 15 15" fill="none" xmlns="http://www.w3.org/2000/svg">
<g clip-path="url(#clip0_3039_2364)">
<path d="M10.7812 7.03125C11.0401 7.03125 11.25 6.82138 11.25 6.5625C11.25 6.30362 11.0401 6.09375 10.7812 6.09375C10.5224 6.09375 10.3125 6.30362 10.3125 6.5625C10.3125 6.82138 10.5224 7.03125 10.7812 7.03125Z" fill="url(#paint0_linear_3039_2364)"/>
<path d="M14.9528 11.6252L13.5934 4.64087C13.4528 3.89087 12.984 3.23462 12.3278 2.85962C11.2496 2.20337 9.89025 2.39087 9.0465 3.28149L8.484 3.75024H6.46838L5.95275 3.23462C5.06213 2.34399 3.70275 2.20337 2.6715 2.81274C2.01525 3.23462 1.59338 3.89087 1.40588 4.64087L-0.000372898 11.6252C-0.0941229 12.094 0.0465021 12.6096 0.327752 12.9846C0.702752 13.3596 1.1715 13.594 1.64025 13.594C2.06213 13.594 2.43713 13.4065 2.71838 13.1252L4.49963 11.1096C5.15588 10.3127 6.18713 9.84399 7.21838 9.84399H7.734C8.81213 9.84399 9.7965 10.3127 10.4996 11.1096L12.2809 13.1252C12.5621 13.4534 12.9371 13.594 13.359 13.594C13.8746 13.594 14.3434 13.3596 14.6246 12.9846C14.9059 12.6096 15.0465 12.094 14.9528 11.6252ZM5.15588 7.03149H4.68713V7.50024C4.68713 7.78149 4.49963 7.96899 4.21838 7.96899C3.93713 7.96899 3.74963 7.78149 3.74963 7.50024V7.03149H3.28088C2.99963 7.03149 2.81213 6.84399 2.81213 6.56274C2.81213 6.28149 2.99963 6.09399 3.28088 6.09399H3.74963V5.62524C3.74963 5.34399 3.93713 5.15649 4.21838 5.15649C4.49963 5.15649 4.68713 5.34399 4.68713 5.62524V6.09399H5.15588C5.43713 6.09399 5.62463 6.28149 5.62463 6.56274C5.62463 6.84399 5.43713 7.03149 5.15588 7.03149ZM7.96838 7.96899H7.03088C6.74963 7.96899 6.56213 7.78149 6.56213 7.50024C6.56213 7.21899 6.74963 7.03149 7.03088 7.03149H7.96838C8.24963 7.03149 8.43713 7.21899 8.43713 7.50024C8.43713 7.78149 8.24963 7.96899 7.96838 7.96899ZM7.96838 6.56274H7.03088C6.74963 6.56274 6.56213 6.37524 6.56213 6.09399C6.56213 5.81274 6.74963 5.62524 7.03088 5.62524H7.96838C8.24963 5.62524 8.43713 5.81274 8.43713 6.09399C8.43713 6.37524 8.24963 6.56274 7.96838 6.56274ZM10.7809 7.96899C9.984 7.96899 9.37463 7.35962 9.37463 6.56274C9.37463 5.76587 9.984 5.15649 10.7809 5.15649C11.5778 5.15649 12.1871 5.76587 12.1871 6.56274C12.1871 7.35962 11.5778 7.96899 10.7809 7.96899Z" fill="black"/>
<path d="M14.9528 11.6252L13.5934 4.64087C13.4528 3.89087 12.984 3.23462 12.3278 2.85962C11.2496 2.20337 9.89025 2.39087 9.0465 3.28149L8.484 3.75024H6.46838L5.95275 3.23462C5.06213 2.34399 3.70275 2.20337 2.6715 2.81274C2.01525 3.23462 1.59338 3.89087 1.40588 4.64087L-0.000372898 11.6252C-0.0941229 12.094 0.0465021 12.6096 0.327752 12.9846C0.702752 13.3596 1.1715 13.594 1.64025 13.594C2.06213 13.594 2.43713 13.4065 2.71838 13.1252L4.49963 11.1096C5.15588 10.3127 6.18713 9.84399 7.21838 9.84399H7.734C8.81213 9.84399 9.7965 10.3127 10.4996 11.1096L12.2809 13.1252C12.5621 13.4534 12.9371 13.594 13.359 13.594C13.8746 13.594 14.3434 13.3596 14.6246 12.9846C14.9059 12.6096 15.0465 12.094 14.9528 11.6252ZM5.15588 7.03149H4.68713V7.50024C4.68713 7.78149 4.49963 7.96899 4.21838 7.96899C3.93713 7.96899 3.74963 7.78149 3.74963 7.50024V7.03149H3.28088C2.99963 7.03149 2.81213 6.84399 2.81213 6.56274C2.81213 6.28149 2.99963 6.09399 3.28088 6.09399H3.74963V5.62524C3.74963 5.34399 3.93713 5.15649 4.21838 5.15649C4.49963 5.15649 4.68713 5.34399 4.68713 5.62524V6.09399H5.15588C5.43713 6.09399 5.62463 6.28149 5.62463 6.56274C5.62463 6.84399 5.43713 7.03149 5.15588 7.03149ZM7.96838 7.96899H7.03088C6.74963 7.96899 6.56213 7.78149 6.56213 7.50024C6.56213 7.21899 6.74963 7.03149 7.03088 7.03149H7.96838C8.24963 7.03149 8.43713 7.21899 8.43713 7.50024C8.43713 7.78149 8.24963 7.96899 7.96838 7.96899ZM7.96838 6.56274H7.03088C6.74963 6.56274 6.56213 6.37524 6.56213 6.09399C6.56213 5.81274 6.74963 5.62524 7.03088 5.62524H7.96838C8.24963 5.62524 8.43713 5.81274 8.43713 6.09399C8.43713 6.37524 8.24963 6.56274 7.96838 6.56274ZM10.7809 7.96899C9.984 7.96899 9.37463 7.35962 9.37463 6.56274C9.37463 5.76587 9.984 5.15649 10.7809 5.15649C11.5778 5.15649 12.1871 5.76587 12.1871 6.56274C12.1871 7.35962 11.5778 7.96899 10.7809 7.96899Z" fill="url(#paint1_linear_3039_2364)"/>
</g>
<defs>
<linearGradient id="paint0_linear_3039_2364" x1="10.52" y1="6.09375" x2="11.0041" y2="6.88525" gradientUnits="userSpaceOnUse">
<stop stop-color="#41C6FF"/>
<stop offset="1" stop-color="#1A64FC"/>
</linearGradient>
<linearGradient id="paint1_linear_3039_2364" x1="3.2928" y1="2.44141" x2="8.16602" y2="13.1651" gradientUnits="userSpaceOnUse">
<stop stop-color="#41C6FF"/>
<stop offset="1" stop-color="#1A64FC"/>
</linearGradient>
<clipPath id="clip0_3039_2364">
<rect width="15" height="15" fill="white"/>
</clipPath>
</defs>
</svg>
