<?xml version="1.0" encoding="utf-8"?>
<!-- Generator: Adobe Illustrator 22.0.1, SVG Export Plug-In . SVG Version: 6.00 Build 0)  -->
<svg version="1.1" id="Слой_1" xmlns="http://www.w3.org/2000/svg" xmlns:xlink="http://www.w3.org/1999/xlink" x="0px" y="0px"
	 viewBox="0 0 103 32" style="enable-background:new 0 0 103 32;" xml:space="preserve">
<style type="text/css">
	.st0{fill:#FFFFFF;}
	.st1{fill:#0AC18E;}
</style>
<g>
	<path class="st0" d="M20.1,22.2c-0.7,0-1.3,0-2-0.1c-0.7,0-1.4-0.1-2.1-0.3V10c0.6-0.1,1.2-0.2,1.9-0.2c0.7-0.1,1.3-0.1,1.9-0.1
		c0.8,0,1.5,0.1,2.1,0.2c0.7,0.1,1.2,0.3,1.7,0.6c0.5,0.3,0.8,0.6,1.1,1.1c0.3,0.4,0.4,1,0.4,1.6c0,1-0.5,1.7-1.4,2.3
		c0.8,0.3,1.3,0.7,1.6,1.2c0.3,0.5,0.4,1.1,0.4,1.7c0,1.3-0.5,2.2-1.4,2.9C23.3,21.9,21.9,22.2,20.1,22.2z M18.7,14.6H20
		c0.9,0,1.4-0.1,1.8-0.3c0.4-0.2,0.5-0.6,0.5-1c0-0.5-0.2-0.8-0.6-1c-0.4-0.2-0.9-0.3-1.7-0.3c-0.2,0-0.5,0-0.8,0
		c-0.3,0-0.5,0-0.7,0C18.7,11.9,18.7,14.6,18.7,14.6L18.7,14.6z M18.7,16.7v3.2c0.2,0,0.4,0,0.7,0.1c0.2,0,0.5,0,0.8,0
		c0.8,0,1.5-0.1,2-0.4c0.5-0.2,0.8-0.7,0.8-1.3c0-0.6-0.2-1-0.6-1.2c-0.4-0.2-1-0.4-1.8-0.4L18.7,16.7L18.7,16.7L18.7,16.7
		L18.7,16.7z"/>
	<path class="st0" d="M29.6,10.1c0,0.5-0.2,0.9-0.5,1.1c-0.3,0.3-0.7,0.4-1.1,0.4c-0.4,0-0.8-0.1-1.1-0.4c-0.3-0.3-0.5-0.7-0.5-1.1
		c0-0.5,0.2-0.9,0.5-1.1c0.3-0.3,0.7-0.4,1.1-0.4c0.4,0,0.8,0.1,1.1,0.4C29.4,9.2,29.6,9.6,29.6,10.1z M29.3,22h-2.6v-9.3h2.6V22z"
		/>
	<path class="st0" d="M30.8,10.4l2.6-0.4v2.7h3.2v2.2h-3.2v3.3c0,0.6,0.1,1,0.3,1.3c0.2,0.3,0.6,0.5,1.2,0.5c0.3,0,0.6,0,0.9-0.1
		c0.3,0,0.6-0.1,0.8-0.2l0.4,2c-0.3,0.1-0.7,0.3-1.1,0.3c-0.4,0.1-0.9,0.1-1.4,0.1c-0.7,0-1.3-0.1-1.8-0.3c-0.5-0.2-0.9-0.5-1.1-0.8
		c-0.3-0.3-0.5-0.8-0.6-1.3c-0.1-0.5-0.2-1.1-0.2-1.6L30.8,10.4L30.8,10.4z"/>
	<path class="st0" d="M36.9,17.4c0-0.6,0.1-1.3,0.3-1.9c0.2-0.6,0.5-1.1,0.9-1.5c0.4-0.4,0.9-0.8,1.5-1c0.6-0.3,1.3-0.4,2-0.4
		c0.5,0,0.9,0,1.4,0.1c0.4,0.1,0.8,0.2,1.2,0.4l-0.5,2.1c-0.3-0.1-0.5-0.2-0.8-0.2c-0.3-0.1-0.7-0.1-1-0.1c-0.8,0-1.4,0.2-1.7,0.7
		c-0.4,0.5-0.6,1.1-0.6,1.9c0,0.8,0.2,1.5,0.5,1.9c0.4,0.5,1,0.7,1.9,0.7c0.3,0,0.7,0,1-0.1c0.3-0.1,0.7-0.1,1-0.3l0.4,2.2
		c-0.4,0.1-0.8,0.3-1.1,0.3c-0.5,0.1-1,0.1-1.5,0.1c-0.9,0-1.6-0.1-2.2-0.4c-0.6-0.3-1.1-0.6-1.5-1s-0.7-0.9-0.9-1.5
		C37,18.7,36.9,18,36.9,17.4z"/>
	<path class="st0" d="M53.4,17.4c0,0.7-0.1,1.4-0.3,2c-0.2,0.6-0.5,1.1-0.9,1.5c-0.4,0.4-0.9,0.8-1.4,1c-0.6,0.2-1.2,0.4-1.9,0.4
		c-0.7,0-1.3-0.1-1.9-0.4c-0.5-0.2-1-0.6-1.4-1c-0.4-0.4-0.7-0.9-0.9-1.5c-0.2-0.6-0.3-1.3-0.3-2c0-0.7,0.1-1.4,0.3-2
		c0.2-0.6,0.5-1.1,0.9-1.5c0.4-0.4,0.9-0.8,1.4-1c0.6-0.2,1.2-0.4,1.8-0.4c0.7,0,1.3,0.1,1.8,0.4c0.6,0.2,1,0.6,1.4,1
		c0.4,0.4,0.7,1,0.9,1.5C53.3,16,53.4,16.6,53.4,17.4z M50.8,17.4c0-0.8-0.2-1.4-0.5-1.9c-0.3-0.5-0.8-0.7-1.4-0.7
		c-0.6,0-1.1,0.2-1.4,0.7c-0.3,0.5-0.5,1.1-0.5,1.9c0,0.8,0.2,1.5,0.5,1.9c0.3,0.5,0.8,0.7,1.4,0.7c0.6,0,1.1-0.2,1.4-0.7
		C50.6,18.8,50.8,18.2,50.8,17.4z"/>
	<path class="st0" d="M57.4,10.1c0,0.5-0.2,0.9-0.5,1.1c-0.3,0.3-0.7,0.4-1.1,0.4c-0.4,0-0.8-0.1-1.1-0.4c-0.3-0.3-0.5-0.7-0.5-1.1
		c0-0.5,0.2-0.9,0.5-1.1c0.3-0.3,0.7-0.4,1.1-0.4c0.4,0,0.8,0.1,1.1,0.4C57.2,9.2,57.4,9.6,57.4,10.1z M57.1,22h-2.6v-9.3h2.6V22z"
		/>
	<path class="st0" d="M58.6,13.1c0.4-0.1,1-0.3,1.7-0.4c0.7-0.1,1.5-0.2,2.2-0.2c0.8,0,1.4,0.1,2,0.3c0.5,0.2,0.9,0.5,1.2,0.9
		c0.3,0.4,0.5,0.8,0.7,1.3s0.2,1.1,0.2,1.7V22H64v-4.9c0-0.9-0.1-1.4-0.3-1.8c-0.2-0.4-0.6-0.5-1.2-0.5c-0.2,0-0.4,0-0.6,0
		c-0.2,0-0.4,0-0.6,0.1V22h-2.6L58.6,13.1L58.6,13.1z"/>
	<path class="st1" d="M73.8,22.3c-2,0-3.5-0.6-4.5-1.7c-1-1.1-1.6-2.7-1.6-4.7c0-1,0.2-1.9,0.5-2.7c0.3-0.8,0.8-1.5,1.3-2
		c0.6-0.5,1.2-1,2-1.2c0.8-0.3,1.6-0.4,2.5-0.4c0.5,0,1,0,1.4,0.1c0.4,0.1,0.7,0.1,1.1,0.3c0.3,0.1,0.5,0.2,0.8,0.3
		c0.2,0.1,0.4,0.2,0.5,0.2l-0.8,2.2c-0.4-0.2-0.9-0.4-1.3-0.5C75.1,12,74.5,12,73.9,12c-0.4,0-0.8,0.1-1.2,0.2
		c-0.4,0.1-0.8,0.4-1.1,0.7c-0.3,0.3-0.6,0.7-0.8,1.2c-0.2,0.5-0.3,1.1-0.3,1.8c0,0.5,0.1,1.1,0.2,1.6c0.1,0.5,0.3,0.9,0.6,1.3
		c0.3,0.4,0.7,0.7,1.1,0.8c0.4,0.2,1,0.3,1.6,0.3c0.4,0,0.7,0,1.1-0.1c0.3,0,0.6-0.1,0.9-0.2c0.2-0.1,0.4-0.1,0.7-0.2
		c0.2-0.1,0.4-0.2,0.5-0.2l0.8,2.2c-0.4,0.2-0.9,0.4-1.6,0.6C75.5,22.2,74.7,22.3,73.8,22.3z"/>
	<path class="st1" d="M82,12.5c0.8,0,1.4,0.1,1.9,0.3c0.5,0.2,0.9,0.4,1.2,0.8c0.3,0.3,0.5,0.7,0.7,1.2c0.1,0.5,0.2,1,0.2,1.6v5.5
		c-0.4,0.1-0.9,0.2-1.6,0.3c-0.7,0.1-1.5,0.2-2.4,0.2c-0.6,0-1.1-0.1-1.6-0.2s-0.9-0.3-1.3-0.5c-0.3-0.2-0.6-0.6-0.8-0.9
		c-0.2-0.4-0.3-0.9-0.3-1.4c0-0.5,0.1-1,0.3-1.4c0.2-0.4,0.5-0.7,0.9-0.9c0.4-0.2,0.8-0.4,1.2-0.5c0.5-0.1,1-0.2,1.5-0.2
		c0.3,0,0.6,0,0.9,0c0.3,0,0.5,0.1,0.6,0.1v-0.2c0-0.4-0.1-0.8-0.4-1.1c-0.3-0.3-0.7-0.4-1.4-0.4c-0.4,0-0.9,0-1.3,0.1
		c-0.4,0.1-0.8,0.2-1.1,0.3l-0.3-2.1c0.2,0,0.3-0.1,0.6-0.2c0.2-0.1,0.5-0.1,0.8-0.1c0.3,0,0.6-0.1,0.9-0.1
		C81.4,12.5,81.7,12.5,82,12.5z M82.2,20.2c0.3,0,0.5,0,0.7,0c0.2,0,0.4,0,0.6-0.1v-2c-0.1,0-0.3,0-0.5-0.1c-0.2,0-0.4,0-0.6,0
		c-0.2,0-0.5,0-0.7,0c-0.2,0-0.4,0.1-0.6,0.2c-0.2,0.1-0.3,0.2-0.4,0.3c-0.1,0.2-0.1,0.3-0.1,0.5c0,0.4,0.1,0.7,0.4,0.9
		C81.3,20.1,81.7,20.2,82.2,20.2z"/>
	<path class="st1" d="M90.1,20.1c0.5,0,0.8,0,1-0.1c0.2-0.1,0.3-0.3,0.3-0.5c0-0.2-0.1-0.4-0.4-0.6c-0.3-0.2-0.7-0.3-1.2-0.5
		c-0.4-0.2-0.8-0.3-1.1-0.5c-0.3-0.2-0.6-0.4-0.9-0.6c-0.2-0.2-0.4-0.5-0.5-0.8c-0.1-0.3-0.2-0.7-0.2-1.1c0-0.9,0.3-1.6,1-2.1
		c0.6-0.5,1.5-0.8,2.7-0.8c0.5,0,1.1,0.1,1.6,0.2c0.5,0.1,0.9,0.2,1.2,0.3l-0.5,2c-0.3-0.1-0.7-0.2-1-0.3c-0.4-0.1-0.8-0.1-1.2-0.1
		c-0.8,0-1.2,0.2-1.2,0.7c0,0.1,0,0.2,0.1,0.3c0,0.1,0.1,0.2,0.2,0.2c0.1,0.1,0.3,0.2,0.4,0.2c0.2,0.1,0.5,0.2,0.7,0.3
		c0.6,0.2,1,0.4,1.4,0.6c0.4,0.2,0.7,0.4,0.9,0.7c0.2,0.2,0.4,0.5,0.5,0.8c0.1,0.3,0.1,0.6,0.1,1c0,0.9-0.3,1.6-1,2.1
		c-0.7,0.5-1.7,0.7-2.9,0.7c-0.8,0-1.5-0.1-2.1-0.2c-0.5-0.1-0.9-0.3-1.1-0.4l0.4-2.1c0.4,0.2,0.9,0.3,1.4,0.4
		C89.2,20.1,89.6,20.1,90.1,20.1z"/>
	<path class="st1" d="M95,22V8.8l2.6-0.4v4.4c0.2-0.1,0.4-0.1,0.7-0.2c0.3-0.1,0.5-0.1,0.8-0.1c0.8,0,1.4,0.1,1.9,0.3
		s0.9,0.5,1.2,0.9c0.3,0.4,0.5,0.8,0.6,1.3c0.1,0.5,0.2,1.1,0.2,1.7V22h-2.6v-4.9c0-0.9-0.1-1.4-0.3-1.8c-0.2-0.4-0.6-0.5-1.2-0.5
		c-0.2,0-0.4,0-0.7,0.1c-0.2,0-0.4,0.1-0.6,0.1v7L95,22L95,22L95,22z"/>
</g>
<g>
	<circle class="st1" cx="6.9" cy="15.4" r="6.9"/>
	<path id="symbol_1_" class="st0" d="M9.1,13.1c-0.3-0.8-1.1-1-2.1-0.8l-0.3-1.2l-0.7,0.2l0.3,1.2c-0.2,0-0.4,0.1-0.6,0.1l-0.3-1.2
		l-0.7,0.2l0.3,1.2c-0.2,0-1.5,0.4-1.5,0.4L3.6,14c0,0,0.5-0.2,0.5-0.1c0.3-0.1,0.4,0.1,0.5,0.2l0.9,3.3c0,0.1,0,0.3-0.2,0.3
		c0,0-0.5,0.1-0.5,0.1l0.1,0.9c0,0,1.3-0.3,1.5-0.4l0.3,1.2l0.7-0.2l-0.3-1.2c0.2,0,0.4-0.1,0.6-0.1L8,19.3l0.7-0.2l-0.3-1.2
		c1.1-0.3,1.9-1,1.8-2.1c-0.1-0.7-0.8-1.2-1.4-1.3C9.1,14.2,9.3,13.7,9.1,13.1L9.1,13.1z M8.7,16c0.1,1.1-1.4,1.2-1.9,1.4l-0.4-1.6
		C6.9,15.6,8.5,15,8.7,16z M7.8,13.8c0.2,1-1.1,1.1-1.6,1.2l-0.4-1.5C6.3,13.4,7.5,12.9,7.8,13.8z"/>
</g>
</svg>
