<?xml version="1.0" encoding="utf-8"?>
<!-- Generator: Adobe Illustrator 22.0.1, SVG Export Plug-In . SVG Version: 6.00 Build 0)  -->
<svg version="1.1" id="Слой_1" xmlns="http://www.w3.org/2000/svg" xmlns:xlink="http://www.w3.org/1999/xlink" x="0px" y="0px"
	 viewBox="0 0 103 32" style="enable-background:new 0 0 103 32;" xml:space="preserve">
<style type="text/css">
	.st0{fill:#F7931A;}
	.st1{fill:#FFFFFF;}
</style>
<g>
	<path class="st0" d="M21.1,17.4c-1.4,5.7-7.2,9.2-13,7.8c-5.7-1.4-9.2-7.2-7.8-13c1.4-5.7,7.2-9.2,13-7.8
		C19,5.8,22.5,11.7,21.1,17.4L21.1,17.4z"/>
	<path class="st1" d="M15.4,13.3c0.2-1.4-0.9-2.2-2.4-2.7l0.5-1.9l-1.2-0.3l-0.5,1.9c-0.3-0.1-0.6-0.1-0.9-0.2l0.5-1.9l-1.2-0.3
		L9.8,9.8C9.5,9.7,9.3,9.6,9,9.6l0,0L7.4,9.2l-0.3,1.3c0,0,0.9,0.2,0.9,0.2c0.5,0.1,0.6,0.4,0.5,0.7L8,13.5c0,0,0.1,0,0.1,0
		c0,0-0.1,0-0.1,0l-0.8,3.1C7.1,16.8,7,17,6.7,16.9c0,0-0.9-0.2-0.9-0.2L5.2,18l1.5,0.4c0.3,0.1,0.6,0.1,0.8,0.2l-0.5,2l1.2,0.3
		l0.5-1.9c0.3,0.1,0.6,0.2,0.9,0.2l-0.5,1.9l1.2,0.3l0.5-2c2,0.4,3.5,0.2,4.1-1.6c0.5-1.5,0-2.3-1.1-2.9
		C14.7,14.8,15.3,14.3,15.4,13.3L15.4,13.3z M12.8,17.1c-0.4,1.5-2.8,0.7-3.6,0.5l0.6-2.6C10.6,15.1,13.1,15.5,12.8,17.1L12.8,17.1z
		 M13.1,13.3c-0.3,1.3-2.4,0.7-3,0.5l0.6-2.3C11.3,11.6,13.5,11.9,13.1,13.3z"/>
	<path class="st1" d="M31.4,10.6c0.9,0,1.6,0.2,2.3,0.5c0.6,0.3,1.2,0.7,1.6,1.2c0.4,0.5,0.7,1.1,0.9,1.8c0.2,0.7,0.3,1.5,0.3,2.3
		c0,1.2-0.2,2.4-0.7,3.5c-0.5,1.1-1.1,2.1-1.9,2.9c-0.8,0.8-1.7,1.5-2.8,2c-1.1,0.5-2.3,0.7-3.5,0.7c-0.2,0-0.5,0-0.9,0
		c-0.4,0-0.9-0.1-1.4-0.1c-0.5-0.1-1.1-0.2-1.7-0.3c-0.6-0.1-1.1-0.3-1.7-0.6l4.7-19.7l4.2-0.7l-1.7,7c0.4-0.2,0.7-0.3,1.1-0.4
		C30.6,10.6,31,10.6,31.4,10.6L31.4,10.6z M27.9,22.2c0.6,0,1.2-0.2,1.8-0.5c0.6-0.3,1-0.7,1.5-1.2c0.4-0.5,0.7-1.1,1-1.8
		c0.2-0.7,0.4-1.3,0.4-2c0-0.9-0.1-1.5-0.4-2c-0.3-0.5-0.8-0.7-1.6-0.7c-0.3,0-0.6,0-1,0.1c-0.4,0.1-0.8,0.3-1.1,0.6l-1.8,7.4
		c0.1,0,0.2,0,0.3,0.1c0.1,0,0.2,0,0.3,0c0.1,0,0.2,0,0.3,0S27.7,22.2,27.9,22.2L27.9,22.2z"/>
	<path class="st1" d="M40.8,25.1h-4l3.4-14.3h4L40.8,25.1z M42.8,9.1c-0.6,0-1.1-0.2-1.5-0.5c-0.5-0.3-0.7-0.8-0.7-1.5
		c0-0.4,0.1-0.7,0.2-1.1c0.2-0.3,0.4-0.6,0.6-0.9c0.3-0.2,0.5-0.4,0.9-0.6c0.3-0.1,0.7-0.2,1.1-0.2c0.6,0,1.1,0.2,1.5,0.5
		c0.5,0.3,0.7,0.8,0.7,1.5c0,0.4-0.1,0.7-0.2,1.1c-0.2,0.3-0.4,0.6-0.6,0.9c-0.3,0.2-0.5,0.4-0.9,0.6C43.5,9.1,43.1,9.1,42.8,9.1
		L42.8,9.1z"/>
	<path class="st1" d="M47.7,7.3L52,6.7l-1,4.2h4.5l-0.8,3.3h-4.5l-1.2,5c-0.1,0.4-0.2,0.8-0.2,1.2c0,0.4,0,0.7,0.1,0.9
		c0.1,0.3,0.3,0.5,0.6,0.6c0.3,0.1,0.7,0.2,1.2,0.2c0.4,0,0.9,0,1.3-0.1c0.4-0.1,0.8-0.2,1.2-0.3l0.3,3.1c-0.5,0.2-1.1,0.4-1.8,0.5
		c-0.6,0.1-1.4,0.2-2.3,0.2c-1.2,0-2.2-0.2-2.9-0.6c-0.7-0.4-1.2-0.9-1.5-1.5c-0.3-0.6-0.4-1.4-0.4-2.2c0-0.8,0.2-1.7,0.4-2.6
		L47.7,7.3L47.7,7.3z"/>
	<path class="st1" d="M55.2,19.5c0-1.2,0.2-2.4,0.6-3.5c0.4-1.1,1-2,1.7-2.9c0.7-0.8,1.6-1.5,2.7-1.9c1.1-0.5,2.2-0.7,3.5-0.7
		c0.8,0,1.5,0.1,2.2,0.2c0.6,0.2,1.2,0.4,1.8,0.6l-1.4,3.1c-0.4-0.1-0.7-0.3-1.1-0.4c-0.4-0.1-0.9-0.2-1.4-0.2
		c-1.3,0-2.4,0.5-3.2,1.4c-0.8,0.9-1.2,2.2-1.2,3.7c0,0.9,0.2,1.7,0.6,2.2c0.4,0.6,1.1,0.9,2.2,0.9c0.5,0,1-0.1,1.5-0.2
		c0.5-0.1,0.9-0.2,1.3-0.4l0.3,3.2c-0.5,0.2-1.1,0.4-1.7,0.5c-0.6,0.2-1.3,0.2-2.2,0.2c-1.1,0-2.1-0.2-2.8-0.5
		c-0.8-0.3-1.4-0.8-1.9-1.3c-0.5-0.6-0.9-1.2-1.1-1.9C55.4,21,55.2,20.3,55.2,19.5L55.2,19.5z"/>
	<path class="st1" d="M73.1,25.5c-1,0-1.8-0.1-2.5-0.4c-0.7-0.3-1.3-0.7-1.7-1.2c-0.5-0.5-0.8-1.1-1-1.9c-0.2-0.7-0.4-1.5-0.4-2.4
		c0-1.1,0.2-2.2,0.5-3.3c0.4-1.1,0.9-2.1,1.6-2.9c0.7-0.9,1.5-1.6,2.5-2.1c1-0.5,2.1-0.8,3.4-0.8c0.9,0,1.8,0.1,2.5,0.4
		c0.7,0.3,1.3,0.7,1.8,1.2c0.5,0.5,0.8,1.1,1,1.9c0.2,0.7,0.4,1.5,0.4,2.4c0,1.1-0.2,2.2-0.5,3.3c-0.3,1.1-0.8,2.1-1.5,2.9
		c-0.7,0.9-1.5,1.6-2.5,2.1C75.6,25.2,74.4,25.5,73.1,25.5L73.1,25.5z M75.1,13.9c-0.6,0-1.1,0.2-1.6,0.5c-0.5,0.3-0.8,0.8-1.1,1.3
		c-0.3,0.5-0.5,1.1-0.7,1.7c-0.2,0.6-0.2,1.2-0.2,1.8c0,0.9,0.1,1.6,0.4,2.1c0.3,0.5,0.8,0.8,1.6,0.8c0.6,0,1.1-0.2,1.6-0.5
		c0.4-0.3,0.8-0.8,1.1-1.3c0.3-0.5,0.5-1.1,0.7-1.7c0.2-0.6,0.2-1.2,0.2-1.8c0-0.9-0.1-1.6-0.4-2.1C76.4,14.2,75.8,13.9,75.1,13.9
		L75.1,13.9z"/>
	<path class="st1" d="M85.5,25.1h-4l3.4-14.3h4L85.5,25.1z M87.4,9.1c-0.6,0-1.1-0.2-1.5-0.5c-0.5-0.3-0.7-0.8-0.7-1.5
		c0-0.4,0.1-0.7,0.2-1.1c0.2-0.3,0.4-0.6,0.6-0.9c0.3-0.2,0.5-0.4,0.9-0.6c0.3-0.1,0.7-0.2,1.1-0.2c0.6,0,1.1,0.2,1.5,0.5
		c0.5,0.3,0.7,0.8,0.7,1.5c0,0.4-0.1,0.7-0.2,1.1c-0.2,0.3-0.4,0.6-0.6,0.9c-0.3,0.2-0.5,0.4-0.9,0.6C88.2,9.1,87.8,9.1,87.4,9.1z"
		/>
	<path class="st1" d="M91.8,11.5c0.3-0.1,0.6-0.2,1-0.3c0.4-0.1,0.8-0.2,1.2-0.3c0.5-0.1,1-0.2,1.5-0.2c0.6-0.1,1.2-0.1,1.9-0.1
		c2.1,0,3.6,0.6,4.4,1.8c0.8,1.2,0.9,2.9,0.4,5l-1.8,7.7h-4l1.8-7.5c0.1-0.5,0.2-0.9,0.3-1.4c0.1-0.4,0.1-0.8,0-1.2
		c-0.1-0.3-0.2-0.6-0.5-0.8c-0.3-0.2-0.7-0.3-1.2-0.3c-0.5,0-1.1,0.1-1.6,0.2l-2.6,11h-4L91.8,11.5z"/>
</g>
</svg>
