<svg width="183" height="88" viewBox="0 0 183 88" fill="none" xmlns="http://www.w3.org/2000/svg">
<path d="M24.4863 14.6554L0.960632 24.831L6.15727 69.1283L12.6444 78.8194L27.898 83.571L45.3766 82.7057L49.3717 82.5079L53.3668 82.3101L78.3362 81.074L106.925 82.1617L141.259 77.9589L149.699 76.5399L157.665 75.6449L172.449 70.9081L177.774 57.128L180.088 22.9718L166.985 11.1051L143.84 8.74666L24.4863 14.6554Z" fill="url(#paint0_linear_8094_23)"/>
<path d="M24.1386 7.6639L0.612975 17.8396L5.80962 62.1368L12.2967 71.8279L27.5503 76.5795L45.0289 75.7142L49.2515 69.9984L53.0191 75.3187L77.9886 74.0825L111.546 74.4237L114.869 70.7549L118.988 73.054L140.912 70.9675L148.778 68.075L156.892 70.1764L172.101 63.9167L177.426 50.1365L179.74 15.9803L166.637 4.11368L143.492 1.7552L24.1386 7.6639Z" fill="url(#paint1_linear_8094_23)"/>
<path d="M24.1386 7.6639L0.612975 17.8396L5.80962 62.1368L12.2967 71.8279L27.5503 76.5795L45.0289 75.7142L49.2515 69.9984L53.0191 75.3187L77.9886 74.0825L111.546 74.4237L114.869 70.7549L118.988 73.054L140.912 70.9675L148.778 68.075L156.892 70.1764L172.101 63.9167L177.426 50.1365L179.74 15.9803L166.637 4.11368L143.492 1.7552L24.1386 7.6639Z" fill="url(#paint2_linear_8094_23)"/>
<defs>
<linearGradient id="paint0_linear_8094_23" x1="92.541" y1="64.6393" x2="93.4415" y2="82.8292" gradientUnits="userSpaceOnUse">
<stop stop-color="#004209"/>
<stop offset="1" stop-color="#004209"/>
</linearGradient>
<linearGradient id="paint1_linear_8094_23" x1="89.5585" y1="4.42524" x2="93.0938" y2="75.8378" gradientUnits="userSpaceOnUse">
<stop stop-color="#F4CE67"/>
<stop offset="1" stop-color="#E1A64A"/>
</linearGradient>
<linearGradient id="paint2_linear_8094_23" x1="89.4571" y1="4.43026" x2="92.9703" y2="75.3953" gradientUnits="userSpaceOnUse">
<stop stop-color="#5AEB72"/>
<stop offset="1" stop-color="#1AAC35"/>
</linearGradient>
</defs>
</svg>
