<?xml version="1.0" encoding="utf-8"?>
<!-- Generator: Adobe Illustrator 22.0.1, SVG Export Plug-In . SVG Version: 6.00 Build 0)  -->
<svg version="1.1" id="Слой_1" xmlns="http://www.w3.org/2000/svg" xmlns:xlink="http://www.w3.org/1999/xlink" x="0px" y="0px"
	 viewBox="0 0 103 32" style="enable-background:new 0 0 103 32;" xml:space="preserve">
<style type="text/css">
	.st0{fill:#4C96E4;}
	.st1{fill:url(#SVGID_1_);}
	.st2{fill:url(#SVGID_2_);}
	.st3{fill:#F49F8E;}
	.st4{fill:#FEE64F;}
	.st5{fill:#54D0DA;}
	.st6{fill:#FFFFFF;}
</style>
<g>
	<g>
		<g>
			<path class="st0" d="M9.8,32c-0.1,0-0.1,0-0.2,0c-0.3-0.1-0.5-0.4-0.5-0.6v-7c0-0.2,0.1-0.4,0.3-0.6l8.3-5.8
				c0.3-0.2,0.6-0.2,0.9,0.1c0.2,0.2,0.3,0.6,0.1,0.9l-8.3,12.7C10.3,31.8,10.1,32,9.8,32z M10.5,24.7V29l5.1-7.9L10.5,24.7z"/>
		</g>
		<g>
			<linearGradient id="SVGID_1_" gradientUnits="userSpaceOnUse" x1="0.799" y1="13.6565" x2="9.9059" y2="13.6565">
				<stop  offset="4.962779e-03" style="stop-color:#257524"/>
				<stop  offset="1" style="stop-color:#6DC642"/>
			</linearGradient>
			<polygon class="st1" points="1.4,16.4 0.8,15.2 9.3,10.9 9.9,12.2 			"/>
		</g>
		<g>
			<linearGradient id="SVGID_2_" gradientUnits="userSpaceOnUse" x1="9.4168" y1="13.6565" x2="18.5237" y2="13.6565">
				<stop  offset="2.481390e-03" style="stop-color:#A2609E"/>
				<stop  offset="0.9975" style="stop-color:#8124A1"/>
			</linearGradient>
			<polygon class="st2" points="17.9,16.4 9.4,12.2 10,10.9 18.5,15.2 			"/>
		</g>
		<g>
			<path class="st3" d="M9.7,22.1c-0.1,0-0.2,0-0.3-0.1C9.1,21.9,9,21.7,9,21.4V0.7C9,0.4,9.2,0.1,9.5,0c0.3-0.1,0.6,0.1,0.8,0.3
				l8.4,15.1c0.2,0.3,0.1,0.7-0.2,0.9L10.1,22C9.9,22,9.8,22.1,9.7,22.1z M10.4,3.3v16.8l6.8-4.6L10.4,3.3z"/>
		</g>
		<path class="st4" d="M9.7,0C9.4,0,9.1,0.1,9,0.4L0.5,15.4c-0.2,0.3-0.1,0.7,0.2,0.9L9.2,22c0.1,0.1,0.3,0.1,0.4,0.1
			c0,0,0.1,0,0.1,0V0z M8.9,20.1l-6.8-4.6L8.9,3.3V20.1z"/>
		<path class="st5" d="M9.7,23.5L1.7,18c-0.3-0.2-0.6-0.2-0.9,0.1c-0.2,0.2-0.3,0.6-0.1,0.9L9,31.7C9.2,31.8,9.4,32,9.6,32
			c0,0,0,0,0.1,0V23.5z M8.9,29l-5.1-7.9l5.1,3.6V29z"/>
	</g>
	<path class="st6" d="M31.2,11.1H37v1.6h-3.8v2.1h3v1.5h-3v2.2H37V20h-5.8L31.2,11.1L31.2,11.1z"/>
	<path class="st6" d="M41.4,12.7H39v-1.6h6.8v1.6h-2.4v7.3h-2V12.7z"/>
	<path class="st6" d="M47.2,11.1h2v3.6h3.6v-3.6h2V20h-2v-3.7h-3.6V20h-2V11.1z"/>
	<path class="st6" d="M57.9,11.1h5.8v1.6h-3.8v2.1h3v1.5h-3v2.2h3.8V20h-5.8V11.1z"/>
	<path class="st6" d="M66,11.1h3.2c2.1,0,3.4,0.9,3.4,2.7v0c0,1.3-0.8,2-1.8,2.4l2.3,3.8H71l-2.1-3.4H68V20h-2L66,11.1L66,11.1z
		 M69.2,15.2c1,0,1.5-0.4,1.5-1.3v0c0-0.9-0.5-1.2-1.5-1.2H68v2.5L69.2,15.2L69.2,15.2z"/>
	<path class="st6" d="M75.5,11.1h5.8v1.6h-3.8v2.1h3v1.5h-3v2.2h3.8V20h-5.8L75.5,11.1L75.5,11.1z"/>
	<path class="st6" d="M83.3,16.5v-5.4h2v5.3c0,1.5,0.4,2.1,1.7,2.1c1.2,0,1.7-0.6,1.7-2.2v-5.2h2v5.3c0,2.4-1.4,3.7-3.7,3.7
		C84.6,20.1,83.3,18.9,83.3,16.5z"/>
	<path class="st6" d="M93.2,11.1h2.7l2.1,4.1l2-4.1h2.6V20h-2v-6.2L98.1,18h-0.6L95,13.7V20h-1.8L93.2,11.1L93.2,11.1z"/>
</g>
</svg>
