<svg width="20" height="20" viewBox="0 0 20 20" fill="none" xmlns="http://www.w3.org/2000/svg">
<path d="M15.0004 9.78519C14.9692 9.67211 14.9144 9.56689 14.8398 9.47642C14.7651 9.38595 14.6722 9.31227 14.5671 9.26019L11.7421 7.86019L12.5004 2.61852C12.5253 2.43686 12.4896 2.25205 12.3989 2.09273C12.3081 1.9334 12.1673 1.80846 11.9984 1.73726C11.8294 1.66606 11.6416 1.65258 11.4642 1.69891C11.2868 1.74524 11.1296 1.8488 11.0171 1.99352L5.18372 9.49352C5.10596 9.59535 5.05273 9.71373 5.02816 9.83947C5.00359 9.96521 5.00835 10.0949 5.04205 10.2185C5.07515 10.3433 5.1368 10.4587 5.22212 10.5556C5.30745 10.6525 5.41412 10.7282 5.53372 10.7769L9.09205 12.2019L8.33372 17.3852C8.30794 17.5712 8.34577 17.7605 8.44106 17.9224C8.53635 18.0842 8.68353 18.2091 8.85872 18.2769C8.95638 18.3174 9.06135 18.3372 9.16705 18.3352C9.30431 18.3345 9.43926 18.2999 9.55993 18.2345C9.68059 18.169 9.78323 18.0748 9.85872 17.9602L14.8587 10.4602C14.9291 10.3643 14.9782 10.2545 15.0027 10.138C15.0271 10.0216 15.0263 9.90129 15.0004 9.78519Z" fill="black"/>
<path d="M15.0004 9.78519C14.9692 9.67211 14.9144 9.56689 14.8398 9.47642C14.7651 9.38595 14.6722 9.31227 14.5671 9.26019L11.7421 7.86019L12.5004 2.61852C12.5253 2.43686 12.4896 2.25205 12.3989 2.09273C12.3081 1.9334 12.1673 1.80846 11.9984 1.73726C11.8294 1.66606 11.6416 1.65258 11.4642 1.69891C11.2868 1.74524 11.1296 1.8488 11.0171 1.99352L5.18372 9.49352C5.10596 9.59535 5.05273 9.71373 5.02816 9.83947C5.00359 9.96521 5.00835 10.0949 5.04205 10.2185C5.07515 10.3433 5.1368 10.4587 5.22212 10.5556C5.30745 10.6525 5.41412 10.7282 5.53372 10.7769L9.09205 12.2019L8.33372 17.3852C8.30794 17.5712 8.34577 17.7605 8.44106 17.9224C8.53635 18.0842 8.68353 18.2091 8.85872 18.2769C8.95638 18.3174 9.06135 18.3372 9.16705 18.3352C9.30431 18.3345 9.43926 18.2999 9.55993 18.2345C9.68059 18.169 9.78323 18.0748 9.85872 17.9602L14.8587 10.4602C14.9291 10.3643 14.9782 10.2545 15.0027 10.138C15.0271 10.0216 15.0263 9.90129 15.0004 9.78519Z" fill="url(#paint0_linear_3039_2405)"/>
<defs>
<linearGradient id="paint0_linear_3039_2405" x1="7.22752" y1="1.67187" x2="16.8917" y2="11.1611" gradientUnits="userSpaceOnUse">
<stop stop-color="#41C6FF"/>
<stop offset="1" stop-color="#1A64FC"/>
</linearGradient>
</defs>
</svg>
