<svg width="1471" height="348" viewBox="0 0 1471 348" fill="none" xmlns="http://www.w3.org/2000/svg">
<g clip-path="url(#clip0_8280_2840)">
<path d="M398.191 0.696055L434.872 0C441.136 26.7367 446.932 56.2713 468.977 74.6416C487.541 94.4041 513.992 103.705 539.987 107.888C539.987 120.677 539.523 133.465 539.06 146.26C489.857 146.717 444.841 176.252 416.988 215.777C395.174 243.441 382.412 276.695 373.593 310.645C372.898 321.106 372.204 331.568 371.734 342.036C358.741 342.036 345.514 341.803 332.521 341.803C335.075 271.584 365.468 202.525 418.377 156.018C432.999 143.926 449.009 133.697 465.026 123.468C449.009 111.601 434.619 97.8844 421.394 83.0011C389.836 164.849 312.336 228.334 223.919 236.003C221.835 271.352 225.077 307.157 219.976 342.268H184.699C184.012 306.919 184.699 271.577 183.773 236.235C125.069 227.638 72.1608 193.216 38.28 144.855C21.813 119.284 4.64455 93.012 0 62.5494C61.959 46.506 132.499 63.2454 176.819 110.68C200.492 133.472 213.717 164.392 221.141 196.014C278.462 192.992 328.809 156.258 362.227 111.376C386.137 79.5209 397.96 40.2279 398.191 0.696055ZM53.1467 95.3322C54.3044 97.4271 56.8582 101.378 58.0159 103.473C85.1682 148.813 128.794 185.321 181.239 195.783C166.618 139.279 110.931 97.1952 53.1467 95.3322Z" fill="white"/>
<path d="M631.646 126.955C644.401 113.471 663.197 109.52 680.835 106.729L681.53 140.439C661.107 146.717 644.17 161.137 641.847 183.458L681.53 184.857C681.299 196.717 680.835 208.809 680.372 220.663C668.537 220.432 656.7 220.432 644.864 220.199C644.633 260.659 644.864 300.887 644.864 341.34C633.035 341.34 620.96 341.579 609.131 341.811C609.131 302.047 609.362 221.128 609.362 221.128H592.657V184.161C592.657 184.161 603.792 184.394 607.504 184.394C609.131 163.232 614.709 140.911 631.646 126.955ZM742.556 182.995C789.2 164.392 848.141 196.949 854.175 247.638C865.078 296.233 824.469 346.929 774.816 347.154C736.761 349.713 699.4 323.441 690.118 286.235C677.117 245.079 701.253 196.486 742.556 182.995ZM754.161 216.705C719.122 228.804 710.998 281.357 742.556 301.814C771.098 325.767 820.063 302.279 819.6 265.074C823.774 230.892 785.256 204.845 754.161 216.705ZM1256.09 236.707C1257.24 205.547 1284.39 179.507 1315.03 177.883C1332.2 176.02 1347.05 186.249 1362.13 192.759C1376.99 188.576 1390.21 177.645 1406.46 177.645C1438.94 176.253 1470.5 203.459 1470.73 236.707C1471.43 271.584 1470.5 306.462 1470.97 341.579C1459.13 341.579 1447.3 341.811 1435.45 341.811C1435.45 312.276 1435.69 282.98 1435.69 253.453C1435.69 241.129 1434.76 226.941 1423.86 219.04C1408.78 207.179 1383.02 217.176 1381.62 236.938C1379.53 271.817 1381.62 306.701 1380.7 341.811C1369.09 341.811 1357.49 341.579 1345.89 341.811C1345.19 305.998 1348.21 269.728 1344.5 234.147C1338 207.642 1295.3 209.035 1291.59 236.475C1287.88 271.352 1291.36 306.933 1289.73 342.043C1278.13 341.81 1266.53 341.811 1254.93 341.579C1256.54 306.462 1254.7 271.584 1256.09 236.707Z" fill="#E4E4E4"/>
<path d="M843.733 183.929C858.818 184.161 873.896 183.459 888.749 185.089C904.297 199.038 914.974 217.176 928.432 232.755C941.426 216.711 952.097 198.342 967.877 184.851C982.498 183.459 997.35 184.393 1012.2 184.155C992.243 211.13 970.198 236.474 951.402 264.146C972.752 289.026 991.548 315.763 1012.44 340.876C996.888 341.347 981.571 341.347 966.256 341.578C953.725 325.064 941.194 308.557 928.432 292.049C915.67 308.564 902.907 324.832 890.608 341.578C875.06 341.34 859.745 341.34 844.197 340.876C865.778 315.995 884.574 289.026 905.454 263.682C885.748 236.433 865.163 209.839 843.733 183.929ZM1032.39 184.386H1067.66C1067.43 236.939 1067.43 289.259 1067.66 341.81H1032.39V184.386ZM1097.83 184.625C1110.13 184.393 1122.2 184.155 1134.49 183.929C1135.42 219.271 1131.47 255.077 1136.12 290.186C1142.61 317.859 1185.54 318.322 1193.19 291.115C1198.77 255.773 1194.36 219.735 1195.52 184.161C1207.59 184.393 1219.42 184.393 1231.48 184.393C1230.79 219.039 1232.65 253.685 1230.79 288.098C1227.77 321.81 1195.76 349.945 1161.63 346.922C1129.39 346.922 1100.61 319.489 1098.75 287.164C1096.43 253.214 1098.52 218.799 1097.83 184.625Z" fill="#E4E4E4"/>
</g>
<defs>
<clipPath id="clip0_8280_2840">
<rect width="1471" height="348" fill="white"/>
</clipPath>
</defs>
</svg>
