<svg width="26" height="26" viewBox="0 0 26 26" fill="none" xmlns="http://www.w3.org/2000/svg">
<g clip-path="url(#clip0_3288_359)">
<path d="M13.0003 2.16406C15.9437 2.16406 16.311 2.1749 17.4658 2.22906C18.6196 2.28323 19.405 2.46415 20.0962 2.73281C20.8112 3.00798 21.4135 3.38065 22.0158 3.9819C22.5667 4.52345 22.9929 5.17853 23.2649 5.90156C23.5325 6.59165 23.7145 7.37815 23.7687 8.5319C23.8196 9.68673 23.8337 10.054 23.8337 12.9974C23.8337 15.9408 23.8228 16.3081 23.7687 17.4629C23.7145 18.6166 23.5325 19.4021 23.2649 20.0932C22.9937 20.8167 22.5674 21.4719 22.0158 22.0129C21.4741 22.5636 20.8191 22.9898 20.0962 23.262C19.4061 23.5296 18.6196 23.7116 17.4658 23.7657C16.311 23.8166 15.9437 23.8307 13.0003 23.8307C10.0569 23.8307 9.68966 23.8199 8.53482 23.7657C7.38107 23.7116 6.59566 23.5296 5.90449 23.262C5.18118 22.9906 4.52598 22.5643 3.98483 22.0129C3.43385 21.4714 3.00758 20.8163 2.73574 20.0932C2.46708 19.4031 2.28616 18.6166 2.23199 17.4629C2.18108 16.3081 2.16699 15.9408 2.16699 12.9974C2.16699 10.054 2.17783 9.68673 2.23199 8.5319C2.28616 7.37706 2.46708 6.59273 2.73574 5.90156C3.00683 5.17809 3.4332 4.52283 3.98483 3.9819C4.52614 3.43073 5.18129 3.00444 5.90449 2.73281C6.59566 2.46415 7.37999 2.28323 8.53482 2.22906C9.68966 2.17815 10.0569 2.16406 13.0003 2.16406ZM13.0003 7.58073C11.5637 7.58073 10.186 8.15141 9.17016 9.16723C8.15434 10.1831 7.58366 11.5608 7.58366 12.9974C7.58366 14.434 8.15434 15.8117 9.17016 16.8276C10.186 17.8434 11.5637 18.4141 13.0003 18.4141C14.4369 18.4141 15.8147 17.8434 16.8305 16.8276C17.8463 15.8117 18.417 14.434 18.417 12.9974C18.417 11.5608 17.8463 10.1831 16.8305 9.16723C15.8147 8.15141 14.4369 7.58073 13.0003 7.58073ZM20.042 7.3099C20.042 6.95075 19.8993 6.60631 19.6454 6.35236C19.3914 6.0984 19.047 5.95573 18.6878 5.95573C18.3287 5.95573 17.9842 6.0984 17.7303 6.35236C17.4763 6.60631 17.3337 6.95075 17.3337 7.3099C17.3337 7.66904 17.4763 8.01348 17.7303 8.26744C17.9842 8.52139 18.3287 8.66406 18.6878 8.66406C19.047 8.66406 19.3914 8.52139 19.6454 8.26744C19.8993 8.01348 20.042 7.66904 20.042 7.3099ZM13.0003 9.7474C13.8623 9.7474 14.6889 10.0898 15.2984 10.6993C15.9079 11.3088 16.2503 12.1354 16.2503 12.9974C16.2503 13.8593 15.9079 14.686 15.2984 15.2955C14.6889 15.905 13.8623 16.2474 13.0003 16.2474C12.1384 16.2474 11.3117 15.905 10.7022 15.2955C10.0927 14.686 9.75032 13.8593 9.75032 12.9974C9.75032 12.1354 10.0927 11.3088 10.7022 10.6993C11.3117 10.0898 12.1384 9.7474 13.0003 9.7474Z" fill="url(#paint0_linear_3288_359)"/>
</g>
<defs>
<linearGradient id="paint0_linear_3288_359" x1="6.96207" y1="2.16406" x2="18.1506" y2="20.4564" gradientUnits="userSpaceOnUse">
<stop stop-color="#41C6FF"/>
<stop offset="1" stop-color="#1A64FC"/>
</linearGradient>
<clipPath id="clip0_3288_359">
<rect width="26" height="26" fill="white"/>
</clipPath>
</defs>
</svg>
