<svg width="1281" height="396" viewBox="0 0 1281 396" fill="none" xmlns="http://www.w3.org/2000/svg">
<g clip-path="url(#clip0_8280_3020)">
<path d="M58.7893 321.255C72.4699 321.255 84.9068 317.542 93.6126 311.355C103.562 305.167 109.781 296.505 114.755 285.367C119.73 274.23 122.217 256.905 122.217 232.155V87.3672H83.6631V237.105C83.6631 256.905 82.4194 269.28 78.6883 274.23C74.9573 279.18 68.7388 282.892 61.2767 282.892C53.8145 282.892 46.3524 279.18 42.6213 271.755C38.8903 266.805 37.6466 255.667 37.6466 243.292L1.57959 248.242C1.57959 274.23 6.55435 292.792 17.7476 305.167C28.9408 317.542 40.134 321.255 58.7893 321.255Z" fill="white"/>
<path d="M201.814 317.542V218.542H281.41V180.18H201.814V125.73H293.847V87.3672H163.259V318.78H201.814V317.542ZM407.022 317.542V125.73H464.232V87.3672H311.258V126.967H368.468V318.78H407.022V317.542ZM556.265 317.542L593.576 144.292L630.887 317.542H671.928L719.188 87.3672H680.634L650.786 248.242L617.206 87.3672H571.189L536.366 245.767L509.005 87.3672H469.207L515.223 318.78H556.265V317.542Z" fill="white"/>
<path d="M781.037 170.775C786.012 170.775 790.986 169.538 794.717 167.063C798.449 164.588 800.936 160.875 803.423 157.163C804.667 152.213 805.911 146.025 805.911 136.125V76.725H789.743V136.125C789.743 143.55 789.743 148.5 787.255 150.975C786.012 153.45 783.524 154.688 779.793 154.688C776.062 154.688 774.818 153.45 772.331 149.738C772.331 148.5 771.087 144.788 771.087 138.6L756.163 141.075C756.163 150.975 758.65 158.4 762.382 163.35C767.356 168.3 772.331 170.775 781.037 170.775ZM853.171 170.775C860.633 170.775 866.851 169.538 871.826 165.825C876.801 162.113 879.288 158.4 880.532 152.213C881.776 147.263 883.019 137.363 883.019 124.988V76.725H866.851V129.938C866.851 138.6 866.851 143.55 865.608 146.025C864.364 148.5 863.12 150.975 860.633 152.213C858.146 153.45 855.658 154.688 851.927 154.688C846.952 154.688 844.465 153.45 841.978 150.975C839.49 148.5 837.003 146.025 837.003 141.075C837.003 138.6 837.003 133.65 837.003 126.225V76.725H820.835V126.225C820.835 139.838 822.079 149.738 823.322 154.688C824.566 159.638 828.297 164.588 833.272 167.063C838.247 169.538 844.465 170.775 853.171 170.775ZM926.549 170.775C936.498 170.775 945.204 168.3 950.179 162.113C955.153 155.925 957.641 149.738 957.641 141.075C957.641 136.125 956.397 131.175 955.153 126.225C953.91 122.513 950.179 118.8 947.691 116.325C945.204 113.85 936.498 113.85 929.036 111.375C921.574 108.9 916.599 107.663 915.355 106.425C912.868 105.188 912.868 102.713 912.868 100.238C912.868 97.7625 914.112 95.2875 916.599 94.05C919.086 92.8125 921.574 91.575 926.549 91.575C931.523 91.575 934.011 92.8125 936.498 94.05C938.985 96.525 940.229 99 941.473 103.95H957.641C957.641 95.2875 955.153 87.8625 950.179 82.9125C945.204 77.9625 935.254 74.25 926.549 74.25C920.33 74.25 915.355 75.4875 911.624 77.9625C907.893 80.4375 904.162 82.9125 901.675 87.8625C899.187 92.8125 897.944 96.525 897.944 101.475C897.944 106.425 899.187 110.138 900.431 113.85C901.675 117.562 905.406 120.037 907.893 122.513C910.381 124.987 915.355 127.462 922.817 128.7C930.28 131.175 934.011 132.413 936.498 133.65C937.742 134.888 940.229 136.125 941.473 137.363C942.716 138.6 942.717 141.075 942.717 142.313C942.717 146.025 941.473 148.5 938.985 150.975C936.498 153.45 932.767 154.688 927.792 154.688C917.843 154.688 912.868 148.5 911.624 137.363L895.456 139.838C896.7 160.875 906.65 170.775 926.549 170.775ZM1002.41 169.538V92.8125H1024.8V76.725H963.859V92.8125H986.246V169.538H1002.41ZM1079.52 169.538V129.938H1110.61V115.088H1079.52V92.8125H1115.59V76.725H1063.35V169.538H1079.52ZM1162.85 170.775C1174.04 170.775 1182.75 167.062 1188.97 159.638C1196.43 150.975 1200.16 138.6 1200.16 123.75C1200.16 108.9 1196.43 96.525 1190.21 87.8625C1182.75 79.2 1174.04 75.4875 1164.09 75.4875C1156.63 75.4875 1150.41 76.725 1144.19 80.4375C1139.22 84.15 1134.24 89.1 1131.76 96.525C1128.03 103.95 1126.78 112.613 1126.78 123.75C1126.78 138.6 1130.51 150.975 1137.98 159.638C1144.19 167.062 1151.66 170.775 1162.85 170.775ZM1162.85 154.688C1156.63 154.688 1151.66 152.213 1147.93 147.263C1144.19 142.312 1141.71 133.65 1141.71 123.75C1141.71 112.613 1144.19 105.188 1147.93 100.238C1151.66 95.2875 1156.63 92.8125 1162.85 92.8125C1169.07 92.8125 1174.04 95.2875 1177.77 100.238C1181.5 105.188 1182.75 113.85 1182.75 123.75C1182.75 134.888 1180.26 142.313 1176.53 148.5C1174.04 153.45 1169.07 154.688 1162.85 154.688ZM1227.52 169.538V131.175H1231.25C1234.98 131.175 1237.47 131.175 1238.71 132.413C1239.96 132.413 1242.45 134.888 1243.69 136.125C1244.93 137.363 1247.42 142.313 1252.4 149.738L1263.59 169.538H1282.24L1272.29 150.975C1268.56 143.55 1266.08 138.6 1263.59 136.125C1261.1 133.65 1258.61 131.175 1254.88 128.7C1261.1 127.462 1266.08 124.988 1269.81 120.038C1273.54 115.088 1274.78 110.138 1274.78 102.713C1274.78 97.7625 1273.54 92.8125 1271.05 87.8625C1268.56 82.9125 1266.08 81.675 1262.34 79.2C1258.61 77.9625 1252.4 76.725 1244.93 76.725H1212.6V169.538H1227.52ZM1238.71 116.325H1227.52V92.8125H1241.2C1247.42 92.8125 1251.15 92.8125 1251.15 92.8125C1253.64 92.8125 1254.88 94.05 1256.13 96.525C1257.37 97.7625 1257.37 101.475 1257.37 103.95C1257.37 107.662 1257.37 108.9 1256.13 111.375C1254.88 112.613 1253.64 115.088 1251.15 115.088C1248.66 115.088 1246.18 116.325 1238.71 116.325ZM794.717 318.038V241.313H817.104V225.225H756.163V241.313H778.549V318.038H794.717ZM843.221 318.038V277.2H873.07V318.038H889.238V225.225H873.07V261.113H843.221V225.225H827.053V318.038H843.221ZM962.616 318.038V301.95H920.33V275.963H957.641V259.875H920.33V238.838H961.372V222.75H904.162V315.563C904.162 318.038 962.616 318.038 962.616 318.038ZM1032.26 318.038L1047.19 248.738L1062.11 318.038H1078.28L1096.93 225.225H1082.01L1069.57 289.575L1057.14 225.225H1038.48L1024.8 288.338L1013.61 225.225H997.439L1016.09 318.038H1032.26ZM1120.56 318.038V225.225H1104.4V318.038H1120.56ZM1150.41 318.038V257.4L1181.5 318.038H1197.67V225.225H1181.5V287.1L1150.41 225.225H1135.49V318.038H1150.41Z" fill="white"/>
</g>
<defs>
<clipPath id="clip0_8280_3020">
<rect width="1281" height="396" fill="white"/>
</clipPath>
</defs>
</svg>
