<svg width="13" height="13" viewBox="0 0 13 13" fill="none" xmlns="http://www.w3.org/2000/svg">
<path d="M6.46364 1.06934C7.64986 1.06934 8.61148 2.03096 8.61148 3.21717V4.29109H9.95388C10.3987 4.29109 10.7593 4.6517 10.7593 5.09653V11.0031C10.7593 11.4479 10.3987 11.8085 9.95388 11.8085H2.97341C2.52858 11.8085 2.16797 11.4479 2.16797 11.0031V5.09653C2.16797 4.6517 2.52858 4.29109 2.97341 4.29109H4.31581V3.21717C4.31581 2.03096 5.27743 1.06934 6.46364 1.06934ZM6.46371 7.24437C6.01888 7.24437 5.65827 7.60498 5.65827 8.04981C5.65827 8.49464 6.01888 8.85525 6.46371 8.85525C6.90854 8.85525 7.26915 8.49464 7.26915 8.04981C7.26915 7.60498 6.90854 7.24437 6.46371 7.24437ZM6.46364 2.14325C5.87054 2.14325 5.38973 2.62406 5.38973 3.21717V4.29109H7.53756V3.21717C7.53756 2.62406 7.05675 2.14325 6.46364 2.14325Z" fill="#212121"/>
<path d="M6.46364 1.06934C7.64986 1.06934 8.61148 2.03096 8.61148 3.21717V4.29109H9.95388C10.3987 4.29109 10.7593 4.6517 10.7593 5.09653V11.0031C10.7593 11.4479 10.3987 11.8085 9.95388 11.8085H2.97341C2.52858 11.8085 2.16797 11.4479 2.16797 11.0031V5.09653C2.16797 4.6517 2.52858 4.29109 2.97341 4.29109H4.31581V3.21717C4.31581 2.03096 5.27743 1.06934 6.46364 1.06934ZM6.46371 7.24437C6.01888 7.24437 5.65827 7.60498 5.65827 8.04981C5.65827 8.49464 6.01888 8.85525 6.46371 8.85525C6.90854 8.85525 7.26915 8.49464 7.26915 8.04981C7.26915 7.60498 6.90854 7.24437 6.46371 7.24437ZM6.46364 2.14325C5.87054 2.14325 5.38973 2.62406 5.38973 3.21717V4.29109H7.53756V3.21717C7.53756 2.62406 7.05675 2.14325 6.46364 2.14325Z" fill="url(#paint0_linear_7633_51)"/>
<defs>
<linearGradient id="paint0_linear_7633_51" x1="4.06933" y1="1.06934" x2="10.0808" y2="8.93191" gradientUnits="userSpaceOnUse">
<stop stop-color="#41C6FF"/>
<stop offset="1" stop-color="#1A64FC"/>
</linearGradient>
</defs>
</svg>
