<?xml version="1.0" encoding="utf-8"?>
<!-- Generator: Adobe Illustrator 22.0.1, SVG Export Plug-In . SVG Version: 6.00 Build 0)  -->
<svg version="1.1" id="Слой_1" xmlns="http://www.w3.org/2000/svg" xmlns:xlink="http://www.w3.org/1999/xlink" x="0px" y="0px"
	 viewBox="0 0 103 32" style="enable-background:new 0 0 103 32;" xml:space="preserve">
<style type="text/css">
	.st0{fill:#0664ED;}
	.st1{fill:#FFFFFF;}
</style>
<path class="st0" d="M14.5,1.5C6.5,1.5,0,8,0,16s6.5,14.5,14.5,14.5S29,24,29,16l0,0C29,8,22.5,1.5,14.5,1.5z M14.7,16.5l-1.5,5.1
	h8.1c0.2,0,0.4,0.2,0.4,0.4c0,0,0,0.1,0,0.1L21,24.5c-0.1,0.2-0.3,0.4-0.5,0.4H8.1l2.1-7l-2.3,0.7l0.5-1.6l2.3-0.7l2.9-9.9
	C13.7,6.1,13.9,6,14.2,6h3.1c0.2,0,0.4,0.2,0.4,0.4c0,0,0,0.1,0,0.1l-2.5,8.3l2.3-0.7l-0.5,1.7L14.7,16.5z"/>
<path class="st1" d="M37.4,5.9h-0.9c-0.2,0-0.3,0.1-0.3,0.3l0,0l-2.3,18.5c0,0.2,0,0.3,0.2,0.3H35c0.1,0,0.3-0.1,0.3-0.2v0l2.3-18.5
	C37.7,6,37.6,5.9,37.4,5.9z"/>
<path class="st1" d="M42.1,11.2h-0.9c-0.1,0-0.3,0.1-0.3,0.2c0,0,0,0,0,0l-1.6,13.2c0,0.2,0.1,0.3,0.2,0.3h0.9
	c0.1,0,0.3-0.1,0.3-0.2v0l1.6-13.2C42.3,11.3,42.3,11.2,42.1,11.2z"/>
<path class="st1" d="M81.5,11c-2.4-0.1-4.5,1.5-5.1,3.9C76.2,16,76,17,75.9,18.1c-0.1,1.1-0.2,2.1-0.2,3.2c0,1.1,0.4,2.1,1.1,2.8
	c0.7,0.7,1.7,1.1,3,1.1c1.2,0,2.3-0.4,3.2-1.1s1.5-1.7,1.8-2.8c0.2-1.1,0.5-2.1,0.6-3.2c0.1-1.1,0.2-2.1,0.2-3.2
	c0-1.1-0.4-2.1-1.1-2.8C83.6,11.3,82.6,11,81.5,11z M84,16.8c-0.1,0.7-0.1,1.1-0.1,1.3c-0.2,1.4-0.3,2.3-0.5,2.9
	c-0.2,0.8-0.6,1.6-1.3,2.1c-0.6,0.5-1.4,0.8-2.3,0.8c-1.5,0.1-2.7-1-2.8-2.5c0-0.1,0-0.2,0-0.3c0-0.6,0-1.1,0.1-1.7
	c0.1-0.7,0.1-1.1,0.1-1.3c0.2-1.3,0.3-2.3,0.5-2.9c0.2-0.8,0.6-1.6,1.3-2.1c0.6-0.5,1.4-0.8,2.3-0.8c1.5-0.1,2.7,1,2.8,2.5
	c0,0.1,0,0.2,0,0.3C84.1,15.7,84.1,16.2,84,16.8z"/>
<path class="st1" d="M90.7,11.2h-0.9c-0.2,0-0.3,0.1-0.3,0.3l-1.7,13.2c0,0.2,0.1,0.3,0.2,0.3H89c0.1,0,0.3-0.1,0.3-0.2l0,0
	l1.6-13.2C91,11.3,90.9,11.2,90.7,11.2z"/>
<path class="st1" d="M102.1,12c-0.6-0.6-1.5-1-2.6-1c-0.7,0-1.4,0.1-2,0.4c-0.6,0.3-1.2,0.7-1.6,1.3c-0.1,0.1-0.1,0.1-0.1-0.1
	l0.1-1.2c0-0.2,0-0.3-0.2-0.3h-0.9c-0.1,0-0.3,0.1-0.3,0.2l0,0l-1.7,13.2c0,0.2,0,0.3,0.2,0.3h0.9c0.2,0,0.3-0.1,0.3-0.3l0,0
	l1.2-9.4c0.2-0.8,0.6-1.5,1.2-2.1c0.6-0.5,1.4-0.8,2.2-0.8c0.7,0,1.4,0.2,1.9,0.8c0.5,0.6,0.7,1.3,0.7,2c0,0.2,0,0.4,0,0.6l-1.1,8.9
	c0,0.1,0,0.1,0,0.2c0.1,0.1,0.1,0.1,0.2,0.1h0.9c0.1,0,0.3-0.1,0.3-0.2l0,0l1.2-9.2c0-0.4,0.1-0.6,0.1-0.8
	C103,13.7,102.7,12.7,102.1,12z"/>
<path class="st1" d="M42.7,5.9c-0.5-0.3-1.2-0.1-1.5,0.5c-0.3,0.5-0.1,1.2,0.5,1.5c0.5,0.3,1.2,0.1,1.5-0.5l0,0
	C43.4,6.9,43.2,6.2,42.7,5.9z"/>
<path class="st1" d="M91.4,5.9c-0.5-0.3-1.2-0.1-1.5,0.5c-0.3,0.5-0.1,1.2,0.5,1.5c0.5,0.3,1.2,0.1,1.5-0.5l0,0
	C92.1,6.9,91.9,6.2,91.4,5.9z"/>
<path class="st1" d="M69.8,11c-1.2,0-2.3,0.4-3.3,1.1c-0.9,0.7-1.5,1.7-1.8,2.8c-0.2,1.1-0.4,2.1-0.6,3.2c-0.1,1.1-0.2,2.1-0.2,3.2
	c0,1.1,0.4,2.1,1.1,2.8c0.7,0.7,1.7,1.1,3,1.1c1.2,0,2.3-0.4,3.2-1.1c0.9-0.7,1.5-1.7,1.8-2.8c0-0.1,0-0.2,0.1-0.3
	c0-0.1,0-0.1-0.1-0.1h0h-1.1c-0.1,0-0.1,0-0.2,0.1c0,0,0,0,0,0.1c-0.2,0.8-0.6,1.6-1.3,2.1C69.8,23.7,69,24,68.1,24
	c-1.5,0.1-2.7-1-2.8-2.5c0-0.1,0-0.2,0-0.3c0-0.6,0-1.1,0.1-1.7c0.1-0.6,0.1-1.1,0.1-1.3c0.2-1.3,0.3-2.3,0.5-2.9
	c0.2-0.8,0.6-1.6,1.3-2.1c0.6-0.5,1.4-0.8,2.3-0.8c1.5-0.1,2.7,1,2.8,2.5c0,0.1,0,0.2,0,0.3v0c0,0.1,0.1,0.2,0.2,0.2l0,0h1.1
	c0.1,0,0.2-0.1,0.2-0.1l0,0c0-0.1,0-0.2,0-0.3c0-1.1-0.4-2.1-1.1-2.8C71.9,11.3,70.9,11,69.8,11z"/>
<path class="st1" d="M60.7,12.1c-0.8-0.7-1.9-1.1-3-1.1c-2.4-0.1-4.5,1.5-5.1,3.9c-0.2,1.1-0.4,2.1-0.6,3.2
	c-0.2,1.1-0.2,2.1-0.2,3.2c0,1.1,0.4,2.1,1.1,2.8c0.7,0.7,1.7,1.1,3,1.1c1.2,0,2.3-0.4,3.2-1.1c0.9-0.7,1.5-1.7,1.8-2.8
	c0-0.1,0-0.2,0.1-0.3c0-0.1,0-0.1-0.1-0.1h0h-1.1c-0.1,0-0.1,0-0.2,0.1c0,0,0,0.1,0,0.1c-0.2,0.8-0.6,1.6-1.3,2.1
	c-0.6,0.5-1.4,0.8-2.3,0.8c-1.5,0.1-2.7-1-2.8-2.5c0-0.1,0-0.2,0-0.3c0-0.5,0-1,0.1-1.5l8.1-2.5c0.1,0,0.2-0.2,0.2-0.3
	c0-0.4,0.1-1.1,0.1-1.9C61.9,13.9,61.4,12.8,60.7,12.1z M60.4,15.9c0,0.1-0.1,0.1-0.1,0.2l-6.7,2.1v0c0.2-1.3,0.3-2.3,0.5-2.9
	c0.2-0.8,0.6-1.6,1.3-2.1c0.6-0.5,1.4-0.8,2.3-0.8c0.8,0,1.5,0.2,2.1,0.8C60.5,13.9,60.5,14.8,60.4,15.9z"/>
<path class="st1" d="M48.8,23.5c0.1-0.1,0.2,0,0.3,0.1c0,0,0,0.1,0,0.1L49,24.6c0,0.1-0.1,0.2-0.2,0.3c-0.9,0.4-1.9,0.4-2.8,0
	c-1-0.5-1.3-1.5-1.2-2.7l1.2-9.6l0.2-1.4L46.6,8c0-0.1,0.1-0.3,0.3-0.3c0,0,0,0,0,0h0.9C48,7.8,48,7.9,48,8l-0.5,4.3h2.8
	c0.2,0,0.2,0.1,0.2,0.3l-0.1,0.6c0,0.1,0,0.1-0.1,0.2c-0.1,0-0.1,0.1-0.2,0.1h-2.8l-1,7.9c-0.1,0.8-0.2,1.6,0.2,2
	C47.1,24,48.2,23.8,48.8,23.5z"/>
</svg>
