<svg width="28" height="28" viewBox="0 0 28 28" fill="none" xmlns="http://www.w3.org/2000/svg">
<path fill-rule="evenodd" clip-rule="evenodd" d="M15.2906 25.6667H12.7097C8.68876 25.6667 6.67826 25.6667 5.30736 24.4863C3.93645 23.3058 3.65212 21.3299 3.08347 17.3778L2.75824 15.1176C2.31556 12.041 2.09422 10.5027 2.72476 9.18748C3.35529 7.87224 4.69738 7.07277 7.38155 5.47382L8.9972 4.51139C11.4347 3.05938 12.6535 2.33337 14.0002 2.33337C15.3468 2.33337 16.5657 3.05938 19.0031 4.51139L20.6188 5.47382C23.3029 7.07277 24.6451 7.87224 25.2755 9.18748C25.9061 10.5027 25.6848 12.041 25.242 15.1176L24.9169 17.3778C24.3481 21.3299 24.0638 23.3058 22.693 24.4863C21.322 25.6667 19.3115 25.6667 15.2906 25.6667ZM9.79732 18.1454C10.0851 17.7572 10.6331 17.6757 11.0213 17.9636C11.8711 18.5933 12.8967 18.9581 14.0003 18.9581C15.1038 18.9581 16.1294 18.5933 16.9792 17.9636C17.3675 17.6757 17.9155 17.7572 18.2032 18.1454C18.491 18.5336 18.4096 19.0817 18.0213 19.3694C16.8868 20.2103 15.4994 20.7081 14.0003 20.7081C12.5011 20.7081 11.1137 20.2103 9.97923 19.3694C9.591 19.0817 9.50957 18.5336 9.79732 18.1454Z" fill="#475774"/>
</svg>
