<svg width="44" height="29" viewBox="0 0 44 29" fill="none" xmlns="http://www.w3.org/2000/svg">
<path d="M13.5 29C20.9558 29 27 22.5081 27 14.5C27 6.49187 20.9558 0 13.5 0C6.04415 0 0 6.49187 0 14.5C0 22.5081 6.04415 29 13.5 29Z" fill="#D24A48"/>
<path d="M30.5 29C37.9558 29 44 22.5081 44 14.5C44 6.49187 37.9558 0 30.5 0C23.0442 0 17 6.49187 17 14.5C17 22.5081 23.0442 29 30.5 29Z" fill="#EAAB4D"/>
<path d="M22 26C24.7614 26 27 21.0751 27 15C27 8.92487 24.7614 4 22 4C19.2386 4 17 8.92487 17 15C17 21.0751 19.2386 26 22 26Z" fill="#DD754A"/>
</svg>
