<svg width="58" height="40" viewBox="0 0 58 40" fill="none" xmlns="http://www.w3.org/2000/svg">
<g clip-path="url(#clip0_4362_322)">
<mask id="mask0_4362_322" style="mask-type:luminance" maskUnits="userSpaceOnUse" x="0" y="-1" width="58" height="41">
<path d="M57.9999 -0.00390625H0V39.8075H57.9999V-0.00390625Z" fill="white"/>
</mask>
<g mask="url(#mask0_4362_322)">
<path d="M3.97925 29.6445H44.7672V35.3829H3.97925V29.6445Z" fill="#35965C"/>
<path d="M3.97925 5.41797H44.7672V29.647H3.97925V5.41797Z" fill="#4FBF9D"/>
<path d="M19.2748 29.6445H29.4718V35.3829H19.2748V29.6445Z" fill="#94989B"/>
<path d="M6.52856 7.96875H42.218V27.0969H6.52856V7.96875Z" fill="#35965C"/>
<path d="M8.44043 9.88281H40.306V25.1853H8.44043V9.88281Z" fill="#4FBF9D"/>
<path d="M32.6583 22.6353C35.4742 22.6353 37.7568 20.3515 37.7568 17.5344C37.7568 14.7173 35.4742 12.4336 32.6583 12.4336C29.8425 12.4336 27.5598 14.7173 27.5598 17.5344C27.5598 20.3515 29.8425 22.6353 32.6583 22.6353Z" fill="#35965C"/>
<path d="M19.2748 5.41797H29.4718V29.647H19.2748V5.41797Z" fill="#D0D0D0"/>
<path d="M14.5776 18.0702H10.9431V17.3218H14.5776C14.9131 17.3218 15.1903 17.2651 15.4094 17.1517C15.6284 17.0361 15.7914 16.8796 15.8987 16.6823C16.0058 16.4827 16.0594 16.2559 16.0594 16.0019C16.0594 15.7479 16.0058 15.5223 15.8987 15.3249C15.7914 15.1253 15.6284 14.9689 15.4094 14.8555C15.1903 14.7399 14.9131 14.682 14.5776 14.682H12.9421V20.9006H12.0754V13.9336H14.5776C15.1089 13.9336 15.5468 14.0277 15.8916 14.216C16.2364 14.4042 16.4928 14.6548 16.6605 14.9678C16.8282 15.2807 16.9121 15.6255 16.9121 16.0019C16.9121 16.3784 16.8282 16.7231 16.6605 17.0361C16.4928 17.349 16.2364 17.5996 15.8916 17.7879C15.5468 17.9761 15.1089 18.0702 14.5776 18.0702ZM14.5217 18.7234V19.4719H10.9431V18.7234H14.5217Z" fill="white"/>
<path d="M41.7051 34.9425C41.7051 35.9829 44.8618 36.8225 48.7538 36.8225C52.6458 36.8225 55.8026 35.9829 55.8026 34.9425V33.0625H48.7538H41.7051V34.9425Z" fill="#D2AA31"/>
<path d="M48.7538 31.5078C44.8618 31.5078 41.7051 32.2806 41.7051 33.2244C41.7051 34.1756 44.8618 34.9409 48.7538 34.9409C52.6458 34.9409 55.8026 34.1681 55.8026 33.2244C55.8026 32.2732 52.6459 31.5078 48.7538 31.5078Z" fill="#E9CE49"/>
<path d="M42.8788 32.2003C42.8788 33.2407 46.0355 34.0804 49.9275 34.0804C53.8195 34.0804 56.9763 33.2407 56.9763 32.2003V30.3203H49.9275H42.8788V32.2003Z" fill="#D2AA31"/>
<path d="M49.9275 28.7695C46.0355 28.7695 42.8788 29.5424 42.8788 30.4861C42.8788 31.4373 46.0355 32.2027 49.9275 32.2027C53.8195 32.2027 56.9763 31.4298 56.9763 30.4861C56.9763 29.5349 53.8195 28.7695 49.9275 28.7695Z" fill="#E9CE49"/>
<path d="M40.4946 28.9309C40.4946 29.9711 43.6514 30.8109 47.5434 30.8109C51.4355 30.8109 54.5921 29.9711 54.5921 28.9309V27.0508H47.5434H40.4946V28.9309Z" fill="#D2AA31"/>
<path d="M47.5434 25.5C43.6514 25.5 40.4946 26.2728 40.4946 27.2166C40.4946 28.1678 43.6514 28.9331 47.5434 28.9331C51.4355 28.9331 54.5921 28.1603 54.5921 27.2166C54.5921 26.2654 51.4355 25.5 47.5434 25.5Z" fill="#E9CE49"/>
<path d="M38.3403 26.2628C38.3403 27.3032 41.497 28.1428 45.3891 28.1428C49.2811 28.1428 52.4378 27.3032 52.4378 26.2628V24.3828H45.3891H38.3403V26.2628Z" fill="#D2AA31"/>
<path d="M45.3891 22.832C41.497 22.832 38.3403 23.6049 38.3403 24.5486C38.3403 25.4998 41.497 26.2652 45.3891 26.2652C49.2811 26.2652 52.4378 25.4923 52.4378 24.5486C52.4378 23.5975 49.2811 22.832 45.3891 22.832Z" fill="#E9CE49"/>
<path d="M46.8345 37.7081C46.8345 38.7485 43.6778 39.5882 39.7857 39.5882C35.8937 39.5882 32.7369 38.7485 32.7369 37.7081V35.8281H39.7857H46.8345V37.7081Z" fill="#F2C53F"/>
<path d="M39.7858 34.4961C43.6779 34.4961 46.8346 35.2689 46.8346 36.2127C46.8346 37.1639 43.6779 37.9292 39.7858 37.9292C35.8939 37.9292 32.7371 37.1564 32.7371 36.2127C32.7371 35.2615 35.8938 34.4961 39.7858 34.4961Z" fill="#FFE356"/>
<path d="M45.6609 35.1886C45.6609 36.229 42.5042 37.0687 38.6121 37.0687C34.7201 37.0687 31.5634 36.229 31.5634 35.1886V33.3086H38.6121H45.6609V35.1886Z" fill="#F2C53F"/>
<path d="M38.6121 31.7539C42.5042 31.7539 45.6609 32.5267 45.6609 33.4705C45.6609 34.4217 42.5042 35.187 38.6121 35.187C34.7201 35.187 31.5634 34.4142 31.5634 33.4705C31.5634 32.5193 34.7201 31.7539 38.6121 31.7539Z" fill="#FFE356"/>
<path d="M48.045 31.9192C48.045 32.9594 44.8882 33.7991 40.9963 33.7991C37.1042 33.7991 33.9475 32.9594 33.9475 31.9192V30.0391H40.9963H48.045V31.9192Z" fill="#F2C53F"/>
<path d="M40.9963 28.4844C44.8882 28.4844 48.045 29.2572 48.045 30.2009C48.045 31.1521 44.8882 31.9175 40.9963 31.9175C37.1042 31.9175 33.9475 31.1447 33.9475 30.2009C33.9475 29.2497 37.1042 28.4844 40.9963 28.4844Z" fill="#FFE356"/>
<path d="M50.1992 29.2511C50.1992 30.2915 47.0425 31.1311 43.1505 31.1311C39.2585 31.1311 36.1018 30.2915 36.1018 29.2511V27.3711H43.1505H50.1992V29.2511Z" fill="#F2C53F"/>
<path d="M43.1505 25.8203C47.0425 25.8203 50.1992 26.5931 50.1992 27.5369C50.1992 28.4881 47.0425 29.2534 43.1505 29.2534C39.2585 29.2534 36.1018 28.4806 36.1018 27.5369C36.1018 26.5858 39.2585 25.8203 43.1505 25.8203Z" fill="#FFE356"/>
<path d="M48.045 26.2707C48.045 27.311 44.8882 28.1507 40.9963 28.1507C37.1042 28.1507 33.9475 27.311 33.9475 26.2707V24.3906H40.9963H48.045V26.2707Z" fill="#F2C53F"/>
<path d="M40.9963 22.8398C44.8882 22.8398 48.045 23.6127 48.045 24.5564C48.045 25.5075 44.8882 26.2729 40.9963 26.2729C37.1042 26.2729 33.9475 25.5 33.9475 24.5564C33.9475 23.6052 37.1042 22.8398 40.9963 22.8398Z" fill="#FFE356"/>
<path d="M45.7128 23.255C45.7128 24.2953 42.5561 25.135 38.6641 25.135C34.772 25.135 31.6154 24.2953 31.6154 23.255V21.375H38.6641H45.7128V23.255Z" fill="#F2C53F"/>
<path d="M38.6568 19.8203C42.5489 19.8203 45.7056 20.5931 45.7056 21.5369C45.7056 22.4881 42.5489 23.2534 38.6568 23.2534C34.7648 23.2534 31.6082 22.4806 31.6082 21.5369C31.6082 20.5857 34.7647 19.8203 38.6568 19.8203Z" fill="#FFE356"/>
<path d="M47.5698 20.6534C47.5698 21.6938 44.4131 22.5335 40.5212 22.5335C36.6291 22.5335 33.4724 21.6938 33.4724 20.6534V18.7734H40.5212H47.5698V20.6534Z" fill="#F2C53F"/>
<path d="M40.5212 17.2188C44.4131 17.2188 47.5698 17.9916 47.5698 18.9353C47.5698 19.8865 44.4131 20.6519 40.5212 20.6519C36.6291 20.6519 33.4724 19.879 33.4724 18.9353C33.4724 17.9841 36.6291 17.2188 40.5212 17.2188Z" fill="#FFE356"/>
</g>
</g>
<defs>
<clipPath id="clip0_4362_322">
<rect width="58" height="40" fill="white"/>
</clipPath>
</defs>
</svg>
