<svg width="50" height="18" viewBox="0 0 50 18" fill="none" xmlns="http://www.w3.org/2000/svg">
<path d="M19.0275 0.235294L12.4736 17.6471H8.13953L4.96829 3.76471C4.75687 2.94118 4.65116 2.58824 4.01691 2.23529C3.06554 1.64706 1.37421 1.05882 0 0.705883L0.105708 0.235294H6.97674C7.82241 0.235294 8.66808 0.941176 8.87949 2L10.5708 12.1176L14.7992 0.235294H19.0275ZM35.8351 12C35.8351 7.41177 30.1269 7.17647 30.1269 5.05882C30.1269 4.47059 30.6554 3.76471 31.8182 3.64706C32.3467 3.52941 34.0381 3.52941 35.8351 4.47059L36.5751 0.823529C35.6237 0.470588 34.3552 0 32.7696 0C28.7526 0 26.0042 2.35294 25.8985 5.76471C25.8985 8.23529 27.907 9.64706 29.4926 10.4706C31.0782 11.2941 31.6068 11.8824 31.6068 12.5882C31.6068 13.7647 30.3383 14.2353 29.1755 14.2353C27.167 14.2353 26.0042 13.6471 25.0529 13.1765L24.3129 17.0588C25.2643 17.5294 26.9556 18 28.8584 18C32.981 17.8824 35.7294 15.6471 35.8351 12ZM46.3002 17.6471H50L46.8288 0.235294H43.3404C42.6004 0.235294 41.9662 0.705883 41.6491 1.52941L35.518 17.6471H39.7463L40.592 15.0588H45.7717L46.3002 17.6471ZM41.8605 11.5294L43.9746 4.94118L45.2431 11.5294H41.8605ZM24.8414 0.235294L21.4588 17.6471H17.4419L20.8245 0.235294H24.8414Z" fill="#277FFF"/>
</svg>
