<svg width="1254" height="393" viewBox="0 0 1254 393" fill="none" xmlns="http://www.w3.org/2000/svg">
<path d="M154.94 40.5967C69.2557 40.5967 0 110.458 0 196.892C0 212.489 2.25484 227.436 6.76451 242.058C9.66359 238.159 12.5627 233.934 15.1396 229.71C25.7696 213.788 36.3995 197.866 47.0295 181.619L54.7604 169.272C57.3373 165.373 59.9143 160.823 62.1691 156.924C67.323 148.476 72.1548 140.352 76.6645 131.904C78.9193 127.68 81.1742 123.456 83.7511 119.232C86.3281 115.007 88.2608 110.783 90.5156 106.559C92.7705 102.335 95.0253 98.1106 96.958 93.8864L103.078 80.8889L103.723 79.9141C107.266 73.0904 115.319 70.166 122.405 73.4154C127.559 76.3398 130.781 81.8637 130.458 87.7126C130.458 95.1861 129.17 102.985 128.526 110.458C127.882 117.932 127.559 125.73 127.237 133.529C126.593 148.801 126.271 164.073 126.271 179.345C126.271 194.617 127.237 209.564 128.526 224.186C129.492 231.335 130.458 238.483 132.069 245.632C133.358 251.806 135.29 258.305 138.189 263.829C139.156 265.453 140.122 267.403 141.733 268.703C142.699 269.353 142.055 269.028 142.699 269.028H143.343L143.988 268.703H144.31L145.276 268.378C145.598 268.053 146.242 267.728 146.564 267.403C148.819 265.778 150.752 263.829 152.685 261.229C157.194 255.705 161.382 250.181 165.247 244.332C169.113 238.159 172.978 231.66 176.522 225.161C183.93 211.839 190.695 198.516 197.137 184.869C200.358 178.045 203.58 171.221 206.801 164.073C210.022 157.249 212.921 150.101 215.82 143.277C218.719 136.128 226.772 132.554 233.859 135.478C238.369 137.103 241.59 141.327 242.234 146.201C242.234 147.826 242.556 150.101 242.878 152.375L243.845 158.874C244.489 163.098 245.133 167.322 245.777 171.871C247.066 180.32 248.999 189.093 251.253 197.216C253.508 205.34 256.407 213.788 259.628 221.912C263.172 230.035 267.359 237.509 272.835 244.332C274.124 245.957 273.802 248.232 272.191 249.531C270.581 250.831 268.648 250.831 267.681 249.531C260.595 243.358 254.475 236.209 248.999 228.41C243.523 220.612 238.369 212.813 234.181 204.365C231.282 198.516 229.027 192.992 226.45 187.143C224.84 190.718 223.229 193.967 221.618 197.216C214.854 211.189 208.089 225.161 200.036 239.458C196.171 246.932 191.983 253.756 187.474 260.579C182.964 267.728 177.81 274.552 172.334 281.05C169.113 284.625 165.57 287.874 161.704 291.123C160.416 292.098 159.449 292.748 158.161 293.398L155.584 294.698L154.295 295.348H153.973L153.007 295.672H152.363L151.396 295.997C150.43 296.322 150.108 296.647 149.141 296.647L143.988 297.622C140.444 297.947 136.257 297.297 133.035 296.322C129.814 295.348 126.593 293.073 123.694 290.798C119.506 287.224 115.641 282.35 113.064 277.476C109.199 269.353 106.3 260.904 104.689 252.131C103.078 244.007 101.79 235.884 101.146 227.761C99.535 211.839 98.8908 195.917 98.5686 179.995V157.249C95.6696 162.773 92.7705 168.297 90.1935 173.171C87.9387 177.395 85.6838 181.619 83.1069 186.169L76.0203 199.166C66.3567 216.388 56.3709 233.285 46.0631 250.181C39.6207 261.229 32.8562 271.952 25.7696 282.675C72.7991 354.811 168.791 374.957 240.301 327.516C311.812 280.075 331.783 183.244 284.754 111.108C255.763 67.2415 207.123 40.5967 154.94 40.5967Z" fill="white"/>
<path d="M443.881 253.105V149.45H441.304L408.448 253.43H400.073L367.216 149.45H364.639V253.105H351.11V138.728H375.269L404.582 229.71L433.251 138.728H457.732V253.755L443.881 253.105Z" fill="white"/>
<path d="M477.381 153.35V138.728H492.199V153.675H477.381V153.35ZM477.381 253.105V164.723H491.877V253.43H477.381V253.105Z" fill="white"/>
<path d="M579.815 224.187C579.815 241.408 573.373 254.406 545.026 254.406C509.271 254.406 507.338 233.935 507.338 208.59C507.338 183.244 508.949 162.773 544.704 162.773C573.051 162.773 579.493 176.096 579.493 192.993H565.964C565.964 179.02 561.132 172.197 544.704 172.197C522.478 172.197 521.512 184.219 521.512 208.265C521.512 232.31 522.8 244.333 544.704 244.333C561.132 244.333 565.964 237.509 565.964 223.537L579.815 224.187Z" fill="white"/>
<path d="M607.84 174.146C614.604 169.922 623.624 164.073 631.677 163.748C633.287 163.423 635.22 163.423 636.83 163.423C639.085 163.423 641.018 163.423 643.595 163.748L642.629 174.471C640.374 174.146 638.441 174.146 636.508 174.146C634.898 174.146 632.965 174.146 631.032 174.471C623.301 174.796 615.248 180.645 609.128 183.894V253.43H594.633V164.723H605.907L607.84 174.146Z" fill="white"/>
<path d="M725.091 208.914C725.091 234.259 723.159 254.73 686.759 254.73C650.359 254.73 648.427 234.259 648.427 208.914C648.427 183.569 650.359 163.098 686.759 163.098C723.159 163.098 725.091 183.894 725.091 208.914ZM662.6 208.914C662.6 232.959 663.889 244.982 686.437 244.982C708.985 244.982 710.274 233.284 710.274 208.914C710.274 184.544 708.985 172.846 686.437 172.846C663.889 172.846 662.6 184.544 662.6 208.914Z" fill="white"/>
<path d="M751.505 273.902C756.981 274.551 764.068 274.876 771.799 274.876C794.025 274.876 796.924 268.703 796.924 245.307C790.482 248.881 781.14 253.43 771.799 253.755C739.587 254.405 737.654 236.859 737.654 209.239C737.654 181.619 739.265 163.423 770.188 163.423C780.818 163.423 790.482 168.297 797.891 173.171L799.179 165.048H810.453V243.682C810.453 275.526 803.367 285.274 774.376 285.274C766.001 285.274 757.304 284.3 749.251 283.325L751.505 273.902ZM797.246 180.969C791.126 177.07 783.073 172.846 775.342 172.846C754.082 172.846 752.472 184.869 752.472 208.914C752.472 232.31 753.76 243.682 775.342 243.682C783.073 243.682 791.126 239.458 797.246 236.209V180.969Z" fill="white"/>
<path d="M890.017 253.105L888.728 244.982C881.642 249.531 872.3 254.73 861.992 254.73C829.78 255.38 827.848 236.858 827.848 208.914C827.848 180.969 829.458 163.098 861.348 163.098C871.978 163.098 881.319 167.972 888.406 172.196L889.695 164.397H900.969V253.105H890.017ZM887.118 180.319C880.997 176.745 872.944 172.846 865.214 172.846C843.954 172.846 842.343 184.868 842.343 208.914C842.343 232.959 843.632 244.982 865.214 244.982C872.944 244.982 880.997 240.758 887.118 236.858V180.319Z" fill="white"/>
<path d="M931.892 172.522C938.335 168.622 947.354 163.748 956.695 163.423C971.513 162.773 979.244 166.998 982.787 173.171C989.552 168.947 998.571 163.748 1008.56 163.423C1038.51 162.448 1040.77 178.045 1040.77 199.491V253.431H1026.27V200.141C1026.27 181.945 1024.98 172.846 1005.66 172.846C998.571 172.846 991.162 177.071 985.364 180.97C986.653 187.144 987.297 193.967 986.975 200.466V253.431H974.412V200.141C974.412 181.945 973.124 172.846 953.796 172.846C947.032 172.846 939.623 177.071 933.825 180.32V253.106H919.33V164.723H930.604L931.892 172.522Z" fill="white"/>
<path d="M1058.49 153.35V138.728H1073.3V153.675H1058.49V153.35ZM1058.81 253.105V164.723H1073.3V253.43H1058.81V253.105Z" fill="white"/>
<path d="M1103.9 172.521C1110.99 168.622 1120.33 163.748 1130.64 163.423C1162.85 162.448 1164.78 178.045 1164.78 199.491V253.431H1150.29V200.141C1150.29 181.945 1149 172.846 1127.42 172.846C1119.69 172.846 1111.64 177.071 1105.51 180.645V253.431H1091.02V164.723H1102.29L1103.9 172.521Z" fill="white"/>
<path d="M1192.81 273.902C1198.29 274.551 1205.37 274.876 1213.1 274.876C1235.33 274.876 1238.23 268.703 1238.23 245.307C1231.79 248.881 1222.44 253.43 1213.1 253.755C1180.89 254.405 1178.96 236.859 1178.96 209.239C1178.96 181.619 1180.57 163.423 1211.49 163.423C1222.12 163.423 1231.79 168.297 1239.19 173.171L1240.48 165.048H1251.76V243.682C1251.76 275.526 1244.67 285.274 1215.68 285.274C1207.3 285.274 1198.61 284.3 1190.55 283.325L1192.81 273.902ZM1238.23 180.969C1232.11 177.07 1224.05 172.846 1216.32 172.846C1195.06 172.846 1193.45 184.869 1193.45 208.914C1193.45 232.31 1194.74 243.682 1216.32 243.682C1224.05 243.682 1232.11 239.458 1238.23 236.209V180.969Z" fill="white"/>
</svg>
