<svg width="18" height="18" viewBox="0 0 18 18" fill="none" xmlns="http://www.w3.org/2000/svg">
<path fill-rule="evenodd" clip-rule="evenodd" d="M3.29408 5.82916C4.8386 5.08896 6.95589 4.31641 9.10679 4.31641C11.2605 4.31641 13.3263 5.09058 14.8217 5.83367C15.5758 6.20843 16.2002 6.58298 16.6372 6.86467C16.856 7.00569 17.0286 7.12392 17.1478 7.20792C17.2075 7.24993 17.2539 7.28343 17.286 7.30698L17.3236 7.33468L17.3342 7.34261L17.3375 7.34504L17.3386 7.34587L17.339 7.34618C17.3391 7.34631 17.3393 7.34643 16.9047 7.92049C16.4702 8.49456 16.4703 8.49465 16.4704 8.49474L16.4697 8.49419L16.4637 8.48976L16.4359 8.46923C16.4103 8.45053 16.3709 8.42206 16.3186 8.38521C16.214 8.31149 16.0577 8.2044 15.857 8.07503C15.4551 7.81596 14.8777 7.46949 14.1809 7.12323C12.7743 6.42427 10.9411 5.75641 9.10679 5.75641C7.26966 5.75641 5.38091 6.42589 3.91641 7.12774C3.19134 7.47522 2.586 7.82294 2.16302 8.08312C1.95181 8.21304 1.78681 8.32067 1.67591 8.3949C1.62048 8.43201 1.57862 8.46073 1.55132 8.47967L1.52143 8.50056L1.51492 8.50517L1.51394 8.50587C1.51404 8.50579 1.51416 8.50571 1.09473 7.92049C0.675294 7.33528 0.675444 7.33517 0.675608 7.33505L0.676016 7.33476L0.677108 7.33398L0.680397 7.33164L0.691354 7.32388L0.730466 7.29654C0.764058 7.27323 0.812546 7.23999 0.874935 7.19823C0.999674 7.11474 1.18021 6.99705 1.40856 6.85659C1.86472 6.576 2.51463 6.2027 3.29408 5.82916ZM0.375 15.8242H17.625V17.2642H0.375V15.8242ZM6.84082 9.36062H7.56082H10.4408V10.8006H8.28082V11.5126H9.72082V12.9526H8.28082V13.6731H10.4408V15.1131H7.56082H6.84082V14.3931V10.0806V9.36062ZM1.09445 9.36062H1.81445H2.53445H3.05397L3.21774 9.85365L3.96695 12.1091V9.36062H5.40695V14.3931V15.1131H4.68695H3.96695H3.44743L3.28366 14.6201L2.53445 12.3646V15.1131H1.09445V10.0806V9.36062ZM16.1925 9.25865L15.6903 12.7689L15.4358 12.0054L14.7528 9.95628L14.0697 12.0054L13.81 12.7847L13.3055 9.25865L11.88 9.4626L12.6 14.4951L12.6885 15.1131H13.3128H14.0328H14.5517L14.7158 14.6208L14.7528 14.51L14.7897 14.6208L14.9538 15.1131H15.4728H16.1853H16.8096L16.898 14.4951L17.618 9.4626L16.1925 9.25865Z" fill="url(#paint0_linear_3039_2345)"/>
<defs>
<linearGradient id="paint0_linear_3039_2345" x1="4.19262" y1="4.31641" x2="9.88828" y2="16.7225" gradientUnits="userSpaceOnUse">
<stop stop-color="#41C6FF"/>
<stop offset="1" stop-color="#1A64FC"/>
</linearGradient>
</defs>
</svg>
