<svg width="55" height="37" viewBox="0 0 55 37" fill="none" xmlns="http://www.w3.org/2000/svg">
<path d="M27.6539 8.72423C29.3076 8.72423 30.6482 10.0097 30.6482 11.5953L30.6477 12.3128L34.7655 12.3131C36.4192 12.3131 37.7599 13.5985 37.7599 15.1842L37.7592 22.3616H40.0054L40.0054 17.9327C39.1333 17.637 38.5085 16.8394 38.5085 15.902C38.5085 14.7127 39.5139 13.7487 40.7542 13.7487C41.9945 13.7487 43 14.7127 43 15.902C43 16.8394 42.3753 17.6369 41.5033 17.9326L41.5028 23.0631L41.5028 23.0719C41.5028 23.0745 41.5028 23.0771 41.5028 23.0797C41.5028 23.4761 41.1752 23.7975 40.7711 23.7975L37.7592 23.797L37.7599 33.8463C37.7599 35.432 36.4192 36.7174 34.7655 36.7174H21.2895C19.6357 36.7174 20.1748 36.8267 19.9519 36.1707C19.9519 36.1707 22.1147 35.6007 22.627 34.093C23.4073 31.7967 19.1717 30.2116 19.1717 28.462C19.1717 27.5451 20.3167 27.5737 20.2863 26.6574C20.2442 25.3898 19.3852 24.4132 18.5029 23.4863C17.4073 22.3352 16.0507 20.9712 16.0507 20.9712V15.1842C16.0507 13.5985 17.3913 12.3131 19.0451 12.3131L23.1621 12.3128L23.1623 11.5953C23.1623 10.0608 24.4179 8.80748 25.9977 8.72822L26.1567 8.72423H27.6539ZM33.2852 28.1041H28.7598C28.3557 28.1041 28.0282 28.4255 28.0282 28.8219C28.0282 29.2183 28.3557 29.5397 28.7598 29.5397H33.2852C33.6893 29.5397 34.0169 29.2183 34.0169 28.8219C34.0169 28.4255 33.6893 28.1041 33.2852 28.1041ZM32.1454 15.902H21.6651C20.4248 15.902 19.4194 16.866 19.4194 18.0553V23.0797C19.4194 24.269 20.4248 25.233 21.6651 25.233H32.1454C33.3857 25.233 34.3912 24.269 34.3912 23.0797V18.0553C34.3912 16.866 33.3857 15.902 32.1454 15.902ZM23.9112 17.3368L23.9109 17.3541V23.7809C23.9109 23.7864 23.911 23.7919 23.9111 23.7974L21.6651 23.7975C21.2517 23.7975 20.9165 23.4761 20.9165 23.0797V18.0553C20.9165 17.6589 21.2517 17.3375 21.6651 17.3375L23.9112 17.3368ZM28.403 17.3368L28.4025 17.3541V23.7809C28.4025 23.7864 28.4025 23.7919 28.4026 23.7974L25.4068 23.797L25.4081 23.7809V17.3541C25.4081 17.3483 25.408 17.3425 25.4079 17.3368H28.403ZM32.1454 17.3375C32.5588 17.3375 32.894 17.6589 32.894 18.0553V23.0797C32.894 23.4761 32.5588 23.7975 32.1454 23.7975L29.8987 23.797L29.8996 23.7809V17.3541C29.8996 17.3483 29.8996 17.3425 29.8994 17.3368L32.1454 17.3375Z" fill="#1C274C"/>
<path d="M27.6539 8.72423C29.3076 8.72423 30.6482 10.0097 30.6482 11.5953L30.6477 12.3128L34.7655 12.3131C36.4192 12.3131 37.7599 13.5985 37.7599 15.1842L37.7592 22.3616H40.0054L40.0054 17.9327C39.1333 17.637 38.5085 16.8394 38.5085 15.902C38.5085 14.7127 39.5139 13.7487 40.7542 13.7487C41.9945 13.7487 43 14.7127 43 15.902C43 16.8394 42.3753 17.6369 41.5033 17.9326L41.5028 23.0631L41.5028 23.0719C41.5028 23.0745 41.5028 23.0771 41.5028 23.0797C41.5028 23.4761 41.1752 23.7975 40.7711 23.7975L37.7592 23.797L37.7599 33.8463C37.7599 35.432 36.4192 36.7174 34.7655 36.7174H21.2895C19.6357 36.7174 20.1748 36.8267 19.9519 36.1707C19.9519 36.1707 22.1147 35.6007 22.627 34.093C23.4073 31.7967 19.1717 30.2116 19.1717 28.462C19.1717 27.5451 20.3167 27.5737 20.2863 26.6574C20.2442 25.3898 19.3852 24.4132 18.5029 23.4863C17.4073 22.3352 16.0507 20.9712 16.0507 20.9712V15.1842C16.0507 13.5985 17.3913 12.3131 19.0451 12.3131L23.1621 12.3128L23.1623 11.5953C23.1623 10.0608 24.4179 8.80748 25.9977 8.72822L26.1567 8.72423H27.6539ZM33.2852 28.1041H28.7598C28.3557 28.1041 28.0282 28.4255 28.0282 28.8219C28.0282 29.2183 28.3557 29.5397 28.7598 29.5397H33.2852C33.6893 29.5397 34.0169 29.2183 34.0169 28.8219C34.0169 28.4255 33.6893 28.1041 33.2852 28.1041ZM32.1454 15.902H21.6651C20.4248 15.902 19.4194 16.866 19.4194 18.0553V23.0797C19.4194 24.269 20.4248 25.233 21.6651 25.233H32.1454C33.3857 25.233 34.3912 24.269 34.3912 23.0797V18.0553C34.3912 16.866 33.3857 15.902 32.1454 15.902ZM23.9112 17.3368L23.9109 17.3541V23.7809C23.9109 23.7864 23.911 23.7919 23.9111 23.7974L21.6651 23.7975C21.2517 23.7975 20.9165 23.4761 20.9165 23.0797V18.0553C20.9165 17.6589 21.2517 17.3375 21.6651 17.3375L23.9112 17.3368ZM28.403 17.3368L28.4025 17.3541V23.7809C28.4025 23.7864 28.4025 23.7919 28.4026 23.7974L25.4068 23.797L25.4081 23.7809V17.3541C25.4081 17.3483 25.408 17.3425 25.4079 17.3368H28.403ZM32.1454 17.3375C32.5588 17.3375 32.894 17.6589 32.894 18.0553V23.0797C32.894 23.4761 32.5588 23.7975 32.1454 23.7975L29.8987 23.797L29.8996 23.7809V17.3541C29.8996 17.3483 29.8996 17.3425 29.8994 17.3368L32.1454 17.3375Z" fill="url(#paint0_linear_4453_269)"/>
<path d="M3.38873 27.4416C3.66981 27.6619 3.88914 27.8488 4.02888 28.0292C8.34728 26.7813 11.2965 25.0296 13.2831 23.4019C13.8631 22.9261 14.3586 22.4615 14.7843 22.022C13.5276 20.7378 12.4004 19.5531 12.4004 19.5531C11.7071 19.0092 11.2912 18.329 10.4593 18.329C9.62752 18.329 9.21157 19.0091 8.51867 19.5531C8.51867 19.5531 4.63649 23.6334 3.25023 24.8575C1.86398 26.0816 2.69578 26.8977 3.38873 27.4416ZM8.70831 22.7198C9.1466 22.7198 9.50198 23.0689 9.50198 23.4976C9.50198 23.9287 9.14665 24.277 8.70831 24.277C8.26966 24.277 7.91428 23.9287 7.91428 23.4976C7.91428 23.0688 8.26966 22.7198 8.70831 22.7198Z" fill="#1C274C"/>
<path d="M3.38873 27.4416C3.66981 27.6619 3.88914 27.8488 4.02888 28.0292C8.34728 26.7813 11.2965 25.0296 13.2831 23.4019C13.8631 22.9261 14.3586 22.4615 14.7843 22.022C13.5276 20.7378 12.4004 19.5531 12.4004 19.5531C11.7071 19.0092 11.2912 18.329 10.4593 18.329C9.62752 18.329 9.21157 19.0091 8.51867 19.5531C8.51867 19.5531 4.63649 23.6334 3.25023 24.8575C1.86398 26.0816 2.69578 26.8977 3.38873 27.4416ZM8.70831 22.7198C9.1466 22.7198 9.50198 23.0689 9.50198 23.4976C9.50198 23.9287 9.14665 24.277 8.70831 24.277C8.26966 24.277 7.91428 23.9287 7.91428 23.4976C7.91428 23.0688 8.26966 22.7198 8.70831 22.7198Z" fill="url(#paint1_linear_4453_269)"/>
<path d="M16.5251 28.462C16.872 28.1221 17.2959 27.8616 17.6688 27.4762C18.3276 26.796 19.0547 26.0817 17.6688 24.8576C17.2001 24.4436 16.4454 23.7024 15.6518 22.9031C15.2026 23.3648 14.6847 23.849 14.0832 24.3415C11.8293 26.1904 8.44106 28.1496 3.4809 29.4498C2.80298 30.1312 1.70108 31.1378 0.755127 32.0661C-0.631543 33.4265 0.213267 34.0616 0.755127 34.4868C1.14258 34.7913 1.71082 35.0068 2.16449 35.2439C7.43698 33.8138 11.493 31.8446 14.547 29.8595C15.348 29.3382 15.8573 28.9756 16.5251 28.462ZM6.50807 32.3562C5.80865 32.3562 5.24166 31.8003 5.24166 31.113C5.24166 30.4285 5.8087 29.8722 6.50807 29.8722C7.2075 29.8722 7.77449 30.4285 7.77449 31.113C7.77454 31.8003 7.2075 32.3562 6.50807 32.3562ZM12.6779 29.4084C12.1449 29.4084 11.7128 28.9848 11.7128 28.4612C11.7128 27.9396 12.1449 27.5157 12.6779 27.5157C13.2107 27.5157 13.6425 27.9396 13.6425 28.4612C13.6425 28.9848 13.2107 29.4084 12.6779 29.4084Z" fill="#1C274C"/>
<path d="M16.5251 28.462C16.872 28.1221 17.2959 27.8616 17.6688 27.4762C18.3276 26.796 19.0547 26.0817 17.6688 24.8576C17.2001 24.4436 16.4454 23.7024 15.6518 22.9031C15.2026 23.3648 14.6847 23.849 14.0832 24.3415C11.8293 26.1904 8.44106 28.1496 3.4809 29.4498C2.80298 30.1312 1.70108 31.1378 0.755127 32.0661C-0.631543 33.4265 0.213267 34.0616 0.755127 34.4868C1.14258 34.7913 1.71082 35.0068 2.16449 35.2439C7.43698 33.8138 11.493 31.8446 14.547 29.8595C15.348 29.3382 15.8573 28.9756 16.5251 28.462ZM6.50807 32.3562C5.80865 32.3562 5.24166 31.8003 5.24166 31.113C5.24166 30.4285 5.8087 29.8722 6.50807 29.8722C7.2075 29.8722 7.77449 30.4285 7.77449 31.113C7.77454 31.8003 7.2075 32.3562 6.50807 32.3562ZM12.6779 29.4084C12.1449 29.4084 11.7128 28.9848 11.7128 28.4612C11.7128 27.9396 12.1449 27.5157 12.6779 27.5157C13.2107 27.5157 13.6425 27.9396 13.6425 28.4612C13.6425 28.9848 13.2107 29.4084 12.6779 29.4084Z" fill="url(#paint2_linear_4453_269)"/>
<path d="M8.20505 15.133C8.26842 15.1936 8.29686 15.2808 8.2822 15.3665L7.91505 17.4644C7.89801 17.5632 7.93941 17.6633 8.02226 17.7218C8.1051 17.7812 8.21438 17.7887 8.30495 17.7421L10.2253 16.7516C10.3033 16.7113 10.3967 16.7113 10.4751 16.7516L12.3955 17.7421C12.4861 17.7888 12.5957 17.7812 12.6786 17.7218C12.7611 17.6632 12.8025 17.5632 12.7851 17.4644L12.4187 15.3665C12.4032 15.2808 12.4325 15.1936 12.4959 15.133L14.0491 13.6475C14.1221 13.5774 14.149 13.4726 14.1173 13.3774C14.0856 13.2821 14.0015 13.2124 13.9004 13.1981L11.7534 12.8925C11.6661 12.8798 11.5901 12.8259 11.5511 12.7486L10.5909 10.8391C10.5459 10.7491 10.4524 10.6925 10.3505 10.6925C10.2481 10.6925 10.1547 10.7491 10.1092 10.8391L9.14898 12.7486C9.11002 12.8258 9.03447 12.8797 8.9467 12.8924L6.80009 13.1981C6.69895 13.2124 6.6145 13.2821 6.5832 13.3773C6.55191 13.4726 6.57792 13.5773 6.65103 13.6475L8.20505 15.133Z" fill="#1C274C"/>
<path d="M8.20505 15.133C8.26842 15.1936 8.29686 15.2808 8.2822 15.3665L7.91505 17.4644C7.89801 17.5632 7.93941 17.6633 8.02226 17.7218C8.1051 17.7812 8.21438 17.7887 8.30495 17.7421L10.2253 16.7516C10.3033 16.7113 10.3967 16.7113 10.4751 16.7516L12.3955 17.7421C12.4861 17.7888 12.5957 17.7812 12.6786 17.7218C12.7611 17.6632 12.8025 17.5632 12.7851 17.4644L12.4187 15.3665C12.4032 15.2808 12.4325 15.1936 12.4959 15.133L14.0491 13.6475C14.1221 13.5774 14.149 13.4726 14.1173 13.3774C14.0856 13.2821 14.0015 13.2124 13.9004 13.1981L11.7534 12.8925C11.6661 12.8798 11.5901 12.8259 11.5511 12.7486L10.5909 10.8391C10.5459 10.7491 10.4524 10.6925 10.3505 10.6925C10.2481 10.6925 10.1547 10.7491 10.1092 10.8391L9.14898 12.7486C9.11002 12.8258 9.03447 12.8797 8.9467 12.8924L6.80009 13.1981C6.69895 13.2124 6.6145 13.2821 6.5832 13.3773C6.55191 13.4726 6.57792 13.5773 6.65103 13.6475L8.20505 15.133Z" fill="url(#paint3_linear_4453_269)"/>
<path d="M20.1644 32.0661C19.183 31.1038 18.036 30.0586 17.3667 29.3773C17.2164 29.4913 17.0701 29.6052 16.9142 29.7196C13.66 32.1115 9.57022 34.5454 3.31971 36.2823C3.31971 36.2823 6.09264 36.7174 10.3903 36.7174C13.1628 36.6493 18.2237 36.0105 20.1644 34.5685C20.7167 34.1577 21.5502 33.4265 20.1644 32.0661ZM14.3415 35.2964C13.9012 35.2964 13.5446 34.9466 13.5446 34.5147C13.5446 34.0827 13.9012 33.7329 14.3415 33.7329C14.7818 33.7329 15.1388 34.0827 15.1388 34.5147C15.1388 34.9466 14.7818 35.2964 14.3415 35.2964Z" fill="#1C274C"/>
<path d="M20.1644 32.0661C19.183 31.1038 18.036 30.0586 17.3667 29.3773C17.2164 29.4913 17.0701 29.6052 16.9142 29.7196C13.66 32.1115 9.57022 34.5454 3.31971 36.2823C3.31971 36.2823 6.09264 36.7174 10.3903 36.7174C13.1628 36.6493 18.2237 36.0105 20.1644 34.5685C20.7167 34.1577 21.5502 33.4265 20.1644 32.0661ZM14.3415 35.2964C13.9012 35.2964 13.5446 34.9466 13.5446 34.5147C13.5446 34.0827 13.9012 33.7329 14.3415 33.7329C14.7818 33.7329 15.1388 34.0827 15.1388 34.5147C15.1388 34.9466 14.7818 35.2964 14.3415 35.2964Z" fill="url(#paint4_linear_4453_269)"/>
<path d="M48.3825 2.95278L50.0456 4.32681L52.7657 6.48383L50.613 9.20701C49.1169 8.02065 44.5463 11.3291 43.3623 12.8269L41.2976 16.2633L41.0759 15.6734L29.2887 6.32627L32.9216 2.67487C37.5522 -1.04503 44.3803 1.04427 48.3825 2.95278Z" fill="#EF1D1D"/>
<path d="M48.3825 2.95278C46.7809 2.2734 42.9134 1.4087 41.2081 1.60683C38.8078 1.84449 38.6422 1.89032 35.9246 3.56556L31.5116 7.87252L29.1809 6.24047L32.9235 2.67494C36.5976 -0.0226264 39.1634 -0.30612 41.3599 0.21508C43.0519 0.616595 46.4522 1.56977 48.3825 2.95278Z" fill="#C60D09"/>
<path d="M50.2432 10.3889C48.9913 9.39622 48.7796 7.57551 49.7704 6.32225C50.7611 5.069 52.5791 4.85778 53.8309 5.85048C55.0827 6.84319 55.2944 8.6639 54.3037 9.91716C53.313 11.1704 51.495 11.3816 50.2432 10.3889Z" fill="white"/>
<path d="M53.8287 5.85199C54.01 5.99577 54.1554 6.18494 54.3462 6.41005C53.1337 5.89152 51.7268 6.17862 50.9017 7.22238C50.0766 8.26614 50.0843 9.7489 50.9022 10.7666C50.685 10.6682 50.4678 10.5698 50.2412 10.3901C48.9719 9.38359 48.7639 7.5944 49.7684 6.32373C50.7729 5.05307 52.5594 4.8455 53.8287 5.85199Z" fill="#B2B1CF"/>
<path d="M30.3314 6.29081L40.7147 14.5243C41.9843 15.531 42.1924 17.3207 41.1876 18.5916C40.1828 19.8626 38.3958 20.0703 37.1262 19.0636L26.6976 10.7941C25.428 9.78738 25.22 7.99775 26.2247 6.72677C27.2749 5.49173 29.0619 5.28409 30.3314 6.29081Z" fill="white"/>
<path d="M30.277 6.25413L31.4102 7.15281C30.141 6.14629 28.3544 6.35386 27.3499 7.62456C26.3454 8.89526 26.5534 10.6845 27.8227 11.691L26.6894 10.7923C25.4201 9.78583 25.2121 7.99658 26.2166 6.72588C27.2211 5.45518 29.0077 5.24761 30.277 6.25413Z" fill="#B2B1CF"/>
<defs>
<linearGradient id="paint0_linear_4453_269" x1="12.1561" y1="-1.65413e-07" x2="27.0827" y2="36.5002" gradientUnits="userSpaceOnUse">
<stop stop-color="#41C6FF"/>
<stop offset="1" stop-color="#1A64FC"/>
</linearGradient>
<linearGradient id="paint1_linear_4453_269" x1="12.1561" y1="-1.65413e-07" x2="27.0827" y2="36.5002" gradientUnits="userSpaceOnUse">
<stop stop-color="#41C6FF"/>
<stop offset="1" stop-color="#1A64FC"/>
</linearGradient>
<linearGradient id="paint2_linear_4453_269" x1="12.1561" y1="-1.65413e-07" x2="27.0827" y2="36.5002" gradientUnits="userSpaceOnUse">
<stop stop-color="#41C6FF"/>
<stop offset="1" stop-color="#1A64FC"/>
</linearGradient>
<linearGradient id="paint3_linear_4453_269" x1="12.1561" y1="-1.65413e-07" x2="27.0827" y2="36.5002" gradientUnits="userSpaceOnUse">
<stop stop-color="#41C6FF"/>
<stop offset="1" stop-color="#1A64FC"/>
</linearGradient>
<linearGradient id="paint4_linear_4453_269" x1="12.1561" y1="-1.65413e-07" x2="27.0827" y2="36.5002" gradientUnits="userSpaceOnUse">
<stop stop-color="#41C6FF"/>
<stop offset="1" stop-color="#1A64FC"/>
</linearGradient>
</defs>
</svg>
