<svg width="1425" height="599" viewBox="0 0 1425 599" fill="none" xmlns="http://www.w3.org/2000/svg">
<mask id="mask0_8280_3170" style="mask-type:luminance" maskUnits="userSpaceOnUse" x="166" y="158" width="1144" height="285">
<path d="M1309.77 158.188H166.233V442.813H1309.77V158.188Z" fill="white"/>
</mask>
<g mask="url(#mask0_8280_3170)">
<path d="M438.993 393.301C434.074 393.301 430.107 395.08 427.41 398.489C424.712 402.047 423.284 406.79 423.284 413.016C423.284 426.061 428.52 432.437 438.993 432.437C443.435 432.437 448.672 431.398 454.86 429.323V439.699C449.782 441.627 444.071 442.664 437.722 442.664C428.679 442.664 421.697 440.144 416.937 434.956C412.177 429.768 409.796 422.503 409.796 412.869C409.796 406.79 410.908 401.454 413.287 397.006C415.668 392.411 419 389.001 423.443 386.481C427.885 384.109 432.962 382.774 438.993 382.774C445.022 382.774 451.051 384.109 457.239 386.925L452.955 397.006C450.576 395.968 448.354 395.08 445.973 394.338C443.594 393.596 441.372 393.301 438.993 393.301Z" fill="white"/>
<path d="M620.975 442.073V383.813H634.145V442.073H620.975Z" fill="white"/>
<path d="M826.613 442.071H813.443V394.188H796.466V383.96H843.432V394.188H826.454V442.071H826.613Z" fill="white"/>
<path d="M1025.12 407.829L1038.13 383.813H1052.41L1031.78 419.392V442.073H1018.61V419.836L997.987 383.813H1012.27L1025.12 407.829Z" fill="white"/>
<path d="M1055.42 229.195C1050.51 229.195 1045.75 229.195 1040.83 229.195C1038.13 229.195 1037.81 229.195 1037.49 226.675C1036.86 221.338 1035.59 216.002 1033.05 211.111C1027.34 199.398 1017.34 193.173 1004.01 191.69C996.558 190.95 988.941 191.394 981.643 193.617C971.17 196.879 963.872 203.253 959.428 212.592C957.366 217.04 956.096 221.636 955.462 226.379C955.462 226.824 955.303 227.417 955.303 227.861C955.303 228.751 954.827 229.195 953.717 229.344C953.081 229.344 952.448 229.344 951.653 229.344C942.292 229.344 932.772 229.344 923.41 229.344C922.776 229.344 922.141 229.344 921.348 229.344C920.395 229.344 919.92 228.898 919.762 228.01C919.444 226.231 919.126 224.452 918.809 222.821C917.381 216.892 915.002 211.258 911.352 206.218C904.529 197.027 895.009 192.136 883.108 191.543C878.031 191.245 872.794 191.543 867.877 192.58C855.023 195.545 846.298 202.809 841.22 214.223C839.474 218.226 838.205 222.377 837.729 226.526C837.411 229.195 837.411 229.344 834.238 229.344C825.353 229.344 816.467 229.344 807.581 229.344C806.471 229.344 805.361 229.344 804.408 229.344C802.662 229.344 802.346 229.047 802.505 227.268C802.662 225.342 802.98 223.563 803.297 221.636C805.519 209.479 809.962 198.065 817.26 187.688C828.209 172.27 843.283 163.08 862.641 159.669C868.669 158.632 874.698 158.188 880.729 158.188C895.643 158.336 908.971 162.783 920.554 171.529C925.949 175.533 930.551 180.276 934.834 185.316C935.628 186.206 936.263 187.095 937.056 187.985C937.532 188.578 938.166 188.578 938.801 187.985C939.753 187.095 940.547 186.057 941.339 185.02C945.783 179.979 950.702 175.235 956.254 171.233C967.996 162.783 981.484 158.336 996.24 158.039C1005.6 157.891 1014.8 158.929 1023.69 161.746C1038.6 166.341 1050.03 175.087 1058.44 187.392C1065.26 197.324 1069.39 208.146 1071.61 219.559C1072.08 221.784 1072.4 224.007 1072.56 226.231C1072.88 228.9 1072.88 228.9 1069.86 228.9C1067.01 228.9 1064.15 228.9 1061.45 228.9C1059.55 229.195 1057.49 229.195 1055.42 229.195Z" fill="white"/>
<path d="M363.461 238.09C368.539 238.09 373.775 238.09 378.853 238.09C380.757 238.09 381.075 238.388 381.075 240.018C381.075 242.687 380.916 245.355 381.075 247.875C381.391 253.805 382.185 259.437 384.564 264.774C388.849 274.559 395.513 282.416 405.51 287.604C411.539 290.718 418.203 292.644 425.026 293.236C433.277 293.978 441.369 293.829 449.461 291.904C468.342 287.604 480.402 276.486 486.272 259.142C487.383 255.584 487.699 252.619 487.858 248.32C487.699 245.503 487.858 242.538 487.858 239.574C487.858 238.239 488.176 237.943 489.445 237.943C500.077 237.943 510.707 237.943 521.338 237.943C522.607 237.943 522.925 238.239 522.925 239.574C523.243 249.357 522.925 258.993 520.227 268.48C517.053 279.154 512.293 289.086 505.154 297.833C495.633 309.395 483.098 317.253 468.183 321.848C458.504 324.812 448.508 326.147 438.354 326.443C427.882 326.74 417.409 325.998 407.096 323.478C381.391 317.401 363.62 302.724 353.149 280.191C349.34 271.89 346.802 263.292 345.849 254.398C345.373 249.357 345.69 244.317 345.69 239.276C345.69 238.388 346.325 237.943 347.277 237.943C349.658 237.943 352.196 237.943 354.576 237.943C357.432 238.09 360.446 238.09 363.461 238.09Z" fill="white"/>
<path d="M488.344 229.046C487.711 228.007 487.552 227.119 487.393 226.082C484.061 210.96 474.7 200.584 459.308 195.098C453.12 192.875 446.615 191.689 439.951 191.541C431.223 191.243 422.497 191.541 413.929 193.913C402.822 196.877 393.619 202.658 387.431 211.997C384.257 216.741 382.353 221.931 381.243 227.415C380.925 229.342 380.766 229.342 379.021 229.342C368.707 229.342 358.236 229.342 347.922 229.342C346.017 229.342 345.701 228.898 346.017 227.415C346.494 225.043 346.811 222.671 347.447 220.299C350.144 208.885 354.904 198.212 362.36 188.872C372.833 175.679 386.638 166.932 403.456 162.337C411.707 160.113 419.958 158.927 428.526 158.63C439.951 158.186 451.375 158.927 462.64 161.595C477.397 165.153 490.407 171.824 500.88 182.349C509.606 191.096 515.637 201.473 519.444 212.888C520.713 216.594 521.666 220.448 522.458 224.303C522.617 225.489 522.776 226.526 522.935 227.712C523.093 229.193 522.617 229.491 521.03 229.491C516.747 229.491 512.462 229.491 508.019 229.491C502.308 229.491 496.754 229.491 491.043 229.491C490.09 229.193 489.138 229.046 488.344 229.046Z" fill="white"/>
<path d="M203.997 158.929C213.676 158.929 223.355 159.078 233.035 158.929C239.54 158.781 245.887 159.671 252.234 161.301C263.658 164.266 274.288 168.712 283.651 175.532C297.136 185.315 305.07 198.214 308.244 213.778C308.878 217.189 309.196 220.745 309.672 224.304C309.831 225.193 309.831 226.083 309.831 226.972C309.831 229.048 309.672 229.195 307.609 229.195C307.133 229.195 306.815 229.195 306.34 229.195C296.978 229.195 287.458 229.195 278.097 229.195C277.461 229.195 276.828 229.195 276.033 229.195C275.082 229.195 274.447 228.751 274.447 227.861C274.447 225.342 274.129 222.821 273.654 220.301C272.542 214.668 270.322 209.48 266.672 204.736C260.959 197.621 253.026 193.914 243.983 192.135C240.809 191.542 237.636 191.245 234.304 191.245C224.466 191.245 214.629 191.245 204.791 191.245C204.156 191.245 203.522 191.245 202.728 191.394C201.936 191.394 201.618 191.987 201.459 192.58C201.459 193.617 201.459 194.656 201.459 195.545C201.459 205.625 201.459 215.706 201.459 225.786C201.459 229.195 201.459 229.195 197.968 229.195C188.607 229.195 179.087 229.195 169.725 229.195C168.932 229.195 168.138 229.195 167.345 229.048C166.71 229.048 166.392 228.602 166.392 228.009C166.234 227.269 166.234 226.379 166.234 225.49C166.234 204.588 166.234 183.685 166.234 162.783C166.234 158.632 166.076 158.929 170.519 158.929C181.625 158.929 192.891 158.929 203.997 158.929Z" fill="white"/>
<path d="M617.341 326.738C600.839 326.738 584.497 326.738 567.995 326.738C566.726 326.738 565.615 326.738 564.345 326.738C563.552 326.738 563.076 326.294 563.076 325.552C563.076 324.663 562.917 323.773 562.917 322.884C562.917 296.052 562.917 269.22 562.917 242.388C562.917 237.793 562.442 238.09 567.52 238.09C576.246 238.09 584.973 238.09 593.858 238.09C594.811 238.09 595.762 238.09 596.715 238.09C597.507 238.09 597.984 238.534 597.984 239.276C597.984 240.462 598.143 241.795 598.143 242.981C598.143 258.398 598.143 273.668 598.143 289.085C598.143 293.829 597.666 293.532 602.903 293.532C624.641 293.532 646.219 293.532 667.957 293.532C672.876 293.532 672.558 293.236 672.558 297.831C672.558 305.984 672.558 314.137 672.558 322.438C672.558 323.477 672.558 324.515 672.558 325.403C672.558 326.145 672.082 326.442 671.289 326.589C670.02 326.589 668.908 326.589 667.639 326.589C650.663 326.738 634.002 326.738 617.341 326.738Z" fill="white"/>
<path d="M1250.89 158.188C1268.82 158.188 1286.75 158.188 1304.68 158.188C1305.95 158.188 1307.07 158.188 1308.34 158.188C1309.13 158.188 1309.59 158.632 1309.59 159.374C1309.59 160.115 1309.75 160.855 1309.75 161.597C1309.75 170.343 1309.75 178.942 1309.75 187.688C1309.75 188.429 1309.75 189.171 1309.75 189.911C1309.75 190.652 1309.29 191.097 1308.5 191.097C1307.38 191.097 1306.27 191.097 1305.32 191.097C1294.52 191.097 1283.74 191.097 1272.95 191.097C1269.46 191.097 1269.3 191.097 1269.3 194.359C1269.3 204.291 1269.3 214.222 1269.3 224.156C1269.3 225.193 1269.3 226.23 1269.3 227.121C1269.3 228.602 1268.98 228.9 1267.23 228.9C1260.56 228.9 1253.75 228.9 1247.08 228.9C1243.28 228.9 1239.47 228.9 1235.82 228.9C1234.87 228.9 1234.23 228.454 1234.23 227.565C1234.23 226.379 1234.07 225.342 1234.07 224.156C1234.07 214.815 1234.07 205.477 1234.07 196.138C1234.07 195.247 1234.07 194.359 1234.07 193.469C1234.07 191.097 1233.91 190.95 1231.21 190.95C1220.11 190.95 1209.17 190.95 1198.05 190.95C1191.39 190.95 1192.35 191.69 1192.19 185.613C1192.19 177.756 1192.19 170.047 1192.19 162.19C1192.19 161.153 1192.19 160.115 1192.19 159.225C1192.19 158.483 1192.67 158.039 1193.46 158.039C1194.73 158.039 1195.83 158.039 1197.1 158.039C1215.03 158.188 1232.96 158.188 1250.89 158.188Z" fill="white"/>
<path d="M1116.18 282.416C1116.18 268.629 1116.18 254.991 1116.18 241.204C1116.18 237.943 1115.87 237.943 1119.67 237.943C1129.03 237.943 1138.56 237.943 1147.92 237.943C1148.55 237.943 1149.19 237.943 1149.98 237.943C1150.93 237.943 1151.41 238.536 1151.41 239.425C1151.41 240.167 1151.41 240.908 1151.41 241.648C1151.41 268.778 1151.41 296.054 1151.41 323.182C1151.41 323.331 1151.41 323.478 1151.41 323.627C1151.41 326.443 1151.41 326.591 1148.23 326.591C1138.56 326.591 1128.88 326.591 1119.2 326.591C1118.72 326.591 1118.4 326.591 1117.93 326.591C1116.5 326.443 1116.18 326.296 1116.18 324.664C1116.18 323.627 1116.18 322.589 1116.18 321.699C1116.18 308.654 1116.18 295.608 1116.18 282.416Z" fill="white"/>
<path d="M1037.8 282.267C1037.8 268.628 1037.8 255.139 1037.8 241.5C1037.8 237.943 1037.48 238.09 1041.61 238.09C1050.81 238.09 1059.86 238.09 1069.06 238.09C1070.01 238.09 1070.96 238.09 1071.92 238.238C1072.55 238.238 1072.87 238.683 1073.03 239.276C1073.18 240.462 1073.18 241.5 1073.18 242.686C1073.18 264.18 1073.18 285.676 1073.18 307.171C1073.18 312.508 1073.18 317.993 1073.18 323.33C1073.18 323.923 1073.18 324.663 1073.18 325.256C1073.03 326.442 1072.71 326.739 1071.44 326.739C1070.96 326.739 1070.33 326.739 1069.85 326.739C1060.49 326.739 1050.97 326.739 1041.61 326.739C1040.82 326.739 1040.02 326.739 1039.23 326.591C1038.59 326.591 1038.28 326.146 1038.28 325.702C1038.28 324.516 1038.12 323.477 1038.12 322.291C1037.8 308.95 1037.8 295.608 1037.8 282.267Z" fill="white"/>
<path d="M955.3 282.414C955.3 295.904 955.3 309.394 955.3 322.736C955.3 326.738 955.458 326.59 951.491 326.59C942.13 326.59 932.928 326.59 923.565 326.59C922.772 326.59 921.978 326.59 921.186 326.441C920.55 326.441 920.233 325.997 920.076 325.404C919.917 324.662 919.917 323.922 919.917 323.18C919.917 296.053 919.917 268.776 919.917 241.646C919.917 237.942 919.599 237.793 923.724 237.793C933.086 237.793 942.289 237.793 951.65 237.793C952.444 237.793 953.236 237.793 954.031 237.942C954.664 237.942 954.982 238.386 954.982 238.979C954.982 240.165 954.982 241.202 954.982 242.388C955.3 255.878 955.3 269.22 955.3 282.414Z" fill="white"/>
<path d="M718.406 282.416C718.406 269.222 718.406 256.028 718.406 242.834C718.406 242.241 718.406 241.648 718.406 240.908C718.406 238.09 718.406 237.943 721.579 237.943C731.26 237.943 740.938 237.943 750.617 237.943C751.092 237.943 751.727 237.943 752.204 237.943C753.155 238.09 753.631 238.536 753.631 239.425C753.631 240.018 753.631 240.611 753.631 241.353C753.631 268.629 753.631 295.906 753.631 323.331C753.631 323.775 753.631 324.071 753.631 324.517C753.473 326.443 753.314 326.591 751.251 326.591C740.938 326.591 730.783 326.591 720.469 326.591C720.31 326.591 720.151 326.591 719.993 326.591C718.565 326.443 718.247 326.296 718.247 324.664C718.247 323.627 718.247 322.589 718.247 321.699C718.406 308.654 718.406 295.608 718.406 282.416Z" fill="white"/>
<path d="M201.301 324.959C200.507 325.552 199.556 325.405 198.605 325.405C188.926 325.405 179.246 325.405 169.567 325.405C169.092 325.405 168.457 325.405 167.98 325.405C167.029 325.405 166.394 324.959 166.394 324.07C166.394 323.18 166.394 322.291 166.394 321.401C166.394 295.311 166.394 269.22 166.394 243.278C166.394 242.092 166.394 241.055 166.394 239.869C166.394 238.534 166.711 238.238 168.457 238.09C169.092 238.09 169.726 238.09 170.52 238.09C179.563 238.09 188.608 238.09 197.652 238.09C198.605 238.09 199.556 238.09 200.507 238.238C201.301 238.238 201.778 238.683 201.778 239.424C201.778 240.462 201.778 241.499 201.778 242.389C201.778 268.776 201.778 295.311 201.778 321.698C201.619 322.736 201.778 323.922 201.301 324.959Z" fill="white"/>
<path d="M309.823 283.007C309.823 295.905 309.823 308.95 309.823 321.847C309.823 322.736 309.823 323.626 309.823 324.514C309.823 326.442 309.506 326.591 307.444 326.591C297.289 326.591 286.975 326.591 276.82 326.591C276.345 326.591 276.027 326.591 275.551 326.442C274.917 326.293 274.599 325.998 274.599 325.405C274.599 324.514 274.44 323.626 274.44 322.736C274.44 296.201 274.44 269.666 274.44 243.131C274.44 242.833 274.44 242.685 274.44 242.389C274.44 239.127 274.44 239.127 278.09 239.127C287.451 239.127 296.971 239.127 306.332 239.127C306.809 239.127 307.444 239.127 307.919 239.127C309.348 239.276 309.664 239.573 309.823 241.055C309.823 242.24 309.823 243.278 309.823 244.464C309.823 257.362 309.823 270.259 309.823 283.007Z" fill="white"/>
<path d="M802.353 282.414C802.353 269.221 802.353 256.028 802.353 242.685C802.353 241.499 802.353 240.462 802.353 239.276C802.353 238.534 802.827 238.09 803.621 238.09C804.255 238.09 804.89 238.09 805.685 238.09C815.046 238.09 824.566 238.09 833.927 238.09C834.403 238.09 835.038 238.09 835.513 238.09C836.941 238.238 837.259 238.387 837.259 239.573C837.259 240.462 837.259 241.352 837.259 242.241C837.259 269.221 837.259 296.052 837.259 323.033C837.259 323.775 837.259 324.515 837.259 325.256C837.259 325.998 836.782 326.442 835.99 326.442C835.513 326.442 834.88 326.442 834.403 326.442C824.724 326.442 815.046 326.442 805.367 326.442C805.049 326.442 804.89 326.442 804.573 326.442C802.668 326.294 802.353 326.146 802.353 324.515C802.353 323.477 802.353 322.44 802.353 321.55C802.353 308.653 802.353 295.608 802.353 282.414Z" fill="white"/>
<path d="M1269.14 282.86C1269.14 296.201 1269.14 309.543 1269.14 322.884C1269.14 326.886 1269.3 326.739 1265.33 326.739C1256.13 326.739 1247.09 326.739 1237.88 326.739C1237.09 326.739 1236.29 326.739 1235.5 326.739C1234.71 326.739 1234.23 326.293 1234.23 325.553C1234.23 324.663 1234.23 323.774 1234.23 322.884C1234.23 296.201 1234.23 269.517 1234.23 242.833C1234.23 237.645 1233.75 238.238 1239.31 238.238C1247.87 238.238 1256.29 238.238 1264.85 238.238C1265.96 238.238 1267.07 238.238 1268.03 238.238C1268.82 238.238 1269.3 238.683 1269.3 239.424C1269.3 240.61 1269.3 241.647 1269.3 242.833C1269.14 256.176 1269.14 269.517 1269.14 282.86Z" fill="white"/>
<path d="M1151.58 193.766C1151.58 203.995 1151.58 214.224 1151.58 224.304C1151.58 225.193 1151.58 226.083 1151.58 226.972C1151.58 228.899 1151.26 229.048 1149.2 229.048C1138.89 229.048 1128.73 229.048 1118.42 229.048C1116.52 229.048 1116.36 228.751 1116.2 227.121C1116.2 226.379 1116.2 225.637 1116.2 224.897C1116.2 204.143 1116.2 183.389 1116.2 162.636C1116.2 161.745 1116.2 160.857 1116.2 159.966C1116.2 158.485 1116.52 158.336 1118.1 158.188C1118.26 158.188 1118.42 158.188 1118.58 158.188C1128.89 158.188 1139.05 158.188 1149.36 158.188C1151.26 158.188 1151.42 158.485 1151.58 160.115C1151.58 161.004 1151.58 161.894 1151.58 162.783C1151.58 173.16 1151.58 183.537 1151.58 193.766Z" fill="white"/>
<path d="M718.406 193.766C718.406 183.092 718.406 172.419 718.406 161.597C718.406 158.188 718.406 158.188 721.897 158.188C731.259 158.188 740.779 158.188 750.14 158.188C750.933 158.188 751.727 158.188 752.521 158.336C753.155 158.336 753.473 158.78 753.473 159.373C753.473 160.264 753.631 161.152 753.631 162.043C753.631 183.241 753.631 204.29 753.631 225.49C753.631 229.344 753.79 229.195 749.664 229.195C740.462 229.195 731.26 229.195 722.215 229.195C721.263 229.195 720.31 229.195 719.359 229.048C718.724 229.048 718.406 228.602 718.406 228.009C718.406 226.972 718.247 225.935 718.247 225.044C718.406 214.668 718.406 204.143 718.406 193.766Z" fill="white"/>
<path d="M597.984 193.765C597.984 204.438 597.984 215.111 597.984 225.785C597.984 229.196 597.984 229.196 594.493 229.196C585.132 229.196 575.612 229.196 566.251 229.196C565.616 229.196 564.98 229.196 564.188 229.196C563.394 229.196 563.078 228.603 562.919 228.01C562.919 226.971 562.919 225.934 562.919 225.045C562.919 204.291 562.919 183.537 562.919 162.783C562.919 158.039 562.442 158.484 567.361 158.484C576.247 158.484 585.132 158.484 594.018 158.484C594.811 158.484 595.605 158.484 596.397 158.484C597.35 158.484 597.825 159.077 597.825 159.965C597.825 161.004 597.825 162.042 597.825 162.93C597.984 173.011 597.984 183.388 597.984 193.765Z" fill="white"/>
</g>
</svg>
