<svg width="1076" height="332" viewBox="0 0 1076 332" fill="none" xmlns="http://www.w3.org/2000/svg">
<path d="M437.713 196.089C432.49 205.426 426.222 212.689 417.864 217.876C409.507 223.064 400.105 226.176 388.614 226.176C378.167 226.176 368.765 223.064 359.363 217.876C351.006 212.689 343.693 205.426 339.515 196.089C334.291 186.751 332.202 177.414 332.202 166.001C332.202 154.589 334.291 145.251 339.515 135.914C344.738 126.576 351.006 119.314 359.363 114.126C367.721 108.939 377.123 105.826 388.614 105.826C399.06 105.826 408.462 108.939 417.864 114.126C426.222 119.314 433.534 126.576 437.713 135.914C442.936 145.251 445.025 154.589 445.025 166.001C445.025 177.414 442.936 186.751 437.713 196.089ZM418.909 146.289C415.775 140.064 411.596 135.914 406.373 131.764C401.15 127.614 394.882 126.576 388.614 126.576C382.346 126.576 376.078 128.651 370.855 131.764C365.631 134.876 361.453 140.064 358.319 146.289C355.185 152.514 354.14 158.739 354.14 166.001C354.14 173.264 355.185 180.526 358.319 185.714C361.453 191.939 365.631 196.089 370.855 200.239C376.078 203.351 382.346 205.426 388.614 205.426C394.882 205.426 401.15 203.351 406.373 200.239C411.596 197.126 415.775 191.939 418.909 185.714C422.043 179.489 423.088 173.264 423.088 166.001C424.132 158.739 422.043 152.514 418.909 146.289Z" fill="white"/>
<path d="M530.688 144.213C534.866 150.438 536.956 159.776 536.956 172.226V215.801C536.956 218.913 535.911 220.988 533.822 223.063C531.732 225.138 529.643 226.176 526.509 226.176C523.375 226.176 521.286 225.138 519.196 223.063C517.107 220.988 516.063 218.913 516.063 215.801V172.226C516.063 166.001 515.018 161.851 511.884 157.701C509.795 154.588 504.571 152.513 498.303 152.513C492.035 152.513 486.812 154.588 483.678 157.701C480.544 161.851 478.455 166.001 478.455 171.188V214.763C478.455 217.876 477.41 219.951 475.321 222.026C473.231 224.101 471.142 225.138 468.008 225.138C464.874 225.138 462.785 224.101 460.695 222.026C458.606 219.951 457.562 217.876 457.562 214.763V143.176C457.562 140.063 458.606 137.988 460.695 135.913C462.785 133.838 464.874 132.801 468.008 132.801C471.142 132.801 473.231 133.838 475.321 135.913C477.41 137.988 478.455 140.063 478.455 143.176V147.326C481.589 143.176 485.767 140.063 489.946 136.951C495.169 133.838 500.393 132.801 505.616 132.801C518.152 133.838 526.509 137.988 530.688 144.213Z" fill="white"/>
<path d="M633.064 184.677C630.975 186.752 628.886 186.752 625.752 186.752H571.429C572.474 192.977 575.608 198.164 580.831 202.314C586.055 206.464 591.278 207.502 596.501 207.502C600.68 207.502 604.858 207.502 606.948 206.464C609.037 205.427 611.126 204.389 613.216 203.352C614.26 202.314 615.305 201.277 616.35 201.277C618.439 200.239 620.528 200.239 621.573 200.239C623.662 200.239 625.752 201.277 627.841 202.314C629.93 204.389 629.93 205.427 629.93 208.539C629.93 211.652 628.886 213.727 625.752 216.839C622.618 218.914 618.439 220.989 613.216 223.064C607.992 225.139 602.769 226.177 597.546 226.177C588.144 226.177 579.787 224.102 573.519 219.952C566.206 215.802 560.983 210.614 557.849 204.389C554.715 198.164 552.625 189.864 552.625 181.564C552.625 172.227 554.715 163.927 558.893 156.664C563.072 149.402 568.295 144.214 574.563 140.064C580.831 135.914 588.144 134.877 595.457 134.877C602.769 134.877 610.082 136.952 616.35 141.102C622.618 145.252 627.841 150.439 632.02 156.664C636.198 162.889 638.288 170.152 638.288 178.452C636.198 180.527 635.154 182.602 633.064 184.677ZM571.429 170.152H614.26V169.114C614.26 164.964 611.126 160.814 607.992 157.702C603.814 154.589 599.635 152.514 594.412 152.514C580.831 152.514 573.519 158.739 571.429 170.152Z" fill="white"/>
<path d="M726.039 108.939C728.129 111.014 729.173 113.089 729.173 116.201C729.173 119.314 728.129 121.389 726.039 123.464C723.95 125.539 721.861 125.539 718.727 125.539H692.61V215.801C692.61 218.914 691.565 220.989 689.476 223.064C687.387 225.139 685.298 226.176 682.164 226.176C679.03 226.176 676.94 225.139 674.851 223.064C672.762 220.989 671.717 218.914 671.717 215.801V125.539H645.6C642.466 125.539 640.377 124.501 638.288 122.426C636.198 120.351 635.154 118.276 635.154 115.164C635.154 112.051 636.198 109.976 638.288 108.939C640.377 106.864 642.466 105.826 645.6 105.826H718.727C720.816 106.864 723.95 107.901 726.039 108.939Z" fill="white"/>
<path d="M800.21 203.351C796.031 210.613 790.808 215.801 783.495 219.951C776.183 224.101 768.87 226.176 760.513 226.176C752.156 226.176 744.843 224.101 737.53 219.951C730.218 215.801 724.994 210.613 720.816 203.351C716.637 196.088 714.548 188.826 714.548 179.488C714.548 171.188 716.637 162.888 720.816 155.626C724.994 148.363 730.218 143.176 737.53 139.026C744.843 134.876 752.156 132.801 760.513 132.801C768.87 132.801 776.183 134.876 783.495 139.026C790.808 143.176 796.031 148.363 800.21 155.626C804.389 162.888 806.478 170.151 806.478 179.488C806.478 188.826 804.389 196.088 800.21 203.351ZM783.495 166.001C781.406 161.851 778.272 158.738 774.093 156.663C769.915 154.588 765.736 153.551 761.558 153.551C757.379 153.551 753.2 154.588 749.022 156.663C744.843 158.738 741.709 161.851 739.62 166.001C737.53 170.151 736.486 175.338 736.486 180.526C736.486 185.713 737.53 190.901 739.62 195.051C741.709 199.201 744.843 202.313 749.022 204.388C753.2 206.463 757.379 207.501 761.558 207.501C765.736 207.501 769.915 206.463 774.093 204.388C778.272 202.313 781.406 199.201 783.495 195.051C785.585 190.901 786.629 185.713 786.629 180.526C786.629 175.338 785.585 170.151 783.495 166.001Z" fill="white"/>
<path d="M894.23 136.95C896.319 139.025 897.364 141.1 897.364 144.213V187.788C897.364 199.2 894.23 208.538 887.962 215.8C881.694 222.025 872.292 226.175 859.756 226.175C847.22 226.175 837.818 223.063 831.55 215.8C825.282 209.575 822.148 200.238 822.148 187.788V144.213C822.148 141.1 823.193 139.025 825.282 136.95C827.371 134.875 829.461 133.838 832.595 133.838C835.729 133.838 837.818 134.875 839.907 136.95C841.997 139.025 843.041 141.1 843.041 144.213V187.788C843.041 194.013 844.086 199.2 847.22 202.313C850.354 205.425 854.532 207.5 860.8 207.5C867.068 207.5 871.247 205.425 874.381 202.313C877.515 199.2 878.56 194.013 878.56 187.788V144.213C878.56 141.1 879.604 139.025 881.694 136.95C883.783 134.875 885.872 133.838 889.006 133.838C890.051 134.875 892.14 134.875 894.23 136.95Z" fill="white"/>
<path d="M977.802 139.026C983.026 142.139 986.16 146.289 986.16 150.439C986.16 152.514 985.115 154.589 984.07 156.664C983.026 158.739 980.936 159.776 978.847 159.776C976.758 159.776 975.713 159.776 974.668 158.739C973.624 158.739 972.579 157.701 971.534 156.664C970.49 155.626 969.445 155.626 968.4 154.589C967.356 153.551 965.266 153.551 963.177 153.551C961.088 153.551 958.998 152.514 957.954 152.514C949.596 152.514 943.329 154.589 938.105 159.776C933.927 164.964 930.793 171.189 930.793 179.489C930.793 187.789 932.882 194.014 938.105 199.201C943.329 204.389 948.552 207.501 955.864 207.501C961.088 207.501 965.266 206.464 968.4 205.426C969.445 205.426 970.49 204.389 971.534 203.351C972.579 202.314 973.624 202.314 974.668 201.276C975.713 201.276 976.758 200.239 977.802 200.239C980.936 200.239 983.026 201.276 984.07 203.351C985.115 205.426 986.16 207.501 986.16 209.576C986.16 212.689 985.115 214.764 981.981 216.839C978.847 218.914 974.668 220.989 969.445 222.026C964.222 223.064 958.998 224.101 953.775 224.101C945.418 224.101 938.105 222.026 931.837 217.876C925.569 213.726 920.346 208.539 917.212 201.276C914.078 194.014 911.989 186.751 911.989 178.451C911.989 169.114 914.078 161.851 917.212 154.589C921.391 147.326 925.569 142.139 932.882 137.989C940.195 133.839 947.507 131.764 955.864 131.764C964.222 133.839 971.534 135.914 977.802 139.026Z" fill="white"/>
<path d="M1069.73 144.214C1073.91 150.439 1076 159.776 1076 172.226V215.801C1076 218.914 1074.96 220.989 1072.87 223.064C1070.78 225.139 1068.69 226.176 1065.55 226.176C1062.42 226.176 1060.33 225.139 1058.24 223.064C1056.15 220.989 1055.11 218.914 1055.11 215.801V172.226C1055.11 166.001 1054.06 161.851 1051.97 157.701C1049.88 154.589 1045.71 152.514 1039.44 152.514C1033.17 152.514 1027.95 154.589 1024.81 157.701C1021.68 161.851 1019.59 166.001 1019.59 171.189V214.764C1019.59 217.876 1018.54 219.951 1016.45 222.026C1014.37 224.101 1012.28 225.139 1009.14 225.139C1006.01 225.139 1003.92 224.101 1001.83 222.026C999.74 219.951 998.695 217.876 998.695 214.764V116.201C998.695 113.089 999.74 111.014 1001.83 108.939C1003.92 106.864 1006.01 105.826 1009.14 105.826C1012.28 105.826 1014.37 106.864 1016.45 108.939C1018.54 111.014 1019.59 113.089 1019.59 116.201V148.364C1022.72 144.214 1025.86 141.101 1031.08 137.989C1035.26 134.876 1040.48 133.839 1046.75 133.839C1058.24 133.839 1065.55 137.989 1069.73 144.214Z" fill="white"/>
<path d="M178.637 205.425C174.458 208.537 173.414 214.763 177.592 218.913C180.726 223.062 186.994 224.1 191.173 219.95C207.887 206.463 217.289 185.712 217.289 164.962C217.289 125.537 184.905 93.375 145.208 93.375C105.511 93.375 72.0815 125.537 72.0815 166C72.0815 187.787 81.4835 208.537 99.2427 222.025C103.421 225.137 109.689 225.137 112.823 220.987C115.957 216.837 115.957 210.613 111.779 207.5C73.1262 176.375 95.0641 114.125 144.163 114.125C193.262 113.087 216.245 174.3 178.637 205.425Z" fill="white"/>
<path d="M207.887 254.187C235.048 234.475 252.808 202.312 252.808 166C252.808 160.812 248.629 156.662 243.406 156.662C238.182 156.662 234.004 160.812 234.004 166C234.004 196.087 219.378 222.025 196.396 237.587C192.217 240.7 191.173 246.925 194.307 251.075C197.441 256.262 203.709 257.3 207.887 254.187Z" fill="white"/>
<path d="M103.421 28.013C98.1982 29.0505 95.0642 35.2755 96.1089 40.463C97.1535 45.6505 103.421 48.763 108.645 46.688C188.039 22.8255 268.478 83.0005 268.478 164.963C268.478 170.151 272.656 174.301 277.88 174.301C283.103 174.301 287.282 170.151 287.282 164.963C288.326 69.513 195.352 1.03804 103.421 28.013Z" fill="white"/>
<path d="M213.111 81.9625C143.119 23.8625 35.5186 74.7 35.5186 166C35.5186 226.175 84.6176 274.938 145.208 274.938C150.431 274.938 154.61 270.788 154.61 265.6C154.61 260.413 150.431 256.263 145.208 256.263C96.1088 256.263 55.3671 216.838 55.3671 167.038C55.3671 92.3375 143.119 51.875 201.62 98.5625C205.798 101.675 212.066 101.675 215.2 97.525C218.334 91.3 217.289 85.075 213.111 81.9625Z" fill="white"/>
<path d="M9.40194 156.662C4.17864 156.662 0 160.812 0 166C0 244.85 64.7689 309.175 144.163 309.175C177.592 309.175 211.021 297.762 237.138 275.975C241.317 272.862 242.361 266.637 238.183 262.487C234.004 258.337 228.781 257.3 224.602 261.45C202.664 280.125 173.414 290.5 144.163 290.5C76.2602 290.5 19.8485 234.475 19.8485 167.037C19.8485 160.812 15.6699 156.662 9.40194 156.662Z" fill="white"/>
</svg>
