<svg width="1499" height="463" viewBox="0 0 1499 463" fill="none" xmlns="http://www.w3.org/2000/svg">
<path d="M464.253 40.5125C456.977 28.9375 446.789 20.2563 433.691 14.4688C422.049 10.1281 403.129 7.23438 378.388 7.23438H372.567H320.175V267.672H369.656V157.709C395.852 157.709 413.317 156.263 422.049 153.369C438.057 149.028 451.155 140.347 461.343 128.772C471.53 117.197 475.896 101.281 475.896 83.9188C475.896 66.5563 471.53 52.0875 464.253 40.5125ZM422.049 96.9406C419.138 101.281 414.772 104.175 410.406 105.622C406.04 107.069 397.308 108.516 384.21 108.516H368.201V54.9813H382.754C398.763 54.9813 408.951 56.4281 414.772 60.7687C422.049 65.1094 426.415 72.3438 426.415 82.4719C426.415 88.2594 424.959 94.0469 422.049 96.9406Z" fill="white"/>
<path d="M611.243 274.906C625.796 274.906 638.894 272.013 649.082 267.672C660.724 263.331 670.912 256.097 678.188 245.969C686.92 235.841 692.742 227.159 695.652 217.031C698.563 206.903 700.019 188.094 700.019 162.05V7.23438H650.537V170.731C650.537 188.094 649.082 199.669 646.171 206.903C643.26 212.691 638.894 218.478 633.073 222.819C627.252 227.159 618.52 228.606 609.787 228.606C601.055 228.606 593.779 227.159 587.957 222.819C582.136 219.925 577.77 214.137 574.859 208.35C571.949 202.562 570.493 192.434 570.493 177.966V7.23438H521.012V163.497C521.012 193.881 523.922 217.031 529.744 230.053C535.565 243.075 545.753 254.65 560.306 263.331C574.859 272.013 592.323 274.906 611.243 274.906Z" fill="white"/>
<path d="M819.356 274.906C842.642 274.906 863.016 267.672 877.57 254.65C892.123 240.181 899.4 222.819 899.4 201.116C899.4 190.987 897.945 180.859 893.579 170.731C889.213 162.05 881.936 151.922 871.748 141.794C867.382 137.453 855.74 127.325 836.82 111.409C816.446 94.0469 804.803 82.4719 800.437 78.1312C797.526 75.2375 796.071 70.8969 796.071 65.1094C796.071 60.7687 797.526 56.4281 801.892 53.5344C806.258 50.6406 812.08 47.7469 817.901 47.7469C830.999 47.7469 844.097 56.4281 857.195 75.2375L893.579 43.4062C880.481 27.4906 867.382 15.9156 855.74 10.1281C845.552 2.89375 832.454 0 819.356 0C798.981 0 781.517 5.7875 768.419 18.8094C753.866 31.8312 748.045 47.7469 748.045 65.1094C748.045 78.1312 752.411 89.7062 761.143 102.728C769.875 115.75 787.339 133.113 816.446 156.262C830.999 167.838 841.186 177.966 845.552 183.753C849.918 189.541 852.829 195.328 852.829 201.116C852.829 208.35 849.918 212.691 844.097 218.478C838.276 222.819 830.999 225.713 822.267 225.713C806.258 225.713 791.705 214.137 778.607 190.988L736.402 215.584C746.589 234.394 758.232 248.862 771.33 258.991C784.428 270.566 801.892 274.906 819.356 274.906Z" fill="white"/>
<path d="M998.363 267.672V153.369H1087.14V267.672H1138.08V7.23438H1087.14V105.622H998.363V7.23438H948.881V267.672H998.363Z" fill="white"/>
<path d="M390.031 463.001C403.129 463.001 414.772 460.107 424.959 454.319C435.146 448.532 442.423 439.851 448.244 429.722C454.066 419.594 456.977 408.019 456.977 396.444V390.657H388.576V415.254H427.87C423.504 422.488 419.138 428.276 413.316 432.616C407.495 436.957 400.218 438.404 391.486 438.404C378.388 438.404 366.745 434.063 356.558 425.382C347.826 416.701 342.005 405.126 342.005 392.104C342.005 379.082 346.371 368.954 355.103 360.272C363.835 351.591 375.478 347.251 388.576 347.251C403.129 347.251 417.682 353.038 429.325 364.613L446.789 347.251C438.057 338.569 430.78 332.782 422.048 328.441C411.861 324.101 400.218 321.207 388.576 322.654C366.745 322.654 347.826 329.888 333.273 345.804C321.63 358.826 315.809 374.741 315.809 392.104C315.809 405.126 318.719 416.701 325.996 428.276C331.817 439.851 340.549 448.532 352.192 454.319C363.835 460.107 375.478 463.001 390.031 463.001Z" fill="white"/>
<path d="M548.663 325.547H522.467L470.075 460.106H496.271L507.914 432.616H563.216L573.404 460.106H599.6L548.663 325.547ZM518.101 406.572L535.565 360.272L553.029 406.572H518.101Z" fill="white"/>
<path d="M634.528 460.106L649.081 374.741L678.188 460.106H701.474L729.125 374.741L743.678 460.106H768.419L746.589 325.547H721.848L689.831 419.594L657.813 325.547H633.073L609.787 460.106H634.528Z" fill="white"/>
<path d="M813.535 460.106V325.547H787.339V460.106H813.535Z" fill="white"/>
<path d="M867.382 460.106V371.847L925.596 460.106H950.337V325.547H924.141V413.806L867.382 325.547H842.642V460.106H867.382Z" fill="white"/>
<path d="M1047.84 463.001C1060.94 463.001 1072.59 460.107 1082.77 454.319C1092.96 448.532 1100.24 439.851 1106.06 429.722C1111.88 419.594 1114.79 408.019 1114.79 396.444V390.657H1047.84V415.254H1087.14C1082.77 422.488 1078.41 428.276 1072.59 432.616C1066.76 436.957 1059.49 438.404 1050.76 438.404C1037.66 438.404 1026.01 434.063 1015.83 425.382C1007.1 416.701 1001.27 405.126 1001.27 392.104C1001.27 379.082 1005.64 368.954 1014.37 360.272C1023.1 351.591 1034.75 347.251 1047.84 347.251C1062.4 347.251 1076.95 353.038 1088.59 364.613L1106.06 347.251C1097.33 338.569 1090.05 332.782 1081.32 328.441C1071.13 324.101 1059.49 321.207 1047.84 322.654C1026.01 322.654 1007.1 329.888 992.542 345.804C980.899 358.826 975.078 374.741 975.078 392.104C975.078 405.126 977.988 416.701 985.265 428.276C991.086 439.851 999.818 448.532 1011.46 454.319C1021.65 460.107 1034.75 463.001 1047.84 463.001Z" fill="white"/>
<path d="M1138.08 351.591V326.995H1143.9V321.207H1127.89V326.995H1132.25V351.591H1138.08Z" fill="white"/>
<path d="M1151.17 351.591L1155.54 332.782L1161.36 351.591H1167.18L1173 332.782L1175.91 351.591H1181.74L1177.37 321.207H1171.55L1164.27 342.91L1156.99 321.207H1151.17L1145.35 351.591H1151.17Z" fill="white"/>
</svg>
