<?xml version="1.0" encoding="utf-8"?>
<!-- Generator: Adobe Illustrator 22.0.1, SVG Export Plug-In . SVG Version: 6.00 Build 0)  -->
<svg version="1.1" id="Слой_1" xmlns="http://www.w3.org/2000/svg" xmlns:xlink="http://www.w3.org/1999/xlink" x="0px" y="0px"
	 viewBox="0 0 103 32" style="enable-background:new 0 0 103 32;" xml:space="preserve">
<style type="text/css">
	.st0{fill:#FFFFFF;}
	.st1{fill:#FFD833;}
	.st2{fill:#FF4081;}
</style>
<path class="st0" d="M37.2,21.6c0,0.2-0.1,0.3-0.2,0.4c-0.1,0.1-0.3,0.2-0.4,0.2c-0.2,0-0.3-0.1-0.4-0.2c-0.1-0.1-0.2-0.3-0.2-0.4
	v-11c0-0.2,0.1-0.3,0.2-0.4c0.1-0.1,0.3-0.2,0.4-0.2h3.1c0.8,0,1.4,0.2,2,0.5c0.6,0.3,1.1,0.8,1.4,1.4c0.3,0.6,0.5,1.3,0.5,2
	c0,0.8-0.2,1.4-0.5,2c-0.3,0.6-0.8,1.1-1.4,1.4c-0.6,0.3-1.3,0.5-2,0.5h-2.5C37.2,17.9,37.2,21.6,37.2,21.6z M39.7,16.7
	c0.5,0,1-0.1,1.4-0.3c0.4-0.2,0.7-0.6,1-1c0.2-0.4,0.4-0.9,0.4-1.4c0-0.5-0.1-1-0.4-1.4c-0.2-0.4-0.5-0.8-1-1
	c-0.4-0.2-0.9-0.4-1.4-0.4h-2.5v5.5H39.7z M45.6,14.3c0-0.2,0.1-0.3,0.2-0.4c0.1-0.1,0.3-0.2,0.4-0.2s0.3,0.1,0.4,0.2
	c0.1,0.1,0.2,0.3,0.2,0.4v7.3c0,0.2-0.1,0.3-0.2,0.4c-0.1,0.1-0.2,0.2-0.4,0.2c-0.2,0-0.3-0.1-0.4-0.2c-0.1-0.1-0.2-0.3-0.2-0.4
	V14.3z M46.2,10.3c0.2,0,0.4,0.1,0.6,0.2c0.2,0.2,0.2,0.4,0.2,0.6c0,0.2-0.1,0.4-0.2,0.6c-0.2,0.2-0.4,0.2-0.6,0.2s-0.4-0.1-0.6-0.2
	c-0.2-0.2-0.2-0.4-0.2-0.6c0-0.2,0.1-0.5,0.2-0.6C45.8,10.4,46,10.3,46.2,10.3z M53.8,13.6c0.8,0,1.5,0.2,2.2,0.6
	c0.7,0.4,1.2,0.9,1.6,1.6c0.4,0.7,0.6,1.4,0.6,2.2v3.7c0,0.2-0.1,0.3-0.2,0.4c-0.1,0.1-0.3,0.2-0.4,0.2c-0.2,0-0.3-0.1-0.4-0.2
	c-0.1-0.1-0.2-0.3-0.2-0.4v-0.9c-0.4,0.5-0.8,0.9-1.4,1.2c-0.6,0.3-1.2,0.4-1.9,0.4c-0.8,0-1.5-0.2-2.1-0.6
	c-0.6-0.4-1.1-0.9-1.5-1.6c-0.4-0.7-0.5-1.4-0.5-2.2s0.2-1.5,0.6-2.2c0.4-0.7,0.9-1.2,1.6-1.6C52.2,13.8,53,13.6,53.8,13.6z
	 M53.8,21.2c0.6,0,1.1-0.1,1.6-0.4c0.5-0.3,0.9-0.7,1.1-1.2c0.3-0.5,0.4-1.1,0.4-1.7c0-0.6-0.1-1.2-0.4-1.7
	c-0.3-0.5-0.6-0.9-1.1-1.2c-0.5-0.3-1-0.4-1.6-0.4c-0.6,0-1.1,0.1-1.6,0.4c-0.5,0.3-0.9,0.7-1.1,1.2c-0.3,0.5-0.4,1-0.4,1.7
	c0,0.6,0.1,1.2,0.4,1.7c0.3,0.5,0.7,0.9,1.1,1.2C52.6,21,53.2,21.2,53.8,21.2z M63.4,13.6c0.7,0,1.3,0.1,1.8,0.4
	c0.5,0.2,0.9,0.6,1.2,1c0.1,0.1,0.1,0.3,0.1,0.4c0,0.2-0.1,0.3-0.2,0.4c-0.1,0.1-0.2,0.1-0.3,0.1c-0.2,0-0.4-0.1-0.5-0.2
	c-0.5-0.6-1.2-0.9-2.1-0.9c-0.6,0-1,0.1-1.4,0.4c-0.3,0.2-0.5,0.5-0.5,0.9c0,0.4,0.2,0.7,0.5,0.9c0.3,0.2,0.9,0.4,1.7,0.5
	c1.1,0.2,1.9,0.5,2.4,0.9c0.5,0.4,0.7,0.9,0.7,1.6c0,0.5-0.1,0.9-0.4,1.3c-0.3,0.4-0.7,0.7-1.2,0.9c-0.5,0.2-1.1,0.3-1.7,0.3
	c-0.6,0-1.3-0.1-1.9-0.3c-0.6-0.2-1.1-0.5-1.4-0.9C60,20.9,60,20.8,60,20.6c0-0.2,0.1-0.3,0.2-0.5c0.1-0.1,0.3-0.1,0.4-0.1
	c0.2,0,0.3,0.1,0.5,0.2c0.2,0.3,0.6,0.5,1,0.7c0.4,0.2,0.9,0.2,1.4,0.2c0.7,0,1.3-0.1,1.6-0.4c0.4-0.2,0.5-0.6,0.6-1
	c0-0.4-0.2-0.7-0.5-0.9c-0.4-0.2-0.9-0.4-1.7-0.6c-1-0.2-1.8-0.5-2.3-0.9c-0.5-0.4-0.7-0.9-0.7-1.5c0-0.8,0.3-1.3,0.9-1.8
	C61.8,13.8,62.5,13.6,63.4,13.6z M72.6,21c0.2,0,0.3,0.1,0.4,0.2c0.1,0.1,0.2,0.3,0.2,0.4c0,0.2-0.1,0.3-0.2,0.4
	c-0.1,0.1-0.3,0.2-0.5,0.2h-0.3c-0.5,0-1-0.1-1.5-0.4c-0.4-0.3-0.8-0.6-1-1.1c-0.2-0.5-0.4-1-0.4-1.5V15h-1c-0.2,0-0.3,0-0.4-0.1
	c-0.1-0.1-0.1-0.2-0.1-0.4c0-0.2,0-0.3,0.1-0.4C68,14,68.1,14,68.3,14h1v-2.4c0-0.2,0.1-0.3,0.2-0.4c0.1-0.1,0.3-0.2,0.4-0.2
	s0.3,0.1,0.4,0.2c0.1,0.1,0.2,0.3,0.2,0.4V14h1.8c0.2,0,0.3,0.1,0.4,0.2c0.1,0.1,0.2,0.2,0.2,0.4c0,0.1-0.1,0.3-0.2,0.4
	C72.6,15,72.4,15,72.3,15h-1.8v4.2c0,0.5,0.2,1,0.5,1.3c0.3,0.3,0.7,0.5,1.2,0.5C72.2,21,72.6,21,72.6,21z M78.9,13.6
	c0.4,0,0.8,0.1,1,0.2c0.3,0.1,0.4,0.3,0.4,0.5c0,0.1,0,0.1,0,0.1c0,0.1-0.1,0.2-0.2,0.3c-0.1,0.1-0.2,0.1-0.4,0.1
	c-0.1,0-0.3,0-0.5,0c-0.1,0-0.2,0-0.4,0c-0.8,0-1.4,0.2-1.9,0.6c-0.5,0.4-0.7,1-0.7,1.6v4.7c0,0.2-0.1,0.3-0.2,0.4
	c-0.1,0.1-0.2,0.2-0.4,0.2c-0.2,0-0.3-0.1-0.4-0.2c-0.1-0.1-0.2-0.2-0.2-0.4v-7.3c0-0.2,0.1-0.3,0.2-0.4c0.1-0.1,0.2-0.2,0.4-0.2
	s0.3,0.1,0.4,0.2c0.1,0.1,0.2,0.2,0.2,0.4v0.7c0.3-0.4,0.7-0.8,1.2-1C77.9,13.7,78.4,13.6,78.9,13.6z M82.5,14.3
	c0-0.2,0.1-0.3,0.2-0.4c0.1-0.1,0.3-0.2,0.4-0.2s0.3,0.1,0.4,0.2c0.1,0.1,0.2,0.3,0.2,0.4v7.3c0,0.2-0.1,0.3-0.2,0.4
	c-0.1,0.1-0.2,0.2-0.4,0.2s-0.3-0.1-0.4-0.2c-0.1-0.1-0.2-0.3-0.2-0.4V14.3z M83.1,10.3c0.2,0,0.4,0.1,0.6,0.2
	c0.2,0.2,0.2,0.4,0.2,0.6c0,0.2-0.1,0.4-0.2,0.6c-0.2,0.2-0.4,0.2-0.6,0.2s-0.4-0.1-0.6-0.2c-0.2-0.2-0.2-0.4-0.2-0.6
	c0-0.2,0.1-0.5,0.2-0.6C82.6,10.4,82.8,10.3,83.1,10.3z M93,21.2c0.1,0.1,0.2,0.3,0.2,0.4c0,0.1-0.1,0.3-0.2,0.4
	c-0.1,0.1-0.2,0.1-0.4,0.1c-0.1,0-0.2,0-0.3-0.1c-0.1,0-0.2-0.1-0.2-0.2l-2.6-3.3L86.9,22c-0.1,0.1-0.2,0.2-0.4,0.2
	c-0.2,0-0.3-0.1-0.4-0.2C86,21.9,86,21.8,86,21.6c0-0.2,0.1-0.3,0.2-0.4l2.7-3.4l-2.6-3.2c-0.1-0.1-0.2-0.3-0.2-0.4
	c0-0.2,0-0.3,0.1-0.4c0.1-0.1,0.2-0.2,0.4-0.2c0.2,0,0.3,0.1,0.5,0.2l2.5,3.2l2.5-3.1c0.1-0.2,0.3-0.3,0.5-0.3
	c0.2,0,0.3,0.1,0.4,0.2c0.1,0.1,0.2,0.2,0.2,0.4c0,0.2-0.1,0.3-0.2,0.5l-2.6,3.2L93,21.2z"/>
<path class="st1" d="M24.5,13.1c-0.1,0-0.1,0-0.2,0.1c-0.6,0.3-1.1,0.7-1.5,1.3c-0.3,0.6-0.4,1.3-0.3,2c0,0.1,0,0.2,0.1,0.3
	s0.1,0.2,0.1,0.3c0.2,0.6,0.6,1.1,1.1,1.5c0,0,0.1,0.1,0.1,0.1c0.1,0.1,0.2,0.1,0.3,0.2c0.1,0,0.1,0.1,0.2,0.1
	c0.4,0.1,0.7,0.2,1.1,0.2c0,0,0.1,0,0.1,0v0c0.4,0,0.8-0.1,1.2-0.3c0.7-0.3,1.2-0.8,1.5-1.5c0.3-0.7,0.4-1.5,0.1-2.2
	c-0.2-0.7-0.7-1.3-1.3-1.7C26.5,13,25.7,12.8,25,13c0,0-0.1,0-0.1,0C24.8,13.1,24.6,13.1,24.5,13.1z"/>
<path id="mask0_1_" class="st2" d="M22.8,13c-1.1-1.7-1.7-3.5-1.9-5.3c-1.5-1.3-4-1.9-7.4-1.9c-0.1,1.4,0.1,2.8,0.6,4.1h0
	c0.4,0.8,0.8,1.6,1.5,2.3c0,0,0,0,0,0c0,0,0,0,0,0c0.2,0.2,0.5,0.5,0.7,0.6c1.5,1.2,3.3,1.9,5.3,2.2C21.8,14.3,22.2,13.5,22.8,13z
	 M16.3,21L16.3,21c-1,1.5-1.6,3.6-1.9,6.3c1.5,0.2,2.9,0.2,4.1-0.2c1.1-0.3,2.1-0.9,2.9-1.6v0l0.2-0.2h0c1.3-1.4,2.2-3.2,2.7-5.4
	c-0.6-0.2-1.2-0.5-1.6-1C20.7,20.3,18.6,21,16.3,21z M15.7,13.8c-0.2-0.2-0.4-0.4-0.6-0.6c-1.6,0.4-3.3,1.4-5.2,3
	c0.8,1.2,1.8,2.1,3,2.8c1,0.6,2.1,0.9,3.2,1h0.3c2,0,3.9-0.6,5.8-1.8c-0.4-0.6-0.5-1.3-0.6-2C19.3,15.9,17.3,15.1,15.7,13.8z
	 M27.7,12.5c1.1-1.7,1.7-3.4,1.8-5.1V7.4c0-0.2,0-0.4,0-0.6c0-1.3-0.4-2.5-1-3.6C27.9,2,27,1,25.8,0.1h0C24.5,1,23.6,2,23,3.1
	c-0.6,1.1-1,2.3-1,3.6c0,0.2,0,0.4,0,0.6v0.1c0.1,1.7,0.7,3.4,1.7,5c0.6-0.3,1.3-0.5,2-0.4C26.4,12,27.1,12.2,27.7,12.5L27.7,12.5z
	 M29.1,24.6L29.1,24.6c-0.2-1.7-0.8-3.4-1.7-5c-0.6,0.3-1.2,0.4-1.8,0.4c0,0-0.1,0-0.1,0c-0.5,2.4-1.5,4.3-3,5.9c0,0,0,0,0,0
	c0,0,0,0,0,0c0,0,0,0,0,0c0,0,0,0,0,0c0,0,0,0,0,0c0,0,0,0,0,0c0,0,0,0,0,0c0,0,0,0,0,0c0.3,1.8,1.4,3.7,3.1,5.8
	c1.1-0.8,2.1-1.9,2.8-3.1c0.5-0.9,0.8-1.9,0.9-2.9c0-0.1-0.1-0.1-0.1-0.2C29.2,25.4,29.2,25,29.1,24.6z"/>
</svg>
