<svg width="40" height="40" viewBox="0 0 40 40" fill="none" xmlns="http://www.w3.org/2000/svg">
<path d="M10.257 33.9299C9.7835 33.9291 9.3184 33.8049 8.90743 33.5698C7.98203 33.0454 7.40674 32.0275 7.40674 30.9224V8.55848C7.40674 7.45031 7.98203 6.43545 8.90743 5.91105C9.32819 5.66924 9.80617 5.54489 10.2914 5.551C10.7767 5.5571 11.2514 5.69344 11.6659 5.94576L30.7793 17.3868C31.1777 17.6366 31.506 17.9834 31.7337 18.3948C31.9613 18.8062 32.0807 19.2687 32.0807 19.7389C32.0807 20.2091 31.9613 20.6715 31.7337 21.0829C31.506 21.4943 31.1777 21.8412 30.7793 22.091L11.6628 33.5351C11.2386 33.7916 10.7527 33.928 10.257 33.9299Z" fill="white"/>
</svg>
