<svg width="1118" height="348" viewBox="0 0 1118 348" fill="none" xmlns="http://www.w3.org/2000/svg">
<mask id="mask0_8280_3904" style="mask-type:alpha" maskUnits="userSpaceOnUse" x="0" y="91" width="609" height="171">
<path d="M608.93 91.3506H80.3224C41.2467 91.3506 26.0505 121.801 20.6234 139.201L2.17092 206.626C5.06639e-05 215.326 5.07832e-05 225.113 3.25636 233.813C8.68355 247.951 21.7088 261.001 46.6738 261.001H556.829L608.93 91.3506Z" fill="white"/>
</mask>
<g mask="url(#mask0_8280_3904)">
<path d="M608.93 91.3506H80.3224C41.2467 91.3506 26.0505 121.801 20.6234 139.201L2.17092 206.626C5.07236e-05 215.326 5.07236e-05 225.113 3.25636 233.813C8.68355 247.951 21.7088 261.001 46.6738 261.001H556.829L608.93 91.3506ZM122.654 197.926H97.6894L89.0059 224.026H61.8699L95.5185 119.626H147.619C161.73 119.626 171.499 130.501 166.072 145.726C166.072 145.726 159.559 165.301 156.303 172.913C147.619 199.013 122.654 197.926 122.654 197.926ZM151.961 222.938L185.61 119.626H213.831L188.866 196.838H213.831L222.515 170.738H249.651L232.284 222.938H151.961ZM322.375 222.938H296.324L303.922 197.926H278.957L270.274 224.026H243.138L269.188 144.638C273.53 131.588 287.641 119.626 305.008 119.626H331.058C345.169 119.626 352.767 131.588 349.511 145.726L322.375 222.938ZM430.918 174.001C426.577 185.963 413.551 197.926 396.185 197.926L388.586 221.851H361.451L369.049 197.926C354.938 197.926 347.34 185.963 350.596 171.826L367.963 118.538H396.185L379.903 170.738H403.783L422.235 118.538H449.371L430.918 174.001ZM462.396 121.801H498.216L487.361 153.338H450.456L462.396 121.801ZM548.146 222.938H521.01L535.12 176.176H510.155L496.045 222.938H467.823L483.019 174.001C487.361 160.951 501.472 148.988 518.839 148.988H544.889C559 148.988 566.598 160.951 563.342 175.088L548.146 222.938Z" fill="white"/>
</g>
<path d="M105.287 171.825H131.338L140.021 145.725H113.971L105.287 171.825Z" fill="white"/>
<path d="M991.004 43.4999C991.004 43.4999 946.501 43.4999 930.219 43.4999C885.716 42.4124 848.812 72.8624 837.957 107.662L806.48 205.537C770.66 290.362 815.163 304.5 845.555 304.5H896.571C934.561 304.5 975.808 277.312 986.662 242.512L1028.99 108.75C1040.93 78.2999 1022.48 43.4999 991.004 43.4999ZM921.536 240.337H861.837L903.083 110.925H962.782L921.536 240.337Z" fill="white"/>
<path d="M286.555 171.825H312.606L320.204 145.725H295.239L286.555 171.825Z" fill="white"/>
<path d="M1071.33 91.3496H1057.22L1004.03 261H1031.17C1065.9 261 1090.86 241.425 1096.29 212.062C1096.29 212.062 1112.57 160.95 1116.91 141.375C1122.34 115.275 1107.15 91.3496 1071.33 91.3496Z" fill="white"/>
<path d="M688.167 304.5H637.151C580.709 302.325 579.623 266.437 596.99 205.537L628.468 107.662C636.066 80.4749 672.971 46.7624 717.474 47.8499C733.755 47.8499 835.786 47.8499 835.786 47.8499L817.334 109.837L816.249 112.012H693.594L682.74 144.637L662.117 207.712L661.031 212.062L651.262 240.337H716.388L727.243 207.712H694.68L715.303 143.55H807.565L779.344 241.425C767.404 275.137 734.841 304.5 688.167 304.5Z" fill="white"/>
</svg>
