<svg width="1150" height="448" viewBox="0 0 1150 448" fill="none" xmlns="http://www.w3.org/2000/svg">
<g clip-path="url(#clip0_8281_2)">
<path d="M929.494 147.001C870.685 123.201 803.474 135.801 758.666 182.001C713.859 226.801 701.257 294.001 725.061 352.801C750.265 411.601 807.674 449.401 870.685 448.001C956.099 448.001 1026.11 378.001 1026.11 291.201C1026.11 228.201 986.904 170.801 929.494 147.001ZM870.685 431.201C793.672 431.201 732.062 368.201 732.062 291.201C732.062 214.201 793.672 152.601 870.685 151.201C947.697 151.201 1010.71 214.201 1010.71 291.201C1010.71 369.601 947.697 431.201 870.685 431.201Z" fill="white"/>
<path d="M918.292 238.001C865.084 240.801 844.08 177.801 891.688 175.001C942.096 170.801 970.101 233.801 918.292 238.001Z" fill="white"/>
<path d="M860.883 119.001C834.279 120.401 807.675 127.401 785.271 141.401C782.47 130.201 767.068 91.0006 729.262 68.6006C757.266 70.0006 781.07 85.4006 793.672 109.201C793.672 109.201 778.27 46.2006 782.47 -1.39941C811.875 35.0006 835.679 96.6006 835.679 96.6006C832.879 68.6006 844.08 42.0006 866.484 25.2006C846.881 67.2006 858.083 109.201 860.883 119.001Z" fill="white"/>
<path d="M1077.92 280.001L1075.12 261.801L1068.12 280.001H1063.92L1058.32 261.801L1054.11 280.001H1049.91L1054.11 252.001H1059.72L1066.72 271.601L1072.32 252.001H1077.92L1083.52 280.001H1077.92Z" fill="white"/>
<path d="M1042.91 280.001H1037.31V257.601H1031.71V252.001H1047.11V257.601H1042.91V280.001Z" fill="white"/>
<path d="M967.3 330.401H951.898V296.801L928.094 250.601H944.897L960.299 280.001L974.301 250.601H991.104L967.3 296.801V330.401Z" fill="white"/>
<path d="M908.491 250.601H893.089L862.284 330.401H877.686L884.687 313.601H918.293L925.294 330.401H939.296L908.491 250.601ZM890.288 299.601L901.49 273.001L912.692 299.601H890.288Z" fill="white"/>
<path d="M814.675 250.601H830.078V316.401H852.482V330.401H814.675V250.601Z" fill="white"/>
<path d="M800.673 261.801C797.873 257.601 795.072 256.201 790.872 253.401C785.271 252.001 778.27 250.601 771.268 250.601H757.266V330.401H772.669V296.801C778.27 296.801 783.87 296.801 789.471 295.401C793.672 294.001 797.873 291.201 802.073 288.401C804.874 284.201 806.274 280.001 806.274 274.401C804.874 270.201 803.474 266.001 800.673 261.801ZM788.071 278.601C786.671 280.001 785.271 281.401 783.87 281.401C781.07 281.401 778.27 282.801 775.469 282.801H771.268V266.001H775.469C778.27 266.001 782.47 266.001 785.271 267.401C788.071 268.801 789.471 271.601 789.471 274.401C789.471 275.801 789.471 277.201 788.071 278.601Z" fill="white"/>
<path d="M667.651 261.8C652.249 261.8 639.647 273 639.647 288.4V289.8C639.647 295.4 641.047 299.6 643.847 303.8C646.648 308 649.448 310.8 653.649 313.6C657.85 316.4 663.451 317.8 667.651 317.8C671.852 317.8 676.053 316.4 680.253 315C684.454 312.2 688.655 309.4 692.855 305.2L704.057 316.4C698.456 322 692.855 326.2 687.254 329C681.654 331.8 674.652 333.2 669.052 331.8C657.85 331.8 646.648 327.6 636.846 320.6C620.044 303.8 620.044 277.2 635.446 260.4C638.246 257.6 642.447 254.8 645.248 252C652.249 247.8 659.25 246.4 667.651 246.4C681.654 246.4 694.256 252 704.057 263.2L692.855 273C685.854 267.4 677.453 263.2 667.651 261.8Z" fill="white"/>
<path d="M594.84 249.2H611.643V330.4H594.84V249.2Z" fill="white"/>
<path d="M568.235 330.4H552.833V264.6H537.43V249.2H583.638V264.6H568.235V330.4Z" fill="white"/>
<path d="M508.026 249.2H491.223L459.018 330.4H475.82L482.821 313.6H516.427L523.428 330.4H540.231L508.026 249.2ZM488.422 299.6L499.624 271.6L510.826 299.6H488.422Z" fill="white"/>
<path d="M425.412 278.6L408.609 330.4H394.607L377.804 280L368.003 330.4H352.6L366.602 249.2H382.005L401.608 306.6L421.211 249.2H436.614L450.616 330.4H435.214L425.412 278.6Z" fill="white"/>
<path d="M325.996 327.601C318.995 330.401 311.994 333.201 304.993 333.201C296.591 333.201 289.59 331.801 282.589 327.601C275.588 323.401 269.987 317.801 267.186 312.201C262.986 305.201 261.585 298.201 261.585 289.801C261.585 280.001 265.786 268.801 272.787 261.801C281.189 252.001 293.791 247.801 306.393 247.801C313.394 247.801 320.395 249.201 325.996 252.001C331.597 254.801 337.198 259.001 341.398 263.201L330.197 274.401C324.596 267.401 314.794 263.201 304.993 263.201C297.991 263.201 289.59 266.001 283.989 271.601C278.388 277.201 275.588 284.201 275.588 291.201C275.588 298.201 278.388 306.601 283.989 310.801C289.59 316.401 296.591 319.201 304.993 319.201C309.193 319.201 314.794 317.801 318.995 316.401C323.196 313.601 325.996 310.801 327.396 305.201H303.592V291.201H345.599V294.001C345.599 308.001 338.598 320.601 325.996 327.601Z" fill="white"/>
<path d="M225.179 249.2H209.777L177.571 330.4H194.374L201.375 313.6H234.981L241.982 330.4H258.785L225.179 249.2ZM206.976 299.6L218.178 271.6L229.38 299.6H206.976Z" fill="white"/>
<path d="M149.567 294.001C153.768 292.601 157.968 289.801 162.169 285.601C164.969 281.401 166.37 277.201 166.37 271.601C166.37 267.401 164.969 261.801 162.169 259.001C159.368 254.801 156.568 252.001 152.367 250.601C145.366 249.201 139.765 247.801 132.764 247.801H115.961V329.001H131.364V294.001H132.764L150.967 329.001H167.77L149.567 294.001ZM135.565 281.401H131.364V264.601H135.565C138.365 264.601 141.166 264.601 143.966 266.001C146.766 267.401 149.567 270.201 149.567 273.001C149.567 275.801 148.167 278.601 146.766 280.001C142.566 281.401 139.765 281.401 135.565 281.401Z" fill="white"/>
<path d="M99.1587 260.4C96.3583 256.2 93.5578 253.4 89.3571 252C82.356 250.6 76.7551 249.2 69.7539 249.2H52.9512V330.4H68.3537V295.4C73.9546 295.4 79.5555 295.4 85.1564 294C89.3571 292.6 94.958 289.8 97.7585 285.6C100.559 281.4 101.959 277.2 101.959 271.6C103.359 268.8 101.959 264.6 99.1587 260.4ZM86.5567 277.2C85.1564 278.6 83.7562 280 82.356 280C79.5555 280 76.7551 281.4 73.9546 281.4H69.7539V264.6H73.9546C76.7551 264.6 80.9557 264.6 83.7562 266C86.5567 267.4 87.9569 270.2 87.9569 273C87.9569 274.4 86.5567 275.8 86.5567 277.2Z" fill="white"/>
</g>
<defs>
<clipPath id="clip0_8281_2">
<rect width="1150" height="448" fill="white"/>
</clipPath>
</defs>
</svg>
