<svg width="25" height="29" viewBox="0 0 25 29" fill="none" xmlns="http://www.w3.org/2000/svg">
<g clip-path="url(#clip0_8569_217)">
<path fill-rule="evenodd" clip-rule="evenodd" d="M9.01718 3.52455C7.85424 3.27029 6.72843 4.08333 6.60411 5.26724L4.92557 21.2564C4.81938 22.2685 5.49115 23.1988 6.4854 23.4162L14.4951 25.1674C15.4894 25.3848 16.4881 24.8198 16.8139 23.8557L21.9614 8.62499C22.3425 7.49723 21.6588 6.28854 20.4958 6.03427L9.01718 3.52455ZM8.54344 5.69127L20.0221 8.20098L17.8383 15.8894L17.6635 15.8512C17.4195 15.7535 17.1912 15.6657 16.8649 15.574C15.7781 15.2685 14.2547 15.062 12.3811 15.3646L12.0258 15.4275C10.434 15.733 9.16334 15.5911 8.27591 15.3657L7.72597 15.2454L8.54344 5.69127Z" fill="#09244B"/>
<path fill-rule="evenodd" clip-rule="evenodd" d="M9.01718 3.52455C7.85424 3.27029 6.72843 4.08333 6.60411 5.26724L4.92557 21.2564C4.81938 22.2685 5.49115 23.1988 6.4854 23.4162L14.4951 25.1674C15.4894 25.3848 16.4881 24.8198 16.8139 23.8557L21.9614 8.62499C22.3425 7.49723 21.6588 6.28854 20.4958 6.03427L9.01718 3.52455ZM8.54344 5.69127L20.0221 8.20098L17.8383 15.8894L17.6635 15.8512C17.4195 15.7535 17.1912 15.6657 16.8649 15.574C15.7781 15.2685 14.2547 15.062 12.3811 15.3646L12.0258 15.4275C10.434 15.733 9.16334 15.5911 8.27591 15.3657L7.72597 15.2454L8.54344 5.69127Z" fill="url(#paint0_linear_8569_217)"/>
</g>
<defs>
<linearGradient id="paint0_linear_8569_217" x1="18.9572" y1="5.69785" x2="4.91758" y2="17.7094" gradientUnits="userSpaceOnUse">
<stop stop-color="#41C6FF"/>
<stop offset="1" stop-color="#1A64FC"/>
</linearGradient>
<clipPath id="clip0_8569_217">
<rect width="19.8387" height="23.968" fill="white" transform="matrix(-0.976922 -0.213596 -0.213596 0.976922 24.7539 5.13379)"/>
</clipPath>
</defs>
</svg>
