<svg width="1113" height="689" viewBox="0 0 1113 689" fill="none" xmlns="http://www.w3.org/2000/svg">
<g clip-path="url(#clip0_8280_3534)">
<path fill-rule="evenodd" clip-rule="evenodd" d="M27.0889 557.239C25.1294 557.239 23.1934 556.814 21.4143 555.994C19.6354 555.174 18.0556 553.979 16.7843 552.49C15.513 551.001 14.5803 549.255 14.0507 547.371C13.521 545.488 13.4069 543.512 13.7163 541.58L67.5836 205.637C68.0923 202.461 69.7182 199.571 72.1691 197.485C74.62 195.399 77.7355 194.254 80.9561 194.254H1065.55C1067.51 194.254 1069.44 194.679 1071.22 195.499C1073 196.319 1074.58 197.514 1075.85 199.003C1077.13 200.492 1078.06 202.239 1078.59 204.122C1079.12 206.005 1079.23 207.981 1078.92 209.913L1025.05 545.856C1024.54 549.03 1022.92 551.92 1020.47 554.006C1018.02 556.092 1014.9 557.238 1011.68 557.239H27.0889Z" fill="#FEFEFE"/>
<mask id="mask0_8280_3534" style="mask-type:luminance" maskUnits="userSpaceOnUse" x="0" y="180" width="1093" height="391">
<path d="M0 180.732H1092.63V570.768H0V180.732Z" fill="#FEFEFE"/>
</mask>
<g mask="url(#mask0_8280_3534)">
<path fill-rule="evenodd" clip-rule="evenodd" d="M1065.55 180.732H80.9556C74.5141 180.732 68.2836 183.025 63.382 187.198C58.4805 191.371 55.2289 197.152 54.2106 203.503L0.333691 539.451C-0.28437 543.314 -0.0555281 547.266 1.00443 551.034C2.06439 554.8 3.93022 558.293 6.47322 561.27C9.01622 564.247 12.1758 566.638 15.7341 568.278C19.2924 569.917 23.1645 570.767 27.0835 570.768H1011.68C1018.12 570.768 1024.35 568.476 1029.25 564.302C1034.15 560.129 1037.4 554.348 1038.42 547.998L1092.29 212.054C1092.91 208.191 1092.68 204.24 1091.62 200.472C1090.56 196.706 1088.69 193.213 1086.15 190.237C1083.61 187.259 1080.45 184.869 1076.89 183.229C1073.33 181.588 1069.46 180.738 1065.54 180.737M1065.54 207.779L1011.68 543.716H27.0883L80.9556 207.779H1065.55" fill="#FEFEFE"/>
</g>
<mask id="mask1_8280_3534" style="mask-type:luminance" maskUnits="userSpaceOnUse" x="561" y="0" width="552" height="689">
<path d="M561.097 0H1112.18V688.913H561.097V0Z" fill="#FEFEFE"/>
</mask>
<g mask="url(#mask1_8280_3534)">
<path fill-rule="evenodd" clip-rule="evenodd" d="M1110.76 50.7981C1106.59 34.4009 1093.53 19.4336 1074.95 9.73825C1062.74 3.36525 1049.58 0 1036.9 0C1018.48 0 1002.95 7.39783 994.285 20.2964L994.251 20.344L982.955 37.2275C981.947 38.7337 981.107 40.321 980.43 41.9512C978.935 43.5565 977.572 45.2779 976.352 47.0991L914.822 139.033C913.81 140.544 912.97 142.132 912.292 143.772C910.799 145.377 909.436 147.099 908.214 148.919L889.542 176.805C880.949 189.664 880.505 205.59 887.61 220.324L710.749 484.567L657.469 468.456C657.35 468.225 657.229 467.994 657.106 467.765C648.045 451.344 631.86 441.93 612.701 441.93C598.503 441.93 586.228 447.087 581.56 449.327C581.238 449.482 580.92 449.642 580.605 449.809C577.032 450.846 573.712 452.606 570.852 454.981C567.991 457.356 565.652 460.295 563.98 463.613C562.308 466.931 561.34 470.558 561.134 474.267C560.929 477.975 561.491 481.687 562.787 485.168L578.876 528.511C581.206 534.788 585.785 539.979 591.728 543.078L863.022 684.638C865.926 686.152 869.08 687.13 872.332 687.521C875.094 688.438 877.986 688.906 880.897 688.909C885.347 688.907 889.728 687.811 893.653 685.717C897.578 683.624 900.927 680.598 903.403 676.906L927.488 640.985C930.256 636.859 931.832 632.053 932.044 627.092C932.257 622.131 931.096 617.208 928.691 612.862C919.621 596.464 903.427 587.059 884.262 587.059C878.084 587.059 872.284 588.032 867.347 589.3L783.174 525.284L959.705 261.551C977.345 261.093 992.155 253.752 1000.54 241.235L1019.17 213.379C1020.41 211.524 1021.49 209.599 1022.4 207.611C1023.65 206.372 1024.79 204.994 1025.79 203.497L1087.36 111.573C1088.62 109.691 1089.7 107.726 1090.62 105.7C1091.83 104.485 1092.94 103.145 1093.91 101.682L1105.19 84.8415C1111.85 74.9554 1113.83 62.8673 1110.76 50.7981Z" fill="#FEFEFE"/>
</g>
<path fill-rule="evenodd" clip-rule="evenodd" d="M1044.48 60.4639C1026.27 50.9592 1005.85 51.7028 998.873 62.1275L937.343 154.052C948.195 149.809 963.873 151.326 978.529 158.981C993.22 166.631 1002.28 178.024 1003.28 188.463L1064.83 96.5617C1071.81 86.1132 1062.69 69.9495 1044.48 60.4639Z" fill="#192232"/>
<path fill-rule="evenodd" clip-rule="evenodd" d="M1062.39 33.7051C1044.22 24.2147 1023.77 24.9488 1016.78 35.3639L1005.49 52.2473C1016.33 48.0289 1032.02 49.5352 1046.68 57.1665C1061.36 64.817 1070.4 76.2331 1071.41 86.6435L1082.72 69.7695C1089.73 59.3497 1080.61 43.205 1062.39 33.7051ZM976.328 162.281C958.139 152.757 937.724 153.5 930.736 163.939L912.068 191.824C907.418 198.778 909.934 208.288 917.582 216.682L924.438 206.386C928.406 200.467 938.822 199.594 948.094 204.442C957.418 209.284 961.543 217.754 957.585 223.709L950.696 233.956C962.675 235.801 973.345 233.194 978.019 226.22L996.662 198.336C1003.67 187.906 994.557 171.761 976.328 162.281ZM729.607 518.525L588.182 475.773L604.27 519.117L875.564 660.671L859.475 617.318L729.607 518.525Z" fill="#192232"/>
<path fill-rule="evenodd" clip-rule="evenodd" d="M953.784 221.726C956.51 217.689 952.982 211.402 945.888 207.726C938.847 204.027 930.897 204.323 928.185 208.37L724.923 512.058L730.576 513.831L748.919 527.798L953.78 221.731L953.784 221.726ZM864.751 618.893L880.891 661.868L904.982 625.947C893.047 604.364 864.751 618.893 864.751 618.893ZM633.379 480.822C621.682 459.63 594.264 473.248 593.237 473.734L630.681 484.821L633.379 480.822Z" fill="#192232"/>
<mask id="mask2_8280_3534" style="mask-type:luminance" maskUnits="userSpaceOnUse" x="0" y="0" width="1113" height="689">
<path d="M0 688.913H1112.18V0H0V688.913Z" fill="#FEFEFE"/>
</mask>
<g mask="url(#mask2_8280_3534)">
<path fill-rule="evenodd" clip-rule="evenodd" d="M546.317 458.694H1045.28V199.574H546.317V458.694Z" fill="#FEFEFE"/>
</g>
<mask id="mask3_8280_3534" style="mask-type:luminance" maskUnits="userSpaceOnUse" x="0" y="0" width="1113" height="689">
<path d="M0 688.913H1112.18V0H0V688.913Z" fill="#505153"/>
</mask>
<g mask="url(#mask3_8280_3534)">
<path fill-rule="evenodd" clip-rule="evenodd" d="M49.6609 518.612C48.2286 526.691 51.1886 530.285 59.2236 530.285C67.2967 530.271 71.5267 526.672 72.9446 518.612L76.8833 496.327H67.3397L66.3467 501.961H69.8175L66.8814 518.612C66.2226 522.339 63.6732 524.651 60.2166 524.651C56.7887 524.651 55.0653 522.339 55.7241 518.612L62.5989 479.678C63.3915 475.221 66.5233 473.633 69.1969 473.633C72.6964 473.671 74.415 475.993 73.7562 479.678L72.5484 486.522H78.6164L79.829 479.678C81.247 471.622 78.2869 468.037 70.2138 468.037C62.174 468.037 57.9537 471.622 56.5309 479.678L49.6609 518.612ZM135.009 510.117L147.412 469.949L145.627 510.117H135.014H135.009ZM144.805 529.251H150.931L151.833 508.645L152.597 469.043H142.619L129.319 508.797L122.983 529.251H129.075L133.276 515.751H145.407L144.805 529.251ZM223.905 529.251L234.547 469.043H228.092L207.668 517.52L204.221 469.043H197.766L187.13 529.251H192.906L200.554 485.979L203.772 529.251H207.572L225.948 485.569L218.229 529.251H223.905ZM286.165 469.043L275.537 529.251H281.602L292.238 469.043H286.165ZM363.274 529.251L373.896 469.081L368.501 469.172L360.758 513.006L357.043 469.043H350.617L339.98 529.251H345.69L353.262 486.365L356.843 529.251H363.274ZM414.902 518.612C413.469 526.691 416.429 530.285 424.469 530.285C432.538 530.271 436.772 526.672 438.195 518.612L442.129 496.327H432.581L431.592 501.961H435.058L432.122 518.612C431.468 522.339 428.914 524.651 425.466 524.651C422.034 524.651 420.311 522.339 420.969 518.612L427.844 479.678C428.637 475.221 431.764 473.633 434.438 473.633C437.937 473.671 439.656 475.993 438.997 479.678L437.794 486.522H443.867L445.07 479.678C446.492 471.622 443.528 468.037 435.46 468.037C427.42 468.037 423.194 471.622 421.777 479.678L414.902 518.612Z" fill="#192232"/>
</g>
<mask id="mask4_8280_3534" style="mask-type:luminance" maskUnits="userSpaceOnUse" x="0" y="0" width="1113" height="689">
<path d="M0 688.913H1112.18V0H0V688.913Z" fill="#DA1D30"/>
</mask>
<g mask="url(#mask4_8280_3534)">
<path fill-rule="evenodd" clip-rule="evenodd" d="M140.677 320.052C144.321 320.087 147.926 319.311 151.232 317.778C154.407 316.298 157.266 314.218 159.649 311.654C162.058 309.04 164.032 306.057 165.497 302.821C166.979 299.603 168.034 296.206 168.634 292.715C168.82 291.577 168.963 290.527 169.064 289.579C169.159 288.63 169.207 287.677 169.207 286.733C169.207 279.893 167.249 274.87 163.354 271.638C159.448 268.41 154.178 266.8 147.518 266.8H145.246L136.976 319.77L140.677 320.052ZM150.95 435.386L132.694 345.963L131.839 346.535C131.266 351.851 130.703 357.118 130.125 362.333C129.543 367.626 128.785 372.9 127.848 378.143L119.001 435.386H60.8135L94.1947 220.668H150.382C161.596 220.668 171.962 221.521 181.463 223.233C190.973 224.938 199.15 227.841 205.997 231.917C212.747 235.903 218.27 241.665 221.961 248.572C225.771 255.603 227.677 264.521 227.677 275.341C227.677 278.011 227.524 280.708 227.247 283.453C226.96 286.209 226.627 289.112 226.245 292.149C224.344 304.099 220.019 314.932 213.269 324.609C206.517 334.295 196.964 341.416 184.603 345.963L213.98 435.386H150.95ZM363.694 383.553C370.349 383.553 376.006 381.709 380.666 378C385.371 374.24 389.294 369.598 392.215 364.335C395.286 358.852 397.681 353.018 399.347 346.959C401.052 340.792 402.288 335.144 403.047 330.019C404.194 323.574 404.766 316.544 404.766 308.941C404.766 304.384 404.432 300.027 403.764 295.847C403.095 291.672 401.858 287.968 400.059 284.731C398.302 281.567 395.745 278.918 392.645 277.047C389.508 275.155 385.559 274.202 380.804 274.202L363.694 383.553ZM330.895 220.668H377.662C392.114 220.668 404.766 222.56 415.604 226.368C426.441 230.163 435.512 235.62 442.84 242.732C450.164 249.849 455.673 258.49 459.388 268.658C463.093 278.811 464.949 290.252 464.949 302.964C464.949 306.767 464.807 310.652 464.52 314.642C464.234 318.627 463.709 322.808 462.954 327.173C460.471 343.69 456.723 357.828 451.687 369.607C446.636 381.38 440.849 391.247 434.285 399.222C427.725 407.191 420.631 413.598 413.04 418.45C405.425 423.278 397.824 426.934 390.219 429.399C382.613 431.873 375.195 433.489 367.971 434.242C360.738 435.01 354.189 435.386 348.292 435.386H297.523L330.895 220.668Z" fill="#192232"/>
</g>
<mask id="mask5_8280_3534" style="mask-type:luminance" maskUnits="userSpaceOnUse" x="0" y="0" width="1113" height="689">
<path d="M0 688.913H1112.18V0H0V688.913Z" fill="#424242"/>
</mask>
<g mask="url(#mask5_8280_3534)">
<path fill-rule="evenodd" clip-rule="evenodd" d="M539.628 320.052C543.27 320.087 546.875 319.311 550.179 317.778C553.354 316.297 556.211 314.217 558.595 311.654C561.006 309.041 562.98 306.059 564.444 302.821C565.927 299.603 566.982 296.206 567.581 292.715C567.772 291.577 567.905 290.527 568.01 289.579C568.106 288.63 568.149 287.677 568.149 286.733C568.149 279.893 566.196 274.87 562.3 271.638C558.4 268.41 553.129 266.8 546.469 266.8H544.197L535.919 319.77L539.623 320.057L539.628 320.052ZM549.893 435.386L531.641 345.963L530.781 346.535C530.208 351.851 529.65 357.118 529.063 362.333C528.488 367.627 527.729 372.9 526.79 378.143L517.948 435.386H459.765L493.136 220.668H549.329C560.543 220.668 570.909 221.521 580.409 223.233C589.92 224.938 598.097 227.841 604.939 231.917C611.689 235.905 617.215 241.666 620.914 248.572C624.714 255.603 626.624 264.521 626.624 275.341C626.624 278.011 626.48 280.708 626.194 283.453C625.907 286.209 625.573 289.112 625.191 292.149C623.286 304.099 618.96 314.932 612.214 324.609C605.464 334.295 595.911 341.416 583.55 345.963L612.927 435.386H549.893ZM928.773 220.668L866.312 324.323L900.82 435.386H838.355L817.539 336.859H817.252L801.846 435.386H743.663L777.035 220.668H835.222L820.971 312.082H821.248L867.463 220.672L928.773 220.668ZM941.263 220.668H1049.37L1041.68 271.357H991.759L986.903 301.257H1031.69L1023.7 351.941H978.916L973.784 384.692H1023.7L1016 435.381H907.905L941.263 220.668Z" fill="#192232"/>
</g>
<mask id="mask6_8280_3534" style="mask-type:luminance" maskUnits="userSpaceOnUse" x="0" y="0" width="1113" height="689">
<path d="M0 688.913H1112.18V0H0V688.913Z" fill="#192232"/>
</mask>
<g mask="url(#mask6_8280_3534)">
<path fill-rule="evenodd" clip-rule="evenodd" d="M314.142 271.361L321.839 220.668H213.742L213.025 225.249C220.262 229.993 226.208 236.453 230.332 244.053C234.881 252.461 237.183 262.976 237.183 275.341C237.183 278.296 237.016 281.356 236.706 284.436C236.414 287.258 236.066 290.222 235.679 293.306C233.516 306.968 228.614 319.208 221.075 330.029C214.854 338.956 206.556 346.059 196.33 351.211L223.987 435.386H288.472L296.168 384.692H246.254L251.391 351.946H296.173L304.156 301.257H259.374L264.228 271.361H314.142Z" fill="#192232"/>
</g>
<mask id="mask7_8280_3534" style="mask-type:luminance" maskUnits="userSpaceOnUse" x="599" y="220" width="142" height="216">
<path d="M657.102 220.668L636.062 273.849C636.067 274.355 636.138 274.826 636.138 275.346C636.138 278.301 635.971 281.356 635.661 284.436C635.365 287.258 635.026 290.222 634.634 293.312C632.467 306.968 627.569 319.213 620.026 330.029C616.875 334.534 613.218 338.561 609.031 342.121L599.888 365.23L622.933 435.386H632.004L641.133 407.768H680.205V435.386H740.383L728.123 220.668H657.102ZM671.659 312.359C673.74 305.719 675.735 298.974 677.641 292.149C679.535 285.313 681.437 278.577 683.341 271.923H683.918C683.532 278.577 683.155 285.313 682.773 292.143C682.39 298.974 682.105 305.719 681.923 312.354L680.49 362.194H655.965L671.659 312.359Z" fill="#424242"/>
</mask>
<g mask="url(#mask7_8280_3534)">
<path fill-rule="evenodd" clip-rule="evenodd" d="M657.102 220.668L636.062 273.849C636.067 274.355 636.138 274.826 636.138 275.346C636.138 278.301 635.971 281.356 635.661 284.436C635.365 287.258 635.026 290.222 634.634 293.312C632.467 306.968 627.569 319.213 620.026 330.029C616.875 334.534 613.218 338.561 609.031 342.121L599.888 365.23L622.933 435.386H632.004L641.133 407.768H680.205V435.386H740.383L728.123 220.668H657.102ZM671.659 312.359C673.74 305.719 675.735 298.974 677.641 292.149C679.535 285.313 681.437 278.577 683.341 271.923H683.918C683.532 278.577 683.155 285.313 682.773 292.143C682.39 298.974 682.105 305.719 681.923 312.354L680.49 362.194H655.965L671.659 312.359Z" fill="#192232"/>
</g>
</g>
<defs>
<clipPath id="clip0_8280_3534">
<rect width="1113" height="689" fill="white"/>
</clipPath>
</defs>
</svg>
