<svg width="1238" height="389" viewBox="0 0 1238 389" fill="none" xmlns="http://www.w3.org/2000/svg">
<path d="M71.699 349.379C71.699 363.787 68.1141 373.392 59.7492 380.595C54.9693 385.398 47.7994 386.598 38.2396 386.598C26.2898 386.598 17.9249 381.796 10.755 373.392C4.7801 364.987 2.39014 356.583 2.39014 346.978C2.39014 334.972 4.7801 325.367 11.95 316.963C15.5349 313.361 19.1199 309.759 22.7048 307.358C27.4847 304.956 32.2647 303.756 38.2396 303.756C44.2145 303.756 48.9944 304.956 54.9693 306.157C59.7492 307.358 63.3342 309.759 65.7241 313.361C66.9191 314.561 66.9191 315.762 66.9191 316.963C66.9191 318.163 66.9191 319.364 65.7241 320.565C64.5291 321.765 63.3342 321.765 62.1392 321.765C60.9442 321.765 59.7492 321.765 58.5542 320.565C54.9693 318.163 52.5793 315.762 50.1894 314.561C46.6044 313.361 44.2145 312.16 39.4345 312.16C31.0697 312.16 23.8998 315.762 19.1199 322.966C15.5349 328.969 13.145 336.173 13.145 344.577C13.145 356.583 16.7299 364.987 22.7048 372.191C26.2898 375.793 31.0697 378.194 37.0446 378.194C40.6295 378.194 45.4094 376.994 48.9944 375.793C57.3592 372.191 62.1392 363.787 62.1392 352.981V349.379H47.7994C45.4094 349.379 43.0195 348.179 43.0195 344.577C43.0195 340.975 44.2145 339.774 47.7994 339.774H65.7241C69.3091 339.774 71.699 343.376 71.699 348.179V349.379Z" fill="white"/>
<path d="M1236.81 349.379C1236.81 363.787 1233.22 373.392 1224.86 380.595C1220.08 385.398 1212.91 386.598 1203.35 386.598C1191.4 386.598 1183.03 381.796 1175.86 373.392C1169.89 364.987 1167.5 356.583 1167.5 346.978C1167.5 334.972 1169.89 325.367 1177.06 316.963C1180.64 313.361 1184.23 309.759 1187.81 307.358C1192.59 304.956 1197.37 303.756 1203.35 303.756C1209.32 303.756 1214.1 304.956 1220.08 306.157C1224.86 307.358 1228.44 309.759 1230.83 313.361C1232.03 314.561 1232.03 315.762 1232.03 316.963C1232.03 318.163 1232.03 319.364 1230.83 320.565C1229.64 321.765 1228.44 321.765 1227.25 321.765C1226.05 321.765 1224.86 321.765 1223.66 320.565C1220.08 318.163 1217.69 315.762 1215.3 314.561C1211.71 313.361 1209.32 312.16 1204.54 312.16C1196.18 312.16 1189.01 315.762 1184.23 322.966C1180.64 328.969 1178.25 336.173 1178.25 344.577C1178.25 356.583 1181.84 364.987 1187.81 372.191C1191.4 375.793 1196.18 378.194 1202.15 378.194C1205.74 378.194 1210.52 376.994 1214.1 375.793C1222.47 372.191 1227.25 363.787 1227.25 352.981V349.379H1212.91C1210.52 349.379 1208.13 348.179 1208.13 344.577C1208.13 340.975 1209.32 339.774 1212.91 339.774H1230.83C1235.61 339.774 1238 342.176 1238 346.978V349.379H1236.81Z" fill="white"/>
<path d="M565.226 380.596C565.226 385.398 564.031 387.799 560.446 387.799C558.056 387.799 555.666 386.599 555.666 382.997L546.107 316.963L526.987 382.997C525.792 385.398 524.597 386.599 522.207 386.599C519.817 386.599 517.427 385.398 517.427 382.997L498.307 316.963L488.748 382.997C488.748 386.599 486.358 387.799 482.773 387.799C480.383 387.799 477.993 385.398 477.993 381.796C477.993 380.596 477.993 380.596 477.993 379.395L489.942 310.96C489.942 308.559 491.137 307.358 492.332 306.158C493.527 304.957 495.917 303.756 497.112 303.756C499.502 303.756 500.697 303.756 501.892 304.957C503.087 306.158 504.282 307.358 504.282 308.559L521.012 367.389L537.742 307.358C537.742 306.158 538.937 304.957 540.132 303.756C541.327 302.556 542.522 302.556 544.912 302.556C547.302 302.556 548.497 302.556 549.692 303.756C550.886 304.957 552.081 306.158 552.081 308.559L565.226 380.596Z" fill="white"/>
<path d="M751.643 381.796C751.643 385.398 750.448 387.799 746.863 387.799C743.278 387.799 742.083 386.599 742.083 382.997V310.96C742.083 307.358 743.278 306.157 746.863 306.157C750.448 306.157 751.643 307.358 751.643 310.96V381.796Z" fill="white"/>
<path d="M991.834 381.796C991.834 385.398 990.639 386.598 987.054 386.598C984.664 386.598 983.469 385.398 981.079 382.997L938.06 321.765V380.595C938.06 384.197 936.865 385.398 933.28 385.398C929.695 385.398 928.5 384.197 928.5 380.595V308.558C928.5 304.956 929.695 303.756 932.085 303.756C934.475 303.756 935.67 304.956 938.06 307.358L979.884 368.589V309.759C979.884 308.558 979.884 307.358 981.079 306.157C982.274 304.956 983.469 304.956 984.664 304.956C988.249 304.956 989.444 306.157 989.444 309.759V381.796H991.834Z" fill="white"/>
<path d="M308.305 382.997C308.305 385.398 307.11 386.599 303.525 386.599C302.33 386.599 301.135 386.599 299.94 385.398C298.745 385.398 298.745 385.398 298.745 384.197L293.966 369.79H256.921L249.751 384.197C248.556 386.599 247.361 387.799 244.971 387.799C242.581 387.799 240.191 386.599 240.191 384.197V382.997V381.796L266.481 312.16C267.676 309.759 267.676 308.558 268.871 307.358C270.066 306.157 271.261 306.157 272.456 306.157C273.651 306.157 274.846 306.157 277.236 307.358C278.431 308.558 279.626 309.759 279.626 312.16L305.915 381.796C308.305 381.796 308.305 382.997 308.305 382.997ZM290.381 360.185L274.846 315.762L258.116 360.185H290.381Z" fill="white"/>
<path d="M1037.24 64.8333C1055.06 64.8333 1069.51 50.3199 1069.51 32.4167C1069.51 14.5134 1055.06 0 1037.24 0C1019.42 0 1004.98 14.5134 1004.98 32.4167C1004.98 50.3199 1019.42 64.8333 1037.24 64.8333Z" fill="white"/>
<path d="M1238 32.4167C1238 50.4259 1223.66 64.8333 1205.74 64.8333C1187.81 64.8333 1173.47 50.4259 1173.47 32.4167C1173.47 14.4074 1187.81 0 1205.74 0C1223.66 0 1238 14.4074 1238 32.4167Z" fill="white"/>
<path d="M1037.24 223.315C1055.06 223.315 1069.51 208.801 1069.51 190.898C1069.51 172.995 1055.06 158.481 1037.24 158.481C1019.42 158.481 1004.98 172.995 1004.98 190.898C1004.98 208.801 1019.42 223.315 1037.24 223.315Z" fill="white"/>
<path d="M1238 190.898C1238 208.907 1223.66 223.315 1205.74 223.315C1187.81 223.315 1173.47 208.907 1173.47 190.898C1173.47 172.889 1187.81 158.481 1205.74 158.481C1223.66 158.481 1238 172.889 1238 190.898Z" fill="white"/>
<path d="M1154.35 111.658C1154.35 129.667 1140.01 144.075 1122.09 144.075C1104.16 144.075 1089.82 129.667 1089.82 111.658C1089.82 93.6486 1104.16 79.2412 1122.09 79.2412C1140.01 79.2412 1154.35 93.6486 1154.35 111.658Z" fill="white"/>
<path d="M951.205 216.111L861.581 3.60185C860.386 1.20062 859.191 0 856.801 0H838.876H836.487H818.562C816.172 0 814.977 1.20062 813.782 3.60185L722.963 216.111V217.312C722.963 219.713 724.158 220.914 726.548 220.914H767.178C769.568 220.914 770.763 219.713 771.958 217.312L791.077 168.086H886.676L905.795 217.312C906.99 219.713 908.185 220.914 910.575 220.914H951.205C953.595 220.914 954.79 219.713 954.79 217.312C952.4 217.312 952.4 216.111 951.205 216.111ZM804.222 129.667L837.682 44.4228L871.141 129.667H804.222Z" fill="white"/>
<path d="M314.28 68.4352C316.67 60.0309 320.255 56.429 320.255 56.429C320.255 56.429 325.035 48.0247 335.79 43.2222C346.545 38.4198 356.104 38.4198 356.104 38.4198H436.168C438.558 38.4198 440.948 36.0185 440.948 33.6173V4.80247C440.948 2.40123 438.558 0 436.168 0H347.74C298.745 0 259.311 43.2222 259.311 96.0494V109.256V110.457V112.858V114.059V127.265C259.311 180.093 298.745 223.315 347.74 223.315H436.168C438.558 223.315 440.948 220.914 440.948 218.512V188.497C440.948 186.096 438.558 183.694 436.168 183.694H356.104C356.104 183.694 345.35 183.694 335.79 178.892C325.035 174.09 320.255 165.685 320.255 165.685C320.255 165.685 316.67 160.883 314.28 153.679C311.89 145.275 311.89 134.469 311.89 134.469V129.667H436.168C438.558 129.667 440.948 127.265 440.948 124.864V94.8488C440.948 92.4475 438.558 90.0463 436.168 90.0463H311.89V87.6451C311.89 87.6451 313.085 76.8395 314.28 68.4352Z" fill="white"/>
<path d="M589.125 220.914H662.019C664.409 220.914 665.604 218.512 665.604 216.111V186.096C665.604 183.694 664.409 181.293 662.019 181.293H596.295C596.295 181.293 587.93 181.293 579.566 176.491C571.201 171.688 566.421 163.284 566.421 163.284C566.421 163.284 561.641 158.481 561.641 150.077C561.641 142.873 561.641 133.269 561.641 133.269V111.657V3.60185C561.641 1.20062 560.446 0 558.056 0H519.817C517.427 0 515.037 2.40123 515.037 4.80247C515.037 4.80247 515.037 4.80247 515.037 6.00309V112.858V127.265V150.077V151.278C516.232 189.698 548.496 220.914 589.125 220.914Z" fill="white"/>
<path d="M197.172 216.111L145.788 129.667C172.077 123.664 190.002 105.654 190.002 66.034C191.197 13.2068 155.348 1.20062 111.133 0H100.378H4.77992C2.38996 0 0 2.40123 0 4.80247V217.312C0 219.713 2.38996 222.114 4.77992 222.114H43.0193C45.4093 222.114 47.7992 219.713 47.7992 217.312V134.469H101.573L149.373 218.512C150.568 220.914 152.958 222.114 155.348 222.114H195.977C198.367 222.114 199.562 220.914 199.562 218.512C197.172 217.312 197.172 216.111 197.172 216.111ZM112.328 94.8488L100.378 96.0494H46.6043V39.6204H101.573H112.328C137.423 39.6204 144.593 51.6265 144.593 67.2346C143.398 82.8426 136.228 94.8488 112.328 94.8488Z" fill="white"/>
</svg>
