<svg width="26" height="26" viewBox="0 0 26 26" fill="none" xmlns="http://www.w3.org/2000/svg">
<path d="M22.0059 12.0863C22.0059 17.5648 17.5647 22.006 12.0862 22.006C6.60769 22.006 2.1665 17.5648 2.1665 12.0863C2.1665 6.60782 6.60769 2.16663 12.0862 2.16663C17.5647 2.16663 22.0059 6.60782 22.0059 12.0863Z" fill="#1C274C"/>
<path d="M22.0059 12.0863C22.0059 17.5648 17.5647 22.006 12.0862 22.006C6.60769 22.006 2.1665 17.5648 2.1665 12.0863C2.1665 6.60782 6.60769 2.16663 12.0862 2.16663C17.5647 2.16663 22.0059 6.60782 22.0059 12.0863Z" fill="url(#paint0_linear_7094_68)"/>
<path fill-rule="evenodd" clip-rule="evenodd" d="M20.4081 20.4081C20.7139 20.1023 21.2099 20.1023 21.5157 20.4081L23.604 22.4964C23.9098 22.8024 23.9098 23.2982 23.604 23.604C23.2982 23.9098 22.8024 23.9098 22.4964 23.604L20.4081 21.5157C20.1023 21.2099 20.1023 20.7139 20.4081 20.4081Z" fill="#1C274C"/>
<path fill-rule="evenodd" clip-rule="evenodd" d="M20.4081 20.4081C20.7139 20.1023 21.2099 20.1023 21.5157 20.4081L23.604 22.4964C23.9098 22.8024 23.9098 23.2982 23.604 23.604C23.2982 23.9098 22.8024 23.9098 22.4964 23.604L20.4081 21.5157C20.1023 21.2099 20.1023 20.7139 20.4081 20.4081Z" fill="url(#paint1_linear_7094_68)"/>
<defs>
<linearGradient id="paint0_linear_7094_68" x1="6.55719" y1="2.16663" x2="16.8021" y2="18.9163" gradientUnits="userSpaceOnUse">
<stop stop-color="#41C6FF"/>
<stop offset="1" stop-color="#1A64FC"/>
</linearGradient>
<linearGradient id="paint1_linear_7094_68" x1="20.9875" y1="20.1787" x2="22.8748" y2="23.2642" gradientUnits="userSpaceOnUse">
<stop stop-color="#41C6FF"/>
<stop offset="1" stop-color="#1A64FC"/>
</linearGradient>
</defs>
</svg>
