<svg width="26" height="26" viewBox="0 0 26 26" fill="none" xmlns="http://www.w3.org/2000/svg">
<path d="M22.0059 12.0863C22.0059 17.5648 17.5647 22.006 12.0862 22.006C6.60769 22.006 2.1665 17.5648 2.1665 12.0863C2.1665 6.60782 6.60769 2.16663 12.0862 2.16663C17.5647 2.16663 22.0059 6.60782 22.0059 12.0863Z" fill="#1C274C"/>
<path d="M22.0059 12.0863C22.0059 17.5648 17.5647 22.006 12.0862 22.006C6.60769 22.006 2.1665 17.5648 2.1665 12.0863C2.1665 6.60782 6.60769 2.16663 12.0862 2.16663C17.5647 2.16663 22.0059 6.60782 22.0059 12.0863Z" fill="#475774"/>
<path fill-rule="evenodd" clip-rule="evenodd" d="M20.4081 20.4081C20.7139 20.1023 21.2099 20.1023 21.5157 20.4081L23.604 22.4964C23.9098 22.8024 23.9098 23.2982 23.604 23.604C23.2982 23.9098 22.8024 23.9098 22.4964 23.604L20.4081 21.5157C20.1023 21.2099 20.1023 20.7139 20.4081 20.4081Z" fill="#475774"/>
</svg>
