<svg width="26" height="26" viewBox="0 0 26 26" fill="none" xmlns="http://www.w3.org/2000/svg">
<path fill-rule="evenodd" clip-rule="evenodd" d="M10.5162 2.60938C9.75 3.28862 9.75 4.53109 9.75 7.01605V18.9839C9.75 21.4688 9.75 22.7113 10.5162 23.3905C11.2824 24.0698 12.4535 23.8655 14.7957 23.4569L17.3186 23.017C19.9126 22.5645 21.2096 22.3383 21.9799 21.3868C22.75 20.4354 22.75 19.0594 22.75 16.3073V9.69266C22.75 6.94056 22.75 5.56452 21.9799 4.61307C21.2096 3.66161 19.9126 3.4354 17.3186 2.98296L14.7957 2.54293C12.4535 2.1344 11.2824 1.93014 10.5162 2.60938ZM13 11.0159C13.4487 11.0159 13.8125 11.3966 13.8125 11.8662V14.1337C13.8125 14.6033 13.4487 14.984 13 14.984C12.5513 14.984 12.1875 14.6033 12.1875 14.1337V11.8662C12.1875 11.3966 12.5513 11.0159 13 11.0159Z" fill="white"/>
<path d="M8.1761 4.875C5.9463 4.87825 4.78399 4.92728 4.04325 5.66802C3.25 6.46127 3.25 7.73799 3.25 10.2914V15.7081C3.25 18.2615 3.25 19.5382 4.04325 20.3316C4.78399 21.0722 5.9463 21.1213 8.1761 21.1246C8.12484 20.4493 8.12491 19.6687 8.12501 18.8249V7.17459C8.12491 6.33087 8.12484 5.55024 8.1761 4.875Z" fill="white"/>
</svg>
