<svg width="1294" height="405" viewBox="0 0 1294 405" fill="none" xmlns="http://www.w3.org/2000/svg">
<path d="M159.551 258.187V237.937H212.317V261.984C212.317 283.5 221.111 294.891 237.443 294.891C253.775 294.891 262.569 283.5 262.569 261.984C262.569 249.328 258.8 237.937 252.518 227.812C244.981 216.422 237.443 207.562 227.392 198.703L201.01 170.859C189.703 160.734 180.909 149.344 173.371 134.156C165.833 118.969 162.064 103.781 162.064 86.0625C162.064 59.4844 169.602 39.2344 183.421 24.0469C197.241 8.85937 216.085 2.53125 241.212 2.53125C266.338 2.53125 283.926 10.125 296.489 24.0469C307.796 37.9688 314.078 58.2188 314.078 86.0625V96.1875H265.082V82.2656C265.082 60.75 256.287 49.3594 238.699 49.3594C221.111 49.3594 212.317 60.75 212.317 82.2656C212.317 91.125 213.573 99.9844 218.598 108.844C222.367 116.438 227.392 124.031 233.674 131.625C239.955 137.953 246.237 144.281 253.775 151.875C261.313 158.203 268.85 165.797 275.132 172.125C282.67 179.719 288.951 187.312 295.233 194.906C301.515 202.5 306.54 212.625 310.309 224.016C314.078 235.406 316.59 246.797 316.59 259.453C316.59 286.031 310.309 306.281 296.489 321.469C281.414 334.125 262.569 341.719 238.699 341.719C214.829 341.719 194.728 334.125 180.909 320.203C167.089 306.281 159.551 284.766 159.551 258.187ZM395.738 165.797H420.864C429.658 165.797 435.94 163.266 439.709 158.203C443.478 153.141 445.99 145.547 445.99 134.156V84.7969C445.99 73.4062 443.478 65.8125 439.709 60.75C435.94 55.6875 429.658 53.1562 420.864 53.1562H395.738V165.797ZM344.229 337.922V6.32813H420.864C472.373 6.32813 498.755 34.1719 498.755 88.5938V131.625C498.755 186.047 472.373 213.891 420.864 213.891H395.738V337.922H344.229ZM574.134 155.672H594.235C604.285 155.672 613.08 153.141 618.105 148.078C623.13 143.016 625.643 134.156 625.643 121.5V87.3281C625.643 64.5469 616.849 53.1562 599.26 53.1562H574.134V155.672ZM522.625 337.922V6.32813H600.516C626.899 6.32813 647 12.6562 659.563 25.3125C672.126 37.9688 678.408 56.9531 678.408 83.5312V110.109C678.408 144.281 667.101 167.062 644.487 177.188C667.101 187.312 678.408 210.094 678.408 248.062V301.219C678.408 317.672 679.664 330.328 683.433 339.187H630.668C628.155 330.328 625.643 316.406 625.643 298.688V246.797C625.643 231.609 623.13 221.484 618.105 213.891C613.08 207.562 604.285 203.766 591.722 203.766H574.134V339.187L522.625 337.922ZM712.328 337.922H763.837V6.32813H712.328V337.922ZM854.291 289.828H884.443C893.237 289.828 900.775 287.297 904.544 282.234C909.569 277.172 910.825 268.312 910.825 256.922V227.812C910.825 212.625 908.313 202.5 903.287 196.172C898.262 189.844 889.468 187.312 878.161 187.312H854.291V289.828ZM854.291 141.75H874.392C884.443 141.75 893.237 139.219 898.262 134.156C903.287 129.094 905.8 120.234 905.8 107.578V87.3281C905.8 64.5469 897.006 53.1562 879.417 53.1562H854.291V141.75ZM801.526 337.922V6.32813H879.417C905.8 6.32813 925.901 12.6562 938.464 25.3125C951.027 37.9688 957.309 56.9531 957.309 83.5312V94.9219C957.309 129.094 946.002 151.875 923.388 162C949.771 172.125 962.334 196.172 962.334 232.875V259.453C962.334 284.766 956.052 305.016 942.233 317.672C928.414 331.594 909.569 337.922 883.186 337.922H801.526ZM993.742 337.922V6.32813H1135.7V53.1562H1046.51V145.547H1118.12V192.375H1046.51V289.828H1135.7V336.656H993.742V337.922ZM158.295 405H1135.7V359.438H158.295V405Z" fill="white"/>
</svg>
