<svg width="1895" height="597" viewBox="0 0 1895 597" fill="none" xmlns="http://www.w3.org/2000/svg">
<path d="M321.738 144.264C371.274 160.848 407.235 193.337 432.003 238.687C434.038 242.409 438.448 247.148 435.396 250.871C430.645 256.287 425.896 250.193 422.163 248.163C397.056 233.61 369.577 231.581 341.755 231.581C307.828 231.581 273.901 231.243 239.975 231.581C233.189 231.581 223.351 228.873 223.01 240.042C222.672 252.225 233.189 249.856 240.654 249.856C293.446 249.856 401.128 252.225 401.128 252.225C401.128 252.225 435.734 269.485 436.073 287.761C437.09 341.911 436.752 396.059 436.413 450.209C436.413 475.581 270.126 457.664 248.457 451.901C215.138 441.456 116.281 388.612 132.085 339.879C164.995 366.278 202.655 364.923 240.654 363.908C270.605 363.334 300.603 363.908 330.561 363.908C336.668 363.908 342.775 362.553 343.113 355.447C344.174 342.749 325.23 344.955 316.989 344.955C270.508 344.955 224.368 344.618 177.887 344.955C159.908 344.955 146.336 338.186 135.478 324.311C133.105 321.266 127.337 316.867 127.337 316.867C127.337 316.867 127.337 203.49 126.998 146.633C126.998 117.603 299.238 136.782 321.738 144.264Z" fill="white"/>
<path d="M594.543 384.002C575.985 384.002 561.092 380.388 549.869 373.171C536.348 364.23 529.583 350.256 529.583 331.262V327.271H537.356V330.33C537.356 360.94 556.484 376.23 594.761 376.23C607.85 376.23 618.783 374.039 627.565 369.647C639.352 363.674 645.261 354.416 645.261 341.861C645.261 333.225 643.107 326.63 638.784 322.068C635.184 318.155 629.217 314.858 620.866 312.183C616.55 310.764 606.266 308.185 590.006 304.422C571.734 300.186 559.364 296.259 552.891 292.65C540.521 285.428 534.333 274.919 534.333 261.094C534.333 234.424 553.04 221.071 590.438 221.071C629.572 221.071 649.43 237.402 650.008 270.053H642.234C641.371 253.723 635.909 242.502 625.838 236.385C617.922 231.358 606.128 228.851 590.438 228.851C558.217 228.851 542.102 239.599 542.102 261.101C542.102 271.785 546.639 279.791 555.699 285.116C561.603 288.569 571.669 291.711 585.915 294.535C611.942 299.713 629.289 305.205 637.916 311.01C647.982 317.6 653.023 328.114 653.023 342.561C653.023 357.162 646.189 368.138 632.518 375.536C622.013 381.185 609.359 384.002 594.543 384.002ZM742.27 385.66C720.975 385.66 706.154 376.462 697.81 358.102V421.896H690.043V267.463H697.81V292.432C701.661 283.688 707.926 276.48 715.727 271.824C723.636 267.029 732.418 264.644 742.056 264.644C758.744 264.644 771.623 270.177 780.68 281.236C789.747 292.314 794.284 306.877 794.284 324.92C794.284 343.273 789.895 357.874 781.118 368.708C771.897 379.993 758.944 385.66 742.27 385.66ZM743.227 272.4C729.308 272.4 718.255 277.231 710.074 286.879C701.902 296.544 697.805 309.053 697.805 324.422C697.805 340.915 701.391 353.769 708.571 363.045C716.468 372.926 727.952 377.881 743.018 377.881C757.08 377.881 767.988 372.684 775.738 362.338C782.913 352.758 786.504 340.352 786.504 325.133C786.504 309.768 782.842 297.29 775.524 287.708C767.769 277.497 757.008 272.4 743.227 272.4ZM837.883 242.954C836.297 242.954 835.151 241.873 834.428 239.664V223.662C835.294 221.304 836.44 220.125 837.883 220.125C839.172 220.125 840.62 221.233 842.202 223.435V239.909C840.77 241.944 839.327 242.954 837.883 242.954ZM834.433 381.89V266.044H842.202V381.89H834.433ZM964.042 383.297V307.738C964.042 296.59 960.854 288.083 954.517 282.195C948.194 276.299 939.703 273.364 929.061 273.364C916.542 273.364 906.655 277.562 899.393 285.972C892.124 294.374 888.496 305.308 888.496 318.803V383.302H880.73V268.428H888.496V289.132C895.687 273.449 909.144 265.603 928.852 265.603C941.353 265.603 951.435 268.894 959.054 275.495C967.56 282.537 971.799 292.514 971.799 305.386V383.302L964.042 383.297ZM1061.71 386.854C1045.02 386.854 1031.79 381.203 1022.01 369.918C1012.49 359.08 1007.77 344.724 1007.77 326.83C1007.77 308.613 1012.7 294.03 1022.54 283.043C1032.39 272.062 1045.6 266.568 1062.14 266.568C1078.68 266.568 1091.84 272.069 1101.64 283.043C1111.43 294.03 1116.3 308.613 1116.3 326.83C1116.3 344.88 1111.34 359.417 1101.42 370.386C1091.5 381.38 1078.25 386.854 1061.71 386.854ZM1061.92 274.329C1047.51 274.329 1036.2 279.112 1027.93 288.693C1019.65 298.262 1015.51 310.971 1015.51 326.823C1015.51 342.515 1019.71 355.167 1028.04 364.724C1036.38 374.306 1047.67 379.093 1061.91 379.093C1076.18 379.093 1087.5 374.31 1095.91 364.724C1104.33 355.16 1108.53 342.515 1108.53 326.823C1108.53 310.81 1104.4 298.059 1096.13 288.556C1087.86 279.073 1076.46 274.329 1061.92 274.329ZM1301.07 384.282V308.698C1301.07 285.791 1291.14 274.324 1271.26 274.324C1260.49 274.324 1251.84 277.732 1245.39 284.558C1238.92 291.394 1235.67 300.535 1235.67 311.983V384.269H1227.91V308.698C1227.91 285.791 1217.76 274.324 1197.46 274.324C1186.1 274.324 1177.18 279.027 1170.71 288.445C1165.11 296.758 1162.31 307.2 1162.31 319.756V384.282H1154.51V269.394H1162.31V289.391C1169.2 274.175 1181.63 266.563 1199.62 266.563C1216.9 266.563 1228.18 274.329 1233.51 289.871C1239.83 274.329 1252.27 266.563 1270.83 266.563C1296.16 266.563 1308.81 279.823 1308.81 306.346V384.282H1301.07ZM1354.59 329.409C1355.48 362.533 1370.4 379.079 1399.39 379.079C1409.13 379.079 1417.79 376.664 1425.33 371.803C1432.87 366.926 1433.98 364.244 1438.54 358.958H1447.4C1439.44 370.358 1439.2 372.891 1429.72 378.845C1421.08 384.172 1410.79 386.833 1398.82 386.833C1381.59 386.833 1368.41 381.346 1359.33 370.358C1351.02 360.014 1346.82 345.567 1346.82 327.044C1346.82 309.157 1351.63 294.595 1361.19 283.366C1370.75 272.152 1383.66 266.536 1399.92 266.536C1416.03 266.536 1428.91 271.582 1438.54 281.663C1448.18 291.743 1453.02 305.446 1453.02 322.761V329.384H1354.59L1354.59 329.409ZM1400.04 274.329C1386.8 274.329 1376.19 278.611 1368.16 287.164C1360.12 295.715 1355.62 307.2 1354.59 321.655H1443.96C1443.66 307.207 1439.57 295.722 1431.68 287.164C1423.8 278.606 1413.23 274.329 1400.04 274.329ZM1575 384.282V308.698C1575 297.547 1571.81 289.036 1565.5 283.146C1559.17 277.265 1550.67 274.324 1540.03 274.324C1527.52 274.324 1517.63 278.521 1510.36 286.916C1503.08 295.32 1499.45 306.261 1499.45 319.756V384.282H1491.69V269.394H1499.45V290.106C1506.65 274.407 1520.12 266.568 1539.81 266.568C1552.33 266.568 1562.43 269.867 1570.01 276.462C1578.52 283.516 1582.76 293.481 1582.76 306.353V384.282H1575ZM1718.53 384.282V358.368C1709.3 377.369 1694.15 386.847 1673.01 386.847C1656.72 386.847 1644 381.042 1634.78 369.433C1626.02 358.588 1621.62 344.465 1621.62 327.051C1621.62 309.306 1626.02 294.944 1634.78 283.963C1644.29 272.354 1657.3 266.542 1673.83 266.542C1695 266.542 1709.87 275.801 1718.52 294.321V266.542H1726.3V384.255H1718.52L1718.53 384.282ZM1672.87 274.329C1659.1 274.329 1648.26 279.589 1640.36 290.099C1633.04 299.841 1629.37 312.151 1629.37 327.071C1629.37 342.132 1632.97 354.37 1640.13 363.789C1648.03 374 1658.96 379.086 1672.86 379.086C1686.66 379.086 1697.77 374 1706.26 363.789C1714.43 354.06 1718.51 341.815 1718.51 327.071C1718.51 310.906 1714.57 298.059 1706.66 288.563C1698.8 279.073 1687.51 274.329 1672.87 274.329ZM1766.55 384.282V224.64H1774.32V384.282H1766.55Z" fill="white" stroke="white" stroke-width="0.838528" stroke-linejoin="round"/>
</svg>
