<svg width="1193" height="320" viewBox="0 0 1193 320" fill="none" xmlns="http://www.w3.org/2000/svg">
<path d="M198.576 278.002H209.406V280.605C209.406 283.75 210.272 285.703 212.005 286.459C213.521 287.219 216.878 287.544 222.185 287.544C226.517 287.544 229.224 287.219 230.524 286.459C232.473 285.377 233.34 282.991 233.34 279.195C233.34 276.917 232.906 275.182 232.148 273.989C231.39 272.904 229.874 272.253 227.708 272.036C226.192 271.928 223.809 271.822 220.56 271.714C214.821 271.388 211.139 271.063 209.514 270.737C205.399 269.978 202.583 268.134 200.959 265.314C199.551 262.928 198.793 259.457 198.793 254.905C198.793 247.855 200.959 243.193 205.399 241.024C208.323 239.614 213.954 238.855 222.185 238.855C229.441 238.855 234.314 239.506 237.022 240.916C241.137 243.085 243.195 247.421 243.195 254.145V255.989H232.365V254.145C232.365 251.325 231.607 249.482 230.199 248.722C229.008 248.072 226.409 247.855 222.293 247.855C217.637 247.855 214.821 248.072 213.738 248.397C211.139 249.265 209.839 251.542 209.839 255.013C209.839 258.373 210.597 260.434 212.005 261.301C213.305 262.061 216.662 262.494 222.293 262.928C231.715 263.471 237.563 264.555 239.946 266.074C242.978 268.026 244.494 272.47 244.494 279.303C244.494 286.676 242.653 291.557 238.863 293.943C236.047 295.678 230.632 296.546 222.293 296.546C214.063 296.546 208.539 295.895 205.724 294.702C200.959 292.533 198.576 287.869 198.576 280.605V278.002ZM352.36 248.722V296.112H341.528V248.722H324.959V239.397H369.038V248.722H352.36ZM487.948 239.397H498.777V279.737C498.777 286.893 496.612 291.774 492.171 294.052C489.031 295.678 483.399 296.546 475.168 296.546C467.154 296.546 461.63 295.678 458.49 294.052C453.943 291.665 451.667 286.893 451.667 279.737V239.397H462.498V279.737C462.498 283.208 463.797 285.486 466.504 286.459C467.912 287.002 470.837 287.327 475.06 287.327C479.393 287.327 482.316 287.002 483.723 286.459C486.43 285.486 487.84 283.208 487.84 279.737V239.397H487.948ZM586.064 296.112V239.397H613.138C620.936 239.397 626.568 240.916 629.924 244.059C633.499 247.312 635.34 252.844 635.34 260.434V273.772C635.34 281.147 633.824 286.676 630.793 290.147C627.542 294.051 622.237 296.004 614.873 296.004H586.064V296.112ZM597.004 286.785H614.981C618.446 286.785 620.936 285.377 622.562 282.666C623.97 280.388 624.619 277.46 624.619 273.772V260.434C624.619 255.989 623.861 252.952 622.237 251.217C620.611 249.481 617.579 248.614 613.246 248.614H597.112V286.785H597.004ZM731.94 239.397V296.112H721.111V239.397H731.94ZM841.538 238.963C850.42 238.963 856.483 240.156 859.734 242.543C863.739 245.36 865.688 251.109 865.688 259.674V274.965C865.688 283.642 863.848 289.605 860.058 292.533C856.7 295.245 850.529 296.546 841.538 296.546C832.332 296.546 826.161 295.245 823.019 292.641C819.446 289.713 817.606 283.75 817.606 274.856V259.566C817.606 251 819.446 245.252 823.236 242.434C826.486 240.157 832.549 238.963 841.538 238.963ZM841.538 248.18C835.908 248.18 832.224 248.939 830.6 250.566C829.193 251.976 828.435 254.905 828.435 259.674V274.965C828.435 280.388 829.301 283.859 830.925 285.377C832.441 286.676 835.908 287.327 841.538 287.327C846.737 287.327 850.204 286.676 851.828 285.269C853.776 283.642 854.751 280.28 854.751 274.965V259.674C854.751 254.688 853.776 251.434 851.719 250.024C850.204 248.831 846.845 248.18 841.538 248.18ZM948.969 278.002H959.798V280.605C959.798 283.75 960.667 285.703 962.399 286.459C963.915 287.219 967.271 287.544 972.579 287.544C976.912 287.544 979.619 287.219 980.918 286.459C982.867 285.377 983.733 282.991 983.733 279.195C983.733 276.917 983.299 275.182 982.542 273.989C981.784 272.904 980.268 272.253 978.103 272.036C976.585 271.928 974.203 271.822 970.955 271.714C965.214 271.388 961.533 271.063 959.909 270.737C955.793 269.978 952.978 268.134 951.351 265.314C949.944 262.928 949.186 259.457 949.186 254.905C949.186 247.855 951.351 243.193 955.793 241.024C958.716 239.614 964.348 238.855 972.579 238.855C979.835 238.855 984.707 239.506 987.416 240.916C991.53 243.085 993.587 247.421 993.587 254.145V255.989H982.758V254.145C982.758 251.325 982 249.482 980.593 248.722C979.402 248.072 976.801 247.855 972.687 247.855C968.029 247.855 965.214 248.072 964.131 248.397C961.533 249.265 960.234 251.542 960.234 255.013C960.234 258.373 960.884 260.434 962.291 261.301C963.59 262.061 966.946 262.494 972.687 262.928C982.109 263.471 987.957 264.555 990.339 266.074C993.371 268.026 994.889 272.47 994.889 279.303C994.889 286.676 993.046 291.557 989.257 293.943C986.442 295.678 981.026 296.546 972.687 296.546C964.456 296.546 958.932 295.895 956.117 294.702C951.354 292.533 948.969 287.869 948.969 280.605V278.002ZM1092.79 43.2266H1084.34L1058.35 63.1784V23.3809H1158.2V63.1784L1132.43 43.2266H1124.52V170.32L1137.41 192.55H1079.9L1092.79 170.32V43.2266ZM167.603 170.429L154.716 192.658H212.222L199.334 170.429V43.3351H207.24L233.015 63.2868V23.4893H133.164V63.2868L159.156 43.3351H167.603V170.429ZM442.245 119.026L417.337 102.436L442.245 83.4581V42.7928C442.245 31.19 431.308 23.5978 421.237 23.5978H346.511L357.015 43.4435V192.875H387.556V113.063L411.815 129.763V192.875H442.137L442.245 119.026ZM387.664 94.3017V43.3351H411.923V77.9267L387.664 94.3017ZM824.86 119.026L799.954 102.436L824.86 83.4581V42.7928C824.86 31.19 813.922 23.5978 803.851 23.5978H729.125L739.63 43.4435V192.875H770.171V113.063L794.43 129.763V192.875H824.751L824.86 119.026ZM770.279 94.3017V43.3351H794.538V77.9267L770.279 94.3017ZM120.385 119.243L66.8865 81.1804V43.3351H89.1956V66.5407L120.385 88.8786V23.4893H35.2634V90.614L88.7623 128.787V170.32H66.8865V143.21L35.2634 120.436V192.55H97.7511C110.205 192.55 120.494 180.947 120.494 171.947V119.243H120.385ZM331.457 43.3351C331.457 30.6477 325.175 23.4893 305.466 23.4893H245.902V171.947C245.902 180.947 256.191 192.767 268.645 192.767H331.457V43.3351ZM277.525 170.32V43.2266H300.267V170.32H277.525ZM520.111 23.3809H456.541L467.912 43.3351V192.658H498.236V43.3351H520.111V192.658H553.141V43.3351H574.369V192.658H604.691V43.3351C604.691 29.5631 600.144 23.3809 587.255 23.3809H520.111ZM935.65 40.949C935.65 26.9601 925.143 23.4893 912.69 23.4893H850.42V192.658H882.041V127.052L904.135 110.243V192.658H935.542V40.949H935.65ZM882.15 97.7724V43.3351H904.243V80.0958L882.15 97.7724ZM961.208 170.429L951.135 192.658H1002.9L992.829 170.429V128.896L1022.5 103.518L992.829 78.7943V43.3351H1014.27V65.8899L1045.46 88.2304V23.4893H951.135L961.208 40.949V170.429ZM713.638 87.7966V23.4893H619.528L630.249 42.9013L630.466 192.767H713.855L713.638 153.294L691.547 169.019H661.656V43.3351H683.966V65.4561L713.638 87.7966Z" fill="white"/>
</svg>
