<svg width="1678" height="644" viewBox="0 0 1678 644" fill="none" xmlns="http://www.w3.org/2000/svg">
<g clip-path="url(#clip0_8280_3757)">
<mask id="mask0_8280_3757" style="mask-type:luminance" maskUnits="userSpaceOnUse" x="-378" y="-179" width="1975" height="894">
<path d="M1596.82 -178.271H-378V714.025H1596.82V-178.271Z" fill="white"/>
</mask>
<g mask="url(#mask0_8280_3757)">
<path fill-rule="evenodd" clip-rule="evenodd" d="M643.341 291.845C618.234 283.539 595.18 275.609 595.18 250.296C595.18 228.767 612.804 218.575 632.485 218.575C650.464 218.575 670.483 227.626 682.352 244.628L709.494 212.155C690.489 186.463 662.333 173.619 634.516 173.619C592.119 173.619 552.769 202.704 552.769 255.585C552.769 307.325 590.088 322.445 622.985 333.393C649.447 342.464 673.878 349.264 673.878 373.055C673.878 391.943 658.609 404.787 636.56 404.787C615.523 404.787 591.781 393.074 576.525 371.169L547.344 405.152C570.069 436.133 602.974 450.107 633.503 450.107C677.264 450.107 716.613 421.028 716.613 367.766C716.613 314.88 677.264 302.782 643.341 291.845ZM916.294 389.242L878.11 261.594H837.237L798.719 389.242L760.535 261.594H716.613L779.796 450.107H817.633L857.502 324.672L897.358 450.107H935.546L998.729 261.594H952.781L916.294 389.242Z" fill="white"/>
<path fill-rule="evenodd" clip-rule="evenodd" d="M1021.3 450.102H1066.44V261.589H1021.3V450.102ZM1049.51 161.047C1033.68 161.047 1021.3 174.656 1021.3 192.665C1021.3 210.274 1033.68 223.883 1049.51 223.883C1065.34 223.883 1077.73 210.274 1077.73 192.665C1077.73 174.656 1065.34 161.047 1049.51 161.047ZM1195.83 249.022C1171.95 249.022 1151.14 261.397 1140.56 281.885V253.669H1100.29V450.102H1141.58V344.533C1141.58 308.189 1162.73 290.783 1183.21 290.783C1201.98 290.783 1216.99 304.708 1216.99 331.763V450.102H1258.28V324.035C1258.28 274.547 1230.64 249.022 1195.83 249.022ZM1377.83 408.362C1361.9 408.362 1349.43 398.021 1349.43 376.566V294.63H1409.76L1388.14 253.279H1349.43V173.614H1307.19V253.269H1258.28L1279.9 294.615H1307.19V383.469C1307.19 427.126 1335.23 450.102 1367.79 450.102C1383.71 450.102 1401.03 444.36 1416.26 432.479L1405.18 398.411C1396.53 404.91 1386.49 408.362 1377.83 408.362ZM1524.53 408.362C1508.6 408.362 1496.13 398.021 1496.13 376.566V294.63H1556.46L1534.84 253.279H1496.13V173.614H1453.89V253.269H1404.98L1426.6 294.615H1453.89V383.469C1453.89 427.126 1481.93 450.102 1514.49 450.102C1530.41 450.102 1547.73 444.36 1562.97 432.479L1551.88 398.411C1543.23 404.91 1533.19 408.362 1524.53 408.362ZM1579.9 283.959C1571.8 283.959 1565.68 277.361 1565.68 267.871C1565.68 258.395 1571.8 251.812 1579.9 251.812C1587.98 251.812 1594.07 258.395 1594.07 267.871C1594.07 277.361 1587.98 283.959 1579.9 283.959ZM1579.9 249.022C1570.12 249.022 1562.97 257.002 1562.97 267.871C1562.97 278.744 1570.12 286.724 1579.9 286.724C1589.66 286.724 1596.82 278.744 1596.82 267.871C1596.82 257.002 1589.66 249.022 1579.9 249.022Z" fill="white"/>
<path fill-rule="evenodd" clip-rule="evenodd" d="M1585.87 274.098H1580.13V267.056H1585.79C1588.25 267.056 1589.9 268.631 1589.9 270.577C1589.9 272.463 1588.25 274.098 1585.87 274.098ZM1595.93 269.925C1595.93 265.046 1591.89 261.59 1586.14 261.59H1574.25V286.724H1580.13V278.784H1584.78L1589.78 286.724H1596.82L1590.86 277.475C1593.94 275.969 1595.93 273.105 1595.93 269.925Z" fill="white"/>
<path fill-rule="evenodd" clip-rule="evenodd" d="M357.323 116.555H224.615L158.675 242.518L159.094 243.315L191.464 305.157L191.473 305.178L224.643 368.54L219.542 360.376L188.581 310.717L185.133 305.189L125.91 305.172L91.9382 370.072L158.291 496.833H290.996L357.353 370.072L357.338 370.044L358.116 368.557H358.059L324.886 305.189L324.925 305.172L291.756 241.806L331.266 305.157L390.507 305.172H391.249L391.273 305.216L423.676 243.315L357.323 116.555Z" fill="white"/>
</g>
</g>
<defs>
<clipPath id="clip0_8280_3757">
<rect width="1678" height="644" fill="white"/>
</clipPath>
</defs>
</svg>
