<svg width="2263" height="661" viewBox="0 0 2263 661" fill="none" xmlns="http://www.w3.org/2000/svg">
<path d="M136.717 369.24V159.128H74.7749V110.756H247.219V159.128H190.821V369.24H136.717ZM280.102 369.24V110.946H392.516C439.355 110.946 466.312 139.052 466.312 169.26V224.13C466.312 244.396 453.693 263.897 430.561 274.22L472.239 369.24H415.457L376.839 281.486H334.78V369.24H280.102ZM334.78 159.508V233.308H386.78C400.736 233.308 412.207 226.233 412.207 211.894V180.922C412.207 166.2 400.354 159.508 386.016 159.508H334.78ZM510.857 369.24V110.946H565.343V369.24H510.857ZM609.698 369.24V110.946H720.964C767.802 110.946 794.758 139.052 794.758 169.26V224.13C794.758 253.954 768.186 282.44 721.729 282.44H664.181V369.435H609.698V369.24ZM664.181 159.508V233.879H715.417C728.99 233.879 740.465 226.423 740.465 211.704V180.732C740.465 166.01 728.99 159.318 714.653 159.318H664.181V159.508ZM988.616 369.24H833.759V110.946H888.246V321.063H988.422V369.24H988.616ZM1184.57 369.24H1021.31V110.946H1180.94V159.318H1075.98V214.571H1168.13V262.943H1075.98V321.253H1184.77V369.24H1184.57ZM1498.3 369.24H1335.03V110.946H1494.67V159.318H1389.71V214.571H1481.86V262.943H1389.71V321.253H1498.49V369.24H1498.3ZM1541.7 111.33H1659.27C1705.73 111.33 1732.3 139.626 1732.3 170.025V310.736C1732.3 340.944 1705.73 369.435 1659.27 369.435H1541.7V111.33ZM1596.37 159.508V320.869H1652.77C1666.73 320.869 1678.2 313.413 1678.2 298.695V181.496C1678.2 166.774 1666.73 159.318 1652.77 159.318H1596.37V159.508ZM1904.37 199.275V179.393C1904.37 164.671 1892.9 157.215 1878.94 157.215H1847.59C1834.01 157.215 1822.54 164.671 1822.54 179.393V300.987C1822.54 315.709 1834.01 323.166 1847.59 323.166H1878.94C1892.9 323.166 1904.37 315.709 1904.37 300.987V275.558H1861.92V226.997H1958.47V312.843C1958.47 343.047 1931.9 371.537 1885.44 371.537H1844.15C1796.16 371.537 1767.87 343.241 1767.87 312.843V167.538C1767.87 137.33 1796.16 108.844 1844.15 108.844H1885.44C1931.9 108.844 1958.47 137.14 1958.47 167.538V199.275H1904.37ZM2162.46 369.24H1999.19V110.946H2158.83V159.318H2053.87V214.571H2146.02V262.943H2053.87V321.253H2162.65V369.24H2162.46Z" fill="white"/>
<path d="M145.319 534.999V540.353C145.319 548.573 152.583 553.736 161.76 553.736H174.76C184.128 553.736 191.393 549.337 191.393 540.927V535.954C191.393 522 130.598 518.749 130.598 486.438V475.731C130.598 463.111 141.877 451.26 160.231 451.26H174.951C194.452 451.26 206.687 463.301 206.687 476.685V489.495H187.952V480.7C187.952 472.67 181.069 467.891 172.657 467.891H163.098C155.451 467.891 149.142 472.48 149.142 479.746V484.905C149.142 502.114 209.746 505.365 209.746 533.087V544.942C209.746 559.09 197.128 570.367 176.863 570.367H160.422C139.774 570.367 126.583 557.942 126.583 544.368V535.189H145.319V534.999ZM485.618 569.223V468.849H455.603V452.214H531.885V468.849H504.165V569.223H485.618ZM833.755 570.367H813.684C794.374 570.367 781.755 557.942 781.755 544.368V452.214H800.681V540.353C800.681 548.573 806.993 553.736 814.829 553.736H831.653C839.492 553.736 845.8 548.573 845.8 540.353V452.214H864.536V544.368C864.727 557.942 852.876 570.367 833.755 570.367ZM1122.63 452.214H1175.01C1193.94 452.214 1205.79 464.64 1205.79 478.217V543.029C1205.79 556.793 1193.94 569.029 1175.01 569.029H1122.63V452.214ZM1141.37 468.849V552.778H1172.91C1180.94 552.778 1187.25 547.615 1187.25 539.394V482.232C1187.25 474.008 1180.94 468.849 1172.91 468.849H1141.37ZM1462.74 569.223V452.024H1481.47V569.223H1462.74ZM1769.96 570.367C1750.46 570.367 1738.04 557.942 1738.04 544.368V477.449C1738.04 463.685 1750.46 451.45 1769.96 451.45H1790.61C1809.54 451.45 1821.39 463.876 1821.39 477.449V544.368C1821.39 558.132 1809.54 570.367 1790.61 570.367H1769.96ZM1788.32 553.736C1796.35 553.736 1802.66 548.573 1802.66 540.353V481.274C1802.66 473.054 1796.35 467.891 1788.32 467.891H1770.92C1763.27 467.891 1756.77 473.054 1756.77 481.274V540.353C1756.77 548.573 1763.27 553.736 1770.92 553.736H1788.32ZM2093.06 534.999V540.353C2093.06 548.573 2100.32 553.736 2109.5 553.736H2122.5C2131.87 553.736 2139.13 549.337 2139.13 540.927V535.954C2139.13 522 2078.34 518.749 2078.34 486.438V475.731C2078.34 463.111 2089.62 451.26 2107.97 451.26H2122.69C2142.19 451.26 2154.43 463.301 2154.43 476.685V489.495H2135.88V480.7C2135.88 472.67 2129 467.891 2120.59 467.891H2110.84C2103.19 467.891 2096.88 472.48 2096.88 479.746V484.905C2096.88 502.114 2157.49 505.365 2157.49 533.087V544.942C2157.49 559.09 2144.87 570.367 2124.6 570.367H2108.16C2087.51 570.367 2074.32 557.942 2074.32 544.368V535.189H2093.06V534.999Z" fill="white"/>
</svg>
