<svg width="36" height="36" viewBox="0 0 36 36" fill="none" xmlns="http://www.w3.org/2000/svg">
<path d="M31.0645 5.48174C31.0645 5.48174 33.9784 4.34549 33.7356 7.10496C33.6547 8.24122 32.9262 12.2181 32.3596 16.5196L30.4169 29.2619C30.4169 29.2619 30.2551 31.1286 28.798 31.4533C27.341 31.7779 25.1556 30.317 24.7508 29.9923C24.427 29.7489 18.6801 26.0966 16.6564 24.3111C16.0898 23.8241 15.4423 22.8502 16.7374 21.7139L25.2365 13.5979C26.2078 12.6239 27.1792 10.3514 23.1319 13.1109L11.7998 20.8212C11.7998 20.8212 10.5047 21.6328 8.07645 20.9023L2.81507 19.2791C2.81507 19.2791 0.872408 18.0617 4.19111 16.8442C12.2855 13.0297 22.2416 9.13395 31.0645 5.48174Z" fill="black"/>
<path d="M31.0645 5.48174C31.0645 5.48174 33.9784 4.34549 33.7356 7.10496C33.6547 8.24122 32.9262 12.2181 32.3596 16.5196L30.4169 29.2619C30.4169 29.2619 30.2551 31.1286 28.798 31.4533C27.341 31.7779 25.1556 30.317 24.7508 29.9923C24.427 29.7489 18.6801 26.0966 16.6564 24.3111C16.0898 23.8241 15.4423 22.8502 16.7374 21.7139L25.2365 13.5979C26.2078 12.6239 27.1792 10.3514 23.1319 13.1109L11.7998 20.8212C11.7998 20.8212 10.5047 21.6328 8.07645 20.9023L2.81507 19.2791C2.81507 19.2791 0.872408 18.0617 4.19111 16.8442C12.2855 13.0297 22.2416 9.13395 31.0645 5.48174Z" fill="url(#paint0_linear_3288_357)"/>
<defs>
<linearGradient id="paint0_linear_3288_357" x1="9.22131" y1="5.25" x2="21.5424" y2="29.4228" gradientUnits="userSpaceOnUse">
<stop stop-color="#41C6FF"/>
<stop offset="1" stop-color="#1A64FC"/>
</linearGradient>
</defs>
</svg>
