<svg width="39" height="39" viewBox="0 0 39 39" fill="none" xmlns="http://www.w3.org/2000/svg">
<path d="M19.5 5C11.4918 5 5 11.4918 5 19.5C5 27.5082 11.4918 34 19.5 34C27.5082 34 34 27.5082 34 19.5C34 11.4918 27.5082 5 19.5 5Z" fill="#40B3E0"/>
<path d="M26.5554 13.341L23.9656 26.3986C23.9656 26.3986 23.6035 27.3041 22.6074 26.8695L16.6309 22.2875L14.4577 21.2371L10.7994 20.0055C10.7994 20.0055 10.238 19.8064 10.1836 19.3717C10.1293 18.9371 10.8175 18.7017 10.8175 18.7017L25.3601 12.9968C25.3601 12.9968 26.5554 12.4717 26.5554 13.341Z" fill="white"/>
<path d="M16.1714 26.2518C16.1714 26.2518 15.9969 26.2354 15.7795 25.5471C15.5622 24.859 14.4575 21.2369 14.4575 21.2369L23.241 15.6589C23.241 15.6589 23.7482 15.351 23.7301 15.6589C23.7301 15.6589 23.8206 15.7132 23.5489 15.9667C23.2773 16.2204 16.6488 22.1786 16.6488 22.1786" fill="#D2E5F1"/>
<path d="M18.9222 24.0436L16.5582 26.1989C16.5582 26.1989 16.3735 26.3392 16.1713 26.2513L16.6239 22.2478" fill="#B5CFE4"/>
</svg>
