<svg width="2023" height="632" viewBox="0 0 2023 632" fill="none" xmlns="http://www.w3.org/2000/svg">
<g clip-path="url(#clip0_8280_3770)">
<path d="M581.367 434.501L602.971 296.251C602.971 294.276 602.971 294.276 602.971 292.301L520.48 130.351C518.516 128.376 516.552 126.401 512.624 128.376L471.378 146.151C469.414 148.126 465.486 146.151 463.522 144.176L400.671 71.101L367.282 53.326L276.935 1.97597C273.006 0.000973915 269.078 1.97597 269.078 5.92597L241.581 100.726L223.904 47.401L125.701 144.176C125.701 144.176 125.701 144.176 123.736 146.151L70.7064 235.026C70.7064 235.026 70.7064 237.001 70.7064 238.976V341.676L31.4248 317.976L56.9578 479.926V481.901L115.88 582.626C115.88 584.601 117.844 584.601 119.808 584.601L251.402 632.001H253.366H379.067H381.031L563.69 562.876C565.654 562.876 565.654 560.901 567.618 558.926L628.504 412.776L581.367 434.501ZM498.875 349.576C498.875 353.526 494.947 357.476 491.019 357.476H392.815C388.887 357.476 384.959 361.426 384.959 365.376L379.067 553.001C379.067 556.951 375.138 560.901 371.21 560.901H286.755C282.827 560.901 278.899 556.951 278.899 553.001L274.97 371.301C274.97 367.351 271.042 363.401 267.114 363.401L161.054 367.351C157.126 367.351 153.198 363.401 153.198 359.451V252.801C153.198 248.851 157.126 244.901 161.054 244.901L492.983 238.976C496.911 238.976 500.839 242.926 500.839 246.876L498.875 349.576Z" fill="white"/>
<path d="M718.853 276.499L724.745 408.824C724.745 412.774 728.673 416.724 732.601 416.724L765.991 414.749C769.919 414.749 773.847 410.799 773.847 406.849L769.919 276.499C769.919 272.549 773.847 268.599 777.775 268.599H797.416C801.344 268.599 805.272 264.649 805.272 260.699V229.099C805.272 225.149 801.344 221.199 797.416 221.199L687.428 223.174C683.499 223.174 679.571 227.124 679.571 231.074V260.699C679.571 264.649 683.499 268.599 687.428 268.599H709.032C714.925 268.599 718.853 272.549 718.853 276.499Z" fill="white"/>
<path d="M929.009 237.001C929.009 233.051 925.081 229.101 919.189 227.126H887.763C883.835 227.126 881.871 229.101 881.871 233.051V308.101L866.159 310.076L864.195 229.101C864.195 225.151 862.23 223.176 858.302 223.176H824.913C820.985 223.176 817.057 227.126 817.057 231.076L822.949 414.751C822.949 418.701 826.877 422.651 832.769 422.651L862.23 420.676C866.159 420.676 870.087 418.701 870.087 412.776L866.159 353.526H877.943V406.851C877.943 412.776 881.871 416.726 887.763 416.726L921.153 418.701C927.045 418.701 930.973 414.751 930.973 408.826L929.009 237.001Z" fill="white"/>
<path d="M1042.93 215.275L1013.46 217.25C1009.54 217.25 1005.61 221.2 1005.61 225.15V361.425C1005.61 361.425 1005.61 381.175 997.752 381.175C989.896 381.175 989.896 369.325 989.896 365.375V363.4L991.86 235.025C991.86 231.075 987.932 227.125 984.003 225.15L950.614 221.2C946.686 221.2 942.758 223.175 942.758 229.1V363.4C942.758 393.025 966.327 416.725 995.788 416.725C1025.25 416.725 1048.82 393.025 1048.82 363.4L1050.78 223.175C1050.78 217.25 1046.85 213.3 1042.93 215.275Z" fill="white"/>
<path d="M1068.46 402.901L1064.53 235.026C1064.53 229.101 1068.46 225.151 1074.35 225.151L1099.88 223.176C1103.81 223.176 1107.74 225.151 1109.7 229.101L1141.13 314.026L1137.2 231.076C1137.2 227.126 1139.17 223.176 1143.09 223.176H1174.52C1178.45 223.176 1182.37 227.126 1182.37 231.076L1184.34 408.826C1184.34 414.751 1180.41 418.701 1174.52 418.701H1145.06C1141.13 418.701 1137.2 416.726 1137.2 412.776L1111.67 339.701L1115.6 408.826C1115.6 412.776 1111.67 416.726 1107.74 416.726L1080.24 414.751C1074.35 414.751 1068.46 408.826 1068.46 402.901Z" fill="white"/>
<path d="M1245.23 219.225L1209.87 217.25C1205.94 217.25 1202.02 221.2 1202.02 225.15L1198.09 400.925C1198.09 406.85 1202.02 410.8 1205.94 410.8L1231.48 408.825C1268.79 408.825 1306.11 387.1 1306.11 341.675V284.4C1308.08 250.825 1280.58 221.2 1245.23 219.225ZM1262.9 329.825C1260.94 365.375 1239.33 371.3 1239.33 371.3L1243.26 260.7C1264.87 266.625 1262.9 288.35 1262.9 288.35C1262.9 288.35 1264.87 294.275 1262.9 329.825Z" fill="white"/>
<path d="M1319.86 233.051V406.851C1319.86 412.776 1323.79 416.726 1329.68 416.726H1406.28C1410.21 416.726 1414.14 412.776 1414.14 408.826V385.126C1414.14 381.176 1410.21 377.226 1406.28 377.226L1365.03 379.201V343.651H1388.6C1394.5 343.651 1398.42 337.726 1398.42 331.801V310.076C1398.42 306.126 1394.5 302.176 1390.57 304.151H1363.07V264.651H1404.32C1408.24 264.651 1412.17 260.701 1412.17 256.751V231.076C1412.17 227.126 1408.24 223.176 1404.32 223.176L1325.75 225.151C1323.79 225.151 1319.86 229.101 1319.86 233.051Z" fill="white"/>
<path d="M1533.94 304.149C1533.94 288.349 1535.91 254.774 1520.2 235.024C1504.48 213.299 1449.49 221.199 1449.49 221.199L1433.78 223.174C1429.85 223.174 1425.92 227.124 1425.92 233.049L1427.88 402.899C1427.88 408.824 1431.81 412.774 1437.7 412.774H1459.31C1463.24 412.774 1467.17 408.824 1467.17 404.874V351.549L1478.95 349.574L1492.7 408.824C1492.7 412.774 1496.63 416.724 1502.52 416.724L1526.09 414.749C1531.98 414.749 1535.91 408.824 1533.94 402.899C1530.02 385.124 1520.2 353.524 1516.27 337.724C1520.2 331.799 1531.98 317.974 1533.94 304.149ZM1467.17 310.074C1467.17 280.449 1467.17 260.699 1467.17 260.699C1467.17 260.699 1490.73 256.749 1494.66 278.474C1496.63 290.324 1494.66 306.124 1467.17 310.074Z" fill="white"/>
<path d="M1551.62 225.149H1586.97C1592.87 225.149 1596.8 229.099 1594.83 235.024L1590.9 296.249C1590.9 296.249 1612.51 284.399 1614.47 231.074C1614.47 227.124 1618.4 223.174 1622.33 223.174C1638.04 223.174 1651.79 221.199 1651.79 221.199C1655.72 221.199 1657.68 223.174 1659.65 227.124C1659.65 238.974 1659.65 268.599 1647.86 290.324C1641.97 302.174 1632.15 319.949 1624.29 325.874C1634.11 335.749 1647.86 349.574 1659.65 406.849C1661.61 410.799 1657.68 416.724 1651.79 416.724C1640 416.724 1628.22 416.724 1622.33 416.724C1618.4 416.724 1614.47 412.774 1612.51 408.824C1610.54 394.999 1604.65 369.324 1586.97 355.499C1586.97 381.174 1586.97 400.924 1586.97 408.824C1586.97 412.774 1585.01 414.749 1581.08 414.749L1551.62 418.699C1545.73 418.699 1541.8 414.749 1541.8 408.824L1539.84 233.049C1543.77 229.099 1547.69 225.149 1551.62 225.149Z" fill="white"/>
<path d="M1679.29 219.225L1708.75 215.275C1714.64 215.275 1720.53 219.225 1720.53 225.15L1722.5 393.025C1722.5 400.925 1716.6 408.825 1706.78 408.825L1681.25 410.8C1675.36 410.8 1669.47 406.85 1669.47 398.95V227.125C1673.39 223.175 1675.36 221.2 1679.29 219.225Z" fill="white"/>
<path d="M1852.12 274.526C1850.16 242.926 1824.63 217.251 1793.2 219.226H1787.31C1757.85 221.201 1736.24 244.901 1736.24 274.526V363.401C1736.24 391.051 1757.85 414.751 1787.31 414.751H1803.02C1828.56 414.751 1848.2 395.001 1850.16 369.326V359.451C1850.16 353.526 1846.23 349.576 1840.34 349.576H1814.81C1810.88 349.576 1806.95 353.526 1806.95 357.476V373.276C1806.95 377.226 1803.02 381.176 1795.17 381.176C1787.31 381.176 1781.42 373.276 1781.42 365.376L1783.38 266.626C1783.38 260.701 1789.27 254.776 1795.17 254.776H1799.09C1804.99 254.776 1808.91 260.701 1808.91 264.651V268.601C1808.91 268.601 1808.91 276.501 1810.88 276.501C1812.84 278.476 1816.77 278.476 1816.77 278.476C1820.7 278.476 1820.7 278.476 1820.7 278.476H1848.2C1850.16 280.451 1852.12 278.476 1852.12 274.526Z" fill="white"/>
<path d="M1863.91 406.85L1859.98 231.075C1859.98 227.125 1861.95 223.175 1867.84 223.175L1903.19 219.225C1909.08 219.225 1913.01 223.175 1913.01 227.125L1909.08 296.25C1909.08 296.25 1924.8 284.4 1928.72 254.775C1928.72 242.925 1928.72 235.025 1926.76 229.1C1926.76 225.15 1928.72 221.2 1932.65 221.2L1969.97 215.275C1975.86 215.275 1979.79 217.25 1979.79 223.175C1981.75 237 1981.75 260.7 1973.9 280.45C1968.01 294.275 1962.11 306.125 1948.36 317.975C1958.19 329.825 1973.9 349.575 1983.72 379.2C1987.65 389.075 1989.61 395 1989.61 398.95C1991.57 402.9 1987.65 408.825 1983.72 408.825L1948.36 412.775C1944.44 412.775 1940.51 410.8 1938.54 406.85C1934.62 395 1926.76 367.35 1911.05 349.575C1911.05 367.35 1909.08 391.05 1909.08 402.9C1909.08 406.85 1905.16 410.8 1901.23 410.8L1873.73 414.75C1867.84 416.725 1863.91 412.775 1863.91 406.85Z" fill="white"/>
</g>
<defs>
<clipPath id="clip0_8280_3770">
<rect width="2023" height="632" fill="white"/>
</clipPath>
</defs>
</svg>
