<svg xmlns="http://www.w3.org/2000/svg" viewBox="0 0 30 30"><path fill="#FFF" fill-rule="evenodd" d="M15 30C6.716 30 0 23.284 0 15S6.716 0 15 0s15 6.716 15 15-6.716 15-15 15zm4.979-18.96v-.006.006a.793.793 0 01-1.587-.006v3.437a.265.265 0 01-.529 0V9.447a.793.793 0 10-1.587 0v4.495a.265.265 0 01-.528 0V8.918a.793.793 0 10-1.587 0v5.024a.265.265 0 01-.529 0V9.976a.793.793 0 10-1.586 0v6.61l-1.071-1.465c-.318-.49-.937-.653-1.39-.373-.453.287-.565.912-.252 1.4 0 0 1.727 2.614 2.464 3.733.736 1.119 1.928 1.994 4.158 1.994 3.693 0 4.023-2.852 4.023-3.702V11.04z"/></svg>