<svg width="26" height="26" viewBox="0 0 26 26" fill="none" xmlns="http://www.w3.org/2000/svg">
<path d="M23.8332 8.84257V8.92115C23.8332 9.85362 23.8332 10.3199 23.6088 10.7013C23.3843 11.0828 22.9768 11.3092 22.1617 11.762L21.3022 12.2395C21.8944 10.2374 22.092 8.08619 22.1651 6.24651C22.1682 6.16763 22.1717 6.08778 22.1753 6.00709L22.1778 5.95056C22.8834 6.19558 23.2794 6.37825 23.5265 6.72113C23.8333 7.1467 23.8333 7.712 23.8332 8.84257Z" fill="#1C274C"/>
<path d="M23.8332 8.84257V8.92115C23.8332 9.85362 23.8332 10.3199 23.6088 10.7013C23.3843 11.0828 22.9768 11.3092 22.1617 11.762L21.3022 12.2395C21.8944 10.2374 22.092 8.08619 22.1651 6.24651C22.1682 6.16763 22.1717 6.08778 22.1753 6.00709L22.1778 5.95056C22.8834 6.19558 23.2794 6.37825 23.5265 6.72113C23.8333 7.1467 23.8333 7.712 23.8332 8.84257Z" fill="url(#paint0_linear_7094_29)"/>
<path d="M2.1665 8.84259V8.92117C2.16654 9.85363 2.16655 10.3199 2.391 10.7013C2.61546 11.0828 3.02302 11.3092 3.83814 11.762L4.69805 12.2398C4.10575 10.2376 3.90815 8.0863 3.83511 6.24653C3.83198 6.16765 3.82845 6.0878 3.82488 6.00711L3.82238 5.95044C3.1166 6.19553 2.72037 6.3782 2.4732 6.72114C2.16646 7.14672 2.16647 7.71202 2.1665 8.84259Z" fill="#1C274C"/>
<path d="M2.1665 8.84259V8.92117C2.16654 9.85363 2.16655 10.3199 2.391 10.7013C2.61546 11.0828 3.02302 11.3092 3.83814 11.762L4.69805 12.2398C4.10575 10.2376 3.90815 8.0863 3.83511 6.24653C3.83198 6.16765 3.82845 6.0878 3.82488 6.00711L3.82238 5.95044C3.1166 6.19553 2.72037 6.3782 2.4732 6.72114C2.16646 7.14672 2.16647 7.71202 2.1665 8.84259Z" fill="url(#paint1_linear_7094_29)"/>
<path fill-rule="evenodd" clip-rule="evenodd" d="M17.7421 2.54226C16.5244 2.33681 14.9325 2.16663 13.0004 2.16663C11.0682 2.16663 9.47638 2.33681 8.25865 2.54226C7.02502 2.7504 6.40821 2.85448 5.89285 3.48919C5.37749 4.12392 5.40472 4.80994 5.45919 6.18197C5.6462 10.8922 6.66266 16.7755 12.1877 17.2961V21.125H10.6383C10.1219 21.125 9.6773 21.4895 9.57602 21.9958L9.37103 23.0208H6.5002C6.05147 23.0208 5.6877 23.3846 5.6877 23.8333C5.6877 24.282 6.05147 24.6458 6.5002 24.6458H19.5002C19.9489 24.6458 20.3127 24.282 20.3127 23.8333C20.3127 23.3846 19.9489 23.0208 19.5002 23.0208H16.6294L16.4244 21.9958C16.3231 21.4895 15.8785 21.125 15.3621 21.125H13.8127V17.2961C19.338 16.7757 20.3545 10.8923 20.5415 6.18197C20.596 4.80994 20.6233 4.12392 20.1078 3.48919C19.5925 2.85448 18.9758 2.7504 17.7421 2.54226Z" fill="#1C274C"/>
<path fill-rule="evenodd" clip-rule="evenodd" d="M17.7421 2.54226C16.5244 2.33681 14.9325 2.16663 13.0004 2.16663C11.0682 2.16663 9.47638 2.33681 8.25865 2.54226C7.02502 2.7504 6.40821 2.85448 5.89285 3.48919C5.37749 4.12392 5.40472 4.80994 5.45919 6.18197C5.6462 10.8922 6.66266 16.7755 12.1877 17.2961V21.125H10.6383C10.1219 21.125 9.6773 21.4895 9.57602 21.9958L9.37103 23.0208H6.5002C6.05147 23.0208 5.6877 23.3846 5.6877 23.8333C5.6877 24.282 6.05147 24.6458 6.5002 24.6458H19.5002C19.9489 24.6458 20.3127 24.282 20.3127 23.8333C20.3127 23.3846 19.9489 23.0208 19.5002 23.0208H16.6294L16.4244 21.9958C16.3231 21.4895 15.8785 21.125 15.3621 21.125H13.8127V17.2961C19.338 16.7757 20.3545 10.8923 20.5415 6.18197C20.596 4.80994 20.6233 4.12392 20.1078 3.48919C19.5925 2.85448 18.9758 2.7504 17.7421 2.54226Z" fill="url(#paint2_linear_7094_29)"/>
<defs>
<linearGradient id="paint0_linear_7094_29" x1="21.8624" y1="5.95056" x2="25.2125" y2="8.15487" gradientUnits="userSpaceOnUse">
<stop stop-color="#41C6FF"/>
<stop offset="1" stop-color="#1A64FC"/>
</linearGradient>
<linearGradient id="paint1_linear_7094_29" x1="2.72676" y1="5.95044" x2="6.07732" y2="8.15537" gradientUnits="userSpaceOnUse">
<stop stop-color="#41C6FF"/>
<stop offset="1" stop-color="#1A64FC"/>
</linearGradient>
<linearGradient id="paint2_linear_7094_29" x1="8.78146" y1="2.16663" x2="21.7605" y2="16.4569" gradientUnits="userSpaceOnUse">
<stop stop-color="#41C6FF"/>
<stop offset="1" stop-color="#1A64FC"/>
</linearGradient>
</defs>
</svg>
