<svg width="21" height="21" viewBox="0 0 21 21" fill="none" xmlns="http://www.w3.org/2000/svg">
<path d="M19.0312 3.9375H15.75V3.28125C15.75 2.8875 15.4875 2.625 15.0938 2.625H5.90625C5.5125 2.625 5.25 2.8875 5.25 3.28125V3.9375H1.96875C1.575 3.9375 1.3125 4.2 1.3125 4.59375V6.36562C1.3125 9.25312 3.54375 11.6156 6.43125 11.7469C6.95625 12.4688 7.67812 12.9937 8.53125 13.3219V15.0938H7.875C6.75938 15.0938 5.90625 15.9469 5.90625 17.0625V19.0312C5.90625 19.425 6.16875 19.6875 6.5625 19.6875H14.4375C14.8313 19.6875 15.0938 19.425 15.0938 19.0312V17.0625C15.0938 15.9469 14.2406 15.0938 13.125 15.0938H12.4688V13.3875C13.3219 13.0594 14.0438 12.4688 14.5688 11.8125C17.3906 11.6156 19.6875 9.31875 19.6875 6.43125V4.59375C19.6875 4.2 19.425 3.9375 19.0312 3.9375ZM2.625 6.36562V5.25H5.25V8.53125C5.25 9.1875 5.38125 9.77812 5.57812 10.3031C3.87188 9.84375 2.625 8.26875 2.625 6.36562ZM18.375 6.36562C18.375 8.20312 17.1281 9.77812 15.4219 10.3031C15.6187 9.77812 15.75 9.1875 15.75 8.53125V5.25H18.375V6.36562Z" fill="black"/>
<path d="M19.0312 3.9375H15.75V3.28125C15.75 2.8875 15.4875 2.625 15.0938 2.625H5.90625C5.5125 2.625 5.25 2.8875 5.25 3.28125V3.9375H1.96875C1.575 3.9375 1.3125 4.2 1.3125 4.59375V6.36562C1.3125 9.25312 3.54375 11.6156 6.43125 11.7469C6.95625 12.4688 7.67812 12.9937 8.53125 13.3219V15.0938H7.875C6.75938 15.0938 5.90625 15.9469 5.90625 17.0625V19.0312C5.90625 19.425 6.16875 19.6875 6.5625 19.6875H14.4375C14.8313 19.6875 15.0938 19.425 15.0938 19.0312V17.0625C15.0938 15.9469 14.2406 15.0938 13.125 15.0938H12.4688V13.3875C13.3219 13.0594 14.0438 12.4688 14.5688 11.8125C17.3906 11.6156 19.6875 9.31875 19.6875 6.43125V4.59375C19.6875 4.2 19.425 3.9375 19.0312 3.9375ZM2.625 6.36562V5.25H5.25V8.53125C5.25 9.1875 5.38125 9.77812 5.57812 10.3031C3.87188 9.84375 2.625 8.26875 2.625 6.36562ZM18.375 6.36562C18.375 8.20312 17.1281 9.77812 15.4219 10.3031C15.6187 9.77812 15.75 9.1875 15.75 8.53125V5.25H18.375V6.36562Z" fill="url(#paint0_linear_3847_685)"/>
<defs>
<linearGradient id="paint0_linear_3847_685" x1="5.3791" y1="2.625" x2="13.8795" y2="17.5915" gradientUnits="userSpaceOnUse">
<stop stop-color="#41C6FF"/>
<stop offset="1" stop-color="#1A64FC"/>
</linearGradient>
</defs>
</svg>
