<?xml version="1.0" encoding="utf-8"?>
<!-- Generator: Adobe Illustrator 22.0.1, SVG Export Plug-In . SVG Version: 6.00 Build 0)  -->
<svg version="1.1" id="Слой_1" xmlns="http://www.w3.org/2000/svg" xmlns:xlink="http://www.w3.org/1999/xlink" x="0px" y="0px"
	 viewBox="0 0 103 32" style="enable-background:new 0 0 103 32;" xml:space="preserve">
<style type="text/css">
	.st0{fill:#26A17B;}
	.st1{fill:#FFFFFF;}
</style>
<circle class="st0" cx="14.2" cy="15.6" r="14"/>
<g>
	<path class="st1" d="M15.6,16.9L15.6,16.9c-0.1,0-0.6,0-1.7,0c-0.9,0-1.5,0-1.7-0.1l0,0c-3.4-0.2-6-0.8-6-1.5c0-0.7,2.6-1.3,6-1.4
		l0,2.3c0.2,0,0.9,0.1,1.8,0.1c1.1,0,1.6,0,1.7,0l0-2.3c3.4,0.2,6,0.8,6,1.5C21.6,16.2,19.1,16.8,15.6,16.9 M15.7,13.8l0-2.1l4.8,0
		l0-3.2l-13-0.1l0,3.2l4.8,0l0,2.1c-3.9,0.1-6.8,0.9-6.8,1.8c0,0.9,2.9,1.7,6.8,1.9l-0.1,6.7l3.4,0l0.1-6.7c3.9-0.1,6.8-0.9,6.8-1.8
		C22.4,14.8,19.5,14,15.7,13.8"/>
</g>
<path class="st1" d="M40.2,9.6l0,3.4l3.3,0l0,2.5l-3.3,0l0,5.1c0,1.1,0.6,1.7,1.5,1.7c0.5,0,1-0.1,1.4-0.3l0.8,2.5
	c-0.8,0.3-1.5,0.5-2.4,0.5c-2.6,0.1-4.2-1.4-4.2-4.4l0-5.1l-2.2,0l0-2.5l2.2,0l0-3.1L40.2,9.6z M96.6,13.3l0.2,1.4
	c0.9-1.5,2.2-1.7,3.4-1.7c1.2,0,2.4,0.5,3,1.2l-1.3,2.5c-0.6-0.5-1.1-0.8-2.1-0.8c-1.5,0-3,0.8-3,3l-0.1,6.3l-2.9,0l0.1-11.9
	L96.6,13.3z M89.3,17.8c-0.2-1.5-1.4-2.3-3.1-2.3c-1.6,0-2.9,0.7-3.3,2.3L89.3,17.8z M82.9,20.2c0.2,1.5,1.4,2.5,3.5,2.6
	c1.1,0,2.5-0.4,3.2-1.1l1.9,1.9c-1.3,1.3-3.3,1.9-5.1,1.9c-4.1,0-6.5-2.6-6.5-6.4c0-3.6,2.5-6.2,6.4-6.2c4,0,6.4,2.5,5.9,7.4
	L82.9,20.2z M70,8.1L70,14.7c1.1-1.4,2.4-1.8,3.7-1.7c3.4,0,4.8,2.3,4.8,5.8L78.4,25l-2.9,0l0.1-6.2c0-2.2-1.1-3.1-2.7-3.1
	c-1.7,0-2.9,1.4-3,3.2L69.9,25l-2.9,0l0.2-16.8L70,8.1z M62.2,9.7l0,3.4l3.3,0l0,2.5l-3.3,0l0,5.1c0,1.1,0.6,1.7,1.5,1.7
	c0.5,0,1-0.1,1.4-0.3l0.8,2.5C65,24.9,64.3,25,63.4,25c-2.6,0.1-4.2-1.4-4.2-4.4l0-5.1l-2.2,0l0-2.5l2.2,0l0-3.1L62.2,9.7z M54,17.5
	c-0.2-1.5-1.4-2.3-3.1-2.3c-1.6,0-2.9,0.7-3.3,2.3L54,17.5z M47.6,19.9c0.2,1.5,1.4,2.5,3.5,2.6c1.1,0,2.5-0.4,3.2-1.1l1.9,1.9
	c-1.3,1.3-3.3,1.9-5.1,1.9c-4.1,0-6.5-2.6-6.5-6.4c0-3.6,2.5-6.2,6.4-6.2c4,0,6.4,2.5,5.9,7.4L47.6,19.9z"/>
</svg>
