<svg width="1017" height="138" viewBox="0 0 1017 138" fill="none" xmlns="http://www.w3.org/2000/svg">
<path d="M0 16.8091C0 12.8783 1.47245 9.45369 4.41735 6.53535C7.36224 3.61701 11.1906 2.15783 15.9024 2.15783C21.3996 2.15783 25.5552 3.49789 28.3692 6.178C30.267 8.0243 32.1321 11.2106 33.9645 15.7371L61.7447 82.8291L89.4267 15.7371C91.1937 11.2106 93.0261 8.08386 94.9239 6.35667C97.8688 3.55745 102.09 2.15783 107.587 2.15783C112.168 2.15783 115.931 3.58723 118.876 6.44601C121.886 9.30479 123.391 12.7592 123.391 16.8091C123.391 18.1789 123.064 19.8168 122.41 21.7226C121.755 23.5689 120.97 25.5344 120.054 27.6189L79.4141 119.993C76.9927 125.592 75.1276 129.195 73.8188 130.803C70.8739 134.198 66.7183 135.895 61.352 135.895C56.1167 135.895 52.0265 134.198 49.0816 130.803C47.4456 128.957 45.4823 125.354 43.1918 119.993L3.43571 27.6189C2.91218 26.4277 2.19231 24.6112 1.27612 22.1693C0.425374 19.6679 0 17.8811 0 16.8091Z" fill="white"/>
<path d="M121.657 68.9819C121.657 48.2557 128.037 31.639 140.799 19.1319C153.625 6.62469 170.706 0.371094 192.04 0.371094C213.243 0.371094 230.258 6.59491 243.085 19.0425C255.977 31.4902 262.423 48.1366 262.423 68.9819C262.423 89.8272 256.01 106.503 243.183 119.011C230.356 131.518 213.309 137.771 192.04 137.771C170.706 137.771 153.625 131.518 140.799 119.011C128.037 106.503 121.657 89.8272 121.657 68.9819ZM156.603 68.9819C156.603 80.5957 159.351 90.0952 164.849 97.4804C171.131 105.878 180.195 110.107 192.04 110.166C203.819 110.166 212.85 105.938 219.133 97.4804C224.63 90.0357 227.379 80.5362 227.379 68.9819C227.379 57.4872 224.63 48.0175 219.133 40.5728C212.85 32.1751 203.819 27.9762 192.04 27.9762C180.26 27.9762 171.196 32.1751 164.849 40.5728C159.351 47.8984 156.603 57.3681 156.603 68.9819Z" fill="white"/>
<path d="M271.258 119.815L272.814 15.5681C272.814 10.8034 290.659 18.1886 293.8 15.5681C296.941 12.9475 282.972 3.22988 287.553 3.22988L326.086 1.03951C346.438 1.03951 363.302 9.84082 375.801 23.0627C387.45 35.3912 393.274 50.37 393.274 67.9992C393.274 88.7254 387.865 106.682 374.514 119.011C362.08 130.505 351.259 135.025 332.543 135.025L287.553 134.823C283.103 134.823 279.274 133.483 276.068 130.803C272.861 128.123 271.258 124.46 271.258 119.815ZM271.258 119.815L319.629 104.354C331.932 104.354 342.819 103.436 349.297 96.2297C355.318 89.4996 358.328 80.0895 358.328 67.9992C358.328 56.5045 355.789 51.0824 351.914 44.6252C348.04 38.1681 339.283 31.7109 327.7 31.7109C329.378 26.0404 319.629 24.0321 319.629 26.8681L272.814 15.5681L271.258 119.815Z" fill="#0090FF"/>
<path d="M401.772 119.993V18.0598C401.772 12.9378 403.277 9.007 406.287 6.26734C409.297 3.52767 413.224 2.15783 418.067 2.15783C423.04 2.15783 426.999 3.49789 429.944 6.178C432.889 8.85811 434.362 12.8187 434.362 18.0598V54.688L479.222 9.66214C482.167 6.62469 484.719 4.62949 486.879 3.67656C489.104 2.66408 491.624 2.15783 494.438 2.15783C498.168 2.15783 501.8 3.58723 505.334 6.44601C508.933 9.30479 510.733 12.6996 510.733 16.6304C510.733 18.8341 510.209 20.859 509.162 22.7053C508.115 24.4921 506.512 26.4277 504.352 28.5122L465.479 64.4257L507.984 106.682C511.191 109.958 513.318 112.31 514.365 113.74C516.132 116.182 517.015 118.624 517.015 121.065C517.015 125.711 515.346 129.344 512.009 131.965C508.737 134.585 504.712 135.895 499.935 135.895C496.205 135.895 492.442 134.496 488.646 131.696C486.617 130.208 483.672 127.408 479.811 123.299L434.362 76.4862V119.993C434.362 125.115 432.857 129.046 429.846 131.786C426.836 134.525 422.909 135.895 418.067 135.895C413.093 135.895 409.134 134.555 406.189 131.875C403.244 129.195 401.772 125.234 401.772 119.993Z" fill="white"/>
<path d="M524.476 123.656C524.476 121.333 524.77 118.921 525.359 116.42C526.013 113.918 527.322 110.166 529.286 105.163L560.698 27.4402C564.428 18.03 567.635 11.6871 570.318 8.41142C574.768 3.0512 580.592 0.371094 587.791 0.371094C593.681 0.371094 598.556 1.94938 602.417 5.10596C606.344 8.26253 610.663 15.7073 615.375 27.4402L646.689 105.163C648.849 110.405 650.19 114.186 650.714 116.509C651.237 118.832 651.499 121.214 651.499 123.656C651.499 127.408 650.092 130.386 647.278 132.59C644.464 134.794 640.668 135.895 635.891 135.895C630.917 135.895 627.089 134.555 624.406 131.875C622.246 129.791 620.381 126.247 618.81 121.244L605.068 81.7571H570.907L557.262 121.244C555.495 126.128 553.63 129.612 551.667 131.696C548.984 134.496 545.155 135.895 540.182 135.895C535.47 135.895 531.674 134.794 528.795 132.59C525.915 130.327 524.476 127.349 524.476 123.656ZM570.907 81.7571H605.068L588.871 33.6045L570.907 81.7571Z" fill="white"/>
<path d="M659.548 121.691C659.548 117.403 661.25 113.65 664.653 110.434C668.056 107.159 672.179 105.521 677.021 105.521C681.733 105.521 685.823 107.129 689.292 110.345C692.76 113.502 694.494 117.283 694.494 121.691C694.494 126.098 692.76 129.88 689.292 133.037C685.823 136.193 681.733 137.771 677.021 137.771C672.179 137.771 668.056 136.223 664.653 133.126C661.25 129.969 659.548 126.158 659.548 121.691Z" fill="#0090FF"/>
<path d="M707.55 119.815V18.2385C707.55 13.4739 709.121 9.78126 712.262 7.16071C715.469 4.54015 719.33 3.22988 723.845 3.22988H762.227C774.53 3.22988 784.314 6.41623 791.578 12.7889C798.842 19.1021 802.474 27.4104 802.474 37.714C802.474 43.6698 800.543 49.03 796.682 53.7946C793.737 57.3085 789.974 60.2864 785.394 62.7283C794.097 64.3364 801.067 68.0588 806.302 73.8955C811.538 79.7321 814.155 86.8195 814.155 95.1577C814.155 106.474 810.261 115.675 802.474 122.763C793.639 130.803 780.911 134.823 764.288 134.823H723.845C719.395 134.823 715.567 133.483 712.36 130.803C709.153 128.123 707.55 124.46 707.55 119.815ZM740.14 108.29H760.656C766.677 108.29 771.291 107.307 774.497 105.342C778.359 103.019 780.322 99.4756 780.387 94.711C780.387 90.1846 778.424 86.8195 774.497 84.6159C770.636 82.3527 766.023 81.2211 760.656 81.2211H740.14V108.29ZM740.14 54.688H755.061C764.943 54.688 769.884 50.6083 769.884 42.4488C769.884 34.0511 764.943 29.8225 755.061 29.763H740.14V54.688Z" fill="white"/>
<path d="M823.775 119.815V18.2385C823.775 13.4739 825.346 9.78126 828.487 7.16071C831.628 4.54015 835.49 3.22988 840.07 3.22988H886.796C892.031 3.22988 896.056 4.45082 898.87 6.8927C901.684 9.33457 903.091 12.7592 903.091 17.1665C903.091 21.4546 901.684 24.8197 898.87 27.2615C896.056 29.7034 892.031 30.9243 886.796 30.9243H856.366V54.8667H887.091C892.195 54.8667 896.187 56.0876 899.067 58.5295C901.946 60.9714 903.386 64.3364 903.386 68.6246C903.386 77.8561 898.02 82.4718 887.287 82.4718C887.222 82.4718 887.156 82.4718 887.091 82.4718H856.366V107.039H886.796C892.031 107.039 896.056 108.26 898.87 110.702C901.684 113.144 903.091 116.539 903.091 120.887C903.091 125.175 901.651 128.57 898.772 131.071C895.893 133.573 891.901 134.823 886.796 134.823H840.07C835.62 134.823 831.792 133.483 828.585 130.803C825.379 128.123 823.775 124.46 823.775 119.815Z" fill="white"/>
<path d="M914.027 17.1665C914.027 7.8754 919.655 3.22988 930.911 3.22988H1000.12C1011.37 3.22988 1017 7.8754 1017 17.1665C1017 21.3355 1015.53 24.6708 1012.58 27.1722C1009.64 29.6736 1005.48 30.9243 1000.12 30.9243H981.759V119.993C981.759 125.115 980.254 129.046 977.244 131.786C974.234 134.525 970.34 135.895 965.562 135.895C960.589 135.895 956.63 134.555 953.685 131.875C950.74 129.195 949.267 125.234 949.267 119.993V30.9243H930.911C925.545 30.9243 921.389 29.7034 918.444 27.2615C915.499 24.8197 914.027 21.4546 914.027 17.1665Z" fill="white"/>
<path d="M271.2 17.1819C271.2 8.26647 277.705 1.03906 285.729 1.03906H326.086C334.11 1.03906 348.686 8.26647 348.686 17.1819C348.686 26.0974 338.953 31.7105 330.929 31.7105H285.729C277.705 31.7105 271.2 26.0974 271.2 17.1819Z" fill="#0090FF"/>
<path d="M271.2 120.494C271.2 111.579 277.705 104.352 285.729 104.352H326.086C334.11 104.352 348.686 111.579 348.686 120.494C348.686 129.41 338.953 135.023 330.929 135.023H285.729C277.705 135.023 271.2 129.41 271.2 120.494Z" fill="#0090FF"/>
<path d="M271.2 120.496C271.2 113.364 277.705 107.582 285.729 107.582H326.086C334.11 107.582 348.686 113.364 348.686 120.496C348.686 127.629 337.338 133.411 329.314 133.411H285.729C277.705 133.411 271.2 127.629 271.2 120.496Z" fill="#0090FF"/>
</svg>
