<svg width="26" height="26" viewBox="0 0 26 26" fill="none" xmlns="http://www.w3.org/2000/svg">
<path d="M10.9204 8.55517C12.0867 6.46281 12.67 5.41663 13.5418 5.41663C14.4137 5.41663 14.997 6.46281 16.1633 8.55517L16.4651 9.09649C16.7965 9.69107 16.9622 9.98837 17.2206 10.1845C17.479 10.3807 17.8008 10.4535 18.4445 10.5991L19.0304 10.7317C21.2954 11.2442 22.4279 11.5004 22.6973 12.3669C22.9667 13.2332 22.1946 14.1361 20.6506 15.9416L20.2511 16.4088C19.8123 16.922 19.5929 17.1785 19.4942 17.4959C19.3955 17.8132 19.4287 18.1555 19.4951 18.8401L19.5554 19.4633C19.7889 21.8725 19.9055 23.077 19.2002 23.6125C18.4948 24.148 17.4345 23.6597 15.3138 22.6833L14.7651 22.4307C14.1626 22.1533 13.8612 22.0145 13.5418 22.0145C13.2225 22.0145 12.9211 22.1533 12.3185 22.4307L11.7698 22.6833C9.64916 23.6597 8.58883 24.148 7.88345 23.6125C7.17806 23.077 7.29479 21.8725 7.52823 19.4633L7.58863 18.8401C7.65496 18.1555 7.68813 17.8132 7.58943 17.4959C7.49074 17.1785 7.27134 16.922 6.83256 16.4088L6.43308 15.9416C4.88898 14.1361 4.11694 13.2332 4.38637 12.3669C4.6558 11.5004 5.78828 11.2442 8.05324 10.7317L8.6392 10.5991C9.28283 10.4535 9.60465 10.3807 9.86305 10.1845C10.1214 9.98837 10.2872 9.69108 10.6186 9.09649L10.9204 8.55517Z" fill="#1C274C"/>
<path d="M10.9204 8.55517C12.0867 6.46281 12.67 5.41663 13.5418 5.41663C14.4137 5.41663 14.997 6.46281 16.1633 8.55517L16.4651 9.09649C16.7965 9.69107 16.9622 9.98837 17.2206 10.1845C17.479 10.3807 17.8008 10.4535 18.4445 10.5991L19.0304 10.7317C21.2954 11.2442 22.4279 11.5004 22.6973 12.3669C22.9667 13.2332 22.1946 14.1361 20.6506 15.9416L20.2511 16.4088C19.8123 16.922 19.5929 17.1785 19.4942 17.4959C19.3955 17.8132 19.4287 18.1555 19.4951 18.8401L19.5554 19.4633C19.7889 21.8725 19.9055 23.077 19.2002 23.6125C18.4948 24.148 17.4345 23.6597 15.3138 22.6833L14.7651 22.4307C14.1626 22.1533 13.8612 22.0145 13.5418 22.0145C13.2225 22.0145 12.9211 22.1533 12.3185 22.4307L11.7698 22.6833C9.64916 23.6597 8.58883 24.148 7.88345 23.6125C7.17806 23.077 7.29479 21.8725 7.52823 19.4633L7.58863 18.8401C7.65496 18.1555 7.68813 17.8132 7.58943 17.4959C7.49074 17.1785 7.27134 16.922 6.83256 16.4088L6.43308 15.9416C4.88898 14.1361 4.11694 13.2332 4.38637 12.3669C4.6558 11.5004 5.78828 11.2442 8.05324 10.7317L8.6392 10.5991C9.28283 10.4535 9.60465 10.3807 9.86305 10.1845C10.1214 9.98837 10.2872 9.69108 10.6186 9.09649L10.9204 8.55517Z" fill="url(#paint0_linear_7094_33)"/>
<path d="M5.27306 2.709C5.30555 2.59441 5.50897 2.59371 5.54223 2.70809C5.69411 3.23038 5.97576 4.00238 6.40164 4.4254C6.82753 4.84842 7.60141 5.12484 8.12471 5.27319C8.23932 5.30568 8.24 5.50909 8.12562 5.54235C7.60334 5.69424 6.83133 5.97588 6.40832 6.40176C5.9853 6.82765 5.70888 7.60153 5.56053 8.12483C5.52804 8.23944 5.32462 8.24012 5.29136 8.12574C5.13948 7.60346 4.85784 6.83145 4.43195 6.40844C4.00606 5.98542 3.23218 5.709 2.70888 5.56065C2.59428 5.52816 2.59359 5.32474 2.70797 5.29148C3.23026 5.1396 4.00226 4.85797 4.42528 4.43208C4.8483 4.00619 5.12471 3.23231 5.27306 2.709Z" fill="#1C274C"/>
<path d="M5.27306 2.709C5.30555 2.59441 5.50897 2.59371 5.54223 2.70809C5.69411 3.23038 5.97576 4.00238 6.40164 4.4254C6.82753 4.84842 7.60141 5.12484 8.12471 5.27319C8.23932 5.30568 8.24 5.50909 8.12562 5.54235C7.60334 5.69424 6.83133 5.97588 6.40832 6.40176C5.9853 6.82765 5.70888 7.60153 5.56053 8.12483C5.52804 8.23944 5.32462 8.24012 5.29136 8.12574C5.13948 7.60346 4.85784 6.83145 4.43195 6.40844C4.00606 5.98542 3.23218 5.709 2.70888 5.56065C2.59428 5.52816 2.59359 5.32474 2.70797 5.29148C3.23026 5.1396 4.00226 4.85797 4.42528 4.43208C4.8483 4.00619 5.12471 3.23231 5.27306 2.709Z" fill="url(#paint1_linear_7094_33)"/>
<path fill-rule="evenodd" clip-rule="evenodd" d="M20.5833 3.52087C21.0321 3.52087 21.3958 3.88465 21.3958 4.33337V4.60421H21.6667C22.1154 4.60421 22.4792 4.96798 22.4792 5.41671C22.4792 5.86543 22.1154 6.22921 21.6667 6.22921H21.3958V6.50004C21.3958 6.94877 21.0321 7.31254 20.5833 7.31254C20.1346 7.31254 19.7708 6.94877 19.7708 6.50004V6.22921H19.5C19.0513 6.22921 18.6875 5.86543 18.6875 5.41671C18.6875 4.96798 19.0513 4.60421 19.5 4.60421H19.7708V4.33337C19.7708 3.88465 20.1346 3.52087 20.5833 3.52087Z" fill="#1C274C"/>
<path fill-rule="evenodd" clip-rule="evenodd" d="M20.5833 3.52087C21.0321 3.52087 21.3958 3.88465 21.3958 4.33337V4.60421H21.6667C22.1154 4.60421 22.4792 4.96798 22.4792 5.41671C22.4792 5.86543 22.1154 6.22921 21.6667 6.22921H21.3958V6.50004C21.3958 6.94877 21.0321 7.31254 20.5833 7.31254C20.1346 7.31254 19.7708 6.94877 19.7708 6.50004V6.22921H19.5C19.0513 6.22921 18.6875 5.86543 18.6875 5.41671C18.6875 4.96798 19.0513 4.60421 19.5 4.60421H19.7708V4.33337C19.7708 3.88465 20.1346 3.52087 20.5833 3.52087Z" fill="url(#paint2_linear_7094_33)"/>
<defs>
<linearGradient id="paint0_linear_7094_33" x1="8.40932" y1="5.41663" x2="17.9196" y2="20.9651" gradientUnits="userSpaceOnUse">
<stop stop-color="#41C6FF"/>
<stop offset="1" stop-color="#1A64FC"/>
</linearGradient>
<linearGradient id="paint1_linear_7094_33" x1="3.85935" y1="2.62268" x2="6.74521" y2="7.34082" gradientUnits="userSpaceOnUse">
<stop stop-color="#41C6FF"/>
<stop offset="1" stop-color="#1A64FC"/>
</linearGradient>
<linearGradient id="paint2_linear_7094_33" x1="19.5266" y1="3.52087" x2="21.4846" y2="6.72204" gradientUnits="userSpaceOnUse">
<stop stop-color="#41C6FF"/>
<stop offset="1" stop-color="#1A64FC"/>
</linearGradient>
</defs>
</svg>
