<?xml version="1.0" encoding="utf-8"?>
<!-- Generator: Adobe Illustrator 22.0.1, SVG Export Plug-In . SVG Version: 6.00 Build 0)  -->
<svg version="1.1" id="Слой_1" xmlns="http://www.w3.org/2000/svg" xmlns:xlink="http://www.w3.org/1999/xlink" x="0px" y="0px"
	 viewBox="0 0 103 32" style="enable-background:new 0 0 103 32;" xml:space="preserve">
<style type="text/css">
	.st0{fill:#277FFF;}
	.st1{fill:url(#SVGID_1_);}
	.st2{fill:#D24A48;}
	.st3{fill:#EAAB4D;}
	.st4{fill:#DD754A;}
</style>
<path class="st0" d="M18,8.2L11.8,23H7.7L4.7,11.2c-0.2-0.7-0.3-1-0.9-1.3C2.9,9.4,1.3,8.9,0,8.6l0.1-0.4h6.5c0.8,0,1.6,0.6,1.8,1.5
	l1.6,8.6l4-10.1L18,8.2z M33.9,18.2c0-3.9-5.4-4.1-5.4-5.9c0-0.5,0.5-1.1,1.6-1.2c0.5-0.1,2.1-0.1,3.8,0.7l0.7-3.1
	c-0.9-0.3-2.1-0.7-3.6-0.7c-3.8,0-6.4,2-6.5,4.9c0,2.1,1.9,3.3,3.4,4c1.5,0.7,2,1.2,2,1.8c0,1-1.2,1.4-2.3,1.4c-1.9,0-3-0.5-3.9-0.9
	l-0.7,3.3c0.9,0.4,2.5,0.8,4.3,0.8C31.2,23.2,33.8,21.3,33.9,18.2 M43.8,23h3.5L44.3,8.2H41c-0.7,0-1.3,0.4-1.6,1.1L33.6,23h4
	l0.8-2.2h4.9L43.8,23z M39.6,17.8l2-5.6l1.2,5.6H39.6z M23.5,8.2L20.3,23h-3.8l3.2-14.8H23.5z"/>
<linearGradient id="SVGID_1_" gradientUnits="userSpaceOnUse" x1="7.3374" y1="9.0084" x2="6.0373" y2="10.6336">
	<stop  offset="0" style="stop-color:#C08C4C"/>
	<stop  offset="1" style="stop-color:#F6A43B"/>
</linearGradient>
<path class="st1" d="M8.4,9.7c-0.2-1-0.9-1.5-1.8-1.5H0.1L0,8.6c1,0.2,2,0.5,2.9,0.8c0,0,0,0,0,0s0,0,0,0c0.3,0.1,0.6,0.3,0.8,0.4
	c0.2,0.1,0.3,0.2,0.4,0.3c0.6,0.4,1.3,0.9,1.8,1.6c1.3,1.6,3.6,4.3,3.6,4.3L8.4,9.7z"/>
<g>
	<circle class="st2" cx="74.7" cy="16.3" r="12.4"/>
	<circle class="st3" cx="90.6" cy="16.3" r="12.4"/>
	<ellipse class="st4" cx="82.6" cy="16.3" rx="4.5" ry="9.6"/>
</g>
</svg>
