<svg xmlns="http://www.w3.org/2000/svg" viewBox="0 0 22 22" id="use-href-target"><path d="M8.558 4.17a5.897 5.897 0 1 1 8.34 8.338c-.738.738-2.063 1.46-3.611 2.337-1.67.946-3.6 2.034-5.29 2.446-.89.217 2.535-2.806 2.308-3.034-.227-.227-5.64 3.136-6.136 2.64-.495-.495 2.856-5.92 2.632-6.144-.225-.225-2.664 2.605-3.03 2.238-.22-.22 1.032-2.71 2.364-5.06.9-1.588 1.812-3.15 2.423-3.762zm3.098 2.608c-.761.73-.79 1.868-.071 2.612.719.743 1.948.755 2.693.032.722-.7.741-1.827.044-2.56-.707-.744-1.936-.782-2.666-.084z"/></svg>