<svg width="1920" height="1842" xmlns="http://www.w3.org/2000/svg"><g fill="#1C2436" fill-rule="evenodd"><path d="M5.08 1152.052c-3.273-71.49.387-142.249 21.621-209.298C61.79 831.938 156.286 732.006 284.021 720.09c175.857-16.405 340.942 131.633 518.763 129.038 140.437-2.05 251.11-98.2 323.26-203.3 48.563-70.743 95.226-154.727 185.455-175.517 124.292-28.635 241.637 77.377 336.348 164.95 115.511 106.817 244.686 201.453 383.613 281.024 31.69 18.154 64.29 35.568 97.61 51.493l184.507-567.857c-49.497 19.125-99.23 37.75-150.081 53.76-170.627 53.742-371.2 75.413-536.988-9.359-65.382-33.431-123.223-82.404-194.25-101.902-107.996-29.632-218.312 16.572-301.778 77.375-83.457 60.8-153.514 137.613-248.203 183.821-109.238 53.31-239.742 58.915-365.092 40.176-125.699-18.795-214.68-81.101-327.107-134.188-247.499-116.863-525.603-150.068-777.75-66.158-197.29 65.658-361.282 199.065-456.874 367.563L5.081 1152.052zm1958.07 761.788c2.815-61.481-141.515-147.537-214.85-192.098-132.524-80.526-69.457-158.453-179.297-168.703-151.22-14.11-293.176 113.198-446.085 110.964-120.762-1.765-215.933-84.453-277.976-174.837-41.76-60.837-81.886-133.062-159.475-150.942-106.879-24.627-207.784 66.54-289.225 141.848-99.327 91.86-210.405 173.242-329.867 241.67-27.251 15.612-55.284 30.587-83.935 44.282l-158.665-488.345c42.563 16.447 85.328 32.464 129.056 46.234 146.723 46.218 319.196 64.857 461.758-8.042 56.222-28.75 105.96-70.865 167.035-87.632 92.866-25.481 187.728 14.254 259.502 66.545 71.766 52.287 132.009 118.345 213.433 158.084 93.935 45.847 206.156 50.668 313.944 34.554 108.089-16.161 184.605-69.742 281.28-115.394 212.824-100.497 451.967-129.049 668.79-56.886 169.651 56.467 310.67 171.196 392.872 316.1l-748.294 282.597z"/><path d="M1974.396 2.405c-14.453 5.018-27.101 11.122-36.962 18.566-33.533 25.304-26.583 59.366-55.983 85.894-38.996 35.188-131.145 47.327-212.097 44.285-80.951-3.042-158.758-17.517-239.671-20.785-58.582-2.364-123.98 2.744-162.007 24.89 19.553-1.184 38.13 6.95 42.286 16.467 4.153 9.514-3.713 19.558-16.394 27.006-39.967 23.477-117.104 21.543-170.919 6.248-53.818-15.295-92.605-40.463-138.268-61.246-128.346-58.422-309.647-80.842-484.127-82.08-93.472-.664-189.31 3.966-278.575-9.751C145.048 40.122 79.112 15.665 5.422 0h-40.818v122.757l.42.805C-8.92 172.76 47.896 225.927 148.752 236.031c27.922 2.799 58.492 1.688 82.538-5.863 18.684-5.868 31.892-15.022 46.35-23.306 34.116-19.54 76.917-34.949 121.627-48.287 78.918-23.543 167.53-41.427 259.7-42.056 92.174-.626 188.156 18.298 240.116 55.925 18.177 13.164 30.501 28.08 47.416 41.649 79.692 63.923 269.19 86.652 399.314 47.892 22.873-6.813 45.809-17.046 46.053-30.244.366-20.229-52.258-34.334-47.818-54.445 3.957-17.928 49.08-25.153 85.57-25.388 63.467-.41 127.518 7.944 180.613 25.133 37.45 12.124 68.845 28.31 105.465 41.036 74.16 25.773 169.519 35.206 258.7 27.74V2.405zm-2186.7 970.476c16.499 3.552 31.168 8.535 42.966 15.36 40.115 23.2 37.086 61.432 72.841 86.527 47.427 33.287 149.952 34.192 238.175 19.978 88.222-14.214 171.466-40.524 259.616-54.98 63.822-10.463 136.11-13.661 180.724 5.474-21.567 1.334-40.813 12.738-44.084 23.717-3.269 10.976 6.695 20.916 21.58 27.367 46.915 20.334 131.111 7.847 187.975-16.135 56.868-23.983 95.951-56.756 143.152-85.652 132.67-81.224 328.157-130.147 519.025-154.96 102.25-13.292 207.805-21.106 303.694-48.126 82.318-23.197 151.222-58.841 229.797-85.9l44.69-5.488 16.505 134.417-.351.938c-21.914 57.373-76.972 123.228-186.039 147.85-30.195 6.818-63.815 9.712-91.157 4.676-21.246-3.913-36.938-12.162-53.882-19.288-39.98-16.81-88.913-27.928-139.658-36.523-89.57-15.17-188.995-22.84-289.995-11.137-101.002 11.705-203.546 45.33-255.377 93.516-18.132 16.858-29.62 34.847-46.316 51.978-78.658 80.708-283.08 131.07-430.76 106.123-25.96-4.385-52.447-12.507-54.489-26.925-3.12-22.102 52.6-44.62 45.035-66.046-6.742-19.098-57.119-20.944-97.101-16.295-69.545 8.083-138.55 25.841-194.37 51.8-39.374 18.31-71.571 40.254-109.954 59.112-77.731 38.19-180.87 61.34-279.516 65.153l-32.726-266.53z" opacity=".805"/></g></svg>
