<svg xmlns="http://www.w3.org/2000/svg" width="1920" height="1590" fill="none"><g clip-path="url(#a)"><g fill="#1C2436" fill-rule="evenodd" clip-rule="evenodd" opacity=".8"><path d="M-2.239 739.714c-2.962-64.582.35-128.503 19.564-189.073 31.75-100.109 117.255-190.384 232.837-201.15 159.125-14.819 308.504 118.914 469.406 116.57 127.075-1.853 227.219-88.712 292.502-183.656 43.94-63.906 86.17-139.775 167.81-158.557 112.47-25.867 218.65 69.901 304.35 149.011 104.52 96.496 221.4 181.987 347.11 253.869 28.68 16.401 58.18 32.131 88.32 46.518l166.96-512.985c-44.79 17.276-89.79 34.1-135.8 48.565-154.4 48.548-335.89 68.125-485.9-8.455-59.16-30.2-111.5-74.442-175.77-92.055-97.72-26.77-197.54 14.97-273.06 69.898-75.521 54.925-138.913 124.316-224.593 166.059-98.845 48.159-216.932 53.222-330.355 36.293-113.739-16.978-194.256-73.264-295.985-121.221-223.95-105.57-475.595-135.567-703.752-59.766C-717.114 158.894-865.503 279.41-952 431.625L-2.239 739.714zM-250.084 1817.14c-3.491-76.14 175.567-182.71 266.55-237.89 164.412-99.73 86.169-196.23 222.439-208.93 187.608-17.47 363.722 140.19 553.424 137.42 149.82-2.18 267.891-104.58 344.861-216.52 51.81-75.34 101.59-164.78 197.85-186.93 132.6-30.49 257.78 82.41 358.82 175.67 123.23 113.76 261.03 214.55 409.24 299.29 33.81 19.33 68.59 37.88 104.13 54.84l196.85-604.78c-52.81 20.37-105.86 40.21-160.11 57.26-182.03 57.24-396.01 80.32-572.87-9.96-69.75-35.6-131.46-87.758-207.23-108.522-115.21-31.557-232.9 17.652-321.94 82.412-89.04 64.75-163.776 146.56-264.794 195.77-116.537 56.78-255.761 62.75-389.486 42.79-134.098-20.01-229.025-86.37-348.962-142.9-264.034-124.46-560.721-159.818-829.717-70.45-210.474 69.93-385.421 212.01-487.411 391.46l928.356 349.97z" opacity=".8"/><path d="M-821.386 561.522c21.195 7.347 39.744 16.284 54.206 27.183 49.175 37.048 38.984 86.922 82.099 125.762 57.187 51.521 192.326 69.295 311.041 64.841 118.716-4.455 232.821-25.648 351.48-30.433 85.911-3.461 181.816 4.018 237.585 36.442-28.675-1.732-55.917 10.178-62.012 24.11-6.092 13.931 5.444 28.637 24.041 39.543 58.612 34.373 171.734 31.542 250.654 9.148 78.924-22.395 135.806-59.244 202.771-89.675C818.7 682.905 1084.58 650.078 1340.46 648.264c137.07-.971 277.62 5.808 408.53-14.276 112.38-17.243 209.07-53.052 317.14-75.988h59.86v179.736c-.2.391-.41.788-.62 1.179-38.21 72.033-121.53 149.877-269.43 164.672-40.95 4.098-85.78 2.472-121.05-8.585-27.4-8.591-46.77-21.995-67.97-34.123-50.03-28.61-112.8-51.171-178.37-70.7-115.73-34.47-245.68-60.656-380.85-61.576-135.173-.918-275.931 26.79-352.13 81.882-26.658 19.275-44.731 41.114-69.537 60.981-116.868 93.593-394.769 126.872-585.597 70.121-33.544-9.975-67.179-24.957-67.537-44.281-.537-29.619 76.636-50.271 70.126-79.717-5.803-26.248-71.977-36.828-125.488-37.171-93.076-.601-187.008 11.631-264.871 36.797-54.922 17.753-100.962 41.451-154.665 60.084-108.756 37.735-248.602 51.547-379.387 40.616V561.522z" opacity=".8"/></g><path fill="url(#b)" d="M1645.79 483.7c117.52 0 212.8-95.072 212.8-212.35 0-117.278-95.28-212.35-212.8-212.35C1528.27 59 1433 154.072 1433 271.35c0 117.278 95.27 212.35 212.79 212.35z" opacity=".381"/></g><defs><clipPath id="a"><path fill="#fff" d="M0 0h1920v1590H0z"/></clipPath></defs></svg>
