<svg fill="#FFF" xmlns="http://www.w3.org/2000/svg" viewBox="0 0 32 32" id="use-href-target"><path fill-rule="evenodd" d="M13.413 6.19c.375-.01.648-.07.81-.135-.024-.174-.108-.44-.287-.77-.38-.702-.957-1.277-1.33-1.492a1.15 1.15 0 1 0-1.15 1.992c.373.215 1.16.427 1.957.406zm.818-.02v.005-.004zm.097-.167zM9.304 3.214a3.149 3.149 0 0 0-.002 3.148H3a1 1 0 0 0 0 2h26a1 1 0 1 0 0-2h-6.302a3.15 3.15 0 0 0-4.305-4.301C17.467 2.596 16.447 3.8 16 4.998c-.447-1.198-1.467-2.402-2.393-2.937a3.15 3.15 0 0 0-4.303 1.153zm9.283 2.977c-.375-.01-.648-.071-.81-.136.024-.174.108-.44.287-.77.38-.702.957-1.277 1.33-1.492a1.15 1.15 0 1 1 1.15 1.992c-.373.215-1.16.427-1.957.406zm-.818-.02v.004-.004zm-.097-.168zM6 12.363v16h20v-16H6zm-1-2a1 1 0 0 0-1 1v18a1 1 0 0 0 1 1h22a1 1 0 0 0 1-1v-18a1 1 0 0 0-1-1H5zm11 3.843a.5.5 0 0 1 .5.5v11.311a.5.5 0 0 1-1 0V14.706a.5.5 0 0 1 .5-.5z" clip-rule="evenodd"/></svg>