<svg fill="none" xmlns="http://www.w3.org/2000/svg" viewBox="0 0 16 17" id="use-href-target"><path fill-rule="evenodd" clip-rule="evenodd" d="M3 2.5h10a1 1 0 0 1 1 1v10a1 1 0 0 1-1 1H3a1 1 0 0 1-1-1v-10a1 1 0 0 1 1-1zm-3 1a3 3 0 0 1 3-3h10a3 3 0 0 1 3 3v10a3 3 0 0 1-3 3H3a3 3 0 0 1-3-3v-10zm11.306 2.195c-.236.012-.612.148-1.154.602-.49.412-.91 1.133-1.217 1.805-.064.142-.122.278-.174.405.134-.029.278-.063.429-.101.715-.186 1.498-.474 1.989-.886.541-.454.74-.801.793-1.031.047-.2-.002-.37-.152-.549-.15-.178-.31-.256-.514-.245zM7.185 9.517a11.704 11.704 0 0 1-.625-.143c-.744-.193-1.711-.525-2.381-1.087-.62-.52-1.002-1.04-1.126-1.572-.13-.562.05-1.047.361-1.418.311-.37.757-.632 1.333-.601.545.03 1.125.316 1.744.835.67.562 1.165 1.457 1.484 2.157L8 7.743l.025-.055c.32-.7.814-1.595 1.484-2.157.62-.52 1.199-.806 1.744-.835.576-.03 1.022.23 1.333.601.311.371.49.856.36 1.418-.123.531-.505 1.052-1.125 1.571-.67.563-1.637.895-2.381 1.088-.248.064-.479.114-.678.153.1.234.26.526.513.837.324.402.644.695.88.886a4.34 4.34 0 0 0 .352.256l.015.01h.002l-.254.432c-.252.431-.253.43-.253.43h-.002l-.003-.002-.01-.006-.007-.005-.022-.013a5.348 5.348 0 0 1-.446-.324 6.943 6.943 0 0 1-1.03-1.035 4.746 4.746 0 0 1-.534-.816 7.072 7.072 0 0 1-.588.88 4.526 4.526 0 0 1-1.08 1.004 3.338 3.338 0 0 1-.493.267l-.036.014-.012.005-.005.002h-.002l-.167-.47-.167-.472H5.41l-.001.001.011-.005a2.346 2.346 0 0 0 .328-.18 3.51 3.51 0 0 0 .838-.783 6.01 6.01 0 0 0 .598-.923zM4.027 6.489c.053.23.252.577.793 1.031.49.412 1.274.7 1.99.886a9.1 9.1 0 0 0 .428.1c-.052-.126-.11-.262-.174-.404-.307-.672-.727-1.393-1.217-1.805-.542-.454-.918-.59-1.154-.602-.204-.011-.364.067-.514.245-.15.179-.199.35-.152.55z" fill="var(--svg-use-color-primary, #FB7044)"/></svg>