<svg xmlns="http://www.w3.org/2000/svg" viewBox="0 0 16 16" id="use-href-target"><path fill-rule="evenodd" d="M6 0a6 6 0 016 6v3h2V5.915a1.5 1.5 0 111 0V10h-3v4a2 2 0 01-2 2H2a2 2 0 01-2-2V6a6 6 0 016-6zm2.5 14h-5a.5.5 0 100 1h5a.5.5 0 100-1zM9 7H3a1 1 0 00-1 1v4a1 1 0 001 1h6a1 1 0 001-1V8a1 1 0 00-1-1zM4 8v4H3V8h1zm5 0v4H8V8h1zM7 8v4H5V8h2zM6 4a1 1 0 100 2 1 1 0 000-2zm.003-2C4.117 2 2.477 3.017 2.018 4.458c-.073.229.084.464.35.527.267.062.542-.072.614-.3.338-1.06 1.575-1.828 3.021-1.828 1.43 0 2.668.772 3.016 1.83.074.228.35.361.616.297s.421-.3.346-.529C9.511 3.021 7.874 2 6.003 2z"/></svg>