<svg xmlns="http://www.w3.org/2000/svg" width="11" height="10" viewBox="0 0 11 10"><path fill="#5FAB07" fill-rule="nonzero" d="M10.65.24a1 1 0 01.11 1.41l-6 7-.02.022-.033.035-.026.022-.01.012-.02.019.056-.053a.998.998 0 01-.117.1l-.042.03-.058.035-.049.026a.603.603 0 01-.058.026l-.054.02-.06.02-.045.01-.075.015-.038.005L4.03 9h-.043l-.066-.003a.787.787 0 01-.068-.008l-.048-.008a.882.882 0 01-.07-.016l-.044-.013-.06-.022c-.02-.008-.04-.016-.058-.025-.016-.008-.032-.015-.047-.024a.768.768 0 01-.062-.036l-.041-.028a.607.607 0 01-.057-.043l-.018-.015-.021-.019a.36.36 0 01-.035-.033l-3-3a1 1 0 011.414-1.414l2.236 2.235L9.241.349a.999.999 0 011.41-.108z"/></svg>
