<svg xmlns="http://www.w3.org/2000/svg" width="170" height="168"><defs><linearGradient id="a" x1="6.312%" x2="92.351%" y1="0%" y2="82.791%"><stop offset="0%" stop-color="#E82F3F" stop-opacity="0"/><stop offset="100%" stop-color="#E82F3F"/></linearGradient><linearGradient id="b" x1="50%" x2="50%" y1="0%" y2="100%"><stop offset="0%" stop-color="#E50030" stop-opacity=".904"/><stop offset="100%" stop-color="#F10234"/></linearGradient></defs><g fill="none" fill-rule="evenodd" transform="translate(1)"><g fill-rule="nonzero"><path fill="url(#a)" d="M84 0c46.392 0 84 37.608 84 84h-8c0-41.974-34.026-76-76-76z"/><path d="M84 0C37.608 0 0 37.608 0 84s37.608 84 84 84 84-37.608 84-84S130.392 0 84 0zm0 8c41.974 0 76 34.026 76 76s-34.026 76-76 76S8 125.974 8 84 42.026 8 84 8z"/></g><circle cx="164" cy="84" r="4" fill="url(#b)"/></g></svg>
