<svg xmlns="http://www.w3.org/2000/svg" viewBox="0 0 24 24" id="use-href-target"><path fill-rule="nonzero" d="M12 0c6.627 0 12 5.373 12 12s-5.373 12-12 12S0 18.627 0 12 5.373 0 12 0zm0 2C6.477 2 2 6.477 2 12s4.477 10 10 10 10-4.477 10-10S17.523 2 12 2zm-.125 13.977c.432 0 .767.114 1.004.343.237.23.355.558.355.985 0 .411-.12.735-.359.972-.24.237-.573.356-1 .356-.438 0-.776-.116-1.016-.348-.24-.232-.359-.558-.359-.98 0-.438.117-.769.352-.992.234-.224.575-.336 1.023-.336zM13.235 7l-.4 7.633H10.93L10.53 7h2.703z"/></svg>