<svg xmlns="http://www.w3.org/2000/svg" fill="none" viewBox="0 0 30 30" id="use-href-target"><rect width="28" height="28" x="1" y="1" stroke="var(--svg-use-color-secondary, #384360)" strokeWidth="2" rx="14"/><path fill="var(--svg-use-color-primary, #fff)" d="M13.695 17.836a.174.174 0 0 1-.173-.174c.004-.805.08-1.445.227-1.921.151-.476.365-.86.64-1.148a4.918 4.918 0 0 1 1.008-.808c.271-.169.514-.353.727-.554a2.41 2.41 0 0 0 .514-.68c.125-.254.187-.536.187-.848 0-.351-.082-.656-.247-.914a1.676 1.676 0 0 0-.667-.6 1.992 1.992 0 0 0-.928-.214c-.316 0-.616.069-.9.207a1.746 1.746 0 0 0-.86.916c-.155.39-.478.732-.899.732-.89 0-1.657-.765-1.305-1.583a3.21 3.21 0 0 1 .294-.539 3.63 3.63 0 0 1 1.548-1.281A5.23 5.23 0 0 1 14.997 8c.85 0 1.597.149 2.242.447.65.298 1.154.723 1.515 1.274.364.548.547 1.197.547 1.949 0 .507-.083.96-.247 1.361-.16.4-.39.756-.688 1.068-.297.311-.651.59-1.06.834a4.53 4.53 0 0 0-.888.694c-.227.24-.396.523-.507.847-.107.32-.162.717-.167 1.188a.174.174 0 0 1-.174.174h-1.875ZM14.683 22c-.4 0-.745-.143-1.034-.427a1.405 1.405 0 0 1-.434-1.041c0-.4.145-.743.434-1.028.289-.285.634-.427 1.034-.427.396 0 .739.142 1.028.427.293.285.44.627.44 1.028 0 .271-.069.518-.207.74-.133.223-.311.4-.534.534a1.4 1.4 0 0 1-.727.194Z"/></svg>