<svg xmlns="http://www.w3.org/2000/svg" id="Слой_1" x="0" y="0" enable-background="new 0 0 1920 703" version="1.1" viewBox="0 0 1920 703" xml:space="preserve"><style>.st1{fill-rule:evenodd;clip-rule:evenodd;fill:#fff}</style><g id="Page-1"><g id="Bg-footer"><g id="Fill-1-Clipped" transform="translate(.47)"><defs><filter id="Adobe_OpacityMaskFilter" width="2205.4" height="747.9" x="-384.7" y="201" filterUnits="userSpaceOnUse"><feColorMatrix values="1 0 0 0 0 0 1 0 0 0 0 0 1 0 0 0 0 0 1 0"/></filter></defs><mask id="mask-2_1_" width="2205.4" height="747.9" x="-384.7" y="201" maskUnits="userSpaceOnUse"><g filter="url(#Adobe_OpacityMaskFilter)"><path id="path-1_1_" d="M0 0h1919.5v701.1H0z" class="st1"/></g></mask><path id="Fill-1" fill="#273046" d="M1081.6 948.9c9.8-47.5 14.8-95.2 7.7-142.3-11.7-77.9-64.4-154.7-148.7-176.2-116-29.6-242.3 51.9-361.1 31.4-93.8-16.3-157.8-92.3-194.9-170.3-25-52.5-47.4-113.6-105.6-137.1-80.2-32.3-170 26.2-242.8 74.7C-52.5 488.3-149 538-250.5 576.5c-23.1 8.8-46.8 17-70.8 24.1L-384.7 201c31.1 18 62.5 35.8 94.8 51.9 108.6 54 240.6 89.8 360.6 50.6 47.3-15.4 91.3-42.1 140.9-47.6 75.5-8.4 144.5 34.2 193.9 83.8C455 389.2 493.7 448 552.3 489c67.5 47.2 154.3 64.8 240.3 65.6 86.2.7 152.4-31.5 233.3-55.1 178.2-52 367.9-44.7 527.9 38.2 125.2 64.8 220.8 171.5 267 294.3l-739.2 116.9z" mask="url(#mask-2_1_)"/></g><g transform="translate(.47)"><defs><filter id="Adobe_OpacityMaskFilter_1_" width="1923.5" height="269.7" x="-4.5" y="-57.1" filterUnits="userSpaceOnUse"><feColorMatrix values="1 0 0 0 0 0 1 0 0 0 0 0 1 0 0 0 0 0 1 0"/></filter></defs><mask id="mask-4_1_" width="1923.5" height="269.7" x="-4.5" y="-57.1" maskUnits="userSpaceOnUse"><g filter="url(#Adobe_OpacityMaskFilter_1_)"><path id="path-3_1_" d="M0 0h1919.5v701.1H0z" class="st1"/></g></mask><path fill="#313b52" d="M1919.1-54.8c-13.8 4.8-25.9 10.7-35.4 17.8-32.1 24.3-25.4 57-53.6 82.4-37.3 33.8-125.5 45.4-203 42.5S1475.2 71.2 1397.7 68c-56.1-2.3-118.7 2.6-155.1 23.9 18.7-1.1 36.5 6.7 40.5 15.8 4 9.1-3.6 18.8-15.7 25.9-38.3 22.5-112.1 20.7-163.6 6s-88.6-38.8-132.3-58.8C848.7 24.8 675.2 3.3 508.2 2.1 418.7 1.5 327 5.9 241.6-7.3 168.2-18.6 105.1-42 34.6-57.1H-4.5V60.7c.1.3.3.5.4.8 24.9 47.2 79.3 98.2 175.8 107.9 26.7 2.7 56 1.6 79-5.6 17.9-5.6 30.5-14.4 44.4-22.4 32.7-18.8 73.6-33.5 116.4-46.3C487 72.5 571.8 55.3 660.1 54.7c88.2-.6 180.1 17.6 229.8 53.7 17.4 12.6 29.2 26.9 45.4 40 76.3 61.3 257.6 83.2 382.2 46 21.9-6.5 43.8-16.4 44.1-29 .4-19.4-50-33-45.8-52.3 3.8-17.2 47-24.1 81.9-24.4 60.7-.4 122 7.6 172.9 24.1 35.8 11.6 65.9 27.2 100.9 39.4 71 24.7 162.2 33.8 247.6 26.6V-54.8z" enable-background="new" mask="url(#mask-4_1_)" opacity=".277"/></g><g transform="translate(.47)"><defs><filter id="Adobe_OpacityMaskFilter_2_" width="10" height="9.6" x="405.4" y="162.7" filterUnits="userSpaceOnUse"><feColorMatrix values="1 0 0 0 0 0 1 0 0 0 0 0 1 0 0 0 0 0 1 0"/></filter></defs><mask id="mask-6_1_" width="10" height="9.6" x="405.4" y="162.7" maskUnits="userSpaceOnUse"><g filter="url(#Adobe_OpacityMaskFilter_2_)"><path id="path-5_1_" d="M0 0h1919.5v701.1H0z" class="st1"/></g></mask><path fill="#6f7c9c" d="M414.7 166.6c-1.7-.3-3.1-1.7-3.5-3.4-.1-.4-.4-.6-.8-.6s-.7.3-.8.6c-.4 1.7-1.8 3-3.5 3.4-.4.1-.7.4-.7.8s.3.7.7.8c1.7.3 3.1 1.7 3.5 3.4.1.4.4.6.8.6s.7-.3.8-.6c.4-1.7 1.8-3 3.5-3.4.4-.1.7-.4.7-.8s-.3-.7-.7-.8" mask="url(#mask-6_1_)"/></g><g transform="translate(.47)"><defs><filter id="Adobe_OpacityMaskFilter_3_" width="6" height="6" x="375.4" y="182.6" filterUnits="userSpaceOnUse"><feColorMatrix values="1 0 0 0 0 0 1 0 0 0 0 0 1 0 0 0 0 0 1 0"/></filter></defs><mask id="mask-8_1_" width="6" height="6" x="375.4" y="182.6" maskUnits="userSpaceOnUse"><g filter="url(#Adobe_OpacityMaskFilter_3_)"><path id="path-7_1_" d="M0 0h1919.5v701.1H0z" class="st1"/></g></mask><path fill="#6f7c9c" d="M381 185.1c-1-.2-1.9-1-2.1-2.1-.1-.2-.3-.4-.5-.4s-.4.2-.5.4c-.3 1.1-1.1 1.9-2.1 2.1-.2 0-.4.3-.4.5s.2.5.4.5c1 .2 1.9 1 2.1 2.1.1.2.3.4.5.4s.4-.2.5-.4c.3-1.1 1.1-1.9 2.1-2.1.2 0 .4-.3.4-.5s-.1-.4-.4-.5" mask="url(#mask-8_1_)"/></g><g id="Fill-1-Copy-2-Clipped" transform="translate(.47)"><defs><filter id="Adobe_OpacityMaskFilter_4_" width="9" height="9" x="1203.2" y="421.3" filterUnits="userSpaceOnUse"><feColorMatrix values="1 0 0 0 0 0 1 0 0 0 0 0 1 0 0 0 0 0 1 0"/></filter></defs><mask id="mask-10_1_" width="9" height="9" x="1203.2" y="421.3" maskUnits="userSpaceOnUse"><g filter="url(#Adobe_OpacityMaskFilter_4_)"><path id="path-9_1_" d="M0 0h1919.5v701.1H0z" class="st1"/></g></mask><path id="Fill-1-Copy-2" fill="#6f7c9c" d="M1211.6 425.1c-1.5-.3-2.8-1.6-3.2-3.1-.1-.3-.4-.6-.7-.6-.3 0-.6.2-.7.6-.4 1.6-1.6 2.8-3.2 3.1-.4.1-.6.4-.6.8s.2.7.6.8c1.5.3 2.8 1.6 3.2 3.1.1.3.4.6.7.6.3 0 .6-.2.7-.6.4-1.6 1.6-2.8 3.2-3.1.4-.1.6-.4.6-.8s-.2-.7-.6-.8" mask="url(#mask-10_1_)"/></g><g id="Combined-Shape-Clipped" transform="translate(.47)"><defs><filter id="Adobe_OpacityMaskFilter_5_" width="106" height="115.2" x="274.5" y="600.8" filterUnits="userSpaceOnUse"><feColorMatrix values="1 0 0 0 0 0 1 0 0 0 0 0 1 0 0 0 0 0 1 0"/></filter></defs><mask id="mask-12_1_" width="106" height="115.2" x="274.5" y="600.8" maskUnits="userSpaceOnUse"><g filter="url(#Adobe_OpacityMaskFilter_5_)"><path id="path-11_1_" d="M0 0h1919.5v701.1H0z" class="st1"/></g></mask><path id="Combined-Shape" fill="#364159" d="M285.5 606.1c17.9-14.3 51.3 1.3 74.4 34.8 18.5 26.7 24.9 56.8 17.6 75.2h-3c7.8-17.1 1.5-46.9-16.8-73.4-22.2-32.1-53.9-47.4-70.5-34.1-16.7 13.3-12.2 50.2 10.1 82.3 7.1 10.2 15.1 18.8 23.3 25.2h-4.5c-7.4-6.3-14.6-14.2-21.1-23.4-23.1-33.6-27.4-72.4-9.5-86.6zm8.3 21.7c12.7-10.1 36.2.8 52.5 24.2 16.3 23.4 19.2 50.7 6.5 60.7-2.1 1.6-4.4 2.7-7 3.3h-9.3c-11.8-2.2-25.6-12.2-36.3-27.5-16.2-23.5-19.1-50.7-6.4-60.7zm50.3 26c-15.4-22.1-37.2-32.7-48.7-23.6-11.5 9.1-8.3 34.5 7.1 56.6s37.2 32.7 48.7 23.6c11.5-9.1 8.3-34.5-7.1-56.6zm-12.3 10.1c11 15.8 14 32.6 6.8 38.3-7.2 5.7-21.4-2.2-32.4-18s-14-32.6-6.8-38.3c7.1-5.7 21.4 2.2 32.4 18zM301 648.3c-5.7 4.5-2.4 20.1 7.4 34.1 9.7 14 22.8 21.9 28.5 17.4 5.7-4.5 2.4-20.1-7.4-34.1-9.7-14-22.7-21.9-28.5-17.4zm23.9 20.8c5.8 8.2 7.2 16.8 3.3 19.8-4 3.1-11.4-.8-17.2-9-5.8-8.2-7.2-16.8-3.3-19.8 4-3.1 11.4.8 17.2 9zm-15.5-6.6c-2.2 1.7-1.2 8.6 3.8 15.7s11.1 10.1 13.3 8.4c2.2-1.7 1.2-8.6-3.8-15.7-5.1-7.1-11.1-10.2-13.3-8.4z" mask="url(#mask-12_1_)"/></g><g id="Oval-Clipped" transform="translate(.47)"><defs><filter id="Adobe_OpacityMaskFilter_6_" width="8" height="8" x="350.4" y="314.5" filterUnits="userSpaceOnUse"><feColorMatrix values="1 0 0 0 0 0 1 0 0 0 0 0 1 0 0 0 0 0 1 0"/></filter></defs><mask id="mask-14_1_" width="8" height="8" x="350.4" y="314.5" maskUnits="userSpaceOnUse"><g filter="url(#Adobe_OpacityMaskFilter_6_)"><path id="path-13_1_" d="M0 0h1919.5v701.1H0z" class="st1"/></g></mask><circle id="Oval" cx="354.4" cy="318.5" r="4" fill="#2c364e" mask="url(#mask-14_1_)"/></g><g id="Oval-Copy-Clipped" transform="translate(.47)"><defs><filter id="Adobe_OpacityMaskFilter_7_" width="5" height="5" x="375.4" y="267.5" filterUnits="userSpaceOnUse"><feColorMatrix values="1 0 0 0 0 0 1 0 0 0 0 0 1 0 0 0 0 0 1 0"/></filter></defs><mask id="mask-16_1_" width="5" height="5" x="375.4" y="267.5" maskUnits="userSpaceOnUse"><g filter="url(#Adobe_OpacityMaskFilter_7_)"><path id="path-15_1_" d="M0 0h1919.5v701.1H0z" class="st1"/></g></mask><circle id="Oval-Copy" cx="377.9" cy="270" r="2.5" fill="#2c364e" mask="url(#mask-16_1_)"/></g><g id="Oval-Copy-2-Clipped" transform="translate(.47)"><defs><filter id="Adobe_OpacityMaskFilter_8_" width="5" height="5" x="1481.2" y="161.7" filterUnits="userSpaceOnUse"><feColorMatrix values="1 0 0 0 0 0 1 0 0 0 0 0 1 0 0 0 0 0 1 0"/></filter></defs><mask id="mask-18_1_" width="5" height="5" x="1481.2" y="161.7" maskUnits="userSpaceOnUse"><g filter="url(#Adobe_OpacityMaskFilter_8_)"><path id="path-17_1_" d="M0 0h1919.5v701.1H0z" class="st1"/></g></mask><circle id="Oval-Copy-2" cx="1483.7" cy="164.2" r="2.5" fill="#2c364e" mask="url(#mask-18_1_)"/></g><g id="Oval-Copy-5-Clipped" transform="translate(.47)"><defs><filter id="Adobe_OpacityMaskFilter_9_" width="5" height="5" x="1302.2" y="424.3" filterUnits="userSpaceOnUse"><feColorMatrix values="1 0 0 0 0 0 1 0 0 0 0 0 1 0 0 0 0 0 1 0"/></filter></defs><mask id="mask-20_1_" width="5" height="5" x="1302.2" y="424.3" maskUnits="userSpaceOnUse"><g filter="url(#Adobe_OpacityMaskFilter_9_)"><path id="path-19_1_" d="M0 0h1919.5v701.1H0z" class="st1"/></g></mask><circle id="Oval-Copy-5" cx="1304.7" cy="426.8" r="2.5" fill="#2c364e" mask="url(#mask-20_1_)"/></g><g id="Oval-Copy-6-Clipped" transform="translate(.47)"><defs><filter id="Adobe_OpacityMaskFilter_10_" width="5" height="5" x="1173.2" y="151.7" filterUnits="userSpaceOnUse"><feColorMatrix values="1 0 0 0 0 0 1 0 0 0 0 0 1 0 0 0 0 0 1 0"/></filter></defs><mask id="mask-22_1_" width="5" height="5" x="1173.2" y="151.7" maskUnits="userSpaceOnUse"><g filter="url(#Adobe_OpacityMaskFilter_10_)"><path id="path-21_1_" d="M0 0h1919.5v701.1H0z" class="st1"/></g></mask><circle id="Oval-Copy-6" cx="1175.7" cy="154.2" r="2.5" fill="#6a7284" mask="url(#mask-22_1_)"/></g><g id="Oval-Copy-3-Clipped" transform="translate(.47)"><defs><filter id="Adobe_OpacityMaskFilter_11_" width="3" height="3" x="1466.2" y="173.6" filterUnits="userSpaceOnUse"><feColorMatrix values="1 0 0 0 0 0 1 0 0 0 0 0 1 0 0 0 0 0 1 0"/></filter></defs><mask id="mask-24_1_" width="3" height="3" x="1466.2" y="173.6" maskUnits="userSpaceOnUse"><g filter="url(#Adobe_OpacityMaskFilter_11_)"><path id="path-23_1_" d="M0 0h1919.5v701.1H0z" class="st1"/></g></mask><circle id="Oval-Copy-3" cx="1467.7" cy="175.1" r="1.5" fill="#2c364e" mask="url(#mask-24_1_)"/></g><linearGradient id="Rectangle_1_" x1="277.356" x2="277.356" y1="735.835" y2="734.835" gradientTransform="matrix(1920 0 0 -194 -531563 143261)" gradientUnits="userSpaceOnUse"><stop offset="0" stop-color="#21293c" stop-opacity="0"/><stop offset="1" stop-color="#21293c"/></linearGradient><path id="Rectangle" fill="url(#Rectangle_1_)" d="M0 509h1920v194H0z"/></g></g></svg>
