<svg xmlns="http://www.w3.org/2000/svg" width="1920" height="63" fill="none"><mask id="a" width="1920" height="63" x="0" y="0" maskUnits="userSpaceOnUse" style="mask-type:alpha"><path fill="#fff" d="M0 .5h1920v62H0V.5Z"/></mask><g mask="url(#a)"><path fill="url(#b)" fill-rule="evenodd" d="M1920.27-39.731c-13.81 2.648-25.9 5.868-35.32 9.795-32.05 13.35-25.41 31.322-53.5 45.318-37.27 18.566-125.32 24.97-202.68 23.365-77.36-1.605-151.71-9.242-229.03-10.966-55.98-1.247-118.48 1.448-154.82 13.132 18.69-.624 36.44 3.667 40.41 8.688 3.97 5.02-3.55 10.319-15.66 14.249-38.2 12.386-111.91 11.366-163.33 3.296-51.43-8.07-88.5-21.348-132.134-32.314C851.559 4.01 678.307-7.82 511.574-8.474c-89.321-.35-180.905 2.093-266.206-5.144C172.137-19.831 109.129-32.735 38.71-41H-.295v64.767l.402.425C25.007 50.149 79.3 78.2 175.677 83.531c26.683 1.477 55.896.89 78.874-3.094 17.854-3.095 30.476-7.925 44.293-12.296 32.6-10.31 73.502-18.439 116.226-25.476 75.414-12.421 160.093-21.857 248.17-22.189 88.082-.33 179.802 9.654 229.455 29.506 17.37 6.946 29.147 14.815 45.311 21.974 76.154 33.726 257.244 45.718 381.584 25.268 21.86-3.594 43.78-8.993 44.01-15.956.35-10.673-49.94-18.115-45.69-28.726 3.78-9.459 46.9-13.271 81.77-13.395 60.65-.216 121.85 4.192 172.59 13.26 35.79 6.397 65.79 14.937 100.78 21.651 70.87 13.598 162 18.575 247.22 14.636V-39.731Z" clip-rule="evenodd"/></g><defs><linearGradient id="b" x1="-.295" x2="1906.3" y1="107.257" y2="107.257" gradientUnits="userSpaceOnUse"><stop stop-color="#2C3571" stop-opacity=".7"/><stop offset="1" stop-color="#182034" stop-opacity=".5"/></linearGradient></defs></svg>
