<svg xmlns="http://www.w3.org/2000/svg" xmlns:xlink="http://www.w3.org/1999/xlink" width="1920" height="62"><defs><path id="a" d="M0 0h1920v62H0z"/></defs><g fill="none" fill-rule="evenodd"><mask id="b" fill="#fff"><use xlink:href="#a"/></mask><use fill="#21293C" xlink:href="#a"/><path fill="#263047" d="M1920.267-40.231c-13.811 2.648-25.898 5.868-35.321 9.795-32.044 13.35-25.403 31.322-53.497 45.318-37.265 18.566-125.323 24.97-202.68 23.365-77.358-1.605-151.71-9.242-229.031-10.966-55.981-1.247-118.475 1.448-154.815 13.132 18.685-.624 36.437 3.667 40.41 8.688 3.968 5.02-3.549 10.319-15.667 14.249-38.192 12.386-111.905 11.366-163.33 3.296-51.429-8.07-88.494-21.348-132.13-32.314C851.559 3.51 678.307-8.32 511.574-8.974c-89.321-.35-180.905 2.093-266.206-5.144C172.137-20.331 109.129-33.235 38.71-41.5H-.295v64.767l.402.425C25.006 49.649 79.299 77.7 175.677 83.031c26.683 1.477 55.896.89 78.874-3.094 17.854-3.095 30.476-7.925 44.293-12.296 32.6-10.31 73.502-18.439 116.226-25.476 75.414-12.421 160.093-21.857 248.17-22.189 88.082-.33 179.802 9.654 229.455 29.506 17.37 6.946 29.147 14.815 45.311 21.974 76.154 33.726 257.239 45.718 381.586 25.268 21.857-3.594 43.775-8.993 44.008-15.956.35-10.673-49.937-18.115-45.695-28.726 3.781-9.459 46.901-13.271 81.77-13.395 60.65-.216 121.858 4.192 172.595 13.26 35.788 6.397 65.788 14.937 100.782 21.651 70.867 13.598 161.993 18.575 247.215 14.636V-40.231z" mask="url(#b)"/></g></svg>
