<svg width="40" height="40" xmlns="http://www.w3.org/2000/svg" xmlns:xlink="http://www.w3.org/1999/xlink"><defs><linearGradient x1="100%" y1="50%" x2="0%" y2="50%" id="b"><stop stop-color="#F80" offset="0%"/><stop stop-color="#B44C13" offset="100%"/></linearGradient><linearGradient x1="102.739%" y1="-44.014%" x2="57.655%" y2="80.217%" id="c"><stop stop-color="#FFC588" offset="0%"/><stop stop-color="#FA8721" offset="100%"/></linearGradient><circle id="a" cx="20" cy="20" r="20"/></defs><g fill="none" fill-rule="evenodd"><mask id="d" fill="#fff"><use xlink:href="#a"/></mask><use fill="url(#b)" xlink:href="#a"/><path d="M14.424 46.202c-.445.228-.584-.148-.499-.361.656-1.316 1.294-2.64 1.977-3.941.683-1.3-.146 1.31.574 0 .02-.376-1.92-.977-2.052-.9-.439.367-1.708-.382-2.13 0-3.225 2.912-2.344 3.644-5.556 6.56a9.156 9.156 0 0 1-1.396 1.107c-.656.385-1.354.468-1.813.077-.302-.26-.43-.844-.369-1.262.517-3.455 1.094-6.904 1.653-10.355.333-2.05 1.034-2.412 0-1.778-.83 1.477-.963-1.486-1.795 0-.46.82-.861 1.677-1.381 2.46-.319.48-.678.935-1.073 1.36-.269.272-.632.17-.553-.496.239-1.523.456-3.052.72-4.572.981-5.73 1.849-11.484 3.021-17.185 1.577-7.768 8.699-13.247 16.77-12.9 7.93.296 14.353 6.005 15.335 13.925.659 5.29-.955 10.006-4.923 13.722l-16.51 14.54zM19.5 27.565c4.415.065 7.975-3.227 8.087-7.475.112-4.311-3.581-8.074-8.018-8.17-4.626-.094-8.253 3.2-8.329 7.547-.075 4.347 3.703 8.033 8.26 8.098zm.208 5.15a13.545 13.545 0 0 0 6.719-1.93c.952-.574 1.626-1.327 1-2.42-.668-1.185-1.659-.96-2.72-.38-4.672 2.564-9.402 1.779-12.877-2.171-.774-.889-1.602-1.481-2.675-.593-1.073.89-.604 1.826.139 2.706 2.626 3.081 6.017 4.648 10.414 4.79v-.002zM9.715 20.158a9.02 9.02 0 0 1 2.578-6.871c.81-.86 1.23-1.778.166-2.667-.991-.836-1.855-.335-2.608.474a12.59 12.59 0 0 0-3.481 9.748c.072 1.114.272 2.246 1.798 2.264 1.17 0 1.635-.762 1.568-2.495a13.415 13.415 0 0 0-.02-.453zm22.872-.08c.154-2.344-.505-3.852-1.209-5.612-.387-.969-1.209-1.36-2.197-.963-.988.397-1.263 1.218-.819 2.198a9.681 9.681 0 0 1-.106 8.563c-.46.954-.405 1.876.71 2.37 1.116.496 1.84-.248 2.261-1.057.768-1.49 1.118-1.908 1.36-5.514v.015zM16.476 7.257c-1.115.225-2.249.966-1.97 2.193.302 1.274 1.326 1.342 2.387 1.108 2.934-.652 5.675-.297 8.187 1.392.943.631 1.928.815 2.617-.249.69-1.063.145-1.848-.81-2.477-2.273-1.496-6.431-2.992-10.411-1.967z" fill="url(#c)" fill-rule="nonzero" mask="url(#d)"/></g></svg>
