<svg fill="#FFF" xmlns="http://www.w3.org/2000/svg" viewBox="0 0 25 26" id="use-href-target"><path fill-rule="nonzero" d="M13.488.22c1.464.31 2.396.35 3.908.21L18.99.264c.54-.05.942-.072 1.416-.072.53 0 1.413.398 2.376.918.445.24.856.49 1.19.737.664.492 1.028.992 1.028 1.681v1.125c0 .845-.3 1.655-.844 2.278-1.202 1.375-2.47 3.23-3.582 5.532a27.811 27.811 0 00-1.376 3.401l-1.171 5.225c-.1.806-.165 1.62-.195 2.44-.05 1.377-1.116 2.471-2.433 2.471H8.906c-1.343 0-2.43-1.15-2.437-2.557-.013-2.495.219-5.02.802-7.34.471-1.876 1.139-3.446 2.003-4.692l-.127-.044c-.827-.288-1.255-.373-1.737-.283.01-.002-.02.038-.02.099 0 1.624-1.248 2.953-2.796 2.953H2.797C1.248 14.136 0 12.806 0 11.183V3.146C0 1.522 1.248.192 2.797.192h1.797c.685 0 1.34.266 1.85.746C8.79.08 11.2-.262 13.487.22zM7.533 2.676l-.403.141-1.159.424-.898-.846a.717.717 0 00-.378-.194l-.101-.008H2.797c-.382 0-.738.346-.79.83L2 3.146v8.037c0 .505.326.89.702.946l.095.007h1.797c.382 0 .738-.345.79-.83.035-.91.093-1.51.173-1.799.08-.29.56-.453 1.44-.49 1.079.045 1.922.168 2.527.366l.364.124 2.567.827-1.537 2.216c-.715 1.03-1.29 2.38-1.708 4.041-.51 2.033-.754 4.356-.74 6.841.001.297.176.515.365.56l.071.008H15.4c.211 0 .422-.215.434-.545.024-.658.07-1.313.136-1.963l.073-.65.033-.19 1.171-5.225.052-.188c.409-1.242.901-2.458 1.475-3.646 1.12-2.318 2.455-4.352 3.878-5.979.19-.218.31-.5.341-.807L23 4.653V3.635l-.08-.072-.14-.11a7.34 7.34 0 00-.756-.477l-.193-.106c-.807-.436-1.405-.678-1.425-.678l-.273.003a13.52 13.52 0 00-1.062.07l-.71.076c-2.269.254-3.434.227-5.286-.164-1.668-.352-3.536-.176-5.542.498zm12.307.918c.434.31.66.607.66 1v.8c0 .541-.2 1.06-.561 1.458-.903.993-1.853 2.329-2.685 3.986a19.828 19.828 0 00-1.028 2.434l-.878 3.774c-.075.58-.124 1.166-.146 1.756a.5.5 0 11-1-.038c.024-.62.075-1.236.163-1.895l.9-3.87c.303-.89.668-1.76 1.095-2.61.876-1.744 1.878-3.153 2.839-4.21.194-.213.301-.492.301-.785v-.8c0 .012-.044-.046-.24-.186a.5.5 0 01.58-.814z"/></svg>