<svg width="1920" height="1080" xmlns="http://www.w3.org/2000/svg"><path d="M3066.902 284.303c-31.161 94.76-66.534 195.176-158.86 260.97-25.776 18.369-55.225 33.36-85.975 46.175-80.322 33.475-169 52.157-257.14 69.986l-5.507 1.113-5.506 1.112c-224.464 45.315-448.93 90.63-673.394 135.947l-.913.184-1.828.37c-24.086 4.894-48.972 10.522-66.88 23.98-20.275 15.24-28.084 37.918-32.595 59.664-4.237 20.423-6.374 41.199-8.448 61.958l-.365 3.663-.367 3.662c-3.804 37.839-8.19 75.479-25.495 110.683-56.248 114.429-225.006 164.2-377.031 192.686-171.875 32.207-351.057 54.16-524.906 29.323l-1.801-.26c-27.633-4.023-56.245-9.978-76.258-25.387-13.822-10.642-21.989-24.575-29.44-38.773l-.756-1.445-.377-.723-1.124-2.169-1.122-2.168-.747-1.445a443.295 443.295 0 0 0-4.168-7.886c-78.895-144.977-299.282-212.955-500.17-211.448-132.587.994-261.823 25.158-391.049 50.218l-11.748 2.28c-62.656 12.167-125.334 24.386-188.414 34.118-231.992 35.792-472.368 37.833-705.293 5.989-6.48-.886-2.146-174.401-2.35-191.127-.562-45.867-14.165-118.224 49.543-144.44 38.28-15.752 91.894 1.126 132.276 3.053 26.52 1.266 52.96 1.833 79.362 2.416l7.2.16 7.198.165c43.186 1.003 86.298 2.398 129.535 7.316 82.517 9.385 163.994 27.604 236.145 61.079 7.415 3.44 14.737 7.04 22.025 10.694l2.914 1.465c.971.489 1.942.978 2.912 1.469l2.91 1.471 5.817 2.947 2.91 1.471c26.191 13.232 52.593 26.093 82.045 33.707 110.492 28.56 225.649-22.9 339.905-40.07 67.85-10.196 137.666-8.128 206.569-4.218 130.99 7.43 261.382 21.379 390.128 41.732 59.257 9.368 125.094 24.009 154.134 65.609 26.494 37.953 12.727 85.375 27.16 127.14 16.675 48.256 70.569 84.51 130.259 102 59.69 17.492 124.94 18.848 188.626 17.262 199.382-4.964 415.149-45.091 537.522-168.708 20.048-20.252 37.618-43.635 38.79-69.263 2.46-53.667-63.705-91.61-122.346-119.296 25.644-53.958 105.98-77.681 178.635-85.813 13.077-1.464 26.33-2.667 39.63-3.84l4.434-.391 4.437-.39 4.438-.392c56.221-4.978 112.5-10.792 159.135-34.802 23.536-12.119 42.967-28.127 62.117-44.45l2.497-2.13 2.495-2.132c17.051-14.573 34.145-29.15 53.99-41.198 37.275-22.63 83.006-35.578 119.729-58.757 23.582-14.886 42.581-33.419 61.202-52.255l3.16-3.2 1.051-1.068 2.105-2.136c7.365-7.473 14.746-14.935 22.404-22.176 177.54-167.891 487.542-204.867 765.029-191.281Zm-172.886-499.758c31.892 6.402 49.444 32.735 61.327 56.824 44.205 89.617 64.432 186.467 58.995 282.468-.562 9.917-1.75 20.564-9.853 28.187-7.421 6.982-19.119 9.972-30.385 12.267l-1.25.252c-62.956 12.603-127.856 17.637-192.802 22.275l-8.857.63c-79.708 5.667-159.358 11.23-235.444 29.95-81.167 19.97-155.41 54.291-225.505 92.105-61.245 33.038-122.362 71.321-151.828 124.861-4.66 8.466-8.47 17.226-12.24 25.99l-1.542 3.586-1.032 2.388c-5.519 12.73-11.345 25.33-19.972 36.91-61.126 82.04-195.322 56.13-261.227 129.154-3.438 3.809-6.698 7.73-9.96 11.65l-1.506 1.808c-6.785 8.132-13.7 16.175-22.357 23.088-30.708 24.518-77.357 30.71-120.713 35.643L1532.9 724.486a900.1 900.1 0 0 0-2.865.33l-1.44.17-1.442.174c-20.942 2.554-42.8 6.515-56.22 19.098-9.184 8.61-12.83 19.928-15.73 30.955l-.308 1.18c-7.601 29.303-10.655 64.568 18.062 84.226 13.298 9.104 30.684 12.737 48.045 16.164l1.827.36 1.826.36.912.18 1.822.363 1.818.365c2.422.49 4.83.993 7.213 1.522 22.045 4.894 45.649 14.86 50.704 32.395 3.192 11.074-1.936 22.513-7.743 32.913-39.696 71.095-115.308 128.27-204.217 162.291-88.91 34.023-190.328 45.664-288.906 39.226-38.031-2.485-76.482-7.762-110.368-21.537-115.126-46.804-27.047-136.199-38.762-210.279-9.502-60.086-89.782-97.857-165.643-108.923-31.862-4.647-64.384-6.278-96.855-7.926l-4.638-.236c-43.286-2.21-86.42-4.707-127.716-14.689-31.17-7.533-60.311-19.11-89.547-30.573l-4.386-1.718c-14.625-5.72-29.3-11.36-44.29-16.399-48.002-16.137-102.232-27.98-154.578-27.912-54.455.071-123.292-13.438-176.264-2.758-23.46 4.73-43.721 15.244-63.579 26.43l-2.018 1.14c-1.68.952-3.36 1.907-5.037 2.862l-4.027 2.292-2.015 1.144c-6.045 3.427-12.11 6.812-18.275 10.01-81.935 42.503-189.944 52.333-282.101 25.674-37.576-10.87-71.937-27.181-106.293-43.53l-6.723-3.199-4.484-2.128c-29.159-13.814-58.564-27.234-90.17-36.967-86.112-26.517-156.693-5.789-242.45-8.75l-7.245-.252-14.49-.502c-99.008-3.435-198.008-6.835-297.147-6.38-87.415-225.509-96.726-469.339-26.674-698.549 8.48-27.749 19.573-57.144 47.683-75.249 22.893-14.745 53.388-19.519 82.618-23.266 275.352-35.3 560.712-21.653 828.563 39.624l1.371.314 2.744.632 1.372.318 2.745.64c37.05 8.682 74.04 19.02 104.744 37.333C.592-29.689 21.724-7.214 42.412 15.654l1.909 2.111c3.18 3.521 6.353 7.048 9.546 10.561l1.918 2.106c6.722 7.365 13.548 14.653 20.704 21.69 23.853 23.453 55.272 45.265 90.582 54.501l1.223.313-22.645-1.855c132.66 19.684 259.777 62.043 369.95 123.28 45.974 25.552 93.418 62.525 85.879 106.336-3.951 22.955-22.234 41.747-40.845 60.306l-1.51 1.505-2.263 2.255-1.505 1.504c-4.762 4.763-9.459 9.535-13.852 14.382-30.992 34.196-37.615 100.052 36.112 102.547 20.499.693 40.218-4.497 59.936-9.412l2.367-.588c4.733-1.173 9.467-2.315 14.215-3.342 53.936-11.669 112.953-8.294 164.164 9.388 14.04 4.847 28.13 11.192 36.027 21.51 5.67 7.408 7.504 15.951 9.17 24.586l.262 1.364.263 1.364.266 1.364c.807 4.092 1.706 8.166 3.086 12.113 24.843 71.036 199.458 87.95 275.468 75.26 22.004-3.674 47.17-11.63 52.003-28.87 3.312-11.816-4.279-22.575-12.451-33.429l-.964-1.277c-7.559-10.011-15.268-20.14-15.05-31.287.366-18.595 22.284-32.078 43.098-40.972 88.022-37.612 196.28-44.814 291.116-19.367 6.702 1.798 13.422 3.759 20.16 5.756l2.528.75c2.107.627 4.216 1.256 6.327 1.883l2.534.75 2.535.749c30.86 9.078 62.115 17.147 93.857 12.376 50.083-7.528 84.22-45.519 98.004-84.044 13.783-38.525 12.583-79.336 21.859-118.683 24.095-102.2 152.09-176.48 250.47-235.43 161.252-96.623 352.972-195.153 546.096-246.55 91.069-24.235 186.672-35.572 282.047-45.77l6.22-.663c6.219-.662 12.437-1.32 18.652-1.979 14.012-1.484 28.44-2.95 42.136-.2ZM49.883-63.18C146.377-84.092 251.85-78.5 343.88-47.59c60.963 20.475 114.832 51.118 168.345 82.297l6.687 3.9c55.725 32.506 111.368 65.16 174.546 87.07 16.508 5.726 33.478 10.697 50.407 15.715l4.062 1.205c27.07 8.048 53.93 16.377 78.513 28.266 41.176 19.914 76.406 53.355 75.206 91.298-1.212 38.359-38.71 76.484-20.236 112.01 16.724 32.163 71.463 41.195 114.255 32.299s79.609-30.265 121.138-42.293c57.977-16.792 119.994-14.359 182.442-11.668l6.352.274c41.297 1.776 82.728 3.384 123.253-.654 17.181-1.712 35.068-4.772 48.065-13.753 20.756-14.341 22.76-38.646 24.755-60.29 4.072-44.178 14.806-89.042 43.512-127.181 29.238-38.845 75.207-68.201 123.356-92.854 71.89-36.809 150.291-64.877 228.859-92.123l5.68-1.968 5.68-1.966 8.518-2.946c33.703-11.654 68.184-23.47 104.884-25.9 36.701-2.428 76.683 6.203 99.33 28.994-140.503 39.91-270.683 102.053-380.447 181.612-59.577 43.183-116.601 98.506-112.997 162.085.385 6.794 1.43 13.744 2.493 20.709l.255 1.672c3.102 20.341 5.935 40.71-7.42 57.579-24.951 31.516-83.841 26.355-130.666 21.204-125.916-13.85-256.883 1.947-371.684 44.832-19.893 7.43-42.516 20.565-38.049 37.494 1.725 6.536 7.539 13.023 4.651 19.3-2.341 5.09-9.49 7.64-16.08 9.238-43.564 10.56-93.818 1.995-127.871-21.798-26.815-18.736-43.594-45.664-73.056-61.767-7.52-4.11-15.836-7.512-24.22-10.814l-1.678-.66-1.679-.657-.838-.329-2.514-.986c-17.298-6.806-34.058-13.881-43.85-26.601-22.776-29.587 7.166-67.921-1.22-101.855-10.274-41.576-70.147-60.21-117.226-80.918-41.455-18.234-77.503-42.618-113.54-67.103l-5.232-3.554a4572.157 4572.157 0 0 0-8.729-5.916l-3.498-2.36c-15.753-10.609-31.67-21.052-48.195-30.83-70.215-41.542-150.764-70.512-233.15-93.772C223.46-3.796 181.213-14.09 138.841-23.934c-16.536-3.842-36.833-5.981-51.608-12.85-3.325-1.545-9.37-7.446-15.845-13.29l-.866-.778-.87-.775-.872-.77c-7.132-6.26-14.415-11.754-18.897-10.783Zm118.41 170.116 46.032 3.771c-15.731 1.472-31.064-.02-45.738-3.696l-.293-.075Z" fill="#19233C" fill-rule="evenodd" opacity=".749"/></svg>
