<svg fill="none" xmlns="http://www.w3.org/2000/svg" viewBox="0 0 20 16" id="use-href-target"><path d="m7.157 3.056-4.05-.434.007.013a3.584 3.584 0 0 1 .398 2.162l-.028.168.144.053.197.084c.514.242.96.608 1.28 1.123.31.5.435 1.01.436 1.492l-.005.182.145.024c.54.108 1.123.377 1.518.84l.124.162c.263.381.378.81.389 1.268a3.02 3.02 0 0 1-.024.471l-.016.12.016-.006c.166-.065.305-.112.458-.15l.16-.037a2.443 2.443 0 0 1 1.317.062c.542.188.948.562 1.238 1.041.075.124.137.246.19.363l.02.046.091-.03a3.03 3.03 0 0 1 1.522-.041l.209.054c.587.173 1.062.5 1.429.924l.135.166.106.148.235-.095.246-.08a3.94 3.94 0 0 1 1.894-.067l.18.04-1.367-3.607-.025.008a5.352 5.352 0 0 1-.265.074l-.348.075-.128.024c-.83.147-1.583.13-2.364-.193l-.174-.078a3.53 3.53 0 0 1-.367-.204l-.173-.117-.918-.666.775-.828c.055-.057.105-.117.152-.18l.086-.122.078-.13.195-.355.388-.119c.188-.058.361-.136.518-.234l.152-.105.067-.054-.214.02c-.079.01-.157.02-.235.034l-.23.045-.521.114-.385-.368a1.54 1.54 0 0 0-.144-.12l-.072-.05-.065-.042-.504-.295.01-.584a2.498 2.498 0 0 0-.026-.405l-.038-.202-.015-.06-.04.05-.094.156a1.513 1.513 0 0 0-.162.474l-.017.159-.023.433-.333.279c-.078.066-.15.135-.218.211l-.072.084-.071.094-.608.843-.82-.64a3.366 3.366 0 0 1-.98-1.227c-.275-.587-.35-1.067-.376-1.77a4.914 4.914 0 0 1-.001-.27l.011-.218zm12.25 10.466a1.45 1.45 0 0 1-.442 1.638 1.498 1.498 0 0 1-1.52.23l-.132-.063c-.551-.289-1.16-.415-1.72-.255a1.734 1.734 0 0 0-.299.117l-.143.08a1.505 1.505 0 0 1-1.228.159 1.484 1.484 0 0 1-.875-.71l-.064-.133a1.038 1.038 0 0 0-.657-.581 1.142 1.142 0 0 0-.755.044l-.1.048c-.413.224-.91.242-1.335.049a1.47 1.47 0 0 1-.811-.923l-.032-.137a1.218 1.218 0 0 0-.145-.356c-.067-.11-.13-.168-.18-.186-.118-.04-.326.003-.698.156a1.7 1.7 0 0 0-.398.23l-.12.102c-.534.492-1.35.528-1.902.108a1.452 1.452 0 0 1-.464-1.821l.07-.125c.105-.172.175-.351.208-.534.063-.352.06-.53.013-.596-.033-.048-.144-.108-.326-.146l-.13-.022-.123-.012.035-.012.054-.013-.175.025a1.513 1.513 0 0 1-1.234-.528 1.45 1.45 0 0 1-.319-1.193l.038-.158a.898.898 0 0 0-.094-.725 1.067 1.067 0 0 0-.644-.448l-.115-.023a1.49 1.49 0 0 1-1.061-.676 1.448 1.448 0 0 1-.18-1.133l.044-.143c.053-.145.084-.289.092-.429.03-.515-.229-1.029-.64-1.461a1.448 1.448 0 0 1-.23-1.68A1.485 1.485 0 0 1 2.01.5l.139.009 5.747.615c.402.043.77.246 1.021.568.255.33.357.753.278 1.166a2.737 2.737 0 0 0-.048.41l-.001.208.002.038.044-.075c.27-.429.61-.77.991-1.038l.195-.128a1.506 1.506 0 0 1 1.146-.175c.4.098.742.357.942.716a4.546 4.546 0 0 1 .513 1.466l.008.061.3-.027.208-.013.378-.013c.828-.009 1.274.151 1.651.76l.076.13c.52.944.142 1.73-.65 2.445l-.06.052.14-.032a3.33 3.33 0 0 0 .22-.067l.213-.082a1.508 1.508 0 0 1 1.153-.006c.332.136.605.386.764.703l.06.139 1.966 5.192z" fill="var(--svg-use-color-primary, #976DF6)"/></svg>