<svg fill="#FFF" xmlns="http://www.w3.org/2000/svg" viewBox="0 0 26 26" id="use-href-target"><path fill-rule="nonzero" d="M12.399.006c.165.002.327.004.533.004 2.029 0 3.562.827 5.32 2.63.137.14.417.366.828.666l.01-.006.024.03c.107.078.223.161.347.248a1 1 0 01.023 1.621c-.203.151-.403.41-.591.791-.047.096-.09.192-.128.288.826.311 1.296 1.07 1.228 2.159-.072 1.15-.69 2.3-1.808 3.472l-.3 1.39a2 2 0 01-.32.731c.52.094.993.45 1.25 1.003.122.263.185.553.185.848v.325l5.338 2.66A3 3 0 0126 21.552V23a3 3 0 01-3 3H3a3 3 0 01-3-3v-1.463a3 3 0 011.637-2.672l5.28-2.693.082-.037.001-.255c0-.236.04-.469.12-.687l.065-.161c.23-.495.631-.83 1.086-.966l.014.022a2 2 0 01-.372-.818l-.28-1.373C6.564 10.742 6 9.569 6 8.375c0-.884.304-1.563.839-1.938-.429-1.303-.27-2.657.475-3.994.795-1.428 2.21-2.138 3.94-2.366.43-.056.537-.068.702-.074.108-.004-.014-.005.443.003zm2.08 17.63l-.071.06A1.493 1.493 0 0113.5 18h-1c-.375 0-.718-.138-.982-.366-.08.078-.17.145-.27.2l-1.748.964c-.084.046-.17.084-.26.115L12.19 24h1.621l2.95-5.086a1.644 1.644 0 01-.26-.115l-1.748-.964c-.1-.055-.19-.122-.273-.199zm-7.16.576l-4.773 2.436a1 1 0 00-.546.89v1.463a1 1 0 001 1L11.128 24l-2.954-5.096a1.748 1.748 0 01-.855-.692zm10.507.692L14.87 24l8.129.001a1 1 0 001-1v-1.45a1 1 0 00-.554-.895l-4.802-2.39a1.74 1.74 0 01-.818.638zM8 21v1H4v-1h4zm8.951-5.91l-1.748 1.027A.442.442 0 0015 16.5c0 .162.079.31.203.384l1.748 1.026c.101.06.213.09.326.09.4 0 .723-.376.723-.84v-1.32a.951.951 0 00-.078-.38c-.18-.413-.615-.579-.97-.37zm-7.902 0c-.356-.209-.791-.043-.971.37a.951.951 0 00-.078.38v1.32c0 .464.324.84.723.84.113 0 .225-.03.326-.09l1.748-1.026A.442.442 0 0011 16.5a.442.442 0 00-.203-.383zm4.451.91h-1a.5.5 0 100 1h1a.5.5 0 100-1zm-3.236-2.637l-.03-.043a1 1 0 01.237.646l-.001.771.778.43c.1.054.19.121.273.198.26-.227.604-.365.979-.365h1c.375 0 .718.138.982.366a1.26 1.26 0 01.27-.2l.777-.429v-.995a1 1 0 01.055-.327 6.102 6.102 0 01-5.32-.052zM9.015 6.143l-.082.13c.055.108.117.216.186.324.468.732-.156 1.671-1.012 1.524l-.058-.01-.035-.009-.004.04c-.005.053-.01.13-.01.233 0 .674.4 1.456 1.27 2.34a1 1 0 01.266.502l.104.513.412.304a4.976 4.976 0 005.784.052l.313-.222.142-.659a1 1 0 01.271-.497c.936-.933 1.394-1.741 1.435-2.396.018-.289.088-.23-.353-.182a1 1 0 01-1.103-1.091c.048-.493.163-.975.343-1.443a6 6 0 01-4.072-.466 2.97 2.97 0 00-3.797 1.013zm3.013-4.141a6.197 6.197 0 00-.513.058c-1.166.154-2.024.584-2.453 1.356-.319.572-.47 1.112-.457 1.642a3.97 3.97 0 014.653-.824 5.007 5.007 0 004.007.202 5.638 5.638 0 01-.444-.4C15.405 2.584 14.34 2.01 12.932 2.01c-.218 0-.391-.002-.568-.005C12 2 12.08 2 12.028 2.002z"/></svg>