<svg fill="#FFF" xmlns="http://www.w3.org/2000/svg" viewBox="0 0 32 33" id="use-href-target"><path d="M18.244 2.934a22.62 22.62 0 0 0 .504 2.943c-.429.049-.838.24-1.162.564l-.12.13a1.99 1.99 0 0 0-.392.744 19.962 19.962 0 0 1-.648-2.879l-.07-.474c-.995.68-2.358 2.368-3.171 4.008l-.118.246-.281.617-.25.567-.112.266-.201.498c-.217.554-.37 1.02-.463 1.415l-.043.204.252.05c.68.147 1.4.4 1.927.652l.187.094c.657.347 1.195.872 1.62 1.562.606.986.79 2.051.558 3.129-.107.495-.32 1.054-.573 1.414l-.024.03.002.002-.108.142-.057.083c-1.028 1.385-2.991 2.038-4.76 1.462l-.204-.072c-.939-.36-1.883-1.135-2.414-2.116l-.328-.605-.079.175c-.374.857-.674 2.037-.712 3.071l-.004.22c0 4.582 3.88 8.279 9.018 8.279 1.215 0 2.653-.22 3.957-.704.882-.328 2.076-1.037 2.788-1.743a7.422 7.422 0 0 0 1.1-1.429 9.05 9.05 0 0 0 .264-.471l.138-.277a4.47 4.47 0 0 0 .1-.227c.247-.61.422-1.327.528-2.086.053-.38.085-.743.099-1.033l.008-.31c0-1.062-.123-1.969-.397-2.815a1.995 1.995 0 0 0 1.15-.94l.05-.102.049.019c.179.062.364.099.549.11.406 1.116.599 2.32.599 3.728l-.01.38-.027.426-.031.34c-.082.777-.257 1.811-.624 2.804l-.12.305-.09.201-.123.255-.074.146-.174.319c-.349.617-.868 1.394-1.555 2.076-1.082 1.074-2.637 1.878-3.501 2.199-1.492.554-2.965.758-4.03.812l-.429.015-.194.002C9.681 31.355 5 26.675 5 21.075c0-2.085.879-4.854 2.113-5.888 1.024-.857 1.8-.346 1.99.28l.021.08c.105.47.28.835.49 1.226l.269.49c.327.606.942 1.037 1.369 1.2 1.024.392 2.107-.033 2.616-.68l.08-.11.12-.16.026-.049.053-.12.067-.174c.034-.098.068-.208.092-.322.118-.547.044-1.089-.307-1.66-.252-.41-.535-.675-.85-.84a4.197 4.197 0 0 0-.384-.17l-.349-.13c-.558-.197-1.23-.382-1.495-.341-.655.02-1.055-.22-1.2-.719l-.032-.13-.025-.192c-.094-1.295.553-2.985 1.188-4.414l.4-.877c1.003-2.166 3.054-4.8 4.766-5.496 1.11-.452 2.09-.16 2.226 1.055zm3.965 14.289.037.074c.172.322.423.587.726.77.363.854.528 1.758.528 2.816 0 .807-.153 1.886-.534 2.82-.189.462-.761 1.36-1.194 1.838-.725.8-1.597 1.38-2.373 1.675-1.067.405-2.453.639-3.387.639-2.363 0-4.483-.96-5.884-2.599A6.825 6.825 0 0 1 9 23.417a.5.5 0 1 1 .925-.38c.233.567.558 1.096.963 1.57 1.21 1.414 3.051 2.248 5.124 2.248.818 0 2.083-.214 3.032-.574.632-.24 1.37-.732 1.987-1.412.356-.392.865-1.191 1.01-1.545a6.33 6.33 0 0 0 .384-1.491c.017-.124.031-.245.042-.36l.025-.324c.005-.1.008-.19.008-.266 0-1.396-.317-2.448-1.066-3.53.236.008.473-.025.699-.1l.076-.03zm-.444-.904-.02.005a1.006 1.006 0 0 1-.885-.2 1 1 0 0 1-.203-1.308l.075-.101L23 11.99v-.636h-1.086l-2.207 2.207-.094.083a1 1 0 0 1-1.403-1.403l.083-.094.791-.793H17.5l-.117-.007a1 1 0 0 1 0-1.986l.117-.007h1.585l-.792-.793-.083-.094a1 1 0 0 1 .184-1.409l-.101.089a1.006 1.006 0 0 1 .734-.293.997.997 0 0 1 .586.21l.094.083 2.208 2.207H23v-.637l-2.268-2.723a1 1 0 0 1 1.45-1.372l.086.092.732.877V4.355a1 1 0 0 1 1.993-.117l.007.117V5.59l.732-.876a1 1 0 0 1 1.61 1.179l-.074.101L25 8.717v.638h1.084l2.209-2.207a1 1 0 0 1 1.497 1.32l-.083.094-.793.793H30.5a1 1 0 0 1 .117 1.993l-.117.007h-1.585l.792.793a1 1 0 0 1-1.32 1.497l-.094-.083-2.208-2.207H25v.637l2.268 2.723.075.101a1 1 0 0 1-1.43 1.349l-.06-.051a.213.213 0 0 1-.035-.028l-.086-.091-.732-.877v1.237l-.007.116a.994.994 0 0 1-.672.831.992.992 0 0 1-.321.053 1 1 0 0 1-.993-.884L23 16.355v-1.238l-.058.07-.07.083-.604.725-.086.091a.994.994 0 0 1-.417.233z" fill-rule="evenodd"/></svg>