<svg fill="none" xmlns="http://www.w3.org/2000/svg" viewBox="0 0 16 17" id="use-href-target"><path d="M8 .5c1.657 0 3 3.343 3 5a3.001 3.001 0 0 1-2 2.829V8.5h2a2 2 0 0 1 2 2v5a1 1 0 0 1-1 1H4a1 1 0 0 1-1-1v-5a2 2 0 0 1 2-2h2v-.17A3.001 3.001 0 0 1 5 5.5c0-1.657 1.343-5 3-5zm3 10H5v4h6v-4zM8 2.74l-.061.084a4.404 4.404 0 0 0-.286.478C7.263 4.052 7 4.996 7 5.5a1 1 0 0 0 2 0c0-.504-.262-1.448-.653-2.198a4.404 4.404 0 0 0-.286-.478L8 2.74z" fill="var(--svg-use-color-primary, url(#a))"/><defs><linearGradient id="a" x1="8" y1=".5" x2="8" y2="16.5" gradientUnits="userSpaceOnUse"><stop stop-color="#ECA022"/><stop offset="1" stop-color="#469CBE"/></linearGradient></defs></svg>