<svg xmlns="http://www.w3.org/2000/svg" viewBox="0 0 16 16" id="use-href-target"><path fillRule="evenodd" d="M13 11.268l2.317 1.034c.416.185.683.597.683 1.051v1.495c0 .636-.516 1.152-1.152 1.152H9.3l1.18-2.211a2 2 0 002.515-1.782l.005-.15v-.589zm-5 1.495l1.49.628L8.099 16h-.24l-1.353-2.608L8 12.763zm-5-1.528v.623a2 2 0 002.546 1.924L6.697 16H1.152A1.152 1.152 0 010 14.848v-1.502c0-.45.263-.86.673-1.047L3 11.235zm8.935-.663a1 1 0 01.065.355v1.147a1 1 0 01-1.355.935l-2.172-.824a.732.732 0 010-1.37l2.172-.823a1 1 0 011.29.58zm-7.875.013a1 1 0 011.282-.598l2.202.801a.692.692 0 010 1.301l-2.202.801A1 1 0 014 11.95v-1.023a1 1 0 01.06-.342zm3.866-7.733c1.171.665 2.6.61 3.707-.107a3.07 3.07 0 00-.517 1.419c.708-.076 1.042.205 1.002.841-.04.636-.436 1.325-1.186 2.065l-.216.988-.048.066a3.287 3.287 0 01-5.285.008l-.3-.405-.135-.657c-.713-.717-1.07-1.405-1.07-2.065 0-.593.236-.88.707-.86l.17.124.627-.865a1.952 1.952 0 012.544-.552zM7.953.006c1.279 0 2.182.586 3.163 1.58.047.048.108.103.182.165l.054-.044-.107.09a2.576 2.576 0 01-2.825.186 2.952 2.952 0 00-3.847.834l-.239.327c-.111-.6.01-1.21.36-1.835C5.184.443 6.132.145 6.892.046c.533-.07.324-.04 1.062-.04z"/></svg>