<svg xmlns="http://www.w3.org/2000/svg" width="40" height="40"><g fill="none" fill-rule="evenodd"><rect width="39.37" height="39.37" x=".315" y=".315" fill="#E82F3F" stroke="#0E0E0E" stroke-opacity=".15" stroke-width=".63" rx="8.579"/><path fill="#FFF" fill-rule="nonzero" d="M17.75 32.52c-.28.144-.368-.095-.315-.23.413-.837.815-1.678 1.244-2.505.43-.826.906-1.668 1.358-2.5.014-.239-.142-.21-.226-.162-.276.234-.557.461-.824.704-2.028 1.85-4.053 3.702-6.074 5.554a5.771 5.771 0 0 1-.88.704c-.412.245-.851.298-1.14.05-.19-.166-.27-.537-.232-.803.325-2.195.688-4.386 1.04-6.58.21-1.303 1.09-4.356.44-3.953-.523.938-1.046 1.88-1.57 2.824-.289.521-.542 1.065-.869 1.562a6.7 6.7 0 0 1-.675.865c-.17.173-.398.109-.348-.315.15-.968.287-1.94.452-2.905.619-3.641 1.164-7.297 1.902-10.92.993-4.936 5.475-8.417 10.554-8.197 4.991.188 9.033 3.816 9.651 8.849.415 3.36-.6 6.358-3.098 8.719l-10.39 9.238zm3.24-11.817c2.743.04 4.955-2.046 5.024-4.74.07-2.734-2.224-5.12-4.98-5.18-2.874-.06-5.127 2.029-5.174 4.785-.047 2.756 2.3 5.093 5.13 5.135zm.179 3.28a8.4 8.4 0 0 0 4.222-1.235c.598-.368 1.022-.85.628-1.549-.42-.758-1.042-.614-1.709-.242-2.936 1.64-5.908 1.137-8.093-1.39-.486-.569-1.006-.948-1.68-.38-.675.57-.38 1.169.087 1.732 1.65 1.971 3.781 2.974 6.545 3.065v-.002zM14.846 16a5.877 5.877 0 0 1 1.607-4.405c.505-.55.767-1.14.104-1.71-.618-.535-1.157-.214-1.626.305a8.21 8.21 0 0 0-2.17 6.25c.045.714.17 1.44 1.12 1.45.73 0 1.02-.488.978-1.599a8.844 8.844 0 0 0-.013-.29zm14.514.02c.1-1.526-.324-2.507-.776-3.653-.248-.63-.776-.885-1.41-.626-.634.258-.81.792-.526 1.43a6.379 6.379 0 0 1-.068 5.573c-.295.621-.26 1.22.456 1.543.716.322 1.182-.162 1.451-.688.493-.97.718-1.242.873-3.59v.01zM19.067 7.944c-.695.14-1.401.599-1.228 1.36.188.79.827.832 1.487.687 1.828-.404 3.536-.184 5.1.864.588.391 1.202.505 1.631-.155.43-.66.09-1.146-.505-1.536-1.415-.928-4.006-1.856-6.485-1.22z"/></g></svg>
