<svg xmlns="http://www.w3.org/2000/svg" xmlns:xlink="http://www.w3.org/1999/xlink" width="44" height="57"><defs><path id="a" d="M17.539 52.902c-.54.286-.71-.185-.606-.453.797-1.649 1.573-3.31 2.403-4.94.83-1.63 1.75-3.29 2.624-4.932.026-.472-.276-.416-.437-.32-.533.461-1.077.91-1.592 1.39A6529.89 6529.89 0 008.194 54.603c-.52.518-1.089.984-1.698 1.39-.798.482-1.647.586-2.205.096-.368-.327-.522-1.058-.448-1.582.628-4.33 1.33-8.654 2.01-12.981.404-2.57 2.105-8.595.849-7.8-1.01 1.852-2.02 3.71-3.032 5.571-.559 1.029-1.048 2.102-1.68 3.083a13.013 13.013 0 01-1.304 1.705c-.327.342-.768.215-.673-.62.29-1.91.555-3.826.875-5.731C2.082 30.55 3.137 23.337 4.563 16.19 6.48 6.453 15.14-.415 24.955.02c9.643.37 17.452 7.528 18.647 17.456.8 6.63-1.162 12.543-5.987 17.2L17.54 52.903zm6.174-23.362c5.369.082 9.698-4.045 9.834-9.37.136-5.405-4.355-10.122-9.75-10.241-5.626-.119-10.036 4.011-10.128 9.46-.092 5.449 4.502 10.07 10.044 10.151zm.253 6.455a16.108 16.108 0 008.17-2.418c1.157-.72 1.977-1.664 1.216-3.034-.812-1.486-2.017-1.204-3.307-.476-5.682 3.213-11.433 2.229-15.66-2.722-.94-1.114-1.947-1.857-3.251-.743-1.305 1.114-.735 2.288.169 3.391 3.193 3.863 7.316 5.828 12.663 6.006v-.004zm-12.153-15.74c-.19-3.188.946-6.31 3.135-8.614.985-1.077 1.496-2.228.202-3.343-1.205-1.047-2.256-.42-3.171.595a16.073 16.073 0 00-4.234 12.22c.089 1.396.331 2.815 2.187 2.837 1.422 0 1.988-.954 1.907-3.127-.007-.22-.015-.405-.026-.569zm27.812-.1c.188-2.939-.613-4.83-1.47-7.035-.47-1.215-1.47-1.705-2.671-1.208-1.202.498-1.536 1.527-.996 2.756a12.473 12.473 0 01-.129 10.734c-.558 1.196-.492 2.351.864 2.972 1.356.62 2.238-.312 2.749-1.326.933-1.868 1.36-2.392 1.653-6.912v.018zM20.035 4.082c-1.357.282-2.735 1.21-2.397 2.748.368 1.597 1.614 1.683 2.903 1.39 3.569-.818 6.902-.372 9.956 1.745 1.146.791 2.344 1.022 3.182-.312.838-1.333.177-2.317-.985-3.105-2.763-1.876-7.82-3.751-12.66-2.466z"/></defs><use fill="#E82F3F" fill-rule="nonzero" xlink:href="#a"/></svg>
