<svg xmlns="http://www.w3.org/2000/svg" width="56" height="56" fill="none"><path fill="#E82F3F" d="M10.5 5.659c0-4.524 4.995-7.212 8.706-4.687l32.827 22.342c3.29 2.238 3.29 7.134 0 9.372L19.206 55.028c-3.71 2.525-8.706-.163-8.706-4.687V5.66z"/><path fill="#fff" d="M23.458 31.265a68.637 68.637 0 0 1-4.619-1.573c-1.385-.532-2.578-1.177-3.58-1.933-1-.757-1.78-1.66-2.338-2.708-.558-1.048-.837-2.329-.837-3.841 0-2.923 1.26-5.26 3.782-7.014 2.521-1.753 6.053-2.63 10.595-2.63 1.655 0 3.194.103 4.619.31 1.424.206 2.646.524 3.666.954 1.02.43 1.819.98 2.396 1.65.577.67.866 1.452.866 2.346 0 .894-.231 1.659-.693 2.295a6.777 6.777 0 0 1-1.674 1.624c-.847-.48-1.983-.902-3.407-1.263-1.424-.361-2.983-.541-4.676-.541-1.732 0-3.003.214-3.811.644-.808.43-1.212.971-1.212 1.624 0 .516.25.937.75 1.264.5.326 1.251.627 2.252.902l3.06.877c3.618 1.031 6.399 2.346 8.343 3.945 1.944 1.599 2.916 3.773 2.916 6.523 0 2.922-1.29 5.286-3.869 7.09-2.579 1.806-6.37 2.708-11.374 2.708-1.77 0-3.416-.129-4.936-.387s-2.849-.636-3.984-1.134c-1.136-.499-2.021-1.117-2.656-1.857a3.802 3.802 0 0 1-.953-2.552c0-.997.327-1.848.982-2.553.654-.705 1.366-1.246 2.136-1.624 1.078.756 2.396 1.41 3.955 1.96 1.559.55 3.262.824 5.11.824 1.886 0 3.214-.257 3.983-.773.77-.516 1.155-1.117 1.155-1.805s-.308-1.212-.924-1.573c-.615-.36-1.482-.713-2.598-1.057l-2.425-.722z"/></svg>
