<svg fill="#FFF" xmlns="http://www.w3.org/2000/svg" viewBox="0 0 26 26" id="use-href-target"><path fill-rule="nonzero" d="M18.593 1.082l1.542 2.968.002.003 3.15 1.025A2.018 2.018 0 0124.63 7.42l-.7 3.278a.029.029 0 00.002.02l1.764 2.838a2.026 2.026 0 01-.465 2.659l-2.392 1.88-1.104 2.997-.933 2.285-.7-.028-3.302-.13-2.449 2.254a1.992 1.992 0 01-2.7 0L9.202 23.22l-3.302.13a2.005 2.005 0 01-2.062-1.744l-.448-3.323c0-.007-.003-.011-.006-.013L.77 16.214a2.025 2.025 0 01-.465-2.658l1.763-2.838a.028.028 0 00.003-.02l-.7-3.278a2.017 2.017 0 011.342-2.342l3.15-1.025.002-.003 1.542-2.968a1.996 1.996 0 012.535-.93L13 1.42 16.059.152a1.995 1.995 0 012.534.93zm-9.41.92L7.64 4.972c-.243.467-.659.82-1.158.983L3.332 6.98c-.002 0-.007.01-.005.022l.7 3.278c.11.513.017 1.049-.26 1.494l-1.763 2.838c-.007.01-.004.026.002.03l2.615 2.056c.412.324.681.797.751 1.317l.448 3.324c.002.01.004.012.001.012l3.305-.13a1.996 1.996 0 011.429.526L13 23.997l2.446-2.25a1.992 1.992 0 011.428-.526l2.605.102.39-.954 1.288-3.497.223-.174 2.614-2.055c.006-.005.009-.02.002-.031l-1.763-2.838a2.03 2.03 0 01-.26-1.493l.7-3.28c.002-.011-.003-.02-.005-.021l-3.15-1.025a2.006 2.006 0 01-1.158-.983l-1.542-2.969L13.76 3.27a1.991 1.991 0 01-1.521 0L9.182 2.001zM13 7c.116 0 .231.004.345.01a3.981 3.981 0 00-.823 1.013 5 5 0 105.456 5.454 3.99 3.99 0 001.012-.82A6 6 0 1113 7zm3 0a3 3 0 110 6 3 3 0 010-6zm0 1a2 2 0 100 4 2 2 0 000-4z"/></svg>