<svg xmlns="http://www.w3.org/2000/svg" viewBox="0 0 17 16" id="use-href-target"><path d="M9.272 1a1 1 0 0 1 1 1v1h2a1 1 0 0 1 0 2h-1v.756c0 1.315-.308 2.528.81 3.2l.19.107c1.23.645 2 1.919 2 3.307V15a1 1 0 0 1-1 1h-10a1 1 0 0 1-1-1v-2.626a3.75 3.75 0 0 1 1.81-3.21l.19-.108c1.23-.65 1-1.927 1-3.318V5h-1a1 1 0 1 1 0-2h2V2a1 1 0 0 1 1-1h2zm0 4h-2v.738c0 2.051-.09 3.94-1.851 4.967l-.215.12c-.53.28-.877.81-.927 1.4l-.007.149V14h8v-1.63c0-.595-.304-1.145-.8-1.461l-.128-.075c-1.816-.952-1.98-2.797-2.066-4.833l-.006-.245V5z" fill="var(--svg-use-color-primary, #47C18E)"/></svg>