<svg fill="#FFF" xmlns="http://www.w3.org/2000/svg" viewBox="0 0 41 26" id="use-href-target"><path fill-rule="nonzero" d="M27.999 0c1.278.001 2.561.562 3.537 1.54l8.048 8.068c.952.954 1.393 2.173 1.416 3.428.023 1.256-.376 2.548-1.296 3.537l-7.292 7.832a4.985 4.985 0 01-6.883.409l-.182-.162-2.37-2.224A4 4 0 0119 26H4a4 4 0 01-4-4V8a4 4 0 014-4h15c.852 0 1.643.267 2.292.721l3.172-3.182C25.442.56 26.718 0 28 0zM19 6H4a2 2 0 00-1.995 1.85L2 8v14a2 2 0 001.85 1.995L4 24h15a2 2 0 001.995-1.85L21 22V8a2 2 0 00-1.85-1.994L19 6zm7.023-3.252l-.144.136L23 5.78v13.913l3.759 3.534.06.054.032.031a2.983 2.983 0 003.965-.137l.133-.136 7.293-7.862c.567-.611.788-1.4.758-2.177-.026-.673-.228-1.339-.698-1.876l-.132-.14-8.049-8.1a2.987 2.987 0 00-4.098-.136zM8 18a2 2 0 110 4 2 2 0 010-4zm7 0a2 2 0 110 4 2 2 0 010-4zm-7 1a1 1 0 100 2 1 1 0 000-2zm7 0a1 1 0 100 2 1 1 0 000-2zm10-5a2 2 0 110 4 2 2 0 010-4zM8 13a2 2 0 110 4 2 2 0 010-4zm17 2a1 1 0 100 2 1 1 0 000-2zm-10-2a2 2 0 110 4 2 2 0 010-4zm-7 1a1 1 0 100 2 1 1 0 000-2zm7 0a1 1 0 100 2 1 1 0 000-2zm13-3a2 2 0 110 4 2 2 0 010-4zm0 1a1 1 0 100 2 1 1 0 000-2zM8 8a2 2 0 110 4 2 2 0 010-4zm7 0a2 2 0 110 4 2 2 0 010-4zm16 0a2 2 0 110 4 2 2 0 010-4zM8 9a1 1 0 100 2 1 1 0 000-2zm7 0a1 1 0 100 2 1 1 0 000-2zm16 0a1 1 0 100 2 1 1 0 000-2zm-2.053-4.75l.114.104L30.207 5.5l-.707.707-1.146-1.146a.5.5 0 00-.638-.058l-.07.058L26.5 6.207l-.707-.707 1.146-1.146a1.5 1.5 0 012.008-.103z"/></svg>