<svg fill="#FFF" xmlns="http://www.w3.org/2000/svg" viewBox="0 0 33 32" id="use-href-target"><path fill-rule="evenodd" clip-rule="evenodd" d="M27.267 8.71c.18-.348.292-.733.324-1.134l.238-2.977-3.396.361a1.998 1.998 0 0 0-1.466.9l-.994 1.532.031-2.505a2 2 0 0 0-.72-1.562L18.659 1.14l-1.412 2.534a3 3 0 0 0-.077 2.771l.044.091c-3.634-1.688-8.217-.217-9.999 3.728l-3.53 7.818A8.23 8.23 0 0 0 14.572 28.97l7.818-3.53c3.892-1.758 5.376-6.242 3.794-9.85l.132.055a3 3 0 0 0 2.637-.138l2.615-1.456-2.185-2.625a2 2 0 0 0-1.562-.72l-2.956.036 1.369-.889a3 3 0 0 0 1.033-1.141zm1.221 4.766-.642-.772-2.974.037.012.117 2.217.947a1 1 0 0 0 .88-.046l.507-.283zm-3.343-5.301a1 1 0 0 0 .452-.76l.046-.572-.998.106-1.74 2.68 2.24-1.454zM19.97 7.63l.034-2.769-.772-.642-.238.427a1 1 0 0 0-.025.924l1 2.06zm-2.02 1.83c-2.722-2.723-7.327-1.883-8.912 1.627l-3.53 7.818a6.23 6.23 0 0 0 8.24 8.24l7.818-3.53c3.51-1.585 4.35-6.19 1.628-8.913L17.95 9.46zm-4.252 14.63a3.593 3.593 0 0 1-5.081 0l-.708.708a4.593 4.593 0 0 0 6.496 0l-.707-.707zm.955-11.393a1 1 0 1 1-1.414-1.414 1 1 0 0 1 1.414 1.414zm5.573 6.987a1 1 0 1 0 1.414-1.413 1 1 0 0 0-1.414 1.413zm-3.601-2.187a1 1 0 1 1-1.415-1.414 1 1 0 0 1 1.415 1.414zm-5.274 3.86a1 1 0 1 0 1.414-1.415 1 1 0 0 0-1.414 1.415z"/></svg>