<svg xmlns="http://www.w3.org/2000/svg" xmlns:xlink="http://www.w3.org/1999/xlink" width="30" height="30"><defs><linearGradient id="c" x1="71.463%" x2="36.712%" y1="0%" y2="78.465%"><stop offset="0%" stop-color="#F2556B"/><stop offset="100%" stop-color="#E93748"/></linearGradient><filter id="a" width="142.1%" height="127.6%" x="-21.1%" y="-6.9%" filterUnits="objectBoundingBox"><feOffset dy="2" in="SourceAlpha" result="shadowOffsetOuter1"/><feGaussianBlur in="shadowOffsetOuter1" result="shadowBlurOuter1" stdDeviation="1"/><feColorMatrix in="shadowBlurOuter1" values="0 0 0 0 0 0 0 0 0 0 0 0 0 0 0 0 0 0 0.200174825 0"/></filter><path id="b" d="M14.5 24.5c1.13 0 3.464-9.998 3.982-9.998.518 0 .059 7.348.827 6.085 1.457-2.394 2.414-5.83 3.24-8.811C23.312 9.013 24 6.68 24 5c0-5.247-4.253-9.5-9.5-9.5S5-.247 5 5c0 1.394.74 4.211 1.525 7.047 1.16 4.194 2.57 8.458 3.07 8.458.836 0 .39-6.003.902-6.003.511 0 2.874 9.998 4.003 9.998z"/></defs><g fill="none" fill-rule="nonzero"><g transform="rotate(90 12.5 13)"><use fill="#000" filter="url(#a)" xlink:href="#b"/><use fill="url(#c)" xlink:href="#b"/></g><path fill="#FFF" d="M21.031 18a2.911 2.911 0 002.968-2.867c.041-1.653-1.314-3.096-2.942-3.132-1.698-.037-3.029 1.227-3.057 2.894-.027 1.666 1.359 3.08 3.031 3.105z"/></g></svg>
