<svg fill="#FFF" xmlns="http://www.w3.org/2000/svg" viewBox="0 0 32 34" id="use-href-target"><path fill-rule="evenodd" d="M16.945 4.243c-.123-.93.371-1.263.736-1.299.374-.037 1.195.206 1.619 1.701.87 3.07.31 6.258-.58 8.59a1 1 0 0 0 .934 1.356h7.887c.9 0 1.698.772 1.698 1.804 0 .459-.16.872-.42 1.186a1 1 0 0 0 .277 1.506c.526.3.9.893.9 1.593 0 .87-.575 1.567-1.296 1.753a1 1 0 0 0-.59 1.514c.188.288.3.64.3 1.023 0 .872-.575 1.568-1.297 1.753a1 1 0 0 0-.59 1.514c.188.288.3.638.3 1.021 0 1.032-.798 1.803-1.698 1.803H10.89v-.995a1 1 0 0 0-2-.002 1 1 0 0 1-1 .997H3.003a1 1 0 0 1-1-1V17.733a1 1 0 0 1 1-1H7.89a1 1 0 0 1 1 .998 1 1 0 0 0 2-.002V15.77c.011-.137.186-1.758 2.14-3.653 2.371-2.3 4.34-4.642 3.915-7.875zm1.038 28.818h7.142c2.077 0 3.697-1.74 3.697-3.803a3.9 3.9 0 0 0-.147-1.064 3.83 3.83 0 0 0 1.735-3.224c0-.37-.051-.727-.147-1.067a3.83 3.83 0 0 0 1.734-3.223 3.85 3.85 0 0 0-1.094-2.7 3.881 3.881 0 0 0 .336-1.585c0-2.063-1.62-3.804-3.698-3.804h-6.497c.707-2.427 1.036-5.47.18-8.49V4.1c-.603-2.129-2.123-3.306-3.74-3.146-1.627.16-2.773 1.641-2.522 3.55.284 2.157-.933 3.86-3.324 6.178-1.784 1.73-2.41 3.352-2.63 4.266a2.991 2.991 0 0 0-1.118-.215H3.003a3 3 0 0 0-3 3v12.328a3 3 0 0 0 3 3H7.89c.463 0 .902-.105 1.294-.292.18.18.43.292.706.292h8.093zm-7.578-12.218c0-.244-.224-.44-.5-.44s-.5.196-.5.44v6.182c0 .243.224.44.5.44s.5-.197.5-.44v-6.182z" clip-rule="evenodd"/></svg>