<svg fill="none" xmlns="http://www.w3.org/2000/svg" viewBox="0 0 16 17" id="use-href-target"><path fill-rule="evenodd" clip-rule="evenodd" d="M1 .5a1 1 0 0 0-1 1v15h2v-3.727l1.432.26a12.9 12.9 0 0 0 5.115-.102 10.947 10.947 0 0 1 4.67-.024L16 13.5V2.59l-2.784-.592a10.948 10.948 0 0 0-4.67.023 12.87 12.87 0 0 1-5.113.103L2 1.864V1.5a1 1 0 0 0-1-1zm1 3.396v6.844l1.79.325c1.432.26 2.9.231 4.32-.086a12.948 12.948 0 0 1 5.523-.028l.367.078V4.21l-1.2-.255a8.948 8.948 0 0 0-3.817.02 14.88 14.88 0 0 1-5.908.118L2 3.896zm5.22 5.555c.248.224.453.394.58.492a.326.326 0 0 0 .4 0 10.95 10.95 0 0 0 1.31-1.207c.717-.78 1.143-1.51 1.143-2.145 0-.882-.669-1.604-1.495-1.604a1.4 1.4 0 0 0-.51.096A1.504 1.504 0 0 0 8 5.577a1.504 1.504 0 0 0-.648-.494 1.4 1.4 0 0 0-.51-.096c-.826 0-1.494.722-1.494 1.604 0 .622.412 1.365 1.218 2.22.03.033.157.159.32.317l.335.323zm.805-.662c.265-.234.52-.48.748-.729.692-.753.88-1.237.88-1.469 0-.4-.288-.604-.495-.604a.458.458 0 0 0-.362.196L8 7.227l-.796-1.044a.458.458 0 0 0-.362-.196c-.207 0-.494.205-.494.604 0 .216.173.714.946 1.535l.715.676-.694-.654a11.824 11.824 0 0 0 .268.263c.06.06.167.162.32.308l.1.09.006-.007.164.155-.164-.155.016-.013z" fill="var(--svg-use-color-primary, #469CBE)"/></svg>