<svg fill="#FFF" xmlns="http://www.w3.org/2000/svg" viewBox="0 0 28 26" id="use-href-target"><path fill-rule="nonzero" d="M10.5 0C16.299 0 21 4.701 21 10.5v6.499l3-.002v-3.168a3.001 3.001 0 112 0v5.168h-5V24a2 2 0 01-2 2H2a2 2 0 01-2-2V10.5C0 4.701 4.701 0 10.5 0zM19 20H2v4h3v-1a2 2 0 012-2h7a2 2 0 012 2v1h3v-4zm-5 3H7v1h7v-1zM7 12H2v7h5v-7zm6 0H8v7h5v-7zm6 0h-5v7h5v-7zM4.956 14a.5.5 0 01.472.664l-.695 2a.5.5 0 11-.945-.328L4.253 15h-.297a.5.5 0 110-1h1zm6 0a.5.5 0 01.472.664l-.695 2a.5.5 0 01-.945-.328L10.253 15h-.297a.5.5 0 110-1h1zm6 0a.5.5 0 01.472.664l-.695 2a.5.5 0 01-.945-.328L16.253 15h-.297a.5.5 0 110-1h1zM25 10a1 1 0 100 2 1 1 0 000-2zM10.5 2A8.5 8.5 0 002 10.5v.5h17v-.5A8.5 8.5 0 0010.5 2zm.5 2a6 6 0 016 6H4a6 6 0 016-6h1zm0 1h-1a5.002 5.002 0 00-4.9 4h10.8A5.002 5.002 0 0011 5z"/></svg>