<svg xmlns="http://www.w3.org/2000/svg" fill="none" viewBox="0 0 16 16" id="use-href-target"><path fill="var(--svg-use-color-primary, #E82F3F)" d="M8.808 0C12.228 0 15 2.746 15 6.133v4.713c0 .86-.522 1.637-1.323 1.969l-.369.152a2.14 2.14 0 0 0-1.26 1.456l-.066.268c-.193.769-.89 1.309-1.69 1.309L9 15.325 8 16l-1-.675L5.622 16c-.784 0-1.46-.548-1.614-1.31l-.039-.19a2.138 2.138 0 0 0-1.294-1.552l-.339-.138A2.133 2.133 0 0 1 1 10.836V6.133C1 2.746 3.772 0 7.192 0h1.616Zm0 2H7.192C4.943 2 3.114 3.744 3.005 5.927L3 6.133v4.703c0 .037.018.074.051.1l.038.021.34.138a4.143 4.143 0 0 1 2.308 2.35l.08.231 1.343-.657.84.567.87-.587 1.31.686.064-.186c.373-1 1.12-1.82 2.088-2.285l.211-.095.369-.152a.141.141 0 0 0 .082-.084l.006-.037V6.133c0-2.21-1.76-4.02-3.983-4.128L8.807 2Zm-1.486 8.086c.105-.297.487-.47.853-.384.23.053.409.198.474.384l.31.88c.105.298-.107.608-.474.693a.84.84 0 0 1-.19.021h-.62c-.38 0-.69-.25-.69-.56 0-.051.01-.103.027-.153l.31-.88ZM6 7a1 1 0 1 1 0 2 1 1 0 0 1 0-2Zm4 0a1 1 0 1 1 0 2 1 1 0 0 1 0-2Z"/></svg>