<svg fill="#FFF" xmlns="http://www.w3.org/2000/svg" viewBox="0 0 40 26" id="use-href-target"><path fill-rule="nonzero" d="M27 0c7.18 0 13 5.82 13 13s-5.82 13-13 13H13C5.82 26 0 20.18 0 13S5.82 0 13 0h14zm0 2H13C6.925 2 2 6.925 2 13c0 5.979 4.77 10.843 10.712 10.996L13 24h14c6.075 0 11-4.925 11-11 0-5.979-4.77-10.843-10.712-10.996L27 2zm0 3a8 8 0 110 16h-3.148l-.043-.054a4.838 4.838 0 00-7.55.054H13a8 8 0 110-16h14zm0 1H13a7 7 0 100 14h2.801a5.838 5.838 0 018.508 0H27a7 7 0 000-14zM16.02 8.168v1.128c-.59-.459-1.477-.512-2.232-.07l-1.75 1.027c-.967.566-1.35 1.732-.854 2.603l1.346 2.366c.495.871 1.68 1.118 2.648.552l.84-.494v1.052l-.392.23c-1.45.85-3.228.48-3.972-.827l-1.346-2.366c-.743-1.307-.17-3.055 1.28-3.905l1.752-1.026c.873-.512 1.866-.582 2.68-.27zm10.409.162l.197.108 1.751 1.026c1.395.817 1.979 2.465 1.36 3.752l-.08.153-1.345 2.366c-.715 1.257-2.386 1.647-3.803.92l-.17-.093-.321-.188v-1.052l.77.452c.919.538 2.035.342 2.57-.426l.079-.126 1.345-2.366c.471-.828.15-1.92-.713-2.514l-.14-.09-1.751-1.026c-.725-.424-1.572-.392-2.16.017V8.142c.738-.26 1.613-.212 2.41.188zM21 7a3 3 0 013 3v4a3 3 0 01-3 3h-2a3 3 0 01-3-3v-4a3 3 0 013-3h2zm0 1h-2a2 2 0 00-2 2v4a2 2 0 002 2h2a2 2 0 002-2v-4a2 2 0 00-2-2z"/></svg>