<svg fill="#FFF" xmlns="http://www.w3.org/2000/svg" viewBox="0 0 28 26" id="use-href-target"><path fill-rule="nonzero" d="M15.276.307a2.964 2.964 0 011.345 1.347l2.567 5.207 5.74.836a2.965 2.965 0 011.642 5.058l-4.153 4.054.98 5.723A2.965 2.965 0 0119.1 25.66l-5.134-2.703-5.134 2.703a2.96 2.96 0 01-4-1.245 2.969 2.969 0 01-.298-1.882l.98-5.723-4.153-4.054a2.968 2.968 0 011.642-5.058l5.74-.836 2.567-5.207A2.96 2.96 0 0115.276.307zm-2.14 2.121l-.056.1-3.027 6.14-6.768.985a.987.987 0 00-.63 1.594l.083.092 4.897 4.78-1.156 6.748a.99.99 0 001.328 1.09l.105-.048 6.053-3.186 6.053 3.186a.986.986 0 001.446-.928l-.013-.114-1.156-6.749 4.897-4.779a.989.989 0 00-.434-1.663l-.113-.023-6.768-.984-3.026-6.14a.988.988 0 00-1.714-.1zm1.485 4.627a.495.495 0 01-.354.918l-.083-.032a.493.493 0 00-.615.149l-.047.076-1.55 3.146-3.469.505a.493.493 0 00-.331.775l.058.068 2.51 2.449-.593 3.458a.495.495 0 00.634.555l.082-.034 3.102-1.633 3.102 1.633a.493.493 0 00.723-.432l-.007-.09-.548-3.201a.494.494 0 01.95-.254l.023.087.548 3.202a1.483 1.483 0 01-2.001 1.63l-.148-.067-2.642-1.392-2.642 1.392a1.48 1.48 0 01-1.928-.5l-.072-.123a1.484 1.484 0 01-.168-.78l.019-.16.504-2.947-2.137-2.085a1.484 1.484 0 01-.127-1.983l.1-.114a1.48 1.48 0 01.689-.4l.158-.033 2.954-.43 1.322-2.68a1.48 1.48 0 011.984-.673z"/></svg>