<svg xmlns="http://www.w3.org/2000/svg" viewBox="0 0 17 16" id="use-href-target"><path d="M5.559 2.865c1.587-1.131 3.122-1.472 4.703-1.271-.7 1.4-1.331 2.428-1.628 3.56-.43 1.264-.329 2.733.414 4.497A4.614 4.614 0 0 0 11 11.875c.598.355 1.316.62 2.158.783l.275.048-.012.02c-.578.86-1.263 1.252-2.015 1.491l-.174.053a5.915 5.915 0 0 1-2.656.151 6.376 6.376 0 0 1-3.16-1.542 6.662 6.662 0 0 1-1.933-3.017 6.61 6.61 0 0 1 .05-4.026 6.453 6.453 0 0 1 2.026-2.97Z" fill-rule="nonzero" stroke="var(--svg-use-color-primary, #976DF6)" stroke-width="2" fill="none"/></svg>