<svg xmlns="http://www.w3.org/2000/svg" viewBox="0 0 17 16" id="use-href-target"><path d="m11.715.378.38.11a6.03 6.03 0 0 1 3.902 3.507l.098.257.084.25-7.64 8.478a2 2 0 0 1-.776.53L2.3 15.586a1 1 0 0 1-1.289-1.292l2.097-5.491a2 2 0 0 1 .493-.738L11.715.378Zm-1.738 4.4-5 4.739-.343.895.948-1.166a.5.5 0 0 1 .827.555l-.05.075-1.425 1.754L7.42 9.146a.5.5 0 0 1 .765.638l-.058.07-2.225 2.223 1.152-.436 4.69-5.205a3.997 3.997 0 0 1-1.766-1.658Zm2.229-2.11-.676.64a1.988 1.988 0 0 0 1.579 1.486l.102.013.613-.679-.038-.06a4.032 4.032 0 0 0-1.34-1.27l-.24-.13Z" fill="var(--svg-use-color-primary, #E82F3F)" fill-rule="nonzero"/></svg>