<svg fill="#FFF" xmlns="http://www.w3.org/2000/svg" viewBox="0 0 25 26" id="use-href-target"><path fill-rule="nonzero" d="M17 0c1.15 0 2.208.373 3.052 1H20c2.761 0 5 2.149 5 4.8v14.4c0 2.635-2.211 4.773-4.949 4.8-.844.627-1.902 1-3.051 1H5c-2.761 0-5-2.156-5-4.815V4.815C0 2.155 2.239 0 5 0h12zm0 2H5C3.343 2 2 3.285 2 4.87v16.26C2 22.715 3.343 24 5 24h12c1.657 0 3-1.285 3-2.87V4.87C20 3.285 18.657 2 17 2zm4.106.066l.025.036A4.67 4.67 0 0122 4.815v16.37a4.67 4.67 0 01-.877 2.725C22.785 23.443 24 21.965 24 20.213V5.769c0-1.758-1.223-3.24-2.894-3.703zM4.5 19a.5.5 0 01.5.5V21h1.5a.5.5 0 110 1h-2a.5.5 0 01-.5-.5v-2a.5.5 0 01.5-.5zM9.468 9c.282 0 .558.08.794.229l4.063 2.56a1.423 1.423 0 010 2.422l-4.063 2.56c-.682.43-1.59.236-2.029-.432A1.419 1.419 0 018 15.56v-5.12C8 9.643 8.657 9 9.468 9zm.017 1a.48.48 0 00-.485.473v5.054c0 .09.027.18.077.256.145.22.445.283.67.142l4.03-2.527a.467.467 0 000-.796l-4.03-2.527A.494.494 0 009.486 10zM17.5 4a.5.5 0 01.5.5v2a.5.5 0 11-1 0V5h-1.5a.5.5 0 110-1h2z"/></svg>