<svg xmlns="http://www.w3.org/2000/svg" width="21" height="19" fill="none"><g filter="url(#a)"><path stroke="url(#b)" stroke-linecap="round" stroke-linejoin="round" stroke-width="3" d="M8.17 4.2s.766-.264 2.6-.264c1.833 0 2.598.264 2.598.264"/></g><g filter="url(#c)"><path fill="url(#d)" d="M11.793 7.82c-.345.788-1.457.802-1.821.023l-.757-1.615a.993.993 0 0 1-.009-.822l.599.162-.599-.704v-.507h3.282v.507l-.533.704.556-.162c.102.265.095.559-.019.819l-.699 1.595z"/></g><path fill="url(#e)" d="M11.488 7.362a.65.65 0 0 1-1.213.014l-.718-1.799a.698.698 0 0 1 .402-.911l-.51-.704 1.45-.252 1.346.252-.454.704a.68.68 0 0 1 .379.868l-.682 1.828z"/><path fill="url(#f)" fill-rule="evenodd" d="m7.995 3.76-.461-1.425a1.497 1.497 0 0 0 .9 2.856l.056-.014c.067-.015.19-.04.376-.068.371-.055.992-.116 1.903-.116.912 0 1.532.061 1.904.116a4.805 4.805 0 0 1 .432.082 1.497 1.497 0 0 0 .9-2.856l-.461 1.425.46-1.425h-.001L14 2.333l-.005-.002-.01-.003-.022-.007a3.042 3.042 0 0 0-.241-.062 7.76 7.76 0 0 0-.614-.114 16.203 16.203 0 0 0-2.34-.148c-1.046 0-1.812.07-2.339.148a7.759 7.759 0 0 0-.795.16 2.91 2.91 0 0 0-.06.016l-.023.007-.01.003-.004.002h-.003s-.001.001.46 1.426z" clip-rule="evenodd"/><defs><linearGradient id="b" x1="10.769" x2="10.769" y1="3.936" y2="4.2" gradientUnits="userSpaceOnUse"><stop stop-color="#8E070E"/><stop offset="1" stop-color="#660409"/></linearGradient><linearGradient id="d" x1="10.847" x2="10.847" y1="9.842" y2="4.019" gradientUnits="userSpaceOnUse"><stop stop-color="#A80C14"/><stop offset="1" stop-color="#780309"/></linearGradient><linearGradient id="e" x1="10.847" x2="10.847" y1="8.253" y2="3.71" gradientUnits="userSpaceOnUse"><stop stop-color="#FF636C"/><stop offset="1" stop-color="#C02A32"/></linearGradient><linearGradient id="f" x1="10.769" x2="10.769" y1="3.099" y2="3.892" gradientUnits="userSpaceOnUse"><stop stop-color="#F34C55"/><stop offset="1" stop-color="#9F141B"/></linearGradient><filter id="a" width="20.197" height="15.265" x=".671" y=".436" color-interpolation-filters="sRGB" filterUnits="userSpaceOnUse"><feFlood flood-opacity="0" result="BackgroundImageFix"/><feColorMatrix in="SourceAlpha" result="hardAlpha" values="0 0 0 0 0 0 0 0 0 0 0 0 0 0 0 0 0 0 127 0"/><feOffset dy="4"/><feGaussianBlur stdDeviation="3"/><feComposite in2="hardAlpha" operator="out"/><feColorMatrix values="0 0 0 0 0 0 0 0 0 0 0 0 0 0 0 0 0 0 0.6 0"/><feBlend in2="BackgroundImageFix" result="effect1_dropShadow_651_115212"/><feBlend in="SourceGraphic" in2="effect1_dropShadow_651_115212" result="shape"/></filter><filter id="c" width="15.462" height="16.062" x="3.121" y="2.357" color-interpolation-filters="sRGB" filterUnits="userSpaceOnUse"><feFlood flood-opacity="0" result="BackgroundImageFix"/><feColorMatrix in="SourceAlpha" result="hardAlpha" values="0 0 0 0 0 0 0 0 0 0 0 0 0 0 0 0 0 0 127 0"/><feOffset dy="4"/><feGaussianBlur stdDeviation="3"/><feComposite in2="hardAlpha" operator="out"/><feColorMatrix values="0 0 0 0 0 0 0 0 0 0 0 0 0 0 0 0 0 0 0.6 0"/><feBlend in2="BackgroundImageFix" result="effect1_dropShadow_651_115212"/><feBlend in="SourceGraphic" in2="effect1_dropShadow_651_115212" result="shape"/></filter></defs></svg>
