<svg width="38" height="38" viewBox="0 0 38 38" fill="none" xmlns="http://www.w3.org/2000/svg">
<path d="M37.7027 18.5067C37.1576 16.3739 35.8892 15.3322 33.7783 15.3025C33.5405 15.3025 33.5603 15.1834 33.5603 15.0346C33.59 13.9533 33.5206 12.8819 33.3125 11.8304C31.7864 4.0033 24.334 -1.18499 16.5249 0.233609C11.3617 1.16611 7.75447 4.17195 5.62381 8.94359C4.77154 10.8483 4.44451 12.8819 4.49406 14.9652C4.49406 15.1437 4.55352 15.3025 4.2364 15.3025C2.45259 15.2826 1.1841 16.1258 0.579584 17.8123C-0.163671 19.8757 -0.153757 21.9887 0.391296 24.0819C0.89671 26.0163 2.06609 27.0084 3.80036 27.1869C4.02829 27.2068 4.3355 27.0778 4.45442 27.2465C4.56343 27.4052 4.48415 27.7028 4.49406 27.9309C4.50397 28.6254 4.95983 29.0817 5.65354 29.0817C7.10041 29.0817 8.54728 29.0817 9.99415 29.0817C10.7077 29.0817 11.1635 28.6254 11.1635 27.9012C11.1635 23.4768 11.1635 19.0424 11.1635 14.618C11.1635 13.874 10.7077 13.4275 9.96442 13.4275C8.98332 13.4275 8.01214 13.4176 7.03104 13.4275C6.81302 13.4275 6.75356 13.368 6.7932 13.1597C6.86257 12.7728 6.92203 12.376 7.00131 11.999C8.34907 5.54094 14.6717 1.13635 21.4006 2.46567C26.6827 3.50729 30.617 7.81268 31.2512 13.1399C31.281 13.3978 31.1918 13.4375 30.9639 13.4375C29.9927 13.4275 29.0116 13.4275 28.0305 13.4375C27.3566 13.4375 26.8809 13.8938 26.8809 14.5684C26.8809 19.0325 26.8809 23.4966 26.8809 27.9607C26.8809 28.6353 27.3467 29.0916 28.0305 29.0916C28.7936 29.0916 29.5665 29.0817 30.3296 29.0916C30.6566 29.0916 31.0927 28.9428 31.281 29.1611C31.4395 29.3396 31.3305 29.7761 31.3305 30.0936C31.3107 32.0975 29.8737 33.5359 27.862 33.5458C26.8115 33.5557 25.7611 33.5359 24.7106 33.5557C24.4728 33.5557 24.3737 33.4764 24.2746 33.278C23.6502 32.0181 22.6394 31.3435 21.2123 31.3237C20.4691 31.3137 19.7258 31.3137 18.9925 31.3237C17.3573 31.3336 16.0294 32.4744 15.7123 34.1311C15.4348 35.5795 16.3267 37.1667 17.7438 37.7619C17.9718 37.8512 18.2195 37.8611 18.4276 38C19.5375 38 20.6475 38 21.7673 38C22.2133 37.9306 22.6592 37.8611 23.0556 37.5933C23.5808 37.2361 24.0169 36.8096 24.2944 36.2441C24.4529 35.9366 24.6511 35.8572 24.9683 35.8671C26.0187 35.887 27.0692 35.8771 28.1197 35.8771C31.0828 35.8771 33.6594 33.2978 33.6594 30.3217C33.6594 29.4587 33.6693 28.5956 33.6495 27.7226C33.6396 27.4151 33.7288 27.2762 34.0558 27.2762C34.7198 27.2762 35.354 27.1274 35.9189 26.7604C36.8405 26.1751 37.3658 25.3021 37.7126 24.2902C37.9108 23.7248 37.9207 23.1295 38 22.5542C38 21.6911 38 20.8181 38 19.9551C37.9108 19.469 37.8315 18.9829 37.7027 18.5067ZM4.17694 24.9549C3.51296 24.9846 3.07692 24.6771 2.78953 24.1117C2.45259 23.447 2.37331 22.7228 2.31385 21.9986C2.22465 20.9372 2.27421 19.8757 2.58142 18.844C2.77962 18.1793 3.10665 17.6139 3.90937 17.5345C4.41478 17.4849 4.49406 17.5444 4.49406 18.0603C4.49406 19.1218 4.49406 20.1832 4.49406 21.2447C4.49406 22.3657 4.48415 23.4966 4.50397 24.6176C4.50397 24.8854 4.42469 24.945 4.17694 24.9549ZM7.01122 15.6497C7.55627 15.6695 8.10133 15.6695 8.64638 15.6497C8.88422 15.6398 8.95359 15.7092 8.95359 15.9572C8.94368 17.723 8.94368 19.4987 8.94368 21.2645C8.94368 23.0204 8.93377 24.7763 8.95359 26.5322C8.95359 26.81 8.89413 26.8893 8.61665 26.8794C8.10133 26.8496 7.57609 26.8496 7.06077 26.8794C6.78329 26.8893 6.71392 26.8199 6.71392 26.5421C6.72383 24.0521 6.72382 21.5721 6.72382 19.0821C6.72382 18.0405 6.73374 17.0088 6.71392 15.9671C6.71392 15.7092 6.77338 15.6398 7.01122 15.6497ZM31.0035 26.8695C30.4882 26.8397 29.9629 26.8397 29.4476 26.8695C29.1701 26.8794 29.1107 26.8 29.1107 26.5223C29.1206 23.824 29.1206 21.1257 29.1206 18.4373C29.1206 17.594 29.1305 16.7508 29.1206 15.9175C29.1206 15.7092 29.18 15.6497 29.3881 15.6497C29.9431 15.6596 30.4981 15.6695 31.053 15.6497C31.3008 15.6398 31.3603 15.7191 31.3503 15.9572C31.3404 17.7428 31.3404 19.5186 31.3404 21.3042C31.3404 23.0502 31.3305 24.7961 31.3503 26.5322C31.3503 26.81 31.281 26.8794 31.0035 26.8695ZM21.2123 35.7679C20.8556 35.7779 20.4988 35.7679 20.1421 35.7679C19.7853 35.7679 19.4285 35.7779 19.0718 35.7679C18.4276 35.7481 17.9222 35.2521 17.9321 34.647C17.9321 34.0418 18.4375 33.5557 19.0817 33.5458C19.7952 33.5359 20.5087 33.5359 21.2322 33.5458C21.8763 33.5557 22.3817 34.0617 22.3817 34.6569C22.3619 35.262 21.8565 35.7481 21.2123 35.7679ZM35.4927 23.5462C35.4036 23.8636 35.2648 24.1712 35.0666 24.439C34.7198 24.8953 34.2441 24.9846 33.7089 24.935C33.4711 24.9152 33.5702 24.7366 33.5702 24.6275C33.5603 23.5065 33.5702 22.3756 33.5702 21.2546C33.5702 20.1336 33.5801 19.0027 33.5603 17.8817C33.5603 17.6139 33.6495 17.5444 33.8873 17.5345C34.4324 17.5048 34.8783 17.6833 35.1756 18.1595C35.4828 18.6456 35.6117 19.2011 35.6909 19.7666C35.8495 21.0364 35.8297 22.3062 35.4927 23.5462Z" fill="white"/>
</svg>
