<svg width="39" height="41" viewBox="0 0 39 41" fill="none" xmlns="http://www.w3.org/2000/svg">
<path d="M38.2811 23.6495C37.8468 22.7315 37.4027 21.8136 36.9388 20.9055C36.6821 20.412 36.6821 19.9382 36.9388 19.4447C37.4027 18.5366 37.8468 17.6187 38.2811 16.7007C39.1892 14.7859 38.5674 12.8611 36.7019 11.8544C35.8037 11.3707 34.9055 10.8871 33.9974 10.4231C33.5137 10.1764 33.2374 9.81118 33.1485 9.27818C32.9906 8.31088 32.7932 7.34358 32.655 6.37628C32.349 4.29362 30.6316 2.98086 28.7167 3.22762C27.7988 3.34607 26.8611 3.4349 25.953 3.61257C25.0943 3.79023 24.4132 3.65205 23.8013 2.96112C23.1992 2.28006 22.5181 1.68784 21.8568 1.066C20.3466 -0.355334 18.3133 -0.355334 16.813 1.066C16.053 1.78654 15.3028 2.51695 14.5527 3.25723C14.1776 3.62244 13.7631 3.75075 13.2301 3.67179C12.095 3.49412 10.95 3.32633 9.80503 3.21775C8.13694 3.04995 6.62676 4.1357 6.1826 5.77419C5.92597 6.72174 5.76804 7.69891 5.64959 8.66621C5.54102 9.62364 5.16594 10.285 4.22826 10.6699C3.44849 10.9956 2.71809 11.4398 1.96793 11.8544C0.13204 12.8611 -0.489795 14.7957 0.418282 16.7106C0.832839 17.5693 1.22765 18.4379 1.68169 19.2769C2.01729 19.9086 2.01729 20.4613 1.67182 21.093C1.21778 21.9222 0.832839 22.7809 0.428152 23.6297C-0.509536 25.5841 0.12217 27.5088 2.03703 28.5255C2.90562 28.9894 3.75448 29.4631 4.64281 29.8974C5.22517 30.1837 5.4818 30.618 5.5805 31.2398C5.76804 32.3848 5.89635 33.5495 6.21221 34.6747C6.67612 36.3132 8.17642 37.2706 9.74581 37.1522C10.7723 37.0831 11.7989 36.9153 12.8155 36.7278C13.6347 36.5698 14.3158 36.6982 14.8488 37.3792C15.0265 37.6062 15.2535 37.7839 15.4706 37.9813C16.4577 38.9091 17.3164 39.9949 18.718 40.3502C19.1128 40.3502 19.5076 40.3502 19.9025 40.3502C20.6625 40.1331 21.3534 39.8172 21.9259 39.2447C22.6464 38.5242 23.3966 37.8234 24.127 37.1028C24.5021 36.7376 24.9166 36.5994 25.4496 36.6883C26.5847 36.866 27.7297 37.0239 28.8746 37.1423C30.5526 37.3101 32.0628 36.2244 32.507 34.5958C32.7636 33.6482 32.9215 32.671 33.04 31.7037C33.1584 30.7463 33.5137 30.0751 34.4514 29.6902C35.2312 29.3644 35.9616 28.9203 36.7117 28.5156C38.5674 27.4891 39.1991 25.5643 38.2811 23.6495ZM34.8166 21.8827C35.2707 22.7809 35.705 23.689 36.1393 24.597C36.5637 25.4755 36.386 26.0085 35.5174 26.4724C34.7179 26.8968 33.9382 27.3509 33.1189 27.726C31.6877 28.3971 30.9573 29.5125 30.7599 31.0523C30.6415 31.9702 30.4539 32.8882 30.2861 33.7963C30.1578 34.5168 29.5656 34.9017 28.845 34.7932C27.6705 34.6155 26.486 34.4181 25.3016 34.2996C24.2454 34.1911 23.3275 34.5958 22.5576 35.3262C21.7976 36.0566 21.0474 36.787 20.2973 37.5174C19.6458 38.1491 19.024 38.1491 18.3725 37.5174C17.6619 36.8363 16.9512 36.1553 16.2504 35.4644C15.2535 34.4674 14.0789 34.1319 12.6971 34.3589C11.7002 34.5267 10.7032 34.6649 9.70633 34.7932C9.07462 34.882 8.51201 34.4674 8.3837 33.816C8.18629 32.7599 7.99875 31.7037 7.83095 30.6476C7.63354 29.4138 7.00184 28.486 5.89635 27.9036C4.98828 27.42 4.07033 26.9363 3.16225 26.4527C2.29366 25.9888 2.11599 25.4558 2.54042 24.5773C2.98459 23.6692 3.41888 22.7611 3.86305 21.8629C4.43553 20.718 4.43553 19.5829 3.86305 18.4379C3.40901 17.5397 2.97472 16.6316 2.54042 15.7236C2.11599 14.8451 2.29366 14.3121 3.16225 13.8482C3.94201 13.4336 4.71191 12.9697 5.52128 12.6045C6.9821 11.9333 7.72238 10.7982 7.91979 9.22883C8.02836 8.31088 8.22577 7.39293 8.39357 6.48485C8.50214 5.9025 8.98579 5.50768 9.60763 5.49781C10.3973 5.60639 11.2461 5.74457 12.0851 5.84328C12.7464 5.92224 13.3979 6.09991 14.0789 5.99133C14.8883 5.87289 15.5693 5.51755 16.1418 4.95494C16.892 4.22453 17.652 3.49412 18.4022 2.76371C19.024 2.17149 19.6557 2.17149 20.2677 2.76371C20.9882 3.45464 21.7186 4.1357 22.4194 4.84637C23.4163 5.85315 24.5909 6.18874 25.9728 5.95185C26.9697 5.78406 27.9666 5.64587 28.9635 5.50768C29.6149 5.41885 30.1677 5.84328 30.2861 6.51447C30.4737 7.58047 30.6612 8.65634 30.8487 9.72235C31.0659 10.9364 31.7075 11.8346 32.8031 12.417C33.6914 12.8907 34.5797 13.3645 35.4681 13.8284C36.3959 14.322 36.5637 14.8352 36.0998 15.7926C35.6655 16.6711 35.2411 17.5594 34.8068 18.428C34.2441 19.6026 34.2441 20.7377 34.8166 21.8827Z" fill="white"/>
<path d="M27.9269 13.2265C28.2329 12.8415 28.2724 12.4073 28.0651 11.973C27.848 11.5387 27.4828 11.3215 26.9794 11.3314C26.5747 11.3412 26.2983 11.5584 26.0318 11.8249C21.0177 16.8391 16.0035 21.8532 10.9992 26.8674C10.9104 26.9562 10.8117 27.0549 10.7426 27.1635C10.4662 27.5386 10.4366 27.9531 10.634 28.3479C10.8314 28.7724 11.1867 28.9994 11.7592 29.0093C12.0751 29.0389 12.3712 28.8217 12.6377 28.5552C17.6815 23.5115 22.7154 18.4775 27.7592 13.4338C27.8085 13.3745 27.8677 13.3055 27.9269 13.2265Z" fill="white"/>
<path d="M14.7006 18.2504C17.0497 18.2504 18.9646 16.3158 18.9646 13.9666C18.9646 11.6076 17.0399 9.70264 14.6808 9.70264C12.3415 9.71251 10.4464 11.6175 10.4366 13.9666C10.4267 16.3059 12.3514 18.2504 14.7006 18.2504ZM14.6907 12.0518C15.7666 12.0518 16.6154 12.8908 16.6154 13.9568C16.6253 15.0228 15.7666 15.8914 14.7104 15.9012C13.6642 15.9111 12.7857 15.0327 12.7857 13.9765C12.7758 12.9105 13.6247 12.0518 14.6907 12.0518Z" fill="white"/>
<path d="M23.949 22.1097C21.59 22.1295 19.5961 24.1924 19.7343 26.6896C19.8528 28.871 21.8663 30.7167 24.1957 30.6575C26.4561 30.5983 28.3314 28.5749 28.2623 26.2652C28.1933 23.9358 26.229 22.0406 23.949 22.1097ZM23.9983 28.2985C22.9225 28.2985 22.0835 27.4595 22.0835 26.3836C22.0835 25.3176 22.9422 24.449 23.9983 24.449C25.0545 24.449 25.9132 25.3176 25.9132 26.3836C25.9231 27.4496 25.0742 28.2985 23.9983 28.2985Z" fill="white"/>
</svg>
