<svg width="27" height="41" viewBox="0 0 27 41" fill="none" xmlns="http://www.w3.org/2000/svg">
<path d="M22.0542 19.6075C21.7568 19.5304 21.7128 19.4092 21.7128 19.1448C21.7238 16.9859 21.7128 14.8379 21.7238 12.679C21.7348 11.5995 21.6357 10.5421 21.3823 9.49562C20.6994 6.60967 19.2785 4.16433 17.0204 2.22568C16.0621 1.39954 14.9495 0.892851 13.6497 0.947926C12.4161 1.003 11.3696 1.53173 10.4774 2.33583C7.61349 4.92437 6.04934 8.1628 5.91716 12.0181C5.84006 14.3863 5.89514 16.7656 5.90615 19.1448C5.90615 19.4202 5.85108 19.5304 5.56469 19.6075C2.64569 20.3895 0.618912 23.0001 0.629927 25.9301C0.629927 26.7673 1.16967 27.318 2.01783 27.318C3.26253 27.318 4.51825 27.329 5.76296 27.307C6.02732 27.307 6.14848 27.3731 6.28067 27.6264C7.00766 29.1135 8.19729 29.9176 9.86056 29.9396C11.1824 29.9616 12.4932 29.9396 13.815 29.9396C15.1148 29.9396 16.4255 29.9506 17.7253 29.9396C19.4327 29.9176 20.6333 29.1025 21.3713 27.5934C21.4815 27.3731 21.5806 27.307 21.8229 27.307C23.1007 27.318 24.3784 27.318 25.6562 27.307C26.4493 27.307 27 26.7562 27 25.9632C27.011 23.0221 24.9843 20.4005 22.0542 19.6075ZM5.63077 24.6744C4.92581 24.6634 4.23186 24.6744 3.5269 24.6744C3.7472 23.6941 4.74957 22.6807 5.88412 22.2951C5.88412 23.0331 5.8731 23.7271 5.88412 24.4321C5.89513 24.6303 5.82904 24.6854 5.63077 24.6744ZM19.0692 25.7318C19.0692 26.8003 18.5515 27.307 17.472 27.307C15.0156 27.307 12.5593 27.307 10.1029 27.307C9.03443 27.307 8.51672 26.7893 8.51672 25.7208C8.51672 21.3148 8.49469 16.9088 8.52774 12.5027C8.54977 9.51765 9.65127 6.95114 11.7001 4.8032C11.9314 4.56087 12.1958 4.32955 12.4711 4.12027C13.4294 3.4153 14.1785 3.4153 15.1258 4.12027C15.8528 4.66001 16.4145 5.34294 16.9433 6.06994C18.3862 8.05265 19.0692 10.2777 19.0692 12.723C19.0692 14.8049 19.0692 16.8978 19.0692 18.9796C19.0692 21.2267 19.0802 23.4848 19.0692 25.7318ZM21.9441 24.6744C21.7679 24.6744 21.7128 24.6303 21.7128 24.4431C21.7238 23.7271 21.7128 23.0221 21.7128 22.2731C22.8804 22.7247 23.6624 23.5068 24.1141 24.6744C23.365 24.6744 22.6491 24.6634 21.9441 24.6744Z" fill="white"/>
<path d="M15.115 33.9711C15.115 33.167 14.5643 32.5942 13.8042 32.5942C13.0332 32.5942 12.4824 33.156 12.4824 33.9601C12.4824 35.6895 12.4824 37.4188 12.4824 39.1482C12.4824 39.9413 13.0552 40.5141 13.8152 40.5141C14.5533 40.5141 15.115 39.9413 15.126 39.1702C15.126 38.3 15.126 37.4409 15.126 36.5707C15.115 35.7005 15.126 34.8303 15.115 33.9711Z" fill="white"/>
<path d="M9.83815 32.583C9.11116 32.583 8.53837 33.1448 8.52736 33.8718C8.51634 34.3124 8.52736 34.753 8.52736 35.1936C8.52736 35.6562 8.51634 36.1299 8.52736 36.5925C8.53837 37.2975 9.12217 37.8482 9.82713 37.8592C10.5541 37.8592 11.1489 37.3085 11.16 36.5815C11.171 35.6782 11.171 34.775 11.16 33.8608C11.1489 33.1448 10.5651 32.583 9.83815 32.583Z" fill="white"/>
<path d="M19.0696 33.8721C19.0586 33.1452 18.4748 32.5834 17.7478 32.5944C17.0208 32.5944 16.448 33.1562 16.437 33.8832C16.426 34.7754 16.426 35.6676 16.437 36.5598C16.448 37.2978 17.0098 37.8596 17.7368 37.8596C18.4858 37.8596 19.0586 37.3088 19.0696 36.5488C19.0806 36.1082 19.0696 35.6676 19.0696 35.227C19.0696 34.7754 19.0806 34.3238 19.0696 33.8721Z" fill="white"/>
<path d="M13.7933 10.1675C11.6013 10.1675 9.83887 11.9189 9.83887 14.0999C9.83887 16.3139 11.5903 18.0763 13.7933 18.0763C15.9853 18.0763 17.7477 16.3249 17.7477 14.1439C17.7587 11.9299 16.0073 10.1675 13.7933 10.1675ZM13.8373 15.4437C13.1324 15.4657 12.4935 14.8489 12.4825 14.1329C12.4825 13.439 13.0883 12.8221 13.7823 12.8111C14.4762 12.8001 15.0931 13.3949 15.1151 14.0999C15.1371 14.7828 14.5313 15.4217 13.8373 15.4437Z" fill="white"/>
</svg>
