<svg width="16" height="18" viewBox="0 0 16 18" fill="none" xmlns="http://www.w3.org/2000/svg">
<path d="M11.768 1.32597C11.768 1.11966 11.85 0.921808 11.9959 0.775929C12.1417 0.63005 12.3396 0.548096 12.5459 0.548096H15.1388C15.3451 0.548096 15.5429 0.63005 15.6888 0.775929C15.8347 0.921808 15.9167 1.11966 15.9167 1.32597V3.91887C15.9167 4.12517 15.8347 4.32303 15.6888 4.46891C15.5429 4.61479 15.3451 4.69674 15.1388 4.69674C14.9325 4.69674 14.7346 4.61479 14.5888 4.46891C14.4429 4.32303 14.3609 4.12517 14.3609 3.91887V3.20323L9.72481 7.83934C9.57896 7.98501 9.38125 8.06683 9.17511 8.06683C8.96898 8.06683 8.77127 7.98501 8.62542 7.83934L6.06363 5.27755L1.68681 9.65437C1.6156 9.73079 1.52972 9.79209 1.4343 9.83461C1.33889 9.87712 1.23588 9.89998 1.13144 9.90183C1.02699 9.90367 0.923246 9.88446 0.826387 9.84533C0.729529 9.80621 0.641542 9.74798 0.567677 9.67411C0.493812 9.60025 0.435581 9.51226 0.396458 9.4154C0.357335 9.31855 0.338122 9.2148 0.339965 9.11035C0.341808 9.00591 0.364669 8.9029 0.407184 8.80749C0.449699 8.71207 0.510998 8.62619 0.587423 8.55498L5.51394 3.62846C5.65979 3.48279 5.8575 3.40097 6.06363 3.40097C6.26977 3.40097 6.46748 3.48279 6.61333 3.62846L9.17511 6.19025L13.2615 2.10384H12.5459C12.3396 2.10384 12.1417 2.02188 11.9959 1.876C11.85 1.73013 11.768 1.53227 11.768 1.32597ZM1.13712 12.994C1.34342 12.994 1.54128 13.076 1.68716 13.2219C1.83303 13.3677 1.91499 13.5656 1.91499 13.7719V16.3648C1.91499 16.5711 1.83303 16.769 1.68716 16.9148C1.54128 17.0607 1.34342 17.1427 1.13712 17.1427C0.930814 17.1427 0.732959 17.0607 0.58708 16.9148C0.441201 16.769 0.359247 16.5711 0.359247 16.3648V13.7719C0.359247 13.5656 0.441201 13.3677 0.58708 13.2219C0.732959 13.076 0.930814 12.994 1.13712 12.994ZM6.06363 10.6604C6.06363 10.4541 5.98168 10.2563 5.8358 10.1104C5.68992 9.9645 5.49207 9.88254 5.28576 9.88254C5.07946 9.88254 4.8816 9.9645 4.73572 10.1104C4.58984 10.2563 4.50789 10.4541 4.50789 10.6604V16.3648C4.50789 16.5711 4.58984 16.769 4.73572 16.9148C4.8816 17.0607 5.07946 17.1427 5.28576 17.1427C5.49207 17.1427 5.68992 17.0607 5.8358 16.9148C5.98168 16.769 6.06363 16.5711 6.06363 16.3648V10.6604ZM9.4344 11.9569C9.64071 11.9569 9.83856 12.0388 9.98444 12.1847C10.1303 12.3306 10.2123 12.5284 10.2123 12.7347V16.3648C10.2123 16.5711 10.1303 16.769 9.98444 16.9148C9.83856 17.0607 9.64071 17.1427 9.4344 17.1427C9.2281 17.1427 9.03025 17.0607 8.88437 16.9148C8.73849 16.769 8.65653 16.5711 8.65653 16.3648V12.7347C8.65653 12.5284 8.73849 12.3306 8.88437 12.1847C9.03025 12.0388 9.2281 11.9569 9.4344 11.9569ZM14.3609 8.58609C14.3609 8.37979 14.279 8.18193 14.1331 8.03606C13.9872 7.89018 13.7894 7.80822 13.583 7.80822C13.3767 7.80822 13.1789 7.89018 13.033 8.03606C12.8871 8.18193 12.8052 8.37979 12.8052 8.58609V16.3648C12.8052 16.5711 12.8871 16.769 13.033 16.9148C13.1789 17.0607 13.3767 17.1427 13.583 17.1427C13.7894 17.1427 13.9872 17.0607 14.1331 16.9148C14.279 16.769 14.3609 16.5711 14.3609 16.3648V8.58609Z" fill="#0B1B35"/>
</svg>
