<svg width="17" height="18" viewBox="0 0 17 18" fill="none" xmlns="http://www.w3.org/2000/svg">
<path d="M12.3334 1.32597C12.3334 1.11966 12.4154 0.921808 12.5613 0.775929C12.7072 0.63005 12.905 0.548096 13.1113 0.548096H15.7042C15.9105 0.548096 16.1084 0.63005 16.2543 0.775929C16.4001 0.921808 16.4821 1.11966 16.4821 1.32597V3.91887C16.4821 4.12517 16.4001 4.32303 16.2543 4.46891C16.1084 4.61479 15.9105 4.69674 15.7042 4.69674C15.4979 4.69674 15.3001 4.61479 15.1542 4.46891C15.0083 4.32303 14.9263 4.12517 14.9263 3.91887V3.20323L10.2902 7.83934C10.1444 7.98501 9.94668 8.06683 9.74054 8.06683C9.53441 8.06683 9.3367 7.98501 9.19085 7.83934L6.62906 5.27755L2.25224 9.65437C2.18103 9.73079 2.09515 9.79209 1.99973 9.83461C1.90432 9.87712 1.80131 9.89998 1.69687 9.90183C1.59242 9.90367 1.48868 9.88446 1.39182 9.84533C1.29496 9.80621 1.20697 9.74798 1.13311 9.67411C1.05924 9.60025 1.00101 9.51226 0.961887 9.4154C0.922765 9.31855 0.903552 9.2148 0.905394 9.11035C0.907237 9.00591 0.930098 8.9029 0.972614 8.80749C1.01513 8.71207 1.07643 8.62619 1.15285 8.55498L6.07937 3.62846C6.22522 3.48279 6.42293 3.40097 6.62906 3.40097C6.8352 3.40097 7.03291 3.48279 7.17876 3.62846L9.74054 6.19025L13.827 2.10384H13.1113C12.905 2.10384 12.7072 2.02188 12.5613 1.876C12.4154 1.73013 12.3334 1.53227 12.3334 1.32597ZM1.70255 12.994C1.90885 12.994 2.10671 13.076 2.25259 13.2219C2.39846 13.3677 2.48042 13.5656 2.48042 13.7719V16.3648C2.48042 16.5711 2.39846 16.769 2.25259 16.9148C2.10671 17.0607 1.90885 17.1427 1.70255 17.1427C1.49624 17.1427 1.29839 17.0607 1.15251 16.9148C1.00663 16.769 0.924677 16.5711 0.924677 16.3648V13.7719C0.924677 13.5656 1.00663 13.3677 1.15251 13.2219C1.29839 13.076 1.49624 12.994 1.70255 12.994ZM6.62906 10.6604C6.62906 10.4541 6.54711 10.2563 6.40123 10.1104C6.25535 9.9645 6.0575 9.88254 5.85119 9.88254C5.64489 9.88254 5.44703 9.9645 5.30115 10.1104C5.15527 10.2563 5.07332 10.4541 5.07332 10.6604V16.3648C5.07332 16.5711 5.15527 16.769 5.30115 16.9148C5.44703 17.0607 5.64489 17.1427 5.85119 17.1427C6.0575 17.1427 6.25535 17.0607 6.40123 16.9148C6.54711 16.769 6.62906 16.5711 6.62906 16.3648V10.6604ZM9.99983 11.9569C10.2061 11.9569 10.404 12.0388 10.5499 12.1847C10.6958 12.3306 10.7777 12.5284 10.7777 12.7347V16.3648C10.7777 16.5711 10.6958 16.769 10.5499 16.9148C10.404 17.0607 10.2061 17.1427 9.99983 17.1427C9.79353 17.1427 9.59568 17.0607 9.4498 16.9148C9.30392 16.769 9.22196 16.5711 9.22196 16.3648V12.7347C9.22196 12.5284 9.30392 12.3306 9.4498 12.1847C9.59568 12.0388 9.79353 11.9569 9.99983 11.9569ZM14.9263 8.58609C14.9263 8.37979 14.8444 8.18193 14.6985 8.03606C14.5526 7.89018 14.3548 7.80822 14.1485 7.80822C13.9422 7.80822 13.7443 7.89018 13.5984 8.03606C13.4526 8.18193 13.3706 8.37979 13.3706 8.58609V16.3648C13.3706 16.5711 13.4526 16.769 13.5984 16.9148C13.7443 17.0607 13.9422 17.1427 14.1485 17.1427C14.3548 17.1427 14.5526 17.0607 14.6985 16.9148C14.8444 16.769 14.9263 16.5711 14.9263 16.3648V8.58609Z" fill="#0B1B35"/>
</svg>
