<svg width="17" height="16" viewBox="0 0 17 16" fill="none" xmlns="http://www.w3.org/2000/svg">
<path d="M0.536159 15.2873C0.398622 15.2873 0.26672 15.2327 0.169467 15.1355C0.0722142 15.0382 0.0175781 14.9063 0.0175781 14.7688C0.0175781 14.6312 0.0722142 14.4993 0.169467 14.4021C0.26672 14.3048 0.398622 14.2502 0.536159 14.2502H16.0936C16.2311 14.2502 16.363 14.3048 16.4603 14.4021C16.5575 14.4993 16.6122 14.6312 16.6122 14.7688C16.6122 14.9063 16.5575 15.0382 16.4603 15.1355C16.363 15.2327 16.2311 15.2873 16.0936 15.2873H0.536159ZM2.0919 11.1387C2.0919 11.6888 2.31044 12.2165 2.69945 12.6055C3.08846 12.9945 3.61608 13.213 4.16622 13.213H5.20338C5.75353 13.213 6.28114 12.9945 6.67015 12.6055C7.05916 12.2165 7.2777 11.6888 7.2777 11.1387V2.84141C7.2777 2.29127 7.05916 1.76366 6.67015 1.37464C6.28114 0.985634 5.75353 0.76709 5.20338 0.76709H4.16622C3.61608 0.76709 3.08846 0.985634 2.69945 1.37464C2.31044 1.76366 2.0919 2.29127 2.0919 2.84141V11.1387ZM9.35203 11.1387C9.35203 11.6888 9.57057 12.2165 9.95958 12.6055C10.3486 12.9945 10.8762 13.213 11.4263 13.213H12.4635C13.0137 13.213 13.5413 12.9945 13.9303 12.6055C14.3193 12.2165 14.5378 11.6888 14.5378 11.1387V5.95289C14.5378 5.40275 14.3193 4.87514 13.9303 4.48613C13.5413 4.09712 13.0137 3.87857 12.4635 3.87857H11.4263C10.8762 3.87857 10.3486 4.09712 9.95958 4.48613C9.57057 4.87514 9.35203 5.40275 9.35203 5.95289V11.1387Z" fill="#0B1B35"/>
</svg>
