<svg width="17" height="12" viewBox="0 0 17 12" fill="none" xmlns="http://www.w3.org/2000/svg">
<path d="M1.19431 7.68864C1.90165 4.29194 4.8586 1.87847 8.18477 1.87847C11.5099 1.87847 14.4669 4.29194 15.1752 7.68864C15.2033 7.82343 15.2837 7.94155 15.3989 8.01702C15.514 8.09248 15.6544 8.11912 15.7892 8.09106C15.924 8.063 16.0421 7.98255 16.1176 7.86741C16.1931 7.75226 16.2197 7.61185 16.1917 7.47706C15.3858 3.61364 12.015 0.841309 8.18477 0.841309C4.35454 0.841309 0.983762 3.61364 0.177888 7.47706C0.149831 7.61185 0.176466 7.75226 0.251934 7.86741C0.327402 7.98255 0.445521 8.063 0.580307 8.09106C0.715092 8.11912 0.855503 8.09248 0.97065 8.01702C1.0858 7.94155 1.16625 7.82343 1.19431 7.68864Z" fill="#0B1B35"/>
<path d="M8.17401 3.95288C9.13676 3.95288 10.0601 4.33533 10.7408 5.0161C11.4216 5.69687 11.8041 6.62019 11.8041 7.58294C11.8041 8.5457 11.4216 9.46902 10.7408 10.1498C10.0601 10.8306 9.13676 11.213 8.17401 11.213C7.21126 11.213 6.28793 10.8306 5.60717 10.1498C4.9264 9.46902 4.54395 8.5457 4.54395 7.58294C4.54395 6.62019 4.9264 5.69687 5.60717 5.0161C6.28793 4.33533 7.21126 3.95288 8.17401 3.95288Z" fill="#0B1B35"/>
</svg>
