<svg width="14" height="12" viewBox="0 0 14 12" fill="none" xmlns="http://www.w3.org/2000/svg">
<path d="M14 1.84839C13.4847 2.06701 12.9318 2.21528 12.3509 2.28147C12.9441 1.94137 13.3981 1.40192 13.6133 0.761093C13.0569 1.07605 12.4428 1.30475 11.7884 1.42873C11.2644 0.893459 10.519 0.560059 9.69227 0.560059C8.1062 0.560059 6.82018 1.79143 6.82018 3.30929C6.82018 3.52457 6.84555 3.73482 6.89455 3.93588C4.50801 3.8211 2.39178 2.72627 0.975426 1.06265C0.727841 1.46809 0.586994 1.94051 0.586994 2.44481C0.586994 3.39892 1.0944 4.24078 1.86427 4.73332C1.3936 4.71825 0.950926 4.59427 0.563386 4.3882V4.42254C0.563386 5.75444 1.55371 6.86602 2.86682 7.11901C2.62624 7.181 2.37255 7.21534 2.11009 7.21534C1.92464 7.21534 1.74529 7.19775 1.56944 7.16424C1.93511 8.2574 2.99543 9.05234 4.25171 9.07414C3.26926 9.81129 2.03048 10.2494 0.684995 10.2494C0.453171 10.2494 0.224824 10.236 0 10.2117C1.27114 10.9933 2.78024 11.4489 4.40218 11.4489C9.68532 11.4489 12.5732 7.25891 12.5732 3.62511L12.5635 3.2691C13.1278 2.88374 13.6159 2.39958 14 1.84839Z" fill="white"/>
</svg>
