<?xml version="1.0" encoding="utf-8"?>
<!-- Generator: Adobe Illustrator 24.2.1, SVG Export Plug-In . SVG Version: 6.00 Build 0)  -->
<svg version="1.1" id="Layer_1" xmlns="http://www.w3.org/2000/svg" xmlns:xlink="http://www.w3.org/1999/xlink" x="0px" y="0px"
	 viewBox="0 0 41.416 24" style="enable-background:new 0 0 41.416 24;" xml:space="preserve">
<style type="text/css">
	.st0{fill:#83766A;}
</style>
<g>
	<path class="st0" d="M4.923,23.666v-21.7l-4.46,1.533L0,2.133l5.286-1.966h1.321v23.5H4.923z"/>
	<path class="st0" d="M26.613,22.15C24.971,23.383,22.929,24,20.484,24s-4.488-0.617-6.129-1.85
		c-1.641-1.233-2.462-2.806-2.462-4.717v-0.066c0-1.311,0.473-2.472,1.421-3.483c0.947-1.011,2.18-1.772,3.7-2.284
		c-1.256-0.467-2.291-1.167-3.106-2.1c-0.815-0.934-1.223-2.045-1.223-3.334V6.099c0-1.733,0.787-3.183,2.362-4.35
		C16.623,0.583,18.436,0,20.484,0s3.86,0.583,5.435,1.75c1.574,1.167,2.362,2.616,2.362,4.35v0.067c0,1.289-0.408,2.4-1.222,3.334
		c-0.815,0.933-1.851,1.633-3.106,2.1c1.52,0.512,2.753,1.273,3.7,2.284c0.947,1.011,1.421,2.172,1.421,3.483v0.066
		C29.074,19.344,28.253,20.917,26.613,22.15z M15.528,21c1.234,0.955,2.886,1.433,4.956,1.433c2.07,0,3.722-0.478,4.956-1.433
		c1.234-0.955,1.85-2.122,1.85-3.5v-0.067c0-1.443-0.655-2.638-1.966-3.583c-1.311-0.944-2.924-1.417-4.84-1.417
		s-3.53,0.473-4.84,1.417c-1.311,0.945-1.966,2.139-1.966,3.583V17.5C13.678,18.878,14.294,20.045,15.528,21z M16.222,9.616
		c1.167,0.9,2.588,1.35,4.262,1.35c1.674,0,3.094-0.45,4.262-1.35c1.167-0.899,1.751-2.05,1.751-3.449V6.099
		c0-1.31-0.578-2.394-1.734-3.25c-1.156-0.854-2.583-1.283-4.279-1.283c-1.696,0-3.122,0.428-4.279,1.283
		c-1.156,0.857-1.735,1.94-1.735,3.25v0.067C14.471,7.566,15.054,8.717,16.222,9.616z"/>
	<path class="st0" d="M35.074,17.834v-5.151h-5.152v-1.151h5.152v-5.15h1.188v5.15h5.154v1.151h-5.154v5.151H35.074z"/>
</g>
</svg>
