<svg width="94" height="36" viewBox="0 0 94 36" fill="none" xmlns="http://www.w3.org/2000/svg">
<g clip-path="url(#clip0_17626_168)">
<mask id="mask0_17626_168" style="mask-type:luminance" maskUnits="userSpaceOnUse" x="0" y="0" width="94" height="36">
<path d="M94 0H0V36H94V0Z" fill="white"/>
</mask>
<g mask="url(#mask0_17626_168)">
<mask id="mask1_17626_168" style="mask-type:luminance" maskUnits="userSpaceOnUse" x="0" y="0" width="44" height="20">
<path d="M33.0562 0H10.7792C4.82603 0 0 4.44733 0 9.93344C0 15.4195 4.82603 19.8668 10.7792 19.8668H33.0562C39.0093 19.8668 43.8355 15.4195 43.8355 9.93344C43.8355 4.44733 39.0093 0 33.0562 0Z" fill="white"/>
</mask>
<g mask="url(#mask1_17626_168)">
<path d="M33.0562 0H10.7792C4.82603 0 0 4.44733 0 9.93344C0 15.4195 4.82603 19.8668 10.7792 19.8668H33.0562C39.0093 19.8668 43.8355 15.4195 43.8355 9.93344C43.8355 4.44733 39.0093 0 33.0562 0Z" fill="white"/>
<path d="M21.9177 -10.5957C34.0226 -10.5957 43.8355 -1.55286 43.8355 9.60224C43.8355 20.7572 34.0226 29.8001 21.9177 29.8001C9.81288 29.8001 0 20.7572 0 9.60224C0 -1.55286 9.81288 -10.5957 21.9177 -10.5957Z" fill="#13DC20"/>
<path d="M21.9177 -10.5957C34.0226 -10.5957 43.8355 -1.55286 43.8355 9.60224C43.8355 20.7572 34.0226 29.8001 21.9177 29.8001C9.81288 29.8001 0 20.7572 0 9.60224C0 -1.55286 9.81288 -10.5957 21.9177 -10.5957Z" fill="url(#paint0_radial_17626_168)"/>
<path d="M21.9177 -10.5957C34.0226 -10.5957 43.8355 -1.55286 43.8355 9.60224C43.8355 20.7572 34.0226 29.8001 21.9177 29.8001C9.81288 29.8001 0 20.7572 0 9.60224C0 -1.55286 9.81288 -10.5957 21.9177 -10.5957Z" fill="url(#paint1_radial_17626_168)"/>
<path d="M21.9177 -10.5957C34.0226 -10.5957 43.8355 -1.55285 43.8355 9.60224C43.8355 20.7572 34.0226 29.8001 21.9177 29.8001C9.81288 29.8001 0 20.7572 0 9.60224C0 -1.55285 9.81288 -10.5957 21.9177 -10.5957Z" fill="url(#paint2_radial_17626_168)"/>
<path fill-rule="evenodd" clip-rule="evenodd" d="M9.26631 8.47153V9.97276L11.4255 11.2208L16.5952 7.71434C16.4133 7.34465 16.1851 6.99639 15.9142 6.67545L11.4255 9.7195L9.26631 8.47153ZM15.7877 9.86339V9.7564L17.008 8.92909C17.2463 10.136 17.0168 11.3817 16.3595 12.4483C15.7021 13.515 14.6588 14.335 13.4119 14.7646C12.1651 15.1941 10.7941 15.2062 9.53858 14.7986C8.28311 14.3909 7.22297 13.5896 6.54364 12.5347C5.86434 11.4797 5.60906 10.2383 5.8224 9.02747C6.03578 7.81654 6.70423 6.71339 7.71079 5.9107C8.71749 5.10812 9.99821 4.657 11.3292 4.63648C12.6601 4.61585 13.9566 5.02708 14.992 5.79824L13.8839 6.54715C13.0782 6.0398 12.1111 5.79579 11.1373 5.85407C10.1634 5.91236 9.2388 6.26959 8.51098 6.86866C7.7831 7.4677 7.29401 8.27417 7.12163 9.15934C6.94925 10.0445 7.10348 10.9575 7.55985 11.7525C8.01622 12.5473 8.74833 13.1785 9.63942 13.5453C10.5305 13.912 11.5291 13.9931 12.4762 13.7757C13.4231 13.5583 14.2637 13.0549 14.864 12.3458C15.4642 11.6366 15.7894 10.7627 15.7877 9.86339ZM22.7348 10.8808V13.0133L21.4089 13.0121V6.16907H23.8802C26.2252 6.16907 27.2209 6.94171 27.2209 8.48697C27.2209 10.0797 26.055 10.8808 23.8802 10.8808H22.7348ZM22.7348 7.29357V9.7564L23.9808 9.75525C25.2114 9.75525 25.8473 9.38438 25.8473 8.45597C25.8473 7.61451 25.2952 7.29357 24.0028 7.29357H22.7348ZM29.82 8.02689C28.9068 8.02689 28.2696 8.22543 27.9201 8.46674L27.9226 9.89309C28.2825 9.37603 28.8435 9.02301 29.82 9.02301C30.5307 9.02301 30.8919 9.23933 30.8919 9.93349V10.1475H29.6923C28.3882 10.1475 27.5086 10.4601 27.5086 11.5751C27.5086 12.5319 28.1445 13.0905 29.2151 13.0905C30.0651 13.0905 30.7113 12.6983 30.9653 12.1324V13.0121H32.1328V9.7861C32.1328 8.51541 31.3678 8.02689 29.82 8.02689ZM30.8893 10.8916V11.2862C30.8378 11.6237 30.4443 12.0636 29.6072 12.0636C29.0539 12.0636 28.7571 11.8282 28.7571 11.4573C28.7571 11.0188 29.108 10.8916 29.8407 10.8916H30.8893ZM32.7467 8.12441H34.1307L35.5843 11.4764L36.771 8.12441H38.0867L35.9662 13.5304C35.4979 14.7023 35.022 14.9663 34.3215 14.9663C33.9914 14.9663 33.6289 14.8783 33.4729 14.7522V13.6848C33.6437 13.8383 33.8715 13.9259 34.11 13.9297C34.4906 13.9297 34.7769 13.6955 34.9781 13.037L32.7467 8.12441Z" fill="white"/>
</g>
<mask id="mask2_17626_168" style="mask-type:luminance" maskUnits="userSpaceOnUse" x="45" y="0" width="50" height="20">
<path d="M82.0289 0.719727H57.2871C50.6752 0.719727 45.3154 4.91034 45.3154 10.0798C45.3154 15.2491 50.6752 19.4397 57.2871 19.4397H82.0289C88.6408 19.4397 94.0006 15.2491 94.0006 10.0798C94.0006 4.91034 88.6408 0.719727 82.0289 0.719727Z" fill="white"/>
</mask>
<g mask="url(#mask2_17626_168)">
<path d="M82.0289 0.719727H57.2871C50.6752 0.719727 45.3154 4.91034 45.3154 10.0798C45.3154 15.2491 50.6752 19.4397 57.2871 19.4397H82.0289C88.6408 19.4397 94.0006 15.2491 94.0006 10.0798C94.0006 4.91034 88.6408 0.719727 82.0289 0.719727Z" fill="white"/>
<path d="M69.6582 -9.26367C83.102 -9.26367 94.0006 -0.742761 94.0006 9.76837C94.0006 20.2794 83.102 28.8003 69.6582 28.8003C56.214 28.8003 45.3154 20.2794 45.3154 9.76837C45.3154 -0.742761 56.214 -9.26367 69.6582 -9.26367Z" fill="white"/>
<path d="M69.6582 -9.26367C83.102 -9.26367 94.0006 -0.742761 94.0006 9.76837C94.0006 20.2794 83.102 28.8003 69.6582 28.8003C56.214 28.8003 45.3154 20.2794 45.3154 9.76837C45.3154 -0.742761 56.214 -9.26367 69.6582 -9.26367Z" fill="white"/>
<path d="M69.6582 -9.26367C83.102 -9.26367 94.0006 -0.742761 94.0006 9.76837C94.0006 20.2794 83.102 28.8003 69.6582 28.8003C56.214 28.8003 45.3154 20.2794 45.3154 9.76837C45.3154 -0.742761 56.214 -9.26367 69.6582 -9.26367Z" fill="white"/>
<path d="M69.6582 -9.26367C83.102 -9.26367 94.0006 -0.742757 94.0006 9.76837C94.0006 20.2794 83.102 28.8003 69.6582 28.8003C56.214 28.8003 45.3154 20.2794 45.3154 9.76837C45.3154 -0.742757 56.214 -9.26367 69.6582 -9.26367Z" fill="white"/>
</g>
<path d="M86.5728 6.85715L88.7504 6.85989C88.7547 6.87951 88.7572 6.89855 88.7558 6.9185C88.7384 7.14645 87.6014 8.6924 87.4094 8.83269C87.4105 8.84788 87.4101 8.8626 87.408 8.8778C87.3812 9.06831 86.1213 10.7641 85.9173 10.8926C85.9195 10.8958 85.922 10.8989 85.9242 10.9021C85.9278 10.9075 85.9311 10.9132 85.9343 10.9187C85.9506 10.9448 85.9665 10.972 85.9734 11.0014C86.041 11.2823 86.0641 12.3721 85.8902 12.5934C85.1993 12.6066 84.5048 12.5954 83.8136 12.5961C83.879 12.5099 83.8812 12.4201 83.8891 12.3205C83.9198 11.9479 83.9665 11.4053 83.8298 11.0502C83.7514 10.8471 81.0218 7.00533 80.8916 6.87659C81.2806 6.80582 82.717 6.85906 83.1859 6.85902C83.2116 6.87476 83.2322 6.89247 83.2528 6.91306C83.4874 7.15005 84.9068 9.41283 84.8946 9.55118C84.8985 9.54808 84.9025 9.54513 84.9065 9.542C85.1028 9.38424 86.5678 7.04748 86.5728 6.85715Z" fill="black"/>
<path d="M75.9118 6.86838C76.1923 6.81752 76.5391 6.85013 76.8279 6.85024L78.7426 6.8551C78.7683 6.87508 78.7867 6.89704 78.8052 6.92256C79.0427 7.24991 79.3742 8.18433 79.5543 8.5876C80.106 9.8228 80.7159 11.0465 81.2062 12.3029C81.2394 12.3883 81.2821 12.4722 81.2615 12.5642C80.5536 12.5603 79.846 12.5722 79.1389 12.5998C79.1396 12.5947 79.14 12.5897 79.1407 12.5847C79.1468 12.5399 79.1476 12.501 79.1356 12.4569C79.0875 12.2806 78.9498 11.8648 78.7737 11.7687C78.6721 11.6949 76.1923 11.7271 75.8858 11.7249C75.8955 11.7452 75.9006 11.7652 75.8999 11.7876C75.8933 11.981 75.6988 12.4356 75.5423 12.5645C74.8297 12.5785 74.1153 12.5674 73.4023 12.5652C73.432 12.5431 73.458 12.5133 73.4783 12.4841C73.7151 12.1448 74.0159 11.289 74.2046 10.8677C74.7596 9.62948 75.3872 8.39979 75.8659 7.13612C75.8995 7.04694 75.9364 6.96364 75.9118 6.86838Z" fill="black"/>
<path d="M77.375 7.91992L77.4274 7.93234C77.5351 8.01669 77.615 8.27686 77.6671 8.41103C77.7864 8.71768 78.3583 10.1841 78.2596 10.4281C77.9549 10.4509 77.6382 10.4336 77.3323 10.4339L76.3984 10.4351C76.6164 10.2579 77.3048 8.26887 77.375 7.91992Z" fill="white"/>
<path d="M66.6885 6.84737L69.5053 6.84546C70.1405 6.84517 70.7898 6.81536 71.4192 6.89604C71.8889 6.95623 72.3737 7.06448 72.775 7.29341C73.2739 7.57792 73.6058 8.03706 73.7251 8.5456C73.8499 9.07793 73.7508 9.63888 73.4059 10.0936C73.0364 10.5807 72.4941 10.852 71.8498 10.9667C71.2735 11.1817 69.3578 11.0554 68.6166 11.0554C68.6408 11.0849 68.6611 11.1169 68.6708 11.1525C68.7345 11.3861 68.7305 12.4068 68.596 12.5954C67.9564 12.6003 67.3169 12.6011 66.6773 12.598C66.673 10.6826 66.6372 8.76217 66.6885 6.84737Z" fill="black"/>
<path d="M69.0685 8.30111C69.7442 8.28286 70.9612 8.21392 71.544 8.49403C71.7107 8.57435 71.8473 8.68671 71.8907 8.83924C71.9388 9.00869 71.8556 9.21663 71.7374 9.36009C71.6141 9.50967 71.4315 9.59337 71.2106 9.63055C70.8256 9.79083 69.0552 9.68776 68.5342 9.68643C68.5721 9.64712 68.6003 9.60921 68.613 9.56075C68.6672 9.35605 68.7084 8.47035 68.5815 8.31724C68.7431 8.31825 68.9073 8.30755 69.0685 8.30111Z" fill="white"/>
<path d="M51.7032 5.04004L62.8932 5.04116L62.8972 8.05828C62.9037 8.91479 62.9691 9.79089 62.818 10.6394C62.6083 11.8175 61.9178 12.5495 60.878 13.2293C60.3328 13.5512 59.7493 13.8337 59.1856 14.1293C58.5511 14.4621 57.921 14.8129 57.2709 15.12C57.0168 14.9497 56.7275 14.8113 56.4542 14.6674C55.3078 14.0639 53.7629 13.4494 52.8305 12.6072C51.469 11.3774 51.6935 9.67263 51.6982 8.08553L51.7032 5.04004Z" fill="#FEDF2F"/>
<path d="M54.6768 7.56004L59.9198 7.55957C59.9147 8.10479 59.914 8.65001 59.9176 9.19519C59.3833 8.78515 58.811 8.75383 58.136 8.75707C58.1255 9.49057 58.1374 10.2238 58.1725 10.9567C58.2231 11.2783 58.3384 11.5604 58.4935 11.8516C57.7046 11.8212 56.8948 11.7623 56.1124 11.8796C56.5813 10.8776 56.4877 9.81961 56.461 8.75711C55.7534 8.75034 55.2556 8.788 54.6778 9.18911C54.7097 8.65159 54.6786 8.09917 54.6768 7.56004Z" fill="#313131"/>
<path d="M58.3059 20.5195H35.6219C30.9237 20.5195 27.1152 23.9043 27.1152 28.0795C27.1152 32.2548 30.9237 35.6395 35.6219 35.6395H58.3059C63.0041 35.6395 66.8125 32.2548 66.8125 28.0795C66.8125 23.9043 63.0041 20.5195 58.3059 20.5195Z" fill="#EF3124"/>
<path d="M35.2168 30.957H40.8878V32.0401H35.2168V30.957ZM36.9037 28.4009H39.1405L39.5179 29.4899H40.7584L39.0845 24.9121C38.9225 24.4726 38.7349 24.1201 38.0942 24.1201C37.4536 24.1201 37.2572 24.4666 37.0891 24.9121L35.3376 29.4879H36.5002L36.9037 28.4009ZM38.0382 25.3081H38.0664L38.8191 27.4861H37.2442L38.0382 25.3081Z" fill="white"/>
<path d="M44.9385 30.5996V25.5596H47.3955C47.9038 25.5596 48.3416 25.634 48.7093 25.7828C49.0766 25.9268 49.3605 26.1356 49.5607 26.4092C49.7607 26.6828 49.8608 27.0092 49.8608 27.3884C49.8608 27.7628 49.7607 28.0868 49.5607 28.3604C49.3605 28.634 49.0766 28.8451 48.7093 28.994C48.3416 29.138 47.9038 29.21 47.3955 29.21H45.6681L46.2519 28.6844V30.5996H44.9385ZM46.2519 28.814L45.6681 28.2596H47.3225C47.7277 28.2596 48.0307 28.1827 48.2306 28.0292C48.4309 27.8756 48.5307 27.662 48.5307 27.3884C48.5307 27.11 48.4309 26.894 48.2306 26.7404C48.0307 26.5868 47.7277 26.51 47.3225 26.51H45.6681L46.2519 25.9556V28.814ZM49.2809 30.5996L51.811 25.5596H53.1085L55.6465 30.5996H54.268L52.192 26.15H52.7112L50.6269 30.5996H49.2809ZM50.5459 29.5196L50.8945 28.634H53.8139L54.1707 29.5196H50.5459ZM56.8118 30.5996V28.5404L57.1118 29.246L54.614 25.5596H56.0088L57.9228 28.3892H57.1198L59.0417 25.5596H60.331L57.8335 29.246L58.1252 28.5404V30.5996H56.8118Z" fill="white"/>
</g>
</g>
<defs>
<radialGradient id="paint0_radial_17626_168" cx="0" cy="0" r="1" gradientUnits="userSpaceOnUse" gradientTransform="translate(43.8351 29.8008) rotate(-137.338) scale(41.131 40.994)">
<stop stop-color="#3BDFB4"/>
<stop offset="1" stop-color="#3BDFB4" stop-opacity="0"/>
</radialGradient>
<radialGradient id="paint1_radial_17626_168" cx="0" cy="0" r="1" gradientUnits="userSpaceOnUse" gradientTransform="translate(37.8072 24.2452) rotate(-137.338) scale(40.9819 40.8454)">
<stop stop-color="#19CCDC"/>
<stop offset="0.223" stop-color="#19CCDC" stop-opacity="0.75"/>
<stop offset="1" stop-color="#19CCDC" stop-opacity="0"/>
</radialGradient>
<radialGradient id="paint2_radial_17626_168" cx="0" cy="0" r="1" gradientUnits="userSpaceOnUse" gradientTransform="translate(-0.00014814 -10.5954) rotate(42.6615) scale(29.805 29.7058)">
<stop stop-color="#F5ED01"/>
<stop offset="0.332" stop-color="#F5ED01" stop-opacity="0.8"/>
<stop offset="1" stop-color="#F5ED01" stop-opacity="0"/>
</radialGradient>
<clipPath id="clip0_17626_168">
<rect width="94" height="36" fill="white"/>
</clipPath>
</defs>
</svg>
