<!-- icon666.com - MILLIONS OF FREE VECTOR ICONS --><svg fill="#FFF" id="Capa_1" enable-background="new 0 0 512 512" viewBox="0 0 512 512" xmlns="http://www.w3.org/2000/svg"><g><path d="m346 60h-15c-8.271 0-15-6.729-15-15s6.729-15 15-15 15 6.729 15 15v15h30v-15c0-8.27 6.73-15 15-15s15 6.73 15 15-6.73 15-15 15h-15v60h90v-45c0-8.28-6.72-15-15-15h-17.58c1.67-4.69 2.58-9.74 2.58-15 0-24.81-20.19-45-45-45-11.509 0-22.038 4.349-29.997 11.497-7.968-7.143-18.485-11.497-30.003-11.497-24.813 0-45 20.187-45 45 0 5.258.915 10.305 2.58 15h-107.58c-8.28 0-15 6.72-15 15v45h180z"></path><path d="m181 270h165v-120h-180v105c0 8.28 6.72 15 15 15zm60-90h60c8.28 0 15 6.72 15 15s-6.72 15-15 15h-60c-8.28 0-15-6.72-15-15s6.72-15 15-15z"></path><path d="m376 270h75c8.28 0 15-6.72 15-15v-105h-90z"></path><path d="m16 347v120c0 8.284 6.716 15 15 15h30c8.284 0 15-6.716 15-15v-135h-45c-8.284 0-15 6.716-15 15z"></path><path d="m466 334.62c-7.5 0-14.35 2.75-19.61 7.3l-85.9 80.08h-104.49v-30h85c16.57 0 30-13.43 30-30s-13.43-30-30-30h-70c-19.12-19.12-40.86-30-68.22-30-45.55 0-41.44 29.7-96.78 30v124.8c78.33 10.5 112.44 55.2 175.83 55.2 85.63 0 102.71-30.71 204.59-125.4 5.89-5.48 9.58-13.3 9.58-21.98 0-16.57-13.43-30-30-30z"></path></g></svg>