<svg width="158" height="60" viewBox="0 0 158 60" fill="none" xmlns="http://www.w3.org/2000/svg">
<g clip-path="url(#clip0_1_20)">
<path d="M51.8 40.5C51.8 40.8 51.7 41.1 51.5 41.3C51.3 41.5 51 41.6 50.7 41.6C50.4 41.6 50.1 41.5 49.9 41.3C49.7 41.1 49.6 40.8 49.6 40.5V19.7C49.6 19.4 49.7 19.1 49.9 18.9C50.1 18.7 50.4 18.6 50.7 18.6H56.6C58 18.6 59.3 18.9 60.4 19.6C61.6 20.2 62.4 21.1 63.1 22.2C63.7 23.3 64.1 24.6 64.1 26C64.1 27.4 63.8 28.7 63.1 29.8C62.5 30.9 61.6 31.8 60.4 32.4C59.3 33 58 33.4 56.6 33.4H51.9C51.8 33.5 51.8 40.5 51.8 40.5ZM56.6 31.3C57.6 31.3 58.5 31.1 59.3 30.7C60.1 30.2 60.7 29.6 61.2 28.8C61.7 28 61.9 27.1 61.9 26.2C61.9 25.2 61.7 24.2 61.2 23.5C60.8 22.7 60.2 22 59.3 21.5C58.5 21 57.7 20.8 56.6 20.8H51.9V31.3H56.6Z" fill="white"/>
<path d="M67.7 26.6C67.7 26.3 67.8 26 68 25.8C68.2 25.6 68.5 25.5 68.8 25.5C69.1 25.5 69.4 25.6 69.6 25.8C69.8 26 69.9 26.3 69.9 26.6V40.5C69.9 40.8 69.8 41.1 69.6 41.3C69.4 41.5 69.1 41.6 68.8 41.6C68.5 41.6 68.2 41.5 68 41.3C67.8 41.1 67.7 40.8 67.7 40.5V26.6ZM68.9 19.1C69.3 19.1 69.7 19.2 70 19.5C70.3 19.8 70.5 20.2 70.5 20.7C70.5 21.2 70.4 21.5 70 21.9C69.7 22.2 69.3 22.4 68.8 22.4C68.3 22.4 68 22.3 67.6 21.9C67.3 21.6 67.2 21.2 67.2 20.7C67.2 20.2 67.3 19.8 67.7 19.5C68.1 19.4 68.5 19.1 68.9 19.1Z" fill="white"/>
<path d="M83.3 25.3C84.8 25.3 86.3 25.6 87.5 26.4C88.7 27.1 89.8 28.1 90.5 29.3C91.3 30.6 91.6 31.9 91.6 33.5V40.5C91.6 40.8 91.5 41.1 91.3 41.3C91.1 41.5 90.8 41.6 90.5 41.6C90.2 41.6 89.9 41.5 89.7 41.3C89.5 41.1 89.4 40.8 89.4 40.5V38.7C88.7 39.7 87.8 40.4 86.8 41C85.8 41.6 84.6 41.8 83.3 41.8C81.8 41.8 80.4 41.5 79.2 40.7C78 39.9 77.1 39 76.3 37.8C75.6 36.5 75.3 35.2 75.3 33.6C75.3 32.1 75.6 30.7 76.3 29.4C77.1 28.1 78 27.1 79.3 26.5C80.3 25.6 81.7 25.3 83.3 25.3ZM83.3 39.7C84.4 39.7 85.4 39.4 86.3 38.9C87.2 38.4 87.9 37.6 88.4 36.7C88.9 35.7 89.2 34.7 89.2 33.6C89.2 32.5 88.9 31.4 88.4 30.5C87.9 29.5 87.2 28.8 86.3 28.3C85.4 27.7 84.4 27.5 83.3 27.5C82.2 27.5 81.2 27.8 80.2 28.3C79.3 28.9 78.6 29.6 78.1 30.5C77.6 31.4 77.3 32.5 77.3 33.6C77.3 34.8 77.6 35.8 78.1 36.7C78.6 37.7 79.3 38.4 80.2 38.9C81.1 39.4 82.1 39.7 83.3 39.7Z" fill="white"/>
<path d="M101.4 25.3C102.7 25.3 103.8 25.5 104.8 26C105.8 26.4 106.5 27 107.1 27.9C107.2 28.2 107.3 28.4 107.3 28.6C107.3 28.9 107.2 29.2 106.8 29.4C106.7 29.5 106.5 29.5 106.3 29.5C105.9 29.5 105.5 29.4 105.3 29.1C104.3 28 103 27.4 101.3 27.4C100.2 27.4 99.4 27.6 98.7 28.1C98.1 28.5 97.7 29.1 97.7 29.8C97.7 30.5 98 31.1 98.6 31.5C99.2 31.9 100.3 32.3 101.8 32.5C103.9 32.8 105.4 33.5 106.3 34.2C107.2 35 107.7 36 107.7 37.1C107.7 38 107.4 38.8 106.9 39.5C106.4 40.2 105.6 40.8 104.6 41.2C103.6 41.6 102.5 41.8 101.3 41.8C100.1 41.8 98.9 41.6 97.8 41.2C96.7 40.8 95.8 40.2 95.1 39.5C94.9 39.3 94.8 39 94.8 38.8C94.8 38.5 94.9 38.2 95.3 37.9C95.5 37.7 95.8 37.6 96.1 37.6C96.4 37.6 96.7 37.7 96.9 38C97.4 38.6 98 39 98.8 39.3C99.6 39.6 100.4 39.7 101.4 39.7C102.8 39.7 103.8 39.5 104.5 39C105.2 38.5 105.5 37.9 105.5 37.1C105.5 36.4 105.2 35.8 104.5 35.3C103.8 34.8 102.7 34.5 101.2 34.2C99.3 33.9 97.8 33.3 96.9 32.5C95.9 31.7 95.5 30.8 95.5 29.7C95.5 28.2 96 27.2 97.1 26.4C98.4 25.7 99.7 25.3 101.4 25.3Z" fill="white"/>
<path d="M118.8 39.4C119.1 39.4 119.3 39.5 119.6 39.7C119.8 39.9 119.9 40.2 119.9 40.5C119.9 40.8 119.8 41.1 119.6 41.3C119.4 41.5 119.1 41.6 118.7 41.6H118.2C117.2 41.6 116.2 41.3 115.4 40.8C114.6 40.3 114 39.6 113.5 38.7C113 37.8 112.8 36.8 112.8 35.8V27.9H110.9C110.6 27.9 110.4 27.8 110.1 27.6C109.9 27.4 109.8 27.2 109.8 26.9C109.8 26.6 109.9 26.3 110.1 26.2C110.3 26 110.6 25.9 110.9 25.9H112.8V21.3C112.8 21 112.9 20.7 113.1 20.5C113.3 20.3 113.6 20.2 113.9 20.2C114.2 20.2 114.5 20.3 114.7 20.5C114.9 20.7 115 21 115 21.3V25.9H118.4C118.7 25.9 118.9 26 119.2 26.2C119.4 26.4 119.5 26.6 119.5 26.9C119.5 27.2 119.4 27.4 119.2 27.6C119 27.8 118.8 27.9 118.4 27.9H115V35.8C115 36.8 115.3 37.7 115.9 38.2C116.5 38.8 117.3 39.2 118.2 39.2H118.8V39.4Z" fill="white"/>
<path d="M131 25.3C131.8 25.3 132.4 25.4 132.9 25.6C133.4 25.8 133.7 26.2 133.7 26.5C133.7 26.6 133.7 26.7 133.7 26.8C133.6 27.1 133.5 27.3 133.3 27.4C133.2 27.5 132.9 27.5 132.6 27.5C132.4 27.5 132.1 27.5 131.7 27.4C131.6 27.4 131.3 27.4 131 27.4C129.6 27.4 128.3 27.8 127.4 28.6C126.5 29.4 126 30.4 126 31.7V40.6C126 40.9 125.9 41.2 125.7 41.4C125.5 41.6 125.2 41.7 124.9 41.7C124.6 41.7 124.3 41.6 124.1 41.4C123.9 41.2 123.8 40.9 123.8 40.6V26.6C123.8 26.3 123.9 26 124.1 25.8C124.3 25.6 124.6 25.5 124.9 25.5C125.2 25.5 125.5 25.6 125.7 25.8C125.9 26 126 26.3 126 26.6V27.9C126.5 27.1 127.3 26.4 128.2 25.9C128.9 25.5 129.9 25.3 131 25.3Z" fill="white"/>
<path d="M137.7 26.6C137.7 26.3 137.8 26 138 25.8C138.2 25.6 138.5 25.5 138.8 25.5C139.1 25.5 139.4 25.6 139.6 25.8C139.8 26 139.9 26.3 139.9 26.6V40.5C139.9 40.8 139.8 41.1 139.6 41.3C139.4 41.5 139.1 41.6 138.8 41.6C138.5 41.6 138.2 41.5 138 41.3C137.8 41.1 137.7 40.8 137.7 40.5V26.6ZM138.8 19.1C139.2 19.1 139.6 19.2 139.9 19.5C140.2 19.8 140.4 20.2 140.4 20.7C140.4 21.2 140.3 21.5 139.9 21.9C139.6 22.2 139.2 22.4 138.7 22.4C138.2 22.4 137.9 22.3 137.5 21.9C137.2 21.6 137.1 21.2 137.1 20.7C137.1 20.2 137.2 19.8 137.6 19.5C138 19.4 138.4 19.1 138.8 19.1Z" fill="white"/>
<path d="M157.7 39.8C157.9 40.1 158 40.4 158 40.6C158 40.8 157.9 41.1 157.7 41.3C157.5 41.5 157.3 41.6 157 41.6C156.8 41.6 156.6 41.5 156.4 41.5C156.3 41.4 156.1 41.3 156 41.1L151.2 34.9L146.2 41.3C146 41.5 145.8 41.6 145.4 41.6C145.1 41.6 144.9 41.5 144.6 41.3C144.4 41.1 144.3 40.9 144.3 40.6C144.3 40.3 144.4 40 144.6 39.8L149.7 33.4L144.9 27.2C144.7 27 144.6 26.7 144.6 26.4C144.6 26.1 144.7 25.8 144.9 25.6C145.1 25.4 145.3 25.3 145.7 25.3C146.1 25.3 146.3 25.4 146.5 25.6L151.2 31.7L155.9 25.7C156.2 25.4 156.5 25.1 156.9 25.1C157.2 25.1 157.4 25.2 157.7 25.4C157.9 25.6 158 25.8 158 26.1C158 26.4 157.9 26.7 157.7 27L152.8 33.1L157.7 39.8Z" fill="white"/>
<path d="M28 24.6C27.9 24.6 27.8 24.7 27.7 24.7C26.5 25.2 25.5 26.1 24.9 27.2C24.3 28.4 24.1 29.6 24.3 31C24.3 31.1 24.4 31.3 24.4 31.5C24.5 31.6 24.5 31.8 24.5 32C24.9 33.1 25.7 34.2 26.6 34.8C26.7 34.9 26.7 34.9 26.9 34.9C27.1 35 27.2 35.1 27.4 35.2C27.5 35.3 27.7 35.3 27.8 35.4C28.5 35.7 29.2 35.8 29.9 35.8C30 35.8 30 35.8 30.1 35.8C30.9 35.7 31.6 35.6 32.3 35.3C33.6 34.7 34.6 33.7 35.2 32.4C35.7 31.1 35.9 29.7 35.5 28.3C35.1 26.9 34.2 25.8 33 25.1C31.8 24.4 30.4 24 29 24.3C28.9 24.3 28.9 24.3 28.7 24.4C28.4 24.4 28.2 24.5 28 24.6Z" fill="#FFD833" stroke="#FFD833" stroke-width="0.3961"/>
<path d="M8.30001 18.6C9.00001 20.2 9.90001 21.6 11 22.9V23C11 23 11 23.1 11.1 23.1C11.5 23.6 11.9 24 12.4 24.4C15.2 26.6 18.6 28 22.4 28.4C22.7 26.9 23.6 25.5 24.7 24.5C22.7 21.3 21.5 17.9 21.2 14.5C18.2 12.1 13.6 10.9 7.20001 10.9C7.10001 13.5 7.50001 16.1 8.30001 18.6Z" fill="#FF4081"/>
<path d="M24.7 35.7C20.8 38.2 16.7 39.5 12.5 39.6H12.4C10.5 42.4 9.39999 46.4 8.89999 51.5C11.7 51.9 14.3 51.8 16.7 51.1C18.8 50.5 20.6 49.4 22.3 48V47.9L22.7 47.5H22.8C25.3 44.8 27.1 41.4 27.9 37.3C26.6 37.1 25.5 36.5 24.7 35.7Z" fill="#FF4081"/>
<path d="M12.4 37.5C16.2 37.4 19.8 36.3 23.3 34.1C22.6 33 22.3 31.7 22.2 30.4C17.9 29.8 14.2 28.3 11.1 25.9C10.7 25.6 10.3 25.2 9.9 24.8C6.9 25.6 3.6 27.4 0 30.4C1.4 32.6 3.4 34.4 5.7 35.8C7.6 36.9 9.7 37.5 11.8 37.6L12.4 37.5Z" fill="#FF4081"/>
<path d="M35.7 5.8C34.5 3.6 32.7 1.8 30.4 0.1C28.1 1.8 26.3 3.7 25.1 5.8C23.9 7.9 23.3 10.2 23.2 12.6C23.2 13 23.2 13.4 23.3 13.9V14C23.6 17.2 24.6 20.3 26.5 23.3C27.7 22.7 29 22.4 30.3 22.5C31.6 22.6 32.9 23 34 23.7C36 20.6 37.2 17.3 37.4 14V13.9C37.5 13.5 37.5 13.1 37.5 12.6C37.5 10.2 36.8 7.8 35.7 5.8Z" fill="#FF4081"/>
<path d="M36.8 46.3C36.4 43.1 35.3 40 33.5 36.9C32.4 37.5 31.2 37.7 30 37.7C29.9 37.7 29.9 37.7 29.9 37.7C28.9 42.2 27.1 45.9 24.3 48.9C24.9 52.2 26.9 55.9 30.2 60C32.3 58.5 34.1 56.5 35.4 54.2C36.4 52.5 36.9 50.7 37.1 48.8C37 48.7 37 48.5 37 48.4C36.9 47.9 36.9 47.1 36.8 46.3Z" fill="#FF4081"/>
</g>
<defs>
<clipPath id="clip0_1_20">
<rect width="158" height="60" fill="white"/>
</clipPath>
</defs>
</svg>
