<svg width="1680" height="387" viewBox="0 0 1680 387" fill="none" xmlns="http://www.w3.org/2000/svg">
<path d="M113.434 198.398C113.434 146.996 162.192 80.0532 245.438 44.1912C390.523 -19.1651 473.768 39.4096 495.174 94.398C515.391 145.8 474.958 237.846 407.172 304.789C455.93 268.927 496.364 231.869 523.716 194.812C560.582 145.8 576.042 99.1796 561.771 62.1222C541.554 8.32916 459.498 -9.60185 357.225 4.74296C254.951 19.0878 176.463 45.3866 113.434 78.8578C42.0805 114.72 6.40379 156.559 0.457676 205.57C-6.67766 276.099 69.4326 371.731 241.87 383.685C332.251 389.662 420.253 392.053 587.934 350.214C567.717 351.409 112.245 408.788 113.434 198.398Z" fill="#A6CE39"/>
<path d="M281.114 280.881C334.629 280.881 379.82 236.651 379.82 181.662C379.82 127.869 335.818 82.4441 281.114 82.4441C227.599 82.4441 182.409 126.674 182.409 181.662C183.598 236.651 227.599 280.881 281.114 280.881Z" fill="#A5CD39"/>
<path d="M648.859 325.91H664.43V233.181H648.859V325.91Z" fill="#A6CE39"/>
<path d="M772.381 233.181H787.952V325.91H771.06L718.801 258.257V325.91H703.229V233.181H718.801L772.381 302.429V233.181Z" fill="#A6CE39"/>
<path d="M861.592 247.511V325.91H846.021V247.511H818.041V233.18H889.572V247.511H861.592Z" fill="#A6CE39"/>
<path d="M984.456 233.181V247.906H935.23V272.449H979.44V286.379H935.23V311.182H986.037V325.91H919.656V233.181H984.456Z" fill="#A6CE39"/>
<path d="M1072.08 276.426C1075.25 273.687 1076.83 269.289 1076.83 263.23C1076.83 257.173 1075.2 253.014 1071.95 250.762C1068.69 248.505 1062.88 247.379 1054.53 247.379H1034.73V280.543H1054.13C1062.93 280.543 1068.91 279.173 1072.08 276.426ZM1092.8 263.299C1092.8 278.598 1086.15 288.234 1072.87 292.213L1097.02 325.907H1077.22L1055.19 294.735H1034.73V325.907H1019.16V233.181H1053.47C1067.54 233.181 1077.62 235.571 1083.69 240.35C1089.76 245.121 1092.8 252.77 1092.8 263.299Z" fill="#A6CE39"/>
<path d="M1181.35 290.36L1164.59 252.154L1147.83 290.36H1181.35ZM1141.5 304.817L1132.26 325.909H1115.63L1156.28 233.182H1172.9L1213.55 325.909H1196.92L1187.68 304.817H1141.5Z" fill="#A6CE39"/>
<path d="M1281.64 311.715C1287.01 311.715 1291.63 310.812 1295.5 308.997C1299.37 307.185 1303.42 304.286 1307.64 300.307L1317.67 310.655C1307.91 321.533 1296.04 326.973 1282.1 326.973C1268.16 326.973 1256.59 322.461 1247.4 313.442C1238.2 304.419 1233.6 293.013 1233.6 279.216C1233.6 265.418 1238.29 253.923 1247.66 244.727C1257.03 235.528 1268.86 230.932 1283.16 230.932C1297.45 230.932 1309.4 236.233 1318.99 246.846L1309.09 257.724C1304.69 253.477 1300.53 250.518 1296.62 248.838C1292.7 247.159 1288.11 246.316 1282.83 246.316C1273.5 246.316 1265.67 249.35 1259.34 255.401C1253 261.46 1249.84 269.199 1249.84 278.617C1249.84 288.035 1252.98 295.906 1259.27 302.23C1265.56 308.554 1273.02 311.715 1281.64 311.715Z" fill="#A6CE39"/>
<path d="M1384.71 247.511V325.91H1369.14V247.511H1341.16V233.18H1412.69V247.511H1384.71Z" fill="#A6CE39"/>
<path d="M1442.77 325.91H1458.35V233.181H1442.77V325.91Z" fill="#A6CE39"/>
<path d="M1539.25 325.909H1521.83L1484.74 233.18H1502.16L1530.53 302.428L1558.91 233.18H1576.33L1539.25 325.909Z" fill="#A6CE39"/>
<path d="M1667.52 233.181V247.906H1618.29V272.449H1662.5V286.379H1618.29V311.182H1669.1V325.91H1602.72V233.181H1667.52Z" fill="#A6CE39"/>
<path d="M733.057 126.293L717.053 86.2511L701.05 126.293H733.057ZM743.373 152.389H690.734L680.956 176.702H645.035L699.985 51.574H734.66L789.787 176.702H753.156L743.373 152.389Z" fill="#A6CE39"/>
<path d="M927.604 176.701L927.248 110.386L895.241 164.368H879.593L847.757 112.171V176.701H815.218V51.5732H844.205L887.948 123.791L930.63 51.5732H959.617L959.97 176.701H927.604Z" fill="#A6CE39"/>
<path d="M1014.65 164.01C1004.4 153.882 999.269 139.52 999.269 120.93V51.5754H1034.48V119.857C1034.48 139.878 1042.36 149.889 1058.13 149.889C1073.78 149.889 1081.6 139.878 1081.6 119.857V51.5754H1116.28V120.93C1116.28 139.52 1111.15 153.882 1100.9 164.01C1090.64 174.141 1076.27 179.204 1057.77 179.204C1039.28 179.204 1024.9 174.141 1014.65 164.01Z" fill="#A6CE39"/>
<path d="M1169.98 175.45C1160.49 172.949 1152.79 169.611 1146.86 165.441L1158.42 139.342C1163.99 143.038 1170.45 146.016 1177.81 148.281C1185.15 150.544 1192.39 151.678 1199.5 151.678C1213.01 151.678 1219.77 148.281 1219.77 141.486C1219.77 137.912 1217.85 135.262 1213.99 133.532C1210.14 131.805 1203.95 129.988 1195.41 128.08C1186.04 126.053 1178.22 123.881 1171.94 121.557C1165.65 119.234 1160.26 115.509 1155.76 110.385C1151.25 105.261 1149 98.3493 1149 89.6489C1149 82.0241 1151.07 75.1412 1155.22 69.0027C1159.37 62.8668 1165.56 58.0106 1173.8 54.434C1182.04 50.8574 1192.15 49.0718 1204.12 49.0718C1212.3 49.0718 1220.37 49.9964 1228.31 51.843C1236.25 53.6922 1243.25 56.3998 1249.29 59.9764L1238.45 86.2525C1226.59 79.8173 1215.09 76.5983 1203.95 76.5983C1196.95 76.5983 1191.85 77.6448 1188.65 79.7272C1185.45 81.8148 1183.85 84.5251 1183.85 87.8606C1183.85 91.1988 1185.74 93.7024 1189.54 95.3688C1193.33 97.0379 1199.44 98.7653 1207.86 100.554C1217.34 102.58 1225.2 104.753 1231.42 107.079C1237.65 109.402 1243.04 113.095 1247.6 118.161C1252.16 123.227 1254.45 130.109 1254.45 138.805C1254.45 146.313 1252.37 153.106 1248.22 159.183C1244.08 165.261 1237.85 170.117 1229.55 173.752C1221.25 177.387 1211.18 179.204 1199.32 179.204C1189.24 179.204 1179.46 177.951 1169.98 175.45Z" fill="#A6CE39"/>
<path d="M1404.53 51.5742V176.702H1375.55L1320.6 110.026V176.702H1286.1V51.5742H1315.09L1370.03 118.25V51.5742H1404.53Z" fill="#A6CE39"/>
<path d="M1544.85 149.353V176.702H1444.9V51.574H1542.53V78.923H1479.76V100.014H1535.06V126.471H1479.76V149.353H1544.85Z" fill="#A6CE39"/>
<path d="M1606.37 79.6381H1568.14V51.5737H1679.63V79.6381H1641.58V176.702H1606.37V79.6381Z" fill="#A6CE39"/>
</svg>
