<?xml version="1.0" encoding="utf-8"?>
<!-- Generator: Adobe Illustrator 22.1.0, SVG Export Plug-In . SVG Version: 6.00 Build 0)  -->
<svg version="1.1" id="Слой_1" xmlns="http://www.w3.org/2000/svg" xmlns:xlink="http://www.w3.org/1999/xlink" x="0px" y="0px"
	 width="100px" height="43px" viewBox="0 0 100 43" enable-background="new 0 0 100 43" xml:space="preserve">
<title>76691215-8656-4DDC-A668-3D8F57579FA6</title>
<desc>Created with sketchtool.</desc>
<linearGradient id="SVGID_1_" gradientUnits="userSpaceOnUse" x1="18.2439" y1="17.6646" x2="18.2439" y2="0.7454">
	<stop  offset="0" style="stop-color:#161B60"/>
	<stop  offset="3.549218e-02" style="stop-color:#14266B"/>
	<stop  offset="0.1871" style="stop-color:#0E4F93"/>
	<stop  offset="0.3423" style="stop-color:#0971B4"/>
	<stop  offset="0.4995" style="stop-color:#058CCE"/>
	<stop  offset="0.6595" style="stop-color:#029FE0"/>
	<stop  offset="0.824" style="stop-color:#01AAEB"/>
	<stop  offset="1" style="stop-color:#00AEEF"/>
</linearGradient>
<path fill="url(#SVGID_1_)" d="M2.6,11c2,1.5,3.5,2.1,6,3.3c1.8,0.8,5.2,2.1,7.8,3.4c-3.3-2-7.2-4.5-7.2-8.9c0-6.9,17.8-6.4,26.3,0
	c0,0-5.5-8.1-17.8-8.1C9.6,0.7,3,4.5,0.8,7.7l0.1,0.2C0.9,7.8,0.6,9.5,2.6,11z"/>
<linearGradient id="SVGID_2_" gradientUnits="userSpaceOnUse" x1="18.3076" y1="26.4337" x2="18.3076" y2="42.7454">
	<stop  offset="0" style="stop-color:#4E0900"/>
	<stop  offset="9.231478e-02" style="stop-color:#6D2505"/>
	<stop  offset="0.2404" style="stop-color:#984B0C"/>
	<stop  offset="0.3908" style="stop-color:#BC6B11"/>
	<stop  offset="0.5415" style="stop-color:#D78415"/>
	<stop  offset="0.6928" style="stop-color:#EB9619"/>
	<stop  offset="0.8451" style="stop-color:#F7A01A"/>
	<stop  offset="1" style="stop-color:#FBA41B"/>
</linearGradient>
<path fill="url(#SVGID_2_)" d="M9.3,34.7c0-4,3.2-6.4,6.2-8.2c-3.6,1.8-9.7,4.1-11.1,4.9c-1.4,0.8-2.2,0.9-2.8,2.1
	C1.2,34.2,1,35.3,0.9,36c2.3,3.2,8.8,6.8,16.9,6.8c12.3,0,17.8-8.1,17.8-8.1C27.2,41.1,9.3,41.6,9.3,34.7z"/>
<path fill="#132647" d="M46.3,16.7h-1v2.9c-0.2-0.3-0.5-0.5-0.8-0.7c-0.3-0.2-0.7-0.3-1.2-0.3c-0.8,0-1.5,0.3-2.2,1
	c-0.5,0.5-0.7,1.3-0.7,2.5c0,1,0.2,1.8,0.7,2.4c0.3,0.3,0.7,0.7,1.2,0.7c0.5,0.2,0.8,0.3,1.3,0.3c1,0,1.7-0.3,2.5-0.7
	c0.7-0.3,1.2-1.2,1.2-2.4v-4.9c0-0.2-0.2-0.3-0.3-0.5C46.8,16.9,46.7,16.7,46.3,16.7z M45,23.4c-0.2,0.3-0.7,0.5-1.2,0.5
	s-0.8-0.2-1.2-0.5c-0.2-0.3-0.3-0.8-0.3-1.5c0-0.5,0.2-1,0.3-1.3c0.3-0.3,0.7-0.5,1.2-0.5s0.8,0.2,1.2,0.5s0.3,0.8,0.3,1.3
	C45.3,22.6,45.3,23.1,45,23.4z"/>
<path fill="#FFFFFF" d="M46.3,16.2h-1h-0.5v0.5v1.8c0,0-0.1,0-0.1-0.1c-0.4-0.2-0.8-0.4-1.4-0.4c-0.9,0-1.7,0.4-2.5,1.2
	c-0.6,0.6-0.8,1.5-0.8,2.9c0,1.3,0.3,2.1,0.8,2.7c0.3,0.3,0.8,0.8,1.4,0.8c0.1,0,0.1,0.1,0.2,0.1c0.4,0.1,0.7,0.3,1.2,0.3
	c1,0,1.7-0.3,2.4-0.6l0.3-0.1c0.9-0.5,1.5-1.5,1.5-2.8v-4.9c0-0.4-0.3-0.6-0.5-0.9C47.2,16.5,46.9,16.2,46.3,16.2z M47.3,22.4
	c0,1.2-0.5,2-1.2,2.4c-0.8,0.3-1.5,0.7-2.5,0.7c-0.5,0-0.8-0.2-1.3-0.3c-0.5,0-0.8-0.3-1.2-0.7c-0.5-0.5-0.7-1.3-0.7-2.4
	c0-1.2,0.2-2,0.7-2.5c0.7-0.7,1.3-1,2.2-1c0.5,0,0.8,0.2,1.2,0.3c0.3,0.2,0.7,0.3,0.8,0.7v-2.9h1c0.3,0,0.5,0.2,0.7,0.3
	c0.2,0.2,0.3,0.3,0.3,0.5V22.4z"/>
<path fill="#FFFFFF" d="M43.8,20.1c-0.5,0-0.8,0.2-1.2,0.5c-0.2,0.3-0.3,0.8-0.3,1.3c0,0.7,0.2,1.2,0.3,1.5c0.3,0.3,0.7,0.5,1.2,0.5
	s1-0.2,1.2-0.5c0.3-0.3,0.3-0.8,0.3-1.5c0-0.5,0-1-0.3-1.3S44.3,20.1,43.8,20.1z M44.6,23.1L44.6,23.1c-0.1,0.2-0.4,0.3-0.8,0.3
	c-0.3,0-0.5-0.1-0.8-0.3c-0.1-0.3-0.2-0.7-0.2-1.2c0-0.4,0.2-0.9,0.2-1c0.2-0.2,0.4-0.3,0.8-0.3c0.3,0,0.6,0.1,0.8,0.4
	c0.2,0.2,0.2,0.6,0.2,1C44.8,22.5,44.8,22.9,44.6,23.1L44.6,23.1z"/>
<path fill="#132647" d="M37.7,19.1c-0.7-0.3-1.3-0.5-2.2-0.5s-1.5,0.2-2.2,0.7c-0.7,0.3-1,1-1,2.2v3.9h2v-4.2c0-0.3,0-0.7,0.3-0.8
	c0.2-0.2,0.5-0.3,0.8-0.3s0.7,0.2,0.8,0.3c0.3,0.2,0.5,0.5,0.5,0.8v3.4c0,0.2,0,0.5,0.2,0.5c0.2,0.2,0.5,0.3,0.7,0.3h1v-3.9
	C38.7,20.2,38.3,19.6,37.7,19.1z"/>
<path fill="#FFFFFF" d="M38,18.7L38,18.7L38,18.7c-0.8-0.4-1.6-0.6-2.5-0.6c-1,0-1.7,0.2-2.4,0.7c-0.8,0.4-1.2,1.3-1.2,2.6v3.9v0.5
	h0.5h2h0.5v-0.5v-4.2c0-0.3,0-0.4,0.1-0.4l0.1,0l0.1-0.1c0.1-0.1,0.3-0.2,0.5-0.2c0.2,0,0.4,0.1,0.5,0.2l0.1,0.1l0.1,0
	c0.2,0.1,0.2,0.3,0.2,0.4v3.4c0,0.6,0.2,0.9,0.4,1c0.2,0.2,0.6,0.4,0.9,0.4h1h0.5v-0.5v-3.9C39.2,20.1,38.8,19.3,38,18.7z
	 M38.7,25.3h-1c-0.2,0-0.5-0.2-0.7-0.3c-0.2,0-0.2-0.3-0.2-0.5v-3.4c0-0.3-0.2-0.7-0.5-0.8c-0.2-0.2-0.5-0.3-0.8-0.3
	s-0.7,0.2-0.8,0.3c-0.3,0.2-0.3,0.5-0.3,0.8v4.2h-2v-3.9c0-1.2,0.3-1.8,1-2.2c0.7-0.5,1.3-0.7,2.2-0.7s1.5,0.2,2.2,0.5
	c0.7,0.5,1,1.2,1,2.4V25.3z"/>
<path fill="#132647" d="M27,18.6c-1,0-1.8,0.3-2.3,0.8c-0.7,0.7-1,1.5-1,2.5c0,1.2,0.3,2,1,2.5c0.5,0.7,1.3,1,2.3,1s1.7-0.3,2.2-0.7
	c0.7-0.3,1-0.8,1.2-1.5H29c-0.2,0-0.3,0-0.5,0.2c-0.2,0-0.2,0-0.2,0.2c-0.2,0-0.2,0-0.2,0.2H28c-0.3,0.2-0.5,0.2-0.8,0.2
	c-0.5,0-0.8-0.2-1-0.3c-0.3-0.3-0.5-0.7-0.5-1.2h4.8v-0.5c0-1-0.3-1.8-0.8-2.5C29,18.9,28.2,18.6,27,18.6z M25.7,21.2
	c0-0.3,0.2-0.7,0.5-0.8c0.2-0.3,0.5-0.3,1-0.3c0.3,0,0.7,0,1,0.3c0.2,0.2,0.3,0.5,0.3,0.8H25.7z"/>
<path fill="#FFFFFF" d="M30,19L30,19c-0.9-0.7-1.9-1-3-1c-1.1,0-2.1,0.4-2.7,1c-0.8,0.8-1.1,1.7-1.1,2.9c0,1.3,0.4,2.3,1.1,2.9
	c0.6,0.7,1.5,1.2,2.7,1.2c1.2,0,1.9-0.4,2.4-0.7c0.7-0.4,1.2-1,1.4-1.8l0.1-0.5H31v-0.5v-0.5C31,20.9,30.7,19.9,30,19L30,19z
	 M26.3,22.9h2.1c0,0,0,0,0,0c-0.2,0-0.3,0.1-0.4,0.2c-0.1,0-0.1,0.1-0.1,0.1l0,0c-0.2,0.1-0.3,0.1-0.6,0.1c-0.4,0-0.6-0.2-0.6-0.2
	C26.4,23.1,26.3,23,26.3,22.9z M30.5,22.4h-4.8c0,0.5,0.2,0.8,0.5,1.2c0.2,0.2,0.5,0.3,1,0.3c0.3,0,0.5,0,0.8-0.2h0.2
	c0-0.2,0-0.2,0.2-0.2c0-0.2,0-0.2,0.2-0.2c0.2-0.2,0.3-0.2,0.5-0.2h1.3c-0.2,0.7-0.5,1.2-1.2,1.5c-0.5,0.3-1.2,0.7-2.2,0.7
	s-1.8-0.3-2.3-1c-0.7-0.5-1-1.3-1-2.5c0-1,0.3-1.8,1-2.5c0.5-0.5,1.3-0.8,2.3-0.8c1.2,0,2,0.3,2.7,0.8c0.5,0.7,0.8,1.5,0.8,2.5V22.4
	z"/>
<path fill="#FFFFFF" d="M27.2,20.1c-0.5,0-0.8,0-1,0.3c-0.3,0.2-0.5,0.5-0.5,0.8h2.8c0-0.3-0.2-0.7-0.3-0.8
	C27.8,20.1,27.5,20.1,27.2,20.1z M26.6,20.6c0.1-0.1,0.3-0.1,0.6-0.1c0.3,0,0.5,0,0.6,0.2h-1.2L26.6,20.6z"/>
<path fill="#132647" d="M90.2,19.1c-0.7-0.3-1.5-0.5-2.3-0.5c-0.7,0-1.5,0.2-2.2,0.7c-0.7,0.3-0.8,1-0.8,2.2v3.9h1.8v-4.2
	c0-0.3,0.2-0.7,0.3-0.8c0.3-0.2,0.7-0.3,1-0.3s0.5,0.2,0.8,0.3c0.3,0.2,0.3,0.5,0.3,0.8v3.4c0,0.2,0.2,0.5,0.3,0.5
	c0.2,0.2,0.3,0.3,0.7,0.3h1v-3.9C91.2,20.2,90.8,19.6,90.2,19.1z"/>
<path fill="#FFFFFF" d="M90.5,18.7L90.5,18.7L90.5,18.7c-0.8-0.4-1.7-0.6-2.6-0.6c-0.5,0-1.6,0.1-2.4,0.7c-1,0.5-1.1,1.6-1.1,2.6
	v3.9v0.5h0.5h1.8h0.5v-0.5v-4.2c0-0.2,0.1-0.3,0.1-0.4c0.3-0.1,0.5-0.2,0.7-0.2c0.1,0,0.2,0,0.3,0.1c0.1,0,0.2,0.1,0.3,0.1
	c0,0,0.1,0.1,0.1,0.4v3.4c0,0.3,0.2,0.8,0.6,0.9c0.2,0.2,0.5,0.4,0.9,0.4h1h0.5v-0.5v-3.9C91.7,20.1,91.3,19.3,90.5,18.7z
	 M91.2,25.3h-1c-0.3,0-0.5-0.2-0.7-0.3c-0.2,0-0.3-0.3-0.3-0.5v-3.4c0-0.3,0-0.7-0.3-0.8c-0.3-0.2-0.5-0.3-0.8-0.3s-0.7,0.2-1,0.3
	c-0.2,0.2-0.3,0.5-0.3,0.8v4.2h-1.8v-3.9c0-1.2,0.2-1.8,0.8-2.2c0.7-0.5,1.5-0.7,2.2-0.7c0.8,0,1.7,0.2,2.3,0.5c0.7,0.5,1,1.2,1,2.4
	V25.3z"/>
<path fill="#132647" d="M82.2,16.9h-1v1.3h2v-0.7c0-0.2-0.2-0.3-0.3-0.5C82.7,16.9,82.3,16.9,82.2,16.9z"/>
<path fill="#FFFFFF" d="M82.2,16.4h-1h-0.5v0.5v1.3v0v0.5v0v6.6v0.5h0.5h2h0.5v-0.5v-5.7c0-0.3-0.2-0.6-0.3-0.8h0.3v-0.5v-0.7
	c0-0.4-0.3-0.6-0.5-0.9C82.9,16.4,82.4,16.4,82.2,16.4z M83.2,25.3h-2v-6.6h1c0.2,0,0.5,0,0.7,0.2c0.2,0.2,0.3,0.5,0.3,0.7V25.3z
	 M83.2,18.2h-2v-1.3h1c0.2,0,0.5,0,0.7,0.2c0.2,0.2,0.3,0.3,0.3,0.5V18.2z"/>
<path fill="#132647" d="M53.7,18.7c-0.5-0.2-1.2-0.2-2-0.2c-0.7,0.2-1.3,0.5-1.8,0.8c-0.3,0.3-0.5,0.7-0.7,1.2
	c0,0.5-0.2,0.8-0.2,1.3c0,0.5,0.2,1,0.3,1.5c0.2,0.5,0.3,1,0.8,1.2c0.3,0.3,0.8,0.5,1.3,0.7c0.3,0.1,0.7,0.1,1,0.1s0.6,0,0.9-0.1
	c0.7-0.2,1.3-0.5,1.7-1c0.3-0.3,0.5-0.7,0.5-1c0.2-0.3,0.2-0.8,0.2-1.3c0-0.7,0-1.3-0.3-1.8C55,19.4,54.5,19.1,53.7,18.7z
	 M53.5,23.4c-0.2,0.3-0.5,0.5-0.7,0.5H52c-0.3-0.2-0.5-0.2-0.7-0.3c-0.3-0.3-0.3-0.8-0.5-1.5c0-0.8,0.2-1.3,0.5-1.7
	c0.2-0.2,0.3-0.3,0.7-0.3c0.2-0.1,0.3-0.1,0.4-0.1s0.2,0,0.4,0.1c0.3,0,0.5,0.3,0.7,0.5c0.3,0.3,0.3,0.8,0.3,1.3
	C53.8,22.6,53.7,23.1,53.5,23.4z"/>
<path fill="#FFFFFF" d="M53.9,18.3c-0.6-0.2-1.3-0.2-2.2-0.2h-0.1l-0.1,0c-0.6,0.2-1.4,0.5-2,0.9l0,0l0,0c-0.4,0.4-0.6,0.8-0.8,1.4
	l0,0.1v0.1c0,0.2,0,0.4-0.1,0.6c0,0.2-0.1,0.5-0.1,0.8c0,0.6,0.2,1.1,0.4,1.7c0.2,0.5,0.4,1.2,1,1.5c0.4,0.4,0.9,0.5,1.4,0.7
	c0.4,0.1,0.8,0.2,1.1,0.2c0.4,0,0.7-0.1,1-0.2c0.5-0.1,1.4-0.4,1.9-1.2c0.4-0.4,0.6-0.8,0.6-1.2c0.2-0.4,0.2-1,0.2-1.5
	c0-0.7,0-1.5-0.4-2.1C55.4,19,54.7,18.6,53.9,18.3z M55.5,23.3c0,0.3-0.2,0.7-0.5,1c-0.3,0.5-1,0.8-1.7,1c-0.2,0.1-0.5,0.1-0.9,0.1
	s-0.6,0-1-0.1c-0.5-0.2-1-0.3-1.3-0.7c-0.5-0.2-0.7-0.7-0.8-1.2c-0.2-0.5-0.3-1-0.3-1.5c0-0.5,0.2-0.8,0.2-1.3
	c0.2-0.5,0.3-0.8,0.7-1.2c0.5-0.3,1.2-0.7,1.8-0.8c0.8,0,1.5,0,2,0.2c0.8,0.3,1.3,0.7,1.7,1.3c0.3,0.5,0.3,1.2,0.3,1.8
	C55.7,22.4,55.7,22.9,55.5,23.3z"/>
<path fill="#FFFFFF" d="M52.8,20.1c-0.2-0.1-0.3-0.1-0.4-0.1s-0.2,0-0.4,0.1c-0.3,0-0.5,0.2-0.7,0.3c-0.3,0.3-0.5,0.8-0.5,1.7
	c0.2,0.7,0.2,1.2,0.5,1.5c0.2,0.2,0.3,0.2,0.7,0.3h0.8c0.2,0,0.5-0.2,0.7-0.5s0.3-0.8,0.3-1.5c0-0.5,0-1-0.3-1.3
	C53.3,20.4,53.2,20.1,52.8,20.1z M52.8,23.4l-0.7,0c-0.1,0-0.2-0.1-0.3-0.1c-0.1,0-0.1-0.1-0.2-0.1c-0.1-0.1-0.2-0.4-0.3-0.8
	c0-0.1-0.1-0.3-0.1-0.5c0-0.8,0.2-1.1,0.4-1.3c0.2-0.2,0.2-0.2,0.3-0.2h0.1l0.1-0.1c0.1-0.1,0.2-0.1,0.2-0.1c0,0,0.1,0,0.2,0.1
	l0.1,0.1h0.1c0,0,0.1,0.1,0.2,0.2c0.1,0.1,0.1,0.1,0.2,0.2c0.2,0.2,0.2,0.6,0.2,1c0,0.6-0.2,1-0.3,1.3C53,23.4,52.8,23.4,52.8,23.4z
	"/>
<path fill="#132647" d="M82.2,18.7h-1v6.6h2v-5.7c0-0.2-0.2-0.5-0.3-0.7C82.7,18.7,82.3,18.7,82.2,18.7z"/>
<path fill="#132647" d="M70.3,21.9c0-1-0.2-1.8-0.8-2.5c-0.2-0.2-0.5-0.5-1-0.7c-0.5,0-1-0.2-1.5-0.2c-0.8,0-1.7,0.2-2.3,0.7
	c-0.8,0.3-1.2,1.2-1.2,2.4v6h1c0.2,0,0.3,0,0.7-0.2c0.2-0.2,0.2-0.3,0.2-0.7v-2.4c0.3,0.3,0.5,0.5,0.8,0.7c0.5,0.2,0.8,0.3,1.3,0.3
	c0.8,0,1.5-0.3,2-1C70.2,23.8,70.3,22.9,70.3,21.9z M68.2,23.4c-0.3,0.3-0.7,0.5-1.2,0.5s-1-0.2-1.2-0.5c-0.3-0.3-0.5-0.8-0.5-1.3
	c0-0.7,0.2-1.2,0.5-1.5c0.2-0.3,0.5-0.5,1-0.5c0.7,0,1,0.2,1.3,0.5c0.2,0.3,0.3,0.8,0.3,1.5C68.5,22.6,68.3,23.1,68.2,23.4z"/>
<path fill="#FFFFFF" d="M68.7,18.2L68.7,18.2l-0.2,0c-0.2,0-0.4,0-0.7-0.1c-0.3,0-0.5-0.1-0.8-0.1c-1,0-1.9,0.2-2.6,0.7
	c-0.9,0.4-1.4,1.3-1.4,2.8v6v0.5h0.5h1c0.2,0,0.5,0,0.9-0.2l0.1,0l0.1-0.1c0.3-0.3,0.3-0.6,0.3-1v-1.3c0,0,0.1,0,0.1,0.1l0,0l0,0
	c0.1,0,0.2,0.1,0.3,0.1c0.4,0.1,0.7,0.3,1.2,0.3c1,0,1.8-0.4,2.4-1.2c0.8-0.9,1-1.9,1-2.8c0-0.9-0.1-2-1-2.9
	C69.7,18.9,69.3,18.5,68.7,18.2z M67.5,25.4c-0.5,0-0.8-0.2-1.3-0.3c-0.3-0.2-0.5-0.3-0.8-0.7v2.4c0,0.3,0,0.5-0.2,0.7
	c-0.3,0.2-0.5,0.2-0.7,0.2h-1v-6c0-1.2,0.3-2,1.2-2.4c0.7-0.5,1.5-0.7,2.3-0.7c0.5,0,1,0.2,1.5,0.2c0.5,0.2,0.8,0.5,1,0.7
	c0.7,0.7,0.8,1.5,0.8,2.5s-0.2,1.8-0.8,2.5C69,25.1,68.3,25.4,67.5,25.4z"/>
<path fill="#FFFFFF" d="M66.8,20.1c-0.5,0-0.8,0.2-1,0.5c-0.3,0.3-0.5,0.8-0.5,1.5c0,0.5,0.2,1,0.5,1.3c0.2,0.3,0.7,0.5,1.2,0.5
	s0.8-0.2,1.2-0.5c0.2-0.3,0.3-0.8,0.3-1.3c0-0.7-0.2-1.2-0.3-1.5C67.8,20.2,67.5,20.1,66.8,20.1z M67,23.4c-0.4,0-0.7-0.1-0.7-0.2
	l0-0.1l-0.1-0.1c-0.2-0.2-0.4-0.6-0.4-1c0-0.5,0.1-0.9,0.4-1.2l0.1-0.1l0-0.1c0-0.1,0.1-0.2,0.6-0.2c0.5,0,0.7,0.1,0.9,0.3
	c0.1,0.3,0.2,0.7,0.2,1.2c0,0.4-0.2,0.9-0.2,1C67.5,23.3,67.3,23.4,67,23.4z"/>
<path fill="#132647" d="M60,18.9c-0.5,0.2-0.8,0.3-1.2,0.5c-0.3,0.3-0.7,0.7-0.8,1c-0.3,0.5-0.3,1-0.3,1.7v3.2h1.8v-3.4
	c0-0.5,0.2-0.8,0.5-1.2c0.2-0.2,0.5-0.3,1.2-0.3h0.5v-1.7h-0.2C61,18.7,60.5,18.7,60,18.9z"/>
<path fill="#FFFFFF" d="M61.5,18.2c-0.5,0-1.1,0-1.7,0.2c-0.5,0.2-0.9,0.4-1.2,0.5l-0.1,0L58.5,19c-0.3,0.4-0.7,0.7-0.9,1.1
	c-0.4,0.6-0.4,1.2-0.4,1.9v3.2v0.5h0.5h1.8H60v-0.5v-3.4c0-0.3,0.1-0.6,0.4-0.8c0,0,0.2-0.2,0.8-0.2h0.5h0.5v-0.5v-1.7v-0.5h-0.5
	H61.5z M61.7,20.4h-0.5c-0.7,0-1,0.2-1.2,0.3c-0.3,0.3-0.5,0.7-0.5,1.2v3.4h-1.8v-3.2c0-0.7,0-1.2,0.3-1.7c0.2-0.3,0.5-0.7,0.8-1
	c0.3-0.2,0.7-0.3,1.2-0.5c0.5-0.2,1-0.2,1.5-0.2h0.2V20.4z"/>
<path fill="#132647" d="M78.5,19.7c-0.3-0.5-0.7-0.8-1.2-1c-0.3-0.1-0.6-0.1-0.9-0.1s-0.6,0-0.9,0.1c-0.5,0-1,0.3-1.3,0.8v-2
	c0-0.2-0.2-0.3-0.3-0.5c-0.2-0.2-0.3-0.2-0.7-0.2h-0.8v8.4h1.8v-3.4c0-0.7,0.2-1,0.3-1.3c0.3-0.3,0.7-0.5,1.3-0.5
	c0.3,0,0.8,0.2,1,0.5c0.2,0.2,0.3,0.3,0.3,0.7c0,0.2,0.2,0.3,0.2,0.7v3.4h1.8v-3.9C79.2,20.7,79,20.1,78.5,19.7z"/>
<path fill="#FFFFFF" d="M77.5,18.2c-0.4-0.1-0.7-0.2-1.1-0.2c-0.3,0-0.6,0-1,0.1c-0.3,0-0.5,0.1-0.8,0.2v-0.9c0-0.4-0.3-0.6-0.5-0.9
	c-0.3-0.3-0.7-0.3-1-0.3h-0.8h-0.5v0.5v8.4v0.5h0.5h1.8h0.5v-0.5v-3.4c0-0.5,0.1-0.8,0.2-1c0.2-0.2,0.4-0.3,0.9-0.3
	c0.2,0,0.5,0.1,0.6,0.2l0,0.1l0.1,0.1c0.2,0.2,0.2,0.2,0.2,0.3c0,0.2,0.1,0.3,0.1,0.4c0,0.1,0.1,0.2,0.1,0.3v3.4v0.5h0.5h1.8h0.5
	v-0.5v-3.9c0-0.9-0.3-1.6-0.8-2C78.6,18.9,78.2,18.5,77.5,18.2z M79.2,25.3h-1.8v-3.4c0-0.3-0.2-0.5-0.2-0.7c0-0.3-0.2-0.5-0.3-0.7
	c-0.2-0.3-0.7-0.5-1-0.5c-0.7,0-1,0.2-1.3,0.5c-0.2,0.3-0.3,0.7-0.3,1.3v3.4h-1.8v-8.4h0.8c0.3,0,0.5,0,0.7,0.2
	c0.2,0.2,0.3,0.3,0.3,0.5v2c0.3-0.5,0.8-0.8,1.3-0.8c0.3-0.1,0.6-0.1,0.9-0.1s0.6,0,0.9,0.1c0.5,0.2,0.8,0.5,1.2,1
	c0.5,0.3,0.7,1,0.7,1.7V25.3z"/>
<path fill="#132647" d="M98.2,19.1c-0.5-0.3-1.2-0.5-2.3-0.5c-0.8,0-1.5,0.2-2,0.5s-0.7,0.8-0.8,1.3h1.8c0.2-0.2,0.3-0.3,0.5-0.3
	c0.2-0.2,0.3-0.2,0.7-0.2c0.2,0,0.5,0,0.8,0.2c0.2,0,0.3,0.2,0.3,0.5s-0.3,0.5-1.2,0.5c-0.2,0.2-0.3,0.2-0.5,0.2h-0.3
	c-0.7,0.2-1.2,0.3-1.7,0.7c-0.5,0.2-0.7,0.7-0.7,1.3c0,0.8,0.2,1.3,0.7,1.7s1.2,0.5,1.8,0.5c0.3,0,0.7-0.2,1.2-0.2
	c0.3,0,0.8-0.2,1.2-0.3c0.3-0.2,0.7-0.3,1-0.7c0.2-0.5,0.3-1,0.3-1.7v-2.2C99,19.9,98.7,19.4,98.2,19.1z M97.2,22.6
	c0,0.5-0.2,0.8-0.3,1c-0.3,0.3-0.7,0.5-1.3,0.5c-0.2,0-0.5-0.2-0.7-0.2c-0.2-0.2-0.2-0.5-0.2-0.7c0-0.2,0-0.3,0.2-0.5
	c0.2-0.2,0.3-0.3,0.7-0.3c0,0,0.2,0,0.7-0.2c0.5,0,0.8-0.2,1-0.3V22.6z"/>
<path fill="#FFFFFF" d="M98.4,18.6c-0.6-0.4-1.4-0.6-2.6-0.6c-0.9,0-1.7,0.2-2.3,0.6c-0.6,0.4-0.8,1.1-1,1.6l-0.2,0.7l0.7,0h1.5
	c-0.5,0.1-0.8,0.3-1.2,0.6c-0.6,0.2-0.9,0.8-0.9,1.8c0,0.7,0.1,1.6,0.9,2.1c0.6,0.4,1.3,0.6,2.1,0.6c0.2,0,0.4,0,0.6-0.1
	c0.2,0,0.4-0.1,0.6-0.1c0.4,0,1-0.2,1.4-0.4c0.3-0.2,0.7-0.4,1.1-0.8l0.1-0.1l0-0.1c0.2-0.5,0.4-1.1,0.4-1.8v-2.2
	C99.5,19.7,99.1,19.1,98.4,18.6z M99,22.6c0,0.7-0.2,1.2-0.3,1.7c-0.3,0.3-0.7,0.5-1,0.7c-0.3,0.2-0.8,0.3-1.2,0.3
	c-0.5,0-0.8,0.2-1.2,0.2c-0.7,0-1.3-0.2-1.8-0.5s-0.7-0.8-0.7-1.7c0-0.7,0.2-1.2,0.7-1.3c0.5-0.3,1-0.5,1.7-0.7h0.3
	c0.2,0,0.3,0,0.5-0.2c0.8,0,1.2-0.2,1.2-0.5s-0.2-0.5-0.3-0.5c-0.3-0.2-0.7-0.2-0.8-0.2c-0.3,0-0.5,0-0.7,0.2
	c-0.2,0-0.3,0.2-0.5,0.3H93c0.2-0.5,0.3-1,0.8-1.3s1.2-0.5,2-0.5c1.2,0,1.8,0.2,2.3,0.5s0.8,0.8,0.8,1.3V22.6z M95.2,20.7
	c0.1-0.1,0.1-0.1,0.2-0.2h0.2l0.1-0.1c0,0,0.2,0,0.3,0c0.1,0,0.4,0,0.6,0.1l0,0c-0.1,0-0.3,0.1-0.6,0.1h-0.2l-0.1,0.1
	c0,0-0.1,0-0.1,0H95.2z"/>
<path fill="#FFFFFF" d="M95.5,22.4c-0.3,0-0.5,0.2-0.7,0.3c-0.2,0.2-0.2,0.3-0.2,0.5c0,0.2,0,0.5,0.2,0.7c0.2,0,0.5,0.2,0.7,0.2
	c0.7,0,1-0.2,1.3-0.5c0.2-0.2,0.3-0.5,0.3-1v-0.7c-0.2,0.2-0.5,0.3-1,0.3C95.7,22.4,95.5,22.4,95.5,22.4z M96.7,22.7
	c0,0.4-0.2,0.5-0.2,0.5c-0.2,0.2-0.4,0.4-1,0.4c-0.1,0-0.1,0-0.2-0.1c0,0-0.1,0-0.2,0c0-0.1,0-0.1,0-0.2c0,0,0-0.1,0-0.1
	c0.2-0.2,0.2-0.2,0.3-0.2c0.1,0,0.3,0,0.8-0.2C96.4,22.7,96.5,22.7,96.7,22.7z"/>
<linearGradient id="SVGID_3_" gradientUnits="userSpaceOnUse" x1="10.4167" y1="35.9823" x2="10.4167" y2="7.6725">
	<stop  offset="0" style="stop-color:#660308"/>
	<stop  offset="0.4381" style="stop-color:#DE1A23"/>
	<stop  offset="0.6237" style="stop-color:#DE1A23"/>
	<stop  offset="1" style="stop-color:#660308"/>
</linearGradient>
<path fill="url(#SVGID_3_)" d="M4.4,31.4c1.4-0.8,7.5-3.1,11.1-4.9c2.7-1.7,5.3-3,5.3-4.7c0-1.5-2-2.7-4.3-4.1
	c-2.6-1.3-6.1-2.6-7.8-3.4c-2.5-1.2-4-1.8-6-3.3c-2-1.5-1.7-3.1-1.7-3.1L0.8,7.7C0.3,8.4,0,9.2,0,9.8c0,3.9,7.7,5.9,7.7,11.9
	c0,5.9-7.7,8.1-7.7,11.9c0,0.7,0.3,1.5,0.9,2.3c0.1-0.7,0.2-1.8,0.6-2.5C2.2,32.3,3,32.2,4.4,31.4z"/>
<linearGradient id="SVGID_4_" gradientUnits="userSpaceOnUse" x1="18.16" y1="23.8315" x2="18.16" y2="19.1685">
	<stop  offset="0" style="stop-color:#DE1A22"/>
	<stop  offset="1" style="stop-color:#F9D7D8"/>
</linearGradient>
<path fill="url(#SVGID_4_)" d="M18.6,20.1c0,0,1.1,0.7,1.3,1.3s-0.5,1.6-1.1,2c-0.6,0.4-1.5,0.5-1.6,0.3c-0.3-0.6,1.2-1,1-1.9
	s-0.8-1.3-1.2-1.6c-0.3-0.4-0.7-0.8-0.5-0.9C16.6,19,18.6,20.1,18.6,20.1z"/>
</svg>
