<?xml version="1.0" encoding="utf-8"?>
<!-- Generator: Adobe Illustrator 24.2.1, SVG Export Plug-In . SVG Version: 6.00 Build 0)  -->
<svg version="1.1" id="Layer_1" xmlns="http://www.w3.org/2000/svg" xmlns:xlink="http://www.w3.org/1999/xlink" x="0px" y="0px"
	 viewBox="0 0 38 24" style="enable-background:new 0 0 38 24;" xml:space="preserve">
<style type="text/css">
	.st0{fill:#83766A;}
</style>
<g transform="translate(-7.143054,659.000000) scale(0.100000,-0.100000)">
	<path class="st0" d="M146.303,6489.607c-29.505-55.251-53.662-100.649-53.735-100.907c-0.109-0.441,13.752-0.515,87.205-0.515
		h87.351v45.214v45.215H234.49l-32.671-0.037l-6.622-12.756l-6.585-12.756l25.067-0.11l25.067-0.074v-16.91v-16.91h-46.932h-46.93
		l1.273,2.316c0.692,1.25,18.336,33.636,39.219,71.94l38.018,69.661h7.568h7.604l0.109-29.666l0.073-29.703h14.188h14.188v43.193
		V6590h-33.58h-33.58L146.303,6489.607z"/>
	<path class="st0" d="M275.492,6489.092v-100.907h14.916h14.916v32.349v32.349l29.141-0.073l29.141-0.11l17.135-31.798
		c9.459-17.498,17.318-32.019,17.463-32.275c0.219-0.331,3.965-0.441,16.299-0.441c8.768,0,15.971,0.11,15.971,0.22
		c0,0.147-24.194,45.545-53.735,100.908L322.97,6590h-23.721h-23.757C275.492,6590,275.492,6489.092,275.492,6489.092z
		 M327.553,6518.87c11.969-21.983,21.792-40.032,21.792-40.106c0-0.073-9.895-0.147-22.011-0.147h-22.011v40.326
		c0,22.167,0.109,40.215,0.219,40.105C305.652,6558.9,315.548,6540.851,327.553,6518.87z"/>
	<path class="st0" d="M87.511,6380.025c-0.145-0.257-3.82-7.095-8.186-15.182l-7.894-14.705l94.918-0.11
		c52.207-0.037,137.702-0.037,189.982,0l95.1,0.11l-8.077,15.072l-8.077,15.072l-173.756,0.11
		C122.801,6380.466,87.766,6380.393,87.511,6380.025z"/>
</g>
</svg>
