<?xml version="1.0" encoding="utf-8"?>
<!-- Generator: Adobe Illustrator 24.2.1, SVG Export Plug-In . SVG Version: 6.00 Build 0)  -->
<svg version="1.1" id="Layer_1" xmlns="http://www.w3.org/2000/svg" xmlns:xlink="http://www.w3.org/1999/xlink" x="0px" y="0px"
	 viewBox="0 0 20 24" style="enable-background:new 0 0 20 24;" xml:space="preserve">
<style type="text/css">
	.st0{fill:#83766A;}
</style>
<g>
	<path class="st0" d="M3.134,22.258C3.091,23.313,2.437,24,1.562,24c-0.459,0-0.853-0.191-1.164-0.569
		C0.139,23.117,0,22.711,0,22.253c0-0.463,0.164-0.887,0.481-1.224c0.299-0.323,0.667-0.481,1.117-0.481
		c0.627,0,1.112,0.332,1.351,0.906h-0.55c-0.204-0.28-0.489-0.425-0.836-0.425c-0.29,0-0.559,0.121-0.762,0.345
		c-0.216,0.238-0.337,0.565-0.337,0.883c0,0.35,0.112,0.668,0.312,0.892c0.212,0.238,0.502,0.373,0.788,0.373
		c0.463,0,0.827-0.267,1.061-0.799H1.23v-0.467h1.904V22.258z"/>
	<path class="st0" d="M3.613,23.935H3.141l1.204-3.321h0.433l1.203,3.321H5.492l-0.337-0.967H3.96L3.613,23.935z M4.561,21.239
		l-0.442,1.261h0.874L4.561,21.239z"/>
	<path class="st0" d="M6.149,23.935v-3.321h0.662l0.892,2.569l0.892-2.569h0.654v3.321h-0.42l0.03-2.882l-1,2.882H7.543
		l-0.996-2.882l0.03,2.882H6.149z"/>
	<path class="st0" d="M11.209,24c-0.455,0-0.84-0.182-1.143-0.528c-0.29-0.331-0.437-0.743-0.437-1.233
		c0-0.458,0.16-0.879,0.467-1.201c0.303-0.323,0.684-0.491,1.121-0.491c0.719,0,1.333,0.509,1.532,1.327h-0.814
		c-0.164-0.327-0.411-0.5-0.714-0.5c-0.459,0-0.818,0.383-0.818,0.869c0,0.528,0.381,0.934,0.806,0.934
		c0.29,0,0.546-0.168,0.71-0.477h0.818C12.533,23.509,11.949,24,11.209,24z"/>
	<path class="st0" d="M13.497,23.935h-0.822l1.182-3.321h0.615l1.182,3.321h-0.831l-0.152-0.481h-1.017L13.497,23.935z
		 M14.164,21.702l-0.307,1.065h0.611L14.164,21.702z"/>
	<path class="st0" d="M15.712,23.935v-3.321h1.022c0.324,0,0.571,0.023,0.779,0.182c0.273,0.205,0.416,0.519,0.416,0.929
		c0,0.537-0.26,0.939-0.697,1.07l0.753,1.14h-0.931l-0.589-1.07v1.07H15.712z M16.613,22.145c0.373,0,0.554-0.103,0.554-0.402
		c0-0.276-0.16-0.387-0.493-0.387h-0.208v0.789C16.466,22.145,16.613,22.145,16.613,22.145z"/>
	<path class="st0" d="M18.326,23.935v-3.321h1.671v0.733H19.08v0.537h0.917v0.738H19.08v0.579h0.917v0.733
		C19.997,23.935,18.326,23.935,18.326,23.935z"/>
</g>
<g>
	<path class="st0" d="M19.452,11.491c-0.083-0.05-0.174-0.085-0.271-0.099c-0.023-0.004-0.046-0.005-0.069-0.007
		c-0.013-0.001-0.024-0.004-0.037-0.004h-0.035c-0.031-0.001-0.062-0.003-0.092,0h-6.019c-0.426,0-0.771,0.373-0.771,0.832
		s0.346,0.832,0.771,0.832h2.339c0.077,0.001,0.139,0.068,0.139,0.152c0,0.048-0.024,0.088-0.056,0.115
		c-1.282,0.739-2.931,1.187-4.736,1.187c-0.439,0-0.868-0.028-1.286-0.078v1.889c0.364,0.029,0.734,0.045,1.109,0.045
		c2.511,0,4.796-0.663,6.508-1.745l0.001,0.003c0.021-0.012,0.045-0.019,0.071-0.019c0.084,0,0.152,0.073,0.152,0.164
		c0,0.017-0.002,0.032-0.007,0.048l-0.357,1.045c-0.188,0.55,0.073,1.16,0.582,1.363c0.112,0.045,0.227,0.066,0.34,0.066
		c0.4,0,0.776-0.265,0.922-0.695l1.291-3.781C20.115,12.29,19.896,11.729,19.452,11.491z"/>
	<path class="st0" d="M10.614,4.352c1.819,0,3.483,0.452,4.77,1.201c0,0,0.817,0.635,1.206,0.025
		c0.446-0.699-0.444-1.134-0.444-1.134c-1.596-0.81-3.571-1.289-5.708-1.289c-0.375,0-0.745,0.016-1.109,0.045v1.229
		C9.746,4.38,10.176,4.352,10.614,4.352z"/>
	<g>
		<path class="st0" d="M1.372,0c-0.751,0-1.36,0.657-1.36,1.467V17.48c0,0.811,0.609,1.467,1.36,1.467h7.956v-2.638
			c-4.787-0.377-8.504-3.167-8.504-6.554c0-3.387,3.718-6.177,8.504-6.554V0H1.372z"/>
		<path class="st0" d="M3.232,9.425c0,2.5,2.632,4.576,6.096,4.995V4.431C5.865,4.849,3.232,6.925,3.232,9.425z"/>
	</g>
</g>
</svg>
