<svg width="114" height="36" viewBox="0 0 114 36" fill="none" xmlns="http://www.w3.org/2000/svg">
<rect y="23" width="114" height="13" rx="2" fill="white"/>
<path d="M109.546 27.7476H110.788L109.15 32.2476C108.694 33.5136 107.902 34.1136 106.774 34.0476V32.9676C107.08 32.9736 107.32 32.9166 107.494 32.7966C107.674 32.6766 107.818 32.4756 107.926 32.1936L106.108 27.7476H107.341L108.547 30.7716L109.546 27.7476Z" fill="#272A2D"/>
<path d="M106.102 27.7476V28.8636H104.698V32.2476H103.537V28.8636H102.115V27.7476H106.102Z" fill="#272A2D"/>
<path d="M99.8973 27.6216C100.503 27.6216 101.019 27.8526 101.445 28.3146C101.877 28.7706 102.093 29.3316 102.093 29.9976C102.093 30.6636 101.877 31.2276 101.445 31.6896C101.019 32.1456 100.503 32.3736 99.8973 32.3736C99.2673 32.3736 98.7813 32.1546 98.4393 31.7166V34.0476H97.2783V27.7476H98.4393V28.2786C98.7813 27.8406 99.2673 27.6216 99.8973 27.6216ZM98.7903 30.9156C99.0243 31.1496 99.3213 31.2666 99.6813 31.2666C100.041 31.2666 100.338 31.1496 100.572 30.9156C100.812 30.6756 100.932 30.3696 100.932 29.9976C100.932 29.6256 100.812 29.3226 100.572 29.0886C100.338 28.8486 100.041 28.7286 99.6813 28.7286C99.3213 28.7286 99.0243 28.8486 98.7903 29.0886C98.5563 29.3226 98.4393 29.6256 98.4393 29.9976C98.4393 30.3696 98.5563 30.6756 98.7903 30.9156Z" fill="#272A2D"/>
<path d="M95.2448 27.7476H96.4058V32.2476H95.2448V31.7166C94.8968 32.1546 94.4078 32.3736 93.7778 32.3736C93.1778 32.3736 92.6618 32.1456 92.2298 31.6896C91.8038 31.2276 91.5908 30.6636 91.5908 29.9976C91.5908 29.3316 91.8038 28.7706 92.2298 28.3146C92.6618 27.8526 93.1778 27.6216 93.7778 27.6216C94.4078 27.6216 94.8968 27.8406 95.2448 28.2786V27.7476ZM93.1028 30.9156C93.3368 31.1496 93.6338 31.2666 93.9938 31.2666C94.3538 31.2666 94.6508 31.1496 94.8848 30.9156C95.1248 30.6756 95.2448 30.3696 95.2448 29.9976C95.2448 29.6256 95.1248 29.3226 94.8848 29.0886C94.6508 28.8486 94.3538 28.7286 93.9938 28.7286C93.6338 28.7286 93.3368 28.8486 93.1028 29.0886C92.8688 29.3226 92.7518 29.6256 92.7518 29.9976C92.7518 30.3696 92.8688 30.6756 93.1028 30.9156Z" fill="#272A2D"/>
<path d="M91.7506 32.2476H90.4006L88.7626 30.2046V32.2476H87.6016V27.7476H88.7626V29.7276L90.3106 27.7476H91.6966L89.8876 29.9706L91.7506 32.2476Z" fill="#272A2D"/>
<path d="M83.4977 27.7476H84.6588V32.2476H83.4977V31.7166C83.1497 32.1546 82.6608 32.3736 82.0308 32.3736C81.4308 32.3736 80.9148 32.1456 80.4827 31.6896C80.0567 31.2276 79.8438 30.6636 79.8438 29.9976C79.8438 29.3316 80.0567 28.7706 80.4827 28.3146C80.9148 27.8526 81.4308 27.6216 82.0308 27.6216C82.6608 27.6216 83.1497 27.8406 83.4977 28.2786V27.7476ZM81.3558 30.9156C81.5898 31.1496 81.8867 31.2666 82.2467 31.2666C82.6067 31.2666 82.9038 31.1496 83.1378 30.9156C83.3778 30.6756 83.4977 30.3696 83.4977 29.9976C83.4977 29.6256 83.3778 29.3226 83.1378 29.0886C82.9038 28.8486 82.6067 28.7286 82.2467 28.7286C81.8867 28.7286 81.5898 28.8486 81.3558 29.0886C81.1218 29.3226 81.0048 29.6256 81.0048 29.9976C81.0048 30.3696 81.1218 30.6756 81.3558 30.9156Z" fill="#272A2D"/>
<path d="M78.0331 27.7476H79.1941V32.2476H78.0331V30.5376H76.2421V32.2476H75.0811V27.7476H76.2421V29.4486H78.0331V27.7476Z" fill="#272A2D"/>
<path d="M68.7733 29.1876C69.2833 29.1876 69.6943 29.3286 70.0063 29.6106C70.3183 29.8866 70.4743 30.2556 70.4743 30.7176C70.4743 31.1796 70.3183 31.5516 70.0063 31.8336C69.6943 32.1096 69.2833 32.2476 68.7733 32.2476H66.7393V27.7476H67.9003V29.1876H68.7733ZM70.9693 27.7476H72.1303V32.2476H70.9693V27.7476ZM68.7823 31.2216C68.9443 31.2216 69.0763 31.1766 69.1783 31.0866C69.2863 30.9906 69.3403 30.8676 69.3403 30.7176C69.3403 30.5676 69.2863 30.4446 69.1783 30.3486C69.0763 30.2526 68.9443 30.2046 68.7823 30.2046H67.9003V31.2216H68.7823Z" fill="#272A2D"/>
<path d="M66.2995 27.7476V28.8636H64.8955V32.2476H63.7345V28.8636H62.3125V27.7476H66.2995Z" fill="#272A2D"/>
<path d="M60.0946 27.6216C60.7006 27.6216 61.2166 27.8526 61.6426 28.3146C62.0746 28.7706 62.2906 29.3316 62.2906 29.9976C62.2906 30.6636 62.0746 31.2276 61.6426 31.6896C61.2166 32.1456 60.7006 32.3736 60.0946 32.3736C59.4646 32.3736 58.9786 32.1546 58.6366 31.7166V34.0476H57.4756V27.7476H58.6366V28.2786C58.9786 27.8406 59.4646 27.6216 60.0946 27.6216ZM58.9876 30.9156C59.2216 31.1496 59.5186 31.2666 59.8786 31.2666C60.2386 31.2666 60.5356 31.1496 60.7696 30.9156C61.0096 30.6756 61.1296 30.3696 61.1296 29.9976C61.1296 29.6256 61.0096 29.3226 60.7696 29.0886C60.5356 28.8486 60.2386 28.7286 59.8786 28.7286C59.5186 28.7286 59.2216 28.8486 58.9876 29.0886C58.7536 29.3226 58.6366 29.6256 58.6366 29.9976C58.6366 30.3696 58.7536 30.6756 58.9876 30.9156Z" fill="#272A2D"/>
<path d="M55.4421 27.7476H56.6031V32.2476H55.4421V31.7166C55.0941 32.1546 54.6051 32.3736 53.9751 32.3736C53.3751 32.3736 52.8591 32.1456 52.4271 31.6896C52.0011 31.2276 51.7881 30.6636 51.7881 29.9976C51.7881 29.3316 52.0011 28.7706 52.4271 28.3146C52.8591 27.8526 53.3751 27.6216 53.9751 27.6216C54.6051 27.6216 55.0941 27.8406 55.4421 28.2786V27.7476ZM53.3001 30.9156C53.5341 31.1496 53.8311 31.2666 54.1911 31.2666C54.5511 31.2666 54.8481 31.1496 55.0821 30.9156C55.3221 30.6756 55.4421 30.3696 55.4421 29.9976C55.4421 29.6256 55.3221 29.3226 55.0821 29.0886C54.8481 28.8486 54.5511 28.7286 54.1911 28.7286C53.8311 28.7286 53.5341 28.8486 53.3001 29.0886C53.0661 29.3226 52.9491 29.6256 52.9491 29.9976C52.9491 30.3696 53.0661 30.6756 53.3001 30.9156Z" fill="#272A2D"/>
<path d="M51.9478 32.2476H50.5978L48.9598 30.2046V32.2476H47.7988V27.7476H48.9598V29.7276L50.5078 27.7476H51.8938L50.0848 29.9706L51.9478 32.2476Z" fill="#272A2D"/>
<path d="M43.2256 32.3736C42.5476 32.3736 41.9806 32.1456 41.5246 31.6896C41.0746 31.2336 40.8496 30.6696 40.8496 29.9976C40.8496 29.3256 41.0746 28.7616 41.5246 28.3056C41.9806 27.8496 42.5476 27.6216 43.2256 27.6216C43.6636 27.6216 44.0626 27.7266 44.4226 27.9366C44.7826 28.1466 45.0556 28.4286 45.2416 28.7826L44.2426 29.3676C44.1526 29.1816 44.0146 29.0346 43.8286 28.9266C43.6486 28.8186 43.4446 28.7646 43.2166 28.7646C42.8686 28.7646 42.5806 28.8816 42.3526 29.1156C42.1246 29.3436 42.0106 29.6376 42.0106 29.9976C42.0106 30.3516 42.1246 30.6456 42.3526 30.8796C42.5806 31.1076 42.8686 31.2216 43.2166 31.2216C43.4506 31.2216 43.6576 31.1706 43.8376 31.0686C44.0236 30.9606 44.1616 30.8136 44.2516 30.6276L45.2596 31.2036C45.0616 31.5576 44.7826 31.8426 44.4226 32.0586C44.0626 32.2686 43.6636 32.3736 43.2256 32.3736Z" fill="#272A2D"/>
<path d="M37.8644 31.1586H38.4584V33.4536H37.3244V32.2476H34.5344V33.4536H33.4004V31.1586H33.9494C34.2074 30.7746 34.3364 30.2436 34.3364 29.5656V27.7476H37.8644V31.1586ZM35.1914 31.1586H36.7304V28.7916H35.4704V29.5656C35.4704 30.2016 35.3774 30.7326 35.1914 31.1586Z" fill="#272A2D"/>
<path d="M32.6598 31.6896C32.1978 32.1456 31.6338 32.3736 30.9678 32.3736C30.3018 32.3736 29.7378 32.1456 29.2758 31.6896C28.8198 31.2276 28.5918 30.6636 28.5918 29.9976C28.5918 29.3316 28.8198 28.7706 29.2758 28.3146C29.7378 27.8526 30.3018 27.6216 30.9678 27.6216C31.6338 27.6216 32.1978 27.8526 32.6598 28.3146C33.1218 28.7706 33.3528 29.3316 33.3528 29.9976C33.3528 30.6636 33.1218 31.2276 32.6598 31.6896ZM30.0948 30.8886C30.3288 31.1226 30.6198 31.2396 30.9678 31.2396C31.3158 31.2396 31.6068 31.1226 31.8408 30.8886C32.0748 30.6546 32.1918 30.3576 32.1918 29.9976C32.1918 29.6376 32.0748 29.3406 31.8408 29.1066C31.6068 28.8726 31.3158 28.7556 30.9678 28.7556C30.6198 28.7556 30.3288 28.8726 30.0948 29.1066C29.8668 29.3406 29.7528 29.6376 29.7528 29.9976C29.7528 30.3576 29.8668 30.6546 30.0948 30.8886Z" fill="#272A2D"/>
<path d="M27.6492 29.9436C28.0692 30.1476 28.2792 30.4896 28.2792 30.9696C28.2792 31.3476 28.1472 31.6566 27.8832 31.8966C27.6252 32.1306 27.2562 32.2476 26.7762 32.2476H24.4092V27.7476H26.5962C27.0702 27.7476 27.4362 27.8646 27.6942 28.0986C27.9582 28.3326 28.0902 28.6386 28.0902 29.0166C28.0902 29.4126 27.9432 29.7216 27.6492 29.9436ZM26.4882 28.7016H25.4982V29.5116H26.4882C26.8182 29.5116 26.9832 29.3766 26.9832 29.1066C26.9832 28.8366 26.8182 28.7016 26.4882 28.7016ZM26.6412 31.2666C26.9772 31.2666 27.1452 31.1226 27.1452 30.8346C27.1452 30.7086 27.1002 30.6096 27.0102 30.5376C26.9202 30.4656 26.7972 30.4296 26.6412 30.4296H25.4982V31.2666H26.6412Z" fill="#272A2D"/>
<path d="M20.341 30.4746C20.497 31.0386 20.92 31.3206 21.61 31.3206C22.054 31.3206 22.39 31.1706 22.618 30.8706L23.554 31.4106C23.11 32.0526 22.456 32.3736 21.592 32.3736C20.848 32.3736 20.251 32.1486 19.801 31.6986C19.351 31.2486 19.126 30.6816 19.126 29.9976C19.126 29.3196 19.348 28.7556 19.792 28.3056C20.236 27.8496 20.806 27.6216 21.502 27.6216C22.162 27.6216 22.705 27.8496 23.131 28.3056C23.563 28.7616 23.779 29.3256 23.779 29.9976C23.779 30.1476 23.764 30.3066 23.734 30.4746H20.341ZM20.323 29.5746H22.618C22.552 29.2686 22.414 29.0406 22.204 28.8906C22 28.7406 21.766 28.6656 21.502 28.6656C21.19 28.6656 20.932 28.7466 20.728 28.9086C20.524 29.0646 20.389 29.2866 20.323 29.5746Z" fill="#272A2D"/>
<path d="M16.5253 27.6216C17.1313 27.6216 17.6472 27.8526 18.0732 28.3146C18.5052 28.7706 18.7212 29.3316 18.7212 29.9976C18.7212 30.6636 18.5052 31.2276 18.0732 31.6896C17.6472 32.1456 17.1313 32.3736 16.5253 32.3736C15.8953 32.3736 15.4093 32.1546 15.0673 31.7166V34.0476H13.9062V27.7476H15.0673V28.2786C15.4093 27.8406 15.8953 27.6216 16.5253 27.6216ZM15.4183 30.9156C15.6523 31.1496 15.9492 31.2666 16.3092 31.2666C16.6692 31.2666 16.9662 31.1496 17.2002 30.9156C17.4402 30.6756 17.5603 30.3696 17.5603 29.9976C17.5603 29.6256 17.4402 29.3226 17.2002 29.0886C16.9662 28.8486 16.6692 28.7286 16.3092 28.7286C15.9492 28.7286 15.6523 28.8486 15.4183 29.0886C15.1843 29.3226 15.0673 29.6256 15.0673 29.9976C15.0673 30.3696 15.1843 30.6756 15.4183 30.9156Z" fill="#272A2D"/>
<path d="M9.83805 30.4746C9.99405 31.0386 10.417 31.3206 11.107 31.3206C11.551 31.3206 11.887 31.1706 12.115 30.8706L13.051 31.4106C12.607 32.0526 11.953 32.3736 11.089 32.3736C10.345 32.3736 9.74805 32.1486 9.29805 31.6986C8.84805 31.2486 8.62305 30.6816 8.62305 29.9976C8.62305 29.3196 8.84505 28.7556 9.28905 28.3056C9.73305 27.8496 10.303 27.6216 10.999 27.6216C11.659 27.6216 12.202 27.8496 12.628 28.3056C13.06 28.7616 13.276 29.3256 13.276 29.9976C13.276 30.1476 13.261 30.3066 13.231 30.4746H9.83805ZM9.82005 29.5746H12.115C12.049 29.2686 11.911 29.0406 11.701 28.8906C11.497 28.7406 11.263 28.6656 10.999 28.6656C10.687 28.6656 10.429 28.7466 10.225 28.9086C10.021 29.0646 9.88605 29.2866 9.82005 29.5746Z" fill="#272A2D"/>
<path d="M7.91794 25.9478V32.2478H6.67594V27.1358H4.45294V32.2478H3.21094V25.9478H7.91794Z" fill="#272A2D"/>
<path d="M19.3323 10.22L16.984 20.835H14.1326L16.4808 10.22H19.3323ZM31.1853 17.04L32.6949 13.08L33.5335 17.04H31.1853ZM34.3722 20.78H37L34.7077 10.22H32.3035C31.7444 10.22 31.2971 10.55 31.0735 10.99L26.8243 20.835H29.7875L30.4026 19.24H34.0367L34.3722 20.78ZM26.992 17.315C26.992 14.51 23.0224 14.345 23.0224 13.135C23.0224 12.75 23.4137 12.365 24.1965 12.255C24.5879 12.2 25.7061 12.145 26.992 12.75L27.4952 10.495C26.8243 10.22 25.9297 10 24.8674 10C22.0719 10 20.115 11.43 20.115 13.52C20.115 15.06 21.5128 15.885 22.5751 16.435C23.6933 16.93 24.0288 17.315 24.0288 17.755C24.0288 18.47 23.1342 18.8 22.3514 18.8C20.9537 18.8 20.115 18.415 19.4441 18.14L18.9409 20.45C19.6118 20.725 20.8419 21 22.0719 21C25.0351 20.945 26.992 19.57 26.992 17.315ZM15.2508 10.22L10.6661 20.835H7.70288L5.46645 12.365C5.29872 11.815 5.1869 11.65 4.79553 11.43C4.1246 11.045 3.00639 10.715 2 10.495L2.05591 10.165H6.86422C7.47923 10.165 8.03834 10.55 8.15016 11.265L9.32428 17.425L12.2875 10.22H15.2508Z" fill="white"/>
<path d="M84.9494 10.0005C84.9494 10.0005 83.5079 10.0005 83.1122 11.4571C82.773 12.7949 81.7554 16.4514 81.7272 16.5406H81.4445C81.4445 16.5406 80.427 12.7949 80.0595 11.4571C79.6638 10.0005 78.2223 10.0005 78.2223 10.0005H75V20.9998H78.2788V14.4597H78.4201H78.5614L80.4835 20.9998H82.773L84.695 14.4597H84.9777V20.9998H88.2565V10.0005H84.9494Z" fill="#4DB45E"/>
<path d="M96.9673 10.0005C96.9673 10.0005 96.0063 10.0897 95.554 11.1599L93.2362 16.5406H92.9536V10.0005H89.6748V20.9998H92.784C92.784 20.9998 93.8016 20.9106 94.2538 19.8404L96.5433 14.4596H96.8259V20.9998H100.105V10.0005H96.9673Z" fill="#4DB45E"/>
<path d="M101.542 14.9951V21.0001H104.821V17.4922H108.41C109.965 17.4922 111.294 16.4518 111.774 14.9951L101.542 14.9951Z" fill="#4DB45E"/>
<path d="M108.411 10L101.09 10C101.457 12.1107 102.955 13.7754 104.877 14.3402C105.33 14.4592 105.782 14.5186 106.262 14.5186L111.915 14.5186C111.972 14.2808 112 14.0132 112 13.7457C111.972 11.6648 110.361 10 108.411 10Z" fill="url(#paint0_linear_12309_191144)"/>
<path d="M60.3803 1.60254L53.6211 1.60254V13.3955L60.3803 13.3955V1.60254Z" fill="#FF5F00"/>
<path d="M54.0481 7.5C54.0471 6.36425 54.3122 5.24315 54.8233 4.22157C55.3345 3.19999 56.0783 2.30471 56.9986 1.6035C55.859 0.733844 54.4904 0.193016 53.0492 0.0428346C51.608 -0.107347 50.1524 0.139171 48.8487 0.754225C47.545 1.36928 46.4458 2.32805 45.6768 3.52094C44.9078 4.71383 44.5 6.09272 44.5 7.5C44.5 8.90728 44.9078 10.2862 45.6768 11.4791C46.4458 12.672 47.545 13.6307 48.8487 14.2458C50.1524 14.8608 51.608 15.1073 53.0492 14.9572C54.4904 14.807 55.859 14.2662 56.9986 13.3965C56.0784 12.6953 55.3345 11.8 54.8233 10.7784C54.3122 9.75685 54.0471 8.63575 54.0481 7.5V7.5Z" fill="#EB001B"/>
<path d="M69.5001 7.5C69.5002 8.90726 69.0924 10.2861 68.3235 11.479C67.5545 12.6719 66.4554 13.6307 65.1517 14.2458C63.848 14.8608 62.3924 15.1073 60.9512 14.9572C59.5101 14.807 58.1415 14.2662 57.002 13.3965C57.9214 12.6946 58.6646 11.7992 59.1757 10.7777C59.6868 9.75632 59.9524 8.63557 59.9524 7.5C59.9524 6.36443 59.6868 5.24368 59.1757 4.22226C58.6646 3.20084 57.9214 2.30542 57.002 1.6035C58.1415 0.733841 59.5101 0.193013 60.9512 0.0428326C62.3924 -0.107347 63.848 0.139182 65.1517 0.754242C66.4554 1.3693 67.5545 2.32807 68.3235 3.52096C69.0924 4.71386 69.5002 6.09274 69.5001 7.5V7.5Z" fill="#F79E1B"/>
<path fill-rule="evenodd" clip-rule="evenodd" d="M51.3536 17.1464C51.5488 17.3417 51.5488 17.6583 51.3536 17.8536L50.7071 18.5H63.2929L62.6464 17.8536C62.4512 17.6583 62.4512 17.3417 62.6464 17.1464C62.8417 16.9512 63.1583 16.9512 63.3536 17.1464L64.8536 18.6464C65.0488 18.8417 65.0488 19.1583 64.8536 19.3536L63.2159 20.9912C63.0206 21.1865 62.704 21.1865 62.5088 20.9912C62.3135 20.796 62.3135 20.4794 62.5088 20.2841L63.2929 19.5H50.7071L51.4912 20.2841C51.6865 20.4794 51.6865 20.796 51.4912 20.9912C51.296 21.1865 50.9794 21.1865 50.7841 20.9912L49.1464 19.3536C48.9512 19.1583 48.9512 18.8417 49.1464 18.6464L50.6464 17.1464C50.8417 16.9512 51.1583 16.9512 51.3536 17.1464Z" fill="white"/>
<path fill-rule="evenodd" clip-rule="evenodd" d="M33.1464 2.14645C32.9512 2.34171 32.9512 2.65829 33.1464 2.85355L33.7929 3.5H24C22.6193 3.5 21.5 4.61929 21.5 6V7.29289L20.8536 6.64645C20.6583 6.45118 20.3417 6.45118 20.1464 6.64645C19.9512 6.84171 19.9512 7.15829 20.1464 7.35355L21.6464 8.85355C21.8417 9.04882 22.1583 9.04882 22.3536 8.85355L23.8536 7.35355C24.0488 7.15829 24.0488 6.84171 23.8536 6.64645C23.6583 6.45118 23.3417 6.45118 23.1464 6.64645L22.5 7.29289V6C22.5 5.17157 23.1716 4.5 24 4.5H33.7929L33.1464 5.14645C32.9512 5.34171 32.9512 5.65829 33.1464 5.85355C33.3417 6.04882 33.6583 6.04882 33.8536 5.85355L35.3536 4.35355C35.5488 4.15829 35.5488 3.84171 35.3536 3.64645L33.8536 2.14645C33.6583 1.95118 33.3417 1.95118 33.1464 2.14645Z" fill="white"/>
<path fill-rule="evenodd" clip-rule="evenodd" d="M93.8536 6.64645C93.6583 6.45118 93.3417 6.45118 93.1464 6.64645L92.5 7.29289L92.5 6C92.5 4.61929 91.3807 3.5 90 3.5L80.2071 3.5L80.8536 2.85355C81.0488 2.65829 81.0488 2.34171 80.8536 2.14645C80.6583 1.95118 80.3417 1.95118 80.1464 2.14645L78.6464 3.64645C78.4512 3.84171 78.4512 4.15829 78.6464 4.35355L80.1464 5.85355C80.3417 6.04882 80.6583 6.04882 80.8536 5.85355C81.0488 5.65829 81.0488 5.34171 80.8536 5.14645L80.2071 4.5L90 4.5C90.8284 4.5 91.5 5.17157 91.5 6L91.5 7.29289L90.8536 6.64645C90.6583 6.45118 90.3417 6.45118 90.1464 6.64645C89.9512 6.84171 89.9512 7.15829 90.1464 7.35355L91.6464 8.85355C91.8417 9.04882 92.1583 9.04882 92.3536 8.85355L93.8536 7.35355C94.0488 7.15829 94.0488 6.84171 93.8536 6.64645Z" fill="white"/>
<defs>
<linearGradient id="paint0_linear_12309_191144" x1="111.917" y1="12.2296" x2="100.769" y2="12.2296" gradientUnits="userSpaceOnUse">
<stop stop-color="#2E5DD1"/>
<stop offset="1" stop-color="#50ADF8"/>
</linearGradient>
</defs>
</svg>
