<svg xmlns="http://www.w3.org/2000/svg" fill="none" viewBox="0 0 52 25"><path fill="#fff" d="M4.2 7.4c0-1.3 1.1-2.1 3.1-2.1a5.6 5.6 0 0 1 3 .8h.6c1 0 1.7-.7 1.7-1.6 0-.5-.3-1-.7-1.3h-.1c-1.2-.8-3.3-1-4.5-1C4.1 2.2.5 3.6.5 7.7c0 6.6 9 5.3 9 9.4 0 1.7-1.5 2.4-3.1 2.4-1.8 0-2.7-.8-3.5-1.4l-.3-.2c-.2-.2-.6-.3-.9-.3-.5 0-1 .2-1.3.6A1.7 1.7 0 0 0 .2 20c.7 1.4 3.2 2.7 6.3 2.7 3.8 0 6.6-2 6.6-6 0-7-9-5.9-9-9.3ZM52 21c0-1-.7-1.7-1.6-1.7h-6.3V4.1c0-1-.8-1.8-1.8-1.8s-1.8.8-1.8 1.8v16.6c0 .6.3 1.2.8 1.5.2.2.5.3.8.3h8.3c.9 0 1.6-.7 1.6-1.6Z"/><path fill="#FF9D00" d="M26.3 6c-3.7 0-6.7 2.9-6.7 6.5s3 6.5 6.7 6.5c3.6 0 6.6-2.9 6.6-6.5S29.9 6 26.3 6Zm0 13.3a7 7 0 0 1-7-6.8 7 7 0 0 1 7-6.8 6.8 6.8 0 0 1 0 13.6Zm1-16.3a9.6 9.6 0 0 0-2 0h-.1l-.3-.1v-.4l1-1.8a.4.4 0 0 1 .7 0l1 1.8c.1.1.1.3 0 .4l-.3.1Zm-1 21.5c-.2 0-.3 0-.4-.2l-1-1.8c-.1-.1 0-.3 0-.4l.3-.1a9.6 9.6 0 0 0 2 0h.1l.3.1v.4l-1 1.8-.4.2ZM36.2 14l-.2-.2a.4.4 0 0 1-.2-.3 9.2 9.2 0 0 0 0-2c0-.1 0-.3.2-.4h.4l1.8 1 .2.4c0 .1 0 .2-.2.3l-1.8 1-.2.1Zm-19.9 0-.2-.1-1.8-1a.4.4 0 0 1-.2-.4c0-.1 0-.2.2-.3l1.8-1 .2-.1h.2l.2.4a9.3 9.3 0 0 0 0 2c0 .1 0 .3-.2.4h-.2ZM34 6.7s-.2 0-.2-.2l-1.5-1.4a.4.4 0 0 1-.1-.4l.2-.2 2.1-.6a.4.4 0 0 1 .4.1v.4l-.5 2a.4.4 0 0 1-.4.3ZM18 21h-.3c-.1-.1-.2-.2-.1-.4l.5-2a.4.4 0 0 1 .4-.3s.2 0 .2.2l1.5 1.4c.1.1.2.2.1.4l-.2.2-2 .6h-.2Zm16.6 0-2.2-.5a.4.4 0 0 1-.1-.6l1.5-1.4a.4.4 0 0 1 .3-.1c.2 0 .3 0 .3.2l.6 2-.1.4h-.3ZM18.5 6.7h-.1a.4.4 0 0 1-.3-.3l-.5-2a.4.4 0 0 1 .4-.5l2 .6c.2 0 .3.1.3.2l-.1.4-1.5 1.4-.2.2Zm3-2.5h-.2a.4.4 0 0 1-.2-.4l.3-2.1a.4.4 0 0 1 .3-.3h.3l1.7 1.3c0 .1.1.2 0 .4 0 .1 0 .2-.2.3a9.4 9.4 0 0 0-2 .8Zm9.3 19.4h-.3L29 22.2a.4.4 0 0 1-.2-.4l.3-.3a9.6 9.6 0 0 0 2-.8h.3l.1.4-.3 2.1a.4.4 0 0 1-.3.3ZM35.9 10h-.1a.4.4 0 0 1-.3-.2c-.2-.6-.4-1.3-.8-1.9v-.3l.3-.2 2.2.3c.1 0 .2 0 .3.2v.4L36 9.9l-.2.2Zm-18.4 7.6-2.2-.3a.4.4 0 0 1-.3-.2v-.4l1.4-1.6a.4.4 0 0 1 .3-.2l.3.3.8 1.8v.4l-.3.2ZM31 4.2c-.6-.4-1.3-.6-2-.8a.4.4 0 0 1-.2-.3c0-.1 0-.3.2-.4l1.6-1.2.3-.1h.1l.2.3.3 2a.4.4 0 0 1-.3.5Zm-9.3 19.4h-.1a.4.4 0 0 1-.2-.3l-.3-2a.4.4 0 0 1 .5-.4l2 .7.2.3c0 .1 0 .3-.2.4L22 23.5l-.3.1Zm13.3-6a.4.4 0 0 1-.3-.5c.4-.6.6-1.3.8-2l.3-.2c.2 0 .3 0 .4.2l1.2 1.6c.1.1.1.3 0 .4 0 .1 0 .2-.2.2l-2.1.3ZM16.7 10h-.3L15 8.2a.3.3 0 0 1 0-.4c0-.1 0-.2.2-.2l2.1-.3a.4.4 0 0 1 .4.5l-.8 2a.4.4 0 0 1-.3.2Z"/></svg>