<svg xmlns="http://www.w3.org/2000/svg" xml:space="preserve" id="Layer_1" x="0" y="0" style="enable-background:new 0 0 35 35" version="1.1" viewBox="0 0 35 35"><style>.st0{fill:#83766a}</style><path d="M23.4 25.6c-.2.2-.2.2-.4 0-.2.2-.3.2-.5 0-.2.2-.3.2-.5.1h-.1c-.2 0-.3-.1-.3-.2v-.1c-.1-.1-.1-.3.1-.4l.1-.1c.1-.2.3-.3.5-.2h.1c.1-.1.3-.2.5-.1l.4.1.3-.1-.2-2.5a4.5 4.5 0 0 0-1.3-1.6l-.2-.1v-.2l-.2-.2-.1-.3a.5.5 0 0 0-.5-.3l-.3.1-.1-.9v-.1c-.1-.3-.4-.3-.7-.3l-.3.1-.3-.1-.1.4.1.1-.1.1-.2.2-.5-.3-.4.2-.1.1-.4.2c-1.1.3-1.6 1.1-1.8 1.4-.4.4-1.5 2.2-1.5 2.4-.1.2-.5.9-.6.3V23h.2l.2-.9V22l.4-.5c.3-.2.5-.2.6-.7s-.5-.8-.9-.9l-1.4-.2c.3-2-1.5-2-1.8-2-.2 0-1.2.1-.1.6 1 .5.4 1.9.3 2.2-.2.3-.1.7-.1 1v.1h-.3v1.1h.3c0 .4 0 .8.2 1.4.5 1.4 3.7 2.1 5.2 0 .3-.5.1-.5.7-1.3-.2.3-.4 3.8-.5 4.5.7 0 5.6-.9 6.1-.9.1-.1.6-.2.5-.8.1 0 .1 0 0 0zm-12-2.6H11v-1h.5l-.1 1zm.5 0h-.4v-1h.4v1zm.4 0h-.4v-1h.4v1zm.4.1h-.3v-1h.3v1zm.4 0h-.3v-1h.3v1zm.4 0h-.3v-1h.3v1zm.1-.9.5.1-.2.9h-.3v-1zm5.6-3.5.1-.4 1.2.2-.1.5c-.2.1-.6.1-.6-.2l-.1-.2-.2.2-.3-.1zm-1 5.7v-.2c-.2.1-.4-.4-.2-.6-.3-.1-.2-.6.1-.7-.4.1-.6-.6-.2-.9-.2 0-.3-.3-.1-.4-.2 0-.4-.3-.2-.5-.2-.1-.3-.6-.1-.7-.1-.1-.2-.5.1-.7-.1-.2.1-.6.4-.6-.1-.2.5-.5.8-.1.1.1-1 2.1-1 2.1l1.1-1c.1.9.2 2.3-.3 4.1-.1.2-.3.2-.4.2zm2.9-2.4c.1.2-.1.4-.2.4.1.3-.2.7-.5.6 0 .5-.4.5-.6.4.1.2 0 .5-.2.4.1.2.1.5-.2.5H19v-.1c.1-1.3.7-2.7 1.2-3.7l.3 1.2s.4-1.7.3-2.2c.2-.4.8.1.7.4.3 0 .2.6 0 .7.2.3.1.7-.2.8.3.4.1.7-.2.6zm-1.8-11.1c-.2-.4-.3-.8-.1-1l-.2.2c-.2.2-.1.6.1 1l.2-.2zm1.2 1.1-.2.3c.6.3 1.2.4 1.5.1l.2-.2c-.3.2-.9.2-1.5-.2zm1.2-1 .2-.1c-.4-.5-.6-.7-1.1-.9l-.2.1c.5.2.7.3 1.1.9z" class="st0"/><ellipse cx="20.6" cy="10.9" class="st0" rx=".7" ry="1.5" transform="rotate(-52 20.7 10.9)"/><path d="M15.7 12.6h-.9v-1.8l-.8 1h-.1l-.8-1v1.8h-.9v-3h.8l.9 1.1.9-1.1h.8l.1 3zm2.5-2.1-.3.8-.4-.2-.3.1-.2.4v1h-.8v-2.2h.8v.5l.3-.4.4-.2h.2l.3.2zM12.1 16l-.2.1h-.1l-.2.1-.4.1h-.4l-.9-.2a1 1 0 0 1-.6-.5c-.2-.2-.3-.5-.3-.9l.1-.6.4-.5.4-.2.4-.1h.4l.7.1.6.2v.7l-.4-.2-.6-.1-.6.2c-.1.1-.3.2-.3.4l-.1.4.1.4.3.3.5.1h.4v-.4h-.4v-.6h1.2V16zm2.8.1-.3.1h-.4l-.3-.1-.1-.2-.3.2-.4.1-.4-.1-.2-.2-.1-.3.1-.3.3-.2.5-.2.2-.1h.2l-.1-.3-.3-.1-.5.1-.4.3v-.6l.3-.2.4-.1h.4l.7.2.2.5v1.1l.1.1.2-.1.2.4zm-1.1-.4v-.5l-.4.2-.1.2.1.2.2.1h.2c-.1-.1 0-.2 0-.2zm5.5.5h-.8V15l-.1-.4-.2-.1-.3.1-.2.3v1.3h-.8V15l-.1-.3-.3-.1h-.2l-.1.1-.1.1-.1.1v1.3h-.8V14h.8v.3l.4-.3.4-.1h.2l.2.1.2.1.1.2.4-.3.5-.1.5.1.3.3.1.5v1.4zm2.8-1.1-.2.6-.4.4-.5.1h-.3l-.2-.1-.1-.1v.2h-.8v-3h.8v.9l.2-.1.4-.1.5.1.3.3.2.4.1.4zm-.8 0-.1-.4-.3-.2-.4.1v.8l.4.2.3-.1.1-.4zm1.9 1.1h-.8v-3h.8v3zm2.8-.9h-1.6l.2.3.4.1.9-.2v.5l-.4.2-.6.1-.7-.2-.4-.4-.1-.6.1-.6.4-.4.7-.1.5.1.4.4.2.7v.1zm-.7-.4-.1-.3-.3-.1-.3.1-.1.3h.8z" class="st0"/><path d="M17.4 28.3c-6.1 0-11-4.9-11-10.9s4.9-10.9 11-10.9 11 4.9 11 10.9-4.9 10.9-11 10.9zm0-20.9c-5.6 0-10.1 4.5-10.1 10s4.5 10 10.1 10 10.1-4.5 10.1-10-4.5-10-10.1-10zM4.2 16.9 0 16.1l.2-1.2 1.8-.7-1.4-1.3.2-1.2 4.2.8-.2 1.2-2.4-.5 1.4 1.4-1.8.7 2.4.5-.2 1.1zm1.2-4.8L1.7 9.9l1.1-1.7c.3-.5.7-.8 1.1-1 .3-.1.7 0 1.1.2.5.3.8.8.7 1.4l1.8-.1-.8 1.2-1.6.1-.3.4 1.2.7-.6 1zM4.1 9.9l.4-.7.1-.5-.2-.3h-.5l-.3.3-.4.7.9.5zm5.2-2.6c-.5.4-1.1.6-1.7.6S6.5 7.6 6 7.1c-.4-.5-.6-1-.5-1.6s.3-1.1.8-1.5 1.1-.7 1.7-.7v1.1a2 2 0 0 0-1 .3c-.2.2-.3.5-.3.8s.1.6.3.8c.2.3.5.4.8.4l.9-.3c.2-.1.3-.3.3-.5l-.3-.4-.6.6-.6-.7L9 4.1l1.3 1.5c-.2.7-.5 1.2-1 1.7zm4.9-2.5c-.8.2-1.5.2-2.1-.2l.4-.9c.5.2 1 .3 1.5.1.3-.1.5-.2.4-.4l-.2-.2h-1.3l-.5-.1c-.2-.1-.4-.1-.5-.3l-.3-.5c-.1-.4 0-.7.2-1.1.2-.3.6-.5 1.1-.7.7-.2 1.3-.2 1.9.1l-.4 1a2 2 0 0 0-1.3-.1c-.3.1-.4.2-.3.4l.2.2h.6l1.3.1c.3.1.5.4.6.7.1.4 0 .8-.2 1.1-.2.4-.6.7-1.1.8zm2-.5.1-4.3 3.5.1v1L17.4 1v.7h2.1v.9h-2.1v.7l2.3.1v1l-3.5-.1z" class="st0"/><path d="M19.7 4.3 22.9.9l1.1.4.3 4.7-1.3-.6v-.8L21.4 4l-.6.6-1.1-.3zm2.3-1 .9.3V2.3l-.9 1z" class="st0"/><path d="m24.2 6 2.6-3.4 1 .7-2 2.6 1.7 1.3-.6.8-2.7-2zm6.2 6.5c-.6-.2-1-.6-1.3-1.2-.3-.6-.4-1.2-.2-1.7.2-.6.6-1 1.1-1.3a2 2 0 0 1 1.7-.1c.6.2 1 .6 1.3 1.2.3.6.4 1.2.2 1.7-.2.6-.6 1-1.1 1.3a2 2 0 0 1-1.7.1zM30 10c-.1.3-.1.6.1.9.1.3.4.5.7.5.3.1.6 0 .9-.1.3-.1.5-.4.6-.6a1 1 0 0 0-.1-.9.8.8 0 0 0-.7-.5c-.3-.1-.6 0-.9.1-.3.1-.5.4-.6.6zm.2 3.7 4.3-.6.5 3.4-1 .2-.3-2.2-.7.1.3 2-1 .1-.3-2-1.5.2-.3-1.2zm-29 10 4.5-.3.5 1-2.9 3.5-.6-1.1.5-.6-.7-1.4-.8.1-.5-1.2zm2.3.9.4.8.8-.9-1.2.1zm.9 4.4 2.9-3 1.3 1.2c.4.4.6.8.6 1.2s-.1.8-.4 1.1c-.3.3-.7.5-1.1.5-.4 0-.8-.2-1.2-.6l-.5-.5-.8.8-.8-.7zm2.3-.7.4.4.5.2c.2 0 .3 0 .4-.2l.2-.4-.3-.4-.4-.4-.8.8zm1.5 4 1.9-3.7 1.6.8c.5.2.8.5.9.9.2.4.1.8-.1 1.2-.2.4-.5.7-.9.8a2 2 0 0 1-1.3-.2l-.5-.3-.5 1.1-1.1-.6zm2-1.3.5.2.5.1c.2 0 .3-.1.3-.3.1-.2.1-.3 0-.4l-.4-.3-.4-.3-.5 1zm2.8 3.4.7-4.1 1.9.3c.6.1 1 .3 1.3.7.2.3.3.6.2 1-.1.6-.4 1-1.1 1.1l.8 1.6-1.3-.2-.6-1.4-.5-.1-.2 1.2-1.2-.1zm1.5-1.9.8.1.5-.1.2-.3-.1-.4-.4-.2-.8-.1-.2 1zm7.5 1.3c-.3.5-.8.8-1.5.9-.6.1-1.2 0-1.7-.3-.4-.4-.7-.8-.8-1.4-.1-.6 0-1.1.4-1.6.3-.5.8-.8 1.5-.9.6-.1 1.2 0 1.7.3s.8.8.9 1.4c0 .6-.1 1.1-.5 1.6zm-2.4-.3c.2.2.5.2.8.2s.5-.2.7-.5c.2-.2.2-.5.1-.8l-.4-.7c-.2-.2-.5-.2-.8-.2-.3.1-.5.2-.7.5-.2.2-.2.5-.2.8.1.3.2.5.5.7zm5.9-.5L22 30.2l1.1-.6 2.1 1.8-.5-2.7 1.1-.6.6 4.4-.9.5zm2.8-1.8-1.9-4.1.8-.8 4.3 1.6-.8.9-.8-.3-1.1 1.2.3.7-.8.8zm.1-2.4.6-.7-1.2-.5.6 1.2zm3.9-2.3-3.8-1.8.5-1 2.9 1.3.9-1.8.9.4-1.4 2.9z" class="st0"/></svg>