<svg xmlns="http://www.w3.org/2000/svg" xml:space="preserve" id="Layer_1" x="0" y="0" style="enable-background:new 0 0 369.015 26" version="1.1" viewBox="0 0 369 26"><style>.st0{fill:#83766a}</style><path d="M254.5 22.4v-3.7c0-2.3 1.3-3.6 3.4-3.6s3.4 1.3 3.4 3.6v3.7c0 2.2-1.3 3.6-3.4 3.6s-3.4-1.4-3.4-3.6zm4.6 0v-3.7c0-1-.4-1.5-1.2-1.5-.8 0-1.2.5-1.2 1.5v3.7c0 1 .4 1.5 1.2 1.5.8 0 1.2-.5 1.2-1.5zm3.2.6v-2.4c0-1.8 1-3 2.8-3 1.9 0 2.9 1.2 3 3H266c0-.7-.3-1-.8-1-.6 0-.9.3-.9 1V23c0 .7.3 1 .9 1 .5 0 .8-.3.8-1h2c0 1.9-1 3-2.9 3-1.8 0-2.8-1.1-2.8-3zm10.7 1v2h-.7c-1.7 0-2.8-1.2-2.8-3v-3.3h-1v-1.9h1V16h2v2h1.3v1.8h-1.3V23c0 .6.3.9 1 .9h.4zm1-1.2v-2c0-2 1-3.2 3-3.2 1.8 0 2.9 1.2 2.9 3.2v2c0 2-1.1 3.2-3 3.2s-3-1.1-3-3.2zm3.8 0v-2c0-.8-.3-1.2-.9-1.2-.6 0-.9.4-.9 1.2v2c0 .9.3 1.2 1 1.2.5 0 .8-.3.8-1.2zm9.2-2v2c0 2-1 3.2-2.6 3.2-.6 0-1.3-.4-1.7-.9l-.1.7h-1.4V15h2v3.2a2 2 0 0 1 1.2-.5c1.5 0 2.6 1.3 2.6 3.2zm-2.1 0c0-.8-.3-1.2-.8-1.2-.6 0-1 .4-1 1.2v2c0 .8.4 1.2 1 1.2.5 0 .8-.4.8-1.2v-2zm9.1 2.5c-.2 1.7-1.2 2.7-3 2.7s-2.9-1.2-2.9-3.2v-2c0-2 1-3.2 2.9-3.2 1.8 0 3 1.2 3 3.1v1.8h-3.8v.3c0 .9.3 1.2.8 1.2.6 0 .8-.2 1-.7h2zm-3.8-2.6v.4h1.7v-.4c0-.8-.3-1.2-.9-1.2-.5 0-.8.4-.8 1.2zm9.4-2.9v2c-.3-.2-.6-.2-1-.2-.8 0-1.4.4-1.4 1.2v5h-2v-8h1.3l.2.9c.4-.7 1.1-1 2-1l.9.1zm3.4 6.7c0-3.3 3.8-4.8 3.8-6.6 0-.4-.2-.9-.8-.9-.6 0-1 .4-1 1.1h-1.9c.1-2 1.1-3 2.8-3 2 0 3 1.4 3 2.7 0 2.7-3.7 4.5-3.7 6.1h3.7v1.9H303v-1.3zm7-1.7v-4.5c0-2 1-3.2 3-3.2 1.8 0 3 1.2 3 3.2v4.5c0 2-1.2 3.2-3 3.2-2 0-3-1.2-3-3.2zm4 0v-4.5c0-.8-.4-1.3-1-1.3-.8 0-1.1.5-1.1 1.3v4.5c0 .8.3 1.3 1 1.3s1.1-.5 1.1-1.3zm3 1.7c0-3.3 3.7-4.8 3.7-6.6 0-.4-.2-.9-.8-.9-.6 0-.9.4-1 1.1h-1.8c0-2 1-3 2.8-3 2 0 2.8 1.4 2.8 2.7 0 2.7-3.6 4.5-3.6 6.1h3.7v1.9H317v-1.3zm10-9.2v10.5h-2V18l-1.5.8v-2.2l2.2-1.3h1.3zm-72.5-6.8v-4c0-2.3 1.2-3.5 3.2-3.5 2.2 0 3.3 1.2 3.4 3.5H259c-.1-1-.5-1.4-1.3-1.4-.6 0-1 .4-1 1.4v4c0 1 .4 1.4 1 1.4.9 0 1.2-.4 1.3-1.4h2.1c0 2.3-1.2 3.4-3.4 3.4-2 0-3.2-1.1-3.2-3.4zm13-1.8v5h-1.6l-.1-.7c-.3.6-.9 1-1.8 1-1.4 0-2.3-1-2.3-2.5 0-1.7 1.2-2.6 3-2.6h.7v-.2c0-.7-.1-1.1-.7-1.1-.3 0-.7.2-.8.7h-2c0-1.7 1.1-2.7 2.9-2.7 1.9 0 2.7 1 2.7 3.1zm-2 2h-.7c-.7 0-1 .2-1 .8 0 .4.2.7.7.7.6 0 1-.3 1-1v-.5zm3 .5h2c.1.4.3 1 1 1 .6 0 .9-.3.9-.7 0-1.3-3.7-.9-3.7-3.6 0-1.4 1-2.3 2.7-2.3 2 0 2.7 1.1 2.8 2.6h-2c0-.5-.2-.8-.8-.8-.4 0-.7.2-.7.5 0 1.1 3.7.7 3.7 3.6 0 1.5-1 2.5-2.8 2.5-2 0-3-1.4-3-2.8zm6.9-7.7a1 1 0 0 1 1.1-1.1c.7 0 1.2.5 1.2 1.1 0 .6-.5 1.1-1.2 1.1-.6 0-1-.5-1-1.1zm.1 2.3h2v8h-2v-8zm9.3 3.1v4.9h-2v-5c0-.9-.3-1.2-.8-1.2-.6 0-.9.4-.9 1.1v5h-2V3.9h1.3l.2.8c.4-.6 1-1 1.8-1 1.5 0 2.4 1.1 2.4 3.3zm1.2 1.9v-2c0-2 1.1-3.2 3-3.2s3 1.1 3 3.2v2c0 2-1.1 3.2-3 3.2s-3-1.2-3-3.2zm3.9 0v-2c0-.9-.3-1.2-.9-1.2-.6 0-.9.3-.9 1.2v2c0 .8.3 1.2.9 1.2.6 0 .9-.4.9-1.2zm6.2 0v-2c0-2 1.1-3.2 3-3.2 1.8 0 3 1.1 3 3.2v2c0 2-1.2 3.2-3 3.2-1.9 0-3-1.2-3-3.2zm3.8 0v-2c0-.9-.3-1.2-.8-1.2-.6 0-1 .3-1 1.2v2c0 .8.4 1.2 1 1.2.5 0 .8-.4.8-1.2zm5.9-5.2v.2h1.3v1.9h-1.3v6h-2v-6h-1.2V3.8h1.1v-.2c0-1.6.8-3 3-3h.5v2h-.5c-.7 0-1 .2-1 1zm9.1 6.4v1.9h-.7c-1.7 0-2.8-1.1-2.8-3V5.7h-1V3.8h1v-2h2v2h1.4v1.8h-1.3V9c0 .7.3 1 .9 1h.5zm6.9-3.1v4.9h-2v-5c0-.9-.3-1.2-.8-1.2s-.9.4-.9 1.1v5h-2V1h2v3.5c.4-.5.9-.8 1.5-.8 1.4 0 2.2 1.1 2.2 3.3zm7.2 2.3c-.2 1.7-1.3 2.7-3 2.7-1.9 0-3-1.1-3-3V6.6c0-2 1.1-3.1 3-3.1 1.8 0 2.8 1.1 2.8 3v1.9h-3.7v.3c0 .8.3 1.2.8 1.2.7 0 .8-.2 1-.8h2zm-4-2.5V7h1.7v-.4c0-.9-.3-1.2-.9-1.2-.5 0-.8.3-.8 1.2zm17.4-5.5v10.6h-2.1V9.2l.1-3.9-1 2.8-.5 1.4h-2.1l-.6-1.4-.9-2.8v6.5h-2V1.2h2.2l1.6 4 .7 1.9.7-1.9 1.7-4h2.2zm1.5 7.6v-2c0-2 1-3.2 3-3.2 1.8 0 2.9 1.1 2.9 3.2v2c0 2-1.1 3.2-3 3.2-1.8 0-3-1.2-3-3.2zm3.8 0v-2c0-.9-.3-1.2-.9-1.2-.6 0-.9.3-.9 1.2v2c0 .8.3 1.2 1 1.2.5 0 .8-.4.8-1.2zm9.1-1.9v4.9h-2v-5c0-.9-.3-1.2-.8-1.2s-.9.4-.9 1.1v5h-2V3.9h1.4l.1.8c.4-.6 1-1 1.9-1 1.5 0 2.3 1.1 2.3 3.3zM362 10v1.9h-.6c-1.7 0-2.8-1.1-2.8-3V5.7h-1V3.8h1v-2h2v2h1.4v1.8h-1.3V9c0 .7.3 1 .9 1h.5zm7-3.1v4.9h-2v-5c0-.9-.3-1.2-.8-1.2s-.9.4-.9 1.1v5h-2V1h2v3.5c.4-.5.9-.8 1.5-.8 1.4 0 2.2 1.1 2.2 3.3zM45 1.4v24h-3.7L38.2 16l-1.7-5.8c.2 3 .4 7.6.4 10.2v4.9h-3.7v-24h3.7l3.5 10.4 1.4 4.6c-.3-3.1-.5-7.2-.5-9.4V1.4H45zm2.5 16.2V9.2c0-5.1 2.3-8.2 6-8.2 3.8 0 6 3 6 8.2v8.4c0 5.2-2.2 8.2-6 8.2-3.7 0-6-3-6-8.2zm8.2 0V9.2c0-2.3-.8-3.5-2.2-3.5-1.4 0-2 1.2-2 3.5v8.4c0 2.3.6 3.5 2 3.5s2.2-1.2 2.2-3.5zM73.9 1.4v24h-3.7L67 16l-1.6-5.8h-.1c.3 3 .5 7.6.5 10.2v4.9H62v-24h3.7l3.5 10.4 1.3 4.6h.1c-.3-3.1-.5-7.2-.5-9.4V1.4h3.7zm1.9 17h3.8c0 2 .8 2.7 2 2.7s1.8-.9 1.8-2c0-4-7.2-4.5-7.2-11.8 0-3.7 2-6.4 5.4-6.4C85 1 87 3.6 87 8h-3.9c0-1.6-.6-2.4-1.6-2.4S80 6.3 80 7.4c0 3.8 7.4 4 7.4 11.7 0 3.9-2.2 6.8-5.9 6.8-3.5 0-5.7-2.7-5.7-7.5zM99.3 6h-3.7v19.4h-3.9V6h-3.6V1.4h11.2V6zm1.2 11.6V9.2c0-5.1 2.3-8.2 6-8.2s6 3 6 8.2v8.4c0 5.2-2.2 8.2-6 8.2s-6-3-6-8.2zm8.1 0V9.2c0-2.3-.7-3.5-2-3.5-1.5 0-2.2 1.2-2.2 3.5v8.4c0 2.3.7 3.5 2.1 3.5 1.4 0 2.1-1.2 2.1-3.5zm18-8c0 5-2.3 8-6.2 8h-1.6v7.8H115v-24h5.4c3.9 0 6.2 3 6.2 8.2zm-4 0c0-2.4-.7-3.6-2.2-3.6h-1.6v7h1.6c1.5 0 2.3-1.1 2.3-3.4zm17.1 8.6c0 4.3-2.3 7.2-5.5 7.2h-5.8v-24h5.7c3 0 5 2.8 5 6.8a8 8 0 0 1-1.6 5c1.4 1 2.2 2.9 2.2 5zM132 6v5h1.5c1 0 1.6-.9 1.6-2.6 0-1.6-.5-2.4-1.7-2.4H132zm3.7 12.2c0-1.7-.7-2.6-2.2-2.6H132v5.2h1.5c1.5 0 2.2-.9 2.2-2.6zm5.6-.6V9.2c0-5.1 2.3-8.2 6-8.2s6 3 6 8.2v8.4c0 5.2-2.2 8.2-6 8.2s-6-3-6-8.2zm8.2 0V9.2c0-2.3-.7-3.5-2.1-3.5-1.4 0-2.2 1.2-2.2 3.5v8.4c0 2.3.8 3.5 2.2 3.5 1.4 0 2-1.2 2-3.5zm18.2-16.2v24H164l-3.1-9.3-1.7-5.8c.2 3 .4 7.6.4 10.2v4.9h-3.7v-24h3.7l3.5 10.4 1.4 4.6c-.3-3.1-.5-7.2-.5-9.4V1.4h3.7zm2.7 16.3V1.4h4v16.3c0 2.2.6 3.4 2 3.4s2-1.2 2-3.4V1.4h3.9v16.3c0 5-2.2 8.1-6 8.1s-5.9-3-5.9-8.1zm13.4.7h3.9c0 2 .7 2.7 2 2.7 1.2 0 1.8-.9 1.8-2 0-4-7.3-4.5-7.3-11.8 0-3.7 2-6.4 5.4-6.4 3.5 0 5.5 2.7 5.5 7.1h-3.8c0-1.6-.6-2.4-1.7-2.4-1 0-1.6.7-1.6 1.8 0 3.8 7.4 4 7.4 11.7 0 3.9-2.1 6.8-5.8 6.8-3.5 0-5.8-2.7-5.8-7.5zm12.2 4.8c0-1.5.8-2.5 2-2.5s2 1 2 2.5-.8 2.6-2 2.6-2-1-2-2.6zm5.6-5.2V8.8c0-5 2.1-7.8 5.8-7.8 3.7 0 5.7 2.8 5.9 7.8h-3.8c-.1-2.1-.7-3-2.2-3-1.1 0-1.8 1-1.8 3v9.4c0 2 .7 3 1.8 3 1.5 0 2.2-1 2.3-3h3.7c0 5-2.2 7.7-6 7.7-3.6 0-5.7-2.7-5.7-7.7zm13.1-.4V9.2c0-5.1 2.3-8.2 6-8.2s6 3 6 8.2v8.4c0 5.2-2.2 8.2-6 8.2s-6-3-6-8.2zm8.2 0V9.2c0-2.3-.8-3.5-2.2-3.5-1.4 0-2 1.2-2 3.5v8.4c0 2.3.6 3.5 2 3.5s2.2-1.2 2.2-3.5zm22.3-16.2v24h-3.7v-5.9l.3-8.7-.1-.1L240 17l-.9 3.3h-3.7l-1-3.3-1.6-6.3h-.2l.3 8.8v5.9h-3.6v-24h3.7l3 9a95 95 0 0 1 1.2 4.3l1.3-4.2 3-9h3.7zM15.6 8.7V7.5H9.5v1.2h-3v4.5c0 .6.5 1 1 1h2a3 3 0 0 0 2.4 2.5V18h-.5c-.8 0-1.4.6-1.4 1.4v.3h5v-.3c0-.8-.6-1.4-1.4-1.4h-.5v-1.3a3 3 0 0 0 2.4-2.5h2c.6 0 1.1-.4 1.1-1V8.7h-3zM7.7 13v-3h1.8v3H7.7zm6.6.8a1.7 1.7 0 0 1-3.5 0v-5h3.5v5zm3-.8h-1.7v-3h1.8v3z" class="st0"/><path d="M25.7 11.5a13 13 0 1 0-13.6 14.3s2.4 0 2.3-1.7c0-1.7-2.3-1.6-2.3-1.6a9.6 9.6 0 1 1 10.3-11h-1.6l3.4 6.7 3.5-6.7h-2z" class="st0"/></svg>