<!-- icon666.com - MILLIONS OF FREE VECTOR ICONS --><svg fill="#FFF" version="1.1" id="Capa_1" xmlns="http://www.w3.org/2000/svg" xmlns:xlink="http://www.w3.org/1999/xlink" x="0px" y="0px" viewBox="0 0 480.402 480.402" style="enable-background:new 0 0 480.402 480.402;" xml:space="preserve"><path d="M373.747,287.335l-13.326-3.974c-9.102-28.831-6.161-69.541-5.067-81.254c1.972-3.323,3.691-6.905,5.037-10.752 c5.911-16.923,3.862-33.578-4.082-43.97c1.548-8.422,2.768-20.605,2.768-28.535C359.077,53.204,305.84,0,240.217,0 c-65.653,0-118.89,53.204-118.89,118.85c0,7.922,1.204,20.097,2.767,28.519c-7.96,10.384-10.009,27.049-4.112,43.978 c1.346,3.863,3.082,7.452,5.052,10.783c1.109,11.753,4.035,52.424-5.067,81.24l-13.31,3.965 c-16.672,4.973-26.648,22.026-22.786,38.996l8.116,35.736c15.719,69.211,77.244,118.335,148.215,118.335 c70.973,0,132.497-49.124,148.215-118.335l8.116-35.736C400.395,309.361,390.418,292.308,373.747,287.335z M141.549,153.407 c0.45-0.164,82.847-7.957,141.348-78.561c-13.423-4.419-27.925-7.009-42.696-7.009c-22.244,0-43.874,5.872-62.129,15.024 c-5.4,2.996-10.069,5.714-13.683,7.876c-4.036,2.654-7.825,5.463-11.315,8.397c-3.185,2.677-7.917,2.642-11.05-0.091l-0.186-0.162 c-2.905-2.537-3.585-6.694-1.638-9.978c9.723-16.39,41.993-62.011,100-62.011c58.007,0,90.277,45.621,100,62.011 c1.951,3.291,1.274,7.436-1.638,9.978l-0.186,0.162c-3.127,2.728-7.873,2.763-11.05,0.091c-3.435-2.888-7.158-5.656-11.124-8.273 c-3.706-2.23-8.502-5.014-14.067-8.1c-4.857-2.426-9.955-4.614-15.235-6.526c6.901,14.571,35.805,70.988,51.939,77.171 c7.44,2.851,12.011,16.688,6.442,32.662c-5.005,14.333-15.201,22.06-22.441,22.06c-2.925,0.391-6.194,1.845-7.476,4.801 c-14.515,33.272-41.884,68.82-75.148,68.82c-33.296,0-60.681-35.548-75.193-68.82c-1.268-2.918-4.473-4.801-7.663-4.801 c-7.069,0-17.251-7.727-22.256-22.06C129.538,170.094,134.025,156.033,141.549,153.407z M380.908,322.78l-8.116,35.737 c-2.205,9.712-5.489,18.901-9.54,27.603c-13.262-8.852-28.948-14.317-46.104-14.317c-32.732,0-60.822,18.829-74.835,46.073 c-12.98-29.941-42.742-50.914-77.462-50.914c-18.438,0-35.173,6.279-49.014,16.335c-3.441-7.866-6.255-16.124-8.227-24.78 l-8.132-35.745c-1.971-8.71,3.189-17.531,11.761-20.089l81.466-24.288c13.888,11.605,29.824,19.37,47.512,19.37 c17.673,0,33.609-7.764,47.481-19.37l81.465,24.288C377.734,305.241,382.896,314.062,380.908,322.78z"></path></svg>