<svg width="824" height="430" viewBox="0 0 824 430" fill="none" xmlns="http://www.w3.org/2000/svg">
<path d="M0 429.293V375.447H33.6309V382.28H40.4664V402.507H33.6309V409.34H13.3977V429.567L0 429.293ZM26.7953 395.673V388.84H13.3977V395.673H26.7953Z" fill="white"/>
<path d="M53.8644 429.293V422.46H47.0288V382.007H53.8644V375.173H80.6597V382.007H87.4953V422.46H80.6597V429.293H53.8644ZM74.0976 415.9V389.113H60.6999V415.9H74.0976Z" fill="white"/>
<path d="M100.893 429.293V422.46H94.0571V382.007H100.893V375.173H127.688V382.007H134.524V395.4H121.126V388.567H107.728V415.353H121.126V408.52H134.524V421.913H127.688V428.747L100.893 429.293Z" fill="white"/>
<path d="M141.086 429.293V375.447H154.484V395.673H167.881V375.447H181.279V395.673H174.443V409.067H181.279V429.293H167.881V409.067H154.484V429.293H141.086Z" fill="white"/>
<path d="M188.388 429.293V375.447H228.854V388.84H202.059V395.673H222.292V409.067H202.059V415.9H228.854V429.293H188.388Z" fill="white"/>
<path d="M248.814 429.293V388.84H235.417V375.447H275.883V388.84H262.485V429.293H248.814Z" fill="white"/>
<path d="M302.678 429.293V422.46H295.843V382.007H302.678V375.173H329.474V388.567H309.24V415.353H322.638V408.52H315.803V395.127H336.036V421.913H329.2V428.747L302.678 429.293Z" fill="white"/>
<path d="M342.871 429.293V382.28H349.707V375.447H376.502V382.28H383.338V429.293H369.94V415.9H356.542V429.293H342.871ZM369.666 402.233V388.84H356.269V402.233H369.666Z" fill="white"/>
<path d="M389.9 429.293V375.447H396.735V382.28H403.571V389.113H410.407V395.947H417.242V389.113H424.078V382.28H430.913V375.447H437.749V429.293H424.351V409.067H417.515V415.9H410.68V409.067H403.844V429.293H389.9Z" fill="white"/>
<path d="M443.764 429.293V375.447H484.23V388.84H457.435V395.673H477.668V409.067H457.435V415.9H484.23V429.293H443.764Z" fill="white"/>
<path d="M490.792 429.293V415.9H517.588V409.067H497.355V402.233H490.519V382.007H497.355V375.173H530.985V388.567H504.19V395.4H524.423V402.233H531.259V422.46H524.423V429.293H490.792Z" fill="white"/>
<path d="M551.219 429.293V415.9H578.014V409.067H557.781V402.233H550.945V382.007H557.781V375.173H591.412V388.567H564.616V395.4H584.85V402.233H591.685V422.46H584.85V429.293H551.219Z" fill="white"/>
<path d="M605.083 429.293V422.46H598.247V382.007H605.083V375.173H631.878V382.007H638.714V422.46H631.878V429.293H605.083ZM625.316 415.627V388.84H611.918V415.627H625.316Z" fill="white"/>
<path d="M645.549 429.293V375.447H686.016V388.84H659.22V395.673H679.454V409.067H659.22V429.293H645.549Z" fill="white"/>
<path d="M705.975 429.02V388.567H692.578V375.173H733.044V388.567H719.646V429.02H705.975Z" fill="white"/>
<path fill-rule="evenodd" clip-rule="evenodd" d="M270.141 0.706543H299.397V29.9532H270.141V0.706543Z" fill="#F36F21"/>
<path fill-rule="evenodd" clip-rule="evenodd" d="M0 34.6001H29.2561V63.8468H0V34.6001Z" fill="#5E4EA1"/>
<path fill-rule="evenodd" clip-rule="evenodd" d="M33.6309 304.653H62.887V333.9H33.6309V304.653Z" fill="#1BBEE6"/>
<path fill-rule="evenodd" clip-rule="evenodd" d="M202.605 237.14H231.862V266.386H202.605V237.14Z" fill="#B64C9C"/>
<path fill-rule="evenodd" clip-rule="evenodd" d="M96.7914 0.706543H67.5352V29.9532H96.7914V0.706543ZM62.887 0.706543H33.6309V29.9532H62.887V0.706543ZM101.166 29.9532H130.422V0.706543H101.166V29.9532ZM164.327 0.706543H135.07V29.9532H164.327V0.706543ZM197.957 0.706543H168.701V29.9532H197.957V0.706543ZM265.493 0.706543H236.237V29.9532H265.493V0.706543ZM33.6309 63.8465H62.887V34.5999H33.6309V63.8465ZM0 97.4665H29.2561V68.2199H0V97.4665ZM33.6309 97.4665H62.887V68.2199H33.6309V97.4665ZM0 131.36H29.2561V102.113H0V131.36ZM33.6309 131.36H62.887V102.113H33.6309V131.36ZM0 164.98H29.2561V135.733H0V164.98ZM33.6309 164.98H62.887V135.733H33.6309V164.98ZM0 198.873H29.2561V169.627H0V198.873ZM33.6309 198.873H62.887V169.627H33.6309V198.873ZM0 232.493H29.2561V203.247H0V232.493ZM33.6309 232.493H62.887V203.247H33.6309V232.493ZM0 266.387H29.2561V237.14H0V266.387ZM33.6309 266.387H62.887V237.14H33.6309V266.387ZM67.5352 232.493H96.7914V203.247H67.5352V232.493ZM67.5352 266.387H96.7914V237.14H67.5352V266.387ZM101.166 232.493H130.422V203.247H101.166V232.493ZM101.166 266.387H130.422V237.14H101.166V266.387ZM135.07 232.493H164.327V203.247H135.07V232.493ZM135.07 266.387H164.327V237.14H135.07V266.387ZM168.701 232.493H197.957V203.247H168.701V232.493ZM168.701 266.387H197.957V237.14H168.701V266.387ZM236.237 232.493H265.493V203.247H236.237V232.493ZM0 300.007H29.2561V270.76H0V300.007ZM0 333.9H29.2561V304.653H0V333.9ZM33.6309 300.007H62.887V270.76H33.6309V300.007ZM67.5352 63.8465H96.7914V34.5999H67.5352V63.8465ZM101.166 63.8465H130.422V34.5999H101.166V63.8465ZM135.07 63.8465H164.327V34.5999H135.07V63.8465ZM168.701 63.8465H197.957V34.5999H168.701V63.8465ZM202.606 29.9532H231.862V0.706543H202.606V29.9532ZM202.606 232.493H231.862V203.247H202.606V232.493ZM202.606 63.8465H231.862V34.5999H202.606V63.8465ZM236.237 63.8465H265.493V34.5999H236.237V63.8465ZM270.141 63.8465H299.397V34.5999H270.141V63.8465ZM236.237 97.4665H265.493V68.2199H236.237V97.4665ZM270.141 97.4665H299.397V68.2199H270.141V97.4665ZM303.772 68.2199V97.4665H333.028V68.2199H303.772ZM270.141 131.36H299.397V102.113H270.141V131.36ZM303.772 131.36H333.028V102.113H303.772V131.36ZM270.141 164.98H299.397V135.733H270.141V164.98ZM303.772 164.98H333.028V135.733H303.772V164.98ZM270.141 198.873H299.397V169.627H270.141V198.873ZM270.141 232.493H299.397V203.247H270.141V232.493ZM236.237 198.873H265.493V169.627H236.237V198.873ZM303.772 198.873H333.028V169.627H303.772V198.873ZM399.743 131.36H428.999V102.113H399.743V131.36ZM399.743 164.98H428.999V135.733H399.743V164.98ZM399.743 198.873H428.999V169.627H399.743V198.873ZM399.743 232.493H428.999V203.247H399.743V232.493ZM399.743 266.387H428.999V237.14H399.743V266.387ZM433.374 97.4665H462.63V68.2199H433.374V97.4665ZM433.374 63.8465H462.63V34.5999H433.374V63.8465ZM467.278 97.4665H496.534V68.2199H467.278V97.4665ZM467.278 63.8465H496.534V34.5999H467.278V63.8465ZM530.165 34.5999H500.909V63.8465H530.165V34.5999ZM500.909 29.9532H530.165V0.706543H500.909V29.9532ZM534.813 63.8465H564.069V34.5999H534.813V63.8465ZM534.813 29.9532H564.069V0.706543H534.813V29.9532ZM568.444 63.8465H597.7V34.5999H568.444V63.8465ZM597.7 0.706543H568.444V29.9532H597.7V0.706543ZM631.605 34.5999H602.349V63.8465H631.605V34.5999ZM602.349 29.9532H631.605V0.706543H602.349V29.9532ZM433.374 131.36H462.63V102.113H433.374V131.36ZM433.374 164.98H462.63V135.733H433.374V164.98ZM433.374 198.873H462.63V169.627H433.374V198.873ZM568.444 164.98H597.7V135.733H568.444V164.98ZM568.444 198.873H597.7V169.627H568.444V198.873ZM631.605 135.733H602.349V164.98H631.605V135.733ZM631.605 169.627H602.349V198.873H631.605V169.627ZM635.979 164.98H665.236V135.733H635.979V164.98ZM635.979 198.873H665.236V169.627H635.979V198.873ZM635.979 266.387H665.236V237.14H635.979V266.387ZM669.884 164.98H699.14V135.733H669.884V164.98ZM669.884 198.873H699.14V169.627H669.884V198.873ZM635.979 63.8465H665.236V34.5999H635.979V63.8465ZM635.979 97.4665H665.236V68.2199H635.979V97.4665ZM669.884 63.8465H699.14V34.5999H669.884V63.8465ZM669.884 97.4665H699.14V68.2199H669.884V97.4665ZM433.374 232.493H462.63V203.247H433.374V232.493ZM433.374 266.387H462.63V237.14H433.374V266.387ZM467.278 266.387H496.534V237.14H467.278V266.387ZM467.278 300.007H496.534V270.76H467.278V300.007ZM467.278 333.9H496.534V304.653H467.278V333.9ZM530.165 270.76H500.909V300.007H530.165V270.76ZM500.909 333.9H530.165V304.653H500.909V333.9ZM534.813 300.007H564.069V270.76H534.813V300.007ZM534.813 333.9H564.069V304.653H534.813V333.9ZM568.444 300.007H597.7V270.76H568.444V300.007ZM568.444 333.9H597.7V304.653H568.444V333.9ZM631.605 270.76H602.349V300.007H631.605V270.76ZM602.349 333.9H631.605V304.653H602.349V333.9ZM635.979 300.007H665.236V270.76H635.979V300.007ZM669.884 300.007H699.14V270.76H669.884V300.007ZM669.884 232.493H699.14V203.247H669.884V232.493ZM669.884 266.387H699.14V237.14H669.884V266.387ZM703.515 169.627V198.873H732.771V169.627H703.515ZM703.515 232.493H732.771V203.247H703.515V232.493Z" fill="white"/>
<path fill-rule="evenodd" clip-rule="evenodd" d="M399.743 68.2197H428.999V97.4664H399.743V68.2197Z" fill="#E51B73"/>
<path fill-rule="evenodd" clip-rule="evenodd" d="M467.278 0.706543H496.534V29.9532H467.278V0.706543Z" fill="#FDB81B"/>
<path fill-rule="evenodd" clip-rule="evenodd" d="M433.374 270.76H462.63V300.006H433.374V270.76Z" fill="#3F7CB5"/>
<path fill-rule="evenodd" clip-rule="evenodd" d="M635.979 304.653H665.236V333.9H635.979V304.653Z" fill="#F04E23"/>
<path fill-rule="evenodd" clip-rule="evenodd" d="M703.515 135.733H732.771V164.98H703.515V135.733Z" fill="#5DBF85"/>
<path fill-rule="evenodd" clip-rule="evenodd" d="M703.515 237.14H732.771V266.386H703.515V237.14Z" fill="#EE2830"/>
<path d="M772.144 409.066V380.64H763.667V375.446H785.541V380.64H777.339V409.066H772.144ZM790.189 409.066V375.446H795.931L806.868 397.04L817.532 375.446H823.274V409.066H818.079V386.106L810.149 402.506H804.407L795.658 385.56V409.066H790.189Z" fill="white"/>
</svg>
