<?xml version="1.0" encoding="utf-8"?>
<!-- Generator: Adobe Illustrator 24.1.3, SVG Export Plug-In . SVG Version: 6.00 Build 0)  -->
<svg version="1.1" id="Слой_1" xmlns="http://www.w3.org/2000/svg" xmlns:xlink="http://www.w3.org/1999/xlink" x="0px" y="0px"
	 viewBox="0 0 100 44" style="enable-background:new 0 0 100 44;" xml:space="preserve">
<style type="text/css">
	.st0{fill:#FFFFFF;}
	.st1{fill:#E99D31;}
</style>
<desc>Created with sketchtool.</desc>
<polygon class="st0" points="75.4,24.4 73.9,24.4 73.9,32.1 77.6,32.1 77.6,30.7 75.4,30.7 "/>
<path class="st0" d="M71.7,24.7c-0.6-0.2-1.2-0.3-1.9-0.2h-1.6v7.7h1.5v-3.3c0.5,0,1.1,0,1.6-0.1l0,0c0.5-0.1,0.9-0.4,1.2-0.7
	c0.3-0.4,0.5-0.9,0.4-1.4c0-0.4-0.1-0.9-0.3-1.3C72.4,25.1,72.1,24.8,71.7,24.7z M71.4,27.1c-0.1,0.1-0.2,0.2-0.3,0.3
	c-0.3,0.1-0.5,0.1-0.8,0.1h-0.5v-1.6h0.4c0.3,0,0.7,0,1,0.2l0,0c0.2,0.1,0.4,0.4,0.4,0.7C71.5,26.8,71.5,27,71.4,27.1z"/>
<path d="M63.1,25.6L63.1,25.6L63.1,25.6z"/>
<path class="st1" d="M84,23.1L84,23.1c5-0.3,2.4-6.4-2.6-6.1C76.7,17.3,78.8,23.4,84,23.1z"/>
<polygon class="st0" points="86.6,24.4 85,24.4 87.3,28.8 87.3,32.1 88.8,32.1 88.8,32.1 88.8,28.8 91.1,24.4 89.5,24.4 88,27.2 "/>
<polygon class="st0" points="99.5,24.5 99,24.5 98.4,26.4 97.7,24.5 97.2,24.5 96.7,27.2 97.3,27.2 97.6,25.5 98.1,27.2 98.6,27.2 
	99.2,25.5 99.5,27.2 100,27.2 "/>
<polygon class="st0" points="95,25 95.5,25 95.5,27.2 96.1,27.2 96.1,27.2 96.1,25 96.6,25 96.6,24.5 95,24.5 "/>
<path class="st0" d="M59.6,25.5L59.6,25.5c0.9,0,1.8,0.4,2.5,1.1l1.1-1c-0.9-1-2.2-1.6-3.5-1.6c-0.8,0-1.5,0.2-2.2,0.6
	c-1.2,0.6-1.9,1.8-2.1,3c-0.2,1.3,0.3,2.6,1.2,3.5c0.8,0.8,1.9,1.2,3.1,1.1c0.6,0,1.2-0.1,1.8-0.3c0.6-0.3,1.2-0.7,1.7-1.2l-1-1.1
	c-0.3,0.4-0.8,0.7-1.2,0.9c-0.4,0.2-0.8,0.3-1.2,0.2c-0.5,0-1-0.1-1.4-0.4c-0.4-0.2-0.8-0.6-1-1s-0.4-0.9-0.3-1.4v-0.1
	C56.9,26.6,58.2,25.5,59.6,25.5z"/>
<path class="st1" d="M85,14.3c-5.7-2.3-12.2-1-16.6,3.3s-5.6,10.9-3.2,16.6s8,9.3,14.1,9.3c8.3,0,15.1-6.8,15-15.2
	C94.4,22.2,90.7,16.7,85,14.3z M79.4,41.9L79.4,41.9L79.4,41.9c-7.5-0.1-13.5-6.1-13.5-13.6s6-13.5,13.5-13.6l0,0
	c7.5,0,13.6,6.1,13.6,13.6S86.9,41.9,79.4,41.9z"/>
<path class="st0" d="M81.5,24.4l-3,7.7h1.6l0.6-1.6h3.2l0.6,1.6h1.6l-3-7.7C83.1,24.4,81.5,24.4,81.5,24.4z M81.2,29.1l1.1-2.6
	l1,2.6H81.2z"/>
<path class="st0" d="M10.4,27.8c0.3-0.4,0.4-0.8,0.4-1.3s-0.1-0.9-0.3-1.3c-0.2-0.3-0.5-0.6-0.9-0.8c-0.6-0.2-1.3-0.3-1.9-0.2H6v7.9
	h1.5v-3.3h0.1l1.8,3.3l0,0h1.7l-1.9-3.5C9.7,28.5,10.1,28.2,10.4,27.8z M8,27.3H7.5v-1.6H8c0.3,0,0.5,0,0.8,0.1s0.5,0.4,0.5,0.7l0,0
	c0,0.2-0.1,0.5-0.3,0.6C8.7,27.3,8.4,27.4,8,27.3z"/>
<path class="st0" d="M3.5,24.5c-0.6-0.2-1.3-0.3-1.9-0.2H0v7.9h1.5v-3.3c0.5,0,1.1,0,1.6-0.1l0,0C3.6,28.7,4,28.4,4.3,28
	s0.5-0.9,0.4-1.4c0-0.4-0.1-0.9-0.3-1.3C4.2,24.9,3.9,24.6,3.5,24.5z M3.1,27c-0.1,0.1-0.2,0.2-0.4,0.3c-0.3,0.1-0.5,0.1-0.8,0.1
	H1.5v-1.6H2c0.3,0,0.6,0,0.9,0.1l0,0c0.2,0.1,0.4,0.4,0.4,0.7C3.3,26.7,3.2,26.9,3.1,27z"/>
<path class="st1" d="M71,13.8c2.2-1.4,4.8-2.2,7.4-2.2c-0.3-1-1.4-5.1,0.5-9c-2.1,1.6-3.2,4.2-3,6.9c0,0-2.2-5.9-5.2-9.5
	c-0.4,4.6,1,10.8,1,10.8c-1.3-2.3-3.6-3.9-6.3-4C69.3,8.9,70.7,12.8,71,13.8z"/>
<polygon class="st0" points="52.7,24.3 52.7,32.1 54.2,32.1 54.2,24.3 "/>
<path class="st0" d="M15.2,24.3l-3.1,7.9h1.6l0.7-1.6h3.2l0.6,1.6h1.6l-3.1-7.9C16.7,24.3,15.2,24.3,15.2,24.3z M14.9,29.1l1.1-2.7
	l1.1,2.7H14.9z"/>
<path class="st0" d="M42.6,24.3l-3.1,7.9H41l0.7-1.6H45l0.6,1.6l0,0h1.6l-3.1-7.9C44.1,24.3,42.6,24.3,42.6,24.3z M42.3,29.1
	l1.1-2.7l1.1,2.7H42.3z"/>
<polygon class="st0" points="47,25.7 48.4,25.7 48.4,32.1 50,32.1 50,32.1 50,25.7 51.5,25.7 51.5,24.3 47,24.3 "/>
<polygon class="st0" points="35.7,24.3 33.8,29.8 32,24.3 30.5,24.3 29.1,32.2 30.6,32.2 31.5,27.2 33.1,32.1 34.5,32.1 36.2,27.1 
	37,32.1 38.5,32.1 37.2,24.3 "/>
<path class="st0" d="M24.3,29.6h2.3c-0.2,0.4-0.5,0.8-0.9,1s-0.9,0.3-1.3,0.3c-0.8,0-1.5-0.3-2-0.8s-0.8-1.2-0.8-1.9
	c0-0.7,0.3-1.4,0.8-1.9s1.2-0.8,2-0.8c0.9,0,1.8,0.4,2.4,1.1l1.1-1c-0.4-0.5-0.9-0.9-1.5-1.1c-0.6-0.3-1.3-0.4-2-0.4
	c-1.2,0-2.4,0.5-3.2,1.4c-0.7,0.7-1.1,1.7-1.1,2.7c0,0.7,0.2,1.5,0.6,2.1s0.9,1.2,1.5,1.5c0.7,0.4,1.5,0.5,2.2,0.5s1.4-0.2,2-0.5
	l0,0c1.2-0.7,1.9-2,2-3.4v-0.3h-4v1.5H24.3z"/>
</svg>
