<!-- icon666.com - MILLIONS OF FREE VECTOR ICONS --><svg fill="#FFF" version="1.1" id="Layer_1" xmlns="http://www.w3.org/2000/svg" xmlns:xlink="http://www.w3.org/1999/xlink" x="0px" y="0px" viewBox="0 0 512.001 512.001" style="enable-background:new 0 0 512.001 512.001;" xml:space="preserve"><g><g><path d="M211.55,225.316c-17.722-17.721-46.556-17.722-64.278,0.001c-8.584,8.585-13.313,19.999-13.313,32.139 c0,12.14,4.728,23.555,13.313,32.139c8.585,8.585,19.999,13.313,32.139,13.313c12.14,0,23.555-4.728,32.139-13.313 C229.272,271.873,229.272,243.039,211.55,225.316z M188.562,266.605c-2.444,2.444-5.693,3.79-9.149,3.79s-6.705-1.346-9.148-3.79 c-2.444-2.444-3.79-5.692-3.79-9.148c0-3.456,1.346-6.705,3.79-9.149c2.523-2.523,5.836-3.783,9.149-3.783 s6.626,1.262,9.148,3.783C193.605,253.352,193.605,261.56,188.562,266.605z"></path></g></g><g><g><path d="M364.912,222.587c-17.721-17.721-46.556-17.721-64.278,0.001c-8.584,8.584-13.313,19.999-13.313,32.139 c0,12.14,4.727,23.555,13.313,32.139c8.861,8.86,20.499,13.29,32.139,13.29c11.639,0,23.278-4.43,32.139-13.291 c8.586-8.585,13.313-19.999,13.313-32.139C378.225,242.586,373.496,231.171,364.912,222.587z M341.923,263.876 c-5.044,5.045-13.254,5.045-18.299,0c-2.444-2.444-3.79-5.693-3.79-9.149c0-3.456,1.346-6.705,3.79-9.149 c5.046-5.044,13.254-5.045,18.299,0c2.444,2.444,3.79,5.692,3.79,9.148C345.713,258.182,344.367,261.432,341.923,263.876z"></path></g></g><g><g><rect x="239.747" y="147.139" transform="matrix(0.9944 -0.1061 0.1061 0.9944 -25.7136 28.6058)" width="32.514" height="217.684"></rect></g></g><g><g><path d="M467.251,182.104c5.534-16.947,6.821-34.972,3.698-52.746c-3.882-22.083-14.339-42.162-30.242-58.065 c-15.903-15.903-35.981-26.36-58.065-30.242c-17.775-3.126-35.801-1.837-52.746,3.697L285.148,0L0.001,285.147l44.749,44.749 c-5.534,16.947-6.821,34.972-3.697,52.746c3.882,22.083,14.339,42.162,30.242,58.065s35.982,26.36,58.065,30.242 c17.775,3.124,35.799,1.837,52.746-3.698l44.749,44.75l285.146-285.147L467.251,182.104z M226.853,466.019l-37.127-37.128 l-10.214,4.56c-28.732,12.831-62.982,6.507-85.227-15.737c-22.243-22.244-28.568-56.495-15.737-85.227l4.56-10.214l-37.127-37.127 L285.148,45.981l37.127,37.127l10.214-4.56c28.731-12.831,62.983-6.507,85.228,15.737c22.243,22.243,28.567,56.493,15.737,85.227 l-4.562,10.214l37.129,37.127L226.853,466.019z"></path></g></g></svg>