<!-- icon666.com - MILLIONS OF FREE VECTOR ICONS --><svg fill="#FFF" id="Layer_1" enable-background="new 0 0 512 512" viewBox="0 0 512 512" xmlns="http://www.w3.org/2000/svg"><path d="m512 184.473c0-24.818-20.19-45.009-45.009-45.009s-45.01 20.191-45.01 45.009c0 19.561 12.544 36.248 30.01 42.439v67.456c0 2.934-2.387 5.321-5.321 5.321h-46.354v-199.283c0-21.147-17.205-38.352-38.353-38.352h-323.61c-21.148 0-38.353 17.205-38.353 38.352v222.612c0 21.147 17.205 38.352 38.353 38.352h16.806v58.576h-40.159c-8.284 0-15 6.716-15 15s6.716 15 15 15h370.316c8.284 0 15-6.716 15-15s-6.716-15-15-15h-40.158v-58.576h16.806c18.873 0 34.605-13.702 37.771-31.681h46.935c19.477 0 35.321-15.845 35.321-35.321v-67.456c17.466-6.191 30.009-22.877 30.009-42.439zm-473.647-92.419h89.678v21.586c0 8.284 6.716 15 15 15s15-6.716 15-15v-21.586h82.969v23.078c0 8.284 6.716 15 15 15s15-6.716 15-15v-23.078h90.964c4.605 0 8.353 3.747 8.353 8.352v167.603h-99.317v-21.586c0-8.284-6.716-15-15-15s-15 6.716-15 15v21.586h-82.97v-21.586c0-8.284-6.716-15-15-15s-15 6.716-15 15v21.586h-98.03v-167.603c0-4.605 3.747-8.352 8.353-8.352zm276.805 327.892h-230v-58.576h230zm46.806-88.576h-323.611c-4.605 0-8.353-3.747-8.353-8.352v-25.01h340.316v25.01c0 4.606-3.747 8.352-8.352 8.352zm105.027-131.887c-8.276 0-15.01-6.733-15.01-15.009s6.733-15.009 15.01-15.009 15.009 6.732 15.009 15.008-6.732 15.01-15.009 15.01z"></path><path d="m177.287 162.583h13.648c-7.768 16.46-11.811 34.433-11.811 52.88 0 8.284 6.716 15 15 15s15-6.716 15-15c0-19.003 5.659-37.346 16.367-53.046l4.353-6.382c3.133-4.594 3.468-10.543.869-15.459-2.598-4.916-7.701-7.992-13.262-7.992h-40.165c-8.284 0-15 6.716-15 15s6.717 14.999 15.001 14.999z"></path><path d="m59.201 163.543h13.647c-7.765 16.459-11.81 34.434-11.81 52.88 0 8.284 6.716 15 15 15s15-6.716 15-15c0-19.003 5.659-37.347 16.366-53.045l4.354-6.382c3.134-4.594 3.469-10.543.871-15.46s-7.702-7.993-13.263-7.993h-40.165c-8.284 0-15 6.716-15 15s6.716 15 15 15z"></path><path d="m292.662 163.543h13.648c-7.767 16.46-11.811 34.434-11.811 52.88 0 8.284 6.716 15 15 15s15-6.716 15-15c0-19.002 5.659-37.345 16.366-53.045l4.354-6.382c3.134-4.594 3.469-10.543.871-15.46s-7.702-7.993-13.263-7.993h-40.166c-8.284 0-15 6.716-15 15s6.717 15 15.001 15z"></path></svg>