<!-- icon666.com - MILLIONS OF FREE VECTOR ICONS --><svg fill="#FFF" version="1.1" id="Layer_1" xmlns="http://www.w3.org/2000/svg" xmlns:xlink="http://www.w3.org/1999/xlink" x="0px" y="0px" viewBox="0 0 485.006 485.006" style="enable-background:new 0 0 485.006 485.006;" xml:space="preserve"><path d="M413.976,71.032C368.172,25.231,307.273,0.007,242.497,0.007c-64.772,0-125.669,25.224-171.471,71.026 C25.225,116.835,0,177.732,0,242.506c0,64.772,25.225,125.667,71.027,171.469C116.829,459.776,177.725,485,242.497,485 c64.776,0,125.674-25.224,171.479-71.025c45.805-45.802,71.03-106.697,71.03-171.469 C485.006,177.732,459.781,116.834,413.976,71.032z M342.619,354.637l-35.348-49.792l25.027-77.024l56.889-17.351l65.26,47.413 c-2.539,35.324-13.754,68.279-31.516,96.753H342.619z M142.389,354.637H62.075c-17.761-28.474-28.976-61.428-31.514-96.752 l65.26-47.414l56.889,17.351l25.027,77.024L142.389,354.637z M75.415,188.213l-44.266,32.161 c3.159-30.388,12.75-58.892,27.381-84.126L75.415,188.213z M205.23,292.38l-23.036-70.898l60.31-43.817l60.309,43.817 l-23.036,70.898H205.23z M409.591,188.213l16.884-51.964c14.632,25.234,24.223,53.737,27.382,84.125L409.591,188.213z M404.888,105.605l-24.782,76.27l-56.889,17.351l-65.714-47.744V93l65.106-47.302C354.684,58.801,382.862,79.522,404.888,105.605z M286.766,34.658l-44.263,32.159l-44.265-32.161c14.282-3.038,29.085-4.649,44.259-4.649 C257.675,30.007,272.481,31.619,286.766,34.658z M162.394,45.696l65.109,47.305v58.481l-65.715,47.744l-56.889-17.351 l-24.782-76.272C102.143,79.519,130.32,58.799,162.394,45.696z M84.673,384.637h54.565l16.897,52.004 C128.787,424.428,104.476,406.604,84.673,384.637z M191.64,448.833l-24.909-76.661l35.348-49.792h80.848l35.348,49.792 l-24.907,76.658c-16.306,4.021-33.341,6.169-50.871,6.169C224.972,455,207.942,452.852,191.64,448.833z M328.874,436.637l16.896-52 h54.56C380.528,406.602,356.219,424.424,328.874,436.637z"></path></svg>