<!-- icon666.com - MILLIONS OF FREE VECTOR ICONS --><svg version="1.1" id="Capa_1" xmlns="http://www.w3.org/2000/svg" xmlns:xlink="http://www.w3.org/1999/xlink" x="0px" y="0px" viewBox="0 0 409.6 409.6" style="enable-background:new 0 0 409.6 409.6;" xml:space="preserve"><g><g><polygon points="375.465,0 375.465,68.27 341.335,68.27 341.335,0 307.2,0 307.2,102.4 375.465,102.4 375.465,153.6 409.6,153.6 409.6,0 " fill="#000000" style="fill: rgb(255, 255, 255);"></polygon></g></g><g><g><path d="M275.133,87.388c9.267-9.267,15.002-22.067,15.002-36.188C290.15,22.938,267.213,0,238.935,0 c-28.268,0-51.2,22.938-51.2,51.2h34.13c0-9.431,7.649-17.06,17.07-17.06c9.431,0,17.065,7.629,17.065,17.06 c0,6.139-3.133,10.168-5.007,12.052L187.73,119.47v34.13h102.4v-34.13h-54.134L275.133,87.388z" fill="#000000" style="fill: rgb(255, 255, 255);"></path></g></g><g><g><path d="M341.335,187.74c-18.852,0-34.135,15.258-34.135,34.13v102.4c0,18.872,15.283,34.13,34.135,34.13h34.13 c18.852,0,34.135-15.299,34.135-34.13V187.74H341.335z" fill="#000000" style="fill: rgb(255, 255, 255);"></path></g></g><g><g><path d="M187.735,341.34v34.13H102.4v-153.6c0-18.872-15.283-34.13-34.135-34.13h-34.13v-51.2c0-56.571,45.865-102.4,102.4-102.4 H153.6V0h-17.065C61.164,0,0,61.102,0,136.54v187.73c0,18.831,15.283,34.13,34.135,34.13h34.13v17.07 c0,18.852,15.283,34.13,34.135,34.13h119.465v-68.26H187.735z" fill="#000000" style="fill: rgb(255, 255, 255);"></path></g></g></svg>