<!-- icon666.com - MILLIONS OF FREE VECTOR ICONS --><svg fill="#FFF" version="1.1" id="Capa_1" xmlns="http://www.w3.org/2000/svg" xmlns:xlink="http://www.w3.org/1999/xlink" x="0px" y="0px" viewBox="0 0 512 512" style="enable-background:new 0 0 512 512;" xml:space="preserve"><g><g><g><circle cx="235.995" cy="167.996" r="20"></circle><circle cx="235.995" cy="235.995" r="20"></circle><circle cx="99.998" cy="167.996" r="20"></circle><circle cx="99.998" cy="99.998" r="20"></circle><circle cx="99.998" cy="235.995" r="20"></circle><path d="M510.849,398.555l-41.823-212.156c-3.1-15.724-12.138-29.299-25.447-38.226c-13.311-8.927-29.301-12.136-45.023-9.036 l-62.563,12.334V59.999C335.993,26.915,309.077,0,275.994,0H59.999C26.916,0,0,26.915,0,59.999v215.995 c0,33.083,26.915,59.999,59.999,59.999h95.809l25.152,127.594c3.1,15.724,12.138,29.299,25.447,38.226 C216.409,508.521,227.924,512,239.702,512c3.896,0,7.822-0.381,11.729-1.151l212.156-41.823 c15.724-3.1,29.299-12.137,38.226-25.446C510.739,430.269,513.948,414.279,510.849,398.555z M59.999,295.994 c-11.028,0-20-8.972-20-20V59.999c0-11.028,8.972-20,20-20h215.995c11.028,0,20,8.972,20,20v215.995c0,11.028-8.972,20-20,20 H59.999z M455.851,429.782l-212.157,41.823c-5.239,1.035-10.57-0.036-15.008-3.012c-4.437-2.976-7.449-7.501-8.482-12.742 l-23.628-119.858h79.417c33.083,0,59.999-26.915,59.999-59.999V192.24l70.298-13.858c5.242-1.035,10.571,0.037,15.008,3.012 c4.437,2.976,7.449,7.501,8.482,12.742l41.823,212.156C473.738,417.111,466.671,427.649,455.851,429.782z"></path><circle cx="235.995" cy="99.998" r="20"></circle><circle cx="403.991" cy="377.992" r="20"></circle><circle cx="378.992" cy="243.995" r="20"></circle><circle cx="270.994" cy="404.991" r="20"></circle></g></g></g></svg>