<svg width="128" height="86" viewBox="0 0 128 86" fill="none" xmlns="http://www.w3.org/2000/svg">
<g filter="url(#filter0_d_28_4840)">
<path d="M9.64146 69.1551C10.8158 64.8869 12.5428 60.7992 14.7781 56.9965C16.1588 54.5378 17.8004 51.8741 19.636 49.0939C21.5847 46.1066 23.7386 43.2617 26.0823 40.5796C27.3495 39.1404 28.7103 37.7877 30.156 36.5305C31.6411 35.207 33.2432 34.0223 34.9429 32.9907C36.6722 31.9132 38.5247 31.0474 40.4618 30.4114C42.4091 29.7406 44.4414 29.3408 46.5027 29.2228L46.8444 29.2126C46.8168 29.3265 46.7661 29.4421 46.7297 29.5613C45.3753 34.0729 45.5185 38.9239 47.1376 43.3845C47.9829 45.6382 49.2728 47.701 50.929 49.447C52.6625 51.2771 54.8274 52.6352 57.2171 53.3917C58.4655 53.8289 59.7726 54.0638 61.0893 54.0877C62.5647 54.1254 64.025 53.8241 65.3592 53.2066C66.6392 52.5741 67.7687 51.675 68.6739 50.5681C69.5791 49.4612 70.2395 48.1714 70.6121 46.7831C71.2859 44.2676 71.0597 41.5828 69.9728 39.1955C68.99 37.0036 67.5902 35.0227 65.8535 33.3662C64.1595 31.7225 62.227 30.3486 60.1242 29.2932C57.497 27.9819 54.6727 27.1281 51.7726 26.7685C52.0909 26.1908 52.4473 25.6357 52.8393 25.1066C55.1298 21.9679 58.091 19.3899 61.5089 17.5591C64.684 15.83 68.107 14.598 71.6614 13.905C74.762 13.2836 77.9311 13.0465 81.0985 13.1989C83.7881 13.3907 86.4581 13.8261 89.0761 14.4997C93.1821 15.5111 97.1712 16.9713 100.972 18.8541C103.531 20.0967 105.996 21.5316 108.344 23.1466C110.221 24.4553 111.536 25.4678 112.538 26.2786C113.419 26.9673 113.981 27.4454 114.431 27.796L113.588 27.7298C111.183 27.541 109.006 27.4107 107.167 27.345C103.495 27.2227 101.145 27.3052 101.107 27.7418C101.069 28.1784 103.219 28.7632 106.801 29.4145C108.597 29.7491 110.731 30.0878 113.115 30.4227L114.019 30.5499C114.408 30.6089 114.8 30.6341 115.192 30.6254C115.444 30.6157 115.694 30.5839 115.939 30.5305C116.251 30.4633 116.552 30.3524 116.833 30.2012C117.412 29.8898 117.874 29.3994 118.153 28.8013C118.461 28.0171 118.618 27.1798 118.616 26.333L118.774 24.3763C119.452 13.5041 119.349 4.67011 118.511 4.67349C117.674 4.67687 116.433 13.4895 115.746 24.367L115.67 25.8C115.293 25.316 114.886 24.857 114.45 24.4262C113.177 23.1151 111.808 21.9019 110.354 20.7973C107.981 18.9544 105.447 17.3332 102.784 15.9544C98.8154 13.857 94.6213 12.2344 90.2883 11.1199C87.4395 10.3751 84.5313 9.8986 81.6015 9.69667C78.1022 9.5081 74.5987 9.76109 71.1728 10.4497C67.2112 11.2207 63.3981 12.6002 59.8665 14.5402C55.9201 16.6717 52.5099 19.6732 49.8868 23.3236C49.1266 24.3722 48.4748 25.497 47.9413 26.6807C47.4791 26.6902 47.0169 26.6996 46.562 26.7412C44.254 26.9069 41.9825 27.3849 39.8088 28.1622C37.6981 28.9074 35.6839 29.8988 33.8069 31.1163C32.0051 32.2609 30.3123 33.5692 28.7495 35.0252C27.2662 36.3674 25.8739 37.808 24.5818 39.3376C22.2379 42.1323 20.1042 45.0998 18.1979 48.2161C16.4019 51.1023 14.838 53.829 13.5064 56.3961C11.3692 60.3507 9.82784 64.6088 8.9323 69.0327C8.71124 70.2094 8.58052 71.4025 8.54129 72.6016C8.53916 73.4182 8.54864 73.8141 8.62496 73.8414C8.70128 73.8686 8.89621 72.1332 9.65911 69.1445L9.64146 69.1551ZM50.252 30.3941C50.3491 30.0559 50.4746 29.7251 50.6002 29.3943C53.4098 29.7116 56.1437 30.5475 58.6645 31.8601C60.5031 32.823 62.1883 34.0614 63.6616 35.5324C65.1206 36.9624 66.2883 38.665 67.0977 40.5423C67.8765 42.3222 68.0176 44.3119 67.4967 46.1687C67.2517 47.0838 66.8173 47.9342 66.2218 48.6645C65.6263 49.3948 64.8831 49.9887 64.0405 50.4074C62.2587 51.0812 60.2831 51.0599 58.4986 50.3476C56.6109 49.7236 54.9074 48.6252 53.5504 47.1571C52.2145 45.6896 51.183 43.9695 50.5178 42.0999C49.8389 40.2263 49.4685 38.2572 49.4216 36.2709C49.3616 34.2792 49.6364 32.2958 50.2344 30.4047" fill="#2C304F"/>
</g>
<defs>
<filter id="filter0_d_28_4840" x="0.541016" y="0.673584" width="126.679" height="85.1682" filterUnits="userSpaceOnUse" color-interpolation-filters="sRGB">
<feFlood flood-opacity="0" result="BackgroundImageFix"/>
<feColorMatrix in="SourceAlpha" type="matrix" values="0 0 0 0 0 0 0 0 0 0 0 0 0 0 0 0 0 0 127 0" result="hardAlpha"/>
<feOffset dy="4"/>
<feGaussianBlur stdDeviation="4"/>
<feComposite in2="hardAlpha" operator="out"/>
<feColorMatrix type="matrix" values="0 0 0 0 0 0 0 0 0 0 0 0 0 0 0 0 0 0 0.25 0"/>
<feBlend mode="normal" in2="BackgroundImageFix" result="effect1_dropShadow_28_4840"/>
<feBlend mode="normal" in="SourceGraphic" in2="effect1_dropShadow_28_4840" result="shape"/>
</filter>
</defs>
</svg>
