<svg width="202" height="150" viewBox="0 0 202 150" fill="none" xmlns="http://www.w3.org/2000/svg">
<g filter="url(#filter0_d_28_4841)">
<path d="M116.765 136.326C112.959 134.648 109.634 132.035 107.101 128.733L106.193 127.461C105.915 127.018 105.659 126.554 105.392 126.079C104.866 125.174 104.417 124.227 104.049 123.248C103.325 121.375 102.803 119.43 102.49 117.449C101.292 109.695 102.586 102.584 100.485 96.1054C99.6867 92.9655 97.9279 90.1468 95.4548 88.0443C92.9004 86.2167 89.7507 85.4298 86.6508 85.8447C83.2604 86.2802 79.9156 87.0054 76.653 88.0124C73.0908 89.1574 69.3684 89.7414 65.6188 89.7434C63.4445 89.6773 61.315 89.085 59.4127 88.0173C57.5105 86.9496 55.8923 85.4384 54.697 83.6132C53.5836 81.8788 52.8016 79.9544 52.3909 77.9386C52.0103 76.1306 51.8053 74.2913 51.779 72.4464C51.6508 68.8804 51.9934 65.6252 51.7515 62.4395C51.5856 59.2875 51.0224 56.1663 50.0755 53.1498C49.2129 50.2717 47.7714 47.5965 45.8398 45.2888C43.952 43.1297 41.5622 41.4679 38.8837 40.4514C33.5618 38.3665 27.9059 37.8995 22.6401 36.6815C19.9886 36.1289 17.4242 35.2104 15.021 33.9524C12.6746 32.7201 10.7163 30.8567 9.36891 28.574C8.1534 26.5702 7.5015 24.2783 7.48254 21.9422C7.51595 20.0051 7.92231 18.0952 8.67943 16.317C9.8549 13.613 11.4543 11.116 13.4176 8.91972C14.6226 7.54827 15.9226 6.26328 17.3079 5.07411C18.2612 4.27547 18.8196 3.90265 18.8749 3.97813C18.9302 4.0536 17.1362 5.93189 14.2957 9.65036C12.5821 11.8862 11.2049 14.3618 10.2074 16.9994C9.62063 18.6358 9.34815 20.3702 9.4042 22.112C9.49227 24.0757 10.1124 25.9823 11.1983 27.6279C12.3777 29.49 14.0573 30.9845 16.0432 31.939C18.2526 33.0106 20.5998 33.7667 23.0155 34.185C25.5384 34.6864 28.2432 35.0238 31.037 35.5124C34.0229 35.9443 36.9609 36.6703 39.808 37.6798C40.55 37.9994 41.3354 38.3188 42.0667 38.6494C42.798 38.98 43.5316 39.4624 44.2645 39.9014C45.7214 40.8687 47.0531 42.0132 48.2287 43.3084C50.556 45.9521 52.3176 49.0426 53.4038 52.3875C54.4947 55.6816 55.1678 59.0969 55.4071 62.5529C55.5514 64.254 55.5772 66.0102 55.5693 67.6908C55.5614 69.3713 55.5532 71.0302 55.6314 72.6667C55.5946 75.7996 56.4121 78.8894 57.9962 81.6043C58.8181 82.8158 59.9236 83.809 61.2156 84.4966C62.5195 85.1863 63.9675 85.5547 65.4383 85.5707C68.7456 85.4834 72.0167 84.8921 75.1385 83.8171C78.6152 82.7099 82.1845 81.9103 85.8053 81.4275C87.8599 81.1901 89.9419 81.2916 91.9684 81.7281C94.1371 82.1847 96.187 83.0969 97.982 84.4041C99.7715 85.7522 101.287 87.4303 102.446 89.347C103.541 91.1369 104.404 93.0578 105.013 95.063C106.107 98.8031 106.667 102.675 106.678 106.565C106.688 110.075 106.924 113.582 107.385 117.065C107.642 118.68 108.068 120.265 108.658 121.793C108.941 122.532 109.289 123.244 109.697 123.921C109.898 124.267 110.076 124.612 110.287 124.947L110.995 125.896C112.963 128.415 115.537 130.396 118.474 131.651C124.151 134.2 130.562 134.538 136.444 132.6C141.839 130.568 146.591 127.143 150.22 122.673C153.668 118.493 156.628 113.931 159.042 109.076C163.197 100.953 166.597 92.4603 169.198 83.7055C171.102 77.3101 172.603 70.799 173.693 64.2104C174.832 56.8908 175.582 49.5132 175.939 42.1086C175.893 40.1118 176.13 38.1207 176.643 36.1944C175.215 35.8606 173.716 36.0976 172.468 36.8547C170.778 37.6806 169.056 38.6043 167.508 39.4616C164.356 41.2092 161.606 42.9212 159.307 44.413C154.721 47.3857 151.92 49.3691 151.458 48.8956C150.995 48.422 153.068 45.5984 157.264 41.8589C159.756 39.6896 162.409 37.7125 165.201 35.9445C166.79 34.9134 168.424 33.947 170.296 32.9355C171.356 32.3619 172.492 31.9409 173.671 31.6849C175.196 31.383 176.779 31.5526 178.211 32.1711C179.573 32.8199 180.773 33.7671 181.721 34.9419C182.474 35.8586 183.176 36.8162 183.823 37.8101C185.054 39.6548 186.176 41.4786 187.155 43.2059C188.927 46.306 190.46 49.5347 191.743 52.864C193.908 58.5289 194.428 62.2004 193.888 62.3346C193.347 62.4687 191.705 59.131 188.918 53.9478C187.514 51.3563 185.799 48.3335 183.702 45.0642C182.659 43.4241 181.528 41.7413 180.3 40.0266C180.011 39.5951 179.713 39.1962 179.381 38.7651C179.492 39.6641 179.552 40.7912 179.705 42.3513C180.024 50.001 179.632 57.6587 178.533 65.2257C176.276 81.4609 171.31 97.1834 163.841 111.74C161.257 116.926 158.079 121.793 154.371 126.241C150.196 131.336 144.734 135.22 138.543 137.495C131.36 139.84 123.535 139.372 116.643 136.186" fill="#FF698D"/>
</g>
<defs>
<filter id="filter0_d_28_4841" x="0.482422" y="0.968506" width="200.603" height="149" filterUnits="userSpaceOnUse" color-interpolation-filters="sRGB">
<feFlood flood-opacity="0" result="BackgroundImageFix"/>
<feColorMatrix in="SourceAlpha" type="matrix" values="0 0 0 0 0 0 0 0 0 0 0 0 0 0 0 0 0 0 127 0" result="hardAlpha"/>
<feOffset dy="4"/>
<feGaussianBlur stdDeviation="3.5"/>
<feComposite in2="hardAlpha" operator="out"/>
<feColorMatrix type="matrix" values="0 0 0 0 0 0 0 0 0 0 0 0 0 0 0 0 0 0 0.25 0"/>
<feBlend mode="normal" in2="BackgroundImageFix" result="effect1_dropShadow_28_4841"/>
<feBlend mode="normal" in="SourceGraphic" in2="effect1_dropShadow_28_4841" result="shape"/>
</filter>
</defs>
</svg>
