<svg width="24" height="24" viewBox="0 0 24 24" fill="none" xmlns="http://www.w3.org/2000/svg">
    <path
        d="M13.9794 2.57129C16.1989 2.57129 17.2519 2.77463 18.3455 3.3595C19.333 3.88761 20.1131 4.6677 20.6412 5.65517C21.2261 6.74879 21.4294 7.80178 21.4294 10.0213V13.9784C21.4294 16.1979 21.2261 17.2509 20.6412 18.3445C20.1131 19.332 19.333 20.1121 18.3455 20.6402C17.2519 21.2251 16.1989 21.4284 13.9794 21.4284H10.0223C7.80276 21.4284 6.74977 21.2251 5.65615 20.6402C4.66868 20.1121 3.88859 19.332 3.36048 18.3445C2.77561 17.2509 2.57227 16.1979 2.57227 13.9784V10.0213C2.57227 7.80178 2.77561 6.74879 3.36048 5.65517C3.88859 4.6677 4.66868 3.88761 5.65615 3.3595C6.74977 2.77463 7.80276 2.57129 10.0223 2.57129H13.9794ZM13.9794 4.28557H10.0223C8.06155 4.28557 7.27592 4.43729 6.4646 4.87118C5.77588 5.23952 5.24049 5.77491 4.87216 6.46363C4.43826 7.27494 4.28655 8.06058 4.28655 10.0213V13.9784C4.28655 15.9391 4.43826 16.7248 4.87216 17.5361C5.24049 18.2248 5.77588 18.7602 6.4646 19.1285C7.27592 19.5624 8.06155 19.7141 10.0223 19.7141H13.9794C15.9401 19.7141 16.7258 19.5624 17.5371 19.1285C18.2258 18.7602 18.7612 18.2248 19.1295 17.5361C19.5634 16.7248 19.7151 15.9391 19.7151 13.9784V10.0213C19.7151 8.06058 19.5634 7.27494 19.1295 6.46363C18.7612 5.77491 18.2258 5.23952 17.5371 4.87118C16.7258 4.43729 15.9401 4.28557 13.9794 4.28557ZM9.42941 12.857C10.3762 12.857 11.1437 13.6245 11.1437 14.5713C11.1437 15.5181 10.3762 16.2856 9.42941 16.2856C8.48263 16.2856 7.71512 15.5181 7.71512 14.5713C7.71512 13.6245 8.48263 12.857 9.42941 12.857ZM14.5723 12.857C15.519 12.857 16.2866 13.6245 16.2866 14.5713C16.2866 15.5181 15.519 16.2856 14.5723 16.2856C13.6255 16.2856 12.858 15.5181 12.858 14.5713C12.858 13.6245 13.6255 12.857 14.5723 12.857ZM9.42941 7.71415C10.3762 7.71415 11.1437 8.48166 11.1437 9.42843C11.1437 10.3752 10.3762 11.1427 9.42941 11.1427C8.48263 11.1427 7.71512 10.3752 7.71512 9.42843C7.71512 8.48166 8.48263 7.71415 9.42941 7.71415ZM14.5723 7.71415C15.519 7.71415 16.2866 8.48166 16.2866 9.42843C16.2866 10.3752 15.519 11.1427 14.5723 11.1427C13.6255 11.1427 12.858 10.3752 12.858 9.42843C12.858 8.48166 13.6255 7.71415 14.5723 7.71415Z"
        fill="#0077FF" />
</svg>