<svg width="24" height="24" viewBox="0 0 24 24" fill="none" xmlns="http://www.w3.org/2000/svg">
<path d="M15.0782 2.57129C16.9494 2.57129 17.8491 2.74504 18.784 3.24502C19.6318 3.69842 20.3023 4.36889 20.7557 5.21668C21.2557 6.15155 21.4294 7.05132 21.4294 8.92247V15.0772C21.4294 16.9484 21.2557 17.8482 20.7557 18.783C20.3023 19.6308 19.6318 20.3013 18.784 20.7547C17.8491 21.2547 16.9494 21.4284 15.0782 21.4284H8.92345C7.0523 21.4284 6.15253 21.2547 5.21765 20.7547C4.36987 20.3013 3.6994 19.6308 3.246 18.783C2.74602 17.8482 2.57227 16.9484 2.57227 15.0772V8.92247C2.57227 7.05132 2.74602 6.15155 3.246 5.21668C3.6994 4.36889 4.36987 3.69842 5.21765 3.24502C6.15253 2.74504 7.0523 2.57129 8.92345 2.57129H15.0782ZM15.0782 4.28557H8.92345C7.3111 4.28557 6.67868 4.4077 6.02611 4.7567C5.47707 5.05033 5.05131 5.47609 4.75768 6.02513C4.40868 6.6777 4.28655 7.31012 4.28655 8.92247V15.0772C4.28655 16.6896 4.40868 17.322 4.75768 17.9746C5.05131 18.5236 5.47707 18.9494 6.02611 19.243C6.67868 19.592 7.3111 19.7141 8.92345 19.7141H15.0782C16.6906 19.7141 17.323 19.592 17.9756 19.243C18.5246 18.9494 18.9504 18.5236 19.244 17.9746C19.593 17.322 19.7151 16.6896 19.7151 15.0772V8.92247C19.7151 7.31012 19.593 6.6777 19.244 6.02513C18.9504 5.47609 18.5246 5.05033 17.9756 4.7567C17.323 4.4077 16.6906 4.28557 15.0782 4.28557ZM11.1437 14.9999C11.6171 14.9999 12.0008 15.3836 12.0008 15.857C12.0008 16.3304 11.6171 16.7141 11.1437 16.7141H7.71512C7.24174 16.7141 6.85798 16.3304 6.85798 15.857C6.85798 15.3836 7.24174 14.9999 7.71512 14.9999H11.1437ZM16.2866 11.1427C16.7599 11.1427 17.1437 11.5265 17.1437 11.9999C17.1437 12.4732 16.7599 12.857 16.2866 12.857H7.71512C7.24174 12.857 6.85798 12.4732 6.85798 11.9999C6.85798 11.5265 7.24174 11.1427 7.71512 11.1427H16.2866ZM16.2866 7.28557C16.7599 7.28557 17.1437 7.66933 17.1437 8.14272C17.1437 8.6161 16.7599 8.99986 16.2866 8.99986H7.71512C7.24174 8.99986 6.85798 8.6161 6.85798 8.14272C6.85798 7.66933 7.24174 7.28557 7.71512 7.28557H16.2866Z" fill="#0077FF"/>
</svg>
