<svg width="24" height="24" viewBox="0 0 24 24" fill="none" xmlns="http://www.w3.org/2000/svg">
<path d="M15.4288 4.28613C20.8901 4.28613 23.1431 8.54196 23.1431 13.7147C23.1431 17.5557 22.0635 19.7147 19.7146 19.7147C18.7366 19.7147 18.0888 19.3023 17.3504 18.4347L17.2108 18.2667C17.132 18.1697 16.8234 17.7794 16.7458 17.6838L16.6115 17.5222C15.8589 16.6382 15.2335 16.2861 14.1431 16.2861H9.85742C8.76703 16.2861 8.14164 16.6382 7.38906 17.5222L7.25481 17.6838C7.17712 17.7794 6.86853 18.1697 6.78978 18.2667L6.65017 18.4347C5.9118 19.3023 5.26392 19.7147 4.28599 19.7147C1.93681 19.7147 0.857422 17.5559 0.857422 13.7147C0.857422 8.54196 3.11051 4.28613 8.57171 4.28613H15.4288ZM15.4288 6.00042H8.57171C4.35224 6.00042 2.57171 9.36364 2.57171 13.7147C2.57171 16.7306 3.2066 18.0004 4.28599 18.0004C4.64639 18.0004 4.91228 17.834 5.34696 17.3212L5.82455 16.7272L6.07542 16.4209C7.13226 15.1781 8.18106 14.5718 9.85742 14.5718H14.1431C15.8195 14.5718 16.8683 15.1781 17.9251 16.4209L18.0762 16.6028L18.6536 17.3212C19.0883 17.834 19.3542 18.0004 19.7146 18.0004C20.7938 18.0004 21.4288 16.7304 21.4288 13.7147C21.4288 9.36364 19.6483 6.00042 15.4288 6.00042ZM8.15365 8.14328C8.31755 8.14328 8.45202 8.1751 8.56377 8.23486C8.67551 8.29463 8.76321 8.38233 8.82298 8.49407C8.88274 8.60582 8.91456 8.74028 8.91456 8.90419L8.91371 9.94242L9.95365 9.94328C10.1176 9.94328 10.252 9.9751 10.3638 10.0349C10.4755 10.0946 10.5632 10.1823 10.623 10.2941C10.6827 10.4058 10.7146 10.5403 10.7146 10.7042V10.7252C10.7146 10.8891 10.6827 11.0236 10.623 11.1353C10.5632 11.2471 10.4755 11.3348 10.3638 11.3945C10.252 11.4543 10.1176 11.4861 9.95365 11.4861L8.91371 11.4853L8.91456 12.5252C8.91456 12.6891 8.88274 12.8236 8.82298 12.9353C8.76321 13.0471 8.67551 13.1348 8.56377 13.1945C8.45202 13.2543 8.31755 13.2861 8.15365 13.2861H8.13262C7.96872 13.2861 7.83425 13.2543 7.7225 13.1945C7.61076 13.1348 7.52306 13.0471 7.4633 12.9353C7.40353 12.8236 7.37171 12.6891 7.37171 12.5252L7.37085 11.4853L6.33262 11.4861C6.16872 11.4861 6.03425 11.4543 5.9225 11.3945C5.81076 11.3348 5.72306 11.2471 5.6633 11.1353C5.60353 11.0236 5.57171 10.8891 5.57171 10.7252V10.7042C5.57171 10.5403 5.60353 10.4058 5.6633 10.2941C5.72306 10.1823 5.81076 10.0946 5.9225 10.0349C6.03425 9.9751 6.16872 9.94328 6.33262 9.94328L7.37085 9.94242L7.37171 8.90419C7.37171 8.74028 7.40353 8.60582 7.4633 8.49407C7.52306 8.38233 7.61076 8.29463 7.7225 8.23486C7.83425 8.1751 7.96872 8.14328 8.13262 8.14328H8.15365ZM15.9205 11.5718C16.1242 11.5718 16.252 11.6037 16.3638 11.6634C16.4755 11.7232 16.5632 11.8109 16.623 11.9226C16.6827 12.0344 16.7146 12.1622 16.7146 12.3659V12.4921C16.7146 12.6957 16.6827 12.8236 16.623 12.9353C16.5632 13.0471 16.4755 13.1348 16.3638 13.1945C16.252 13.2543 16.1242 13.2861 15.9205 13.2861H15.7943C15.5907 13.2861 15.4628 13.2543 15.3511 13.1945C15.2393 13.1348 15.1516 13.0471 15.0919 12.9353C15.0321 12.8236 15.0003 12.6957 15.0003 12.4921V12.3659C15.0003 12.1622 15.0321 12.0344 15.0919 11.9226C15.1516 11.8109 15.2393 11.7232 15.3511 11.6634C15.4628 11.6037 15.5907 11.5718 15.7943 11.5718H15.9205ZM14.2062 9.85756C14.4099 9.85756 14.5377 9.88939 14.6495 9.94915C14.7612 10.0089 14.8489 10.0966 14.9087 10.2084C14.9685 10.3201 15.0003 10.4479 15.0003 10.6516V10.7778C15.0003 10.9815 14.9685 11.1093 14.9087 11.2211C14.8489 11.3328 14.7612 11.4205 14.6495 11.4803C14.5377 11.54 14.4099 11.5718 14.2062 11.5718H14.08C13.8764 11.5718 13.7485 11.54 13.6368 11.4803C13.525 11.4205 13.4373 11.3328 13.3776 11.2211C13.3178 11.1093 13.286 10.9815 13.286 10.7778V10.6516C13.286 10.4479 13.3178 10.3201 13.3776 10.2084C13.4373 10.0966 13.525 10.0089 13.6368 9.94915C13.7485 9.88939 13.8764 9.85756 14.08 9.85756H14.2062ZM17.6348 9.85756C17.8385 9.85756 17.9663 9.88939 18.0781 9.94915C18.1898 10.0089 18.2775 10.0966 18.3373 10.2084C18.397 10.3201 18.4289 10.4479 18.4289 10.6516V10.7778C18.4289 10.9815 18.397 11.1093 18.3373 11.2211C18.2775 11.3328 18.1898 11.4205 18.0781 11.4803C17.9663 11.54 17.8385 11.5718 17.6348 11.5718H17.5086C17.3049 11.5718 17.1771 11.54 17.0654 11.4803C16.9536 11.4205 16.8659 11.3328 16.8062 11.2211C16.7464 11.1093 16.7146 10.9815 16.7146 10.7778V10.6516C16.7146 10.4479 16.7464 10.3201 16.8062 10.2084C16.8659 10.0966 16.9536 10.0089 17.0654 9.94915C17.1771 9.88939 17.3049 9.85756 17.5086 9.85756H17.6348ZM15.9205 8.14328C16.1242 8.14328 16.252 8.1751 16.3638 8.23486C16.4755 8.29463 16.5632 8.38233 16.623 8.49407C16.6827 8.60582 16.7146 8.73366 16.7146 8.93732V9.06352C16.7146 9.26718 16.6827 9.39502 16.623 9.50677C16.5632 9.61851 16.4755 9.70621 16.3638 9.76597C16.252 9.82573 16.1242 9.85756 15.9205 9.85756H15.7943C15.5907 9.85756 15.4628 9.82573 15.3511 9.76597C15.2393 9.70621 15.1516 9.61851 15.0919 9.50677C15.0321 9.39502 15.0003 9.26718 15.0003 9.06352V8.93732C15.0003 8.73366 15.0321 8.60582 15.0919 8.49407C15.1516 8.38233 15.2393 8.29463 15.3511 8.23486C15.4628 8.1751 15.5907 8.14328 15.7943 8.14328H15.9205Z" fill="#0077FF"/>
</svg>
