<svg width="24" height="24" viewBox="0 0 24 24" fill="none" xmlns="http://www.w3.org/2000/svg">
<path d="M12.0006 1.71387C17.6783 1.71387 22.2863 6.32187 22.2863 11.9996C22.2863 17.6773 17.6783 22.2853 12.0006 22.2853C6.32284 22.2853 1.71484 17.6773 1.71484 11.9996C1.71484 6.32187 6.32284 1.71387 12.0006 1.71387ZM12.0006 3.42815C7.26961 3.42815 3.42913 7.26863 3.42913 11.9996C3.42913 16.7305 7.26961 20.571 12.0006 20.571C16.7315 20.571 20.572 16.7305 20.572 11.9996C20.572 7.26863 16.7315 3.42815 12.0006 3.42815ZM12.0006 15.5142C12.6633 15.5142 13.2006 16.0515 13.2006 16.7142C13.2006 17.377 12.6633 17.9142 12.0006 17.9142C11.3378 17.9142 10.8006 17.377 10.8006 16.7142C10.8006 16.0515 11.3378 15.5142 12.0006 15.5142ZM11.944 5.99101C13.7018 5.99101 15.1256 7.4294 15.1256 9.2053C15.1256 9.91244 14.8392 10.5553 14.3858 11.0133L13.67 11.7526C13.2443 12.1887 12.9372 12.5671 12.8077 13.2277C12.796 13.2873 12.7874 13.3759 12.782 13.4934C12.7623 13.9168 12.4134 14.25 11.9895 14.25H11.9816C11.5421 14.25 11.1858 13.8937 11.1858 13.4542L11.1858 13.4521C11.1864 13.2291 11.1933 13.0831 11.2066 13.0139C11.3296 12.3735 11.6418 11.7989 12.0792 11.3508L13.0655 10.3383C13.3477 10.0543 13.5348 9.64726 13.5348 9.2053C13.5348 8.32137 12.8189 7.59815 11.944 7.59815C11.388 7.59815 10.8963 7.89016 10.6117 8.32986C10.5554 8.41684 10.4845 8.55547 10.3992 8.74575C10.2311 9.12061 9.80526 9.30589 9.41639 9.17336L9.38591 9.16297C8.98904 9.02771 8.77695 8.59634 8.91221 8.19947C8.91716 8.18496 8.92254 8.1706 8.92833 8.1564C8.985 8.01818 9.03941 7.896 9.09158 7.78987C9.63792 6.67848 10.6666 5.99101 11.944 5.99101Z" fill="#0077FF"/>
</svg>
