<svg width="24" height="24" viewBox="0 0 24 24" fill="none" xmlns="http://www.w3.org/2000/svg">
<path fill-rule="evenodd" clip-rule="evenodd" d="M8.4113 2.50009H15.5887C16.1155 2.49943 16.579 2.49886 17.0107 2.63849C17.3891 2.76086 17.7377 2.96107 18.0341 3.22624C18.3722 3.52878 18.6053 3.92949 18.8701 4.38483L21.0283 8.08471C21.1114 8.22704 21.1847 8.35253 21.2455 8.48654C21.3727 8.76707 21.4536 9.06636 21.4851 9.37278C21.5001 9.51917 21.5001 9.66449 21.5 9.82931L21.5 9.86268C21.5 11.5678 20.1177 12.9501 18.4125 12.9501C17.5829 12.9501 16.8297 12.623 16.275 12.0906C15.7202 12.623 14.9671 12.9501 14.1375 12.9501C13.3079 12.9501 12.5547 12.623 12 12.0906C11.4453 12.623 10.6921 12.9501 9.8625 12.9501C9.03292 12.9501 8.27976 12.623 7.72501 12.0906C7.17026 12.623 6.41709 12.9501 5.58751 12.9501C3.88234 12.9501 2.50002 11.5678 2.50002 9.86268L2.50001 9.82935C2.49994 9.66451 2.49988 9.51918 2.51491 9.37278C2.54636 9.06636 2.62727 8.76707 2.75451 8.48654C2.81529 8.35252 2.88857 8.22701 2.97169 8.08466L5.12986 4.38483C5.39472 3.92949 5.6278 3.52878 5.96594 3.22624C6.2623 2.96107 6.61088 2.76086 6.98925 2.63849C7.42096 2.49886 7.88453 2.49943 8.4113 2.50009ZM19.595 9.56675C19.5988 9.60402 19.6 9.64651 19.6 9.86268C19.6 10.5185 19.0683 11.0502 18.4125 11.0502C17.7567 11.0502 17.225 10.5185 17.225 9.86268C17.225 9.33802 16.7997 8.9127 16.275 8.9127C15.7503 8.9127 15.325 9.33802 15.325 9.86268C15.325 10.5185 14.7933 11.0502 14.1375 11.0502C13.4817 11.0502 12.95 10.5185 12.95 9.86268C12.95 9.33802 12.5247 8.9127 12 8.9127C11.4753 8.9127 11.05 9.33802 11.05 9.86268C11.05 10.5185 10.5183 11.0502 9.8625 11.0502C9.20667 11.0502 8.67501 10.5185 8.67501 9.86268C8.67501 9.33802 8.24968 8.9127 7.72501 8.9127C7.20034 8.9127 6.77501 9.33802 6.77501 9.86268C6.77501 10.5185 6.24335 11.0502 5.58751 11.0502C4.93167 11.0502 4.40001 10.5185 4.40001 9.86268C4.40001 9.64651 4.40115 9.60402 4.40498 9.56675C4.41546 9.46461 4.44243 9.36484 4.48484 9.27134C4.50032 9.23721 4.52075 9.19994 4.62967 9.01321L6.7158 5.43704C7.06851 4.8324 7.1477 4.71836 7.23285 4.64217C7.33164 4.55378 7.44783 4.48705 7.57396 4.44625C7.68267 4.41109 7.82109 4.40015 8.52109 4.40015H15.4789C16.1789 4.40015 16.3173 4.41109 16.426 4.44625C16.5522 4.48705 16.6684 4.55378 16.7671 4.64217C16.8523 4.71836 16.9315 4.8324 17.2842 5.43704L19.3703 9.01321C19.4793 9.19994 19.4997 9.23721 19.5152 9.27134C19.5576 9.36484 19.5845 9.46461 19.595 9.56675Z" fill="#0077FF"/>
<path d="M7.24999 15.8001C7.24999 15.2754 6.82466 14.8501 6.29999 14.8501C5.77532 14.8501 5.34999 15.2754 5.34999 15.8001V19.6H3.45C2.92533 19.6 2.5 20.0254 2.5 20.55C2.5 21.0747 2.92533 21.5 3.45 21.5H20.55C21.0746 21.5 21.5 21.0747 21.5 20.55C21.5 20.0254 21.0746 19.6 20.55 19.6H18.65V15.8001C18.65 15.2754 18.2246 14.8501 17.7 14.8501C17.1753 14.8501 16.75 15.2754 16.75 15.8001V19.6H7.24999V15.8001Z" fill="#0077FF"/>
</svg>
