<svg width="22" height="16" viewBox="0 0 22 16" fill="none" xmlns="http://www.w3.org/2000/svg">
<path d="M21.4598 2.63229C21.367 1.79358 20.6249 1.16454 19.6972 1.08067C13.8991 0.703253 8.10098 0.703253 2.30289 1.08067C1.37519 1.12261 0.679422 1.79358 0.540268 2.63229C0.076421 6.1968 0.076421 9.76132 0.540268 13.3258C0.633038 14.1645 1.37519 14.7936 2.30289 14.8774C8.10098 15.2549 13.8991 15.2549 19.6972 14.8774C20.6249 14.8355 21.3206 14.1645 21.4598 13.3258C21.9236 9.80325 21.9236 6.1968 21.4598 2.63229ZM14.4093 7.95809L9.16783 10.6839C8.98229 10.7678 8.75036 10.642 8.75036 10.4742V5.02261C8.75036 4.81293 8.98229 4.68712 9.16783 4.81293L14.4093 7.4968C14.6412 7.58067 14.6412 7.83228 14.4093 7.95809Z" fill="#2B2A29"/>
</svg>
