<svg width="27" height="15" viewBox="0 0 27 15" fill="none" xmlns="http://www.w3.org/2000/svg">
<path d="M1.44349 1.46593C2.58947 1.46593 4.97691 1.46593 5.78865 1.46593C5.97964 1.46593 6.12289 1.55947 6.17064 1.6998C7.17337 3.85141 8.41484 5.76915 9.84731 7.45302C9.99056 7.64012 10.2771 7.64012 10.3725 7.40625C10.85 6.33044 11.6618 3.66431 10.0383 1.74657C9.89506 1.55947 9.94281 1.3256 10.1816 1.23205C11.8528 0.530441 13.4762 0.436893 15.0519 1.13851C15.3862 1.27883 15.6249 1.60625 15.6249 1.98044L16.0069 7.4998C16.0069 7.73367 16.2457 7.92076 16.4844 7.87399C18.2989 7.4998 19.3971 4.83367 20.4476 2.02722C20.5908 1.6998 20.9251 1.46593 21.3071 1.46593H25.318C25.6522 1.46593 25.891 1.74657 25.8432 2.07399C25.4612 4.03851 23.408 6.61109 22.3575 7.87399C21.9755 8.29496 21.9755 8.90302 22.3575 9.37076L25.9387 13.5804C26.1775 13.8611 25.9865 14.3288 25.5567 14.3288H21.0206C20.6386 14.3288 20.3043 14.1885 20.0178 13.9079L16.8187 11.3353C16.6754 11.1482 16.3412 11.1014 16.1979 11.2885C15.8159 11.7562 15.8159 12.3175 15.6249 13.674C15.5772 14.095 15.1952 14.3756 14.7655 14.3756H11.6618C11.232 14.3756 10.8023 14.2821 10.3725 14.095C8.60584 13.253 3.68769 10.3062 0.966001 2.12076C0.918252 1.74657 1.10925 1.46593 1.44349 1.46593Z" fill="#2B2A29"/>
</svg>
