<svg width="12" height="9" viewBox="0 0 12 9" fill="none" xmlns="http://www.w3.org/2000/svg">
<path d="M11.3494 1.00421C10.9519 1.18942 10.4484 1.36326 9.99716 1.42105C10.456 1.13495 11.184 0.539053 11.3494 0C10.9208 0.264789 10.1455 0.547579 9.63971 0.649895C9.23583 0.199895 8.65976 0 8.02149 0C6.79543 0 5.94034 1.09184 5.94034 2.36842V3.31579C4.13731 3.31579 2.37936 1.87247 1.28537 0.473684C1.08756 0.82624 0.983704 1.22825 0.984712 1.63753C0.984712 2.49916 1.73793 3.37358 2.33428 3.78947C1.97052 3.77763 1.28176 3.48584 0.982008 3.31579V3.34279C0.982008 4.464 1.73072 5.22521 2.74537 5.43742C2.56011 5.49095 2.33428 5.68421 1.46522 5.68421C1.74739 6.60079 3.16593 7.08537 4.13731 7.10526C3.37733 7.72437 2.02236 8.05263 0.982008 8.05263C0.802155 8.05263 0.704792 8.06305 0.53125 8.04174C1.513 8.69542 2.8842 9 4.13731 9C8.21982 9 10.4479 5.72305 10.4479 2.66684C10.4479 2.56642 10.4448 2.23011 10.4398 2.13158C10.8761 1.80853 11.0528 1.47032 11.3494 1.00421Z" fill="#313131"/>
</svg>
