<svg width="12" height="10" viewBox="0 0 12 10" fill="none" xmlns="http://www.w3.org/2000/svg">
<path d="M2.90637 3.31507H0.628241V9.98655H2.90637V3.31507Z" fill="#313131"/>
<path d="M2.52337 0.201635C2.30625 0.0701661 2.05109 3.99915e-06 1.79008 1.70346e-10C1.61593 -2.66581e-06 1.44349 0.0312427 1.28268 0.0919395C1.12187 0.152636 0.975875 0.241586 0.85308 0.353675C0.730285 0.465763 0.633117 0.598778 0.567163 0.74507C0.501209 0.891361 0.467771 1.04804 0.468772 1.2061C0.470272 1.44299 0.549039 1.67416 0.695136 1.87046C0.841232 2.06677 1.04811 2.2194 1.28968 2.30911C1.53125 2.39882 1.79668 2.42158 2.05248 2.37454C2.30829 2.32749 2.54301 2.21274 2.72704 2.04475C2.91107 1.87677 3.03616 1.66308 3.08654 1.43064C3.13691 1.19821 3.1103 0.957443 3.01007 0.738716C2.90985 0.51999 2.74049 0.333104 2.52337 0.201635Z" fill="#313131"/>
<path d="M6.56319 3.31473H4.36859L4.361 10H6.63912V6.69872C6.63912 5.83032 6.82137 4.98949 8.006 4.98949C9.19062 4.98949 9.19063 5.98884 9.19063 6.76074V9.98622H11.4688V6.32655C11.4688 4.52773 11.0055 3.14932 8.72741 3.14932C8.29321 3.1339 7.86255 3.22577 7.48139 3.41512C7.10023 3.60448 6.78287 3.88422 6.56319 4.22448V3.31473Z" fill="#313131"/>
</svg>
