<svg width="135" height="35" viewBox="0 0 135 35" fill="none" xmlns="http://www.w3.org/2000/svg">
<g clip-path="url(#clip0_28_4706)">
<path fill-rule="evenodd" clip-rule="evenodd" d="M43.1436 26.8689L44.8266 22.9581C46.6444 24.3174 49.0664 25.0241 51.4561 25.0241C53.22 25.0241 54.3366 24.3444 54.3366 23.3141C54.3096 20.4336 43.7693 22.6884 43.6884 15.4655C43.6614 11.7974 46.9195 8.97083 51.537 8.97083C54.2826 8.97083 57.0229 9.6505 58.981 11.1986L57.4059 15.1904C55.615 14.0468 53.3872 13.2323 51.2673 13.2323C49.827 13.2323 48.8776 13.9119 48.8776 14.7804C48.9046 17.607 59.5258 16.0589 59.6337 22.9581C59.6337 26.7071 56.4565 29.3449 51.893 29.3449C48.5486 29.3395 45.4793 28.5519 43.1436 26.8689ZM107.772 21.5448C106.93 23.012 105.355 24.0153 103.532 24.0153C100.84 24.0153 98.6718 21.8415 98.6718 19.1551C98.6718 16.4688 100.846 14.2949 103.532 14.2949C105.35 14.2949 106.93 15.2983 107.772 16.7655L112.416 14.1871C110.679 11.0908 107.335 8.97083 103.532 8.97083C97.9058 8.97083 93.3423 13.5344 93.3423 19.1605C93.3423 24.7867 97.9058 29.3502 103.532 29.3502C107.362 29.3502 110.679 27.2573 112.416 24.134L107.772 21.5448ZM61.9694 0.518066H67.7844V28.9619H61.9694V0.518066ZM114.698 0.518066V28.9619H120.513V20.4282L127.412 28.9619H134.856L126.08 18.8261L134.204 9.37H127.083L120.508 17.2186V0.518066H114.698Z" fill="#B7C0CC"/>
<path d="M85.0615 21.5986C84.22 22.9849 82.4831 24.0152 80.525 24.0152C77.8333 24.0152 75.6648 21.8414 75.6648 19.155C75.6648 16.4687 77.8387 14.2948 80.525 14.2948C82.4831 14.2948 84.22 15.3791 85.0615 16.7924V21.5986ZM85.0615 9.37529V11.684C84.1122 10.0819 81.7495 8.96533 79.2735 8.96533C74.1652 8.96533 70.1465 13.4749 70.1465 19.1281C70.1465 24.7812 74.1652 29.3447 79.2735 29.3447C81.7441 29.3447 84.1068 28.2335 85.0615 26.6261V28.9348H90.8765V9.37529H85.0615Z" fill="#B7C0CC"/>
<path fill-rule="evenodd" clip-rule="evenodd" d="M7.20167 21.5715C7.20167 23.5566 5.59959 25.1587 3.61451 25.1587C1.62943 25.1587 0.0273438 23.5512 0.0273438 21.5715C0.0273438 19.5919 1.62943 17.9844 3.61451 17.9844H7.20167V21.5715ZM8.99256 21.5715C8.99256 19.5865 10.5946 17.9844 12.5797 17.9844C14.5648 17.9844 16.1669 19.5865 16.1669 21.5715V30.5368C16.1669 32.5219 14.5648 34.1239 12.5797 34.1239C10.5946 34.1239 8.99256 32.5219 8.99256 30.5368V21.5715Z" fill="#B7C0CC"/>
<path fill-rule="evenodd" clip-rule="evenodd" d="M12.5794 7.17433C10.5943 7.17433 8.99219 5.57224 8.99219 3.58716C8.99219 1.60209 10.5943 0 12.5794 0C14.5644 0 16.1665 1.60209 16.1665 3.58716V7.17433H12.5794ZM12.5794 8.99219C14.5644 8.99219 16.1665 10.5943 16.1665 12.5794C16.1665 14.5644 14.5644 16.1665 12.5794 16.1665H3.58717C1.60209 16.1665 0 14.559 0 12.5794C0 10.5997 1.60209 8.99219 3.58717 8.99219H12.5794Z" fill="#B7C0CC"/>
<path fill-rule="evenodd" clip-rule="evenodd" d="M26.9496 12.5794C26.9496 10.5943 28.5517 8.99219 30.5368 8.99219C32.5218 8.99219 34.1239 10.5943 34.1239 12.5794C34.1239 14.5644 32.5218 16.1665 30.5368 16.1665H26.9496V12.5794ZM25.1587 12.5794C25.1587 14.5644 23.5566 16.1665 21.5715 16.1665C19.5865 16.1665 17.9844 14.5644 17.9844 12.5794V3.58716C17.9844 1.60209 19.5865 0 21.5715 0C23.5566 0 25.1587 1.60209 25.1587 3.58716V12.5794Z" fill="#B7C0CC"/>
<path fill-rule="evenodd" clip-rule="evenodd" d="M21.5715 26.9496C23.5566 26.9496 25.1587 28.5517 25.1587 30.5368C25.1587 32.5219 23.5566 34.1239 21.5715 34.1239C19.5865 34.1239 17.9844 32.5219 17.9844 30.5368V26.9496H21.5715ZM21.5715 25.1587C19.5865 25.1587 17.9844 23.5566 17.9844 21.5715C17.9844 19.5865 19.5865 17.9844 21.5715 17.9844H30.5637C32.5488 17.9844 34.1509 19.5865 34.1509 21.5715C34.1509 23.5566 32.5488 25.1587 30.5637 25.1587H21.5715Z" fill="#B7C0CC"/>
</g>
<defs>
<clipPath id="clip0_28_4706">
<rect width="134.856" height="34.1239" fill="white"/>
</clipPath>
</defs>
</svg>
