<svg width="169" height="48" viewBox="0 0 169 48" fill="none" xmlns="http://www.w3.org/2000/svg">
<path fill-rule="evenodd" clip-rule="evenodd" d="M7.84375 7.85547H23.3453L23.3441 23.2161H7.84375V7.85547Z" fill="#F1511B"/>
<path fill-rule="evenodd" clip-rule="evenodd" d="M24.928 7.85547H40.4295C40.4295 12.9757 40.4304 18.0959 40.4286 23.2161C35.2623 23.2152 30.0951 23.2161 24.9289 23.2161C24.9271 18.0959 24.928 12.9757 24.928 7.85547Z" fill="#80CC28"/>
<path fill-rule="evenodd" clip-rule="evenodd" d="M147.633 13.7084C149.062 12.7868 150.909 12.7007 152.519 13.1399C152.533 14.0886 152.521 15.0378 152.525 15.9868C151.76 15.6531 150.86 15.4353 150.055 15.7627C149.416 16.0139 149.036 16.6634 148.936 17.3126C148.816 18.1365 148.894 18.9713 148.874 19.7999C150.509 19.8035 152.144 19.8008 153.779 19.8017C153.791 18.7499 153.766 17.6973 153.793 16.6455C154.904 16.3324 156.004 15.9805 157.11 15.6504C157.119 17.0358 157.097 18.4225 157.122 19.8091C158.227 19.7933 159.333 19.8056 160.439 19.8017V22.4996C159.329 22.454 158.219 22.4871 157.109 22.4835C157.114 24.0346 157.11 25.5854 157.111 27.1368C157.128 27.9958 157.064 28.8592 157.166 29.7155C157.227 30.2203 157.413 30.7795 157.89 31.0405C158.69 31.4841 159.705 31.2905 160.439 30.8033V33.5275C159.481 33.9398 158.41 34.0655 157.374 33.9925C156.391 33.9204 155.373 33.5665 154.731 32.7912C153.99 31.9159 153.799 30.7303 153.784 29.6214C153.776 27.2414 153.785 24.8611 153.781 22.4799C152.145 22.4787 150.509 22.4781 148.874 22.4808C148.872 26.2162 148.873 29.9518 148.873 33.6875H145.52C145.52 29.9524 145.516 26.2191 145.522 22.4847C144.745 22.4698 143.966 22.4883 143.189 22.4725C143.192 21.5861 143.195 20.6985 143.187 19.8109C143.961 19.7933 144.736 19.8008 145.511 19.8064C145.568 18.6272 145.387 17.4142 145.742 16.2657C146.043 15.2288 146.711 14.2932 147.633 13.7084ZM75.8529 13.902C76.5288 13.8004 77.2604 14.0293 77.7084 14.5534C78.2337 15.1272 78.3305 16.0404 77.9411 16.7114C77.5109 17.4676 76.5484 17.8191 75.7095 17.6377C74.839 17.4828 74.1138 16.6807 74.1526 15.7869C74.1276 14.8459 74.9217 14.0072 75.8529 13.9017V13.902ZM50.1592 14.3135H55.0351C56.5526 18.1323 58.0812 21.9466 59.6009 25.7651C59.9891 26.7203 60.3523 27.6859 60.7591 28.6334C62.7114 23.8621 64.6917 19.1027 66.629 14.3245C68.1925 14.2995 69.7563 14.3189 71.3205 14.3153C71.3169 20.7724 71.3187 27.2292 71.3199 33.6863C70.1914 33.6836 69.0639 33.6958 67.9363 33.6797C67.9483 28.915 67.9354 24.1499 67.942 19.384C67.9438 19.1697 67.9363 18.9555 67.9213 18.7419C67.8551 18.8414 67.7968 18.9448 67.7457 19.052C65.8078 23.9291 63.8332 28.7928 61.9071 33.6749C61.1046 33.7038 60.3012 33.677 59.4974 33.6895C57.4988 28.8125 55.5249 23.9238 53.5362 19.0425C53.4839 18.9409 53.4282 18.8423 53.3675 18.7475C53.3266 20.835 53.3612 22.9244 53.3501 25.0125C53.3507 27.9037 53.3483 30.795 53.3507 33.6863C52.2869 33.6889 51.2227 33.6863 50.1592 33.6875C50.1583 27.2292 50.1574 20.7712 50.1592 14.3135ZM85.0796 19.7889C86.6972 19.3321 88.4424 19.3506 90.0594 19.8035C90.3929 19.8958 90.7155 20.0239 91.0159 20.1985C90.9969 21.2565 91.0159 22.3157 91.0054 23.3749C89.9241 22.5565 88.553 22.0381 87.1789 22.2097C86.0874 22.3074 85.0468 22.8684 84.3943 23.742C83.5551 24.825 83.3615 26.2632 83.5061 27.5882C83.614 28.6251 84.0467 29.6613 84.8607 30.3487C85.7059 31.0929 86.8909 31.3566 87.9971 31.2738C89.0903 31.1492 90.122 30.6904 91.0054 30.0501C91.0147 31.053 91.0005 32.0559 91.0129 33.0588C89.6421 33.8671 87.9992 34.0754 86.4302 33.9994C84.8252 33.9151 83.2247 33.3126 82.0628 32.1944C80.8003 30.9887 80.115 29.2689 80.0339 27.5468C79.9521 25.7558 80.3198 23.8877 81.3599 22.3923C82.2312 21.1162 83.5945 20.2131 85.0796 19.7889ZM121.701 19.5776C123.251 19.3071 124.874 19.5055 126.341 20.0564C126.343 21.0751 126.341 22.0923 126.342 23.1101C125.317 22.4117 124.065 22.036 122.821 22.0795C122.195 22.1036 121.506 22.3667 121.22 22.9569C120.992 23.5409 121.15 24.3066 121.706 24.6564C122.656 25.2866 123.79 25.5541 124.775 26.1184C125.551 26.5505 126.303 27.1148 126.696 27.9287C127.434 29.4527 127.122 31.4669 125.823 32.6035C124.585 33.7509 122.8 34.0682 121.158 34.0074C119.993 33.9327 118.822 33.7047 117.75 33.2322C117.755 32.1614 117.743 31.0911 117.755 30.0209C118.657 30.6696 119.696 31.1335 120.797 31.3218C121.563 31.4451 122.397 31.4511 123.111 31.1114C123.794 30.7747 123.917 29.8124 123.511 29.2236C123.131 28.7699 122.573 28.5202 122.048 28.2747C121.06 27.8346 120.022 27.4663 119.154 26.807C118.544 26.3353 118.082 25.6712 117.902 24.9219C117.634 23.8177 117.717 22.5732 118.365 21.6081C119.105 20.4834 120.391 19.8091 121.701 19.5776ZM98.5121 20.015C99.4373 19.4641 100.613 19.4179 101.624 19.7549C101.619 20.863 101.624 21.9704 101.621 23.0785C100.96 22.6545 100.135 22.4725 99.3549 22.5511C98.403 22.6581 97.6489 23.3821 97.2583 24.2128C96.8334 25.0917 96.7534 26.086 96.7802 27.0474C96.7802 29.2606 96.7814 31.474 96.7802 33.6875H93.4751C93.4724 29.0615 93.479 24.435 93.4724 19.8091C94.5756 19.7951 95.6791 19.8008 96.7823 19.8061C96.7778 20.6008 96.7823 21.3948 96.7796 22.1903C97.138 21.326 97.6714 20.4864 98.5121 20.0147V20.015ZM74.4572 19.8061C75.5688 19.8017 76.6816 19.791 77.7929 19.8118C77.78 24.4371 77.7923 29.0624 77.7875 33.6875H74.459C74.4562 29.0606 74.4602 24.4338 74.4572 19.8064V19.8061ZM107.793 19.5499C109.402 19.347 111.099 19.4376 112.593 20.1109C113.889 20.6902 114.939 21.7613 115.521 23.0439C116.142 24.4085 116.293 25.9423 116.188 27.4231C116.084 28.8685 115.626 30.3171 114.714 31.4657C113.78 32.6855 112.373 33.512 110.865 33.8191C109.576 34.0849 108.228 34.0837 106.94 33.8156C105.398 33.4887 103.971 32.6023 103.067 31.3125C102.005 29.818 101.704 27.9177 101.839 26.1268C101.93 24.6073 102.407 23.0758 103.386 21.884C104.459 20.5489 106.104 19.7612 107.793 19.5499ZM108.793 22.1867C107.992 22.2308 107.182 22.4996 106.588 23.049C105.768 23.7846 105.394 24.8805 105.293 25.9459C105.181 27.1177 105.262 28.353 105.802 29.4212C106.222 30.2506 106.994 30.9023 107.903 31.1391C108.797 31.3688 109.77 31.3495 110.636 31.0199C111.376 30.7342 111.962 30.1306 112.283 29.4167C112.767 28.3575 112.815 27.1666 112.755 26.0237C112.672 24.9788 112.373 23.8841 111.597 23.1294C110.873 22.4033 109.801 22.1212 108.793 22.1867ZM134.515 19.5451C136.188 19.3399 137.964 19.451 139.491 20.2152C140.823 20.8749 141.855 22.067 142.37 23.445C142.774 24.4994 142.916 25.6378 142.892 26.7605C142.895 28.4376 142.438 30.1592 141.375 31.4895C140.381 32.7775 138.86 33.6145 137.254 33.8772C135.683 34.129 134.024 34.0638 132.532 33.4816C131.02 32.8922 129.763 31.6888 129.126 30.2071C128.462 28.6972 128.392 26.9977 128.599 25.3843C128.816 23.7703 129.553 22.193 130.81 21.1201C131.84 20.2245 133.166 19.7171 134.515 19.5451ZM135.42 22.1894C134.492 22.241 133.573 22.6369 132.973 23.3526C132.316 24.1195 132.033 25.1313 131.957 26.1175C131.878 27.1359 131.957 28.1906 132.354 29.1426C132.685 29.9417 133.313 30.6362 134.122 30.9758C134.873 31.2961 135.719 31.353 136.521 31.2342C137.269 31.1251 137.993 30.7712 138.48 30.1899C138.963 29.6115 139.218 28.8825 139.346 28.1519C139.509 27.1711 139.511 26.161 139.319 25.185C139.149 24.3528 138.777 23.5263 138.106 22.9745C137.378 22.3408 136.367 22.1242 135.42 22.1894Z" fill="#282C4B"/>
<path fill-rule="evenodd" clip-rule="evenodd" d="M7.84375 24.7832C13.0109 24.785 18.1781 24.7826 23.3453 24.785C23.3462 29.9052 23.3453 35.0245 23.3453 40.1447H7.84375V24.7832Z" fill="#00ADEF"/>
<path fill-rule="evenodd" clip-rule="evenodd" d="M24.9296 24.7853C30.0959 24.7835 35.2631 24.7844 40.4302 24.7844V40.145H24.9287C24.9296 35.0248 24.9278 29.9046 24.9296 24.7853Z" fill="#FBBC09"/>
</svg>
