<svg xmlns="http://www.w3.org/2000/svg" fill="none" viewBox="0 0 17 16"><g clip-path="url(#a)"><path fill="#fff" fill-opacity=".5" d="M7.56 4.49c.07-.34.02-.18-.47-.88-.43-.64-.34-1.54-.86-1.99-.31-.27-.7-.58-2.19.16-.5.26-1.53 1.1-2.7 1.5-.93.3-.4.68-.2.75.7.25 1.63-.28 1.63-.28s-1.34.87-.55 1.08c.64.17 1.45-.6 1.45-.6s-.8.84-.15 1.05c.45.15 1.33-.7 1.33-.7s-.62.86-.32 1.05c.45.27 1.2-.44 1.2-.44s-.6.86-.29 1c.46.21 1.14-.38 1.14-.38s.84-.72.98-1.32Z"/><path fill="#BDBDBD" d="M4.96 1.72s-.8.47-1.1.85c-.04.05-.28.3-.07.43.06.04.22.01.31-.04.44-.27 1.2-.89 1.28-.86.09.04-.68.54-.93 1.15-.09.23.09.4.56.12.5-.3.95-.83 1.02-.82 0 0-.2.35-.47.64-.26.28-.45.58-.25.67.24.12.78-.2.78-.2s-.34.41-.79.5c-.15.04-.27.02-.35-.06-.11-.13-.07-.33-.07-.33-.24.09-.64.24-.88.04-.2-.16.06-.63.06-.63s-.45.25-.71.17c-.14-.04-.34-.23-.04-.64.47-.65 1.65-.99 1.65-.99Zm.96 4.55L7.5 4.23l-.05-.19c-.02-.07-.23-.08-.51.09-.19.1-.54.5-.76.28-.16-.15.29-.68.29-.68-.06 0-.56.33-.64.66-.06.28 0 .61.64.29l.05-.03a6.32 6.32 0 0 0-.6 1.62Z"/><path fill="url(#b)" d="M10.67 1.4h.01Z"/><path fill="#66BB6A" d="M11.4 8.85c-1.27 1.89-2.32 3.96-4.72 4.6-.03 0-.06 0-.07-.02L2.68 9.09a.24.24 0 0 1 .1-.38c1.62-.53 2.63-1.8 3.53-3.14C7.54 3.72 8.6 1.67 10.93 1c.09-.04.2-.02.26.06.52.57 4.45 4.32 4.46 4.32 0 0-3.3 2.02-4.26 3.46Z"/><path fill="#fff" d="M7.76 9.71a.4.4 0 0 0-.3-.12c-.12 0-.27.05-.46.14-.26.14-.48.2-.66.2a.73.73 0 0 1-.5-.24.75.75 0 0 1-.24-.5.8.8 0 0 1 .19-.54l-.24-.24a.1.1 0 0 1 0-.13l.08-.08a.1.1 0 0 1 .12 0l.24.24a.76.76 0 0 1 .56-.16c.18.02.35.1.52.26.03.03.03.08 0 .11l-.14.15a.08.08 0 0 1-.11 0 .64.64 0 0 0-.35-.17.43.43 0 0 0-.37.14c-.1.1-.16.22-.16.33 0 .12.04.23.15.33.09.1.2.14.31.13.12 0 .27-.05.46-.15.19-.1.35-.15.48-.18a.76.76 0 0 1 .37.02c.1.04.21.1.3.2.16.16.24.33.24.52s-.07.38-.22.56l.2.2a.1.1 0 0 1 0 .13l-.08.08a.1.1 0 0 1-.13 0l-.2-.2a.85.85 0 0 1-.59.21.84.84 0 0 1-.52-.23.08.08 0 0 1-.01-.09l.01-.02.15-.14a.08.08 0 0 1 .1-.01c.12.1.23.14.35.15.14 0 .27-.06.39-.18a.6.6 0 0 0 .2-.38.42.42 0 0 0-.14-.34Z"/><path fill="#fff" d="m8.08 10.6-.26.14L5.8 8.66l-.07-.07.28-.14 2.02 2.08.06.06Z"/><path fill="#2E7D32" d="M9.98 7.5a1.8 1.8 0 1 0 0-3.6 1.8 1.8 0 0 0 0 3.6Z" opacity=".5"/><path fill="#2E7D32" d="M12.02 9.8c-.64.97-1.57 2.8-2.85 3.82-1.17.93-2.65 1.39-2.65 1.39l-4.07-4.77.17-1.3 3.99 4.49.06.02c2.4-.64 3.46-2.71 4.72-4.6.96-1.44 2.4-2.98 4.26-3.45.15.16.08 1.52-.08 1.57a6.49 6.49 0 0 0-3.55 2.83Z"/><path fill="#FFC06C" d="m10.36 10.44.37 1.4s1.15-1.69 1.34-2.1l-.42-1.25c-.55.7-1.3 1.95-1.3 1.95Z"/><path fill="#2E7D32" d="M10.26 2.13c.1.13.26.28.54.36.1.03.2.05.3.05.2 0 .39-.07.51-.13l1.05 1.04 1.03 1.01c-.1.15-.17.38-.14.68.01.14.11.28.22.4-.67.43-1.94 1.38-3.25 3.05-.28.35-.55.75-.8 1.13a9.12 9.12 0 0 1-2.21 2.5 1.03 1.03 0 0 0-.9-.49c-.22 0-.4.08-.52.18L4.21 9.74c.16-.12.3-.34.32-.66 0-.15-.07-.3-.17-.4.92-.68 1.9-1.77 2.42-2.55L7 5.78c.82-1.23 1.93-2.9 3.25-3.65Zm.1-.3c-1.6.8-2.86 2.84-3.76 4.18-.59.88-1.66 2.03-2.57 2.65 0 0 .3.21.29.4-.03.53-.45.61-.45.61l2.22 2.55s.16-.28.53-.28a.8.8 0 0 1 .19.02c.5.13.6.57.6.57 1.42-.82 2.28-2.53 3.27-3.81a12.93 12.93 0 0 1 3.43-3.15s-.33-.27-.35-.46c-.05-.48.22-.66.22-.66-.64-.65-1.7-1.66-2.34-2.31 0 0-.23.18-.55.18a.8.8 0 0 1-.23-.03c-.46-.14-.5-.46-.5-.46Z"/><path fill="#FFECB3" d="M7.23 4.16 6 6l4.35 4.44s.7-1.12 1.3-1.95L7.22 4.16Z"/><path fill="#D69136" d="M11.83 9.02s-.86.43-1.1 1.76c-.08.5 0 1.05 0 1.05l.71-1.09.5-1.5-.11-.22Z" opacity=".68"/><path fill="#E0E0E0" d="M11.58 9.3c.25-.23.33-.3 1.11-.36.77-.06 1.12-.4 2.09-.2.41.09 1.06.46.9 1.96-.07.57-.05 1.89.22 3.08.21.96-.38.71-.54.58-.58-.48-.6-1.55-.6-1.55s-.06 1.6-.65 1.03c-.47-.46-.23-1.55-.23-1.55s-.31 1.11-.83.67c-.36-.3-.1-1.5-.1-1.5s-.4.98-.71.82c-.47-.25-.25-1.25-.25-1.25s-.43.95-.71.76c-.42-.29-.27-1.17-.27-1.17s.13-.89.57-1.32Z"/><path fill="#BDBDBD" d="M15.3 9.91s.05.77 0 1.23c-.04.29-.05.55-.31.51-.07 0-.21-.13-.24-.6-.03-.51.08-1.18 0-1.23-.07-.05-.07.83-.44 1.38-.14.2-.37.22-.4-.32-.04-.6.26-1.3.22-1.35 0 0-.26.32-.41.77-.15.45-.22.66-.4.53-.31-.23.15-1.16.15-1.16s-.34.3-.48.73c-.1.27-.05.72.2.83.28.13.44-.1.44-.1s.06.75.43.73c.35-.01.44-.41.44-.41s-.01.39.35.65c.17.13.57.15.62-.36.08-.83-.18-1.83-.18-1.83Zm-2.92-.27c-.07-.02-.18.32-.32.52-.05.07-.17.22-.34.2-.17 0-.03-.51-.07-.49-.04.03-.2.3-.14.62.02.08.1.19.2.2.32.05.46-.35.46-.35s-.04.48.28.53c.39.06.47-.55.44-.57-.04-.03-.17.38-.45.2-.22-.14.02-.84-.06-.86Z"/><path fill="#206022" d="M2.45 10.24 6.5 15s.19-.27.23-.69c.03-.36-.1-.85-.1-.85L2.63 8.95l-.17 1.3Z"/></g><defs><linearGradient id="b" x1="10.68" x2="10.68" y1="1.39" y2="1.39" gradientUnits="userSpaceOnUse"><stop stop-color="#43A047"/><stop offset="1" stop-color="#66BB6A"/></linearGradient><clipPath id="a"><path fill="#fff" d="M.5 0h16v16H.5z"/></clipPath></defs></svg>