<svg xmlns="http://www.w3.org/2000/svg" width="301" height="54" fill="none" viewBox="0 0 301 54"><g fill="#fff" clip-path="url(#a)"><path fill-rule="evenodd" d="M90.015 0h15.949a4.592 4.592 0 0 0-1.478 2.255 33.13 33.13 0 0 0-6.596.974c-2.46.624-4.6 2.13-4.6 4.725 0 .839.221 1.632.596 2.323l-.022-.544.331-.17c.298-.158.618-.294.927-.43.794-.34 1.621-.623 2.448-.861 4.853-1.405 12-1.405 16.853 0 .827.238 1.655.532 2.449.86.309.125.628.273.926.431l.331.17-.022.544a4.868 4.868 0 0 0 .596-2.323c0-2.594-2.14-4.124-4.6-4.725-2.338-.566-4.676-.906-7.014-.985.485-.635 1.235-1.043 1.985-1.44.474-.26.948-.51 1.379-.804h11.525c1.567 0 2.846 1.314 2.846 2.923v47.24c0 1.609-1.279 2.923-2.846 2.923H90.015c-1.566 0-2.846-1.314-2.846-2.923V2.923C87.16 1.314 88.439 0 90.016 0Zm18.364 23.002c4.048-2.368 5.901-5.099 6.132-9.62-1.643 5.53-4.047 8.204-6.132 9.62Zm-13.654-7.07c.573 7.931 8.911 8.6 11.272 13.087 2.36-4.487 10.698-5.167 11.272-13.087l.264-5.847c-5.702-3.048-17.36-3.048-23.062 0l.254 5.846ZM46.427 0H78.39c1.566 0 2.845 1.314 2.845 2.923v47.24c0 1.609-1.279 2.923-2.845 2.923H46.427c-1.567 0-2.846-1.314-2.846-2.923V2.923c0-1.609 1.28-2.923 2.846-2.923Zm18.54 36.339c4.048-2.368 5.9-5.1 6.132-9.62-1.643 5.53-4.047 8.203-6.132 9.62Zm-13.82-6.64c.574 7.931 8.912 8.611 11.272 13.087C64.78 38.3 73.118 37.62 73.691 29.7l.265-5.847c-5.702-3.048-17.36-3.048-23.062 0l.253 5.847Zm9.761-13.677c-2.195.102-4.4.42-6.595.975-2.46.623-4.6 2.13-4.6 4.725 0 .838.221 1.631.596 2.322l-.022-.543.33-.17c.299-.159.618-.295.927-.43.794-.34 1.622-.624 2.449-.862 4.853-1.405 12-1.405 16.853 0 .827.238 1.654.532 2.448.861.31.125.629.272.927.43l.33.17-.021.544a4.868 4.868 0 0 0 .595-2.322c0-2.595-2.14-4.125-4.599-4.725-2.338-.567-4.677-.907-7.015-.986.486-.635 1.236-1.043 1.986-1.44 1.654-.894 3.264-1.767 3.463-4.271-3.066.396-1.522.25-4.544 2.164-1.456.793-2.945 1.598-3.508 3.558ZM2.85 0h4.599l.11 2.482c.574 7.931 8.912 8.6 11.272 13.087 2.36-4.487 10.699-5.167 11.272-13.088L30.213 0h4.6c1.566 0 2.845 1.314 2.845 2.923v47.24c0 1.609-1.28 2.923-2.845 2.923h-4.589l.144-3.139c-5.702-3.048-17.36-3.048-23.063 0l.144 3.14h-4.6c-1.566.01-2.845-1.315-2.845-2.924V2.923C.004 1.314 1.284 0 2.849 0Zm24.716 0c-1.62 4.725-3.816 7.116-5.746 8.419C25.493 6.266 27.357 3.807 27.842 0h-.276ZM17.331 42.129c-2.195.102-4.4.42-6.595.974-2.46.624-4.6 2.13-4.6 4.725 0 .839.22 1.632.596 2.323l-.022-.544.33-.17c.298-.158.618-.294.927-.43.794-.34 1.621-.623 2.449-.861 4.853-1.405 12-1.405 16.853 0a23.28 23.28 0 0 1 2.448.86c.309.126.629.273.927.431l.33.17-.021.544a4.868 4.868 0 0 0 .595-2.323c0-2.594-2.14-4.124-4.6-4.725-2.338-.566-4.676-.906-7.014-.985.485-.635 1.235-1.043 1.985-1.44 1.655-.895 3.265-1.767 3.464-4.271-3.067.396-1.523.249-4.544 2.164-1.456.782-2.945 1.586-3.508 3.558ZM155.695 30.537c6.408 0 10.346-4.09 10.346-9.654v-.08c0-5.484-3.817-7.591-7.721-8.271l7.269-7.127V.51h-19.423v5.563h11.294l-6.86 7.082.981 4.136h2.626c3.529 0 5.624 1.349 5.624 3.75v.08c0 2.198-1.687 3.58-4.07 3.58-2.911 0-4.963-1.269-6.937-3.546l-4.334 4.283c2.459 2.991 6.033 5.099 11.205 5.099ZM198.147 30.537c8.868 0 15.31-6.878 15.31-15.274v-.08C213.457 6.788 207.092 0 198.224 0c-8.867 0-15.309 6.878-15.309 15.263v.08c0 8.407 6.365 15.194 15.232 15.194Zm.077-5.994c-5.096 0-8.702-4.215-8.702-9.28v-.08c0-5.064 3.529-9.189 8.625-9.189s8.703 4.215 8.703 9.28v.08c0 5.065-3.53 9.19-8.626 9.19ZM214.77 30.028h6.44l2.625-6.618h12.155l2.624 6.618h6.607L232.924.295h-5.835L214.77 30.028Zm11.337-12.351 3.817-9.575 3.816 9.575h-7.633ZM249.667 30.027h6.33v-9.02l3.32-3.546 8.911 12.566h7.589l-12.232-16.996L275.287.51h-7.632l-11.658 12.906V.51h-6.33v29.517ZM289.448 30.458c6.199 0 10.556-3.286 10.556-9.155v-.08c0-5.144-3.287-7.297-9.111-8.86-4.963-1.304-6.199-1.938-6.199-3.876v-.09c0-1.44 1.269-2.573 3.696-2.573 2.426 0 4.93 1.1 7.467 2.912l3.286-4.895c-2.912-2.402-6.485-3.75-10.676-3.75-5.867 0-10.059 3.546-10.059 8.895v.079c0 5.858 3.739 7.513 9.529 9.03 4.81 1.27 5.791 2.108 5.791 3.752v.079c0 1.733-1.555 2.787-4.147 2.787-3.287 0-5.99-1.394-8.581-3.58l-3.739 4.6c3.442 3.161 7.842 4.725 12.187 4.725ZM150.798 53.098c2.195 0 3.893-.884 5.129-1.96v-5.349h-5.217v2.346h2.658v1.756c-.673.498-1.521.736-2.481.736-2.129 0-3.629-1.654-3.629-3.909v-.034c0-2.096 1.522-3.84 3.442-3.84 1.389 0 2.216.452 3.131 1.245l1.666-2.062c-1.246-1.088-2.559-1.688-4.71-1.688-3.629 0-6.286 2.867-6.286 6.38v.033c-.011 3.649 2.559 6.346 6.297 6.346ZM173.894 52.882h2.69l1.093-2.765h5.073l1.093 2.765h2.757l-5.14-12.42h-2.437l-5.129 12.42Zm4.732-5.156 1.598-4 1.6 4h-3.198ZM204.941 52.882h2.58v-8l3.343 5.224h.077l3.376-5.27v8.046h2.624V40.554h-2.845l-3.155 5.212-3.154-5.212h-2.846v12.328Z" clip-rule="evenodd"/><path d="M239.044 40.554h-2.636v12.328h2.636V40.554Z"/><path fill-rule="evenodd" d="M258.511 52.882h2.613V45.04l5.813 7.84h2.24V40.555h-2.603v7.591l-5.626-7.591h-2.437v12.328ZM294.302 53.098c2.195 0 3.894-.884 5.128-1.96v-5.349h-5.216v2.346h2.658v1.756c-.673.498-1.522.736-2.482.736-2.128 0-3.64-1.654-3.64-3.909v-.034c0-2.096 1.523-3.84 3.442-3.84 1.39 0 2.217.452 3.132 1.245l1.666-2.062c-1.247-1.088-2.56-1.688-4.71-1.688-3.628 0-6.287 2.867-6.287 6.38v.033c0 3.649 2.581 6.346 6.309 6.346Z" clip-rule="evenodd"/></g><defs><clipPath id="a"><path fill="#fff" d="M.004 0h300v53.097h-300z"/></clipPath></defs></svg>