<svg xmlns="http://www.w3.org/2000/svg" width="300" height="48" fill="none" viewBox="0 0 300 48"><path fill="#A6CE39" d="M213.792 37.514V9.678c0-.426.285-.71.711-.71h5.538c.142 0 .427.142.569.284L233.96 25.3V9.678c0-.426.284-.71.71-.71h6.391c.426 0 .71.284.71.71v27.836c0 .426-.284.71-.71.71h-5.539c-.142 0-.426-.142-.568-.284l-13.35-16.048v15.622c0 .426-.284.71-.71.71h-6.249c-.568 0-.853-.426-.853-.71ZM247.594 37.514V9.678c0-.426.284-.71.71-.71h21.445c.426 0 .71.284.71.71v4.829c0 .426-.284.71-.71.71h-14.344v5.397h12.498c.426 0 .71.284.71.71v4.402c0 .427-.284.71-.71.71h-12.498v5.823h14.912c.426 0 .71.285.71.71v4.83c0 .425-.284.71-.71.71h-22.013c-.426-.285-.71-.71-.71-.995ZM282.957 37.514V15.217h-8.379c-.426 0-.71-.284-.71-.71v-4.83c0-.425.284-.71.71-.71h24.712c.426 0 .71.285.71.71v4.83c0 .426-.284.71-.71.71h-8.379v22.297c0 .426-.284.71-.711.71h-6.533c-.426 0-.71-.426-.71-.71ZM35.697 34.39c6.51 0 11.787-5.278 11.787-11.789 0-6.51-5.277-11.787-11.788-11.787-6.51 0-11.787 5.277-11.787 11.787 0 6.51 5.277 11.788 11.788 11.788Z"/><path fill="#A6CE39" fill-rule="evenodd" d="M54.586 31.833c-.285.142-.71-.142-.426-.426 5.964-6.96 7.953-15.197 4.402-21.303C54.16 2.576 42.798 1.014 31.72 4.99 19.932 9.25 12.263 18.199 13.825 27.288c3.125 18.463 39.766 16.9 52.548 15.907.426 0 .426.568.142.568C33.709 51.29 4.736 46.745.475 30.27c-4.119-15.907 19.6-25.138 30.25-27.979 14.63-3.834 33.376-3.692 37.21 6.96 2.557 6.816-3.124 15.622-13.35 22.58Z" clip-rule="evenodd"/><path fill="#A6CE39" d="M77.451 37.23 89.807 9.394a.78.78 0 0 1 .71-.426h6.96c.283 0 .567.142.71.426l12.355 27.836c.142.426-.142.994-.71.994h-6.675a.78.78 0 0 1-.71-.426l-2.13-5.255H87.393l-2.13 5.255a.781.781 0 0 1-.71.426h-6.534c-.426 0-.71-.568-.568-.994Zm20.594-10.51-4.261-10.51-4.26 10.51h8.52ZM113.525 37.514V9.678c0-.426.284-.71.71-.71h5.397c.284 0 .426.142.568.284l10.226 17.043 10.225-17.043c.142-.142.284-.284.568-.284h5.397c.426 0 .71.284.71.71v27.836c0 .426-.284.71-.71.71h-5.823c-.426 0-.71-.284-.71-.71V21.75l-7.811 13.208c-.142.142-.284.284-.568.284h-2.699c-.284 0-.426-.142-.568-.284l-7.811-12.782v15.338c0 .426-.284.71-.71.71h-5.823c-.284 0-.568-.426-.568-.71ZM167.209 38.792c-4.26 0-7.669-1.136-10.083-3.55-2.415-2.414-3.551-5.681-3.551-10.084V9.678c0-.426.284-.71.71-.71h6.533c.426 0 .71.284.71.71v15.196c0 4.971 1.847 7.385 5.823 7.385 3.977 0 5.965-2.556 5.965-7.385V9.678c0-.426.284-.71.71-.71h6.391c.426 0 .71.284.71.71v15.48c0 4.261-1.278 7.67-3.55 10.084-2.698 2.272-6.107 3.55-10.368 3.55ZM196.892 38.792c-2.415 0-4.687-.284-6.959-.852a19.029 19.029 0 0 1-4.829-1.847c-.284-.142-.426-.568-.284-.852l1.988-4.544c0-.142.142-.285.426-.285.284-.142.426 0 .568 0 1.137.71 2.415 1.137 3.835 1.563 1.704.568 3.55.852 5.255.852 3.408 0 5.113-.852 5.113-2.699 0-.71-.284-1.562-1.563-2.13-.994-.426-2.414-.852-4.544-1.278-2.273-.426-4.119-.994-5.539-1.562-1.42-.569-2.699-1.42-3.693-2.557-.994-1.136-1.562-2.698-1.562-4.686 0-1.705.426-3.409 1.42-4.687.994-1.42 2.415-2.557 4.261-3.409 1.988-.852 4.26-1.278 7.101-1.278 1.988 0 3.835.284 5.681.71 1.562.426 2.982.852 4.26 1.562.285.142.427.569.285.852l-1.847 4.545c0 .142-.142.284-.426.426h-.426c-2.556-1.278-4.971-1.846-7.527-1.846-1.704 0-2.983.284-3.835.852-.852.568-1.278 1.278-1.278 2.13 0 .569.284 1.42 1.562 1.989.852.426 2.415.852 4.403 1.278 2.272.426 4.119.994 5.539 1.562 1.42.568 2.698 1.42 3.692 2.557.995 1.136 1.563 2.698 1.563 4.686 0 1.705-.426 3.267-1.42 4.687-.995 1.42-2.415 2.556-4.403 3.409-1.562.426-3.977.852-6.817.852Z"/></svg>