<svg xmlns="http://www.w3.org/2000/svg" width="300" height="73" fill="none" viewBox="0 0 300 73"><path fill="#0041FF" d="M156.253 1.896a1.734 1.734 0 0 0-1.73-1.563h-20.92c-.898 0-1.63.698-1.729 1.563l-6.12 68.414c-.1.998.698 1.896 1.729 1.896h10.011c.898 0 1.663-.698 1.73-1.63l.632-9.246c.033-.432.366-.765.798-.765h6.785c.432 0 .765.333.798.765l.632 9.246c.067.898.832 1.63 1.73 1.63h10.044a1.722 1.722 0 0 0 1.73-1.896l-6.12-68.414ZM141.718 49.09a.805.805 0 0 1-.798-.865l2.495-33.592c.033-.266.232-.432.465-.432h.333c.266 0 .466.2.466.432l2.494 33.592a.805.805 0 0 1-.798.865h-4.657ZM293.548 1.896c-.067-.898-.832-1.563-1.73-1.563h-20.92c-.898 0-1.63.698-1.729 1.563l-6.087 68.414c-.1.998.698 1.896 1.73 1.896h10.011c.898 0 1.663-.698 1.729-1.63l.632-9.246c.033-.432.366-.765.798-.765h6.785c.433 0 .765.333.798.765l.632 9.246c.067.898.832 1.63 1.73 1.63h10.011a1.72 1.72 0 0 0 1.729-1.896l-6.119-68.414ZM279.013 49.09a.805.805 0 0 1-.798-.865l2.495-33.592c.033-.266.232-.432.465-.432h.333c.266 0 .465.2.465.432l2.495 33.592a.805.805 0 0 1-.798.865h-4.657ZM60.765 42.539v14.867a.81.81 0 0 0 .798.798h11.375c.964 0 1.73.765 1.73 1.73v10.51c0 .964-.766 1.729-1.73 1.729H48.925c-.965 0-1.73-.765-1.73-1.73V2.062c0-.965.765-1.73 1.73-1.73h24.013c.964 0 1.73.765 1.73 1.73v10.444c0 .964-.766 1.729-1.73 1.729H61.563a.81.81 0 0 0-.798.798v14.335a.81.81 0 0 0 .798.798h9.08c.965 0 1.73.765 1.73 1.73v8.115c0 .964-.766 1.73-1.73 1.73h-9.08a.81.81 0 0 0-.798.798ZM202.051.333H172.35c-.964 0-1.729.764-1.729 1.729v10.444c0 .964.765 1.729 1.729 1.729h7.284c.433 0 .798.366.798.798v55.444c0 .964.765 1.73 1.73 1.73h10.077c.965 0 1.73-.766 1.73-1.73V15a.81.81 0 0 1 .798-.798h7.284c.965 0 1.729-.765 1.729-1.73V2.062c0-.965-.764-1.73-1.729-1.73ZM113.415 58.204h-10.278a.81.81 0 0 1-.798-.798V2.062c0-.965-.765-1.73-1.729-1.73H90.532c-.964 0-1.73.765-1.73 1.73v68.415c0 .964.766 1.73 1.73 1.73h22.883c.964 0 1.729-.766 1.729-1.73v-10.51c0-.965-.765-1.763-1.729-1.763ZM243.359 38.248v-.432c0-.2.133-.366.3-.433 3.625-1.396 6.186-4.922 6.186-9.013V13.403c.033-7.217-5.821-13.07-13.038-13.07h-18.293c-.964 0-1.729.764-1.729 1.729v68.415c0 .964.765 1.73 1.729 1.73h10.078c.965 0 1.73-.766 1.73-1.73V45.565c0-.432.365-.798.798-.798h2.361a2.896 2.896 0 0 1 2.894 2.894V70.51c0 .964.765 1.73 1.729 1.73h10.078c.964 0 1.729-.766 1.729-1.73V47.76a9.638 9.638 0 0 0-6.186-9.013c-.233-.133-.366-.3-.366-.499Zm-7.018-7.982a2.895 2.895 0 0 1-2.893 2.894h-2.362a.81.81 0 0 1-.798-.799V15a.81.81 0 0 1 .798-.798h2.362a2.895 2.895 0 0 1 2.893 2.893v13.171ZM33.459 13.403c0-7.217-5.854-13.07-13.104-13.07H2.062c-.965 0-1.73.764-1.73 1.729v68.415c0 .964.765 1.73 1.73 1.73h22.217a9.141 9.141 0 0 0 9.147-9.147V45.665a9.638 9.638 0 0 0-6.187-9.013c-.2-.067-.299-.233-.299-.433v-.432c0-.2.133-.366.3-.432 3.625-1.397 6.186-4.923 6.186-9.014l.033-12.938Zm-13.537 41.94a2.896 2.896 0 0 1-2.893 2.894h-2.362a.81.81 0 0 1-.798-.798V42.572a.81.81 0 0 1 .798-.798h2.362a2.896 2.896 0 0 1 2.893 2.893v10.677Zm0-28.07a2.896 2.896 0 0 1-2.893 2.893h-2.362a.81.81 0 0 1-.798-.798V15a.81.81 0 0 1 .798-.798h2.362a2.896 2.896 0 0 1 2.893 2.893v10.178Z"/></svg>