<svg width="291" height="296" viewBox="0 0 291 296" fill="none" xmlns="http://www.w3.org/2000/svg">
<path d="M133.156 0.709013C213.078 -6.18187 283.312 54.027 290.21 135.406C294.304 183.656 274.93 230.981 238.425 261.907C213.219 283.358 181.351 295.4 148.258 295.978C115.164 296.556 82.8953 285.634 56.9556 265.076C-6.38802 214.955 -17.9396 121.99 31.2426 57.3413C43.3781 41.3547 58.7041 28.0652 76.2483 18.3161C93.7924 8.56699 113.171 2.57113 133.156 0.709013V0.709013ZM134.274 5.73563C57.1421 12.0741 -0.422371 81.0037 5.72281 159.627C11.868 238.251 79.4995 296.927 156.625 290.596C233.957 284.264 291.329 215.514 285.176 136.711C283.46 114.783 276.74 93.5396 265.533 74.6135C254.326 55.6874 238.93 39.5818 220.528 27.5337C194.973 10.9422 164.644 3.27739 134.274 5.73563V5.73563Z" fill="#E40707"/>
<path d="M125.513 13.1929C192.399 2.75991 256.488 44.8647 274.744 111.371C284.804 148.076 279.405 189.435 258.539 221.293C239.537 230.049 218.112 231.54 197.619 230.608C163.337 228.93 129.801 219.802 95.3325 218.87C75.9579 218.311 56.0241 220.941 37.9545 228.93C-5.82816 168.196 7.02838 82.6817 66.6435 38.1465C83.7809 25.1173 104.088 16.7419 125.513 13.1929ZM145.64 15.796C142.844 24.1852 140.227 32.5675 137.465 41.1362C128.71 41.1362 119.955 40.9498 111.227 41.3226C118.304 46.5357 125.382 51.7556 132.466 57.1551C129.856 65.5443 127.06 73.9266 124.456 82.4953L145.695 66.8493L166.927 82.4953C164.324 74.113 161.528 65.5443 158.918 57.1551C165.947 51.9558 173.024 46.7221 180.101 41.3226C171.346 41.1362 162.591 41.3226 153.864 41.3226C151.04 32.5675 148.243 24.1852 145.64 15.796ZM84.7131 48.7728C83.7809 53.0606 83.2217 57.3415 82.2964 61.6293L69.4399 63.3072L80.805 69.6388C80.0593 73.9266 79.3136 78.3939 78.5679 82.4953C81.7372 79.5125 84.8995 76.5366 88.0688 73.3673C91.7973 75.4387 95.5189 77.6482 99.4339 79.5125C97.5696 75.6044 95.7054 71.503 93.8411 67.5881C97.0103 64.6121 100.18 61.4429 103.162 58.4601L90.3059 60.1379C88.4416 56.7891 86.5773 52.8742 84.7131 48.7728ZM200.988 60.6972L188.132 59.0193C191.301 62.1886 194.284 65.1714 197.453 68.1473C195.589 72.0623 193.724 76.1637 191.86 80.0718L203.225 73.9266C206.394 76.9094 209.557 80.0718 212.726 83.0546C211.794 78.7668 211.235 74.2994 210.489 70.0116C214.218 67.9402 217.946 65.7307 221.854 63.68L208.998 62.0022C208.072 57.7144 207.513 53.247 206.581 49.1456C204.696 52.8742 202.832 56.7891 200.988 60.6972ZM43.9132 79.5125L44.4725 87.3424L37.2088 90.3183L44.659 92.1826L45.2182 100.006C46.5232 97.7754 47.8282 95.5383 49.3196 93.4876L56.7698 95.1654L51.9365 89.1998L56.0379 82.4953L48.7742 85.4781C47.2568 83.4079 45.6344 81.4167 43.9132 79.5125V79.5125ZM242.327 85.4781L235.249 82.4953L239.351 89.1998C237.673 91.2712 235.995 93.1147 234.317 95.1654L241.767 93.4876L245.869 100.006L246.428 92.1826L253.878 90.3183L246.801 87.3424L247.36 79.5125L242.327 85.4781ZM63.6607 99.0735C55.4648 101.311 47.6418 106.503 43.5611 114.167C43.1883 140.992 43.5611 167.823 43.3747 194.835C49.4741 199.069 56.2913 202.162 63.495 203.963C71.8842 206.2 80.4529 205.64 89.0423 205.081C97.6318 204.522 106.366 202.319 112.705 196.326C122.578 187.571 125.554 172.104 120.341 159.814C117.579 152.909 111.4 148.076 104.875 145.093C111.4 140.992 116.426 133.915 116.053 125.905C116.24 111.557 103.95 99.0735 90.3473 97.5959C81.5369 96.6568 72.4227 96.6568 63.6607 99.0735ZM100.552 97.0021C110.219 100.537 116.571 109.479 119.927 118.987H132.784V205.24H154.768V119.014H166.872C173.397 109.134 182.525 100.751 193.704 97.0297C162.591 97.2161 131.479 97.0297 100.552 97.0297V97.0021ZM196.528 99.978C184.597 104.21 174.82 112.982 169.323 124.386C163.178 136.87 162.246 151.211 164.297 164.813C166.161 177.67 172.492 189.78 182.739 197.79C192.406 205.426 205.096 207.85 216.834 206.918C228.759 205.986 241.236 202.637 250.736 194.807V143.229H214.97V162.976H228.945V182.724C221.675 187.757 211.987 187.757 203.791 184.795C194.85 181.26 188.698 172.312 186.84 162.997C184.976 153.496 185.535 143.623 189.071 134.688C192.426 126.492 199.317 119.781 207.893 118.117C218.512 115.32 229.498 119.974 237.514 126.872C240.676 120.72 243.659 114.574 247.015 108.429C233.571 95.9111 213.265 94.4197 196.5 100.006L196.528 99.978Z" fill="#E40707"/>
<path d="M69.4392 121.99C75.0251 115.085 87.8816 116.218 91.6102 124.752C93.1016 129.412 91.0509 135.93 85.8309 137.235C79.8722 138.913 73.7201 137.981 67.5749 138.168C67.9478 132.982 66.2699 126.837 69.4392 121.99ZM67.5749 156.085C75.2115 156.458 83.221 154.967 90.4916 157.949C101.111 162.23 100.365 180.68 89.7459 184.401C82.4822 185.334 74.4658 185.893 67.5749 182.33V156.085ZM109.694 225.201C148.629 229.116 187.385 239.701 226.694 235.075C236.089 234.125 245.306 231.868 254.078 228.37C247.173 237.498 239.916 246.254 230.788 253.151C223.524 254.456 216.288 253.711 209.176 252.965C188.124 250.169 168.004 243.651 147.883 236.939C135.206 233.031 122.723 228.184 109.68 225.201H109.694ZM84.1462 233.59C100.918 233.963 116.937 239.736 132.962 244.949C159.414 253.524 185.5 263.957 213.443 266.187C201.519 272.899 189.035 278.298 175.626 281.281C173.762 281.84 172.271 280.349 170.593 279.79C154.022 270.475 138.141 259.856 121.57 249.982C109.68 243.091 97.417 236.753 84.1531 233.59H84.1462ZM63.2871 255.941C75.0251 256.687 86.9495 258.364 97.5689 263.584C109.68 268.984 120.299 276.807 131.105 284.264C106.364 281.091 82.9361 271.307 63.2871 255.941V255.941Z" fill="#E40707"/>
</svg>
