<svg xmlns="http://www.w3.org/2000/svg" width="300" height="206" fill="none" viewBox="0 0 300 206"><path fill="url(#a)" d="M125.367 20c15.287.522 35.016 27.718 44.788 38.07 0 0-5.935-3.25-9.028-5.879-7.742-6.298-17.286-12.736-27.362-14.206-3.518.513-5.322 1.246-7.659 3.958-6.781 11.12-9.244 25.34-10.257 37.96-1.006-5.199-1.331-10.271-1.386-15.553l-.027-2.526c-.016-1.758-.028-3.516-.037-5.274a451.843 451.843 0 0 0-.069-5.335c-.366-19.708.96-22.258 3.759-27.296 1.244-2.24 3.359-3.36 7.278-3.919Z"/><path fill="#E43C2D" d="M133.765 37.915s3.919-4.478 11.197-2.798c0 0 6.158 1.894 8.957 4.478 7.278 6.718 16.795 19.034 16.795 19.034s-4.478-2.799-8.397-5.598c-10.033-7.166-22.741-14.668-28.552-15.116Z"/><path fill="url(#b)" d="M199.763 74.961c-8.808 12.506-42.366 14.125-56.379 16.634 0 0 5.969-3.188 9.862-4.336 9.509-3.03 20.123-7.491 26.869-15.118 1.497-3.224 1.872-5.135.881-8.576-5.591-11.762-16.142-21.609-26.149-29.367 4.902 2.005 9.324 4.51 13.774 7.356l2.129 1.36c1.48.95 2.957 1.902 4.433 2.857 1.495.963 2.996 1.918 4.502 2.864 16.693 10.484 18.1 12.989 20.783 18.09 1.193 2.267.972 4.65-.705 8.236Z"/><path fill="#7EACF2" d="M180.174 72.18s1.601 5.73-3.789 10.901c0 0-4.957 4.116-8.652 5.044-9.606 2.412-25.123 3.632-25.123 3.632s4.794-2.215 9.282-3.962c11.489-4.471 24.725-10.997 28.282-15.615Z"/><path fill="url(#c)" d="M121.45 117.496c-8.045-13.01 3.638-44.51 6.831-58.383 0 0-.309 6.355-.781 10.387-.946 9.935-.111 21.834 4.256 31.032 2.378 2.642 3.989 3.737 7.542 4.177 13.013-.526 26.211-6.366 37.274-12.524-3.768 3.721-7.808 6.805-12.172 9.781l-2.087 1.425c-1.454.988-2.91 1.973-4.368 2.955a468.722 468.722 0 0 0-4.4 3.017c-16.195 11.238-19.052 11.549-24.797 12.015-2.553.207-4.658-.932-7.298-3.882Z"/><path fill="#773FF4" d="M131.697 100.571s-5.899-.777-8.539-7.764c0 0-1.84-6.175-1.243-9.937 1.553-9.782 6.52-24.533 6.52-24.533s.156 5.279.001 10.092c-.397 12.322.41 27.058 3.261 32.142Z"/><path fill="#fff" d="M157.278 65.087c1.493.862 1.493 3.016 0 3.879l-10.917 6.302c-1.493.862-3.359-.215-3.359-1.939V60.723c0-1.724 1.866-2.801 3.359-1.94l10.917 6.304Z"/><path fill="#fff" fill-rule="evenodd" d="M42.848 154.409a.092.092 0 0 1-.021-.04c-.026-.093.035-.166.181-.217.916-.33 1.764-.599 2.545-.806.75-.199 1.4-.427 1.951-.685 1.278-.595 2.175-1.029 2.69-1.302 2.536-1.342 4.67-3.095 6.43-5.33.345-.442.651-.994.919-1.657.45-1.115.711-1.812.785-2.091a8.773 8.773 0 0 0 .179-3.791 7.237 7.237 0 0 0-.515-1.666c-.44-1.002-.67-1.526-.692-1.571a3.007 3.007 0 0 0-.336-.556 14.624 14.624 0 0 0-3.878-3.536 9.903 9.903 0 0 0-1.201-.654c-.42-.182-.836-.383-1.244-.601-.45-.24-1.097-.49-1.943-.75-.316-.097-.607-.191-.883-.279-1.05-.335-1.866-.597-2.913-.74a93.057 93.057 0 0 1-2.293-.396c-1.775-.318-3.867-.615-5.399-.716-.899-.059-2.606-.09-5.121-.095-1.662-.004-3.028.055-4.099.176-1.756.197-4.146.588-7.168 1.174-.714.138-1.257.273-1.63.405-.489.174-1.026.33-1.61.468-.586.139-1.28.385-2.082.739-.827.364-1.522.672-2.086.922-1.694.756-3.382 1.823-5.064 3.201-.589.484-1.017.897-1.286 1.241-.596.765-.956 1.242-1.082 1.43-.583.872-.904 1.882-.964 3.032-.085 1.628.108 3.066 1.124 4.271.83.987 1.523 1.613 2.575 2.232.167.098.53.322 1.088.671.211.132.55.259 1.014.383 1.145.302 2.435.551 3.869.746.953.13 2.042.154 3.267.072.25-.016.42-.104.507-.266.243-.452.105-.818-.313-1.137a10.04 10.04 0 0 0-1.037-.663c-.498-.287-.85-.523-1.056-.709-1.085-.976-1.75-2.127-1.994-3.453a3.26 3.26 0 0 1 .018-1.302c.355-1.645 1.043-3.058 2.064-4.24a17.24 17.24 0 0 1 1.811-1.775 14.53 14.53 0 0 1 2.058-1.493c1.296-.771 2.75-1.449 4.36-2.034.827-.301 1.874-.56 3.142-.779 2.344-.401 4.372-.721 6.437-.58 1.468.101 3.192.329 5.172.681.844.151 1.529.327 2.055.527.433.164 1.077.46 1.932.888.72.36 1.338.792 1.854 1.297.818.804 1.608 1.721 1.91 2.843.577 2.148.4 4.232-.108 6.329-.207.86-.761 1.793-1.204 2.539l-.246.417a8.585 8.585 0 0 1-1.49 1.93c-1.338 1.282-2.95 2.359-4.834 3.233-.85.394-1.707.651-2.668.939-.29.087-.59.176-.9.273-.516.162-1.228.288-2.137.378-1.469.146-2.826.278-4.071.394a.171.171 0 0 1-.078-.011.17.17 0 0 1-.1-.196c.267-1.098.464-1.95.591-2.557.116-.552.256-1.094.395-1.631.21-.808.417-1.606.533-2.417.064-.446.201-.865.336-1.278.103-.316.204-.628.272-.947.265-1.251.543-2.5.833-3.746.062-.269.116-.575.174-.896.093-.529.195-1.1.353-1.618.23-.755.359-1.193.386-1.315.129-.568.205-1.019.23-1.354.02-.273-.048-.539-.313-.714-.642-.428-1.448-.682-2.418-.762-2.22-.184-4.21-.275-5.966-.274-.823 0-1.336.069-1.627.768-.414 1-.615 1.73-.78 2.901-.407 2.876-.71 4.833-.912 5.87-.055.284-.247 1.009-.574 2.174-.089.315-.14.627-.192.933a8.268 8.268 0 0 1-.171.851c-.347 1.247-.544 2.185-.592 2.815-.089 1.154-.231 2.162-.428 3.023-.474 2.086-.777 3.372-.912 3.857-.214.778-.385 1.706-.51 2.784-.112.951-.389 2.543-.831 4.777-.07.35-.282 1.162-.637 2.436-.404 1.452-.752 3.423-1.043 5.913-.059.508-.141.969-.248 1.383-.047.178-.175.629-.385 1.353a.36.36 0 0 0 .178.417c1.002.52 1.872.771 3.124.937 2.809.372 4.252.56 4.33.565.533.027 1.286-.049 1.434-.599.064-.241.146-.6.246-1.076a.22.22 0 0 1 .277-.162 19.358 19.358 0 0 0 6.972.898c2.18-.12 3.61-.24 4.293-.36 1.388-.243 2.78-.468 4.176-.674.094-.015.702-.196 1.822-.545.5-.156 1.104-.347 1.81-.574 1.618-.518 2.72-.941 3.306-1.269.674-.378 1.323-.744 1.95-1.097.392-.223.762-.5 1.1-.754.146-.11.285-.215.419-.309a7.744 7.744 0 0 0 1.057-.899 14.461 14.461 0 0 0 1.844-2.293c.203-.317.341-.656.413-1.016a9.336 9.336 0 0 0 .042-3.403c-.221-1.328-1.04-2.197-1.962-3.175l-.14-.15a9.03 9.03 0 0 0-1.51-1.313 26.106 26.106 0 0 0-3.01-1.757c-.535-.267-1.112-.451-1.676-.631a17.641 17.641 0 0 1-1.016-.347c-.172-.067-.57-.211-1.196-.432a.086.086 0 0 1-.038-.025Zm-18.186 17.976a.086.086 0 0 1-.03-.054c-.038-.309.05-.619.186-1.105.042-.148.088-.312.136-.497.133-.509.23-.925.288-1.246.314-1.7.694-3.714 1.14-6.041.065-.338.151-.669.26-.994.138-.416.235-.745.289-.986.48-2.158.878-4.145 1.192-5.961a.095.095 0 0 1 .094-.078c1.902.022 3.852.088 5.758.651 1.08.319 1.944.606 2.591.86 3.282 1.291 5.467 4.305 4.148 7.92a11.147 11.147 0 0 1-2.491 3.971c-.454.467-.952.79-1.573 1.194l-.4.26c-.494.328-1.11.626-1.849.896-1.263.46-2.25.763-2.958.908-.723.148-1.592.23-2.608.247-1.407.024-2.78.049-4.116.075a.08.08 0 0 1-.058-.02Zm117.067-17.697c-.128.188-.172.17-.133-.054.224-1.242.707-2.59 1.12-3.742.196-.546.375-1.048.504-1.473.105-.347.292-.856.561-1.529.179-.446.355-.959.529-1.539.083-.275-.032-.403-.216-.567-.551-.491-1.11-.813-1.678-.964a18.363 18.363 0 0 0-.858-.197c-.357-.076-.738-.157-1.149-.269a18.31 18.31 0 0 0-4.477-.64c-.758-.014-1.358.43-2.001.905l-.046.034c-.356.263-.729.629-1.119 1.101-1.179 1.424-2.032 2.531-2.559 3.321-.284.427-.591.836-.9 1.247-.478.637-.958 1.276-1.357 1.987-.209.372-.515.77-.798 1.137-.103.135-.204.266-.295.389-.204.278-.388.676-.564 1.057a9.09 9.09 0 0 1-.348.704c-.009.016-.021.023-.036.022a.12.12 0 0 1-.043-.015c-.008-.005-.012-.012-.011-.021.242-1.47.48-2.479.712-3.027.081-.191.378-.924.891-2.201.31-.773.555-1.525.733-2.254.185-.751.395-1.54.63-2.364.099-.348.137-.69.113-1.027a.364.364 0 0 0-.214-.313c-.361-.166-.81-.302-1.349-.41a16.037 16.037 0 0 0-2.113-.299 75.726 75.726 0 0 0-6.679-.131c-.274.007-.436.08-.485.219a95.423 95.423 0 0 1-.608 1.673c-.18.469-.344 1.039-.491 1.71a64.287 64.287 0 0 0-1.042 5.969c-.027.222-.152.338-.374.349a13.16 13.16 0 0 1-1.971-.065c-.11-.011-.167-.071-.17-.182-.051-1.333-.527-2.375-1.43-3.125-.374-.312-.851-.477-1.432-.496a15.481 15.481 0 0 0-1.832.043.214.214 0 0 1-.162-.059.215.215 0 0 1-.048-.074.196.196 0 0 1-.013-.087 2.402 2.402 0 0 0-.302-1.375c-.648-1.139-1.144-1.702-2.344-2.299-1.163-.577-1.911-.915-3.075-1.052-.85-.102-1.934-.141-3.253-.117-1.213.023-2.267.22-3.16.592-.475.198-1.166.523-2.075.975a8.947 8.947 0 0 0-1.92 1.266c-.315.275-.823.554-1.143.62-.826.168-1.892.388-3.197.66-1.31.273-2.338.458-3.083.554a37.675 37.675 0 0 1-3.12.277c-.435.019-.874-.317-1.18-.553a3.54 3.54 0 0 0-.9-.519c-1.25-.497-2.436-.765-3.554-.804-.922-.032-1.569.01-1.94.126-.95.296-1.64.498-2.07.604-.362.09-.667.217-.914.38-.471.314-.74.51-.806.588-.74.89-.708 1.777.097 2.663.62.684 1.283 1.144 2.184 1.157.082.001.33-.003.74-.011a.227.227 0 0 1 .145.048.23.23 0 0 1 .08.13c.057.265.13.55.205.839.127.494.258 1.002.313 1.45a10.927 10.927 0 0 1-.082 3.25c-.285 1.606-.476 2.553-.574 2.84-.223.649-.715 1.5-1.477 2.551-.32.445-.66.776-1.02.993-1.292.786-2.573 1.027-3.84-.05-.575-.489-.994-1.193-1.258-2.112-.402-1.406-.564-2.773-.485-4.1.063-1.056.263-2.44.599-4.15.134-.685.332-1.344.595-1.979a21.34 21.34 0 0 1 .876-1.879c.556-1.044 1.265-1.663 2.188-2.469l.103-.09c.532-.465 1.052-.81 1.56-1.034.843-.374 1.44-.579 1.79-.613 1.43-.139 2.276-.242 2.54-.308.203-.051.32-.177.352-.378.062-.418-.08-.668-.428-.749a12.843 12.843 0 0 0-5.215-.155c-1.374.242-2.586.545-3.635.91a19.491 19.491 0 0 0-4.532 2.3c-1.577 1.069-2.995 2.47-4.253 4.203-.377.519-.71 1.174-.998 1.965l-.11.299c-.506 1.382-.993 2.713-.987 3.987.006.909.01 1.422.013 1.541.007.374.118.871.332 1.491.454 1.311.955 2.717 1.8 3.764 1.167 1.445 2.629 2.607 4.385 3.487.543.272 1.226.526 2.048.761 1.003.286 1.712.467 2.128.541 1.528.271 3.04.251 4.537-.059 2.109-.439 3.297-.717 3.565-.833 1.355-.587 2.191-.983 2.506-1.187a15.861 15.861 0 0 0 4.815-4.848c.362-.569.617-1.248.954-2.147.107-.287.223-.595.353-.93.321-.825.53-1.655.624-2.491.188-1.658.158-3.234-.092-4.728-.037-.223.057-.346.283-.37 1.172-.119 2.394-.43 3.667-.934a.12.12 0 0 1 .053-.008.13.13 0 0 1 .051.017.116.116 0 0 1 .054.09.999.999 0 0 1-.153.57c-.442.771-.705 1.24-.788 1.407-.177.353-.3.727-.37 1.12-.403 2.268-.458 4.644-.166 7.127.105.886.44 1.766 1.006 2.642.41.633.642.989.696 1.07.938 1.399 2.427 2.503 3.907 3.282.454.238 1.11.483 1.968.733 1.04.303 1.725.48 2.057.533 1.297.206 2.584.163 3.861-.13 1.515-.347 2.484-.607 2.908-.778 1.699-.685 3.283-1.701 4.752-3.049a15.467 15.467 0 0 0 2.337-2.717c1.366-2.015 2.316-4.295 2.851-6.837a.33.33 0 0 1 .325-.261c.539.009 1.13-.091 1.774-.3a.229.229 0 0 1 .273.104.24.24 0 0 1 .032.101 2.39 2.39 0 0 1-.041.692l-.437 2.224a25.625 25.625 0 0 0-.326 2.241c-.309 2.97-.489 4.678-.539 5.124l-.003.023c-.054.495-.098.891.447 1.135.518.231.986.38 1.403.446.847.135 1.741.301 2.679.498.785.166 1.532.279 2.265.391.581.088 1.153.175 1.728.285a.186.186 0 0 0 .192-.082c.511-.801.908-1.631 1.191-2.489.311-.943.555-1.676.807-2.203.142-.297.547-1.063 1.216-2.301.156-.289.296-.598.436-.906.194-.43.388-.856.621-1.221a108.08 108.08 0 0 0 1.628-2.599c.216-.359.531-.745.848-1.133.249-.306.498-.612.702-.908.43-.623.905-1.223 1.423-1.8.236-.263.447-.558.658-.852.125-.174.25-.348.379-.515a.442.442 0 0 1 .119-.12c.099-.049.138-.018.115.093a79.519 79.519 0 0 0-.759 4.106c-.068.435-.167.899-.269 1.377-.143.667-.292 1.363-.371 2.051a44.787 44.787 0 0 1-.423 2.677 23.348 23.348 0 0 0-.345 4.475c.006.333.164.571.473.714.436.201.747.322.933.363 2.357.531 4.482.958 6.375 1.28a.294.294 0 0 0 .315-.163c.807-1.707 1.35-2.891 1.628-3.552.374-.885.74-1.602 1.099-2.151a58.397 58.397 0 0 0 1.688-2.755c.168-.294.473-.725.916-1.295.339-.436.654-.86.944-1.271.296-.418.635-.785.984-1.162.175-.188.352-.38.526-.581.116-.133.224-.278.337-.43.15-.201.308-.414.507-.629.214-.233.287-.195.219.113-.09.403-.233.829-.379 1.262-.141.418-.284.842-.383 1.258-.446 1.894-.664 3.662-.653 5.303.008 1.306.256 2.588.744 3.847.326.838.82 1.551 1.48 2.14.137.122.427.36.869.712.433.347 1.086.561 1.536.628 1.261.184 2.559.184 3.893 0 .505-.07.939-.203 1.302-.4a16.555 16.555 0 0 0 2.698-1.828c.55-.457 1.127-1.232 1.552-1.804.102-.138.196-.264.279-.371a.127.127 0 0 1 .115-.049.131.131 0 0 1 .06.024c.018.013.032.03.04.05a8.19 8.19 0 0 0 2.2 2.908c1.738 1.486 3.658 2.457 5.758 2.914 1.175.255 2.374.455 3.597.6 1.346.16 2.662.078 3.946-.246l1.048-.264c1.123-.302 1.751-.487 1.883-.554.877-.44 1.753-.886 2.625-1.336.291-.15.93-.642 1.918-1.475.443-.375.805-.788 1.212-1.253.133-.152.27-.309.417-.472a33.85 33.85 0 0 0 1.165-1.352 119.061 119.061 0 0 0 6.007-8.154 35.609 35.609 0 0 1 1.893-2.503c.458-.561.741-.941.849-1.139.217-.402.432-.826.646-1.271.144-.3.246-.293.307.02.003.009-.009.097-.036.262-.079.496-.208 1.03-.386 1.603-.263.839-.42 1.363-.473 1.571-.071.286-.179.731-.326 1.335-.092.38-.219.77-.347 1.16-.176.541-.353 1.081-.433 1.59a15.19 15.19 0 0 0-.038 4.585c.093.651.384 1.305.681 1.974.064.143.127.287.189.431.43 1 1.157 1.766 2.056 2.278a8.015 8.015 0 0 0 4.233 1.06 6.086 6.086 0 0 0 2.462-.579 15.53 15.53 0 0 0 2.669-1.599c.374-.277.786-.666 1.236-1.167.612-.685.99-1.109 1.133-1.272a.192.192 0 0 1 .265-.026.19.19 0 0 1 .06.077c.36.805.883 1.501 1.57 2.087.178.152.407.299.64.45.143.092.287.185.423.281.895.634 1.948.913 3.134 1.212.882.223 1.669.295 2.363.217a11.059 11.059 0 0 0 2.718-.631c1.737-.655 3.149-1.838 4.235-3.55a.28.28 0 0 1 .09-.088.274.274 0 0 1 .245-.014.27.27 0 0 1 .1.077 9.397 9.397 0 0 0 1.842 1.726c.489.353.96.468 1.544.543 1.016.132 2.081.138 3.196.018.65-.069 1.201-.211 1.655-.426.472-.224.979-.509 1.519-.854a.448.448 0 0 1 .587.09c.67.8 1.381 1.021 2.498 1.172.498.068.904.135 1.217.204 1.33.291 2.622.516 3.877.676.21.027.579.098 1.108.21a.263.263 0 0 0 .288-.142c.56-1.145.979-2.235 1.257-3.271.113-.417.495-1.218 1.147-2.401.362-.654.655-1.293.948-1.944.253-.562.51-1.035.771-1.417.246-.357.485-.768.734-1.196.354-.607.728-1.248 1.166-1.818a181.642 181.642 0 0 0 3.096-4.147.078.078 0 0 1 .027-.024.093.093 0 0 1 .037-.01l.018.001a.101.101 0 0 1 .06.024c.023.017.032.057.026.122a9.326 9.326 0 0 1-.297 1.525 462.121 462.121 0 0 1-.925 3.361c-.189.573-.303 1.399-.341 2.479a27.632 27.632 0 0 0 .05 3.244c.055.669.173 1.225.353 1.669.173.43.416.949.726 1.557a4.647 4.647 0 0 0 1.329 1.617c.638.484 1.284.806 1.939.965 2.914.711 5.523.129 7.825-1.746a8.62 8.62 0 0 0 1.755-1.946.185.185 0 0 1 .157-.084.185.185 0 0 1 .157.084c1.051 1.578 2.5 3.014 4.288 3.637 1.206.419 2.746.766 3.953.611a13.146 13.146 0 0 0 2.589-.608c.204-.069.298.003.281.218l-.038.478c-.017.208-.127.329-.331.365a8.062 8.062 0 0 1-1.043.103c-.594.025-.917.177-1.494.449l-.25.117c-.18.083-.831.299-1.952.65-.599.188-1.069.36-1.41.517l-.287.134c-.658.303-1.465.675-2.014 1.07-.292.208-.577.39-.857.568-.451.287-.884.563-1.296.922-.56.492-.939.835-1.137 1.031a9.557 9.557 0 0 0-2.053 3.07c-.421.991-.718 2.78-.065 3.746.502.744 1.067 1.317 1.694 1.717.487.309 1.21.609 2.171.899 1.703.515 3.496.619 5.166.042.78-.269 1.299-.468 1.559-.597.351-.175.925-.527 1.725-1.054a11.842 11.842 0 0 0 1.581-1.25 30.578 30.578 0 0 0 5.726-7.235c.517-.907.869-1.519 1.057-1.834.553-.921.911-1.528 1.076-1.822.106-.189.246-.301.419-.334a17.145 17.145 0 0 1 6.258-.051c.724.127 1.245.201 1.563.221.407.027.93.035 1.568.026a.427.427 0 0 0 .394-.285c.111-.323.288-1.147-.128-1.321-.773-.325-1.672-.536-2.697-.632-.276-.025-1.6-.108-3.973-.25-.62-.036-1.164.012-1.7.06l-.445.038a.136.136 0 0 1-.06-.011.122.122 0 0 1-.066-.097.125.125 0 0 1 .01-.06c.22-.462.384-.809.52-1.255.38-1.24.8-2.427 1.261-3.561.452-1.116.755-1.985.91-2.607.247-.992.436-1.897.568-2.716.1-.626.314-1.324.468-1.824l.081-.264c.182-.605.304-1.13.365-1.573.059-.428.149-.851.241-1.28.109-.51.22-1.028.284-1.574a90.98 90.98 0 0 0 .273-2.712l.016-.176c.062-.692.102-1.13-.629-1.41-.885-.342-2.041-.321-2.982-.295-.991.028-1.494-.576-2.016-1.315-.383-.543-.694-.838-1.253-1.084-2.076-.916-4.584-1.047-6.832-.412-1.164.329-1.995.611-2.493.845-.759.36-1.699.939-2.82 1.739a13.262 13.262 0 0 0-2.44 2.216c-1.2 1.414-2.072 2.64-2.617 3.677-.817 1.558-1.348 3.262-1.593 5.115-.006.044-.092.816-.257 2.316a3.67 3.67 0 0 1-.34 1.129 17.354 17.354 0 0 1-1.084 1.971c-.233.366-.617.759-1.151 1.178-.63.493-1.181.535-1.655.126-.467-.403-.485-1.072-.457-1.669.04-.823.159-1.624.358-2.402.281-1.092.592-2.245.934-3.458a64.424 64.424 0 0 1 1.079-3.414c.173-.505.497-1.461.971-2.868l.892-2.55c.177-.507.477-1.45.899-2.827.111-.364.065-.644-.139-.84-.244-.235-.701-.491-1.37-.768-.354-.147-.786-.234-1.233-.325a12.845 12.845 0 0 1-.909-.207c-1.299-.368-2.726-.593-4.28-.673-.381-.02-.677.035-.887.167-.767.485-1.571 1.136-2.413 1.955-.42.408-.815.899-1.223 1.405-.138.171-.277.344-.419.516-.369.447-.753.949-1.151 1.505a37.298 37.298 0 0 1-1.208 1.622c-.439.536-.775 1.084-1.131 1.666-.213.347-.434.706-.687 1.082-.379.56-.732 1.161-1.058 1.802-.44.868-.978 1.719-1.615 2.554a.11.11 0 0 1-.052.038.116.116 0 0 1-.064.002.116.116 0 0 1-.082-.094.416.416 0 0 1 .02-.223c.993-2.12 1.667-4.033 2.023-5.741.105-.496.288-1.091.551-1.785a23.313 23.313 0 0 0 1.233-4.8c.043-.28.048-.489.015-.63a.265.265 0 0 0-.094-.145 2.696 2.696 0 0 0-.913-.457 10.196 10.196 0 0 0-2.189-.428c-1.879-.137-3.467-.202-4.766-.196-.755.003-1.416.042-1.981.117a.38.38 0 0 0-.207.092.38.38 0 0 0-.121.192c-.092.341-.203.69-.311 1.028-.157.494-.308.968-.385 1.371a29.358 29.358 0 0 1-.511 2.226c-.151.56-.29 1.307-.417 2.241-.356 2.602-.603 4.651-.741 6.149a16.58 16.58 0 0 1-.287 1.954 946.32 946.32 0 0 1-.41 1.928 6.619 6.619 0 0 1-1.072 2.434c-.671.945-2.255 1.776-3.054.582-.626-.935-.214-2.852.104-3.796.211-.625.345-1.157.4-1.597.037-.293.153-.84.347-1.642.151-.622.262-1.168.334-1.638.433-2.826.705-4.571.815-5.234.207-1.244-.836-1.604-1.8-1.661-.216-.013-1.04-.051-2.473-.114-.283-.012-.501-.112-.653-.302l-.98-1.241c-.186-.232-.456-.437-.809-.615-.765-.38-1.369-.62-1.813-.721a10.778 10.778 0 0 0-3.881-.169c-1.476.202-2.981.691-4.516 1.468-1.457.738-2.877 1.794-4.258 3.167-.306.305-.611.659-.915 1.061-.158.209-.337.431-.524.66-.383.474-.795.982-1.102 1.49a9.793 9.793 0 0 0-.588 1.169c-.414.956-.83 2.104-1.248 3.446-.265.845-.399 1.523-.401 2.032-.004 1.006-.049 1.66-.135 1.962-.168.589-.476 1.18-.923 1.773-.855 1.136-1.563 1.994-2.125 2.574-.239.244-.473.387-.702.426-.267.047-.638.029-1.111-.054a.172.172 0 0 1-.14-.144c-.128-.834-.022-1.507.244-2.406.27-.906.446-1.577.527-2.012a9.792 9.792 0 0 1 .577-1.989c.048-.113.284-.795.709-2.045a24.77 24.77 0 0 0 .588-2.077c.204-.845.465-1.821.782-2.928l.466-1.323a7.378 7.378 0 0 0 .439-2.405c.006-.714-.26-1.338-.799-1.872-.621-.617-1.275-.998-1.963-1.142-.439-.092-1.362-.282-1.941-.316a563.068 563.068 0 0 0-10.702-.508c-1.523-.061-3 .201-4.431.786-.483.198-.931.536-1.342 1.015-.811.945-.029 2.06.851 2.535.208.113.533.183.973.211l5.683.37c.717.047 1.489.069 2.316.067a.092.092 0 0 1 .055.015.1.1 0 0 1 .037.042c.008.018.011.038.008.057a.098.098 0 0 1-.025.051 7.933 7.933 0 0 1-1.082 1c-.718.551-1.112.864-1.18.937a81.942 81.942 0 0 0-6.665 8.138 53.657 53.657 0 0 1-1.098 1.496c-.303.384-.593.771-.881 1.157-.634.849-1.262 1.69-2.004 2.461-1.432 1.487-2.913 2.757-4.444 3.811-.52.358-1.222.55-2.106.574-.751.019-1.584.007-2.183-.254-.959-.42-1.784-1.136-2.474-2.149a51.881 51.881 0 0 0-.184-.263c-.368-.524-.882-1.257-1.045-1.85a22.367 22.367 0 0 1-.424-1.86.23.23 0 0 1 .002-.094.21.21 0 0 1 .038-.085.234.234 0 0 1 .156-.098c1.231-.188 2.438-.362 3.622-.521a8.105 8.105 0 0 0 1.57-.369c.049-.017.555-.199 1.518-.548.954-.346 1.688-.674 2.201-.984a14.187 14.187 0 0 0 2.812-2.214 8.104 8.104 0 0 0 1.882-3.021c.382-1.096.621-2.367.717-3.813.065-.969-.084-1.917-.32-2.814-.372-1.412-1.1-2.554-2.185-3.426-.824-.664-1.958-1.149-2.993-1.511a6.253 6.253 0 0 0-1.605-.312 28.99 28.99 0 0 0-2.515-.081c-.946.012-1.6.034-1.962.066-1.212.108-2.152.453-3.404.96-.556.225-1.029.452-1.419.684a15.091 15.091 0 0 0-4.742 4.418c-.089.129-.393.584-.912 1.367-.614.927-1.014 1.965-1.366 2.876-.085.218-.166.429-.247.629-.336.832-.569 1.532-.7 2.099a19.2 19.2 0 0 0-.503 4.115c-.006.561-.07 1.312-.275 1.652a43.544 43.544 0 0 1-2.135 3.212c-.646.88-2.19 2.038-2.953.502-.144-.291-.185-.691-.122-1.2.127-1.026.238-1.689.334-1.99.427-1.346.822-2.685 1.185-4.02.216-.797.461-1.565.734-2.303.145-.394.417-1.154.815-2.281a22.867 22.867 0 0 1 2.136-4.472c.133-.216.232-.581.295-1.096a.19.19 0 0 0-.048-.154.85.85 0 0 0-.353-.236 37.85 37.85 0 0 1-.951-.362c-.844-.329-1.623-.633-2.451-.765-1.791-.285-3.1-.443-3.926-.475-1.228-.049-2.313.19-3.255.717-.482.27-1.326.826-1.775 1.232-.243.22-.475.416-.697.603-.515.436-.978.828-1.416 1.368-.187.229-.599.676-1.236 1.342-.074.078-.252.332-.534.762a103.16 103.16 0 0 1-1.243 1.869Zm35.642-4.771c.053 1.467-.193 2.986-.739 4.557-.084.242-.261.814-.53 1.716-.065.22-.234.547-.506.98-.082.132-.4.476-.951 1.032a4.315 4.315 0 0 1-1.106.836 11.75 11.75 0 0 1-3.117 1.086.204.204 0 0 1-.173-.047.206.206 0 0 1-.068-.165c.078-1.154.295-2.242.651-3.264.307-.879.463-1.324.466-1.336.293-.929.503-1.62.631-2.072.226-.79.481-1.464.767-2.021a28.577 28.577 0 0 1 1.989-3.322c.311-.446.879-.946 1.467-.703 1.002.414 1.185 1.762 1.219 2.723Zm-77.792 3.399a.866.866 0 0 0-.374.516c-.157.624-.054 1.11.31 1.457.102.097.482.321 1.14.674.532.285 1.06.516 1.584.692.043.015.08.044.104.082a.202.202 0 0 1 .029.129 69.043 69.043 0 0 1-.539 3.837 9.895 9.895 0 0 1-.524 1.986c-.395 1.007-.657 1.642-.786 1.906-.2.415-.528.761-.985 1.04-.81.492-1.665.354-2.397-.214-.254-.199-.473-.517-.657-.954-.398-.952-.618-1.766-.661-2.444a17.89 17.89 0 0 1-.004-1.906c.036-.789.18-1.502.374-2.454.057-.279.118-.58.182-.909.061-.316.11-.683.161-1.065.105-.787.218-1.638.47-2.244.663-1.593 1.454-2.829 2.374-3.706a4.738 4.738 0 0 1 2.255-1.202c.8-.183 1.363-.064 1.903.59.375.457.649.892.746 1.477.05.306-.146.433-.389.548-.473.227-1.012.445-1.616.655-.673.232-1.099.411-1.277.534l-1.423.975Zm124.807-3.827c.554.221.174 1.699.05 2.077-.154.478-.383 1.567-.687 3.266-.081.458-.307 1.475-.676 3.052a16.984 16.984 0 0 1-.658 2.131c-.143.377-.371 1.085-.685 2.122a8.82 8.82 0 0 1-1.656 3.093c-1.06 1.273-2.748.685-3.051-.824-.045-.222-.07-.672-.073-1.35-.003-.656.03-1.197.099-1.622a45.37 45.37 0 0 1 .813-3.984c.127-.498.328-.973.53-1.447.163-.384.326-.767.448-1.16.013-.04.309-.711.886-2.015.813-1.834 2.326-4.274 4.66-3.339Zm56.783 4.127c-.245.978-.421 1.98-.526 3.005a10.337 10.337 0 0 1-.454 2.149c-.458 1.411-1.083 3.02-1.875 4.827-.432.984-.91 1.59-1.777 2.124a1.308 1.308 0 0 1-.86.187c-.641-.073-1.09-.381-1.347-.923-.514-1.086-.394-2.257-.203-3.649a26.49 26.49 0 0 1 1.509-5.868c.068-.176.17-.401.283-.647.154-.336.325-.711.451-1.057.328-.909.567-1.49.717-1.741.127-.214.542-.756 1.245-1.628.345-.428.669-.704.971-.827.684-.279 1.428-.338 2.23-.175a.352.352 0 0 1 .275.398 48.909 48.909 0 0 0-.288 1.935c-.063.58-.18 1.21-.351 1.89Zm-8.662 23.406c.19-.196.585-.498 1.183-.908.31-.213.614-.456.907-.691.238-.191.468-.375.688-.532a.073.073 0 0 1 .039-.015.082.082 0 0 1 .076.033.091.091 0 0 1 .017.039c.028.232-.003.45-.096.655-.811 1.799-1.397 3.034-1.755 3.703-.401.748-2.494 4.217-3.6 3.427-.759-.543-.88-1.271-.364-2.185l.002-.002c.601-1.067.873-1.548 1.642-2.278.406-.386.827-.801 1.261-1.246Z" clip-rule="evenodd"/><defs><linearGradient id="a" x1="134.324" x2="114" y1="20.56" y2="65.5" gradientUnits="userSpaceOnUse"><stop stop-color="#F0CF9B"/><stop offset="1" stop-color="#F4A122"/></linearGradient><linearGradient id="b" x1="180.775" x2="165.116" y1="49.276" y2="85.502" gradientUnits="userSpaceOnUse"><stop stop-color="#228FF4"/><stop offset="1" stop-color="#7EACF2"/></linearGradient><linearGradient id="c" x1="121.527" x2="152.527" y1="63.616" y2="110.114" gradientUnits="userSpaceOnUse"><stop stop-color="#DFD9EF"/><stop offset="1" stop-color="#7136F4"/></linearGradient></defs></svg>