<svg width="300" height="119" viewBox="0 0 300 119" fill="none" xmlns="http://www.w3.org/2000/svg">
<path fill-rule="evenodd" clip-rule="evenodd" d="M15.7969 118.645C21.5346 118.645 23.6389 115.458 23.6389 112.397C23.6389 104.462 11.0468 107.2 11.0468 102.419C11.0468 100.413 12.8958 99.0412 15.4152 99.0412C17.7413 99.0412 19.9719 99.8071 21.5656 101.592L23.1593 99.6473C21.3748 97.7673 18.8579 96.6507 15.637 96.6507C11.4311 96.6507 8.30559 99.0748 8.30559 102.579C8.30559 110.166 20.8977 107.105 20.8977 112.587C20.8977 114.246 19.6857 116.285 15.8923 116.285C13.3321 116.287 10.899 115.17 9.23136 113.227L7.63511 115.267C9.38867 117.242 12.1299 118.645 15.7969 118.645ZM60.8015 118.261V99.361H67.5579V97.0014H51.4303V99.361H58.1557V118.261H60.8015ZM105.234 118.645C111.002 118.645 113.934 115.267 113.934 109.975V97.0014H111.258V109.942C111.258 113.83 109.153 116.285 105.234 116.285C101.314 116.285 99.2406 113.83 99.2406 109.942V97.0014H96.5638V110.006C96.5638 115.233 99.4959 118.645 105.234 118.645ZM151.672 115.904H147.051V99.361H151.672C156.933 99.361 159.831 103.059 159.831 107.649C159.831 112.206 156.837 115.904 151.672 115.904ZM151.672 118.261C158.302 118.261 162.572 113.704 162.572 107.649C162.572 101.625 158.302 97.0014 151.672 97.0014H144.405V118.261L151.672 118.261ZM192.215 118.261H194.861V97.0014H192.215V118.261ZM235.02 116.285C230.239 116.285 227.212 112.587 227.212 107.649C227.212 102.675 230.239 99.0103 235.02 99.0103C239.77 99.0103 242.862 102.675 242.862 107.649C242.862 112.587 239.77 116.285 235.02 116.285ZM235.02 118.645C241.3 118.645 245.604 113.928 245.604 107.649C245.604 101.367 241.3 96.6507 235.02 96.6507C228.741 96.6507 224.471 101.367 224.471 107.649C224.471 113.928 228.741 118.645 235.02 118.645ZM282.098 118.645C287.836 118.645 289.938 115.458 289.938 112.397C289.938 104.462 277.348 107.2 277.348 102.419C277.348 100.413 279.197 99.0412 281.714 99.0412C284.043 99.0412 286.273 99.8071 287.867 101.592L289.461 99.6473C287.676 97.7673 285.157 96.6507 281.938 96.6507C277.73 96.6507 274.607 99.0748 274.607 102.579C274.607 110.166 287.197 107.105 287.197 112.587C287.197 114.246 285.987 116.285 282.194 116.285C279.633 116.287 277.2 115.17 275.533 113.227L273.939 115.267C275.69 117.242 278.431 118.645 282.098 118.645ZM217.438 52.5564L217.392 76.1057C153.314 76.186 89.2352 76.3492 25.1578 76.3636C22.3856 76.3636 15.392 75.7911 10.3866 70.5021C4.8423 64.6405 4.7082 57.5257 4.72367 56.4401L4.73399 26.4155C4.66436 24.894 4.64115 17.3924 10.3325 11.2137C15.0207 6.12577 22.3521 5.73122 24.4848 5.73122L126.859 5.63323V50.2562H187.068V5.98907H217.425L217.325 26.8693L246.462 5.98908H286.593L244.727 40.6013L287.034 76.1057H245.555L217.438 52.5564ZM252.102 40.6296L299.709 1.26993H244.946L222.088 17.6477L222.168 1.26993H182.346V45.537H131.578V0.914062L24.4848 1.00947C21.8647 1.00947 12.8494 1.51491 6.86147 8.01598C0.16442 15.2855 -0.0882981 23.8677 0.0148524 26.5135L0.0045381 56.4117C-0.0135132 58.142 0.264993 66.67 6.95947 73.7461C13.2233 80.3684 21.7745 81.0827 25.1578 81.0827L222.103 80.8248L222.137 62.6497L243.84 80.8248H300L252.102 40.6296Z" fill="#259BFF"/>
<path fill-rule="evenodd" clip-rule="evenodd" d="M95.7721 10.476V27.0033H34.8462C32.6463 26.8668 30.8313 28.6718 30.9523 30.874L30.9497 33.1407H95.6535V49.3148H30.9239L30.9419 51.5299C31.0049 53.3436 32.5924 55.2996 34.5625 55.0989H95.7721V71.6262H25.8283C17.2367 72.261 9.24692 65.2629 9.44277 56.476L9.45309 26.2915C8.85449 17.4493 15.9153 10.1661 24.6807 10.4528L95.7721 10.476ZM100.772 10.3522H122.137V54.9777H187.772V71.6211H100.772V10.3522ZM247.979 10.7081H273.477L237.354 40.5753L274.068 71.3864H247.269L212.737 42.463L212.683 71.3864H191.787V10.7081H212.683L212.559 36.0883L247.979 10.7081Z" fill="#259BFF"/>
</svg>
