<svg width="300" height="50" viewBox="0 0 300 50" fill="none" xmlns="http://www.w3.org/2000/svg">
<g clip-path="url(#clip0_4805_304)">
<path d="M0 38.9961V49.4504H29.3969L33.8459 38.9961H0Z" fill="#0099FA"/>
<path d="M0 26.3518V36.9721L36.9438 31.7946L41.7554 20.4775L0 26.3518Z" fill="#0099FA"/>
<path d="M0 13.3085V24.2606L45.117 12.6447L50.4888 0L0 13.3085Z" fill="#0099FA"/>
<path fill-rule="evenodd" clip-rule="evenodd" d="M137.33 11.5063C140.343 9.47871 143.886 8.39648 147.51 8.39648C152.369 8.39648 157.03 10.3406 160.466 13.8011C163.903 17.2617 165.834 21.9552 165.834 26.8492C165.834 30.4988 164.759 34.0663 162.745 37.101C160.732 40.1354 157.87 42.5006 154.522 43.8973C151.174 45.2939 147.489 45.6594 143.935 44.9473C140.38 44.2354 137.116 42.4779 134.553 39.8972C131.99 37.3166 130.245 34.0286 129.538 30.449C128.831 26.8696 129.194 23.1594 130.581 19.7877C131.968 16.4158 134.316 13.5339 137.33 11.5063ZM142.163 34.907C143.746 35.9718 145.606 36.5402 147.51 36.5402V36.5069C150.056 36.5069 152.499 35.4905 154.303 33.6803C156.107 31.8701 157.124 29.4135 157.133 26.8492C157.133 24.9325 156.569 23.0588 155.511 21.4652C154.454 19.8714 152.951 18.6294 151.192 17.8959C149.434 17.1623 147.499 16.9705 145.632 17.3445C143.766 17.7183 142.051 18.6412 140.705 19.9967C139.359 21.352 138.443 23.0788 138.071 24.9585C137.7 26.8385 137.891 28.787 138.619 30.5578C139.347 32.3285 140.581 33.842 142.163 34.907ZM244.863 8.76221L232.241 38.8308L229.868 44.5392H240.15L242.656 38.2002H256.266L258.836 44.5392H269.316L254.288 8.76221H244.863ZM245.522 30.5337L249.509 20.5773L253.431 30.5337H245.522ZM184.917 9.0273H169.79V44.5387H179.677V34.3831H184.554C188.482 34.586 192.361 33.4134 195.529 31.0643C196.919 29.9401 198.023 28.4991 198.752 26.8603C199.479 25.2214 199.808 23.4316 199.714 21.6389C199.803 19.8936 199.492 18.1511 198.806 16.5458C198.12 14.9404 197.079 13.515 195.76 12.3793C192.666 9.97853 188.814 8.7877 184.917 9.0273ZM188.212 25.4223C187.052 26.2505 185.644 26.6492 184.225 26.5508H179.578V17.2912H184.159C185.637 17.2086 187.099 17.6294 188.311 18.4859C188.789 18.8924 189.17 19.4015 189.427 19.9758C189.684 20.5503 189.809 21.1752 189.794 21.8048C189.847 22.4828 189.742 23.1639 189.483 23.7926C189.226 24.4213 188.824 24.9797 188.311 25.4223H188.212ZM82.3253 30.5339H72.4384V36.1758H91.3882V44.5392H62.7822V9.02783H91.3553L91.3223 9.09421L87.8289 17.3912H72.4384V22.7678H85.5549L82.3253 30.5339ZM202.977 9.02783H212.764V35.9103H228.221L224.595 44.5392H202.977V9.02783ZM281.743 21.9713L289.058 9.02783H300L286.588 31.0981V44.5392H276.767V31.2308L263.354 9.02783H274.492L281.743 21.9713ZM120.257 9.02783L112.249 31.4963L104.241 9.02783H93.2993L107.602 44.8048H116.665L131.001 9.02783H120.257Z" fill="white"/>
</g>
<defs>
<clipPath id="clip0_4805_304">
<rect width="300" height="49.4506" fill="white"/>
</clipPath>
</defs>
</svg>
