<svg width="300" height="106" viewBox="0 0 300 106" fill="none" xmlns="http://www.w3.org/2000/svg">
<g clip-path="url(#clip0_2000_30)">
<path d="M43.8926 74.5298L53.0746 58.9842L62.1712 74.6943L80.6887 43.4002L71.5598 43.4L80.6632 27.7588H107.668L62.0991 105.495L43.8926 74.5298Z" fill="white"/>
<path d="M34.4387 58.4507L43.8928 74.5297L53.0748 58.9841L53.0782 58.978L44.0557 43.4023H62.3609L71.4643 27.761L34.574 27.7607L27.4047 15.6468L78.6745 15.73L87.7772 0.0901629L0 0L25.6868 43.4023H25.7268L34.4387 58.4507Z" fill="#D71A20"/>
<path d="M139.24 33.4494H125.194V41.2189H136.703V46.9635H125.194V58.7826H118.852V27.7049H139.24V33.4494Z" fill="white"/>
<path d="M170.057 45.9276C170.057 54.2621 164.42 59.3476 156.903 59.3476C149.34 59.3476 143.749 54.2621 143.749 45.9276V27.7049H150.091V46.3985C150.091 51.0602 153.051 53.4615 156.903 53.4615C160.802 53.4615 163.715 51.0602 163.715 46.3985V27.7049H170.057V45.9276Z" fill="white"/>
<path d="M204.821 33.873L200.311 37.5932C198.244 34.7209 195.473 33.0254 191.667 33.0254C185.653 33.0254 181.707 37.3106 181.707 43.2434C181.707 49.2706 185.795 53.6501 192.042 53.6501C195.661 53.6501 198.525 52.1432 200.217 49.7888V47.2459H191.667V41.7366H206.56V50.9188C203.835 55.816 198.385 59.3476 191.761 59.3476C182.459 59.3476 175.177 52.3787 175.177 43.2434C175.177 34.1086 182.411 27.1396 191.761 27.1396C197.304 27.1396 201.862 29.6354 204.821 33.873Z" fill="white"/>
<path d="M229.908 54.7331H217.224L215.485 58.7826H208.674L222.532 27.1396H224.647L238.458 58.7826H231.646L229.908 54.7331ZM223.566 39.0058L219.432 49.5061H227.7L223.566 39.0058Z" fill="white"/>
<path d="M262.463 33.0254L258.141 36.3688C256.638 34.1085 254.759 32.7904 252.222 32.7904C250.155 32.7904 248.37 33.7319 248.37 35.8039C248.37 37.5932 249.733 38.3465 251.988 39.3823L255.511 40.9363C260.396 43.1024 263.169 45.5977 263.169 50.024C263.169 55.816 258.471 59.3476 252.316 59.3476C246.961 59.3476 242.639 56.6165 240.338 52.4728L244.706 49.1765C246.397 51.5308 248.606 53.6969 252.316 53.6969C255.041 53.6969 256.732 52.4257 256.732 50.2596C256.732 48.2349 255.229 47.5288 252.786 46.3985L249.451 44.8916C245.035 42.8669 241.935 40.3243 241.935 35.945C241.935 30.577 246.397 27.1396 252.222 27.1396C257.156 27.1396 260.632 29.6354 262.463 33.0254Z" fill="white"/>
<path d="M300 43.2434C300 52.3787 292.575 59.3476 283.462 59.3476C274.348 59.3476 267.019 52.3787 267.019 43.2434C267.019 34.1086 274.348 27.1396 283.462 27.1396C292.575 27.1396 300 34.1086 300 43.2434ZM273.55 43.2434C273.55 49.2706 277.73 53.4613 283.51 53.4613C289.193 53.4613 293.469 49.2706 293.469 43.2434C293.469 37.2635 289.193 33.0254 283.51 33.0254C277.73 33.0254 273.55 37.2635 273.55 43.2434Z" fill="white"/>
</g>
<defs>
<clipPath id="clip0_2000_30">
<rect width="300" height="105.495" fill="white"/>
</clipPath>
</defs>
</svg>
