<svg xmlns="http://www.w3.org/2000/svg" xml:space="preserve" id="Слой_1" x="0" y="0" style="enable-background:new 0 0 375 60" version="1.1" viewBox="0 0 375 60"><style>.st0{fill:#f0f0f0}.st1{fill:#2bdc24}</style><path d="M49.6 27.4v5.4c0 10.6-5.7 20.9-20.1 20.9S7.3 43.9 7.3 30 15.1 6.2 29.5 6.2c10.5 0 17.1 5.5 18.9 13.9h-10c-1-3.4-4-5.4-8.9-5.4-8.2 0-12.3 6.5-12.3 15.2s4.1 15.3 12.4 15.3c7.1 0 10.3-4.2 10.5-10h-11v-7.8h20.5zM83.2 40.5H65.8L62 52.9h-9.4L67.2 7H82l14.7 45.9H87l-3.8-12.4zm-15-8.3h12.5l-4.8-15.9H73l-4.8 15.9zM101.5 7h14.7l7.5 18.5h1.7L132.9 7h14.8v45.9h-8.9V18.7h-1.7l-7.7 18.5h-9.6l-7.6-18.5h-1.7v34.2h-8.9V7zM181.2 44.4l-1.4 8.5h-23.2V7h31.2l-1.7 8.5h-19.9v9.6h18.4l-1.5 8.3h-16.9v10.8h15z" class="st0"/><path d="M219.2 29.8c3.2 1.8 5.2 5.2 5.1 8.9 0 9.6-7.8 14.1-16.6 14.1h-19.9l8-45.9H214c6.5 0 12.4 3.6 12.4 10.5.1 4.7-2.7 9.1-7 11l-.2 1.4zm-12.1 19.3c7 0 13-3 13-10.5 0-5.7-5-7.8-10-7.8H196L192.8 49h14.3zM196.7 27h14.2c6.2 0 11.4-2.3 11.4-9.1 0-4.9-4.3-6.9-8.6-6.9h-14.1l-2.9 16zM248.1 49.1l-2 3.9h-17.8l8-45.9h33.8l-2 3.9h-28.2L237 27.1h22.5l-2 3.9h-21.2l-3.2 18.1h15zM295.1 52.9h-4.4l-2.6-14.8h-20.7l-7.7 14.8h-4.6l24-45.9h7.8l8.2 45.9zm-25.7-18.7h18l-3.9-22.7h-2.4l-11.7 22.7zM330.8 10.9h-15.2l-7.4 42H304l7.4-42h-15.2l.6-3.9h34.7l-.7 3.9z" class="st1"/><linearGradient id="SVGID_1_" x1="352.669" x2="352.669" y1="53.282" y2="10.607" gradientUnits="userSpaceOnUse"><stop offset=".2" style="stop-color:#2bdc24;stop-opacity:0"/><stop offset="1" style="stop-color:#2bdc24"/></linearGradient><path d="M361 52.9h-24.9L344.3 7h24.9z" style="fill:url(#SVGID_1_)"/><linearGradient id="SVGID_2_" x1="339.713" x2="339.713" y1="6.843" y2="55.33" gradientUnits="userSpaceOnUse"><stop offset=".2" style="stop-color:#2bdc24;stop-opacity:0"/><stop offset="1" style="stop-color:#2bdc24"/></linearGradient><path d="M347.9 52.9H323L331.5 7h24.9z" style="fill:url(#SVGID_2_)"/></svg>