<svg width="300" height="67" viewBox="0 0 300 67" fill="none" xmlns="http://www.w3.org/2000/svg"><path d="M33.873 32.578h31.638l.094 2.651a30.708 30.708 0 0 1-.424 5.032.7.7 0 0 0-.528.546c-1.52 6.006-4.269 11.591-8.374 16.267-4.038 4.592-9.777 7.06-15.727 8.033-6.134 1-12.774.615-18.56-1.751-5.56-2.268-10.91-5.634-14.494-10.544-4.02-5.491-6.18-12.047-7.173-18.723a.704.704 0 0 0 .061-.178c.121-.7.143-1.393.166-2.094.01-.328.021-.658.042-.992.052-.838.319-1.641.584-2.44.066-.2.132-.4.195-.6.25-.8.443-1.613.636-2.425.258-1.085.516-2.17.909-3.225.09-.24.18-.479.272-.717.248-.644.494-1.286.696-1.95.263-.986.635-1.94 1.11-2.843.187-.332.365-.673.54-1.017.233-.277.497-.55.766-.829.799-.825 1.631-1.685 1.745-2.774a14.093 14.093 0 0 1 2.32-2.571.815.815 0 0 0 .853-.746.811.811 0 0 0 .093-.54C17.401 2.718 24.947.003 33.953.003A38.836 38.836 0 0 1 49.3 3.043c4.02 1.71 7.954 4.647 11.802 8.808l-8.43 8.337c-5.334-5.644-11.553-8.465-18.659-8.465-6.19.001-11.375 2.053-15.553 6.155-4.179 4.102-6.268 9.09-6.268 14.962-.002 6.07 2.166 11.212 6.504 15.43 4.337 4.217 9.687 6.326 16.05 6.326 4.145-.006 7.636-.875 10.472-2.607 2.837-1.731 5.127-4.453 6.87-8.166H33.872V32.578Z" fill="#fff"/><path fill-rule="evenodd" clip-rule="evenodd" d="M94.773 9.125H83.991L62.45 64.98H73.5l4.543-11.504h22.791l4.372 11.504h11.048L94.773 9.125Zm-12.816 33.98 7.493-19.17 7.45 19.17H81.957Z" fill="#fff"/><path d="M129.895 9.125h10.358l12.95 38.96 13.066-38.96h10.352l9.382 55.855h-10.287l-5.997-35.275-11.864 35.275h-9.37l-11.761-35.275-6.128 35.275h-10.37l9.669-55.855ZM225.291 9.125h-33.795v10.518h18.165l-19.79 45.34h34.133V54.769h-18.598l19.885-45.644ZM232.582 9.125h10.557V64.98h-10.557V9.125ZM263.434 9.125h-11.961l17.712 27.058-18.892 28.797h12.03l12.858-19.637L288.04 64.98H300l-18.836-28.774 17.721-27.081h-11.947l-11.764 17.933-11.74-17.933Z" fill="#fff"/><path d="M17.925 57.135c.94.117 1.94.221 2.992.305 5.992.48 13.934.183 20.513-1.664 6.688-1.87 12.956-5.719 17.197-9.352 3.23-2.777 5.308-5.425 6.2-6.562.346-.44.514-.654.502-.56a31.166 31.166 0 0 1-4.007 11.574c-2.849 4.933-6.54 8.695-11.074 11.287-4.534 2.592-9.85 3.888-15.946 3.89-3.483 0-6.764-.404-9.845-1.21a28.969 28.969 0 0 1-8.712-3.498c-3.836-2.338-6.164-5-7.745-6.836A30.892 30.892 0 0 1 .561 39.163a33.097 33.097 0 0 1 1.403-17.3A31.756 31.756 0 0 1 8.002 11.41a33.232 33.232 0 0 1 3.46-3.386s-1.28 5.707-2.277 12.929c-1.402 10.232.999 19.464.999 19.464a48.629 48.629 0 0 0 5.505 13.354 47.421 47.421 0 0 0 2.236 3.365Z" fill="url(#a)"/><path d="M247.116 8.103C247.013 6.89 245.536 0 237.713 0c-7.497 0-9.141 8.103-9.141 8.103.725-.877 4.08-3.077 9.272-3.077s8.545 2.2 9.272 3.077Z" fill="#DEA329"/><defs><linearGradient id="a" x1="11.982" y1="61.814" x2="67.174" y2="49.19" gradientUnits="userSpaceOnUse"><stop offset=".01" stop-color="#918C85"/><stop offset="1" stop-color="#DEA329"/></linearGradient></defs></svg>