<svg xmlns="http://www.w3.org/2000/svg" fill="none" viewBox="0.5 0.05 12 12">
    <path d="M1.25 6.36778V10.8678C1.25 11.2818 1.58675 11.6178 2 11.6178H5.75V6.36778H1.25ZM11.75 3.36778H9.377C9.54725 3.25153 9.6935 3.13603 9.7955 3.03253C10.4008 2.42428 10.4008 1.43428 9.7955 0.82603C9.2075 0.23353 8.183 0.23503 7.59575 0.82603C7.27025 1.15228 6.40775 2.48053 6.527 3.36778H6.473C6.5915 2.48053 5.729 1.15228 5.40425 0.82603C4.81625 0.23503 3.79175 0.23503 3.2045 0.82603C2.6 1.43428 2.6 2.42428 3.20375 3.03253C3.3065 3.13603 3.45275 3.25153 3.623 3.36778H1.25C0.83675 3.36778 0.5 3.70453 0.5 4.11778V5.24278C0.5 5.44978 0.668 5.61778 0.875 5.61778H5.75V4.11778H7.25V5.61778H12.125C12.332 5.61778 12.5 5.44978 12.5 5.24278V4.11778C12.5 3.70453 12.164 3.36778 11.75 3.36778ZM5.70575 3.34303C5.70575 3.34303 5.67425 3.36778 5.567 3.36778C5.04875 3.36778 4.0595 2.82928 3.73625 2.50378C3.422 2.18728 3.422 1.67128 3.73625 1.35478C3.8885 1.20178 4.09025 1.11778 4.30475 1.11778C4.5185 1.11778 4.72025 1.20178 4.8725 1.35478C5.378 1.86328 5.8805 3.16228 5.70575 3.34303ZM7.43225 3.36778C7.32575 3.36778 7.29425 3.34378 7.29425 3.34303C7.1195 3.16228 7.622 1.86328 8.1275 1.35478C8.42975 1.04953 8.9585 1.04803 9.26375 1.35478C9.57875 1.67128 9.57875 2.18728 9.26375 2.50378C8.9405 2.82928 7.95125 3.36778 7.43225 3.36778ZM7.25 6.36778V11.6178H11C11.414 11.6178 11.75 11.2818 11.75 10.8678V6.36778H7.25Z" fill="#010100"/>
</svg>
