<svg xmlns="http://www.w3.org/2000/svg" width="16" height="16" fill="none" viewBox="0 0 16 16"><g clip-path="url(#a)"><path fill="#010100" d="M10.065 3.066A4.617 4.617 0 0 0 7.522.426 4.622 4.622 0 0 0 3.5.64a4.622 4.622 0 0 0 2.668 3.016c.42.177.853.286 1.284.334A6.328 6.328 0 0 0 5.34 5.47a6.98 6.98 0 0 0-1.632 2.877 7.086 7.086 0 0 0-.262 1.555 1.978 1.978 0 0 0-.259-.096c-.63-.177-1.105-.138-1.558.169-.66.447-.987 1.23-1.104 2.02a3.435 3.435 0 0 0 2.884 3.902 3.435 3.435 0 0 0 3.897-2.892c.118-.79.033-1.634-.467-2.254-.344-.425-.787-.601-1.441-.615a2.75 2.75 0 0 0-.462.041c.01-.474.081-.952.215-1.418a5.48 5.48 0 0 1 1.278-2.257 4.738 4.738 0 0 1 2.067-1.296c.286-.086.575-.14.864-.164a6.64 6.64 0 0 0 1.071 5.004 2.198 2.198 0 0 0-.337.056c-.634.166-1.023.44-1.258.934-.343.72-.229 1.56.07 2.3a3.435 3.435 0 0 0 4.464 1.905 3.435 3.435 0 0 0 1.896-4.468c-.299-.74-.8-1.425-1.545-1.706-.512-.193-.983-.12-1.555.199-.104.058-.2.13-.294.204a5.139 5.139 0 0 1 .115-6.557.75.75 0 0 0-1.138-.977c-.3.35-.562.73-.783 1.13Z"/></g><defs><clipPath id="a"><path fill="#fff" d="M0 0h16v16H0z"/></clipPath></defs></svg>