<svg xmlns="http://www.w3.org/2000/svg" width="97" height="40" fill="none" viewBox="0 0 97 40"><path fill="#FFD600" d="M34.161 0H.205v8.054h25.913v7.538l-.113.114.026.022L9.84 31.89H8.044v-9.984h.007c1.635 0 3.221.216 4.724.63l6.234-6.268A25.9 25.9 0 0 0 8.05 13.853H0v26.092h13.172l9.93-9.943A18.008 18.008 0 0 1 26.118 40h8.043a26.029 26.029 0 0 0-5.297-15.768l5.297-5.305V0Z"/><path fill="#fff" d="M45.165 35.035V4.965h15.357c2.06 0 3.89.416 5.49 1.246 1.602.802 2.846 1.933 3.733 3.394.915 1.432 1.373 3.079 1.373 4.94 0 1.89-.515 3.58-1.545 5.069-1.03 1.489-2.388 2.62-4.075 3.393l6.563 12.028h-8.236L58.163 24.08h-5.62v10.954h-7.378Zm7.378-16.968h7.293c1.144 0 2.059-.315 2.745-.945.715-.63 1.072-1.446 1.072-2.448s-.357-1.819-1.072-2.449c-.686-.63-1.601-.945-2.745-.945h-7.293v6.787ZM76.967 35.035l12.87-24.227H73.534V4.966H97v4.94L84.903 35.035h-7.936Z"/></svg>