<svg width="300" height="113" viewBox="0 0 300 113" fill="none" xmlns="http://www.w3.org/2000/svg">
<path d="M57.1289 24.3242H100.069V37.0117H70.3289V50.599H95.6689V63.4564H70.3289V77.5536H100.069V90.0511H57.1289V24.3242Z" fill="white"/>
<path d="M120.966 36.9067H106.141V24.3242H149.426V36.9067H134.171V90.0711H120.966V36.9067Z" fill="white"/>
<path d="M0 24.3242H11.835L36.875 63.9263H37.045V24.3242H50.25V90.0711H38.37L13.37 50.2141H13.2V90.0711H0V24.3242Z" fill="white"/>
<path d="M201.341 24.3242H213.176L238.216 63.9263H238.386V24.3242H251.591V90.0711H239.711L214.711 50.2141H214.536V90.0711H201.336L201.341 24.3242Z" fill="#78BE20"/>
<path d="M271.97 36.9067H257.145V24.3242H300V36.9067H285.175V90.0711H271.97V36.9067Z" fill="#78BE20"/>
<path d="M194.845 37.0569V24.3244H160.745V0.914062H158.27V112.712H160.745V90.1163H194.845V77.5538H165.105V63.4566H190.4V50.5992H165.105V37.0569H194.845Z" fill="#78BE20"/>
</svg>
