<svg width="300" height="81" viewBox="0 0 300 81" fill="none" xmlns="http://www.w3.org/2000/svg">
<path d="M75.7555 77.0568C74.4218 77.5705 73.0121 77.8605 71.5836 77.9152C68.8468 77.9133 67.4808 76.0978 67.486 72.4699C67.486 70.7131 67.8453 69.3547 68.5602 68.3703C69.2469 67.4175 70.4162 66.8498 71.5914 66.9025C72.8876 66.9147 74.1054 67.4445 75.2594 67.9885L76.3727 65.173C74.888 64.4272 73.2533 64.0272 71.5914 64.0021C68.793 63.937 66.0529 65.3865 64.8453 67.965C64.2013 69.3597 63.8768 70.8945 63.9039 72.4308C63.8937 75.1271 64.5226 77.1965 65.7907 78.6379C67.059 80.0793 68.882 80.801 71.2594 80.801C72.7994 80.8215 74.328 80.5353 75.7555 79.9572V77.0568Z" fill="white"/>
<path d="M119.298 64.2404H122.763V80.5744H119.298V64.2404Z" fill="white"/>
<path d="M177.689 64.2404V67.1252H173.248V80.5744H169.787V67.1252H165.349V64.2404H177.689Z" fill="white"/>
<path d="M227.08 74.2189L232.505 64.2404H228.771L225.361 70.9631L221.974 64.2404H218.216L223.638 74.3283V80.5744H227.08V74.2189Z" fill="white"/>
<path d="M237.109 20.8338H229.48C228.813 20.8338 228.699 20.7363 228.629 20.1151C228.481 18.5995 228.085 17.119 227.457 15.7313C225.938 12.4676 223.348 10.6795 219.82 10.2655C215.094 9.65573 210.049 11.5445 208.102 16.1336C207.565 17.3651 207.212 18.6678 207.055 20.0018C207.009 20.3277 207.071 20.7892 206.629 20.8182H198.152C197.717 20.8501 197.722 20.3578 197.676 20.066C197.349 18.013 196.681 16.0537 195.523 14.3104C193.894 11.8302 191.087 10.2727 188.121 10.2001C186.78 10.1053 185.433 10.2079 184.121 10.5038C180.746 11.328 178.441 13.3924 177.125 16.5741C176.655 17.6805 176.352 18.8504 176.227 20.0448C176.148 20.826 176.137 20.826 175.305 20.826H167.449C166.998 20.826 166.902 20.7212 166.949 20.2362C166.996 19.7518 167.07 19.1825 167.16 18.6747C167.7 15.2792 168.946 12.035 170.816 9.14927C174.539 3.53549 180.853 0.854955 187.434 0.923689C191.94 0.923689 196.113 2.82354 199.322 5.91881C200.164 6.73082 200.946 7.606 201.66 8.53697C201.855 8.78209 202.051 9.03599 202.246 9.28209C202.343 9.44623 202.588 9.44551 202.684 9.28209C202.914 9.01256 203.137 8.73912 203.359 8.46666C204.505 7.02916 205.816 5.73131 207.266 4.60142C210.273 2.25767 213.968 0.965681 217.781 0.923689C224.253 0.735241 230.652 3.53574 234.129 9.1649C235.859 11.9266 237.032 14.9989 237.582 18.2098C237.695 18.8348 237.773 19.4676 237.844 20.0995C237.914 20.8338 237.891 20.8338 237.109 20.8338Z" fill="#FBF800"/>
<path d="M92.8789 31.9364C92.1079 34.9188 90.761 37.7225 88.9141 40.1893C84.7484 45.5977 78.0964 48.086 71.4219 48.1991C60.5603 48.6259 50.6179 42.5788 47.7844 31.617C47.1062 28.9922 47.109 26.4636 47.094 23.7616C47.0761 23.5347 47.266 23.3658 47.4846 23.371H55.762C56.2502 23.371 56.3284 23.453 56.3362 23.9178L56.3308 24.66C56.3087 26.7907 56.4792 28.8714 57.2581 30.8817C58.9463 35.3583 63.1282 38.4104 67.8557 38.8338C74.9197 39.6335 81.6894 36.3942 83.9336 29.2928C84.3891 27.763 84.3445 26.2461 84.3672 24.6747C84.3711 24.4032 84.375 24.1317 84.375 23.8592C84.375 23.496 84.4727 23.3905 84.7969 23.3905H93.1719C93.4961 23.3905 93.5625 23.4881 93.5859 23.8631C93.6797 26.5682 93.6172 29.2772 92.8789 31.9364Z" fill="#FBF800"/>
<path d="M93.0547 20.8338C93.4648 20.8338 93.5625 20.7323 93.543 20.3426C93.5232 20.024 93.4803 19.7089 93.4336 19.3934C92.6914 15.0408 90.7509 10.8892 87.7656 7.62388C82.9015 2.44073 75.7111 0.574735 68.7852 0.963728C62.0543 1.20588 55.482 3.90743 51.418 9.46568C49.0833 12.6861 47.7517 16.3894 47.1289 20.2879C47.0585 20.7369 47.1534 20.8456 47.6445 20.8456H55.8086C56.2638 20.8456 56.2966 20.8159 56.3867 20.284C56.634 18.7487 57.186 17.2648 58.0039 15.9422C59.6328 13.3114 62.0156 11.7186 64.9414 10.868C67.167 10.2811 69.4734 10.0643 71.7695 10.2235C73.5056 10.2909 75.22 10.6346 76.8477 11.242C80.897 12.8036 83.3594 15.7098 84.2344 19.9598C84.375 20.7054 84.6262 20.8338 85.2109 20.8338H93.0547Z" fill="#FBF800"/>
<path d="M37.6719 20.2049C37.6719 20.7675 37.6178 20.8252 37.0859 20.8456H28.8203C28.6121 20.8688 28.4081 20.6671 28.4297 20.4549C28.4185 19.7469 28.344 19.0419 28.207 18.3475C27.9375 16.7753 27.3064 15.2879 26.3633 14.0018C24.8672 11.996 22.8008 10.9452 20.4023 10.4891C19.5707 10.3188 18.724 10.2335 17.875 10.2352H9.60547C9.51709 10.2372 9.43066 10.2772 9.37109 10.3417C9.31201 10.4081 9.28174 10.4979 9.28906 10.5858V19.9051C9.28906 20.3045 9.28906 20.537 9.22168 20.6717C9.12842 20.8573 8.90601 20.8573 8.37524 20.8573H0.945312C0.730225 20.8641 0.514893 20.8563 0.300781 20.8338C0.157887 20.828 0.0332102 20.7032 0.0273438 20.5604C0.00116989 20.3074 0.0019458 20.0537 0 19.7997V1.97447C0.00771439 1.38561 0.0639555 1.15408 0.689209 1.15025H9.92578C12.4688 1.15025 15.0117 1.18123 17.5547 1.15025C19.2508 1.12182 20.9414 1.34036 22.5742 1.79869C25.5608 2.56334 28.3628 3.92174 30.8125 5.79185C34.9476 8.97608 37.8797 14.7796 37.6719 20.2049Z" fill="#FBF800"/>
<path d="M132.812 40.1424C132.817 39.0337 132.682 38.937 131.578 38.9286H114.055C113.843 38.9272 113.5 38.915 113.37 38.8055C113.262 38.628 113.26 37.9883 113.262 37.6639C113.262 33.1841 113.398 28.6813 113.25 24.204C113.244 24.0272 113.238 23.8514 113.238 23.6756C113.239 23.4917 113.074 23.3399 112.891 23.3602H105.258C103.969 23.3641 104.086 23.2547 104.086 24.5663V47.1385C104.086 47.3966 104.024 47.762 104.135 48.0067C104.191 48.1295 104.318 48.2052 104.453 48.1961H132.469C132.645 48.2079 132.812 48.0501 132.812 47.8758V40.1424Z" fill="#FBF800"/>
<path d="M300 9.85142C299.996 9.95754 299.949 10.0463 299.871 10.1151C299.723 10.2069 299.123 10.2069 298.809 10.2069H290.324C289.76 10.2069 289.534 10.2069 289.444 10.411C289.384 10.5448 289.383 10.7665 289.383 11.1327V20.3573C289.383 20.7474 289.298 20.8417 288.859 20.8417H280.586C280.393 20.866 280.237 20.7418 280.182 20.5672C280.168 20.2117 280.145 19.854 280.145 19.4979V10.9256C280.125 10.2577 280.098 10.2108 279.406 10.2108H270.707C269.829 10.2108 269.449 10.2652 269.288 10.1034C269.127 9.94224 269.184 9.56529 269.18 8.70396V2.12974C269.18 1.84817 269.183 1.56778 269.203 1.28697C269.194 1.10661 269.352 0.947077 269.531 0.951032H298.699C298.898 0.951032 299.096 0.951032 299.296 0.955915C299.553 0.964923 299.992 0.923663 300 1.29088V9.85142Z" fill="#FBF800"/>
<path d="M258.516 47.3797V47.2782C258.513 39.6502 258.514 32.0194 258.52 24.3866C258.52 24.0802 258.667 23.328 258.129 23.328H250.18C249.249 23.3241 249.249 23.3338 249.253 24.0907L249.254 24.2616V47.6688C249.27 48.1063 249.344 48.1805 249.734 48.204H257.68C258.516 48.2001 258.516 48.1922 258.516 47.3797Z" fill="#FBF800"/>
<path d="M237.441 48.1952H229.598C228.579 48.1952 228.668 47.9996 228.668 46.9461V24.2762C228.668 23.2921 228.584 23.3163 229.664 23.3163H236.875C237.971 23.3163 237.918 23.4716 237.918 24.5692V47.2391C237.937 47.7069 237.997 48.1404 237.441 48.1952Z" fill="#FBF800"/>
<path d="M198.699 48.2069H206.293C207.069 48.2047 207.03 48.1443 207.023 47.1376V24.5731C207.023 23.6763 207.133 23.3418 206.237 23.3241H198.785C197.757 23.3241 197.757 23.3378 197.761 24.2088L197.762 24.3973V47.2782C197.778 48.0613 197.868 48.2033 198.699 48.2069Z" fill="#FBF800"/>
<path d="M154.152 47.6024C154.129 48.1405 154.082 48.203 153.523 48.203H145.359C144.969 48.1795 144.898 48.1053 144.883 47.6766V24.1512C144.883 23.3436 144.883 23.3319 145.715 23.328H153.77C153.877 23.328 153.984 23.3749 154.057 23.453C154.133 23.536 154.164 23.64 154.16 23.7499L154.152 47.6024Z" fill="#FBF800"/>
<path d="M8.47656 47.8563C9.11783 47.8563 9.25391 47.5821 9.25391 46.7821V23.6835C9.25576 23.5057 9.08959 23.3476 8.91406 23.3553C8.66797 23.3319 8.42188 23.3319 8.17188 23.3319H0.554688C0.212446 23.3537 0.0273438 23.4499 0.0273438 23.8241V47.4657C0.0273438 47.7313 0.179688 47.8563 0.417969 47.8563H8.47656Z" fill="#FBF800"/>
<path d="M37.0547 48.204H29.0039C28.3133 48.1785 28.4177 47.7326 28.4062 47.1454V24.5965C28.4062 23.7991 28.5624 23.6678 29.3438 23.6678H37.1914C37.582 23.6678 37.6523 23.7694 37.6719 24.1952V46.8524C37.6906 47.4703 37.6719 48.204 37.0547 48.204Z" fill="#FBF800"/>
<path d="M176.117 47.8524L176.125 23.785C176.098 23.4569 176.008 23.3592 175.652 23.3592H167.805C166.787 23.3592 166.934 23.5988 166.934 24.6708V47.661C166.949 48.1249 167.004 48.1717 167.512 48.1913H175.781C175.972 48.1744 176.107 48.0463 176.117 47.8524Z" fill="#FBF800"/>
<path d="M288.359 48.2069H280.516C280.33 48.211 280.176 48.0516 280.18 47.868V24.659C280.18 23.3649 280.069 23.3638 281.103 23.3768L281.508 23.3788H288.188L288.603 23.3807C288.867 23.3861 289.385 23.3348 289.359 23.7381V47.161C289.367 48.2632 289.417 48.2069 288.359 48.2069Z" fill="#FBF800"/>
<path d="M257.879 20.8446C258.688 20.8389 258.527 20.1119 258.508 19.5057V1.48228C258.489 1.0324 258.34 0.940177 257.938 0.931501H249.773C249.344 0.958845 249.277 1.03306 249.254 1.42369V20.2948C249.273 20.7665 249.344 20.8446 249.82 20.8446H257.879Z" fill="#FBF800"/>
<path d="M145.906 20.8338C144.73 20.8338 144.899 20.6246 144.883 19.6776V1.86412C144.883 1.3817 144.883 1.14439 145.001 1.02818C145.116 0.915876 145.34 0.915876 145.782 0.915876H153.227C154.101 0.926338 154.148 1.05263 154.148 1.96959V19.7948C154.154 20.6317 154.106 20.8357 153.234 20.8338H145.906Z" fill="#FBF800"/>
<path d="M113.281 19.8924V1.33775C113.288 1.23133 113.249 1.12462 113.176 1.04576C113.102 0.969149 112.997 0.923689 112.891 0.923689L105.273 0.935407C104.638 0.935407 104.344 0.90904 104.21 1.04185C104.073 1.17857 104.102 1.48228 104.102 2.15318V20.4823C104.097 20.5701 104.128 20.659 104.188 20.7254C104.247 20.7898 104.334 20.8291 104.422 20.8329H112.375C113.281 20.8329 113.281 20.8329 113.281 19.8924Z" fill="#FBF800"/>
</svg>
