<svg xmlns="http://www.w3.org/2000/svg" width="300" height="301" fill="none" viewBox="0 0 300 301"><path fill="#fff" fill-rule="evenodd" d="M221.699 1.7c5.4.9 49.6 30.5 54.1 37.1 4.5 6.6 11.6 50.1 8.3 59.5-3.5 9.501-20.3 33.601-24.8 36.401-4.5 2.9-31.5 6.6-31.7 5.9-.097-.228 1.258-2.539 3.232-5.906 4.112-7.012 10.909-18.604 12.868-25.494 2.9-10.1-.6-31.1-4.3-36.1-3.7-5-32.5-15.5-34.4-15.9-1-.2-5.6.8-9.9 1.9 6.3 1.2 13.4 3.1 14.8 4.2 2.7 2.2 14.8 16.7 15.3 23.3.5 6.9-4.4 29.8-8.4 32.9-1.3 1.1-4.7 2.3-8.7 3.4 1.4 2.2 4.3 6.9 6.6 12.4 3.3 7.7 5.7 13.9 4.5 14.8-1.2.8-22.1-5-23.1-7.1-.7-1.4-.9-11.3-1-17-.456.091-.902.182-1.336.271-1.469.301-2.806.574-3.964.729-.32 7.996-1.087 28.207-1.433 37.313l-.167 4.387c-.1 1.1-.2 5.8-.3 11.3l1.484.906c6.416 3.92 18.008 11.001 19.116 11.094.753.047 2.947-4.206 5.319-8.803 2.666-5.169 5.558-10.774 6.881-11.197 2.4-.7 12.3 3.2 15.1 4.8 2.9 1.6 10.4 6.6 10.8 8.9.5 2.8-8.1 13.9-9.9 15.1-2.4 1.6-10.5 5.8-15.5 5.6-5.6-.2-19.5-7.8-21.7-9.1l-1.643-1.052c-2.279-1.459-6.312-4.042-9.957-6.348l-.058 3.525c-.077 4.716-.142 8.663-.142 10.275 0 2.78 1.051 13.227 1.95 22.162.718 7.135 1.339 13.305 1.25 13.838-.2 1.2-29.3 4.2-34.1 3.3-4.8-.9-29.7-14.4-33.7-20.3-3.9-5.9-8.8-36.7-9.8-44.1-.842-5.617-1.597-34.891-1.936-48.044l-.064-2.456c-.574-.108-1.174-.216-1.8-.328-1.118-.201-2.318-.416-3.6-.672-.1 5.8-.3 14.5-1 15.9-1.1 2.1-21.9 8-23.1 7.1-1.2-.9 1.2-7.1 4.5-14.8 2.1-4.9 4.6-9.2 6.1-11.6-2.6-.8-4.8-1.7-5.8-2.5-4.1-3.1-12.3-25.7-11.8-32.5.5-6.6 16.7-26.4 19.5-27 .548-.118 1.572-.389 2.902-.74C99.27 60.412 102.08 59.67 105 59c-4.1-1-8.1-1.9-9-1.7-1.9.4-30.7 10.9-34.4 15.9-3.8 5-7.2 25.9-4.3 36.1 2.007 7.059 9.043 19.051 13.12 25.999 1.814 3.092 3.042 5.185 2.98 5.401-.3.7-27.2-3.1-31.7-5.9-4.5-2.8-21.3-26.9-24.8-36.4-3.6-9.5 3.5-53 8-59.6 4.5-6.6 48.7-36.2 54.1-37.1 5.4-.9 39 2.6 46.3 7.1 5.8 3.6 15 17.6 18.6 23.3 3.1-1 5.6-1.6 6.7-1.6 1.3 0 3.7.3 6.6 1 3.8-6 12.6-19.3 18.2-22.7 7.3-4.5 40.9-8 46.3-7.1Zm-134.9 87.9c0 4.7 4.6 20.201 6.6 22.001 2 1.9 17.8 6.3 22.4 6 4.422-.189 15.482-8.963 17.525-10.583l.275-.217c.9-.7 3.4-11 3.4-13s-2.8-13.3-4.4-15.9c-1.6-2.6-12.9-9.8-14.4-10-1.4-.2-17.2 1.5-20 3.2-2.8 1.7-11.4 15.1-11.4 18.5Zm38.5 94.101c0 1.2 19.8 13.5 25.2 13.5 5.8 0 25.7-13.4 25.7-14.6 0-.892-7.955-5.269-11.391-7.159a64.622 64.622 0 0 1-1.509-.841c-1.5-.9-10.9-5.8-12.8-6.4-1.7.6-11 5.7-11.9 6.3-1 .6-13.3 8-13.3 9.2Zm46.207-13.843c2.778 1.775 5.891 3.764 6.393 4.043.9.5-.1-17.6-.2-18.9 0-.991.575-9.615 1.108-17.605.328-4.911.64-9.583.792-12.095-6.2-2.5-14.3-6.7-16.3-8.6-2.9-2.7-9.1-18-9.7-22.2-.5-4.2 6.2-21.7 8.3-24.2 2.2-2.6 11.6-7.5 18.3-10.2.1-.9-10.5-12.6-12.5-14.1-2.6-1.9-14.5-4.2-17.2-4.4-2.7-.2-13.6 2.5-16.8 4.2-2.8 1.4-12.9 11.8-12.3 12.8 6.5 3 16.3 9.5 17.6 11.7 1.7 2.7 8.9 20 8.3 24.2-.6 4.3-3.9 16.7-6.8 19.5-2.1 2-12.3 8.6-19.4 12.1.5 5.4 1.4 26.1 1.4 28 0 .314-.017 1.272-.041 2.623-.106 5.963-.348 19.566.141 19.077 1.2-1.2 8.6-6 9.7-6.7 1.2-.8 9.1-5.2 14.2-7.6v-15.3c-6.1-5.7-17-16.5-15.2-17.6.9-.6 17-1.3 19.2-1.3 1.7 0 19.1.4 19.4 1.3.6 1.8-9.3 11.8-15.2 17.5v15.2c4.296 1.681 10.249 4.67 11.994 5.546l.306.154c.31.176 2.303 1.45 4.507 2.857ZM214.699 89.6c0-3.4-9.2-16.8-12-18.5-2.8-1.7-18.6-3.4-20-3.2-1.5.2-12.3 7.6-13.9 10.2-1.6 2.6-4.1 13.7-4.1 15.7s3.2 13.001 3.7 14.401c.4 1.1 12 9.2 16.7 9.4 4.7.2 20.4-4.2 22.4-6 2-1.8 7.2-17.2 7.2-22Zm-31.332-8.243c-1.752-1.678-3.354-3.212-3.668-3.257-.7-.1-5.3 4.8-5.2 5.9.044.526 1.566 2.07 3.22 3.747 2.121 2.15 4.461 4.523 4.18 5.254-.4 1.3-7.4 8.8-7.4 8.8 0 1.1 6 5.5 7.4 5.1.735-.211 2.353-2.379 3.855-4.391 1.356-1.819 2.618-3.51 3.045-3.51.451 0 2.284 2.01 4.101 4.003 1.808 1.982 3.6 3.947 3.999 3.898.8-.1 6.7-5.8 6.2-6.6-.212-.34-1.662-1.72-3.264-3.243-2.178-2.073-4.636-4.412-4.636-4.758 0-.236 1.291-1.577 2.829-3.175 2.364-2.455 5.313-5.519 5.071-6.124-.4-1-5.4-6-6.1-5.7-.7.2-3 2.4-3.7 3.2-.142.162-.391.472-.706.864-1.234 1.54-3.477 4.336-4.194 4.336-.496 0-2.878-2.281-5.032-4.344ZM15.199 298.8h6.1v-12.4h4.2c7.8 0 12.2-5.3 12.2-11.9 0-6.3-4.3-11.8-12.7-11.8h-9.8v36.1Zm9.7-18h-3.7v-12.4h3.5c4.8 0 6.8 2.6 6.8 6.1 0 3.6-2.4 6.3-6.6 6.3Zm18.3 15.4c2.1 2.2 4.9 3.3 8.3 3.3 6.068 0 9.35-3.955 10.185-4.963l.115-.137-4.7-2.8c-1.3 1.9-3.2 2.7-5.4 2.7-1.5 0-2.8-.5-3.8-1.5s-1.5-2.2-1.7-3.8h16v-1.6c0-3.8-1-6.8-2.9-8.9-2-2.2-4.7-3.3-8.1-3.3-3.3 0-6.1 1.2-8.1 3.4s-3 5.2-3 8.8c0 3.6 1 6.6 3.1 8.8ZM56 284.6h-9.6c.3-1.9 1.5-4.1 4.8-4.1 3.4 0 4.7 2.7 4.8 4.1Zm60 14.2H121.899v-12c0-3.8 2-5.9 4.3-5.9 2 0 3.4 1.6 3.4 1.6l2.7-5.4-.3-.2c-1.3-.8-2.9-1.7-4.9-1.7-3.5 0-5.2 3.9-5.2 3.9v-3.3h-5.9v23Zm30.6-2.4c2.2 2.1 5 3.1 8.2 3.1 3.5 0 6.9-1.6 10.1-4.7l3.4 4.2h7.6l-6.8-8.4c.9-1 1.7-1.9 2.3-2.6.234-.3.456-.578.663-.837.415-.519.771-.963 1.037-1.363l.2-.2-4-4.1-.2.3c-.6.8-1.2 1.5-1.8 2.2-.6.7-1.2 1.4-1.9 2.1l-5.9-7.1c2.1-1.6 3.6-3.1 4.4-4.3.9-1.3 1.4-2.8 1.4-4.4 0-2.3-.8-4.3-2.5-5.8s-3.8-2.3-6.3-2.3c-2.6 0-4.7.7-6.4 2.3-1.6 1.6-2.4 3.6-2.4 6.1 0 2.4 1.1 4.8 3.3 7.3l-.1.1-2.4 1.6c-3.4 2.4-5.2 5.5-5.2 9.1 0 3 1.1 5.6 3.3 7.7Zm3.6-10.6c.7-.9 2.2-2.1 4.4-3.6l6.7 8.1c-2.6 2.4-4.8 3.7-6.7 3.7-1.4 0-2.7-.6-3.8-1.7-1.1-1.2-1.7-2.4-1.7-3.8 0-1 .4-1.9 1.1-2.7Zm4-17.8c.6-.5 1.3-.8 2.2-.8 1 0 1.7.3 2.3.7.5.5.8 1.2.8 2s-.2 1.4-.6 1.9c-.2.3-.5.6-1 1-.233.232-.567.499-.944.8-.271.215-.563.449-.856.7l-.2.1-1.4-1.6c-.8-1-1.2-1.9-1.2-2.9 0-.8.3-1.4.9-1.9Zm32.3 22.5s2.5 9 12.1 9c6.8 0 11.7-4.5 11.6-10.6 0-6.6-4.9-9.3-8.5-10.9l-3.6-1.7c-2.4-1.1-3.6-2.4-3.6-4.4 0-1.9 1.5-4 4.6-4 2.9 0 4.4 2 5.2 3.3l.2.3 5.1-2.6s-2.8-6.8-10.2-6.8c-6.3 0-11 4.2-11 9.7 0 4.1 1.8 7.3 6.7 9.5l4.7 2.2c2.2 1.1 4.4 2.4 4.4 5.4 0 2.6-2.3 4.9-5.3 4.9-5.4 0-7.2-6.3-7.2-6.3l-5.2 3Zm27.8-3.3c0 6 4.3 12.3 12.2 12.3 7.9 0 12.4-6 12.4-12.1 0-6.2-5-12.2-12.3-12.2-7.3 0-12.3 6-12.3 12Zm12.3 6.9c-4.3 0-6.3-3.3-6.3-6.9 0-3.6 2.3-6.7 6.3-6.7s6.3 3 6.3 6.8-2 6.8-6.3 6.8Zm31.4 4.7h5.9v-13.3c0-7.2-3.3-10.2-7.5-10.2-4 0-6.7 3.9-6.7 3.9v-3.3h-5.9v23h5.9v-12c0-4.6 2.4-6.5 4.5-6.5 2.4 0 3.8 1.8 3.8 4.9v13.5Zm10.2-4.7c1.4 3.3 5 5.4 8.4 5.4 5 0 8.3-3.1 8.4-7.3 0-4.4-3.2-6.1-4.6-6.8-.7-.3-1.6-.7-2.5-1.1-2.2-.9-3-1.6-3-2.5 0-.8.7-1.5 1.8-1.5 2.3 0 3.5 2.1 3.5 2.1l4.1-2.6s-2.5-4.6-7.3-4.6c-4.4 0-7.5 2.9-7.5 6.8 0 3.6 3 5.5 4.5 6.3.5.3 2.6 1.3 3.1 1.5 1.4.7 2.2 1.7 2.2 2.6 0 1.2-1 2-2.2 2-2.8 0-4.3-3-4.3-3l-4.6 2.7Zm-190.9 0c1.9 0 3.1-2.7 3.1-2.7l4.6 2.9-.182.259c-1.237 1.772-3.45 4.941-8.018 4.941-4.6 0-7.6-3.3-7.6-7.8v-10.4h-3.8v-5.5h3.8v-8.2h5.9v8.2h8.3v5.5h-8.3v9.9c0 1.9.9 2.9 2.2 2.9Zm14.1 2.1c2.1 2.2 4.9 3.3 8.3 3.3 6.4 0 9.8-4.4 10.3-5.1l-4.7-2.8c-1.3 1.9-3.2 2.7-5.4 2.7-1.5 0-2.8-.5-3.8-1.5s-1.5-2.2-1.7-3.8h16v-1.6c0-3.8-1-6.8-2.9-8.9-2-2.2-4.7-3.3-8.1-3.3-3.3 0-6.1 1.2-8.1 3.4s-3 5.2-3 8.8c0 3.6 1 6.6 3.1 8.8Zm12.9-11.6h-9.6c.2-1.9 1.5-4.1 4.8-4.1 3.4 0 4.7 2.7 4.8 4.1Z" clip-rule="evenodd"/></svg>
