<svg width="300" height="107" viewBox="0 0 300 107" fill="none" xmlns="http://www.w3.org/2000/svg">
<path fill-rule="evenodd" clip-rule="evenodd" d="M10.5643 13.6185H285.212L300 0.914062V96.1875C300.004 101.946 295.196 106.767 289.436 106.771H10.5643C4.80427 106.767 -0.00434688 101.946 3.01807e-06 96.1875V24.2022C-0.00434688 18.4433 4.80427 13.6229 10.5643 13.6185Z" fill="#263459"/>
<path d="M80.4731 29.9414H71.1226V76.965H80.4731V29.9414Z" fill="#F3E24E"/>
<path fill-rule="evenodd" clip-rule="evenodd" d="M40.1765 42.9136H31.2891V88.9671H40.6356V72.7638H40.7714C42.9826 76.1486 47.0182 77.9198 50.9923 77.9C55.3117 77.9838 59.4807 76.0289 62.1195 72.6002C64.79 69.1104 65.9559 64.6696 65.9364 60.3152C65.9578 55.7829 64.8432 51.1222 62.1195 47.4388C59.3958 43.811 54.9614 41.8982 50.4653 41.995C46.4433 41.9419 42.448 43.7639 40.3242 47.263H40.1765V42.9136ZM54.7612 67.5799C53.3625 69.7622 51.0423 70.8348 48.477 70.8348C45.9401 70.8348 43.5369 69.6992 42.1408 67.5477C40.7101 65.325 40.2905 62.6276 40.3242 60.0234C40.2986 57.3771 40.7276 54.6412 42.1208 52.3514C43.4451 50.1808 45.8847 48.9567 48.4091 49.0246C50.9582 48.9569 53.3852 50.2557 54.6934 52.451C56.0496 54.7183 56.5804 57.4025 56.5699 60.0234C56.5937 62.624 56.1718 65.35 54.7612 67.5799Z" fill="#F3E24E"/>
<path fill-rule="evenodd" clip-rule="evenodd" d="M86.7935 53.3894C86.9322 49.7391 88.8715 46.3161 92.0277 44.4471C95.2542 42.5547 99.0849 41.9798 102.78 41.995C106.23 41.9918 109.807 42.329 112.953 43.844C115.948 45.2906 117.862 48.3414 117.74 51.6839V69.4005C117.718 71.881 117.757 74.7188 118.925 76.9729H109.443C109.08 75.9099 108.858 74.8033 108.784 73.6821C107.364 75.1402 105.614 76.2359 103.682 76.8771C98.987 78.4513 92.9869 78.537 88.9654 75.2955C85.4642 72.474 84.8716 66.9558 86.6936 63.0105C87.883 60.549 90.2949 59.0223 92.8541 58.2698C95.2995 57.5579 97.8364 57.2418 100.36 56.9477C103.166 56.5965 105.207 56.1797 106.485 55.6975C107.681 55.3094 108.482 54.121 108.393 52.8662C108.393 51.0209 107.861 49.7909 106.796 49.1756C105.731 48.5608 104.24 48.2532 102.32 48.2532C100.476 48.2532 99.0266 48.6525 97.9726 49.4515C96.9185 50.25 96.3037 51.5575 96.128 53.3735L86.7935 53.3894ZM108.389 60.3026C106.311 61.9403 103.158 61.9041 100.62 62.2797C97.8116 62.841 95.09 64.0174 95.09 67.2677C95.09 70.6145 97.8837 71.6129 100.815 71.6171C103.312 71.6171 105.918 70.8853 107.267 68.6179C108.133 67.1535 108.393 65.4722 108.397 63.7931L108.389 60.3026Z" fill="#F3E24E"/>
<path d="M143.02 42.9132H136.173V32.7049H126.823V42.9132H121.161V49.1836H126.831V69.2729C126.744 71.8114 127.71 74.4688 129.957 75.8266C132.23 77.1622 134.977 77.3958 137.563 77.3722C139.39 77.4053 141.218 77.296 143.028 77.0449V69.732C142.074 69.917 141.102 70.0053 140.13 69.9957C138.557 69.9902 137.504 69.7241 136.972 69.1967C136.439 68.6698 136.173 67.6151 136.173 66.0335V49.1715H143.02V42.9132Z" fill="#F3E24E"/>
<path d="M156.451 37.6574H147.101V29.9414H156.451V37.6574Z" fill="#F3E24E"/>
<path d="M147.101 42.9254H156.451V76.9771H147.101V42.9254Z" fill="#F3E24E"/>
<path fill-rule="evenodd" clip-rule="evenodd" d="M172.078 42.9136H163.167V88.9545H172.505V72.7517H172.637C174.851 76.1352 178.883 77.9076 182.858 77.8878C187.174 77.9677 191.332 76.0134 193.969 72.588C196.644 69.1051 197.81 64.6531 197.786 60.3026C197.811 55.7886 196.705 51.1144 194.001 47.4388C191.279 43.8118 186.842 41.8951 182.347 41.995C178.324 41.9419 174.33 43.7634 172.206 47.263H172.078V42.9136ZM184.136 69.9517V69.9279C181.783 71.1052 178.951 71.1052 176.598 69.9279C174.443 68.7278 173.124 66.4755 172.617 64.1091C172.023 61.4059 172.034 58.5463 172.613 55.8415C173.408 52.0431 176.174 48.9136 180.283 49.0241C181.594 48.9894 182.89 49.3083 184.036 49.9466C186.214 51.2124 187.434 53.585 187.984 55.9734C188.615 58.6542 188.601 61.4994 188.024 64.1886C187.523 66.5168 186.253 68.7558 184.136 69.9517Z" fill="#F3E24E"/>
<path d="M234.669 76.9654H225.782V72.2248H225.578C223.411 75.8007 219.342 77.8844 215.198 77.8878C211.589 77.994 207.612 77.0198 205.288 74.0696C203.116 71.1887 202.706 67.367 202.753 63.8613V42.9136H212.104V62.1479C212.104 66.264 213.266 70.5046 218.096 70.5113C223.884 70.5113 225.339 65.7926 225.339 60.7663V42.9136H234.685L234.669 76.9654Z" fill="#F3E24E"/>
<path d="M250.472 70.2158C249.109 69.2733 248.406 67.8352 248.364 65.9025H239.456C239.519 69.6323 241.345 73.2192 244.531 75.2201C247.779 77.2582 251.689 77.9068 255.475 77.8719C257.435 77.8832 259.39 77.674 261.304 77.2487C266.746 76.0514 271.18 71.951 271.013 66.0301C271.118 61.8688 268.142 59.0696 264.43 57.6989C260.245 56.1625 255.756 55.7888 251.594 54.1762C250.276 53.6041 249.617 52.6812 249.617 51.4085C249.617 48.7166 252.653 48.1861 254.816 48.2457C257.984 48.2408 260.929 49.3319 261.204 52.8624H270.111C269.997 51.0527 269.467 49.2937 268.562 47.7225C265.825 43.1872 260.025 41.9626 255.099 41.995C248.19 41.9563 240 44.7337 240.263 52.9344C240.145 57.0129 243.299 59.6626 246.883 60.8622C250.948 62.238 255.341 62.5821 259.295 64.2886C260.868 64.9679 261.667 65.9703 261.667 67.284C261.833 70.4497 258.166 71.69 255.542 71.6334C253.746 71.6982 251.974 71.2027 250.472 70.2158Z" fill="#F3E24E"/>
</svg>
