<svg xmlns="http://www.w3.org/2000/svg" xmlns:xlink="http://www.w3.org/1999/xlink" width="2900" height="748"><defs><clipPath id="d"><path d="M0 0h2900v748H0z"/></clipPath><clipPath id="b"><path d="M0 0h2900v748H0z"/></clipPath><clipPath id="c"><path d="M0 0h2900v748H0z"/></clipPath><clipPath id="e"><path d="M0 0h2900v748H0z"/></clipPath><clipPath id="f"><path d="M0 0h2900v748H0z"/></clipPath><mask id="j"><g filter="url(#a)"><path style="fill:#000;fill-opacity:.992157;stroke:none" d="M0 0h2900v748H0z"/></g></mask><mask id="l"><g filter="url(#a)"><path style="fill:#000;fill-opacity:.992157;stroke:none" d="M0 0h2900v748H0z"/></g></mask><mask id="h"><g filter="url(#a)"><path style="fill:#000;fill-opacity:.992157;stroke:none" d="M0 0h2900v748H0z"/></g></mask><mask id="n"><g filter="url(#a)"><path style="fill:#000;fill-opacity:.992157;stroke:none" d="M0 0h2900v748H0z"/></g></mask><mask id="p"><g filter="url(#a)"><path style="fill:#000;fill-opacity:.992157;stroke:none" d="M0 0h2900v748H0z"/></g></mask><g id="i" clip-path="url(#c)"><path style="stroke:none;fill-rule:evenodd;fill:#0b0b0b;fill-opacity:1" d="M2309.207 416.234c-18.516 23.227-42.598 32.77-72.266 28.625-30.726-5.867-52.003-23.23-63.82-52.09-3.996-14.5-4.773-29.203-2.344-44.109 10.239-35.894 33.86-56.383 70.856-61.473 29.582-2.492 52.887 8.301 69.922 32.38 18.683 32.765 17.906 64.988-2.348 96.667Zm-63.82-101.359c-27.91 4.766-43.235 21.348-45.985 49.738 3.125 30.035 19.707 46.614 49.739 49.742 30.035-3.128 46.617-19.707 49.742-49.742-3.649-31.808-21.48-48.386-53.496-49.738Zm0 0"/></g><g id="o" clip-path="url(#f)"><path style="stroke:none;fill-rule:evenodd;fill:#0b0b0b;fill-opacity:1" d="M1757.363 319.566c21.086 29.848 22.188 60.504 3.285 91.973-13.367 18.23-31.046 29.805-53.027 34.727-18.937 2.793-36.77-.336-53.496-9.387-15.879-10.426-26.672-24.817-32.379-43.172-10.012-37.25-.476-68.219 28.625-92.91a131.166 131.166 0 0 1 13.14-7.04c37.212-12.44 68.493-3.839 93.852 25.81Zm-63.82-2.816c-27.91 4.766-43.238 21.348-45.988 49.742 3.129 30.031 19.71 46.613 49.742 49.742 30.035-3.129 46.617-19.71 49.742-49.742-3.652-31.808-21.484-48.39-53.496-49.742Zm0 0"/></g><g id="m" clip-path="url(#e)"><path style="stroke:none;fill-rule:evenodd;fill:#0b0b0b;fill-opacity:1" d="M1235.55 363.676c-.214 38.832-18.359 65.27-54.433 79.304-37.605 10.934-67.48.454-89.629-31.44-13.008-24.161-15.043-49.188-6.101-75.08a107.814 107.814 0 0 1 13.61-23.464c23.78-23.894 51.788-30.621 83.995-20.18 31.723 13.106 49.235 36.723 52.559 70.86Zm-80.71-46.926c-27.914 4.766-43.238 21.348-45.988 49.742 3.125 30.031 19.707 46.613 49.742 49.742 30.031-3.129 46.613-19.71 49.738-49.742-3.648-31.808-21.48-48.39-53.492-49.742Zm0 0"/></g><g id="g" clip-path="url(#b)"><path style="stroke:none;fill-rule:evenodd;fill:#0b0b0b;fill-opacity:1" d="M1354.742 68.98h150.16v102.301h137.961v13.137c65.192-20.516 126.192-11.91 183.012 25.809 32.93 23.867 56.234 54.996 69.918 93.382.469-77.582.629-155.168.469-232.75h150.164c-.16 78.836 0 157.672.469 236.504 23.058-67.636 68.886-111.433 137.492-131.39 33.195-7.633 66.36-7.477 99.48.468a128.674 128.674 0 0 1 20.18 7.04c.469-2.485.617-4.985.469-7.508 91.972-.313 183.945 0 275.921.937a14963.712 14963.712 0 0 0 46.926 125.762 14360.431 14360.431 0 0 0 44.11-122.945 7030.028 7030.028 0 0 1 162.363-.938 109752.542 109752.542 0 0 1-177.379 474.89 6630.031 6630.031 0 0 1-157.672.938 40682.211 40682.211 0 0 1 50.68-148.754 64468.19 64468.19 0 0 0-99.95-257.625 48105.509 48105.509 0 0 0-.468 301.266h-144.531a7.929 7.929 0 0 0-.47-3.754c-28.796 11.473-58.667 15.695-89.628 12.668-74.52-9.629-127.856-48.262-160.016-115.906a202.223 202.223 0 0 1-7.507-20.649c-.47 42.86-.63 85.719-.47 128.578h-150.163c.16-40.671 0-81.34-.469-122.007-23.95 63.996-68.848 105.136-134.676 123.414-39.566 7.41-78.984 6.629-118.254-2.344V660.25H1495.52V548.566h-140.778c.16-35.668 0-71.332-.469-106.992-32.218 70.363-86.812 110.563-163.773 120.598-30.52 2.937-60.082-.973-88.688-11.73-.468 36.913-.628 73.828-.468 110.745H953.996c.16-72.265 0-144.535-.469-216.796-24.004 65.921-67.644 113.941-130.922 144.062-51.19 22.293-104.062 27.297-158.609 15.016-68.937-17.977-121.336-57.551-157.2-118.723a278.66 278.66 0 0 1-20.648-48.805c-31.007 75.106-86.851 118.122-167.523 129.047-31.984 2.907-62.957-1.316-92.914-12.668v109.805H78.367V173.156h147.344v10.324c66.336-23.687 128.902-16.335 187.703 22.055 32.746 23.516 56.52 54.02 71.328 91.508 24.945-77.969 75.313-132.25 151.098-162.836 81.605-27.445 157.937-17.121 229 30.973 41.742 30.742 71.305 70.629 88.687 119.66.47-37.54.63-75.078.47-112.621h147.347c-.153 2.52 0 5.023.468 7.508 65.012-22.43 126.172-14.762 183.481 22.992 30.922 22.277 53.914 50.902 68.98 85.875.47-73.203.63-146.406.47-219.614Zm890.645 245.895c32.015 1.352 49.847 17.93 53.496 49.738-3.125 30.035-19.707 46.614-49.742 49.742-30.032-3.128-46.614-19.707-49.739-49.742 2.75-28.39 18.075-44.972 45.985-49.738Zm-1966.18 1.875c32.012 1.352 49.84 17.934 53.496 49.742-3.129 30.031-19.71 46.613-49.742 49.742-30.031-3.129-46.613-19.71-49.742-49.742 2.75-28.394 18.078-44.976 45.988-49.742Zm875.633 0c32.012 1.352 49.844 17.934 53.492 49.742-3.125 30.031-19.707 46.613-49.738 49.742-30.035-3.129-46.617-19.71-49.742-49.742 2.75-28.394 18.074-44.976 45.988-49.742Zm538.703 0c32.012 1.352 49.844 17.934 53.496 49.742-3.125 30.031-19.707 46.613-49.742 49.742-30.031-3.129-46.613-19.71-49.742-49.742 2.75-28.394 18.078-44.976 45.988-49.742Zm0 0"/></g><g id="k" clip-path="url(#d)"><path style="stroke:none;fill-rule:evenodd;fill:#0b0b0b;fill-opacity:1" d="M358.98 349.598c5.997 35.07-5.265 63.07-33.785 84-30.297 18.437-60.328 18.125-90.097-.942-23.262-20.12-33.118-45.62-29.563-76.488 1.27-11.484 4.871-22.121 10.793-31.91 14.75-23.336 36.024-35.54 63.817-36.602 40.394 2.867 66.671 23.516 78.835 61.942Zm-79.773-32.848c-27.91 4.766-43.238 21.348-45.988 49.742 3.129 30.031 19.71 46.613 49.742 49.742 30.031-3.129 46.613-19.71 49.742-49.742-3.656-31.808-21.484-48.39-53.496-49.742Zm0 0"/></g><filter id="a" filterUnits="objectBoundingBox" x="0%" y="0%" width="100%" height="100%"><feColorMatrix in="SourceGraphic" values="0 0 0 0 1 0 0 0 0 1 0 0 0 0 1 0 0 0 1 0"/></filter></defs><use xlink:href="#g" mask="url(#h)"/><path style="stroke:none;fill-rule:evenodd;fill:#ffbd02;fill-opacity:1" d="M2025.777 213.512a9883.145 9883.145 0 0 1-108.867-18.77c-.16-32.535 0-65.07.469-97.605a8.78 8.78 0 0 1 1.406-2.348 1460.56 1460.56 0 0 1 104.176-.937c.777.78 1.566 1.566 2.348 2.347.468 39.102.629 78.207.468 117.313Zm0 0"/><path style="stroke:none;fill-rule:evenodd;fill:#ffba02;fill-opacity:1" d="M1380.082 93.383c32.93-.457 65.777.012 98.543 1.406l1.406 1.41c.63 24.403.63 48.801 0 73.203-.777.782-1.566 1.567-2.343 2.348-32.54.625-65.07.625-97.606 0a10.746 10.746 0 0 1-3.285-4.223c-.629-23.152-.629-46.3 0-69.453a25.482 25.482 0 0 1 3.285-4.691Zm0 0"/><path style="stroke:none;fill-rule:evenodd;fill:#feb201;fill-opacity:1" d="M936.164 310.18a4466.877 4466.877 0 0 1-73.203-12.2c-26.09-52.496-68.324-82.683-126.7-90.566-45.234-3.953-84.964 8.719-119.19 38.008 1.577 3.156 3.14 6.281 4.695 9.387a3109.475 3109.475 0 0 1-86.344-15.016c30.164-45.004 71.46-75.191 123.883-90.57 78.617-19.446 148.691-3.176 210.226 48.804 33.403 30.66 55.614 68.043 66.633 112.153Zm0 0"/><path style="stroke:none;fill-rule:evenodd;fill:#ffbc02;fill-opacity:1" d="m2428.398 284.84-304.078-53.496c31.742-25.547 68.184-38.371 109.336-38.477 31.516.059 60.93 7.88 88.223 23.461a3.721 3.721 0 0 0 1.875-.937c.309-4.38.629-8.758.937-13.141.875-2.441 2.602-3.848 5.164-4.223 31.598-.625 63.188-.625 94.79 0a6.546 6.546 0 0 1 3.285 2.348c.468 28.152.629 56.309.468 84.465Zm0 0"/><path style="stroke:none;fill-rule:evenodd;fill:#feb601;fill-opacity:1" d="m1286.23 236.04-176.44-30.974c52.98-18.953 103.968-14.418 152.976 13.61a217.286 217.286 0 0 1 23.464 17.363Zm0 0"/><path style="stroke:none;fill-rule:evenodd;fill:#ffb701;fill-opacity:1" d="m1883.121 341.152-125.758-21.586c-25.36-29.648-56.64-38.25-93.851-25.808a131.166 131.166 0 0 0-13.14 7.039 10191.077 10191.077 0 0 0-136.083-24.402c-.16-24.715 0-49.43.469-74.145.347-.86.816-1.64 1.406-2.344a1304.854 1304.854 0 0 1 98.543-.941c1.719.469 2.816 1.566 3.285 3.285.469 4.684.63 9.375.469 14.078 6.937-1.582 13.508-4.242 19.71-7.976 64.317-25.434 124.38-17.926 180.196 22.523 35.672 28.32 57.258 65.078 64.754 110.277Zm0 0"/><path style="stroke:none;fill-rule:evenodd;fill:#feab00;fill-opacity:1" d="M472.54 370.246a21542.157 21542.157 0 0 1-113.56-20.648c-12.164-38.426-38.44-59.075-78.835-61.942-27.793 1.063-49.067 13.266-63.817 36.602a7446.274 7446.274 0 0 1-115.437-19.707c-.157-34.102 0-68.203.468-102.301.352-.86.82-1.64 1.407-2.344a1304.898 1304.898 0 0 1 98.546-.941 10.792 10.792 0 0 1 3.282 4.226c.469 4.368.625 8.746.472 13.137a12.068 12.068 0 0 0 4.692-.469c51.39-26.593 103.949-29.097 157.668-7.507 48.86 22.78 81.55 59.851 98.074 111.214a194.102 194.102 0 0 1 7.04 50.68Zm0 0"/><path style="stroke:none;fill-rule:evenodd;fill:#ffb802;fill-opacity:1" d="M1916.91 194.742a9883.145 9883.145 0 0 0 108.867 18.77v152.98a9883.121 9883.121 0 0 0-108.867-18.77v-152.98Zm0 0"/><path style="stroke:none;fill-rule:evenodd;fill:#ffb601;fill-opacity:1" d="M1480.5 269.824a6039.883 6039.883 0 0 1-104.172-17.832c-.16-16.582 0-33.164.469-49.742a10.746 10.746 0 0 1 3.285-4.223c32.219-.625 64.445-.625 96.664 0a6.53 6.53 0 0 1 3.285 2.348c.469 23.148.63 46.297.469 69.45Zm0 0"/><path style="stroke:none;fill-rule:evenodd;fill:#feb201;fill-opacity:1" d="m1109.79 205.066 176.44 30.973c44.23 39.129 64.25 88.246 60.063 147.348a5090.523 5090.523 0 0 0-110.742-19.711c-3.324-34.137-20.836-57.754-52.559-70.86-32.207-10.441-60.215-3.714-83.996 20.18a107.814 107.814 0 0 0-13.61 23.465 4948.921 4948.921 0 0 1-108.866-18.774c-.157-38.792 0-77.585.472-116.375l1.406-1.406a1304.854 1304.854 0 0 1 98.543-.941c1.454 1.14 2.555 2.547 3.286 4.226.468 4.368.628 8.746.468 13.137a12.046 12.046 0 0 0 4.692-.469 141.371 141.371 0 0 1 24.402-10.793Zm0 0"/><path style="stroke:none;fill-rule:evenodd;fill:#ffbd02;fill-opacity:1" d="M2603.898 315.813a20525.5 20525.5 0 0 1-111.68-19.711 4415.163 4415.163 0 0 0-30.503-83.528c-1.438-3.023-2.055-6.148-1.875-9.383 1.238-1.867 2.953-2.96 5.16-3.285 30.973-.629 61.941-.629 92.914 0 3.648.88 5.676 3.227 6.098 7.04a22653.233 22653.233 0 0 1 39.886 108.867ZM2747.492 341.152a7003.355 7003.355 0 0 1-99.484-17.832 27110.578 27110.578 0 0 0 40.828-120.129c.777-.785 1.566-1.566 2.344-2.347 34.418-.625 68.824-.625 103.238 0a7.755 7.755 0 0 1 1.875 4.691 11449.6 11449.6 0 0 1-48.8 135.617Zm0 0"/><path style="stroke:none;fill-rule:evenodd;fill:#0b0c0b;fill-opacity:1" d="M862.96 297.98c16.43 38.293 18.462 77.395 6.102 117.313a335.446 335.446 0 0 1-9.855 22.527 6269.6 6269.6 0 0 0-6.102 10.325 170.543 170.543 0 0 1-8.914-13.141 4016.3 4016.3 0 0 0-44.109-68.512c15.629-.937 31.27-1.25 46.926-.937.449-27.743-7.375-52.77-23.465-75.082-32.734-42.786-75.906-59.832-129.516-51.149-16.789 3.707-32.117 10.434-45.984 20.176-5.883 4-11.512 8.379-16.895 13.14a238.843 238.843 0 0 1-9.382-17.831c-1.555-3.106-3.118-6.23-4.696-9.387 34.227-29.29 73.957-41.961 119.192-38.008 58.375 7.883 100.61 38.07 126.699 90.566Zm0 0"/><path style="stroke:none;fill-rule:evenodd;fill:#ffb802;fill-opacity:1" d="m2124.32 231.344 304.078 53.496v152.98a23646.187 23646.187 0 0 1-119.191-21.586c20.254-31.68 21.031-63.902 2.348-96.668-17.035-24.078-40.34-34.87-69.922-32.378-36.996 5.09-60.617 25.578-70.856 61.472-2.43 14.906-1.652 29.61 2.344 44.11a22323.897 22323.897 0 0 0-115.434-20.649c-.574-54.683 19.446-100.2 60.063-136.55a41.134 41.134 0 0 1 6.57-4.227Zm0 0"/><path style="stroke:none;fill-rule:evenodd;fill:#feaf01;fill-opacity:1" d="M823.543 290.473a10271.18 10271.18 0 0 1-175.5-30.973c13.867-9.742 29.195-16.469 45.984-20.176 53.61-8.683 96.782 8.363 129.516 51.149Zm0 0"/><path style="stroke:none;fill-rule:evenodd;fill:#feab00;fill-opacity:1" d="M535.422 239.793a3109.475 3109.475 0 0 0 86.344 15.016 238.843 238.843 0 0 0 9.382 17.832 168.298 168.298 0 0 1 16.895-13.141 10271.18 10271.18 0 0 0 175.5 30.973c16.09 22.312 23.914 47.34 23.465 75.082-15.656-.313-31.297 0-46.926.937a4016.3 4016.3 0 0 1 44.11 68.512 43293.262 43293.262 0 0 1-248.708-43.172 224.924 224.924 0 0 1-2.816-25.34c15.656-.156 31.3.156 46.926.938a6583.908 6583.908 0 0 0-49.27-91.973c-22.785 33.574-31.386 70.492-25.808 110.742A3780.98 3780.98 0 0 1 496.94 374c-1.406-41.93 7.825-81.348 27.688-118.254a105.816 105.816 0 0 1 10.793-15.953Zm0 0"/><path style="stroke:none;fill-rule:evenodd;fill:#feb201;fill-opacity:1" d="M1376.328 251.992a6039.883 6039.883 0 0 0 104.172 17.832v137.024a17850.359 17850.359 0 0 1-104.172-18.77V251.992Zm0 0"/><path style="stroke:none;fill-rule:evenodd;fill:#0b0c0b;fill-opacity:1" d="M595.484 391.832c18.23 62.324 59.836 95.488 124.825 99.484 34.511-.597 64.074-12.8 88.687-36.605a409.15 409.15 0 0 1 14.547 28.625c-47.66 37.824-100.531 47.207-158.61 28.156-56.558-23.246-90.035-65.012-100.417-125.293-5.578-40.25 3.023-77.168 25.808-110.742a6583.908 6583.908 0 0 1 49.27 91.973 783.067 783.067 0 0 0-46.926-.938 224.924 224.924 0 0 0 2.816 25.34Zm0 0"/><path style="stroke:none;fill-rule:evenodd;fill:#feb201;fill-opacity:1" d="M1514.29 276.395c45.526 7.847 90.894 15.98 136.081 24.402-29.101 24.691-38.637 55.66-28.625 92.91 5.707 18.356 16.5 32.746 32.379 43.172a6817.418 6817.418 0 0 1-139.836-24.399V276.395Zm0 0"/><use xlink:href="#i" mask="url(#j)"/><use xlink:href="#k" mask="url(#l)"/><use xlink:href="#m" mask="url(#n)"/><use xlink:href="#o" mask="url(#p)"/><path style="stroke:none;fill-rule:evenodd;fill:#ffb802;fill-opacity:1" d="M2492.219 296.102a20525.5 20525.5 0 0 0 111.68 19.71 4850.341 4850.341 0 0 1 20.18 52.555c2.75 2.403 5.566 2.403 8.444 0a3765.37 3765.37 0 0 0 15.485-45.047 7003.355 7003.355 0 0 0 99.484 17.832 13977.616 13977.616 0 0 1-51.617 143.594 34915.945 34915.945 0 0 1-143.594-25.34c-20.02-54.433-40.047-108.87-60.062-163.304Zm0 0"/><path style="stroke:none;fill-rule:evenodd;fill:#feab00;fill-opacity:1" d="M862.96 297.98c24.372 4.27 48.77 8.336 73.204 12.2 11.649 47.648 8.215 94.261-10.324 139.84a6217.379 6217.379 0 0 1-66.633-12.2 335.446 335.446 0 0 0 9.856-22.527c12.359-39.918 10.328-79.02-6.102-117.313Zm0 0"/><path style="stroke:none;fill-rule:evenodd;fill:#fea500;fill-opacity:1" d="M100.89 304.55a7446.274 7446.274 0 0 0 115.438 19.708c-5.922 9.789-9.523 20.426-10.793 31.91-3.555 30.867 6.3 56.367 29.563 76.488 29.77 19.067 59.8 19.38 90.097.942 28.52-20.93 39.782-48.93 33.785-84a21542.157 21542.157 0 0 0 113.56 20.648c-4.267 68.809-36.485 119.645-96.665 152.508a154.745 154.745 0 0 1-15.016 6.101 31483.74 31483.74 0 0 1-259.968-45.988V304.551Zm0 0"/><path style="stroke:none;fill-rule:evenodd;fill:#feab00;fill-opacity:1" d="M976.52 317.688a4948.921 4948.921 0 0 0 108.867 18.773c-8.942 25.89-6.907 50.918 6.101 75.078 22.149 31.895 52.024 42.375 89.63 31.441 36.073-14.035 54.218-40.472 54.433-79.304a5090.523 5090.523 0 0 1 110.742 19.71c-5.938 54.36-31.277 96.907-76.02 127.637a28788.54 28788.54 0 0 0-293.753-51.617V317.687Zm0 0"/><path style="stroke:none;fill-rule:evenodd;fill:#feb201;fill-opacity:1" d="m1757.363 319.566 125.758 21.586c6.824 48.09-4.117 91.575-32.848 130.453a7182.833 7182.833 0 0 1-142.652-25.34c21.98-4.921 39.66-16.495 53.027-34.726 18.903-31.469 17.801-62.125-3.285-91.973ZM1916.91 347.723a9883.121 9883.121 0 0 1 108.867 18.77v136.085a16848.518 16848.518 0 0 1-108.867-18.77V347.724ZM2057.688 372.121a22323.897 22323.897 0 0 1 115.433 20.649c11.816 28.859 33.094 46.222 63.82 52.09 29.668 4.144 53.75-5.4 72.266-28.626a23646.187 23646.187 0 0 0 119.191 21.586c.16 29.72 0 59.442-.468 89.16l-2.348 2.344c-32.539.625-65.066.625-97.605 0-2.082-.61-3.18-2.02-3.286-4.222a30.617 30.617 0 0 1-.468-7.508 12.053 12.053 0 0 0-4.692.468c-49.582 25.875-100.57 29.004-152.976 9.387-59.914-26.453-95.73-71.972-107.461-136.554-.89-6.23-1.36-12.485-1.407-18.774Zm0 0"/><path style="stroke:none;fill-rule:evenodd;fill:#fea500;fill-opacity:1" d="M496.941 374a3780.98 3780.98 0 0 0 67.575 12.2c10.382 60.28 43.859 102.046 100.418 125.292 58.078 19.051 110.949 9.668 158.609-28.156a409.15 409.15 0 0 0-14.547-28.625c-24.613 23.805-54.176 36.008-88.687 36.605-64.989-3.996-106.594-37.16-124.825-99.484a43293.262 43293.262 0 0 0 248.707 43.172 170.543 170.543 0 0 0 8.914 13.14 6269.6 6269.6 0 0 1 6.102-10.324 6217.379 6217.379 0 0 0 66.633 12.2c-20.844 47.906-54.004 84.664-99.48 110.277-73.044 36.453-145.622 35.512-217.735-2.817-68.273-41.921-105.5-103.085-111.684-183.48Zm0 0"/><path style="stroke:none;fill-rule:evenodd;fill:#feab00;fill-opacity:1" d="M1376.328 388.078c34.688 6.356 69.41 12.613 104.172 18.77.46 40.75-.008 81.418-1.406 122.007a10.607 10.607 0 0 1-3.285 1.407c-31.282.629-62.57.629-93.852 0-2.973-.469-4.691-2.188-5.16-5.16-.469-45.676-.629-91.348-.469-137.024Zm0 0"/><path style="stroke:none;fill-rule:evenodd;fill:#feac00;fill-opacity:1" d="M1514.29 412.48a6817.418 6817.418 0 0 0 139.835 24.399c16.727 9.05 34.559 12.18 53.496 9.387a7182.833 7182.833 0 0 0 142.652 25.34c-42.777 52.652-98.148 75.332-166.113 68.042-22.668-3.07-43.781-10.421-63.351-22.054-.383.43-.856.742-1.407.937a763.492 763.492 0 0 0-.941 53.496 6039.893 6039.893 0 0 0-104.172-17.832V412.48Zm0 0"/><path style="stroke:none;fill-rule:evenodd;fill:#fea600;fill-opacity:1" d="M976.52 459.406a28788.54 28788.54 0 0 1 293.753 51.617c-50.52 32.438-104.324 38.848-161.421 19.239a169.107 169.107 0 0 1-26.278-12.668 3.37 3.37 0 0 0-1.41.937c-.309 39.106-.629 78.211-.937 117.317-.536 1.867-1.633 3.277-3.286 4.222-32.539.625-65.066.625-97.605 0-.777-.78-1.566-1.566-2.344-2.347-.472-59.438-.629-118.88-.472-178.317Zm0 0"/><path style="stroke:none;fill-rule:evenodd;fill:#feb201;fill-opacity:1" d="M2552.281 459.406c47.844 8.547 95.711 16.992 143.594 25.34-15.016 42.863-30.035 85.723-45.05 128.578a4068.248 4068.248 0 0 0-107.93-18.773c8.984-28.031 18.05-56.028 27.218-83.996a989.655 989.655 0 0 0-17.832-51.149Zm0 0"/><path style="stroke:none;fill-rule:evenodd;fill:#fea100;fill-opacity:1" d="M100.89 482.867a31483.74 31483.74 0 0 0 259.97 45.988c-26.133 10.57-53.348 14.485-81.653 11.73-25.574-2.577-49.508-10.245-71.797-22.991l-1.875 1.875c-.312 39.418-.629 78.836-.941 118.254-.781.78-1.563 1.566-2.344 2.347-32.848.625-65.695.625-98.543 0-.785-.78-1.566-1.566-2.348-2.347a12789.5 12789.5 0 0 1-.468-154.856Zm0 0"/><path style="stroke:none;fill-rule:evenodd;fill:#fead00;fill-opacity:1" d="M1916.91 483.809a16848.518 16848.518 0 0 0 108.867 18.77c.16 8.14 0 16.273-.468 24.401-.782.782-1.57 1.563-2.348 2.344-34.098.625-68.203.625-102.297 0-1.719-.469-2.816-1.562-3.285-3.285-.469-14.074-.629-28.152-.469-42.23Zm0 0"/><path style="stroke:none;fill-rule:evenodd;fill:#fea600;fill-opacity:1" d="M1514.29 554.195a6039.893 6039.893 0 0 1 104.17 17.832c.161 21.59 0 43.176-.468 64.758a8.72 8.72 0 0 1-1.406 2.348 1306.91 1306.91 0 0 1-98.543.937c-1.719-.468-2.816-1.566-3.285-3.285a3615.481 3615.481 0 0 1-.469-82.59Zm0 0"/><path style="stroke:none;fill-rule:evenodd;fill:#fead00;fill-opacity:1" d="M2542.895 594.55a4068.248 4068.248 0 0 1 107.93 18.774 991.582 991.582 0 0 1-7.977 22.524c-.778.78-1.567 1.562-2.348 2.343a3087.07 3087.07 0 0 1-107.926 0c-2.62-2.074-3.398-4.73-2.347-7.976a2312.681 2312.681 0 0 1 12.668-35.664Zm0 0"/></svg>