<svg xmlns="http://www.w3.org/2000/svg" width="301" height="138" fill="none" viewBox="0 0 301 138"><path fill="#F59238" d="M239.281 29.608a.107.107 0 0 0 .001-.035c.354-14.485 8.851-19.523 10.499-20.088a.114.114 0 0 1 .099.027.114.114 0 0 1 .033.125.093.093 0 0 1-.01.022c-6.426 10.9-3.081 26.6-2.727 28.113.032.058-.026.116-.09.116a50.796 50.796 0 0 0-21.792 7.11c-.007.003-.013.007-.021.009a.126.126 0 0 1-.153-.067c-.529-1.713-6.12-18.804-17.729-24.788-.085-.026-.085-.174.032-.206 1.844-.264 11.546-.534 19.958 12.899.058.084.206.058.175-.063-1.892-7.36-4.497-32.247-3.076-32.775 1.242-.466 13.29 23.788 14.622 29.598a.087.087 0 0 0 .016.037.092.092 0 0 0 .163-.034ZM266.913 52.394c-7.71-2.903-15.61-.905-17.628 4.466-2.024 5.371 2.594 12.085 10.299 14.992 7.704 2.908 15.604.91 17.628-4.461 2.024-5.371-2.589-12.096-10.299-14.998Z"/><path fill="#F59238" fill-rule="evenodd" d="M251.631 137.068c26.347-.031 48.349-22.059 48.378-48.4 0-19.366-11.977-37.305-29.869-44.718-17.889-7.412-39.039-3.201-52.728 10.495-13.692 13.698-17.895 34.855-10.485 52.748 7.409 17.89 25.338 29.878 44.704 29.875Zm-23.594-83.693a42.454 42.454 0 0 1 23.594-7.156c23.122.032 42.431 19.362 42.459 42.48 0 16.997-10.512 32.741-26.215 39.247a42.456 42.456 0 0 1-24.536 2.417c-16.67-3.318-30.049-16.71-33.363-33.38-3.313-16.67 3.928-34.163 18.061-43.608Z" clip-rule="evenodd"/><path fill="#fff" d="M19.105 101.505V77.029h6.606c2.335 0 4.497.56 5.686 1.449 1.981 1.512 2.515 4.118 2.515 5.63a7.211 7.211 0 0 1-1.543 4.678c-.65.83-2.31 1.586-3.435 2.046 1.511 2.215 6.072 10.99 6.072 10.99H29.6s-5.063-10.25-5.565-10.25h-.776v9.933h-4.154Zm6.267-20.21H23.26v5.599h2.113c1.3.094 2.977-.396 3.648-1.616.39-.71.4-1.624.016-2.339-.663-1.232-2.36-1.732-3.664-1.644ZM.008 101.505V77.029h6.6c2.34 0 4.502.56 5.686 1.449 1.981 1.512 2.51 4.118 2.51 5.63 0 3.642-2.373 6.19-4.624 6.782-1.985.43-4.009.658-6.04.682v9.933H.008Zm6.278-20.199H4.172v5.598h2.114c1.296.098 2.972-.386 3.642-1.605a2.38 2.38 0 0 0 .294-1.17c.054-1.983-2.252-2.938-3.936-2.834v.011Zm210.077 20.516V77.357h6.901c2.336 0 4.502.56 5.686 1.449 1.981 1.511 2.515 4.118 2.515 5.63a7.249 7.249 0 0 1-1.538 4.678c-.655.83-2.309 1.586-3.434 2.046-1.485.56-5.364.444-5.364.444l-.026 10.244h-4.756v-.026h.016Zm6.573-20.204h-1.807v5.614h1.807c1.304.093 2.963-.395 3.636-1.616.394-.716.4-1.603.015-2.324-.662-1.24-2.332-1.776-3.651-1.674Zm-135.315-1.21-3.228 3.171c-1.95-1.808-5.005-3.378-7.578-3.378a8.52 8.52 0 0 0-3.255.624c-3.428 1.345-5.207 4.813-5.184 8.384 0 2.72.77 4.913 2.31 6.576a8.385 8.385 0 0 0 5.46 2.501c3.174.2 7.248-1.668 8.009-5.023l-7.314-.026-.058-4.229H89.43c0 4.562-.83 6.782-3.17 9.452-2.342 2.669-5.475 3.996-9.513 3.996-3.516.038-7.08-1.262-9.6-3.742a12.454 12.454 0 0 1-2.807-4.198 13.615 13.615 0 0 1-1.01-5.286c-.054-4.677 2.429-9.21 6.585-11.434a14.138 14.138 0 0 1 6.785-1.665c4.13-.063 7.725 1.794 10.922 4.276Zm29.936-3.379 3.82 24.476h-4.676l-2.225-15.52-5.416 15.52h-4.296l-5.533-15.727-2.161 15.727H92.45L96.33 77.04h4.291l6.341 18.158 6.309-18.158 4.286-.01Zm17.322-.296h4.227l10.188 25.089h-5.284l-2.082-5.075h-9.771l-2.076 5.096h-5.089l9.887-25.089v-.02Zm5.596 15.33-1.686-4.001a84.756 84.756 0 0 1-1.839-5.329h-.116a127.71 127.71 0 0 1-1.717 5.329l-1.66 3.97h7.018v.032Zm118.051-15.33h4.264l10.189 25.089h-5.285l-2.087-5.075h-9.776l-2.071 5.096h-5.094l9.86-25.089v-.02Zm5.596 15.33-1.686-4.001a84.197 84.197 0 0 1-1.838-5.329h-.117c-.798 2.643-1.39 4.414-1.717 5.329l-1.659 3.97h7.017v.032ZM48.185 76.734h4.227l10.183 25.089h-5.284l-2.082-5.075h-9.776l-2.072 5.096h-5.089l9.893-25.11Zm5.564 15.33-1.686-4.001a84.249 84.249 0 0 1-1.839-5.329h-.116c-.803 2.643-1.395 4.414-1.717 5.329l-1.66 3.97h7.018v.032Zm94.959-10.572v-4.71h14.627v4.71h-4.888v20.262h-4.883V81.502l-4.856-.011Zm17.972 20.505v-24.94h4.856v24.94h-4.856Zm67.538 0V77.357h4.883v20.088h6.785v4.557l-11.668-.006Zm42.666-.206V91.012l-7.462-13.824h4.502l5.121 9.621h.09l5.126-9.621h4.496L281.18 90.99v10.779l-4.296.021Zm-87.82-3.404a7.584 7.584 0 0 1-3.326-.581c-3.4-1.427-5.081-4.989-5.081-8.543 0-2.696.766-4.858 2.335-6.545a7.983 7.983 0 0 1 6.072-2.548c5.506 0 7.726 3.643 7.726 3.643l3.022-2.644a12.61 12.61 0 0 0-3.878-3.41 13.59 13.59 0 0 0-6.838-1.717c-4.717-.072-9.321 2.336-11.668 6.475a13.417 13.417 0 0 0-1.749 6.783l-.058.031c-.047 4.708 2.405 9.251 6.542 11.567a14.412 14.412 0 0 0 6.873 1.725c4.179-.009 8.289-1.844 10.803-5.225l-3.049-3.018s-2.928 3.859-7.726 4.007Z"/></svg>