<svg width="300" height="162" viewBox="0 0 300 162" fill="none" xmlns="http://www.w3.org/2000/svg">
<path d="M99 0.914062C99 4.48503 99.1177 8.05334 99.3999 11.6137C100.47 25.4708 103.829 39.1675 109.302 51.944C117.923 72.139 131.852 90.0425 149.291 103.382C149.526 103.569 149.769 103.741 150.014 103.914C150.248 103.741 150.482 103.567 150.71 103.386C167.591 90.4833 182.013 73.0589 190.503 53.4025L190.808 52.6961H133.423C135.409 56.4216 137.779 59.8907 140.173 63.3619H172.739C166.699 73.1623 158.655 82.2268 150.015 89.767C137.327 78.7091 127.059 64.8573 120.195 49.4876C114.885 37.6743 111.599 24.9719 110.43 12.0762H189.57C188.98 18.5907 187.854 25.0536 186.19 31.3799H124.768C125.838 35.0182 127.22 38.53 128.646 42.0405H194.286L194.497 41.412C198.827 28.4911 201 15.0544 201 1.41889V0.914062H99Z" fill="#F0271D"/>
<path d="M6.06008 145.069V136.282H10.8649C14.2845 136.282 15.7995 137.926 15.7995 140.697C15.7995 143.381 14.2845 145.069 10.8649 145.069H6.06008ZM22.0327 140.697C22.0327 135.459 18.3967 131.347 11.1246 131.347H0V161.561H6.06008V149.96H11.1246C18.9161 149.96 22.0327 145.285 22.0327 140.697Z" fill="white"/>
<path d="M26.2487 150.003C26.2487 157.968 31.7028 161.864 38.3256 161.864C44.9484 161.864 50.6622 157.968 50.6622 150.003V131.347H44.5588V150.047C44.5588 154.202 42.3079 156.366 38.4122 156.366C34.5597 156.366 32.3088 154.202 32.3088 150.047V131.347H26.2487V150.003Z" fill="white"/>
<path d="M77.6411 152.817C77.6411 142.168 62.1446 145.545 62.1446 139.485C62.1446 137.017 63.9193 135.849 66.3 135.935C68.8972 135.979 70.4988 137.537 70.6287 139.528H77.2948C76.9052 134.074 72.6631 130.914 66.4732 130.914C60.24 130.914 55.8248 134.204 55.8248 139.658C55.7815 150.609 71.3645 146.67 71.3645 153.207C71.3645 155.371 69.6764 156.886 66.8195 156.886C64.0059 156.886 62.4043 155.284 62.2311 152.86H55.7382C55.8248 158.574 60.6728 161.864 66.9493 161.864C73.8319 161.864 77.6411 157.578 77.6411 152.817Z" fill="white"/>
<path d="M101.898 161.561H107.958V131.347H101.898V143.77H88.955V131.347H82.8949V161.561H88.955V148.705H101.898V161.561Z" fill="white"/>
<path d="M138.176 130.957C129.432 130.957 122.766 137.363 122.766 146.41C122.766 155.457 129.432 161.82 138.219 161.82C146.27 161.82 151.767 156.193 152.979 150.046V144.765H136.617V149.397H147.006C146.097 153.682 143.11 156.366 138.435 156.366C132.808 156.366 128.999 152.557 128.999 146.41C128.999 140.393 132.765 136.541 138.176 136.541C141.379 136.541 143.889 137.883 145.274 140.437H152.244C150.296 134.377 144.928 130.957 138.176 130.957Z" fill="#F0271D"/>
<path d="M177.981 161.56H184.387L173.522 131.303H166.467L155.602 161.56H161.965L163.956 155.803H175.989L177.981 161.56ZM174.345 150.955H165.601L169.973 138.316L174.345 150.955Z" fill="#F0271D"/>
<path d="M188.448 161.56H194.508V141.908L202.646 161.56H207.234L215.329 141.908V161.56H221.389V131.347H214.55L204.94 153.812L195.331 131.347H188.448V161.56Z" fill="#F0271D"/>
<path d="M227.38 161.56H233.441V131.347H227.38V161.56Z" fill="#F0271D"/>
<path d="M259.21 131.303V152.081L245.488 131.303H239.428V161.56H245.488V140.826L259.21 161.56H265.27V131.303H259.21Z" fill="#F0271D"/>
<path d="M285.197 130.957C276.453 130.957 269.787 137.363 269.787 146.41C269.787 155.457 276.453 161.82 285.24 161.82C293.291 161.82 298.789 156.193 300.001 150.046V144.765H283.638V149.397H294.027C293.118 153.682 290.131 156.366 285.456 156.366C279.829 156.366 276.02 152.557 276.02 146.41C276.02 140.393 279.786 136.541 285.197 136.541C288.4 136.541 290.911 137.883 292.296 140.437H299.265C297.317 134.377 291.949 130.957 285.197 130.957Z" fill="#F0271D"/>
</svg>
