<svg width="300" height="245" viewBox="0 0 300 245" fill="none" xmlns="http://www.w3.org/2000/svg">
<path d="M190.266 58.9529L190.282 58.3832C190.223 54.9262 189.239 55.2236 185.087 56.7899C183.015 57.5356 181.208 58.8707 179.887 60.6312C180.061 63.1496 183.309 66.7623 185.953 65.8965C190.121 64.5325 190.196 61.6547 190.266 58.9529Z" fill="#FF474D"/>
<path d="M109.299 58.9529C109.369 61.6534 109.443 64.5278 113.612 65.8965L113.607 65.9012C116.251 66.767 119.497 63.1678 119.675 60.6359C118.356 58.8754 116.548 57.5397 114.478 56.7946C110.322 55.2236 109.342 54.9262 109.282 58.3832L109.299 58.9529Z" fill="#FF474D"/>
<path fill-rule="evenodd" clip-rule="evenodd" d="M222.043 144.244C219.924 146.401 217.979 147.986 215.247 149.283L214.767 149.482C213.777 149.888 212.778 148.815 213.254 147.857C213.98 146.377 214.72 144.902 215.46 143.428C217.95 138.464 220.44 133.498 222.419 128.338C224.426 123.082 225.92 117.633 227.414 112.186C227.863 110.546 228.312 108.908 228.775 107.275C229.048 106.376 228.158 105.522 227.272 105.819C225.787 106.332 223.798 107.142 222.231 107.747C221.337 108.081 220.409 107.229 220.673 106.309C222.658 99.4865 229.1 79.5282 229.1 79.5282C228.715 79.9671 224.944 85.4617 224.674 85.9701C221.648 90.8417 218.989 95.9324 216.722 101.199C215.826 103.556 215.033 105.357 214.532 106.494C214.259 107.116 213.83 107.776 214.391 108.383C219.743 112.917 215.431 121.561 213.14 124.253C210.009 128.019 207.753 132.432 206.533 137.175C206.212 138.15 205.794 139.533 205.336 140.993C204.886 142.21 203.016 141.856 203.045 140.558C203.452 134.459 204.53 126.172 206.546 124.276C209.635 121.355 208.997 111.281 205.51 109.491C202.266 107.829 201.548 106.057 203.183 103.209C203.519 102.64 203.32 101.881 202.752 101.547L187.85 93.0263C186.893 92.4856 187.149 90.9936 188.244 90.8147C193.412 90.3434 198.566 91.8578 202.655 95.0498C204.362 96.0592 206.484 96.2384 208.336 95.5312C210.188 94.823 211.649 93.2775 212.247 91.3872C212.722 90.248 213.822 88.152 211.981 87.6915C204.636 85.8555 203.554 85.4846 203.188 83.2643C203.081 82.5592 203.636 81.9014 204.351 81.8901C206.905 82.261 209.512 81.9447 211.903 80.9745C213.316 79.5295 214.239 77.676 214.538 75.6774C214.808 74.7497 213.844 73.8723 212.939 74.2534C210.345 75.3518 209.643 75.3154 208.222 74.2257C207.69 73.8098 207.603 73.0017 208.034 72.4855C208.354 72.0829 208.718 71.7161 209.117 71.3911C214.492 67.2019 222.745 44.0604 222.47 37.2294C224.629 39.0735 226.24 41.4719 227.133 44.1656C227.72 43.9262 228.292 43.7037 228.846 43.488C233.648 41.6202 237.059 40.294 236.336 33.1218L230.048 36.3731C230.048 36.3731 229.714 33.9417 233.087 31.1253C240.322 25.0906 241.416 17.0554 241.645 8.32766C242.182 2.16422 235.253 -2.11841 229.974 1.09818C215.916 7.70531 196.597 14.3307 180.632 12.2843C170.529 10.1725 160.227 9.04925 149.903 8.96417H149.818C139.674 9.04778 129.56 10.1212 119.624 12.1696L119.611 12.1744L119.089 12.2843C103.12 14.3307 83.7779 7.69183 69.7425 1.09818C64.5818 -2.04188 57.5398 2.14059 58.0764 8.32766C58.3056 17.0554 59.3993 25.0866 66.6302 31.1253C70.0028 33.9417 69.6731 36.3731 69.6731 36.3731L63.3858 33.1218C62.6626 40.296 66.072 41.6216 70.8786 43.49C71.4314 43.7051 72.0028 43.9269 72.5885 44.1656C73.4816 41.4719 75.0927 39.0735 77.2513 37.2294C76.9764 44.0604 85.2338 67.2019 90.6088 71.3911C91.3792 72.0185 92.6754 73.3057 91.4904 74.221C90.0699 75.3106 89.3627 75.347 86.7783 74.2487C85.8786 73.8745 84.9074 74.7328 85.1741 75.6727C85.9796 81.0702 90.3586 82.6123 95.3612 81.8861C96.0773 81.8942 96.6348 82.5523 96.5246 83.2596C96.1581 85.4806 95.0587 85.8555 87.727 87.6875C85.9375 88.1977 86.9735 90.2424 87.4608 91.3825C88.0575 93.2731 89.5201 94.8219 91.3718 95.5292C93.2247 96.2365 95.346 96.0565 97.0526 95.0451C101.143 91.8538 106.296 90.3394 111.464 90.81C112.562 90.9853 112.794 92.4943 111.862 93.0216L96.9609 101.542C96.3897 101.875 96.1905 102.635 96.5291 103.204C98.1649 106.048 97.4373 107.82 94.1977 109.487C90.7151 111.281 90.0594 121.35 93.1663 124.272C95.1824 126.167 96.2601 134.451 96.6633 140.554C96.6922 141.852 94.8214 142.206 94.3722 140.988C93.9142 139.528 93.496 138.141 93.1752 137.17C91.9581 132.427 89.7017 128.013 86.568 124.249C84.2997 121.557 79.9697 112.912 85.3218 108.379C85.7159 108.044 85.6334 107.499 85.4179 107.042C84.9414 105.988 84.0605 103.978 82.9837 101.194C80.719 95.9263 78.0621 90.8356 75.034 85.9654C74.7682 85.4759 70.9978 79.9813 70.6083 79.5235C70.6083 79.5235 77.0549 99.4824 79.039 106.305C79.306 107.226 78.3734 108.083 77.4773 107.742C75.91 107.137 73.921 106.327 72.4364 105.814C71.5493 105.523 70.6685 106.374 70.9327 107.271C71.3902 108.886 71.8344 110.506 72.2785 112.126C73.7782 117.597 75.2776 123.066 77.2893 128.333C79.2717 133.517 81.7727 138.498 84.2741 143.48C85.005 144.935 85.7359 146.391 86.4539 147.852C86.9183 148.81 85.9288 149.87 84.9414 149.478C82.2098 148.179 79.7277 146.411 77.6093 144.253C64.8436 130.633 64.2298 111.247 63.4571 93.646C63.4218 92.8213 63.3208 90.4574 63.0614 90.4574C62.2452 91.3548 61.5979 92.3932 61.1507 93.5206C57.4301 103.568 56.9812 115.538 58.1212 126.049C58.4749 128.577 59.3154 131.013 60.5958 133.223C64.6347 139.987 68.944 146.444 73.2757 152.936C75.9225 156.902 78.5777 160.88 81.1847 164.949C81.5712 165.55 81.8895 164.956 82.1747 164.424C82.3087 164.174 82.4355 163.938 82.5585 163.846C83.414 162.985 84.8635 162.06 86.0265 162.861C86.2555 163.319 86.5094 163.777 86.7157 164.235C88.3287 167.797 91.2327 173.503 93.2535 177.165C93.8416 178.196 95.4695 177.766 95.4708 176.579C95.4614 172.491 95.4448 168.402 95.4999 164.313C95.5337 161.753 95.7033 158.653 99.0127 158.653C102.463 158.663 102.569 161.662 102.61 164.281V171.804C102.599 172.733 103.657 173.324 104.443 172.829C107.348 170.643 110.556 168.891 113.965 167.628C119.425 165.444 125.762 166.14 130.617 169.459C126.175 165.447 120.451 163.36 114.455 164.666C112.951 164.991 111.41 165.115 109.873 165.032C109.093 164.981 108.57 164.166 108.837 163.434C110.973 157.761 117.65 136.968 103.935 129.908C103.579 129.736 103.321 129.384 103.266 128.992C103.206 128.522 103.048 127.86 102.852 127.038C101.458 121.196 98.1514 107.34 114.749 97.8979C116.03 99.034 117.44 100.824 119.002 102.81C121.066 105.431 123.397 108.393 126.054 110.636C118.704 112.218 114.434 108.418 110.76 105.148C110.319 104.755 109.886 104.369 109.457 104.001C110.713 111.376 115.428 113.499 120.247 115.669C121.704 116.325 123.172 116.986 124.555 117.798C122.218 116.793 119.885 116.862 117.461 116.933C114.557 117.019 111.522 117.108 108.193 115.361C110.807 120.369 114.943 120.946 118.998 121.511C121.788 121.9 124.54 122.284 126.732 124.102C122.585 126.766 118.712 126.133 114.907 125.512C112.63 125.14 110.356 124.762 108.063 125.252C109.174 126.862 110.461 128.342 111.903 129.665C115.545 132.412 120.421 134.036 124.945 132.871C131.694 130.76 138.329 128.246 144.918 125.654C146.188 125.048 147.155 123.897 147.532 122.541C147.944 120.398 147.453 118.1 147.655 115.897C148.173 113.131 146.294 110.384 143.531 109.857C137.328 108.139 131.881 104.388 128.066 99.2073C125.257 95.142 124.687 91.6671 126.392 87.0462C126.786 85.5399 126.748 83.9534 126.283 82.4673C125.791 80.3591 125.296 78.2518 124.804 76.144C124.359 74.3586 123.286 72.7923 121.783 71.7303C119.137 69.9678 116.002 68.8377 112.981 67.916C108.241 66.0496 103.982 63.1428 100.518 59.4101C97.0547 55.6767 94.474 51.2137 92.9693 46.3502C91.8119 43.0773 91.5269 39.5597 92.1437 36.1438C93.0603 38.0122 94.4817 41.7435 95.3522 43.6255C96.4182 46.601 99.4733 48.5119 102.615 48.1721C111.39 48.2321 119.849 49.6973 124.647 58.8545C126.687 63.7497 130.397 67.7649 135.118 70.1869C135.198 67.5336 134.79 64.8878 133.917 62.3802C137.995 60.6952 136.386 58.3232 134.21 55.97C132.086 53.6701 129.941 51.389 127.739 49.0473C126.872 48.1256 125.997 47.1944 125.11 46.2491C127.76 45.589 130.187 44.2404 132.147 42.339H114.992C114.972 42.1673 114.945 41.995 114.945 41.8218C120.191 40.8678 125.244 39.0594 129.903 36.4688C124.356 33.0523 114.645 33.2054 108.311 33.3052C105.546 33.3483 103.424 33.3821 102.575 33.1036C102.543 32.4393 104.862 31.9463 107.244 31.1711C112.738 29.7474 114.79 29.3039 120.288 27.8241C125.737 26.3474 130.988 24.2215 135.928 21.492H113.402C121.066 17.1397 129.514 14.3387 138.262 13.2498C143.206 12.9342 146.766 12.9437 149.818 12.9936V11.5513L149.841 12.9936C152.888 12.9437 156.453 12.9342 161.397 13.2498C170.143 14.3387 178.588 17.1397 186.25 21.492H163.724C168.663 24.2208 173.913 26.3468 179.359 27.8241C184.234 29.1431 189.183 30.2185 194.022 31.6681C195.737 32.1825 197.104 32.5932 197.08 33.1036C196.237 33.3726 194.145 33.3389 191.414 33.2951C185.081 33.1933 175.317 33.0362 169.749 36.4688C174.409 39.0594 179.464 40.8678 184.711 41.8218C184.693 41.9958 184.666 42.165 184.666 42.339H167.51C169.471 44.2398 171.902 45.589 174.553 46.2491L170.54 50.5185C168.82 52.3498 167.131 54.1542 165.451 55.97C163.275 58.3326 161.666 60.7047 165.744 62.3802C164.873 64.8878 164.469 67.5336 164.549 70.1869C169.269 67.7636 172.977 63.749 175.016 58.8545C179.819 49.7155 188.271 48.2361 197.046 48.1721C202.231 48.733 204.095 44.254 205.726 40.2926C206.359 38.7566 207.014 37.1681 207.517 36.1438C208.134 39.5597 207.85 43.0767 206.696 46.3502C205.19 51.213 202.611 55.6753 199.147 59.4087C195.684 63.1415 191.426 66.0489 186.687 67.916C183.619 68.851 180.62 70.0657 177.88 71.7303C176.377 72.7923 175.305 74.3586 174.86 76.144L173.374 82.4673C172.906 83.9527 172.867 85.5393 173.26 87.0462C174.967 91.6619 174.397 95.1442 171.593 99.2073C167.774 104.387 162.327 108.137 156.123 109.857C153.36 110.384 151.479 113.129 151.998 115.897C152.204 118.104 151.71 120.398 152.123 122.541C152.5 123.898 153.463 125.047 154.734 125.654C161.323 128.246 167.953 130.76 174.707 132.871C179.23 134.033 184.109 132.407 187.75 129.661C189.192 128.337 190.481 126.857 191.593 125.247C189.3 124.758 187.027 125.135 184.75 125.508C180.945 126.129 177.071 126.762 172.944 124.097C175.135 122.279 177.886 121.896 180.676 121.507C184.731 120.941 188.867 120.364 191.484 115.357C188.151 117.116 185.113 117.023 182.205 116.934C179.784 116.861 177.453 116.79 175.117 117.793C176.502 116.982 177.968 116.323 179.425 115.668C184.248 113.5 188.959 111.382 190.215 103.997C189.789 104.363 189.358 104.748 188.919 105.14C185.249 108.414 180.989 112.214 173.622 110.631C176.283 108.385 178.615 105.42 180.68 102.796C182.238 100.815 183.644 99.028 184.921 97.8932C201.51 107.331 198.214 121.174 196.821 127.024C196.622 127.859 196.433 129.433 195.737 129.903C182.022 136.964 188.693 157.756 190.828 163.429C191.105 164.169 190.566 164.983 189.783 165.022C188.246 165.106 186.705 164.983 185.201 164.656C182.489 164.066 179.676 164.132 176.994 164.848C174.313 165.565 171.842 166.912 169.787 168.777L169.045 169.45C171.457 167.801 174.239 166.772 177.144 166.452C180.049 166.132 182.987 166.533 185.7 167.619C189.108 168.883 192.314 170.636 195.218 172.82C196.005 173.316 197.062 172.724 197.051 171.795C197.051 169.698 197.029 167.81 197.035 165.973C197.037 165.403 197.042 164.837 197.051 164.272C197.092 161.657 197.198 158.645 200.648 158.645C203.959 158.64 204.129 161.744 204.159 164.304C204.177 165.616 204.186 166.928 204.19 168.24C204.199 171.017 204.186 173.793 204.186 176.571C204.187 177.74 205.804 178.207 206.403 177.157C208.428 173.48 211.335 167.788 212.943 164.226C213.17 163.767 213.39 163.304 213.63 162.852C215.075 162.056 216.245 162.975 217.098 163.836C217.488 164.125 217.906 165.824 218.474 164.94C221.06 160.908 223.692 156.963 226.315 153.031C230.668 146.505 234.998 140.014 239.061 133.214C240.339 131.003 241.179 128.567 241.535 126.039C242.321 118.777 242.115 111.441 240.922 104.235C240.597 100.569 239.785 96.9634 238.508 93.5111C238.059 92.3837 237.41 91.346 236.593 90.4479C236.313 90.4439 236.215 93.1908 236.188 93.7997C235.986 97.762 236.057 101.653 235.731 105.512C234.485 120.329 232.458 133.132 222.043 144.244ZM78.0411 29.3904C74.8335 22.1468 71.7666 9.95332 88.3132 11.2493L107.792 16.0339C104.842 16.7722 101.791 17.0102 98.7621 16.7391C94.235 16.0928 91.6052 13.8772 84.6125 14.601C83.0179 14.8155 81.4849 15.3663 80.1197 16.2173C83.2035 17.8388 93.9811 22.5077 93.8666 22.7833C93.3159 22.5884 91.7216 22.2054 89.997 21.7914C87.9902 21.31 85.8071 20.7861 84.8854 20.4665C85.1548 21.5763 85.2114 23.1076 85.2837 25.0589C85.5001 30.9075 85.8563 40.5313 92.5017 53.8912C95.8664 60.5914 100.551 66.5418 106.275 71.3864C107.027 71.9211 107.784 72.4079 108.544 72.8475C92.1967 66.32 86.9874 51.1476 83.3545 40.567C82.5761 38.2995 81.87 36.243 81.1422 34.5276C80.5459 32.7404 79.0136 30.9981 78.0411 29.3904ZM216.205 40.561C212.572 51.1395 207.362 66.3072 190.998 72.8475C191.759 72.4079 192.516 71.9224 193.267 71.3864C198.992 66.5425 203.677 60.5914 207.041 53.8912C213.684 40.5508 214.042 30.9351 214.26 25.0778C214.333 23.1204 214.391 21.5831 214.661 20.4665C213.728 20.7915 211.495 21.3282 209.464 21.8164C207.776 22.2216 206.227 22.5938 205.68 22.7833C205.622 22.6315 208.875 21.1428 212.321 19.5657C215.121 18.2839 218.048 16.9441 219.427 16.2173C218.062 15.3663 216.531 14.8155 214.937 14.601C210.281 14.1196 207.558 14.9388 204.922 15.7318C203.599 16.1303 202.298 16.522 200.785 16.7391C197.756 17.0102 194.704 16.7722 191.755 16.0339L211.247 11.2587C227.789 9.96276 224.725 22.1562 221.517 29.3992C219.014 33.5465 217.815 35.8737 216.205 40.561Z" fill="#FF474D"/>
<path d="M141.486 97.7785C144.258 97.829 147.03 97.8386 149.803 97.8386C152.194 97.8568 154.766 97.8386 158.052 97.7785C162.025 97.8393 169.832 97.0136 168.765 91.2766C168.595 88.7811 165.351 87.0186 165.351 87.0186C165.47 92.8564 160.403 94.418 149.823 94.5137C144.496 94.5137 134.039 94.712 134.196 87.0186C134.196 87.0186 130.947 88.7811 130.778 91.2766C129.704 97.0136 137.516 97.8393 141.486 97.7785Z" fill="#FF474D"/>
<path fill-rule="evenodd" clip-rule="evenodd" d="M125.665 162.051C136.591 168.59 149.479 168.108 149.78 160.904C150.082 168.108 162.972 168.59 173.906 162.051C174.175 161.031 174.105 159.7 174.038 158.44C173.747 152.962 177.696 153.887 181.55 156.337C182.599 157.003 183.442 157.997 184.296 159.004C185.031 159.87 185.774 160.746 186.664 161.433C185.601 146.098 168.982 138.42 155.51 137.705C151.606 137.49 147.773 137.5 143.869 137.715C125.609 138.731 113.732 149.528 112.907 161.433C113.783 160.751 114.524 159.881 115.256 159.019C116.118 158.006 116.97 157.005 118.02 156.337C121.863 153.892 125.821 152.955 125.531 158.427C125.465 159.692 125.394 161.029 125.665 162.051Z" fill="#FF474D"/>
<path fill-rule="evenodd" clip-rule="evenodd" d="M300 244.028L288.745 225.791C291.359 225.346 293.696 223.743 295.052 221.465C297.832 217.625 298.531 211.972 296.709 207.565C294.367 201.895 288.016 199.289 282.14 199.635H264.879V244.04H276.441V226.915H276.557L287.171 244.04L300 244.028ZM280.542 208.58C282.247 208.821 283.993 209.56 284.91 211.089C285.8 212.858 285.8 214.991 284.91 216.76C283.998 218.291 282.244 219.029 280.542 219.269C279.18 219.465 277.815 219.474 276.443 219.474V208.374H277.563C278.226 208.37 278.889 208.4 279.549 208.462C279.881 208.493 280.212 208.532 280.542 208.58Z" fill="#FF474D"/>
<path d="M257.741 199.637H232.442V244.028H257.741V233.898H244.048V226.749H257.741V216.619H244.048V209.469H257.741V199.637Z" fill="#FF474D"/>
<path d="M51.49 209.469H65.1812V199.637H39.8826V244.028H65.1812V233.898H51.49V226.749H65.1812V216.619H51.49V209.469Z" fill="#FF474D"/>
<path fill-rule="evenodd" clip-rule="evenodd" d="M11.6784 226.915L22.2918 244.04L35.1231 244.014L23.0087 225.777C25.8563 225.354 28.4681 223.783 30.1763 221.465C32.9549 217.625 33.6538 211.972 31.8325 207.565C29.4898 201.895 23.1399 199.29 17.2636 199.635H0V244.04H11.563V226.915H11.6784ZM15.6614 208.583C17.3656 208.824 19.1117 209.564 20.0274 211.093C20.9202 212.861 20.9202 214.996 20.0274 216.764C19.1183 218.296 17.3625 219.033 15.6614 219.273C14.2991 219.469 12.9352 219.478 11.563 219.478V208.378C12.9352 208.378 14.2991 208.388 15.6614 208.583Z" fill="#FF474D"/>
<path fill-rule="evenodd" clip-rule="evenodd" d="M106.73 213.185C104.698 207.964 100.683 203.584 95.5371 201.32V201.314C92.9941 200.197 90.2447 199.626 87.4672 199.639H72.3214V244.038H87.4672C93.0092 244.052 98.3836 241.599 102.178 237.59C108.276 231.164 109.898 221.405 106.73 213.185ZM83.0047 234.262V209.416L85.5036 209.42C88.651 209.281 91.7763 210.492 94.0087 212.715C96.2424 215.187 97.4142 218.516 97.2208 221.842C97.2852 225.199 96.2889 228.764 93.8404 231.161C91.6143 233.339 88.4695 234.288 85.4006 234.262H83.0047Z" fill="#FF474D"/>
<path d="M146.996 209.416H156.55V199.641H125.888V209.416H135.443V244.038H146.996V209.416Z" fill="#FF474D"/>
<path d="M163.598 244.047H175.161V199.513H163.598V244.047Z" fill="#FF474D"/>
<path d="M204.489 199.643C198.579 199.582 192.579 201.551 188.344 205.771V205.766C184.099 210.055 182.069 216.091 182.143 222.067C182.076 227.901 184.086 233.802 188.264 237.958C192.44 242.078 198.292 244.094 204.108 244.032C210.697 244.114 217.27 241.36 221.093 235.861C222.69 233.687 223.817 231.204 224.401 228.57C224.982 225.55 225.283 222.483 225.3 219.407H204.051V227.907H212.79C212.741 228.937 212.477 229.946 212.016 230.868C210.574 233.754 207.312 235.264 204.158 235.139C200.993 235.191 197.972 233.655 196.1 231.111C192.308 225.949 192.375 218.274 196.073 213.085C197.882 210.533 200.852 208.925 203.997 208.973C208.127 208.87 211.588 211.794 212.905 215.594L223.066 211.291C219.935 203.873 212.458 199.445 204.489 199.643Z" fill="#FF474D"/>
</svg>
