<svg xmlns="http://www.w3.org/2000/svg" width="300" height="160" fill="none" viewBox="0 0 300 160"><path fill="#000" fill-rule="evenodd" d="M154.475 144.275c-2.28.96-6.68.96-8.96 0l-127.62-53.55c-10.55-4.43-10.52-17.81.05-22.18l127.62-52.84c2.25-.94 6.61-.94 8.86 0l127.62 52.84c10.58 4.38 10.6 17.75.05 22.18l-127.62 53.55Z" clip-rule="evenodd"/><path fill="#000" fill-rule="evenodd" d="M149.995 18.67c-1.414 0-2.521.215-3.015.421l-.011.005-127.622 52.84c-3.964 1.64-5.67 4.774-5.677 7.685-.006 2.911 1.687 6.058 5.646 7.72l127.623 53.552c.508.213 1.629.432 3.056.432s2.549-.219 3.056-.432l.004-.002 127.619-53.55s.001 0 0 0c3.961-1.663 5.656-4.81 5.65-7.717-.006-2.907-1.711-6.044-5.683-7.688l-127.62-52.84-.011-.005c-.494-.206-1.601-.42-3.015-.42Zm5.84-6.353c-1.755-.732-3.95-.987-5.84-.987-1.89 0-4.085.255-5.84.987l-.005.002L16.543 65.153c-6.606 2.732-10.2 8.472-10.213 14.451-.013 5.98 3.553 11.737 10.144 14.505l127.617 53.548a.008.008 0 0 0 .004.002m11.745-135.34-.005-.002.005.002Z" clip-rule="evenodd"/><path fill="#000" fill-rule="evenodd" d="M149.329 140.991c1.414 0 2.521-.215 3.015-.421l.011-.005 127.622-52.84c3.964-1.64 5.671-4.774 5.677-7.685.007-2.91-1.687-6.058-5.646-7.72L152.385 18.769c-.507-.214-1.629-.433-3.056-.433s-2.548.219-3.056.433l-.004.001L18.65 72.32c-3.96 1.663-5.655 4.81-5.65 7.718.006 2.907 1.71 6.043 5.683 7.687l127.62 52.84.011.005c.494.206 1.601.421 3.015.421Zm-5.84 6.353c1.755.732 3.951.987 5.84.987 1.89 0 4.086-.255 5.84-.987l.005-.002 127.607-52.834c6.606-2.731 10.2-8.472 10.213-14.451.014-5.98-3.553-11.737-10.144-14.505L155.233 12.004a.015.015 0 0 0-.004-.002m-11.745 135.34.005.002-.005-.002Z" clip-rule="evenodd"/><path fill="url(#a)" fill-rule="evenodd" d="M154.475 144.275c-2.28.96-6.68.96-8.96 0l-127.62-53.55c-10.55-4.43-10.52-17.81.05-22.18l127.62-52.84c2.25-.94 6.61-.94 8.86 0l127.62 52.84c10.58 4.38 10.6 17.75.05 22.18l-127.62 53.55Z" clip-rule="evenodd"/><path fill="url(#b)" fill-rule="evenodd" d="m280.605 87.033-127.62 53.55c-1.32.56-4.65.56-5.97 0l-127.62-53.55c-7.3-3.07-7.29-11.76.03-14.79l127.62-52.85c1.31-.54 4.6-.54 5.91 0l127.62 52.85c7.32 3.03 7.33 11.72.03 14.79Z" clip-rule="evenodd"/><path fill="#FFF126" fill-rule="evenodd" d="m149.995 26.805-127.62 52.84 127.62 53.55 127.62-53.55-127.62-52.84Z" clip-rule="evenodd"/><path fill="#FFF126" fill-rule="evenodd" d="M147.942 21.848a5.366 5.366 0 0 1 4.105 0l127.62 52.84a5.365 5.365 0 0 1 .024 9.904l-127.62 53.55a5.367 5.367 0 0 1-4.152 0l-127.62-53.55a5.365 5.365 0 0 1 .023-9.904l127.62-52.84ZM36.319 79.677l113.676 47.698L263.67 79.677 149.995 32.611 36.319 79.677Z" clip-rule="evenodd"/><path fill="#36388B" fill-rule="evenodd" d="m149.995 26.805 127.62 52.84-127.62 53.55-127.62-53.55 127.62-52.84Z" clip-rule="evenodd"/><path fill="#363C8E" fill-rule="evenodd" d="m23.676 79.655 126.32-52.32 126.33 52.32-126.33 53-126.32-53Z" clip-rule="evenodd"/><path fill="#354091" fill-rule="evenodd" d="m24.965 79.655 125.03-51.78 125.03 51.78-125.03 52.46-125.03-52.46Z" clip-rule="evenodd"/><path fill="#344493" fill-rule="evenodd" d="m26.256 79.655 123.74-51.23 123.74 51.23-123.74 51.92-123.74-51.92Z" clip-rule="evenodd"/><path fill="#344896" fill-rule="evenodd" d="m27.555 79.655 122.44-50.69 122.45 50.69-122.45 51.38-122.44-51.38Z" clip-rule="evenodd"/><path fill="#334C99" fill-rule="evenodd" d="m28.846 79.665 121.15-50.17 121.16 50.17-121.16 50.83-121.15-50.83Z" clip-rule="evenodd"/><path fill="#32519D" fill-rule="evenodd" d="m30.135 79.665 119.86-49.63 119.85 49.63-119.85 50.29-119.86-50.29Z" clip-rule="evenodd"/><path fill="#3155A0" fill-rule="evenodd" d="m31.436 79.664 118.56-49.09 118.56 49.09-118.56 49.75-118.56-49.75Z" clip-rule="evenodd"/><path fill="#2F5AA4" fill-rule="evenodd" d="m32.725 79.674 117.27-48.56 117.27 48.56-117.27 49.2-117.27-49.2Z" clip-rule="evenodd"/><path fill="#2E5EA7" fill-rule="evenodd" d="m34.025 79.674 115.97-48.02 115.97 48.02-115.97 48.66-115.97-48.66Z" clip-rule="evenodd"/><path fill="#2D63AB" fill-rule="evenodd" d="m35.315 79.684 114.679-47.49 114.68 47.49-114.68 48.11-114.68-48.11Z" clip-rule="evenodd"/><path fill="#2B67AF" fill-rule="evenodd" d="m36.615 79.684 113.38-46.95 113.39 46.95-113.39 47.57-113.38-47.57Z" clip-rule="evenodd"/><path fill="#296CB2" fill-rule="evenodd" d="m37.904 79.685 112.09-46.42 112.09 46.42-112.09 47.03-112.09-47.03Z" clip-rule="evenodd"/><path fill="#2670B6" fill-rule="evenodd" d="m39.195 79.695 110.8-45.89 110.8 45.89-110.8 46.48-110.8-46.48Z" clip-rule="evenodd"/><path fill="#2475BA" fill-rule="evenodd" d="m40.494 79.695 109.5-45.35 109.5 45.35-109.5 45.94-109.5-45.94Z" clip-rule="evenodd"/><path fill="#217ABE" fill-rule="evenodd" d="m41.785 79.695 108.21-44.81 108.21 44.81-108.21 45.4-108.21-45.4Z" clip-rule="evenodd"/><path fill="#1E7EC2" fill-rule="evenodd" d="m43.086 79.695 106.91-44.27 106.91 44.27-106.91 44.86-106.91-44.86Z" clip-rule="evenodd"/><path fill="#1A83C6" fill-rule="evenodd" d="m44.385 79.695 105.61-43.73 105.62 43.73-105.62 44.32-105.61-44.32Z" clip-rule="evenodd"/><path fill="#1487CA" fill-rule="evenodd" d="m45.676 79.695 104.32-43.19 104.33 43.19-104.33 43.78-104.32-43.78Z" clip-rule="evenodd"/><path fill="#098CCE" fill-rule="evenodd" d="m46.965 79.705 103.03-42.66 103.03 42.66-103.03 43.23-103.03-43.23Z" clip-rule="evenodd"/><path fill="#0090D2" fill-rule="evenodd" d="m48.256 79.705 101.74-42.12 101.74 42.12-101.74 42.69-101.74-42.69Z" clip-rule="evenodd"/><path fill="#0094D6" fill-rule="evenodd" d="m49.555 79.705 100.44-41.58 100.44 41.58-100.44 42.15-100.44-42.15Z" clip-rule="evenodd"/><path fill="#0099D9" fill-rule="evenodd" d="m249.146 79.715-99.15 41.6-99.15-41.6 99.15-41.05 99.15 41.05Z" clip-rule="evenodd"/><path fill="#000" fill-rule="evenodd" d="M149.562 25.76c.277-.114.588-.114.864 0l127.62 52.84a1.13 1.13 0 0 1 .005 2.087l-127.62 53.55a1.132 1.132 0 0 1-.874 0l-127.62-53.55a1.13 1.13 0 0 1 .005-2.086l127.62-52.84ZM25.312 79.653l124.682 52.317 124.683-52.317-124.683-51.624L25.311 79.652Z" clip-rule="evenodd"/><path fill="#000" fill-rule="evenodd" d="M103.795 103.994c-.36-1-1.24-1.71-2.64-2.11-.78-.22-1.65-.33-2.61-.33-1.84 0-3.34.45-4.53 1.35-1.17.9-1.76 2.24-1.76 4.04 0 1.8.64 3.09 1.91 3.85 1.28.76 2.73 1.13 4.36 1.13 1.63 0 2.9-.3 3.92-.9 1.02-.6 1.65-1.38 1.88-2.34h-5.27v-2.46h9.48v7.9h-3.14l-.48-1.84c-.91.7-1.74 1.19-2.47 1.48-1.26.5-2.8.75-4.64.75-3.01 0-5.49-.68-7.41-2.03-2.01-1.36-3.01-3.22-3.01-5.58s1.01-4.3 3.04-5.73c2.03-1.44 4.71-2.16 8.05-2.16 2.89 0 5.21.47 6.96 1.43 1.76.95 2.77 2.13 3.03 3.54h-4.68l.01.01Z" clip-rule="evenodd"/><path fill="#000" fill-rule="evenodd" d="M96.717 104.639a3.444 3.444 0 0 0-.987.51c-.327.255-.65.68-.65 1.794 0 1.052.31 1.291.532 1.424.197.117.403.22.619.31v-2.454c0-.587.179-1.133.486-1.584Zm6.915 11.691-.143.059h-.001c-1.686.669-3.603.949-5.683.949-3.418 0-6.503-.772-9.014-2.529-2.75-1.87-4.23-4.589-4.23-7.906 0-3.308 1.48-6.095 4.234-8.036 2.645-1.875 5.953-2.678 9.68-2.678 3.153 0 5.995.505 8.311 1.773 2.196 1.187 3.988 2.964 4.458 5.509a2.831 2.831 0 0 1-.151 1.551c.172.364.268.772.268 1.201v7.9a2.825 2.825 0 0 1-2.825 2.825h-3.14a2.822 2.822 0 0 1-1.764-.618ZM119.316 108.563h5.77l-2.84-5.79-2.93 5.79Zm.3-9.16h5.38l8.06 14.73h-5.16l-1.46-3.02h-8.39l-1.58 3.02h-4.98l8.13-14.73Z" clip-rule="evenodd"/><path fill="#000" fill-rule="evenodd" d="M117.142 98.038a2.824 2.824 0 0 1 2.473-1.46h5.38c1.033 0 1.983.563 2.478 1.47l8.06 14.729a2.825 2.825 0 0 1-2.478 4.181h-5.16a2.825 2.825 0 0 1-2.543-1.595l-.689-1.425h-4.908l-.787 1.505a2.824 2.824 0 0 1-2.503 1.515h-4.98a2.825 2.825 0 0 1-2.473-4.19l8.13-14.73Z" clip-rule="evenodd"/><path fill="#000" fill-rule="evenodd" d="M151.025 99.403h6.84v14.73h-4.43v-9.96c0-.29 0-.69.01-1.21 0-.51.02-.91.02-1.2l-4.31 12.36h-4.62l-4.28-12.36c0 .28 0 .68.02 1.2 0 .52.02.92.02 1.21v9.96h-4.44v-14.73h6.92l4.14 11.58 4.1-11.58h.01Z" clip-rule="evenodd"/><path fill="#000" fill-rule="evenodd" d="M133.031 99.403a2.825 2.825 0 0 1 2.825-2.825h6.92c1.194 0 2.259.75 2.66 1.874l1.467 4.103 1.45-4.095a2.826 2.826 0 0 1 2.663-1.882h6.85a2.825 2.825 0 0 1 2.825 2.825v14.73a2.825 2.825 0 0 1-2.825 2.825h-4.43a2.817 2.817 0 0 1-2.144-.986 2.826 2.826 0 0 1-2.136.976h-4.62c-.826 0-1.59-.359-2.115-.953a2.817 2.817 0 0 1-2.125.963h-4.44a2.825 2.825 0 0 1-2.825-2.825v-14.73Z" clip-rule="evenodd"/><path fill="#000" d="M166.646 99.403h-4.73v14.73h4.73v-14.73Z"/><path fill="#000" fill-rule="evenodd" d="M159.09 99.403a2.825 2.825 0 0 1 2.825-2.825h4.73a2.825 2.825 0 0 1 2.825 2.825v14.73a2.825 2.825 0 0 1-2.825 2.825h-4.73a2.825 2.825 0 0 1-2.825-2.825v-14.73ZM170.996 99.403h4.99l9.07 10.28v-10.28h4.43v14.73h-4.76l-9.29-10.46v10.46h-4.44v-14.73Z" clip-rule="evenodd"/><path fill="#000" fill-rule="evenodd" d="M168.17 99.403a2.825 2.825 0 0 1 2.825-2.825h4.99c.81 0 1.582.348 2.118.956l4.127 4.677v-2.808a2.825 2.825 0 0 1 2.825-2.825h4.43a2.825 2.825 0 0 1 2.825 2.825v14.73a2.825 2.825 0 0 1-2.825 2.825h-4.76a2.824 2.824 0 0 1-2.112-.949l-4.353-4.901v3.025a2.825 2.825 0 0 1-2.825 2.825h-4.44a2.825 2.825 0 0 1-2.825-2.825v-14.73ZM209.226 103.994c-.36-1-1.24-1.71-2.64-2.11-.78-.22-1.65-.33-2.61-.33-1.83 0-3.34.45-4.53 1.35-1.18.9-1.77 2.24-1.77 4.04 0 1.8.64 3.09 1.92 3.85 1.28.76 2.73 1.13 4.36 1.13 1.63 0 2.9-.3 3.92-.9 1.02-.6 1.65-1.38 1.88-2.34h-5.27v-2.46h9.49v7.9h-3.15l-.47-1.84c-.92.7-1.75 1.19-2.48 1.48-1.26.5-2.8.75-4.63.75-3.02 0-5.49-.68-7.41-2.03-2.02-1.36-3.02-3.22-3.02-5.58s1.02-4.3 3.04-5.73c2.03-1.44 4.71-2.16 8.04-2.16 2.9 0 5.22.47 6.97 1.43 1.76.95 2.77 2.13 3.02 3.54h-4.68l.02.01Z" clip-rule="evenodd"/><path fill="#000" fill-rule="evenodd" d="M202.145 104.64a3.48 3.48 0 0 0-.991.513c-.331.254-.654.673-.654 1.79 0 1.055.311 1.287.538 1.421.197.118.405.222.622.313v-2.454c0-.586.179-1.131.485-1.583Zm6.917 11.69-.144.059h-.001c-1.685.669-3.601.949-5.672.949-3.429 0-6.502-.772-9.011-2.527-2.762-1.87-4.244-4.59-4.244-7.908 0-3.315 1.498-6.098 4.232-8.035 2.645-1.875 5.953-2.68 9.673-2.68 3.162 0 6.004.506 8.32 1.774 2.193 1.185 3.998 2.967 4.452 5.528a2.833 2.833 0 0 1-.145 1.509c.178.37.278.786.278 1.224v7.9a2.825 2.825 0 0 1-2.825 2.825h-3.15a2.819 2.819 0 0 1-1.763-.618ZM103.454 103.295c-.36-1.01-1.24-1.71-2.64-2.11a9.59 9.59 0 0 0-2.61-.34c-1.83 0-3.34.45-4.52 1.36-1.17.89-1.76 2.24-1.76 4.03s.63 3.1 1.91 3.85c1.28.76 2.73 1.14 4.36 1.14 1.63 0 2.91-.3 3.92-.89 1.02-.6 1.65-1.39 1.88-2.35h-5.26v-2.46h9.48v7.9h-3.15l-.48-1.84c-.92.7-1.74 1.19-2.47 1.48-1.25.49-2.8.75-4.63.75-3.02 0-5.48-.68-7.41-2.03-2.01-1.36-3.01-3.22-3.01-5.58s1.01-4.3 3.04-5.74c2.03-1.44 4.71-2.16 8.04-2.16 2.9 0 5.21.48 6.97 1.43 1.76.95 2.77 2.13 3.03 3.55h-4.68l-.01.01Z" clip-rule="evenodd"/><path fill="#000" fill-rule="evenodd" d="M96.408 103.922a3.322 3.322 0 0 0-.998.52l-.014.011c-.314.238-.646.661-.646 1.781 0 1.076.321 1.301.513 1.413l.014.008a5 5 0 0 0 .633.319v-2.45c0-.594.184-1.146.498-1.602Zm6.894 11.709-.144.059-.012.005c-1.661.651-3.58.945-5.66.945-3.436 0-6.498-.776-9.012-2.528-2.752-1.87-4.234-4.59-4.234-7.907 0-3.311 1.483-6.096 4.23-8.045 2.646-1.876 5.955-2.68 9.675-2.68 3.181 0 6.001.521 8.312 1.769 2.203 1.188 3.999 2.968 4.467 5.527a2.827 2.827 0 0 1-.151 1.547c.171.364.267.772.267 1.201v7.9a2.825 2.825 0 0 1-2.825 2.825h-3.15a2.819 2.819 0 0 1-1.763-.618ZM118.975 107.864h5.77l-2.84-5.79-2.93 5.79Zm.29-9.17h5.37l8.06 14.73h-5.16l-1.47-3.04h-8.38l-1.57 3.04h-4.97l8.12-14.73Z" clip-rule="evenodd"/><path fill="#000" fill-rule="evenodd" d="M116.791 97.33a2.825 2.825 0 0 1 2.474-1.46h5.37c1.033 0 1.983.562 2.479 1.468l8.06 14.73a2.828 2.828 0 0 1-2.479 4.181h-5.16a2.826 2.826 0 0 1-2.543-1.595l-.699-1.445h-4.887l-.781 1.511a2.825 2.825 0 0 1-2.51 1.529h-4.97a2.825 2.825 0 0 1-2.474-4.189l8.12-14.73Z" clip-rule="evenodd"/><path fill="#000" fill-rule="evenodd" d="M150.675 98.694h6.84v14.73h-4.43v-9.96c0-.29 0-.69.02-1.2 0-.52.02-.92.02-1.19l-4.3 12.36h-4.62l-4.28-12.36c0 .27 0 .67.02 1.19 0 .51.02.91.02 1.2v9.96h-4.43v-14.73h6.92l4.14 11.58 4.1-11.58h-.02Z" clip-rule="evenodd"/><path fill="#000" fill-rule="evenodd" d="M132.711 98.694a2.825 2.825 0 0 1 2.825-2.825h6.92c1.193 0 2.258.75 2.66 1.874l1.467 4.103 1.337-3.776a2.826 2.826 0 0 1 2.756-2.2h6.84a2.825 2.825 0 0 1 2.825 2.824v14.73a2.825 2.825 0 0 1-2.825 2.825h-4.43a2.818 2.818 0 0 1-2.126-.964 2.823 2.823 0 0 1-2.134.974h-4.62a2.824 2.824 0 0 1-2.125-.963 2.814 2.814 0 0 1-2.115.953h-4.43a2.825 2.825 0 0 1-2.825-2.825v-14.73Z" clip-rule="evenodd"/><path fill="#000" d="M166.294 98.694h-4.73v14.73h4.73v-14.73Z"/><path fill="#000" fill-rule="evenodd" d="M158.74 98.694a2.825 2.825 0 0 1 2.825-2.825h4.73a2.825 2.825 0 0 1 2.825 2.825v14.73a2.825 2.825 0 0 1-2.825 2.825h-4.73a2.825 2.825 0 0 1-2.825-2.825v-14.73ZM170.654 98.694h4.99l9.06 10.29v-10.29h4.43v14.73h-4.75l-9.3-10.46v10.46h-4.43v-14.73Z" clip-rule="evenodd"/><path fill="#000" fill-rule="evenodd" d="M167.83 98.694a2.825 2.825 0 0 1 2.825-2.825h4.99c.812 0 1.584.35 2.12.958l4.115 4.674v-2.807a2.825 2.825 0 0 1 2.825-2.825h4.43a2.825 2.825 0 0 1 2.825 2.825v14.73a2.825 2.825 0 0 1-2.825 2.825h-4.75a2.824 2.824 0 0 1-2.111-.948l-4.364-4.908v3.031a2.825 2.825 0 0 1-2.825 2.825h-4.43a2.825 2.825 0 0 1-2.825-2.825v-14.73ZM208.875 103.295c-.36-1.01-1.24-1.71-2.64-2.11-.78-.22-1.65-.34-2.61-.34-1.84 0-3.34.45-4.53 1.36-1.18.89-1.76 2.24-1.76 4.03s.64 3.1 1.91 3.85c1.28.76 2.73 1.14 4.36 1.14 1.63 0 2.9-.3 3.92-.89 1.02-.6 1.65-1.39 1.88-2.35h-5.27v-2.46h9.49v7.9h-3.15l-.48-1.84c-.92.7-1.74 1.19-2.47 1.48-1.26.49-2.8.75-4.63.75-3.02 0-5.49-.68-7.42-2.03-2-1.36-3.01-3.22-3.01-5.58s1.01-4.3 3.04-5.74c2.03-1.44 4.7-2.16 8.04-2.16 2.9 0 5.22.48 6.97 1.43 1.76.95 2.77 2.13 3.02 3.55h-4.68l.02.01Z" clip-rule="evenodd"/><path fill="#000" fill-rule="evenodd" d="M201.804 103.929a3.37 3.37 0 0 0-.992.52l-.015.011c-.307.231-.636.641-.636 1.774 0 1.063.323 1.301.521 1.418l.006.003c.199.118.406.223.623.315v-2.446c0-.592.182-1.141.493-1.595Zm6.908 11.702-.143.059-.019.007c-1.665.648-3.568.943-5.654.943-3.435 0-6.508-.775-9.024-2.53-2.734-1.865-4.231-4.58-4.231-7.905 0-3.311 1.483-6.096 4.23-8.045 2.645-1.876 5.943-2.68 9.675-2.68 3.175 0 6.009.52 8.314 1.77 2.198 1.187 4.005 2.971 4.458 5.545a2.83 2.83 0 0 1-.146 1.505c.179.37.279.786.279 1.224v7.9a2.825 2.825 0 0 1-2.825 2.825h-3.15a2.822 2.822 0 0 1-1.764-.618Z" clip-rule="evenodd"/><path fill="#FFF126" fill-rule="evenodd" d="M103.454 103.295c-.36-1.01-1.24-1.71-2.64-2.11a9.59 9.59 0 0 0-2.61-.34c-1.83 0-3.34.45-4.52 1.36-1.17.89-1.76 2.24-1.76 4.03s.63 3.1 1.91 3.85c1.28.76 2.73 1.14 4.36 1.14 1.63 0 2.91-.3 3.92-.89 1.02-.6 1.65-1.39 1.88-2.35h-5.26v-2.46h9.48v7.9h-3.15l-.48-1.84c-.92.7-1.74 1.19-2.47 1.48-1.25.49-2.8.75-4.63.75-3.02 0-5.48-.68-7.41-2.03-2.01-1.36-3.01-3.22-3.01-5.58s1.01-4.3 3.04-5.74c2.03-1.44 4.71-2.16 8.04-2.16 2.9 0 5.21.48 6.97 1.43 1.76.95 2.77 2.13 3.03 3.55h-4.68l-.01.01ZM118.975 107.864h5.77l-2.84-5.79-2.93 5.79Zm.29-9.17h5.37l8.06 14.73h-5.16l-1.47-3.04h-8.38l-1.57 3.04h-4.97l8.12-14.73ZM150.675 98.694h6.84v14.73h-4.43v-9.96c0-.29 0-.69.02-1.2 0-.52.02-.92.02-1.19l-4.3 12.36h-4.62l-4.28-12.36c0 .27 0 .67.02 1.19 0 .51.02.91.02 1.2v9.96h-4.43v-14.73h6.92l4.14 11.58 4.1-11.58h-.02Z" clip-rule="evenodd"/><path fill="#FFF126" d="M166.294 98.694h-4.73v14.73h4.73v-14.73Z"/><path fill="#FFF126" fill-rule="evenodd" d="M170.654 98.694h4.99l9.06 10.29v-10.29h4.43v14.73h-4.75l-9.3-10.46v10.46h-4.43v-14.73ZM208.875 103.295c-.36-1.01-1.24-1.71-2.64-2.11-.78-.22-1.65-.34-2.61-.34-1.84 0-3.34.45-4.53 1.36-1.18.89-1.76 2.24-1.76 4.03s.64 3.1 1.91 3.85c1.28.76 2.73 1.14 4.36 1.14 1.63 0 2.9-.3 3.92-.89 1.02-.6 1.65-1.39 1.88-2.35h-5.27v-2.46h9.49v7.9h-3.15l-.48-1.84c-.92.7-1.74 1.19-2.47 1.48-1.26.49-2.8.75-4.63.75-3.02 0-5.49-.68-7.42-2.03-2-1.36-3.01-3.22-3.01-5.58s1.01-4.3 3.04-5.74c2.03-1.44 4.7-2.16 8.04-2.16 2.9 0 5.22.48 6.97 1.43 1.76.95 2.77 2.13 3.02 3.55h-4.68l.02.01Z" clip-rule="evenodd"/><path fill="#000" fill-rule="evenodd" d="m224.725 41.754 13.39 29.01-12.31 26.74h14.05l5.19-11.66 5.66 11.72h16.67l-11.21-25.68 13.49-30.2h-15.08l-5.61 12.91-5.75-12.84h-18.49Z" clip-rule="evenodd"/><path fill="#000" fill-rule="evenodd" d="M251.984 40.557a2.826 2.826 0 0 1 2.591-1.699h15.08a2.826 2.826 0 0 1 2.58 3.978l-12.981 29.06 10.71 24.537a2.823 2.823 0 0 1-2.589 3.955h-16.67a2.823 2.823 0 0 1-2.543-1.596l-3.012-6.236-2.714 6.096a2.824 2.824 0 0 1-2.581 1.676h-14.05a2.823 2.823 0 0 1-2.566-4.006l11.766-25.557-12.845-27.828a2.828 2.828 0 0 1 2.565-4.009h18.49c1.114 0 2.124.655 2.579 1.67l3.133 6.997 3.057-7.038Zm4.444 3.951-4.872 11.211a2.825 2.825 0 0 1-5.169.029l-5.002-11.17h-12.244L240.68 69.58c.347.75.347 1.615.002 2.366l-10.466 22.733h7.805l4.444-9.983a2.825 2.825 0 0 1 5.124-.08l4.889 10.123h10.582l-9.484-21.724a2.825 2.825 0 0 1 .01-2.283l11.713-26.223h-8.871Z" clip-rule="evenodd"/><path fill="#000" fill-rule="evenodd" d="M190.855 44.724v46.53h28.71l1.21-14.64h-14.46v-3.11h10.4l1.01-11.95h-11.29v-2.96h14.5l1.24-13.87h-31.32Z" clip-rule="evenodd"/><path fill="#000" fill-rule="evenodd" d="M188.029 44.723a2.825 2.825 0 0 1 2.825-2.825h31.32a2.825 2.825 0 0 1 2.814 3.077l-1.24 13.87a2.825 2.825 0 0 1-2.814 2.573h-.388c.006.124.004.249-.007.373l-1.01 11.95-.004.047h1.249a2.827 2.827 0 0 1 2.816 3.058l-1.21 14.64a2.825 2.825 0 0 1-2.816 2.592h-28.71a2.825 2.825 0 0 1-2.825-2.825v-46.53Zm26.621 19.655h-8.216a2.825 2.825 0 0 1-2.825-2.825v-2.96a2.825 2.825 0 0 1 2.825-2.825h11.917l.734-8.22h-25.406v40.88h23.284l.743-8.99h-11.392a2.825 2.825 0 0 1-2.825-2.825v-3.11a2.825 2.825 0 0 1 2.825-2.825h7.804l.532-6.3ZM156.506 44.724v46.61h28.38l1.32-15.01h-14.34v-31.6h-15.36Z" clip-rule="evenodd"/><path fill="#000" fill-rule="evenodd" d="M153.68 44.723a2.824 2.824 0 0 1 2.825-2.825h15.36a2.825 2.825 0 0 1 2.825 2.825v28.775h11.515a2.825 2.825 0 0 1 2.814 3.073l-1.32 15.01a2.825 2.825 0 0 1-2.814 2.577h-28.38a2.824 2.824 0 0 1-2.825-2.825v-46.61Zm5.65 2.825v40.96h22.967l.823-9.36h-11.255a2.824 2.824 0 0 1-2.825-2.825V47.548h-9.71ZM119.945 44.724v46.41h15.5v-16.21h10.85l1.11-13.51h-11.96v-2.9h15.16l1.22-13.72-31.88-.07Z" clip-rule="evenodd"/><path fill="#000" fill-rule="evenodd" d="M117.949 42.724a2.824 2.824 0 0 1 2.001-.826l31.88.07a2.823 2.823 0 0 1 2.808 3.076l-1.22 13.72a2.826 2.826 0 0 1-2.814 2.574h-.376c.003.102 0 .204-.008.307l-1.11 13.51a2.826 2.826 0 0 1-2.816 2.593h-8.025v13.385a2.825 2.825 0 0 1-2.825 2.825h-15.5a2.825 2.825 0 0 1-2.825-2.825v-46.41c0-.75.299-1.47.83-2Zm26.389 21.514h-8.894a2.825 2.825 0 0 1-2.825-2.825v-2.9a2.825 2.825 0 0 1 2.825-2.825h12.575l.718-8.076-25.968-.057v40.753h9.85V74.923a2.825 2.825 0 0 1 2.825-2.825h8.248l.646-7.86ZM83.975 44.724v46.53h28.68l1.39-14.78h-14.57v-3.04h10.41l1.03-11.88h-11.44v-3.04h14.72l1.15-13.79h-31.37Z" clip-rule="evenodd"/><path fill="#000" fill-rule="evenodd" d="M81.15 44.723a2.825 2.825 0 0 1 2.825-2.825h31.37a2.825 2.825 0 0 1 2.816 3.06l-1.15 13.79a2.825 2.825 0 0 1-2.816 2.59h-.463c.012.152.011.306-.002.46l-1.028 11.85h1.343a2.823 2.823 0 0 1 2.813 3.09l-1.39 14.78a2.826 2.826 0 0 1-2.813 2.56h-28.68a2.825 2.825 0 0 1-2.825-2.825v-46.53Zm26.685 19.655h-8.36a2.825 2.825 0 0 1-2.825-2.825v-3.04a2.825 2.825 0 0 1 2.825-2.825h12.121l.679-8.14H86.8v40.88h23.284l.858-9.13H99.475a2.825 2.825 0 0 1-2.825-2.825v-3.04a2.825 2.825 0 0 1 2.825-2.825h7.82l.54-6.23ZM56.574 56.354s5.53-2.41 5.53 2.51c0 0-.08 5.48-5.46 5.48l-.08-7.99h.01Zm-15.35-12.66c-.1.04 0 53.87 0 53.87h15.3v-17.67l1.37-.15s3.28 4.63 5.17 17.76c.04.3 16.31 0 16.31 0s-1.73-15.98-7.78-24.82c-.06-.08 10.85-9.1 4.67-24.39 0 0-6.49-14.92-35.04-4.59v-.01Z" clip-rule="evenodd"/><path fill="#000" fill-rule="evenodd" d="M78.853 47.162c.001.002.002.005-2.588 1.132l2.59-1.127.03.068c3.42 8.463 2.135 15.36-.1 20.151a24.813 24.813 0 0 1-3.645 5.646c2.626 4.595 4.312 10.217 5.365 14.735a93.668 93.668 0 0 1 1.296 6.664 77.337 77.337 0 0 1 .376 2.708l.004.042.002.016v.001c0 .001 0 .002-2.808.306l.052 2.824-.703.012a908.745 908.745 0 0 1-7.463.101c-2.04.019-4.099.028-5.657.014a57.484 57.484 0 0 1-1.956-.043c-.24-.011-.499-.027-.724-.053-.095-.012-.293-.037-.513-.093a2.882 2.882 0 0 1-1.336-.755 2.838 2.838 0 0 1-.807-1.609 86.549 86.549 0 0 0-.918-5.27v4.931a2.825 2.825 0 0 1-2.825 2.826h-15.3a2.825 2.825 0 0 1-2.825-2.82l2.825-.005-2.825.005-.004-2.314a39695.372 39695.372 0 0 1-.034-24.609c-.006-6.732-.009-13.466-.004-18.521.002-2.527.006-4.637.013-6.118.004-.74.008-1.329.013-1.736a37.939 37.939 0 0 1 .016-.693 2.894 2.894 0 0 1 .062-.475c.02-.084.085-.31.137-.452.133-.287.86-1.163 1.577-1.58a2.84 2.84 0 0 1 .312-.105c14.617-5.243 24.127-4.234 30.164-1.398 3.006 1.412 5.022 3.22 6.303 4.723a14.56 14.56 0 0 1 1.396 1.926 10.44 10.44 0 0 1 .473.88l.01.02.012.028.005.012.002.005Zm-34.83-1.441-.002.312c-.007 1.47-.01 3.572-.013 6.097a10855 10855 0 0 0 .004 18.51 31315.085 31315.085 0 0 0 .033 24.099H53.7V79.892a2.825 2.825 0 0 1 2.517-2.808l1.37-.15A2.825 2.825 0 0 1 60.2 78.11l-2.305 1.633c2.305-1.632 2.306-1.631 2.307-1.63l.002.002.004.006.008.012.02.03a6.203 6.203 0 0 1 .212.328c.125.205.291.49.488.864.393.746.91 1.842 1.478 3.347 1.002 2.656 2.163 6.582 3.09 12.102l.152.001c1.504.014 3.52.005 5.553-.014 1.747-.016 3.494-.039 4.918-.06-.25-1.524-.616-3.5-1.125-5.681-1.168-5.014-3.016-10.784-5.727-14.754a2.829 2.829 0 0 1-.207-2.879c.124-.246.257-.419.292-.465v-.001c.093-.12.178-.21.2-.235l.003-.001a6.2 6.2 0 0 1 .154-.158l.003-.002.056-.055c.07-.07.148-.146.245-.245.24-.243.584-.605.982-1.08.8-.955 1.815-2.362 2.662-4.177 1.654-3.548 2.732-8.782.01-15.573l-.006-.012a4.76 4.76 0 0 0-.16-.284 8.936 8.936 0 0 0-.854-1.173c-.829-.972-2.22-2.248-4.405-3.274-4.12-1.936-11.547-3.2-24.227 1.039ZM65.86 97.096l.001.005.004.03-.005-.035Zm13.515.407.052 2.825a2.827 2.827 0 0 0 2.756-3.129l-2.808.305Zm-5.43-26.387a3.042 3.042 0 0 0-.019-.028l.02.028ZM57.7 58.945l-.003.001.003-.001Zm4.405-.081 2.825.04v-.04c0-1.759-.51-3.409-1.8-4.57-1.231-1.105-2.712-1.346-3.765-1.355-1.071-.01-2.056.213-2.707.4a11.59 11.59 0 0 0-1.026.348 2.824 2.824 0 0 0-1.892 2.695l.08 7.99a2.825 2.825 0 0 0 2.825 2.796c1.85 0 3.425-.48 4.699-1.336 1.254-.844 2.059-1.944 2.57-2.954a9.73 9.73 0 0 0 .876-2.663 9.682 9.682 0 0 0 .134-1.156l.004-.094.001-.034v-.023c0-.002 0-.003-2.824-.044Z" clip-rule="evenodd"/><path fill="url(#c)" fill-rule="evenodd" d="m224.727 41.754 13.39 29.01-12.31 26.37h14.05l5.19-10.58 5.66 10.66h16.67l-11.21-25.33 13.49-30.2h-15.08l-5.61 12.91-5.75-12.84h-18.49Z" clip-rule="evenodd"/><path fill="url(#d)" fill-rule="evenodd" d="M190.855 44.724v46.18h28.71l1.21-14.29h-14.46v-3.11h10.4l1.01-11.95h-11.29v-2.96h14.5l1.24-13.87h-31.32Z" clip-rule="evenodd"/><path fill="url(#e)" fill-rule="evenodd" d="M156.506 44.724v46.25h28.38l1.32-14.65h-14.34v-31.6h-15.36Z" clip-rule="evenodd"/><path fill="url(#f)" fill-rule="evenodd" d="M119.945 44.724v46.06h15.5v-15.86h10.85l1.11-13.51h-11.96v-2.9h15.16l1.22-13.72-31.88-.07Z" clip-rule="evenodd"/><path fill="url(#g)" fill-rule="evenodd" d="M83.977 44.724v46.18h28.68l1.39-14.43h-14.57v-3.04h10.41l1.03-11.88h-11.44v-3.04h14.72l1.15-13.79h-31.37Z" clip-rule="evenodd"/><path fill="url(#h)" fill-rule="evenodd" d="M56.576 56.354s5.53-2.41 5.53 2.51c0 0-.08 5.48-5.46 5.48l-.08-7.99h.01Zm-15.35-12.66c-.1.04 0 53.52 0 53.52h15.3v-17.32l1.37-.15s3.28 4.28 5.17 17.39c.04.31 16.31 0 16.31 0s-1.73-15.62-7.78-24.46c-.06-.08 10.85-9.1 4.67-24.39 0 0-6.49-14.92-35.04-4.59Z" clip-rule="evenodd"/><path fill="#C61A24" fill-rule="evenodd" d="M147.286 47.265c.1 0 .17.08.17.17l-.46 7.21c0 .08-.09.16-.17.16h-14.73v10.41h10.9c.1 0 .17.08.16.19l-.49 5.81c0 .08-.09.16-.16.16h-10.24v16.83c0 .08-.08.17-.17.17h-9.34c-.09 0-.17-.08-.17-.17l.04-40.78c0-.08.08-.16.17-.16H147.286ZM168.416 47.414c.09 0 .17.08.17.17v32.42h13.32c.1 0 .18.08.17.19l-.49 8.1c0 .08-.08.16-.17.16h-22.16c-.08 0-.16-.08-.16-.17v-40.69c0-.09.08-.17.16-.17h9.17l-.01-.01ZM218.476 47.414c.1 0 .18.08.17.18l-.42 7.18c0 .08-.09.16-.17.16l-15.24-.05v9.44h11.68c.1 0 .17.08.17.19l-.49 6.15c-.01.08-.1.15-.17.15h-11.19v9.01h14.62c.1 0 .18.09.17.19l-.49 8.28c0 .08-.09.16-.16.16h-23.38c-.09 0-.17-.08-.17-.17v-40.69c0-.09.08-.17.17-.17h24.9v-.01ZM241.046 44.334s.14.06.15.11l7.12 17.69 7.62-17.78s.1-.1.15-.1h8.39c.15 0 .21.11.15.24l-12.07 26.7 9.91 23.36c.06.13 0 .24-.15.24h-9.68s-.13-.06-.15-.1l-7.88-17.01-7.12 16.74s-.11.11-.16.11h-7.09c-.14 0-.21-.11-.15-.23l10.7-24.07-11.64-25.64c-.06-.13 0-.24.15-.24h11.76l-.01-.02ZM53.206 67.284c1.41 0 11.62-.23 11.62-8.45 0-7.65-7.49-7.99-11.62-4.55v13Zm6.42 8.31c-2.69.62-5.75.96-6.46 1.03v17.64c0 .09-.08.16-.16.16h-9.16c-.09 0-.17-.07-.17-.16 0 0-.02-12.15-.02-24.29v-23.77l.02-.42v-.11c0-.11.17-.02.17-.02l-.05-.16c12.68-4.06 20.11-3.05 24.38-.96 2.14 1.03 3.47 2.35 4.29 3.41.41.53.68 1 .86 1.34.18.34.25.57.26.59 2.52 6.88.98 12.37-1.17 16.14a21.797 21.797 0 0 1-3.27 4.33c-.48.49-.89.87-1.19 1.13-.15.13-.26.22-.34.29 6.62 9.33 8.19 22.25 8.19 22.25s-.06.19-.16.19c0 0-2.34.08-4.69.11-1.17.02-2.35.03-3.24.01-.45 0-.82-.02-1.09-.04-.14-.01-.25-.03-.32-.04-.04 0-.08-.02-.12-.04a.221.221 0 0 1-.13-.15c-1.13-5.88-2.74-10.53-4.08-13.71a47.96 47.96 0 0 0-1.7-3.63c-.22-.41-.4-.72-.52-.93-.05-.09-.1-.16-.13-.21v.02ZM111.586 47.454c.09 0 .17.08.16.18l-.42 7.17c0 .08-.09.15-.17.15l-15.24-.03v9.43h11.68c.1 0 .17.08.16.19l-.49 6.15c0 .08-.09.15-.16.15h-11.19v9.02h14.62c.09 0 .17.08.16.18l-.49 8.28c0 .08-.08.16-.17.16h-23.37c-.09 0-.16-.08-.16-.17v-40.69c0-.09.08-.17.16-.17H111.586Z" clip-rule="evenodd"/><path fill="#000" fill-rule="evenodd" d="m142.176 66.134.82-.93c.1 0 .17.08.16.19l-.49 5.81c0 .08-.09.16-.16.16h-10.24v16.83c0 .08-.08.17-.17.17h-9.34c-.09 0-.17-.08-.17-.17l.62-.83h7.9c.09 0 .17-.08.17-.17v-16.83h10.24c.08 0 .16-.08.17-.15l.49-4.06v-.02Zm5.11-18.87c.1 0 .17.08.17.17l-.46 7.21c0 .08-.09.16-.17.16h-14.73v10.41l-.98.95v-12.36h14.74c.08 0 .16-.07.16-.15l.41-5.58.86-.81ZM181.016 80.754l.88-.75c.1 0 .18.08.17.19l-.49 8.1c0 .08-.08.16-.17.16h-22.16c-.08 0-.16-.08-.16-.17l.81-.83h20.54c.08 0 .16-.08.16-.16l.42-6.54Zm-12.6-33.34c.09 0 .17.08.17.17v32.42l-.98.99v-32.7l.81-.88ZM216.576 81.144l.86-1.32c.1 0 .18.09.17.19l-.49 8.28c0 .08-.09.16-.16.16h-23.38c-.09 0-.17-.08-.17-.17l.61-.83h21.95c.08 0 .16-.08.16-.16l.44-6.14.01-.01Zm-2.98-15.95.9-.87c.1 0 .17.08.17.19l-.49 6.15c-.01.08-.1.15-.17.15h-11.19v9.01l-.98 1.35v-11.36h11.19c.07 0 .16-.07.17-.14l.4-4.48Zm4.88-17.78c.1 0 .18.08.17.18l-.42 7.18c0 .08-.09.16-.17.16l-15.24-.05v9.44l-.98 1.34v-11.77l15.24.04c.08 0 .16-.08.17-.16l.37-5.31.86-1.05ZM244.596 77.684l-7.12 16.74s-.11.11-.16.11h-7.09c-.14 0-.21-.11-.15-.23l1.36-.76h4.9s.14-.06.15-.1l7.37-17.33.74 1.58v-.01Zm18.41-32.48 1.47-.96c.15 0 .21.11.15.24l-12.07 26.7 9.91 23.36c.06.13 0 .24-.15.24h-9.68s-.13-.06-.15-.1l.41-.9h8.45c.14 0 .2-.11.15-.24l-9.91-23.35 11.43-24.99h-.01Zm-21.96-.87s.14.06.15.11l7.12 17.69-.3.69-7.44-18.49h.47ZM59.626 75.594c-2.6.57-5.78.97-6.46 1.03v17.64c0 .09-.08.16-.16.16h-9.16c-.09 0-.17-.07-.17-.16l.71-.83h7.64c.09 0 .16-.08.16-.17v-17.64c.71-.08 3.77-.42 6.46-1.04.03.05.08.12.14.21.12.19.28.49.48.87.59 1.11 1.13 2.25 1.74 3.68 1.34 3.19 2.94 7.83 4.08 13.71 0 .04.04.12.13.15.03.01.07.03.11.04.08.02.19.03.32.04h1.09c.23.03-.31.04 0 .04.88.01 2.06 0 3.24-.01 2.35-.03 4.69-.11 4.69-.11.1 0 .16-.19.16-.19s-1.58-12.91-8.2-22.25c.08-.07.19-.16.34-.29.29-.26.7-.64 1.19-1.13.96-.98 2.19-2.43 3.27-4.33 2.16-3.77 3.69-9.25 1.17-16.14 0-.03-.08-.24-.26-.59-.17-.34-.45-.81-.86-1.34a6.72 6.72 0 0 0-.37-.45c.56.5 1.01 1 1.35 1.45.41.53.68 1 .86 1.34.18.34.25.57.26.59 2.52 6.88.98 12.37-1.17 16.14a21.797 21.797 0 0 1-3.27 4.33c-.48.49-.89.87-1.19 1.13-.15.13-.26.22-.34.29 6.62 9.33 8.19 22.25 8.19 22.25s-.06.19-.16.19c0 0-2.34.08-4.69.11-1.17.02-2.35.03-3.24.01-.45 0-.82-.02-1.09-.04-.14-.01-.25-.03-.32-.04-.04 0-.08-.02-.12-.04a.22.22 0 0 1-.13-.15l-.15-.76h-.26l-.32-.05a.21.21 0 0 1-.11-.04.22.22 0 0 1-.13-.15c-1.13-5.88-2.74-10.52-4.08-13.71-.61-1.43-1.15-2.57-1.7-3.62l.33-.14v.01Zm2.95-22.23c-2.54-1.96-6.68-1.33-9.37.92v13c-.45.02-.8 1.06-.98 1.06v-15.05c3.08-2.57 8.03-3.04 10.35.07ZM109.685 81.174l.87-1.31c.09 0 .17.08.16.18l-.49 8.28c0 .08-.08.16-.17.16h-23.37c-.09 0-.16-.08-.16-.17l.63-.83h21.93c.08 0 .16-.08.17-.16l.44-6.15h-.01Zm-2.98-15.95.9-.87c.1 0 .17.08.16.19l-.49 6.15c0 .08-.09.15-.16.15h-11.19v9.02l-.98 1.34v-11.35h11.19c.08 0 .16-.08.17-.15l.4-4.47v-.01Zm4.88-17.77c.09 0 .17.08.16.18l-.42 7.17c0 .08-.09.15-.17.15l-15.24-.03v9.43l-.98 1.34v-11.77l15.23.04c.08 0 .16-.08.17-.16l.37-5.31.86-1.05.02.01Z" clip-rule="evenodd"/><path fill="#000" d="M281.154 42.444a8.65 8.65 0 0 1 6.26 2.62 9.032 9.032 0 0 1 2.58 6.36c0 1.63-.4 3.13-1.18 4.51a8.91 8.91 0 0 1-3.21 3.27c-1.36.8-2.84 1.2-4.44 1.2-1.6 0-3.07-.4-4.43-1.2a8.76 8.76 0 0 1-3.21-3.27 8.944 8.944 0 0 1-1.19-4.51c0-1.62.39-3.13 1.18-4.51a8.835 8.835 0 0 1 3.21-3.27 8.481 8.481 0 0 1 4.43-1.21v.01Zm.02 1.76c-1.28 0-2.46.33-3.55.97a7.105 7.105 0 0 0-2.59 2.63c-.64 1.1-.95 2.32-.95 3.61a7.221 7.221 0 0 0 3.55 6.25c1.09.64 2.27.96 3.54.96s2.49-.32 3.57-.96a7.1 7.1 0 0 0 2.56-2.63c.63-1.11.94-2.31.94-3.62s-.32-2.52-.94-3.63a7.025 7.025 0 0 0-2.57-2.62 6.899 6.899 0 0 0-3.57-.96h.01Zm-2.09 12.02h-1.92v-9.53h4.44c.68 0 1.26.11 1.74.34.47.23.82.54 1.06.95.24.41.35.88.35 1.42 0 .68-.22 1.25-.67 1.74-.45.49-1.06.8-1.85.9.4.16.73.39.98.7.24.31.58.83.99 1.56l1.1 1.92h-2.36l-.77-1.53c-.36-.68-.66-1.2-.92-1.52-.25-.33-.51-.56-.76-.68-.25-.11-.56-.17-.93-.17h-.49v3.91l.01-.01Zm0-8.01v2.58h1.53c.69 0 1.21-.09 1.57-.28.36-.18.54-.55.54-1.09 0-.38-.16-.67-.47-.89-.31-.22-.79-.33-1.45-.33h-1.71l-.01.01Z"/><path fill="#000" fill-rule="evenodd" d="M274.85 40.489a12.146 12.146 0 0 1 6.304-1.725c.109 0 .216.004.322.014 1.573.038 3.088.36 4.521.963l.015.006a12.31 12.31 0 0 1 4.028 2.753 12.75 12.75 0 0 1 2.662 4.032l.004.011a12.69 12.69 0 0 1 .958 4.88c0 2.263-.563 4.385-1.655 6.316l-.016.028a12.571 12.571 0 0 1-4.518 4.594l-.01.006a12.27 12.27 0 0 1-6.301 1.707c-2.249 0-4.362-.573-6.291-1.707a12.43 12.43 0 0 1-4.536-4.614 12.61 12.61 0 0 1-1.673-6.33c0-2.234.545-4.376 1.665-6.333a12.502 12.502 0 0 1 4.521-4.602Z" clip-rule="evenodd"/><path fill="#fff" d="M281.154 42.444a8.65 8.65 0 0 1 6.26 2.62 9.032 9.032 0 0 1 2.58 6.36c0 1.63-.4 3.13-1.18 4.51a8.91 8.91 0 0 1-3.21 3.27c-1.36.8-2.84 1.2-4.44 1.2-1.6 0-3.07-.4-4.43-1.2a8.76 8.76 0 0 1-3.21-3.27 8.944 8.944 0 0 1-1.19-4.51c0-1.62.39-3.13 1.18-4.51a8.835 8.835 0 0 1 3.21-3.27 8.481 8.481 0 0 1 4.43-1.21v.01Zm.02 1.76c-1.28 0-2.46.33-3.55.97a7.105 7.105 0 0 0-2.59 2.63c-.64 1.1-.95 2.32-.95 3.61a7.221 7.221 0 0 0 3.55 6.25c1.09.64 2.27.96 3.54.96s2.49-.32 3.57-.96a7.1 7.1 0 0 0 2.56-2.63c.63-1.11.94-2.31.94-3.62s-.32-2.52-.94-3.63a7.025 7.025 0 0 0-2.57-2.62 6.899 6.899 0 0 0-3.57-.96h.01Zm-2.09 12.02h-1.92v-9.53h4.44c.68 0 1.26.11 1.74.34.47.23.82.54 1.06.95.24.41.35.88.35 1.42 0 .68-.22 1.25-.67 1.74-.45.49-1.06.8-1.85.9.4.16.73.39.98.7.24.31.58.83.99 1.56l1.1 1.92h-2.36l-.77-1.53c-.36-.68-.66-1.2-.92-1.52-.25-.33-.51-.56-.76-.68-.25-.11-.56-.17-.93-.17h-.49v3.91l.01-.01Zm0-8.01v2.58h1.53c.69 0 1.21-.09 1.57-.28.36-.18.54-.55.54-1.09 0-.38-.16-.67-.47-.89-.31-.22-.79-.33-1.45-.33h-1.71l-.01.01Z"/><defs><linearGradient id="a" x1="247.815" x2="52.175" y1="13.665" y2="145.625" gradientUnits="userSpaceOnUse"><stop stop-color="#fff"/><stop offset=".06" stop-color="#E9F5FD"/><stop offset=".13" stop-color="#E9F5FD"/><stop offset=".28" stop-color="#FBFDFF"/><stop offset=".37" stop-color="#BDD"/><stop offset=".44" stop-color="#F6FBFE"/><stop offset=".64" stop-color="#E9F5FD"/><stop offset=".79" stop-color="#F4FAFE"/><stop offset=".9" stop-color="#BDD"/><stop offset="1" stop-color="#fff"/></linearGradient><linearGradient id="b" x1="103.415" x2="196.575" y1="146.173" y2="13.113" gradientUnits="userSpaceOnUse"><stop stop-color="#fff"/><stop offset=".06" stop-color="#E9F5FD"/><stop offset=".13" stop-color="#E9F5FD"/><stop offset=".28" stop-color="#FBFDFF"/><stop offset=".37" stop-color="#BDD"/><stop offset=".44" stop-color="#F6FBFE"/><stop offset=".64" stop-color="#E9F5FD"/><stop offset=".79" stop-color="#F4FAFE"/><stop offset=".9" stop-color="#BDD"/><stop offset="1" stop-color="#fff"/></linearGradient><linearGradient id="c" x1="226.397" x2="266.887" y1="97.554" y2="39.734" gradientUnits="userSpaceOnUse"><stop stop-color="#fff"/><stop offset=".06" stop-color="#E9F5FD"/><stop offset=".13" stop-color="#E9F5FD"/><stop offset=".28" stop-color="#FBFDFF"/><stop offset=".37" stop-color="#BDD"/><stop offset=".44" stop-color="#F6FBFE"/><stop offset=".64" stop-color="#E9F5FD"/><stop offset=".79" stop-color="#F4FAFE"/><stop offset=".9" stop-color="#BDD"/><stop offset="1" stop-color="#fff"/></linearGradient><linearGradient id="d" x1="189.635" x2="221.645" y1="90.044" y2="44.344" gradientUnits="userSpaceOnUse"><stop stop-color="#fff"/><stop offset=".06" stop-color="#E9F5FD"/><stop offset=".13" stop-color="#E9F5FD"/><stop offset=".28" stop-color="#FBFDFF"/><stop offset=".37" stop-color="#BDD"/><stop offset=".44" stop-color="#F6FBFE"/><stop offset=".64" stop-color="#E9F5FD"/><stop offset=".79" stop-color="#F4FAFE"/><stop offset=".9" stop-color="#BDD"/><stop offset="1" stop-color="#fff"/></linearGradient><linearGradient id="e" x1="155.156" x2="181.946" y1="90.034" y2="51.784" gradientUnits="userSpaceOnUse"><stop stop-color="#fff"/><stop offset=".06" stop-color="#E9F5FD"/><stop offset=".13" stop-color="#E9F5FD"/><stop offset=".28" stop-color="#FBFDFF"/><stop offset=".37" stop-color="#BDD"/><stop offset=".44" stop-color="#F6FBFE"/><stop offset=".64" stop-color="#E9F5FD"/><stop offset=".79" stop-color="#F4FAFE"/><stop offset=".9" stop-color="#BDD"/><stop offset="1" stop-color="#fff"/></linearGradient><linearGradient id="f" x1="114.325" x2="146.415" y1="86.844" y2="41.014" gradientUnits="userSpaceOnUse"><stop stop-color="#fff"/><stop offset=".06" stop-color="#E9F5FD"/><stop offset=".13" stop-color="#E9F5FD"/><stop offset=".28" stop-color="#FBFDFF"/><stop offset=".37" stop-color="#BDD"/><stop offset=".44" stop-color="#F6FBFE"/><stop offset=".64" stop-color="#E9F5FD"/><stop offset=".79" stop-color="#F4FAFE"/><stop offset=".9" stop-color="#BDD"/><stop offset="1" stop-color="#fff"/></linearGradient><linearGradient id="g" x1="82.747" x2="114.767" y1="90.044" y2="44.314" gradientUnits="userSpaceOnUse"><stop stop-color="#fff"/><stop offset=".06" stop-color="#E9F5FD"/><stop offset=".13" stop-color="#E9F5FD"/><stop offset=".28" stop-color="#FBFDFF"/><stop offset=".37" stop-color="#BDD"/><stop offset=".44" stop-color="#F6FBFE"/><stop offset=".64" stop-color="#E9F5FD"/><stop offset=".79" stop-color="#F4FAFE"/><stop offset=".9" stop-color="#BDD"/><stop offset="1" stop-color="#fff"/></linearGradient><linearGradient id="h" x1="41.436" x2="76.756" y1="97.364" y2="46.924" gradientUnits="userSpaceOnUse"><stop stop-color="#fff"/><stop offset=".06" stop-color="#E9F5FD"/><stop offset=".13" stop-color="#E9F5FD"/><stop offset=".28" stop-color="#FBFDFF"/><stop offset=".37" stop-color="#BDD"/><stop offset=".44" stop-color="#F6FBFE"/><stop offset=".64" stop-color="#E9F5FD"/><stop offset=".79" stop-color="#F4FAFE"/><stop offset=".9" stop-color="#BDD"/><stop offset="1" stop-color="#fff"/></linearGradient></defs></svg>