<svg width="300" height="95" viewBox="0 0 300 95" fill="none" xmlns="http://www.w3.org/2000/svg">
<path fill-rule="evenodd" clip-rule="evenodd" d="M35.407 32.0677L47.7496 52.9934C48.1374 53.5622 47.684 54.3193 47.0248 54.3162H37.0667C36.487 54.328 35.9223 53.9998 35.645 53.4916L24.2041 33.2241H11.1977V53.2979C11.1977 53.8521 10.7342 54.3162 10.1798 54.3162H1.01828C0.463848 54.3162 0.000379793 53.8521 0.000379793 53.2979V1.9543C-0.0147401 1.40229 0.444485 0.921127 1.00169 0.914062H27.0035C37.714 1.07459 46.195 4.00214 46.195 16.7424C46.195 26.3116 41.7858 30.7171 35.407 32.0677ZM11.1977 23.9374H27.1086C33.0282 23.9374 34.8538 20.7771 34.8538 17.1298C34.8538 13.4831 33.0558 10.5331 27.1086 10.5331H11.1977V23.9374Z" fill="white"/>
<path d="M77.5298 14.4126C75.949 16.7197 75.5381 19.9644 75.5381 22.6922H105.667C106.223 22.6922 106.685 23.1588 106.685 23.7105V30.9499C106.685 31.5023 106.214 31.9682 105.667 31.9682H75.5381C75.5381 34.8908 75.8254 38.359 77.5298 40.845C79.5755 43.612 82.9425 45.0099 86.3316 45.0402H105.667C106.215 45.049 106.668 45.5108 106.668 46.0585V53.2867C106.668 53.8471 106.204 54.305 105.65 54.305H84.3234C72.5506 54.305 63.0019 43.978 63.0019 31.2485V23.9818C63.0019 11.2415 72.5506 0.914062 84.3234 0.914062H105.667C106.222 0.914062 106.685 1.37785 106.685 1.93236V9.19905C106.685 9.75895 106.22 10.2174 105.667 10.2174H86.3482C82.9561 10.2488 79.5846 11.65 77.5298 14.4126Z" fill="white"/>
<path d="M259.177 8.78917C259.177 13.1267 255.662 16.6429 251.327 16.6429C246.991 16.6429 243.476 13.1267 243.476 8.78917C243.476 4.45216 246.991 0.936002 251.327 0.936002C255.662 0.936002 259.177 4.45216 259.177 8.78917Z" fill="white"/>
<path d="M239.239 94.3906C239.947 94.3906 240.301 93.97 240.301 93.1513L240.295 75.723C240.295 74.8652 239.886 74.4334 239.067 74.4334C238.363 74.4143 237.868 75.0501 237.889 75.723V89.9412L227.604 75.2082C227.324 74.7224 226.793 74.4008 226.232 74.3783C225.557 74.3783 225.22 74.8096 225.22 75.6679V93.0956C225.22 93.9202 225.613 94.3355 226.398 94.3355C227.083 94.4395 227.696 93.8379 227.604 93.1513V78.8223L237.894 93.6157C238.174 94.0858 238.689 94.3841 239.239 94.3906Z" fill="white"/>
<path d="M135.846 94.4072C136.631 94.4072 137.024 93.8924 137.024 92.7858L134.153 76.0109C134.058 75.0786 133.231 74.3576 132.294 74.3949C131.512 74.3807 130.766 74.8681 130.562 75.6288L126.43 90.0686H126.38L122.209 75.7396C122.02 74.9117 121.258 74.3783 120.422 74.4002C119.457 74.3978 118.716 75.1968 118.613 76.127L115.763 92.675C115.5 93.9141 115.763 94.5431 116.815 94.634C117.51 94.6942 118.131 94.1415 118.153 93.4445L120.455 77.5274L125.174 93.4445C125.289 94.0185 125.822 94.4355 126.408 94.4072C126.98 94.4219 127.486 94.004 127.586 93.4445L132.36 77.5327L134.612 93.3391C134.63 93.9701 135.22 94.4797 135.846 94.4072Z" fill="white"/>
<path d="M17.3881 85.2489C17.3881 88.6136 16.4108 91.1281 14.456 92.7922C13.2278 93.84 11.4427 94.3644 9.10073 94.3644C6.24609 94.3644 4.05345 93.2572 2.52285 91.0435C1.21092 89.1899 0.510667 86.9724 0.520165 84.7009C0.498025 81.8082 1.22463 79.4189 2.6999 77.5338C4.23153 75.5584 6.67295 74.4636 9.15605 74.4564C11.5279 74.4169 14.2066 75.0488 15.8502 76.8697C16.2325 77.3175 16.2402 78.0578 15.7616 78.436C15.2398 78.8633 14.5182 78.7885 14.0134 78.3803C12.6606 77.2702 11.1017 76.5132 9.32206 76.5374C7.38674 76.451 5.51298 77.4567 4.5145 79.1166C3.56757 80.6507 3.07635 82.4225 3.09822 84.2247C3.07608 87.0142 3.85432 89.2097 5.43281 90.8107C6.36255 91.7391 7.62124 92.2625 8.93478 92.2668C9.968 92.2855 10.9906 92.0554 11.9167 91.5968C13.9747 90.6042 15.0037 88.7704 15.0037 86.0954V85.2435H11.5128C10.9131 85.2881 10.3818 84.7804 10.4064 84.1749C10.4673 83.3835 10.8047 82.9908 11.4188 82.9908H15.8059C16.8681 82.9908 17.3992 83.5938 17.3992 84.8005L17.3881 85.2489Z" fill="white"/>
<path d="M299.729 85.2489C299.729 88.6136 298.751 91.1281 296.797 92.7922C295.569 93.84 293.784 94.3644 291.441 94.3644C288.587 94.3644 286.394 93.2572 284.864 91.0435C283.554 89.1883 282.854 86.9719 282.861 84.7009C282.839 81.8082 283.565 79.4189 285.041 77.5338C286.572 75.5584 289.014 74.4636 291.497 74.4564C293.869 74.4169 296.547 75.0488 298.191 76.8697C298.476 77.2036 298.563 77.6964 298.375 78.094C298.241 78.3746 297.968 78.5735 297.677 78.6687C297.223 78.8188 296.72 78.6763 296.354 78.3803C295.001 77.2702 293.442 76.5132 291.663 76.5374C289.727 76.451 287.854 77.4567 286.855 79.1166C285.908 80.6507 285.417 82.4225 285.439 84.2247C285.417 87.0142 286.195 89.2097 287.774 90.8107C288.703 91.7391 289.962 92.2625 291.276 92.2668C292.309 92.2855 293.331 92.0554 294.257 91.5968C296.315 90.6042 297.344 88.7704 297.344 86.0954V85.2435H293.854C293.564 85.2649 293.27 85.159 293.061 84.9578C292.848 84.7515 292.743 84.4674 292.747 84.1749C292.808 83.3835 293.145 82.9908 293.759 82.9908H298.147C299.209 82.9908 299.74 83.5938 299.74 84.8005L299.729 85.2489Z" fill="white"/>
<path d="M181.974 92.9854C181.974 93.8876 181.587 94.336 180.818 94.336C180.049 94.336 179.59 93.9042 179.59 93.041V75.7235C179.59 74.8658 179.999 74.4339 180.818 74.4339C181.636 74.4339 181.974 74.8658 181.974 75.7235V92.9854Z" fill="white"/>
<path fill-rule="evenodd" clip-rule="evenodd" d="M73.4857 94.3911C72.9281 94.3911 72.4193 94.0171 72.252 93.4836L70.9574 89.9417H61.8955L60.6009 93.4889C60.409 94.1259 59.7856 94.3908 59.1653 94.3413C58.2458 94.2681 58.2475 93.3971 58.4213 92.7141L64.728 75.8396C64.9688 75.0978 65.5749 74.3965 66.4043 74.3842C67.2392 74.3818 67.8516 75.0333 68.1027 75.7845L74.4981 92.7141C74.7193 93.5268 74.5651 94.3911 73.4857 94.3911ZM70.2437 87.8607L66.4541 77.24H66.3877L62.6258 87.8607H70.2437Z" fill="white"/>
<path d="M300 8.7897C300.004 13.6743 295.36 17.4389 290.622 16.4984C287.539 15.8866 285.064 13.4115 284.451 10.3297C283.499 5.5479 287.272 0.941888 292.15 0.941888C296.424 0.941888 299.997 4.51571 300 8.7897Z" fill="white"/>
<path d="M259.177 46.9832C259.177 51.3207 255.662 54.8369 251.327 54.8369C246.991 54.8369 243.476 51.3207 243.476 46.9832C243.476 42.6456 246.991 39.13 251.327 39.13C255.662 39.13 259.177 42.6456 259.177 46.9832Z" fill="white"/>
<path d="M300 46.9832C300 51.8579 295.4 55.6371 290.618 54.686C287.536 54.072 285.063 51.5971 284.45 48.5152C283.5 43.7339 287.274 39.13 292.15 39.13C296.427 39.13 300 42.7069 300 46.9832Z" fill="white"/>
<path d="M279.586 27.8731C279.583 23.5989 276.011 20.0247 271.736 20.0247C266.859 20.0247 263.084 24.6311 264.036 29.4125C264.65 32.4947 267.125 34.9689 270.207 35.5817C274.991 36.5312 279.589 32.7485 279.586 27.8731Z" fill="white"/>
<path fill-rule="evenodd" clip-rule="evenodd" d="M230.57 53.0373L208.684 1.81571C208.536 1.33631 208.078 0.981488 207.577 0.957941H198.101C197.589 0.981992 197.144 1.33086 196.994 1.81571L175.075 53.0373C174.757 53.6065 175.19 54.3157 175.828 54.3157H185.576C186.07 54.3146 186.539 53.9919 186.715 53.5296L191.218 41.6252H214.41L218.913 53.5296C219.09 53.9953 219.552 54.3146 220.053 54.3157H229.795C230.448 54.3456 230.923 53.5938 230.57 53.0373ZM194.814 32.1282L202.825 11.4732L210.83 32.1282H194.814Z" fill="white"/>
<path d="M160.359 54.3055C160.862 54.2533 161.245 53.7953 161.2 53.2872V46.0591C161.245 45.5539 160.864 45.0924 160.359 45.0407H144.316C141.337 45.0052 138.526 43.3803 137.007 40.8177C136.463 39.6812 136.166 38.4419 136.139 37.1817V1.81625C136.069 1.32233 135.63 0.939696 135.127 0.941888H125.965C125.316 0.941888 124.892 1.53218 124.947 2.14319V36.9826C125.037 41.6156 126.943 46.028 130.255 49.2686C133.566 52.5086 138.018 54.3178 142.65 54.3055H160.359Z" fill="white"/>
</svg>
