<svg width="300" height="54" viewBox="0 0 300 54" fill="none" xmlns="http://www.w3.org/2000/svg">
<path d="M225.618 36.1143H232.549C236.361 36.1143 239.461 36.1803 239.437 36.2598C239.413 36.3397 238.825 37.6741 236.859 42.043L218.35 42.0329V10.58H225.618V36.1143Z" fill="white"/>
<path fill-rule="evenodd" clip-rule="evenodd" d="M262.333 10.6646L269.331 26.2642C273.179 34.8413 276.327 41.8959 276.329 41.9483C276.329 41.9956 274.61 42.0142 268.687 41.9483L265.92 35.3534L251.312 35.2689L248.523 42.043L244.846 42.038C242.825 42.0346 241.17 41.9754 241.168 41.9061C241.168 41.8364 244.301 34.758 248.131 26.1763L255.095 10.5732L262.333 10.6646ZM258.741 18.0982C258.689 18.029 258.594 18.0781 258.528 18.2082C258.462 18.3376 257.35 20.9922 256.055 24.1082L253.704 29.7731C257.679 29.8458 259.909 29.8458 261.224 29.8204L263.613 29.7731C259.909 20.8225 258.792 18.1676 258.741 18.0982Z" fill="white"/>
<path d="M193.911 10.5784C197.736 10.5784 201.653 10.6595 202.63 10.7626C203.607 10.8641 205.032 11.1296 205.799 11.3545C206.566 11.5794 207.631 11.9835 208.166 12.2507C208.7 12.5179 209.518 13.0253 209.983 13.3787C210.447 13.7304 211.095 14.307 211.419 14.6605C211.744 15.0139 212.256 15.7038 212.557 16.1959C212.858 16.688 213.252 17.5081 213.433 18.0205C213.613 18.5329 213.843 19.4443 213.941 20.0497C214.041 20.6551 214.119 21.5667 214.117 22.079C214.114 22.5914 214.004 23.6177 213.87 24.3617C213.72 25.2123 213.382 26.2169 212.961 27.0674C212.594 27.8115 211.964 28.794 211.56 29.2489C211.157 29.7054 210.371 30.4039 209.814 30.8013C209.256 31.1987 208.343 31.7278 207.785 31.9781C207.227 32.2267 206.047 32.6207 205.165 32.8524C203.82 33.2058 203.005 33.292 196.712 33.4933L196.713 27.4902L198.869 27.4867C200.054 27.4851 201.517 27.3803 202.123 27.2535C202.728 27.1284 203.602 26.8357 204.066 26.604C204.531 26.3741 205.179 25.882 205.503 25.5117C205.833 25.1363 206.237 24.3956 206.414 23.8393C206.648 23.1088 206.715 22.5203 206.659 21.6562C206.609 20.8446 206.441 20.1665 206.129 19.5002C205.807 18.817 205.432 18.3486 204.869 17.9258C204.428 17.5944 203.534 17.1599 202.883 16.9603C201.825 16.6357 201.296 16.5968 194.093 16.5832L194.009 42.0329H186.74L186.712 26.4198C186.696 17.8317 186.747 10.7552 186.825 10.6933C186.903 10.6308 190.091 10.58 193.911 10.5784Z" fill="white"/>
<path d="M280.217 17.4371C282.493 21.2095 284.427 24.3123 284.513 24.3296C284.598 24.3465 286.538 21.2604 292.979 10.5817L296.486 10.58C298.415 10.58 299.995 10.6375 299.999 10.7069C299.999 10.7791 297.259 15.3859 287.823 31.0413V42.0329H280.555V30.8722L274.512 20.8631C271.188 15.3572 268.44 10.7913 268.406 10.7169C268.373 10.6408 270.085 10.5783 276.075 10.5749L280.217 17.4371Z" fill="white"/>
<path d="M97.3257 20.1756C97.3274 28.064 97.373 29.9834 97.5826 30.9558C97.7212 31.6068 98.0085 32.5201 98.2215 32.9851C98.4328 33.4501 98.9451 34.1688 99.3592 34.5831C99.7733 34.9974 100.531 35.5301 101.041 35.7668C101.893 36.1625 102.162 36.198 104.253 36.198C106.342 36.198 106.612 36.1625 107.464 35.7668C107.975 35.5301 108.724 34.9974 109.126 34.5831C109.528 34.1688 110.044 33.4501 110.27 32.9851C110.497 32.5201 110.793 31.5307 110.926 30.7867C111.121 29.7163 111.173 27.4721 111.183 10.5791H118.621L118.622 19.4991C118.622 24.4048 118.546 29.1803 118.453 30.1104C118.36 31.0404 118.13 32.4102 117.941 33.1542C117.753 33.8982 117.28 35.153 116.891 35.9443C116.332 37.0807 115.882 37.686 114.74 38.8359C113.514 40.0703 113.054 40.4052 111.69 41.0563C110.806 41.4773 109.628 41.9441 109.07 42.0912C108.512 42.2384 107.334 42.4463 106.45 42.5528C105.539 42.6644 104.077 42.705 103.069 42.6458C102.064 42.5883 100.561 42.3583 99.6043 42.1148C98.6746 41.8798 97.3815 41.4215 96.7307 41.0985C96.0799 40.7755 95.1097 40.1685 94.5755 39.7491C94.0414 39.3315 93.257 38.5503 92.8344 38.0159C92.4101 37.4815 91.7677 36.4347 91.4043 35.6906C91.0409 34.9466 90.5727 33.6919 90.3647 32.9005C89.9946 31.4987 89.9827 31.2077 89.9269 21.0211L89.8695 10.5791H97.3223L97.3257 20.1756Z" fill="#BF1220"/>
<path d="M66.0912 10.5791C72.2204 10.5808 74.249 10.635 75.4745 10.8328C76.3348 10.9732 77.704 11.335 78.517 11.6376C79.33 11.942 80.5623 12.5694 81.2553 13.0327C81.95 13.4977 82.8916 14.3314 83.3548 14.8912C83.8162 15.4492 84.4096 16.3625 84.6733 16.9205C84.937 17.4785 85.2666 18.3527 85.4069 18.865C85.5472 19.3774 85.7094 20.48 85.7652 21.317C85.8395 22.3891 85.7889 23.2635 85.5995 24.2764C85.4238 25.2064 85.0773 26.221 84.6175 27.151C84.0935 28.2096 83.6117 28.8776 82.7885 29.6876C82.1749 30.2913 81.181 31.0455 80.581 31.3617C79.9793 31.6779 79.4672 31.9432 79.4399 31.9535C79.4129 31.9619 80.9139 34.1587 82.7784 36.8321C84.6409 39.5053 86.2043 41.8082 86.2503 41.9474C86.323 42.1672 85.8244 42.2011 78.4748 42.196L73.4882 34.9991C70.7448 31.0404 68.483 27.7513 68.4594 27.6887C68.4366 27.6245 69.5773 27.5231 70.995 27.4623C72.8577 27.3811 73.877 27.2559 74.6714 27.0073C75.4186 26.7739 76.034 26.4307 76.5969 25.9352C77.0499 25.5344 77.5773 24.9019 77.7666 24.5299C78.0049 24.0632 78.1367 23.407 78.1891 22.4161C78.2465 21.3728 78.1924 20.7472 77.9913 20.1334C77.8408 19.6684 77.469 18.9918 77.1665 18.63C76.8639 18.2681 76.3112 17.7947 75.9393 17.5817C75.5675 17.3669 74.7678 17.0743 74.1644 16.9306C73.3547 16.7395 72.0953 16.6719 65.7126 16.6668V42.2011L58.3597 42.1165L58.2734 10.5791H66.0912Z" fill="#BF1220"/>
<path fill-rule="evenodd" clip-rule="evenodd" d="M131.17 10.5808C137.537 10.5808 140.238 10.6417 141.356 10.8074C142.192 10.9325 143.485 11.2352 144.229 11.4821C144.973 11.7273 146.073 12.2532 146.675 12.6489C147.279 13.0446 148.082 13.7498 148.46 14.2148C148.84 14.6799 149.332 15.5169 149.556 16.0749C149.895 16.9238 149.959 17.3787 149.954 18.865C149.951 20.2567 149.872 20.8419 149.593 21.5707C149.395 22.0831 148.903 22.9574 148.496 23.5154C148.09 24.0735 147.382 24.7904 146.089 25.6883L147.272 26.2818C147.97 26.6318 148.84 27.261 149.396 27.8156C149.914 28.3347 150.536 29.1752 150.778 29.6876C151.021 30.1999 151.298 30.9609 151.396 31.3786C151.494 31.7963 151.575 32.7483 151.575 33.4924C151.577 34.2364 151.479 35.2256 151.356 35.6906C151.234 36.1557 150.911 36.9471 150.641 37.4476C150.368 37.9482 149.726 38.7362 149.216 39.1978C148.705 39.6595 147.754 40.297 147.103 40.6115C146.452 40.9278 145.311 41.3404 144.567 41.5264C143.824 41.7141 142.378 41.9457 141.356 42.0421C140.274 42.1435 135.96 42.1959 122.593 42.1165L122.507 10.5791L131.17 10.5808ZM129.946 36.4516C140.147 36.3603 141.137 36.3079 141.778 36.0712C142.224 35.9055 142.836 35.4708 143.257 35.0211C143.827 34.414 143.998 34.0859 144.08 33.4501C144.136 33.0088 144.136 32.3239 144.08 31.9282C144.008 31.4277 143.785 30.9965 143.342 30.5061C142.994 30.1189 142.404 29.6672 142.032 29.5015C141.66 29.3375 140.71 29.1211 139.919 29.0213C139.129 28.9232 136.562 28.8421 134.214 28.8421H129.946V36.4516ZM129.946 23.4308C136.655 23.4308 138.764 23.353 139.285 23.2414C139.773 23.1366 140.401 22.937 140.68 22.7983C140.958 22.6597 141.366 22.3841 141.584 22.1845C141.802 21.9867 142.099 21.596 142.246 21.317C142.404 21.0177 142.514 20.392 142.514 19.7951C142.514 19.1779 142.402 18.5657 142.229 18.2309C142.074 17.9283 141.7 17.4919 141.398 17.262C141.095 17.0303 140.468 16.7141 140.003 16.5602C139.326 16.3336 138.247 16.2626 134.571 16.2018L129.981 16.1239L129.946 23.4308Z" fill="#BF1220"/>
<path d="M166.964 24.4455L167.992 22.7967C168.558 21.8903 170.423 18.8076 172.134 15.9481C173.846 13.089 175.341 10.71 175.458 10.6603C175.575 10.6129 177.247 10.5944 182.68 10.6637L170.599 30.6176L170.43 42.1165H162.992L162.914 30.7867L157.056 21.0635C153.834 15.7165 151.079 11.1692 150.933 10.9595L150.669 10.5791H158.682L166.964 24.4455Z" fill="#BF1220"/>
<path d="M51.0153 26.5978C50.6505 26.7431 50.3318 26.8388 50.0592 26.885C49.6685 26.9514 49.459 26.988 49.4309 26.9948C47.7135 27.4024 45.9596 27.6524 44.169 27.7448C42.8379 27.8123 41.3678 27.8084 39.7586 27.7329C37.9477 27.6485 36.1634 27.3388 34.4055 26.8039C34.1454 26.7245 33.8565 26.5488 33.5643 26.4593C29.7433 21.6969 24.8999 18.3219 19.0339 16.3343C17.178 15.7059 15.4038 15.3101 13.7112 15.1468C13.6786 14.6907 13.5958 14.2233 13.4629 13.7447C13.0913 12.4092 12.6521 11.171 12.1454 10.0302C11.0373 7.53247 9.62172 5.22166 7.89874 3.09778C7.51586 2.62481 6.91507 1.92999 6.09638 1.01332C5.68647 0.556115 5.30471 0.31625 4.95111 0.293728C4.96575 0.0775115 5.04683 -0.0193354 5.19435 0.00318715C19.5373 2.16197 32.9207 8.55724 43.5474 18.4204C44.2107 19.0364 45.3684 20.1868 47.0204 21.8714C48.2467 23.1226 49.5784 24.698 51.0153 26.5978Z" fill="#BE1220"/>
<path d="M13.7112 15.1468C13.1662 16.7999 12.8249 17.8856 12.6875 18.4036C10.9296 25.0218 11.2934 31.5489 13.7787 37.9847C13.415 38.3721 13.0389 38.7673 12.6503 39.1705C12.1988 39.6401 11.8333 40.0444 11.5541 40.3833C8.47748 44.1164 6.32095 48.3603 5.08446 53.1148C5.06644 53.0382 5.04167 52.9605 5.01014 52.8817C2.67342 47.001 1.17286 41.0708 0.508446 35.0911C0.404842 34.162 0.305743 33.2324 0.211149 32.3023C0.101351 31.2381 0.097973 29.9813 0 28.8175V24.1925C0.101351 23.0725 0.10473 21.8715 0.201014 20.8428C0.345158 19.3158 0.456644 18.2369 0.535473 17.6063C1.27534 11.6649 2.74728 5.89395 4.95111 0.293728C5.30471 0.31625 5.68647 0.556115 6.09638 1.01332C6.91507 1.92999 7.51586 2.62481 7.89874 3.09778C9.62172 5.22166 11.0373 7.53247 12.1454 10.0302C12.6521 11.171 13.0913 12.4092 13.4629 13.7447C13.5958 14.2233 13.6786 14.6907 13.7112 15.1468Z" fill="#E61626"/>
<path d="M33.5641 26.4593C33.2724 26.9886 32.9903 27.4047 32.7178 27.7076C29.8546 30.8867 26.4391 33.4897 22.581 35.3461C19.7859 36.6907 16.8519 37.5703 13.7787 37.9847C11.2934 31.5489 10.9296 25.0218 12.6875 18.4036C12.8249 17.8856 13.166 16.7999 13.7111 15.1468C15.4036 15.3101 17.1778 15.7059 19.0337 16.3343C24.8997 18.3219 29.7432 21.6969 33.5641 26.4593Z" fill="#730913"/>
<path d="M51.0153 26.5978C46.3892 32.3737 41.1604 37.2611 35.3293 41.2599C26.2291 47.5009 16.1475 51.4526 5.08446 53.1148C6.32095 48.3603 8.47748 44.1164 11.5541 40.3833C11.8333 40.0444 12.1988 39.6401 12.6503 39.1705C13.0389 38.7673 13.415 38.3721 13.7787 37.9847C16.8519 37.5703 19.7859 36.6907 22.581 35.3461C26.4391 33.4897 29.8546 30.8867 32.7178 27.7076C32.9903 27.4047 33.2726 26.9886 33.5643 26.4593C33.8565 26.5488 34.1454 26.7245 34.4055 26.8039C36.1634 27.3388 37.9477 27.6485 39.7586 27.7329C41.3678 27.8084 42.8379 27.8123 44.169 27.7448C45.9596 27.6524 47.7135 27.4024 49.4309 26.9948C49.459 26.988 49.6685 26.9514 50.0592 26.885C50.3318 26.8388 50.6505 26.7431 51.0153 26.5978Z" fill="#9A0E19"/>
<path d="M33.3167 42.609C33.3962 42.5244 33.9286 42.1355 34.5 41.7466C35.0713 41.3559 35.5581 41.0329 35.5818 41.0279C35.6054 41.0228 35.624 41.0549 35.624 41.1023C35.624 41.1496 35.1862 41.4777 34.6521 41.8345C34.1179 42.1896 33.5652 42.5447 33.4266 42.6225C33.2761 42.7054 33.2305 42.7003 33.3167 42.609Z" fill="#E61626"/>
</svg>
