<svg width="41" height="40" viewBox="0 0 41 40" fill="none" xmlns="http://www.w3.org/2000/svg">
<g clip-path="url(#clip0_5051_18166)">
<rect x="13.875" y="-9.8125" width="47.7094" height="11.2301" transform="rotate(42.202 13.875 -9.8125)" fill="#CB1F1F"/>
<rect x="13.875" y="-9.8125" width="47.7094" height="11.2301" transform="rotate(42.202 13.875 -9.8125)" fill="url(#paint0_linear_5051_18166)"/>
<path d="M17.856 3.38894C17.8342 3.36923 17.8226 3.34431 17.8212 3.31418C17.8197 3.28405 17.8288 3.25811 17.8485 3.23638L18.128 2.92822C18.1387 2.91637 18.1623 2.89634 18.1987 2.86813C18.2368 2.83794 18.2863 2.82703 18.3471 2.83539L18.4012 2.84124C18.7448 2.87919 19.0323 2.90951 19.2637 2.93218C19.4971 2.95664 19.6815 2.96368 19.8169 2.95328C19.9561 2.9427 20.0517 2.90877 20.1036 2.85148C20.1287 2.82383 20.148 2.79268 20.1614 2.75804C20.1748 2.72341 20.1558 2.6828 20.1045 2.63623C20.0649 2.6004 20.0254 2.58251 19.9857 2.58256C19.9479 2.58064 19.9133 2.58705 19.8819 2.6018C19.8505 2.61654 19.8247 2.62913 19.8044 2.63956C19.7695 2.65826 19.7367 2.6627 19.706 2.65287C19.6791 2.64286 19.6518 2.62531 19.6241 2.60023L19.0671 2.09508C19.0493 2.07896 19.0388 2.0587 19.0358 2.03431C19.0365 2.00974 19.0449 1.98856 19.061 1.97078C19.1651 1.85997 19.2801 1.78072 19.4062 1.73303C19.536 1.68515 19.6709 1.66534 19.811 1.67359C19.9511 1.68185 20.0907 1.71845 20.2298 1.78339C20.3707 1.84635 20.5044 1.93516 20.6308 2.0498C20.8106 2.21281 20.9425 2.381 21.0265 2.55435C21.1122 2.72573 21.1469 2.89395 21.1304 3.059C21.1139 3.22405 21.0421 3.3767 20.9149 3.51695C20.8164 3.6256 20.6984 3.70216 20.5608 3.74664C20.4233 3.79112 20.2676 3.81195 20.0938 3.80911C19.9238 3.8061 19.7342 3.79082 19.5252 3.76328L19.491 3.75928L20.1163 4.32624C20.138 4.34594 20.1496 4.37086 20.1511 4.40099C20.1525 4.43113 20.1434 4.45706 20.1237 4.47879L19.7153 4.92918C19.6956 4.95091 19.6707 4.96252 19.6405 4.96399C19.6104 4.96546 19.5845 4.95634 19.5627 4.93664L17.856 3.38894ZM20.7457 6.07413C20.5363 5.88425 20.3892 5.6951 20.3045 5.50668C20.2198 5.31826 20.1875 5.14143 20.2078 4.9762C20.23 4.81275 20.2929 4.66998 20.3964 4.54787C20.4125 4.53009 20.4319 4.52065 20.4545 4.51955C20.4808 4.51826 20.5029 4.52568 20.5207 4.5418L21.1192 5.08457C21.1509 5.11323 21.1692 5.14065 21.1742 5.16683C21.1813 5.19481 21.1842 5.21543 21.1829 5.22871C21.181 5.26656 21.1808 5.30055 21.1823 5.33069C21.1837 5.36082 21.1908 5.3888 21.2033 5.41461C21.2179 5.44222 21.241 5.47035 21.2726 5.49901C21.3042 5.52767 21.3401 5.54763 21.3803 5.55888C21.4205 5.57013 21.461 5.56909 21.5019 5.55577C21.5448 5.54423 21.5841 5.51871 21.6199 5.4792C21.6486 5.4476 21.6677 5.41268 21.6771 5.37446C21.6884 5.33427 21.6882 5.29274 21.6767 5.24989C21.6671 5.20882 21.6426 5.17037 21.6031 5.13455C21.5715 5.10589 21.5422 5.08655 21.5153 5.07654C21.4922 5.06634 21.4692 5.05991 21.4464 5.05725C21.4256 5.05638 21.4067 5.05542 21.3896 5.05436C21.3744 5.05133 21.3608 5.04444 21.349 5.0337L20.7593 4.49899C20.7415 4.48286 20.7311 4.46261 20.728 4.43821C20.7287 4.41364 20.7371 4.39246 20.7532 4.37468L21.8444 3.40951C21.8789 3.37951 21.9141 3.36646 21.9501 3.37036C21.99 3.37408 22.0237 3.38848 22.0514 3.41356L23.3759 4.61464C23.3976 4.63434 23.4092 4.65926 23.4107 4.6894C23.4122 4.71953 23.403 4.74546 23.3833 4.76719L23.0045 5.18499C22.9848 5.20672 22.9599 5.21832 22.9297 5.2198C22.8996 5.22127 22.8737 5.21215 22.8519 5.19245L21.9867 4.40785L21.7722 4.59674C21.8616 4.60936 21.9402 4.63384 22.008 4.67016C22.0796 4.70631 22.1638 4.76827 22.2606 4.85604C22.3515 4.93845 22.4242 5.03495 22.4787 5.14556C22.5351 5.25796 22.5702 5.37613 22.5838 5.50006C22.5974 5.624 22.5863 5.74536 22.5506 5.86415C22.5168 5.98474 22.4552 6.09442 22.3656 6.19319C22.2474 6.32357 22.1017 6.41281 21.9284 6.46092C21.7552 6.50903 21.5671 6.50407 21.3642 6.44602C21.1612 6.38798 20.9551 6.26401 20.7457 6.07413ZM22.8384 7.961C22.6902 7.82665 22.5768 7.68966 22.4983 7.55002C22.4215 7.4084 22.3751 7.26908 22.3589 7.13206C22.3446 6.99306 22.3569 6.85842 22.3958 6.72814C22.4385 6.59768 22.5052 6.47454 22.5958 6.35873C22.6402 6.30181 22.6964 6.23393 22.7643 6.1551C22.8341 6.07806 22.904 6.00102 22.9738 5.92398C23.0475 5.84675 23.1113 5.78227 23.1654 5.73054C23.2719 5.62906 23.388 5.55259 23.5139 5.50113C23.6417 5.45146 23.7747 5.42986 23.9128 5.43632C24.0527 5.44081 24.195 5.47445 24.3397 5.53723C24.4863 5.6018 24.6308 5.69857 24.773 5.82755C24.9152 5.95652 25.0246 6.08994 25.1012 6.22778C25.1798 6.36742 25.2281 6.50665 25.2462 6.64547C25.2661 6.78231 25.2566 6.91587 25.2177 7.04615C25.1807 7.17822 25.1169 7.30216 25.0263 7.41797C24.9801 7.47686 24.9212 7.54582 24.8495 7.62484C24.7816 7.70367 24.7118 7.78071 24.6399 7.85596C24.5701 7.933 24.509 7.9964 24.4567 8.04615C24.3502 8.14764 24.2332 8.22509 24.1055 8.27853C23.9817 8.33178 23.8498 8.35805 23.7101 8.35732C23.5722 8.35463 23.429 8.32198 23.2805 8.25938C23.1339 8.19481 22.9865 8.09535 22.8384 7.961ZM23.365 7.38023C23.4223 7.43218 23.4789 7.45112 23.5349 7.43706C23.5926 7.42102 23.6475 7.38624 23.6997 7.33272C23.7556 7.27902 23.8158 7.21661 23.8803 7.14549C23.9467 7.07617 24.0112 7.00505 24.0737 6.93215C24.14 6.85906 24.1953 6.79405 24.2398 6.73713C24.2844 6.68398 24.3118 6.62789 24.3222 6.56886C24.3345 6.51162 24.3119 6.45515 24.2544 6.39943C24.1933 6.34767 24.1349 6.3307 24.0792 6.34853C24.0234 6.36636 23.9703 6.39916 23.9197 6.44694C23.8694 6.49848 23.8101 6.55991 23.7418 6.6312C23.6774 6.70232 23.6129 6.77343 23.5484 6.84455C23.4859 6.91746 23.4296 6.98345 23.3797 7.04253C23.3335 7.10142 23.3052 7.16038 23.2949 7.21941C23.2863 7.27646 23.3097 7.33007 23.365 7.38023ZM25.515 10.3882C25.3669 10.2539 25.2535 10.1169 25.1749 9.97723C25.0982 9.83561 25.0517 9.69629 25.0356 9.55927C25.0212 9.42027 25.0335 9.28563 25.0725 9.15535C25.1152 9.02488 25.1818 8.90175 25.2725 8.78593C25.3169 8.72901 25.373 8.66114 25.4409 8.58231C25.5108 8.50527 25.5806 8.42822 25.6505 8.35118C25.7241 8.27396 25.788 8.20948 25.8421 8.15775C25.9485 8.05627 26.0647 7.9798 26.1905 7.92834C26.3184 7.87867 26.4513 7.85707 26.5895 7.86353C26.7294 7.86802 26.8717 7.90165 27.0163 7.96443C27.163 8.02901 27.3074 8.12578 27.4496 8.25476C27.5919 8.38373 27.7013 8.51714 27.7779 8.65499C27.8564 8.79463 27.9048 8.93386 27.9229 9.07267C27.9428 9.20951 27.9333 9.34307 27.8943 9.47335C27.8574 9.60542 27.7936 9.72936 27.7029 9.84518C27.6567 9.90407 27.5978 9.97303 27.5262 10.052C27.4583 10.1309 27.3884 10.2079 27.3166 10.2832C27.2467 10.3602 27.1856 10.4236 27.1333 10.4734C27.0269 10.5748 26.9098 10.6523 26.7822 10.7057C26.6583 10.759 26.5265 10.7853 26.3868 10.7845C26.2488 10.7818 26.1056 10.7492 25.9572 10.6866C25.8106 10.622 25.6632 10.5226 25.515 10.3882ZM26.0417 9.80743C26.099 9.85938 26.1556 9.87833 26.2115 9.86426C26.2693 9.84823 26.3242 9.81345 26.3763 9.75993C26.4322 9.70622 26.4924 9.64381 26.5569 9.5727C26.6234 9.50338 26.6879 9.43226 26.7504 9.35935C26.8166 9.28626 26.872 9.22126 26.9164 9.16434C26.961 9.11119 26.9885 9.0551 26.9988 8.99607C27.0111 8.93883 26.9885 8.88235 26.9311 8.82664C26.87 8.77488 26.8116 8.75791 26.7558 8.77574C26.7001 8.79356 26.6469 8.82637 26.5964 8.87415C26.5461 8.92569 26.4868 8.98711 26.4185 9.05841C26.354 9.12953 26.2895 9.20064 26.225 9.27176C26.1625 9.34466 26.1063 9.41066 26.0563 9.46973C26.0101 9.52863 25.9818 9.58759 25.9715 9.64662C25.963 9.70367 25.9864 9.75728 26.0417 9.80743ZM27.6419 12.3169C27.4937 12.1825 27.3804 12.0455 27.3018 11.9059C27.225 11.7643 27.1786 11.6249 27.1624 11.4879C27.1481 11.3489 27.1604 11.2143 27.1993 11.084C27.242 10.9535 27.3087 10.8304 27.3993 10.7146C27.4437 10.6577 27.4999 10.5898 27.5678 10.511C27.6376 10.4339 27.7075 10.3569 27.7773 10.2798C27.851 10.2026 27.9148 10.1381 27.969 10.0864C28.0754 9.98491 28.1915 9.90844 28.3174 9.85698C28.4452 9.80731 28.5782 9.78571 28.7163 9.79218C28.8563 9.79666 28.9985 9.8303 29.1432 9.89308C29.2898 9.95765 29.4343 10.0544 29.5765 10.1834C29.7187 10.3124 29.8281 10.4458 29.9047 10.5836C29.9833 10.7233 30.0316 10.8625 30.0497 11.0013C30.0696 11.1382 30.0601 11.2717 30.0212 11.402C29.9842 11.5341 29.9204 11.658 29.8298 11.7738C29.7836 11.8327 29.7247 11.9017 29.653 11.9807C29.5851 12.0595 29.5153 12.1366 29.4434 12.2118C29.3736 12.2889 29.3125 12.3523 29.2602 12.402C29.1537 12.5035 29.0367 12.5809 28.909 12.6344C28.7852 12.6876 28.6533 12.7139 28.5136 12.7132C28.3757 12.7105 28.2325 12.6778 28.0841 12.6152C27.9374 12.5507 27.79 12.4512 27.6419 12.3169ZM28.1685 11.7361C28.2258 11.788 28.2824 11.807 28.3384 11.7929C28.3961 11.7769 28.451 11.7421 28.5032 11.6886C28.5591 11.6349 28.6193 11.5725 28.6838 11.5013C28.7502 11.432 28.8147 11.3609 28.8772 11.288C28.9435 11.2149 28.9988 11.1499 29.0433 11.093C29.0879 11.0398 29.1153 10.9837 29.1257 10.9247C29.138 10.8675 29.1154 10.811 29.0579 10.7553C28.9969 10.7035 28.9384 10.6866 28.8827 10.7044C28.8269 10.7222 28.7738 10.755 28.7232 10.8028C28.6729 10.8543 28.6136 10.9158 28.5454 10.9871C28.4809 11.0582 28.4164 11.1293 28.3519 11.2004C28.2894 11.2733 28.2331 11.3393 28.1832 11.3984C28.137 11.4573 28.1087 11.5162 28.0984 11.5753C28.0898 11.6323 28.1132 11.6859 28.1685 11.7361ZM29.7687 14.2455C29.6206 14.1111 29.5072 13.9742 29.4286 13.8345C29.3519 13.6929 29.3054 13.5536 29.2893 13.4166C29.2749 13.2776 29.2872 13.1429 29.3262 13.0126C29.3689 12.8822 29.4355 12.759 29.5262 12.6432C29.5706 12.5863 29.6267 12.5184 29.6946 12.4396C29.7645 12.3626 29.8343 12.2855 29.9042 12.2085C29.9778 12.1312 30.0417 12.0668 30.0958 12.015C30.2022 11.9136 30.3184 11.8371 30.4442 11.7856C30.5721 11.736 30.7051 11.7144 30.8432 11.7208C30.9831 11.7253 31.1254 11.7589 31.2701 11.8217C31.4167 11.8863 31.5611 11.9831 31.7033 12.112C31.8456 12.241 31.955 12.3744 32.0316 12.5123C32.1101 12.6519 32.1585 12.7911 32.1766 12.93C32.1965 13.0668 32.187 13.2004 32.148 13.3306C32.1111 13.4627 32.0473 13.5867 31.9567 13.7025C31.9104 13.7614 31.8515 13.8303 31.7799 13.9093C31.712 13.9882 31.6421 14.0652 31.5703 14.1405C31.5004 14.2175 31.4393 14.2809 31.387 14.3307C31.2806 14.4321 31.1635 14.5096 31.0359 14.563C30.912 14.6163 30.7802 14.6425 30.6405 14.6418C30.5025 14.6391 30.3593 14.6065 30.2109 14.5439C30.0643 14.4793 29.9169 14.3798 29.7687 14.2455ZM30.2954 13.6647C30.3527 13.7167 30.4093 13.7356 30.4652 13.7216C30.523 13.7055 30.5779 13.6707 30.63 13.6172C30.6859 13.5635 30.7461 13.5011 30.8106 13.43C30.8771 13.3607 30.9416 13.2896 31.0041 13.2166C31.0704 13.1436 31.1257 13.0786 31.1701 13.0216C31.2147 12.9685 31.2422 12.9124 31.2525 12.8534C31.2648 12.7961 31.2422 12.7396 31.1848 12.6839C31.1237 12.6322 31.0653 12.6152 31.0095 12.633C30.9538 12.6509 30.9006 12.6837 30.8501 12.7314C30.7998 12.783 30.7405 12.8444 30.6722 12.9157C30.6077 12.9868 30.5432 13.0579 30.4787 13.129C30.4162 13.202 30.36 13.2679 30.31 13.327C30.2638 13.3859 30.2355 13.4449 30.2252 13.5039C30.2167 13.561 30.2401 13.6146 30.2954 13.6647ZM31.6544 15.9015C31.6327 15.8818 31.6211 15.8568 31.6196 15.8267C31.6181 15.7966 31.6273 15.7706 31.647 15.7489L33.3828 13.8347C33.4025 13.813 33.4274 13.8014 33.4575 13.7999C33.4876 13.7985 33.5136 13.8076 33.5353 13.8273L34.4124 14.6226C34.6969 14.8806 34.8609 15.1463 34.9044 15.4198C34.948 15.6933 34.8686 15.9417 34.6662 16.1649C34.5462 16.2972 34.4107 16.385 34.2599 16.4283C34.1129 16.4713 33.9661 16.4804 33.8195 16.4555L33.5713 17.4616C33.5665 17.4788 33.5596 17.4923 33.5507 17.5022C33.5345 17.52 33.5133 17.5295 33.4869 17.5308C33.4643 17.5319 33.4441 17.5244 33.4264 17.5083L32.8189 16.9575C32.7794 16.9216 32.7587 16.8849 32.7569 16.8472C32.7551 16.8095 32.7574 16.7811 32.7641 16.7619L33.0224 15.9649L32.901 15.8547L32.3877 16.4207C32.368 16.4424 32.3431 16.454 32.313 16.4555C32.2829 16.4569 32.2569 16.4478 32.2352 16.4281L31.6544 15.9015ZM33.4115 15.2917L33.6278 15.4879C33.6732 15.5291 33.7202 15.5447 33.7688 15.5348C33.8212 15.5247 33.8653 15.4998 33.9011 15.4603C33.937 15.4208 33.9592 15.3744 33.968 15.3211C33.9804 15.2677 33.962 15.2186 33.9126 15.1738L33.6963 14.9776L33.4115 15.2917ZM34.6312 18.6548C34.4416 18.4829 34.2996 18.302 34.2054 18.1121C34.1131 17.9241 34.0812 17.7331 34.1094 17.5391C34.1377 17.3452 34.236 17.1554 34.4044 16.9697L35.5034 15.7578C35.5231 15.736 35.548 15.7244 35.5782 15.723C35.6083 15.7215 35.6342 15.7306 35.656 15.7503L36.2367 16.2769C36.2585 16.2967 36.2701 16.3216 36.2715 16.3517C36.273 16.3818 36.2639 16.4078 36.2442 16.4295L35.156 17.6296C35.0897 17.7027 35.0564 17.7751 35.0561 17.8468C35.0578 17.9204 35.0952 17.9903 35.1683 18.0566C35.2414 18.1228 35.3137 18.1524 35.385 18.1451C35.4584 18.1396 35.5282 18.1003 35.5945 18.0272L36.6827 16.8272C36.7024 16.8054 36.7274 16.7938 36.7575 16.7924C36.7876 16.7909 36.8136 16.8 36.8353 16.8197L37.4161 17.3464C37.4378 17.3661 37.4494 17.391 37.4509 17.4211C37.4523 17.4513 37.4432 17.4772 37.4235 17.4989L36.3245 18.7108C36.1561 18.8965 35.9768 19.0129 35.7866 19.06C35.5963 19.107 35.4031 19.0938 35.2069 19.0203C35.0108 18.9468 34.8189 18.825 34.6312 18.6548ZM36.0036 19.8454C35.9819 19.8256 35.9703 19.8007 35.9688 19.7706C35.9673 19.7405 35.9765 19.7145 35.9962 19.6928L37.732 17.7786C37.7517 17.7569 37.7766 17.7453 37.8067 17.7438C37.8368 17.7423 37.8628 17.7515 37.8845 17.7712L38.8683 18.6632C39.0579 18.8352 39.1915 18.9995 39.269 19.1562C39.3483 19.3109 39.3745 19.4607 39.3476 19.6055C39.3244 19.7501 39.2502 19.8915 39.1248 20.0298C39.0675 20.093 39.0017 20.1378 38.9275 20.164C38.857 20.1901 38.7878 20.203 38.7198 20.2025C38.6538 20.2038 38.5978 20.1981 38.5519 20.1852C38.5983 20.2849 38.6133 20.3993 38.597 20.5285C38.5844 20.6575 38.5333 20.7714 38.4437 20.8701C38.3094 21.0183 38.1657 21.1112 38.0128 21.1489C37.8616 21.1846 37.7023 21.1697 37.5349 21.1043C37.3694 21.0406 37.1968 20.9273 37.017 20.7643L36.0036 19.8454ZM37.1266 19.9349L37.4021 20.1848C37.4515 20.2296 37.5004 20.2451 37.5488 20.2314C37.601 20.2175 37.6414 20.1948 37.6701 20.1632C37.7023 20.1276 37.72 20.0843 37.7232 20.0332C37.7301 19.9819 37.7109 19.9356 37.6654 19.8944L37.3899 19.6445L37.1266 19.9349ZM37.8386 19.1497L38.0875 19.3754C38.131 19.4148 38.1741 19.4287 38.217 19.4172C38.2636 19.4055 38.3012 19.3838 38.3299 19.3522C38.3586 19.3206 38.3765 19.281 38.3836 19.2335C38.3927 19.1877 38.3755 19.1451 38.332 19.1057L38.0831 18.88L37.8386 19.1497Z" fill="white"/>
</g>
<defs>
<linearGradient id="paint0_linear_5051_18166" x1="37.7297" y1="-9.8125" x2="37.7297" y2="1.41758" gradientUnits="userSpaceOnUse">
<stop stop-color="#FF4343"/>
<stop offset="0.5" stop-color="#CB1F1F"/>
<stop offset="1" stop-color="#A50909"/>
</linearGradient>
<clipPath id="clip0_5051_18166">
<rect width="41" height="41" fill="white"/>
</clipPath>
</defs>
</svg>
