<svg width="300" height="88" viewBox="0 0 300 88" fill="none" xmlns="http://www.w3.org/2000/svg">
<path d="M45.7066 28.0643C48.225 26.2281 50.1454 23.7435 51.274 20.9219C47.3154 18.6478 42.4386 18.0245 37.7893 19.6416C37.604 19.7006 37.4356 19.7932 37.2587 19.8606C36.0459 16.3989 33.4854 13.3583 30.7733 11C28.0612 13.3499 25.4754 16.3989 24.2626 19.8606C24.0857 19.7932 23.9173 19.709 23.732 19.6416C19.0827 18.0245 14.2059 18.6478 10.2473 20.9219C11.3759 23.7435 13.2963 26.2366 15.8147 28.0643C8.41117 31.5344 5 38.2304 5 44.2947C5 51.7151 10.2978 58.6637 16.8254 66.202C22.477 72.7295 24.0436 76.5787 30.7649 76.5787C37.4861 76.5787 39.0443 72.7295 44.7043 66.202C51.2319 58.6637 56.5297 51.7151 56.5297 44.2947C56.5297 38.2304 53.1186 31.5344 45.715 28.0643H45.7066Z" fill="#FF3F13"/>
<path d="M42.3785 40.6898C39.7927 38.104 34.9329 37.1186 30.7552 39.7043V25.0742L19.4184 38.6431C15.1144 42.9471 15.9735 48.2196 19.132 51.3781C21.7177 53.9639 26.5776 54.9493 30.7552 52.3636V66.9937L42.0921 53.4248C46.4045 49.1209 45.537 43.8483 42.3785 40.6898Z" fill="white"/>
<path fill-rule="evenodd" clip-rule="evenodd" d="M69.0195 51.0488V58.9324L69.0279 58.8987C72.3128 61.0465 76.3641 62.1162 81.2239 62.1162C84.9973 62.1162 88.1052 61.2655 90.4888 59.5051C92.8724 57.7532 94.0853 55.437 94.0853 52.4807C94.0853 49.9118 93.2346 47.8987 91.5248 46.4837C89.815 45.0687 87.4314 43.8727 84.4161 42.9294C83.8484 42.7646 83.1356 42.5742 82.4338 42.3868L82.4336 42.3868C81.5217 42.1433 80.6283 41.9047 80.0953 41.7334L78.655 41.2617C77.7117 40.8743 77.3495 40.4447 77.3495 39.8888C77.3495 38.558 78.7393 37.9179 81.485 37.9179C83.2791 37.9179 85.1236 38.2211 87.0608 38.777C88.998 39.3329 90.6573 40.0152 92.0555 40.8322V33.4202C88.7706 31.7525 85.2163 30.9355 81.3924 30.9355C73.8373 30.9355 69.0195 34.1446 69.0195 39.9309C69.0195 41.6913 69.567 43.2747 70.1482 44.3444C70.7963 45.3814 72.1925 46.3716 73.1 47.0153L73.2056 47.0902C73.7025 47.3934 74.3763 47.6882 75.2776 48.0335L77.3495 48.8084L79.6405 49.4485L82.4789 50.2655C82.5864 50.3008 82.7171 50.3408 82.8603 50.3846C83.4347 50.5603 84.2104 50.7977 84.5003 51.0404C85.2163 51.5121 85.7132 51.8995 85.7132 52.8007C85.7132 54.3842 84.0876 55.1591 80.8955 55.1591C78.874 55.1591 76.7094 54.7801 74.4184 53.9631C72.1275 53.1461 70.325 52.2027 69.0195 51.0488ZM98.0524 31.5508V61.5438H121.274V54.772H106.155V31.5508H98.0524ZM138.911 62.141C134.143 62.141 130.185 60.6418 127.035 57.6012C123.885 54.5607 122.31 50.8715 122.31 46.5423C122.31 42.2131 123.885 38.5324 127.035 35.4918C130.185 32.4512 134.143 30.952 138.911 30.952C143.678 30.952 147.636 32.4512 150.787 35.4918C153.937 38.5324 155.512 42.2215 155.512 46.5423C155.512 50.8631 153.937 54.5522 150.787 57.6012C147.636 60.6418 143.678 62.141 138.911 62.141ZM138.911 55.0323C141.294 55.0323 143.231 54.2153 144.806 52.6319C146.382 51.0484 147.19 48.9933 147.19 46.5507C147.19 44.1082 146.382 42.053 144.806 40.4696C143.231 38.8861 141.294 38.0691 138.911 38.0691C136.527 38.0691 134.548 38.8861 132.973 40.4696C131.398 42.053 130.631 44.1082 130.631 46.5507C130.631 48.9933 131.398 51.0484 132.973 52.6319C134.548 54.2153 136.527 55.0323 138.911 55.0323ZM166.116 38.3226V61.5438H174.218V38.3226H183.711V31.5508H156.666V38.3226H166.116ZM201.44 62.141C196.673 62.141 192.714 60.6418 189.564 57.6012C186.414 54.5607 184.839 50.8715 184.839 46.5423C184.839 42.2131 186.414 38.5324 189.564 35.4918C192.714 32.4512 196.673 30.952 201.44 30.952C206.208 30.952 210.166 32.4512 213.316 35.4918C216.466 38.5324 218.041 42.2215 218.041 46.5423C218.041 50.8631 216.466 54.5522 213.316 57.6012C210.166 60.6418 206.208 62.141 201.44 62.141ZM201.44 55.0323C203.824 55.0323 205.761 54.2153 207.336 52.6319C208.911 51.0484 209.72 48.9933 209.72 46.5507C209.72 44.1082 208.911 42.053 207.336 40.4696C205.761 38.8861 203.824 38.0691 201.44 38.0691C199.057 38.0691 197.077 38.8861 195.502 40.4696C193.927 42.053 193.161 44.1082 193.161 46.5507C193.161 48.9933 193.927 51.0484 195.502 52.6319C197.077 54.2153 199.057 55.0323 201.44 55.0323ZM222.126 31.5508V61.5438H230.229V50.3586H236.167C239.679 50.3586 242.467 49.5079 244.539 47.7475C246.611 45.9872 247.647 43.7215 247.647 40.9336C247.647 38.1457 246.611 35.9221 244.539 34.1618C242.467 32.4099 239.679 31.5508 236.167 31.5508H222.126ZM235.586 44.0163H230.229V38.0615H235.586C237.969 38.0615 239.452 39.1312 239.452 41.0178C239.452 42.9045 237.927 44.0163 235.586 44.0163ZM250.376 61.5438V31.5508H258.478V61.5438H250.376ZM273.985 31.383L260.753 61.5445H260.761H269.31L271.963 55.2022H283.662L286.315 61.5445H294.999L281.767 31.383H273.985ZM281.093 49.0369H274.524L277.808 41.0269L281.093 49.0369Z" fill="white"/>
</svg>
