<svg width="300" height="189" viewBox="0 0 300 189" fill="none" xmlns="http://www.w3.org/2000/svg">
<path d="M74.5416 140.757C74.5291 139.163 73.1581 137.856 71.5654 137.916C69.7427 137.945 68.3583 139.691 68.7501 141.473C69.0032 142.624 69.9538 143.53 71.1151 143.73C72.9118 144.039 74.5959 142.58 74.5416 140.757Z" fill="white"/>
<path d="M69.442 176.877H73.7873V149.067H69.442V176.877Z" fill="white"/>
<path fill-rule="evenodd" clip-rule="evenodd" d="M23.2037 151.385H27.5397C26.6673 148.375 25.3382 145.713 22.6535 143.897C20.3595 142.345 17.3317 141.474 13.5962 141.474C10.2287 141.474 7.13473 142.362 4.85879 144.086C2.56002 145.827 1.13738 148.396 1.13738 151.604C1.13738 154.391 2.39176 156.739 4.75132 158.232C6.96866 159.634 10.127 160.488 13.8684 161.334L13.8718 161.335C17.3216 162.102 19.7371 162.691 21.3087 163.568C22.7088 164.349 23.4143 165.538 23.4143 167.144C23.4143 169.093 22.6188 170.558 21.2133 171.567C19.7716 172.603 17.6179 173.204 14.8746 173.204C11.8591 173.204 9.56518 172.548 7.89428 171.376C5.86206 169.951 4.9253 167.782 4.33557 165.458H0C0.665684 168.906 1.90357 172.103 4.75457 174.352C7.22827 176.303 10.6257 177.407 14.9724 177.407C18.369 177.407 21.5474 176.598 23.9024 174.872C26.2909 173.122 27.7665 170.473 27.7665 166.991C27.7665 164.079 26.5116 161.596 24.0048 160.07C21.7245 158.681 18.5108 157.911 14.8343 157.113C10.8956 156.237 8.52549 155.497 7.13911 154.64C6.04002 153.961 5.48262 153.026 5.48262 151.73C5.48262 149.787 6.28889 148.317 7.6687 147.304C9.07947 146.268 11.1514 145.67 13.694 145.67C17.9697 145.67 21.5259 147.361 23.2037 151.385Z" fill="white"/>
<path fill-rule="evenodd" clip-rule="evenodd" d="M39.0482 153.121V149.067H34.7029V188.699H39.0482V172.823C39.9254 173.863 40.9662 174.763 42.136 175.485C44.2216 176.772 46.6308 177.439 49.0817 177.408C56.9092 177.405 62.2891 171.189 62.2891 162.98C62.2891 154.772 56.8895 148.526 49.0814 148.523C46.6279 148.494 44.2168 149.164 42.1309 150.456C40.9627 151.179 39.9236 152.08 39.0482 153.121ZM48.6986 152.796C54.3839 152.796 57.9438 157.579 57.9438 162.98C57.9438 168.355 54.3949 173.163 48.7265 173.163C43.2591 173.163 39.0482 168.932 39.0482 162.98C39.0482 157.021 43.1947 152.796 48.6986 152.796Z" fill="white"/>
<path d="M101.478 176.878H105.851V159.435C105.851 156.083 104.93 153.332 103.112 151.417C101.288 149.495 98.6737 148.534 95.535 148.544C92.8233 148.545 90.5547 149.266 88.7336 150.549C87.8731 151.156 87.124 151.879 86.48 152.695V149.068H82.1348V176.878H86.48V162.833C86.48 159.75 87.291 157.24 88.7253 155.518C90.1423 153.816 92.2381 152.796 95.0197 152.796C97.1358 152.796 98.7129 153.403 99.7657 154.493C100.823 155.588 101.478 157.3 101.478 159.763V176.878Z" fill="white"/>
<path d="M182.999 176.878H187.337V158.87C187.337 155.706 186.556 153.099 184.924 151.277C183.278 149.439 180.887 148.534 177.957 148.544C175.358 148.545 173.257 149.288 171.6 150.613C170.576 151.432 169.746 152.454 169.073 153.612C168.538 152.358 167.774 151.302 166.774 150.48C165.191 149.178 163.111 148.544 160.649 148.544C158.161 148.544 156.147 149.238 154.54 150.494C153.871 151.018 153.283 151.63 152.766 152.312V149.068H148.379V176.878H152.769L152.724 162.799V162.796C152.724 159.993 153.369 157.453 154.604 155.643C155.815 153.868 157.608 152.761 160.076 152.761C161.98 152.761 163.333 153.307 164.224 154.285C165.128 155.278 165.689 156.863 165.689 159.212V176.878H170.079L170.034 162.799V162.796C170.035 159.993 170.679 157.453 171.914 155.643C173.125 153.868 174.918 152.761 177.386 152.761C179.318 152.761 180.668 153.308 181.551 154.283C182.448 155.274 182.999 156.858 182.999 159.212V176.878Z" fill="white"/>
<path fill-rule="evenodd" clip-rule="evenodd" d="M201.58 170.667C200.06 169.251 199.023 167.242 198.723 164.7H222.089C222.16 160.44 221.401 156.149 218.493 152.851C216.069 150.103 212.559 148.523 208.318 148.523C200.172 148.523 194.253 154.556 194.253 163.07C194.253 167.305 195.73 170.902 198.277 173.442C200.823 175.981 204.382 177.408 208.444 177.408C214.869 177.408 219.451 173.744 221.828 168.013H217.314C215.556 171.433 212.342 173.163 208.507 173.163C205.68 173.163 203.29 172.259 201.58 170.667ZM208.318 152.747C213.17 152.747 216.573 155.873 217.471 160.497H198.856C199.817 155.902 203.443 152.747 208.318 152.747Z" fill="white"/>
<path d="M248.216 176.878H252.561V159.435C252.561 156.083 251.64 153.333 249.831 151.419C248.016 149.497 245.418 148.534 242.308 148.544C239.593 148.545 237.323 149.266 235.501 150.549C234.64 151.156 233.89 151.879 233.246 152.695V149.068H228.873V176.878H233.218V162.833C233.218 159.751 234.031 157.24 235.466 155.518C236.884 153.816 238.98 152.796 241.758 152.796C243.874 152.796 245.451 153.403 246.504 154.493C247.561 155.588 248.216 157.3 248.216 159.763V176.878Z" fill="white"/>
<path fill-rule="evenodd" clip-rule="evenodd" d="M282.69 176.878H287.035V149.068H282.697V153.099C281.824 152.062 280.788 151.165 279.623 150.445C277.54 149.157 275.133 148.49 272.684 148.523C264.906 148.527 259.47 154.77 259.47 162.98C259.47 171.192 264.852 177.406 272.727 177.408C275.161 177.434 277.553 176.769 279.624 175.492C280.784 174.777 281.817 173.886 282.69 172.856V176.878ZM273.067 152.796C278.535 152.796 282.745 157.027 282.745 162.98C282.745 168.97 278.504 173.163 273.067 173.163C267.682 173.163 263.822 168.983 263.822 162.98C263.822 156.974 267.649 152.796 273.067 152.796Z" fill="white"/>
<path d="M300 138.669H295.606V176.877H300V138.669Z" fill="white"/>
<path fill-rule="evenodd" clip-rule="evenodd" d="M127.025 177.407C135.008 177.405 141.275 171.227 141.275 162.979C141.275 155.217 134.778 148.739 127.02 148.739C119.267 148.739 112.772 155.21 112.766 162.968C112.589 170.834 119.162 177.478 127.025 177.407ZM127.02 173.162C121.532 173.162 117.153 168.904 117.153 162.979C117.153 156.958 121.573 152.795 127.02 152.795C132.461 152.795 136.88 157.056 136.88 162.979C136.88 168.904 132.508 173.162 127.02 173.162Z" fill="white"/>
<path d="M99.4083 0.914062H147.765C165.027 1.39351 194.552 18.2837 201 39.3494C196.986 37.2964 192.255 34.5497 187.245 33.3054C179.519 30.8878 168.977 31.6901 159.198 31.6901H129.475C129.078 33.7119 129.475 36.5467 129.475 38.5685C144.52 38.975 160.767 38.5685 176.209 38.5685C182.963 38.5685 192.04 38.5685 196.38 42.6951C199.577 46.2159 200.284 48.7979 201 51.5122V106.1C200.284 107.01 197.774 106.903 196.53 106.903H165.625C153.804 106.903 142.467 107.309 133.924 103.266C126.036 100.131 118.86 95.453 112.819 89.5089C107.124 83.4436 101.848 76.9717 99 68.4781C103.475 70.862 107.789 73.2881 112.819 74.522C120.492 76.9717 131.109 76.1587 140.909 76.1587H170.525V68.8739H119.729C110.148 68.8739 99.8379 66.9401 99 55.5237V1.72706C99 1.32056 99.4083 1.32056 99.4083 0.914062Z" fill="url(#paint0_linear)"/>
<defs>
<linearGradient id="paint0_linear" x1="99" y1="53.9618" x2="201" y2="53.9618" gradientUnits="userSpaceOnUse">
<stop stop-color="#00BED6"/>
<stop offset="1" stop-color="#B94CA1"/>
</linearGradient>
</defs>
</svg>
