<?xml version="1.0" encoding="UTF-8"?>
<svg id="Layer_2" data-name="Layer 2" xmlns="http://www.w3.org/2000/svg" viewBox="0 0 630.65 88.92">
  <defs>
    <style>
      .cls-1 {
        fill: #027fff;
      }

      .cls-1, .cls-2 {
        stroke-width: 0px;
      }

      .cls-2 {
        fill: #fff;
      }
    </style>
  </defs>
  <g id="Layer_1-2" data-name="Layer 1">
    <g>
      <path class="cls-2" d="M105.99,60.06c0,22.52-20.02,28.85-53.58,28.85C13.84,88.92,0,78.02,0,59.47h35.04c0,6.62,5.59,8.83,19.43,8.83,11.04,0,15.9-1.62,15.9-5.74,0-4.56-3.53-4.56-30.47-7.95C13.1,51.23,2.36,45.49,2.36,27.82,2.36,8.98,18.25,0,51.23,0c36.36,0,49.17,11.78,49.17,27.82h-33.86c0-4.86-4.27-7.36-15.46-7.36s-15.46,2.36-15.46,5.89c0,4.71,6.18,5.01,21.64,6.62,28.85,2.94,48.73,4.42,48.73,27.09Z"/>
      <path class="cls-2" d="M172.83,61.83c23.55,0,39.31-7.66,39.31-30.47,0-19.28-11.63-29.44-37.1-29.44h-63.01v85.38h33.56v-25.47h27.23ZM145.59,23.85h22.38c7.36,0,10.89,2.36,10.89,7.66,0,5.89-3.53,8.39-10.89,8.39h-22.38v-16.05Z"/>
      <path class="cls-2" d="M253.06,1.77h-33.56v85.38h33.56V1.77Z"/>
      <path class="cls-2" d="M332.11,1.77v46.52L297.95,1.77h-35.18v85.38h33.56v-46.37l34.01,46.37h35.33V1.77h-33.56Z"/>
      <path class="cls-1" d="M462.39,38.13c-28.85,0-57.86,11.04-57.86,44.46,0,1.62.15,3.24.15,4.71h34.01c-.3-1.47-.3-3.09-.3-4.71,0-13.69,8.25-22.52,23.85-22.52s23.85,8.83,23.85,22.52c0,1.62-.15,3.24-.29,4.71h34.15c.15-1.47.15-3.09.15-4.71.29-33.42-28.71-44.46-57.71-44.46Z"/>
      <path class="cls-1" d="M462.39,28.71c23.11,0,46.22-7.07,54.61-26.94h-37.98c-3.97,3.24-9.57,5.15-16.63,5.15s-12.66-1.91-16.64-5.15h-37.83c8.39,19.87,31.5,26.94,54.47,26.94Z"/>
      <path class="cls-1" d="M597.09,1.77v46.52L562.94,1.77h-35.18v85.38h33.41v-46.37l34.01,46.37h35.48V1.77h-33.56Z"/>
    </g>
  </g>
</svg>