<svg width="220" height="301" viewBox="0 0 220 301" fill="none" xmlns="http://www.w3.org/2000/svg">
<path fill-rule="evenodd" clip-rule="evenodd" d="M211.152 109.626L204.067 159.128L218.561 154.161L197.725 205.682L125.313 232.144L83.3195 230.616L32.0494 213.045L10.3191 175.771L0.737272 117.891L14.7939 124.582L15.6754 88.4528L35.6282 53.5856L71.2977 18.7422L78.4725 38.4508L88.6376 0.914062L135.075 26.2205L161.361 54.4051L181.504 47.5035L211.152 109.626ZM131.685 132.757L172.736 131.648L174.584 95.0694L173.475 89.1562L108.072 91.0023L44.8933 91.3718L46.3726 135.71L89.2684 133.863L92.2244 179.681V205.91L127.99 206.281L130.205 178.94L131.685 132.757Z" fill="white"/>
<path d="M1.12788 268.342L19.3057 267.776C19.9326 267.756 20.4617 268.235 20.5079 268.858L20.8603 274.135C20.9083 274.784 20.3736 275.379 19.7175 275.379L14.8269 275.443L15.4749 298.343C15.492 298.97 15.013 299.495 14.3888 299.54L8.80811 299.916C8.16377 299.96 7.59878 299.451 7.56634 298.808L6.45258 275.557L1.51189 275.618C0.895627 275.629 0.375694 275.15 0.333466 274.529L0.0022396 269.586C-0.0382922 268.938 0.476481 268.363 1.12788 268.342Z" fill="white"/>
<path d="M34.9803 268.983L40.4778 269.287C41.1222 269.292 41.6516 269.844 41.6299 270.489L41.6048 299.162C41.5857 299.79 41.0504 300.287 40.429 300.287L34.7718 299.894C34.127 299.888 33.591 299.331 33.6211 298.68L33.245 289.514L31.119 289.365L31.7116 299.608C31.7171 300.255 31.177 300.777 30.5358 300.777L25.12 300.914C24.4853 300.907 23.9759 300.395 23.9667 299.769L22.9769 269.185C22.9689 268.536 23.504 267.999 24.1567 267.999L29.5724 267.863C30.1887 267.871 30.6941 268.355 30.7232 268.976L31.3275 282.73L33.72 282.214L33.8045 270.088C33.8386 269.463 34.3523 268.973 34.9803 268.983Z" fill="white"/>
<path d="M55.8554 267.095L60.8581 266.713C61.529 266.667 62.1158 267.215 62.1131 267.888C62.0946 269.961 61.7595 288.651 61.5787 290.696C61.1432 295.61 59.8658 299.82 52.7926 300.011C46.4861 300.19 44.2427 294.967 44.1781 292.061C44.1609 291.269 43.9458 268.844 43.9458 268.844C43.9322 268.162 44.5527 267.596 45.2311 267.671L50.9108 268.278C51.9224 268.381 51.9519 269.34 51.9427 270.121C51.9045 273.41 51.7356 287.724 51.7567 290.036C51.7791 292.351 52.175 293.993 53.2914 293.942C54.7179 293.878 54.7351 291.938 54.7496 290.463C54.7983 283.058 54.7975 275.653 54.7786 268.248C54.7832 267.64 55.2534 267.138 55.8554 267.095Z" fill="white"/>
<path d="M77.657 268.187L82.8431 267.938C83.4986 267.903 84.0529 268.441 84.0664 269.091L84.4003 298.636C84.4108 299.28 83.8301 299.882 83.1691 299.816L77.6794 299.823C77.2145 299.794 76.8149 299.495 76.6528 299.065L72.1542 286.194L72.9657 298.586C72.9991 299.275 72.4149 299.86 71.7187 299.81L66.5022 299.426C65.8952 299.382 65.4267 298.879 65.4227 298.27L64.5637 269.953C64.5571 269.353 65.0084 268.844 65.6048 268.78L70.8081 268.204C71.3386 268.149 71.8401 268.46 72.0248 268.959L77.4102 283.801L76.5511 269.434C76.5125 268.791 77.004 268.223 77.657 268.187Z" fill="white"/>
<path fill-rule="evenodd" clip-rule="evenodd" d="M88.6838 267.351C89.0639 267.341 89.432 267.339 89.7962 267.339C99.0495 267.339 103.952 270.489 104.783 276.971C105.208 280.282 105.477 287.252 103.799 292.355C101.786 298.489 93.065 299.152 89.4122 299.152C88.8367 299.152 88.2632 299.13 87.6888 299.098C87.0686 299.048 86.5948 298.522 86.6159 297.899L87.5516 268.478C87.5714 267.86 88.0675 267.365 88.6838 267.351ZM93.9016 292.519C95.5221 291.968 96.9697 291.476 97.5688 286.719C98.1759 281.864 98.1878 277.401 96.7903 275.538C95.8296 274.256 95.0774 274.273 94.4849 274.118L93.6812 292.594L93.9016 292.519Z" fill="white"/>
<path d="M114.991 294.448L121.809 293.911C122.487 293.865 123.094 294.42 123.069 295.108L122.965 298.906C122.945 299.536 122.429 300.039 121.801 300.039L108.7 300.035C108.06 300.035 107.541 299.523 107.533 298.886L107.122 269.784C107.114 269.148 107.62 268.624 108.257 268.606L121.209 268.288C121.834 268.279 122.343 268.732 122.406 269.343L122.8 273.492C122.969 274.214 122.397 274.931 121.653 274.917H114.579V281.832L119.364 281.587C120.07 281.56 120.667 282.154 120.588 282.875L120.175 286.79C120.118 287.356 119.661 287.794 119.089 287.833L114.676 288.074L114.991 294.448Z" fill="white"/>
<path fill-rule="evenodd" clip-rule="evenodd" d="M132.414 267.341C141.295 267.341 142.711 272.764 143.001 276.845C143.407 282.517 141.527 285.321 139.507 286.875L142.401 297.81C142.52 298.479 142.018 299.129 141.344 299.176L137.268 299.495C136.681 299.512 136.138 299.142 136.029 298.549L133.723 288.721L131.643 288.833L131.639 298.012C131.639 298.679 131.056 299.235 130.385 299.172L126.306 298.855C125.711 298.808 125.245 298.314 125.232 297.71L124.827 269.242C124.819 268.68 125.217 268.189 125.769 268.079C128.267 267.591 130.505 267.341 132.414 267.341ZM131.643 282.422C132.786 282.328 134.587 281.991 135.637 280.862C136.299 280.145 136.578 279.192 136.483 277.951C136.229 274.61 134.318 273.911 132.761 273.911C132.392 273.911 132.01 273.95 131.643 274.031V282.422Z" fill="white"/>
<path d="M158.782 284.896L158.554 285.193C162.671 288.51 164.424 297.558 164.446 298.623C164.466 299.282 163.93 299.782 163.289 299.816L158.15 299.837C157.56 299.844 157.058 299.398 156.99 298.808C156.494 294.66 153.6 290.46 152.609 289.863L152.533 298.502C152.527 299.078 152.096 299.563 151.523 299.641L146.652 300.285C146.33 300.328 145.994 300.23 145.744 300.015C145.556 299.854 145.425 299.639 145.368 299.403C145.35 299.323 145.339 299.239 145.338 299.155L144.711 269.69C144.7 269.05 145.215 268.512 145.858 268.504L152.105 268.406C152.757 268.393 153.305 268.949 153.286 269.599L152.938 280.693C155.363 277.26 157.054 271.807 156.886 269.252C156.839 268.608 157.327 268.055 157.969 268.012L162.822 267.689C163.463 267.645 164.031 268.153 164.061 268.794C164.486 277.437 160.593 282.528 158.782 284.896Z" fill="white"/>
<path d="M167.545 267.786L173.099 267.072C173.784 266.979 174.398 267.533 174.413 268.211L174.849 297.35C174.861 297.966 174.387 298.482 173.769 298.524L167.728 298.974C167.058 298.974 166.477 298.502 166.477 297.808L166.527 268.938C166.529 268.352 166.962 267.86 167.545 267.786Z" fill="white"/>
<path d="M177.247 277.149C177.705 269.012 183.23 268.022 184.915 267.914C189.016 267.648 192.137 268.589 194.164 270.688C196.562 273.165 196.478 276.347 196.472 276.481C196.451 277.112 195.915 277.6 195.291 277.603L190.085 277.529C189.365 277.523 188.816 276.842 188.956 276.138C189.012 275.835 189.061 274.907 188.613 274.362C188.256 273.938 187.588 273.74 186.624 273.781C185.228 273.844 184.849 274.961 184.757 276.201C184.618 277.268 184.515 278.652 184.432 280.143C184.29 282.691 184.23 285.242 184.093 287.79C183.891 291.762 184.598 293.383 185.232 294.047C185.602 294.441 186.071 294.626 186.694 294.626C187.235 294.589 187.751 294.508 188.112 294.064C188.87 293.16 188.772 291.303 188.676 290.724C188.564 290.046 189.087 289.405 189.771 289.373L194.097 289.184C194.937 289.156 195.272 289.844 195.335 290.562V290.577C195.471 292.12 195.717 294.976 193.842 297.205C192.008 299.386 188.949 299.988 186.223 299.988C179.369 299.988 177.635 295.171 177.207 293.102C176.498 289.638 176.736 285.635 177.072 280.101L177.247 277.149Z" fill="white"/>
<path d="M212.65 284.087C217.221 288.267 219.473 297.099 219.553 297.439C219.706 298.11 219.225 298.784 218.547 298.858L212.528 299.53C211.891 299.6 211.318 299.148 211.243 298.512C210.814 294.943 208.111 290.687 206.509 289.022L206.083 298.164C206.05 298.73 205.617 299.196 205.048 299.261L199.956 299.829C199.285 299.917 198.683 299.359 198.661 298.697L197.958 269.434C197.948 268.831 198.392 268.315 198.994 268.248L205.014 267.576C205.7 267.502 206.309 268.051 206.309 268.74L206.194 280.431C210.859 276.31 209.632 269.454 209.618 269.36C209.52 268.708 209.984 268.088 210.64 268.018L216.66 267.344C217.271 267.28 217.835 267.702 217.937 268.319C219.443 277.702 214.989 281.888 212.721 284.02L212.65 284.087Z" fill="white"/>
</svg>
