<svg xmlns="http://www.w3.org/2000/svg" width="301" height="244" fill="none" viewBox="0 0 301 244"><path fill="#fff" d="M275.355 206.262h7.991v29.132h16.951v7.283h-24.942v-36.415Zm-14.654 36.415h7.989v-36.415h-7.989v36.415Zm-34.772-5.548a23.072 23.072 0 0 0 15.41 5.825c7.835 0 13.336-4.057 13.336-11.286v-.104c0-6.347-4.15-8.998-11.516-10.925-6.275-1.612-7.835-2.394-7.835-4.783v-.104c0-1.772 1.608-3.174 4.669-3.174a16.997 16.997 0 0 1 9.443 3.589l4.15-6.035a20.992 20.992 0 0 0-13.489-4.629c-7.422 0-12.714 4.37-12.714 10.977v.104c0 7.231 4.723 9.257 12.037 11.132 6.072 1.56 7.318 2.599 7.318 4.628v.104c0 2.132-1.971 3.433-5.243 3.433a16.632 16.632 0 0 1-10.838-4.423l-4.724 5.671h-.004Zm-1.631 5.678-15.568-36.673h-7.368l-15.569 36.673h8.149l10.999-27.048 4.778 11.748h-6.413l-2.838 7.044h12.116l3.358 8.259 8.356-.003Zm-95.627-36.545c11.416 0 19.304 7.856 19.304 18.103v.103c0 10.247-7.888 18.206-19.304 18.206h-12.48v-36.412h12.482-.002Zm10.951 18.206a10.5 10.5 0 0 0-3.032-7.916 10.54 10.54 0 0 0-7.917-3.061h-4.493v21.955h4.493a10.456 10.456 0 0 0 7.905-2.997 10.415 10.415 0 0 0 3.044-7.875v-.106Zm-41.275-.75v6.266h3.764v3.848a12.725 12.725 0 0 1-7.524 2.184 10.99 10.99 0 0 1-8.016-3.385 10.95 10.95 0 0 1-2.982-8.163v-.103a10.908 10.908 0 0 1 2.872-7.818 10.95 10.95 0 0 1 7.557-3.523 13.351 13.351 0 0 1 9.495 3.693l5.033-6.086a19.911 19.911 0 0 0-14.27-4.993 18.823 18.823 0 0 0-13.508 5.397 18.758 18.758 0 0 0-5.534 13.433v.104c-.156 5.037 1.845 10.007 5.442 13.535 3.602 3.531 8.616 5.435 13.654 5.189a23.538 23.538 0 0 0 15.514-5.772v-13.809l-11.497.003Zm-39.898 0v6.266h3.764v3.848a12.724 12.724 0 0 1-7.524 2.184 10.989 10.989 0 0 1-8.016-3.385 10.95 10.95 0 0 1-2.983-8.163v-.103a10.908 10.908 0 0 1 2.873-7.818 10.95 10.95 0 0 1 7.557-3.523 13.36 13.36 0 0 1 9.495 3.693l5.033-6.086a19.911 19.911 0 0 0-14.27-4.993 18.82 18.82 0 0 0-13.51 5.396 18.758 18.758 0 0 0-5.532 13.434v.104c-.156 5.037 1.845 10.007 5.442 13.535 3.602 3.531 8.616 5.435 13.654 5.189a23.551 23.551 0 0 0 15.514-5.772v-13.809l-11.497.003Zm-44.193 18.956h7.99v-11.748l13.957-24.666h-9.08l-8.821 16.202-8.664-16.202H.297l13.959 24.822v11.592Zm160.173-13.006a11.318 11.318 0 0 0 5.801-4.331 11.288 11.288 0 0 0 1.984-6.955c0-1.579-.158-3.086-.716-4.578a11.45 11.45 0 0 0-2.397-3.847 14.548 14.548 0 0 0-10.588-3.695h-15.404v36.415h7.991v-29.184h6.738c3.372 0 6.279 1.641 6.279 5.306 0 3.068-2.233 5.151-6.126 5.151h-3.931v7.075h2.123l7.783 11.652h9.341l-8.878-13.009Z"/><path fill="#FA6432" d="M234.297 93.635a87.472 87.472 0 0 1-3.803 20.696c-32.382-1.93-62.748-16.314-84.697-40.12-21.945 23.804-52.304 38.189-84.681 40.124a88.36 88.36 0 0 1-3.82-20.696 104.63 104.63 0 0 0 32.031-6.215 91.541 91.541 0 0 0-30.492-16.675 87.7 87.7 0 0 1 6.52-19.827 112.61 112.61 0 0 1 44.157 26.575 104.982 104.982 0 0 0 20.338-16.82 92.453 92.453 0 0 1-52.474-28.764 87.975 87.975 0 0 1 15.122-14.437 71.643 71.643 0 0 0 29.562 19.69 123.768 123.768 0 0 1-8.391-31.413A89.23 89.23 0 0 1 134.125.527a103.332 103.332 0 0 0 11.672 37.941A103.35 103.35 0 0 0 157.473.5a88.206 88.206 0 0 1 20.456 5.234 124.12 124.12 0 0 1-8.391 31.424 71.764 71.764 0 0 0 29.546-19.67 88.283 88.283 0 0 1 15.145 14.401 92.482 92.482 0 0 1-52.49 28.777 105.197 105.197 0 0 0 20.346 16.819 112.62 112.62 0 0 1 44.158-26.574 88.734 88.734 0 0 1 6.496 19.83 91.536 91.536 0 0 0-30.464 16.671 104.652 104.652 0 0 0 32.022 6.223Zm-78.044 82.242v-29.656l30.063-39.06a129.526 129.526 0 0 1-18.635-10.064l-21.892 28.448-21.892-28.448a129.277 129.277 0 0 1-18.635 10.064l30.06 39.06v29.672a89.32 89.32 0 0 0 20.927-.016h.004Z"/></svg>