<?xml version="1.0" standalone="no"?>
<!DOCTYPE svg PUBLIC "-//W3C//DTD SVG 20010904//EN"
 "http://www.w3.org/TR/2001/REC-SVG-20010904/DTD/svg10.dtd">
<svg version="1.0" xmlns="http://www.w3.org/2000/svg"
 width="70.000000pt" height="70.000000pt" viewBox="0 0 70.000000 70.000000"
 preserveAspectRatio="xMidYMid meet">
<metadata>
Created by potrace 1.14, written by Peter Selinger 2001-2017
</metadata>
<g transform="translate(0.000000,70.000000) scale(0.100000,-0.100000)"
fill="#000000" stroke="none">
<path d="M221 589 c-17 -10 -31 -22 -32 -26 0 -5 -3 -37 -5 -73 -5 -72 -7 -75
-29 -67 -23 9 -20 85 4 106 14 12 16 22 10 39 -10 25 -18 27 -43 9 -13 -10
-17 -29 -19 -88 -2 -81 7 -103 50 -120 21 -8 23 -14 24 -96 1 -49 0 -102 -1
-120 -2 -48 23 -58 118 -43 1 0 2 15 2 33 0 18 6 42 14 52 21 29 46 3 46 -46
0 -33 4 -40 26 -45 15 -4 43 -3 62 2 l36 9 -2 128 c-1 76 2 128 8 128 6 1 15
3 20 4 6 1 15 3 20 4 6 0 10 8 10 16 0 8 4 15 9 15 15 0 7 156 -8 174 -12 14
-16 14 -43 -2 -18 -11 -31 -13 -36 -7 -26 37 -187 47 -241 14z m300 -78 c0 -9
2 -25 4 -36 4 -22 -23 -71 -33 -60 -4 4 -7 33 -8 64 -1 52 1 58 18 53 10 -2
18 -12 19 -21z"/>
</g>
</svg>
