<svg xmlns="http://www.w3.org/2000/svg" width="42" height="41" fill="none"><g clip-path="url(#a)"><path fill="#fff" d="M10.898 26.254V17.71H7.714v-2.6c.49 0 .98 0 1.47-.124s.857-.124 1.102-.372a1.11 1.11 0 0 0 .734-.743c.123-.247.245-.619.368-1.114h3.306V26.13h3.184v2.849H7.714V26.13h3.184v.124Zm11.143-5.449c-.857-.495-1.47-1.114-1.837-1.733-.367-.62-.49-1.363-.49-2.23 0-.619.123-1.114.368-1.733.244-.496.612-.991 1.102-1.363a7.786 7.786 0 0 1 1.714-.99c.735-.248 1.47-.372 2.449-.372.98 0 1.714.124 2.449.372.735.247 1.224.495 1.714.867.49.371.857.743 1.102 1.238.245.495.368.99.368 1.61 0 .743-.245 1.486-.613 2.105-.367.62-1.102 1.115-1.959 1.61v.124c.98.495 1.714.99 2.204 1.734.49.743.735 1.61.735 2.6 0 .743-.123 1.362-.367 1.982-.245.619-.613 1.114-1.225 1.61-.49.495-1.102.743-1.96.99-.734.248-1.59.372-2.57.372-.98 0-1.96-.124-2.694-.372-.735-.247-1.47-.619-1.96-.99-.49-.372-.857-.991-1.102-1.486a5.018 5.018 0 0 1-.367-1.858c0-.99.245-1.734.735-2.353.612-.743 1.224-1.362 2.204-1.734Zm1.347-3.963c0 .496.122.743.367.991s.49.495.98.743c.245.124.367.248.734.372.245.123.613.247 1.102.371.245-.371.49-.743.613-1.114.122-.372.245-.743.245-1.239 0-.495-.123-.99-.49-1.362-.368-.371-.857-.495-1.347-.495-.612 0-.98.123-1.347.495-.735.372-.857.743-.857 1.238Zm-.49 7.307c0 .743.245 1.362.735 1.857.49.496 1.102.62 1.836.62.245 0 .368 0 .735-.124.245-.124.49-.124.735-.372.245-.124.367-.371.49-.619.122-.248.245-.495.245-.867 0-.495-.123-.99-.368-1.238s-.612-.62-1.347-.99c-.245-.125-.49-.249-.857-.372-.367-.124-.735-.248-.98-.372-.244.248-.49.62-.734.99-.368.496-.49.992-.49 1.487Zm15.918-4.458v-3.096h-2.571v3.096h-3.061v2.6h3.06v3.22h2.572v-3.22h3.062v-2.6h-3.062Zm-3.918 9.04c-2.939 5.944-8.694 9.535-15.184 9.535-9.428 0-17.02-7.801-17.02-17.337s7.592-17.337 17.02-17.337c6.49 0 12.245 3.715 15.184 9.535v.124h2.816l-.122-.248C34.53 5.697 27.429.991 19.592.991 8.816.991 0 9.907 0 20.929c0 11.022 8.816 20.062 19.592 20.062 7.837 0 14.939-4.706 18-12.136l.122-.248-2.816.124Z"/></g><defs><clipPath id="a"><path fill="#fff" d="M0 .991h42v40H0z"/></clipPath></defs></svg>