<svg xmlns="http://www.w3.org/2000/svg" width="57" height="41" fill="none"><g clip-path="url(#a)"><path fill="#fff" d="M11.276 17.741c-4.46 9.25-8.054 16.75-8.054 16.875s2.106.125 13.134.125h13.135v-15h-9.913l-.991 2-.991 2.125h7.434v5.75H11.028l.124-.5c.124-.25 2.726-5.625 5.824-12l5.7-11.625h2.23v10h4.461V.991h-10.16l-7.931 16.75Zm19.33.125v16.875h4.461v-10.75h8.674l2.602 5.25a385.08 385.08 0 0 0 2.602 5.375s.62.125 2.479.125h2.354s-3.593-7.625-8.054-16.875L37.67.991H30.483v16.875h.123Zm7.807-5c1.735 3.625 3.222 6.625 3.222 6.625h-6.692V6.241c.248-.125 1.735 3 3.47 6.625ZM2.354 35.991s-.62 1.125-1.239 2.5l-1.239 2.5H57l-1.24-2.5-1.238-2.5H28.5c-20.817-.125-26.022-.125-26.146 0Z"/></g><defs><clipPath id="a"><path fill="#fff" d="M0 .991h57v40H0z"/></clipPath></defs></svg>