<svg viewBox="0 0 586 266" xmlns="http://www.w3.org/2000/svg">
<g clip-path="url(#clip0_6071_227825)">
<path d="M383.532 207.623C381.897 206.772 380.563 205.438 379.712 203.802C377.95 201.062 379.42 198.611 384.12 196.45C398.822 190.178 408.131 176.652 412.047 155.869C413.58 148.717 413.876 141.355 412.925 134.102C411.748 127.638 409.69 124.014 406.751 123.229C401.266 121.653 395.481 126.454 389.397 137.633C384.496 146.465 380.38 157.149 377.049 169.685C373.326 183.797 372.737 196.639 375.284 208.211C378.229 221.937 384.995 229.878 395.58 232.033C407.728 234.58 420.172 231.64 432.912 223.214C445.459 215.174 467.172 180.459 471.67 168.109C471.767 166.718 471.977 165.337 472.299 163.979C475.431 162.982 479.061 155.999 480.437 157.994C482.003 160.149 485.953 159.111 484.188 163.62C477.924 179.501 459.034 221.818 431.446 240.871C414.205 250.288 396.272 253.035 377.648 249.111C365.1 246.358 354.794 238.417 346.729 225.289C337.712 210.585 334.97 193.53 338.5 174.124C342.616 152.75 351.633 136.184 365.549 124.426C379.865 112.076 396.425 107.567 415.229 110.899C428.374 113.246 437.683 118.637 443.155 127.069C448.255 134.711 449.253 143.825 446.148 154.413C439.099 178.52 418.228 196.257 383.532 207.623Z" fill="white"/>
<path d="M268.694 207.623C267.046 206.774 265.701 205.436 264.844 203.792C263.069 201.049 264.545 198.594 269.242 196.44C283.957 190.168 293.266 176.641 297.169 155.859C298.71 148.708 299.01 141.345 298.057 134.092C296.88 127.628 294.822 124.003 291.883 123.219C286.397 121.643 280.613 126.444 274.529 137.623C269.628 146.455 265.512 157.139 262.181 169.675C258.457 183.787 257.869 196.629 260.416 208.201C263.355 221.927 270.117 229.868 280.702 232.023C292.857 234.57 305.304 231.63 318.044 223.204C330.591 215.164 339.119 204.969 343.627 192.619C343.627 192.42 343.717 192.32 343.916 192.32C347.061 191.342 349.319 191.834 350.688 193.796C352.258 195.951 352.158 199.276 350.389 203.772C344.119 219.653 332.849 232.003 316.578 240.821C299.29 250.238 281.357 252.985 262.779 249.061C250.232 246.308 239.926 238.367 231.861 225.239C222.844 210.535 220.098 193.48 223.622 174.074C227.738 152.7 236.754 136.134 250.671 124.376C264.98 112.026 281.543 107.517 300.361 110.849C313.493 113.197 322.802 118.587 328.287 127.019C333.381 134.661 334.358 143.775 331.22 154.363C324.205 178.504 303.363 196.257 268.694 207.623Z" fill="white"/>
<path d="M161.166 7.36197C179.399 2.46061 193.904 6.1848 204.682 18.5346C216.052 32.0616 218.21 50.5896 211.155 74.1188C205.836 91.5628 197.993 106.071 187.627 117.642C198.405 121.566 206.148 129.015 210.856 139.988C214.978 150.183 215.863 161.652 213.509 174.394C208.017 203.41 190.373 225.356 160.578 240.233C134.507 253.567 105.985 258.764 75.0128 255.825C51.8936 253.47 33.2758 247.196 19.1596 237.001C4.05929 226.22 -2.11777 213.282 0.628347 198.185C2.98216 186.215 11.021 177.097 24.745 170.832C37.0191 165.044 50.8124 163.298 64.1414 165.845C65.5178 148.194 66.6947 128.689 67.6721 107.328C68.8424 80.46 69.4309 66.1616 69.4375 64.4325C70.9934 39.5333 74.5208 22.6712 80.0197 13.8461C87.2673 2.28105 96.1872 -2.04172 106.779 0.877813C116.374 3.43157 121.275 8.41939 121.481 15.8412C118.342 22.7045 115.204 34.2696 112.065 50.5365C125.783 27.2467 142.15 12.8552 161.166 7.36197ZM62.4259 188.509C54.2009 184.393 46.4579 183.315 39.197 185.277C31.3576 187.432 26.6532 192.722 25.084 201.148C23.5215 212.92 29.3063 222.822 42.4385 230.856C53.2168 237.506 66.1528 241.526 81.2464 242.916C98.6939 244.486 115.846 240.163 132.701 229.948C151.904 218.39 164.252 202.216 169.744 181.427C175.615 159.081 174.618 143.203 166.752 133.793C155.189 139.665 142.555 141.328 128.851 138.781C122.388 137.404 119.549 135.15 120.334 132.017C121.118 128.885 125.234 125.749 132.681 122.61L143.333 117.992C153.307 112.545 165.216 95.2572 171.489 76.4332C177.361 59.3815 178.93 45.7482 176.197 35.5331C173.052 24.3604 165.505 21.0352 153.556 25.5575C144.912 28.8827 135.697 38.9779 125.909 55.8434C116.933 70.9365 107.667 87.8451 105.962 101.422C104.392 123.774 103.608 148.77 103.608 176.409C103.807 197.777 100.28 213.166 93.0255 222.576C84.7871 233.17 72.8186 233.662 57.1198 224.052C58.6758 220.91 59.7629 216.012 60.3513 209.348L62.4259 188.509Z" fill="white"/>
<path d="M460.749 258.768C460.927 254.636 461.884 250.574 463.572 246.797C466.834 237.264 469.457 227.522 471.421 217.638C473.246 207.743 475.032 197.109 476.727 185.846L480.447 168.03L466.005 173.866C464.087 174.074 462.149 173.778 460.38 173.008C458.643 172.256 457.141 171.05 456.031 169.516C455.277 168.509 454.808 167.316 454.675 166.065C454.476 164.708 455.373 162.992 457.348 160.837C459.65 158.44 462.205 156.3 464.968 154.453C471.107 150.495 477.646 147.195 484.477 144.607L485.185 140.667C486.611 132.686 490.042 105.253 491.299 96.7739C492.556 88.2946 493.713 79.965 495.288 71.8348C496.735 63.9573 498.623 56.1674 500.943 48.5019C503.007 41.4998 506.028 34.816 509.92 28.6403C513.59 22.5668 518.636 17.4411 524.651 13.6769C530.783 9.82463 537.703 7.40077 544.898 6.58435C554.363 4.8325 564.141 6.5878 572.406 11.5222C576.044 13.9665 579.107 17.1729 581.382 20.9192C583.623 24.6049 585.007 28.7472 585.432 33.0397C586.997 42.3867 585.161 51.9852 580.255 60.0935C578.766 63.0232 576.602 65.557 573.942 67.4856C571.224 69.4593 568.093 70.7895 564.786 71.376C561.417 72.0287 557.928 71.6065 554.812 70.169C551.743 68.7669 549.227 66.3841 547.661 63.3955C546.807 62.1519 546.207 60.7516 545.895 59.2754C545.606 57.2803 546.753 55.2853 549.356 53.2204C553.993 48.8044 557.058 42.9921 558.083 36.6707C558.467 34.6985 558.527 32.6771 558.263 30.6854C557.206 23.5628 553.545 19.9716 547.461 20.7796C539.063 21.8969 532.69 31.8959 528.341 50.7764C527.065 56.6122 525.848 62.8767 524.731 69.7798L515.585 134.083C521.692 132.205 527.916 130.729 534.216 129.663C537.759 129.143 541.355 129.106 544.908 129.554C547.931 129.99 550.885 130.819 553.695 132.018C556.324 132.977 558.67 134.583 560.517 136.686C562.312 138.75 563.521 141.258 564.018 143.949C564.349 144.959 564.424 146.035 564.237 147.081C564.043 148.13 563.602 149.119 562.951 149.964C562.269 150.813 561.402 151.495 560.417 151.959C559.417 152.436 558.323 152.682 557.216 152.677L538.954 154.443C529.811 155.594 520.734 157.209 511.755 159.281L508.055 180.799C504.295 208.461 501.542 222.596 498.48 235.355C495.996 246.328 495.837 246.329 493.862 251.546C492.428 255.398 489.956 258.778 486.718 261.311C483.48 263.843 479.604 265.428 475.52 265.891C466.314 266.529 461.557 264.255 460.749 258.768Z" fill="white"/>
</g>
<defs>
<clipPath id="clip0_6071_227825">
<rect width="586" height="266" fill="white"/>
</clipPath>
</defs>
</svg>
