<svg width="46" height="53" viewBox="0 0 46 53" fill="none" xmlns="http://www.w3.org/2000/svg">
<path fill-rule="evenodd" clip-rule="evenodd" d="M15.5001 0.5C14.1193 0.5 13.0001 1.61929 13.0001 3C13.0001 4.38071 14.1193 5.5 15.5001 5.5H30.5001C31.8808 5.5 33.0001 4.38071 33.0001 3C33.0001 1.61929 31.8808 0.5 30.5001 0.5H15.5001ZM29.6972 14.332C25.9567 12.7826 21.7947 12.5781 17.9203 13.7534C14.0459 14.9287 10.6989 17.411 8.44957 20.7774C6.20022 24.1438 5.1877 28.186 5.58455 32.2152C5.98139 36.2444 7.76303 40.0114 10.6259 42.8742C13.4888 45.7371 17.2558 47.5188 21.285 47.9156C25.3142 48.3125 29.3564 47.2999 32.7228 45.0506C36.0891 42.8013 38.5715 39.4543 39.7467 35.5799C40.922 31.7055 40.7176 27.5435 39.1682 23.8029C38.6398 22.5273 39.2456 21.0649 40.5212 20.5365C41.7968 20.0081 43.2592 20.6139 43.7876 21.8895C45.7796 26.6988 46.0425 32.0499 44.5314 37.0313C43.0204 42.0126 39.8288 46.3159 35.5006 49.208C31.1724 52.1 25.9753 53.4018 20.7949 52.8915C15.6145 52.3813 10.7712 50.0906 7.09037 46.4098C3.40953 42.7289 1.11885 37.8857 0.608622 32.7053C0.0983966 27.5248 1.4002 22.3278 4.29222 17.9995C7.18424 13.6713 11.4875 10.4798 16.4689 8.96872C21.4502 7.45765 26.8014 7.72054 31.6107 9.7126C32.8863 10.241 33.492 11.7034 32.9637 12.979C32.4353 14.2546 30.9729 14.8604 29.6972 14.332ZM21.2321 32.2676C20.2557 31.2913 20.2557 29.7083 21.2321 28.732L38.9097 11.0544C39.886 10.0781 41.469 10.0781 42.4453 11.0544C43.4216 12.0307 43.4216 13.6136 42.4453 14.5899L24.7676 32.2676C23.7913 33.2439 22.2084 33.2439 21.2321 32.2676Z" fill="white" fill-opacity="0.96"/>
</svg>
