<svg width="46" height="48" viewBox="0 0 46 48" fill="none" xmlns="http://www.w3.org/2000/svg">
<path fill-rule="evenodd" clip-rule="evenodd" d="M37.5555 0.666748C39.0428 0.666748 39.9795 2.26852 39.2501 3.56469L33.4017 13.9588L41.4381 22.1521C43.9355 24.6971 45.3333 28.1182 45.3333 31.6845V33.7223C45.3333 41.2381 39.238 47.3334 31.7222 47.3334H14.2222C6.70504 47.3334 0.611084 41.2388 0.611084 33.7223V31.6845C0.611084 28.1182 2.0089 24.6971 4.50612 22.1523L12.5444 13.9588L6.69437 3.56491C5.96484 2.26873 6.90148 0.666748 8.38886 0.666748H37.5555ZM34.2303 4.55564H11.7145L16.6497 13.3241C17.0741 14.0782 16.9492 15.0219 16.3433 15.6396L7.282 24.8758C5.49818 26.6937 4.49997 29.1368 4.49997 31.6845V33.7223C4.49997 39.0911 8.85291 43.4445 14.2222 43.4445H31.7222C37.0903 43.4445 41.4444 39.0904 41.4444 33.7223V31.6845C41.4444 29.1368 40.4462 26.6937 38.6621 24.8755L30.1744 16.2223H22.7326C21.7355 16.2223 20.9136 15.4717 20.8013 14.5046L20.7882 14.2779C20.7882 13.204 21.6588 12.3334 22.7326 12.3334H29.8516L34.2303 4.55564ZM9.36069 30.8056C10.4346 30.8056 11.3051 31.6762 11.3051 32.7501C11.3051 34.8981 13.046 36.639 15.194 36.639L15.4208 36.652C16.3878 36.7644 17.1385 37.5862 17.1385 38.5834C17.1385 39.6573 16.2679 40.5279 15.194 40.5279C10.8982 40.5279 7.41625 37.0459 7.41625 32.7501C7.41625 31.6762 8.28681 30.8056 9.36069 30.8056Z" fill="white" fill-opacity="0.96"/>
</svg>
