<svg width="38" height="55" viewBox="0 0 38 55" fill="none" xmlns="http://www.w3.org/2000/svg">
<path d="M18.9996 54.5C23.9724 54.5 28.7416 52.5246 32.2579 49.0083C35.7742 45.4919 37.7496 40.7228 37.7496 35.75C37.7496 33.585 37.1746 31.5075 36.4996 29.575C32.3321 33.6925 29.1671 35.75 26.9996 35.75C36.9871 18.25 31.4996 10.75 16.4996 0.75C17.7496 13.25 9.50962 18.935 6.15462 22.0925C3.41794 24.6667 1.51772 28.0037 0.700331 31.6708C-0.117054 35.3379 0.186101 39.1661 1.57049 42.6588C2.95488 46.1516 5.35665 49.1479 8.46439 51.2593C11.5721 53.3706 15.2425 54.4997 18.9996 54.5V54.5ZM20.7746 10.0875C28.8771 16.9625 28.9171 22.305 22.6571 33.2725C20.7546 36.605 23.1621 40.75 26.9996 40.75C28.7196 40.75 30.4596 40.25 32.2971 39.2625C31.7525 41.32 30.7376 43.2229 29.3325 44.8214C27.9274 46.42 26.1704 47.6706 24.1998 48.4747C22.2292 49.2788 20.0989 49.6144 17.9765 49.4552C15.8542 49.296 13.7977 48.6463 11.9691 47.5573C10.1406 46.4682 8.58975 44.9695 7.43883 43.1792C6.28791 41.3889 5.56831 39.3559 5.33667 37.2402C5.10503 35.1246 5.36769 32.984 6.10396 30.9871C6.84023 28.9902 8.03001 27.1914 9.57962 25.7325C9.89462 25.4375 11.4921 24.02 11.5621 23.9575C12.6221 23.0075 13.4946 22.165 14.3571 21.2425C17.4321 17.9475 19.6421 14.2925 20.7721 10.0875H20.7746Z" fill="white"/>
</svg>
