<svg width="20" height="20" viewBox="0 0 20 20" fill="none" xmlns="http://www.w3.org/2000/svg">
<path d="M10 1.875C14.4862 1.875 18.125 5.5125 18.125 10C18.125 14.4875 14.4862 18.125 10 18.125C5.5125 18.125 1.875 14.4875 1.875 10C1.875 5.5125 5.5125 1.875 10 1.875ZM10 3.75C6.54803 3.75 3.75 6.54803 3.75 10C3.75 13.452 6.54803 16.25 10 16.25C13.4512 16.25 16.25 13.4515 16.25 10C16.25 6.54851 13.4512 3.75 10 3.75ZM9.46281 5.85C9.98058 5.85 10.4003 6.26973 10.4003 6.7875V9.79886L13.3709 10.8045C13.8614 10.9705 14.1243 11.5027 13.9583 11.9931C13.7923 12.4835 13.2601 12.7465 12.7697 12.5805L9.1622 11.3592C8.7815 11.2304 8.52531 10.8732 8.52531 10.4712V6.7875C8.52531 6.26973 8.94505 5.85 9.46281 5.85Z" fill="#99A2AD"/>
</svg>
