<svg width="36" height="48" viewBox="0 0 36 48" fill="none" xmlns="http://www.w3.org/2000/svg">
<path d="M9.06472 33.9973C8.25365 33.1826 8.67645 33.4123 6.72019 32.8864C5.83259 32.6473 5.05232 32.1879 4.34672 31.6376L0.112184 42.0664C-0.297549 43.0761 0.467784 44.1729 1.55232 44.1317L6.47005 43.9432L9.85245 47.532C10.5991 48.3232 11.9095 48.0767 12.3193 47.067L17.1773 35.1026C16.1655 35.6689 15.0427 36.0007 13.8817 36.0007C12.0617 36.0007 10.3518 35.2892 9.06472 33.9973ZM35.7282 42.0664L31.4937 31.6376C30.7881 32.1889 30.0078 32.6473 29.1202 32.8864C27.1537 33.4151 27.5849 33.1845 26.7757 33.9973C25.4886 35.2892 23.7778 36.0007 21.9578 36.0007C20.7967 36.0007 19.6739 35.6679 18.6622 35.1026L23.5202 47.067C23.9299 48.0767 25.2413 48.3232 25.987 47.532L29.3703 43.9432L34.2881 44.1317C35.3726 44.1729 36.1379 43.0751 35.7282 42.0664ZM24.5469 31.8757C25.973 30.4179 26.1363 30.5436 28.1673 29.9876C29.4637 29.6323 30.4773 28.5964 30.8245 27.2708C31.5226 24.6083 31.3415 24.9298 33.2465 22.9817C34.1957 22.0114 34.5662 20.5967 34.219 19.2711C33.5218 16.6104 33.5209 16.9817 34.219 14.3183C34.5662 12.9926 34.1957 11.5779 33.2465 10.6076C31.3415 8.6595 31.5226 8.98013 30.8245 6.31857C30.4773 4.99294 29.4637 3.95701 28.1673 3.60169C25.5651 2.88826 25.8787 3.07482 23.9719 1.12576C23.0227 0.155443 21.6386 -0.224244 20.3422 0.131068C17.741 0.843568 18.1041 0.844506 15.4982 0.131068C14.2018 -0.224244 12.8177 0.154506 11.8685 1.12576C9.96352 3.07388 10.2771 2.88826 7.67405 3.60169C6.37765 3.95701 5.36405 4.99294 5.01685 6.31857C4.31965 8.98013 4.49978 8.6595 2.59485 10.6076C1.64565 11.5779 1.27418 12.9926 1.62232 14.3183C2.31952 16.977 2.32045 16.6058 1.62232 19.2701C1.27512 20.5958 1.64565 22.0104 2.59485 22.9817C4.49978 24.9298 4.31872 24.6083 5.01685 27.2708C5.36405 28.5964 6.37765 29.6323 7.67405 29.9876C9.76285 30.5595 9.91872 30.4695 11.2935 31.8757C12.5283 33.1386 14.4519 33.3645 15.9359 32.4214C16.5293 32.043 17.2177 31.842 17.9207 31.842C18.6236 31.842 19.312 32.043 19.9054 32.4214C21.3885 33.3645 23.3121 33.1386 24.5469 31.8757ZM9.11512 16.497C9.11512 11.5254 13.0575 7.49513 17.9202 7.49513C22.7829 7.49513 26.7253 11.5254 26.7253 16.497C26.7253 21.4686 22.7829 25.4989 17.9202 25.4989C13.0575 25.4989 9.11512 21.4686 9.11512 16.497Z" fill="#0D5C63"/>
</svg>
