<svg width="29" height="37" viewBox="0 0 29 37" fill="none" xmlns="http://www.w3.org/2000/svg">
<path fill-rule="evenodd" clip-rule="evenodd" d="M0.58931 1.4909C0.205296 2.05407 0 2.71898 0 3.39957V33.6008C0 35.4781 1.52931 37 3.41581 37C4.09972 37 4.76788 36.7957 5.3338 36.4135L27.3929 21.5175C29.0674 20.3867 29.5038 18.1191 28.3675 16.4527C28.1072 16.071 27.7765 15.7418 27.3929 15.4828L5.3338 0.586787C3.77276 -0.467346 1.64858 -0.0625625 0.58931 1.4909ZM2 33.656V3.34413C2 3.07504 2.08133 2.81214 2.23347 2.58948C2.65311 1.97526 3.49464 1.81522 4.11307 2.23201L26.2969 17.1826C26.4647 17.2957 26.6094 17.4394 26.7233 17.6061C27.2204 18.3337 27.0295 19.3238 26.2969 19.8175L4.11307 34.7681C3.88888 34.9192 3.62417 35 3.35323 35C2.60586 35 2 34.3983 2 33.656Z" fill="#FBFBFD"/>
</svg>
