<svg width="120" height="48" viewBox="0 0 120 48" fill="none" xmlns="http://www.w3.org/2000/svg">
<path d="M26.029 16.1302H37.3002V18.6232H28.9615V22.2624H34.511V24.7459H28.9615V28.8149H37.5581V31.3079H26.029V16.1302Z" fill="white"/>
<path d="M36.7461 20.524H39.7454L42.3721 28.0412L44.8079 20.524H47.6734L43.6426 31.3079H40.9776L36.7461 20.524Z" fill="white"/>
<path d="M47.253 25.9398C47.4324 24.5593 48.1081 23.2913 49.1539 22.3725C50.1998 21.4538 51.5443 20.9471 52.9364 20.9471C54.3285 20.9471 55.673 21.4538 56.7189 22.3725C57.7647 23.2913 58.4403 24.5593 58.6197 25.9398C58.6364 26.6896 58.4984 27.4347 58.2141 28.1287C57.9299 28.8227 57.5056 29.4506 56.9678 29.9732C56.43 30.4958 55.7901 30.9018 55.0882 31.166C54.3864 31.4302 53.6375 31.5468 52.8886 31.5085C52.1435 31.5492 51.3983 31.4335 50.7006 31.1689C50.0029 30.9043 49.3683 30.4967 48.8376 29.9723C48.3068 29.4478 47.8917 28.8181 47.6188 28.1236C47.3459 27.4292 47.2213 26.6853 47.253 25.9398ZM55.6682 26.0067V25.9112C55.6682 23.8575 54.6366 22.6253 52.946 22.6253C51.2553 22.6253 50.2046 23.8575 50.2046 25.9112V26.0067C50.2046 28.0126 51.217 29.2065 52.8981 29.2065C54.5793 29.2065 55.6682 28.0126 55.6682 26.0067Z" fill="white"/>
<path d="M59.9379 15.9295H62.8703V31.3079H59.9379V15.9295Z" fill="white"/>
<path d="M64.5419 26.9905V20.524H67.4074V26.7995C67.4074 28.2418 68.1142 29.0824 69.4228 29.0824C70.9511 29.0824 71.5815 27.8311 71.5815 25.978V20.524H74.4471V31.3079H71.5815V29.7796C71.303 30.3323 70.8688 30.7915 70.3324 31.1004C69.7961 31.4093 69.181 31.5545 68.5631 31.5181C66.0892 31.5085 64.5419 29.7796 64.5419 26.9905Z" fill="white"/>
<path d="M77.1789 28.452V22.8069H75.6124V20.524H77.1789V18.4895L80.0444 16.9325V20.524H82.2222V22.8069H80.0253V28.175C80.0253 28.7003 80.2831 28.9296 80.818 28.9487H82.0503V31.308H79.8056C77.6947 31.1933 77.2744 30.2286 77.1789 28.452Z" fill="white"/>
<path d="M83.5213 16.1779H86.5396V18.9479H83.5213V16.1779ZM83.5213 20.5239H86.4441V31.3079H83.5213V20.5239Z" fill="white"/>
<path d="M87.7814 25.9399C87.8415 24.4741 88.466 23.0884 89.5244 22.0726C90.5828 21.0567 91.9929 20.4895 93.4598 20.4895C94.9268 20.4895 96.3371 21.0567 97.3954 22.0726C98.4538 23.0884 99.0783 24.4741 99.1385 25.9399C99.1552 26.6896 99.0171 27.4348 98.7329 28.1287C98.4487 28.8227 98.0243 29.4506 97.4865 29.9732C96.9486 30.4958 96.3089 30.9019 95.607 31.1661C94.9052 31.4302 94.1563 31.5468 93.4074 31.5086C92.6627 31.5493 91.9178 31.4336 91.2206 31.169C90.5234 30.9043 89.8894 30.4965 89.3594 29.9719C88.8294 29.4473 88.4151 28.8175 88.1433 28.123C87.8715 27.4286 87.7482 26.6849 87.7814 25.9399ZM96.187 26.0067V25.9112C96.187 23.8576 95.1553 22.6254 93.4742 22.6254C91.7931 22.6254 90.7328 23.8576 90.7328 25.9112V26.0067C90.7328 28.0126 91.6881 29.2066 93.4265 29.2066C95.1649 29.2066 96.2251 28.0126 96.2251 26.0067H96.187Z" fill="white"/>
<path d="M100.476 20.524H103.341V22.2815C103.614 21.66 104.071 21.1368 104.649 20.7817C105.228 20.4267 105.901 20.2568 106.579 20.2947C108.996 20.2947 110.4 21.8708 110.4 24.8414V31.3079H107.534V25.0038C107.534 23.4946 106.952 22.7113 105.624 22.7113C104.296 22.7113 103.389 23.8098 103.389 25.8252V31.3079H100.523L100.476 20.524Z" fill="white"/>
<path d="M21.874 33.2947C21.7011 33.2909 21.5331 33.2362 21.3911 33.1374C21.2491 33.0386 21.1395 32.9001 21.0759 32.7392C21.0123 32.5783 20.9977 32.4023 21.0337 32.2331C21.0697 32.0639 21.1548 31.9091 21.2784 31.7881C21.4021 31.6671 21.5587 31.5853 21.7286 31.5529C21.8986 31.5205 22.0743 31.539 22.2337 31.6061C22.3932 31.6731 22.5293 31.7857 22.625 31.9298C22.7208 32.0738 22.7718 32.243 22.7718 32.4159C22.7706 32.5326 22.7464 32.6479 22.7006 32.7552C22.6548 32.8625 22.5883 32.9597 22.505 33.0413C22.4216 33.1229 22.323 33.1873 22.2147 33.2308C22.1065 33.2742 21.9907 33.296 21.874 33.2947ZM21.874 31.3079C21.6557 31.3117 21.4434 31.3799 21.2638 31.5039C21.0841 31.6279 20.945 31.8022 20.8641 32.005C20.7831 32.2078 20.7639 32.4299 20.8088 32.6436C20.8537 32.8572 20.9607 33.0529 21.1164 33.2059C21.2721 33.359 21.4695 33.4626 21.6839 33.5038C21.8983 33.5451 22.1201 33.522 22.3214 33.4376C22.5228 33.3533 22.6948 33.2113 22.8157 33.0295C22.9366 32.8477 23.0012 32.6343 23.0012 32.4159C22.9999 32.2692 22.9698 32.1241 22.9125 31.989C22.8551 31.8539 22.7717 31.7314 22.667 31.6285C22.5624 31.5256 22.4385 31.4443 22.3024 31.3893C22.1663 31.3343 22.0208 31.3067 21.874 31.3079Z" fill="white"/>
<path d="M20.0496 23.1889C21.0436 23.2184 22.0385 23.1929 23.0298 23.1125C22.9395 21.1908 22.274 19.3405 21.1194 17.8017C21.1773 18.1842 21.2061 18.5706 21.2055 18.9575C21.1926 20.4442 20.7943 21.9021 20.0496 23.1889Z" fill="white"/>
<path d="M19.6675 23.8002C18.8332 25.017 17.7136 26.0109 16.4066 26.6953C15.0995 27.3796 13.6447 27.7335 12.1694 27.726C11.9465 27.726 11.7269 27.726 11.5104 27.726C10.7768 28.9289 10.1381 30.1872 9.60001 31.4894C10.9546 32.2344 12.4777 32.619 14.0235 32.6064C15.5694 32.5938 17.0862 32.1844 18.4284 31.4174C19.7706 30.6504 20.8933 29.5516 21.689 28.2262C22.4847 26.9008 22.9267 25.3932 22.9725 23.848C21.8729 23.765 20.7691 23.749 19.6675 23.8002Z" fill="white"/>
<path d="M9.62869 15.5188C11.1856 18.9384 12.3604 22.9597 20.0496 23.1603C20.7809 21.8698 21.166 20.4121 21.1672 18.9288C21.1678 18.5419 21.1391 18.1556 21.0813 17.7731C19.7379 16.1164 17.8559 14.9835 15.7632 14.5716C13.6705 14.1596 11.4997 14.4949 9.62869 15.5188Z" fill="#ECECEC"/>
<path d="M19.6675 23.8002C15.0444 24.0199 12.8667 25.7106 11.5104 27.6973C11.7301 27.6973 11.9497 27.6973 12.1789 27.6973C13.6503 27.7073 15.1017 27.3574 16.4069 26.6782C17.7121 25.9989 18.8314 25.0109 19.6675 23.8002Z" fill="#ECECEC"/>
<path d="M21.4632 32.2345H21.2914V32.1294H21.7785V32.2345H21.6065V32.7025H21.4632V32.2345Z" fill="white"/>
<path d="M21.874 32.1198H22.1033L22.2083 32.4923L22.3229 32.1198H22.5426V32.7025H22.3994V32.2344L22.2561 32.7025H22.1415L21.9982 32.2344V32.7025H21.874V32.1198Z" fill="white"/>
</svg>
