<svg width="150" height="60" viewBox="0 0 150 60" fill="none" xmlns="http://www.w3.org/2000/svg">
<path d="M120.844 38.7001H24.9376C22.5938 38.7001 21.3751 37.4001 20.9063 35.9001C20.6251 35.0001 20.6251 34 20.8126 33.1L22.5938 26.2001C23.0626 24.4001 24.5626 21.3 28.2188 21.3C28.2188 21.3 100.594 21.3 124.688 21.3C128.063 21.3 129.469 23.8 128.906 26.5C128.531 28.5 127.031 33.8 127.031 33.8C126.375 36.7 124.125 38.7001 120.844 38.7001Z" fill="#007CBA"/>
<path d="M107.156 46C100.781 46 88.0312 46 81.6562 46C77.8125 46 74.0625 42.2 74.625 38.1C75.1875 33.7 77.4375 26.9 78.75 22.7C80.25 17.7 84.8437 14 88.6875 14H115.125C120.656 14.1 123 19.7 121.875 23.6C120.656 27.8 118.688 34.5 117.469 38.4C116.438 42 111 46 107.156 46Z" fill="white"/>
<path d="M115.594 16.4001C115.594 16.4001 111.375 16.4001 109.875 16.4001C105.656 16.3001 102.188 19.4001 101.156 23.0001L98.25 33.0001C94.9688 41.7001 99.1875 43.2001 102 43.1001C103.781 43.1001 105.469 43.1001 106.781 43.1001C110.344 43.1001 114.281 40.3001 115.313 36.8001L119.344 23.1001C120.281 19.9001 118.594 16.4001 115.594 16.4001ZM109.125 36.6001H103.5L107.344 23.3001H112.969L109.125 36.6001Z" fill="#DD2027"/>
<path d="M87.6563 33.2H90.75L89.7188 36.6H83.7188L84.5625 33.8L84.75 33.3L86.7188 26.7L87.6563 23.4H99.1875L99.2813 23.2L100.969 16.9C100.969 16.9 91.4063 16.9 89.8125 16.9C85.5938 16.8 82.2188 20.3 81.4688 23.1L78.5625 33.1C74.9063 42.4 79.6875 43.2 82.3125 43.2C84.0938 43.2 85.7813 43.2 87.0938 43.2C91.4063 43.2 94.5938 40.2 95.625 36.7L98.3438 26.7H89.625L87.6563 33.2Z" fill="#DD2027"/>
<path d="M69.5625 34.8L70.875 30H68.5312L67.2187 34.8H64.5938L66 29.8C66.4688 28.5 67.6875 27.3 69.375 27.3C70.0313 27.3 71.8125 27.3 71.8125 27.3C73.125 27.3 73.875 28.5 73.5 29.9L72.0938 34.8H69.5625Z" fill="white"/>
<path d="M66.4688 27.6H63L64.0313 24.4H67.4063L66.4688 27.6Z" fill="white"/>
<path d="M58.5 29.5H56.25L57.75 24.2H55.125L53.5312 29.7C53.25 31.1 53.9062 32.2999 55.2187 32.2999L54.4687 34.7999H57L57.75 32.2999C59.3437 32.1999 60.5625 30.9999 60.9375 29.7999L62.625 24.2H60.0937L58.5 29.5Z" fill="white"/>
<path d="M51.6562 24.2C51.6562 24.2 49.875 24.2 49.2188 24.2C47.5313 24.2 46.2188 25.4 45.8438 26.7L43.4062 34.7999H46.0312L46.7813 32.2H49.0313L48.375 34.7999H50.9063L53.4375 26.7999C53.7188 25.3999 53.0625 24.2 51.6562 24.2ZM49.9688 29.5H47.5313L48.375 26.9H50.8125L49.9688 29.5Z" fill="white"/>
<path d="M38.0625 24.2L34.875 34.7999H42.4687L44.0625 29.5H41.5312L40.7812 32.0999H38.4375L40.6875 24.2H38.0625Z" fill="white"/>
<path d="M34.5 24.2H29.625L26.4375 34.7999H29.0625L29.8125 32.2H32.0625C32.0625 32.2 34.4062 32.3 35.3437 29.7C35.625 28.9 36.1875 26.9 36.1875 26.9C36.75 25.1999 35.9062 24.2 34.5 24.2ZM32.9062 29.5H30.4687L31.3125 26.9H33.75L32.9062 29.5Z" fill="white"/>
<path d="M124.969 17.9C125.156 17.8 125.344 17.6 125.344 17.4C125.344 17.2 125.25 17 125.156 16.9C124.969 16.8 124.875 16.8 124.594 16.8H124.031V18.8H124.219V18H124.688L125.062 18.8H125.344L124.875 18L124.969 17.9ZM124.688 17.8H124.219V16.9H124.5C124.688 16.9 124.781 16.9 124.969 17C125.063 17.1 125.156 17.2 125.156 17.4C125.063 17.6 124.875 17.8 124.688 17.8Z" fill="#007CBA"/>
<path d="M124.594 15.8C123.563 15.8 122.719 16.7 122.719 17.8C122.719 18.9 123.563 19.8 124.594 19.8C125.625 19.8 126.469 18.9 126.469 17.8C126.469 16.7 125.625 15.8 124.594 15.8ZM124.594 19.6C123.656 19.6 122.906 18.8 122.906 17.8C122.906 16.8 123.656 16 124.594 16C125.531 16 126.281 16.8 126.281 17.8C126.281 18.8 125.531 19.6 124.594 19.6Z" fill="#007CBA"/>
</svg>
