<svg width="32" height="32" viewBox="0 0 32 32" fill="none" xmlns="http://www.w3.org/2000/svg">
<path d="M22 22H30V6H22V22ZM23.5894 10.5H28.3576V13.4873L28.1248 13.7437C27.2626 14.6929 26.7682 16.0073 26.7682 17.3496V18.375H25.1788V17.3496C25.1788 15.6714 25.7546 14.0257 26.7682 12.7773V12.25H25.1788V13.125H23.5894V10.5Z" fill="#80858F"/>
<path d="M12 22H20V6H12V22ZM13.5894 10.5H18.3576V13.4873L18.1248 13.7437C17.2626 14.6929 16.7682 16.0073 16.7682 17.3496V18.375H15.1788V17.3496C15.1788 15.6714 15.7546 14.0257 16.7682 12.7773V12.25H15.1788V13.125H13.5894V10.5Z" fill="#80858F"/>
<path d="M2 22H10V6H2V22ZM3.5894 10.5H8.35762V13.4873L8.12479 13.7437C7.26262 14.6929 6.76821 16.0073 6.76821 17.3496V18.375H5.17881V17.3496C5.17881 15.6714 5.75455 14.0257 6.76821 12.7773V12.25H5.17881V13.125H3.5894V10.5Z" fill="#80858F"/>
<path d="M30 10H31C31.5523 10 32 10.4477 32 11V17C32 17.5523 31.5523 18 31 18H30V10Z" fill="#80858F"/>
<path d="M2 10H1C0.447715 10 0 10.4477 0 11V17C0 17.5523 0.447715 18 1 18H2V10Z" fill="#80858F"/>
<rect x="2" y="24" width="28" height="2" fill="#80858F"/>
</svg>
