<svg width="150" height="60" viewBox="0 0 150 60" fill="none" xmlns="http://www.w3.org/2000/svg">
<g clip-path="url(#clip0_6791_41751)">
<path d="M54.3317 32.7465C55.7315 34.2552 57.4557 35.0095 59.504 35.0094C60.3741 35.0094 61.3587 34.787 62.4579 34.3424L62.6347 31.0463L52.9699 30.6865C53.3125 31.4405 53.7721 32.1357 54.3317 32.7465ZM37.7724 30.1194L36.6789 34.6877H41.7918L42.1952 32.3537H45.5288L45.8965 34.6877H51.0096L50.1431 30.5806L37.7724 30.1194ZM42.8417 15.859L39.5339 29.6773L51.9046 30.139L48.8918 15.859H42.8417ZM44.6211 27.97L45.1194 25.0882L45.4633 22.8612C45.4711 22.8214 45.4872 22.7062 45.5109 22.5158C45.5346 22.3253 45.5741 21.984 45.6295 21.4915C45.661 21.2455 45.6906 21.0192 45.7184 20.8129C45.7463 20.6066 45.768 20.4199 45.7837 20.253L45.9379 21.9918C45.9775 22.3488 46.0091 22.6445 46.0329 22.8789C46.0567 23.1133 46.0764 23.2979 46.0921 23.4327C46.2425 24.6396 46.3256 25.3304 46.3413 25.5051C46.3486 25.6133 46.3645 25.7208 46.3888 25.8266L46.7091 27.9704L44.6211 27.97ZM60.6012 29.4589C60.2032 29.2345 59.867 28.9154 59.6226 28.5299C59.3355 28.0721 59.1286 27.5688 59.0114 27.0415C58.8616 26.3853 58.7899 25.7137 58.7978 25.0407C58.7978 23.5005 59.0828 22.2939 59.652 21.4207C60.2216 20.5552 61.0123 20.1225 62.0246 20.1226C62.7998 20.1226 63.5551 20.4917 64.2904 21.2299V15.9778C63.5087 15.6852 62.6815 15.532 61.8464 15.5253C59.3868 15.5253 57.4214 16.3986 55.9508 18.1452C54.4796 19.8998 53.7441 22.2259 53.7443 25.1236C53.7443 27.1258 54.0768 28.8291 54.7316 30.2439L64.3962 30.6043L64.504 28.589C63.6418 29.3829 62.7838 29.7798 61.93 29.78C61.4668 29.7888 61.0089 29.6782 60.6012 29.4589ZM82.2166 24.3086C82.4721 24.7583 82.783 25.1745 83.1415 25.5475C83.5658 25.9878 84.0262 26.3921 84.5177 26.7562L85.3244 27.387C85.9096 27.8553 86.2022 28.3356 86.2025 28.8279C86.205 28.9912 86.1699 29.1528 86.0999 29.3004C86.0299 29.448 85.9269 29.5776 85.799 29.6792C85.5037 29.9147 85.1327 30.0354 84.7549 30.0189C83.624 30.0189 82.5719 29.3519 81.5995 28.018V31.2461L90.3937 31.574C90.9013 30.6372 91.1606 29.5579 91.1606 28.3276C91.1606 27.264 90.9314 26.3351 90.4724 25.5411C90.0221 24.7473 89.2747 23.9731 88.2305 23.2187L87.4474 22.6355C86.7752 22.1512 86.439 21.6628 86.4393 21.1704C86.4397 21.0211 86.4736 20.8738 86.5395 20.7397C86.605 20.6056 86.7007 20.4882 86.8186 20.3964C87.0768 20.1696 87.4124 20.0503 87.7559 20.0632C88.2541 20.0632 88.7602 20.2437 89.2743 20.6049C89.8252 21.0054 90.2925 21.5091 90.6506 22.0878V16.4665C89.4563 15.8397 88.2701 15.5262 87.0917 15.5259C85.7706 15.5259 84.6436 15.9229 83.7107 16.7168C83.3696 16.9959 83.0666 17.3182 82.809 17.6756C81.9937 18.8103 81.5468 20.1673 81.5284 21.5636C81.526 22.0448 81.5818 22.5245 81.6945 22.9924C81.8082 23.4525 81.9836 23.8957 82.2166 24.3086ZM23 34.6877H27.947V29.7532L23 29.5687V34.6877ZM32.0688 29.3991L37.0159 29.5836V15.859H32.0696V22.3609H29.7087V15.859H24.7618V29.1266L29.7087 29.311V26.8503H32.0696L32.0688 29.3991ZM30.3074 34.6877H35.2553V30.0256L30.3081 29.8411L30.3074 34.6877ZM74.5878 15.859L71.6699 23.7422L71.8003 15.859H66.853V30.6958L71.7483 30.8784L71.6692 25.7668L73.6782 30.9503L78.8473 31.143L75.8573 24.7307L79.8086 15.859H74.5878ZM96.215 15.859L92.4349 31.6495L105.701 32.1441L102.265 15.859H96.215ZM97.9944 27.97L98.4929 25.0882L98.8368 22.8612C98.8444 22.8215 98.86 22.7063 98.8843 22.5158C98.9082 22.3252 98.9477 21.9838 99.0029 21.4915C99.0344 21.2455 99.0639 21.0192 99.0919 20.8129C99.12 20.6066 99.1415 20.4199 99.1568 20.253L99.3114 21.9918C99.3509 22.3488 99.3825 22.6445 99.4064 22.8789C99.4299 23.1133 99.4497 23.2979 99.4657 23.4327C99.6161 24.6396 99.699 25.3304 99.7146 25.5051C99.7222 25.6133 99.7378 25.7208 99.7621 25.8266L100.082 27.9704L97.9944 27.97ZM108.618 34.6877H113.435L113.679 32.9492L108.187 32.7444L108.618 34.6877ZM65.0916 31.1378V34.6877H70.0385L69.9869 31.3201L65.0916 31.1378ZM122.172 15.859L121.27 21.5632C121.144 22.357 121.029 23.2422 120.926 24.2188C120.823 25.1955 120.728 26.3148 120.642 27.5767C120.349 24.7666 120.004 22.3332 119.61 20.2767L118.779 15.859H114.52L113.595 21.1103C113.334 22.627 113.12 24.2268 112.953 25.9096L112.8 27.3506L112.634 25.6714C112.516 24.5206 112.302 22.9367 111.993 20.9199L111.186 15.859H106.299L109.949 32.3028L115.441 32.5075L116.133 27.5772C116.212 27.0216 116.279 26.4936 116.335 25.9934C116.391 25.4932 116.438 25.0169 116.477 24.5646C116.556 23.6754 116.616 23.0681 116.655 22.7425C116.671 22.9013 116.698 23.1314 116.739 23.4331C116.78 23.7349 116.826 24.1117 116.881 24.5646C116.992 25.4776 117.158 26.5572 117.38 27.8035L118.229 32.6116L123.577 32.8108L127 15.8594L122.172 15.859ZM116.757 34.6877H121.526L121.816 33.2525L116.468 33.0531L116.757 34.6877ZM98.9093 32.3985L99.2701 34.6877H104.383L103.94 32.586L98.9093 32.3985ZM79.8377 34.2354C81.1665 34.7512 82.4124 35.0092 83.5748 35.0094C85.2593 35.0094 86.6511 34.4218 87.7507 33.2468C88.0964 32.8757 88.3924 32.4618 88.632 32.0153L79.8377 31.6876V34.2354ZM71.9171 31.3923L73.1942 34.6877H78.5332L77.0862 31.585L71.9171 31.3923ZM90.0519 34.6877H95.1649L95.5684 32.3537L90.6731 32.0916L90.0519 34.6877ZM27.8766 40.7922H31.0976C31.099 41.0947 31.0852 41.3971 31.0563 41.6983C31.0317 41.956 30.9761 42.21 30.8908 42.4545C30.7821 42.7678 30.6226 43.0612 30.4188 43.323C30.2237 43.572 29.9871 43.7856 29.7195 43.9546C29.4462 44.1261 29.1491 44.2563 28.8376 44.341C28.5085 44.4307 28.1687 44.4754 27.8275 44.4739C27.3732 44.4797 26.922 44.3979 26.4987 44.233C26.1117 44.0812 25.7607 43.8506 25.468 43.5558C25.1751 43.256 24.9469 42.8995 24.7973 42.5083C24.6328 42.0771 24.5514 41.6189 24.5571 41.1575C24.552 40.6995 24.6319 40.2444 24.793 39.8155C24.9401 39.4242 25.1687 39.0686 25.4637 38.7722C25.7626 38.4782 26.1192 38.249 26.511 38.0991C26.9471 37.9336 27.4107 37.8519 27.8772 37.8583C28.4761 37.845 29.0677 37.9914 29.5911 38.2822C30.1057 38.5903 30.5131 39.0487 30.7584 39.5954L29.2184 40.2351C29.1109 39.9381 28.9162 39.6804 28.6596 39.4956C28.4269 39.3448 28.1546 39.2667 27.8772 39.2711C27.6491 39.2681 27.4231 39.3148 27.2149 39.408C27.0179 39.4983 26.8437 39.6318 26.7056 39.7987C26.5583 39.9801 26.446 40.1872 26.3745 40.4095C26.2915 40.6673 26.2509 40.9369 26.2545 41.2077C26.2522 41.4579 26.2871 41.7071 26.3579 41.9471C26.4206 42.1626 26.5262 42.3633 26.6684 42.5372C26.8071 42.7041 26.9829 42.8365 27.1817 42.924C27.4067 43.0192 27.6494 43.0658 27.8938 43.0608C28.0499 43.0613 28.2055 43.0432 28.3574 43.0069C28.5007 42.9735 28.6368 42.9144 28.759 42.8324C28.8783 42.7511 28.9784 42.6448 29.0523 42.5208C29.1351 42.3776 29.1888 42.2194 29.2102 42.0554H27.8768L27.8766 40.7922ZM47.6401 43.2109H45.3223L44.9501 44.2995H43.2192L45.5952 38.0329H47.3671L49.7434 44.2995H48.0129L47.6401 43.2109ZM47.2097 41.972L46.4809 39.8857L45.7525 41.972H47.2097ZM62.0964 44.2992L63.1561 38.0325H64.7622L66.013 41.375L67.2548 38.0339H68.8609L69.9213 44.3006H68.3062L67.7685 40.6929L66.2949 44.3001H65.648L64.2495 40.6929L63.7111 44.3001L62.0964 44.2992ZM84.4928 38.0325V44.2992H82.87V38.0325H84.4928ZM97.7237 44.2992V38.0325H99.3467L102.344 41.8641V38.0334H103.958V44.3001H102.343L99.3464 40.4686V44.3001L97.7237 44.2992ZM120.343 40.7927H123.564C123.564 41.1251 123.55 41.4273 123.523 41.6988C123.498 41.9566 123.442 42.2105 123.357 42.455C123.248 42.7683 123.089 43.0617 122.885 43.3236C122.69 43.5726 122.453 43.7862 122.186 43.9551C121.913 44.1266 121.615 44.2569 121.304 44.3416C120.975 44.4313 120.635 44.4759 120.293 44.4745C119.839 44.4802 119.388 44.3983 118.964 44.2336C118.577 44.0816 118.226 43.851 117.934 43.5563C117.641 43.2563 117.413 42.8998 117.264 42.5089C116.945 41.6397 116.943 40.6862 117.259 39.816C117.406 39.4246 117.635 39.0689 117.93 38.7727C118.229 38.4788 118.585 38.2496 118.977 38.0997C119.413 37.9342 119.876 37.8525 120.343 37.8589C120.942 37.8456 121.533 37.9919 122.056 38.2828C122.571 38.5908 122.979 39.0492 123.225 39.5959L121.684 40.2357C121.577 39.9386 121.382 39.6809 121.126 39.4961C120.893 39.3454 120.62 39.2673 120.343 39.2717C120.115 39.2687 119.889 39.3154 119.681 39.4085C119.484 39.4987 119.31 39.6322 119.172 39.7992C119.024 39.9805 118.912 40.1876 118.841 40.41C118.757 40.6678 118.716 40.9374 118.72 41.2082C118.717 41.4585 118.752 41.7076 118.824 41.9476C118.886 42.1634 118.992 42.3642 119.135 42.5378C119.273 42.7047 119.449 42.8371 119.648 42.9246C119.873 43.0199 120.116 43.0665 120.36 43.0613C120.516 43.0619 120.672 43.0438 120.823 43.0075C120.967 42.974 121.103 42.9149 121.225 42.833C121.344 42.7515 121.445 42.6452 121.519 42.5214C121.601 42.3779 121.654 42.2198 121.676 42.056H120.343V40.7927Z" fill="#46AF6C"/>
</g>
<defs>
<clipPath id="clip0_6791_41751">
<rect width="150" height="60" fill="white"/>
</clipPath>
</defs>
</svg>
