<svg width="150" height="60" viewBox="0 0 150 60" fill="none" xmlns="http://www.w3.org/2000/svg">
<path d="M83.3333 17.5098H66.6721V43.3167H83.3333V17.5098Z" fill="#FF5F00"/>
<path d="M68.3888 30.4168C68.3867 27.9318 68.9808 25.479 70.1259 23.2438C71.271 21.0087 72.9373 19.0499 74.9985 17.5156C72.4455 15.6129 69.3796 14.4297 66.1511 14.1013C62.9226 13.7729 59.6618 14.3125 56.7414 15.6584C53.821 17.0043 51.3588 19.1022 49.6361 21.7124C47.9135 24.3227 47 27.3398 47 30.4191C47 33.4984 47.9135 36.5155 49.6361 39.1257C51.3588 41.7359 53.821 43.8339 56.7414 45.1798C59.6618 46.5257 62.9226 47.0653 66.1511 46.7369C69.3796 46.4084 72.4455 45.2253 74.9985 43.3225C72.9366 41.7878 71.27 39.8283 70.1248 37.5923C68.9797 35.3563 68.386 32.9026 68.3888 30.4168Z" fill="#EB001B"/>
<path d="M101.345 40.5861V40.0573H101.586V39.9479H101.014V40.0573H101.239V40.5861H101.345ZM102.456 40.5861V39.9479H102.283L102.081 40.4038L101.879 39.9479H101.706V40.5861H101.831V40.1029L102.018 40.5177H102.148L102.335 40.1029V40.5861H102.456Z" fill="#F79E1B"/>
<path d="M103 30.4156C103 33.4951 102.086 36.5124 100.363 39.1227C98.6403 41.733 96.1777 43.8309 93.2569 45.1767C90.3361 46.5224 87.075 47.0616 83.8463 46.7327C80.6176 46.4038 77.5517 45.22 74.9989 43.3167C77.0593 41.7811 78.7251 39.8218 79.8705 37.5865C81.016 35.3513 81.6111 32.8985 81.6111 30.4133C81.6111 27.9281 81.016 25.4753 79.8705 23.2401C78.7251 21.0048 77.0593 19.0455 74.9989 17.5098C77.5517 15.6065 80.6176 14.4228 83.8463 14.0939C87.075 13.765 90.3361 14.3042 93.2569 15.6499C96.1777 16.9957 98.6403 19.0936 100.363 21.7039C102.086 24.3142 103 27.3315 103 30.411V30.4156Z" fill="#F79E1B"/>
</svg>
