<svg width="150" height="60" viewBox="0 0 150 60" fill="none" xmlns="http://www.w3.org/2000/svg">
<g clip-path="url(#clip0_6788_41374)">
<mask id="mask0_6788_41374" style="mask-type:luminance" maskUnits="userSpaceOnUse" x="8" y="15" width="134" height="30">
<path d="M141.904 15H8.09619V45H141.904V15Z" fill="white"/>
</mask>
<g mask="url(#mask0_6788_41374)">
<path d="M15.8375 31.8528C13.7368 31.8528 12.0373 30.1534 12.0373 28.0527C12.0373 25.952 13.7368 24.2525 15.8375 24.2525C17.9382 24.2525 19.6376 25.952 19.6376 28.0527C19.614 30.1534 17.9146 31.8528 15.8375 31.8528ZM23.5558 20.3344H19.6376V21.3493C18.5047 20.712 17.2301 20.358 15.8375 20.358C11.5888 20.358 8.11914 23.8277 8.11914 28.0763C8.11914 32.3249 11.5652 35.771 15.8375 35.771C20.1097 35.771 23.5558 32.3013 23.5558 28.0527C23.5558 28.0291 23.5558 28.0291 23.5558 28.0055V20.3344Z" fill="url(#paint0_linear_6788_41374)"/>
<path d="M12.0136 45H8.09546C8.09546 40.775 11.5416 37.3289 15.7666 37.3289H23.5557V41.247H15.7666C13.6895 41.2234 12.0136 42.9229 12.0136 45Z" fill="url(#paint1_linear_6788_41374)"/>
<path d="M29.0554 35.7711H25.1372V27.9819C25.1372 23.7569 28.5833 20.3108 32.8083 20.3108V24.229C30.7312 24.229 29.0318 25.9284 29.0318 28.0055V35.7711H29.0554Z" fill="url(#paint2_linear_6788_41374)"/>
<path d="M100.763 35.771C96.514 35.771 93.0679 32.3249 93.0679 28.0999V20.3344H96.986V28.0999C96.986 30.177 98.6855 31.8764 100.763 31.8764C102.84 31.8764 104.539 30.177 104.539 28.0999V20.3344H108.457V28.0999C108.434 32.3249 104.988 35.771 100.763 35.771Z" fill="url(#paint3_linear_6788_41374)"/>
<path d="M81.8563 35.7711H77.9618V28.0292C77.9618 25.9521 76.2623 24.2526 74.1852 24.2526C72.1081 24.2526 70.4087 25.9521 70.4087 28.0292V35.7711H66.4905V28.0292C66.4905 23.8041 69.9366 20.358 74.1616 20.358C78.3866 20.358 81.8327 23.8041 81.8327 28.0292V35.7711H81.8563Z" fill="url(#paint4_linear_6788_41374)"/>
<path d="M117.923 31.8765C115.845 31.8765 114.146 30.177 114.146 28.0999C114.146 26.0228 115.845 24.3234 117.923 24.3234C120 24.3234 121.699 26.0228 121.699 28.0999C121.699 30.177 120 31.8765 117.923 31.8765ZM117.923 20.4288C116.554 20.4288 115.255 20.7829 114.146 21.4201V15H110.228V28.0999C110.228 32.3249 113.674 35.7711 117.899 35.7711C122.124 35.7711 125.57 32.3249 125.57 28.0999C125.57 23.8749 122.148 20.4288 117.923 20.4288Z" fill="url(#paint5_linear_6788_41374)"/>
<path d="M91.1325 24.2526V20.3344H87.3559V15H83.4377V28.0527C83.4377 32.2777 86.8839 35.7238 91.1089 35.7238V31.8293C89.0318 31.8293 87.3323 30.1298 87.3323 28.0527V24.2526H91.1325Z" fill="url(#paint6_linear_6788_41374)"/>
<path d="M48.3866 30.059C48.5518 29.4454 48.6462 28.7845 48.6462 28.1C48.6462 23.8749 45.2001 20.4288 40.9751 20.4288C36.7501 20.4288 33.304 23.8749 33.304 28.1C33.304 32.325 36.7265 35.7711 40.9515 35.7711C44.0671 35.7711 46.7815 33.9064 47.9617 31.2156H43.0522C42.4385 31.6405 41.7068 31.8765 40.9279 31.8765C38.8508 31.8765 37.1513 30.1771 37.1513 28.1C37.1513 26.0229 38.8508 24.3234 40.9279 24.3234C42.2969 24.3234 43.5006 25.0551 44.1615 26.1409H39.8893V30.059H48.3866Z" fill="url(#paint7_linear_6788_41374)"/>
<path d="M56.5062 30.059V26.1409H60.7784C60.1175 25.0551 58.9137 24.3234 57.5447 24.3234C55.4676 24.3234 53.7682 26.0229 53.7682 28.1C53.7682 30.1771 55.4676 31.8765 57.5447 31.8765C58.3237 31.8765 59.0554 31.6405 59.669 31.2156H64.5786C63.3984 33.9064 60.7076 35.7711 57.5683 35.7711C53.3433 35.7711 49.8972 32.325 49.8972 28.1C49.8972 23.8749 53.3433 20.4288 57.5683 20.4288C61.7934 20.4288 65.2395 23.8749 65.2395 28.1C65.2395 28.7845 65.1451 29.4218 64.9798 30.059H56.5062Z" fill="url(#paint8_linear_6788_41374)"/>
<path d="M137.442 30.059H133.17V26.1409H137.442C136.782 25.0551 135.578 24.3234 134.209 24.3234C132.132 24.3234 130.432 26.0229 130.432 28.1C130.432 30.1771 132.132 31.8765 134.209 31.8765C134.988 31.8765 135.719 31.6405 136.333 31.2156H141.243C140.039 33.9064 137.348 35.7711 134.232 35.7711C130.007 35.7711 126.561 32.325 126.561 28.1C126.561 23.8749 129.984 20.4288 134.232 20.4288C138.457 20.4288 141.904 23.8749 141.904 28.1C141.904 28.7845 141.809 29.4218 141.644 30.059H137.442Z" fill="url(#paint9_linear_6788_41374)"/>
</g>
</g>
<defs>
<linearGradient id="paint0_linear_6788_41374" x1="15.8334" y1="13.5007" x2="15.8334" y2="36.2396" gradientUnits="userSpaceOnUse">
<stop offset="7.00827e-07" stop-color="#B0FF0B"/>
<stop offset="0.1124" stop-color="#A7FA0C"/>
<stop offset="0.2958" stop-color="#8FED0E"/>
<stop offset="0.5274" stop-color="#67D811"/>
<stop offset="0.7953" stop-color="#30BC15"/>
<stop offset="1" stop-color="#02A319"/>
</linearGradient>
<linearGradient id="paint1_linear_6788_41374" x1="15.826" y1="13.2266" x2="15.826" y2="36.2332" gradientUnits="userSpaceOnUse">
<stop offset="7.00827e-07" stop-color="#B0FF0B"/>
<stop offset="0.1124" stop-color="#A7FA0C"/>
<stop offset="0.2958" stop-color="#8FED0E"/>
<stop offset="0.5274" stop-color="#67D811"/>
<stop offset="0.7953" stop-color="#30BC15"/>
<stop offset="1" stop-color="#02A319"/>
</linearGradient>
<linearGradient id="paint2_linear_6788_41374" x1="28.9748" y1="13.0544" x2="28.9748" y2="35.9282" gradientUnits="userSpaceOnUse">
<stop offset="7.00827e-07" stop-color="#B0FF0B"/>
<stop offset="0.1124" stop-color="#A7FA0C"/>
<stop offset="0.2958" stop-color="#8FED0E"/>
<stop offset="0.5274" stop-color="#67D811"/>
<stop offset="0.7953" stop-color="#30BC15"/>
<stop offset="1" stop-color="#02A319"/>
</linearGradient>
<linearGradient id="paint3_linear_6788_41374" x1="100.759" y1="11.7613" x2="100.759" y2="34.2362" gradientUnits="userSpaceOnUse">
<stop offset="7.00827e-07" stop-color="#B0FF0B"/>
<stop offset="0.1124" stop-color="#A7FA0C"/>
<stop offset="0.2958" stop-color="#8FED0E"/>
<stop offset="0.5274" stop-color="#67D811"/>
<stop offset="0.7953" stop-color="#30BC15"/>
<stop offset="1" stop-color="#02A319"/>
</linearGradient>
<linearGradient id="paint4_linear_6788_41374" x1="74.1811" y1="12.2081" x2="74.1811" y2="34.683" gradientUnits="userSpaceOnUse">
<stop offset="7.00827e-07" stop-color="#B0FF0B"/>
<stop offset="0.1124" stop-color="#A7FA0C"/>
<stop offset="0.2958" stop-color="#8FED0E"/>
<stop offset="0.5274" stop-color="#67D811"/>
<stop offset="0.7953" stop-color="#30BC15"/>
<stop offset="1" stop-color="#02A319"/>
</linearGradient>
<linearGradient id="paint5_linear_6788_41374" x1="117.923" y1="11.283" x2="117.923" y2="33.8264" gradientUnits="userSpaceOnUse">
<stop offset="7.00827e-07" stop-color="#B0FF0B"/>
<stop offset="0.1124" stop-color="#A7FA0C"/>
<stop offset="0.2958" stop-color="#8FED0E"/>
<stop offset="0.5274" stop-color="#67D811"/>
<stop offset="0.7953" stop-color="#30BC15"/>
<stop offset="1" stop-color="#02A319"/>
</linearGradient>
<linearGradient id="paint6_linear_6788_41374" x1="87.283" y1="11.9152" x2="87.283" y2="34.4606" gradientUnits="userSpaceOnUse">
<stop offset="7.00827e-07" stop-color="#B0FF0B"/>
<stop offset="0.1124" stop-color="#A7FA0C"/>
<stop offset="0.2958" stop-color="#8FED0E"/>
<stop offset="0.5274" stop-color="#67D811"/>
<stop offset="0.7953" stop-color="#30BC15"/>
<stop offset="1" stop-color="#02A319"/>
</linearGradient>
<linearGradient id="paint7_linear_6788_41374" x1="40.9576" y1="12.9039" x2="40.9576" y2="35.6416" gradientUnits="userSpaceOnUse">
<stop offset="7.00827e-07" stop-color="#B0FF0B"/>
<stop offset="0.1124" stop-color="#A7FA0C"/>
<stop offset="0.2958" stop-color="#8FED0E"/>
<stop offset="0.5274" stop-color="#67D811"/>
<stop offset="0.7953" stop-color="#30BC15"/>
<stop offset="1" stop-color="#02A319"/>
</linearGradient>
<linearGradient id="paint8_linear_6788_41374" x1="57.5687" y1="12.5085" x2="57.5687" y2="35.2462" gradientUnits="userSpaceOnUse">
<stop offset="7.00827e-07" stop-color="#B0FF0B"/>
<stop offset="0.1124" stop-color="#A7FA0C"/>
<stop offset="0.2958" stop-color="#8FED0E"/>
<stop offset="0.5274" stop-color="#67D811"/>
<stop offset="0.7953" stop-color="#30BC15"/>
<stop offset="1" stop-color="#02A319"/>
</linearGradient>
<linearGradient id="paint9_linear_6788_41374" x1="134.229" y1="10.6838" x2="134.229" y2="33.4215" gradientUnits="userSpaceOnUse">
<stop offset="7.00827e-07" stop-color="#B0FF0B"/>
<stop offset="0.1124" stop-color="#A7FA0C"/>
<stop offset="0.2958" stop-color="#8FED0E"/>
<stop offset="0.5274" stop-color="#67D811"/>
<stop offset="0.7953" stop-color="#30BC15"/>
<stop offset="1" stop-color="#02A319"/>
</linearGradient>
<clipPath id="clip0_6788_41374">
<rect width="150" height="60" fill="white"/>
</clipPath>
</defs>
</svg>
