<svg width="150" height="60" viewBox="0 0 150 60" fill="none" xmlns="http://www.w3.org/2000/svg">
<g clip-path="url(#clip0_6788_41377)">
<path fill-rule="evenodd" clip-rule="evenodd" d="M30 27.7252C32.3025 16.7143 51.4508 8.07452 74.6065 8.07452C99.292 8.07452 119.446 17.9147 119.446 29.9629C119.436 31.3863 119.159 32.7945 118.63 34.1124C118.781 33.3813 118.859 32.6366 118.863 31.8895C118.892 19.8264 98.71 10.0011 74.0236 10.0011C52.2377 10.0011 33.9929 17.6479 30 27.74V27.7252Z" fill="white"/>
<path fill-rule="evenodd" clip-rule="evenodd" d="M120 32.26C117.697 43.2709 98.491 51.9255 75.3934 51.9255C50.7075 51.9255 30.5537 42.1594 30.5537 30.037C30.5529 28.603 30.8302 27.1829 31.3698 25.8579C31.2195 26.5942 31.1414 27.3437 31.1366 28.0957C31.1366 40.1588 51.2904 49.9841 75.9763 49.9841C97.835 49.9841 116.007 42.3372 120 32.2007V32.26Z" fill="white"/>
<path d="M36.3245 36.3798V35.95H36.8782C37.3025 35.9959 37.7284 35.8797 38.0732 35.624C38.3893 35.1876 38.5946 34.6785 38.6706 34.142L41.0605 23.1608C41.0605 22.9533 41.1334 22.7755 41.1625 22.5976C41.1917 22.4198 41.1625 22.2568 41.1625 22.1086C41.1958 21.9919 41.2039 21.8692 41.1863 21.749C41.1687 21.6288 41.1258 21.5139 41.0605 21.4121C40.8485 21.274 40.5973 21.2114 40.3465 21.2342H39.6179L39.6907 20.8045H47.8222L47.7348 21.2342H47.2247C46.8025 21.1858 46.3785 21.3082 46.0443 21.5751C45.7284 22.0101 45.5277 22.5204 45.4614 23.057L43.1153 34.1272C43.1153 34.3347 43.0278 34.5274 42.9987 34.7052C42.9695 34.883 42.9987 35.0312 42.9987 35.1498C42.9894 35.2634 43.0041 35.3777 43.0418 35.485C43.0795 35.5923 43.1393 35.6903 43.2173 35.7722C43.4343 35.9114 43.6904 35.9739 43.9459 35.95H44.5725L44.4997 36.3798H36.3245Z" fill="white"/>
<path d="M57.3525 26.0654L55.0646 35.7129C54.8539 36.6397 54.5961 37.5548 54.2923 38.4545C54.1167 38.9826 53.8663 39.4818 53.5491 39.9365C53.122 40.5265 52.5624 41.0042 51.9169 41.3295C51.2386 41.6568 50.4964 41.8239 49.7456 41.8186C48.9377 41.8651 48.1391 41.624 47.4869 41.1369C47.2173 40.8994 47.0049 40.6023 46.8659 40.2683C46.727 39.9343 46.6652 39.5724 46.6854 39.2103C46.6606 38.7626 46.7951 38.3207 47.0643 37.9655C47.1818 37.8197 47.3297 37.7022 47.4973 37.6216C47.6649 37.541 47.848 37.4991 48.0334 37.4991C48.2187 37.4991 48.4018 37.541 48.5694 37.6216C48.737 37.7022 48.8849 37.8197 49.0024 37.9655C49.2471 38.3093 49.3704 38.7271 49.3522 39.151C49.3713 39.5523 49.2585 39.9485 49.0316 40.2773C48.9477 40.4161 48.8296 40.5301 48.689 40.6081C48.5484 40.6861 48.3902 40.7253 48.2301 40.7219H47.9969H47.7929C47.8861 40.9641 48.062 41.164 48.2884 41.2851C48.5395 41.4213 48.8198 41.4925 49.1044 41.4925C50.1099 41.4925 50.9843 39.8179 51.7421 36.4391C51.8732 35.8315 51.9898 35.3572 52.0627 34.9571L52.3687 33.6382C52.0193 34.4938 51.5262 35.2811 50.9114 35.9648C50.6982 36.1912 50.4428 36.372 50.16 36.4967C49.8773 36.6213 49.5729 36.6874 49.2647 36.691C48.8979 36.6919 48.538 36.5901 48.2243 36.3966C47.9107 36.2032 47.6556 35.9256 47.4869 35.5944C47.0047 34.7668 46.7716 33.8136 46.8165 32.8527C46.8131 31.8432 46.9807 30.8405 47.312 29.8888C47.627 28.9804 48.1231 28.1479 48.7693 27.4436C49.1804 26.9698 49.6745 26.5778 50.2265 26.2877C50.6752 26.0392 51.1734 25.8973 51.6838 25.8727C51.9381 25.8529 52.1931 25.9014 52.4232 26.0132C52.6534 26.125 52.8507 26.2963 52.9953 26.51C53.3393 27.0569 53.5074 27.6991 53.4762 28.3476L54.03 26.1099L57.3525 26.0654ZM51.5235 28.2142L50.0662 34.4088C50.0179 34.5532 49.9837 34.7021 49.9642 34.8534C49.9512 34.9517 49.9512 35.0514 49.9642 35.1498C49.9536 35.2886 49.9952 35.4264 50.0808 35.5351C50.113 35.5829 50.1566 35.6217 50.2076 35.6476C50.2586 35.6735 50.3153 35.6858 50.3722 35.6833C50.5471 35.6833 50.7511 35.5499 50.9989 35.2831C51.2897 34.9337 51.5392 34.5507 51.7421 34.142C52.2311 33.2015 52.6125 32.207 52.8787 31.1781C53.1408 30.2874 53.2878 29.3658 53.3159 28.4365C53.3292 27.9926 53.26 27.5502 53.1119 27.1324C52.9807 26.7915 52.8059 26.6285 52.6018 26.6285C52.484 26.6361 52.3703 26.6759 52.2728 26.7437C52.1754 26.8115 52.0977 26.9049 52.0481 27.0138C51.8161 27.3837 51.6439 27.789 51.5381 28.2142H51.5235Z" fill="white"/>
<path d="M57.848 36.3798L59.8299 27.9475V27.6659C59.8371 27.5771 59.8371 27.4879 59.8299 27.3991C59.8438 27.2757 59.8183 27.151 59.757 27.0435C59.7352 27.0048 59.7031 26.9732 59.6645 26.9522C59.6258 26.9313 59.5821 26.9218 59.5384 26.9249C59.349 26.9249 59.1012 27.2509 58.7806 27.903C58.3997 28.7074 58.0924 29.5458 57.8626 30.4075L57.6877 30.3038C57.9924 29.0961 58.4843 27.9455 59.145 26.8953C59.3317 26.5909 59.5885 26.3374 59.8932 26.1566C60.1978 25.9759 60.5412 25.8734 60.8937 25.8579C61.1456 25.8407 61.3976 25.8905 61.625 26.0022C61.8523 26.1139 62.0473 26.2838 62.1906 26.4951C62.5206 27.0416 62.6782 27.6777 62.6424 28.3179C62.6424 28.5402 62.6424 28.8514 62.6424 29.2219C62.6424 29.5924 62.5695 30.0666 62.5112 30.6298C62.8811 29.2712 63.3992 27.9589 64.0559 26.7174C64.2059 26.4591 64.4187 26.2443 64.6739 26.0938C64.9292 25.9432 65.2182 25.862 65.5132 25.8579C65.7245 25.8526 65.9335 25.9031 66.1199 26.0044C66.3063 26.1057 66.4638 26.2543 66.577 26.4359C66.8598 26.9016 66.9923 27.4457 66.9558 27.9919C66.9343 28.5607 66.7522 29.1112 66.4312 29.5776C66.3323 29.761 66.1868 29.9141 66.01 30.0209C65.8332 30.1278 65.6314 30.1845 65.4257 30.1852C65.2359 30.1876 65.0487 30.1397 64.8826 30.0461C64.7165 29.9526 64.5772 29.8166 64.4785 29.6517C64.1213 28.9803 64.0325 28.1947 64.2308 27.4584C64.2928 27.2101 64.3963 26.9745 64.5368 26.7619C64.2162 26.7619 63.7062 27.6807 63.0795 29.5331C62.3037 31.7666 61.69 34.055 61.2434 36.3798H57.848Z" fill="white"/>
<path d="M72.2604 25.8579C72.8475 25.8431 73.4307 25.9588 73.9693 26.1968C74.5079 26.4349 74.989 26.7896 75.3789 27.2362C76.2154 28.1761 76.6641 29.4072 76.6322 30.6744C76.6524 32.2208 76.0892 33.7164 75.0583 34.8535C74.5982 35.417 74.0212 35.87 73.3687 36.18C72.7162 36.4901 72.0043 36.6493 71.284 36.6465C70.7022 36.6639 70.1238 36.5508 69.5899 36.3152C69.0559 36.0796 68.5796 35.7271 68.1947 35.2832C67.3742 34.313 66.9424 33.0647 66.9851 31.7858C66.9492 30.2403 67.4968 28.7395 68.5153 27.5918C68.9784 27.0437 69.5533 26.6049 70.2 26.3054C70.8467 26.006 71.5498 25.8533 72.2604 25.8579ZM73.4553 28.3031C73.4553 27.9919 73.5573 27.7845 73.5719 27.6511C73.5845 27.5428 73.5845 27.4335 73.5719 27.3252C73.5868 27.0528 73.5039 26.7843 73.3388 26.5694C73.2629 26.4802 73.1688 26.4088 73.0631 26.3602C72.9575 26.3116 72.8427 26.2868 72.7267 26.2877C72.5855 26.2861 72.4462 26.3207 72.3215 26.388C72.1967 26.4553 72.0906 26.5532 72.0127 26.673C71.7766 27.0426 71.6133 27.4553 71.5318 27.8882L70.0745 34.2458C70.071 34.305 70.071 34.3644 70.0745 34.4236C70.0041 34.6801 69.9602 34.9434 69.9434 35.2092C69.9359 35.4805 70.018 35.7466 70.1765 35.9649C70.2534 36.0559 70.35 36.1273 70.4588 36.1736C70.5676 36.2199 70.6855 36.2399 70.8031 36.2317C70.9461 36.2318 71.087 36.1968 71.2138 36.1297C71.3407 36.0627 71.4497 35.9655 71.5318 35.8464C71.7739 35.48 71.9377 35.0659 72.0127 34.6311L73.4553 28.3031Z" fill="white"/>
<path d="M78.4391 35.0905C78.6435 35.455 78.969 35.7335 79.3572 35.8759C79.874 36.1153 80.436 36.2367 81.0039 36.2316C81.459 36.2664 81.9093 36.1173 82.2571 35.8166C82.4043 35.6594 82.5178 35.4729 82.5905 35.2689C82.6633 35.0648 82.6936 34.8477 82.6797 34.6311C82.6797 33.9642 82.1842 33.3566 81.2225 32.7638L80.421 32.2896C79.7984 31.9484 79.2486 31.485 78.8034 30.9262C78.5128 30.489 78.3603 29.972 78.3662 29.4442C78.3545 28.9576 78.4505 28.4744 78.6473 28.0306C78.8441 27.5868 79.1365 27.1937 79.5029 26.8805C80.3314 26.1807 81.3848 25.8166 82.4611 25.8579C83.3782 25.8222 84.2807 26.0986 85.0259 26.6434C85.3337 26.8572 85.5851 27.1448 85.7579 27.4808C85.9308 27.8167 86.0197 28.1908 86.0168 28.5699C86.0413 28.9167 85.9373 29.2603 85.7254 29.5332C85.6202 29.6488 85.4912 29.7393 85.3476 29.7983C85.204 29.8572 85.0493 29.8831 84.8947 29.874C84.6991 29.8811 84.5041 29.8479 84.3213 29.7766C84.1385 29.7054 83.9718 29.5973 83.8309 29.4591C83.6967 29.3176 83.5916 29.1504 83.5215 28.9672C83.4515 28.7841 83.4179 28.5885 83.4229 28.3921C83.4002 28.0569 83.4987 27.7249 83.6998 27.4584C83.7833 27.343 83.8934 27.2501 84.0204 27.1881C84.1475 27.1261 84.2876 27.0968 84.4284 27.1028H84.647H84.9239C84.713 26.817 84.4241 26.6005 84.0932 26.4803C83.6866 26.3101 83.2506 26.2245 82.8109 26.2284C82.3676 26.2031 81.9326 26.3577 81.6013 26.6582C81.4534 26.8087 81.3391 26.9898 81.2662 27.1893C81.1933 27.3888 81.1634 27.6019 81.1787 27.8141C81.1787 28.481 81.7033 29.133 82.738 29.7703L83.1606 30.0222C83.8022 30.4039 84.3661 30.907 84.8219 31.5042C85.1449 31.9828 85.3083 32.5542 85.2882 33.1343C85.3033 33.6143 85.2115 34.0915 85.0198 34.5303C84.828 34.9692 84.5411 35.3582 84.1807 35.6684C83.3773 36.2834 82.406 36.6293 81.401 36.6585C80.3959 36.6877 79.4068 36.3987 78.5702 35.8315C78.2459 35.5987 77.9812 35.2901 77.7986 34.9316C77.616 34.5731 77.5208 34.1753 77.521 33.7715C77.4996 33.3769 77.6185 32.9876 77.8562 32.6749C77.9728 32.543 78.1173 32.4398 78.2789 32.3731C78.4405 32.3063 78.6148 32.2778 78.7888 32.2896C78.9841 32.274 79.1804 32.3016 79.3642 32.3706C79.5479 32.4395 79.7148 32.5482 79.8533 32.689C79.9918 32.8299 80.0987 32.9996 80.1665 33.1865C80.2343 33.3734 80.2614 33.573 80.2461 33.7715C80.2662 34.1547 80.164 34.5342 79.9546 34.8534C79.8567 34.9806 79.7301 35.082 79.5856 35.1491C79.441 35.2162 79.2827 35.2469 79.124 35.2387C78.9407 35.2276 78.7595 35.1927 78.5848 35.1349L78.4391 35.0905Z" fill="white"/>
<path d="M91.9915 25.8579C92.5786 25.8431 93.1618 25.9588 93.7004 26.1968C94.239 26.4349 94.7201 26.7896 95.1099 27.2362C95.9429 28.1881 96.3819 29.4307 96.3339 30.704C96.3539 32.2505 95.7909 33.746 94.7603 34.883C94.3002 35.4465 93.7232 35.8997 93.0706 36.2097C92.4181 36.5197 91.7062 36.679 90.986 36.6763C90.404 36.6947 89.8253 36.582 89.2912 36.3463C88.7571 36.1106 88.2809 35.7577 87.8966 35.3129C87.0744 34.333 86.6475 33.0728 86.7016 31.7858C86.6615 30.2199 87.2326 28.7013 88.29 27.5622C88.7492 27.0229 89.3179 26.5914 89.9569 26.2972C90.5959 26.003 91.29 25.8531 91.9915 25.8579ZM93.1864 28.3031C93.1864 27.9919 93.2884 27.7845 93.303 27.6511C93.3176 27.5177 93.303 27.4141 93.303 27.3252C93.3178 27.0528 93.235 26.7843 93.0698 26.5694C92.9939 26.4802 92.8999 26.4088 92.7942 26.3602C92.6886 26.3116 92.5738 26.2868 92.4578 26.2877C92.3166 26.2861 92.1773 26.3207 92.0525 26.388C91.9278 26.4553 91.8216 26.5532 91.7437 26.673C91.5077 27.0426 91.3444 27.4553 91.2628 27.8882L89.8056 34.2458C89.8021 34.305 89.8021 34.3644 89.8056 34.4236C89.7352 34.6801 89.6912 34.9434 89.6744 35.2092C89.6596 35.4815 89.7425 35.75 89.9076 35.9649C89.9815 36.0566 90.0751 36.1296 90.1813 36.1785C90.2874 36.2273 90.4032 36.2506 90.5196 36.2465C90.6626 36.2466 90.8035 36.2116 90.9303 36.1446C91.0572 36.0775 91.1662 35.9802 91.2483 35.8611C91.4843 35.4915 91.6476 35.0789 91.7292 34.646L93.1864 28.3031Z" fill="white"/>
<path d="M102.061 26.7026C101.551 29.8295 101.041 32.6304 100.604 35.046C100.167 37.4616 99.6129 39.7438 99.1469 41.8185H94.8623L94.9788 41.3888C95.1169 41.3798 95.2499 41.334 95.3659 41.256C95.4809 41.1779 95.5729 41.0704 95.6349 40.9442C95.9539 40.2535 96.1939 39.5274 96.3489 38.7805L99.4379 26.7026H97.6459L97.7769 26.0654H99.5839C99.9559 24.6563 100.6 23.3365 101.478 22.1827C101.775 21.7884 102.153 21.4658 102.586 21.2377C103.02 21.0097 103.497 20.882 103.985 20.8637C104.257 20.8603 104.526 20.9137 104.777 21.0208C105.028 21.1279 105.254 21.2863 105.442 21.4861C105.816 21.8857 106.025 22.4163 106.025 22.9681C106.046 23.3856 105.928 23.7982 105.69 24.1388C105.598 24.2809 105.472 24.3973 105.324 24.4775C105.177 24.5578 105.012 24.5992 104.845 24.5982C104.674 24.6011 104.505 24.5639 104.351 24.4893C104.196 24.4147 104.061 24.3049 103.956 24.1685C103.723 23.8477 103.604 23.4555 103.62 23.057C103.606 22.6539 103.713 22.2558 103.926 21.9159C104.004 21.7816 104.115 21.6702 104.248 21.5923C104.381 21.5144 104.531 21.4727 104.684 21.4713C104.594 21.4433 104.501 21.4235 104.407 21.412C104.287 21.3895 104.163 21.3895 104.043 21.412C103.65 21.412 103.314 21.6788 103.067 22.2123C102.634 23.5017 102.332 24.8324 102.163 26.1839H104.16L103.999 26.8212L102.061 26.7026Z" fill="white"/>
<path d="M106.054 26.7026H104.48L104.626 26.0654H106.185L107.366 21.0268H110.542L109.362 26.0654H110.994L110.848 26.7026H109.231L107.482 34.1865C107.482 34.4039 107.453 34.5669 107.395 34.6755C107.388 34.7643 107.388 34.8535 107.395 34.9423C107.39 35.1083 107.43 35.2723 107.511 35.4165C107.542 35.4711 107.587 35.5163 107.641 35.5475C107.694 35.5788 107.755 35.5949 107.817 35.5944C108.08 35.5944 108.386 35.2683 108.735 34.6459C109.172 33.7861 109.533 32.8885 109.814 31.9636L110.047 32.0969C109.779 33.3401 109.285 34.5213 108.59 35.5795C108.355 35.9108 108.047 36.1805 107.689 36.3661C107.332 36.5517 106.936 36.6478 106.535 36.6465C106.263 36.6615 105.991 36.6148 105.739 36.5097C105.487 36.4046 105.261 36.2438 105.078 36.0389C104.703 35.5557 104.516 34.949 104.553 34.3347C104.558 33.997 104.587 33.6602 104.641 33.327C104.641 32.9417 104.815 32.4378 104.976 31.845L106.054 26.7026Z" fill="white"/>
<path d="M114.987 8.57843C115.681 8.58378 116.363 8.76729 116.969 9.11193C117.581 9.45825 118.086 9.97152 118.426 10.5938C118.776 11.2226 118.961 11.9316 118.965 12.6538C118.957 13.3659 118.771 14.0643 118.426 14.684C118.093 15.3119 117.586 15.827 116.969 16.166C116.357 16.525 115.664 16.714 114.958 16.714C114.252 16.714 113.558 16.525 112.947 16.166C112.333 15.8216 111.828 15.3079 111.49 14.684C111.138 14.0672 110.952 13.3669 110.95 12.6538C110.953 11.9295 111.144 11.2188 111.504 10.5938C111.843 9.97006 112.348 9.45632 112.961 9.11193C113.581 8.76183 114.278 8.5782 114.987 8.57843ZM114.987 9.26013C114.405 9.26367 113.834 9.4166 113.326 9.70472C112.794 9.99453 112.358 10.4379 112.073 10.9792C111.77 11.4999 111.609 12.0933 111.606 12.6982C111.611 13.2916 111.767 13.8736 112.058 14.3876C112.351 14.9228 112.785 15.3642 113.311 15.6621C113.823 15.9566 114.399 16.1147 114.987 16.1215C115.57 16.1148 116.142 15.9566 116.648 15.6621C117.177 15.3681 117.612 14.9258 117.902 14.3876C118.193 13.8736 118.349 13.2916 118.353 12.6982C118.339 12.1157 118.184 11.5457 117.902 11.0384C117.607 10.4993 117.167 10.0571 116.634 9.76399C116.136 9.45694 115.569 9.28357 114.987 9.26013ZM113.209 14.9656V10.5197H114.666C115.045 10.5007 115.424 10.5458 115.789 10.6531C116.006 10.7302 116.195 10.8745 116.328 11.0657C116.461 11.257 116.532 11.4857 116.532 11.7201C116.533 12.0355 116.413 12.339 116.197 12.5648C115.955 12.8076 115.633 12.9502 115.293 12.965C115.43 13.0153 115.555 13.0963 115.657 13.2021C115.913 13.463 116.133 13.757 116.313 14.0764L116.838 14.9508H115.978L115.599 14.2395C115.417 13.854 115.165 13.5071 114.856 13.2169C114.69 13.0994 114.49 13.042 114.288 13.0539H113.88V14.9656H113.209ZM113.909 12.5204H114.754C115.047 12.5493 115.341 12.4873 115.599 12.3426C115.671 12.2843 115.728 12.2096 115.766 12.1247C115.804 12.0397 115.822 11.9468 115.818 11.8535C115.822 11.7269 115.786 11.6023 115.716 11.4978C115.64 11.3922 115.533 11.3142 115.41 11.2755C115.184 11.201 114.947 11.1708 114.71 11.1866H113.909V12.5204Z" fill="white"/>
</g>
<defs>
<clipPath id="clip0_6788_41377">
<rect width="150" height="60" fill="white"/>
</clipPath>
</defs>
</svg>
