<svg width="150" height="60" viewBox="0 0 112 34" fill="none" xmlns="http://www.w3.org/2000/svg">
<path d="M8.68005 3.84H17.9201C18.7601 3.84 21.2801 3.56 22.4001 7.48C23.2401 10 24.3601 13.92 26.0401 19.8H26.6001C28.2801 13.64 29.6801 9.44 30.2401 7.48C31.3601 3.56 34.1601 3.84 35.2801 3.84H43.9601V30.72H35.0001V14.76H34.4401L29.6801 30.72H22.9601L18.2001 14.76H17.3601V30.72H8.68005M47.6001 3.84H56.5601V19.8H57.4001L63.2801 6.64C64.4001 4.12 66.9201 3.84 66.9201 3.84H75.3201V30.72H66.3601V14.76H65.8001L59.9201 27.92C58.8001 30.44 56.0001 30.72 56.0001 30.72H47.6001M87.3601 22.6V30.72H78.9601V16.72H106.4C105.28 20.08 101.36 22.6 96.8801 22.6" fill="#0F754E"/>
<path d="M106.96 15.04C108.08 10 104.72 3.84 97.44 3.84H78.4C78.96 9.72 84 15.04 89.32 15.04" fill="url(#paint0_linear_1_3668)"/>
<defs>
<linearGradient id="paint0_linear_1_3668" x1="103.6" y1="0.2" x2="81.2" y2="0.2" gradientUnits="userSpaceOnUse">
<stop stop-color="#1F5CD7"/>
<stop offset="1" stop-color="#02AEFF"/>
</linearGradient>
</defs>
</svg>
