<svg width="150" height="60" viewBox="0 0 150 60" fill="none" xmlns="http://www.w3.org/2000/svg">
<g clip-path="url(#clip0_1_3849)">
<path d="M112.794 18.6889V31.5779H108.192V22.5365H103.76V31.5779H99.1577V18.688H112.794V18.6889Z" fill="white"/>
<path fill-rule="evenodd" clip-rule="evenodd" d="M89.7055 32.0388C93.8255 32.0388 96.885 29.5126 96.885 25.683C96.885 21.9764 94.6277 19.5697 90.8552 19.5697C89.1141 19.5697 87.6775 20.1826 86.5955 21.2401C86.8538 19.0544 88.702 17.4587 90.737 17.4587C91.2067 17.4587 94.7424 17.4513 94.7424 17.4513L96.7418 13.6251C96.7418 13.6251 92.3028 13.7262 90.2393 13.7262C85.5244 13.8083 82.3397 18.094 82.3397 23.2992C82.3397 29.3633 85.4457 32.0388 89.7055 32.0388ZM89.7305 22.9587C91.2603 22.9587 92.3208 23.9639 92.3208 25.6826C92.3208 27.2294 91.3784 28.5039 89.7305 28.5075C88.1542 28.5075 87.0937 27.3265 87.0937 25.7089C87.0937 23.9898 88.1542 22.9587 89.7305 22.9587Z" fill="white"/>
<path d="M78.5935 27.2628C78.5935 27.2628 77.5066 27.8893 75.8833 28.0079C74.017 28.0633 72.3541 26.8846 72.3541 24.7903C72.3541 22.7474 73.8215 21.5766 75.8363 21.5766C77.0717 21.5766 78.706 22.4328 78.706 22.4328C78.706 22.4328 79.9018 20.2384 80.5213 19.1409C79.3869 18.2812 77.8761 17.8098 76.1188 17.8098C71.6837 17.8098 68.2486 20.7014 68.2486 24.7644C68.2486 28.8791 71.4772 31.7036 76.1188 31.6184C77.4161 31.57 79.2059 31.1144 80.2968 30.4137L78.5935 27.2628Z" fill="white"/>
<path d="M22 15.1155L28.3844 26.5271V33.4878L22.0075 44.8771L22 15.1155Z" fill="#5B57A2"/>
<path d="M46.5133 22.3745L52.4957 18.7079L64.7389 18.6965L46.5133 29.8616V22.3745Z" fill="#D90751"/>
<path d="M46.4795 15.0483L46.5134 30.1568L40.1141 26.2248V3.64017L46.4795 15.0483Z" fill="#FAB718"/>
<path d="M64.739 18.6965L52.4953 18.7079L46.4795 15.0483L40.1141 3.64017L64.739 18.6965Z" fill="#ED6F26"/>
<path d="M46.5134 44.9403V37.6101L40.1141 33.7528L40.1176 56.3598L46.5134 44.9403Z" fill="#63B22F"/>
<path d="M52.4808 41.3071L28.3839 26.5271L22 15.1155L64.713 41.2921L52.4808 41.3071Z" fill="#1487C9"/>
<path d="M40.118 56.3598L46.5129 44.9403L52.4803 41.307L64.7126 41.2921L40.118 56.3598Z" fill="#017F36"/>
<path d="M22.0075 44.8771L40.1664 33.7532L34.0614 30.0075L28.3844 33.4878L22.0075 44.8771Z" fill="#984995"/>
<path d="M72.3555 40.2525C72.2149 40.4318 72.03 40.5671 71.8081 40.6585C71.5805 40.7511 71.3369 40.7983 71.0911 40.7973C70.8467 40.8006 70.6036 40.7598 70.3737 40.6769C70.1671 40.6019 69.9784 40.4849 69.8192 40.3334C69.6621 40.1815 69.5388 39.9983 69.4572 39.7956C69.369 39.5736 69.3249 39.3364 69.3276 39.0975C69.3276 38.8603 69.3685 38.6406 69.4533 38.4324C69.5346 38.2237 69.6527 38.0449 69.8008 37.8946C69.9488 37.7413 70.1263 37.6244 70.3258 37.5331C70.5292 37.4452 70.7511 37.3978 70.9949 37.3978C71.2576 37.3978 71.5014 37.4307 71.7233 37.4962C71.9452 37.5621 72.1336 37.6719 72.2887 37.8257L72.019 38.2826C71.8885 38.1643 71.7348 38.0745 71.5678 38.019C71.4089 37.9678 71.243 37.942 71.0762 37.9425C70.9286 37.9425 70.788 37.9715 70.6513 38.0264C70.5167 38.0807 70.3937 38.1601 70.2889 38.2606C70.1818 38.3639 70.0974 38.4884 70.0411 38.6261C69.9783 38.7685 69.9488 38.9257 69.9488 39.101C69.9488 39.2803 69.9818 39.4411 70.0446 39.5799C70.1079 39.7227 70.1927 39.8435 70.2999 39.9454C70.4071 40.0482 70.5327 40.1247 70.6768 40.1761C70.8214 40.231 70.9729 40.2565 71.1355 40.2565C71.3349 40.2565 71.5164 40.2161 71.6715 40.1392C71.8251 40.065 71.9632 39.9621 72.0783 39.836L72.3555 40.2525ZM73.1169 40.7204V37.4672H73.7012V39.891L75.6013 37.4672H76.1856V40.7208H75.6013V38.2971L73.7012 40.7208L73.1169 40.7204ZM80.0561 40.2525C79.9123 40.4333 79.7238 40.5732 79.5091 40.6585C79.2813 40.7511 79.0376 40.7982 78.7917 40.7973C78.5474 40.8006 78.3045 40.7598 78.0747 40.6769C77.868 40.6019 77.6791 40.4849 77.5198 40.3334C77.3627 40.1815 77.2394 39.9983 77.1578 39.7956C77.0695 39.5736 77.0255 39.3364 77.0282 39.0975C77.0282 38.8603 77.0691 38.6406 77.1539 38.4324C77.2356 38.2237 77.3538 38.0449 77.5014 37.8946C77.6494 37.7413 77.8269 37.6244 78.0264 37.5331C78.2371 37.4403 78.4653 37.3941 78.6955 37.3978C78.9582 37.3978 79.202 37.4307 79.4239 37.4962C79.6458 37.5621 79.8342 37.6719 79.9897 37.8257L79.7196 38.2826C79.5893 38.1642 79.4358 38.0745 79.2688 38.019C79.11 37.9678 78.9441 37.942 78.7772 37.9425C78.4835 37.9435 78.2015 38.0574 77.9895 38.2606C77.8833 38.3647 77.7991 38.489 77.7417 38.6261C77.6789 38.7685 77.6494 38.9257 77.6494 39.101C77.6494 39.2803 77.6828 39.4411 77.7456 39.5799C77.8085 39.7227 77.8933 39.8435 78.0005 39.9454C78.1077 40.0482 78.2337 40.1247 78.3778 40.1761C78.5219 40.227 78.6735 40.2565 78.8361 40.2565C79.036 40.2565 79.2134 40.2161 79.372 40.1392C79.5257 40.065 79.6638 39.9621 79.7789 39.836L80.0561 40.2525ZM80.3557 37.4672H83.3537V38.0449H82.1486V40.7204H81.5643V38.0449H80.3592V37.4672H80.3557Z" fill="white"/>
<path fill-rule="evenodd" clip-rule="evenodd" d="M86.0823 40.6879C86.3042 40.6185 86.4926 40.5122 86.6552 40.3663L86.4777 39.9129C86.3705 40.0083 86.2264 40.0886 86.0529 40.1545C85.8789 40.2204 85.683 40.253 85.4686 40.253C85.147 40.253 84.8807 40.169 84.6699 39.9973C84.4594 39.8251 84.3448 39.5843 84.3188 39.2768H86.8476C86.8735 39.1634 86.8845 39.0356 86.8845 38.8858C86.8845 38.6626 86.8437 38.4618 86.7624 38.279C86.6867 38.1016 86.5762 37.9411 86.4373 37.8072C86.2965 37.6746 86.1305 37.5715 85.9492 37.5041C85.7594 37.4304 85.5575 37.3932 85.3539 37.3942C85.0802 37.3942 84.8399 37.4417 84.6294 37.5295C84.4305 37.6133 84.2505 37.7364 84.1005 37.8916C83.9548 38.0459 83.8429 38.2289 83.7719 38.4289C83.6938 38.6418 83.6549 38.8672 83.6572 39.094C83.6572 39.3501 83.7016 39.5839 83.7829 39.7925C83.8619 39.9947 83.9829 40.1778 84.1378 40.3298C84.2894 40.4792 84.4739 40.593 84.6923 40.6734C84.926 40.7563 85.1727 40.7971 85.4207 40.7938C85.6453 40.7924 85.8684 40.7564 86.0823 40.6879ZM84.6035 38.1837C84.7845 38.0194 85.0248 37.939 85.328 37.939C85.6127 37.939 85.842 38.0159 86.0085 38.1697C86.175 38.323 86.2633 38.5352 86.2782 38.8054H84.2819C84.3102 38.5661 84.4245 38.3449 84.6035 38.1837Z" fill="white"/>
<path d="M87.6793 37.4672H88.2118L89.4762 39.0795L90.6738 37.4672H91.1913V40.7208H90.6075V38.3485L89.4687 39.858H89.4463L88.2636 38.348V40.7204H87.6793V37.4672Z" fill="white"/>
<path fill-rule="evenodd" clip-rule="evenodd" d="M92.7808 37.4781C92.6035 37.5245 92.4341 37.597 92.2782 37.6934L92.4333 38.1547C92.5664 38.0888 92.6995 38.0339 92.8326 37.9865C92.9658 37.9386 93.1358 37.9166 93.3392 37.9166C93.5017 37.9166 93.6313 37.9425 93.7311 37.9935C93.8308 38.0409 93.9046 38.1143 93.9565 38.2022C94.0083 38.29 94.0417 38.3994 94.0601 38.5273C94.0786 38.6551 94.0861 38.7939 94.0861 38.9442C93.9665 38.8609 93.8302 38.8047 93.6867 38.7794C93.5479 38.7519 93.4069 38.7371 93.2654 38.7355C93.0914 38.7355 92.9289 38.7614 92.7733 38.8049C92.6182 38.8489 92.4851 38.9148 92.3779 39.0026C92.2685 39.0903 92.1801 39.2014 92.1192 39.3277C92.054 39.466 92.0212 39.6173 92.023 39.7701C92.023 40.0882 92.1157 40.3369 92.3002 40.5126C92.4851 40.6879 92.729 40.7753 93.0321 40.7753C93.3058 40.7753 93.5242 40.7279 93.6902 40.633C93.8567 40.5376 93.9898 40.4283 94.0861 40.3039V40.7244H94.633V38.7285C94.633 38.3041 94.5408 37.9755 94.3523 37.7448C94.1673 37.5146 93.8383 37.3977 93.3726 37.3977C93.1652 37.3977 92.9693 37.4267 92.7808 37.4781ZM93.7574 40.1141C93.6243 40.209 93.4503 40.2525 93.236 40.2525C93.0475 40.2525 92.8994 40.2051 92.7962 40.1137C92.6925 40.0188 92.6407 39.8945 92.6407 39.7407C92.6407 39.6498 92.6591 39.5729 92.7 39.5035C92.7408 39.434 92.7962 39.3791 92.859 39.3352C92.9277 39.2893 93.004 39.2558 93.0844 39.2363C93.1696 39.2144 93.2544 39.2034 93.3431 39.2034C93.6318 39.2034 93.8791 39.2728 94.0825 39.4191V39.8321C93.9867 39.9395 93.8774 40.0346 93.7574 40.1141ZM99.7908 36.3227C99.9089 36.2682 100.02 36.1769 100.123 36.0415L99.8053 35.5846C99.724 35.6945 99.6317 35.7709 99.528 35.8113C99.4182 35.8543 99.3042 35.8861 99.188 35.9062L99.0773 35.926C98.9811 35.9427 98.8778 35.9611 98.7667 35.9796C98.5884 36.0126 98.4147 36.0665 98.2491 36.1404C97.9864 36.2537 97.776 36.4071 97.617 36.6008C97.4579 36.7945 97.3323 37.0138 97.247 37.2554C97.1607 37.5002 97.1025 37.754 97.0735 38.0119C97.0436 38.2755 97.0291 38.5273 97.0291 38.7685C97.0291 39.0795 97.0695 39.3607 97.1508 39.6129C97.2325 39.8655 97.3468 40.0772 97.4983 40.249C97.6499 40.4247 97.8313 40.5565 98.0457 40.6514C98.2601 40.7463 98.5004 40.7938 98.7702 40.7938C99.018 40.7938 99.2473 40.7463 99.4542 40.6585C99.6537 40.574 99.8347 40.4512 99.9867 40.2969C100.134 40.1466 100.253 39.9674 100.334 39.7666C100.419 39.5654 100.46 39.3497 100.46 39.123C100.46 38.8783 100.423 38.6556 100.353 38.4579C100.288 38.2694 100.185 38.0964 100.05 37.95C99.9141 37.806 99.7487 37.6935 99.5649 37.6205C99.3626 37.5408 99.1467 37.5011 98.9292 37.5036C98.7886 37.5036 98.652 37.5221 98.5189 37.5585C98.3894 37.595 98.2651 37.6479 98.149 37.7158C98.0363 37.7804 97.9331 37.8602 97.8423 37.9531C97.7536 38.0449 97.6798 38.1472 97.6279 38.2641H97.613C97.6244 38.1143 97.6429 37.961 97.6758 37.8037C97.7092 37.6464 97.7571 37.4962 97.8204 37.3538C97.8832 37.2115 97.9645 37.0832 98.0642 36.9663C98.1711 36.8484 98.3023 36.7549 98.4486 36.6922C98.6096 36.6155 98.7799 36.5603 98.9552 36.5279L99.0711 36.5068C99.1867 36.4857 99.297 36.4655 99.4024 36.4435C99.543 36.4145 99.6721 36.3772 99.7908 36.3227ZM97.7351 39.4485C97.678 39.264 97.6505 39.0715 97.6539 38.8783C97.6786 38.7674 97.7238 38.6621 97.787 38.5677C97.8498 38.4688 97.9311 38.3814 98.0273 38.3041C98.2444 38.134 98.5128 38.0426 98.7886 38.0449C99.1326 38.0449 99.3914 38.1508 99.5724 38.3594C99.7539 38.5712 99.8426 38.8344 99.8426 39.1524C99.8426 39.3097 99.8127 39.4525 99.7613 39.5839C99.7114 39.7134 99.6359 39.8317 99.5394 39.9315C99.4428 40.0313 99.3272 40.1108 99.1994 40.1651C99.0663 40.2235 98.9218 40.253 98.7592 40.253C98.5967 40.253 98.4486 40.22 98.312 40.1541C98.1762 40.0895 98.0562 39.996 97.9605 39.88C97.8603 39.7507 97.784 39.6046 97.7351 39.4485ZM104.941 37.4672H104.356V40.7208H104.941V37.4672ZM101.302 37.4672H101.887V38.4434H102.427C102.682 38.4434 102.888 38.4763 103.055 38.5383C103.221 38.6006 103.355 38.6845 103.454 38.7869C103.554 38.8893 103.624 39.0101 103.665 39.145C103.706 39.2803 103.728 39.4191 103.728 39.5654C103.728 39.7117 103.706 39.851 103.658 39.9898C103.613 40.1286 103.536 40.249 103.432 40.3588C103.329 40.4687 103.188 40.5565 103.011 40.6224C102.833 40.6879 102.619 40.7244 102.36 40.7244H101.299V37.4672H101.302ZM101.887 38.9877V40.1796H102.312C102.604 40.1796 102.811 40.1286 102.929 40.0258C103.048 39.9235 103.107 39.7776 103.107 39.5839C103.107 39.3862 103.044 39.2368 102.926 39.134C102.804 39.0316 102.6 38.9802 102.32 38.9802H101.887V38.9877Z" fill="white"/>
<path d="M108.804 40.2525C108.664 40.4318 108.479 40.5671 108.257 40.6585C108.029 40.7511 107.785 40.7982 107.54 40.7973C107.295 40.8006 107.052 40.7598 106.822 40.6769C106.616 40.602 106.427 40.485 106.268 40.3334C106.111 40.1814 105.987 39.9982 105.905 39.7956C105.817 39.5735 105.774 39.3364 105.776 39.0975C105.776 38.8603 105.817 38.6406 105.902 38.4324C105.983 38.2237 106.101 38.0449 106.249 37.8946C106.397 37.7413 106.574 37.6244 106.774 37.5331C106.985 37.4402 107.213 37.3941 107.443 37.3978C107.706 37.3978 107.95 37.4307 108.172 37.4962C108.394 37.5621 108.582 37.6719 108.737 37.8257L108.468 38.2826C108.337 38.1643 108.183 38.0745 108.016 38.019C107.858 37.9678 107.692 37.942 107.525 37.9425C107.377 37.9425 107.237 37.9715 107.1 38.0264C106.965 38.0807 106.842 38.1602 106.737 38.2606C106.631 38.3646 106.547 38.4889 106.49 38.6261C106.427 38.7685 106.397 38.9257 106.397 39.101C106.397 39.2803 106.43 39.4411 106.493 39.5799C106.556 39.7227 106.641 39.8435 106.748 39.9454C106.856 40.0482 106.981 40.1247 107.125 40.1761C107.27 40.227 107.422 40.2565 107.584 40.2565C107.784 40.2565 107.961 40.2161 108.12 40.1392C108.274 40.065 108.412 39.9621 108.527 39.836L108.804 40.2525ZM109.103 37.4672H112.102V38.0449H110.896V40.7204H110.312V38.0449H109.107V37.4672H109.103Z" fill="white"/>
<path fill-rule="evenodd" clip-rule="evenodd" d="M113.322 37.4676H112.737V42.1684H113.322V40.571C113.44 40.6479 113.581 40.7028 113.743 40.7393C113.906 40.7758 114.076 40.7938 114.25 40.7938C114.508 40.7938 114.741 40.7463 114.952 40.6589C115.154 40.5724 115.338 40.447 115.492 40.2899C115.643 40.1321 115.758 39.9494 115.839 39.7337C115.92 39.5184 115.961 39.2878 115.961 39.043C115.961 38.8014 115.924 38.5787 115.854 38.3775C115.788 38.1864 115.685 38.0101 115.551 37.8586C115.419 37.7109 115.256 37.5946 115.074 37.5186C114.874 37.4328 114.659 37.3904 114.442 37.3942C114.213 37.3942 113.998 37.4382 113.795 37.526C113.591 37.6139 113.432 37.7193 113.322 37.8511V37.4676ZM113.729 38.0708C113.895 37.9829 114.076 37.939 114.272 37.939C114.442 37.939 114.594 37.9645 114.731 38.0194C114.864 38.0743 114.975 38.1512 115.067 38.2536C115.159 38.3559 115.23 38.4732 115.274 38.6116C115.322 38.7505 115.344 38.9007 115.344 39.065C115.344 39.2407 115.315 39.3976 115.263 39.5439C115.215 39.6826 115.138 39.8096 115.037 39.9169C114.936 40.0228 114.814 40.1062 114.679 40.1616C114.528 40.2248 114.365 40.2559 114.202 40.253C114.043 40.253 113.895 40.2349 113.754 40.1985C113.601 40.1566 113.455 40.0898 113.322 40.0008V38.3884C113.425 38.2645 113.562 38.1587 113.729 38.0708ZM120.442 37.4672H119.858V40.7208H120.442V37.4672ZM116.8 37.4672H117.385V38.4434H117.924C118.179 38.4434 118.386 38.4763 118.553 38.5383C118.719 38.6006 118.852 38.6846 118.952 38.7869C119.052 38.8893 119.122 39.0101 119.163 39.145C119.203 39.2803 119.225 39.4191 119.225 39.5654C119.225 39.7117 119.203 39.851 119.156 39.9898C119.111 40.1286 119.033 40.249 118.93 40.3588C118.827 40.4687 118.686 40.5565 118.508 40.6224C118.331 40.6879 118.117 40.7244 117.858 40.7244H116.797V37.4672H116.8ZM117.389 38.9877V40.1796H117.814C118.106 40.1796 118.313 40.1286 118.431 40.0258C118.549 39.9235 118.609 39.7776 118.609 39.5839C118.609 39.3862 118.546 39.2368 118.428 39.134C118.306 39.0316 118.102 38.9802 117.821 38.9802H117.389V38.9877Z" fill="white"/>
<path d="M123.244 39.0356L124.494 40.7208H123.777L122.812 39.4046L121.832 40.7208H121.152L122.394 39.0646L121.226 37.4672H121.943L122.834 38.6955L123.74 37.4672H124.42L123.244 39.0356ZM71.9232 44.742H70.1303V47.4545H69.546V44.2012H72.507V47.4545H71.9232V44.742ZM75.8231 44.7785H74.6699L74.6325 45.3268C74.5921 45.7912 74.5368 46.1642 74.459 46.4488C74.3812 46.7344 74.285 46.9536 74.1743 47.107C74.0636 47.2607 73.934 47.3666 73.7859 47.418C73.6332 47.4734 73.4717 47.5006 73.3093 47.4984L73.2649 46.9352C73.3277 46.9387 73.4015 46.9242 73.4828 46.8877C73.5645 46.8513 73.6458 46.7709 73.7231 46.6505C73.8009 46.5257 73.8712 46.3504 73.934 46.1237C73.9968 45.8935 74.0377 45.5939 74.0596 45.217L74.119 44.2043H76.4074V47.458H75.8231V44.7785Z" fill="white"/>
<path fill-rule="evenodd" clip-rule="evenodd" d="M77.9824 44.2087C77.7935 44.2597 77.6235 44.3326 77.4794 44.424L77.6349 44.8848C77.768 44.8189 77.9011 44.764 78.0338 44.7166C78.1669 44.6691 78.3374 44.6471 78.5404 44.6471C78.7034 44.6471 78.8325 44.6726 78.9322 44.7236C79.0324 44.7715 79.1062 44.8444 79.1581 44.9323C79.2095 45.0201 79.2429 45.13 79.2613 45.2574C79.2798 45.3857 79.2872 45.5245 79.2872 45.6743C79.1677 45.5911 79.0314 45.535 78.8879 45.51C78.7491 45.4824 78.6081 45.4677 78.4666 45.4661C78.293 45.4661 78.13 45.4915 77.9749 45.5355C77.8194 45.5794 77.6863 45.6453 77.5791 45.7332C77.4697 45.8209 77.3813 45.932 77.3203 46.0583C77.2554 46.1966 77.2226 46.3479 77.2246 46.5007C77.2246 46.8183 77.3168 47.0674 77.5018 47.2427C77.6863 47.418 77.9306 47.5059 78.2337 47.5059C78.5074 47.5059 78.7253 47.4584 78.8918 47.3631C79.0579 47.2682 79.191 47.1584 79.2872 47.034V47.4545H79.8346V45.4586C79.8346 45.0346 79.7419 44.7056 79.5535 44.4754C79.3685 44.2447 79.0394 44.1283 78.5737 44.1283C78.374 44.1285 78.1751 44.1558 77.9824 44.2087ZM78.9621 46.8438C78.8294 46.9391 78.6555 46.9831 78.4411 46.9831C78.2487 46.9831 78.1045 46.9356 78.0013 46.8438C77.8976 46.7489 77.8458 46.6246 77.8458 46.4712C77.8458 46.3799 77.8642 46.303 77.9051 46.2336C77.9455 46.1642 78.0013 46.1092 78.0641 46.0653C78.127 46.0214 78.2043 45.9884 78.2895 45.9665C78.374 45.9446 78.461 45.9337 78.5483 45.9339C78.8365 45.9339 79.0843 46.0034 79.2877 46.1492V46.5622C79.1917 46.6696 79.0822 46.7643 78.9621 46.8438Z" fill="white"/>
<path d="M80.407 44.2012H83.4055V44.7785H82.2V47.4545H81.6161V44.7789H80.411V44.2012H80.407Z" fill="white"/>
<path fill-rule="evenodd" clip-rule="evenodd" d="M86.1342 47.4215C86.356 47.3521 86.5445 47.2458 86.7071 47.0999L86.5296 46.6465C86.4224 46.7419 86.2783 46.8223 86.1043 46.8882C85.9308 46.9541 85.7348 46.9866 85.5204 46.9866C85.1988 46.9866 84.9326 46.9027 84.7217 46.7309C84.5109 46.5591 84.3966 46.3179 84.3707 46.0104H86.8995C86.925 45.8975 86.9364 45.7692 86.9364 45.6194C86.9364 45.3966 86.8955 45.1954 86.8143 45.0127C86.7386 44.8352 86.6278 44.6749 86.4887 44.5413C86.3482 44.4084 86.1823 44.3051 86.0011 44.2377C85.8113 44.1641 85.6093 44.1268 85.4058 44.1279C85.1321 44.1279 84.8918 44.1753 84.6813 44.2632C84.4822 44.3467 84.3023 44.4698 84.1524 44.6252C84.0067 44.7796 83.8947 44.9626 83.8233 45.1625C83.7454 45.3755 83.7066 45.6008 83.7086 45.8276C83.7086 46.0838 83.753 46.3175 83.8343 46.5262C83.916 46.7344 84.0377 46.9137 84.1893 47.0635C84.3408 47.2133 84.5258 47.3266 84.7441 47.407C84.9777 47.4901 85.2242 47.531 85.4721 47.5278C85.6905 47.5278 85.9123 47.4909 86.1342 47.4215ZM84.6519 44.9138C84.8329 44.7495 85.0732 44.6691 85.3763 44.6691C85.665 44.6691 85.8904 44.7495 86.0569 44.8993C86.2229 45.0531 86.3117 45.2648 86.3266 45.5355H84.3303C84.3585 45.2961 84.4728 45.0751 84.6519 44.9138ZM87.2211 44.2012H87.9605L89.0878 45.7696L87.8827 47.4545H87.1657L88.4297 45.7692L87.2211 44.2012ZM89.2319 44.2012H89.8162V47.4545H89.2319V44.2012ZM91.9048 47.4545L90.6184 45.7692L91.82 44.2008H91.0951L89.9603 45.7692L91.1803 47.4545H91.9048ZM94.5742 47.4215C94.796 47.3521 94.9845 47.2458 95.147 47.0999L94.9696 46.6465C94.8624 46.7419 94.7183 46.8223 94.5447 46.8882C94.3708 46.9541 94.1748 46.9866 93.9604 46.9866C93.6388 46.9866 93.3726 46.9027 93.1617 46.7309C92.9513 46.5591 92.8366 46.3179 92.8107 46.0104H95.3395C95.3654 45.8975 95.3764 45.7692 95.3764 45.6194C95.3764 45.3966 95.336 45.1954 95.2542 45.0127C95.1785 44.8353 95.068 44.675 94.9291 44.5413C94.7885 44.4084 94.6225 44.3051 94.441 44.2377C94.2513 44.164 94.0493 44.1268 93.8458 44.1279C93.5725 44.1279 93.3322 44.1753 93.1213 44.2632C92.9224 44.3468 92.7426 44.4699 92.5928 44.6252C92.4468 44.7794 92.3347 44.9624 92.2637 45.1625C92.1856 45.3754 92.1468 45.6008 92.1491 45.8276C92.1491 46.0838 92.1934 46.3175 92.2747 46.5262C92.356 46.7344 92.4781 46.9137 92.6297 47.0635C92.7813 47.2133 92.9658 47.3266 93.1841 47.407C93.4179 47.4901 93.6645 47.531 93.9125 47.5278C94.1372 47.5262 94.3603 47.4903 94.5742 47.4215ZM93.0919 44.9138C93.2733 44.7495 93.5136 44.6691 93.8168 44.6691C94.1014 44.6691 94.3303 44.7495 94.4968 44.8993C94.6633 45.0531 94.7521 45.2648 94.7666 45.5355H92.7703C92.7985 45.2961 92.9128 45.0751 93.0919 44.9138ZM97.7466 43.1082C97.4026 43.1082 97.2141 42.9179 97.1847 42.5379H96.6337C96.6337 42.6838 96.6597 42.8156 96.7075 42.9399C96.7559 43.0642 96.8262 43.1701 96.9184 43.258C97.0107 43.3458 97.1293 43.4153 97.2659 43.4697C97.4026 43.5247 97.5616 43.5501 97.7426 43.5501C97.9091 43.5501 98.0572 43.5247 98.1903 43.4697C98.3234 43.4188 98.4341 43.3458 98.5303 43.258C98.6226 43.1701 98.6968 43.0642 98.7482 42.9399C98.8001 42.8156 98.826 42.6838 98.826 42.5379H98.279C98.2531 42.9179 98.0717 43.1082 97.7466 43.1082ZM96.1676 44.2008V47.4545H96.7519L98.652 45.0307V47.4545H99.2363V44.2008H98.652L96.7519 46.6246V44.2008H96.1676Z" fill="white"/>
</g>
<defs>
<clipPath id="clip0_1_3849">
<rect width="105" height="52.7197" fill="white" transform="translate(22 3.64017)"/>
</clipPath>
</defs>
</svg>
