<svg width="150" height="60" viewBox="0 0 150 60" fill="none" xmlns="http://www.w3.org/2000/svg">
<g clip-path="url(#clip0_1_2)">
<path d="M76.8969 17.706C76.8586 17.3716 76.5781 17.1239 76.2339 17.1239H68.2145C67.8703 17.1239 67.5898 17.3839 67.5515 17.706L65.2056 43.1826C65.1674 43.5541 65.4734 43.8885 65.8686 43.8885H69.7062C70.0504 43.8885 70.3437 43.6284 70.3692 43.2817L70.6114 39.8385C70.6242 39.6775 70.7516 39.5537 70.9174 39.5537H73.5183C73.684 39.5537 73.8115 39.6775 73.8243 39.8385L74.0665 43.2817C74.092 43.6161 74.3852 43.8885 74.7295 43.8885H78.5798C78.975 43.8885 79.281 43.5665 79.2428 43.1826L76.8969 17.706ZM71.3254 35.2807C71.1469 35.2807 71.0066 35.1321 71.0194 34.9587L71.9756 22.4495C71.9883 22.3505 72.0648 22.2885 72.1541 22.2885H72.2816C72.3836 22.2885 72.4601 22.3628 72.4601 22.4495L73.4163 34.9587C73.429 35.1321 73.2888 35.2807 73.1103 35.2807H71.3254Z" fill="#0041FF"/>
<path d="M129.527 17.706C129.501 17.3716 129.208 17.1239 128.864 17.1239H120.844C120.5 17.1239 120.22 17.3839 120.181 17.706L117.848 43.1826C117.81 43.5541 118.116 43.8885 118.511 43.8885H122.349C122.693 43.8885 122.986 43.6284 123.012 43.2817L123.254 39.8385C123.267 39.6775 123.394 39.5537 123.56 39.5537H126.161C126.326 39.5537 126.454 39.6775 126.467 39.8385L126.709 43.2817C126.734 43.6161 127.028 43.8885 127.372 43.8885H131.21C131.605 43.8885 131.911 43.5665 131.873 43.1826L129.527 17.706ZM123.955 35.2807C123.777 35.2807 123.636 35.1321 123.649 34.9587L124.605 22.4495C124.618 22.3505 124.695 22.2885 124.784 22.2885H124.911C125.013 22.2885 125.09 22.3628 125.09 22.4495L126.046 34.9587C126.059 35.1321 125.919 35.2807 125.74 35.2807H123.955Z" fill="#0041FF"/>
<path d="M40.2932 32.8408V38.3771C40.2932 38.5381 40.4335 38.6743 40.5992 38.6743H44.9595C45.3293 38.6743 45.6225 38.9592 45.6225 39.3183V43.2321C45.6225 43.5913 45.3293 43.8761 44.9595 43.8761H35.7544C35.3847 43.8761 35.0915 43.5913 35.0915 43.2321V17.7679C35.0915 17.4087 35.3847 17.1239 35.7544 17.1239H44.9595C45.3293 17.1239 45.6225 17.4087 45.6225 17.7679V21.6569C45.6225 22.0161 45.3293 22.3009 44.9595 22.3009H40.5992C40.4335 22.3009 40.2932 22.4372 40.2932 22.5982V27.9362C40.2932 28.0972 40.4335 28.2335 40.5992 28.2335H44.0798C44.4496 28.2335 44.7428 28.5183 44.7428 28.8775V31.8995C44.7428 32.2587 44.4496 32.5436 44.0798 32.5436H40.5992C40.4335 32.5436 40.2932 32.6798 40.2932 32.8408Z" fill="#0041FF"/>
<path d="M94.4529 17.1239H83.0676C82.6979 17.1239 82.4046 17.4087 82.4046 17.7679V21.6569C82.4046 22.0161 82.6979 22.3009 83.0676 22.3009H85.8597C86.0255 22.3009 86.1657 22.4372 86.1657 22.5982V43.2445C86.1657 43.6037 86.459 43.8885 86.8287 43.8885H90.6918C91.0615 43.8885 91.3548 43.6037 91.3548 43.2445V22.5858C91.3548 22.4248 91.495 22.2885 91.6607 22.2885H94.4529C94.8226 22.2885 95.1158 22.0037 95.1158 21.6445V17.7679C95.1158 17.4087 94.8226 17.1239 94.4529 17.1239Z" fill="#0041FF"/>
<path d="M60.4756 38.6743H56.536C56.3703 38.6743 56.23 38.5381 56.23 38.3771V17.7679C56.23 17.4087 55.9368 17.1239 55.5671 17.1239H51.704C51.3343 17.1239 51.041 17.4087 51.041 17.7679V43.2445C51.041 43.6037 51.3343 43.8885 51.704 43.8885H60.4756C60.8453 43.8885 61.1386 43.6037 61.1386 43.2445V39.3307C61.1386 38.9716 60.8453 38.6743 60.4756 38.6743Z" fill="#0041FF"/>
<path d="M110.288 31.2431V31.0821C110.288 31.0078 110.339 30.9459 110.402 30.9211C111.792 30.4009 112.774 29.0881 112.774 27.5647V21.9913C112.787 19.3037 110.543 17.1239 107.776 17.1239H100.764C100.394 17.1239 100.101 17.4087 100.101 17.7679V43.2445C100.101 43.6037 100.394 43.8885 100.764 43.8885H104.627C104.997 43.8885 105.29 43.6037 105.29 43.2445V33.9679C105.29 33.8069 105.43 33.6706 105.596 33.6706H106.501C107.113 33.6706 107.61 34.1537 107.61 34.7482V43.2569C107.61 43.6161 107.904 43.9009 108.273 43.9009H112.136C112.506 43.9009 112.799 43.6161 112.799 43.2569V34.7853C112.799 33.2495 111.818 31.9491 110.428 31.4289C110.339 31.3794 110.288 31.3174 110.288 31.2431ZM107.598 28.2706C107.598 28.8651 107.1 29.3482 106.488 29.3482H105.583C105.417 29.3482 105.277 29.2119 105.277 29.0509V22.5858C105.277 22.4248 105.417 22.2885 105.583 22.2885H106.488C107.1 22.2885 107.598 22.7716 107.598 23.3661V28.2706Z" fill="#0041FF"/>
<path d="M29.8259 21.9913C29.8259 19.3037 27.582 17.1239 24.8027 17.1239H17.7905C17.4207 17.1239 17.1275 17.4087 17.1275 17.7679V43.2445C17.1275 43.6037 17.4207 43.8885 17.7905 43.8885H26.3071C28.245 43.8885 29.8132 42.3651 29.8132 40.4826V34.005C29.8132 32.4693 28.8315 31.1688 27.4418 30.6486C27.3653 30.6239 27.327 30.5619 27.327 30.4876V30.3266C27.327 30.2523 27.378 30.1904 27.4418 30.1656C28.8315 29.6454 29.8132 28.3326 29.8132 26.8092L29.8259 21.9913ZM24.6369 37.6092C24.6369 38.2037 24.1397 38.6867 23.5277 38.6867H22.6225C22.4568 38.6867 22.3165 38.5505 22.3165 38.3894V32.8532C22.3165 32.6922 22.4568 32.556 22.6225 32.556H23.5277C24.1397 32.556 24.6369 33.039 24.6369 33.6335V37.6092ZM24.6369 27.156C24.6369 27.7505 24.1397 28.2335 23.5277 28.2335H22.6225C22.4568 28.2335 22.3165 28.0972 22.3165 27.9362V22.5858C22.3165 22.4248 22.4568 22.2885 22.6225 22.2885H23.5277C24.1397 22.2885 24.6369 22.7716 24.6369 23.3661V27.156Z" fill="#0041FF"/>
</g>
<defs>
<clipPath id="clip0_1_2">
<rect width="115" height="27" fill="white" transform="translate(17 17)"/>
</clipPath>
</defs>
</svg>
