<?xml version="1.0" encoding="iso-8859-1"?>
<!-- Uploaded to: SVG Repo, www.svgrepo.com, Generator: SVG Repo Mixer Tools -->
<!DOCTYPE svg PUBLIC "-//W3C//DTD SVG 1.1//EN" "http://www.w3.org/Graphics/SVG/1.1/DTD/svg11.dtd">
<svg fill="transparent" version="1.1" id="Capa_1" xmlns="http://www.w3.org/2000/svg" xmlns:xlink="http://www.w3.org/1999/xlink" 
	 width="800px" height="800px" viewBox="0 0 47.215 47.215"
	 xml:space="preserve">
<g>
	<g>
		<path d="M40.646,31.755c0.664-1.295,1.181-2.676,1.529-4.123c0.088-0.364,0.162-0.735,0.229-1.108
			c0.188-1.064,0.293-2.156,0.293-3.273c0-0.064-0.004-0.127-0.006-0.191c-0.004-0.549-0.031-1.092-0.084-1.627
			c-0.172-1.785-0.602-3.494-1.24-5.098h0.019l-0.057-0.316l-0.103-0.041c-0.854-2.012-2.049-3.844-3.512-5.424
			c-0.096-0.105-0.193-0.205-0.291-0.307c-0.277-0.287-0.561-0.566-0.855-0.836c-3.326-3.029-7.746-4.879-12.59-4.879
			c-4.887,0-9.338,1.883-12.675,4.959c-0.777,0.715-1.492,1.498-2.14,2.336C6.718,14.99,5.257,18.953,5.257,23.25
			c0,10.322,8.398,18.721,18.721,18.721C31.24,41.97,37.544,37.812,40.646,31.755z M40.695,19.3
			c0.021,0.098,0.047,0.195,0.068,0.293l-0.121-0.229L40.695,19.3z M39.17,15.576l0.107-0.123c0.143,0.277,0.276,0.559,0.402,0.842
			l-0.179-0.006l-0.332,0.045L39.17,15.576L39.17,15.576z M36.465,12.308l0.002-0.836c0.295,0.312,0.578,0.633,0.85,0.965
			l-0.336,0.502l-1.18-0.01l-0.074-0.246L36.465,12.308z M13.883,10.232v-0.033h0.375l0.032-0.129h0.614v0.268l-0.176,0.236h-0.846
			L13.883,10.232L13.883,10.232z M14.483,11.066c0,0,0.375-0.063,0.408-0.063c0.031,0,0,0.373,0,0.373l-0.847,0.053l-0.161-0.191
			L14.483,11.066z M23.979,40.432c-9.474,0-17.181-7.707-17.181-17.183c0-2.385,0.489-4.656,1.372-6.723v-0.535l0.613-0.746
			c0.214-0.404,0.442-0.795,0.686-1.178l0.028,0.311l-0.714,0.867L8.17,16.526v0.979l0.713,0.342v1.36l0.686,1.168l0.557,0.086
			l0.071-0.4l-0.656-1.014l-0.128-0.984h0.385l0.162,1.014l0.951,1.385l-0.247,0.447l0.604,0.922l1.499,0.373v-0.242l0.6,0.084
			l-0.057,0.428l0.472,0.088l0.726,0.195l1.027,1.173l1.313,0.1l0.129,1.07l-0.899,0.629l-0.042,0.957l-0.128,0.584l1.299,1.629
			l0.1,0.557c0,0,0.473,0.127,0.529,0.127s1.056,0.758,1.056,0.758v2.941l0.356,0.1l-0.242,1.355l0.6,0.801l-0.11,1.344l0.792,1.395
			l1.017,0.89l1.023,0.021l0.101-0.328l-0.752-0.633l0.043-0.314l0.136-0.385l0.028-0.394l-0.508-0.015l-0.256-0.321l0.421-0.407
			l0.058-0.308l-0.471-0.136l0.026-0.285l0.673-0.102l1.021-0.49l0.343-0.629l1.071-1.371l-0.244-1.069l0.328-0.572l0.986,0.031
			l0.662-0.524l0.215-2.068l0.734-0.934l0.129-0.601l-0.67-0.216l-0.443-0.729l-1.514-0.016l-1.2-0.457l-0.056-0.854l-0.4-0.701
			l-1.085-0.016l-0.628-0.983l-0.558-0.274l-0.027,0.299l-1.014,0.061l-0.371-0.518l-1.057-0.213l-0.871,1.007l-1.371-0.233
			l-0.1-1.545l-1-0.17l0.401-0.758l-0.115-0.436l-1.314,0.879l-0.826-0.102l-0.295-0.646l0.18-0.666l0.457-0.84l1.049-0.531h2.026
			l-0.006,0.617l0.729,0.34l-0.058-1.057l0.524-0.527l1.06-0.697l0.072-0.49l1.057-1.098l1.123-0.621l-0.099-0.082l0.761-0.717
			l0.278,0.074l0.127,0.16l0.289-0.32l0.071-0.031l-0.316-0.045l-0.321-0.105v-0.312l0.171-0.139h0.375l0.172,0.076L22.427,14
			l0.183-0.027v-0.027l0.053,0.02l0.526-0.082l0.074-0.258l0.3,0.076v0.277l-0.279,0.193h0.002l0.041,0.305l0.952,0.295
			c0,0,0.002,0.004,0.004,0.012l0.22-0.02l0.015-0.412l-0.756-0.346l-0.043-0.197l0.628-0.215l0.027-0.6l-0.656-0.4l-0.043-1.014
			l-0.9,0.443h-0.327l0.085-0.771l-1.225-0.29l-0.507,0.383v1.168l-0.91,0.287l-0.365,0.76l-0.396,0.064v-0.973l-0.856-0.119
			l-0.428-0.279l-0.172-0.629l1.531-0.896l0.749-0.229l0.075,0.504l0.418-0.023l0.031-0.252l0.438-0.064l0.008-0.088L20.736,10.5
			l-0.043-0.268l0.536-0.047l0.325-0.336l0.018-0.025l0.004,0.002l0.099-0.102l1.128-0.143l0.499,0.424l-1.309,0.697l1.665,0.393
			l0.216-0.557h0.728l0.258-0.486l-0.516-0.129V9.31l-1.612-0.713l-1.113,0.127l-0.629,0.33l0.043,0.797l-0.656-0.098L20.275,9.31
			l0.629-0.57l-1.142-0.059l-0.328,0.1l-0.143,0.387l0.428,0.072l-0.086,0.428l-0.728,0.043l-0.114,0.285l-1.056,0.027
			c0,0-0.029-0.598-0.071-0.598c-0.043,0,0.827-0.016,0.827-0.016l0.628-0.613l-0.343-0.172L18.32,9.067l-0.758-0.043l-0.457-0.629
			h-0.97l-1.014,0.756h0.928l0.086,0.273l-0.243,0.227L16.92,9.68l0.157,0.371l-1.157-0.043l-0.057-0.285l-0.728-0.156l-0.386-0.215
			L13.883,9.36c2.836-2.066,6.323-3.291,10.094-3.291c4.343,0,8.312,1.625,11.341,4.293l-0.203,0.365l-0.793,0.309l-0.334,0.363
			l0.076,0.424l0.41,0.055l0.246,0.617l0.705-0.283l0.117,0.824h-0.215l-0.58-0.086l-0.641,0.107l-0.621,0.877l-0.89,0.141
			l-0.128,0.76l0.375,0.088l-0.107,0.49l-0.883-0.178l-0.811,0.178l-0.17,0.449l0.139,0.945l0.477,0.223l0.798-0.006l0.536-0.049
			l0.164-0.428l0.843-1.094l0.553,0.113l0.545-0.492l0.103,0.387l1.344,0.904l-0.165,0.219l-0.604-0.031l0.231,0.33l0.373,0.082
			l0.437-0.184l-0.009-0.523l0.193-0.098l-0.156-0.164l-0.896-0.5l-0.233-0.662h0.742l0.237,0.234l0.642,0.553l0.026,0.668
			l0.664,0.707l0.248-0.969l0.459-0.252l0.086,0.793l0.449,0.492l0.895-0.016c0.175,0.447,0.33,0.9,0.466,1.363l-0.097,0.088H38.99
			l-0.834-0.623l-0.879,0.086v0.537h-0.278l-0.3-0.215l-1.521-0.385v-0.986l-1.926,0.15l-0.601,0.322h-0.766l-0.377-0.039
			l-0.93,0.516v0.973L28.682,20.2l0.158,0.586h0.385l-0.102,0.557l-0.271,0.1L28.837,22.9l1.642,1.87h0.715l0.043-0.113h1.285
			l0.371-0.344h0.729l0.4,0.399l1.084,0.112l-0.144,1.441l1.205,2.129l-0.636,1.213l0.043,0.572l0.5,0.496v1.375l0.656,0.885v1.141
			h0.566C34.15,37.953,29.35,40.432,23.979,40.432z M15.468,13.037l0.45-0.215l0.407,0.096l-0.14,0.547l-0.439,0.141L15.468,13.037z
			 M17.855,14.322v0.354h-1.027l-0.385-0.107l0.097-0.246l0.493-0.205h0.674v0.205L17.855,14.322L17.855,14.322z M18.328,14.814
			v0.342l-0.258,0.166l-0.32,0.061c0,0,0-0.516,0-0.568L18.328,14.814L18.328,14.814z M18.038,14.675v-0.408l0.354,0.322
			L18.038,14.675z M18.199,15.498v0.334l-0.246,0.246h-0.546l0.085-0.375l0.258-0.021l0.054-0.129L18.199,15.498z M16.839,14.814
			h0.567l-0.728,1.018l-0.301-0.162l0.064-0.428L16.839,14.814z M19.163,15.382v0.332h-0.547l-0.148-0.217v-0.309h0.043
			L19.163,15.382z M18.66,14.923l0.155-0.162l0.263,0.162l-0.21,0.174L18.66,14.923z"/>
		<polygon points="32.542,12.859 32.576,13.136 32.161,13.222 32.104,13.814 32.604,13.814 33.268,13.75 33.609,13.343 
			33.247,13.201 33.047,12.972 32.747,12.488 32.604,11.8 32.04,11.916 31.881,12.158 31.881,12.429 32.154,12.615 		"/>
		<polygon points="32.061,13.086 32.09,12.716 31.76,12.572 31.297,12.679 30.956,13.228 30.956,13.586 31.355,13.586 		"/>
		<path d="M22.551,14.662l-0.102,0.262h-0.491v0.254h0.117c0,0,0.007,0.055,0.017,0.125l0.303-0.025l0.188-0.115l0.05-0.238
			l0.244-0.021l0.096-0.199l-0.224-0.045L22.551,14.662z"/>
		<polygon points="21.283,15.123 21.263,15.371 21.621,15.341 21.658,15.093 21.444,14.923 		"/>
		<path d="M39.279,6.31c0.134,0,0.265-0.01,0.394-0.027h4.185V6.257c0.992-0.121,1.748-0.723,1.748-1.453
			c0-0.818-0.944-1.479-2.109-1.479c0,0-0.002,0-0.004,0c-0.021-0.803-0.953-1.451-2.104-1.451c-1.163,0-2.106,0.662-2.106,1.479
			c-1.166,0-2.109,0.662-2.109,1.479S38.113,6.31,39.279,6.31z M41.385,4.832c0.002,0,0.002,0,0.006,0c0,0.002,0,0.006,0,0.008
			h-0.008C41.383,4.837,41.385,4.836,41.385,4.832z"/>
		<path d="M44.176,40.039c0,0-0.002,0-0.004,0c-0.02-0.723-0.857-1.307-1.895-1.307c-1.049,0-1.896,0.596-1.896,1.332
			c-1.049,0-1.898,0.596-1.898,1.332c0,0.733,0.851,1.33,1.898,1.33c0.119,0,0.238-0.011,0.354-0.023h3.769v-0.026
			c0.894-0.106,1.571-0.649,1.571-1.307C46.074,40.634,45.225,40.039,44.176,40.039z M42.277,41.402
			c0-0.002,0.002-0.004,0.002-0.006c0.002,0,0.002,0,0.002,0c0,0.002,0.002,0.004,0.002,0.006H42.277z"/>
		<path d="M10.193,41.781c0,0-0.003,0-0.007,0c-0.033-1.295-1.537-2.34-3.39-2.34c-1.876,0-3.396,1.065-3.396,2.383
			c-1.878,0-3.4,1.066-3.4,2.385c0,1.316,1.522,2.383,3.4,2.383c0.215,0,0.427-0.018,0.633-0.043h6.743v-0.045
			c1.599-0.191,2.815-1.164,2.815-2.338C13.591,42.845,12.071,41.781,10.193,41.781z M6.793,44.22c0-0.004,0.004-0.006,0.004-0.012
			c0.003,0,0.003,0,0.006,0c0,0.004,0.001,0.008,0.001,0.012H6.793z"/>
		<path d="M12.403,3.127c0.075,0,0.149-0.006,0.222-0.016h2.361V3.095c0.56-0.068,0.985-0.408,0.985-0.818
			c0-0.463-0.532-0.836-1.189-0.836c0,0-0.002,0-0.003,0c-0.012-0.453-0.538-0.818-1.187-0.818c-0.657,0-1.189,0.373-1.189,0.834
			c-0.657,0-1.19,0.373-1.19,0.836C11.212,2.753,11.746,3.127,12.403,3.127z M13.592,2.293c0.001,0,0.001,0,0.002,0
			c0,0,0,0.002,0,0.004H13.59C13.59,2.295,13.592,2.295,13.592,2.293z"/>
		<path d="M41.314,34.449c0,0.461,0.533,0.834,1.189,0.834c0.076,0,0.148-0.006,0.223-0.016h2.361v-0.017
			c0.561-0.067,0.984-0.408,0.984-0.817c0-0.464-0.531-0.836-1.189-0.836h-0.002c-0.012-0.453-0.539-0.818-1.188-0.818
			c-0.656,0-1.189,0.373-1.189,0.834C41.848,33.613,41.314,33.986,41.314,34.449z M43.695,34.449c0,0,0,0,0.002,0
			c0,0,0,0.002,0,0.004h-0.004C43.693,34.451,43.695,34.451,43.695,34.449z"/>
		<path d="M46.027,13.634c0,0-0.002,0-0.004,0c-0.012-0.453-0.537-0.818-1.188-0.818c-0.656,0-1.188,0.373-1.188,0.834
			c-0.658,0-1.19,0.373-1.19,0.836c0,0.461,0.532,0.834,1.19,0.834c0.074,0,0.148-0.006,0.222-0.016h2.36v-0.016
			c0.562-0.068,0.984-0.408,0.984-0.818C47.215,14.007,46.684,13.634,46.027,13.634z M44.838,14.49h-0.004
			c0-0.002,0.002-0.002,0.002-0.004h0.002C44.838,14.486,44.838,14.488,44.838,14.49z"/>
		<path d="M36.917,44.509h-0.002c-0.013-0.452-0.539-0.817-1.188-0.817c-0.656,0-1.188,0.373-1.188,0.834
			c-0.656,0-1.188,0.373-1.188,0.836c0,0.461,0.532,0.834,1.188,0.834c0.075,0,0.149-0.006,0.223-0.016h2.361v-0.017
			c0.56-0.068,0.983-0.408,0.983-0.818C38.105,44.882,37.574,44.509,36.917,44.509z M35.729,45.365h-0.004
			c0-0.002,0.002-0.002,0.002-0.004h0.002C35.729,45.361,35.729,45.363,35.729,45.365z"/>
		<path d="M4.069,33.613c-0.657,0-1.19,0.373-1.19,0.836c0,0.461,0.533,0.834,1.19,0.834c0.075,0,0.149-0.006,0.222-0.016h2.361
			v-0.017c0.56-0.067,0.985-0.408,0.985-0.817c0-0.464-0.532-0.836-1.189-0.836c0,0-0.002,0-0.003,0
			c-0.012-0.453-0.538-0.818-1.187-0.818C4.601,32.779,4.069,33.152,4.069,33.613z M5.258,34.449c0.001,0,0.001,0,0.002,0
			c0,0,0,0.002,0,0.004H5.256C5.256,34.451,5.258,34.451,5.258,34.449z"/>
		<path d="M6.429,12.242c0.47-0.057,0.827-0.342,0.827-0.688c0-0.389-0.447-0.701-0.999-0.701H6.255
			c-0.01-0.381-0.452-0.688-0.997-0.688c-0.552,0-0.998,0.314-0.998,0.701c-0.552,0-1,0.313-1,0.701c0,0.387,0.448,0.699,1,0.699
			c0.063,0,0.125-0.004,0.186-0.012h1.983V12.242z M5.26,11.57H5.257c0,0,0.001,0,0.001-0.002c0.001,0,0.001,0,0.002,0V11.57z"/>
		<path d="M19.038,43.328h-0.002c-0.01-0.381-0.452-0.688-0.997-0.688c-0.552,0-0.998,0.312-0.998,0.699c-0.552,0-1,0.314-1,0.701
			s0.448,0.701,1,0.701c0.063,0,0.125-0.006,0.186-0.014h1.983v-0.015c0.47-0.058,0.827-0.342,0.827-0.687
			C20.037,43.641,19.589,43.328,19.038,43.328z M18.041,44.045h-0.003c0-0.002,0.001-0.002,0.001-0.004c0.001,0,0.001,0,0.002,0
			C18.041,44.043,18.041,44.043,18.041,44.045z"/>
		<path d="M41.458,8.886c-0.011-0.381-0.453-0.688-0.998-0.688c-0.552,0-0.998,0.314-0.998,0.701c-0.552,0-1,0.313-1,0.701
			c0,0.387,0.448,0.699,1,0.699c0.063,0,0.125-0.004,0.187-0.012h1.983v-0.014c0.47-0.057,0.826-0.342,0.826-0.688
			c0-0.389-0.447-0.701-0.998-0.701h-0.002V8.886z M40.46,9.603c0,0,0,0,0-0.002c0.002,0,0.002,0,0.002,0v0.002H40.46z"/>
		<path d="M3.112,7.691c0.136,0,0.27-0.012,0.399-0.029h4.263V7.635c1.011-0.123,1.779-0.736,1.779-1.479
			c0-0.834-0.961-1.506-2.147-1.506c0,0-0.003,0-0.005,0C7.38,3.832,6.429,3.17,5.258,3.17c-1.186,0-2.146,0.676-2.146,1.508
			c-1.187,0-2.149,0.674-2.149,1.508C0.962,7.017,1.925,7.691,3.112,7.691z M5.258,6.185c0.002,0,0.002,0,0.004,0
			c0,0.002,0,0.004,0,0.006H5.255C5.255,6.189,5.258,6.189,5.258,6.185z"/>
	</g>
</g>
</svg>