<svg width="150" height="60" viewBox="0 0 150 60" fill="none" xmlns="http://www.w3.org/2000/svg">
<path d="M42.9421 8.91616L35.0758 28.3176H29.9245L26.0263 12.7965C25.8174 11.8623 25.6086 11.503 24.9125 11.1437C23.7291 10.497 21.7799 9.85031 20.1093 9.49102L20.2485 8.91616H28.4627C29.5069 8.91616 30.4814 9.63473 30.6903 10.9282L32.709 22.138L37.7907 8.91616H42.9421ZM63.0599 21.9941C63.0599 16.8924 56.1683 16.6049 56.2378 14.3055C56.2378 13.5869 56.8643 12.8683 58.3262 12.6527C59.0224 12.5809 60.9716 12.509 63.1295 13.515L63.9649 9.41916C62.7813 8.98802 61.3195 8.55687 59.4399 8.55687C54.6368 8.55687 51.2258 11.2156 51.2258 14.9522C51.2258 17.7546 53.6622 19.3355 55.4722 20.1978C57.3516 21.1318 57.9783 21.7786 57.9783 22.6409C57.9783 23.9343 56.4468 24.5094 55.0545 24.5094C52.6181 24.5811 51.2258 23.8624 50.0425 23.2876L49.1375 27.5272C50.2512 28.102 52.3395 28.5332 54.5672 28.5332C59.7184 28.6051 63.0599 26.0182 63.0599 21.9941ZM75.7292 28.3176H80.254L76.3557 8.91616H72.179C71.274 8.91616 70.4386 9.49102 70.0907 10.3533L62.7813 28.3176H67.863L68.9071 25.4434H75.1723L75.7292 28.3176ZM70.369 21.4193L72.9446 14.1618L74.4065 21.4193H70.369ZM49.9031 8.91616L45.8656 28.3176H40.9928L45.0304 8.91616H49.9031Z" fill="white"/>
<path d="M116.787 9.86892H107.092V27.6118H116.811V9.86892H116.787Z" fill="#FF5F00"/>
<path d="M107.701 18.7403C107.701 17.0296 108.091 15.3433 108.822 13.8036C109.552 12.264 110.624 10.9198 111.939 9.86892C110.307 8.5492 108.335 7.74271 106.264 7.52276C104.194 7.3028 102.099 7.66939 100.224 8.59808C98.348 9.52677 96.7648 10.9687 95.6687 12.7527C94.5726 14.5612 93.9881 16.6141 93.9881 18.7403C93.9881 20.8665 94.5726 22.9439 95.6687 24.7279C96.7648 26.512 98.348 27.9539 100.224 28.8826C102.099 29.8113 104.194 30.1779 106.264 29.9579C108.335 29.738 110.307 28.907 111.939 27.6118C110.624 26.5609 109.552 25.2167 108.822 23.6771C108.067 22.1374 107.701 20.4511 107.701 18.7403Z" fill="#EB001B"/>
<path d="M129.891 18.7403C129.891 20.8665 129.306 22.9194 128.21 24.7279C127.114 26.512 125.531 27.9539 123.655 28.8826C121.78 29.8113 119.685 30.1779 117.615 29.9579C115.544 29.738 113.571 28.907 111.939 27.6118C113.255 26.5609 114.326 25.2167 115.057 23.6771C115.788 22.1374 116.178 20.4511 116.178 18.7403C116.178 17.0296 115.788 15.3433 115.057 13.8036C114.326 12.264 113.255 10.9198 111.939 9.86892C113.571 8.5492 115.544 7.74271 117.615 7.52276C119.685 7.3028 121.78 7.66939 123.655 8.59808C125.531 9.52677 127.114 10.9687 128.21 12.7527C129.306 14.5368 129.891 16.6141 129.891 18.7403Z" fill="#F79E1B"/>
<path d="M42.7095 34.1968H49.0148C49.588 34.1968 51.3076 34.0057 52.0718 36.6807C52.645 38.4003 53.4093 41.0752 54.5557 45.0876H54.9379C56.0843 40.8842 57.0396 38.0181 57.4217 36.6807C58.186 34.0057 60.0967 34.1968 60.8609 34.1968H66.784V52.5393H60.6699V41.6484H60.2877L57.0396 52.5393H52.454L49.2058 41.6484H48.6326V52.5393H42.7095M69.2679 34.1968H75.3821V45.0876H75.9553L79.9677 36.1075C80.732 34.3879 82.4516 34.1968 82.4516 34.1968H88.1836V52.5393H82.0694V41.6484H81.6873L77.6749 50.6286C76.9106 52.3482 74.9999 52.5393 74.9999 52.5393H69.2679M96.3995 46.9983V52.5393H90.6675V42.9859H109.392C108.628 45.2787 105.953 46.9983 102.896 46.9983" fill="#0F754E"/>
<path d="M109.774 41.8395C110.538 38.4003 108.246 34.1968 103.278 34.1968H90.2853C90.6674 38.2092 94.1066 41.8395 97.7369 41.8395" fill="url(#paint0_linear_11_4111)"/>
<defs>
<linearGradient id="paint0_linear_11_4111" x1="107.481" y1="31.7129" x2="92.196" y2="31.7129" gradientUnits="userSpaceOnUse">
<stop stop-color="#1F5CD7"/>
<stop offset="1" stop-color="#02AEFF"/>
</linearGradient>
</defs>
</svg>
