<svg width="150" height="60" viewBox="0 0 150 60" fill="none" xmlns="http://www.w3.org/2000/svg">
<path d="M42.0689 40.7327C41.5254 40.7327 41.0975 40.9409 40.7968 41.3457C40.4961 41.7504 40.3457 42.3287 40.3457 43.0688C40.3457 44.5954 40.924 45.3703 42.0689 45.3703C42.5546 45.3703 43.1329 45.2546 43.8152 45.0118V46.2261C43.2485 46.4574 42.624 46.573 41.9301 46.573C40.9355 46.573 40.1723 46.2723 39.6403 45.671C39.1083 45.0696 38.8423 44.1906 38.8423 43.0573C38.8423 42.3403 38.9695 41.7157 39.2355 41.1838C39.5015 40.6518 39.8716 40.2354 40.3573 39.9463C40.843 39.6572 41.4097 39.5184 42.0689 39.5184C42.7397 39.5184 43.4104 39.6803 44.0812 40.0041L43.607 41.1838C43.3526 41.0565 43.0866 40.9525 42.8322 40.8599C42.5778 40.779 42.3233 40.7327 42.0689 40.7327Z" fill="white"/>
<path d="M63.568 39.6225H62.1108V46.4805H63.568V39.6225Z" fill="white"/>
<path d="M84.7666 46.4805H83.3095V40.8253H81.4475V39.6225H86.6286V40.8253H84.7666V46.4805Z" fill="white"/>
<path d="M106.648 42.4444L108.082 39.6225H109.643L107.365 43.809V46.4805H105.919V43.8553L103.641 39.6225H105.225L106.648 42.4444Z" fill="white"/>
<path d="M109.978 21.3846C109.446 21.3846 108.914 21.3846 108.371 21.3846C108.081 21.3846 108.047 21.3846 108.012 21.0839C107.943 20.4478 107.792 19.8349 107.526 19.2451C106.89 17.8688 105.803 17.1171 104.323 16.9552C103.49 16.8627 102.669 16.9089 101.86 17.1749C100.703 17.5566 99.905 18.3199 99.4077 19.4185C99.1764 19.939 99.0492 20.4825 98.9683 21.0492C98.9567 21.107 98.9567 21.1648 98.9567 21.2227C98.9451 21.3268 98.8989 21.3846 98.7948 21.3846C98.7254 21.3846 98.6444 21.3846 98.5751 21.3846C97.5342 21.3846 96.4934 21.3846 95.4525 21.3846C95.3831 21.3846 95.3022 21.3846 95.2328 21.3846C95.1287 21.3846 95.0709 21.3268 95.0593 21.2227C95.0246 21.0145 95.0015 20.8063 94.9552 20.6097C94.7933 19.9043 94.5389 19.2451 94.1341 18.6553C93.3824 17.5681 92.3416 17.0015 91.0232 16.9321C90.4565 16.8974 89.9014 16.9205 89.3462 17.0593C87.9238 17.4062 86.9639 18.2736 86.4087 19.6036C86.2121 20.0662 86.0849 20.5635 86.0271 21.0608C85.9924 21.3846 85.9924 21.3846 85.6455 21.3846C84.6624 21.3846 83.691 21.3846 82.708 21.3846C82.5923 21.3846 82.4651 21.3846 82.3495 21.3846C82.1528 21.373 82.1182 21.3383 82.1413 21.1417C82.1644 20.922 82.1875 20.7022 82.2338 20.4825C82.4882 19.0485 82.9624 17.6954 83.7719 16.481C84.9631 14.6769 86.64 13.6014 88.7564 13.1966C89.4156 13.0694 90.0748 13.0116 90.7456 13.0231C92.3878 13.0347 93.8566 13.5667 95.1403 14.596C95.7301 15.0701 96.2505 15.6252 96.7131 16.2266C96.7941 16.3307 96.875 16.4348 96.956 16.5389C97.0138 16.6083 97.0832 16.6198 97.141 16.5504C97.2335 16.4348 97.326 16.3191 97.4186 16.2035C97.9043 15.6021 98.4478 15.0586 99.0608 14.5844C100.356 13.5782 101.836 13.0694 103.479 13.0347C104.508 13.0116 105.526 13.1388 106.509 13.4626C108.151 14.0061 109.411 15.047 110.348 16.4926C111.1 17.6607 111.551 18.9328 111.794 20.2975C111.84 20.5635 111.875 20.8295 111.909 21.0839C111.944 21.3961 111.944 21.3961 111.609 21.3961C111.296 21.3961 110.984 21.3961 110.672 21.3961H109.978V21.3846Z" fill="white"/>
<path d="M33.7306 22.4369C34.2973 22.4369 34.864 22.4369 35.4191 22.4369C35.6273 22.4369 35.6619 22.4716 35.6619 22.6682C35.6619 22.9805 35.6504 23.2927 35.6619 23.605C35.6851 24.3105 35.7892 24.9581 36.0552 25.5942C36.5178 26.7391 37.2579 27.6643 38.3566 28.2772C39.0273 28.6473 39.7559 28.867 40.5077 28.9364C41.4097 29.029 42.3118 29.0058 43.2023 28.7861C45.2955 28.2772 46.6139 26.9588 47.25 24.935C47.3772 24.5186 47.4119 24.1601 47.4351 23.6628C47.4235 23.3274 47.4351 22.9805 47.4351 22.6335C47.4351 22.4832 47.4698 22.4369 47.6085 22.4369C48.7766 22.4369 49.9562 22.4369 51.1243 22.4369C51.2631 22.4369 51.2977 22.4832 51.2977 22.6335C51.3324 23.7785 51.2977 24.9118 50.9971 26.0336C50.6501 27.2942 50.1297 28.4623 49.3317 29.5031C48.2793 30.8793 46.9031 31.793 45.2608 32.3365C44.1969 32.6835 43.0982 32.8454 41.9764 32.8685C40.8083 32.9032 39.6634 32.8107 38.5301 32.5331C35.6966 31.8161 33.7306 30.0929 32.5741 27.433C32.1578 26.4615 31.8687 25.4438 31.7761 24.3914C31.7183 23.8016 31.7646 23.2002 31.753 22.6104C31.753 22.5063 31.8108 22.4485 31.9149 22.4485C32.1809 22.4485 32.4469 22.4485 32.7129 22.4369C33.083 22.4369 33.4068 22.4369 33.7306 22.4369Z" fill="white"/>
<path d="M47.4928 21.3615C47.4118 21.2458 47.4003 21.1302 47.3772 21.0145C47.0071 19.2335 45.9778 18.0076 44.2778 17.3484C43.5954 17.0824 42.8784 16.9552 42.1498 16.9205C41.1783 16.8743 40.2185 16.9205 39.2817 17.1981C38.0558 17.5566 37.0497 18.2274 36.3673 19.326C36.0204 19.8927 35.8007 20.4941 35.685 21.1533C35.6503 21.373 35.6387 21.3846 35.4421 21.3846C34.2972 21.3846 33.1523 21.3846 32.0189 21.3846C31.8107 21.3846 31.7761 21.3383 31.7992 21.1533C31.8454 20.8757 31.8917 20.5982 31.9495 20.3206C32.2502 18.9675 32.7822 17.7185 33.6033 16.6083C34.7482 15.047 36.2748 14.0177 38.1252 13.4742C39.0273 13.2082 39.9525 13.081 40.8892 13.0347C42.1614 12.9769 43.4104 13.0694 44.6363 13.3932C46.2669 13.8096 47.6894 14.596 48.8459 15.845C49.8174 16.8858 50.465 18.1001 50.9045 19.4532C51.0432 19.8927 51.1589 20.3437 51.2283 20.7948C51.2514 20.922 51.263 21.0608 51.2745 21.188C51.2861 21.3615 51.2514 21.3961 51.0779 21.3961C50.6038 21.3961 50.1296 21.3961 49.6554 21.3961C49.0309 21.3961 48.4064 21.3961 47.7819 21.3961C47.6894 21.3846 47.5853 21.373 47.4928 21.3615Z" fill="white"/>
<path d="M16.175 13.1041C17.2389 13.1041 18.3145 13.1156 19.3785 13.1041C20.0955 13.0925 20.8009 13.1966 21.4833 13.3816C22.7438 13.7286 23.9119 14.249 24.9412 15.0585C26.4215 16.215 27.312 17.73 27.6589 19.5689C27.7399 19.9736 27.763 20.39 27.8093 20.8063C27.8209 20.9104 27.8209 21.0145 27.8209 21.1186C27.8209 21.3614 27.7977 21.3846 27.578 21.3846C27.5317 21.3846 27.4855 21.3846 27.4508 21.3846C26.4099 21.3846 25.3691 21.3846 24.3282 21.3846C24.2589 21.3846 24.1779 21.3846 24.1085 21.3846C24.0044 21.3846 23.935 21.3267 23.935 21.2227C23.935 20.922 23.9003 20.6328 23.8425 20.3437C23.7153 19.6729 23.4724 19.06 23.0677 18.5165C22.4432 17.6722 21.5758 17.2327 20.5696 17.0361C20.2227 16.9668 19.8642 16.9321 19.5057 16.9321C18.4186 16.9321 17.343 16.9321 16.2559 16.9321C16.1865 16.9321 16.1056 16.9321 16.0362 16.9436C15.9437 16.9552 15.909 17.013 15.909 17.094C15.909 17.2096 15.8974 17.3368 15.8974 17.4525C15.8974 18.6437 15.8974 19.8233 15.8974 21.0145C15.8974 21.4193 15.8974 21.4193 15.5158 21.4193C14.4749 21.4193 13.4341 21.4193 12.3932 21.4193C12.3007 21.4193 12.2198 21.4193 12.1272 21.4077C12.0694 21.3961 12.0232 21.3614 12.0116 21.292C12 21.188 12 21.0839 12 20.9798C12 18.5165 12 16.0531 12 13.5898C12 13.1041 11.9885 13.1388 12.4742 13.1388C13.7116 13.1041 14.9491 13.1041 16.175 13.1041Z" fill="white"/>
<path d="M61.7061 32.8801C59.8904 32.8801 58.0862 32.8801 56.2705 32.8801C56.1433 32.8801 56.0045 32.8801 55.8658 32.8801C55.7848 32.8801 55.727 32.8338 55.7154 32.7529C55.7039 32.6488 55.7039 32.5447 55.7039 32.4406C55.7039 29.2834 55.7039 26.1146 55.7039 22.9574C55.7039 22.4023 55.6576 22.4485 56.2012 22.4485C57.161 22.4485 58.1325 22.4485 59.0924 22.4485C59.1965 22.4485 59.3006 22.4485 59.4046 22.4601C59.4856 22.4601 59.5434 22.5064 59.5434 22.5873C59.555 22.7377 59.555 22.888 59.555 23.0383C59.555 24.854 59.555 26.6582 59.555 28.4739C59.555 29.0405 59.4972 29.0059 60.0754 29.0059C62.4693 29.0059 64.8517 29.0059 67.2457 29.0059C67.8008 29.0059 67.7545 28.9712 67.7545 29.5147C67.7545 30.4746 67.7545 31.4461 67.7545 32.4059C67.7545 32.5216 67.7545 32.6488 67.743 32.7645C67.7314 32.8454 67.6851 32.8917 67.6042 32.9032C67.4654 32.9032 67.3382 32.9032 67.1994 32.9032C65.3837 32.8801 63.5449 32.8801 61.7061 32.8801Z" fill="white"/>
<path d="M131.512 13.0116C133.49 13.0116 135.456 13.0116 137.433 13.0116C137.561 13.0116 137.699 13.0116 137.838 13.0231C137.919 13.0231 137.977 13.0694 137.989 13.1619C138 13.2544 138 13.3354 138 13.4279C138 14.4572 138 15.4749 138 16.5042C138 16.5967 138 16.6776 137.989 16.7702C137.977 16.8511 137.931 16.9089 137.85 16.9089C137.734 16.9089 137.607 16.9205 137.491 16.9205C136.3 16.9205 135.12 16.9205 133.929 16.9205C133.536 16.9205 133.536 16.9205 133.536 17.3137C133.536 18.4818 133.536 19.6614 133.536 20.8295C133.536 20.9451 133.536 21.0608 133.536 21.188C133.524 21.3614 133.501 21.3846 133.316 21.3846C132.576 21.3846 131.836 21.3846 131.084 21.3846C130.668 21.3846 130.252 21.3846 129.835 21.3846C129.731 21.3846 129.662 21.3383 129.662 21.2227C129.65 21.0955 129.65 20.9567 129.65 20.8179C129.65 19.7192 129.65 18.6206 129.65 17.5219C129.65 17.4178 129.65 17.3137 129.65 17.2096C129.639 16.9321 129.627 16.9089 129.338 16.9089C128.124 16.9089 126.898 16.9089 125.683 16.9089C124.943 16.9089 125.047 17.0015 125.047 16.2729C125.036 15.3477 125.047 14.4341 125.047 13.5089C125.047 13.3932 125.047 13.266 125.059 13.1503C125.07 13.0694 125.117 13.0116 125.198 13.0116C125.337 13.0116 125.464 13 125.602 13C127.557 13.0116 129.535 13.0116 131.512 13.0116Z" fill="white"/>
<path d="M116.686 27.6759C116.686 26.0568 116.686 24.4377 116.686 22.8187C116.686 22.437 116.651 22.4254 117.079 22.4254C118.12 22.4254 119.161 22.4254 120.19 22.4254C120.259 22.4254 120.34 22.4254 120.41 22.4254C120.514 22.437 120.56 22.4948 120.572 22.5989C120.572 22.6914 120.572 22.7724 120.572 22.8649C120.572 26.0684 120.572 29.2719 120.572 32.4754C120.572 32.4869 120.572 32.5101 120.572 32.5216C120.56 32.857 120.56 32.8686 120.225 32.8686C119.161 32.8686 118.085 32.8686 117.021 32.8686C116.975 32.8686 116.929 32.8686 116.883 32.8686C116.721 32.857 116.686 32.8339 116.686 32.6488C116.686 32.5332 116.686 32.406 116.686 32.2903C116.674 30.7638 116.674 29.2141 116.686 27.6759Z" fill="white"/>
<path d="M108.035 27.6412C108.035 26.0337 108.035 24.4377 108.035 22.8302C108.035 22.4139 108.001 22.4254 108.452 22.4254C109.458 22.4254 110.464 22.4254 111.482 22.4254C111.586 22.4254 111.69 22.4254 111.794 22.437C111.863 22.437 111.91 22.4832 111.91 22.5526C111.921 22.6799 111.921 22.8186 111.921 22.9574C111.921 25.4901 111.921 28.0344 111.921 30.5671C111.921 31.2032 111.921 31.8393 111.921 32.4754C111.921 32.5447 111.921 32.6257 111.921 32.6951C111.91 32.8339 111.875 32.8686 111.724 32.8686C111.667 32.8686 111.609 32.8686 111.551 32.8686C110.51 32.8686 109.469 32.8686 108.44 32.8686C108.348 32.8686 108.267 32.8686 108.174 32.857C108.105 32.857 108.058 32.8107 108.058 32.7414C108.047 32.6141 108.047 32.4754 108.047 32.3366C108.035 30.7869 108.035 29.214 108.035 27.6412Z" fill="white"/>
<path d="M98.9453 27.6759C98.9453 29.2603 98.9453 30.8562 98.9453 32.4406C98.9453 32.9032 98.9685 32.8916 98.5174 32.8916C97.4882 32.8916 96.4704 32.8916 95.4412 32.8916C95.3486 32.8916 95.2677 32.8916 95.1752 32.8801C95.1173 32.8685 95.0711 32.8338 95.0595 32.7644C95.048 32.6719 95.048 32.591 95.048 32.4984C95.048 29.295 95.048 26.0915 95.048 22.888C95.048 22.4369 95.0133 22.4369 95.4759 22.4369C96.4936 22.4369 97.5229 22.4369 98.5521 22.4369C98.6447 22.4369 98.7256 22.4369 98.8181 22.4485C98.8875 22.4485 98.9222 22.4948 98.9338 22.5642C98.9453 22.6914 98.9453 22.8301 98.9453 22.9689C98.9453 24.5302 98.9453 26.103 98.9453 27.6759Z" fill="white"/>
<path d="M72.8548 27.6759C72.8548 26.1146 72.8548 24.5649 72.8548 23.0036C72.8548 22.9342 72.8548 22.8533 72.8548 22.7839C72.8664 22.4485 72.8664 22.4369 73.2018 22.4369C74.2657 22.4369 75.3413 22.4369 76.4053 22.4369C76.4631 22.4369 76.5209 22.4369 76.5787 22.4485C76.6828 22.4601 76.7291 22.5179 76.7291 22.622C76.7291 22.6914 76.7291 22.7723 76.7291 22.8417C76.7291 26.0568 76.7291 29.2834 76.7291 32.4984C76.7291 32.5447 76.7291 32.591 76.7291 32.6257C76.7175 32.8454 76.6944 32.8801 76.4631 32.8801C75.3413 32.8801 74.2079 32.8801 73.0861 32.8801C73.0746 32.8801 73.0514 32.8801 73.0399 32.8801C72.878 32.8685 72.8433 32.8338 72.8433 32.6603C72.8433 32.5447 72.8433 32.4175 72.8433 32.3018C72.8548 30.7521 72.8548 29.214 72.8548 27.6759Z" fill="white"/>
<path d="M15.8743 32.6835C15.7818 32.7529 15.6777 32.7413 15.5736 32.7413C14.5097 32.7413 13.4341 32.7413 12.3701 32.7413C12.3123 32.7413 12.2545 32.7413 12.1967 32.7413C12.0926 32.7297 12.0348 32.6835 12.0232 32.5794C12.0232 32.4753 12.0232 32.3712 12.0232 32.2671C12.0232 29.1909 12.0232 26.1262 12.0232 23.0499C12.0232 22.9111 12.0232 22.7839 12.0232 22.6451C12.0348 22.4832 12.0695 22.4485 12.2429 22.4369C12.3123 22.4369 12.3933 22.4369 12.4627 22.4369C13.4572 22.4369 14.4518 22.4369 15.4464 22.4369C15.5505 22.4369 15.6546 22.4369 15.7587 22.4485C15.8396 22.4485 15.8974 22.4948 15.8974 22.5873C15.909 22.7029 15.909 22.8301 15.909 22.9458C15.909 26.0683 15.909 29.1793 15.909 32.3018C15.8974 32.4175 15.9206 32.5563 15.8743 32.6835Z" fill="white"/>
<path d="M27.8324 27.7337C27.8324 29.2603 27.8324 30.7869 27.8324 32.3135C27.8324 32.4175 27.8324 32.5216 27.8324 32.6257C27.8208 32.857 27.8092 32.8801 27.5664 32.8801C26.4446 32.8801 25.3112 32.8801 24.1894 32.8801C24.1431 32.8801 24.0969 32.8801 24.0622 32.8686C23.9928 32.857 23.9581 32.8107 23.9581 32.7529C23.9465 32.6488 23.9465 32.5448 23.9465 32.4407C23.9465 29.3066 23.9465 26.184 23.9465 23.0499C23.9465 23.0152 23.9465 22.9921 23.9465 22.9574C23.9581 22.5758 23.9581 22.5642 24.3397 22.5642C25.3806 22.5642 26.4214 22.5642 27.4507 22.5642C27.5085 22.5642 27.5664 22.5642 27.6242 22.5642C27.7861 22.5758 27.8208 22.6105 27.8208 22.7839C27.8324 22.9112 27.8208 23.0499 27.8208 23.1887C27.8324 24.7037 27.8324 26.2187 27.8324 27.7337Z" fill="white"/>
<path d="M82.1066 27.6643C82.1066 26.103 82.1066 24.5418 82.1066 22.9921C82.1066 22.8648 82.1066 22.7261 82.1181 22.5873C82.1181 22.5063 82.1644 22.4485 82.2569 22.4485C82.3263 22.4369 82.4073 22.4369 82.4767 22.4369C83.5175 22.4369 84.5583 22.4369 85.5992 22.4369C85.657 22.4369 85.7148 22.4369 85.7727 22.4369C85.923 22.4485 85.9577 22.4832 85.9693 22.622C85.9808 22.7261 85.9693 22.8302 85.9693 22.9342C85.9693 26.1146 85.9693 29.2834 85.9693 32.4637C85.9693 32.5563 85.9693 32.6372 85.9577 32.7297C85.9461 32.8107 85.9114 32.8685 85.8189 32.8685C85.7611 32.8685 85.7033 32.8801 85.6454 32.8801C84.5815 32.8801 83.5059 32.8801 82.442 32.8801C82.4188 32.8801 82.3841 32.8801 82.3494 32.8801C82.1413 32.8685 82.1181 32.8569 82.1066 32.6603C82.1066 32.5447 82.1066 32.4175 82.1066 32.3018C82.095 30.7521 82.095 29.214 82.1066 27.6643Z" fill="white"/>
<path d="M133.524 27.7106C133.524 29.2834 133.524 30.8562 133.524 32.429C133.524 32.9032 133.548 32.8801 133.097 32.8801C132.09 32.8801 131.073 32.8801 130.066 32.8801C129.974 32.8801 129.893 32.8801 129.8 32.8685C129.708 32.8685 129.662 32.8107 129.662 32.7297C129.65 32.6257 129.65 32.5216 129.65 32.4175C129.65 29.2718 129.65 26.1262 129.65 22.9805C129.65 22.3791 129.592 22.4485 130.205 22.4369C131.142 22.4369 132.079 22.4369 133.016 22.4369C133.131 22.4369 133.258 22.4369 133.374 22.4485C133.455 22.4485 133.501 22.5063 133.513 22.5873C133.524 22.7261 133.524 22.8533 133.524 22.9921C133.524 24.5649 133.524 26.1377 133.524 27.7106Z" fill="white"/>
<path d="M120.572 17.2097V20.8179C120.572 20.922 120.572 21.0261 120.572 21.1302C120.56 21.3499 120.537 21.3846 120.306 21.3846C119.172 21.3846 118.051 21.3846 116.917 21.3846C116.721 21.3846 116.686 21.3499 116.674 21.1533C116.674 21.0608 116.674 20.9798 116.674 20.8873C116.674 18.4356 116.674 15.9838 116.674 13.5436C116.674 13.4395 116.674 13.3354 116.674 13.2313C116.686 13.0579 116.709 13.0347 116.894 13.0232C116.906 13.0232 116.929 13.0232 116.94 13.0232C118.074 13.0232 119.195 13.0232 120.329 13.0232C120.537 13.0232 120.56 13.0579 120.572 13.2545C120.572 13.3585 120.572 13.4626 120.572 13.5667C120.572 14.781 120.572 15.9954 120.572 17.2097Z" fill="white"/>
<path d="M72.8547 17.1981C72.8547 15.9375 72.8547 14.6769 72.8547 13.4164C72.8547 13.0116 72.8547 13.0232 73.2364 13.0232C74.2772 13.0232 75.3181 13.0232 76.3589 13.0232C76.4514 13.0232 76.5324 13.0231 76.6249 13.0347C76.6943 13.0463 76.729 13.081 76.7406 13.1504C76.7521 13.2545 76.7521 13.3585 76.7521 13.4626C76.7521 15.9606 76.7521 18.4471 76.7521 20.9451C76.7521 21.3962 76.7752 21.3846 76.3126 21.3846C75.3065 21.3846 74.2888 21.3846 73.2826 21.3846C73.1785 21.3846 73.0745 21.3846 72.9704 21.373C72.901 21.373 72.8663 21.3152 72.8663 21.2574C72.8547 21.1417 72.8547 21.0145 72.8547 20.8989C72.8547 19.6614 72.8547 18.4355 72.8547 17.1981Z" fill="white"/>
<path d="M59.5783 17.198C59.5783 18.4586 59.5783 19.7192 59.5783 20.9798C59.5783 21.373 59.5783 21.3845 59.1966 21.3845C58.1558 21.3845 57.1149 21.3845 56.0857 21.3845C56.0163 21.3845 55.9353 21.3845 55.8659 21.373C55.7734 21.373 55.7387 21.3036 55.7271 21.2226C55.7156 21.107 55.7156 20.9913 55.7156 20.8641C55.7156 18.4124 55.7156 15.9606 55.7156 13.5204C55.7156 12.9653 55.6693 13.0115 56.2129 13.0115C57.1959 13.0115 58.1673 13.0115 59.1504 13.0115C59.2429 13.0115 59.3238 13.0115 59.4164 13.0115C59.5204 13.0115 59.5667 13.0809 59.5783 13.185C59.5783 13.3007 59.5783 13.4279 59.5783 13.5435C59.5783 14.7694 59.5783 15.9837 59.5783 17.198Z" fill="white"/>
</svg>
