<svg id="Layer_1" xmlns="http://www.w3.org/2000/svg" width="150" height="60" viewBox="0 0 2242.67 439.07"><defs><style>.cls-1{fill:#fff}</style></defs><path class="cls-1" d="M583.74 83.37c-66.18 0-120.03 53.85-120.03 120.03s53.85 120.02 120.03 120.02c26.61 0 51.23-8.72 71.15-23.44v21.73h48.87V203.39c0-66.18-53.85-120.03-120.02-120.03Zm0 191.18c-39.24 0-71.16-31.92-71.16-71.15s31.92-71.16 71.16-71.16 71.15 31.92 71.15 71.16-31.92 71.15-71.15 71.15ZM1444.53 83.37c-66.18 0-120.02 53.85-120.02 120.03s53.85 120.02 120.02 120.02c38.26 0 74.55-18.49 97.09-49.45l-39.52-28.76c-13.37 18.37-34.89 29.33-57.57 29.33-30.66 0-56.84-19.48-66.83-46.71h186.86v-24.44c0-66.18-53.85-120.03-120.03-120.03Zm-66.83 95.59c9.98-27.23 36.17-46.72 66.83-46.72s56.84 19.48 66.83 46.72H1377.7ZM1192.32 83.37c-60.12 0-109.03 53.85-109.03 120.03v118.32h48.87V203.4c0-39.24 26.99-71.16 60.15-71.16s60.15 31.92 60.15 71.16v118.32h48.87V203.4c0-66.18-48.91-120.03-109.03-120.03ZM342.02 83.37c-29.62 0-56.17 13.18-74.28 33.91-18.11-20.73-44.66-33.91-74.28-33.91-54.43 0-98.72 44.29-98.72 98.72v139.62h48.87V182.09c0-27.49 22.36-49.85 49.85-49.85s49.85 22.36 49.85 49.85v139.62h48.87V182.09c0-27.49 22.36-49.85 49.85-49.85s49.85 22.36 49.85 49.85v139.62h48.87V182.09c0-54.43-44.29-98.72-98.72-98.72ZM847.4 83.37c-66.18 0-120.02 53.85-120.02 120.03s53.85 120.02 120.02 120.02c26.61 0 51.23-8.72 71.15-23.44v19.06c0 39.23-31.92 71.15-71.15 71.15-22.48 0-43.17-10.29-56.77-28.25l-38.96 29.5c22.92 30.26 57.81 47.62 95.73 47.62 66.18 0 120.02-53.85 120.02-120.02V203.4c0-66.18-53.85-120.03-120.02-120.03Zm0 191.18c-39.23 0-71.15-31.92-71.15-71.15s31.92-71.16 71.15-71.16 71.15 31.92 71.15 71.16-31.92 71.15-71.15 71.15ZM999.72 100.32h48.87v221.4h-48.87zM1024.15 4.5c-19.66 0-35.6 15.94-35.6 35.6s15.94 35.6 35.6 35.6 35.6-15.94 35.6-35.6-15.94-35.6-35.6-35.6ZM11.16 100.32h48.87v221.4H11.16zM35.6 4.5C15.94 4.5 0 20.43 0 40.09s15.94 35.6 35.6 35.6 35.6-15.94 35.6-35.6S55.26 4.5 35.6 4.5ZM2242.67 203.4c0-66.18-53.85-120.03-120.03-120.03s-120.02 53.85-120.02 120.03 53.85 120.02 120.02 120.02c38.25 0 74.55-18.48 97.08-49.44l-39.51-28.77c-13.38 18.37-34.89 29.33-57.58 29.33-30.66 0-56.84-19.48-66.83-46.71h186.86v-24.44Zm-186.86-24.44c9.98-27.23 36.17-46.72 66.83-46.72s56.84 19.48 66.83 46.72h-133.66ZM1695.32 100.32h48.87v221.4h-48.87zM1610.44 0h48.87v321.72h-48.87zM1719.76 4.5c-19.66 0-35.6 15.94-35.6 35.6s15.94 35.6 35.6 35.6 35.6-15.94 35.6-35.6-15.94-35.6-35.6-35.6ZM1950.31 100.32l-64.59 156.55-64.59-156.55h-53.51l91.34 221.4h53.52l91.35-221.4h-53.52z"/></svg>
