<svg width="150" height="60" viewBox="0 0 150 60" fill="none" xmlns="http://www.w3.org/2000/svg">
<path d="M64.9505 16.5386L53.8177 43.5694H46.5709L41.2146 21.9232C40.7945 20.6309 40.5844 20.2001 39.5342 19.554C37.9588 18.6924 35.2281 17.8309 32.8125 17.2924L33.0226 16.5386H44.6804C46.1508 16.5386 47.5161 17.5078 47.8312 19.3386L50.6669 34.954L57.8087 16.5386H64.9505ZM93.2025 34.7386C93.2025 27.6309 83.5401 27.2001 83.6451 23.9694C83.6451 23.0001 84.5903 21.9232 86.5858 21.7078C87.5311 21.6001 90.2617 21.4924 93.3075 22.8924L94.4628 17.1847C92.8874 16.5386 90.7869 16.0001 88.0562 16.0001C81.3345 16.0001 76.5033 19.6617 76.5033 24.9386C76.5033 28.8155 79.8642 30.9694 82.4898 32.2617C85.1155 33.554 86.0607 34.4155 86.0607 35.6001C86.0607 37.4309 83.9602 38.1847 81.9647 38.2924C78.4988 38.4001 76.5033 37.3232 74.9279 36.5694L73.7726 42.6001C75.348 43.354 78.2888 44.0001 81.3345 44.0001C88.4763 44.0001 93.2025 40.3386 93.2025 34.7386ZM111.057 43.5694H117.358L111.897 16.5386H106.016C104.755 16.5386 103.6 17.2924 103.075 18.477L92.7824 43.5694H100.029L101.5 39.477H110.217L111.057 43.5694ZM103.495 33.9847L107.066 23.8617L109.166 33.9847H103.495ZM74.7179 16.5386L69.0465 43.677H62.2198L67.8912 16.5386H74.7179Z" fill="#3B477D"/>
</svg>
