<svg width="150" height="60" viewBox="0 0 150 60" fill="none" xmlns="http://www.w3.org/2000/svg">
<path d="M27.1339 41.4192H124.75V42.1353H27.1339V41.4192Z" fill="white"/>
<path d="M57.2673 35.2999H57.3132L61.3563 23.5171H65.0334V23.9077C64.7129 23.9077 64.4384 23.9403 64.24 24.0054C64.0264 24.0705 63.8738 24.1844 63.7517 24.3309C63.6297 24.4773 63.5534 24.7052 63.5076 24.9818C63.4619 25.2585 63.4466 25.6003 63.4466 26.0234V36.9599C63.4466 37.3993 63.4771 37.7574 63.5229 38.034C63.5686 38.3107 63.6602 38.5385 63.7823 38.685C63.9044 38.8478 64.0569 38.9454 64.2705 38.9942C64.4841 39.0431 64.7435 39.0756 65.0487 39.0756V39.4662H59.4796V39.0756C59.8458 39.0756 60.151 39.0593 60.3951 39.0105C60.6392 38.9617 60.8376 38.864 60.9749 38.7176C61.1122 38.5711 61.219 38.3595 61.28 38.0666C61.341 37.7899 61.3716 37.4156 61.3716 36.9436V26.2024H61.3259L56.7944 39.4825H56.535L52.0188 26.4954H51.9731V36.9599C51.9731 37.4319 52.0035 37.8062 52.0493 38.0829C52.0951 38.3595 52.2019 38.5711 52.3392 38.7338C52.4765 38.8803 52.6749 38.978 52.9037 39.0268C53.1479 39.0756 53.4377 39.0919 53.8192 39.0919V39.4825H49.364V39.0919C49.7149 39.0919 50.0048 39.0593 50.2337 39.0105C50.4626 38.9617 50.6457 38.8478 50.7829 38.7013C50.9203 38.5548 51.0119 38.3433 51.0576 38.0503C51.1034 37.7736 51.1339 37.3993 51.1339 36.9436V26.0071C51.1339 25.584 51.1186 25.2422 51.0729 24.9656C51.027 24.6889 50.9355 24.4773 50.8135 24.3146C50.6914 24.1518 50.493 24.0542 50.2642 23.9891C50.0354 23.924 49.7302 23.8914 49.364 23.8914V23.5009H53.2242L57.2673 35.2999Z" fill="white"/>
<path d="M72.6468 38.1804C72.6468 38.4896 72.7536 38.7337 72.9671 38.8802C73.1808 39.0429 73.5774 39.108 74.1725 39.0917V39.4823H69.9156V39.0917C70.1903 39.0917 70.4345 39.0592 70.648 38.9941C70.8616 38.929 71.0295 38.8151 71.182 38.6523C71.3346 38.4896 71.4719 38.2617 71.594 37.9688C71.716 37.6758 71.8381 37.3178 71.9602 36.8784L75.9881 23.1589H76.3543L80.6874 36.8784C80.8552 37.4155 81.0078 37.8223 81.1298 38.1153C81.2672 38.4082 81.4045 38.636 81.5571 38.7662C81.7097 38.9127 81.8775 38.9941 82.0606 39.0266C82.2437 39.0592 82.4725 39.0755 82.7471 39.0755V39.466H77.3766V39.0755C77.8648 39.0755 78.2157 39.0104 78.4141 38.8639C78.6124 38.7174 78.7192 38.4896 78.7192 38.1641C78.7192 38.0339 78.704 37.9037 78.6734 37.7735C78.6429 37.6433 78.5819 37.4154 78.4903 37.1062L77.6207 34.3721H73.6537L72.7536 37.4643C72.6925 37.8223 72.6468 38.0502 72.6468 38.1804ZM75.5304 27.8135L73.9131 33.5096H77.346L75.5762 27.8135H75.5304Z" fill="white"/>
<path d="M91.8558 38.0828C91.9168 38.3594 92.0236 38.571 92.161 38.7338C92.3135 38.8802 92.5119 38.9779 92.7865 39.0267C93.0612 39.0755 93.3968 39.0918 93.809 39.0918V39.4824H87.5532V39.0918C87.9652 39.0918 88.3161 39.0755 88.5754 39.0267C88.8501 38.9942 89.0484 38.8965 89.201 38.75C89.3535 38.6036 89.4451 38.3757 89.5062 38.0991C89.5672 37.8061 89.5977 37.4318 89.5977 36.9598V24.4122H87.9652C87.4921 24.4122 87.0802 24.461 86.7598 24.5586C86.4241 24.6563 86.1648 24.8027 85.9512 25.0306C85.7376 25.2422 85.585 25.5351 85.4935 25.8769C85.3867 26.2186 85.3408 26.6418 85.3257 27.1626H84.9595V23.5333H96.4331V27.1463H96.0665C96.0365 26.1535 95.8228 25.4374 95.4262 25.0306C95.0296 24.6237 94.3734 24.4122 93.4273 24.4122H91.7642V36.9598C91.7642 37.4318 91.7948 37.8061 91.8558 38.0828Z" fill="white"/>
<path d="M107.174 23.924C106.793 23.924 106.473 23.9403 106.213 23.9891C105.953 24.0379 105.756 24.1356 105.618 24.2983C105.481 24.4611 105.374 24.6726 105.313 24.9493C105.252 25.226 105.236 25.584 105.236 26.0397V36.9762C105.236 37.4644 105.267 37.8387 105.343 38.1154C105.42 38.3921 105.527 38.6036 105.664 38.7664C105.817 38.9129 105.999 39.0105 106.259 39.0431C106.503 39.0756 106.808 39.1082 107.174 39.1082V39.4987H101.133V39.1082C101.529 39.1082 101.865 39.0756 102.109 39.0268C102.368 38.978 102.551 38.864 102.704 38.7013C102.841 38.5385 102.933 38.327 102.994 38.0503C103.055 37.7736 103.07 37.4156 103.07 36.9925V26.056C103.07 25.6003 103.04 25.2422 102.994 24.9656C102.933 24.6889 102.841 24.4773 102.689 24.3146C102.536 24.1518 102.338 24.0542 102.094 24.0054C101.834 23.9565 101.513 23.9403 101.133 23.9403V23.5497H107.174V23.924Z" fill="white"/>
<path d="M123.362 28.4483C123.256 27.0813 122.843 25.9746 122.142 25.1771C121.44 24.3634 120.524 23.9566 119.426 23.9566C117.977 23.9566 116.908 24.6401 116.222 25.9909C115.536 27.3417 115.184 29.3597 115.184 32.0125C115.184 33.2493 115.291 34.3072 115.49 35.2023C115.703 36.0974 115.993 36.8135 116.39 37.3993C116.786 37.969 117.26 38.3921 117.824 38.6525C118.388 38.9129 119.014 39.0431 119.701 39.0431C120.616 39.0431 121.394 38.799 122.035 38.2944C122.661 37.7899 123.256 37.0088 123.789 35.9346L124.156 36.1299C123.072 38.6199 121.364 39.8731 119.06 39.8731C118.252 39.8731 117.458 39.7103 116.679 39.3686C115.916 39.0268 115.23 38.5386 114.62 37.8713C114.009 37.204 113.521 36.3903 113.155 35.3976C112.789 34.4211 112.606 33.2819 112.606 31.9799C112.606 30.7105 112.774 29.555 113.094 28.4809C113.43 27.4068 113.888 26.4791 114.483 25.6979C115.077 24.9168 115.779 24.2983 116.573 23.8589C117.382 23.4195 118.267 23.2079 119.213 23.2079C119.67 23.2079 120.082 23.2567 120.448 23.3544C120.815 23.452 121.119 23.566 121.379 23.6962C121.638 23.8264 121.868 23.9403 122.065 24.0379C122.264 24.1356 122.432 24.1844 122.569 24.1844C122.722 24.1844 122.843 24.103 122.92 23.9566C122.996 23.8101 123.057 23.5497 123.103 23.1917H123.5L123.774 28.4646H123.362V28.4483Z" fill="white"/>
<path d="M31.9095 37.8875C31.9095 38.2944 32.0621 38.6036 32.3672 38.8152C32.6724 39.0267 33.2216 39.1081 34.0455 39.0918V39.6126H28.0646V39.0918C28.446 39.0918 28.797 39.043 29.0868 38.9616C29.3768 38.8803 29.6361 38.7338 29.8498 38.5059C30.0633 38.2944 30.2617 37.9852 30.4295 37.6108C30.5973 37.2365 30.7804 36.7483 30.9482 36.1624L36.5935 18H37.1123L43.1542 36.195C43.3983 36.8948 43.5966 37.4481 43.7797 37.8387C43.9628 38.2293 44.1612 38.5222 44.3747 38.7012C44.5884 38.8803 44.8325 38.9942 45.0918 39.043C45.3512 39.0918 45.6717 39.1081 46.053 39.1081V39.6289H38.5465V39.1081C39.233 39.1081 39.7213 39.0105 39.9959 38.8314C40.2705 38.6524 40.4079 38.3432 40.4079 37.9038C40.4079 37.741 40.3926 37.562 40.3469 37.3993C40.301 37.2203 40.2248 36.9273 40.0874 36.5205L38.8668 32.8912H33.3285L32.0774 36.9761C31.9553 37.4156 31.9095 37.7248 31.9095 37.8875ZM35.9374 24.1518L33.6794 31.6869H38.4855L35.9985 24.1518H35.9374Z" fill="white"/>
</svg>
