<svg width="150" height="60" viewBox="0 0 150 60" fill="none" xmlns="http://www.w3.org/2000/svg">
<path d="M36.8073 22.5515L46.3609 27.0056C46.135 26.8549 41.5841 23.778 40.1855 21.3788C38.7869 18.9797 38.8514 17.0754 40.0671 15.2895C41.2829 13.5036 44.2952 12.3955 48.8784 12.6859C53.4615 12.9764 58.4965 14.3643 62.2728 17.764C60.9685 15.8283 59.2821 14.1798 57.3172 12.9198C55.3524 11.6599 53.1506 10.8151 50.8472 10.4374C47.6445 9.76834 44.3287 9.86802 41.172 10.7283C38.0152 11.5885 35.1073 13.1849 32.6868 15.3863C31.8899 16.0301 31.3205 16.9125 31.0623 17.9038C31.1376 20.346 36.8073 22.5515 36.8073 22.5515Z" fill="#2F98D5"/>
<path d="M40.0671 44.7141C38.8514 42.9389 38.7546 41.11 40.1855 38.6247C41.6164 36.1395 46.3716 32.9873 46.3716 32.9873L36.8073 37.4413C36.8073 37.4413 31.1268 39.6576 31.0623 42.0998C31.3205 43.0911 31.8899 43.9735 32.6868 44.6173C35.1071 46.8156 38.0132 48.41 41.1676 49.2701C44.3221 50.1303 47.6353 50.2317 50.8364 49.5662C53.1428 49.1892 55.3474 48.3437 57.3143 47.0817C59.2813 45.8198 60.9688 44.1682 62.2728 42.2289C58.4965 45.6286 53.4615 47.0272 48.8784 47.3176C44.2952 47.6081 41.2829 46.5 40.0671 44.7141Z" fill="#F9AE00"/>
<path d="M36.8073 37.4413L46.3609 32.9873C46.3609 32.9873 49.0828 31.5349 49.0828 30.0932V29.8996C49.0828 28.4687 46.3609 27.0055 46.3609 27.0055L36.8073 22.5515C36.8073 22.5515 31.1376 20.346 31.0622 17.9038C30.6104 20.1201 32.7083 22.0351 34.4512 23.6811C36.7643 25.8328 37.7971 28.0491 37.7756 29.9964C37.754 31.9437 36.7643 34.1277 34.4512 36.3224C32.7083 37.9577 30.6104 39.8727 31.0622 42.0997C31.1268 39.6576 36.8073 37.4413 36.8073 37.4413Z" fill="#E40E20"/>
<path d="M54.4513 30.9647C54.4513 31.0751 54.484 31.1831 54.5453 31.275C54.6065 31.3669 54.6936 31.4386 54.7956 31.4811C55.0676 31.597 55.3606 31.6556 55.6563 31.6532C56.0113 31.6532 56.3556 31.6532 56.7321 31.6532L57.6789 31.5349L58.1845 31.4704C58.2222 31.7101 58.208 31.9551 58.143 32.1889C58.0781 32.4227 57.9638 32.6399 57.808 32.8259C57.3055 33.1536 56.7039 33.2945 56.1082 33.224C55.1854 33.3023 54.2652 33.0465 53.5153 32.5032C53.2071 32.1725 52.9737 31.7795 52.8308 31.3507C52.6878 30.9219 52.6387 30.4674 52.6869 30.0179C52.6746 29.5136 52.7511 29.0111 52.9128 28.5333C53.0342 28.1632 53.2626 27.8375 53.5691 27.5973C53.8581 27.3829 54.1875 27.2292 54.5374 27.1454C54.9455 27.0444 55.365 26.9974 55.7853 27.0056C56.5048 26.9434 57.2217 27.1504 57.7972 27.5865C58.0295 27.8318 58.2072 28.1235 58.3185 28.4425C58.4298 28.7615 58.4721 29.1004 58.4427 29.437C58.4589 29.711 58.3954 29.9837 58.2599 30.2224C58.1458 30.4059 57.9705 30.5431 57.7649 30.6097C57.5304 30.684 57.2889 30.7345 57.0441 30.7603C56.7647 30.7764 56.4844 30.7764 56.2049 30.7603C55.9079 30.7345 55.6091 30.7345 55.312 30.7603C55.0172 30.7893 54.7277 30.858 54.4513 30.9647ZM54.4513 29.8028C54.6391 29.6975 54.8494 29.6385 55.0645 29.6306C55.3443 29.6306 55.6025 29.6306 55.8499 29.6306C56.0776 29.6342 56.3028 29.5825 56.5062 29.48C56.5936 29.4395 56.6668 29.3738 56.7167 29.2914C56.7665 29.209 56.7906 29.1136 56.7859 29.0174C56.7859 28.8238 56.6353 28.6624 56.334 28.544C55.9409 28.3838 55.5007 28.3838 55.1076 28.544C54.8541 28.6282 54.641 28.8038 54.5097 29.0364C54.3785 29.2691 54.3385 29.5423 54.3975 29.8028H54.4513Z" fill="white"/>
<path d="M65.511 29.0712V33.0841C65.2926 33.1011 65.0731 33.1011 64.8547 33.0841C64.6738 33.0728 64.4959 33.0329 64.3275 32.9658C64.1667 32.9066 64.0355 32.7869 63.9618 32.6323C63.8829 32.4567 63.846 32.2651 63.8542 32.0728V29.1142C63.7466 28.5763 63.241 28.3611 62.3588 28.4795C62.0867 28.4999 61.8168 28.5431 61.5519 28.6086C61.5646 28.7553 61.5646 28.9029 61.5519 29.0497V32.0728C61.5669 32.2656 61.5297 32.4588 61.4443 32.6323C61.3648 32.7826 61.2355 32.9005 61.0785 32.9658C60.9139 33.0328 60.7394 33.0728 60.562 33.0841C60.3403 33.1063 60.1168 33.1063 59.895 33.0841V27.7049C59.895 27.2207 60.6696 26.9625 62.1974 26.9302C64.4136 26.8872 65.511 27.5973 65.511 29.0712Z" fill="white"/>
<path d="M71.2883 24.5849C71.4106 24.6669 71.5508 24.7185 71.6971 24.7355H72.149C72.2843 24.7351 72.4187 24.7569 72.547 24.8C72.6131 24.8254 72.673 24.8644 72.7231 24.9145C72.7731 24.9645 72.8121 25.0245 72.8375 25.0905C72.9163 25.3038 72.9528 25.5303 72.9451 25.7576V32.2665L72.8375 32.3956C72.7853 32.4645 72.7277 32.5293 72.6653 32.5892C72.5738 32.6582 72.4767 32.7194 72.3749 32.7721C72.2312 32.8568 72.0751 32.9185 71.9123 32.955C71.7509 32.955 71.5142 33.0411 71.2345 33.0841C70.913 33.12 70.5897 33.1379 70.2662 33.1379C69.3883 33.2178 68.5134 32.9557 67.824 32.4063C67.2636 31.7223 66.9967 30.8443 67.0817 29.9641C67.078 29.5588 67.1398 29.1556 67.2646 28.7699C67.3634 28.4598 67.5204 28.1713 67.7272 27.92C67.9219 27.6973 68.1552 27.5114 68.4158 27.3713C68.6689 27.2304 68.9405 27.1254 69.2227 27.0593C69.5026 27.0035 69.7872 26.9747 70.0726 26.9733C70.4958 26.9364 70.9201 27.0303 71.2883 27.2422V24.5526V24.5849ZM71.2883 30.0932V28.5225L70.9762 28.4472H70.5459C70.3883 28.4363 70.2302 28.4363 70.0726 28.4472C69.9082 28.4611 69.7478 28.5048 69.5992 28.5763C69.4449 28.6504 69.3033 28.7484 69.1796 28.8668C69.0563 29.0168 68.9615 29.1882 68.8999 29.3724C68.8219 29.6193 68.7856 29.8774 68.7923 30.1363C68.7866 30.3863 68.8305 30.6349 68.9214 30.8679C68.9901 31.0489 69.1007 31.2111 69.2441 31.3412C69.3835 31.455 69.5445 31.5392 69.7175 31.5887C69.886 31.6379 70.059 31.6703 70.2339 31.6855C70.3946 31.7067 70.5574 31.7067 70.7181 31.6855H71.0839H71.2775C71.2775 31.6855 71.2883 31.0615 71.2883 30.0932Z" fill="white"/>
<path d="M74.5051 30.0287C74.5051 30.0287 74.5051 29.9211 74.5051 29.8458C74.496 29.7025 74.496 29.5588 74.5051 29.4155C74.529 29.2083 74.5685 29.0033 74.6235 28.8022C74.705 28.5769 74.8096 28.3606 74.9355 28.1567C75.0863 27.9289 75.2713 27.7257 75.4841 27.5542C75.7467 27.3601 76.0418 27.2143 76.3556 27.1239C76.7648 27.0067 77.1887 26.9487 77.6144 26.9518C77.9248 26.9517 78.2345 26.9805 78.5396 27.0378C78.7876 27.0806 79.0295 27.1529 79.2604 27.253C79.4527 27.3372 79.6335 27.4457 79.7983 27.5758C79.941 27.6945 80.0708 27.8279 80.1856 27.9738C80.2965 28.1088 80.3839 28.2616 80.4439 28.4257C80.5085 28.5759 80.5624 28.7305 80.6052 28.8883C80.643 29.037 80.6718 29.1879 80.6913 29.3402C80.6913 29.5123 80.6913 29.6414 80.6913 29.7275V30.2869C80.6974 30.3944 80.6974 30.5022 80.6913 30.6097C80.6605 30.9542 80.5882 31.2937 80.4761 31.621C80.3934 31.8084 80.2887 31.9854 80.1641 32.1481C80.0199 32.3301 79.8495 32.4896 79.6584 32.6215C79.4206 32.7676 79.1635 32.8799 78.8946 32.955C78.5436 33.0469 78.1816 33.0903 77.8188 33.0841C77.4589 33.083 77.0995 33.0579 76.7429 33.0088C76.4713 32.9678 76.2046 32.8993 75.9468 32.8044C75.7318 32.7251 75.5344 32.6045 75.3658 32.4494C75.2097 32.318 75.0721 32.166 74.957 31.9975C74.8473 31.8204 74.764 31.6283 74.7095 31.4273C74.6402 31.2134 74.5898 30.9938 74.5589 30.771C74.526 30.5249 74.5081 30.277 74.5051 30.0287ZM76.1511 30.1255C76.1669 30.3315 76.1957 30.5364 76.2372 30.7388C76.2862 30.9012 76.3626 31.054 76.4632 31.1906C76.5829 31.3433 76.7491 31.4528 76.9366 31.5026C77.2013 31.5834 77.4776 31.6197 77.7542 31.6102C77.98 31.6176 78.2044 31.5735 78.4105 31.4811C78.5656 31.424 78.7055 31.332 78.8193 31.2121C78.9136 31.1009 78.9866 30.9733 79.0345 30.8356C79.1058 30.6543 79.1388 30.4601 79.1313 30.2654V29.9641C79.1356 29.8961 79.1356 29.8278 79.1313 29.7597C79.1313 29.6522 79.1313 29.5768 79.1313 29.5123C79.1106 29.4272 79.0817 29.3444 79.0452 29.2648C79.0165 29.1776 78.9767 29.0945 78.9269 29.0174C78.8715 28.9379 78.8065 28.8656 78.7332 28.8022C78.659 28.726 78.5715 28.664 78.475 28.6193C78.3658 28.5654 78.2501 28.5256 78.1307 28.501C77.9806 28.484 77.8291 28.484 77.6789 28.501C77.4254 28.4944 77.173 28.5383 76.9366 28.6301C76.7724 28.6774 76.6235 28.7668 76.5046 28.8895C76.3857 29.0122 76.3009 29.1638 76.2588 29.3294C76.217 29.4589 76.1882 29.5923 76.1727 29.7275C76.1727 29.8243 76.1727 29.9426 76.1727 30.0932C76.177 30.1037 76.1806 30.1145 76.1835 30.1255H76.1511Z" fill="white"/>
<path d="M86.3397 26.9625C86.3303 27.0411 86.3303 27.1206 86.3397 27.1992C86.3506 27.3317 86.3506 27.4648 86.3397 27.5973C86.3255 27.7362 86.2966 27.8732 86.2536 28.0061C86.2136 28.1549 86.1171 28.2823 85.9846 28.3611C85.8246 28.453 85.6419 28.4977 85.4575 28.4902C85.221 28.475 84.9839 28.475 84.7475 28.4902C84.5833 28.5095 84.4254 28.5646 84.2848 28.6516C84.1551 28.7408 84.063 28.8749 84.0266 29.0281C83.9782 29.2434 83.9566 29.4638 83.962 29.6844V33.224C83.8014 33.1174 83.6228 33.0408 83.4349 32.998L82.8862 32.8689C82.7249 32.8309 82.581 32.74 82.4774 32.6107C82.3509 32.4283 82.2902 32.2082 82.3052 31.9867V29.0281C82.3008 28.9673 82.3008 28.9061 82.3052 28.8453C82.2977 28.7378 82.2977 28.6299 82.3052 28.5225C82.3311 28.3826 82.3707 28.2457 82.4236 28.1137C82.4755 27.9624 82.5518 27.8207 82.6495 27.6941C82.7552 27.5471 82.8821 27.4165 83.0261 27.3068C83.1988 27.1818 83.3917 27.0871 83.5963 27.0271C83.8471 26.95 84.1086 26.9137 84.3709 26.9195H86.2967L86.3397 26.9625Z" fill="white"/>
<path d="M89.3413 35.5263C89.1873 35.4164 89.0034 35.3563 88.8142 35.3541H88.2655C88.1846 35.3511 88.1058 35.3278 88.0363 35.2865C87.9668 35.2451 87.9087 35.187 87.8674 35.1175C87.7328 34.8827 87.6728 34.6125 87.6953 34.3428V27.8339L87.7921 27.7048C87.8475 27.6385 87.9088 27.5773 87.975 27.5219C88.0604 27.4498 88.1543 27.3883 88.2547 27.339C88.3979 27.2508 88.554 27.1854 88.7174 27.1454L89.3952 27.0163C89.7203 26.9802 90.0471 26.9622 90.3742 26.9625C90.8148 26.8731 91.2708 26.8952 91.7007 27.0268C92.1307 27.1583 92.521 27.3951 92.8362 27.7157C93.1514 28.0362 93.3817 28.4305 93.506 28.8626C93.6303 29.2947 93.6447 29.751 93.5479 30.19C93.5585 30.6795 93.4707 31.1661 93.2898 31.6209C93.135 31.9903 92.8865 32.3129 92.5689 32.5569C92.2825 32.7673 91.9623 32.9274 91.6221 33.0303C91.2726 33.1318 90.9103 33.1825 90.5463 33.1809C90.1358 33.1912 89.7261 33.1405 89.3306 33.0303V35.6016L89.3413 35.5263ZM89.3413 30.0072V31.5349L89.7179 31.6209H90.2343C90.4267 31.6332 90.6198 31.6113 90.8045 31.5564C90.9834 31.4921 91.1532 31.4054 91.3102 31.2982C91.4908 31.1669 91.6262 30.9827 91.6974 30.771C91.8017 30.4925 91.8528 30.1969 91.8481 29.8996C91.8558 29.6484 91.808 29.3986 91.7082 29.168C91.6356 28.989 91.5256 28.8276 91.3855 28.6946C91.2464 28.5743 91.0803 28.4894 90.9013 28.4472C90.7396 28.4002 90.5739 28.3678 90.4064 28.3503C90.2421 28.3301 90.0759 28.3301 89.9116 28.3503H89.5457H89.3521C89.3521 28.3503 89.3306 29.0389 89.3413 30.0072Z" fill="white"/>
<path d="M96.7538 27.2315C97.3381 27.0499 97.9501 26.9734 98.5612 27.0055C98.9315 26.9947 99.2994 27.0683 99.637 27.2207C99.8827 27.3267 100.1 27.4888 100.272 27.6941C100.408 27.8828 100.51 28.094 100.573 28.3181C100.632 28.4852 100.672 28.6585 100.691 28.8345C100.702 28.931 100.702 29.0285 100.691 29.125V33.1379C99.6156 33.2885 99.0346 32.9443 99.0346 32.1158V30.9001C99.0859 30.2293 99.0351 29.5546 98.8839 28.8991C98.7656 28.6624 98.4213 28.5333 97.8081 28.5225C97.4409 28.5241 97.0769 28.5897 96.7322 28.7162V32.1158C96.7607 32.2866 96.7358 32.4621 96.6607 32.6181C96.5855 32.7741 96.464 32.9031 96.3127 32.9873C95.9176 33.1329 95.494 33.1845 95.0754 33.1379V24.5311C95.2331 24.6336 95.4149 24.6929 95.6026 24.7032C95.7854 24.7128 95.9685 24.7128 96.1513 24.7032C96.2327 24.7093 96.3114 24.735 96.3807 24.778C96.45 24.8211 96.5079 24.8804 96.5494 24.9507C96.6853 25.1849 96.7454 25.4555 96.7215 25.7253V27.2315H96.7538Z" fill="white"/>
<path d="M102.52 26.3278C102.357 26.1609 102.264 25.9373 102.262 25.7038C102.262 25.5868 102.285 25.4711 102.332 25.3637C102.378 25.2564 102.446 25.1597 102.531 25.0798C102.612 24.9959 102.709 24.9296 102.816 24.8851C102.924 24.8407 103.039 24.819 103.155 24.8216C103.271 24.8215 103.386 24.8443 103.493 24.8886C103.6 24.9329 103.697 24.9979 103.779 25.0798C103.863 25.1602 103.929 25.2572 103.974 25.3646C104.018 25.4721 104.04 25.5875 104.037 25.7038C104.039 25.8198 104.016 25.9349 103.972 26.0421C103.928 26.1494 103.862 26.2465 103.779 26.3278C103.699 26.4117 103.602 26.4779 103.494 26.5224C103.387 26.5668 103.271 26.5885 103.155 26.586C103.038 26.5874 102.921 26.5654 102.812 26.521C102.703 26.4767 102.604 26.411 102.52 26.3278ZM103.962 28.0599C103.985 27.7902 103.925 27.52 103.79 27.2853C103.749 27.2157 103.691 27.1576 103.621 27.1162C103.551 27.0749 103.473 27.0516 103.392 27.0486H102.843C102.654 27.0445 102.471 26.9846 102.316 26.8764V33.1056C102.735 33.1522 103.158 33.1006 103.553 32.955C103.705 32.8708 103.826 32.7418 103.901 32.5858C103.976 32.4298 104.001 32.2544 103.973 32.0836V28.0922L103.962 28.0599Z" fill="white"/>
<path d="M111.181 29.0712V33.0841C110.963 33.1008 110.743 33.1008 110.525 33.0841C110.344 33.0716 110.166 33.0317 109.998 32.9658C109.841 32.9005 109.711 32.7826 109.632 32.6323C109.553 32.4567 109.516 32.2651 109.524 32.0728V29.1142C109.417 28.5763 108.922 28.3611 108.029 28.4795C107.757 28.4999 107.487 28.5431 107.222 28.6086C107.235 28.7553 107.235 28.9029 107.222 29.0497V32.0728C107.237 32.2656 107.2 32.4588 107.114 32.6323C107.037 32.7843 106.907 32.9029 106.749 32.9658C106.584 33.0328 106.41 33.0728 106.232 33.0841C106.01 33.1064 105.787 33.1064 105.565 33.0841V27.7049C105.565 27.2207 106.34 26.9625 107.878 26.9302C110.084 26.8872 111.181 27.5973 111.181 29.0712Z" fill="white"/>
<path d="M113.193 28.5117C113.197 28.4796 113.197 28.447 113.193 28.4149C113.185 28.3434 113.185 28.2712 113.193 28.1997V27.8985C113.221 27.7872 113.261 27.6791 113.311 27.5757C113.361 27.4583 113.434 27.3522 113.526 27.2637C113.638 27.1704 113.766 27.0976 113.903 27.0486C114.083 26.9896 114.272 26.9605 114.462 26.9625H115.355H115.969C116.167 26.9834 116.365 27.0157 116.56 27.0593C116.747 27.1126 116.93 27.1772 117.109 27.253C117.284 27.3288 117.444 27.4344 117.582 27.565C117.728 27.702 117.854 27.8576 117.959 28.0276C118.071 28.2339 118.155 28.4547 118.206 28.6839C118.266 28.9705 118.295 29.2626 118.292 29.5553V30.771C118.292 31.0506 118.256 31.329 118.185 31.5994C118.13 31.8105 118.047 32.0131 117.937 32.2019C117.836 32.3553 117.713 32.493 117.572 32.6107C117.444 32.7151 117.303 32.802 117.152 32.8689C117.011 32.9291 116.862 32.9724 116.711 32.998L116.324 33.0626H114.376H114.14C114.019 33.0501 113.9 33.0248 113.785 32.9873C113.657 32.9395 113.534 32.8782 113.419 32.8044C113.284 32.7247 113.164 32.6228 113.064 32.5031C112.959 32.3713 112.879 32.2219 112.827 32.0621C112.761 31.8607 112.728 31.6499 112.73 31.4381C112.712 31.0731 112.763 30.708 112.881 30.3622C112.968 30.1093 113.13 29.8883 113.343 29.7275C113.554 29.5782 113.791 29.4721 114.043 29.4154C114.355 29.3545 114.672 29.3257 114.99 29.3294C115.428 29.3519 115.866 29.3084 116.291 29.2003C116.528 29.1142 116.636 28.9851 116.636 28.813C116.636 28.6408 116.399 28.3934 115.915 28.3073C115.411 28.2147 114.897 28.193 114.387 28.2428C113.978 28.2733 113.576 28.3639 113.193 28.5117ZM116.689 30.1685L116.56 30.3084C116.447 30.3876 116.324 30.4526 116.195 30.5021C116.005 30.5867 115.8 30.6307 115.592 30.6312C115.295 30.6195 114.999 30.667 114.721 30.771C114.495 30.8571 114.387 30.9754 114.387 31.1368C114.383 31.2249 114.402 31.3126 114.444 31.3903C114.486 31.4681 114.548 31.5329 114.624 31.5779C114.933 31.6927 115.263 31.7404 115.592 31.7178H116.055C116.16 31.7108 116.263 31.6815 116.356 31.6317C116.426 31.589 116.491 31.5385 116.55 31.4811C116.599 31.3957 116.629 31.3 116.636 31.2014C116.651 31.0655 116.651 30.9284 116.636 30.7925C116.679 30.6527 116.689 30.459 116.689 30.1685Z" fill="white"/>
</svg>
