<svg width="24" height="24" viewBox="0 0 24 24" fill="none" xmlns="http://www.w3.org/2000/svg">
<g clip-path="url(#clip0_4006_25869)">
<path d="M11 2C4.92475 2 0 6.92476 0 13C0 19.0752 4.92475 24 11 24C17.0752 24 22 19.0752 22 13C22 6.92476 17.0752 2 11 2ZM10.9782 19.1432C7.58547 19.1432 4.83501 16.3927 4.83501 13C4.83501 9.60726 7.58547 6.8568 10.9782 6.8568C14.3709 6.8568 17.1214 9.60726 17.1214 13C17.1214 16.3927 14.3709 19.1432 10.9782 19.1432Z" fill="#FF0123"/>
<path d="M10.9908 15.924C12.5784 15.924 13.8654 14.6371 13.8654 13.0495C13.8654 11.462 12.5784 10.175 10.9908 10.175C9.40327 10.175 8.1163 11.462 8.1163 13.0495C8.1163 14.6371 9.40327 15.924 10.9908 15.924Z" fill="#FF0123"/>
<path d="M23.938 3.81817C23.8121 3.51341 23.5144 3.31502 23.1849 3.31502H20.6852V0.815478C20.6852 0.486058 20.4871 0.188292 20.182 0.0624127C19.8772 -0.0649384 19.5267 0.0068346 19.2934 0.239085L16.0328 3.5539C15.88 3.70664 15.7939 3.9135 15.7939 4.13029V7.05311L10.272 12.5745C10.1042 12.7239 10 12.9425 10 13.1847C10 13.6349 10.3652 14 10.8153 14C11.0642 14 11.2534 13.8745 11.4378 13.714L16.9464 8.20589H19.8695C20.0859 8.20589 20.2931 8.11976 20.4459 7.96702L23.761 4.70668C23.9944 4.47333 24.0643 4.12329 23.9377 3.81817H23.938Z" fill="#E9C05F"/>
</g>
<defs>
<clipPath id="clip0_4006_25869">
<rect width="24" height="24" fill="white"/>
</clipPath>
</defs>
</svg>
