<svg width="150" height="60" viewBox="0 0 226 40" fill="none" xmlns="http://www.w3.org/2000/svg">
<g clip-path="url(#clip0_1605:8806)">
<path fill-rule="evenodd" clip-rule="evenodd" d="M67.8083 0H79.8228C79.3326 0.418267 78.9338 0.947503 78.7095 1.69868C77.056 1.7755 75.3942 2.01451 73.7408 2.43278C71.8879 2.90226 70.276 4.03756 70.276 5.99232C70.276 6.62399 70.4422 7.22151 70.7247 7.74221L70.7081 7.33248L70.9573 7.20444C71.1817 7.08493 71.4226 6.9825 71.6553 6.88007C72.2535 6.62399 72.8767 6.41058 73.4998 6.23133C77.1557 5.17286 82.5398 5.17286 86.1957 6.23133C86.8189 6.41058 87.442 6.63252 88.0403 6.88007C88.2729 6.97397 88.5139 7.08493 88.7382 7.20444L88.9875 7.33248L88.9709 7.74221C89.2534 7.22151 89.4195 6.62399 89.4195 5.99232C89.4195 4.03756 87.8076 2.88519 85.9547 2.43278C84.1933 2.00598 82.4318 1.74989 80.6703 1.69014C81.0359 1.21212 81.6009 0.904823 82.1659 0.606061C82.5232 0.409731 82.8805 0.221938 83.2045 0H91.8872C93.0671 0 94.0309 0.990183 94.0309 2.2023V37.7892C94.0309 39.0013 93.0671 39.9915 91.8872 39.9915H67.8083C66.6284 39.9915 65.6646 39.0013 65.6646 37.7892V2.2023C65.6563 0.990183 66.6201 0 67.8083 0ZM81.6425 17.3282C84.6918 15.5442 86.0877 13.487 86.2622 10.0811C85.0242 14.2467 83.2128 16.2612 81.6425 17.3282ZM71.3561 12.0017C71.7882 17.977 78.0697 18.4806 79.8478 21.8609C81.6259 18.4806 87.9073 17.9684 88.3394 12.0017L88.5388 7.5971C84.2431 5.3009 75.4607 5.3009 71.165 7.5971L71.3561 12.0017Z" fill="url(#paint0_linear_1605:8806)"/>
<path fill-rule="evenodd" clip-rule="evenodd" d="M34.9718 0H59.0508C60.2306 0 61.1944 0.990183 61.1944 2.2023V37.7892C61.1944 39.0013 60.2306 39.9915 59.0508 39.9915H34.9718C33.7919 39.9915 32.8281 39.0013 32.8281 37.7892V2.2023C32.8281 0.990183 33.7919 0 34.9718 0ZM48.9389 27.3752C51.9883 25.5911 53.3842 23.5339 53.5586 20.128C52.3206 24.2936 50.5093 26.3082 48.9389 27.3752ZM38.528 22.373C38.96 28.3483 45.2415 28.8604 47.0196 32.2322C48.7977 28.8519 55.0791 28.3397 55.5112 22.373L55.7106 17.9684C51.415 15.6722 42.6325 15.6722 38.3369 17.9684L38.528 22.373ZM45.8813 12.07C44.2278 12.1468 42.5661 12.3858 40.9126 12.8041C39.0597 13.2736 37.4478 14.4089 37.4478 16.3636C37.4478 16.9953 37.614 17.5928 37.8965 18.1135L37.8799 17.7038L38.1292 17.5758C38.3535 17.4563 38.5944 17.3538 38.8271 17.2514C39.4253 16.9953 40.0485 16.7819 40.6717 16.6026C44.3275 15.5442 49.7117 15.5442 53.3675 16.6026C53.9907 16.7819 54.6139 17.0038 55.2121 17.2514C55.4447 17.3453 55.6857 17.4563 55.91 17.5758L56.1593 17.7038L56.1427 18.1135C56.4252 17.5928 56.5914 16.9953 56.5914 16.3636C56.5914 14.4089 54.9794 13.2565 53.1266 12.8041C51.3651 12.3773 49.6036 12.1212 47.8422 12.0615C48.2078 11.5834 48.7728 11.2761 49.3378 10.9774C50.5841 10.303 51.7972 9.64575 51.9467 7.75928C49.6369 8.05805 50.8001 7.94708 48.5235 9.38967C47.4267 9.9872 46.305 10.5933 45.8813 12.07Z" fill="url(#paint1_linear_1605:8806)"/>
<path fill-rule="evenodd" clip-rule="evenodd" d="M2.14368 0H5.60846L5.69154 1.8694C6.1236 7.84464 12.4051 8.34827 14.1832 11.7286C15.9612 8.34827 22.2427 7.83611 22.6748 1.8694L22.7579 0H26.2226C27.4025 0 28.3663 0.990183 28.3663 2.2023V37.7892C28.3663 39.0013 27.4025 39.9915 26.2226 39.9915H22.7662L22.8742 37.627C18.5785 35.3308 9.7961 35.3308 5.50044 37.627L5.60846 39.9915H2.14368C0.963823 40 0 39.0013 0 37.7892V2.2023C0 0.990183 0.963823 0 2.14368 0ZM20.7637 0C19.5424 3.55954 17.8889 5.36065 16.4349 6.3423C19.2017 4.72044 20.6059 2.86812 20.9715 0H20.7637ZM13.0532 31.7371C11.3997 31.8139 9.73794 32.0529 8.08448 32.4712C6.23162 32.9407 4.61971 34.076 4.61971 36.0307C4.61971 36.6624 4.78588 37.2599 5.06838 37.7806L5.05176 37.3709L5.30103 37.2429C5.52537 37.1233 5.76632 37.0209 5.99897 36.9185C6.59721 36.6624 7.22037 36.449 7.84353 36.2697C11.4994 35.2113 16.8835 35.2113 20.5394 36.2697C21.1626 36.449 21.7857 36.6709 22.384 36.9185C22.6166 37.0124 22.8576 37.1233 23.0819 37.2429L23.3312 37.3709L23.3146 37.7806C23.5971 37.2599 23.7632 36.6624 23.7632 36.0307C23.7632 34.076 22.1513 32.9236 20.2985 32.4712C18.537 32.0444 16.7755 31.7883 15.014 31.7286C15.3796 31.2505 15.9446 30.9432 16.5096 30.6445C17.756 29.9701 18.969 29.3128 19.1186 27.4264C16.8087 27.7251 17.972 27.6142 15.6954 29.0568C14.5986 29.6458 13.4769 30.2518 13.0532 31.7371Z" fill="url(#paint2_linear_1605:8806)"/>
<path fill-rule="evenodd" clip-rule="evenodd" d="M117.287 23.0048C122.115 23.0048 125.081 19.9233 125.081 15.7321V15.6724C125.081 11.5409 122.206 9.95321 119.265 9.44104L124.741 4.07186V0.384277H110.109V4.57549H118.617L113.449 9.91052L114.188 13.0262H116.166C118.825 13.0262 120.403 14.042 120.403 15.8516V15.9114C120.403 17.5674 119.132 18.6088 117.337 18.6088C115.144 18.6088 113.598 17.6527 112.111 15.937L108.846 19.1636C110.699 21.4171 113.391 23.0048 117.287 23.0048Z" fill="white"/>
<path fill-rule="evenodd" clip-rule="evenodd" d="M149.268 23.0047C155.948 23.0047 160.801 17.8233 160.801 11.4981V11.4383C160.801 5.1131 156.006 0 149.326 0C142.646 0 137.793 5.18139 137.793 11.4981V11.5578C137.793 17.8916 142.588 23.0047 149.268 23.0047ZM149.326 18.4891C145.487 18.4891 142.77 15.3137 142.77 11.4981V11.4383C142.77 7.62271 145.429 4.51558 149.268 4.51558C153.107 4.51558 155.824 7.69099 155.824 11.5066V11.5664C155.824 15.382 153.165 18.4891 149.326 18.4891Z" fill="white"/>
<path fill-rule="evenodd" clip-rule="evenodd" d="M161.79 22.6206H166.642L168.619 17.6355H177.776L179.753 22.6206H184.73L175.466 0.221924H171.071L161.79 22.6206ZM170.331 13.3162L173.206 6.10327L176.081 13.3162H170.331Z" fill="white"/>
<path fill-rule="evenodd" clip-rule="evenodd" d="M188.079 22.6207H192.848V15.826L195.349 13.1542L202.062 22.6207H207.779L198.564 9.81663L207.38 0.384277H201.63L192.848 10.1069V0.384277H188.079V22.6207Z" fill="white"/>
<path fill-rule="evenodd" clip-rule="evenodd" d="M218.048 22.9448C222.718 22.9448 226 20.4693 226 16.0476V15.9879C226 12.1125 223.524 10.4907 219.137 9.31267C215.398 8.33103 214.467 7.85301 214.467 6.39334V6.32505C214.467 5.24097 215.423 4.38736 217.251 4.38736C219.079 4.38736 220.965 5.21536 222.876 6.58113L225.352 2.89355C223.158 1.08391 220.466 0.0681152 217.309 0.0681152C212.889 0.0681152 209.731 2.7399 209.731 6.76893V6.82868C209.731 11.2418 212.548 12.4881 216.91 13.6319C220.533 14.588 221.272 15.2196 221.272 16.4574V16.5171C221.272 17.8231 220.101 18.617 218.148 18.617C215.672 18.617 213.636 17.567 211.684 15.9196L208.867 19.3852C211.46 21.7668 214.775 22.9448 218.048 22.9448Z" fill="white"/>
<path fill-rule="evenodd" clip-rule="evenodd" d="M113.598 40C115.252 40 116.531 39.3342 117.462 38.5233V34.4943H113.532V36.2612H115.534V37.5843C115.027 37.9599 114.388 38.1392 113.665 38.1392C112.061 38.1392 110.931 36.8929 110.931 35.1942V35.1686C110.931 33.5895 112.078 32.2749 113.524 32.2749C114.571 32.2749 115.194 32.6163 115.883 33.2139L117.138 31.6603C116.199 30.8408 115.21 30.3884 113.59 30.3884C110.856 30.3884 108.854 32.5481 108.854 35.1942V35.2198C108.846 37.9684 110.782 40 113.598 40Z" fill="white"/>
<path fill-rule="evenodd" clip-rule="evenodd" d="M130.997 39.8377H133.024L133.847 37.7549H137.669L138.492 39.8377H140.569L136.697 30.4822H134.861L130.997 39.8377ZM134.562 35.9538L135.766 32.9406L136.971 35.9538H134.562Z" fill="white"/>
<path fill-rule="evenodd" clip-rule="evenodd" d="M154.386 39.838H156.33V33.8116L158.848 37.7467H158.906L161.449 33.7774V39.838H163.426V30.5508H161.283L158.906 34.4774L156.53 30.5508H154.386V39.838Z" fill="white"/>
<path d="M180.077 30.5508H178.091V39.838H180.077V30.5508Z" fill="white"/>
<path fill-rule="evenodd" clip-rule="evenodd" d="M194.742 39.838H196.711V33.9311L201.09 39.838H202.777V30.5508H200.816V36.2699L196.578 30.5508H194.742V39.838Z" fill="white"/>
<path fill-rule="evenodd" clip-rule="evenodd" d="M221.705 40C223.358 40 224.638 39.3342 225.568 38.5233V34.4943H221.638V36.2612H223.641V37.5843C223.134 37.9599 222.494 38.1392 221.771 38.1392C220.168 38.1392 219.029 36.8929 219.029 35.1942V35.1686C219.029 33.5895 220.176 32.2749 221.622 32.2749C222.669 32.2749 223.292 32.6163 223.981 33.2139L225.236 31.6603C224.297 30.8408 223.308 30.3884 221.688 30.3884C218.955 30.3884 216.952 32.5481 216.952 35.1942V35.2198C216.952 37.9684 218.896 40 221.705 40Z" fill="white"/>
</g>
<defs>
<linearGradient id="paint0_linear_1605:8806" x1="92.637" y1="1.5679" x2="66.4221" y2="37.3568" gradientUnits="userSpaceOnUse">
<stop stop-color="#F8B900"/>
<stop offset="1" stop-color="#E67508"/>
</linearGradient>
<linearGradient id="paint1_linear_1605:8806" x1="59.808" y1="1.56799" x2="33.593" y2="37.3568" gradientUnits="userSpaceOnUse">
<stop stop-color="#F8B900"/>
<stop offset="1" stop-color="#E67508"/>
</linearGradient>
<linearGradient id="paint2_linear_1605:8806" x1="26.9789" y1="1.5679" x2="0.763851" y2="37.3568" gradientUnits="userSpaceOnUse">
<stop stop-color="#F8B900"/>
<stop offset="1" stop-color="#E67508"/>
</linearGradient>
<clipPath id="clip0_1605:8806">
<rect width="226" height="40" fill="white" />
</clipPath>
</defs>
</svg>
