<svg id="android" width="120" height="40" viewBox="0 0 120 40" fill="none" xmlns="http://www.w3.org/2000/svg">
<path fill-rule="evenodd" clip-rule="evenodd" d="M114 1H6C3.23858 1 1 3.23858 1 6V34C1 36.7614 3.23858 39 6 39H114C116.761 39 119 36.7614 119 34V6C119 3.23858 116.761 1 114 1ZM6 0C2.68629 0 0 2.68629 0 6V34C0 37.3137 2.68629 40 6 40H114C117.314 40 120 37.3137 120 34V6C120 2.68629 117.314 0 114 0H6Z"/>
<path d="M24.4324 15.2627H13.5676C13.4486 15.2655 13.3357 15.3143 13.2535 15.3985C13.1713 15.4826 13.1266 15.5952 13.1293 15.7115V25.0712C13.1266 25.1876 13.1713 25.3002 13.2534 25.3845C13.3356 25.4688 13.4486 25.5178 13.5676 25.5208H15.5044V28.6747C15.5044 29.4069 16.0822 30 16.7941 30C17.5069 30 18.0847 29.4069 18.0847 28.6747V25.5199H19.8883V28.6738C19.8883 29.406 20.4661 29.9991 21.1789 29.9991C21.8908 29.9991 22.4686 29.406 22.4686 28.6738V25.5199H24.4324C24.5514 25.5172 24.6643 25.4684 24.7465 25.3842C24.8287 25.3001 24.8734 25.1875 24.8707 25.0712V15.7106C24.8731 15.5944 24.8284 15.4819 24.7462 15.3978C24.6641 15.3137 24.5513 15.2649 24.4324 15.2619V15.2627ZM11.2897 15.2601C10.5778 15.2601 10 15.8532 10 16.5854V21.9674C10 22.6987 10.5778 23.2918 11.2897 23.2918C12.0025 23.2918 12.5803 22.6987 12.5803 21.9674V16.5854C12.5803 15.8532 12.0025 15.2601 11.2897 15.2601ZM26.7103 15.2601C25.9975 15.2601 25.4197 15.8532 25.4197 16.5854V21.9674C25.4197 22.6987 25.9975 23.2918 26.7103 23.2918C27.4222 23.2918 28 22.6987 28 21.9674V16.5854C28 15.8532 27.4222 15.2601 26.7103 15.2601ZM13.6549 14.6063H24.3199C24.5971 14.6063 24.805 14.3423 24.7474 14.0633C24.3946 12.3368 23.3245 10.8812 21.8719 10.0408L22.7836 8.35126C22.8136 8.2965 22.8209 8.2326 22.8042 8.1727C22.7874 8.11279 22.7479 8.06144 22.6936 8.02918C22.667 8.01427 22.6376 8.00483 22.6072 8.00143C22.5768 7.99802 22.546 8.00073 22.5166 8.00938C22.4873 8.01803 22.4601 8.03244 22.4367 8.05173C22.4133 8.07103 22.3941 8.09479 22.3804 8.12158L21.4624 9.82349C20.6917 9.45526 19.8452 9.26413 18.9874 9.26469C18.1297 9.26431 17.2831 9.45543 16.5124 9.82349L15.5944 8.12246C15.5807 8.09555 15.5615 8.07168 15.538 8.05231C15.5145 8.03293 15.4872 8.01847 15.4578 8.00981C15.4284 8.00116 15.3974 7.99849 15.3669 8.00197C15.3364 8.00545 15.3069 8.01501 15.2803 8.03006C15.226 8.06232 15.1865 8.11367 15.1697 8.17358C15.153 8.23348 15.1603 8.29738 15.1903 8.35214L16.102 10.0408C14.6494 10.8812 13.5793 12.3359 13.2265 14.0624C13.1698 14.3431 13.3768 14.6063 13.6549 14.6063ZM22.1689 12.0886C22.1689 12.3702 21.9475 12.5972 21.6739 12.5972C21.6071 12.5957 21.5413 12.5814 21.4802 12.555C21.4191 12.5287 21.3639 12.4908 21.3177 12.4436C21.2716 12.3963 21.2354 12.3407 21.2113 12.2798C21.1872 12.2188 21.1755 12.1539 21.1771 12.0886C21.1771 11.807 21.3994 11.5782 21.673 11.5782C21.9475 11.5782 22.1689 11.807 22.1689 12.0886ZM16.3009 11.5782C16.5745 11.5782 16.7968 11.807 16.7968 12.0886C16.7968 12.3702 16.5745 12.5972 16.3009 12.5972C16.1662 12.594 16.0383 12.5386 15.9453 12.4432C15.8523 12.3479 15.8019 12.2203 15.805 12.0886C15.805 11.807 16.0273 11.5782 16.3009 11.5782Z" fill="currentColor"/>
<path d="M37 15V8.60156H38.8896C39.4551 8.60156 39.9561 8.72754 40.3926 8.97949C40.832 9.23145 41.1719 9.58887 41.4121 10.0518C41.6523 10.5146 41.7725 11.0449 41.7725 11.6426V11.9634C41.7725 12.5698 41.6509 13.103 41.4077 13.563C41.1675 14.0229 40.8232 14.3774 40.375 14.6265C39.9297 14.8755 39.4185 15 38.8413 15H37ZM38.1118 9.49805V14.1123H38.8369C39.4199 14.1123 39.8667 13.9307 40.1772 13.5674C40.4907 13.2012 40.6504 12.6768 40.6562 11.9941V11.6382C40.6562 10.9438 40.5054 10.4136 40.2036 10.0474C39.9019 9.68115 39.4639 9.49805 38.8896 9.49805H38.1118Z" fill="currentColor"/>
<path d="M42.9367 12.5786C42.9367 12.1128 43.0289 11.6938 43.2135 11.3218C43.3981 10.9468 43.6574 10.6597 43.9913 10.4604C44.3253 10.2583 44.7091 10.1572 45.1427 10.1572C45.7843 10.1572 46.3043 10.3638 46.7028 10.7769C47.1041 11.1899 47.3209 11.7378 47.3532 12.4204L47.3576 12.6709C47.3576 13.1396 47.2667 13.5586 47.0851 13.9277C46.9064 14.2969 46.6486 14.5825 46.3117 14.7847C45.9777 14.9868 45.591 15.0879 45.1515 15.0879C44.4806 15.0879 43.943 14.8652 43.5387 14.4199C43.1373 13.9717 42.9367 13.3755 42.9367 12.6313V12.5786ZM44.0045 12.6709C44.0045 13.1602 44.1056 13.5439 44.3078 13.8223C44.5099 14.0977 44.7912 14.2354 45.1515 14.2354C45.5119 14.2354 45.7916 14.0947 45.9909 13.8135C46.193 13.5322 46.2941 13.1206 46.2941 12.5786C46.2941 12.0981 46.1901 11.7173 45.9821 11.436C45.777 11.1548 45.4972 11.0142 45.1427 11.0142C44.7941 11.0142 44.5172 11.1533 44.3121 11.4316C44.1071 11.707 44.0045 12.1201 44.0045 12.6709Z" fill="currentColor"/>
<path d="M52.7976 13.5278L53.5535 10.2451H54.595L53.2986 15H52.4197L51.4002 11.7349L50.3982 15H49.5193L48.2185 10.2451H49.26L50.0291 13.4927L51.0047 10.2451H51.8089L52.7976 13.5278Z" fill="currentColor"/>
<path d="M56.6601 10.2451L56.6908 10.7944C57.0424 10.3696 57.5038 10.1572 58.0751 10.1572C59.0654 10.1572 59.5693 10.7241 59.5868 11.8579V15H58.519V11.9194C58.519 11.6177 58.453 11.395 58.3212 11.2515C58.1923 11.105 57.9799 11.0317 57.684 11.0317C57.2533 11.0317 56.9325 11.2266 56.7216 11.6162V15H55.6537V10.2451H56.6601Z" fill="currentColor"/>
<path d="M62.1749 15H61.107V8.25H62.1749V15Z" fill="currentColor"/>
<path d="M63.5017 12.5786C63.5017 12.1128 63.5939 11.6938 63.7785 11.3218C63.9631 10.9468 64.2224 10.6597 64.5563 10.4604C64.8903 10.2583 65.2741 10.1572 65.7077 10.1572C66.3493 10.1572 66.8693 10.3638 67.2678 10.7769C67.6691 11.1899 67.8859 11.7378 67.9182 12.4204L67.9226 12.6709C67.9226 13.1396 67.8317 13.5586 67.6501 13.9277C67.4714 14.2969 67.2136 14.5825 66.8767 14.7847C66.5427 14.9868 66.156 15.0879 65.7165 15.0879C65.0456 15.0879 64.508 14.8652 64.1037 14.4199C63.7023 13.9717 63.5017 13.3755 63.5017 12.6313V12.5786ZM64.5695 12.6709C64.5695 13.1602 64.6706 13.5439 64.8728 13.8223C65.0749 14.0977 65.3562 14.2354 65.7165 14.2354C66.0769 14.2354 66.3566 14.0947 66.5559 13.8135C66.758 13.5322 66.8591 13.1206 66.8591 12.5786C66.8591 12.0981 66.7551 11.7173 66.5471 11.436C66.342 11.1548 66.0622 11.0142 65.7077 11.0142C65.3591 11.0142 65.0822 11.1533 64.8771 11.4316C64.6721 11.707 64.5695 12.1201 64.5695 12.6709Z" fill="currentColor"/>
<path d="M72.0267 15C71.9798 14.9092 71.9388 14.7612 71.9037 14.5562C71.5638 14.9106 71.1478 15.0879 70.6556 15.0879C70.1781 15.0879 69.7884 14.9517 69.4867 14.6792C69.1849 14.4067 69.034 14.0698 69.034 13.6685C69.034 13.1616 69.2215 12.7734 69.5965 12.5039C69.9745 12.2314 70.5135 12.0952 71.2137 12.0952H71.8685V11.7832C71.8685 11.5371 71.7996 11.3408 71.662 11.1943C71.5243 11.0449 71.3148 10.9702 71.0335 10.9702C70.7904 10.9702 70.5912 11.0317 70.4359 11.1548C70.2806 11.2749 70.203 11.4287 70.203 11.6162H69.1351C69.1351 11.3555 69.2215 11.1123 69.3944 10.8867C69.5672 10.6582 69.8016 10.4795 70.0975 10.3506C70.3963 10.2217 70.7288 10.1572 71.0951 10.1572C71.6517 10.1572 72.0955 10.2979 72.4266 10.5791C72.7577 10.8574 72.9276 11.25 72.9364 11.7568V13.9014C72.9364 14.3291 72.9964 14.6704 73.1165 14.9253V15H72.0267ZM70.8534 14.231C71.0643 14.231 71.2621 14.1797 71.4466 14.0771C71.6341 13.9746 71.7747 13.8369 71.8685 13.6641V12.7676H71.2928C70.8973 12.7676 70.5999 12.8364 70.4007 12.9741C70.2015 13.1118 70.1019 13.3066 70.1019 13.5586C70.1019 13.7637 70.1693 13.9277 70.304 14.0508C70.4417 14.1709 70.6248 14.231 70.8534 14.231Z" fill="currentColor"/>
<path d="M74.2148 12.5874C74.2148 11.855 74.3847 11.2676 74.7246 10.8252C75.0644 10.3799 75.52 10.1572 76.0913 10.1572C76.5952 10.1572 77.0024 10.333 77.313 10.6846V8.25H78.3808V15H77.414L77.3613 14.5078C77.042 14.8945 76.6157 15.0879 76.0825 15.0879C75.5259 15.0879 75.0747 14.8638 74.729 14.4155C74.3862 13.9673 74.2148 13.3579 74.2148 12.5874ZM75.2827 12.6797C75.2827 13.1631 75.375 13.541 75.5596 13.8135C75.7471 14.083 76.0122 14.2178 76.355 14.2178C76.7915 14.2178 77.1108 14.0229 77.313 13.6333V11.603C77.1167 11.2222 76.8003 11.0317 76.3638 11.0317C76.018 11.0317 75.7514 11.1694 75.5639 11.4448C75.3764 11.7173 75.2827 12.1289 75.2827 12.6797Z" fill="currentColor"/>
<path d="M83.1218 13.875C83.3211 13.875 83.4749 13.9321 83.5833 14.0464C83.6917 14.1577 83.7459 14.2983 83.7459 14.4683C83.7459 14.6353 83.6917 14.7744 83.5833 14.8857C83.4749 14.9941 83.3211 15.0483 83.1218 15.0483C82.9314 15.0483 82.7805 14.9941 82.6692 14.8857C82.5579 14.7773 82.5022 14.6382 82.5022 14.4683C82.5022 14.2983 82.5564 14.1577 82.6648 14.0464C82.7732 13.9321 82.9255 13.875 83.1218 13.875Z" fill="currentColor"/>
<path d="M88.1708 15C88.1239 14.9092 88.0829 14.7612 88.0478 14.5562C87.7079 14.9106 87.2919 15.0879 86.7997 15.0879C86.3222 15.0879 85.9325 14.9517 85.6308 14.6792C85.329 14.4067 85.1781 14.0698 85.1781 13.6685C85.1781 13.1616 85.3656 12.7734 85.7406 12.5039C86.1186 12.2314 86.6576 12.0952 87.3578 12.0952H88.0126V11.7832C88.0126 11.5371 87.9437 11.3408 87.8061 11.1943C87.6684 11.0449 87.4589 10.9702 87.1776 10.9702C86.9345 10.9702 86.7353 11.0317 86.58 11.1548C86.4247 11.2749 86.3471 11.4287 86.3471 11.6162H85.2792C85.2792 11.3555 85.3656 11.1123 85.5385 10.8867C85.7113 10.6582 85.9457 10.4795 86.2416 10.3506C86.5404 10.2217 86.8729 10.1572 87.2392 10.1572C87.7958 10.1572 88.2396 10.2979 88.5707 10.5791C88.9018 10.8574 89.0717 11.25 89.0805 11.7568V13.9014C89.0805 14.3291 89.1405 14.6704 89.2606 14.9253V15H88.1708ZM86.9975 14.231C87.2084 14.231 87.4062 14.1797 87.5907 14.0771C87.7782 13.9746 87.9188 13.8369 88.0126 13.6641V12.7676H87.4369C87.0414 12.7676 86.744 12.8364 86.5448 12.9741C86.3456 13.1118 86.246 13.3066 86.246 13.5586C86.246 13.7637 86.3134 13.9277 86.4481 14.0508C86.5858 14.1709 86.7689 14.231 86.9975 14.231Z" fill="currentColor"/>
<path d="M94.7227 12.6709C94.7227 13.4062 94.5557 13.9937 94.2217 14.4331C93.8877 14.8696 93.4395 15.0879 92.877 15.0879C92.3555 15.0879 91.938 14.9165 91.6245 14.5737V16.8281H90.5567V10.2451H91.5411L91.585 10.7285C91.8985 10.3477 92.3247 10.1572 92.8638 10.1572C93.4439 10.1572 93.898 10.374 94.2261 10.8076C94.5572 11.2383 94.7227 11.8374 94.7227 12.605V12.6709ZM93.6592 12.5786C93.6592 12.104 93.564 11.7275 93.3736 11.4492C93.1861 11.1709 92.9165 11.0317 92.565 11.0317C92.1285 11.0317 91.815 11.2119 91.6245 11.5723V13.6816C91.8179 14.0508 92.1343 14.2354 92.5738 14.2354C92.9136 14.2354 93.1787 14.0991 93.3692 13.8267C93.5625 13.5513 93.6592 13.1353 93.6592 12.5786Z" fill="currentColor"/>
<path d="M97.5348 12.9609L97.0602 13.4487V15H95.9924V8.25H97.0602V12.1436L97.3942 11.7261L98.7082 10.2451H99.9914L98.2248 12.2271L100.18 15H98.9455L97.5348 12.9609Z" fill="currentColor"/>
<path d="M43.8442 28.186H39.1626L38.1831 31H36L40.5654 18.9141H42.4497L47.0234 31H44.832L43.8442 28.186ZM39.752 26.4927H43.2549L41.5034 21.479L39.752 26.4927Z" fill="currentColor"/>
<path d="M50.3597 22.0186L50.4178 23.0562C51.0819 22.2537 51.9534 21.8525 53.0325 21.8525C54.903 21.8525 55.8548 22.9233 55.888 25.0649V31H53.8709V25.1812C53.8709 24.6112 53.7464 24.1906 53.4974 23.9194C53.2539 23.6427 52.8527 23.5044 52.2938 23.5044C51.4803 23.5044 50.8743 23.8724 50.4759 24.6084V31H48.4588V22.0186H50.3597Z" fill="currentColor"/>
<path d="M58.2531 26.4429C58.2531 25.0594 58.574 23.9499 59.216 23.1143C59.8579 22.2731 60.7184 21.8525 61.7975 21.8525C62.7493 21.8525 63.5185 22.1846 64.1051 22.8486V18.25H66.1222V31H64.296L64.1964 30.0703C63.5932 30.8008 62.7881 31.166 61.7809 31.166C60.7295 31.166 59.8773 30.7427 59.2243 29.896C58.5768 29.0493 58.2531 27.8983 58.2531 26.4429ZM60.2702 26.6172C60.2702 27.5303 60.4445 28.2441 60.7931 28.7588C61.1473 29.2679 61.6481 29.5225 62.2955 29.5225C63.1201 29.5225 63.7233 29.1545 64.1051 28.4185V24.5835C63.7344 23.8641 63.1367 23.5044 62.3121 23.5044C61.6592 23.5044 61.1556 23.7645 60.8014 24.2847C60.4472 24.7993 60.2702 25.5768 60.2702 26.6172Z" fill="currentColor"/>
<path d="M73.6088 23.8613C73.3432 23.8171 73.0693 23.7949 72.7871 23.7949C71.8629 23.7949 71.2404 24.1491 70.9194 24.8574V31H68.9023V22.0186H70.8281L70.8779 23.0229C71.3649 22.2427 72.04 21.8525 72.9033 21.8525C73.191 21.8525 73.429 21.8913 73.6171 21.9688L73.6088 23.8613Z" fill="currentColor"/>
<path d="M74.8865 26.4263C74.8865 25.5464 75.0608 24.755 75.4095 24.0522C75.7581 23.3439 76.2478 22.8016 76.8787 22.4253C77.5096 22.0435 78.2345 21.8525 79.0535 21.8525C80.2654 21.8525 81.2477 22.2427 82.0003 23.0229C82.7584 23.8032 83.1679 24.8381 83.2288 26.1274L83.2371 26.6006C83.2371 27.486 83.0655 28.2773 82.7224 28.9746C82.3849 29.6719 81.8979 30.2114 81.2615 30.5933C80.6306 30.9751 79.9002 31.166 79.0701 31.166C77.8028 31.166 76.7874 30.7454 76.0237 29.9043C75.2656 29.0576 74.8865 27.9315 74.8865 26.5259V26.4263ZM76.9036 26.6006C76.9036 27.5247 77.0945 28.2497 77.4763 28.7754C77.8582 29.2956 78.3894 29.5557 79.0701 29.5557C79.7508 29.5557 80.2792 29.29 80.6555 28.7588C81.0374 28.2275 81.2283 27.45 81.2283 26.4263C81.2283 25.5187 81.0318 24.7993 80.6389 24.2681C80.2516 23.7368 79.7231 23.4712 79.0535 23.4712C78.395 23.4712 77.872 23.734 77.4846 24.2598C77.0973 24.7799 76.9036 25.5602 76.9036 26.6006Z" fill="currentColor"/>
<path d="M87.7687 31H85.7516V22.0186H87.7687V31ZM85.6271 19.686C85.6271 19.3761 85.7239 19.1188 85.9176 18.9141C86.1168 18.7093 86.399 18.6069 86.7643 18.6069C87.1295 18.6069 87.4117 18.7093 87.6109 18.9141C87.8102 19.1188 87.9098 19.3761 87.9098 19.686C87.9098 19.9904 87.8102 20.245 87.6109 20.4497C87.4117 20.6489 87.1295 20.7485 86.7643 20.7485C86.399 20.7485 86.1168 20.6489 85.9176 20.4497C85.7239 20.245 85.6271 19.9904 85.6271 19.686Z" fill="currentColor"/>
<path d="M90.2748 26.4429C90.2748 25.0594 90.5958 23.9499 91.2377 23.1143C91.8796 22.2731 92.7402 21.8525 93.8193 21.8525C94.7711 21.8525 95.5403 22.1846 96.1269 22.8486V18.25H98.144V31H96.3178L96.2182 30.0703C95.615 30.8008 94.8098 31.166 93.8027 31.166C92.7512 31.166 91.899 30.7427 91.246 29.896C90.5986 29.0493 90.2748 27.8983 90.2748 26.4429ZM92.2919 26.6172C92.2919 27.5303 92.4662 28.2441 92.8149 28.7588C93.169 29.2679 93.6698 29.5225 94.3173 29.5225C95.1418 29.5225 95.745 29.1545 96.1269 28.4185V24.5835C95.7561 23.8641 95.1585 23.5044 94.3339 23.5044C93.6809 23.5044 93.1773 23.7645 92.8232 24.2847C92.469 24.7993 92.2919 25.5768 92.2919 26.6172Z" fill="currentColor"/>
</svg>
