<svg id="apple" width="120" height="40" viewBox="0 0 120 40" fill="none" xmlns="http://www.w3.org/2000/svg">
<g clip-path="url(#clip0_70_32936)">
<path fill-rule="evenodd" clip-rule="evenodd" d="M114 1H6C3.23858 1 1 3.23858 1 6V34C1 36.7614 3.23858 39 6 39H114C116.761 39 119 36.7614 119 34V6C119 3.23858 116.761 1 114 1ZM6 0C2.68629 0 0 2.68629 0 6V34C0 37.3137 2.68629 40 6 40H114C117.314 40 120 37.3137 120 34V6C120 2.68629 117.314 0 114 0H6Z"/>
<g clip-path="url(#clip1_70_32936)">
<path d="M25.034 19.6988C25.045 18.8556 25.2702 18.0288 25.6888 17.2953C26.1075 16.5619 26.7058 15.9457 27.4283 15.504C26.9694 14.8522 26.3639 14.3158 25.66 13.9374C24.956 13.559 24.1731 13.349 23.3733 13.3242C21.6672 13.1461 20.0132 14.3393 19.1438 14.3393C18.2576 14.3393 16.919 13.3418 15.4775 13.3713C14.5452 13.4013 13.6365 13.6709 12.8401 14.1539C12.0437 14.6368 11.3867 15.3167 10.9331 16.1273C8.96817 19.5101 10.4338 24.4818 12.316 27.2163C13.2578 28.5553 14.3584 30.0509 15.7985 29.9979C17.2078 29.9398 17.7341 29.1043 19.4352 29.1043C21.1205 29.1043 21.6143 29.9979 23.0836 29.9642C24.5958 29.9398 25.5486 28.6192 26.4573 27.2676C27.1339 26.3135 27.6546 25.259 28 24.1432C27.1215 23.7738 26.3717 23.1553 25.8443 22.3649C25.3169 21.5746 25.0351 20.6473 25.034 19.6988Z" fill="currentColor"/>
<path d="M22.2587 11.5258C23.0833 10.5416 23.4895 9.27651 23.3911 7.99927C22.1314 8.13083 20.9678 8.72948 20.1322 9.67595C19.7236 10.1383 19.4107 10.6762 19.2113 11.2589C19.0119 11.8416 18.93 12.4577 18.9702 13.0719C19.6002 13.0784 20.2236 12.9426 20.7932 12.6748C21.3628 12.4069 21.8639 12.0141 22.2587 11.5258Z" fill="currentColor"/>
</g>
<path d="M37.9323 8.73089C38.323 8.70293 38.7151 8.76179 39.0802 8.90323C39.4454 9.04466 39.7745 9.26514 40.0438 9.54876C40.3131 9.83239 40.516 10.1721 40.6377 10.5434C40.7595 10.9146 40.7971 11.3082 40.7478 11.6957C40.7478 13.602 39.7147 14.6977 37.9323 14.6977H35.771V8.73089H37.9323ZM36.7003 13.8539H37.8285C38.1077 13.8705 38.3871 13.8249 38.6464 13.7203C38.9056 13.6157 39.1382 13.4547 39.3273 13.2491C39.5163 13.0436 39.657 12.7986 39.739 12.5319C39.8211 12.2653 39.8426 11.9838 39.8018 11.7079C39.8396 11.4331 39.816 11.1533 39.7327 10.8886C39.6493 10.624 39.5083 10.381 39.3197 10.177C39.1311 9.9731 38.8996 9.81329 38.6418 9.70905C38.384 9.60481 38.1063 9.55873 37.8285 9.5741H36.7003V13.8539Z" fill="currentColor"/>
<path d="M41.7977 12.444C41.7693 12.1481 41.8032 11.8496 41.8973 11.5675C41.9914 11.2854 42.1436 11.0261 42.3441 10.8061C42.5446 10.5861 42.789 10.4103 43.0616 10.2901C43.3343 10.1698 43.6291 10.1077 43.9272 10.1077C44.2253 10.1077 44.5201 10.1698 44.7927 10.2901C45.0653 10.4103 45.3097 10.5861 45.5102 10.8061C45.7107 11.0261 45.8629 11.2854 45.957 11.5675C46.0511 11.8496 46.0851 12.1481 46.0567 12.444C46.0856 12.7403 46.0521 13.0392 45.9582 13.3218C45.8643 13.6043 45.7123 13.8641 45.5117 14.0845C45.3111 14.3049 45.0666 14.4811 44.7937 14.6016C44.5208 14.7221 44.2256 14.7844 43.9272 14.7844C43.6287 14.7844 43.3336 14.7221 43.0607 14.6016C42.7878 14.4811 42.5432 14.3049 42.3426 14.0845C42.1421 13.8641 41.99 13.6043 41.8961 13.3218C41.8023 13.0392 41.7687 12.7403 41.7977 12.444ZM45.14 12.444C45.14 11.468 44.7003 10.8972 43.9286 10.8972C43.154 10.8972 42.7182 11.468 42.7182 12.4441C42.7182 13.4279 43.154 13.9943 43.9286 13.9943C44.7003 13.9943 45.14 13.424 45.14 12.444H45.14Z" fill="currentColor"/>
<path d="M51.7181 14.6975H50.7937L49.8604 11.3811H49.7899L48.8605 14.6975H47.9449L46.7002 10.1946H47.6041L48.413 13.6306H48.4796L49.408 10.1946H50.2629L51.1913 13.6306H51.2618L52.0668 10.1946H52.9579L51.7181 14.6975Z" fill="currentColor"/>
<path d="M54.0049 10.1946H54.8628V10.91H54.9294C55.0423 10.653 55.2329 10.4377 55.4744 10.2939C55.716 10.15 55.9965 10.085 56.2769 10.1077C56.4966 10.0912 56.7172 10.1243 56.9224 10.2044C57.1276 10.2845 57.312 10.4096 57.4621 10.5704C57.6122 10.7313 57.7241 10.9237 57.7895 11.1335C57.8549 11.3434 57.8721 11.5652 57.8398 11.7825V14.6975H56.9487V12.0057C56.9487 11.282 56.6333 10.9222 55.9743 10.9222C55.8251 10.9152 55.6762 10.9406 55.5377 10.9964C55.3993 11.0522 55.2746 11.1372 55.1722 11.2456C55.0698 11.354 54.9921 11.4832 54.9444 11.6243C54.8967 11.7655 54.8802 11.9152 54.896 12.0633V14.6976H54.0049L54.0049 10.1946Z" fill="currentColor"/>
<path d="M59.2598 8.43677H60.1509V14.6975H59.2598V8.43677Z" fill="currentColor"/>
<path d="M61.3894 12.4441C61.3611 12.1482 61.395 11.8496 61.4892 11.5675C61.5833 11.2854 61.7355 11.0261 61.936 10.8061C62.1365 10.5861 62.381 10.4104 62.6536 10.2901C62.9262 10.1698 63.2211 10.1077 63.5192 10.1077C63.8173 10.1077 64.1121 10.1698 64.3848 10.2901C64.6574 10.4104 64.9018 10.5861 65.1023 10.8061C65.3028 11.0261 65.4551 11.2854 65.5492 11.5675C65.6433 11.8496 65.6773 12.1482 65.6489 12.4441C65.6778 12.7404 65.6442 13.0393 65.5503 13.3219C65.4565 13.6044 65.3043 13.8642 65.1038 14.0846C64.9032 14.305 64.6586 14.4811 64.3857 14.6017C64.1128 14.7222 63.8176 14.7845 63.5192 14.7845C63.2207 14.7845 62.9255 14.7222 62.6526 14.6017C62.3797 14.4811 62.1352 14.305 61.9346 14.0846C61.734 13.8642 61.5819 13.6044 61.488 13.3219C61.3941 13.0393 61.3606 12.7404 61.3894 12.4441ZM64.7318 12.4441C64.7318 11.4681 64.2921 10.8973 63.5204 10.8973C62.7458 10.8973 62.31 11.4681 62.31 12.4441C62.31 13.428 62.7458 13.9944 63.5204 13.9944C64.2921 13.9944 64.7318 13.4241 64.7318 12.4441H64.7318Z" fill="currentColor"/>
<path d="M66.5874 13.4241C66.5874 12.6135 67.1926 12.1462 68.2669 12.0798L69.4901 12.0095V11.6208C69.4901 11.1453 69.1747 10.8767 68.5656 10.8767C68.0681 10.8767 67.7234 11.0588 67.6245 11.3772H66.7617C66.8528 10.6038 67.5824 10.1077 68.6067 10.1077C69.7388 10.1077 70.3773 10.6697 70.3773 11.6208V14.6975H69.5194V14.0647H69.4489C69.3058 14.2917 69.1048 14.4767 68.8666 14.6009C68.6283 14.7252 68.3612 14.7841 68.0926 14.7717C67.903 14.7914 67.7114 14.7712 67.5302 14.7125C67.3489 14.6538 67.182 14.5579 67.0402 14.4309C66.8983 14.3039 66.7848 14.1487 66.7068 13.9753C66.6288 13.8019 66.5881 13.6141 66.5874 13.4241ZM69.4901 13.0393V12.6628L68.3874 12.7331C67.7655 12.7746 67.4835 12.9856 67.4835 13.3826C67.4835 13.7878 67.836 14.0237 68.3208 14.0237C68.4628 14.038 68.6063 14.0237 68.7427 13.9816C68.8791 13.9395 69.0056 13.8705 69.1147 13.7787C69.2238 13.6868 69.3132 13.574 69.3777 13.447C69.4422 13.32 69.4804 13.1813 69.4901 13.0393Z" fill="currentColor"/>
<path d="M71.5483 12.4441C71.5483 11.0213 72.2818 10.1199 73.4227 10.1199C73.7049 10.1069 73.985 10.1743 74.2302 10.3142C74.4754 10.4541 74.6756 10.6607 74.8075 10.9099H74.8741V8.43677H75.7652V14.6975H74.9113V13.9861H74.8408C74.6988 14.2336 74.4916 14.4376 74.2416 14.5761C73.9917 14.7146 73.7085 14.7822 73.4227 14.7717C72.274 14.7718 71.5483 13.8704 71.5483 12.4441ZM72.4689 12.4441C72.4689 13.3992 72.9204 13.9739 73.6754 13.9739C74.4265 13.9739 74.8907 13.3909 74.8907 12.448C74.8907 11.5095 74.4217 10.9182 73.6754 10.9182C72.9252 10.9182 72.4689 11.4968 72.4689 12.4441H72.4689Z" fill="currentColor"/>
<path d="M79.4525 12.444C79.4241 12.1481 79.458 11.8496 79.5521 11.5675C79.6462 11.2854 79.7984 11.0261 79.9989 10.8061C80.1994 10.5861 80.4438 10.4103 80.7164 10.2901C80.989 10.1698 81.2839 10.1077 81.582 10.1077C81.8801 10.1077 82.1749 10.1698 82.4475 10.2901C82.7201 10.4103 82.9645 10.5861 83.165 10.8061C83.3655 11.0261 83.5177 11.2854 83.6118 11.5675C83.7059 11.8496 83.7398 12.1481 83.7115 12.444C83.7404 12.7403 83.7068 13.0392 83.613 13.3218C83.5191 13.6043 83.367 13.8641 83.1665 14.0845C82.9659 14.3049 82.7213 14.4811 82.4485 14.6016C82.1756 14.7221 81.8804 14.7844 81.582 14.7844C81.2835 14.7844 80.9883 14.7221 80.7154 14.6016C80.4426 14.4811 80.198 14.3049 79.9974 14.0845C79.7969 13.8641 79.6448 13.6043 79.5509 13.3218C79.4571 13.0392 79.4235 12.7403 79.4525 12.444ZM82.7948 12.444C82.7948 11.468 82.3551 10.8972 81.5834 10.8972C80.8088 10.8972 80.373 11.468 80.373 12.4441C80.373 13.4279 80.8088 13.9943 81.5834 13.9943C82.3551 13.9943 82.7948 13.424 82.7948 12.444Z" fill="currentColor"/>
<path d="M84.9072 10.1946H85.7651V10.91H85.8317C85.9447 10.653 86.1352 10.4377 86.3767 10.2939C86.6183 10.15 86.8988 10.085 87.1792 10.1077C87.3989 10.0912 87.6195 10.1243 87.8247 10.2044C88.0299 10.2845 88.2144 10.4096 88.3645 10.5704C88.5146 10.7313 88.6265 10.9237 88.6918 11.1335C88.7572 11.3434 88.7744 11.5652 88.7422 11.7825V14.6975H87.851V12.0057C87.851 11.282 87.5357 10.9222 86.8766 10.9222C86.7274 10.9152 86.5785 10.9406 86.4401 10.9964C86.3016 11.0522 86.1769 11.1372 86.0745 11.2456C85.9721 11.354 85.8944 11.4832 85.8467 11.6243C85.7991 11.7655 85.7826 11.9152 85.7984 12.0633V14.6976H84.9072V10.1946Z" fill="currentColor"/>
<path d="M93.7775 9.07349V10.2151H94.7558V10.9636H93.7775V13.2791C93.7775 13.7507 93.9723 13.9573 94.416 13.9573C94.5295 13.9569 94.643 13.9501 94.7558 13.9368V14.677C94.5958 14.7055 94.4336 14.7207 94.271 14.7224C93.28 14.7224 92.8853 14.3747 92.8853 13.5066V10.9636H92.1685V10.215H92.8853V9.07349H93.7775Z" fill="currentColor"/>
<path d="M95.9731 8.43677H96.8565V10.9182H96.927C97.0454 10.6589 97.2412 10.4423 97.4876 10.298C97.734 10.1536 98.019 10.0885 98.3038 10.1116C98.5224 10.0997 98.7409 10.1361 98.9438 10.2181C99.1466 10.3002 99.3288 10.4259 99.4773 10.5862C99.6259 10.7465 99.7371 10.9376 99.8031 11.1457C99.869 11.3539 99.8881 11.5739 99.859 11.7903V14.6975H98.9669V12.0095C98.9669 11.2903 98.631 10.926 98.0013 10.926C97.8482 10.9135 97.6941 10.9345 97.5499 10.9875C97.4057 11.0406 97.2749 11.1244 97.1666 11.2332C97.0583 11.3419 96.9752 11.4729 96.9229 11.6171C96.8707 11.7612 96.8507 11.915 96.8643 12.0676V14.6975H95.9732L95.9731 8.43677Z" fill="currentColor"/>
<path d="M105.055 13.4818C104.934 13.8933 104.672 14.2493 104.314 14.4874C103.957 14.7256 103.526 14.8307 103.099 14.7845C102.801 14.7923 102.506 14.7355 102.232 14.618C101.959 14.5004 101.715 14.325 101.516 14.1039C101.318 13.8827 101.17 13.6212 101.083 13.3374C100.996 13.0535 100.972 12.7543 101.013 12.4603C100.973 12.1654 100.998 11.8655 101.084 11.5808C101.171 11.2961 101.318 11.0334 101.516 10.8103C101.713 10.5872 101.956 10.409 102.229 10.2878C102.501 10.1666 102.797 10.1052 103.095 10.1077C104.351 10.1077 105.109 10.9637 105.109 12.3777V12.6878H101.921V12.7376C101.907 12.9029 101.928 13.0692 101.982 13.226C102.036 13.3827 102.123 13.5264 102.236 13.6479C102.349 13.7693 102.487 13.8658 102.639 13.9312C102.792 13.9966 102.957 14.0295 103.123 14.0276C103.336 14.0531 103.552 14.0149 103.744 13.9177C103.935 13.8205 104.093 13.6687 104.198 13.4817L105.055 13.4818ZM101.921 12.0306H104.201C104.213 11.8795 104.192 11.7277 104.141 11.5849C104.09 11.4422 104.009 11.3117 103.905 11.2019C103.8 11.092 103.674 11.0052 103.533 10.9471C103.393 10.8889 103.242 10.8606 103.09 10.8641C102.936 10.8622 102.783 10.891 102.64 10.949C102.497 11.0069 102.368 11.0928 102.259 11.2015C102.15 11.3102 102.064 11.4396 102.006 11.582C101.948 11.7244 101.919 11.8769 101.921 12.0306H101.921Z" fill="currentColor"/>
<path d="M42.4205 27.1389H37.6739L36.5339 30.4954H34.5234L39.0194 18.0774H41.1083L45.6043 30.4954H43.5595L42.4205 27.1389ZM38.1655 25.5901H41.928L40.0732 20.1428H40.0212L38.1655 25.5901Z" fill="currentColor"/>
<path d="M55.314 25.969C55.314 28.7824 53.8039 30.5901 51.5251 30.5901C50.9478 30.6202 50.3737 30.4876 49.8685 30.2074C49.3633 29.9273 48.9474 29.5109 48.6685 29.0061H48.6253V33.4904H46.7617V21.4416H48.5656V22.9475H48.5999C48.8916 22.445 49.3146 22.0308 49.8236 21.749C50.3327 21.4671 50.9088 21.3282 51.4908 21.3469C53.7951 21.3469 55.314 23.1633 55.314 25.969ZM53.3985 25.969C53.3985 24.136 52.4486 22.9309 50.9992 22.9309C49.5753 22.9309 48.6175 24.1613 48.6175 25.969C48.6175 27.7932 49.5753 29.0149 50.9992 29.0149C52.4486 29.0149 53.3984 27.8186 53.3984 25.969H53.3985Z" fill="currentColor"/>
<path d="M65.3072 25.969C65.3072 28.7824 63.7966 30.5901 61.5178 30.5901C60.9405 30.6202 60.3664 30.4876 59.8612 30.2074C59.356 29.9273 58.9401 29.5109 58.6611 29.0061H58.618V33.4904H56.7544V21.4416H58.5583V22.9475H58.5925C58.8843 22.445 59.3072 22.0308 59.8163 21.749C60.3253 21.4671 60.9015 21.3282 61.4835 21.3469C63.7878 21.3469 65.3072 23.1633 65.3072 25.969ZM63.3912 25.969C63.3912 24.136 62.4412 22.9309 60.9919 22.9309C59.568 22.9309 58.6102 24.1613 58.6102 25.969C58.6102 27.7932 59.568 29.0149 60.9919 29.0149C62.4412 29.0149 63.3912 27.8186 63.3912 25.969Z" fill="currentColor"/>
<path d="M71.9107 27.0355C72.0487 28.2669 73.2484 29.0754 74.8877 29.0754C76.4586 29.0754 77.5887 28.2669 77.5887 27.1565C77.5887 26.1926 76.9071 25.6155 75.2932 25.22L73.6793 24.8323C71.3926 24.2815 70.3311 23.2151 70.3311 21.4846C70.3311 19.342 72.2035 17.8704 74.8613 17.8704C77.4937 17.8704 79.2976 19.342 79.3583 21.4846H77.477C77.3644 20.2454 76.3371 19.4973 74.8358 19.4973C73.3346 19.4973 72.3073 20.2542 72.3073 21.3557C72.3073 22.2337 72.9634 22.7503 74.5685 23.1457L75.9405 23.4817C78.4955 24.0842 79.5561 25.1077 79.5561 26.924C79.5561 29.2473 77.7013 30.7024 74.7496 30.7024C71.988 30.7024 70.1234 29.2815 70.0029 27.0354L71.9107 27.0355Z" fill="currentColor"/>
<path d="M83.5802 19.2991V21.4417H85.3067V22.9133H83.5802V27.9045C83.5802 28.6799 83.9259 29.0413 84.6849 29.0413C84.8899 29.0377 85.0945 29.0233 85.2979 28.9983V30.4612C84.9567 30.5247 84.6099 30.5535 84.2628 30.5471C82.4247 30.5471 81.7078 29.8586 81.7078 28.1028V22.9133H80.3877V21.4417H81.7078V19.2991H83.5802Z" fill="currentColor"/>
<path d="M86.3057 25.969C86.3057 23.1204 87.9881 21.3303 90.6117 21.3303C93.244 21.3303 94.9187 23.1203 94.9187 25.969C94.9187 28.8254 93.2529 30.6077 90.6117 30.6077C87.9714 30.6077 86.3057 28.8254 86.3057 25.969ZM93.0198 25.969C93.0198 24.0149 92.1218 22.8616 90.6117 22.8616C89.1016 22.8616 88.2036 24.0237 88.2036 25.969C88.2036 27.9309 89.1016 29.0754 90.6117 29.0754C92.1218 29.0754 93.0198 27.9309 93.0198 25.969H93.0198Z" fill="currentColor"/>
<path d="M96.4551 21.4418H98.2325V22.9828H98.2756C98.3959 22.5015 98.6786 22.0762 99.0763 21.7783C99.474 21.4804 99.9625 21.3281 100.459 21.347C100.674 21.3463 100.888 21.3695 101.098 21.4164V23.1547C100.827 23.072 100.544 23.0341 100.261 23.0424C99.9899 23.0314 99.72 23.079 99.4695 23.1819C99.2189 23.2848 98.9937 23.4405 98.8092 23.6384C98.6247 23.8363 98.4853 24.0716 98.4007 24.3283C98.316 24.585 98.288 24.8569 98.3187 25.1254V30.4955H96.4551L96.4551 21.4418Z" fill="currentColor"/>
<path d="M109.69 27.8362C109.44 29.4797 107.835 30.6077 105.781 30.6077C103.14 30.6077 101.5 28.843 101.5 26.012C101.5 23.1721 103.149 21.3303 105.703 21.3303C108.215 21.3303 109.794 23.051 109.794 25.7961V26.4329H103.382V26.5452C103.352 26.8784 103.394 27.214 103.504 27.5299C103.615 27.8457 103.792 28.1345 104.023 28.377C104.254 28.6196 104.534 28.8103 104.844 28.9367C105.155 29.063 105.489 29.1219 105.824 29.1096C106.265 29.1508 106.706 29.049 107.084 28.8196C107.462 28.5902 107.755 28.2453 107.921 27.8362L109.69 27.8362ZM103.391 25.134H107.93C107.946 24.8344 107.901 24.5346 107.796 24.2534C107.691 23.9722 107.529 23.7157 107.32 23.4999C107.11 23.2841 106.859 23.1138 106.581 22.9996C106.302 22.8854 106.004 22.8297 105.703 22.8362C105.399 22.8344 105.098 22.8925 104.818 23.0073C104.537 23.122 104.281 23.2911 104.066 23.5047C103.852 23.7183 103.681 23.9723 103.565 24.252C103.449 24.5316 103.39 24.8314 103.391 25.134V25.134Z" fill="currentColor"/>
</g>
<defs>
<clipPath id="clip0_70_32936">
<rect width="120" height="40" fill="white"/>
</clipPath>
<clipPath id="clip1_70_32936">
<rect width="18" height="22" fill="white" transform="translate(10 7.99927)"/>
</clipPath>
</defs>
</svg>
