<svg width="32" height="32" viewBox="0 0 32 32" fill="none" xmlns="http://www.w3.org/2000/svg">
<path d="M14.6891 14.1123L13.8323 16.7292H15.5367L14.6891 14.1123ZM14.6891 14.1123L13.8323 16.7292H15.5367L14.6891 14.1123ZM28.0619 8.48807L10.0007 12.91C10.591 13.2617 10.952 13.8722 10.952 14.7243C10.952 15.654 10.4965 16.3109 9.77604 16.6394L11.3254 19.3462H9.73886L8.36146 16.8857H7.359V19.3462H5.94597V13.9032L2.17941 14.8251C-0.426652 15.4634 -0.790757 17.8138 1.60459 18.5513L17.3696 23.4009C19.4303 24.0346 22.0022 23.404 23.1147 21.9941L25.541 18.9185L22.8033 15.217V19.3477H21.3902V12.5552H22.4748L25.5379 16.5945V12.5552H26.951V17.129L31.6239 11.2026C32.9161 9.56334 30.6695 7.85127 28.0619 8.48962V8.48807ZM16.3857 19.3446L15.9302 17.9595H13.4403L12.9848 19.3446H11.4525L13.7502 12.5521H15.6281L17.9258 19.3446H16.3857ZM20.0423 19.3446H18.6292V12.5521H20.0423V19.3446ZM13.8323 16.7292H15.5367L14.6891 14.1123L13.8323 16.7292ZM9.53899 14.7228C9.53899 14.1573 9.14699 13.7839 8.55513 13.7839H7.36055V15.6524H8.55513C9.14854 15.6524 9.53899 15.2775 9.53899 14.7228Z" fill="#80858F"/>
</svg>
