<svg width="1108" height="204" viewBox="0 0 1108 204" fill="none" xmlns="http://www.w3.org/2000/svg">
<rect width="1108" height="204" transform="matrix(1 0 -2.01868e-05 1 0.00402832 0)" fill="#1D1D1D"/>
<path d="M181.009 102L170.579 -138H191.448L181.009 102Z" fill="url(#paint0_radial_17_208685)"/>
<path d="M181.009 102L212.422 -136.122L232.979 -132.574L181.009 102Z" fill="url(#paint1_radial_17_208685)"/>
<path d="M181.009 101.999L253.327 -127.044L272.944 -119.949L181.009 101.999Z" fill="url(#paint2_radial_17_208685)"/>
<path d="M181.009 102.001L291.935 -111.077L310.091 -100.642L181.009 102.001Z" fill="url(#paint3_radial_17_208685)"/>
<path d="M181.009 102.001L327.308 -88.5379L343.273 -75.1814L181.009 102.001Z" fill="url(#paint4_radial_17_208685)"/>
<path d="M181.009 102.001L358.195 -60.2596L371.551 -44.2944L181.009 102.001Z" fill="url(#paint5_radial_17_208685)"/>
<path d="M181.009 102.001L383.655 -27.0775L394.089 -8.92102L181.009 102.001Z" fill="url(#paint6_radial_17_208685)"/>
<path d="M181.009 102.001L402.958 10.0709L410.054 29.6883L181.009 102.001Z" fill="url(#paint7_radial_17_208685)"/>
<path d="M181.009 102L415.584 50.0348L419.131 70.5914L181.009 102Z" fill="url(#paint8_radial_17_208685)"/>
<path d="M181.009 101.999L421.009 91.5643L421.009 112.434L181.009 101.999Z" fill="url(#paint9_radial_17_208685)"/>
<path d="M181.009 102L419.13 133.409L415.582 153.965L181.009 102Z" fill="url(#paint10_radial_17_208685)"/>
<path d="M181.009 102L410.051 174.313L402.955 193.931L181.009 102Z" fill="url(#paint11_radial_17_208685)"/>
<path d="M181.009 102L394.085 212.922L383.65 231.078L181.009 102Z" fill="url(#paint12_radial_17_208685)"/>
<path d="M181.009 102L371.545 248.295L358.188 264.261L181.009 102Z" fill="url(#paint13_radial_17_208685)"/>
<path d="M181.009 102L343.266 279.182L327.301 292.539L181.009 102Z" fill="url(#paint14_radial_17_208685)"/>
<path d="M181.009 102L310.083 304.643L291.926 315.078L181.009 102Z" fill="url(#paint15_radial_17_208685)"/>
<path d="M181.009 102L272.935 323.948L253.317 331.043L181.009 102Z" fill="url(#paint16_radial_17_208685)"/>
<path d="M181.009 102L232.969 336.574L212.413 340.122L181.009 102Z" fill="url(#paint17_radial_17_208685)"/>
<path d="M181.009 102L191.439 342H170.569L181.009 102Z" fill="url(#paint18_radial_17_208685)"/>
<path d="M181.009 102L149.595 340.122L129.039 336.574L181.009 102Z" fill="url(#paint19_radial_17_208685)"/>
<path d="M181.009 102L108.691 331.043L89.0738 323.948L181.009 102Z" fill="url(#paint20_radial_17_208685)"/>
<path d="M181.009 102L70.0829 315.078L51.9266 304.643L181.009 102Z" fill="url(#paint21_radial_17_208685)"/>
<path d="M181.009 102L34.7093 292.539L18.7443 279.182L181.009 102Z" fill="url(#paint22_radial_17_208685)"/>
<path d="M181.009 102L3.82322 264.261L-9.53298 248.295L181.009 102Z" fill="url(#paint23_radial_17_208685)"/>
<path d="M181.009 102L-21.637 231.078L-32.0714 212.922L181.009 102Z" fill="url(#paint24_radial_17_208685)"/>
<path d="M181.009 102L-40.9406 193.931L-48.0358 174.313L181.009 102Z" fill="url(#paint25_radial_17_208685)"/>
<path d="M181.009 102L-53.5658 153.965L-57.1132 133.409L181.009 102Z" fill="url(#paint26_radial_17_208685)"/>
<path d="M181.009 101.999L-58.9913 112.434L-58.9908 91.5643L181.009 101.999Z" fill="url(#paint27_radial_17_208685)"/>
<path d="M181.009 102L-57.112 70.5914L-53.5637 50.0348L181.009 102Z" fill="url(#paint28_radial_17_208685)"/>
<path d="M181.009 102.001L-48.0329 29.6883L-40.9369 10.0709L181.009 102.001Z" fill="url(#paint29_radial_17_208685)"/>
<path d="M181.009 102.001L-32.067 -8.92102L-21.6318 -27.0775L181.009 102.001Z" fill="url(#paint30_radial_17_208685)"/>
<path d="M181.009 102.001L-9.52707 -44.2944L3.82977 -60.2596L181.009 102.001Z" fill="url(#paint31_radial_17_208685)"/>
<path d="M181.009 102.001L18.7515 -75.1814L34.717 -88.5379L181.009 102.001Z" fill="url(#paint32_radial_17_208685)"/>
<path d="M181.009 102.001L51.9348 -100.642L70.0915 -111.077L181.009 102.001Z" fill="url(#paint33_radial_17_208685)"/>
<path d="M181.009 101.999L89.0827 -119.949L108.7 -127.044L181.009 101.999Z" fill="url(#paint34_radial_17_208685)"/>
<path d="M181.009 102L129.048 -132.574L149.605 -136.122L181.009 102Z" fill="url(#paint35_radial_17_208685)"/>
<path d="M181.009 102L170.579 -138H191.448L181.009 102Z" fill="url(#paint36_radial_17_208685)"/>
<defs>
<radialGradient id="paint0_radial_17_208685" cx="0" cy="0" r="1" gradientTransform="matrix(-0.00484482 240 -240 0 181.009 102)" gradientUnits="userSpaceOnUse">
<stop offset="0.461458" stop-color="#1D1D1D"/>
<stop offset="1" stop-color="#1D1D1D" stop-opacity="0"/>
</radialGradient>
<radialGradient id="paint1_radial_17_208685" cx="0" cy="0" r="1" gradientTransform="matrix(-0.00484482 240 -240 0 181.009 102)" gradientUnits="userSpaceOnUse">
<stop offset="0.461458" stop-color="#1D1D1D"/>
<stop offset="1" stop-color="#1D1D1D" stop-opacity="0"/>
</radialGradient>
<radialGradient id="paint2_radial_17_208685" cx="0" cy="0" r="1" gradientTransform="matrix(-0.00484482 240 -240 0 181.009 102)" gradientUnits="userSpaceOnUse">
<stop offset="0.461458" stop-color="#1D1D1D"/>
<stop offset="1" stop-color="#1D1D1D" stop-opacity="0"/>
</radialGradient>
<radialGradient id="paint3_radial_17_208685" cx="0" cy="0" r="1" gradientTransform="matrix(-0.00484482 240 -240 0 181.009 102)" gradientUnits="userSpaceOnUse">
<stop offset="0.461458" stop-color="#1D1D1D"/>
<stop offset="1" stop-color="#1D1D1D" stop-opacity="0"/>
</radialGradient>
<radialGradient id="paint4_radial_17_208685" cx="0" cy="0" r="1" gradientTransform="matrix(-0.00484482 240 -240 0 181.009 102)" gradientUnits="userSpaceOnUse">
<stop offset="0.461458" stop-color="#1D1D1D"/>
<stop offset="1" stop-color="#1D1D1D" stop-opacity="0"/>
</radialGradient>
<radialGradient id="paint5_radial_17_208685" cx="0" cy="0" r="1" gradientTransform="matrix(-0.00484482 240 -240 0 181.009 102)" gradientUnits="userSpaceOnUse">
<stop offset="0.461458" stop-color="#1D1D1D"/>
<stop offset="1" stop-color="#1D1D1D" stop-opacity="0"/>
</radialGradient>
<radialGradient id="paint6_radial_17_208685" cx="0" cy="0" r="1" gradientTransform="matrix(-0.00484482 240 -240 0 181.009 102)" gradientUnits="userSpaceOnUse">
<stop offset="0.461458" stop-color="#1D1D1D"/>
<stop offset="1" stop-color="#1D1D1D" stop-opacity="0"/>
</radialGradient>
<radialGradient id="paint7_radial_17_208685" cx="0" cy="0" r="1" gradientTransform="matrix(-0.00484482 240 -240 0 181.009 102)" gradientUnits="userSpaceOnUse">
<stop offset="0.461458" stop-color="#1D1D1D"/>
<stop offset="1" stop-color="#1D1D1D" stop-opacity="0"/>
</radialGradient>
<radialGradient id="paint8_radial_17_208685" cx="0" cy="0" r="1" gradientTransform="matrix(-0.00484482 240 -240 0 181.009 102)" gradientUnits="userSpaceOnUse">
<stop offset="0.461458" stop-color="#1D1D1D"/>
<stop offset="1" stop-color="#1D1D1D" stop-opacity="0"/>
</radialGradient>
<radialGradient id="paint9_radial_17_208685" cx="0" cy="0" r="1" gradientTransform="matrix(-0.00484482 240 -240 0 181.009 102)" gradientUnits="userSpaceOnUse">
<stop offset="0.461458" stop-color="#1D1D1D"/>
<stop offset="1" stop-color="#1D1D1D" stop-opacity="0"/>
</radialGradient>
<radialGradient id="paint10_radial_17_208685" cx="0" cy="0" r="1" gradientTransform="matrix(-0.00484482 240 -240 0 181.009 102)" gradientUnits="userSpaceOnUse">
<stop offset="0.461458" stop-color="#1D1D1D"/>
<stop offset="1" stop-color="#1D1D1D" stop-opacity="0"/>
</radialGradient>
<radialGradient id="paint11_radial_17_208685" cx="0" cy="0" r="1" gradientTransform="matrix(-0.00484482 240 -240 0 181.009 102)" gradientUnits="userSpaceOnUse">
<stop offset="0.461458" stop-color="#1D1D1D"/>
<stop offset="1" stop-color="#1D1D1D" stop-opacity="0"/>
</radialGradient>
<radialGradient id="paint12_radial_17_208685" cx="0" cy="0" r="1" gradientTransform="matrix(-0.00484482 240 -240 0 181.009 102)" gradientUnits="userSpaceOnUse">
<stop offset="0.461458" stop-color="#1D1D1D"/>
<stop offset="1" stop-color="#1D1D1D" stop-opacity="0"/>
</radialGradient>
<radialGradient id="paint13_radial_17_208685" cx="0" cy="0" r="1" gradientTransform="matrix(-0.00484482 240 -240 0 181.009 102)" gradientUnits="userSpaceOnUse">
<stop offset="0.461458" stop-color="#1D1D1D"/>
<stop offset="1" stop-color="#1D1D1D" stop-opacity="0"/>
</radialGradient>
<radialGradient id="paint14_radial_17_208685" cx="0" cy="0" r="1" gradientTransform="matrix(-0.00484482 240 -240 0 181.009 102)" gradientUnits="userSpaceOnUse">
<stop offset="0.461458" stop-color="#1D1D1D"/>
<stop offset="1" stop-color="#1D1D1D" stop-opacity="0"/>
</radialGradient>
<radialGradient id="paint15_radial_17_208685" cx="0" cy="0" r="1" gradientTransform="matrix(-0.00484482 240 -240 0 181.009 102)" gradientUnits="userSpaceOnUse">
<stop offset="0.461458" stop-color="#1D1D1D"/>
<stop offset="1" stop-color="#1D1D1D" stop-opacity="0"/>
</radialGradient>
<radialGradient id="paint16_radial_17_208685" cx="0" cy="0" r="1" gradientTransform="matrix(-0.00484482 240 -240 0 181.009 102)" gradientUnits="userSpaceOnUse">
<stop offset="0.461458" stop-color="#1D1D1D"/>
<stop offset="1" stop-color="#1D1D1D" stop-opacity="0"/>
</radialGradient>
<radialGradient id="paint17_radial_17_208685" cx="0" cy="0" r="1" gradientTransform="matrix(-0.00484482 240 -240 0 181.009 102)" gradientUnits="userSpaceOnUse">
<stop offset="0.461458" stop-color="#1D1D1D"/>
<stop offset="1" stop-color="#1D1D1D" stop-opacity="0"/>
</radialGradient>
<radialGradient id="paint18_radial_17_208685" cx="0" cy="0" r="1" gradientTransform="matrix(-0.00484482 240 -240 0 181.009 102)" gradientUnits="userSpaceOnUse">
<stop offset="0.461458" stop-color="#1D1D1D"/>
<stop offset="1" stop-color="#1D1D1D" stop-opacity="0"/>
</radialGradient>
<radialGradient id="paint19_radial_17_208685" cx="0" cy="0" r="1" gradientTransform="matrix(-0.00484482 240 -240 0 181.009 102)" gradientUnits="userSpaceOnUse">
<stop offset="0.461458" stop-color="#1D1D1D"/>
<stop offset="1" stop-color="#1D1D1D" stop-opacity="0"/>
</radialGradient>
<radialGradient id="paint20_radial_17_208685" cx="0" cy="0" r="1" gradientTransform="matrix(-0.00484482 240 -240 0 181.009 102)" gradientUnits="userSpaceOnUse">
<stop offset="0.461458" stop-color="#1D1D1D"/>
<stop offset="1" stop-color="#1D1D1D" stop-opacity="0"/>
</radialGradient>
<radialGradient id="paint21_radial_17_208685" cx="0" cy="0" r="1" gradientTransform="matrix(-0.00484482 240 -240 0 181.009 102)" gradientUnits="userSpaceOnUse">
<stop offset="0.461458" stop-color="#1D1D1D"/>
<stop offset="1" stop-color="#1D1D1D" stop-opacity="0"/>
</radialGradient>
<radialGradient id="paint22_radial_17_208685" cx="0" cy="0" r="1" gradientTransform="matrix(-0.00484482 240 -240 0 181.009 102)" gradientUnits="userSpaceOnUse">
<stop offset="0.461458" stop-color="#1D1D1D"/>
<stop offset="1" stop-color="#1D1D1D" stop-opacity="0"/>
</radialGradient>
<radialGradient id="paint23_radial_17_208685" cx="0" cy="0" r="1" gradientTransform="matrix(-0.00484482 240 -240 0 181.009 102)" gradientUnits="userSpaceOnUse">
<stop offset="0.461458" stop-color="#1D1D1D"/>
<stop offset="1" stop-color="#1D1D1D" stop-opacity="0"/>
</radialGradient>
<radialGradient id="paint24_radial_17_208685" cx="0" cy="0" r="1" gradientTransform="matrix(-0.00484482 240 -240 0 181.009 102)" gradientUnits="userSpaceOnUse">
<stop offset="0.461458" stop-color="#1D1D1D"/>
<stop offset="1" stop-color="#1D1D1D" stop-opacity="0"/>
</radialGradient>
<radialGradient id="paint25_radial_17_208685" cx="0" cy="0" r="1" gradientTransform="matrix(-0.00484482 240 -240 0 181.009 102)" gradientUnits="userSpaceOnUse">
<stop offset="0.461458" stop-color="#1D1D1D"/>
<stop offset="1" stop-color="#1D1D1D" stop-opacity="0"/>
</radialGradient>
<radialGradient id="paint26_radial_17_208685" cx="0" cy="0" r="1" gradientTransform="matrix(-0.00484482 240 -240 0 181.009 102)" gradientUnits="userSpaceOnUse">
<stop offset="0.461458" stop-color="#1D1D1D"/>
<stop offset="1" stop-color="#1D1D1D" stop-opacity="0"/>
</radialGradient>
<radialGradient id="paint27_radial_17_208685" cx="0" cy="0" r="1" gradientTransform="matrix(-0.00484482 240 -240 0 181.009 102)" gradientUnits="userSpaceOnUse">
<stop offset="0.461458" stop-color="#1D1D1D"/>
<stop offset="1" stop-color="#1D1D1D" stop-opacity="0"/>
</radialGradient>
<radialGradient id="paint28_radial_17_208685" cx="0" cy="0" r="1" gradientTransform="matrix(-0.00484482 240 -240 0 181.009 102)" gradientUnits="userSpaceOnUse">
<stop offset="0.461458" stop-color="#1D1D1D"/>
<stop offset="1" stop-color="#1D1D1D" stop-opacity="0"/>
</radialGradient>
<radialGradient id="paint29_radial_17_208685" cx="0" cy="0" r="1" gradientTransform="matrix(-0.00484482 240 -240 0 181.009 102)" gradientUnits="userSpaceOnUse">
<stop offset="0.461458" stop-color="#1D1D1D"/>
<stop offset="1" stop-color="#1D1D1D" stop-opacity="0"/>
</radialGradient>
<radialGradient id="paint30_radial_17_208685" cx="0" cy="0" r="1" gradientTransform="matrix(-0.00484482 240 -240 0 181.009 102)" gradientUnits="userSpaceOnUse">
<stop offset="0.461458" stop-color="#1D1D1D"/>
<stop offset="1" stop-color="#1D1D1D" stop-opacity="0"/>
</radialGradient>
<radialGradient id="paint31_radial_17_208685" cx="0" cy="0" r="1" gradientTransform="matrix(-0.00484482 240 -240 0 181.009 102)" gradientUnits="userSpaceOnUse">
<stop offset="0.461458" stop-color="#1D1D1D"/>
<stop offset="1" stop-color="#1D1D1D" stop-opacity="0"/>
</radialGradient>
<radialGradient id="paint32_radial_17_208685" cx="0" cy="0" r="1" gradientTransform="matrix(-0.00484482 240 -240 0 181.009 102)" gradientUnits="userSpaceOnUse">
<stop offset="0.461458" stop-color="#1D1D1D"/>
<stop offset="1" stop-color="#1D1D1D" stop-opacity="0"/>
</radialGradient>
<radialGradient id="paint33_radial_17_208685" cx="0" cy="0" r="1" gradientTransform="matrix(-0.00484482 240 -240 0 181.009 102)" gradientUnits="userSpaceOnUse">
<stop offset="0.461458" stop-color="#1D1D1D"/>
<stop offset="1" stop-color="#1D1D1D" stop-opacity="0"/>
</radialGradient>
<radialGradient id="paint34_radial_17_208685" cx="0" cy="0" r="1" gradientTransform="matrix(-0.00484482 240 -240 0 181.009 102)" gradientUnits="userSpaceOnUse">
<stop offset="0.461458" stop-color="#1D1D1D"/>
<stop offset="1" stop-color="#1D1D1D" stop-opacity="0"/>
</radialGradient>
<radialGradient id="paint35_radial_17_208685" cx="0" cy="0" r="1" gradientTransform="matrix(-0.00484482 240 -240 0 181.009 102)" gradientUnits="userSpaceOnUse">
<stop offset="0.461458" stop-color="#1D1D1D"/>
<stop offset="1" stop-color="#1D1D1D" stop-opacity="0"/>
</radialGradient>
<radialGradient id="paint36_radial_17_208685" cx="0" cy="0" r="1" gradientTransform="matrix(-0.00484482 240 -240 0 181.009 102)" gradientUnits="userSpaceOnUse">
<stop offset="0.461458" stop-color="#1D1D1D"/>
<stop offset="1" stop-color="#1D1D1D" stop-opacity="0"/>
</radialGradient>
</defs>
</svg>
