<svg width="150" height="60" viewBox="0 0 150 60" fill="none" xmlns="http://www.w3.org/2000/svg">
<path d="M110.64 24.7003C105.77 25.0232 107.957 31.7896 113.342 31.4324C118.609 31.0832 115.83 24.3563 110.64 24.7003Z" fill="#F19021"/>
<path d="M108.584 20.5213C105.481 20.5213 102.447 21.5029 99.8662 23.3421C97.2862 25.1813 95.2743 27.7955 94.0875 30.8539C92.8994 33.9124 92.5886 37.2779 93.1941 40.5247C93.7996 43.7716 95.294 46.754 97.4887 49.0949C99.6834 51.4358 102.479 53.0299 105.523 53.6757C108.567 54.3216 111.722 53.9901 114.59 52.7233C117.457 51.4564 119.907 49.311 121.632 46.5585C123.356 43.8059 124.277 40.5698 124.277 37.2593C124.277 32.8201 122.623 28.5627 119.68 25.4237C116.737 22.2847 112.747 20.5213 108.584 20.5213ZM108.584 52.2432C105.807 52.2437 103.091 51.3656 100.781 49.7199C98.4722 48.0742 96.6712 45.7348 95.6081 42.9977C94.545 40.2605 94.2665 37.2484 94.8075 34.3424C95.3493 31.4365 96.6871 28.767 98.6512 26.6718C100.614 24.5766 103.117 23.1496 105.841 22.5714C108.565 21.9932 111.389 22.2897 113.956 23.4234C116.522 24.5571 118.716 26.4771 120.259 28.9406C121.802 31.4041 122.626 34.3004 122.626 37.2633C122.626 41.2357 121.147 45.0455 118.513 47.8547C115.88 50.6639 112.309 52.2425 108.584 52.2432ZM108.112 8.83624C104.386 11.8399 105.034 16.4461 105.034 16.4461C105.034 16.4461 102.692 9.9631 99.6515 6C99.2409 11.1018 100.74 17.8616 100.74 17.8616C100.74 17.8616 98.8359 13.6705 94.17 13.4359C98.04 15.8082 99.5409 20.0824 99.885 21.229C102.191 19.7106 104.828 18.8593 107.537 18.7591C107.231 17.6916 106.147 13.1934 108.112 8.83624Z" fill="#F19021"/>
<path d="M27.6166 38.9001V42.4032H26.25V33.3779H29.1264C30.1017 33.3779 30.8348 33.6252 31.3258 34.1199C31.8167 34.6145 32.0638 35.292 32.0671 36.1522C32.0671 37.0053 31.8155 37.6766 31.3122 38.166C30.8089 38.6554 30.0819 38.9001 29.1314 38.9001H27.6166ZM30.6722 36.1522C30.6722 35.6408 30.5383 35.2507 30.2706 34.9818C30.0029 34.713 29.5737 34.579 28.9831 34.5798H27.6166V37.7113H28.9831C30.1083 37.7113 30.6713 37.1916 30.6722 36.1522ZM37.7076 42.4032L35.5985 38.7986H34.6273V42.4032H33.2607V33.3779H36.2459C37.2121 33.3779 37.9452 33.6292 38.4452 34.1317C38.9453 34.6343 39.1948 35.2994 39.194 36.1271C39.194 36.83 39.0083 37.4095 38.6367 37.8655C38.2653 38.3215 37.7298 38.611 37.0305 38.734L39.2545 42.4032H37.7076ZM34.6273 37.7627H36.1347C37.2384 37.7627 37.79 37.243 37.7891 36.2036C37.7891 35.7098 37.6552 35.324 37.3876 35.0464C37.1195 34.7696 36.703 34.6312 36.1347 34.6312H34.6273V37.7627ZM45.4745 40.4474H41.9024L41.255 42.4032H39.7932L42.9094 33.5189H44.4798L47.5836 42.4032H46.1207L45.4745 40.4474ZM45.0902 39.3232L43.6878 35.1057L42.2854 39.3232H45.0902ZM54.4868 34.0935C55.1576 34.6219 55.6295 35.3884 55.8175 36.255H54.3793C54.2002 35.7748 53.8831 35.3675 53.4737 35.0912C53.0273 34.7932 52.5086 34.6419 51.9823 34.6563C51.4837 34.6476 50.9924 34.7843 50.5613 35.0517C50.1397 35.3182 49.7987 35.7084 49.579 36.1759C49.3348 36.7104 49.2157 37.3001 49.2319 37.8945C49.2158 38.5094 49.3392 39.1193 49.5914 39.6724C49.8151 40.1488 50.1676 40.5427 50.6033 40.8032C51.0682 41.0726 51.5905 41.2088 52.1195 41.1986C52.7834 41.211 53.4278 40.9591 53.9271 40.4922C54.4296 40.0283 54.7331 39.3913 54.8377 38.5812H51.7302V37.507H55.9843V38.9001C55.8946 39.5493 55.6672 40.1682 55.3196 40.7096C54.9669 41.2561 54.4939 41.7019 53.942 42.0078C53.3363 42.3396 52.663 42.5062 51.9823 42.4928C51.2186 42.5095 50.4649 42.3065 49.8003 41.905C49.1769 41.5218 48.6697 40.9561 48.3385 40.2747C47.9994 39.532 47.8233 38.7167 47.8233 37.8905C47.8233 37.0644 47.9994 36.2491 48.3385 35.5064C48.6682 34.8278 49.1734 34.2643 49.7941 33.8826C50.4577 33.4853 51.2091 33.2846 51.9699 33.3014C52.9774 33.3014 53.8163 33.5655 54.4868 34.0935ZM65.6331 33.5189V42.4032H64.2541V35.7436L61.8459 42.4032H60.6474L58.2257 35.7436V42.4032H56.8604V33.5189H58.5136L61.2702 40.6134L63.9786 33.5189H65.6331ZM72.32 40.4474H68.7541L68.1067 42.4032H66.64L69.7562 33.5189H71.3254L74.4304 42.4032H72.9675L72.32 40.4474ZM71.937 39.3232L70.5346 35.1057L69.1322 39.3232H71.937ZM80.2784 33.3779V34.5535H77.9172V42.4032H76.5383V34.5535H74.1907V33.3779H80.2784ZM82.3752 33.3779V42.4032H81.0098V33.3779H82.3752ZM90.1062 34.1317C90.7996 34.7046 91.2897 35.5119 91.4962 36.421H90.0457C89.8605 35.8943 89.528 35.4411 89.0931 35.1228C88.6187 34.7912 88.0599 34.6237 87.493 34.6431C87.0175 34.635 86.5497 34.7722 86.145 35.0385C85.7403 35.3148 85.4162 35.7065 85.2096 36.1693C84.9848 36.7087 84.8687 37.2924 84.8687 37.8826C84.8687 38.4729 84.9848 39.0566 85.2096 39.596C85.4159 40.0593 85.74 40.4516 86.145 40.7281C86.5497 40.9945 87.0174 41.1317 87.493 41.1235C88.0597 41.1433 88.6185 40.9762 89.0931 40.6451C89.5255 40.3298 89.8579 39.8816 90.0457 39.3601H91.4962C91.2909 40.2676 90.8003 41.0727 90.1062 41.6414C89.4193 42.2003 88.5564 42.4797 87.5177 42.4797C86.7741 42.4947 86.0407 42.2933 85.3962 41.8971C84.7843 41.5136 84.2892 40.9497 83.9704 40.2734C83.6384 39.5285 83.4662 38.714 83.4662 37.8892C83.4662 37.0644 83.6384 36.25 83.9704 35.505C84.2903 34.8278 84.7851 34.2622 85.3962 33.8747C86.0395 33.4751 86.7734 33.2718 87.5177 33.2869C88.5556 33.2878 89.4185 33.5694 90.1062 34.1317ZM97.9425 38.9001V42.4032H96.5766V33.3779H99.4537C100.427 33.3779 101.16 33.6252 101.653 34.1199C102.145 34.6145 102.393 35.292 102.394 36.1522C102.394 37.0053 102.142 37.6766 101.639 38.166C101.136 38.6554 100.409 38.9001 99.4584 38.9001H97.9425ZM101.002 36.1522C101.002 35.6408 100.869 35.2507 100.601 34.9818C100.334 34.713 99.9037 34.579 99.3122 34.5798H97.9425V37.7113H99.3084C100.438 37.7113 101.002 37.1916 101.002 36.1522ZM104.738 41.2658H107.662V42.4032H103.372V33.3779H104.738V41.2658ZM113.918 40.4474H110.347L109.701 42.4032H108.237L111.354 33.5189H112.924L116.029 42.4032H114.566L113.918 40.4474ZM113.535 39.3232L112.133 35.1057L110.731 39.3232H113.535ZM121.514 33.3779L118.698 39.1176V42.4032H117.322V39.1176L114.494 33.3779H116.077L118.019 37.5584L119.961 33.3779H121.514Z" fill="white"/>
</svg>
