<svg width="150" height="60" viewBox="0 0 150 60" fill="none" xmlns="http://www.w3.org/2000/svg">
<g clip-path="url(#clip0_1_4057)">
<path d="M52.1092 46.4302H42.5732C41.581 46.4302 40.9062 45.4418 41.2831 44.5406L52.9493 16.6503C53.4228 15.5182 55.0558 15.5182 55.5294 16.6503L60.2974 28.0491C60.4368 28.3824 60.4368 28.7563 60.2974 29.0896L53.3992 45.5812C53.1843 46.0949 52.6747 46.4302 52.1092 46.4302Z" fill="url(#paint0_linear_1_4057)"/>
<path d="M81.4596 46.4306H71.9235C70.9314 46.4306 70.2566 45.4422 70.6335 44.5411L83.2345 14.4158C83.4494 13.9021 83.959 13.5667 84.5246 13.5667H94.0605C95.0526 13.5667 95.7275 14.5551 95.3506 15.4562L82.7495 45.5815C82.5347 46.0952 82.0251 46.4306 81.4596 46.4306Z" fill="url(#paint1_linear_1_4057)"/>
<path d="M106.673 46.4306H97.1374C96.1452 46.4306 95.4704 45.4422 95.8473 44.5411L108.448 14.4158C108.663 13.9021 109.173 13.5667 109.738 13.5667H119.274C120.266 13.5667 120.941 14.5551 120.565 15.4562L107.963 45.5815C107.748 46.0952 107.239 46.4306 106.673 46.4306Z" fill="url(#paint2_linear_1_4057)"/>
<path d="M42.4982 46.4306H52.0342C53.0263 46.4306 53.7011 45.4422 53.3242 44.5411L40.7231 14.4158C40.5082 13.9021 39.9987 13.5667 39.4331 13.5667H29.8971C28.905 13.5667 28.2302 14.5551 28.6071 15.4562L41.2082 45.5815C41.4231 46.0952 41.9326 46.4306 42.4982 46.4306Z" fill="url(#paint3_linear_1_4057)"/>
<path d="M71.9085 46.4306H81.4445C82.4367 46.4306 83.1114 45.4422 82.7345 44.5411L70.1335 14.4158C69.9186 13.9021 69.409 13.5667 68.8435 13.5667H59.3075C58.3154 13.5667 57.6405 14.5551 58.0175 15.4562L70.6185 45.5815C70.8334 46.0952 71.343 46.4306 71.9085 46.4306Z" fill="url(#paint4_linear_1_4057)"/>
<path d="M97.1232 46.4306H106.659C107.651 46.4306 108.326 45.4422 107.949 44.5411L95.3481 14.4158C95.1333 13.9021 94.6237 13.5667 94.0582 13.5667H84.5222C83.53 13.5667 82.8552 14.5551 83.2321 15.4562L95.8332 45.5815C96.048 46.0952 96.5576 46.4306 97.1232 46.4306Z" fill="url(#paint5_linear_1_4057)"/>
</g>
<defs>
<linearGradient id="paint0_linear_1_4057" x1="41.1771" y1="31.1157" x2="58.7427" y2="24.0383" gradientUnits="userSpaceOnUse">
<stop offset="0.386403" stop-color="#B151AA"/>
<stop offset="0.74829" stop-color="#782D76"/>
<stop offset="1" stop-color="#C961C1"/>
</linearGradient>
<linearGradient id="paint1_linear_1_4057" x1="70.5275" y1="29.9987" x2="91.9285" y2="19.5778" gradientUnits="userSpaceOnUse">
<stop offset="0.386403" stop-color="#B151AA"/>
<stop offset="0.74829" stop-color="#782D76"/>
<stop offset="1" stop-color="#C961C1"/>
</linearGradient>
<linearGradient id="paint2_linear_1_4057" x1="95.7413" y1="29.9987" x2="117.142" y2="19.5778" gradientUnits="userSpaceOnUse">
<stop offset="0.386403" stop-color="#B151AA"/>
<stop offset="0.74829" stop-color="#782D76"/>
<stop offset="1" stop-color="#C961C1"/>
</linearGradient>
<linearGradient id="paint3_linear_1_4057" x1="28.5011" y1="31.4357" x2="53.4301" y2="31.4357" gradientUnits="userSpaceOnUse">
<stop stop-color="#FDF8FF"/>
<stop offset="0.514218" stop-color="#9E4ABC"/>
<stop offset="1" stop-color="#DFB5EA"/>
</linearGradient>
<linearGradient id="paint4_linear_1_4057" x1="57.9115" y1="31.4357" x2="82.8405" y2="31.4357" gradientUnits="userSpaceOnUse">
<stop stop-color="#FDF8FF"/>
<stop offset="0.514218" stop-color="#9E4ABC"/>
<stop offset="1" stop-color="#DFB5EA"/>
</linearGradient>
<linearGradient id="paint5_linear_1_4057" x1="83.1261" y1="31.4357" x2="108.055" y2="31.4357" gradientUnits="userSpaceOnUse">
<stop stop-color="#FDF8FF"/>
<stop offset="0.514218" stop-color="#9E4ABC"/>
<stop offset="1" stop-color="#DFB5EA"/>
</linearGradient>
<clipPath id="clip0_1_4057">
<rect width="93" height="35.0943" fill="white" transform="translate(28.5 12.4528)"/>
</clipPath>
</defs>
</svg>
