<svg width="150" height="60" viewBox="0 0 150 60" fill="none" xmlns="http://www.w3.org/2000/svg">
<path d="M64.1015 51.752V48.8427C64.1185 48.598 64.0832 48.3524 63.9979 48.1225C63.9126 47.8925 63.7792 47.6833 63.6067 47.509C63.4342 47.3346 63.2265 47.199 62.9974 47.1113C62.7683 47.0235 62.5232 46.9856 62.2783 47.0001C61.9579 46.9793 61.6377 47.0447 61.3512 47.1897C61.0646 47.3347 60.8222 47.5539 60.6492 47.8244C60.4915 47.5619 60.2659 47.3468 59.9963 47.2018C59.7266 47.0567 59.4228 46.987 59.1169 47.0001C58.8502 46.9867 58.5847 47.0432 58.3466 47.164C58.1084 47.2847 57.906 47.4656 57.7592 47.6887V47.1165H56.7506V51.752H57.7689V49.1821C57.7469 49.0236 57.7603 48.8621 57.8081 48.7093C57.8559 48.5565 57.9369 48.4162 58.0454 48.2984C58.1539 48.1807 58.2871 48.0884 58.4355 48.0283C58.5838 47.9681 58.7437 47.9416 58.9035 47.9506C59.5727 47.9506 59.9121 48.3869 59.9121 49.1724V51.752H60.9304V49.1821C60.91 49.0238 60.9246 48.863 60.973 48.711C61.0214 48.5589 61.1025 48.4193 61.2107 48.3019C61.3188 48.1845 61.4513 48.0922 61.5989 48.0316C61.7465 47.9709 61.9056 47.9432 62.065 47.9506C62.7535 47.9506 63.0833 48.3869 63.0833 49.1724V51.752H64.1015ZM69.7844 49.4342V47.1165H68.7758V47.679C68.6036 47.4571 68.3808 47.2797 68.1261 47.1616C67.8713 47.0435 67.5919 46.9881 67.3114 47.0001C66.6865 47.0308 66.0973 47.3006 65.6658 47.7537C65.2344 48.2069 64.9937 48.8086 64.9937 49.4343C64.9937 50.06 65.2344 50.6617 65.6658 51.1148C66.0973 51.5679 66.6865 51.8378 67.3114 51.8684C67.592 51.8804 67.8713 51.825 68.1261 51.7069C68.3808 51.5888 68.6036 51.4114 68.7758 51.1895V51.752H69.7844V49.4342ZM66.0314 49.4342C66.047 49.1607 66.1424 48.8977 66.3057 48.6777C66.4691 48.4577 66.6932 48.2904 66.9505 48.1962C67.2078 48.1021 67.487 48.0854 67.7537 48.148C68.0205 48.2107 68.263 48.3501 68.4514 48.5489C68.6399 48.7478 68.766 48.9975 68.8143 49.2672C68.8626 49.5369 68.8308 49.8148 68.723 50.0667C68.6152 50.3185 68.4361 50.5334 68.2076 50.6846C67.9792 50.8359 67.7115 50.917 67.4375 50.918C67.2455 50.9205 67.055 50.8833 66.8781 50.8087C66.7011 50.734 66.5416 50.6235 66.4095 50.4841C66.2774 50.3447 66.1756 50.1794 66.1105 49.9987C66.0454 49.818 66.0185 49.6258 66.0314 49.4342ZM91.3651 46.9947C91.7057 46.9914 92.0436 47.0547 92.3599 47.1811C92.6547 47.2987 92.9235 47.473 93.1512 47.6941C93.3753 47.914 93.5531 48.1765 93.674 48.4662C93.9259 49.087 93.9259 49.7815 93.674 50.4023C93.5531 50.692 93.3754 50.9546 93.1512 51.1744C92.9236 51.3956 92.6547 51.5698 92.3599 51.6874C91.72 51.936 91.0103 51.936 90.3704 51.6874C90.0761 51.5702 89.8079 51.3959 89.5814 51.1744C89.3586 50.954 89.1817 50.6915 89.061 50.4023C88.8094 49.7814 88.8094 49.087 89.061 48.4662C89.1818 48.177 89.3586 47.9146 89.5814 47.6941C89.808 47.4727 90.0761 47.2984 90.3704 47.1811C90.6867 47.0547 91.0246 46.9914 91.3651 46.9947ZM91.3651 47.9483C91.1679 47.9465 90.9722 47.9835 90.7892 48.0572C90.6168 48.1264 90.4603 48.2302 90.3294 48.3621C90.1976 48.4968 90.0939 48.6565 90.0244 48.8317C89.8759 49.2197 89.8759 49.6489 90.0244 50.037C90.0939 50.2122 90.1976 50.3718 90.3294 50.5065C90.4603 50.6384 90.6167 50.7422 90.7892 50.8114C91.1595 50.9566 91.5709 50.9566 91.9411 50.8114C92.1141 50.7418 92.2713 50.6381 92.4034 50.5065C92.5364 50.3722 92.6409 50.2125 92.7108 50.037C92.8593 49.6489 92.8593 49.2197 92.7108 48.8317C92.6409 48.6561 92.5363 48.4964 92.4034 48.3621C92.2713 48.2305 92.1141 48.1268 91.9411 48.0572C91.7581 47.9835 91.5624 47.9465 91.3651 47.9483ZM75.2724 49.4342C75.2627 47.9893 74.3705 47.0001 73.071 47.0001C72.442 47.0331 71.8502 47.3085 71.4198 47.7684C70.9894 48.2283 70.7539 48.8371 70.7627 49.4669C70.7715 50.0967 71.0239 50.6987 71.4669 51.1464C71.91 51.5942 72.5092 51.8529 73.1389 51.8684C73.8308 51.8927 74.5074 51.6614 75.0396 51.2186L74.5451 50.4719C74.1621 50.7788 73.6878 50.9494 73.1971 50.9568C72.8638 50.9848 72.5327 50.8821 72.2739 50.6703C72.0151 50.4585 71.8488 50.1543 71.8103 49.8221H75.253C75.2627 49.6961 75.2724 49.5701 75.2724 49.4342ZM71.82 49.0269C71.8377 48.7157 71.9765 48.4238 72.2067 48.2136C72.4368 48.0034 72.7401 47.8915 73.0516 47.902C73.3562 47.8961 73.6508 48.0112 73.8708 48.222C74.0907 48.4329 74.2181 48.7223 74.2251 49.0269H71.82ZM79.5198 48.2997C79.0797 48.0465 78.5824 47.9097 78.0749 47.902C77.522 47.902 77.1923 48.1057 77.1923 48.4452C77.1923 48.7555 77.5414 48.8427 77.9779 48.9008L78.453 48.9687C79.4616 49.1142 80.0725 49.5409 80.0725 50.3555C80.0725 51.238 79.2967 51.8684 77.9584 51.8684C77.2422 51.8882 76.5385 51.6774 75.951 51.267L76.4262 50.4816C76.8712 50.8116 77.4143 50.9824 77.9682 50.9665C78.6566 50.9665 79.0252 50.7629 79.0252 50.404C79.0252 50.1422 78.7633 49.9967 78.2106 49.9192L77.7354 49.8513C76.6978 49.7058 76.1353 49.2403 76.1353 48.4839C76.1353 47.5626 76.8917 47.0001 78.0651 47.0001C78.7289 46.9772 79.3853 47.1455 79.9562 47.485L79.5198 48.2997ZM84.3659 48.0378H82.7174V50.1326C82.7174 50.598 82.8822 50.9083 83.3865 50.9083C83.7013 50.8979 84.0083 50.8078 84.2787 50.6465L84.5696 51.5096C84.1915 51.7454 83.7545 51.8698 83.3089 51.8684C82.1161 51.8684 81.6992 51.2284 81.6992 50.1518V48.0378H80.7584V47.1165H81.6992L81.6989 45.7104H82.7171L82.7174 47.1165H84.3659V48.0378ZM87.8563 47.0001C88.101 47.0011 88.3437 47.0437 88.574 47.1263L88.2637 48.0766C88.0633 47.9968 87.8491 47.9572 87.6334 47.9602C86.9739 47.9602 86.6441 48.3869 86.6441 49.153V51.752H85.6356V47.1165H86.6345V47.679C86.7583 47.4663 86.9371 47.291 87.1521 47.1716C87.3672 47.0521 87.6104 46.9928 87.8563 47.0001ZM94.8387 51.0772C94.9014 51.0768 94.9635 51.0891 95.0214 51.1134C95.0769 51.1367 95.1276 51.1702 95.1706 51.2124C95.2133 51.2544 95.2475 51.3044 95.2712 51.3594C95.2955 51.4159 95.308 51.4768 95.308 51.5383C95.308 51.5999 95.2955 51.6607 95.2712 51.7173C95.2473 51.772 95.2132 51.8217 95.1706 51.8637C95.1275 51.9058 95.0769 51.9396 95.0214 51.9631C94.9636 51.9878 94.9015 52.0004 94.8387 51.9999C94.7463 52.0009 94.6557 51.9746 94.5782 51.9243C94.5006 51.874 94.4396 51.802 94.4028 51.7173C94.3786 51.6607 94.3661 51.5999 94.3661 51.5383C94.3661 51.4768 94.3786 51.4159 94.4028 51.3594C94.4265 51.3044 94.4605 51.2545 94.5029 51.2124C94.5459 51.1699 94.5968 51.1363 94.6527 51.1134C94.7117 51.0891 94.7749 51.0767 94.8387 51.0772ZM94.8387 51.8982C94.8865 51.8985 94.9339 51.8889 94.9778 51.8699C95.02 51.8516 95.0583 51.8255 95.0908 51.793C95.1325 51.7515 95.1633 51.7003 95.1806 51.6441C95.1979 51.5878 95.2011 51.5282 95.1899 51.4704C95.1788 51.4126 95.1536 51.3585 95.1166 51.3127C95.0796 51.2669 95.032 51.231 94.9778 51.2079C94.9339 51.1892 94.8865 51.1797 94.8387 51.1801C94.79 51.1798 94.7417 51.1892 94.6968 51.2079C94.6539 51.2255 94.6149 51.2514 94.582 51.2841C94.515 51.3518 94.4773 51.4432 94.4773 51.5386C94.4773 51.6339 94.515 51.7253 94.582 51.793C94.6158 51.8266 94.6558 51.8531 94.6999 51.8712C94.7439 51.8892 94.7911 51.8984 94.8387 51.8982ZM94.8658 51.3225C94.9113 51.3196 94.9563 51.3326 94.9931 51.3594C95.0078 51.3715 95.0194 51.3868 95.0272 51.4042C95.0349 51.4215 95.0385 51.4404 95.0377 51.4594C95.0382 51.4757 95.0353 51.4919 95.0292 51.507C95.0231 51.5221 95.0139 51.5357 95.0021 51.547C94.974 51.572 94.9384 51.5869 94.9009 51.5894L95.0411 51.7511H94.9315L94.8014 51.5905H94.7596V51.7511H94.668V51.3225H94.8658ZM94.7596 51.4029V51.5171H94.8648C94.885 51.5181 94.905 51.5132 94.9224 51.5029C94.9295 51.4982 94.9352 51.4917 94.939 51.484C94.9427 51.4764 94.9444 51.4679 94.9439 51.4594C94.9443 51.4511 94.9426 51.4428 94.9388 51.4353C94.9351 51.4279 94.9294 51.4215 94.9224 51.4169C94.905 51.4068 94.8849 51.4019 94.8648 51.4029H94.7596Z" fill="white"/>
<path d="M82.9318 11.7375H67.6358V39.2248H82.9318V11.7375Z" fill="#7375CF"/>
<path d="M68.6072 25.4811C68.6047 22.8339 69.2046 20.2208 70.3614 17.8397C71.5182 15.4586 73.2015 13.3718 75.2839 11.7375C72.7051 9.71045 69.608 8.44988 66.3466 8.09984C63.0853 7.74979 59.7912 8.3244 56.841 9.75797C53.8907 11.1915 51.4033 13.4262 49.6631 16.2067C47.9229 18.9871 47 22.201 47 25.4811C47 28.7612 47.9229 31.9751 49.6631 34.7556C51.4033 37.536 53.8907 39.7707 56.841 41.2042C59.7912 42.6378 63.0853 43.2124 66.3466 42.8624C69.608 42.5123 72.7051 41.2518 75.2839 39.2247C73.2015 37.5904 71.5182 35.5036 70.3614 33.1225C69.2046 30.7414 68.6048 28.1283 68.6072 25.4811Z" fill="#EB001B"/>
<path d="M101.899 36.3135V35.7507H102.126V35.6361H101.548V35.7507H101.775V36.3135H101.899ZM103.021 36.3135V35.635H102.844L102.64 36.1016L102.436 35.635H102.259V36.3135H102.384V35.8017L102.575 36.2429H102.705L102.896 35.8005V36.3135H103.021Z" fill="#00A2E5"/>
<path d="M103.567 25.4811C103.567 28.7612 102.644 31.9751 100.904 34.7555C99.164 37.5359 96.6767 39.7706 93.7265 41.2042C90.7763 42.6378 87.4823 43.2124 84.221 42.8624C80.9597 42.5123 77.8627 41.2518 75.2839 39.2247C77.3645 37.5887 79.0465 35.5016 80.2031 33.1209C81.3597 30.7402 81.9606 28.1279 81.9606 25.4811C81.9606 22.8343 81.3597 20.222 80.2031 17.8413C79.0465 15.4606 77.3645 13.3735 75.2839 11.7375C77.8627 9.71045 80.9597 8.44988 84.221 8.09983C87.4823 7.74979 90.7763 8.32441 93.7265 9.758C96.6767 11.1916 99.164 13.4263 100.904 16.2067C102.644 18.9871 103.567 22.201 103.567 25.4811Z" fill="#00A2E5"/>
</svg>
