<svg width="150" height="60" viewBox="0 0 150 60" fill="none" xmlns="http://www.w3.org/2000/svg">
<path d="M44.7044 15.9125H42.3494V18.4245H44.7044V15.9125Z" fill="#FF6E00"/>
<path d="M22.8555 18.7966H20.5005V21.3086H22.8555V18.7966Z" fill="#6414E6"/>
<path d="M25.5593 42.1024H23.2043V44.6143H25.5593V42.1024Z" fill="#19BEE6"/>
<path d="M39.2532 36.2875H36.8982V38.7995H39.2532V36.2875Z" fill="#E619DC"/>
<path fill-rule="evenodd" clip-rule="evenodd" d="M28.3068 15.9125H25.9518V18.4245H28.3068V15.9125ZM25.603 15.9125H23.248V18.4245H25.603V15.9125ZM28.6993 18.4245H31.0543V15.9125H28.6993V18.4245ZM33.8018 15.9125H31.4468V18.4245H33.8018V15.9125ZM36.5057 15.9125H34.1507V18.4245H36.5057V15.9125ZM41.957 15.9125H39.602V18.4245H41.957V15.9125ZM23.2044 21.3551H25.5593V18.8431H23.2044V21.3551ZM20.5005 24.2392H22.8555V21.7272H20.5005V24.2392ZM23.2044 24.2392H25.5593V21.7272H23.2044V24.2392ZM20.5005 27.1699H22.8555V24.6579H20.5005V27.1699ZM23.2044 27.1699H25.5593V24.6579H23.2044V27.1699ZM20.5005 30.1005H22.8555V27.5885H20.5005V30.1005ZM23.2044 30.1005H25.5593V27.5885H23.2044V30.1005ZM20.5005 32.9847H22.8555V30.4727H20.5005V32.9847ZM23.2044 32.9847H25.5593V30.4727H23.2044V32.9847ZM20.5005 35.9153H22.8555V33.4033H20.5005V35.9153ZM23.2044 35.9153H25.5593V33.4033H23.2044V35.9153ZM20.5005 38.7994H22.8555V36.2874H20.5005V38.7994ZM23.2044 38.7994H25.5593V36.2874H23.2044V38.7994ZM25.9518 35.9153H28.3068V33.4033H25.9518V35.9153ZM25.9518 38.7994H28.3068V36.2874H25.9518V38.7994ZM28.6993 35.9153H31.0543V33.4033H28.6993V35.9153ZM28.6993 38.7994H31.0543V36.2874H28.6993V38.7994ZM31.4032 35.9153H33.7582V33.4033H31.4032V35.9153ZM31.4032 38.7994H33.7582V36.2874H31.4032V38.7994ZM34.1507 35.9153H36.5057V33.4033H34.1507V35.9153ZM34.1507 38.7994H36.5057V36.2874H34.1507V38.7994ZM39.602 35.9153H41.957V33.4033H39.602V35.9153ZM20.5005 41.7301H22.8555V39.2181H20.5005V41.7301ZM20.5005 44.6607H22.8555V42.1487H20.5005V44.6607ZM23.2044 41.7301H25.5593V39.2181H23.2044V41.7301ZM25.9518 21.3551H28.3068V18.8431H25.9518V21.3551ZM28.6993 21.3551H31.0543V18.8431H28.6993V21.3551ZM31.4032 21.3551H33.7582V18.8431H31.4032V21.3551ZM34.1507 21.3551H36.5057V18.8431H34.1507V21.3551ZM36.8982 18.4245H39.2531V15.9125H36.8982V18.4245ZM36.8982 35.9153H39.2531V33.4033H36.8982V35.9153ZM36.8982 21.3551H39.2531V18.8431H36.8982V21.3551ZM39.602 21.3551H41.957V18.8431H39.602V21.3551ZM42.3495 21.3551H44.7045V18.8431H42.3495V21.3551ZM39.602 24.2392H41.957V21.7272H39.602V24.2392ZM42.3495 24.2392H44.7045V21.7272H42.3495V24.2392ZM45.0534 21.7272V24.2392H47.4084V21.7272H45.0534ZM42.3495 27.1699H44.7045V24.6579H42.3495V27.1699ZM45.0534 27.1699H47.4084V24.6579H45.0534V27.1699ZM42.3495 30.1005H44.7045V27.5885H42.3495V30.1005ZM45.0534 30.1005H47.4084V27.5885H45.0534V30.1005ZM42.3495 32.9847H44.7045V30.4727H42.3495V32.9847ZM42.3495 35.9153H44.7045V33.4033H42.3495V35.9153ZM39.602 32.9847H41.957V30.4727H39.602V32.9847ZM45.0534 32.9847H47.4084V30.4727H45.0534V32.9847Z" fill="white"/>
<path fill-rule="evenodd" clip-rule="evenodd" d="M52.8162 27.1698H55.1711V24.6578H52.8162V27.1698ZM52.8162 30.1004H55.1711V27.5884H52.8162V30.1004ZM52.8162 32.9845H55.1711V30.4726H52.8162V32.9845ZM52.8162 35.9152H55.1711V33.4032H52.8162V35.9152ZM52.8162 38.7993H55.1711V36.2873H52.8162V38.7993ZM55.5636 24.2391H57.9186V21.7271H55.5636V24.2391ZM55.5636 21.355H57.9186V18.843H55.5636V21.355ZM58.3111 24.2391H60.6661V21.7271H58.3111V24.2391ZM58.3111 21.355H60.6661V18.843H58.3111V21.355ZM63.4136 18.7965H61.0586V21.3085H63.4136V18.7965ZM61.015 18.4243H63.37V15.9124H61.015V18.4243ZM63.7625 21.355H66.1175V18.843H63.7625V21.355ZM63.7625 18.4243H66.1175V15.9124H63.7625V18.4243ZM66.4663 21.355H68.8213V18.843H66.4663V21.355ZM68.8649 15.9124H66.4663V18.4243H68.8213V15.9124H68.8649ZM71.5688 18.7965H69.2138V21.3085H71.5688V18.7965ZM69.2138 18.4243H71.5688V15.9124H69.2138V18.4243ZM55.5636 27.1698H57.9186V24.6578H55.5636V27.1698ZM55.5636 30.1004H57.9186V27.5884H55.5636V30.1004ZM55.5636 32.9845H57.9186V30.4726H55.5636V32.9845ZM66.4663 30.1004H68.8213V27.5884H66.4663V30.1004ZM66.4663 32.9845H68.8213V30.4726H66.4663V32.9845ZM71.5688 27.5419H69.2138V30.0539H71.5688V27.5419ZM71.5688 30.4726H69.2138V32.9845H71.5688V30.4726ZM71.9613 30.1004H74.3163V27.5884H71.9613V30.1004ZM71.9613 32.9845H74.3163V30.4726H71.9613V32.9845ZM71.9613 38.7993H74.3163V36.2873H71.9613V38.7993ZM74.6652 30.1004H77.0202V27.5884H74.6652V30.1004ZM74.6652 32.9845H77.0202V30.4726H74.6652V32.9845ZM71.9613 21.355H74.3163V18.843H71.9613V21.355ZM71.9613 24.2391H74.3163V21.7271H71.9613V24.2391ZM74.6652 21.355H77.0202V18.843H74.6652V21.355ZM74.6652 24.2391H77.0202V21.7271H74.6652V24.2391ZM55.5636 35.9152H57.9186V33.4032H55.5636V35.9152ZM55.5636 38.7993H57.9186V36.2873H55.5636V38.7993ZM58.3111 38.7993H60.6661V36.2873H58.3111V38.7993ZM58.3111 41.73H60.6661V39.218H58.3111V41.73ZM58.3111 44.6606H60.6661V42.1486H58.3111V44.6606ZM63.4136 39.218H61.0586V41.73H63.4136V39.218ZM61.015 44.6606H63.37V42.1486H61.015V44.6606ZM63.7625 41.73H66.1175V39.218H63.7625V41.73ZM63.7625 44.6606H66.1175V42.1486H63.7625V44.6606ZM66.4663 41.73H68.8213V39.218H66.4663V41.73ZM66.51 44.6606H68.8649V42.1486H66.51V44.6606ZM71.5688 39.218H69.2138V41.73H71.5688V39.218ZM69.2138 44.6606H71.5688V42.1486H69.2138V44.6606ZM71.9613 41.73H74.3163V39.218H71.9613V41.73ZM74.6652 41.73H77.0202V39.218H74.6652V41.73ZM74.6652 35.9152H77.0202V33.4032H74.6652V35.9152ZM74.6652 38.7993H77.0202V36.2873H74.6652V38.7993ZM77.4127 30.4726V32.9845H79.7676V30.4726H77.4127ZM77.4127 35.9152H79.7676V33.4032H77.4127V35.9152Z" fill="white"/>
<path d="M55.1711 21.727H52.8162V24.239H55.1711V21.727Z" fill="#E61973"/>
<path d="M60.666 15.9124H58.311V18.4243H60.666V15.9124Z" fill="#FFB919"/>
<path d="M57.9187 39.2178H55.5637V41.7298H57.9187V39.2178Z" fill="#1987E6"/>
<path d="M74.3164 42.1022H71.9614V44.6142H74.3164V42.1022Z" fill="#FF4B00"/>
<path d="M79.7676 27.5421H77.4126V30.054H79.7676V27.5421Z" fill="#14E691"/>
<path d="M79.7676 36.2874H77.4126V38.7993H79.7676V36.2874Z" fill="#FF1928"/>
<path d="M89.7546 15.9124H85.1318V23.7739H86.9635V20.8433H89.711V19.8199H90.6268V16.8892H89.711V15.9124H89.7546ZM88.8388 18.843H87.0071V17.8661H88.8388V18.843ZM92.5457 23.7739H96.209V22.797H97.1248V16.8892H96.209V15.9124H92.5457V16.8892H91.6298V22.797H92.5457V23.7739ZM93.4615 17.8661H95.2932V21.8202H93.4615V17.8661ZM99.0001 23.7739H102.663V22.797H103.579V20.8433H101.748V21.8202H99.9159V17.8661H101.748V18.843H103.579V16.8892H102.663V15.9124H99.0001V16.8892H98.0842V22.797H99.0001V23.7739ZM106.37 20.7968H108.202V23.7274H110.034V20.7968H109.118V18.843H110.034V15.9124H108.202V18.843H106.37V15.9124H104.539V23.7739H106.37V20.7968ZM116.488 21.8202H112.781V20.8433H115.529V18.8895H112.781V17.9126H116.488V15.9589H110.949V23.8204H116.488V21.8202ZM117.404 15.9124V17.8661H119.235V23.7739H121.067V17.8661H122.899V15.9124H117.404ZM87.9229 31.2634H88.8388V32.2402H87.0071V28.2862H89.7546V26.3324H86.0913V27.3093H85.1754V33.2171H86.0913V34.194H89.7546V33.2171H90.6704V29.3096H87.9229V31.2634ZM96.209 26.3324H92.5457V27.3093H91.6298V34.194H93.4615V32.2402H95.2932V34.194H97.1248V27.3093H96.209V26.3324ZM95.2932 30.2865H93.4615V28.3327H95.2932V30.2865ZM102.663 28.3327H101.748V29.3096H100.832V28.3327H99.9159V27.3558H99.0001V26.3324H98.0842V34.194H99.9159V31.2634H100.832V32.2402H101.748V31.2634H102.663V34.194H104.495V26.3324H103.579V27.3093H102.663V28.3327ZM105.454 34.194H110.949V32.2402H107.243V31.2634H109.99V29.3096H107.243V28.3327H110.949V26.3324H105.411V34.194H105.454ZM112.825 27.3093H111.909V30.24H112.825V31.2168H115.572V32.1937H111.909V34.1475H116.532V33.1706H117.447V30.24H116.532V29.2631H113.784V28.2862H117.491V26.3324H112.868V27.3093H112.825ZM86.0913 37.7759H85.1754V40.7066H86.0913V41.6834H88.8388V42.6603H85.1754V44.6141H89.7982V43.6372H90.714V40.7066H89.7982V39.7297H87.0507V38.7528H90.7576V36.799H86.0913V37.7759ZM96.209 36.799H92.5457V37.7759H91.6298V43.6837H92.5457V44.6606H96.209V43.6837H97.1248V37.7759H96.209V36.799ZM95.2932 42.7068H93.4615V38.7528H95.2932V42.7068ZM98.0842 44.6606H99.9159V41.6834H102.663V39.7297H99.9159V38.7528H103.623V36.799H98.0842V44.6606ZM104.495 38.7528H106.327V44.6606H108.158V38.7528H109.99V36.799H104.451V38.7528H104.495Z" fill="white"/>
<path d="M125.559 19.2618V16.4242H124.774V15.9125H126.824V16.4242H126.039V19.2618H125.559ZM127.26 19.2618V15.9125H127.783L128.786 18.0523L129.789 15.9125H130.312V19.2618H129.833V16.9824L129.091 18.6105H128.568L127.783 16.9359V19.2618H127.26Z" fill="white"/>
</svg>
