<svg width="12" height="210" viewBox="0 0 12 210" fill="none" xmlns="http://www.w3.org/2000/svg">
<circle cx="6" cy="6" r="6" transform="matrix(2.02253e-05 -1 1 3.85216e-08 0 210)" fill="#171213"/>
<circle cx="6" cy="6" r="6" transform="matrix(2.02253e-05 -1 1 3.85216e-08 0.000488281 188)" fill="#171213"/>
<circle cx="6" cy="6" r="6" transform="matrix(2.02253e-05 -1 1 3.85216e-08 0.000854492 166)" fill="#171213"/>
<circle cx="6" cy="6" r="6" transform="matrix(2.02253e-05 -1 1 3.85216e-08 0.00134277 144)" fill="#171213"/>
<circle cx="6" cy="6" r="6" transform="matrix(2.02253e-05 -1 1 3.85216e-08 0.00183105 122)" fill="#171213"/>
<circle cx="6" cy="6" r="6" transform="matrix(2.02253e-05 -1 1 3.85216e-08 0.00219727 100)" fill="#171213"/>
<circle cx="6" cy="6" r="6" transform="matrix(2.02253e-05 -1 1 3.85216e-08 0.00268555 78)" fill="#171213"/>
<circle cx="6" cy="6" r="6" transform="matrix(2.02253e-05 -1 1 3.85216e-08 0.00317383 56)" fill="#171213"/>
<circle cx="6" cy="6" r="6" transform="matrix(2.02253e-05 -1 1 3.85216e-08 0.00354004 34)" fill="#171213"/>
<circle cx="6" cy="6" r="6" transform="matrix(2.02253e-05 -1 1 3.85216e-08 0.00402832 12)" fill="#171213"/>
</svg>
