<svg width="150" height="60" viewBox="0 0 150 60" fill="none" xmlns="http://www.w3.org/2000/svg">
<g clip-path="url(#clip0_6791_41773)">
<mask id="mask0_6791_41773" style="mask-type:luminance" maskUnits="userSpaceOnUse" x="9" y="19" width="132" height="22">
<path d="M140.625 19.5H9.375V40.5H140.625V19.5Z" fill="white"/>
</mask>
<g mask="url(#mask0_6791_41773)">
<mask id="mask1_6791_41773" style="mask-type:luminance" maskUnits="userSpaceOnUse" x="9" y="19" width="132" height="22">
<path d="M140.625 19.5H9.375V40.1868H140.625V19.5Z" fill="white"/>
</mask>
<g mask="url(#mask1_6791_41773)">
<path d="M102.919 35.9217V23.7651C102.919 23.6003 103.063 23.456 103.228 23.456H105.639C105.721 23.456 105.825 23.4972 105.866 23.5591L111.676 30.5852V23.7445C111.676 23.5797 111.82 23.4354 111.985 23.4354H114.746C114.911 23.4354 115.055 23.5797 115.055 23.7445V35.9011C115.055 36.0659 114.911 36.2101 114.746 36.2101H112.314C112.232 36.2101 112.129 36.1689 112.088 36.1071L106.278 29.0811V35.9011C106.278 36.0659 106.133 36.2101 105.968 36.2101H103.207C103.063 36.2308 102.919 36.0865 102.919 35.9217Z" fill="#A6CE39"/>
<path d="M117.692 35.9218V23.7651C117.692 23.6003 117.837 23.4561 118.001 23.4561H127.356C127.521 23.4561 127.665 23.6003 127.665 23.7651V25.8462C127.665 26.011 127.521 26.1552 127.356 26.1552H121.092V28.5041H126.573C126.738 28.5041 126.882 28.6484 126.882 28.8132V30.7088C126.882 30.8736 126.738 31.0179 126.573 31.0179H121.092V33.5316H127.603C127.768 33.5316 127.912 33.6758 127.912 33.8406V35.9218C127.912 36.0865 127.768 36.2308 127.603 36.2308H118.001C117.816 36.2308 117.692 36.0865 117.692 35.9218Z" fill="#A6CE39"/>
<path d="M133.208 35.9217V26.1552H129.52C129.354 26.1552 129.21 26.011 129.21 25.8461V23.7445C129.21 23.5797 129.354 23.4354 129.52 23.4354H140.316C140.481 23.4354 140.625 23.5797 140.625 23.7445V25.8255C140.625 25.9904 140.481 26.1346 140.316 26.1346H136.648V35.9011C136.648 36.0659 136.504 36.2101 136.339 36.2101H133.496C133.331 36.2308 133.208 36.0865 133.208 35.9217Z" fill="#A6CE39"/>
<path d="M25.0138 34.5618C27.87 34.5618 30.1855 32.2464 30.1855 29.3901C30.1855 26.5338 27.87 24.2184 25.0138 24.2184C22.1576 24.2184 19.842 26.5338 19.842 29.3901C19.842 32.2464 22.1576 34.5618 25.0138 34.5618Z" fill="#A6CE39"/>
<path fill-rule="evenodd" clip-rule="evenodd" d="M33.2144 33.4492C33.0908 33.5316 32.926 33.3668 33.029 33.2431C35.6251 30.2143 36.5111 26.6085 34.9658 23.93C33.0702 20.6333 28.0634 19.9533 23.2625 21.7253C18.1114 23.6209 14.7529 27.5151 15.4328 31.4506C16.7927 39.5275 32.8641 38.8269 38.448 38.3737C38.6128 38.353 38.654 38.6003 38.4892 38.6415C24.1279 41.9176 11.4562 39.9396 9.58118 32.7075C7.7886 25.7638 18.1732 21.7047 22.8504 20.489C29.2584 18.8201 37.4589 18.8613 39.1279 23.5385C40.2199 26.5673 37.7474 30.4204 33.2144 33.4492Z" fill="#A6CE39"/>
<path d="M43.2694 35.7981L48.6472 23.6415C48.6884 23.5385 48.812 23.4561 48.9357 23.4561H52.0057C52.1293 23.4561 52.2323 23.5179 52.2942 23.6415L57.6719 35.7981C57.7544 36.0042 57.6101 36.2308 57.3834 36.2308H54.4988C54.3752 36.2308 54.2516 36.1484 54.2103 36.0454L53.2832 33.7582H47.5964L46.6692 36.0247C46.6279 36.1484 46.5043 36.2102 46.3807 36.2102H43.5373C43.3312 36.2308 43.187 36.0042 43.2694 35.7981ZM52.2942 31.2239L50.4604 26.6291L48.6266 31.2239H52.2942Z" fill="#A6CE39"/>
<path d="M59.0522 35.9218V23.7651C59.0522 23.6003 59.1964 23.4561 59.3613 23.4561H61.7308C61.8339 23.4561 61.9369 23.5179 61.9986 23.6003L66.4905 31.0797L70.9822 23.6003C71.044 23.5179 71.147 23.4561 71.25 23.4561H73.6195C73.7844 23.4561 73.9286 23.6003 73.9286 23.7651V35.9218C73.9286 36.0865 73.7844 36.2308 73.6195 36.2308H71.0646C70.8998 36.2308 70.7555 36.0865 70.7555 35.9218V29.0192L67.3146 34.7885C67.2527 34.8709 67.1498 34.9327 67.0468 34.9327H65.8929C65.7898 34.9327 65.6868 34.8709 65.6251 34.7885L62.2047 29.2253V35.9218C62.2047 36.0865 62.0605 36.2308 61.8956 36.2308H59.3407C59.1759 36.2308 59.0522 36.0865 59.0522 35.9218Z" fill="#A6CE39"/>
<path d="M82.5208 36.478C80.6252 36.478 79.1416 35.9629 78.0908 34.9327C77.04 33.9025 76.5249 32.4601 76.5249 30.544V23.7445C76.5249 23.5797 76.6691 23.4354 76.834 23.4354H79.6774C79.8422 23.4354 79.9864 23.5797 79.9864 23.7445V30.4203C79.9864 32.6044 80.8106 33.6552 82.5208 33.6552C84.2515 33.6552 85.1169 32.5632 85.1169 30.4203V23.7445C85.1169 23.5797 85.2612 23.4354 85.4259 23.4354H88.2076C88.3724 23.4354 88.5166 23.5797 88.5166 23.7445V30.5233C88.5166 32.4189 87.9809 33.8818 86.9301 34.9121C85.8998 35.9629 84.3957 36.478 82.5208 36.478Z" fill="#A6CE39"/>
<path d="M95.5427 36.4781C94.5125 36.4781 93.4822 36.3544 92.5138 36.0865C91.6896 35.8805 90.9891 35.5921 90.4328 35.2624C90.3091 35.1799 90.2474 35.0152 90.3091 34.8709L91.1952 32.8929C91.2157 32.8516 91.2569 32.7692 91.3806 32.7487C91.5042 32.7074 91.5866 32.7692 91.6072 32.7692C92.0811 33.0577 92.6374 33.2843 93.2762 33.4904C94.0591 33.7377 94.8215 33.8407 95.5839 33.8407C97.0676 33.8407 97.8096 33.4492 97.8096 32.6662C97.8096 32.3777 97.6853 31.9863 97.1288 31.739C96.7171 31.5536 96.0578 31.3682 95.1718 31.1621C94.2033 30.956 93.3792 30.7294 92.7405 30.4821C92.1018 30.2555 91.5454 29.864 91.0921 29.3489C90.6388 28.8338 90.4121 28.1333 90.4121 27.2679C90.4121 26.5055 90.6182 25.805 91.0509 25.1868C91.463 24.5687 92.1018 24.0742 92.9465 23.7239C93.7913 23.353 94.8421 23.1676 96.0578 23.1676C96.9022 23.1676 97.7474 23.2706 98.5507 23.4561C99.2306 23.6209 99.8492 23.8269 100.385 24.1154C100.529 24.1978 100.59 24.3627 100.529 24.5069L99.6838 26.5055C99.6637 26.5467 99.6226 26.6291 99.4983 26.6703C99.3959 26.691 99.3137 26.6497 99.2927 26.6497C98.1797 26.0934 97.0877 25.8256 96.0166 25.8256C95.2542 25.8256 94.7184 25.9286 94.3476 26.1758C93.9767 26.4231 93.7913 26.7322 93.7913 27.1236C93.7913 27.3915 93.9149 27.7624 94.4506 28.0096C94.8421 28.1951 95.5015 28.3599 96.3874 28.5453C97.3764 28.7514 98.2007 28.978 98.8394 29.2253C99.4782 29.4519 100.014 29.8434 100.488 30.3379C100.941 30.8324 101.168 31.533 101.168 32.3984C101.168 33.1608 100.961 33.8407 100.529 34.4588C100.117 35.0769 99.4782 35.5715 98.6329 35.9423C97.8096 36.2926 96.7583 36.4781 95.5427 36.4781Z" fill="#A6CE39"/>
</g>
</g>
</g>
<defs>
<clipPath id="clip0_6791_41773">
<rect width="150" height="60" fill="white"/>
</clipPath>
</defs>
</svg>
