<svg width="420" height="420" viewBox="0 0 420 420" fill="none" xmlns="http://www.w3.org/2000/svg">
<path d="M210.004 210L200.878 0H219.139L210.004 210Z" fill="url(#paint0_radial_7080_102954)"/>
<path d="M210.004 210L237.491 1.64326L255.478 4.74761L210.004 210Z" fill="url(#paint1_radial_7080_102954)"/>
<path d="M210.004 209.999L273.282 9.58607L290.447 15.7948L210.004 209.999Z" fill="url(#paint2_radial_7080_102954)"/>
<path d="M210.004 210.001L307.064 23.5577L322.951 32.6881L210.004 210.001Z" fill="url(#paint3_radial_7080_102954)"/>
<path d="M210.004 210.001L338.016 43.2794L351.985 54.9663L210.004 210.001Z" fill="url(#paint4_radial_7080_102954)"/>
<path d="M210.004 210.001L365.042 68.0228L376.728 81.9924L210.004 210.001Z" fill="url(#paint5_radial_7080_102954)"/>
<path d="M210.004 210.001L387.319 97.0572L396.449 112.944L210.004 210.001Z" fill="url(#paint6_radial_7080_102954)"/>
<path d="M210.004 210.001L404.21 129.562L410.418 146.727L210.004 210.001Z" fill="url(#paint7_radial_7080_102954)"/>
<path d="M210.004 210L415.257 164.53L418.361 182.517L210.004 210Z" fill="url(#paint8_radial_7080_102954)"/>
<path d="M210.004 209.999L420.004 200.869L420.004 219.13L210.004 209.999Z" fill="url(#paint9_radial_7080_102954)"/>
<path d="M210.004 210L418.36 237.483L415.255 255.47L210.004 210Z" fill="url(#paint10_radial_7080_102954)"/>
<path d="M210.004 210L410.416 273.274L404.207 290.439L210.004 210Z" fill="url(#paint11_radial_7080_102954)"/>
<path d="M210.004 210L396.446 307.056L387.315 322.943L210.004 210Z" fill="url(#paint12_radial_7080_102954)"/>
<path d="M210.004 210L376.723 338.009L365.036 351.978L210.004 210Z" fill="url(#paint13_radial_7080_102954)"/>
<path d="M210.004 210L351.979 365.035L338.009 376.722L210.004 210Z" fill="url(#paint14_radial_7080_102954)"/>
<path d="M210.004 210L322.944 387.313L307.057 396.444L210.004 210Z" fill="url(#paint15_radial_7080_102954)"/>
<path d="M210.004 210L290.439 404.204L273.274 410.413L210.004 210Z" fill="url(#paint16_radial_7080_102954)"/>
<path d="M210.004 210L255.47 415.252L237.482 418.357L210.004 210Z" fill="url(#paint17_radial_7080_102954)"/>
<path d="M210.004 210L219.13 420H200.869L210.004 210Z" fill="url(#paint18_radial_7080_102954)"/>
<path d="M210.004 210L182.517 418.357L164.53 415.252L210.004 210Z" fill="url(#paint19_radial_7080_102954)"/>
<path d="M210.004 210L146.726 410.413L129.561 404.204L210.004 210Z" fill="url(#paint20_radial_7080_102954)"/>
<path d="M210.004 210L112.944 396.444L97.057 387.313L210.004 210Z" fill="url(#paint21_radial_7080_102954)"/>
<path d="M210.004 210L81.9919 376.722L68.0225 365.035L210.004 210Z" fill="url(#paint22_radial_7080_102954)"/>
<path d="M210.004 210L54.9665 351.978L43.2799 338.009L210.004 210Z" fill="url(#paint23_radial_7080_102954)"/>
<path d="M210.004 210L32.6888 322.943L23.5587 307.056L210.004 210Z" fill="url(#paint24_radial_7080_102954)"/>
<path d="M210.004 210L15.7982 290.439L9.58989 273.274L210.004 210Z" fill="url(#paint25_radial_7080_102954)"/>
<path d="M210.004 210L4.75112 255.47L1.64714 237.483L210.004 210Z" fill="url(#paint26_radial_7080_102954)"/>
<path d="M210.004 209.999L0.00387727 219.13L0.00424589 200.869L210.004 209.999Z" fill="url(#paint27_radial_7080_102954)"/>
<path d="M210.004 210L1.64825 182.517L4.75296 164.53L210.004 210Z" fill="url(#paint28_radial_7080_102954)"/>
<path d="M210.004 210.001L9.59244 146.727L15.8015 129.562L210.004 210.001Z" fill="url(#paint29_radial_7080_102954)"/>
<path d="M210.004 210.001L23.5626 112.944L32.6934 97.0572L210.004 210.001Z" fill="url(#paint30_radial_7080_102954)"/>
<path d="M210.004 210.001L43.285 81.9924L54.9723 68.0228L210.004 210.001Z" fill="url(#paint31_radial_7080_102954)"/>
<path d="M210.004 210.001L68.0288 54.9663L81.9986 43.2794L210.004 210.001Z" fill="url(#paint32_radial_7080_102954)"/>
<path d="M210.004 210.001L97.0642 32.6881L112.951 23.5577L210.004 210.001Z" fill="url(#paint33_radial_7080_102954)"/>
<path d="M210.004 209.999L129.569 15.7948L146.734 9.58607L210.004 209.999Z" fill="url(#paint34_radial_7080_102954)"/>
<path d="M210.004 210L164.538 4.74761L182.525 1.64326L210.004 210Z" fill="url(#paint35_radial_7080_102954)"/>
<path d="M210.004 210L200.878 0H219.139L210.004 210Z" fill="url(#paint36_radial_7080_102954)"/>
<defs>
<radialGradient id="paint0_radial_7080_102954" cx="0" cy="0" r="1" gradientUnits="userSpaceOnUse" gradientTransform="translate(210.004 210) rotate(90.0012) scale(210 210)">
<stop offset="0.461458" stop-color="#1D1D1D"/>
<stop offset="1" stop-color="#1D1D1D" stop-opacity="0"/>
</radialGradient>
<radialGradient id="paint1_radial_7080_102954" cx="0" cy="0" r="1" gradientUnits="userSpaceOnUse" gradientTransform="translate(210.004 210) rotate(90.0012) scale(210 210)">
<stop offset="0.461458" stop-color="#1D1D1D"/>
<stop offset="1" stop-color="#1D1D1D" stop-opacity="0"/>
</radialGradient>
<radialGradient id="paint2_radial_7080_102954" cx="0" cy="0" r="1" gradientUnits="userSpaceOnUse" gradientTransform="translate(210.004 210) rotate(90.0012) scale(210 210)">
<stop offset="0.461458" stop-color="#1D1D1D"/>
<stop offset="1" stop-color="#1D1D1D" stop-opacity="0"/>
</radialGradient>
<radialGradient id="paint3_radial_7080_102954" cx="0" cy="0" r="1" gradientUnits="userSpaceOnUse" gradientTransform="translate(210.004 210) rotate(90.0012) scale(210 210)">
<stop offset="0.461458" stop-color="#1D1D1D"/>
<stop offset="1" stop-color="#1D1D1D" stop-opacity="0"/>
</radialGradient>
<radialGradient id="paint4_radial_7080_102954" cx="0" cy="0" r="1" gradientUnits="userSpaceOnUse" gradientTransform="translate(210.004 210) rotate(90.0012) scale(210 210)">
<stop offset="0.461458" stop-color="#1D1D1D"/>
<stop offset="1" stop-color="#1D1D1D" stop-opacity="0"/>
</radialGradient>
<radialGradient id="paint5_radial_7080_102954" cx="0" cy="0" r="1" gradientUnits="userSpaceOnUse" gradientTransform="translate(210.004 210) rotate(90.0012) scale(210 210)">
<stop offset="0.461458" stop-color="#1D1D1D"/>
<stop offset="1" stop-color="#1D1D1D" stop-opacity="0"/>
</radialGradient>
<radialGradient id="paint6_radial_7080_102954" cx="0" cy="0" r="1" gradientUnits="userSpaceOnUse" gradientTransform="translate(210.004 210) rotate(90.0012) scale(210 210)">
<stop offset="0.461458" stop-color="#1D1D1D"/>
<stop offset="1" stop-color="#1D1D1D" stop-opacity="0"/>
</radialGradient>
<radialGradient id="paint7_radial_7080_102954" cx="0" cy="0" r="1" gradientUnits="userSpaceOnUse" gradientTransform="translate(210.004 210) rotate(90.0012) scale(210 210)">
<stop offset="0.461458" stop-color="#1D1D1D"/>
<stop offset="1" stop-color="#1D1D1D" stop-opacity="0"/>
</radialGradient>
<radialGradient id="paint8_radial_7080_102954" cx="0" cy="0" r="1" gradientUnits="userSpaceOnUse" gradientTransform="translate(210.004 210) rotate(90.0012) scale(210 210)">
<stop offset="0.461458" stop-color="#1D1D1D"/>
<stop offset="1" stop-color="#1D1D1D" stop-opacity="0"/>
</radialGradient>
<radialGradient id="paint9_radial_7080_102954" cx="0" cy="0" r="1" gradientUnits="userSpaceOnUse" gradientTransform="translate(210.004 210) rotate(90.0012) scale(210 210)">
<stop offset="0.461458" stop-color="#1D1D1D"/>
<stop offset="1" stop-color="#1D1D1D" stop-opacity="0"/>
</radialGradient>
<radialGradient id="paint10_radial_7080_102954" cx="0" cy="0" r="1" gradientUnits="userSpaceOnUse" gradientTransform="translate(210.004 210) rotate(90.0012) scale(210 210)">
<stop offset="0.461458" stop-color="#1D1D1D"/>
<stop offset="1" stop-color="#1D1D1D" stop-opacity="0"/>
</radialGradient>
<radialGradient id="paint11_radial_7080_102954" cx="0" cy="0" r="1" gradientUnits="userSpaceOnUse" gradientTransform="translate(210.004 210) rotate(90.0012) scale(210 210)">
<stop offset="0.461458" stop-color="#1D1D1D"/>
<stop offset="1" stop-color="#1D1D1D" stop-opacity="0"/>
</radialGradient>
<radialGradient id="paint12_radial_7080_102954" cx="0" cy="0" r="1" gradientUnits="userSpaceOnUse" gradientTransform="translate(210.004 210) rotate(90.0012) scale(210 210)">
<stop offset="0.461458" stop-color="#1D1D1D"/>
<stop offset="1" stop-color="#1D1D1D" stop-opacity="0"/>
</radialGradient>
<radialGradient id="paint13_radial_7080_102954" cx="0" cy="0" r="1" gradientUnits="userSpaceOnUse" gradientTransform="translate(210.004 210) rotate(90.0012) scale(210 210)">
<stop offset="0.461458" stop-color="#1D1D1D"/>
<stop offset="1" stop-color="#1D1D1D" stop-opacity="0"/>
</radialGradient>
<radialGradient id="paint14_radial_7080_102954" cx="0" cy="0" r="1" gradientUnits="userSpaceOnUse" gradientTransform="translate(210.004 210) rotate(90.0012) scale(210 210)">
<stop offset="0.461458" stop-color="#1D1D1D"/>
<stop offset="1" stop-color="#1D1D1D" stop-opacity="0"/>
</radialGradient>
<radialGradient id="paint15_radial_7080_102954" cx="0" cy="0" r="1" gradientUnits="userSpaceOnUse" gradientTransform="translate(210.004 210) rotate(90.0012) scale(210 210)">
<stop offset="0.461458" stop-color="#1D1D1D"/>
<stop offset="1" stop-color="#1D1D1D" stop-opacity="0"/>
</radialGradient>
<radialGradient id="paint16_radial_7080_102954" cx="0" cy="0" r="1" gradientUnits="userSpaceOnUse" gradientTransform="translate(210.004 210) rotate(90.0012) scale(210 210)">
<stop offset="0.461458" stop-color="#1D1D1D"/>
<stop offset="1" stop-color="#1D1D1D" stop-opacity="0"/>
</radialGradient>
<radialGradient id="paint17_radial_7080_102954" cx="0" cy="0" r="1" gradientUnits="userSpaceOnUse" gradientTransform="translate(210.004 210) rotate(90.0012) scale(210 210)">
<stop offset="0.461458" stop-color="#1D1D1D"/>
<stop offset="1" stop-color="#1D1D1D" stop-opacity="0"/>
</radialGradient>
<radialGradient id="paint18_radial_7080_102954" cx="0" cy="0" r="1" gradientUnits="userSpaceOnUse" gradientTransform="translate(210.004 210) rotate(90.0012) scale(210 210)">
<stop offset="0.461458" stop-color="#1D1D1D"/>
<stop offset="1" stop-color="#1D1D1D" stop-opacity="0"/>
</radialGradient>
<radialGradient id="paint19_radial_7080_102954" cx="0" cy="0" r="1" gradientUnits="userSpaceOnUse" gradientTransform="translate(210.004 210) rotate(90.0012) scale(210 210)">
<stop offset="0.461458" stop-color="#1D1D1D"/>
<stop offset="1" stop-color="#1D1D1D" stop-opacity="0"/>
</radialGradient>
<radialGradient id="paint20_radial_7080_102954" cx="0" cy="0" r="1" gradientUnits="userSpaceOnUse" gradientTransform="translate(210.004 210) rotate(90.0012) scale(210 210)">
<stop offset="0.461458" stop-color="#1D1D1D"/>
<stop offset="1" stop-color="#1D1D1D" stop-opacity="0"/>
</radialGradient>
<radialGradient id="paint21_radial_7080_102954" cx="0" cy="0" r="1" gradientUnits="userSpaceOnUse" gradientTransform="translate(210.004 210) rotate(90.0012) scale(210 210)">
<stop offset="0.461458" stop-color="#1D1D1D"/>
<stop offset="1" stop-color="#1D1D1D" stop-opacity="0"/>
</radialGradient>
<radialGradient id="paint22_radial_7080_102954" cx="0" cy="0" r="1" gradientUnits="userSpaceOnUse" gradientTransform="translate(210.004 210) rotate(90.0012) scale(210 210)">
<stop offset="0.461458" stop-color="#1D1D1D"/>
<stop offset="1" stop-color="#1D1D1D" stop-opacity="0"/>
</radialGradient>
<radialGradient id="paint23_radial_7080_102954" cx="0" cy="0" r="1" gradientUnits="userSpaceOnUse" gradientTransform="translate(210.004 210) rotate(90.0012) scale(210 210)">
<stop offset="0.461458" stop-color="#1D1D1D"/>
<stop offset="1" stop-color="#1D1D1D" stop-opacity="0"/>
</radialGradient>
<radialGradient id="paint24_radial_7080_102954" cx="0" cy="0" r="1" gradientUnits="userSpaceOnUse" gradientTransform="translate(210.004 210) rotate(90.0012) scale(210 210)">
<stop offset="0.461458" stop-color="#1D1D1D"/>
<stop offset="1" stop-color="#1D1D1D" stop-opacity="0"/>
</radialGradient>
<radialGradient id="paint25_radial_7080_102954" cx="0" cy="0" r="1" gradientUnits="userSpaceOnUse" gradientTransform="translate(210.004 210) rotate(90.0012) scale(210 210)">
<stop offset="0.461458" stop-color="#1D1D1D"/>
<stop offset="1" stop-color="#1D1D1D" stop-opacity="0"/>
</radialGradient>
<radialGradient id="paint26_radial_7080_102954" cx="0" cy="0" r="1" gradientUnits="userSpaceOnUse" gradientTransform="translate(210.004 210) rotate(90.0012) scale(210 210)">
<stop offset="0.461458" stop-color="#1D1D1D"/>
<stop offset="1" stop-color="#1D1D1D" stop-opacity="0"/>
</radialGradient>
<radialGradient id="paint27_radial_7080_102954" cx="0" cy="0" r="1" gradientUnits="userSpaceOnUse" gradientTransform="translate(210.004 210) rotate(90.0012) scale(210 210)">
<stop offset="0.461458" stop-color="#1D1D1D"/>
<stop offset="1" stop-color="#1D1D1D" stop-opacity="0"/>
</radialGradient>
<radialGradient id="paint28_radial_7080_102954" cx="0" cy="0" r="1" gradientUnits="userSpaceOnUse" gradientTransform="translate(210.004 210) rotate(90.0012) scale(210 210)">
<stop offset="0.461458" stop-color="#1D1D1D"/>
<stop offset="1" stop-color="#1D1D1D" stop-opacity="0"/>
</radialGradient>
<radialGradient id="paint29_radial_7080_102954" cx="0" cy="0" r="1" gradientUnits="userSpaceOnUse" gradientTransform="translate(210.004 210) rotate(90.0012) scale(210 210)">
<stop offset="0.461458" stop-color="#1D1D1D"/>
<stop offset="1" stop-color="#1D1D1D" stop-opacity="0"/>
</radialGradient>
<radialGradient id="paint30_radial_7080_102954" cx="0" cy="0" r="1" gradientUnits="userSpaceOnUse" gradientTransform="translate(210.004 210) rotate(90.0012) scale(210 210)">
<stop offset="0.461458" stop-color="#1D1D1D"/>
<stop offset="1" stop-color="#1D1D1D" stop-opacity="0"/>
</radialGradient>
<radialGradient id="paint31_radial_7080_102954" cx="0" cy="0" r="1" gradientUnits="userSpaceOnUse" gradientTransform="translate(210.004 210) rotate(90.0012) scale(210 210)">
<stop offset="0.461458" stop-color="#1D1D1D"/>
<stop offset="1" stop-color="#1D1D1D" stop-opacity="0"/>
</radialGradient>
<radialGradient id="paint32_radial_7080_102954" cx="0" cy="0" r="1" gradientUnits="userSpaceOnUse" gradientTransform="translate(210.004 210) rotate(90.0012) scale(210 210)">
<stop offset="0.461458" stop-color="#1D1D1D"/>
<stop offset="1" stop-color="#1D1D1D" stop-opacity="0"/>
</radialGradient>
<radialGradient id="paint33_radial_7080_102954" cx="0" cy="0" r="1" gradientUnits="userSpaceOnUse" gradientTransform="translate(210.004 210) rotate(90.0012) scale(210 210)">
<stop offset="0.461458" stop-color="#1D1D1D"/>
<stop offset="1" stop-color="#1D1D1D" stop-opacity="0"/>
</radialGradient>
<radialGradient id="paint34_radial_7080_102954" cx="0" cy="0" r="1" gradientUnits="userSpaceOnUse" gradientTransform="translate(210.004 210) rotate(90.0012) scale(210 210)">
<stop offset="0.461458" stop-color="#1D1D1D"/>
<stop offset="1" stop-color="#1D1D1D" stop-opacity="0"/>
</radialGradient>
<radialGradient id="paint35_radial_7080_102954" cx="0" cy="0" r="1" gradientUnits="userSpaceOnUse" gradientTransform="translate(210.004 210) rotate(90.0012) scale(210 210)">
<stop offset="0.461458" stop-color="#1D1D1D"/>
<stop offset="1" stop-color="#1D1D1D" stop-opacity="0"/>
</radialGradient>
<radialGradient id="paint36_radial_7080_102954" cx="0" cy="0" r="1" gradientUnits="userSpaceOnUse" gradientTransform="translate(210.004 210) rotate(90.0012) scale(210 210)">
<stop offset="0.461458" stop-color="#1D1D1D"/>
<stop offset="1" stop-color="#1D1D1D" stop-opacity="0"/>
</radialGradient>
</defs>
</svg>
