<svg width="32" height="32" viewBox="0 0 32 32" fill="none" xmlns="http://www.w3.org/2000/svg">
<path fill-rule="evenodd" clip-rule="evenodd" d="M25.8701 3.05705L26.7755 8.52012L31.9852 11.0535L29.3581 16.0071L32 20.9606L26.7458 23.494L25.8404 28.9571L20.0668 28.0938L15.9555 32L11.8293 28.0372L6.10018 28.9429L5.17996 23.4374L0 20.9182L2.64193 15.9646L0.0148423 11.0535L5.22449 8.49182L6.12987 3.07121L11.8738 3.977L16 0L20.1113 3.92039L25.8701 3.05705ZM11.6021 20H10.1826L7.41945 14.7363V20H6V12H7.41945L10.1874 17.2747V12H11.6021V20ZM16.9865 16.533H14.2612V18.6758H17.4597V20H12.8417V12H17.4502V13.3352H14.2612V15.2418H16.9865V16.533ZM24.5853 12L23.6579 17.6923L22.5271 12H21.3253L20.1897 17.6813L19.2576 12H17.8429L19.3712 20H20.8001L21.9215 14.6484L23.0428 20H24.4717L26 12H24.5853Z" fill="#80858F"/>
</svg>
