<svg width="142" height="41" viewBox="0 0 142 41" fill="none" xmlns="http://www.w3.org/2000/svg">
<path d="M8.33624 40.58H0V3.8556H14.6418C15.9852 3.8556 17.2776 4.03092 18.5189 4.38029C19.7602 4.7303 20.9206 5.22536 22.0007 5.86546C23.0801 6.50557 24.0668 7.2737 24.9595 8.17048C25.8522 9.06662 26.6173 10.0618 27.2554 11.1541C27.8929 12.247 28.3859 13.4162 28.7351 14.6623C29.0838 15.9085 29.2581 17.2064 29.2581 18.5553C29.2581 20.5702 28.8752 22.4697 28.1101 24.2532C27.345 26.0373 26.2992 27.595 24.9726 28.9269C23.646 30.2588 22.094 31.3089 20.3174 32.077C18.54 32.8451 16.6482 33.2292 14.6418 33.2292H8.33624V40.58ZM8.2578 12.2533V24.8447H14.6181C15.4897 24.8447 16.3095 24.6802 17.0784 24.351C17.8466 24.0218 18.5189 23.5721 19.0953 23.002C19.6718 22.4319 20.1256 21.7628 20.458 20.9947C20.7905 20.2272 20.9567 19.4117 20.9567 18.549C20.9567 17.6863 20.7905 16.8709 20.458 16.1034C20.1256 15.3359 19.6712 14.6668 19.0953 14.096C18.5195 13.5253 17.8466 13.0763 17.0784 12.7471C16.3102 12.4179 15.4897 12.2533 14.6181 12.2533H8.2578Z" fill="#ff0123"/>
<path d="M40.0533 40.5611H31.8285V3.83731H40.0533V40.5611Z" fill="#ff0123"/>
<path d="M65.8526 40.58L53.366 19.0094V40.58H45.1524V3.8556H53.6355L66.0779 25.3474V3.8556H74.3295V40.58H65.8526Z" fill="#ff0123"/>
<path d="M100.565 31.4905C99.121 32.2656 97.4744 32.7051 95.7263 32.7051C90.0078 32.7051 85.3719 28.0087 85.3719 22.2156C85.3719 16.4225 90.0078 11.7261 95.7263 11.7261C97.475 11.7261 99.1222 12.1662 100.567 12.9413C101.757 10.3847 103.424 8.10047 105.451 6.20601C102.63 4.44903 99.3096 3.43496 95.755 3.43496C85.5151 3.43496 77.2143 11.844 77.2143 22.2175C77.2143 32.591 85.5151 41 95.755 41C99.3096 41 102.63 39.9859 105.451 38.2289C103.423 36.3339 101.755 34.049 100.565 31.4905Z" fill="#ff0123"/>
<path d="M120.037 3.41667C109.797 3.41667 101.497 11.8257 101.497 22.1992C101.497 32.5727 109.797 40.9817 120.037 40.9817C130.277 40.9817 138.578 32.5727 138.578 22.1992C138.578 11.8257 130.277 3.41667 120.037 3.41667ZM120 32.6887C114.282 32.6887 109.646 27.9923 109.646 22.1992C109.646 16.4061 114.282 11.7097 120 11.7097C125.719 11.7097 130.355 16.4061 130.355 22.1992C130.355 27.9923 125.719 32.6887 120 32.6887Z" fill="#ff0123"/>
<path d="M119.986 27.1923C122.662 27.1923 124.831 24.9948 124.831 22.2841C124.831 19.5733 122.662 17.3758 119.986 17.3758C117.311 17.3758 115.141 19.5733 115.141 22.2841C115.141 24.9948 117.311 27.1923 119.986 27.1923Z" fill="#ff0123"/>
<path d="M141.894 6.5227C141.678 6.00207 141.169 5.66316 140.605 5.66316H136.328V1.39311C136.328 0.830349 135.99 0.321665 135.467 0.106622C134.946 -0.110937 134.347 0.0116758 133.947 0.408437L128.369 6.07124C128.108 6.33218 127.96 6.68556 127.96 7.05591V12.0491L118.513 21.4814C118.226 21.7367 118.048 22.1102 118.048 22.5239C118.048 23.2929 118.673 23.9167 119.443 23.9167C119.868 23.9167 120.192 23.7023 120.508 23.4281L129.932 14.0184H134.933C135.303 14.0184 135.658 13.8713 135.919 13.6103L141.591 8.04058C141.99 7.64193 142.11 7.04396 141.894 6.5227Z" fill="#e9c05f"/>
</svg>
