<svg width="33" height="32" viewBox="0 0 33 32" fill="none" xmlns="http://www.w3.org/2000/svg">
<path d="M12.0552 26.9024C12.3409 27.5943 11.5163 28.2846 10.803 27.8797C4.96326 24.5659 4.12847 19.4776 9.05369 13.2072C9.51561 12.6189 10.547 12.8931 10.6555 13.5962C10.7186 14.0028 10.804 14.3934 10.9199 14.7625C11.1434 15.4727 11.8901 15.2025 11.8428 14.4675C11.6758 11.8863 12.3808 7.89574 17.7048 4.16265C18.3263 3.7274 19.2353 4.22961 19.2102 4.91756C18.8763 14.0131 33.4284 17.6721 23.962 26.4217C23.3099 27.0235 22.1116 26.3021 22.2275 25.4866C22.758 21.7719 18.9403 20.6933 17.9636 16.5561C17.8106 15.9064 16.8691 15.5955 16.4072 16.1272C14.7979 17.9766 14.4501 19.8922 14.9148 21.9815C15.0558 22.6129 14.3778 23.1119 13.8147 22.6894C13.5215 22.4677 13.2495 22.2262 13.0013 21.9672C12.506 21.453 11.4959 21.5223 11.3846 22.1832C11.1045 23.8461 11.4681 25.4755 12.0552 26.9024Z" fill="#80858F"/>
</svg>
