<svg width="32" height="32" viewBox="0 0 32 32" fill="none" xmlns="http://www.w3.org/2000/svg">
<path d="M25.8177 25.0665C25.8946 25.0666 25.9677 25.0821 26.0375 25.1036C26.0599 25.1105 26.083 25.1151 26.1049 25.1241C26.1223 25.1314 26.1379 25.142 26.1547 25.1505C26.2237 25.1855 26.2903 25.2286 26.348 25.2863C26.4007 25.339 26.4403 25.3996 26.474 25.462C26.486 25.4843 26.4994 25.5059 26.5091 25.5294C26.5168 25.5478 26.5206 25.5673 26.5267 25.5861C26.5504 25.659 26.5667 25.7357 26.5668 25.8165V29.5929C26.5666 30.0069 26.2308 30.3428 25.8168 30.3429C25.4028 30.3428 25.0669 30.0069 25.0668 29.5929V27.4865C19.323 32.0316 10.9579 31.652 5.6527 26.3468C5.36015 26.054 5.36013 25.5791 5.6527 25.2863C5.94553 24.9938 6.42044 24.9937 6.71325 25.2863C11.3723 29.9453 18.6612 30.372 23.8021 26.5665H22.0414C21.6272 26.5665 21.2914 26.2307 21.2914 25.8165C21.2916 25.4025 21.6273 25.0665 22.0414 25.0665H25.8177ZM6.93298 4.51379C12.6765 -0.0317169 21.0416 0.347326 26.347 5.65247C26.6399 5.94531 26.6398 6.42011 26.347 6.71301C26.0541 7.00591 25.5794 7.00591 25.2865 6.71301C20.6275 2.05426 13.3393 1.62832 8.1986 5.43372H9.95934C10.3733 5.43397 10.7093 5.76966 10.7093 6.18372C10.7091 6.59753 10.3732 6.93346 9.95934 6.93372H6.18298C6.09958 6.9337 6.0206 6.91589 5.94567 6.89075C5.92919 6.88523 5.91201 6.88182 5.89587 6.87512C5.87231 6.86533 5.85075 6.85202 5.82848 6.83997C5.76614 6.80626 5.70539 6.76664 5.6527 6.71399C5.6223 6.68358 5.59574 6.65025 5.57165 6.61633C5.53927 6.57069 5.51223 6.52128 5.49059 6.46887C5.46995 6.41879 5.45403 6.36725 5.44469 6.31458C5.43719 6.27208 5.43301 6.22835 5.43298 6.18372V2.40735C5.43305 1.99325 5.76889 1.65745 6.18298 1.65735C6.59715 1.65735 6.93291 1.99319 6.93298 2.40735V4.51379Z" fill="#80858F"/>
<path d="M29.7979 8.20947C30.9784 8.10262 32 9.03095 32 10.2163V21.7837C32 22.969 30.9784 23.8974 29.7979 23.7905C26.558 23.4973 20.4143 23.0005 16 23.0005C11.5857 23.0005 5.44196 23.4973 2.20215 23.7905C1.02162 23.8974 0 22.969 0 21.7837V10.2163C0 9.03095 1.02162 8.10262 2.20215 8.20947C5.44196 8.5027 11.5857 9.00049 16 9.00049C20.4143 9.00049 26.558 8.5027 29.7979 8.20947ZM10.126 12.3716C9.75481 12.3716 9.41601 12.4375 9.10938 12.5698C8.80268 12.699 8.53721 12.891 8.31445 13.146C8.09502 13.401 7.92605 13.7193 7.80664 14.1001C7.68725 14.4809 7.62699 14.9245 7.62695 15.4312V16.6177C7.62695 17.1148 7.68723 17.5508 7.80664 17.9253C7.92926 18.2996 8.09995 18.613 8.31934 18.8647C8.54209 19.1133 8.80756 19.3004 9.11426 19.4263C9.42091 19.5521 9.76131 19.6157 10.1357 19.6157C10.507 19.6157 10.8457 19.5522 11.1523 19.4263C11.459 19.3004 11.7229 19.1133 11.9424 18.8647C12.1618 18.613 12.3291 18.2996 12.4453 17.9253C12.5615 17.5508 12.6201 17.1148 12.6201 16.6177V15.4312C12.6201 14.9245 12.5598 14.4809 12.4404 14.1001C12.3242 13.7193 12.1553 13.401 11.9326 13.146C11.7131 12.891 11.4493 12.699 11.1426 12.5698C10.8392 12.4375 10.5004 12.3716 10.126 12.3716ZM19.7578 12.4683V17.3394C19.7578 17.8785 19.8551 18.3161 20.0488 18.6519C20.2458 18.9875 20.5169 19.2332 20.8623 19.3882C21.2076 19.5398 21.6018 19.6157 22.0439 19.6157C22.4764 19.6157 22.8656 19.5399 23.2109 19.3882C23.5563 19.2332 23.8292 18.9875 24.0293 18.6519C24.2294 18.3161 24.3291 17.8784 24.3291 17.3394V12.4683H23.0312V17.3394C23.0312 17.659 22.9925 17.9062 22.915 18.0806C22.8376 18.2549 22.7263 18.3744 22.5811 18.439C22.4359 18.5035 22.2568 18.5356 22.0439 18.5356C21.8309 18.5356 21.6511 18.5035 21.5059 18.439C21.3606 18.3744 21.2477 18.2549 21.167 18.0806C21.0895 17.9062 21.0508 17.659 21.0508 17.3394V12.4683H19.7578ZM27.54 12.3716C27.2172 12.3716 26.9213 12.4176 26.6533 12.5112C26.3887 12.6049 26.1595 12.7393 25.9658 12.9136C25.7722 13.0847 25.6221 13.2916 25.5156 13.5337C25.4124 13.7725 25.3604 14.0372 25.3604 14.3276C25.3604 14.6245 25.414 14.8842 25.5205 15.1069C25.6302 15.3296 25.7803 15.5234 25.9707 15.688C26.1612 15.8526 26.378 15.9986 26.6201 16.1245C26.8621 16.2471 27.1186 16.3635 27.3896 16.4731C27.6187 16.5667 27.806 16.6582 27.9512 16.7485C28.0963 16.8356 28.2077 16.9248 28.2852 17.0151C28.3625 17.1054 28.4146 17.2054 28.4404 17.3149C28.4695 17.4214 28.4844 17.5444 28.4844 17.6831C28.4844 17.8509 28.4545 18.001 28.3965 18.1333C28.3384 18.2624 28.247 18.3647 28.1211 18.439C27.9952 18.5132 27.8303 18.5503 27.627 18.5503C27.4559 18.5503 27.3026 18.5288 27.167 18.4868C27.0314 18.4416 26.9152 18.3724 26.8184 18.2788C26.7215 18.182 26.649 18.0558 26.6006 17.9009C26.5522 17.7428 26.5273 17.5555 26.5273 17.3394H25.2344C25.2344 17.7268 25.2979 18.0647 25.4238 18.3521C25.5497 18.636 25.722 18.8719 25.9414 19.0591C26.1609 19.2463 26.4132 19.3864 26.6973 19.48C26.9845 19.5703 27.2863 19.6157 27.6025 19.6157C27.9318 19.6157 28.2311 19.5704 28.499 19.48C28.77 19.3864 29.001 19.2535 29.1914 19.0825C29.3816 18.9116 29.5269 18.7069 29.627 18.4683C29.727 18.2294 29.7773 17.9639 29.7773 17.6733C29.7773 17.3797 29.7369 17.1183 29.6562 16.8892C29.5755 16.6599 29.4527 16.4547 29.2881 16.2739C29.1267 16.09 28.923 15.926 28.6777 15.7808C28.4324 15.6323 28.1464 15.4962 27.8203 15.3735C27.6429 15.3058 27.4811 15.2365 27.3359 15.1655C27.1942 15.0914 27.0736 15.0137 26.9736 14.9331C26.8736 14.8524 26.7944 14.7633 26.7363 14.6665C26.6815 14.5665 26.6533 14.4551 26.6533 14.3325C26.6533 14.1614 26.6848 14.0098 26.7461 13.8774C26.8074 13.7418 26.9021 13.6346 27.0312 13.5571C27.1604 13.4765 27.3253 13.436 27.5254 13.436C27.7382 13.4361 27.9123 13.4832 28.0479 13.5767C28.1834 13.6703 28.2824 13.8014 28.3438 13.9692C28.4083 14.1338 28.4404 14.3227 28.4404 14.5356H29.7334C29.7334 14.1258 29.6443 13.7581 29.4668 13.4321C29.2893 13.1061 29.0379 12.8472 28.7119 12.6567C28.3859 12.4663 27.9951 12.3716 27.54 12.3716ZM2.22266 12.4683V19.519H4.49902C4.95737 19.519 5.34645 19.4415 5.66602 19.2866C5.98556 19.1285 6.22959 18.896 6.39746 18.5894C6.56534 18.2827 6.64941 17.9043 6.64941 17.4556C6.64938 17.1683 6.59907 16.9004 6.49902 16.6519C6.39894 16.4001 6.23904 16.1948 6.01953 16.0366C5.91335 15.9601 5.79121 15.9025 5.65332 15.8638C5.70676 15.8382 5.75844 15.8116 5.80664 15.7808C6.05187 15.6259 6.23406 15.427 6.35352 15.1851C6.47297 14.9429 6.5332 14.6758 6.5332 14.3853C6.53316 14.0563 6.48276 13.7724 6.38281 13.5337C6.28603 13.2917 6.14408 13.0912 5.95703 12.9331C5.76979 12.7749 5.53974 12.6587 5.26855 12.5845C5.00066 12.507 4.69727 12.4683 4.3584 12.4683H2.22266ZM13.7383 12.4683V19.519H14.9785V14.8745L17.332 19.519H18.5957V12.4683H17.3555V17.1558L14.9834 12.4683H13.7383ZM10.126 13.4653C10.3197 13.4653 10.4911 13.5024 10.6396 13.5767C10.7912 13.6509 10.9183 13.7674 11.0215 13.9253C11.1248 14.0802 11.2023 14.2823 11.2539 14.5308C11.3056 14.7793 11.332 15.0769 11.332 15.4224V16.6177C11.332 16.9567 11.3056 17.2476 11.2539 17.4897C11.2055 17.7318 11.1297 17.9289 11.0264 18.0806C10.9264 18.2321 10.8009 18.3452 10.6494 18.4194C10.5009 18.4904 10.3294 18.5259 10.1357 18.5259C9.93881 18.5259 9.76404 18.4905 9.6123 18.4194C9.464 18.3452 9.3369 18.2321 9.23047 18.0806C9.12718 17.9289 9.0497 17.7318 8.99805 17.4897C8.94639 17.2476 8.91992 16.9567 8.91992 16.6177V15.4224C8.91992 15.0769 8.94639 14.7793 8.99805 14.5308C9.0497 14.2823 9.12554 14.0802 9.22559 13.9253C9.32879 13.7674 9.45426 13.6509 9.60254 13.5767C9.75427 13.5024 9.92905 13.4653 10.126 13.4653ZM4.54785 16.3901C4.74456 16.3902 4.90145 16.4339 5.01758 16.521C5.13686 16.6049 5.22181 16.7263 5.27344 16.8843C5.32829 17.0424 5.35641 17.228 5.35645 17.4409C5.35645 17.6378 5.32501 17.8126 5.26367 17.9644C5.20235 18.1127 5.10919 18.2291 4.9834 18.313C4.86074 18.3969 4.69915 18.439 4.49902 18.439H3.52051V16.3901H4.54785ZM4.3584 13.5522C4.56501 13.5522 4.73317 13.5853 4.8623 13.6499C4.99124 13.7144 5.0845 13.816 5.14258 13.9546C5.20388 14.0901 5.23531 14.2708 5.23535 14.4966C5.23535 14.6966 5.20149 14.8666 5.13379 15.0054C5.06925 15.1441 4.97018 15.2505 4.83789 15.3247C4.70876 15.3957 4.54722 15.4312 4.35352 15.4312H3.52051V13.5522H4.3584Z" fill="#80858F"/>
</svg>
