<svg width="30" height="22" viewBox="0 0 30 22" fill="none" xmlns="http://www.w3.org/2000/svg">
<path d="M14.47 12.624C14.32 12.624 13.79 13.104 13.39 13.744C13.16 14.104 13.03 14.514 13.03 14.764C13.03 14.904 13.06 14.994 13.14 14.994C13.39 14.994 13.75 14.524 14.12 13.884C14.42 13.364 14.56 12.984 14.56 12.784C14.56 12.694 14.54 12.634 14.47 12.634V12.624Z" fill="#54585A"/>
<path d="M28.69 8.29381C28.74 8.17381 28.8 8.07381 28.83 7.94381C28.99 7.28381 28.85 6.67381 28.43 6.18381C28.05 5.73381 27.47 5.43381 26.72 5.28381C25.97 5.13381 25.59 5.06381 24.83 4.93381C24.8 4.93381 24.76 4.93381 24.73 4.93381C24.61 4.93381 24.48 4.97381 24.38 5.04381C24.32 5.08381 24.27 5.14381 24.23 5.19381C24.21 5.12381 24.18 5.06381 24.14 5.00381C24.05 4.87381 23.9 4.79381 23.75 4.76381C23.56 4.73381 23.39 4.71381 23.23 4.68381L16.59 0.533808C15.44 -0.186192 13.96 -0.176192 12.81 0.553808L4.75 5.71381C4.69 5.66381 4.64 5.61381 4.57 5.57381C4.22 5.37381 3.8 5.26381 3.32 5.26381C3.06 5.26381 2.78 5.29381 2.49 5.35381C1.73 5.51381 1.35 5.59381 0.59 5.77381C0.27 5.85381 0.07 6.17381 0.15 6.49381L0.66 8.60381C0.23 9.20381 0 9.92381 0 10.6838C0 11.8938 0.62 13.0038 1.65 13.6438L12.83 20.6638C13.39 21.0138 14.04 21.2038 14.71 21.2038C15.38 21.2038 16.03 21.0138 16.58 20.6638L27.9 13.5738C28.93 12.9238 29.55 11.8138 29.55 10.5938C29.55 9.73381 29.24 8.92381 28.69 8.29381ZM24.73 5.53381C25.48 5.66381 25.85 5.72381 26.6 5.87381C27.22 5.99381 27.68 6.23381 27.98 6.57381C28.27 6.91381 28.36 7.32381 28.25 7.80381C28.17 8.13381 28.02 8.39381 27.8 8.60381C27.58 8.81381 27.31 8.95381 27 9.02381C27.27 9.93381 27.4 10.3938 27.64 11.3038C27.1 11.1738 26.84 11.1138 26.3 11.0038C26.09 10.1938 25.98 9.78381 25.75 8.97381C25.65 8.95381 25.59 8.94381 25.49 8.92381C25.35 9.66381 25.28 10.0338 25.14 10.7638C24.65 10.6738 24.4 10.6238 23.91 10.5438C24.25 8.53381 24.42 7.53381 24.75 5.52381L24.73 5.53381ZM23.66 5.36381C23.6 5.78381 23.57 5.99381 23.5 6.40381C22.72 6.28381 22.34 6.23381 21.56 6.14381C21.52 6.50381 21.5 6.68381 21.46 7.03381C22.15 7.11381 22.5 7.16381 23.19 7.26381C23.13 7.68381 23.1 7.89381 23.04 8.31381C22.36 8.21381 22.02 8.17381 21.34 8.09381C21.29 8.49381 21.27 8.70381 21.22 9.10381C22 9.19381 22.39 9.24381 23.16 9.36381C23.1 9.78381 23.07 9.99381 23 10.4038C21.74 10.2138 21.11 10.1338 19.85 10.0238C20.04 7.99381 20.13 6.98381 20.32 4.95381C21.66 5.07381 22.32 5.15381 23.65 5.35381L23.66 5.36381ZM17.61 12.6438C17.54 12.6438 17.16 12.8638 16.74 13.3338C16.32 13.7838 15.97 14.5338 15.66 15.2238C15.61 15.3438 15.51 15.3938 15.38 15.2738C15.33 15.2238 15.29 15.1638 15.26 15.1038C15.05 15.2638 14.81 15.3638 14.58 15.3638C14.2 15.3638 13.97 15.1638 13.91 14.8838C13.69 15.1038 13.34 15.3338 13.03 15.3338C12.69 15.3338 12.46 15.1438 12.37 14.8538C12.11 15.1438 11.75 15.3538 11.39 15.3538C10.88 15.3538 10.65 15.1038 10.65 14.7038C10.65 14.2238 11.03 13.5538 11.32 13.0938C11.47 12.8438 11.58 12.6538 11.53 12.6538C11.46 12.6538 10.73 13.1338 10.32 13.8038C10.06 14.2338 9.78 14.7638 9.6 15.2238C9.54 15.3638 9.42 15.3838 9.33 15.2738C9.21 15.1238 9.1 14.9438 9.29 14.4338C9.6 13.6238 11.12 11.0538 11.74 10.2538C11.86 10.1038 11.98 10.1338 12.05 10.2838C12.09 10.3638 12.11 10.4638 12.11 10.5738C12.11 10.7838 12.02 11.0638 11.83 11.3938C11.68 11.6438 11.2 12.3638 11.12 12.4738C11.35 12.3038 11.62 12.2138 11.77 12.2138C11.99 12.2138 12.22 12.4538 12.22 12.7538C12.22 12.8638 12.2 12.9738 12.14 13.0738C11.72 13.8238 11.52 14.1538 11.44 14.3338C11.37 14.5038 11.34 14.6638 11.34 14.7838C11.34 14.9438 11.38 15.0438 11.49 15.0438C11.76 15.0438 12.17 14.4938 12.4 14.0238C12.41 13.9938 12.44 13.9938 12.46 13.9738C12.53 13.7838 12.63 13.5838 12.76 13.4038C13.38 12.5238 14.01 12.1538 14.4 12.1538C14.68 12.1538 14.85 12.2938 14.92 12.4938L15.07 12.2538C15.16 12.1038 15.29 12.0938 15.39 12.2038C15.52 12.3538 15.59 12.6938 15.39 13.0938C15.19 13.5138 14.54 14.3538 14.54 14.8738C14.54 14.9938 14.57 15.0538 14.65 15.0538C14.84 15.0538 15.09 14.7938 15.3 14.4738C15.3 14.4738 15.3 14.4638 15.3 14.4538C15.45 14.0238 16.04 12.9438 16.52 12.2338C16.62 12.0838 16.73 12.0938 16.81 12.2338C16.88 12.3538 16.91 12.4738 16.91 12.5938C16.91 12.6438 16.91 12.7038 16.91 12.7438C17.24 12.4338 17.61 12.1838 17.89 12.1838C18.11 12.1838 18.32 12.4538 18.32 12.7438C18.32 12.9138 18.18 13.1638 17.94 13.5938C17.69 13.9838 17.43 14.4938 17.43 14.7738C17.43 14.9338 17.48 15.0338 17.58 15.0338C17.83 15.0338 18.21 14.5638 18.49 14.0738C18.52 13.8538 18.58 13.6238 18.7 13.3838C19.09 12.5938 19.7 12.1738 20.15 12.1738C20.43 12.1738 20.76 12.4338 20.88 12.6638C21 12.9138 20.88 13.2038 20.73 13.5038C20.67 13.6238 20.62 13.7338 20.59 13.8138C20.54 13.9638 20.47 13.9738 20.31 13.8938C20.17 13.8138 20.04 13.6638 20.04 13.4538C20.04 13.3538 20.08 13.2038 20.22 12.8838C20.3 12.7338 20.35 12.5938 20.32 12.5638C20.23 12.4838 19.73 12.9838 19.42 13.6138C19.27 13.9338 19.19 14.2438 19.19 14.4738C19.19 14.8138 19.33 15.0238 19.54 15.0238C20.09 15.0238 20.6 14.4938 20.91 14.0338C20.94 13.8138 21 13.5938 21.12 13.3638C21.52 12.5438 22.14 12.1438 22.59 12.1438C22.7 12.1438 22.78 12.1638 22.86 12.2038C23.08 12.3238 23.23 12.4538 23.34 12.6038C23.39 12.6738 23.42 12.7838 23.42 12.8838C23.42 13.3438 22.9 14.1538 22.23 14.1538C22.05 14.1538 21.86 14.1038 21.68 13.9838C21.63 14.1338 21.61 14.3038 21.61 14.4338C21.61 14.7738 21.75 15.0138 21.98 15.0138C22.56 15.0138 23.08 14.4438 23.4 13.9638C23.48 13.8438 23.58 13.8238 23.65 13.9838C23.67 14.0538 23.68 14.2738 23.54 14.4838C23.22 14.9538 22.6 15.3138 22 15.3238C21.45 15.3238 21.09 15.0438 20.96 14.6338C20.64 15.0138 20.11 15.3038 19.58 15.3138C19.08 15.3138 18.75 15.0838 18.59 14.7338C18.32 15.0638 17.89 15.3338 17.52 15.3338C17 15.3338 16.78 15.0738 16.78 14.6738C16.78 14.2738 17.13 13.5538 17.43 13.0738C17.59 12.8238 17.71 12.6238 17.66 12.6238L17.61 12.6438ZM9.23 10.8538C9.05 10.6538 7.95 11.3238 7.31 12.3538C6.97 12.9038 6.83 13.5338 6.83 13.9938C6.83 14.6538 7.12 14.9438 7.4 14.9438C7.82 14.9438 8.37 14.4538 8.82 13.5938C8.87 13.4838 9.05 13.4438 9.13 13.6138C9.17 13.6938 9.18 13.7938 9.18 13.8638C9.18 14.3138 8.76 14.7538 8.49 14.9638C8.18 15.1838 7.83 15.2838 7.5 15.2838C7.25 15.2838 7.02 15.2338 6.82 15.1238C6.46 14.9338 6.14 14.4438 6.13 13.8138C6.1 12.2638 7.48 10.8638 8.34 10.4738C8.54 10.3938 8.76 10.3438 8.95 10.3438C9.14 10.3438 9.32 10.3938 9.45 10.5038C9.71 10.7338 9.91 11.0338 9.91 11.3338C9.91 11.4738 9.88 11.6238 9.8 11.7838C9.67 12.0438 9.56 12.3038 9.51 12.4738C9.47 12.6038 9.36 12.6838 9.21 12.5938C9.06 12.4938 8.95 12.3238 8.95 12.1038C8.95 12.0138 8.97 11.9238 9 11.8238C9.03 11.7038 9.08 11.5838 9.13 11.4738C9.24 11.2038 9.33 10.9538 9.24 10.8538H9.23ZM11.32 4.80381C11.92 4.77381 12.23 4.75381 12.83 4.73381C13.27 5.97381 13.48 6.59381 13.89 7.83381C14.36 6.57381 14.61 5.94381 15.13 4.69381C15.47 4.69381 15.65 4.69381 15.99 4.70381C16.45 5.96381 16.67 6.59381 17.08 7.86381C17.54 6.63381 17.78 6.02381 18.28 4.80381C18.85 4.83381 19.14 4.85381 19.71 4.90381C18.75 6.86381 18.3 7.86381 17.47 9.85381C17.13 9.83381 16.96 9.83381 16.63 9.82381C16.21 8.59381 15.98 7.97381 15.51 6.74381C15 7.95381 14.76 8.56381 14.3 9.79381C13.96 9.79381 13.79 9.79381 13.46 9.80381C12.68 7.78381 12.25 6.78381 11.33 4.79381L11.32 4.80381ZM13.09 0.973808C14.07 0.343808 15.34 0.343808 16.33 0.963808L22.03 4.53381C21.67 4.49381 21.31 4.45381 20.89 4.41381L16.06 1.39381C15.23 0.873808 14.18 0.883808 13.35 1.40381L8.74 4.34381C8.67 4.34381 8.6 4.33381 8.53 4.33381C8.37 4.33381 8.21 4.33381 8.04 4.36381C7.91 4.37381 7.8 4.41381 7.68 4.43381L13.09 0.973808ZM5.67 6.90381C5.76 6.56381 5.91 6.25381 6.14 5.98381C6.36 5.71381 6.64 5.48381 6.98 5.30381C7.32 5.12381 7.7 5.00381 8.12 4.96381C8.57 4.91381 8.98 4.94381 9.36 5.04381C9.73 5.14381 10.05 5.31381 10.32 5.53381C10.59 5.75381 10.8 6.02381 10.95 6.33381C11.1 6.64381 11.19 6.99381 11.21 7.36381C11.23 7.73381 11.19 8.08381 11.07 8.42381C10.96 8.75381 10.79 9.04381 10.56 9.30381C10.34 9.56381 10.07 9.77381 9.75 9.93381C9.43 10.1038 9.08 10.2038 8.69 10.2438C8.28 10.2938 7.91 10.2638 7.57 10.1738C7.22 10.0838 6.92 9.93381 6.65 9.73381C6.38 9.53381 6.16 9.28381 5.98 8.98381C5.8 8.68381 5.68 8.35381 5.62 7.98381C5.56 7.61381 5.57 7.26381 5.66 6.92381L5.67 6.90381ZM5.56 5.78381C5.46 5.93381 5.35 6.09381 5.28 6.25381C5.24 6.18381 5.18 6.12381 5.12 6.06381L5.56 5.78381ZM2.61 5.94381C3.3 5.80381 3.85 5.85381 4.26 6.09381C4.67 6.33381 4.92 6.71381 5.01 7.25381C5.01 7.26381 5.01 7.27381 5.01 7.27381C5.1 7.80381 5 8.26381 4.71 8.64381C4.42 9.02381 3.96 9.28381 3.31 9.42381C3.11 9.46381 3.01 9.49381 2.81 9.53381C2.94 10.1338 3 10.4338 3.13 11.0238C2.64 11.1338 2.39 11.1838 1.91 11.3038C1.43 9.32381 1.2 8.33381 0.72 6.35381C1.47 6.17381 1.84 6.09381 2.6 5.93381L2.61 5.94381ZM27.64 13.1538L16.32 20.2438C15.83 20.5538 15.27 20.7038 14.71 20.7038C14.15 20.7038 13.59 20.5538 13.1 20.2438L1.91 13.2238C1.03 12.6738 0.5 11.7238 0.5 10.6838C0.5 10.2038 0.62 9.74381 0.83 9.32381L1.05 10.2438C0.89 11.1938 1.26 12.2238 2.18 12.7938L13.36 19.8138C14.18 20.3338 15.23 20.3338 16.05 19.8138L27.37 12.7238C28.65 11.9238 28.87 10.2638 28.07 9.13381C28.11 9.10381 28.16 9.07381 28.2 9.04381C28.29 8.96381 28.34 8.86381 28.42 8.77381C28.82 9.29381 29.06 9.91381 29.06 10.5938C29.06 11.6438 28.53 12.5938 27.64 13.1538Z" fill="#54585A"/>
<path d="M7.11 8.37384C7.21 8.55384 7.33 8.70384 7.47 8.82384C7.61 8.94384 7.78 9.03384 7.96 9.08384C8.15 9.14384 8.35 9.15384 8.57 9.13384C8.79 9.11384 8.99 9.05384 9.16 8.95384C9.33 8.85384 9.48 8.73384 9.59 8.58384C9.7 8.43384 9.79 8.26384 9.84 8.07384C9.89 7.88384 9.91 7.67384 9.89 7.45384C9.87 7.23384 9.82 7.03384 9.73 6.85384C9.64 6.67384 9.52 6.51384 9.38 6.39384C9.23 6.27384 9.06 6.17384 8.87 6.12384C8.67 6.06384 8.46 6.04384 8.22 6.07384C7.99 6.10384 7.78 6.16384 7.61 6.26384C7.43 6.36384 7.29 6.49384 7.18 6.64384C7.07 6.79384 6.99 6.97384 6.94 7.16384C6.89 7.36384 6.89 7.57384 6.92 7.78384C6.95 7.99384 7.01 8.20384 7.11 8.37384Z" fill="#54585A"/>
<path d="M3.08 8.39397C3.34 8.34397 3.53 8.23396 3.65 8.08396C3.77 7.93396 3.8 7.75397 3.76 7.53397C3.72 7.31397 3.61 7.16396 3.45 7.06396C3.28 6.96396 3.06 6.94396 2.8 7.00396C2.6 7.04396 2.5 7.06396 2.3 7.10396C2.42 7.66396 2.48 7.94396 2.6 8.49396C2.79 8.45396 2.89 8.43397 3.08 8.39397Z" fill="#54585A"/>
<path d="M22.5 13.324C22.72 13.024 22.88 12.664 22.8 12.594C22.68 12.504 22.12 12.974 21.75 13.714C21.81 13.754 21.87 13.764 21.92 13.764C22.1 13.764 22.35 13.534 22.5 13.324Z" fill="#54585A"/>
<path d="M26.61 8.05393C26.78 7.97393 26.88 7.84393 26.92 7.64393C26.96 7.44393 26.92 7.27393 26.81 7.13393C26.69 6.99393 26.51 6.89393 26.27 6.84393C26.12 6.81393 26.04 6.80393 25.89 6.77393C25.79 7.27393 25.75 7.52393 25.65 8.02393C25.79 8.05393 25.86 8.06393 26 8.09393C26.24 8.14393 26.44 8.12393 26.61 8.05393Z" fill="#54585A"/>
<g clip-path="url(#clip0_215_2006)">
<path d="M14.47 12.624C14.32 12.624 13.79 13.104 13.39 13.744C13.16 14.104 13.03 14.514 13.03 14.764C13.03 14.904 13.06 14.994 13.14 14.994C13.39 14.994 13.75 14.524 14.12 13.884C14.42 13.364 14.56 12.984 14.56 12.784C14.56 12.694 14.54 12.634 14.47 12.634V12.624Z" fill="#54585A"/>
<path d="M28.69 8.29381C28.74 8.17381 28.8 8.07381 28.83 7.94381C28.99 7.28381 28.85 6.67381 28.43 6.18381C28.05 5.73381 27.47 5.43381 26.72 5.28381C25.97 5.13381 25.59 5.06381 24.83 4.93381C24.8 4.93381 24.76 4.93381 24.73 4.93381C24.61 4.93381 24.48 4.97381 24.38 5.04381C24.32 5.08381 24.27 5.14381 24.23 5.19381C24.21 5.12381 24.18 5.06381 24.14 5.00381C24.05 4.87381 23.9 4.79381 23.75 4.76381C23.56 4.73381 23.39 4.71381 23.23 4.68381L16.59 0.533808C15.44 -0.186192 13.96 -0.176192 12.81 0.553808L4.75 5.71381C4.69 5.66381 4.64 5.61381 4.57 5.57381C4.22 5.37381 3.8 5.26381 3.32 5.26381C3.06 5.26381 2.78 5.29381 2.49 5.35381C1.73 5.51381 1.35 5.59381 0.59 5.77381C0.27 5.85381 0.07 6.17381 0.15 6.49381L0.66 8.60381C0.23 9.20381 0 9.92381 0 10.6838C0 11.8938 0.62 13.0038 1.65 13.6438L12.83 20.6638C13.39 21.0138 14.04 21.2038 14.71 21.2038C15.38 21.2038 16.03 21.0138 16.58 20.6638L27.9 13.5738C28.93 12.9238 29.55 11.8138 29.55 10.5938C29.55 9.73381 29.24 8.92381 28.69 8.29381ZM24.73 5.53381C25.48 5.66381 25.85 5.72381 26.6 5.87381C27.22 5.99381 27.68 6.23381 27.98 6.57381C28.27 6.91381 28.36 7.32381 28.25 7.80381C28.17 8.13381 28.02 8.39381 27.8 8.60381C27.58 8.81381 27.31 8.95381 27 9.02381C27.27 9.93381 27.4 10.3938 27.64 11.3038C27.1 11.1738 26.84 11.1138 26.3 11.0038C26.09 10.1938 25.98 9.78381 25.75 8.97381C25.65 8.95381 25.59 8.94381 25.49 8.92381C25.35 9.66381 25.28 10.0338 25.14 10.7638C24.65 10.6738 24.4 10.6238 23.91 10.5438C24.25 8.53381 24.42 7.53381 24.75 5.52381L24.73 5.53381ZM23.66 5.36381C23.6 5.78381 23.57 5.99381 23.5 6.40381C22.72 6.28381 22.34 6.23381 21.56 6.14381C21.52 6.50381 21.5 6.68381 21.46 7.03381C22.15 7.11381 22.5 7.16381 23.19 7.26381C23.13 7.68381 23.1 7.89381 23.04 8.31381C22.36 8.21381 22.02 8.17381 21.34 8.09381C21.29 8.49381 21.27 8.70381 21.22 9.10381C22 9.19381 22.39 9.24381 23.16 9.36381C23.1 9.78381 23.07 9.99381 23 10.4038C21.74 10.2138 21.11 10.1338 19.85 10.0238C20.04 7.99381 20.13 6.98381 20.32 4.95381C21.66 5.07381 22.32 5.15381 23.65 5.35381L23.66 5.36381ZM17.61 12.6438C17.54 12.6438 17.16 12.8638 16.74 13.3338C16.32 13.7838 15.97 14.5338 15.66 15.2238C15.61 15.3438 15.51 15.3938 15.38 15.2738C15.33 15.2238 15.29 15.1638 15.26 15.1038C15.05 15.2638 14.81 15.3638 14.58 15.3638C14.2 15.3638 13.97 15.1638 13.91 14.8838C13.69 15.1038 13.34 15.3338 13.03 15.3338C12.69 15.3338 12.46 15.1438 12.37 14.8538C12.11 15.1438 11.75 15.3538 11.39 15.3538C10.88 15.3538 10.65 15.1038 10.65 14.7038C10.65 14.2238 11.03 13.5538 11.32 13.0938C11.47 12.8438 11.58 12.6538 11.53 12.6538C11.46 12.6538 10.73 13.1338 10.32 13.8038C10.06 14.2338 9.78 14.7638 9.6 15.2238C9.54 15.3638 9.42 15.3838 9.33 15.2738C9.21 15.1238 9.1 14.9438 9.29 14.4338C9.6 13.6238 11.12 11.0538 11.74 10.2538C11.86 10.1038 11.98 10.1338 12.05 10.2838C12.09 10.3638 12.11 10.4638 12.11 10.5738C12.11 10.7838 12.02 11.0638 11.83 11.3938C11.68 11.6438 11.2 12.3638 11.12 12.4738C11.35 12.3038 11.62 12.2138 11.77 12.2138C11.99 12.2138 12.22 12.4538 12.22 12.7538C12.22 12.8638 12.2 12.9738 12.14 13.0738C11.72 13.8238 11.52 14.1538 11.44 14.3338C11.37 14.5038 11.34 14.6638 11.34 14.7838C11.34 14.9438 11.38 15.0438 11.49 15.0438C11.76 15.0438 12.17 14.4938 12.4 14.0238C12.41 13.9938 12.44 13.9938 12.46 13.9738C12.53 13.7838 12.63 13.5838 12.76 13.4038C13.38 12.5238 14.01 12.1538 14.4 12.1538C14.68 12.1538 14.85 12.2938 14.92 12.4938L15.07 12.2538C15.16 12.1038 15.29 12.0938 15.39 12.2038C15.52 12.3538 15.59 12.6938 15.39 13.0938C15.19 13.5138 14.54 14.3538 14.54 14.8738C14.54 14.9938 14.57 15.0538 14.65 15.0538C14.84 15.0538 15.09 14.7938 15.3 14.4738C15.3 14.4738 15.3 14.4638 15.3 14.4538C15.45 14.0238 16.04 12.9438 16.52 12.2338C16.62 12.0838 16.73 12.0938 16.81 12.2338C16.88 12.3538 16.91 12.4738 16.91 12.5938C16.91 12.6438 16.91 12.7038 16.91 12.7438C17.24 12.4338 17.61 12.1838 17.89 12.1838C18.11 12.1838 18.32 12.4538 18.32 12.7438C18.32 12.9138 18.18 13.1638 17.94 13.5938C17.69 13.9838 17.43 14.4938 17.43 14.7738C17.43 14.9338 17.48 15.0338 17.58 15.0338C17.83 15.0338 18.21 14.5638 18.49 14.0738C18.52 13.8538 18.58 13.6238 18.7 13.3838C19.09 12.5938 19.7 12.1738 20.15 12.1738C20.43 12.1738 20.76 12.4338 20.88 12.6638C21 12.9138 20.88 13.2038 20.73 13.5038C20.67 13.6238 20.62 13.7338 20.59 13.8138C20.54 13.9638 20.47 13.9738 20.31 13.8938C20.17 13.8138 20.04 13.6638 20.04 13.4538C20.04 13.3538 20.08 13.2038 20.22 12.8838C20.3 12.7338 20.35 12.5938 20.32 12.5638C20.23 12.4838 19.73 12.9838 19.42 13.6138C19.27 13.9338 19.19 14.2438 19.19 14.4738C19.19 14.8138 19.33 15.0238 19.54 15.0238C20.09 15.0238 20.6 14.4938 20.91 14.0338C20.94 13.8138 21 13.5938 21.12 13.3638C21.52 12.5438 22.14 12.1438 22.59 12.1438C22.7 12.1438 22.78 12.1638 22.86 12.2038C23.08 12.3238 23.23 12.4538 23.34 12.6038C23.39 12.6738 23.42 12.7838 23.42 12.8838C23.42 13.3438 22.9 14.1538 22.23 14.1538C22.05 14.1538 21.86 14.1038 21.68 13.9838C21.63 14.1338 21.61 14.3038 21.61 14.4338C21.61 14.7738 21.75 15.0138 21.98 15.0138C22.56 15.0138 23.08 14.4438 23.4 13.9638C23.48 13.8438 23.58 13.8238 23.65 13.9838C23.67 14.0538 23.68 14.2738 23.54 14.4838C23.22 14.9538 22.6 15.3138 22 15.3238C21.45 15.3238 21.09 15.0438 20.96 14.6338C20.64 15.0138 20.11 15.3038 19.58 15.3138C19.08 15.3138 18.75 15.0838 18.59 14.7338C18.32 15.0638 17.89 15.3338 17.52 15.3338C17 15.3338 16.78 15.0738 16.78 14.6738C16.78 14.2738 17.13 13.5538 17.43 13.0738C17.59 12.8238 17.71 12.6238 17.66 12.6238L17.61 12.6438ZM9.23 10.8538C9.05 10.6538 7.95 11.3238 7.31 12.3538C6.97 12.9038 6.83 13.5338 6.83 13.9938C6.83 14.6538 7.12 14.9438 7.4 14.9438C7.82 14.9438 8.37 14.4538 8.82 13.5938C8.87 13.4838 9.05 13.4438 9.13 13.6138C9.17 13.6938 9.18 13.7938 9.18 13.8638C9.18 14.3138 8.76 14.7538 8.49 14.9638C8.18 15.1838 7.83 15.2838 7.5 15.2838C7.25 15.2838 7.02 15.2338 6.82 15.1238C6.46 14.9338 6.14 14.4438 6.13 13.8138C6.1 12.2638 7.48 10.8638 8.34 10.4738C8.54 10.3938 8.76 10.3438 8.95 10.3438C9.14 10.3438 9.32 10.3938 9.45 10.5038C9.71 10.7338 9.91 11.0338 9.91 11.3338C9.91 11.4738 9.88 11.6238 9.8 11.7838C9.67 12.0438 9.56 12.3038 9.51 12.4738C9.47 12.6038 9.36 12.6838 9.21 12.5938C9.06 12.4938 8.95 12.3238 8.95 12.1038C8.95 12.0138 8.97 11.9238 9 11.8238C9.03 11.7038 9.08 11.5838 9.13 11.4738C9.24 11.2038 9.33 10.9538 9.24 10.8538H9.23ZM11.32 4.80381C11.92 4.77381 12.23 4.75381 12.83 4.73381C13.27 5.97381 13.48 6.59381 13.89 7.83381C14.36 6.57381 14.61 5.94381 15.13 4.69381C15.47 4.69381 15.65 4.69381 15.99 4.70381C16.45 5.96381 16.67 6.59381 17.08 7.86381C17.54 6.63381 17.78 6.02381 18.28 4.80381C18.85 4.83381 19.14 4.85381 19.71 4.90381C18.75 6.86381 18.3 7.86381 17.47 9.85381C17.13 9.83381 16.96 9.83381 16.63 9.82381C16.21 8.59381 15.98 7.97381 15.51 6.74381C15 7.95381 14.76 8.56381 14.3 9.79381C13.96 9.79381 13.79 9.79381 13.46 9.80381C12.68 7.78381 12.25 6.78381 11.33 4.79381L11.32 4.80381ZM13.09 0.973808C14.07 0.343808 15.34 0.343808 16.33 0.963808L22.03 4.53381C21.67 4.49381 21.31 4.45381 20.89 4.41381L16.06 1.39381C15.23 0.873808 14.18 0.883808 13.35 1.40381L8.74 4.34381C8.67 4.34381 8.6 4.33381 8.53 4.33381C8.37 4.33381 8.21 4.33381 8.04 4.36381C7.91 4.37381 7.8 4.41381 7.68 4.43381L13.09 0.973808ZM5.67 6.90381C5.76 6.56381 5.91 6.25381 6.14 5.98381C6.36 5.71381 6.64 5.48381 6.98 5.30381C7.32 5.12381 7.7 5.00381 8.12 4.96381C8.57 4.91381 8.98 4.94381 9.36 5.04381C9.73 5.14381 10.05 5.31381 10.32 5.53381C10.59 5.75381 10.8 6.02381 10.95 6.33381C11.1 6.64381 11.19 6.99381 11.21 7.36381C11.23 7.73381 11.19 8.08381 11.07 8.42381C10.96 8.75381 10.79 9.04381 10.56 9.30381C10.34 9.56381 10.07 9.77381 9.75 9.93381C9.43 10.1038 9.08 10.2038 8.69 10.2438C8.28 10.2938 7.91 10.2638 7.57 10.1738C7.22 10.0838 6.92 9.93381 6.65 9.73381C6.38 9.53381 6.16 9.28381 5.98 8.98381C5.8 8.68381 5.68 8.35381 5.62 7.98381C5.56 7.61381 5.57 7.26381 5.66 6.92381L5.67 6.90381ZM5.56 5.78381C5.46 5.93381 5.35 6.09381 5.28 6.25381C5.24 6.18381 5.18 6.12381 5.12 6.06381L5.56 5.78381ZM2.61 5.94381C3.3 5.80381 3.85 5.85381 4.26 6.09381C4.67 6.33381 4.92 6.71381 5.01 7.25381C5.01 7.26381 5.01 7.27381 5.01 7.27381C5.1 7.80381 5 8.26381 4.71 8.64381C4.42 9.02381 3.96 9.28381 3.31 9.42381C3.11 9.46381 3.01 9.49381 2.81 9.53381C2.94 10.1338 3 10.4338 3.13 11.0238C2.64 11.1338 2.39 11.1838 1.91 11.3038C1.43 9.32381 1.2 8.33381 0.72 6.35381C1.47 6.17381 1.84 6.09381 2.6 5.93381L2.61 5.94381ZM27.64 13.1538L16.32 20.2438C15.83 20.5538 15.27 20.7038 14.71 20.7038C14.15 20.7038 13.59 20.5538 13.1 20.2438L1.91 13.2238C1.03 12.6738 0.5 11.7238 0.5 10.6838C0.5 10.2038 0.62 9.74381 0.83 9.32381L1.05 10.2438C0.89 11.1938 1.26 12.2238 2.18 12.7938L13.36 19.8138C14.18 20.3338 15.23 20.3338 16.05 19.8138L27.37 12.7238C28.65 11.9238 28.87 10.2638 28.07 9.13381C28.11 9.10381 28.16 9.07381 28.2 9.04381C28.29 8.96381 28.34 8.86381 28.42 8.77381C28.82 9.29381 29.06 9.91381 29.06 10.5938C29.06 11.6438 28.53 12.5938 27.64 13.1538Z" fill="#54585A"/>
<path d="M7.11 8.37384C7.21 8.55384 7.33 8.70384 7.47 8.82384C7.61 8.94384 7.78 9.03384 7.96 9.08384C8.15 9.14384 8.35 9.15384 8.57 9.13384C8.79 9.11384 8.99 9.05384 9.16 8.95384C9.33 8.85384 9.48 8.73384 9.59 8.58384C9.7 8.43384 9.79 8.26384 9.84 8.07384C9.89 7.88384 9.91 7.67384 9.89 7.45384C9.87 7.23384 9.82 7.03384 9.73 6.85384C9.64 6.67384 9.52 6.51384 9.38 6.39384C9.23 6.27384 9.06 6.17384 8.87 6.12384C8.67 6.06384 8.46 6.04384 8.22 6.07384C7.99 6.10384 7.78 6.16384 7.61 6.26384C7.43 6.36384 7.29 6.49384 7.18 6.64384C7.07 6.79384 6.99 6.97384 6.94 7.16384C6.89 7.36384 6.89 7.57384 6.92 7.78384C6.95 7.99384 7.01 8.20384 7.11 8.37384Z" fill="#54585A"/>
<path d="M3.08 8.39397C3.34 8.34397 3.53 8.23396 3.65 8.08396C3.77 7.93396 3.8 7.75397 3.76 7.53397C3.72 7.31397 3.61 7.16396 3.45 7.06396C3.28 6.96396 3.06 6.94396 2.8 7.00396C2.6 7.04396 2.5 7.06396 2.3 7.10396C2.42 7.66396 2.48 7.94396 2.6 8.49396C2.79 8.45396 2.89 8.43397 3.08 8.39397Z" fill="#54585A"/>
<path d="M22.5 13.324C22.72 13.024 22.88 12.664 22.8 12.594C22.68 12.504 22.12 12.974 21.75 13.714C21.81 13.754 21.87 13.764 21.92 13.764C22.1 13.764 22.35 13.534 22.5 13.324Z" fill="#54585A"/>
<path d="M26.61 8.05393C26.78 7.97393 26.88 7.84393 26.92 7.64393C26.96 7.44393 26.92 7.27393 26.81 7.13393C26.69 6.99393 26.51 6.89393 26.27 6.84393C26.12 6.81393 26.04 6.80393 25.89 6.77393C25.79 7.27393 25.75 7.52393 25.65 8.02393C25.79 8.05393 25.86 8.06393 26 8.09393C26.24 8.14393 26.44 8.12393 26.61 8.05393Z" fill="#54585A"/>
</g>
<defs>
<clipPath id="clip0_215_2006">
<rect width="29.55" height="21.19" fill="white" transform="translate(0 0.00390625)"/>
</clipPath>
</defs>
</svg>
