<svg width="32" height="32" viewBox="0 0 32 32" fill="none" xmlns="http://www.w3.org/2000/svg">
<path d="M27.4639 11.8753L29 13.5821C25.7571 16.4836 24.9606 19.3282 24.9606 21.4902C24.9606 23.5383 25.7002 24.9037 25.7002 24.9037H22.9125C22.7418 24.1641 22.5711 23.2538 22.5711 22.1729C22.5142 18.5317 24.221 15.1182 27.4639 11.8753ZM14.2079 11.1357C13.7527 10.8512 13.07 10.6805 11.9891 10.6805C11.7615 10.6805 11.5339 10.7374 11.2495 10.8512V13.5821C12.2166 12.7287 13.2407 11.9322 14.2079 11.1357ZM27.4639 10.2823L25.2451 7.83589C20.4661 12.2735 18.0766 17.1094 18.0766 22.2298C18.0766 24.3917 18.5317 26.1554 18.93 27.2363H22.5142C22.5142 27.2363 21.4333 25.2451 21.4333 22.116C21.3764 18.93 22.5711 14.663 27.4639 10.2823ZM3 3V12.4442H7.7221C8.29103 10.6805 10.6236 9.42888 11.9891 9.42888C14.3786 9.42888 15.6871 10.7943 16.1422 11.0788C10.7943 15.1751 5.10503 20.1247 4.93435 26.326C4.93435 27.1794 4.99125 28.0897 5.21882 29H18.361C18.361 29 16.8818 26.326 16.8818 22.2298C16.8818 17.9628 18.4748 12.2735 25.0175 6.41357L21.9453 3C21.9453 3 20.6368 4.47921 17.7921 4.47921C15.5733 4.47921 14.8337 3.91028 13.2407 3.91028C11.477 3.91028 10.5667 4.47921 9.71335 4.47921C8.68928 4.47921 7.77899 3.73961 7.77899 3H3ZM8.34792 16.4267L6.35667 15.744L5.67396 13.8096L4.99125 15.8009L3 16.4836L4.99125 17.1663L5.67396 19.1007L6.35667 17.1094L8.34792 16.4267ZM29 4.93435L27.5777 4.47921L27.1225 3.05689L26.6674 4.47921L25.2451 4.93435L26.6674 5.3895L27.1225 6.81182L27.5777 5.3895L29 4.93435ZM28.4311 7.15317C28.0897 7.15317 27.8621 7.43764 27.8621 7.7221C27.8621 8.00656 28.1466 8.29103 28.4311 8.29103C28.7724 8.29103 29 8.00656 29 7.7221C29 7.43764 28.7155 7.15317 28.4311 7.15317Z" fill="#80858F"/>
</svg>
