<svg width="305" height="72" viewBox="0 0 305 72" fill="none" xmlns="http://www.w3.org/2000/svg">
<g clip-path="url(#clip0_17898_9085)">
<path d="M1.0287e-08 8C4.60565e-09 3.58172 3.58172 0 8 0L297 0C301.418 0 305 3.58172 305 8V64C305 68.4183 301.418 72 297 72L8 72C3.58172 72 8.79775e-08 68.4183 8.22961e-08 64L1.0287e-08 8Z" fill="#171213"/>
<path d="M62.0019 40L57.7865 -57H66.2212L62.0019 40Z" fill="url(#paint0_radial_17898_9085)"/>
<path d="M62.0019 40L74.6982 -56.241L83.0065 -54.8071L62.0019 40Z" fill="url(#paint1_radial_17898_9085)"/>
<path d="M62.0019 39.9996L91.2304 -52.5722L99.159 -49.7043L62.0019 39.9996Z" fill="url(#paint2_radial_17898_9085)"/>
<path d="M62.0019 40.0005L106.835 -46.1186L114.173 -41.9012L62.0019 40.0005Z" fill="url(#paint3_radial_17898_9085)"/>
<path d="M62.0019 40.0005L121.131 -37.0091L127.584 -31.6108L62.0019 40.0005Z" fill="url(#paint4_radial_17898_9085)"/>
<path d="M62.0019 40.0005L133.614 -25.5799L139.013 -19.1273L62.0019 40.0005Z" fill="url(#paint5_radial_17898_9085)"/>
<path d="M62.0019 40.0005L143.905 -12.1688L148.122 -4.83058L62.0019 40.0005Z" fill="url(#paint6_radial_17898_9085)"/>
<path d="M62.0019 40.0005L151.707 2.84532L154.574 10.774L62.0019 40.0005Z" fill="url(#paint7_radial_17898_9085)"/>
<path d="M62.0019 40L156.809 18.9974L158.243 27.3057L62.0019 40Z" fill="url(#paint8_radial_17898_9085)"/>
<path d="M62.0019 39.9996L159.002 35.7822L159.002 44.217L62.0019 39.9996Z" fill="url(#paint9_radial_17898_9085)"/>
<path d="M62.0019 40L158.243 52.6944L156.808 61.0026L62.0019 40Z" fill="url(#paint10_radial_17898_9085)"/>
<path d="M62.0019 40L154.573 69.2266L151.705 77.1553L62.0019 40Z" fill="url(#paint11_radial_17898_9085)"/>
<path d="M62.0019 40L148.12 84.8308L143.903 92.1691L62.0019 40Z" fill="url(#paint12_radial_17898_9085)"/>
<path d="M62.0019 40L139.01 99.1278L133.612 105.58L62.0019 40Z" fill="url(#paint13_radial_17898_9085)"/>
<path d="M62.0019 40L127.581 111.611L121.128 117.009L62.0019 40Z" fill="url(#paint14_radial_17898_9085)"/>
<path d="M62.0019 40L114.169 121.902L106.831 126.119L62.0019 40Z" fill="url(#paint15_radial_17898_9085)"/>
<path d="M62.0019 40L99.1554 129.704L91.2266 132.572L62.0019 40Z" fill="url(#paint16_radial_17898_9085)"/>
<path d="M62.0019 40L83.0027 134.807L74.6944 136.241L62.0019 40Z" fill="url(#paint17_radial_17898_9085)"/>
<path d="M62.0019 40L66.2173 137H57.7826L62.0019 40Z" fill="url(#paint18_radial_17898_9085)"/>
<path d="M62.0019 40L49.3055 136.241L40.9973 134.807L62.0019 40Z" fill="url(#paint19_radial_17898_9085)"/>
<path d="M62.0019 40L32.7734 132.572L24.8448 129.704L62.0019 40Z" fill="url(#paint20_radial_17898_9085)"/>
<path d="M62.0019 40L17.1693 126.119L9.83117 121.902L62.0019 40Z" fill="url(#paint21_radial_17898_9085)"/>
<path d="M62.0019 40L2.8725 117.009L-3.58 111.611L62.0019 40Z" fill="url(#paint22_radial_17898_9085)"/>
<path d="M62.0019 40L-9.61062 105.58L-15.0087 99.1278L62.0019 40Z" fill="url(#paint23_radial_17898_9085)"/>
<path d="M62.0019 40L-19.9008 92.1691L-24.118 84.8308L62.0019 40Z" fill="url(#paint24_radial_17898_9085)"/>
<path d="M62.0019 40L-27.7026 77.1553L-30.5703 69.2266L62.0019 40Z" fill="url(#paint25_radial_17898_9085)"/>
<path d="M62.0019 40L-32.8054 61.0026L-34.2391 52.6944L62.0019 40Z" fill="url(#paint26_radial_17898_9085)"/>
<path d="M62.0019 39.9996L-34.9981 44.217L-34.998 35.7822L62.0019 39.9996Z" fill="url(#paint27_radial_17898_9085)"/>
<path d="M62.0019 40L-34.2386 27.3057L-32.8045 18.9974L62.0019 40Z" fill="url(#paint28_radial_17898_9085)"/>
<path d="M62.0019 40.0005L-30.5691 10.774L-27.7011 2.84532L62.0019 40.0005Z" fill="url(#paint29_radial_17898_9085)"/>
<path d="M62.0019 40.0005L-24.1162 -4.83058L-19.8987 -12.1688L62.0019 40.0005Z" fill="url(#paint30_radial_17898_9085)"/>
<path d="M62.0019 40.0005L-15.0064 -19.1273L-9.60797 -25.5799L62.0019 40.0005Z" fill="url(#paint31_radial_17898_9085)"/>
<path d="M62.0019 40.0005L-3.57711 -31.6108L2.87561 -37.0091L62.0019 40.0005Z" fill="url(#paint32_radial_17898_9085)"/>
<path d="M62.0019 40.0005L9.83447 -41.9012L17.1728 -46.1186L62.0019 40.0005Z" fill="url(#paint33_radial_17898_9085)"/>
<path d="M62.0019 39.9996L24.8484 -49.7043L32.7772 -52.5722L62.0019 39.9996Z" fill="url(#paint34_radial_17898_9085)"/>
<path d="M62.0019 40L41.0011 -54.8071L49.3094 -56.241L62.0019 40Z" fill="url(#paint35_radial_17898_9085)"/>
<path d="M62.0019 40L57.7865 -57H66.2212L62.0019 40Z" fill="url(#paint36_radial_17898_9085)"/>
</g>
<defs>
<radialGradient id="paint0_radial_17898_9085" cx="0" cy="0" r="1" gradientTransform="matrix(-0.00195812 97 -97 0 62.0019 40)" gradientUnits="userSpaceOnUse">
<stop offset="0.461458" stop-color="#1D1D1D"/>
<stop offset="1" stop-color="#1D1D1D" stop-opacity="0"/>
</radialGradient>
<radialGradient id="paint1_radial_17898_9085" cx="0" cy="0" r="1" gradientTransform="matrix(-0.00195812 97 -97 0 62.0019 40)" gradientUnits="userSpaceOnUse">
<stop offset="0.461458" stop-color="#1D1D1D"/>
<stop offset="1" stop-color="#1D1D1D" stop-opacity="0"/>
</radialGradient>
<radialGradient id="paint2_radial_17898_9085" cx="0" cy="0" r="1" gradientTransform="matrix(-0.00195812 97 -97 0 62.0019 40)" gradientUnits="userSpaceOnUse">
<stop offset="0.461458" stop-color="#1D1D1D"/>
<stop offset="1" stop-color="#1D1D1D" stop-opacity="0"/>
</radialGradient>
<radialGradient id="paint3_radial_17898_9085" cx="0" cy="0" r="1" gradientTransform="matrix(-0.00195812 97 -97 0 62.0019 40)" gradientUnits="userSpaceOnUse">
<stop offset="0.461458" stop-color="#1D1D1D"/>
<stop offset="1" stop-color="#1D1D1D" stop-opacity="0"/>
</radialGradient>
<radialGradient id="paint4_radial_17898_9085" cx="0" cy="0" r="1" gradientTransform="matrix(-0.00195812 97 -97 0 62.0019 40)" gradientUnits="userSpaceOnUse">
<stop offset="0.461458" stop-color="#1D1D1D"/>
<stop offset="1" stop-color="#1D1D1D" stop-opacity="0"/>
</radialGradient>
<radialGradient id="paint5_radial_17898_9085" cx="0" cy="0" r="1" gradientTransform="matrix(-0.00195812 97 -97 0 62.0019 40)" gradientUnits="userSpaceOnUse">
<stop offset="0.461458" stop-color="#1D1D1D"/>
<stop offset="1" stop-color="#1D1D1D" stop-opacity="0"/>
</radialGradient>
<radialGradient id="paint6_radial_17898_9085" cx="0" cy="0" r="1" gradientTransform="matrix(-0.00195812 97 -97 0 62.0019 40)" gradientUnits="userSpaceOnUse">
<stop offset="0.461458" stop-color="#1D1D1D"/>
<stop offset="1" stop-color="#1D1D1D" stop-opacity="0"/>
</radialGradient>
<radialGradient id="paint7_radial_17898_9085" cx="0" cy="0" r="1" gradientTransform="matrix(-0.00195812 97 -97 0 62.0019 40)" gradientUnits="userSpaceOnUse">
<stop offset="0.461458" stop-color="#1D1D1D"/>
<stop offset="1" stop-color="#1D1D1D" stop-opacity="0"/>
</radialGradient>
<radialGradient id="paint8_radial_17898_9085" cx="0" cy="0" r="1" gradientTransform="matrix(-0.00195812 97 -97 0 62.0019 40)" gradientUnits="userSpaceOnUse">
<stop offset="0.461458" stop-color="#1D1D1D"/>
<stop offset="1" stop-color="#1D1D1D" stop-opacity="0"/>
</radialGradient>
<radialGradient id="paint9_radial_17898_9085" cx="0" cy="0" r="1" gradientTransform="matrix(-0.00195812 97 -97 0 62.0019 40)" gradientUnits="userSpaceOnUse">
<stop offset="0.461458" stop-color="#1D1D1D"/>
<stop offset="1" stop-color="#1D1D1D" stop-opacity="0"/>
</radialGradient>
<radialGradient id="paint10_radial_17898_9085" cx="0" cy="0" r="1" gradientTransform="matrix(-0.00195812 97 -97 0 62.0019 40)" gradientUnits="userSpaceOnUse">
<stop offset="0.461458" stop-color="#1D1D1D"/>
<stop offset="1" stop-color="#1D1D1D" stop-opacity="0"/>
</radialGradient>
<radialGradient id="paint11_radial_17898_9085" cx="0" cy="0" r="1" gradientTransform="matrix(-0.00195812 97 -97 0 62.0019 40)" gradientUnits="userSpaceOnUse">
<stop offset="0.461458" stop-color="#1D1D1D"/>
<stop offset="1" stop-color="#1D1D1D" stop-opacity="0"/>
</radialGradient>
<radialGradient id="paint12_radial_17898_9085" cx="0" cy="0" r="1" gradientTransform="matrix(-0.00195812 97 -97 0 62.0019 40)" gradientUnits="userSpaceOnUse">
<stop offset="0.461458" stop-color="#1D1D1D"/>
<stop offset="1" stop-color="#1D1D1D" stop-opacity="0"/>
</radialGradient>
<radialGradient id="paint13_radial_17898_9085" cx="0" cy="0" r="1" gradientTransform="matrix(-0.00195812 97 -97 0 62.0019 40)" gradientUnits="userSpaceOnUse">
<stop offset="0.461458" stop-color="#1D1D1D"/>
<stop offset="1" stop-color="#1D1D1D" stop-opacity="0"/>
</radialGradient>
<radialGradient id="paint14_radial_17898_9085" cx="0" cy="0" r="1" gradientTransform="matrix(-0.00195812 97 -97 0 62.0019 40)" gradientUnits="userSpaceOnUse">
<stop offset="0.461458" stop-color="#1D1D1D"/>
<stop offset="1" stop-color="#1D1D1D" stop-opacity="0"/>
</radialGradient>
<radialGradient id="paint15_radial_17898_9085" cx="0" cy="0" r="1" gradientTransform="matrix(-0.00195812 97 -97 0 62.0019 40)" gradientUnits="userSpaceOnUse">
<stop offset="0.461458" stop-color="#1D1D1D"/>
<stop offset="1" stop-color="#1D1D1D" stop-opacity="0"/>
</radialGradient>
<radialGradient id="paint16_radial_17898_9085" cx="0" cy="0" r="1" gradientTransform="matrix(-0.00195812 97 -97 0 62.0019 40)" gradientUnits="userSpaceOnUse">
<stop offset="0.461458" stop-color="#1D1D1D"/>
<stop offset="1" stop-color="#1D1D1D" stop-opacity="0"/>
</radialGradient>
<radialGradient id="paint17_radial_17898_9085" cx="0" cy="0" r="1" gradientTransform="matrix(-0.00195812 97 -97 0 62.0019 40)" gradientUnits="userSpaceOnUse">
<stop offset="0.461458" stop-color="#1D1D1D"/>
<stop offset="1" stop-color="#1D1D1D" stop-opacity="0"/>
</radialGradient>
<radialGradient id="paint18_radial_17898_9085" cx="0" cy="0" r="1" gradientTransform="matrix(-0.00195812 97 -97 0 62.0019 40)" gradientUnits="userSpaceOnUse">
<stop offset="0.461458" stop-color="#1D1D1D"/>
<stop offset="1" stop-color="#1D1D1D" stop-opacity="0"/>
</radialGradient>
<radialGradient id="paint19_radial_17898_9085" cx="0" cy="0" r="1" gradientTransform="matrix(-0.00195812 97 -97 0 62.0019 40)" gradientUnits="userSpaceOnUse">
<stop offset="0.461458" stop-color="#1D1D1D"/>
<stop offset="1" stop-color="#1D1D1D" stop-opacity="0"/>
</radialGradient>
<radialGradient id="paint20_radial_17898_9085" cx="0" cy="0" r="1" gradientTransform="matrix(-0.00195812 97 -97 0 62.0019 40)" gradientUnits="userSpaceOnUse">
<stop offset="0.461458" stop-color="#1D1D1D"/>
<stop offset="1" stop-color="#1D1D1D" stop-opacity="0"/>
</radialGradient>
<radialGradient id="paint21_radial_17898_9085" cx="0" cy="0" r="1" gradientTransform="matrix(-0.00195812 97 -97 0 62.0019 40)" gradientUnits="userSpaceOnUse">
<stop offset="0.461458" stop-color="#1D1D1D"/>
<stop offset="1" stop-color="#1D1D1D" stop-opacity="0"/>
</radialGradient>
<radialGradient id="paint22_radial_17898_9085" cx="0" cy="0" r="1" gradientTransform="matrix(-0.00195812 97 -97 0 62.0019 40)" gradientUnits="userSpaceOnUse">
<stop offset="0.461458" stop-color="#1D1D1D"/>
<stop offset="1" stop-color="#1D1D1D" stop-opacity="0"/>
</radialGradient>
<radialGradient id="paint23_radial_17898_9085" cx="0" cy="0" r="1" gradientTransform="matrix(-0.00195812 97 -97 0 62.0019 40)" gradientUnits="userSpaceOnUse">
<stop offset="0.461458" stop-color="#1D1D1D"/>
<stop offset="1" stop-color="#1D1D1D" stop-opacity="0"/>
</radialGradient>
<radialGradient id="paint24_radial_17898_9085" cx="0" cy="0" r="1" gradientTransform="matrix(-0.00195812 97 -97 0 62.0019 40)" gradientUnits="userSpaceOnUse">
<stop offset="0.461458" stop-color="#1D1D1D"/>
<stop offset="1" stop-color="#1D1D1D" stop-opacity="0"/>
</radialGradient>
<radialGradient id="paint25_radial_17898_9085" cx="0" cy="0" r="1" gradientTransform="matrix(-0.00195812 97 -97 0 62.0019 40)" gradientUnits="userSpaceOnUse">
<stop offset="0.461458" stop-color="#1D1D1D"/>
<stop offset="1" stop-color="#1D1D1D" stop-opacity="0"/>
</radialGradient>
<radialGradient id="paint26_radial_17898_9085" cx="0" cy="0" r="1" gradientTransform="matrix(-0.00195812 97 -97 0 62.0019 40)" gradientUnits="userSpaceOnUse">
<stop offset="0.461458" stop-color="#1D1D1D"/>
<stop offset="1" stop-color="#1D1D1D" stop-opacity="0"/>
</radialGradient>
<radialGradient id="paint27_radial_17898_9085" cx="0" cy="0" r="1" gradientTransform="matrix(-0.00195812 97 -97 0 62.0019 40)" gradientUnits="userSpaceOnUse">
<stop offset="0.461458" stop-color="#1D1D1D"/>
<stop offset="1" stop-color="#1D1D1D" stop-opacity="0"/>
</radialGradient>
<radialGradient id="paint28_radial_17898_9085" cx="0" cy="0" r="1" gradientTransform="matrix(-0.00195812 97 -97 0 62.0019 40)" gradientUnits="userSpaceOnUse">
<stop offset="0.461458" stop-color="#1D1D1D"/>
<stop offset="1" stop-color="#1D1D1D" stop-opacity="0"/>
</radialGradient>
<radialGradient id="paint29_radial_17898_9085" cx="0" cy="0" r="1" gradientTransform="matrix(-0.00195812 97 -97 0 62.0019 40)" gradientUnits="userSpaceOnUse">
<stop offset="0.461458" stop-color="#1D1D1D"/>
<stop offset="1" stop-color="#1D1D1D" stop-opacity="0"/>
</radialGradient>
<radialGradient id="paint30_radial_17898_9085" cx="0" cy="0" r="1" gradientTransform="matrix(-0.00195812 97 -97 0 62.0019 40)" gradientUnits="userSpaceOnUse">
<stop offset="0.461458" stop-color="#1D1D1D"/>
<stop offset="1" stop-color="#1D1D1D" stop-opacity="0"/>
</radialGradient>
<radialGradient id="paint31_radial_17898_9085" cx="0" cy="0" r="1" gradientTransform="matrix(-0.00195812 97 -97 0 62.0019 40)" gradientUnits="userSpaceOnUse">
<stop offset="0.461458" stop-color="#1D1D1D"/>
<stop offset="1" stop-color="#1D1D1D" stop-opacity="0"/>
</radialGradient>
<radialGradient id="paint32_radial_17898_9085" cx="0" cy="0" r="1" gradientTransform="matrix(-0.00195812 97 -97 0 62.0019 40)" gradientUnits="userSpaceOnUse">
<stop offset="0.461458" stop-color="#1D1D1D"/>
<stop offset="1" stop-color="#1D1D1D" stop-opacity="0"/>
</radialGradient>
<radialGradient id="paint33_radial_17898_9085" cx="0" cy="0" r="1" gradientTransform="matrix(-0.00195812 97 -97 0 62.0019 40)" gradientUnits="userSpaceOnUse">
<stop offset="0.461458" stop-color="#1D1D1D"/>
<stop offset="1" stop-color="#1D1D1D" stop-opacity="0"/>
</radialGradient>
<radialGradient id="paint34_radial_17898_9085" cx="0" cy="0" r="1" gradientTransform="matrix(-0.00195812 97 -97 0 62.0019 40)" gradientUnits="userSpaceOnUse">
<stop offset="0.461458" stop-color="#1D1D1D"/>
<stop offset="1" stop-color="#1D1D1D" stop-opacity="0"/>
</radialGradient>
<radialGradient id="paint35_radial_17898_9085" cx="0" cy="0" r="1" gradientTransform="matrix(-0.00195812 97 -97 0 62.0019 40)" gradientUnits="userSpaceOnUse">
<stop offset="0.461458" stop-color="#1D1D1D"/>
<stop offset="1" stop-color="#1D1D1D" stop-opacity="0"/>
</radialGradient>
<radialGradient id="paint36_radial_17898_9085" cx="0" cy="0" r="1" gradientTransform="matrix(-0.00195812 97 -97 0 62.0019 40)" gradientUnits="userSpaceOnUse">
<stop offset="0.461458" stop-color="#1D1D1D"/>
<stop offset="1" stop-color="#1D1D1D" stop-opacity="0"/>
</radialGradient>
<clipPath id="clip0_17898_9085">
<path d="M0 8C0 3.58172 3.58172 0 8 0H297C301.418 0 305 3.58172 305 8V64C305 68.4183 301.418 72 297 72H8C3.58172 72 0 68.4183 0 64V8Z" fill="white"/>
</clipPath>
</defs>
</svg>
