<svg width="32" height="32" viewBox="0 0 32 32" fill="none" xmlns="http://www.w3.org/2000/svg">
<path d="M10 25C11.6569 25 13 26.3431 13 28C13 29.6569 11.6569 31 10 31C8.34315 31 7 29.6569 7 28C7 26.3431 8.34315 25 10 25ZM27 25C28.6569 25 30 26.3431 30 28C30 29.6569 28.6569 31 27 31C25.3431 31 24 29.6569 24 28C24 26.3431 25.3431 25 27 25ZM2.69141 1.63379C3.63464 1.63386 4.4501 2.29347 4.64746 3.21582L4.92188 4.5H30.7715C31.4051 4.5 31.8791 5.08169 31.751 5.70215L29.165 18.2021C29.069 18.6665 28.6597 19 28.1855 19H7.99707C7.99724 19.1543 7.96434 19.3076 7.89453 19.4473L7.3418 20.5527C7.00944 21.2176 7.49298 22 8.23633 22H29C29.5522 22 29.9999 22.4478 30 23C29.9999 23.5522 29.5522 24 29 24H8.23633C6.00622 24 4.55547 21.6529 5.55273 19.6582L5.94824 18.8652L2.69141 3.63379H1C0.447715 3.63379 0 3.18607 0 2.63379C0.00013192 2.08162 0.447797 1.63379 1 1.63379H2.69141ZM12.6973 8.75C12.39 8.75004 12.1093 8.80454 11.8555 8.91406C11.6015 9.02101 11.3818 9.18037 11.1973 9.3916C11.0155 9.60278 10.8753 9.86625 10.7764 10.1816C10.6774 10.4971 10.6279 10.8654 10.6279 11.2852V12.2676C10.6279 12.6793 10.6775 13.0405 10.7764 13.3506C10.8779 13.6604 11.0196 13.9195 11.2012 14.1279C11.3857 14.3338 11.6054 14.4895 11.8594 14.5938C12.1134 14.698 12.3959 14.75 12.7061 14.75C13.0133 14.75 13.294 14.698 13.5479 14.5938C13.8019 14.4895 14.0194 14.3338 14.2012 14.1279C14.383 13.9194 14.5229 13.6607 14.6191 13.3506C14.7154 13.0405 14.7627 12.6793 14.7627 12.2676V11.2852C14.7627 10.8654 14.7132 10.4971 14.6143 10.1816C14.518 9.86628 14.3778 9.60276 14.1934 9.3916C14.0116 9.18048 13.794 9.02098 13.54 8.91406C13.2887 8.80444 13.0074 8.75 12.6973 8.75ZM20.6748 8.83008V12.8652C20.6748 13.3117 20.7556 13.6741 20.916 13.9521C21.079 14.2299 21.3031 14.4332 21.5889 14.5615C21.875 14.6872 22.202 14.75 22.5684 14.75C22.9264 14.75 23.2483 14.6871 23.5342 14.5615C23.8202 14.4332 24.0462 14.23 24.2119 13.9521C24.3777 13.6741 24.4609 13.3117 24.4609 12.8652V8.83008H23.3857V12.8652C23.3857 13.1297 23.3541 13.3342 23.29 13.4785C23.2259 13.6229 23.133 13.7219 23.0127 13.7754C22.8925 13.8287 22.7445 13.8554 22.5684 13.8555C22.392 13.8555 22.2433 13.8288 22.123 13.7754C22.0027 13.7219 21.9086 13.6229 21.8418 13.4785C21.7777 13.3342 21.7461 13.1297 21.7461 12.8652V8.83008H20.6748ZM27.1201 8.75C26.8527 8.75 26.6077 8.78867 26.3857 8.86621C26.1666 8.94375 25.9768 9.0549 25.8164 9.19922C25.656 9.34091 25.5316 9.5124 25.4434 9.71289C25.3579 9.9106 25.3155 10.1297 25.3154 10.3701C25.3154 10.6159 25.3592 10.8312 25.4473 11.0156C25.5381 11.2 25.6627 11.3608 25.8203 11.4971C25.9781 11.6334 26.1579 11.7541 26.3584 11.8584C26.5588 11.9599 26.7716 12.0566 26.9961 12.1475C27.1857 12.2249 27.3407 12.3012 27.4609 12.376C27.5812 12.4482 27.6731 12.5218 27.7373 12.5967C27.8014 12.6715 27.8448 12.7539 27.8662 12.8447C27.8903 12.9329 27.9023 13.0346 27.9023 13.1494C27.9023 13.2883 27.8781 13.4129 27.8301 13.5225C27.782 13.6294 27.7058 13.7139 27.6016 13.7754C27.4973 13.8369 27.3608 13.8682 27.1924 13.8682C27.0508 13.8682 26.9238 13.8501 26.8115 13.8154C26.6993 13.778 26.6026 13.721 26.5225 13.6436C26.4422 13.5633 26.3819 13.4584 26.3418 13.3301C26.3018 13.1992 26.2822 13.0442 26.2822 12.8652H25.2109C25.211 13.1859 25.263 13.4653 25.3672 13.7031C25.4715 13.9384 25.6151 14.134 25.7969 14.2891C25.9785 14.4439 26.1868 14.5602 26.4219 14.6377C26.6597 14.7125 26.91 14.75 27.1719 14.75C27.4446 14.75 27.6922 14.7125 27.9141 14.6377C28.1386 14.5602 28.3296 14.4503 28.4873 14.3086C28.645 14.167 28.7657 13.9975 28.8486 13.7998C28.9315 13.6019 28.9727 13.3822 28.9727 13.1416C28.9726 12.8984 28.9398 12.6819 28.873 12.4922C28.8062 12.3024 28.7047 12.1321 28.5684 11.9824C28.4347 11.83 28.2657 11.6936 28.0625 11.5732C27.8593 11.4503 27.6225 11.3379 27.3525 11.2363C27.2056 11.1802 27.0714 11.1232 26.9512 11.0645C26.8336 11.003 26.7332 10.9389 26.6504 10.8721C26.5676 10.8053 26.5022 10.7315 26.4541 10.6514C26.4086 10.5685 26.3857 10.4756 26.3857 10.374C26.3858 10.2325 26.4112 10.1066 26.4619 9.99707C26.5127 9.88481 26.5923 9.79658 26.6992 9.73242C26.8061 9.6657 26.9428 9.63281 27.1084 9.63281C27.2847 9.63286 27.4288 9.67153 27.541 9.74902C27.6533 9.82653 27.7353 9.93431 27.7861 10.0732C27.8396 10.2096 27.8662 10.3665 27.8662 10.543H28.9365C28.9365 10.2034 28.8639 9.89798 28.7168 9.62793C28.5697 9.35795 28.3608 9.14405 28.0908 8.98633C27.8208 8.82859 27.4971 8.75 27.1201 8.75ZM6.15234 8.83008V14.6699H8.03711C8.41679 14.6699 8.7392 14.6059 9.00391 14.4775C9.26861 14.3465 9.47034 14.1534 9.60938 13.8994C9.74832 13.6455 9.81836 13.3325 9.81836 12.9609C9.81832 12.7232 9.77614 12.5016 9.69336 12.2959C9.6105 12.0874 9.47859 11.9171 9.29688 11.7861C9.20811 11.7222 9.10577 11.6737 8.99023 11.6416C9.03527 11.6201 9.07957 11.5992 9.12012 11.5732C9.32324 11.4449 9.47434 11.2806 9.57324 11.0801C9.67207 10.8797 9.72162 10.6594 9.72168 10.4189C9.72168 10.1464 9.68045 9.91068 9.59766 9.71289C9.51744 9.51236 9.39922 9.34586 9.24414 9.21484C9.08913 9.08399 8.89922 8.98821 8.6748 8.92676C8.45289 8.86259 8.20164 8.83008 7.9209 8.83008H6.15234ZM15.6895 8.83008V14.6699H16.7168V10.8232L18.666 14.6699H19.7119V8.83008H18.6855V12.7129L16.7207 8.83008H15.6895ZM12.6973 9.65625C12.8577 9.65625 13.0001 9.68753 13.123 9.74902C13.2485 9.81048 13.354 9.90638 13.4395 10.0371C13.525 10.1655 13.5891 10.3332 13.6318 10.5391C13.6746 10.7448 13.6963 10.9905 13.6963 11.2764V12.2676C13.6963 12.5482 13.6746 12.7888 13.6318 12.9893C13.5917 13.1898 13.5289 13.3528 13.4434 13.4785C13.3605 13.6042 13.2565 13.6983 13.1309 13.7598C13.008 13.8185 12.8663 13.8476 12.7061 13.8477C12.543 13.8477 12.3981 13.8186 12.2725 13.7598C12.1495 13.6983 12.0443 13.6041 11.9561 13.4785C11.8705 13.3528 11.8055 13.1898 11.7627 12.9893C11.7199 12.7888 11.6992 12.5482 11.6992 12.2676V11.2764C11.6992 10.9906 11.72 10.7448 11.7627 10.5391C11.8055 10.3332 11.8683 10.1655 11.9512 10.0371C12.0367 9.90611 12.1417 9.81052 12.2646 9.74902C12.3902 9.68758 12.5343 9.6563 12.6973 9.65625ZM8.07715 12.0791C8.24025 12.0791 8.37054 12.1153 8.4668 12.1875C8.5655 12.257 8.63599 12.3575 8.67871 12.4883C8.72412 12.6193 8.74707 12.7728 8.74707 12.9492C8.74707 13.1123 8.7217 13.2571 8.6709 13.3828C8.62014 13.5055 8.54252 13.6015 8.43848 13.6709C8.33687 13.7404 8.20288 13.7754 8.03711 13.7754H7.22656V12.0791H8.07715ZM7.9209 9.72852C8.09191 9.72852 8.23097 9.75518 8.33789 9.80859C8.44481 9.86205 8.52218 9.94661 8.57031 10.0615C8.62111 10.1738 8.64648 10.3236 8.64648 10.5107C8.64648 10.6764 8.61861 10.8167 8.5625 10.9316C8.50909 11.0465 8.42777 11.1348 8.31836 11.1963C8.21143 11.2551 8.07737 11.2851 7.91699 11.2852H7.22656V9.72852H7.9209Z" fill="#80858F"/>
</svg>
