<svg width="23" height="26" viewBox="0 0 23 26" fill="none" xmlns="http://www.w3.org/2000/svg">
<path d="M11.8934 6.0267L12.68 7.8667C12.7334 8.0267 12.88 8.12003 13.0267 8.13336L15.0267 8.32003C15.4534 8.36003 15.6134 8.88003 15.3067 9.16003L13.8 10.48C13.68 10.5867 13.6267 10.7467 13.6667 10.8934L14.1067 12.8534C14.2 13.2667 13.76 13.5867 13.3867 13.3734L11.6667 12.3467C11.5334 12.2667 11.36 12.2667 11.2267 12.3467L9.50671 13.3734C9.14671 13.5867 8.69338 13.2667 8.78671 12.8534L9.22671 10.8934C9.26671 10.7467 9.21338 10.5867 9.09338 10.48L7.58671 9.16003C7.26671 8.88003 7.44005 8.36003 7.86671 8.32003L9.86671 8.13336C10.0267 8.12003 10.16 8.0267 10.2267 7.88003L11.0134 6.04003C11.1734 5.64003 11.72 5.64003 11.8934 6.0267Z" stroke="#F0C932" stroke-width="1.33333" stroke-miterlimit="10" stroke-linecap="round" stroke-linejoin="round"/>
<path d="M20.5165 9.92617C20.5509 4.91879 16.5196 0.831565 11.5122 0.797104C6.50482 0.762643 2.4176 4.79399 2.38314 9.80137C2.34868 14.8088 6.38002 18.896 11.3874 18.9304C16.3948 18.9649 20.482 14.9336 20.5165 9.92617Z" stroke="#F0C932" stroke-width="1.33333" stroke-miterlimit="10" stroke-linecap="round" stroke-linejoin="round"/>
<path d="M10.2133 18.84L7.95999 24.5067L5.10665 21.24L0.799988 21.64L3.65332 14.4933" stroke="#F0C932" stroke-width="1.33333" stroke-miterlimit="10" stroke-linecap="round" stroke-linejoin="round"/>
<path d="M12.6667 18.84L14.9334 24.5067L17.7734 21.24L22.0934 21.64L19.2267 14.4933" stroke="#F0C932" stroke-width="1.33333" stroke-miterlimit="10" stroke-linecap="round" stroke-linejoin="round"/>
</svg>
