<svg width="22" height="22" viewBox="0 0 22 22" fill="none" xmlns="http://www.w3.org/2000/svg">
<path d="M11.1246 6.38776C8.57726 6.38776 6.51221 8.45281 6.51221 11.0002C6.51221 13.5475 8.57726 15.6126 11.1246 15.6126C13.672 15.6126 15.737 13.5475 15.737 11.0002C15.737 8.45281 13.672 6.38776 11.1246 6.38776Z" fill="#0E0000"/>
<path fill-rule="evenodd" clip-rule="evenodd" d="M6.28268 0.5H15.9673C19.0923 0.5 21.625 3.03273 21.625 6.15768V15.8419C21.625 18.9668 19.0918 21.5 15.9669 21.5H6.28313C3.15818 21.5 0.625 18.9673 0.625 15.8423V6.15768C0.625 3.03318 3.15773 0.5 6.28268 0.5ZM17.5229 5.73137C18.1464 5.73137 18.6518 5.22596 18.6518 4.6025C18.6518 3.97904 18.1464 3.47363 17.5229 3.47363C16.8995 3.47363 16.394 3.97904 16.394 4.6025C16.394 5.22596 16.8995 5.73137 17.5229 5.73137ZM5.19971 11.0002C5.19971 7.72793 7.85238 5.07526 11.1246 5.07526C14.3969 5.07526 17.0495 7.72793 17.0495 11.0002C17.0495 14.2724 14.3969 16.9251 11.1246 16.9251C7.85238 16.9251 5.19971 14.2724 5.19971 11.0002Z" fill="#0E0000"/>
</svg>
