<svg width="22" height="22" viewBox="0 0 22 22" fill="none" xmlns="http://www.w3.org/2000/svg">
<path fill-rule="evenodd" clip-rule="evenodd" d="M18.3152 3.55163C16.3413 1.5847 13.7162 0.500952 10.9192 0.5C5.15551 0.5 0.464687 5.16779 0.462773 10.9053C0.46168 12.7394 0.943476 14.5298 1.85854 16.1073L0.375 21.5L5.91799 20.0531C7.44514 20.8823 9.16479 21.319 10.9146 21.3196H10.9192C16.6817 21.3196 21.3729 16.6512 21.375 10.9137C21.376 8.13301 20.2896 5.51896 18.3152 3.55163ZM15.1204 12.8145C15.3624 12.9316 15.567 13.0321 15.6553 13.076L15.6549 13.0769C15.7051 13.1019 15.7523 13.1245 15.7964 13.1454L15.7976 13.1462C15.886 13.1885 15.9605 13.2242 16.0198 13.2597C16.0834 13.2976 16.1295 13.3353 16.1567 13.3804C16.1841 13.4258 16.1999 13.5436 16.1931 13.71C16.1836 13.9402 16.1305 14.2632 16.0039 14.6153C15.786 15.2219 14.74 15.7756 14.2371 15.8503C13.786 15.9172 13.2154 15.945 12.5884 15.7472C12.2081 15.6276 11.7202 15.4676 11.0958 15.2C8.64271 14.1486 6.9846 11.7905 6.67002 11.3431C6.64797 11.3117 6.63242 11.2896 6.62379 11.2782L6.62256 11.2766C6.48708 11.0976 5.55469 9.8655 5.55469 8.5915C5.55469 7.39526 6.14722 6.76814 6.41995 6.4795C6.43857 6.4598 6.45569 6.44167 6.47104 6.42505C6.71105 6.16492 6.9945 6.1001 7.1693 6.1001C7.22958 6.1001 7.28985 6.10023 7.34917 6.10078C7.46178 6.10186 7.5711 6.10418 7.67111 6.10907C7.69009 6.11008 7.70985 6.11001 7.73029 6.10993C7.8825 6.10938 8.07259 6.10868 8.25991 6.55511C8.29895 6.64793 8.34772 6.76508 8.40184 6.89541L8.67212 7.54735C8.78254 7.81372 8.88871 8.06922 8.9642 8.24753C9.01557 8.36889 9.05269 8.45438 9.06721 8.48332C9.13256 8.61352 9.17626 8.76492 9.08886 8.93833C9.07516 8.96545 9.06255 8.99099 9.05051 9.01535C8.98577 9.14644 8.93773 9.24368 8.82706 9.37146C8.78268 9.4227 8.73693 9.478 8.69118 9.53331L8.64445 9.58945C8.59335 9.65075 8.54308 9.71027 8.49568 9.76219L8.45704 9.80337L8.4343 9.82647C8.30361 9.95558 8.16703 10.0961 8.31978 10.3562C8.47239 10.6164 8.9979 11.4666 9.77602 12.1553C10.6125 12.8951 11.3393 13.2079 11.7079 13.3665L11.7133 13.369C11.7831 13.399 11.8397 13.4233 11.8815 13.4441C12.1433 13.5743 12.296 13.5528 12.4486 13.3794C12.5256 13.2923 12.6911 13.1006 12.8588 12.8985C13.024 12.6994 13.1911 12.4903 13.2776 12.3612C13.452 12.1011 13.6262 12.1445 13.8664 12.2312C14.0256 12.2887 14.6448 12.584 15.1204 12.8145Z" fill="#0E0000"/>
</svg>
