<svg width="68" height="68" viewBox="0 0 68 68" fill="none" xmlns="http://www.w3.org/2000/svg">
<path d="M67.2679 20.2667C67.1117 16.7244 66.5389 14.2892 65.7184 12.179C64.8718 9.93905 63.5695 7.93365 61.8632 6.26656C60.1961 4.57352 58.1775 3.25795 55.9636 2.42466C53.8411 1.60409 51.4186 1.03126 47.8764 0.875081C44.3076 0.705676 43.1747 0.666504 34.1235 0.666504C25.0723 0.666504 23.9393 0.705676 20.3838 0.861855C16.8416 1.01803 14.4063 1.59137 12.2966 2.41143C10.0562 3.25795 8.05083 4.56029 6.38373 6.26656C4.6907 7.93365 3.37564 9.95227 2.54184 12.1662C1.72127 14.2892 1.14845 16.7112 0.992269 20.2535C0.822863 23.8222 0.783691 24.9551 0.783691 34.0063C0.783691 43.0576 0.822863 44.1905 0.979042 47.746C1.13522 51.2883 1.70855 53.7235 2.52913 55.8337C3.37564 58.0737 4.6907 60.079 6.38373 61.7461C8.05083 63.4392 10.0694 64.7547 12.2834 65.588C14.4063 66.4086 16.8284 66.9814 20.3711 67.1376C23.9261 67.2943 25.0595 67.333 34.1108 67.333C43.162 67.333 44.2949 67.2943 47.8504 67.1376C51.3927 66.9814 53.8279 66.4086 55.9376 65.588C60.4179 63.8558 63.9602 60.3136 65.6924 55.8337C66.5125 53.7108 67.0858 51.2883 67.242 47.746C67.3982 44.1905 67.4373 43.0576 67.4373 34.0063C67.4373 24.9551 67.4241 23.8222 67.2679 20.2667ZM61.2645 47.4855C61.121 50.7414 60.5741 52.4995 60.1183 53.6716C58.9981 56.576 56.6931 58.881 53.7888 60.0012C52.6166 60.457 50.8458 61.0039 47.6027 61.1469C44.0864 61.3036 43.0318 61.3422 34.1367 61.3422C25.2417 61.3422 24.1738 61.3036 20.6703 61.1469C17.4144 61.0039 15.6563 60.457 14.4842 60.0012C13.0389 59.467 11.7233 58.6205 10.6555 57.5135C9.54851 56.4325 8.70199 55.1302 8.16783 53.6849C7.71202 52.5128 7.16514 50.7414 7.02218 47.4988C6.8655 43.9825 6.82683 42.9274 6.82683 34.0323C6.82683 25.1372 6.8655 24.0694 7.02218 20.5663C7.16514 17.3105 7.71202 15.5523 8.16783 14.3802C8.70199 12.9344 9.54851 11.6194 10.6687 10.551C11.7493 9.44406 13.0516 8.59754 14.4974 8.06388C15.6695 7.60807 17.4409 7.06119 20.6835 6.91773C24.1998 6.76155 25.2549 6.72237 34.1494 6.72237C43.0577 6.72237 44.1123 6.76155 47.6159 6.91773C50.8717 7.06119 52.6299 7.60807 53.802 8.06388C55.2473 8.59754 56.5628 9.44406 57.6306 10.551C58.7376 11.6321 59.5841 12.9344 60.1183 14.3802C60.5741 15.5523 61.121 17.3232 61.2645 20.5663C61.4206 24.0826 61.4598 25.1372 61.4598 34.0323C61.4598 42.9274 61.4206 43.9692 61.2645 47.4855Z" fill="white"/>
<path d="M34.1235 16.8806C24.6688 16.8806 16.9977 24.5512 16.9977 34.0064C16.9977 43.4616 24.6688 51.1321 34.1235 51.1321C43.5786 51.1321 51.2492 43.4616 51.2492 34.0064C51.2492 24.5512 43.5786 16.8806 34.1235 16.8806ZM34.1235 45.1154C27.9898 45.1154 23.0144 40.1406 23.0144 34.0064C23.0144 27.8722 27.9898 22.8973 34.1235 22.8973C40.2577 22.8973 45.2325 27.8722 45.2325 34.0064C45.2325 40.1406 40.2577 45.1154 34.1235 45.1154Z" fill="white"/>
<path d="M55.925 16.2035C55.925 18.4114 54.1348 20.2016 51.9264 20.2016C49.7185 20.2016 47.9283 18.4114 47.9283 16.2035C47.9283 13.9951 49.7185 12.2054 51.9264 12.2054C54.1348 12.2054 55.925 13.9951 55.925 16.2035Z" fill="white"/>
</svg>
