<svg width="203" height="65" viewBox="0 0 203 65" fill="none" xmlns="http://www.w3.org/2000/svg">
<path d="M3.84521 52V11.7351H11.9751V52H3.84521ZM44.5375 52H36.8196V37.1135C36.8196 33.9641 36.6548 31.9316 36.3252 31.0161C35.9956 30.0823 35.4554 29.359 34.7047 28.8463C33.9723 28.3336 33.0842 28.0773 32.0405 28.0773C30.7039 28.0773 29.5045 28.4435 28.4425 29.1759C27.3805 29.9083 26.6481 30.8788 26.2452 32.0873C25.8607 33.2958 25.6685 35.5297 25.6685 38.7889V52H17.9506V22.8313H25.1191V27.116C27.6643 23.8201 30.8687 22.1721 34.7322 22.1721C36.4351 22.1721 37.9915 22.4834 39.4014 23.106C40.8113 23.7102 41.8733 24.4884 42.5874 25.4406C43.3198 26.3927 43.8234 27.473 44.098 28.6815C44.391 29.89 44.5375 31.6204 44.5375 33.8726V52ZM77.4569 52H70.2883V47.7153C69.0981 49.3816 67.6882 50.6267 66.0586 51.4507C64.4473 52.2563 62.8176 52.6592 61.1697 52.6592C57.8188 52.6592 54.9441 51.3134 52.5454 48.6217C50.165 45.9117 48.9749 42.1398 48.9749 37.3058C48.9749 32.3619 50.1376 28.6083 52.463 26.0448C54.7885 23.463 57.7273 22.1721 61.2795 22.1721C64.5388 22.1721 67.3586 23.5271 69.739 26.2371V11.7351H77.4569V52ZM56.8575 36.7839C56.8575 39.8967 57.2878 42.1489 58.1484 43.5405C59.3936 45.5547 61.1331 46.5618 63.3669 46.5618C65.1431 46.5618 66.6537 45.811 67.8988 44.3096C69.1439 42.7898 69.7665 40.5284 69.7665 37.5255C69.7665 34.1747 69.1622 31.7668 67.9537 30.302C66.7452 28.8188 65.198 28.0773 63.312 28.0773C61.481 28.0773 59.9429 28.8097 58.6978 30.2745C57.4709 31.7211 56.8575 33.8909 56.8575 36.7839ZM83.4049 18.8762V11.7351H91.1228V18.8762H83.4049ZM83.4049 52V22.8313H91.1228V52H83.4049Z" fill="white"/>
<rect x="96" y="1.25" width="106.25" height="62.5" rx="6.25" fill="#F09636"/>
<path d="M115.325 13.959V27.1182C117.538 24.5303 120.183 23.2363 123.259 23.2363C124.838 23.2363 126.262 23.5293 127.532 24.1152C128.801 24.7012 129.753 25.4499 130.388 26.3613C131.039 27.2728 131.479 28.2819 131.707 29.3887C131.951 30.4954 132.073 32.2126 132.073 34.54V49.75H125.212V36.0537C125.212 33.3356 125.082 31.6104 124.822 30.8779C124.561 30.1455 124.097 29.5677 123.43 29.1445C122.779 28.7051 121.957 28.4853 120.964 28.4853C119.825 28.4853 118.808 28.762 117.913 29.3154C117.017 29.8688 116.358 30.707 115.935 31.8301C115.528 32.9368 115.325 34.5807 115.325 36.7617V49.75H108.464V13.959H115.325ZM155.121 49.75V45.8682C154.177 47.2516 152.931 48.3421 151.385 49.1396C149.855 49.9372 148.236 50.3359 146.527 50.3359C144.785 50.3359 143.223 49.9535 141.839 49.1885C140.456 48.4235 139.455 47.3493 138.836 45.9658C138.218 44.5824 137.909 42.6699 137.909 40.2285V23.8223H144.769V35.7363C144.769 39.3822 144.891 41.6201 145.135 42.4502C145.396 43.264 145.86 43.915 146.527 44.4033C147.194 44.8753 148.041 45.1113 149.066 45.1113C150.238 45.1113 151.288 44.7939 152.215 44.1592C153.143 43.5081 153.778 42.7106 154.12 41.7666C154.461 40.8063 154.632 38.4707 154.632 34.7598V23.8223H161.493V49.75H155.121ZM167.329 49.75V13.959H174.189V26.8496C176.305 24.4408 178.811 23.2363 181.708 23.2363C184.866 23.2363 187.478 24.3838 189.545 26.6787C191.612 28.9574 192.646 32.237 192.646 36.5176C192.646 40.9447 191.588 44.3545 189.472 46.7471C187.373 49.1396 184.817 50.3359 181.806 50.3359C180.325 50.3359 178.86 49.9697 177.412 49.2373C175.979 48.4886 174.742 47.39 173.701 45.9414V49.75H167.329ZM174.14 36.2246C174.14 38.9102 174.563 40.8958 175.41 42.1816C176.598 44.0046 178.177 44.916 180.146 44.916C181.66 44.916 182.945 44.2731 184.003 42.9873C185.078 41.6852 185.615 39.6426 185.615 36.8594C185.615 33.8971 185.078 31.765 184.003 30.4629C182.929 29.1445 181.554 28.4853 179.877 28.4853C178.234 28.4853 176.866 29.1283 175.776 30.4141C174.685 31.6836 174.14 33.6204 174.14 36.2246Z" fill="black"/>
</svg>
