<svg width="16" height="16" viewBox="0 0 16 16" fill="none" xmlns="http://www.w3.org/2000/svg">
<path d="M7.63086 1.27038C7.8746 1.22465 8.1254 1.22465 8.36914 1.27038C8.64416 1.32204 8.90635 1.45354 9.43066 1.71569L13.1152 3.55749C13.4363 3.71802 13.5976 3.79907 13.7148 3.91882C13.8183 4.02458 13.897 4.152 13.9453 4.29186C14 4.45032 14 4.63017 14 4.98913V8.5614C13.9997 12.1382 9.96475 14.1782 8.5127 14.7967C8.35767 14.8628 8.27997 14.8964 8.16016 14.9159C8.07236 14.9301 7.92764 14.9301 7.83984 14.9159C7.72002 14.8964 7.64235 14.8628 7.4873 14.7967C6.03527 14.1783 2.00031 12.1383 2 8.5614V4.98913C2 4.63017 2.00003 4.45032 2.05469 4.29186C2.10297 4.152 2.18169 4.02458 2.28516 3.91882C2.40244 3.79907 2.56371 3.71802 2.88477 3.55749L6.56934 1.71569C7.09365 1.45354 7.35584 1.32204 7.63086 1.27038ZM3.55566 4.89929C3.5361 4.90907 3.51734 4.91893 3.5 4.92761V8.5614C3.50016 9.73733 4.15711 10.7639 5.18359 11.6561C6.16672 12.5106 7.32484 13.0913 8 13.3846C8.67516 13.0913 9.83328 12.5106 10.8164 11.6561C11.8429 10.7639 12.4998 9.73733 12.5 8.5614V4.92761C12.4827 4.91893 12.4639 4.90907 12.4443 4.89929L8 2.74401L3.55566 4.89929ZM10.2324 5.70788C10.5321 5.42194 11.007 5.43261 11.293 5.73229C11.5788 6.03198 11.5672 6.50694 11.2676 6.79284L7.59961 10.2928C7.30989 10.5692 6.85423 10.5691 6.56445 10.2928L4.73242 8.54479C4.43277 8.25887 4.42116 7.78393 4.70703 7.48425C4.99298 7.18457 5.4679 7.17389 5.76758 7.45983L7.08203 8.71374L10.2324 5.70788Z" fill="#4BB34B"/>
</svg>
