<svg xmlns="http://www.w3.org/2000/svg" viewbox="0 0 0 0"><symbol fill="none" viewBox="0 0 24 24" id="all_categories_outline_24" ><path fill-rule="evenodd" clip-rule="evenodd" d="M7.6 10.9h.033c.392 0 .738 0 1.026-.024.305-.025.622-.08.93-.238a2.4 2.4 0 0 0 1.05-1.049c.157-.308.213-.625.238-.93.023-.288.023-.635.023-1.026V6.366c0-.391 0-.738-.023-1.025-.025-.306-.081-.623-.239-.931A2.4 2.4 0 0 0 9.59 3.361c-.309-.157-.626-.213-.931-.238A13.48 13.48 0 0 0 7.633 3.1H6.367c-.392 0-.738 0-1.025.023-.306.025-.623.081-.931.238A2.4 2.4 0 0 0 3.36 4.41c-.156.308-.212.625-.237.931A13.48 13.48 0 0 0 3.1 6.366v1.267c0 .391 0 .738.024 1.025.025.306.08.623.238.931a2.4 2.4 0 0 0 1.049 1.049c.308.157.625.213.93.238.288.024.634.024 1.026.024H7.6Zm1.172-1.866c-.012.007-.066.032-.26.048-.205.017-.477.018-.912.018H6.4c-.435 0-.707-.001-.912-.018-.194-.016-.248-.041-.26-.048a.6.6 0 0 1-.263-.262c-.006-.012-.032-.066-.047-.26A12.65 12.65 0 0 1 4.9 7.6V6.4c0-.435 0-.707.018-.912.015-.195.041-.248.047-.26a.6.6 0 0 1 .263-.263c.012-.006.066-.032.26-.048.205-.017.477-.017.912-.017h1.2c.435 0 .707 0 .912.017.194.016.248.042.26.048a.6.6 0 0 1 .263.262c.006.013.032.066.048.26.016.206.017.478.017.913v1.2c0 .434 0 .707-.017.912-.016.194-.042.248-.048.26a.6.6 0 0 1-.263.262ZM7.6 20.9h.033c.392 0 .738 0 1.026-.024.305-.025.622-.08.93-.238a2.4 2.4 0 0 0 1.05-1.049c.157-.308.213-.625.238-.93.023-.288.023-.634.023-1.026v-1.267c0-.391 0-.738-.023-1.025-.025-.306-.081-.622-.239-.931a2.4 2.4 0 0 0-1.048-1.049c-.309-.157-.626-.213-.931-.238-.288-.023-.634-.023-1.025-.023H6.366c-.392 0-.738 0-1.025.023-.306.025-.623.081-.931.238a2.4 2.4 0 0 0-1.05 1.049 2.439 2.439 0 0 0-.237.931 13.48 13.48 0 0 0-.024 1.025v1.267c0 .392 0 .738.024 1.025.025.306.08.623.238.931a2.4 2.4 0 0 0 1.049 1.049c.308.157.625.213.93.238.288.024.634.024 1.026.024H7.6Zm1.172-1.866c-.012.007-.066.032-.26.048-.205.017-.477.018-.912.018H6.4c-.435 0-.707-.001-.912-.018-.194-.016-.248-.041-.26-.048a.6.6 0 0 1-.263-.262c-.006-.012-.032-.066-.047-.26A12.65 12.65 0 0 1 4.9 17.6v-1.2c0-.435 0-.707.018-.912.015-.195.041-.248.047-.26a.6.6 0 0 1 .263-.263c.012-.006.066-.032.26-.048.205-.017.477-.017.912-.017h1.2c.435 0 .707 0 .912.017.194.016.248.042.26.048a.6.6 0 0 1 .263.262c.006.013.032.066.048.26.016.206.017.478.017.913v1.2c0 .434 0 .706-.017.912-.016.194-.042.248-.048.26a.6.6 0 0 1-.263.262Zm8.861-8.134H16.367c-.392 0-.738 0-1.025-.024-.306-.025-.623-.08-.931-.238a2.4 2.4 0 0 1-1.05-1.049c-.157-.308-.213-.625-.238-.93-.023-.288-.023-.635-.023-1.026V6.366c0-.391 0-.738.024-1.025.024-.306.08-.623.238-.931a2.4 2.4 0 0 1 1.049-1.049c.308-.157.625-.213.93-.238a13.48 13.48 0 0 1 1.026-.023H17.633c.392 0 .738 0 1.026.023.305.025.622.081.93.238a2.4 2.4 0 0 1 1.05 1.049c.157.308.213.625.238.931.023.287.023.634.023 1.025v1.267c0 .391 0 .738-.023 1.025-.025.306-.081.623-.238.931a2.4 2.4 0 0 1-1.05 1.049c-.308.157-.625.213-.93.238-.288.024-.634.024-1.026.024Zm.879-1.818c.194-.016.248-.041.26-.048a.6.6 0 0 0 .263-.262c.006-.012.032-.066.048-.26.016-.205.017-.478.017-.912V6.4c0-.435 0-.707-.017-.912-.016-.195-.042-.248-.048-.26a.6.6 0 0 0-.262-.263c-.013-.006-.067-.032-.261-.048A12.65 12.65 0 0 0 17.6 4.9h-1.2c-.435 0-.707 0-.912.017-.194.016-.248.042-.26.048a.6.6 0 0 0-.262.262c-.007.013-.033.066-.048.26-.017.206-.018.478-.018.913v1.2c0 .434 0 .707.018.912.015.194.041.248.048.26a.6.6 0 0 0 .262.262c.012.007.066.032.26.048.205.017.477.018.912.018h1.2c.435 0 .707-.001.912-.018ZM17.6 20.9h.033c.392 0 .739 0 1.026-.024.305-.025.622-.08.93-.238a2.4 2.4 0 0 0 1.05-1.049c.157-.308.213-.625.238-.93.023-.288.023-.634.023-1.026v-1.267c0-.391 0-.738-.023-1.025-.025-.306-.081-.622-.238-.931a2.4 2.4 0 0 0-1.05-1.049c-.308-.157-.625-.213-.93-.238-.288-.023-.634-.023-1.025-.023h-1.267c-.392 0-.738 0-1.025.023-.306.025-.623.081-.931.238a2.4 2.4 0 0 0-1.05 1.049c-.157.309-.213.625-.238.931-.023.287-.023.634-.023 1.025v1.267c0 .392 0 .738.024 1.025.024.306.08.623.238.931a2.4 2.4 0 0 0 1.049 1.049c.308.157.625.213.93.238.288.024.634.024 1.026.024H17.6Zm1.172-1.866c-.012.007-.066.032-.26.048-.205.017-.477.018-.912.018h-1.2c-.435 0-.707-.001-.912-.018-.194-.016-.248-.041-.26-.048a.6.6 0 0 1-.262-.262c-.007-.012-.033-.066-.048-.26a12.688 12.688 0 0 1-.018-.912v-1.2c0-.435 0-.707.018-.912.015-.195.041-.248.048-.26a.6.6 0 0 1 .262-.263c.012-.006.066-.032.26-.048.205-.017.477-.017.912-.017h1.2c.435 0 .707 0 .912.017.194.016.248.042.26.048a.6.6 0 0 1 .263.262c.006.013.032.066.048.26.016.206.017.478.017.913v1.2c0 .434 0 .706-.017.912-.016.194-.042.248-.048.26a.6.6 0 0 1-.262.262Z" fill="currentColor"/></symbol><symbol fill="none" viewBox="0 0 16 16" id="android_outline" ><path d="M11.816 6.223 14.2 3.84M4.082 6.223 1.699 3.84m4.167 4.91v.5m4.133-.5v.5m4.2 1.882a6.25 6.25 0 0 0-12.5 0c0 .575.467 1.041 1.042 1.041h10.417c.575 0 1.041-.466 1.041-1.041Z" stroke="#222" stroke-width="1.5" stroke-linecap="round" stroke-linejoin="round"/></symbol><symbol fill="none" viewBox="0 0 24 24" id="arrow_back_outline" ><path d="m7.8 11 4.9-4.9a.99.99 0 1 0-1.4-1.4l-6.593 6.593a1 1 0 0 0 0 1.414L11.3 19.3a.99.99 0 1 0 1.4-1.4L7.8 13H20a1 1 0 1 0 0-2H7.8Z" fill="currentColor"/></symbol><symbol fill="none" viewBox="0 0 24 24" id="arrow_right_outline_24" ><path d="M12.468 4.26a.9.9 0 0 0-.089 1.18l.08.092L17.95 11.1H3.9a.9.9 0 0 0-.113 1.793l.113.007h14.05l-5.49 5.568a.9.9 0 0 0-.073 1.181l.081.092a.9.9 0 0 0 1.181.072l.092-.081 7-7.1a.9.9 0 0 0 .08-1.172l-.08-.092-7-7.1a.9.9 0 0 0-1.273-.009Z" fill="currentColor"/></symbol><symbol fill="none" viewBox="0 0 24 24" id="back" ><path d="M10.537 5.394a.857.857 0 1 1 1.212 1.212l-4.537 4.537h11.645c.44 0 .802.33.852.757l.005.1a.857.857 0 0 1-.857.857H7.212l4.537 4.537a.857.857 0 0 1 .071 1.131l-.071.081a.857.857 0 0 1-1.212 0l-6-6-.063-.07a1.292 1.292 0 0 1-.063-.09.786.786 0 0 1-.095-.218.808.808 0 0 1-.03-.228l.003.076a.874.874 0 0 1-.003-.06V12a.825.825 0 0 1 .042-.268.821.821 0 0 1 .126-.242.86.86 0 0 1 .083-.096l-.069.077a.86.86 0 0 1 .069-.077l6-6Z" fill="currentColor"/></symbol><symbol fill="none" viewBox="0 0 40 40" id="calendar" ><path d="M27.142 1.429c.79 0 1.429.64 1.429 1.428v1.657c1.2.191 1.977.5 2.758.917a7.789 7.789 0 0 1 3.24 3.24c.679 1.269 1.069 2.529 1.135 5.614h.01v10.441l-.008.872c-.058 3.17-.45 4.446-1.137 5.732a7.79 7.79 0 0 1-3.24 3.24c-1.397.747-2.783 1.144-6.603 1.144h-9.453l-.871-.007c-3.171-.059-4.447-.45-5.732-1.137a7.789 7.789 0 0 1-3.24-3.24c-.717-1.341-1.112-2.672-1.143-6.157l-.002-9.9v-.987C4.361 11.2 4.751 9.94 5.43 8.67a7.788 7.788 0 0 1 3.24-3.24c.78-.418 1.558-.726 2.758-.917V2.857a1.429 1.429 0 0 1 2.857 0l-.001 1.439c.31-.007.64-.01.99-.01h9.452c.35 0 .68.003.99.01l-.002-1.439c0-.789.64-1.428 1.428-1.428Zm5.713 15.714H7.142l.002 7.988.012.812c.056 2.153.283 3.085.793 4.04a4.932 4.932 0 0 0 2.069 2.067c1.066.57 2.104.787 4.851.806h10.26l.813-.013c2.154-.055 3.085-.283 4.04-.793a4.932 4.932 0 0 0 2.067-2.068c.57-1.066.788-2.105.806-4.851v-7.988Zm-5.647 7.143c.618 0 1.105.116 1.513.334.407.218.727.537.945.945.217.407.333.894.333 1.512v.132c0 .618-.116 1.105-.333 1.512a2.272 2.272 0 0 1-.945.945c-.408.218-.895.334-1.513.334h-.131c-.619 0-1.106-.116-1.513-.334a2.272 2.272 0 0 1-.945-.945c-.218-.407-.334-.894-.334-1.512v-.132c0-.618.116-1.105.334-1.512.218-.408.538-.727.945-.945.407-.218.894-.334 1.513-.334h.131ZM25.13 7.144H14.869l-.584.008v1.42a1.429 1.429 0 0 1-2.857 0l-.001-1.154a5.48 5.48 0 0 0-1.41.532 4.932 4.932 0 0 0-2.068 2.068c-.527.987-.753 1.95-.798 4.266l25.696.002-.004-.229c-.056-2.153-.283-3.085-.794-4.039a4.932 4.932 0 0 0-2.068-2.068 5.48 5.48 0 0 0-1.409-.532l-.001 1.154a1.429 1.429 0 0 1-2.857 0l.003-1.42a45.87 45.87 0 0 0-.587-.008Z" fill="currentColor"/></symbol><symbol viewBox="0 0 24 24" fill="none" id="cancel_outline" ><path d="M7.536 6.264a.9.9 0 0 0-1.272 1.272L10.727 12l-4.463 4.464a.9.9 0 0 0 1.272 1.272L12 13.273l4.464 4.463a.9.9 0 1 0 1.272-1.272L13.273 12l4.463-4.464a.9.9 0 1 0-1.272-1.272L12 10.727 7.536 6.264Z" fill="currentColor"/></symbol><symbol fill="none" viewBox="0 0 28 28" id="cancel_outline_28" ><path d="M6.293 6.293a1 1 0 0 1 1.414 0L14 12.585l6.293-6.292a1 1 0 0 1 1.32-.083l.094.083a1 1 0 0 1 0 1.414L15.415 14l6.292 6.293a1 1 0 0 1 .083 1.32l-.083.094a1 1 0 0 1-1.414 0L14 15.415l-6.293 6.292a1 1 0 0 1-1.32.083l-.094-.083a1 1 0 0 1 0-1.414L12.585 14 6.293 7.707a1 1 0 0 1-.083-1.32l.083-.094Z" fill="#99A2AD"/></symbol><symbol fill="none" viewBox="0 0 24 24" id="chevron_down_small" ><path fill-rule="evenodd" clip-rule="evenodd" d="M17.736 9.264a.9.9 0 0 0-1.272 0L12 13.727 7.536 9.264a.9.9 0 0 0-1.272 1.272l5.1 5.1a.9.9 0 0 0 1.272 0l5.1-5.1a.9.9 0 0 0 0-1.272Z" fill="currentColor"/></symbol><symbol fill="none" viewBox="0 0 16 16" id="close" ><path d="M.293.293a1 1 0 0 1 1.414 0L8 6.585 14.293.293a1 1 0 0 1 1.32-.083l.094.083a1 1 0 0 1 0 1.414L9.415 8l6.292 6.293a1 1 0 0 1 .083 1.32l-.083.094a1 1 0 0 1-1.414 0L8 9.415l-6.293 6.292a1 1 0 0 1-1.32.083l-.094-.083a1 1 0 0 1 0-1.414L6.585 8 .293 1.707A1 1 0 0 1 .21.387L.293.293Z" fill="currentColor"/></symbol><symbol fill="none" viewBox="0 0 16 16" id="cons_substract_filled" ><path fill-rule="evenodd" clip-rule="evenodd" d="M16 8A8 8 0 1 0 0 8a8 8 0 0 0 16 0ZM4.9 7.1a.9.9 0 1 0 0 1.8h6.2a.9.9 0 1 0 0-1.8H4.9Z" fill="#99A2AD"/></symbol><symbol fill="none" viewBox="0 0 36 36" id="defaultAvatar" ><path d="M0 18C0 8.059 8.059 0 18 0s18 8.059 18 18-8.059 18-18 18S0 27.941 0 18Z" fill="#99A2AD"/><path d="M23 11.748a5 5 0 1 0-10 0 5 5 0 0 0 10 0ZM24.245 18.338H11.813a5 5 0 0 0 0 10h12.434a5 5 0 0 0 0-10Z" fill="#E1E3E6"/></symbol><symbol fill="none" viewBox="0 0 20 20" id="dislike" ><path fill-rule="evenodd" clip-rule="evenodd" d="M12.867 4.5a3.25 3.25 0 0 1 3.083 2.222l1.088 3.265A1.53 1.53 0 0 1 15.588 12H11.75a.75.75 0 0 0-.742.856l.46 3.23c.018.117.02.235.006.353-.072.647-.94.852-1.29.281a110.855 110.855 0 0 0-1.81-2.886 6.127 6.127 0 0 0-1.852-1.782A6.19 6.19 0 0 0 6 11.759V4.5h6.867ZM4.5 4.5v7h-.75c-.69 0-1.25-.56-1.25-1.25v-4.5c0-.69.56-1.25 1.25-1.25h.75Zm.61 8.5H3.75A2.75 2.75 0 0 1 1 10.25v-4.5A2.75 2.75 0 0 1 3.75 3h9.117a4.75 4.75 0 0 1 4.506 3.248l1.088 3.265a3.03 3.03 0 0 1-2.873 3.987h-2.973l.339 2.373c.034.243.038.488.011.732-.231 2.084-2.973 2.672-4.06.899a109.704 109.704 0 0 0-1.779-2.838 4.627 4.627 0 0 0-1.399-1.343A4.54 4.54 0 0 0 5.112 13Z" fill="currentColor"/></symbol><symbol fill="none" viewBox="0 0 24 24" id="done" ><path fill-rule="evenodd" clip-rule="evenodd" d="M20.207 6.293a1 1 0 0 1 0 1.414l-10.5 10.5a1 1 0 0 1-1.414 0l-4-4a1 1 0 1 1 1.414-1.414L9 16.086l9.793-9.793a1 1 0 0 1 1.414 0Z" fill="currentColor"/></symbol><symbol fill="none" viewBox="0 0 20 20" id="download_outline" ><path fill-rule="evenodd" clip-rule="evenodd" d="M4 17.75a.75.75 0 0 1 .75-.75h10.5a.75.75 0 0 1 0 1.5H4.75a.75.75 0 0 1-.75-.75Z" fill="currentColor"/><path d="M10.75 2.726c0-.401-.336-.726-.75-.726a.738.738 0 0 0-.75.726v9.722l-3.97-3.97a.75.75 0 0 0-1.06 1.06l5.245 5.245a.75.75 0 0 0 1.06 0l5.256-5.255a.75.75 0 0 0-1.06-1.061l-3.972 3.971V2.726Z" fill="currentColor"/></symbol><symbol fill="none" viewBox="0 0 180 181" id="empty_apps_list" ><path d="M176.269 71.425c-6.323-6.424-13.924-12.236-22.386-17.042.122-.77.248-1.528.38-2.268 2.266-12.872 5.871-21.195 9.932-21.195 5.569 0 10.283 15.658 11.862 37.238.079 1.075.149 2.164.212 3.267Z" fill="#07F"/><path opacity=".36" d="m153.061 95.423-.929 1.467c-.038-.621-.07-1.246-.101-1.874.344.133.688.27 1.03.407Z" fill="#07F"/><path d="M174.097 116.114c-.158.9-.324 1.777-.498 2.628-2.277 11.277-5.647 18.414-9.407 18.414-5.418 0-10.028-14.823-11.727-35.5-.076-.912-.144-1.836-.207-2.772.623.434 1.271.882 1.937 1.343 6.109 4.227 13.822 9.564 19.902 15.887Z" fill="#07F"/><path opacity=".36" d="M176.535 90.345c-.027.96-.059 1.912-.097 2.855-7.328-6.916-16.283-12.697-19.987-14.43a10.47 10.47 0 0 0-4.455-.994h-.144c.019-.713.043-1.422.07-2.126 1.902-.005 3.801.39 5.445 1.161 3.483 1.629 10.553 6.203 16.799 11.47a96.673 96.673 0 0 1 2.369 2.062v.002Z" fill="#07F"/><path d="M137.941 88.459c.734.164 1.468.337 2.201.52l-1.147 1.944a79.65 79.65 0 0 0-2.21-.504h-.002a92.608 92.608 0 0 0-4.939-.932c-9.839-1.584-19.418-1.428-27.7.45-.189.041-.371.082-.553.126l-.489-2.105c.189-.043.378-.088.57-.13 8.543-1.936 18.405-2.1 28.514-.474 1.921.308 3.839.677 5.755 1.105Z" fill="#07F"/><path d="M176.272 71.425c-6.324-6.424-13.925-12.236-22.387-17.042a107.549 107.549 0 0 0-4.041-2.185c-16.983-8.727-35.149-12.622-51.147-10.966-15.831 1.636-27.62 8.516-33.196 19.372-2.955 5.75-3.997 12.245-3.1 19.308.876 6.882 3.536 13.954 7.906 21.019l-1.836 1.136c-4.534-7.33-7.297-14.692-8.211-21.883-.954-7.502.162-14.423 3.319-20.568 3.002-5.843 7.664-10.606 13.853-14.155 5.933-3.4 13.012-5.546 21.042-6.378 16.412-1.697 35.006 2.279 52.356 11.194 1.161.596 2.306 1.21 3.435 1.838 8.071 4.498 15.348 9.844 21.674 15.925.041.04.081.077.12.118.079 1.075.15 2.164.213 3.267Z" fill="#07F"/><path d="m138.991 90.923 1.146-1.944 4.509-7.64c1.203-2.037 4.025-3.518 7.202-3.561h.144c1.456 0 2.983.302 4.455.993 3.704 1.734 12.659 7.515 19.987 14.43.038-.942.07-1.895.097-2.854a98.475 98.475 0 0 0-2.368-2.063c-6.246-5.267-13.317-9.84-16.8-11.47-1.643-.77-3.542-1.166-5.445-1.16a13.18 13.18 0 0 0-2.538.25c-2.946.587-5.288 2.127-6.595 4.34l-4.849 8.217-1.156 1.96h-.002l-20.635 34.967a6.449 6.449 0 0 0-.081 6.568 6.448 6.448 0 0 0 5.676 3.306h25.178v-1.08c0-5.443-4.43-9.871-9.873-9.871h-2.293l15.386-24.273c.735.517 1.518 1.06 2.328 1.62l.5.348c6.392 4.42 14.569 10.08 20.633 16.738.175-.852.341-1.728.499-2.628-6.08-6.324-13.793-11.661-19.903-15.887-.666-.46-1.314-.909-1.936-1.343-.33-.23-.65-.455-.963-.675l.837-1.32.928-1.466a99.95 99.95 0 0 0-2.052-.798l-20.183 31.844h6.219c3.886 0 7.11 2.889 7.637 6.631h-22.942a4.313 4.313 0 0 1-3.797-2.212 4.316 4.316 0 0 1 .058-4.399l20.992-35.566v-.002ZM115.99 40.249l-13.162 46.698 2.079.586 13.162-46.698-2.079-.586ZM37.671 100.504l-18.7 20.884c6.455 0 11.687 5.234 11.687 11.693v.297H4.945v-18.974l15.39-15.395a10.981 10.981 0 0 1 14.906-.584l2.43 2.079Z" fill="#07F"/><path d="M31.2 133.918H4.405v-19.737l15.549-15.554a11.484 11.484 0 0 1 7.7-3.368 11.486 11.486 0 0 1 7.94 2.758l2.85 2.437-18.312 20.45c6.2.587 11.068 5.825 11.068 12.179v.837l-.002-.002Zm-25.714-1.08h24.631c-.13-6.037-5.08-10.908-11.145-10.908h-1.208l19.138-21.373-2.011-1.72a10.427 10.427 0 0 0-7.195-2.498 10.417 10.417 0 0 0-6.978 3.053L5.486 114.629v18.209Z" fill="#07F"/><path d="M39.454 116.157H19.812v2.16h19.642v-2.16Z" fill="#07F"/><path d="M104.044 134.458H38.375V100.42h41.297v2.16H40.535v29.718h63.509c5.037 0 9.535-2.612 12.03-6.988 2.495-4.376 2.453-9.576-.11-13.91L96.889 79.153l1.86-1.1 19.074 32.247c2.965 5.011 3.012 11.023.128 16.081-2.885 5.058-8.084 8.079-13.905 8.079l-.002-.002ZM175.043 58.095h-2.174c1.04 7.808 1.595 16.687 1.595 25.943 0 13.815-1.235 26.793-3.48 36.617h2.216c2.121-9.529 3.424-22.422 3.424-36.617 0-9.421-.574-18.27-1.581-25.943Z" fill="#07F"/></symbol><symbol fill="none" viewBox="0 0 180 180" id="empty_apps_list_filtered" ><path d="M176.382 16.063c0 4.02-8.292 7.784-20.967 10.057L142.896 5.044l-28.369-.283-26.149 15.472a11.667 11.667 0 0 0-4.243 4.326c-8.906-2.224-14.358-5.21-14.358-8.497 0-6.872 23.864-12.444 53.303-12.444 29.438 0 53.302 5.572 53.302 12.444ZM58.825 98.84H17.57c-7.693 0-13.952-6.246-13.952-13.923v-41.17c0-7.677 6.259-13.922 13.952-13.922h41.256c7.693 0 13.952 6.245 13.952 13.922v41.17c0 7.677-6.259 13.923-13.952 13.923ZM17.57 31.987c-6.497 0-11.784 5.276-11.784 11.76v41.17c0 6.484 5.287 11.76 11.784 11.76h41.256c6.497 0 11.784-5.276 11.784-11.76v-41.17c0-6.484-5.287-11.76-11.784-11.76H17.57ZM58.825 176.202H17.57c-7.693 0-13.952-6.246-13.952-13.922v-41.171c0-7.677 6.259-13.922 13.952-13.922h41.256c7.693 0 13.952 6.245 13.952 13.922v41.171c0 7.676-6.259 13.922-13.952 13.922Zm-41.256-66.85c-6.497 0-11.784 5.275-11.784 11.759v41.17c0 6.484 5.287 11.76 11.784 11.76h41.256c6.497 0 11.784-5.276 11.784-11.76v-41.17c0-6.484-5.287-11.759-11.784-11.759H17.57ZM137.196 176.382H95.94c-7.693 0-13.952-6.246-13.952-13.923v-41.17c0-7.677 6.259-13.922 13.952-13.922h41.256c7.693 0 13.952 6.245 13.952 13.922v41.17c0 7.677-6.259 13.923-13.952 13.923ZM95.94 109.53c-6.497 0-11.784 5.276-11.784 11.759v41.17c0 6.484 5.287 11.76 11.784 11.76h41.256c6.497 0 11.784-5.276 11.784-11.76v-41.17c0-6.483-5.287-11.759-11.784-11.759H95.94Z" fill="#07F"/><path d="M116.309 81.424a14.595 14.595 0 0 1-9.313-3.358l1.618-1.94a12.059 12.059 0 0 0 10.516 2.438l.598 2.45c-1.116.271-2.267.41-3.419.41Zm11.106-4.225-1.289-2.17 10.644-6.298 1.29 2.17-10.645 6.298Zm-25.513-6.082-6.31-10.622 2.174-1.286 6.311 10.621-2.175 1.287Zm43.254-4.416-1.289-2.17 10.644-6.298 1.29 2.17-10.645 6.298Zm17.772-10.957-1.75-1.82a12.014 12.014 0 0 0 3.681-8.643c0-.505-.033-1.015-.098-1.516l2.509-.321c.078.607.118 1.224.118 1.837 0 3.936-1.626 7.75-4.46 10.463Zm-71.546-2.33-6.31-10.623 2.174-1.286 6.311 10.621-2.175 1.288Zm70.345-16.672-6.311-10.622 2.174-1.287 6.312 10.622-2.175 1.287Zm-80.763-1.348a14.371 14.371 0 0 1-.874-4.942c0-2.859.832-5.628 2.41-8.009l2.11 1.39a11.956 11.956 0 0 0-1.269 10.698l-2.375.865-.002-.002Zm70.243-16.356-6.311-10.622 2.175-1.287 6.311 10.622-2.175 1.287ZM115.194 22.221l-2.057 1.202 17.831 30.403 2.058-1.202-17.832-30.403Z" fill="#07F"/><path d="m137.708 28.085-30.464 17.8 1.205 2.053 30.463-17.8-1.204-2.053ZM131.122 139.128l-4.661 2.163h4.137v15.06h-26.87v-15.06h4.082l-4.662-2.163h-1.587v19.386h31.204v-19.386h-1.643Z" fill="#07F"/><path d="m117.134 122.39-26.4 13.364 10.825 5.023 2.168 1.006 13.407 6.221 13.462-6.248 2.168-1.006 10.769-4.996-26.399-13.364Zm9.326 18.901-9.326 4.328-9.325-4.328-4.662-2.163-7.455-3.459 21.442-10.854 21.441 10.854-7.455 3.459-4.66 2.163ZM58.808 82.222H17.747c-1.898 0-3.495-1.167-4.066-2.973-.57-1.808.065-3.678 1.619-4.766L38.538 58.23l22.755 16.28c1.535 1.097 2.153 2.967 1.575 4.76-.578 1.794-2.171 2.953-4.06 2.953Zm-20.284-21.34L16.542 76.253c-.928.65-1.02 1.637-.796 2.344.224.706.867 1.462 2 1.462h41.062c1.127 0 1.77-.75 1.996-1.453.226-.703.141-1.686-.775-2.342L38.522 60.88l.002.002Z" fill="#07F"/><path d="M39.569 60.895h-2.168v-6.308h1.084a4.45 4.45 0 0 0 4.45-4.442 4.45 4.45 0 0 0-4.45-4.441 4.45 4.45 0 0 0-4.45 4.441h-2.168c0-3.64 2.97-6.604 6.618-6.604 3.649 0 6.618 2.963 6.618 6.604 0 3.274-2.398 5.997-5.534 6.516v4.234ZM54.491 155.906H24.945c-5.992 0-10.867-4.865-10.867-10.844 0-5.979 4.875-10.843 10.867-10.843.325 0 .655.014.984.045a15.794 15.794 0 0 1 14.676-9.903c8.453 0 15.378 6.656 15.788 14.991a8.38 8.38 0 0 1 6.5 8.169c0 4.623-3.769 8.385-8.402 8.385ZM24.945 136.38c-4.798 0-8.7 3.895-8.7 8.681 0 4.785 3.904 8.68 8.7 8.68H54.49c3.44 0 6.235-2.792 6.235-6.222a6.217 6.217 0 0 0-5.521-6.181l-.97-.11.009-1.095c0-7.506-6.12-13.611-13.64-13.611a13.626 13.626 0 0 0-12.93 9.27l-.296.882-.918-.161a8.897 8.897 0 0 0-1.515-.133ZM123.08 3.618c-7.513 0-14.66.362-21.142 1.019v2.168c6.571-.67 13.736-1.024 21.142-1.024 11.312 0 22.065.824 30.995 2.347v-2.19c-8.733-1.46-19.435-2.32-30.995-2.32Z" fill="#07F"/></symbol><symbol fill="none" viewBox="0 0 200 200" id="empty_search_result" ><path fill-rule="evenodd" clip-rule="evenodd" d="m10.32 116.602 31.865-90.026 33.248 90.266c.055.14.107.282.156.424l.036.098h-.002a9.966 9.966 0 0 1 .522 3.169c0 9.864-14.917 17.861-33.317 17.861-18.401 0-33.318-7.997-33.318-17.861 0-1.351.28-2.666.81-3.931Z" fill="#fff"/><path d="m42.185 26.576 1.639-.604a1.746 1.746 0 0 0-3.285.021l1.646.583ZM10.32 116.602l1.61.675c.014-.03.025-.061.037-.092l-1.647-.583Zm65.114.24-1.639.603.013.034 1.626-.637Zm.156.424-1.65.569c.003.012.007.023.012.035l1.638-.604Zm.036.098v1.746a1.746 1.746 0 0 0 1.639-2.349l-1.639.603Zm-.002 0v-1.746a1.745 1.745 0 0 0-1.657 2.299l1.657-.553Zm-35.084-91.37L8.673 116.02l3.293 1.165 31.866-90.027-3.293-1.165Zm36.532 90.244L43.824 25.972l-3.277 1.207 33.247 90.266 3.277-1.207Zm-3.264 1.241c.046.119.09.237.131.356l3.302-1.138c-.057-.165-.117-.33-.181-.493l-3.252 1.275Zm3.457-.718-.036-.098-3.277 1.207.036.098 3.277-1.207Zm-1.641 2.349h.002v-3.492h-.002v3.492Zm-1.657-1.193a8.22 8.22 0 0 1 .433 2.616h3.492c0-1.277-.212-2.523-.612-3.722l-3.313 1.106Zm.433 2.616c0 3.978-3.035 7.98-8.837 11.09-5.73 3.072-13.764 5.024-22.734 5.024v3.493c9.43 0 18.054-2.045 24.384-5.439 6.256-3.354 10.68-8.282 10.68-14.168h-3.493Zm-31.572 16.114c-8.97 0-17.005-1.952-22.734-5.024-5.802-3.11-8.837-7.112-8.837-11.09H7.764c0 5.886 4.423 10.814 10.68 14.168 6.329 3.394 14.953 5.439 24.384 5.439v-3.493Zm-31.571-16.114c0-1.104.228-2.191.674-3.256l-3.221-1.35a11.861 11.861 0 0 0-.945 4.606h3.492Z" fill="#07F"/><path d="M62.413 108.156 41.81 30.679 69.323 100.1l-5.802 1.731-1.108 6.325Z" fill="#07F"/><path d="m49.065 108.676 26.844-19.273" stroke="#07F" stroke-width="3.492" stroke-linecap="round"/><path d="M75.908 92.414a2.328 2.328 0 0 1 2.887-2.26l40.759 10.068a2.329 2.329 0 0 1 1.77 2.26v43.408a2.328 2.328 0 0 1-2.9 2.257L77.666 137.82a2.33 2.33 0 0 1-1.756-2.257l-.002-43.15Z" fill="#fff" stroke="#07F" stroke-width="3.492" stroke-linejoin="round"/><path d="M94.47 121.122c0-.75.362-1.454.972-1.891l22.197-15.927c1.54-1.106 3.685-.005 3.685 1.891v42.491c0 .751-.362 1.456-.972 1.893l-22.196 15.893c-1.54 1.103-3.683.002-3.684-1.893l-.001-42.457Z" fill="#07F" stroke="#07F" stroke-width="3.492" stroke-linejoin="round"/><path d="m76.144 89.44 3.63.957" stroke="#07F" stroke-width="3.492" stroke-linecap="round"/><path d="M49.065 109.903c0-.75.36-1.454.97-1.892l22.197-15.926c1.54-1.106 3.686-.005 3.686 1.891v42.491a2.33 2.33 0 0 1-.973 1.893L52.75 154.253c-1.54 1.103-3.684.002-3.684-1.893l-.002-42.457Z" fill="#07F" stroke="#07F" stroke-width="3.492" stroke-linejoin="round"/><path d="M49.065 111.646a2.328 2.328 0 0 1 2.886-2.26l40.76 10.069a2.327 2.327 0 0 1 1.77 2.26v43.408a2.328 2.328 0 0 1-2.901 2.257l-40.757-10.328a2.328 2.328 0 0 1-1.757-2.257l-.001-43.149Z" fill="#fff" stroke="#07F" stroke-width="3.492" stroke-linejoin="round"/><path d="m91.798 167.454.892.179a3.488 3.488 0 0 0 2.446-.408l2.806-1.637" stroke="#07F" stroke-width="3.492" stroke-linecap="round"/><path fill-rule="evenodd" clip-rule="evenodd" d="M181.472 137.017a2.412 2.412 0 0 1-.344.299l-40.263 28.672a2.329 2.329 0 0 1-3.279-.592l-26.482-39.138a2.33 2.33 0 0 1 .577-3.201l39.341-28.04a18.437 18.437 0 0 1 3.223-2.297l.043-.03c.174-.124.364-.223.563-.295a18.063 18.063 0 0 1 12.649-1.457c13.415 3.313 22.839 15.349 22.839 29.167v1.264c0 6.763-3.622 12.498-8.867 15.648Z" fill="#fff"/><path d="m181.472 137.017-.899-1.498a1.789 1.789 0 0 0-.372.299l1.271 1.199Zm-.344.299 1.013 1.422-1.013-1.422Zm-40.263 28.672 1.013 1.422-1.013-1.422Zm-3.279-.592-1.446.979 1.446-.979Zm-26.482-39.138 1.447-.978-1.447.978Zm.577-3.201 1.014 1.422-1.014-1.422Zm39.341-28.04 1.014 1.422c.051-.036.1-.075.147-.117l-1.161-1.305Zm3.223-2.297.855 1.523a1.7 1.7 0 0 0 .159-.101l-1.014-1.422Zm.043-.03 1.013 1.422-1.013-1.422Zm.563-.295.591 1.643c.07-.025.139-.055.206-.09l-.797-1.553Zm12.649-1.457-.418 1.695.418-1.695Zm12.701 44.88a.477.477 0 0 1-.086.075l2.026 2.845a4.13 4.13 0 0 0 .601-.523l-2.541-2.397Zm-.086.075-40.263 28.672 2.026 2.845 40.263-28.672-2.026-2.845Zm-40.263 28.672a.58.58 0 0 1-.819-.148l-2.893 1.958a4.074 4.074 0 0 0 5.738 1.035l-2.026-2.845Zm-.819-.148-26.482-39.137-2.893 1.957 26.482 39.138 2.893-1.958Zm-26.482-39.137a.583.583 0 0 1 .144-.801l-2.027-2.844a4.076 4.076 0 0 0-1.01 5.602l2.893-1.957Zm.144-.801 39.341-28.04-2.027-2.844-39.341 28.04 2.027 2.844Zm39.488-28.157a16.638 16.638 0 0 1 2.917-2.08l-1.709-3.045a20.155 20.155 0 0 0-3.529 2.516l2.321 2.61Zm3.076-2.18.042-.03-2.027-2.844-.042.03 2.027 2.844Zm.042-.03a.586.586 0 0 1 .141-.074l-1.183-3.286c-.348.126-.68.299-.985.516l2.027 2.844Zm.347-.163a16.318 16.318 0 0 1 11.434-1.316l.837-3.39a19.81 19.81 0 0 0-13.865 1.598l1.594 3.108Zm11.434-1.316c12.634 3.121 21.511 14.458 21.511 27.472h3.493c0-14.621-9.973-27.356-24.167-30.863l-.837 3.39Zm21.511 27.472v1.264h3.493v-1.264h-3.493Zm0 1.264c0 6.114-3.269 11.298-8.02 14.15l1.797 2.995c5.74-3.447 9.716-9.732 9.716-17.145h-3.493Z" fill="#07F"/><path d="M104.784 137.237c0-11.825 11.096-20.514 22.576-17.678 13.414 3.314 22.839 15.35 22.839 29.168v1.264c0 11.888-11.192 20.597-22.716 17.677-13.349-3.382-22.698-15.396-22.699-29.167v-1.264Z" fill="#fff" stroke="#07F" stroke-width="3.492" stroke-linejoin="round"/><path d="m190.488 115.815-41.113 30.046v3.953l-2.057 10.753 34.157-23.246 7.907-11.069 1.106-10.437Z" fill="#07F"/></symbol><symbol fill="none" viewBox="0 0 180 180" id="error_500" ><path d="M112.527 142.39a11.426 11.426 0 0 0-.857-7.219l-3.719-7.891 10.356 3.032c1.071.315 2.15.463 3.213.463a11.44 11.44 0 0 0 10.968-8.244l7.996-27.41c1.772-6.07-1.708-12.43-7.768-14.205l-27.364-8.007a11.37 11.37 0 0 0-3.213-.463c-4.947 0-9.51 3.243-10.967 8.243l-6.745 23.124c-.05.022-.1.044-.149.068l-25.78 12.19c-5.71 2.7-8.153 9.526-5.457 15.245l5.773 12.251c-13.744 2.289-22.712 6.05-22.712 10.302 0 6.976 24.131 12.631 53.899 12.631 29.767 0 53.899-5.655 53.899-12.631 0-5.092-12.855-9.479-31.373-11.479ZM93.274 81.304a9.174 9.174 0 0 1 3.375-4.846 9.303 9.303 0 0 1 5.49-1.817c.875 0 1.748.126 2.598.373l27.364 8.01a9.18 9.18 0 0 1 5.514 4.438 9.215 9.215 0 0 1 .765 7.044l-7.994 27.41a9.188 9.188 0 0 1-3.374 4.847 9.318 9.318 0 0 1-5.492 1.816 9.292 9.292 0 0 1-2.597-.373l-12.223-3.577-4.919-10.435 20.356 5.896c.349.103.694.148 1.03.148 2.3 0 4.154-2.217 3.5-4.615l-7.66-28.106c-.462-1.696-1.975-2.69-3.529-2.69-.86 0-1.733.303-2.449.96l-19.494 17.87a11.426 11.426 0 0 0-6.588-.66l6.327-21.693Zm6.224 28.043a11.376 11.376 0 0 0-3.917-4.588l18.927-17.353c.347-.319.718-.385.97-.385.557 0 1.213.334 1.414 1.075l7.66 28.105a1.417 1.417 0 0 1-.239 1.258c-.28.366-.707.584-1.146.584-.138 0-.279-.02-.421-.06l-22.21-6.437-1.038-2.199ZM55.022 130.38c-2.175-4.616-.197-10.145 4.411-12.324l24.172-11.429 1.324-.628.285-.133a9.096 9.096 0 0 1 1.015-.41 9.119 9.119 0 0 1 5.47-.115 8.64 8.64 0 0 1 1.164.422 9.255 9.255 0 0 1 4.654 4.521l.211.45.625 1.325.623 1.322 4.913 10.425 1.249 2.653 4.548 9.649a9.212 9.212 0 0 1 .638 6.057 9.237 9.237 0 0 1-5.049 6.267l-25.78 12.19a9.15 9.15 0 0 1-3.938.889 9.286 9.286 0 0 1-8.363-5.308L61.07 143.21l-6.048-12.83Z" fill="#07F"/><path d="m112.995 93.647-3.243 11.232 2.105.61 3.243-11.233-2.105-.61ZM109.619 107.613a1.667 1.667 0 0 0-1.644 1.948 1.669 1.669 0 0 0 1.921 1.367 1.668 1.668 0 0 0 1.365-1.925 1.668 1.668 0 0 0-1.642-1.39Z" fill="#07F"/><path d="M73.209 130.577a.689.689 0 0 1-.623-.391.694.694 0 0 1 .619-.992c.267 0 .506.15.623.392.08.166.091.353.029.526a.685.685 0 0 1-.648.463v.002Z" fill="#fff"/><path d="M73.207 128.098a1.79 1.79 0 0 0 .002 3.577 1.79 1.79 0 0 0-.002-3.577Z" fill="#07F"/><path d="M85.037 124.628a.69.69 0 0 1-.623-.392.694.694 0 0 1 .62-.992.688.688 0 0 1 .651.919.676.676 0 0 1-.35.393.68.68 0 0 1-.298.07v.002Z" fill="#fff"/><path d="M85.033 122.148a1.791 1.791 0 0 0-1.607 2.566 1.784 1.784 0 0 0 2.383.834 1.791 1.791 0 0 0 .833-2.388 1.785 1.785 0 0 0-1.609-1.012ZM76.706 145.051l-2.188-.123a14.872 14.872 0 0 1 8.373-12.565 14.83 14.83 0 0 1 15.03 1.262l-1.268 1.791a12.643 12.643 0 0 0-12.813-1.076 12.681 12.681 0 0 0-7.136 10.711h.002ZM110.839 14.479c-.088-.007-.175-.017-.265-.026-.593-.056-1.191-.111-1.795-.164-5.847-.51-12.174-.789-18.778-.789-10.042 0-19.44.644-27.49 1.765a222.406 222.406 0 0 0-1.065.152c-.347.052-.688.103-1.03.156l-.267.04c-.325.051-.648.103-.968.156-.07.01-.142.023-.213.034C45.134 18.088 36.1 21.863 36.1 26.131c0 3.551 6.254 6.76 16.322 9.054a12.495 12.495 0 0 0 6.986 13.956l25.855 12.031a12.428 12.428 0 0 0 5.257 1.167c4.728 0 9.263-2.693 11.384-7.261l7.978-17.203C129.809 36.022 143.9 31.46 143.9 26.13c0-5.33-13.64-9.742-33.061-11.652Zm-3.476 23.614-7.448 16.06c-2.402 5.177-8.56 7.433-13.73 5.029L60.33 47.15a10.313 10.313 0 0 1-5.766-11.503v-.003c.159-.767.41-1.524.743-2.243l7.58-16.102c4.254-.59 8.831-1.034 13.59-1.325l5.906 14.992-15.319 6.053.804 2.042 15.318-6.054 6.044 15.345 2.038-.805-6.043-15.345 15.318-6.054-.803-2.041L84.42 30.16l-5.636-14.314c3.667-.184 7.426-.28 11.218-.28 6.409 0 12.666.262 18.6.78.382.033.76.067 1.138.102.099.095.194.19.287.29l.011.01a14.744 14.744 0 0 1 .289.315c.078.09.157.181.232.273.014.016.027.034.042.053a10.564 10.564 0 0 1 .438.583l.064.094c.053.078.106.157.157.237.024.037.047.075.069.112.048.075.093.15.137.225l.075.132c.04.071.081.142.119.214l.078.15c.035.067.07.133.103.203.027.055.053.111.078.166.029.064.061.128.088.192.027.06.053.123.078.183a8.118 8.118 0 0 1 .15.379c.022.057.044.115.064.172.026.07.048.141.071.212.019.055.037.108.053.163.024.075.044.15.066.225.015.051.031.103.044.154.022.079.04.157.06.236.013.05.026.099.037.148.018.082.034.165.053.247l.029.14c.016.087.029.171.044.257l.022.134.034.265.017.128c.011.091.018.181.025.273l.011.122c.008.093.011.185.015.278 0 .04.004.079.005.12.004.093.004.188.004.28v.118c0 .095-.004.19-.007.284 0 .038 0 .076-.004.113-.004.097-.011.192-.018.29l-.007.109a9.52 9.52 0 0 1-.03.29l-.011.109a7.366 7.366 0 0 1-.04.292l-.014.105-.053.294c-.008.035-.011.068-.019.103a9.08 9.08 0 0 1-.065.294l-.022.1c-.024.101-.051.2-.079.3l-.025.094-.092.3a5.624 5.624 0 0 1-.027.092c-.033.102-.07.203-.106.305a9.085 9.085 0 0 1-.155.402l-.026.065a9.219 9.219 0 0 1-.168.38l-4.562 9.84h.003Z" fill="#07F"/></symbol><symbol fill="none" viewBox="0 0 24 24" id="fire_alt_24" ><path fill-rule="evenodd" clip-rule="evenodd" d="M14.977 12c2.375-7.5-3.563-10-3.563-10 0 3.75-2.189 4.594-4.156 6.25C4.29 10.75 4 12.625 4 14.5c0 5 5.633 6.875 5.633 6.875-2.375-5 1.188-7.5 1.188-7.5 0 6.25 4.75 8.125 4.75 8.125 8.312-4.375 2.374-14.375 2.374-14.375 0 3.125-2.968 4.375-2.968 4.375Z" fill="#F05C44"/></symbol><symbol fill="none" viewBox="0 0 16 16" id="globe_outline" ><path d="M13.5 8c0-.57-.087-1.118-.246-1.632h-2.381a9.975 9.975 0 0 1-.023 3.12h2.446c.132-.472.204-.97.204-1.488Zm-6.402 2.987c.23.726.533 1.49.913 2.317.394-.838.702-1.604.931-2.317H7.098Zm-3.716 0a5.512 5.512 0 0 0 2.963 2.258 18.652 18.652 0 0 1-.815-2.258H3.382Zm7.13 0c-.205.713-.48 1.457-.824 2.247a5.513 5.513 0 0 0 2.93-2.247h-2.106ZM6.71 6.368a8.83 8.83 0 0 0 .01 3.12h2.607a8.534 8.534 0 0 0 .025-3.12H6.71ZM9.737 2.78c.323.71.594 1.4.798 2.088h1.986A5.514 5.514 0 0 0 9.738 2.78Zm-1.734-.157a17.29 17.29 0 0 0-.916 2.245H8.96c-.24-.71-.56-1.448-.957-2.245Zm-1.719.148A5.514 5.514 0 0 0 3.48 4.868h2.04c.191-.676.447-1.37.765-2.097ZM2.5 8c0 .517.072 1.016.204 1.487H5.2a10.277 10.277 0 0 1-.009-3.119H2.746A5.498 5.498 0 0 0 2.5 8ZM15 8a6.992 6.992 0 0 1-7 7 6.992 6.992 0 0 1-7-7c0-.732.112-1.438.32-2.1l.096-.282a7.003 7.003 0 0 1 13.168 0C14.853 6.362 15 7.164 15 8Z" fill="currentColor"/></symbol><symbol fill="none" viewBox="0 0 28 28" id="history_back_outline" ><path d="M14 2c6.627 0 12 5.373 12 12s-5.373 12-12 12c-3.226 0-6.251-1.28-8.487-3.516a1 1 0 1 1 1.415-1.414A9.964 9.964 0 0 0 14 24c5.523 0 10-4.477 10-10S19.523 4 14 4a9.974 9.974 0 0 0-7.143 3H8.5a1 1 0 0 1 .117 1.993L8.5 9h-4a1 1 0 0 1-.993-.883L3.5 8V4a1 1 0 0 1 1.993-.117L5.5 4v1.529A11.973 11.973 0 0 1 14 2Zm0 6a1 1 0 0 1 .993.883L15 9v4.586l2.707 2.707a1 1 0 0 1-1.32 1.497l-.094-.083-3-3a1 1 0 0 1-.284-.576L13 14V9a1 1 0 0 1 1-1Z" fill="#99A2AD"/></symbol><symbol fill="none" viewBox="0 0 24 24" id="info_circle_outline" ><path d="M12 20.105a8.105 8.105 0 1 0 0-16.21 8.105 8.105 0 0 0 0 16.21ZM12 22C6.477 22 2 17.523 2 12S6.477 2 12 2s10 4.477 10 10-4.477 10-10 10Zm0-12.372a1.316 1.316 0 1 1 0-2.632 1.316 1.316 0 0 1 0 2.632Zm-.947 2.822c0-.541.424-.98.947-.98.523 0 .947.439.947.98v3.83c0 .54-.424.98-.947.98-.523 0-.947-.44-.947-.98v-3.83Z" fill="currentColor"/></symbol><symbol fill="none" viewBox="0 0 20 20" id="like" ><path fill-rule="evenodd" clip-rule="evenodd" d="M13.367 15.054a3.25 3.25 0 0 0 3.083-2.222l1.088-3.265a1.53 1.53 0 0 0-1.45-2.013H12.25a.75.75 0 0 1-.742-.856l.46-3.23c.018-.116.02-.235.006-.353-.072-.647-.94-.851-1.29-.281a110.801 110.801 0 0 1-1.81 2.886 6.127 6.127 0 0 1-1.852 1.783c-.193.12-.37.217-.522.292v7.26h6.867Zm-8.367 0v-7h-.75c-.69 0-1.25.56-1.25 1.25v4.5c0 .69.56 1.25 1.25 1.25H5Zm.61-8.5H4.25a2.75 2.75 0 0 0-2.75 2.75v4.5a2.75 2.75 0 0 0 2.75 2.75h9.117a4.75 4.75 0 0 0 4.506-3.248l1.088-3.265a3.03 3.03 0 0 0-2.873-3.987h-2.973l.339-2.373c.034-.242.038-.488.011-.732-.231-2.084-2.973-2.672-4.06-.899a109.737 109.737 0 0 1-1.779 2.838 4.628 4.628 0 0 1-1.399 1.343 4.527 4.527 0 0 1-.616.323Z" fill="currentColor"/></symbol><symbol fill="currentColor" viewBox="0 0 1024 1024" id="loading" ><path d="M512 1024c-69.1 0-136.2-13.5-199.3-40.2C251.7 958 197 921 150 874c-47-47-84-101.7-109.8-162.7C13.5 648.2 0 581.1 0 512c0-19.9 16.1-36 36-36s36 16.1 36 36c0 59.4 11.6 117 34.6 171.3 22.2 52.4 53.9 99.5 94.3 139.9 40.4 40.4 87.5 72.2 139.9 94.3C395 940.4 452.6 952 512 952c59.4 0 117-11.6 171.3-34.6 52.4-22.2 99.5-53.9 139.9-94.3 40.4-40.4 72.2-87.5 94.3-139.9C940.4 629 952 571.4 952 512c0-59.4-11.6-117-34.6-171.3a440.45 440.45 0 0 0-94.3-139.9 437.71 437.71 0 0 0-139.9-94.3C629 83.6 571.4 72 512 72c-19.9 0-36-16.1-36-36s16.1-36 36-36c69.1 0 136.2 13.5 199.3 40.2C772.3 66 827 103 874 150c47 47 83.9 101.8 109.7 162.7 26.7 63.1 40.2 130.2 40.2 199.3s-13.5 136.2-40.2 199.3C958 772.3 921 827 874 874c-47 47-101.8 83.9-162.7 109.7-63.1 26.8-130.2 40.3-199.3 40.3z"/></symbol><symbol fill="none" viewBox="0 0 16 16" id="mail_outline" ><path fill-rule="evenodd" clip-rule="evenodd" d="M5.719 2h4.562c.674 0 1.224 0 1.672.037.463.037.882.118 1.273.317a3.25 3.25 0 0 1 1.42 1.42c.199.391.28.81.317 1.273.037.447.037.998.037 1.672V9.28c0 .674 0 1.224-.037 1.672-.037.463-.118.882-.317 1.273a3.25 3.25 0 0 1-1.42 1.42c-.391.199-.81.28-1.273.317-.447.037-.998.037-1.672.037H5.72c-.674 0-1.225 0-1.672-.037-.463-.037-.882-.118-1.272-.317a3.25 3.25 0 0 1-1.42-1.42c-.2-.391-.28-.81-.318-1.273C1 10.506 1 9.955 1 9.281V6.72c0-.674 0-1.224.037-1.672.037-.463.118-.882.317-1.272a3.25 3.25 0 0 1 1.42-1.42c.391-.2.81-.28 1.273-.318C4.495 2 5.045 2 5.719 2ZM3.775 3.584 7.47 7.28a.75.75 0 0 0 1.06 0l3.695-3.695a3.25 3.25 0 0 0-.394-.052c-.38-.031-.869-.032-1.581-.032h-4.5c-.712 0-1.202 0-1.58.032-.161.013-.29.03-.395.052Zm9.584.987L9.591 8.34a2.25 2.25 0 0 1-3.182 0L2.641 4.57a2.32 2.32 0 0 0-.11.598c-.03.38-.031.869-.031 1.581v2.5c0 .712 0 1.202.032 1.58.03.371.085.57.159.714.168.33.435.598.765.765.144.074.343.13.713.16.38.03.869.031 1.581.031h4.5c.712 0 1.202 0 1.58-.032.371-.03.57-.085.714-.159a1.75 1.75 0 0 0 .765-.764c.074-.145.13-.344.16-.714.03-.38.031-.869.031-1.581v-2.5c0-.712 0-1.202-.032-1.58a2.322 2.322 0 0 0-.109-.599Z" fill="currentColor"/></symbol><symbol fill="none" viewBox="0 0 140 140" id="manual_review" ><g clip-path="url(#a)"><g clip-path="url(#b)" fill="#07F"><path d="M125.274 25.997c-7.466-7.467-17.391-11.577-27.95-11.577-10.558 0-20.482 4.11-27.948 11.577a39.747 39.747 0 0 0-6.34 8.258 12.767 12.767 0 0 1 4.653 2.978l24.13 24.129v-14.58h11.065v28.62H91.818v-7.314a9.699 9.699 0 0 1-8.537-2.138L60.228 42.897l-1.187 1.188.535.534-.018.017 22.047 22.047c.175.175.356.345.54.504l6.844 6.845c-3.8 3.507-9.743 3.416-13.432-.272L57.855 56.06v.01a38.543 38.543 0 0 0 .223 2.6l7.722 7.723a6.447 6.447 0 0 1 1.902 4.59 6.45 6.45 0 0 1-1.901 4.59c-.313.313-.653.59-1.014.829a39.303 39.303 0 0 0 3.158 3.986c.462.512.94 1.014 1.431 1.506 7.466 7.465 17.39 11.576 27.948 11.576s20.484-4.111 27.95-11.576c7.465-7.466 11.576-17.39 11.576-27.948s-4.111-20.484-11.576-27.948Zm-27.91 14.347c-3.102.002-5.6-2.537-5.59-5.683.008-3.046 2.5-5.495 5.606-5.508 3.021-.012 5.536 2.467 5.567 5.487.03 3.11-2.506 5.7-5.582 5.704Zm26.066 39.674c-6.972 6.974-16.244 10.814-26.106 10.814-9.861 0-19.132-3.84-26.104-10.814a37.362 37.362 0 0 1-4.053-4.795l.991-1.517a35.567 35.567 0 0 0 4.25 5.124c6.655 6.655 15.504 10.322 24.916 10.322s18.263-3.667 24.919-10.322c6.655-6.656 10.321-15.505 10.321-24.917 0-9.413-3.666-18.262-10.321-24.918-6.656-6.655-15.505-10.32-24.919-10.32-9.413 0-18.261 3.665-24.917 10.32a35.477 35.477 0 0 0-5.223 6.636L65.85 34.59a37.122 37.122 0 0 1 5.369-6.783c6.972-6.972 16.244-10.813 26.104-10.813s19.134 3.84 26.106 10.813c6.973 6.973 10.814 16.244 10.814 26.106 0 9.861-3.841 19.132-10.814 26.105ZM16.544 80.847c.547.175 1.107.364 1.68.564v18.386a117.32 117.32 0 0 1-1.68-1.366C7.048 90.564 1.718 83.604 3.59 80.584c1.345-2.17 6.167-1.913 12.953.263ZM73.81 124.138c-1.763 2.841-9.478 1.522-19.763-2.815a121.87 121.87 0 0 1-1.68-.724v-20.78c.569.401 1.129.802 1.68 1.204 13.622 9.893 22.046 19.433 19.763 23.115Z"/><path d="M52.367 91.897h1.68v28.731a76.15 76.15 0 0 1-1.68-.659V91.897ZM98.603 65.773l-.912.91a11.317 11.317 0 0 1-8.044 3.327 11.405 11.405 0 0 1-4.358-.863 11.24 11.24 0 0 1-3.148-1.96 10.69 10.69 0 0 1-.539-.504L59.555 44.636l.018-.017.594-.593.577-.577L82.79 65.495a9.699 9.699 0 0 0 9.026 2.593 9.624 9.624 0 0 0 4.405-2.32L67.686 37.233a12.767 12.767 0 0 0-4.653-2.978 12.783 12.783 0 0 0-4.403-.774c-3.42 0-6.638 1.333-9.057 3.752L25.366 61.44a24.226 24.226 0 0 0-7.143 17.244v21.031c-.574-.458-1.134-.913-1.68-1.364V78.684c0-3.441.668-6.797 1.984-9.975a25.944 25.944 0 0 1 5.65-8.456l24.209-24.209a14.394 14.394 0 0 1 10.244-4.243c1.838 0 3.626.34 5.288.993a14.451 14.451 0 0 1 4.956 3.25l29.729 29.73Z"/><path d="m91.365 74.038-.91.911a11.341 11.341 0 0 1-8.044 3.326 11.341 11.341 0 0 1-8.044-3.326l-5.061-5.06-11.232-11.233-6.804-6.804 1.182-1.182.006-.005L75.554 73.76c3.689 3.688 9.632 3.78 13.431.272L59.038 44.085l1.187-1.188L83.278 65.95l3.759 3.759 4.328 4.329Z"/><path d="M69.378 70.981c0 2.183-.85 4.235-2.392 5.778a8.11 8.11 0 0 1-5.778 2.394 8.17 8.17 0 0 1-3.069-.593 7.985 7.985 0 0 1-1.516-.812 6.477 6.477 0 0 0 .206-1.974 6.461 6.461 0 0 0 4.379 1.7c1.29 0 2.524-.375 3.576-1.073a6.398 6.398 0 0 0 1.013-.829 6.448 6.448 0 0 0 1.901-4.59 6.445 6.445 0 0 0-1.9-4.59L51.16 51.755l.007-.005.102.102 1.183-1.182 5.4 5.4 9.134 9.134a8.109 8.109 0 0 1 2.32 4.684c.049.36.072.725.072 1.093Z"/><path d="M58.516 76.09a8.096 8.096 0 0 1-.378 2.47 8.123 8.123 0 0 1-2.016 3.31 8.12 8.12 0 0 1-5.777 2.393 8.119 8.119 0 0 1-5.777-2.394L34.36 71.66l1.456-1.454a9.277 9.277 0 0 1 3.152-2.075l.619 1.561a7.612 7.612 0 0 0-2.583 1.701l-.268.267 9.022 9.02a6.448 6.448 0 0 0 4.588 1.903 6.454 6.454 0 0 0 4.59-1.902 6.477 6.477 0 0 0 1.893-4.907 6.438 6.438 0 0 0-1.893-4.273L43.277 59.843l1.189-1.187 11.656 11.656a8.116 8.116 0 0 1 2.394 5.778Z"/><path d="m47.924 76.371-1.187 1.19-7.65-7.65-1.245-1.245-1.694-1.694 1.189-1.187 10.587 10.587ZM45.68 94.462v-1.68c4.831 0 9.373-1.881 12.789-5.297l9.639-9.64 1.188 1.188-9.639 9.639a19.634 19.634 0 0 1-13.976 5.789l-.001.001ZM55.361 120.051c-6.452-2.667-13.67-6.437-20.87-10.904-7.722-4.79-14.685-9.916-20.022-14.719v2.242c5.11 4.452 11.684 9.282 19.136 13.905 8.692 5.391 17.104 9.585 23.995 12.164l.256-1.699a89.324 89.324 0 0 1-2.495-.989Z"/></g></g><defs><clipPath id="a"><path fill="#fff" d="M0 0h140v140H0z"/></clipPath><clipPath id="b"><path fill="#fff" transform="translate(3.219 14.42)" d="M0 0h133.63v111.222H0z"/></clipPath></defs></symbol><symbol fill="none" viewBox="0 0 16 16" id="pros_substract_filled" ><path fill-rule="evenodd" clip-rule="evenodd" d="M16 8A8 8 0 1 0 0 8a8 8 0 0 0 16 0ZM8 4a.9.9 0 0 1 .9.9v2.2h2.2a.9.9 0 1 1 0 1.8H8.9v2.2a.9.9 0 1 1-1.8 0V8.9H4.9a.9.9 0 0 1 0-1.8h2.2V4.9A.9.9 0 0 1 8 4Z" fill="#07F"/></symbol><symbol fill="none" viewBox="0 0 24 24" id="qrCode" ><path d="M8.5 13a2.5 2.5 0 0 1 2.5 2.5v4A2.5 2.5 0 0 1 8.5 22h-4A2.5 2.5 0 0 1 2 19.5v-4A2.5 2.5 0 0 1 4.5 13h4ZM21 19a.5.5 0 0 1 .5.5V21a.5.5 0 0 1-.5.5h-1.5a.5.5 0 0 1-.5-.5v-1.5a.5.5 0 0 1 .5-.5H21Zm-5.5 0a.5.5 0 0 1 .5.5V21a.5.5 0 0 1-.5.5H14a.5.5 0 0 1-.5-.5v-1.5a.5.5 0 0 1 .5-.5h1.5Zm-7.25-4.25h-3.5a1 1 0 0 0-1 1v3.5a1 1 0 0 0 1 1h3.5a1 1 0 0 0 1-1v-3.5a1 1 0 0 0-1-1Zm10 1.5a.5.5 0 0 1 .5.5v1.5a.5.5 0 0 1-.5.5h-1.5a.5.5 0 0 1-.5-.5v-1.5a.5.5 0 0 1 .5-.5h1.5Zm-11 0a.5.5 0 0 1 .5.5v1.5a.5.5 0 0 1-.5.5h-1.5a.5.5 0 0 1-.5-.5v-1.5a.5.5 0 0 1 .5-.5h1.5ZM21 13.5a.5.5 0 0 1 .5.5v1.5a.5.5 0 0 1-.5.5h-1.5a.5.5 0 0 1-.5-.5V14a.5.5 0 0 1 .5-.5H21Zm-5.5 0a.5.5 0 0 1 .5.5v1.5a.5.5 0 0 1-.5.5H14a.5.5 0 0 1-.5-.5V14a.5.5 0 0 1 .5-.5h1.5Zm4-11.5A2.5 2.5 0 0 1 22 4.5v4a2.5 2.5 0 0 1-2.5 2.5h-4A2.5 2.5 0 0 1 13 8.5v-4A2.5 2.5 0 0 1 15.5 2h4Zm-11 0A2.5 2.5 0 0 1 11 4.5v4A2.5 2.5 0 0 1 8.5 11h-4A2.5 2.5 0 0 1 2 8.5v-4A2.5 2.5 0 0 1 4.5 2h4Zm10.75 1.75h-3.5a1 1 0 0 0-1 1v3.5a1 1 0 0 0 1 1h3.5a1 1 0 0 0 1-1v-3.5a1 1 0 0 0-1-1Zm-11 0h-3.5a1 1 0 0 0-1 1v3.5a1 1 0 0 0 1 1h3.5a1 1 0 0 0 1-1v-3.5a1 1 0 0 0-1-1Zm10 1.5a.5.5 0 0 1 .5.5v1.5a.5.5 0 0 1-.5.5h-1.5a.5.5 0 0 1-.5-.5v-1.5a.5.5 0 0 1 .5-.5h1.5Zm-11 0a.5.5 0 0 1 .5.5v1.5a.5.5 0 0 1-.5.5h-1.5a.5.5 0 0 1-.5-.5v-1.5a.5.5 0 0 1 .5-.5h1.5Z" fill="#222"/></symbol><symbol fill="none" viewBox="0 0 24 24" id="search" ><path fill-rule="evenodd" clip-rule="evenodd" d="M10.75 3.5a7.25 7.25 0 1 0 4.45 12.974l4.264 4.262a.9.9 0 1 0 1.272-1.272L16.474 15.2A7.25 7.25 0 0 0 10.75 3.5Zm0 1.8a5.45 5.45 0 1 0 0 10.9 5.45 5.45 0 0 0 0-10.9Z" fill="currentColor"/></symbol><symbol fill="none" viewBox="0 0 28 28" id="search_28" ><path fill-rule="evenodd" clip-rule="evenodd" d="M13 4a9 9 0 1 0 5.618 16.032l4.675 4.675a1 1 0 0 0 1.414-1.414l-4.675-4.675A9 9 0 0 0 13 4Zm0 2a7 7 0 1 0 0 14 7 7 0 0 0 0-14Z" fill="#6D7885"/></symbol><symbol fill="none" viewBox="0 0 200 200" id="service_unavailable" ><path d="m50.708 129.335 13.744 3.471c2.07.523 3.987-1.267 3.609-3.367L56.612 65.818a2.936 2.936 0 0 0-2.35-2.366l-15.517-2.904c-2.056-.385-3.844 1.442-3.414 3.489l13.222 63.054a2.937 2.937 0 0 0 2.155 2.244Z" fill="#fff" stroke="#07F" stroke-width="3"/><path d="m31.666 148.044-13.994-3.645a2.936 2.936 0 0 1-2.136-3.437l11.585-55.946a2.937 2.937 0 0 1 2.335-2.29l15.57-2.914c2.056-.385 3.844 1.444 3.413 3.491l-13.16 62.505a2.936 2.936 0 0 1-3.613 2.236ZM156.805 156.16l13.745 3.471c2.069.523 3.987-1.266 3.609-3.367L162.71 92.643a2.936 2.936 0 0 0-2.35-2.366l-15.518-2.904c-2.056-.385-3.843 1.442-3.414 3.489l13.222 63.054a2.937 2.937 0 0 0 2.155 2.244Z" fill="#fff" stroke="#07F" stroke-width="3"/><path d="m137.764 174.869-13.995-3.645a2.936 2.936 0 0 1-2.135-3.437l11.584-55.945a2.936 2.936 0 0 1 2.336-2.291l15.569-2.914c2.057-.385 3.844 1.444 3.413 3.491l-13.159 62.505a2.935 2.935 0 0 1-3.613 2.236Z" fill="#fff" stroke="#07F" stroke-width="3"/><path d="m174.978 78.921-.004 31.469a2.937 2.937 0 0 1-1.528 2.577l-8.525 4.658a2.935 2.935 0 0 1-2.298.222L27.908 75.012A2.936 2.936 0 0 1 26 73.105L17.74 47.18a2.936 2.936 0 0 1 1.492-3.521l10.1-5.016a2.936 2.936 0 0 1 1.996-.224L169.36 71.785a7.341 7.341 0 0 1 5.617 7.136Z" fill="#fff" stroke="#07F" stroke-width="3"/><path d="m165.724 82.641-.003 32.932a2.936 2.936 0 0 1-3.657 2.846L19.424 82.325a2.936 2.936 0 0 1-2.217-2.847l.004-32.931a2.936 2.936 0 0 1 3.657-2.846l142.64 36.093a2.936 2.936 0 0 1 2.216 2.847Z" fill="#fff" stroke="#07F" stroke-width="3"/><path d="M27.385 83.514 16.352 65.192V49.619l1.423-5.442 27.38 44.62-17.77-5.283ZM61.918 92.553 34.152 46.676l16.828 4.019 28.706 47.14-17.768-5.282ZM97.164 102.67 69.398 56.792l16.828 4.019 28.707 47.141-17.77-5.282ZM130.664 109.874l-27.766-45.878 16.828 4.019 28.707 47.141-17.769-5.282ZM164.661 117.445l-27.532-44.563 16.827 4.019 11.32 15.413-.615 25.131ZM31.453 147.161l12.703-58.082h2.981l-12.608 58.346-3.076-.264ZM68.203 131.764 60.958 91.69h-2.98l7.15 40.337 3.075-.263ZM174.3 158.326l-7.245-40.073h-2.981l7.15 40.337 3.076-.264ZM137.129 174.163l12.703-58.082h2.981l-12.608 58.346-3.076-.264Z" fill="#07F"/></symbol><symbol fill="none" viewBox="0 0 24 24" id="smartphone_outline" ><path fill-rule="evenodd" clip-rule="evenodd" d="M11.18 3.9h1.64c1.094 0 1.806.001 2.35.046.522.042.728.116.838.172a2 2 0 0 1 .874.874c.056.11.13.316.172.839.045.543.046 1.255.046 2.349v7.64c0 1.094-.001 1.806-.046 2.35-.042.522-.116.728-.172.838a2 2 0 0 1-.874.874c-.11.056-.316.13-.839.172-.543.045-1.255.046-2.349.046h-1.64c-1.094 0-1.806-.001-2.35-.046-.522-.042-.728-.116-.838-.172a2 2 0 0 1-.874-.874c-.056-.11-.13-.316-.172-.839-.045-.543-.046-1.255-.046-2.349V8.18c0-1.094.001-1.806.046-2.35.042-.522.116-.728.172-.838a2 2 0 0 1 .874-.874c.11-.056.316-.13.839-.172.543-.045 1.255-.046 2.349-.046ZM5.1 8.18c0-2.128 0-3.192.414-4.005a3.8 3.8 0 0 1 1.66-1.66C7.989 2.1 9.053 2.1 11.18 2.1h1.64c2.128 0 3.192 0 4.005.414a3.8 3.8 0 0 1 1.66 1.66c.415.814.415 1.878.415 4.006v7.64c0 2.128 0 3.192-.414 4.005a3.8 3.8 0 0 1-1.66 1.66c-.814.415-1.878.415-4.006.415h-1.64c-2.128 0-3.192 0-4.005-.414a3.8 3.8 0 0 1-1.66-1.66C5.1 19.011 5.1 17.947 5.1 15.82V8.18Zm6.15 8.02a.9.9 0 1 0 0 1.8h1.5a.9.9 0 0 0 0-1.8h-1.5Z" fill="currentColor"/></symbol><symbol fill="none" viewBox="0 0 20 20" id="sort_outline_20" ><path d="M6 17V4M3 14l3 3M9 14l-3 3M14 3v13M17 6l-3-3M11 6l3-3" stroke="currentColor" stroke-width="1.5" stroke-linecap="round"/></symbol><symbol fill="none" viewBox="0 0 24 24" id="sparkle_24" ><path fill-rule="evenodd" clip-rule="evenodd" d="M10.128 5.664a8.013 8.013 0 0 1-4.464 4.464l-3.286 1.314a.601.601 0 0 0 0 1.116l3.286 1.314a8.013 8.013 0 0 1 4.464 4.464l1.314 3.286a.601.601 0 0 0 1.116 0l1.314-3.286a8.013 8.013 0 0 1 4.464-4.464l3.286-1.314a.601.601 0 0 0 0-1.116l-3.286-1.314a8.013 8.013 0 0 1-4.464-4.464l-1.314-3.286a.601.601 0 0 0-1.116 0l-1.314 3.286ZM12 6.376l-.013.032a10.016 10.016 0 0 1-5.58 5.58l-.03.012.03.013a10.015 10.015 0 0 1 5.58 5.58l.013.03.013-.03a10.015 10.015 0 0 1 5.58-5.58l.03-.013-.03-.013a10.015 10.015 0 0 1-5.58-5.58L12 6.378Z" fill="currentColor"/></symbol><symbol fill="none" viewBox="0 0 16 16" id="sparkles" ><path fill-rule="evenodd" clip-rule="evenodd" d="M7.224 5.119c.3.919.716 1.875 1.249 2.407.532.533 1.488.948 2.408 1.249a15.33 15.33 0 0 0 1.043.303c.256.065.256.525 0 .591a19.393 19.393 0 0 0-.764.215l-.28.088c-.919.301-1.875.716-2.407 1.249-.533.532-.948 1.485-1.249 2.401a14.943 14.943 0 0 0-.26.877c-.015.056-.03.11-.043.164-.066.255-.526.255-.592 0a19.218 19.218 0 0 0-.303-1.041c-.301-.916-.716-1.87-1.249-2.401-.532-.533-1.485-.948-2.402-1.249a15.176 15.176 0 0 0-1.041-.303c-.255-.066-.255-.525 0-.591a19.026 19.026 0 0 0 1.041-.304c.917-.3 1.87-.716 2.402-1.248.533-.532.948-1.488 1.249-2.407a15.228 15.228 0 0 0 .303-1.044c.066-.255.526-.255.592 0a18.908 18.908 0 0 0 .303 1.044Z" fill="#6D7885"/><path d="M11.83 1.35c.093-.28.49-.28.583 0l.372 1.116c.117.352.393.628.745.745l1.116.372c.28.093.28.49 0 .583l-1.113.371c-.353.118-.63.396-.746.75l-.373 1.133a.307.307 0 0 1-.585 0l-.372-1.131a1.177 1.177 0 0 0-.75-.75l-1.132-.372a.307.307 0 0 1 0-.584l1.135-.373c.353-.117.63-.393.749-.746l.37-1.114Z" fill="#6D7885"/></symbol><symbol fill="none" viewBox="0 0 14 13" id="star" ><path d="m9.234 4.383 2.953.283c1.028.099 1.343 1.103.55 1.762l-2.313 1.921.859 3.13c.282 1.029-.593 1.65-1.469 1.032l-2.809-1.984-2.809 1.984c-.872.616-1.75-.003-1.468-1.031l.858-3.13-2.312-1.922c-.797-.662-.483-1.663.549-1.762l2.953-.283 1.3-3c.408-.938 1.451-.938 1.858.001l1.3 2.999Z" fill="currentColor"/></symbol><symbol fill="none" viewBox="0 0 14 16" id="star_new_empty" ><path fill-rule="evenodd" clip-rule="evenodd" d="M8.205 7.065 7 4.285l-1.205 2.78-2.64.253 2.128 1.77-.71 2.59L7 9.965l2.428 1.715-.71-2.592 2.128-1.769-2.64-.253Zm2.215 2.558L12.732 7.7c.793-.659.478-1.663-.55-1.761L9.23 5.656l-1.3-2.999c-.407-.938-1.45-.939-1.858 0l-1.3 3-2.953.283C.786 6.039.472 7.04 1.27 7.7l2.312 1.922-.858 3.13c-.282 1.028.596 1.648 1.468 1.032l2.81-1.985 2.808 1.985c.876.618 1.75-.004 1.469-1.032l-.858-3.13Z" fill="currentColor"/></symbol><symbol fill="none" viewBox="0 0 14 16" id="star_new_full" ><path d="m9.23 5.656 2.952.284c1.028.098 1.343 1.102.55 1.761L10.42 9.623l.858 3.13c.282 1.028-.593 1.65-1.469 1.032L7 11.8l-2.809 1.985c-.872.616-1.75-.004-1.468-1.032l.858-3.13L1.269 7.7C.472 7.04.786 6.04 1.82 5.94l2.952-.284 1.3-2.999c.408-.939 1.451-.938 1.858 0l1.3 3Z" fill="currentColor"/></symbol><symbol fill="none" viewBox="0 0 14 16" id="star_new_half" ><path fill-rule="evenodd" clip-rule="evenodd" d="m7.853 6.253.352.812.881.085 1.76.168L9.46 8.47l-.744.618.256.933.455 1.659-1.562-1.104L7 9.964V4.286l.853 1.967Zm4.879 1.448L10.42 9.623l.858 3.13c.282 1.028-.593 1.65-1.469 1.032L7 11.8l-2.809 1.985c-.872.616-1.75-.004-1.468-1.032l.858-3.13L1.269 7.7C.472 7.04.786 6.04 1.82 5.94l2.952-.284 1.3-2.999c.408-.939 1.451-.938 1.858 0l1.3 3 2.953.283c1.028.098 1.343 1.102.55 1.761Z" fill="currentColor"/></symbol><symbol fill="none" viewBox="0 0 20 20" id="tablet_outline" ><path d="M7.75 12a.75.75 0 0 0 0 1.5h5.5a.75.75 0 0 0 0-1.5h-5.5Z" fill="currentColor"/><path fill-rule="evenodd" clip-rule="evenodd" d="M18.75 6.67c0-.535 0-.98-.03-1.345-.03-.38-.098-.736-.27-1.073A2.75 2.75 0 0 0 17.25 3.05c-.338-.172-.694-.24-1.074-.27-.365-.03-.81-.03-1.345-.03H5.17c-.535 0-.98 0-1.345.03-.38.03-.736.098-1.073.27A2.75 2.75 0 0 0 1.55 4.252c-.172.337-.24.693-.27 1.073-.03.365-.03.81-.03 1.345v6.66c0 .535 0 .98.03 1.345.03.38.098.736.27 1.073a2.75 2.75 0 0 0 1.202 1.202c.337.172.693.24 1.073.27.365.03.81.03 1.345.03h9.66c.535 0 .98 0 1.345-.03.38-.03.736-.098 1.073-.27a2.751 2.751 0 0 0 1.202-1.201c.172-.338.24-.694.27-1.074.03-.365.03-.81.03-1.345V6.67Zm-1.636-1.737c.046.09.088.227.111.514.024.296.025.68.025 1.253v6.6c0 .572 0 .957-.025 1.252-.023.288-.065.425-.111.516a1.25 1.25 0 0 1-.547.546c-.09.046-.227.088-.515.111-.295.024-.68.025-1.252.025H5.2c-.572 0-.957 0-1.253-.025-.287-.023-.424-.065-.514-.111a1.25 1.25 0 0 1-.547-.546c-.046-.091-.088-.228-.111-.515-.024-.296-.025-.68-.025-1.253V6.7c0-.572 0-.957.025-1.253.023-.287.065-.424.111-.514a1.25 1.25 0 0 1 .547-.547c.09-.046.227-.088.514-.111.296-.024.68-.025 1.253-.025h9.6c.572 0 .957 0 1.252.025.288.023.425.065.515.111.236.12.427.311.547.547Z" fill="currentColor"/></symbol><symbol fill="none" viewBox="0 0 16 16" id="tag_16" ><path d="M7.172 1.25c.73 0 1.429.29 1.944.806l5 5a2.75 2.75 0 0 1 0 3.888l-3.172 3.172a2.75 2.75 0 0 1-3.888 0l-5-5a2.75 2.75 0 0 1-.806-1.944V4A2.75 2.75 0 0 1 4 1.25h3.172ZM4 2.75c-.69 0-1.25.56-1.25 1.25v3.172c0 .331.132.65.366.884l5 5a1.25 1.25 0 0 0 1.768 0l3.172-3.172a1.25 1.25 0 0 0 0-1.768l-5-5a1.25 1.25 0 0 0-.884-.366H4ZM5.75 4.5a1.25 1.25 0 1 1 0 2.5 1.25 1.25 0 0 1 0-2.5Z" fill="#171C22"/></symbol><symbol fill="none" viewBox="0 0 20 20" id="tv_outline" ><path fill-rule="evenodd" clip-rule="evenodd" d="M5 4.5h10A1.5 1.5 0 0 1 16.5 6v6a1.5 1.5 0 0 1-1.5 1.5H5A1.5 1.5 0 0 1 3.5 12V6A1.5 1.5 0 0 1 5 4.5ZM2 6a3 3 0 0 1 3-3h10a3 3 0 0 1 3 3v6a3 3 0 0 1-3 3h-2l1.146 1.146a.5.5 0 0 1-.353.854H6.207a.5.5 0 0 1-.353-.854L7 15H5a3 3 0 0 1-3-3V6Z" fill="currentColor"/></symbol><symbol fill="none" viewBox="0 0 33 16" id="vk_id" ><path d="M20 13h1.648V3.5H20V13ZM23.78 13h3.694c2.939 0 5.026-1.967 5.026-4.757 0-2.776-2.087-4.743-5.026-4.743H23.78V13Zm1.648-1.482V4.982h2.046c1.964 0 3.31 1.334 3.31 3.261 0 1.94-1.346 3.275-3.31 3.275h-2.046Z" fill="currentColor"/><path d="M0 7.68c0-3.62 0-5.43 1.125-6.555C2.249 0 4.06 0 7.68 0h.64c3.62 0 5.43 0 6.555 1.125C16 2.249 16 4.06 16 7.68v.64c0 3.62 0 5.43-1.125 6.555C13.751 16 11.94 16 8.32 16h-.64c-3.62 0-5.43 0-6.555-1.125C0 13.751 0 11.94 0 8.32v-.64Z" fill="#07F"/><path d="M8.563 11.66c-3.646 0-5.726-2.5-5.813-6.66h1.827c.06 3.053 1.406 4.343 2.473 4.61V5h1.72v2.63c1.053-.113 2.16-1.31 2.533-2.63h1.72c-.286 1.627-1.486 2.827-2.34 3.32.854.4 2.22 1.447 2.74 3.34H11.53c-.407-1.267-1.42-2.247-2.76-2.38v2.38h-.207Z" fill="#fff"/></symbol><symbol fill="none" viewBox="0 0 16 16" id="vk_outline" ><path d="M8.472 11.111c-3.152 0-4.999-2.191-5.074-5.833h1.53c.05 2.675 1.265 3.809 2.196 4.042V5.278h1.53v2.309c.899-.1 1.84-1.15 2.155-2.31h1.507c-.242 1.426-1.265 2.476-1.988 2.91.724.35 1.888 1.266 2.337 2.924h-1.557c-.35-1.108-1.304-1.967-2.453-2.083v2.083h-.183Z" fill="currentColor"/><rect x="1.75" y="1.75" width="12.5" height="12.5" rx="3.25" stroke="currentColor" stroke-width="1.5"/></symbol></svg>