<svg width="28" height="28" viewBox="0 0 28 28" fill="none" xmlns="http://www.w3.org/2000/svg">
<path fill-rule="evenodd" clip-rule="evenodd" d="M8.15307 3.99278L9.1533 3.72477C9.68677 3.58183 10.2351 3.89841 10.378 4.43188C10.521 4.96535 10.2044 5.51368 9.67094 5.65663L8.70502 5.91544C7.79167 6.16017 7.15517 6.33128 6.66597 6.49881C6.18528 6.66341 5.91688 6.80229 5.72334 6.9508C5.09211 7.43516 4.67914 8.15044 4.57529 8.93928C4.54344 9.18115 4.55737 9.48303 4.65516 9.98162C4.75469 10.489 4.92475 11.1258 5.16948 12.0392L6.98121 18.8006C7.3501 20.1774 7.60846 21.1369 7.88197 21.8566C8.14953 22.5606 8.39461 22.9295 8.67741 23.1775C8.97361 23.4372 9.31807 23.6361 9.69113 23.7628C10.0473 23.8837 10.4893 23.9115 11.2328 23.7912C11.9928 23.6682 12.953 23.4122 14.3297 23.0433L16.8894 22.3574C17.2194 22.269 17.3353 22.2373 17.4246 22.2067C18.8416 21.7205 19.6827 20.2636 19.3953 18.7934C19.3771 18.7007 19.3466 18.5845 19.2582 18.2545L18.9994 17.2886C18.8564 16.7552 19.173 16.2068 19.7065 16.0639C20.24 15.9209 20.7883 16.2375 20.9312 16.771L21.2005 17.776C21.2746 18.0523 21.325 18.2403 21.3581 18.4096C21.8372 20.86 20.4353 23.2882 18.0737 24.0984C17.9105 24.1544 17.7224 24.2048 17.4462 24.2788L14.7952 24.9891C13.4828 25.3408 12.4245 25.6244 11.5522 25.7655C10.6519 25.9112 9.84106 25.9257 9.04825 25.6566C8.42649 25.4456 7.85238 25.1141 7.35872 24.6812C6.72925 24.1291 6.33645 23.4197 6.01243 22.5671C5.69852 21.7411 5.41496 20.6828 5.06332 19.3704L3.22844 12.5225C2.99504 11.6515 2.80677 10.9488 2.69256 10.3666C2.57512 9.76781 2.52039 9.2252 2.5924 8.67823C2.76548 7.36349 3.45376 6.17136 4.50581 5.36409C4.9435 5.02824 5.44078 4.80434 6.01803 4.60667C6.57941 4.41443 7.28204 4.22617 8.15307 3.99278Z" fill="#0077FF"/>
<path d="M6.6484 9.83117C6.46972 9.16434 6.86545 8.47891 7.53229 8.30024C8.19912 8.12156 8.88454 8.51729 9.06322 9.18412C9.24189 9.85095 8.84617 10.5364 8.17933 10.7151C7.5125 10.8937 6.82708 10.498 6.6484 9.83117Z" fill="#0077FF"/>
<path d="M10.5468 10.8572C10.3681 10.1903 10.7638 9.5049 11.4307 9.32622C12.0975 9.14754 12.7829 9.54327 12.9616 10.2101C13.1403 10.8769 12.7445 11.5624 12.0777 11.741C11.4109 11.9197 10.7255 11.524 10.5468 10.8572Z" fill="#0077FF"/>
<path d="M7.68368 13.6949C7.505 13.028 7.90073 12.3426 8.56756 12.1639C9.23439 11.9853 9.91982 12.381 10.0985 13.0478C10.2772 13.7147 9.88144 14.4001 9.21461 14.5788C8.54778 14.7574 7.86235 14.3617 7.68368 13.6949Z" fill="#0077FF"/>
<path d="M15.3631 1.26172C15.2468 0.912759 14.7532 0.912759 14.6368 1.26172L14.3457 2.13528C14.1552 2.70676 13.7067 3.1552 13.1353 3.34569L12.2617 3.63688C11.9127 3.7532 11.9127 4.2468 12.2617 4.36312L13.1353 4.65431C13.7067 4.8448 14.1552 5.29324 14.3457 5.86472L14.6368 6.73828C14.7532 7.08724 15.2468 7.08724 15.3631 6.73828L15.6543 5.86472C15.8448 5.29324 16.2932 4.8448 16.8647 4.65431L17.7382 4.36312C18.0872 4.2468 18.0872 3.7532 17.7382 3.63688L16.8647 3.34569C16.2932 3.1552 15.8448 2.70676 15.6543 2.13528L15.3631 1.26172Z" fill="#0077FF"/>
<path d="M21.6052 4.43621C21.4113 3.8546 20.5886 3.8546 20.3947 4.43621L19.9094 5.89214C19.5919 6.8446 18.8446 7.592 17.8921 7.90949L16.4362 8.3948C15.8546 8.58867 15.8546 9.41133 16.4362 9.6052L17.8921 10.0905C18.8446 10.408 19.5919 11.1554 19.9094 12.1079L20.3947 13.5638C20.5886 14.1454 21.4113 14.1454 21.6052 13.5638L22.0905 12.1079C22.408 11.1554 23.1554 10.408 24.1078 10.0905L25.5637 9.6052C26.1454 9.41133 26.1454 8.58867 25.5637 8.3948L24.1078 7.90949C23.1554 7.592 22.408 6.8446 22.0905 5.89214L21.6052 4.43621Z" fill="#0077FF"/>
</svg>
