<svg width="28" height="28" viewBox="0 0 28 28" fill="none" xmlns="http://www.w3.org/2000/svg">
<path fill-rule="evenodd" clip-rule="evenodd" d="M17 7C17 8.65685 15.6569 10 14 10C12.3431 10 11 8.65685 11 7C11 5.34315 12.3431 4 14 4C15.6569 4 17 5.34315 17 7ZM15 11.9C17.2822 11.4367 19 9.41896 19 7C19 4.23858 16.7614 2 14 2C11.2386 2 9 4.23858 9 7C9 9.41896 10.7178 11.4367 13 11.9V15H9C7.89543 15 7 15.8954 7 17V19H4C2.89543 19 2 19.8954 2 21V24C2 25.1046 2.89543 26 4 26H24C25.1046 26 26 25.1046 26 24V21C26 19.8954 25.1046 19 24 19H21V17C21 15.8954 20.1046 15 19 15H15V11.9ZM19 17V19H9V17H19ZM9 21H4L4 24H24V21H19H9Z" fill="#0077FF"/>
</svg>
