<svg width="28" height="28" viewBox="0 0 28 28" fill="none" xmlns="http://www.w3.org/2000/svg">
<path fill-rule="evenodd" clip-rule="evenodd" d="M9.00845 6.4983C9.1057 7.04973 8.74278 7.57653 8.19785 7.67494C6.31793 8.01444 5.62206 8.20083 5.15977 8.55334C4.65266 8.94004 4.27953 9.47926 4.09388 10.0937C4.00727 10.3804 3.9768 10.7439 4.03332 11.3571C4.09094 11.9821 4.22807 12.7736 4.42588 13.9088L5.33091 19.1027C5.52873 20.2379 5.66739 21.0291 5.8245 21.6364C5.97863 22.2321 6.13012 22.5632 6.3084 22.8026C6.69054 23.3157 7.22342 23.6933 7.83065 23.8812C8.10525 23.9661 8.4518 23.9978 9.02578 23.9473C9.61144 23.8958 10.3512 23.768 11.4052 23.5801C11.9503 23.4829 12.4701 23.8514 12.5661 24.403C12.6622 24.9547 12.2981 25.4806 11.7529 25.5778C10.7254 25.7609 9.8909 25.9073 9.19942 25.9681C8.49628 26.03 7.86284 26.0123 7.24458 25.821C6.23252 25.5079 5.3444 24.8786 4.7075 24.0233C4.30653 23.4849 4.07093 22.8676 3.8853 22.1501C3.70501 21.4533 3.55288 20.5801 3.36426 19.4976L2.44434 14.2183C2.2557 13.1358 2.10355 12.2627 2.03744 11.5455C1.96936 10.807 1.98213 10.1454 2.17692 9.50067C2.48634 8.47655 3.10821 7.57785 3.9534 6.93335C4.87748 6.22871 6.11593 5.99043 7.84567 5.67805C8.3906 5.57964 8.9112 5.94688 9.00845 6.4983Z" fill="#0077FF"/>
<path fill-rule="evenodd" clip-rule="evenodd" d="M19.2923 2.44963L19.5742 2.49993C20.644 2.6908 21.5068 2.84474 22.1955 3.02718C22.9045 3.21502 23.5145 3.45343 24.0466 3.85918C24.8918 4.50367 25.5137 5.40237 25.8231 6.42649C26.0179 7.07123 26.0306 7.73282 25.9626 8.47129C25.8964 9.18852 25.7443 10.0616 25.5557 11.1442L24.6357 16.4234C24.4471 17.506 24.295 18.3791 24.1147 19.0759C23.9291 19.7934 23.6935 20.4107 23.2925 20.9491C22.6556 21.8044 21.7675 22.4337 20.7554 22.7468C20.1183 22.9439 19.4645 22.9568 18.7347 22.8879C18.0259 22.821 17.1631 22.6671 16.0934 22.4762L15.8114 22.4259C14.7417 22.235 13.8788 22.0811 13.1902 21.8986C12.4812 21.7108 11.8712 21.4724 11.3391 21.0667C10.4939 20.4222 9.87199 19.5235 9.56258 18.4993C9.36778 17.8546 9.35502 17.193 9.42309 16.4545C9.48921 15.7373 9.64135 14.8642 9.82999 13.7817L10.7499 8.50236C10.9385 7.41986 11.0907 6.54674 11.271 5.84989C11.4566 5.13239 11.6922 4.51512 12.0932 3.97668C12.7301 3.12142 13.6182 2.49213 14.6302 2.17903C15.2674 1.98191 15.9212 1.969 16.6509 2.03788C17.3597 2.10479 18.2226 2.25875 19.2923 2.44963ZM16.4648 4.05756C15.8588 4.00036 15.4996 4.03119 15.2163 4.11884C14.6091 4.3067 14.0762 4.68427 13.6941 5.19743C13.5158 5.43684 13.3643 5.76788 13.2102 6.36363C13.053 6.97086 12.9144 7.76209 12.7166 8.89735L11.8115 14.0912C11.6137 15.2264 11.4766 16.0179 11.419 16.6429C11.3625 17.2561 11.3929 17.6196 11.4795 17.9063C11.6652 18.5207 12.0383 19.06 12.5454 19.4467C12.782 19.6271 13.1092 19.7804 13.6979 19.9363C14.298 20.0953 15.0799 20.2356 16.2018 20.4358L16.3992 20.471C17.5211 20.6712 18.3033 20.81 18.9209 20.8683C19.5268 20.9255 19.886 20.8946 20.1693 20.807C20.7766 20.6191 21.3095 20.2416 21.6916 19.7284C21.8699 19.489 22.0214 19.1579 22.1755 18.5622C22.3326 17.955 22.4713 17.1637 22.6691 16.0285L23.5741 10.8346C23.7719 9.69939 23.9091 8.90788 23.9667 8.2829C24.0232 7.66974 23.9927 7.30623 23.9061 7.01955C23.7205 6.40508 23.3473 5.86586 22.8402 5.47916C22.6036 5.29875 22.2765 5.14545 21.6878 4.98949C21.0877 4.83051 20.3058 4.6902 19.1839 4.49002L18.9865 4.4548C17.8646 4.25462 17.0824 4.11586 16.4648 4.05756Z" fill="#0077FF"/>
</svg>
