<svg width="28" height="28" viewBox="0 0 28 28" fill="none" xmlns="http://www.w3.org/2000/svg">
<path fill-rule="evenodd" clip-rule="evenodd" d="M6 12C6 7.57959 9.55442 4 14 4C18.4477 4 22 7.55228 22 12C22 14.2996 21.2358 15.7071 20.2897 16.8591C19.8995 17.3343 19.4884 17.7548 19.0563 18.197L19.0563 18.197C18.9373 18.3188 18.8167 18.4422 18.6945 18.5689C18.2744 19.0042 17.84 19.4736 17.4625 20H15V17.5L16.6 16.3C17.0418 15.9686 17.1314 15.3418 16.8 14.9C16.4686 14.4582 15.8418 14.3686 15.4 14.7L14 15.75L12.6 14.7C12.1582 14.3686 11.5314 14.4582 11.2 14.9C10.8686 15.3418 10.9582 15.9686 11.4 16.3L13 17.5V20H10.5375C10.16 19.4736 9.72562 19.0042 9.30551 18.5689C9.1833 18.4422 9.06269 18.3188 8.94369 18.197L8.94368 18.197C8.51155 17.7548 8.10053 17.3343 7.71029 16.8591C6.76419 15.7071 6 14.2996 6 12ZM11.2808 22L11.5157 22.9396C11.7007 23.6796 11.74 23.7584 11.7709 23.7997C11.8242 23.8709 11.8955 23.9265 11.9775 23.961C12.025 23.9809 12.111 24 12.8739 24H15.1261C15.889 24 15.975 23.9809 16.0225 23.961C16.1045 23.9265 16.1758 23.8709 16.2291 23.7997C16.26 23.7584 16.2993 23.6796 16.4843 22.9396L16.7192 22H14H11.2808ZM14 2C8.44558 2 4 6.47929 4 12C4 14.8504 4.98581 16.6929 6.16471 18.1284C6.61549 18.6773 7.10446 19.1773 7.54388 19.6266L7.5439 19.6266C7.65503 19.7402 7.76299 19.8506 7.86636 19.9577C8.35807 20.4672 8.76283 20.9186 9.06773 21.394L9.57538 23.4246L9.60692 23.5517C9.73516 24.0701 9.86354 24.5892 10.17 24.9984C10.4365 25.3543 10.793 25.6327 11.2028 25.8048C11.6742 26.0029 12.2089 26.0016 12.743 26.0002L12.8739 26H15.1261L15.257 26.0002C15.7911 26.0016 16.3258 26.0029 16.7972 25.8048C17.207 25.6327 17.5635 25.3543 17.83 24.9984C18.1365 24.5892 18.2648 24.0701 18.3931 23.5517L18.4246 23.4246L18.9323 21.394C19.2372 20.9186 19.6419 20.4672 20.1336 19.9577C20.2369 19.8507 20.3448 19.7404 20.4558 19.6269L20.4561 19.6265L20.4561 19.6265C20.8956 19.1772 21.3845 18.6773 21.8353 18.1284C23.0142 16.6929 24 14.8504 24 12C24 6.44772 19.5523 2 14 2Z" fill="#0077FF"/>
<path fill-rule="evenodd" clip-rule="evenodd" d="M14 2C8.44558 2 4 6.47929 4 12C4 14.8504 4.98581 16.6929 6.16471 18.1284C6.61549 18.6773 7.10446 19.1773 7.54388 19.6266C7.65501 19.7402 7.76299 19.8506 7.86636 19.9577C8.35807 20.4672 8.76283 20.9186 9.06773 21.394L9.57538 23.4246L9.60692 23.5517C9.73516 24.0701 9.86354 24.5892 10.17 24.9984C10.4365 25.3543 10.793 25.6326 11.2028 25.8048C11.6742 26.0029 12.2089 26.0016 12.743 26.0002L12.8739 26H15.1261L15.257 26.0002C15.7911 26.0016 16.3258 26.0029 16.7972 25.8048C17.207 25.6326 17.5635 25.3543 17.83 24.9984C18.1365 24.5892 18.2648 24.0701 18.3931 23.5517L18.4246 23.4246L18.9323 21.394C19.2372 20.9186 19.6419 20.4672 20.1336 19.9577C20.2369 19.8507 20.3448 19.7404 20.4558 19.6269C20.8952 19.1776 21.3845 18.6773 21.8353 18.1284C23.0142 16.6929 24 14.8504 24 12C24 6.44771 19.5523 2 14 2ZM6 12C6 7.57959 9.55442 4 14 4C18.4477 4 22 7.55228 22 12C22 14.2996 21.2358 15.7071 20.2897 16.8591C19.8995 17.3343 19.4884 17.7548 19.0563 18.197C18.9373 18.3188 18.8167 18.4422 18.6945 18.5689C18.2744 19.0042 17.84 19.4736 17.4625 20H15V17.5L16.6 16.3C17.0418 15.9686 17.1314 15.3418 16.8 14.9C16.4686 14.4582 15.8418 14.3686 15.4 14.7L14 15.75L12.6 14.7C12.1582 14.3686 11.5314 14.4582 11.2 14.9C10.8686 15.3418 10.9582 15.9686 11.4 16.3L13 17.5V20H10.5375C10.16 19.4736 9.72562 19.0042 9.30551 18.5689C9.1833 18.4422 9.0627 18.3188 8.94369 18.197C8.51156 17.7549 8.10053 17.3343 7.71029 16.8591C6.76419 15.7071 6 14.2996 6 12ZM11.2808 22L11.5157 22.9396C11.7007 23.6796 11.74 23.7584 11.7709 23.7997C11.8242 23.8709 11.8955 23.9265 11.9775 23.961C12.025 23.9809 12.111 24 12.8739 24H15.1261C15.889 24 15.975 23.9809 16.0225 23.961C16.1045 23.9265 16.1758 23.8709 16.2291 23.7997C16.26 23.7584 16.2993 23.6796 16.4843 22.9396L16.7192 22H11.2808Z" fill="#0077FF"/>
</svg>
