<svg width="28" height="28" viewBox="0 0 28 28" fill="none" xmlns="http://www.w3.org/2000/svg">
<path fill-rule="evenodd" clip-rule="evenodd" d="M12.6 5H15.4C17.1132 5 18.2777 5.00156 19.1779 5.0751C20.0548 5.14674 20.5032 5.27659 20.816 5.43597C21.5686 5.81947 22.1805 6.43139 22.564 7.18404C22.7234 7.49684 22.8533 7.94525 22.9249 8.82208C22.9984 9.72226 23 10.8868 23 12.6V15.4C23 17.1132 22.9984 18.2777 22.9249 19.1779C22.8533 20.0548 22.7234 20.5032 22.564 20.816C22.1805 21.5686 21.5686 22.1805 20.816 22.564C20.5032 22.7234 20.0548 22.8533 19.1779 22.9249C18.2777 22.9984 17.1132 23 15.4 23H12.6C10.8868 23 9.72226 22.9984 8.82208 22.9249C7.94525 22.8533 7.49684 22.7234 7.18404 22.564C6.43139 22.1805 5.81947 21.5686 5.43597 20.816C5.27659 20.5032 5.14674 20.0548 5.0751 19.1779C5.00156 18.2777 5 17.1132 5 15.4V12.6C5 10.8868 5.00156 9.72226 5.0751 8.82208C5.14674 7.94525 5.27659 7.49684 5.43597 7.18404C5.81947 6.43139 6.43139 5.81947 7.18404 5.43597C7.49684 5.27659 7.94525 5.14674 8.82208 5.0751C9.72226 5.00156 10.8868 5 12.6 5ZM3 12.6C3 9.23969 3 7.55953 3.65396 6.27606C4.2292 5.14709 5.14708 4.2292 6.27606 3.65396C7.55953 3 9.23969 3 12.6 3H15.4C18.7603 3 20.4405 3 21.7239 3.65396C22.8529 4.2292 23.7708 5.14709 24.346 6.27606C25 7.55953 25 9.23969 25 12.6V15.4C25 18.7603 25 20.4405 24.346 21.7239C23.7708 22.8529 22.8529 23.7708 21.7239 24.346C20.4405 25 18.7603 25 15.4 25H12.6C9.23969 25 7.55953 25 6.27606 24.346C5.14708 23.7708 4.2292 22.8529 3.65396 21.7239C3 20.4405 3 18.7603 3 15.4V12.6ZM9.25012 20.5C10.2166 20.5 11.0001 19.7165 11.0001 18.75C11.0001 17.7835 10.2166 17 9.25012 17C8.28362 17 7.50012 17.7835 7.50012 18.75C7.50012 19.7165 8.28362 20.5 9.25012 20.5ZM11.0001 9.25C11.0001 10.2165 10.2166 11 9.25012 11C8.28362 11 7.50012 10.2165 7.50012 9.25C7.50012 8.2835 8.28362 7.5 9.25012 7.5C10.2166 7.5 11.0001 8.2835 11.0001 9.25ZM14.0001 15.75C14.9666 15.75 15.7501 14.9665 15.7501 14C15.7501 13.0335 14.9666 12.25 14.0001 12.25C13.0336 12.25 12.2501 13.0335 12.2501 14C12.2501 14.9665 13.0336 15.75 14.0001 15.75ZM20.5 9.25C20.5 10.2165 19.7165 11 18.75 11C17.7835 11 17 10.2165 17 9.25C17 8.2835 17.7835 7.5 18.75 7.5C19.7165 7.5 20.5 8.2835 20.5 9.25ZM18.75 20.5C19.7165 20.5 20.5 19.7165 20.5 18.75C20.5 17.7835 19.7165 17 18.75 17C17.7835 17 17 17.7835 17 18.75C17 19.7165 17.7835 20.5 18.75 20.5Z" fill="#0077FF"/>
</svg>
