<svg width="28" height="28" viewBox="0 0 28 28" fill="none" xmlns="http://www.w3.org/2000/svg">
<path fill-rule="evenodd" clip-rule="evenodd" d="M7.51774 14.4117C7.7982 13.0094 9.02944 12 10.4595 12H13.4C13.96 12 14.24 12 14.4539 11.891C14.6421 11.7952 14.7951 11.6422 14.891 11.454C15 11.2401 15 10.9601 15 10.4001L15.0001 9.5C15.0001 6.46724 17.4673 4 20.5001 4C21.6845 4 22.7826 4.3763 23.6813 5.01564C23.716 5.04035 23.7504 5.06545 23.7846 5.09094C23.8198 5.11728 23.8548 5.14403 23.8894 5.17119C24.1845 5.40278 24.4555 5.66385 24.6978 5.94992C25.1281 6.45797 25.0694 6.78335 24.5217 6.92604C24.3033 6.98293 24.1941 7.01138 24.1384 7.05372C24.0818 7.09668 24.0543 7.13225 24.027 7.19781C24.0001 7.26243 24.0001 7.35066 24.0001 7.52713V11.25C24.0001 11.6642 23.6643 12 23.2501 12H23.1181C22.7789 12 22.5515 12 22.1486 11.6408C22.1016 11.5989 22.0523 11.5522 22.0001 11.5L20.5705 10.3061C20.5463 10.2879 20.5245 10.2712 20.5046 10.2559C20.3706 10.1526 20.3231 10.1161 20.2001 10.1653C20.0737 10.2159 19.9944 10.693 19.9945 10.918C19.9946 10.947 19.9959 10.9718 19.9986 10.9909C19.9991 10.9941 19.9995 10.9971 20.0001 11L21.6301 20.0049C21.68 20.2808 21.705 20.4187 21.7775 20.5141C21.8592 20.6216 21.9922 20.696 22.1266 20.7093C22.2458 20.721 22.3705 20.6724 22.6198 20.575C22.6248 20.5731 22.6299 20.5711 22.635 20.5691C22.8919 20.4685 23.1654 20.4815 23.3998 20.5838C23.6344 20.6863 23.83 20.8784 23.9307 21.1356C24.1321 21.6499 23.8784 22.2299 23.3641 22.4313C23.3588 22.4334 23.3533 22.4355 23.348 22.4376C23.0444 22.5562 22.7351 22.6679 22.4201 22.7729C21.8913 22.9491 21.3465 23.1063 20.7856 23.2445C20.5951 23.2914 20.4026 23.3362 20.2083 23.3787C19.9165 23.4427 19.6204 23.5016 19.3202 23.5557C17.6725 23.8523 15.8989 24 13.9998 24C12.101 24 10.3275 23.8523 8.67998 23.5558C8.37057 23.5001 8.06561 23.4392 7.76509 23.373C7.57989 23.3322 7.39637 23.2894 7.21455 23.2446C6.65827 23.1076 6.11778 22.9519 5.59311 22.7774C5.27343 22.6711 4.95961 22.5579 4.65168 22.4376C4.64629 22.4355 4.64091 22.4334 4.63553 22.4313C4.12127 22.23 3.86755 21.6499 4.0689 21.1356C4.1764 20.8611 4.39185 20.6608 4.64761 20.5644C4.87088 20.4803 5.12488 20.4752 5.36457 20.5691C5.36963 20.5711 5.37475 20.5731 5.37982 20.575C5.65065 20.6808 5.78607 20.7336 5.91556 20.7155C6.03251 20.6991 6.14874 20.6355 6.22562 20.5459C6.31075 20.4466 6.34056 20.2976 6.40018 19.9995L7.51774 14.4117ZM4.65659 18.5194L5.55658 14.0194C6.02401 11.6823 8.07608 10 10.4595 10H13L13.0001 9.5C13.0002 5.36273 16.3628 2 20.5001 2C22.7955 2 24.8518 3.03732 26.2239 4.65727C26.4384 4.91053 26.7153 5.29054 26.8678 5.7791C27.0401 6.33083 27.0637 7.09348 26.5952 7.79864C26.4192 8.06357 26.2099 8.26363 26.0001 8.41504V11.25C26.0001 12.7688 24.7689 14 23.2501 14H23.1181C23.1085 14 23.0973 14.0001 23.0848 14.0002C22.9868 14.0008 22.802 14.0021 22.5707 13.9725L23.3949 18.5259C24.4407 18.6658 25.3811 19.3543 25.793 20.4064C26.3971 21.9493 25.6361 23.6896 24.0933 24.2936C21.1337 25.4524 17.754 26 13.9998 26C10.2456 26 6.86594 25.4524 3.90632 24.2936C2.36356 23.6896 1.60246 21.9493 2.20658 20.4064C2.62534 19.3369 3.59013 18.6432 4.65659 18.5194ZM9.00007 21C9.00007 21.1778 9.00007 21.2667 9.04291 21.3634C9.07859 21.4439 9.1561 21.5343 9.23029 21.5819C9.31934 21.6389 9.41791 21.6541 9.61506 21.6845C10.9779 21.8947 12.4393 22.0002 13.9998 22.0002C15.5605 22.0002 17.0222 21.8947 18.3852 21.6844C18.5822 21.6541 18.6808 21.6389 18.7698 21.5818C18.844 21.5343 18.9216 21.4438 18.9573 21.3632C19.0001 21.2665 19.0001 21.1777 19.0001 21C19.0001 18.2386 16.7615 16 14.0001 16C11.2387 16 9.00007 18.2386 9.00007 21ZM16.7802 19.8706C16.3341 18.7735 15.2574 18 14.0001 18C12.7427 18 11.666 18.7735 11.2199 19.8707C12.0977 19.9564 13.024 20.0002 13.9998 20.0002C14.9758 20.0002 15.9023 19.9564 16.7802 19.8706Z" fill="#0077FF"/>
</svg>
