<svg width="28" height="28" viewBox="0 0 28 28" fill="none" xmlns="http://www.w3.org/2000/svg">
<path fill-rule="evenodd" clip-rule="evenodd" d="M10.7335 9.56666C10.7335 8.98676 11.2036 8.51665 11.7835 8.51665H15.2835C17.152 8.51665 18.6668 9.91477 18.6668 11.7833C18.6668 13.6519 17.152 15.1667 15.2835 15.1667H12.8335V16.3333H15.0335C15.6134 16.3333 16.0835 16.8034 16.0835 17.3833C16.0835 17.9632 15.6134 18.4333 15.0335 18.4333H12.8335V19.1333C12.8335 19.7132 12.3634 20.1833 11.7835 20.1833C11.2036 20.1833 10.7335 19.7132 10.7335 19.1333V18.4333H10.3835C9.80356 18.4333 9.33346 17.9632 9.33346 17.3833C9.33346 16.8034 9.80356 16.3333 10.3835 16.3333H10.7335V15.1667H10.3835C9.80356 15.1667 9.33346 14.6966 9.33346 14.1167C9.33346 13.5368 9.80356 13.0667 10.3835 13.0667H10.7335V9.56666ZM12.8335 13.0667H15.2835C15.9922 13.0667 16.5668 12.4921 16.5668 11.7833C16.5668 11.0746 15.9922 10.5 15.2835 10.5H12.8335V13.0667Z" fill="#0077FF"/>
<path fill-rule="evenodd" clip-rule="evenodd" d="M11.3322 3.58347C12.7906 2.07407 15.2098 2.07407 16.6682 3.58347L16.931 3.85544C17.2801 4.21678 17.7761 4.39731 18.2759 4.34493L18.628 4.30803C20.7286 4.08786 22.5934 5.65262 22.7413 7.75953L22.7661 8.11271C22.8013 8.61392 23.0652 9.07105 23.4817 9.35214L23.7752 9.5502C25.5258 10.7318 25.9486 13.1291 24.7076 14.8382L24.4996 15.1247C24.2043 15.5313 24.1127 16.0511 24.251 16.5341L24.3485 16.8745C24.9301 18.9049 23.713 21.0131 21.6637 21.5247L21.3202 21.6104C20.8327 21.7321 20.4284 22.0714 20.2239 22.5304L20.0798 22.8538C19.2202 24.783 16.9326 25.6156 15.034 24.6903L14.7158 24.5352C14.2641 24.315 13.7363 24.315 13.2846 24.5352L12.9663 24.6903C11.0677 25.6156 8.78021 24.783 7.92059 22.8538L7.77649 22.5304C7.572 22.0714 7.16764 21.7321 6.68015 21.6104L6.33664 21.5247C4.28743 21.0131 3.07026 18.9049 3.65185 16.8745L3.74935 16.5341C3.8877 16.0511 3.79604 15.5313 3.50083 15.1247L3.2928 14.8382C2.05183 13.1291 2.47455 10.7318 4.22522 9.5502L4.51868 9.35214C4.93515 9.07105 5.19908 8.61392 5.23427 8.11271L5.25907 7.75953C5.40701 5.65262 7.27181 4.08786 9.3724 4.30803L9.72453 4.34493C10.2242 4.39731 10.7203 4.21678 11.0694 3.85545L11.3322 3.58347ZM15.158 5.04268C14.5251 4.38766 13.4753 4.38766 12.8424 5.04268L12.5796 5.31466C11.7816 6.14056 10.6478 6.55321 9.50562 6.43349L9.15349 6.39659C8.23449 6.30026 7.41863 6.98484 7.35391 7.90662L7.32911 8.2598C7.24867 9.40544 6.64542 10.4503 5.69349 11.0928L5.40002 11.2908C4.63411 11.8078 4.44917 12.8566 4.99209 13.6043L5.20012 13.8908C5.87489 14.8202 6.0844 16.0083 5.76816 17.1124L5.67067 17.4527C5.41622 18.3411 5.94873 19.2634 6.84527 19.4872L7.18878 19.573C8.30304 19.8511 9.22727 20.6266 9.69469 21.6757L9.83879 21.9991C10.2149 22.8431 11.2157 23.2074 12.0463 22.8025L12.3646 22.6474C13.3969 22.1443 14.6034 22.1443 15.6358 22.6474L15.9541 22.8025C16.7847 23.2074 17.7855 22.8431 18.1616 21.9991L18.3057 21.6757C18.7731 20.6266 19.6973 19.8511 20.8116 19.573L21.1551 19.4872C22.0517 19.2634 22.5842 18.3411 22.3297 17.4527L22.2322 17.1124C21.916 16.0083 22.1255 14.8202 22.8003 13.8908L23.0083 13.6043C23.5512 12.8566 23.3663 11.8078 22.6004 11.2908L22.3069 11.0928C21.355 10.4503 20.7517 9.40543 20.6713 8.2598L20.6465 7.90662C20.5818 6.98484 19.7659 6.30026 18.8469 6.39659L18.4948 6.43349C17.3526 6.55321 16.2188 6.14056 15.4208 5.31466L15.158 5.04268Z" fill="#0077FF"/>
</svg>
