<svg width="28" height="28" viewBox="0 0 28 28" fill="none" xmlns="http://www.w3.org/2000/svg">
<path fill-rule="evenodd" clip-rule="evenodd" d="M21.5953 5.08629C19.3569 3.00761 16.9354 2 14 2C11.1006 2 8.59106 3.05594 6.4047 5.08629C4.22925 7.10649 3 9.87022 3 12.7602L3.01607 21.2916C3.11621 23.4303 4.65229 24.9416 6.66321 24.9416C7.34566 24.9416 7.84042 24.805 8.445 24.5093L8.9384 24.2534C9.27295 24.0819 9.43034 24.0444 9.68051 24.0864C9.80187 24.1069 9.94121 24.178 10.1601 24.3428L10.7569 24.8231C11.7455 25.6074 12.6629 26 14 26C15.2513 26 16.1228 25.6597 17.036 24.9723L17.2325 24.8196C17.2505 24.8052 17.3018 24.7633 17.3664 24.7104C17.503 24.5989 17.6987 24.4389 17.7645 24.388C18.0163 24.1934 18.1727 24.1111 18.3195 24.0864C18.5339 24.0504 18.6802 24.0728 18.9283 24.188L19.0616 24.2534C19.1188 24.2828 19.1821 24.3163 19.3226 24.3909C20.0388 24.7687 20.569 24.9416 21.3368 24.9416C23.3527 24.9416 24.8292 23.4251 24.9812 21.3633L25 12.7621C25 9.87022 23.7707 7.10649 21.5953 5.08629ZM7.76565 6.55182C9.59386 4.85408 11.6237 4 14 4C16.4155 4 18.3559 4.80744 20.2343 6.55182C22.0061 8.19715 23 10.4317 23 12.7602L22.9839 21.2879C22.9086 22.2743 22.2589 22.9416 21.3368 22.9416C21.0031 22.9416 20.7735 22.8803 20.4169 22.7044L19.9741 22.4738C19.2906 22.1233 18.7293 21.9894 17.9878 22.1141C17.5231 22.1923 17.1385 22.3738 16.722 22.6711L16.5413 22.8057C16.4469 22.8787 16.199 23.0814 16.0667 23.1897C16.0228 23.2255 15.9917 23.251 15.983 23.258C15.3215 23.7872 14.8287 24 14 24C13.2464 24 12.7586 23.8206 12.1775 23.3923L12 23.2563C11.9965 23.2535 11.9789 23.2393 11.9516 23.217C11.8244 23.1133 11.4851 22.837 11.3634 22.7453C10.911 22.4046 10.5041 22.1969 10.0122 22.1141C9.27066 21.9894 8.70944 22.1233 8.02588 22.4738L7.74445 22.6219C7.28996 22.8616 7.04459 22.9416 6.66321 22.9416C5.734 22.9416 5.06415 22.2825 5.01495 21.2425L5 12.7583C5 10.4317 5.99389 8.19715 7.76565 6.55182ZM12.5 13C13.3284 13 14 12.3284 14 11.5C14 10.6716 13.3284 10 12.5 10C11.6716 10 11 10.6716 11 11.5C11 12.3284 11.6716 13 12.5 13ZM18.5 13C19.3284 13 20 12.3284 20 11.5C20 10.6716 19.3284 10 18.5 10C17.6716 10 17 10.6716 17 11.5C17 12.3284 17.6716 13 18.5 13Z" fill="#0077FF"/>
</svg>
