<svg width="28" height="28" viewBox="0 0 28 28" fill="none" xmlns="http://www.w3.org/2000/svg">
<path d="M11.0004 16.9302V19.3936C11.0004 24.0815 6.41787 26.4933 3.9276 24.003C1.43732 21.5128 3.84918 16.9302 8.53703 16.9302H11.0004ZM9.0004 18.9302H8.53703C5.52292 18.9302 4.19888 21.4459 5.34181 22.5888C6.48473 23.7318 9.0004 22.4077 9.0004 19.3936V18.9302ZM19.3885 3.52265C21.0106 3.18472 22.5994 4.2257 22.9373 5.84773C22.9793 6.04898 23.0004 6.25401 23.0004 6.45959V16.8936C23.0004 21.5815 18.4179 23.9933 15.9276 21.503C13.4373 19.0128 15.8492 14.4302 20.537 14.4302L20.9997 14.43V9.72898L10.9997 11.812L11.0004 18H9.0004V8.91674C9.0004 7.97363 9.07903 7.48677 9.31362 6.96261C9.53559 6.46666 9.87299 6.05173 10.3132 5.73328C10.7785 5.39671 11.2391 5.22044 12.1624 5.02809L19.3885 3.52265ZM21.0004 16.4302H20.537C17.5229 16.4302 16.1989 18.9459 17.3418 20.0888C18.4847 21.2318 21.0004 19.9077 21.0004 16.8936V16.4302ZM20.9794 6.25563C20.8667 5.71496 20.3371 5.36797 19.7964 5.48061L12.5703 6.98605C11.8995 7.12581 11.6895 7.20619 11.4854 7.35378C11.3297 7.46641 11.2176 7.60422 11.1391 7.77963C11.0363 8.0095 11.0004 8.23148 11.0004 8.91674L10.9997 9.76998L20.9997 7.68698L21.0004 6.45959C21.0004 6.42533 20.9986 6.39111 20.9951 6.35707L20.9794 6.25563Z" fill="#0077FF"/>
</svg>
