<svg width="28" height="28" viewBox="0 0 28 28" fill="none" xmlns="http://www.w3.org/2000/svg">
<path fill-rule="evenodd" clip-rule="evenodd" d="M11.1807 6.01646C10.6375 5.91667 10.1162 6.27613 10.0165 6.81932C9.94543 7.20598 9.4366 8.02565 8.01849 7.99942C7.4663 7.98921 7.01038 8.42857 7.00017 8.98076C6.98996 9.53295 7.42932 9.98887 7.98151 9.99908C10.3301 10.0425 11.727 8.57733 11.9835 7.18068C12.0833 6.63748 11.7239 6.11624 11.1807 6.01646Z" fill="#0077FF"/>
<path fill-rule="evenodd" clip-rule="evenodd" d="M17.2655 7.02794C17.8023 6.8984 18.3426 7.22862 18.4721 7.76549C18.6301 8.42042 18.8644 9.03142 19.2335 9.44405C19.5513 9.79939 20.0229 10.0743 20.895 9.98221C21.4442 9.9242 21.9365 10.3224 21.9945 10.8716C22.0525 11.4209 21.6543 11.9131 21.105 11.9711C19.6054 12.1296 18.497 11.6207 17.7427 10.7773C17.0397 9.99127 16.7098 8.98868 16.5279 8.2346C16.3984 7.69772 16.7286 7.15748 17.2655 7.02794Z" fill="#0077FF"/>
<path fill-rule="evenodd" clip-rule="evenodd" d="M10.569 21.4976C10.018 21.5357 9.5405 21.12 9.50238 20.569C9.45512 19.8858 9.33108 19.3189 9.02365 18.8306C8.72457 18.3556 8.1872 17.8537 7.12724 17.4279C6.61476 17.2221 6.3662 16.6397 6.57207 16.1272C6.77794 15.6148 7.36028 15.3662 7.87276 15.5721C9.2372 16.1202 10.1475 16.8618 10.7161 17.765C11.2765 18.655 11.4402 19.6011 11.4976 20.431C11.5357 20.982 11.12 21.4595 10.569 21.4976Z" fill="#0077FF"/>
<path fill-rule="evenodd" clip-rule="evenodd" d="M10.0165 6.81932C10.1162 6.27613 10.6375 5.91667 11.1807 6.01646C11.7239 6.11624 12.0833 6.63748 11.9835 7.18068C11.727 8.57733 10.3301 10.0425 7.98151 9.99908C7.42932 9.98887 6.98996 9.53295 7.00017 8.98076C7.01038 8.42857 7.4663 7.98921 8.01849 7.99942C9.4366 8.02565 9.94543 7.20598 10.0165 6.81932ZM9.50238 20.569C9.5405 21.12 10.018 21.5357 10.569 21.4976C11.12 21.4595 11.5357 20.982 11.4976 20.431C11.4402 19.6011 11.2765 18.655 10.7161 17.765C10.1475 16.8618 9.2372 16.1202 7.87276 15.5721C7.36028 15.3662 6.77794 15.6148 6.57207 16.1272C6.3662 16.6397 6.61476 17.2221 7.12724 17.4279C8.1872 17.8537 8.72457 18.3556 9.02365 18.8306C9.33108 19.3189 9.45512 19.8858 9.50238 20.569Z" fill="#0077FF"/>
<path fill-rule="evenodd" clip-rule="evenodd" d="M11.624 2C9.59439 2 7.8585 3.20946 7.0449 4.93781C4.67518 5.65561 3 7.95509 3 10.6076C3 11.8131 3.34393 12.9402 3.93919 13.8801C3.4093 14.5631 3.09738 15.4312 3.09738 16.3662C3.09738 17.7876 3.82318 19.0673 4.94637 19.7621C4.89772 19.9946 4.87222 20.2354 4.87222 20.4816C4.87222 22.2853 6.33209 23.8924 8.17948 23.8341C8.8881 25.1193 10.2411 26 11.8112 26C12.6184 26 13.3712 25.7656 14.0073 25.363C14.6527 25.7662 15.4153 26 16.2316 26C17.8444 26 19.2395 25.0917 19.951 23.7631C21.718 23.7401 23.0619 22.2417 23.0619 20.5012C23.0619 20.2385 23.0317 19.9823 22.9746 19.7363C24.1943 19.0641 25 17.7322 25 16.2386C25 15.2542 24.6524 14.3456 24.0694 13.6473C24.3776 13.1113 24.6086 12.5225 24.7472 11.8979C24.8084 11.6221 24.8517 11.3394 24.8756 11.0512C24.8901 10.8761 24.8975 10.6991 24.8975 10.5203C24.8975 7.8879 23.2865 5.60956 20.9854 4.77179C20.0457 3.11998 18.2763 2 16.2411 2C15.3973 2 14.5964 2.19332 13.8816 2.53847C13.202 2.19427 12.4349 2 11.624 2ZM11.624 4C10.2991 4 9.15129 4.86791 8.7242 6.11051C8.60772 6.44943 8.31877 6.7001 7.96679 6.76758C6.32388 7.08257 5 8.64339 5 10.6076C5 11.3378 5.18456 12.0163 5.50231 12.5956C5.58848 12.5477 5.67555 12.5023 5.76328 12.4595C7.05286 11.8292 8.64248 11.6524 9.97178 12.1101C10.494 12.29 10.7715 12.8591 10.5917 13.3813C10.4119 13.9034 9.84278 14.181 9.32059 14.0012C8.56899 13.7423 7.53099 13.8216 6.64152 14.2563C5.82624 14.6548 5.09738 15.4122 5.09738 16.3662C5.09738 17.3259 5.71689 18.0681 6.45943 18.2577C6.76456 18.3357 7.01516 18.5528 7.13575 18.8437C7.25635 19.1346 7.23284 19.4654 7.07232 19.7363C6.94753 19.947 6.87222 20.2015 6.87222 20.4816C6.87222 21.2902 7.47249 21.8356 8.08139 21.8356C8.21078 21.8356 8.33398 21.8132 8.44941 21.7717C8.70795 21.6789 8.9933 21.6964 9.23847 21.8203C9.48365 21.9442 9.66706 22.1635 9.74565 22.4268C10.0217 23.3514 10.8539 24 11.8112 24C12.249 24 12.6574 23.866 13 23.6322V19.4425L13 19.4358V10.5554L13 10.5486V4.33392C12.5856 4.11977 12.1187 4 11.624 4ZM16.2411 4C17.6238 4 18.8242 4.82037 19.3798 6.01844C19.5034 6.28507 19.7381 6.48381 20.0215 6.56184C21.6474 7.0096 22.8975 8.58817 22.8975 10.5203C22.8975 10.6397 22.8927 10.7577 22.8834 10.8743C22.8674 11.066 22.84 11.255 22.7994 11.4431C22.6246 12.1972 22.1974 12.986 21.5864 13.632C20.8277 14.4341 19.8934 14.9063 19 14.9063C18.4477 14.9063 18 15.354 18 15.9063C18 16.4586 18.4477 16.9063 19 16.9063C20.455 16.9063 21.7723 16.2202 22.7672 15.2785C22.9145 15.5599 23 15.8865 23 16.2386C23 17.2501 22.303 18.0303 21.4729 18.1725C21.1349 18.2304 20.8501 18.4574 20.7184 18.774C20.5867 19.0907 20.6264 19.4527 20.8236 19.7333C20.9711 19.943 21.0619 20.2073 21.0619 20.5012C21.0619 21.231 20.5195 21.7627 19.9449 21.7627C19.3704 21.7627 19.1119 21.5511 18.7348 21.2159C18.3216 20.8486 18.1885 20.4911 18.1885 20.3342C18.1885 19.782 17.7407 19.3342 17.1885 19.3342C16.6362 19.3342 16.1885 19.782 16.1885 20.3342C16.1885 21.2819 16.7633 22.1393 17.4059 22.7106C17.5795 22.8649 17.7715 23.0108 17.9783 23.1419C17.5697 23.6663 16.9366 24 16.2316 24C15.7763 24 15.3532 23.8621 15 23.6233V4.23131C15.3848 4.08188 15.8029 4 16.2411 4Z" fill="#0077FF"/>
<path fill-rule="evenodd" clip-rule="evenodd" d="M10.0165 6.81932C10.1162 6.27613 10.6375 5.91667 11.1807 6.01646C11.7239 6.11624 12.0833 6.63748 11.9835 7.18068C11.727 8.57733 10.3301 10.0425 7.98151 9.99908C7.42932 9.98887 6.98996 9.53295 7.00017 8.98076C7.01038 8.42857 7.4663 7.98921 8.01849 7.99942C9.4366 8.02565 9.94543 7.20598 10.0165 6.81932ZM9.50238 20.569C9.5405 21.12 10.018 21.5357 10.569 21.4976C11.12 21.4595 11.5357 20.982 11.4976 20.431C11.4402 19.6011 11.2765 18.655 10.7161 17.765C10.1475 16.8618 9.2372 16.1202 7.87276 15.5721C7.36028 15.3662 6.77794 15.6148 6.57207 16.1272C6.3662 16.6397 6.61476 17.2221 7.12724 17.4279C8.1872 17.8537 8.72457 18.3556 9.02365 18.8306C9.33108 19.3189 9.45512 19.8858 9.50238 20.569Z" fill="#0077FF"/>
</svg>
