<svg width="28" height="28" viewBox="0 0 28 28" fill="none" xmlns="http://www.w3.org/2000/svg">
<path fill-rule="evenodd" clip-rule="evenodd" d="M11.4272 6.04261C13.0106 5.09257 14.9888 5.09257 16.5722 6.0426L23.2538 10.0515C23.5846 10.25 23.5755 10.7325 23.2375 10.9184L16.4095 14.6739C14.9091 15.4992 13.0907 15.4992 11.5902 14.674L4.76198 10.9184C4.42396 10.7325 4.41489 10.25 4.74569 10.0515L11.4272 6.04261ZM17.6012 4.32762L24.2828 8.33655C25.9367 9.32894 25.8915 11.7412 24.2014 12.6708L17.3734 16.4263C15.2728 17.5817 12.727 17.5817 10.6264 16.4264L3.79813 12.6708C2.10803 11.7413 2.0627 9.32895 3.7167 8.33655L10.3982 4.32763C12.615 2.99757 15.3844 2.99756 17.6012 4.32762Z" fill="#0077FF"/>
<path d="M23.4995 10.4993C23.4995 9.94699 23.9473 9.49927 24.4995 9.49927C25.0518 9.49927 25.4995 9.94699 25.4995 10.4993V15.4993C25.4995 16.0516 25.0518 16.4993 24.4995 16.4993C23.9473 16.4993 23.4995 16.0516 23.4995 15.4993V10.4993Z" fill="#0077FF"/>
<path fill-rule="evenodd" clip-rule="evenodd" d="M7.99954 12.9993V17.9993C7.99954 20.7607 10.2381 22.9993 12.9995 22.9993H14.9995C17.761 22.9993 19.9995 20.7607 19.9995 17.9993V12.9993H21.9995V17.9993C21.9995 21.8653 18.8655 24.9993 14.9995 24.9993H12.9995C9.13355 24.9993 5.99954 21.8653 5.99954 17.9993V12.9993H7.99954Z" fill="#0077FF"/>
</svg>
