<svg width="28" height="28" viewBox="0 0 28 28" fill="none" xmlns="http://www.w3.org/2000/svg">
<path fill-rule="evenodd" clip-rule="evenodd" d="M24 14C24 19.5228 19.5228 24 14 24C8.47715 24 4 19.5228 4 14C4 8.47715 8.47715 4 14 4C19.5228 4 24 8.47715 24 14ZM26 14C26 20.6274 20.6274 26 14 26C7.37258 26 2 20.6274 2 14C2 7.37258 7.37258 2 14 2C20.6274 2 26 7.37258 26 14ZM16.0928 19.6249C15.4412 19.8674 14.7361 20 14 20C13.2639 20 12.5588 19.8674 11.9072 19.6249L12.366 18.8302C12.6422 18.3519 12.4783 17.7403 12 17.4641C11.5217 17.188 10.9101 17.3519 10.634 17.8302L10.1759 18.6236C9.09015 17.7246 8.32632 16.4506 8.08296 15H9C9.55228 15 10 14.5523 10 14C10 13.4477 9.55228 13 9 13H8.08296C8.32631 11.5495 9.09014 10.2754 10.1758 9.37639L10.634 10.1699C10.9101 10.6482 11.5217 10.8121 12 10.5359C12.4783 10.2598 12.6422 9.64819 12.366 9.1699L11.9071 8.3751C12.5588 8.13256 13.2639 8 14 8C14.7361 8 15.4412 8.13256 16.0929 8.3751L15.634 9.1699C15.3578 9.64819 15.5217 10.2598 16 10.5359C16.4783 10.8121 17.0899 10.6482 17.366 10.1699L17.8242 9.37639C18.9099 10.2754 19.6737 11.5495 19.917 13H19C18.4477 13 18 13.4477 18 14C18 14.5523 18.4477 15 19 15H19.917C19.6737 16.4506 18.9098 17.7246 17.8241 18.6236L17.366 17.8302C17.0899 17.3519 16.4783 17.188 16 17.4641C15.5217 17.7403 15.3578 18.3519 15.634 18.8302L16.0928 19.6249ZM6 14C6 18.4183 9.58172 22 14 22C18.4183 22 22 18.4183 22 14C22 9.58172 18.4183 6 14 6C9.58172 6 6 9.58172 6 14ZM15.5 14C15.5 14.8284 14.8284 15.5 14 15.5C13.1716 15.5 12.5 14.8284 12.5 14C12.5 13.1716 13.1716 12.5 14 12.5C14.8284 12.5 15.5 13.1716 15.5 14Z" fill="#0077FF"/>
</svg>
