<svg width="28" height="28" viewBox="0 0 28 28" fill="none" xmlns="http://www.w3.org/2000/svg">
<path d="M14 12.0005C13.1716 12.0005 12.5 12.6721 12.5 13.5005C12.5 14.329 13.1716 15.0005 14 15.0005C14.8284 15.0005 15.5 14.329 15.5 13.5005C15.5 12.6721 14.8284 12.0005 14 12.0005Z" fill="#0077FF"/>
<path fill-rule="evenodd" clip-rule="evenodd" d="M18.834 4.95875C19.2693 4.88102 19.397 4.32182 19.0347 4.06828C17.7772 3.18825 15.6164 1.70812 14.5738 1.18147C14.4687 1.10768 14.3487 1.05362 14.2192 1.02466C14.1112 0.987512 14.0357 0.977614 14 1.00054C13.4477 1.00055 13 1.44827 13 2.00055V7.00055C13 7.04289 13.0026 7.08462 13.0077 7.12558C12.9134 7.14974 12.8197 7.1774 12.7269 7.20856C12.1926 7.38794 11.7475 7.70403 11.31 8.09299C11.0303 8.34167 10.7259 8.64606 10.3834 9.00054H6.95983C6.29397 9.00053 5.73445 9.00051 5.27658 9.03792C4.79786 9.07703 4.3429 9.16197 3.91105 9.38201C3.25247 9.71757 2.71703 10.253 2.38147 10.9116C2.16144 11.3434 2.0765 11.7984 2.03738 12.2771C1.99998 12.735 1.99999 13.2944 2 13.9603V22.0407C1.99999 22.7065 1.99998 23.2661 2.03738 23.724C2.0765 24.2027 2.16144 24.6576 2.38148 25.0895C2.71704 25.7481 3.25247 26.2835 3.91104 26.6191C4.34289 26.8391 4.79785 26.924 5.27658 26.9632C5.73442 27.0006 6.2939 27.0006 6.95971 27.0005H21.0402C21.706 27.0006 22.2656 27.0006 22.7234 26.9632C23.2022 26.924 23.6571 26.8391 24.089 26.6191C24.7475 26.2835 25.283 25.7481 25.6185 25.0895C25.8386 24.6576 25.9235 24.2027 25.9626 23.724C26 23.2661 26 22.7066 26 22.0408V13.9603C26 13.2945 26 12.7349 25.9626 12.2771C25.9235 11.7984 25.8386 11.3434 25.6185 10.9116C25.283 10.253 24.7475 9.71757 24.089 9.38201C23.6571 9.16197 23.2022 9.07703 22.7234 9.03792C22.2656 9.00051 21.706 9.00052 21.0402 9.00054L17.6166 9.00053C17.2741 8.64606 16.9697 8.34167 16.69 8.09299C16.2525 7.70403 15.8074 7.38794 15.2731 7.20856C15.1803 7.1774 15.0943 7.14974 15 7.12558C15.0051 7.08462 15 7.04289 15 7.00055V5.6434L18.834 4.95875ZM14.6366 9.10456C14.2235 8.96588 13.7765 8.96588 13.3634 9.10456C13.1929 9.16181 12.9829 9.28187 12.6388 9.58774C12.2864 9.90106 11.8653 10.3419 11.2483 10.9899L7.72414 14.6902C7.5354 14.8884 7.27368 15.0005 7 15.0005H4V22.0005C4 22.7171 4.00078 23.1944 4.03074 23.5611C4.05975 23.9161 4.11105 24.0786 4.16349 24.1815C4.3073 24.4638 4.53677 24.6932 4.81902 24.8371C4.92194 24.8895 5.0844 24.9408 5.43944 24.9698C5.80615 24.9998 6.28344 25.0005 7 25.0005H10.5V21.5005C10.5 19.5675 12.067 18.0005 14 18.0005C15.933 18.0005 17.5 19.5675 17.5 21.5005V25.0005H21C21.7166 25.0005 22.1939 24.9998 22.5606 24.9698C22.9156 24.9408 23.0781 24.8895 23.181 24.8371C23.4632 24.6932 23.6927 24.4638 23.8365 24.1815C23.889 24.0786 23.9403 23.9161 23.9693 23.5611C23.9992 23.1944 24 22.7171 24 22.0005V15.0005H21C20.7263 15.0005 20.4646 14.8884 20.2759 14.6902L16.7517 10.9898C16.1347 10.3419 15.7137 9.90106 15.3612 9.58774C15.0171 9.28187 14.8071 9.16181 14.6366 9.10456ZM15.5 21.5005V25.0005H12.5V21.5005C12.5 20.6721 13.1716 20.0005 14 20.0005C14.8284 20.0005 15.5 20.6721 15.5 21.5005ZM23.9943 13.0005C23.99 12.7848 23.9825 12.6017 23.9693 12.44C23.9403 12.0849 23.889 11.9225 23.8365 11.8196C23.6927 11.5373 23.4632 11.3078 23.181 11.164C23.0781 11.1116 22.9156 11.0603 22.5606 11.0313C22.1939 11.0013 21.7166 11.0005 21 11.0005L19.5238 11.0005L21.4286 13.0005H23.9943ZM8.47619 11.0005H6.99999C6.28343 11.0005 5.80615 11.0013 5.43944 11.0313C5.0844 11.0603 4.92194 11.1116 4.81902 11.164C4.53678 11.3078 4.3073 11.5373 4.16349 11.8196C4.11105 11.9225 4.05975 12.0849 4.03074 12.44C4.01753 12.6017 4.01 12.7848 4.0057 13.0005H6.57143L8.47619 11.0005Z" fill="#0077FF"/>
</svg>
