<svg width="28" height="28" viewBox="0 0 28 28" fill="none" xmlns="http://www.w3.org/2000/svg">
<path d="M21 22C21.5523 22 22 21.5523 22 21C22 20.4477 21.5523 20 21 20C20.4477 20 20 20.4477 20 21C20 21.5523 20.4477 22 21 22Z" fill="#0077FF"/>
<path fill-rule="evenodd" clip-rule="evenodd" d="M24 8.7587V11.1783C24.1219 11.2175 24.2427 11.2662 24.362 11.327C24.9265 11.6146 25.3854 12.0735 25.673 12.638C25.8658 13.0164 25.9371 13.4096 25.9694 13.805C26 14.1796 26 14.6343 26 15.1615V20.8385C26 21.3657 26 21.8205 25.9694 22.195C25.9371 22.5904 25.8658 22.9836 25.673 23.362C25.3854 23.9265 24.9265 24.3854 24.362 24.673C23.9836 24.8658 23.5904 24.9371 23.195 24.9694C22.8205 25 22.3658 25 21.8387 25H20.1615C19.6344 25 19.1795 25 18.805 24.9694C18.4096 24.9371 18.0164 24.8658 17.638 24.673C17.3056 24.5036 17.0097 24.2748 16.7639 24H6C5.44772 24 5 23.5523 5 23C5 22.4477 5.44772 22 6 22H12V19H7.75873C6.95374 19 6.28938 19 5.74817 18.9558C5.18608 18.9099 4.66937 18.8113 4.18404 18.564C3.43139 18.1805 2.81947 17.5686 2.43597 16.816C2.18868 16.3306 2.09012 15.8139 2.04419 15.2518C1.99998 14.7106 1.99999 14.0463 2 13.2413V8.75868C1.99999 7.95372 1.99998 7.28937 2.04419 6.74818C2.09012 6.18608 2.18868 5.66937 2.43597 5.18404C2.81947 4.43139 3.43139 3.81947 4.18404 3.43598C4.66937 3.18868 5.18608 3.09012 5.74818 3.04419C6.28937 2.99998 6.95372 2.99999 7.75868 3H18.2413C19.0463 2.99999 19.7106 2.99998 20.2518 3.0442C20.8139 3.09012 21.3306 3.18869 21.816 3.43598C22.5686 3.81947 23.1805 4.43139 23.564 5.18404C23.8113 5.66938 23.9099 6.18608 23.9558 6.74818C24 7.28937 24 7.95373 24 8.7587ZM22 8.8V11L20.1615 11C19.6343 11 19.1795 11 18.805 11.0306C18.4096 11.0629 18.0164 11.1342 17.638 11.327C17.0735 11.6146 16.6146 12.0735 16.327 12.638C16.1342 13.0164 16.0629 13.4096 16.0306 13.805C16 14.1795 16 14.6343 16 15.1615L16 17L7.8 17C6.94342 17 6.36113 16.9992 5.91104 16.9625C5.47262 16.9266 5.24842 16.8617 5.09202 16.782C4.71569 16.5903 4.40973 16.2843 4.21799 15.908C4.1383 15.7516 4.07337 15.5274 4.03755 15.089C4.00078 14.6389 4 14.0566 4 13.2V8.8C4 7.94342 4.00078 7.36113 4.03755 6.91104C4.07337 6.47262 4.1383 6.24842 4.21799 6.09202C4.40973 5.7157 4.71569 5.40973 5.09202 5.21799C5.24842 5.1383 5.47262 5.07337 5.91104 5.03755C6.36113 5.00078 6.94342 5 7.8 5L18.2 5C19.0566 5 19.6389 5.00078 20.089 5.03755C20.5274 5.07337 20.7516 5.1383 20.908 5.21799C21.2843 5.40974 21.5903 5.7157 21.782 6.09202C21.8617 6.24842 21.9266 6.47262 21.9624 6.91104C21.9992 7.36113 22 7.94342 22 8.8ZM14 19H16L16 20.8385C16 21.2774 16 21.666 16.0176 22H14V19ZM18.9678 13.0239C18.6962 13.0461 18.5955 13.0838 18.546 13.109C18.3578 13.2049 18.2049 13.3578 18.109 13.546C18.0838 13.5955 18.0461 13.6962 18.0239 13.9678C18.0008 14.2512 18 14.6234 18 15.2V20.8C18 21.3766 18.0008 21.7488 18.0239 22.0322C18.0461 22.3038 18.0838 22.4045 18.109 22.454C18.2049 22.6422 18.3578 22.7951 18.546 22.891C18.5955 22.9162 18.6962 22.9539 18.9678 22.9761C19.2512 22.9992 19.6234 23 20.2 23H21.8C22.3766 23 22.7488 22.9992 23.0322 22.9761C23.3038 22.9539 23.4045 22.9162 23.454 22.891C23.6422 22.7951 23.7951 22.6422 23.891 22.454C23.9162 22.4045 23.9539 22.3038 23.9761 22.0322C23.9992 21.7488 24 21.3766 24 20.8V15.2C24 14.6234 23.9992 14.2512 23.9761 13.9678C23.9539 13.6962 23.9162 13.5955 23.891 13.546C23.7951 13.3578 23.6422 13.2049 23.454 13.109C23.4045 13.0838 23.3038 13.0461 23.0322 13.0239C22.7488 13.0008 22.3766 13 21.8 13H20.2C19.6234 13 19.2512 13.0008 18.9678 13.0239Z" fill="#0077FF"/>
</svg>
