<svg width="28" height="28" viewBox="0 0 28 28" fill="none" xmlns="http://www.w3.org/2000/svg">
<path fill-rule="evenodd" clip-rule="evenodd" d="M25.8339 11.9986C25.4698 9.83031 24.5243 7.8592 23.1631 6.25117C22.7317 5.74154 22.2585 5.26837 21.7489 4.83696C20.1408 3.47574 18.1697 2.53018 16.0014 2.16615C15.3505 2.05688 14.6819 2 14 2C11.5594 2 9.28891 2.72862 7.39429 3.9802C6.83218 4.35153 6.30315 4.76889 5.81257 5.22691C3.89456 7.01765 2.56432 9.42995 2.14284 12.1428C2.0488 12.7481 2 13.3684 2 14C2 14.2072 2.00525 14.4131 2.01563 14.6177C2.15316 17.3301 3.1913 19.8048 4.83696 21.7489C5.26837 22.2585 5.74154 22.7317 6.25118 23.1631C8.29465 24.8929 10.9245 25.9514 13.8003 25.9984C13.8667 25.9995 13.9333 26 14 26C14.6316 26 15.2519 25.9512 15.8572 25.8572C18.57 25.4357 20.9823 24.1054 22.7731 22.1874C23.2311 21.6969 23.6485 21.1678 24.0198 20.6057C25.2714 18.7111 26 16.4406 26 14C26 13.3181 25.9431 12.6495 25.8339 11.9986ZM14.1661 4.00135C14.5302 6.16971 15.4757 8.14083 16.837 9.74886L15 11.5859L8.84403 5.42994C10.3496 4.52221 12.1138 4 14 4C14.0555 4 14.1109 4.00045 14.1661 4.00135ZM18.2512 11.1631L16.4142 13.0001L22.5701 19.156C23.4778 17.6504 24 15.8862 24 14C24 13.9445 23.9995 13.8891 23.9986 13.8339C21.8303 13.4698 19.8592 12.5243 18.2512 11.1631ZM23.7446 11.7446C23.3944 10.2253 22.698 8.83836 21.743 7.67128L19.6713 9.74296C20.8384 10.698 22.2253 11.3944 23.7446 11.7446ZM21.3579 20.7722C19.9601 22.2901 18.0987 23.3743 15.9984 23.8003C15.9514 20.9245 14.8929 18.2946 13.1631 16.2512L15 14.4143L21.3579 20.7722ZM14 24C14 21.5987 13.1536 19.3952 11.743 17.6713L7.67128 21.743C9.39515 23.1536 11.5987 24 14 24ZM13.5857 13.0001L11.7489 14.837C9.70538 13.1071 7.07553 12.0486 4.19971 12.0016C4.62569 9.90127 5.70995 8.03987 7.22779 6.64213L13.5857 13.0001ZM6.25707 20.3287C4.84637 18.6049 4 16.4013 4 14C6.40128 14 8.60488 14.8464 10.3287 16.2571L6.25707 20.3287ZM16.2554 4.25538C17.7747 4.60561 19.1617 5.30201 20.3287 6.25707L18.2571 8.32875C17.302 7.16167 16.6056 5.7747 16.2554 4.25538Z" fill="#0077FF"/>
</svg>
