<svg width="28" height="28" viewBox="0 0 28 28" fill="none" xmlns="http://www.w3.org/2000/svg">
<path d="M23.5016 4C21.5709 4 20 5.57009 20 7.49996C20 9.42982 21.5708 11 23.5016 11C25.4324 11 27.0032 9.42982 27.0032 7.49996C27.0032 5.57009 25.4324 4 23.5016 4ZM23.5016 9.53508C22.3789 9.53508 21.4656 8.62219 21.4656 7.49996C21.4656 6.37781 22.3789 5.46492 23.5016 5.46492C24.6243 5.46492 25.5376 6.37781 25.5376 7.49996C25.5377 8.62219 24.6243 9.53508 23.5016 9.53508Z" fill="#0077FF"/>
<path d="M20.7961 17.204C20.524 16.932 20.0829 16.932 19.8107 17.204L18.0001 19.0146L16.1893 17.204C15.9172 16.932 15.4762 16.932 15.204 17.204C14.932 17.4761 14.932 17.9172 15.204 18.1893L17.0148 19.9999L15.204 21.8107C14.932 22.0827 14.932 22.5239 15.204 22.796C15.3401 22.932 15.5184 23 15.6967 23C15.875 23 16.0533 22.932 16.1893 22.796L18.0001 20.9853L19.8107 22.7959C19.9468 22.9319 20.1251 22.9999 20.3034 22.9999C20.4817 22.9999 20.66 22.9319 20.7961 22.7959C21.0681 22.5238 21.0681 22.0827 20.7961 21.8106L18.9854 19.9999L20.7961 18.1893C21.0682 17.9172 21.0682 17.476 20.7961 17.204Z" fill="#0077FF"/>
<path d="M17.7447 6.7313L14.7523 4.1786C14.4431 3.9147 13.9744 3.94707 13.7055 4.25045C13.4367 4.55392 13.4695 5.0138 13.7787 5.27771L15.3657 6.63151C10.6818 7.23268 7.90842 9.63473 6.36666 11.665C5.01626 13.4433 4.38491 15.1949 4.13142 16.0654C2.37094 16.2674 1 17.7393 1 19.5204C1 21.439 2.5906 23 4.54567 23C6.50074 23 8.09142 21.4391 8.09142 19.5204C8.09142 17.976 7.0604 16.6641 5.63857 16.2108C5.90562 15.3829 6.48403 13.9332 7.59253 12.4883C9.52229 9.973 12.2031 8.49171 15.5754 8.07047L14.0968 9.73979C13.8279 10.0433 13.8607 10.5031 14.17 10.767C14.3105 10.8869 14.4838 10.9456 14.6564 10.9456C14.8638 10.9456 15.0701 10.8608 15.2168 10.6952L17.818 7.75856C18.0869 7.45501 18.054 6.99521 17.7447 6.7313ZM6.60737 19.5204C6.60737 20.6361 5.68255 21.5436 4.54567 21.5436C3.40887 21.5436 2.48405 20.6361 2.48405 19.5204C2.48405 18.4048 3.40887 17.4973 4.54567 17.4973C5.68247 17.4973 6.60737 18.4048 6.60737 19.5204Z" fill="#0077FF"/>
<path d="M23.5016 4C21.5709 4 20 5.57009 20 7.49996C20 9.42982 21.5708 11 23.5016 11C25.4324 11 27.0032 9.42982 27.0032 7.49996C27.0032 5.57009 25.4324 4 23.5016 4ZM23.5016 9.53508C22.3789 9.53508 21.4656 8.62219 21.4656 7.49996C21.4656 6.37781 22.3789 5.46492 23.5016 5.46492C24.6243 5.46492 25.5376 6.37781 25.5376 7.49996C25.5377 8.62219 24.6243 9.53508 23.5016 9.53508Z" stroke="#0077FF" stroke-width="0.6"/>
<path d="M20.7961 17.204C20.524 16.932 20.0829 16.932 19.8107 17.204L18.0001 19.0146L16.1893 17.204C15.9172 16.932 15.4762 16.932 15.204 17.204C14.932 17.4761 14.932 17.9172 15.204 18.1893L17.0148 19.9999L15.204 21.8107C14.932 22.0827 14.932 22.5239 15.204 22.796C15.3401 22.932 15.5184 23 15.6967 23C15.875 23 16.0533 22.932 16.1893 22.796L18.0001 20.9853L19.8107 22.7959C19.9468 22.9319 20.1251 22.9999 20.3034 22.9999C20.4817 22.9999 20.66 22.9319 20.7961 22.7959C21.0681 22.5238 21.0681 22.0827 20.7961 21.8106L18.9854 19.9999L20.7961 18.1893C21.0682 17.9172 21.0682 17.476 20.7961 17.204Z" stroke="#0077FF" stroke-width="0.6"/>
<path d="M17.7447 6.7313L14.7523 4.1786C14.4431 3.9147 13.9744 3.94707 13.7055 4.25045C13.4367 4.55392 13.4695 5.0138 13.7787 5.27771L15.3657 6.63151C10.6818 7.23268 7.90842 9.63473 6.36666 11.665C5.01626 13.4433 4.38491 15.1949 4.13142 16.0654C2.37094 16.2674 1 17.7393 1 19.5204C1 21.439 2.5906 23 4.54567 23C6.50074 23 8.09142 21.4391 8.09142 19.5204C8.09142 17.976 7.0604 16.6641 5.63857 16.2108C5.90562 15.3829 6.48403 13.9332 7.59253 12.4883C9.52229 9.973 12.2031 8.49171 15.5754 8.07047L14.0968 9.73979C13.8279 10.0433 13.8607 10.5031 14.17 10.767C14.3105 10.8869 14.4838 10.9456 14.6564 10.9456C14.8638 10.9456 15.0701 10.8608 15.2168 10.6952L17.818 7.75856C18.0869 7.45501 18.054 6.99521 17.7447 6.7313ZM6.60737 19.5204C6.60737 20.6361 5.68255 21.5436 4.54567 21.5436C3.40887 21.5436 2.48405 20.6361 2.48405 19.5204C2.48405 18.4048 3.40887 17.4973 4.54567 17.4973C5.68247 17.4973 6.60737 18.4048 6.60737 19.5204Z" stroke="#0077FF" stroke-width="0.6"/>
</svg>
