<svg width="28" height="28" viewBox="0 0 28 28" fill="none" xmlns="http://www.w3.org/2000/svg">
<path fill-rule="evenodd" clip-rule="evenodd" d="M15.4 5H12.6C10.8868 5 9.72225 5.00156 8.82208 5.0751C7.94524 5.14674 7.49684 5.27659 7.18404 5.43597C6.43139 5.81947 5.81947 6.43139 5.43597 7.18404C5.27659 7.49684 5.14674 7.94525 5.0751 8.82208C5.00156 9.72226 5 10.8868 5 12.6V15.4C5 17.1132 5.00156 18.2777 5.0751 19.1779C5.14674 20.0548 5.27659 20.5032 5.43597 20.816C5.81947 21.5686 6.43139 22.1805 7.18404 22.564C7.49684 22.7234 7.94524 22.8533 8.82208 22.9249C9.72225 22.9984 10.8868 23 12.6 23H15.4C17.1132 23 18.2777 22.9984 19.1779 22.9249C20.0548 22.8533 20.5032 22.7234 20.816 22.564C21.5686 22.1805 22.1805 21.5686 22.564 20.816C22.7234 20.5032 22.8533 20.0548 22.9249 19.1779C22.9984 18.2777 23 17.1132 23 15.4V12.6C23 10.8868 22.9984 9.72226 22.9249 8.82208C22.8533 7.94525 22.7234 7.49684 22.564 7.18404C22.1805 6.43139 21.5686 5.81947 20.816 5.43597C20.5032 5.27659 20.0548 5.14674 19.1779 5.0751C18.2777 5.00156 17.1132 5 15.4 5ZM3.65396 6.27606C3 7.55953 3 9.23969 3 12.6V15.4C3 18.7603 3 20.4405 3.65396 21.7239C4.2292 22.8529 5.14708 23.7708 6.27606 24.346C7.55953 25 9.23969 25 12.6 25H15.4C18.7603 25 20.4405 25 21.7239 24.346C22.8529 23.7708 23.7708 22.8529 24.346 21.7239C25 20.4405 25 18.7603 25 15.4V12.6C25 9.23969 25 7.55953 24.346 6.27606C23.7708 5.14709 22.8529 4.2292 21.7239 3.65396C20.4405 3 18.7603 3 15.4 3H12.6C9.23969 3 7.55953 3 6.27606 3.65396C5.14708 4.2292 4.2292 5.14709 3.65396 6.27606ZM11.9316 14.3997L14.2541 9.77518L16.3561 14.3997H11.9316ZM18.8105 14.9664C18.8169 14.9796 18.823 14.993 18.8288 15.0065L20.9104 19.5862C21.1389 20.089 20.9166 20.6818 20.4138 20.9104C19.911 21.1389 19.3182 20.9166 19.0896 20.4138L17.2651 16.3997H10.9272L8.89363 20.4488C8.64577 20.9423 8.04474 21.1415 7.5512 20.8936C7.05766 20.6458 6.8585 20.0447 7.10637 19.5512L9.40701 14.9702C9.41299 14.9577 9.41923 14.9452 9.42571 14.933L12.5826 8.64712C12.6917 8.37658 12.796 8.11832 12.8967 7.91874C12.9857 7.74227 13.1719 7.3926 13.5433 7.18652L13.5434 7.18651C13.9917 6.93783 14.5301 6.93783 14.9784 7.18651L14.9784 7.18652C15.3499 7.3926 15.5361 7.74227 15.6251 7.91874C15.7262 8.11923 15.831 8.37893 15.9407 8.65083L15.9464 8.66513L18.8105 14.9664Z" fill="#0077FF"/>
</svg>
