<svg width="29" height="29" viewBox="0 0 29 29" fill="none" xmlns="http://www.w3.org/2000/svg">
<g clip-path="url(#clip0_21_594)">
<path d="M21.1499 0H7.85002C3.52145 0 0 3.52145 0 7.85002V21.1501C0 25.4785 3.52145 28.9999 7.85002 28.9999H21.1501C25.4785 28.9999 28.9999 25.4785 28.9999 21.1501V7.85002C28.9999 3.52145 25.4785 0 21.1499 0V0ZM14.5 22.4294C10.1276 22.4294 6.57052 18.8724 6.57052 14.5C6.57052 10.1276 10.1276 6.57052 14.5 6.57052C18.8724 6.57052 22.4294 10.1276 22.4294 14.5C22.4294 18.8724 18.8724 22.4294 14.5 22.4294ZM22.619 8.44054C21.3269 8.44054 20.276 7.3896 20.276 6.09748C20.276 4.80537 21.3269 3.7542 22.619 3.7542C23.9111 3.7542 24.9623 4.80537 24.9623 6.09748C24.9623 7.3896 23.9111 8.44054 22.619 8.44054Z" fill="#55A630"/>
<path d="M14.4999 8.27069C11.0651 8.27069 8.27051 11.0651 8.27051 14.5C8.27051 17.9348 11.0651 20.7294 14.4999 20.7294C17.9348 20.7294 20.7292 17.9348 20.7292 14.5C20.7292 11.0651 17.9348 8.27069 14.4999 8.27069Z" fill="#55A630"/>
<path d="M22.619 5.45422C22.2646 5.45422 21.9761 5.74274 21.9761 6.09718C21.9761 6.45163 22.2646 6.74014 22.619 6.74014C22.9737 6.74014 23.2622 6.45185 23.2622 6.09718C23.2622 5.74251 22.9737 5.45422 22.619 5.45422Z" fill="#55A630"/>
</g>
<defs>
<clipPath id="clip0_21_594">
<rect width="29" height="29" fill="white"/>
</clipPath>
</defs>
</svg>
