<svg width="153" height="23" viewBox="0 0 153 23" fill="none" xmlns="http://www.w3.org/2000/svg">
<path opacity="0.8" d="M1.39055 9.1094H1.90614C3.12494 9.1094 3.48435 8.4531 3.81245 7.7031L6.57805 1H5.54684L3.53125 5.9687L1.32805 1H0.28125L3.04684 7.125L2.92184 7.4219C2.74994 7.8125 2.46875 8.2031 1.89055 8.2031H1.39055V9.1094ZM11.5487 3H10.6269V6.043C10.1815 6.1719 9.72454 6.25 9.17374 6.25C8.42374 6.25 7.84565 5.8281 7.84565 4.9062V2.9844H6.92374V4.9062C6.92374 6.375 7.81444 7.1094 9.17374 7.1094C9.74014 7.1094 10.1933 7.0352 10.6269 6.9062V9H11.5487V3ZM15.7558 9.125C16.9745 9.125 17.8651 8.5156 18.1464 7.6094L17.2558 7.3594C17.0214 7.9844 16.4784 8.2969 15.7558 8.2969C14.6737 8.2969 13.9277 7.5977 13.8848 6.3125H18.2401V5.9219C18.2401 3.6875 16.912 2.9219 15.662 2.9219C14.037 2.9219 12.9589 4.2031 12.9589 6.0469C12.9589 7.8906 14.0214 9.125 15.7558 9.125ZM13.8848 5.5156C13.9473 4.582 14.6073 3.75 15.662 3.75C16.662 3.75 17.3026 4.5 17.3026 5.5156H13.8848ZM24.0956 0.75C23.8027 0.9961 23.3651 0.996101 22.7519 0.992201C22.5526 0.992201 22.334 0.9922 22.0956 1C20.2675 1.0469 19.3612 2.4375 19.3612 5.1094V5.75C19.3612 7.9688 20.4394 9.125 22.0487 9.125C23.6542 9.125 24.7206 7.9609 24.7206 6.0781C24.7206 4.1875 23.6386 3.1875 22.2362 3.1875C21.412 3.1875 20.6425 3.5312 20.2362 4.2812H20.1581C20.2831 2.7344 20.8612 1.9062 22.1112 1.8594C23.2206 1.8125 24.0175 1.8437 24.5644 1.3125L24.0956 0.75ZM22.0487 8.2969C20.955 8.2969 20.2831 7.4219 20.2831 6.0781C20.3027 4.7656 20.9629 4.0156 22.0331 4.0156C23.1308 4.0156 23.7987 4.7656 23.7987 6.0781C23.7987 7.4297 23.1347 8.2969 22.0487 8.2969ZM27.0526 3H26.1308V9H27.0526V6.4375H29.9279V9H30.8499V3H29.9279V5.5781H27.0526V3ZM33.4549 5.1719V3H32.5329V9H35.049C36.4549 9 37.2209 8.1406 37.2209 7.0625C37.2209 5.9687 36.4549 5.1719 35.049 5.1719H33.4549ZM38.174 9H39.0959V3H38.174V9ZM33.4549 6.0312H35.049C35.7789 6.0312 36.299 6.4766 36.299 7.1094C36.299 7.7148 35.7789 8.1406 35.049 8.1406H33.4549V6.0312ZM41.7049 7.6406V3H40.7829V9H41.8609L44.7359 4.3594V9H45.6579V3H44.5959L41.7049 7.6406ZM43.9859 1C43.9859 1.4062 43.7679 1.7656 43.2209 1.7656C42.6739 1.7656 42.4709 1.4062 42.4709 1H41.6109C41.6109 1.8437 42.2359 2.4375 43.2209 2.4375C44.2209 2.4375 44.8459 1.8437 44.8459 1H43.9859ZM55.1589 3H54.2369V8.1406H51.3619V3H50.4399V9H55.0809V10.9375H56.003V8.1406H55.1589V3ZM59.8739 9.125C61.0929 9.125 61.9829 8.5156 62.2649 7.6094L61.3739 7.3594C61.1399 7.9844 60.5969 8.2969 59.8739 8.2969C58.7919 8.2969 58.046 7.5977 58.003 6.3125H62.3579V5.9219C62.3579 3.6875 61.0299 2.9219 59.7799 2.9219C58.1549 2.9219 57.0769 4.2031 57.0769 6.0469C57.0769 7.8906 58.1399 9.125 59.8739 9.125ZM58.003 5.5156C58.065 4.582 58.7259 3.75 59.7799 3.75C60.7799 3.75 61.421 4.5 61.421 5.5156H58.003ZM64.6829 3H63.7609V9H64.6829V6.4375H67.5579V9H68.479V3H67.5579V5.5781H64.6829V3ZM69.3469 3.8594H71.3309V9H72.253V3.8594H74.2219V3H69.3469V3.8594ZM75.5659 11.25H76.488V8.0781H76.5659C76.7699 8.4062 77.1599 9.125 78.3159 9.125C79.8159 9.125 80.863 7.9219 80.863 6.0156C80.863 4.125 79.8159 2.9219 78.3009 2.9219C77.1289 2.9219 76.7699 3.6406 76.5659 3.9531H76.4569V3H75.5659V11.25ZM76.473 6C76.473 4.6562 77.0659 3.75 78.1909 3.75C79.3629 3.75 79.9409 4.7344 79.9409 6C79.9409 7.2812 79.3479 8.2969 78.1909 8.2969C77.0819 8.2969 76.473 7.3594 76.473 6ZM2.82805 16.7812C3.76555 16.7891 4.32414 17.6484 4.44524 18.5469H2.21875V19.4062H4.45305C4.35545 20.3203 3.77725 21.2422 2.82805 21.25C2.12495 21.2422 1.46875 20.6328 1.46875 19.9531H0.562447C0.562447 21.1484 1.51555 22.1094 2.82805 22.1094C4.46875 22.1094 5.39055 20.7148 5.39055 19.125V18.9062C5.39055 17.3164 4.46875 15.9219 2.82805 15.9219C1.65625 15.9219 0.562447 16.8828 0.562447 17.9219H1.46875C1.46875 17.3008 2.20305 16.7891 2.82805 16.7812ZM9.23235 22.125C10.5604 22.125 11.4354 21.3125 11.5917 20.25H10.6698C10.4979 20.9062 9.95115 21.2969 9.23235 21.2969C8.13865 21.2969 7.43545 20.3906 7.43545 19C7.43545 17.6406 8.15425 16.75 9.23235 16.75C10.0448 16.75 10.5292 17.25 10.6698 17.7969H11.5917C11.4354 16.6719 10.4823 15.9219 9.21674 15.9219C7.59174 15.9219 6.51365 17.2031 6.51365 19.0312C6.51365 20.8281 7.54485 22.125 9.23235 22.125ZM12.4667 16.8594H14.4511V22H15.3729V16.8594H17.3417V16H12.4667V16.8594ZM20.8905 22.125C22.1093 22.125 23 21.5156 23.2812 20.6094L22.3905 20.3594C22.1562 20.9844 21.6132 21.2969 20.8905 21.2969C19.8085 21.2969 19.0624 20.5977 19.0194 19.3125H23.3749V18.9219C23.3749 16.6875 22.0468 15.9219 20.7968 15.9219C19.1718 15.9219 18.0938 17.2031 18.0938 19.0469C18.0938 20.8906 19.1562 22.125 20.8905 22.125ZM19.0194 18.5156C19.0819 17.582 19.7421 16.75 20.7968 16.75C21.7968 16.75 22.4374 17.5 22.4374 18.5156H19.0194ZM24.2188 16.8594H26.203V22H27.1249V16.8594H29.0939V16H24.2188V16.8594ZM31.3599 20.6406V16H30.438V22H31.5169L34.3919 17.3594V22H35.313V16H34.2509L31.3599 20.6406ZM41.6269 16H40.7049V19.043C40.2599 19.1719 39.8029 19.25 39.2519 19.25C38.5019 19.25 37.924 18.8281 37.924 17.9062V15.9844H37.0019V17.9062C37.0019 19.375 37.8929 20.1094 39.2519 20.1094C39.8179 20.1094 40.271 20.0352 40.7049 19.9062V22H41.6269V16ZM45.8339 22.125C47.0529 22.125 47.9429 21.5156 48.2249 20.6094L47.3339 20.3594C47.0999 20.9844 46.5569 21.2969 45.8339 21.2969C44.7519 21.2969 44.0059 20.5977 43.9629 19.3125H48.3179V18.9219C48.3179 16.6875 46.9899 15.9219 45.7399 15.9219C44.1149 15.9219 43.0369 17.2031 43.0369 19.0469C43.0369 20.8906 44.0999 22.125 45.8339 22.125ZM43.9629 18.5156C44.0249 17.582 44.6859 16.75 45.7399 16.75C46.7399 16.75 47.3809 17.5 47.3809 18.5156H43.9629ZM52.1579 22.125C53.4859 22.125 54.3609 21.3125 54.5179 20.25H53.5959C53.4239 20.9062 52.8769 21.2969 52.1579 21.2969C51.0639 21.2969 50.3609 20.3906 50.3609 19C50.3609 17.6406 51.0799 16.75 52.1579 16.75C52.9709 16.75 53.4549 17.25 53.5959 17.7969H54.5179C54.3609 16.6719 53.4079 15.9219 52.1429 15.9219C50.5179 15.9219 49.4389 17.2031 49.4389 19.0312C49.4389 20.8281 50.4709 22.125 52.1579 22.125ZM55.8649 22H56.7869V19.4687H57.615L59.5839 22H60.7709L58.3179 18.8906L60.74 16H59.5529L57.3959 18.6094H56.7869V16H55.8649V22ZM63.964 22.125C65.589 22.125 66.6829 20.8906 66.6829 19.0312C66.6829 17.1562 65.589 15.9219 63.964 15.9219C62.339 15.9219 61.2449 17.1562 61.2449 19.0312C61.2449 20.8906 62.339 22.125 63.964 22.125ZM63.964 21.2969C62.729 21.2969 62.167 20.2344 62.167 19.0312C62.167 17.8281 62.729 16.75 63.964 16.75C65.198 16.75 65.7609 17.8281 65.7609 19.0312C65.7609 20.2344 65.198 21.2969 63.964 21.2969ZM69.0119 20.6406V16H68.0899V22H69.1679L72.0429 17.3594V22H72.9649V16H71.9019L69.0119 20.6406ZM71.2929 14C71.2929 14.4062 71.0739 14.7656 70.5269 14.7656C69.9799 14.7656 69.7769 14.4062 69.7769 14H68.9179C68.9179 14.8437 69.5429 15.4375 70.5269 15.4375C71.5269 15.4375 72.1519 14.8437 72.1519 14H71.2929ZM77.7469 22H78.669V19.4687H79.4969L81.466 22H82.6529L80.1999 18.8906L82.6219 16H81.4349L79.2779 18.6094H78.669V16H77.7469V22ZM85.8459 22.125C87.4709 22.125 88.5639 20.8906 88.5639 19.0312C88.5639 17.1562 87.4709 15.9219 85.8459 15.9219C84.2209 15.9219 83.1269 17.1562 83.1269 19.0312C83.1269 20.8906 84.2209 22.125 85.8459 22.125ZM85.8459 21.2969C84.6109 21.2969 84.0489 20.2344 84.0489 19.0312C84.0489 17.8281 84.6109 16.75 85.8459 16.75C87.0799 16.75 87.643 17.8281 87.643 19.0312C87.643 20.2344 87.0799 21.2969 85.8459 21.2969ZM92.4089 22.125C93.7369 22.125 94.6119 21.3125 94.7689 20.25H93.8469C93.6749 20.9062 93.1279 21.2969 92.4089 21.2969C91.3149 21.2969 90.6119 20.3906 90.6119 19C90.6119 17.6406 91.3309 16.75 92.4089 16.75C93.2219 16.75 93.7059 17.25 93.8469 17.7969H94.7689C94.6119 16.6719 93.6589 15.9219 92.3939 15.9219C90.7689 15.9219 89.6899 17.2031 89.6899 19.0312C89.6899 20.8281 90.7219 22.125 92.4089 22.125ZM99.3969 20.75L97.335 16H96.1159V22H97.0379V17.3242L99.0219 22H99.7719L101.757 17.4102V22H102.679V16H101.491L99.3969 20.75ZM106.882 22.125C108.101 22.125 108.991 21.5156 109.272 20.6094L108.382 20.3594C108.147 20.9844 107.604 21.2969 106.882 21.2969C105.8 21.2969 105.054 20.5977 105.011 19.3125H109.366V18.9219C109.366 16.6875 108.038 15.9219 106.788 15.9219C105.163 15.9219 104.085 17.2031 104.085 19.0469C104.085 20.8906 105.147 22.125 106.882 22.125ZM105.011 18.5156C105.073 17.582 105.733 16.75 106.788 16.75C107.788 16.75 108.429 17.5 108.429 18.5156H105.011ZM110.21 16.8594H112.194V22H113.116V16.8594H115.085V16H110.21V16.8594ZM118.556 22.125C120.181 22.125 121.274 20.8906 121.274 19.0312C121.274 17.1562 120.181 15.9219 118.556 15.9219C116.931 15.9219 115.837 17.1562 115.837 19.0312C115.837 20.8906 116.931 22.125 118.556 22.125ZM118.556 21.2969C117.321 21.2969 116.759 20.2344 116.759 19.0312C116.759 17.8281 117.321 16.75 118.556 16.75C119.79 16.75 120.353 17.8281 120.353 19.0312C120.353 20.2344 119.79 21.2969 118.556 21.2969ZM122.15 22H122.463C123.791 22 124.174 20.9688 124.26 19L124.354 16.8594H126.557V22H127.479V16H123.479L123.369 18.6562C123.291 20.6719 123.088 21.1406 122.369 21.1406H122.15V22ZM131.607 22.125C133.232 22.125 134.326 20.8906 134.326 19.0312C134.326 17.1562 133.232 15.9219 131.607 15.9219C129.982 15.9219 128.889 17.1562 128.889 19.0312C128.889 20.8906 129.982 22.125 131.607 22.125ZM131.607 21.2969C130.373 21.2969 129.811 20.2344 129.811 19.0312C129.811 17.8281 130.373 16.75 131.607 16.75C132.842 16.75 133.404 17.8281 133.404 19.0312C133.404 20.2344 132.842 21.2969 131.607 21.2969ZM139.437 16H135.733V22H136.655V16.8594H139.437V16ZM141.704 20.6406V16H140.782V22H141.86L144.735 17.3594V22H145.657V16H144.595L141.704 20.6406ZM148.268 20.6406V16H147.346V22H148.424L151.299 17.3594V22H152.221V16H151.158L148.268 20.6406Z" fill="#1C1E23"/>
</svg>
