<svg width="128" height="24" viewBox="0 0 128 24" fill="none" xmlns="http://www.w3.org/2000/svg">
<path d="M57.6186 12.0734C57.6186 16.8494 54.7127 19.1073 51.0756 19.1073H48.8515V16.2413H50.9017C53.0959 16.2413 54.5582 15.0544 54.5582 12.0734C54.5582 9.11989 53.1752 7.64355 50.837 7.64355C48.5846 7.64355 46.9751 9.03314 46.9751 12.015V24H43.9422V5.1538H46.9743V6.77526H47.407C48.4179 5.41486 49.9118 4.80681 51.4711 4.80681C54.8202 4.80681 57.6178 7.239 57.6178 12.0734H57.6186ZM37.6951 10.8281L35.6732 10.6254C34.0856 10.4803 33.2485 10.0465 33.2485 9.11989C33.2485 8.01973 34.3161 7.38331 35.8471 7.38331C37.4347 7.38331 38.4457 8.13566 38.5322 9.20745H41.4479C41.333 6.48583 39.2254 4.80681 35.8754 4.80681C32.4979 4.80681 30.2164 6.60095 30.2164 9.23582C30.2164 11.4361 31.6026 12.8541 34.7496 13.1727L36.7998 13.3754C38.0413 13.4913 38.8784 13.7516 38.8784 14.9385C38.8784 16.0103 38.0987 16.7918 36.0493 16.7918C34.1616 16.7918 33.2315 15.9324 32.9047 14.7812H29.7505C30.0643 17.4128 32.269 19.4551 36.0493 19.4551C39.5998 19.4551 41.9105 17.5734 41.9105 14.7934C41.9105 12.3336 40.2929 11.0883 37.6951 10.8281ZM69.3605 14.7812C68.8849 15.8765 67.7486 16.7051 66.1359 16.7051C63.9134 16.7051 62.2675 15.2571 62.2675 12.1309C62.2675 9.14907 63.7977 7.49843 66.165 7.49843C68.2727 7.49843 69.4859 8.77289 69.6007 10.683H64.1439V12.8833H72.5746V11.4361C72.5746 7.41168 69.9186 4.80681 66.1367 4.80681C62.6137 4.80681 59.2354 7.209 59.2354 12.1309C59.2354 17.0521 62.6137 19.4551 66.1359 19.4551C69.3581 19.4551 71.6558 17.4647 72.3691 14.7812H69.3605ZM21.5697 4.80681C18.2488 4.80681 15.7659 6.54339 15.4772 9.20663H18.7398C18.9711 8.22241 19.8656 7.49924 21.5697 7.49924C23.7639 7.49924 24.4853 8.65696 24.4853 10.0757V14.8517C23.2439 16.2705 21.8002 16.9361 20.3565 16.9361C18.8554 16.9361 17.8161 16.213 17.8161 14.9101C17.8161 13.6648 18.6249 12.8833 20.1834 12.8833H22.609V10.683H20.0969C16.6321 10.683 14.6975 12.4204 14.6975 15.0836C14.6975 17.5725 16.5739 19.4551 19.6634 19.4551C21.3958 19.4551 22.9268 18.7603 24.0527 17.9203H24.4853V19.1073H27.5175V9.78549C27.5175 6.34071 25.1785 4.80681 21.5697 4.80681ZM1 19.1081H4.03131V0H1V19.1064V19.1081ZM13.7326 5.15299H10.0365L5.61975 10.9724V12.7965L10.1522 19.1064H13.9057L8.59363 11.8707L13.7326 5.15461V5.15299ZM123.327 5.15299L120.844 10.6822C120.238 12.0142 119.661 13.317 119.487 14.1853H119.054C118.88 13.317 118.275 12.0434 117.668 10.7113L115.185 5.15299H111.836L117.668 17.6885L114.781 23.9992H118.015L126.676 5.15299H123.327ZM111.166 5.15299H107.469L103.052 10.9724V12.7965L107.585 19.1064H111.339L106.026 11.8691L111.166 5.15299ZM92.1843 10.8273L90.1631 10.6246C88.5747 10.4795 87.7376 10.0457 87.7376 9.11908C87.7376 8.01892 88.806 7.3825 90.3362 7.3825C91.9238 7.3825 92.9348 8.13485 93.0213 9.20663H95.937C95.8222 6.48502 93.7145 4.806 90.3653 4.806C86.987 4.806 84.7063 6.60014 84.7063 9.23501C84.7063 11.4353 86.0917 12.8533 89.2387 13.1719L91.2889 13.3746C92.5304 13.4905 93.3675 13.7508 93.3675 14.9377C93.3675 16.0095 92.5878 16.791 90.5384 16.791C88.6507 16.791 87.7206 15.9316 87.3939 14.7804H84.2388C84.5534 17.412 86.7582 19.4542 90.5384 19.4542C94.0897 19.4542 96.3996 17.5725 96.3996 14.7926C96.3996 12.3328 94.7829 11.0875 92.1843 10.8273ZM98.4321 19.1064H101.464V0.00162146H98.4321V19.1081V19.1064ZM78.4407 6.77526H78.008V5.1538H74.975V19.1073H78.0072V11.8123C78.0072 9.32257 79.154 7.87542 81.4137 7.87542H83.333V4.80681H82.2225C80.1254 4.80681 79.2349 5.5997 78.4399 6.77526H78.4407Z" fill="#8DE7D7"/>
</svg>
