<svg width="58" height="56" viewBox="0 0 58 56" fill="none" xmlns="http://www.w3.org/2000/svg">
<mask id="path-1-inside-1_2021_186" fill="white">
<path d="M27.418 0.300781C20.2188 0.300781 13.3145 3.19542 8.22389 8.34791C3.1333 13.5004 0.273438 20.4887 0.273438 27.7754C0.273437 35.0621 3.1333 42.0504 8.22388 47.2029C13.3145 52.3554 20.2188 55.25 27.418 55.25L27.418 27.7754V0.300781Z"/>
</mask>
<path d="M27.418 0.300781C20.2188 0.300781 13.3145 3.19542 8.22389 8.34791C3.1333 13.5004 0.273438 20.4887 0.273438 27.7754C0.273437 35.0621 3.1333 42.0504 8.22388 47.2029C13.3145 52.3554 20.2188 55.25 27.418 55.25L27.418 27.7754V0.300781Z" stroke="url(#paint0_linear_2021_186)" stroke-width="2" mask="url(#path-1-inside-1_2021_186)"/>
<circle cx="30.8555" cy="27.4453" r="27.1445" fill="#0E0E0E"/>
<path d="M34.5691 15.2305H25.1946C20.5074 15.2305 19.3418 16.4829 19.3418 21.4801V35.4425C19.3418 38.7409 21.1522 39.5221 23.347 37.1661L23.3594 37.1537C24.3762 36.0749 25.9262 36.1617 26.8066 37.3397L28.0591 39.0137C29.0635 40.3405 30.6879 40.3405 31.6923 39.0137L32.9447 37.3397C33.8375 36.1493 35.3875 36.0625 36.4043 37.1537C38.6115 39.5097 40.4095 38.7285 40.4095 35.4301V21.4801C40.4219 16.4829 39.2563 15.2305 34.5691 15.2305ZM26.1618 21.4305C26.8438 21.4305 27.4019 21.9885 27.4019 22.6705C27.4019 23.3525 26.8562 23.9105 26.1618 23.9105C25.4674 23.9105 24.9218 23.3525 24.9218 22.6705C24.9218 21.9885 25.4674 21.4305 26.1618 21.4305ZM33.6019 30.1105C32.9075 30.1105 32.3619 29.5525 32.3619 28.8705C32.3619 28.1885 32.9199 27.6305 33.6019 27.6305C34.2839 27.6305 34.8419 28.1885 34.8419 28.8705C34.8419 29.5525 34.2963 30.1105 33.6019 30.1105ZM34.7179 22.1621L26.3726 30.5073C26.1866 30.6933 25.951 30.7801 25.7154 30.7801C25.4798 30.7801 25.2442 30.6933 25.0582 30.5073C24.6986 30.1477 24.6986 29.5525 25.0582 29.1929L33.4035 20.8477C33.7631 20.4881 34.3583 20.4881 34.7179 20.8477C35.0775 21.2073 35.0775 21.8025 34.7179 22.1621Z" fill="#82EEF4"/>
<defs>
<linearGradient id="paint0_linear_2021_186" x1="0.273437" y1="27.7754" x2="23.5541" y2="27.7754" gradientUnits="userSpaceOnUse">
<stop stop-color="#77C6CB"/>
<stop offset="1" stop-color="#77C6CB" stop-opacity="0"/>
</linearGradient>
</defs>
</svg>
