<svg width="58" height="56" viewBox="0 0 58 56" fill="none" xmlns="http://www.w3.org/2000/svg">
<mask id="path-1-inside-1_2021_187" fill="white">
<path d="M27.418 0.339844C20.2188 0.339844 13.3145 3.23448 8.22389 8.38697C3.1333 13.5395 0.273438 20.5277 0.273438 27.8145C0.273437 35.1012 3.1333 42.0894 8.22388 47.2419C13.3145 52.3944 20.2188 55.2891 27.418 55.2891L27.418 27.8145V0.339844Z"/>
</mask>
<path d="M27.418 0.339844C20.2188 0.339844 13.3145 3.23448 8.22389 8.38697C3.1333 13.5395 0.273438 20.5277 0.273438 27.8145C0.273437 35.1012 3.1333 42.0894 8.22388 47.2419C13.3145 52.3944 20.2188 55.2891 27.418 55.2891L27.418 27.8145V0.339844Z" stroke="url(#paint0_linear_2021_187)" stroke-width="2" mask="url(#path-1-inside-1_2021_187)"/>
<circle cx="30.8555" cy="27.4844" r="27.1445" fill="#0E0E0E"/>
<path d="M39 21.1328C39 23.9828 34.7 26.1328 29 26.1328C23.3 26.1328 19 23.9828 19 21.1328C19 18.2828 23.3 16.1328 29 16.1328C34.7 16.1328 39 18.2828 39 21.1328ZM31 36.1328C26.75 36.1328 23.12 35.0328 21 33.1828C21.06 36.0128 25.33 38.1328 31 38.1328C36.67 38.1328 40.91 36.0228 41 33.2228C38.91 35.0328 35.37 36.1328 31 36.1328ZM29 32.1328C26.4271 32.1868 23.8707 31.7102 21.49 30.7328C22.77 32.7528 26.43 34.1328 31 34.1328C36.7 34.1328 41 31.9828 41 29.1328C40.9918 28.5144 40.7927 27.9137 40.43 27.4128C38.94 30.2728 34.63 32.1328 29 32.1328ZM30 28.1328H29H28C24.08 27.9828 20.89 26.9128 19 25.2428C19.09 28.0228 23.36 30.1328 29 30.1328C34.64 30.1328 38.91 28.0228 39 25.2228C37.07 26.8928 33.88 27.9628 30 28.1328Z" fill="#82EEF4"/>
<defs>
<linearGradient id="paint0_linear_2021_187" x1="0.273437" y1="27.8145" x2="23.5541" y2="27.8145" gradientUnits="userSpaceOnUse">
<stop stop-color="#77C6CB"/>
<stop offset="1" stop-color="#77C6CB" stop-opacity="0"/>
</linearGradient>
</defs>
</svg>
