<svg width="58" height="56" viewBox="0 0 58 56" fill="none" xmlns="http://www.w3.org/2000/svg">
<mask id="path-1-inside-1_2021_189" fill="white">
<path d="M27.418 0.109375C20.2188 0.109375 13.3145 3.00401 8.22389 8.1565C3.1333 13.309 0.273438 20.2973 0.273438 27.584C0.273437 34.8707 3.1333 41.859 8.22388 47.0115C13.3145 52.164 20.2188 55.0586 27.418 55.0586L27.418 27.584V0.109375Z"/>
</mask>
<path d="M27.418 0.109375C20.2188 0.109375 13.3145 3.00401 8.22389 8.1565C3.1333 13.309 0.273438 20.2973 0.273438 27.584C0.273437 34.8707 3.1333 41.859 8.22388 47.0115C13.3145 52.164 20.2188 55.0586 27.418 55.0586L27.418 27.584V0.109375Z" stroke="url(#paint0_linear_2021_189)" stroke-width="2" mask="url(#path-1-inside-1_2021_189)"/>
<circle cx="30.8555" cy="27.2539" r="27.1445" fill="#0E0E0E"/>
<g clip-path="url(#clip0_2021_189)">
<path d="M28.375 27.875H31.625V31.125H28.375V27.875Z" fill="#82EEF4"/>
<path d="M36.1546 20.8705H36.0803V18.2132C36.0803 14.8605 33.3527 12.1328 30 12.1328C26.6473 12.1328 23.9197 14.8605 23.9197 18.2132V20.8705H23.8453C21.2468 20.8705 19.1328 22.9846 19.1328 25.5831V33.4203C19.1328 36.0188 21.2468 38.1328 23.8453 38.1328H36.1546C38.7532 38.1328 40.8672 36.0188 40.8672 33.4203V25.5831C40.8672 22.9846 38.7532 20.8705 36.1546 20.8705ZM25.4431 18.2132C25.4431 15.7005 27.4873 13.6562 30 13.6562C32.5127 13.6562 34.5569 15.7005 34.5569 18.2132V20.8705H25.4431V18.2132ZM33.1484 32.6484H30.7617V35.0859H29.2383V32.6484H26.8516V26.3516H29.2383V23.9141H30.7617V26.3516H33.1484V32.6484Z" fill="#82EEF4"/>
</g>
<defs>
<linearGradient id="paint0_linear_2021_189" x1="0.273437" y1="27.584" x2="23.5541" y2="27.584" gradientUnits="userSpaceOnUse">
<stop stop-color="#77C6CB"/>
<stop offset="1" stop-color="#77C6CB" stop-opacity="0"/>
</linearGradient>
<clipPath id="clip0_2021_189">
<rect width="26" height="26" fill="white" transform="translate(17 12.1328)"/>
</clipPath>
</defs>
</svg>
