<svg width="17" height="17" viewBox="0 0 17 17" fill="none" xmlns="http://www.w3.org/2000/svg">
<path d="M8.49992 14.8334C10.1796 14.8334 11.7905 14.1661 12.9783 12.9784C14.166 11.7907 14.8333 10.1797 14.8333 8.50004C14.8333 6.82034 14.166 5.20943 12.9783 4.0217C11.7905 2.83397 10.1796 2.16671 8.49992 2.16671C6.82021 2.16671 5.20931 2.83397 4.02158 4.0217C2.83385 5.20943 2.16659 6.82034 2.16659 8.50004C2.16659 10.1797 2.83385 11.7907 4.02158 12.9784C5.20931 14.1661 6.82021 14.8334 8.49992 14.8334ZM8.49992 16.4167C4.12754 16.4167 0.583252 12.8724 0.583252 8.50004C0.583252 4.12767 4.12754 0.583374 8.49992 0.583374C12.8723 0.583374 16.4166 4.12767 16.4166 8.50004C16.4166 12.8724 12.8723 16.4167 8.49992 16.4167ZM6.03784 9.42629L4.06025 8.80958C3.63275 8.67896 3.63038 8.38446 4.15604 8.17308L11.8613 5.19642C12.3086 5.01433 12.562 5.24471 12.4171 5.82183L11.1053 12.0127C11.0135 12.4536 10.7483 12.5589 10.3801 12.3555L8.36059 10.8608L7.41929 11.7696C7.32271 11.863 7.24434 11.943 7.0955 11.9628C6.94746 11.9834 6.82554 11.939 6.73609 11.6936L6.04734 9.42075L6.03784 9.42629Z" fill="#E0BEA2"/>
</svg>
