<?xml version="1.0" encoding="utf-8"?>
<!-- Generator: Adobe Illustrator 24.2.1, SVG Export Plug-In . SVG Version: 6.00 Build 0)  -->
<svg version="1.1" id="Layer_1" xmlns="http://www.w3.org/2000/svg" xmlns:xlink="http://www.w3.org/1999/xlink" x="0px" y="0px"
	 viewBox="0 0 39.365 39.365" style="enable-background:new 0 0 39.365 39.365;" xml:space="preserve">
<style type="text/css">
	.st0{fill:#8F9395;}
</style>
<g>
	<path class="st0" d="M19.682,39.365C8.829,39.365,0,30.535,0,19.682S8.829,0,19.682,0c10.853,0,19.683,8.829,19.683,19.682
		S30.535,39.365,19.682,39.365z M19.682,1.364c-10.101,0-18.318,8.217-18.318,18.318C1.364,29.783,9.582,38,19.682,38
		S38,29.783,38,19.682C38,9.582,29.783,1.364,19.682,1.364z"/>
</g>
<g>
	<path class="st0" d="M8.295,27.384V13.553L5.426,14.53l-0.297-0.871l3.399-1.253h0.85v14.978H8.295z"/>
	<path class="st0" d="M22.243,26.417c-1.056,0.786-2.369,1.18-3.941,1.18s-2.886-0.394-3.941-1.18
		c-1.056-0.786-1.583-1.788-1.583-3.006v-0.043c0-0.835,0.305-1.575,0.914-2.22s1.402-1.129,2.379-1.456
		c-0.807-0.297-1.473-0.744-1.997-1.338c-0.524-0.595-0.786-1.303-0.786-2.125v-0.042c0-1.105,0.506-2.029,1.519-2.773
		s2.178-1.115,3.495-1.115s2.482,0.372,3.495,1.115s1.519,1.668,1.519,2.773v0.042c0,0.821-0.262,1.529-0.786,2.125
		c-0.523,0.595-1.189,1.041-1.996,1.338c0.977,0.326,1.77,0.811,2.379,1.456c0.608,0.645,0.913,1.385,0.913,2.22v0.043
		C23.825,24.629,23.297,25.631,22.243,26.417z M15.114,25.685c0.793,0.608,1.855,0.913,3.187,0.913c1.331,0,2.394-0.305,3.187-0.913
		c0.793-0.609,1.19-1.353,1.19-2.231v-0.042c0-0.921-0.422-1.682-1.265-2.284c-0.843-0.602-1.88-0.903-3.112-0.903
		s-2.27,0.301-3.112,0.903c-0.843,0.603-1.264,1.363-1.264,2.284v0.042C13.925,24.332,14.321,25.075,15.114,25.685z M15.561,18.429
		c0.75,0.574,1.664,0.86,2.741,0.86c1.076,0,1.989-0.287,2.741-0.86c0.75-0.574,1.126-1.307,1.126-2.199v-0.042
		c0-0.836-0.372-1.526-1.116-2.072c-0.743-0.545-1.661-0.818-2.751-0.818c-1.091,0-2.008,0.273-2.751,0.818
		c-0.744,0.545-1.115,1.236-1.115,2.072v0.042C14.435,17.122,14.81,17.855,15.561,18.429z"/>
	<path class="st0" d="M29.535,23.458v-3.426h-3.457v-0.765h3.457v-3.426h0.797v3.426h3.458v0.765h-3.458v3.426H29.535z"/>
</g>
</svg>
