<svg width="560" height="499" viewBox="0 0 560 499" fill="none" xmlns="http://www.w3.org/2000/svg">
<path d="M289.646 493.035C415.352 493.035 517.258 391.13 517.258 265.424C517.258 139.72 415.352 37.812 289.646 37.812C163.942 37.812 62.0342 139.72 62.0342 265.424C62.0342 391.13 163.942 493.035 289.646 493.035Z" fill="url(#paint0_radial_2_708)"/>
<path d="M345.784 0L415.803 21.7835C417.662 46.4405 418.989 62.2777 419.783 69.2974C424.025 63.3485 428.293 57.3995 432.793 51.6316C436.647 46.769 440.76 42.1392 445.493 38.1043C456.9 30.5 469.91 26.2064 483.722 27.8876C495.221 29.0981 514.193 39.4415 527.845 51.6316C538.969 61.5638 545.992 73.4798 547.246 76.4879C542.461 82.7731 538.038 89.4721 533.693 96.0676C541.012 96.4815 549.103 95.9642 556.423 96.5332C556.63 97.154 560.649 110.099 559.713 123.609C558.593 139.808 552.122 157.549 547.246 165.683C527.845 198.053 502.293 203.224 491.458 205.5H492.115C498.651 205.513 518.463 205.901 533.279 216.948C537.322 219.963 543.946 225.069 553.154 232.265C543.454 243.097 536.83 250.326 533.279 253.947C539.305 254.154 545.306 254.335 551.307 254.594C551.11 260.703 550.363 276.196 547.246 290.091C544.199 303.668 538.811 315.664 536.434 320.42C533.186 326.954 523.256 346.112 506.322 357.252C488.734 368.821 463.984 372.197 452.994 368.943C433.492 363.796 415.803 350.786 411.403 313.773C410.601 317.95 409.331 324.786 407.919 331.806L407.469 334.025C405.576 343.275 403.494 352.382 401.962 355.7C397.876 353.354 381.296 344.043 352.224 327.766V363.788C338.376 364.947 329.065 365.821 324.29 366.408C313.297 367.598 302.253 368.322 291.183 368.891C289.553 365.012 287.924 361.08 286.165 357.252C272.405 360.925 242.867 375.746 240.281 376.392C239.624 375.321 234.792 366.786 225.786 350.786H209.217C207.939 364.494 206.656 374.157 205.363 379.78C185.111 372.28 164.362 364.598 144.678 355.7C142.749 354.681 144.016 347.229 148.486 333.348C142.795 342.434 136.978 348.246 131.04 350.786C117.893 356.404 105.227 356.849 99.0061 357.252C79.147 358.54 58.3128 356.347 51.2594 356.347C37.4682 341.622 22.1924 316.008 13.8328 288.787C4.56797 258.624 2.954 227.343 2.96952 225.263C6.61648 224.203 10.2376 223.142 13.8328 221.978C19.8593 220.561 36.5733 218.018 53.6442 215.737L56.4893 215.359C68.2216 213.815 79.8454 212.429 88.0239 211.648C107.63 212.413 127.31 213.774 137.002 216.857C149.365 220.892 160.358 229.376 162.427 242.929C164.496 256.56 153.576 274.756 142.995 284.517C155.744 287.083 156.225 298.911 156.243 303.471V303.973C166.19 275.338 178.668 242.515 190.307 219.987C193.025 214.682 197.756 206.777 204.499 196.266C205.676 197.989 206.93 199.815 208.249 201.726L210.275 204.651C214.762 211.112 219.85 218.355 225.044 225.705L226.895 228.326L228.753 230.946L230.85 233.902L231.546 234.885L232.937 236.845L234.321 238.793L235.697 240.728C242.549 250.36 248.984 259.363 253.808 266.117L254.749 267.436C257.12 270.741 259.478 274.056 261.821 277.381C261.829 277.378 261.838 277.376 261.847 277.376L277.089 299.855L272.363 271.996C272.421 271.618 272.355 271.231 272.175 270.894L270.664 262.015L261.821 203.601L263.65 204.587C323.708 236.939 354.042 253.06 354.653 252.957L365.855 191.147C366.398 188.354 366.941 185.56 367.51 182.767C389.159 191.199 410.472 200.303 431.811 209.511C431.319 216.133 430.75 222.754 430.336 229.376C439.363 222.056 457.389 210.986 471.213 208.115C458.674 206.679 431.811 200.459 421.697 175.354C420.777 176.404 420.965 179.187 421.242 182.107L421.382 183.571C421.659 186.492 421.853 189.282 420.947 190.345C412.032 186.512 397.162 179.389 376.338 168.978L373.462 167.538C367.634 164.615 361.365 161.449 354.653 158.04L345.463 225.354L307.012 209.511C301.904 207.334 295.606 204.613 288.105 201.346V184.153C260.789 197.541 242.319 205.872 232.697 209.149C228.576 203.076 224.485 196.983 220.424 190.87L219.247 189.101C217.24 186.093 215.026 182.77 212.605 179.13C203.138 180.116 197.215 180.84 194.836 181.306C186.781 201.628 181.515 214.744 179.032 220.659C168.513 217.297 147.813 210.859 116.933 201.346C120.104 191.318 124.181 180.721 129.165 169.558C122.259 181.037 105.462 194.098 84.5916 201.346C68.4958 206.935 48.9238 209.149 40.4996 210.093L40.6418 210.08C20.9922 210.481 3.2799 210.567 0.74513 208.399C-0.00495356 193.165 -0.418795 177.982 0.641668 162.748C4.21103 134.244 12.9793 107.345 24.0236 80.9366C29.6622 69.0905 33.2574 55.6407 46.6554 50.5453C67.6319 41.7254 92.8244 33.3192 115.767 36.2937C121.798 37.036 135.028 41.0943 139.95 50.5453C144.438 59.1635 140.959 73.0996 139.95 76.4879C137.654 84.2086 132.111 92.8656 123.317 102.456C133.836 111.509 139.094 123.51 139.094 138.465C139.948 130.305 145.638 111.612 148.483 105.586C151.69 98.7835 154.949 92.0069 158.364 85.3078C161.674 78.8416 165.218 72.5047 168.994 66.2971C176.392 54.5802 184.436 43.2773 192.583 32.0777C197.549 25.9477 202.854 20.0764 208.286 14.3602C211.26 11.4633 214.364 8.66993 217.442 5.87652C218.536 7.91985 228.853 33.4589 250.746 78.0087L251.788 80.1167L252.921 82.3851C259.604 95.6952 270.685 116.734 286.165 145.496C286.134 118.847 286.113 95.9383 286.1 76.7776L286.098 72.8668L286.095 67.1998L286.093 63.5528V61.7707L286.09 58.2867V56.5848L286.087 48.4761V34.2607L286.09 28.154V27.0108L286.093 24.8097V23.7492L286.095 21.7059L286.098 18.8426L286.1 17.0683C286.113 8.74753 286.134 4.16944 286.165 3.334C288.995 5.88428 304.612 20.5006 319.676 34.5194L321.556 36.2704C334.988 48.7632 347.527 60.3611 349.586 61.9518C349.594 61.4836 349.601 60.9844 349.604 60.4516L349.601 59.3523C349.545 49.2521 348.272 29.468 345.784 0Z" fill="white"/>
<path d="M345.783 0L415.802 21.7835C417.662 46.4405 418.988 62.2777 419.782 69.2974C424.024 63.3485 428.292 57.3995 432.793 51.6316C436.646 46.769 440.759 42.1392 445.492 38.1043C456.899 30.5 469.909 26.2064 483.721 27.8876C495.22 29.0981 514.192 39.4415 527.844 51.6316C538.968 61.5638 545.991 73.4798 547.245 76.4879C542.46 82.7731 538.037 89.4721 533.692 96.0676C541.012 96.4815 549.102 95.9642 556.422 96.5332C556.629 97.154 560.648 110.099 559.712 123.609C558.592 139.808 552.121 157.549 547.245 165.683C527.844 198.053 502.292 203.224 491.457 205.5H492.114C498.65 205.513 518.462 205.901 533.278 216.948C537.321 219.963 543.945 225.069 553.153 232.265C543.453 243.097 536.829 250.326 533.278 253.947C539.304 254.154 545.305 254.335 551.306 254.594C551.109 260.703 550.362 276.196 547.245 290.091C544.198 303.668 538.81 315.664 536.433 320.42C533.185 326.954 523.255 346.112 506.321 357.252C488.733 368.821 463.983 372.197 452.993 368.943C433.491 363.796 415.802 350.786 411.402 313.773C410.6 317.95 409.33 324.786 407.918 331.806L407.468 334.025C405.575 343.275 403.493 352.382 401.961 355.7C397.875 353.354 381.295 344.043 352.223 327.766V363.788C338.375 364.947 329.064 365.821 324.289 366.408C313.296 367.598 302.252 368.322 291.182 368.891C289.552 365.012 287.923 361.08 286.164 357.252C272.404 360.925 242.866 375.746 240.28 376.392C239.623 375.321 234.791 366.786 225.785 350.786H209.216C207.938 364.494 206.655 374.157 205.362 379.78C185.11 372.28 164.361 364.598 144.677 355.7C142.748 354.681 144.015 347.229 148.485 333.348C142.795 342.434 136.978 348.246 131.039 350.786C117.892 356.404 105.226 356.849 99.0051 357.252C79.146 358.54 58.3118 356.347 51.2584 356.347C37.4672 341.622 22.1914 316.008 13.8318 288.787C4.56699 258.624 2.95302 227.343 2.96854 225.263C6.6155 224.203 10.2366 223.142 13.8318 221.978C19.8584 220.561 36.5723 218.018 53.6432 215.737L56.4883 215.359C68.2207 213.815 79.8444 212.429 88.0229 211.648C107.629 212.413 127.309 213.774 137.001 216.857C149.364 220.892 160.357 229.376 162.426 242.929C164.495 256.56 153.575 274.756 142.994 284.517C155.743 287.083 156.224 298.911 156.242 303.471V303.973C166.189 275.338 178.667 242.515 190.306 219.987C193.024 214.682 197.755 206.777 204.498 196.266C205.675 197.989 206.929 199.815 208.248 201.726L210.274 204.651C214.761 211.112 219.849 218.355 225.043 225.705L226.894 228.326L228.752 230.946L230.849 233.902L231.545 234.885L232.937 236.845L234.32 238.793L235.696 240.728C242.548 250.36 248.983 259.363 253.807 266.117L254.748 267.436C257.119 270.741 259.477 274.056 261.82 277.381C261.828 277.378 261.837 277.376 261.846 277.376L277.088 299.855L272.362 271.996C272.42 271.618 272.354 271.231 272.174 270.894L270.663 262.015L261.82 203.601L263.649 204.587C323.707 236.939 354.041 253.06 354.652 252.957L365.854 191.147C366.397 188.354 366.94 185.56 367.509 182.767C389.158 191.199 410.471 200.303 431.81 209.511C431.318 216.133 430.749 222.754 430.335 229.376C439.362 222.056 457.388 210.986 471.212 208.115C458.673 206.679 431.81 200.459 421.696 175.354C420.776 176.404 420.964 179.187 421.241 182.107L421.381 183.571C421.658 186.492 421.852 189.282 420.946 190.345C412.031 186.512 397.161 179.389 376.337 168.978L373.461 167.538C367.634 164.615 361.364 161.449 354.652 158.04L345.462 225.354L307.011 209.511C301.903 207.334 295.605 204.613 288.104 201.346V184.153C260.788 197.541 242.318 205.872 232.696 209.149C228.575 203.076 224.484 196.983 220.423 190.87L219.246 189.101C217.239 186.093 215.025 182.77 212.604 179.13C203.137 180.116 197.214 180.84 194.835 181.306C186.781 201.628 181.514 214.744 179.031 220.659C168.512 217.297 147.812 210.859 116.932 201.346C120.103 191.318 124.18 180.721 129.164 169.558C122.258 181.037 105.461 194.098 84.5906 201.346C68.4948 206.935 48.9228 209.149 40.4986 210.093L40.6409 210.08C20.9913 210.481 3.27892 210.567 0.744154 208.399C-0.00593012 193.165 -0.419772 177.982 0.640692 162.748C4.21006 134.244 12.9783 107.345 24.0226 80.9366C29.6612 69.0905 33.2564 55.6407 46.6545 50.5453C67.6309 41.7254 92.8234 33.3192 115.766 36.2937C121.797 37.036 135.027 41.0943 139.949 50.5453C144.437 59.1635 140.958 73.0996 139.949 76.4879C137.653 84.2086 132.11 92.8656 123.316 102.456C133.835 111.509 139.093 123.51 139.093 138.465C139.947 130.305 145.637 111.612 148.482 105.586C151.689 98.7835 154.948 92.0069 158.363 85.3078C161.673 78.8416 165.217 72.5047 168.993 66.2971C176.391 54.5802 184.435 43.2773 192.582 32.0777C197.548 25.9477 202.853 20.0764 208.285 14.3602C211.259 11.4633 214.363 8.66993 217.441 5.87652C218.535 7.91985 228.852 33.4589 250.745 78.0087L251.787 80.1167L252.92 82.3851C259.603 95.6952 270.684 116.734 286.164 145.496C286.133 118.847 286.112 95.9383 286.099 76.7776L286.097 72.8668L286.094 67.1998L286.092 63.5528V61.7707L286.089 58.2867V56.5848L286.086 48.4761V34.2607L286.089 28.154V27.0108L286.092 24.8097V23.7492L286.094 21.7059L286.097 18.8426L286.099 17.0683C286.112 8.74753 286.133 4.16944 286.164 3.334C288.994 5.88428 304.611 20.5006 319.675 34.5194L321.555 36.2704C334.987 48.7632 347.526 60.3611 349.585 61.9518C349.593 61.4836 349.6 60.9844 349.603 60.4516L349.6 59.3523C349.544 49.2521 348.271 29.468 345.783 0Z" fill="white"/>
<path d="M357.369 15.2085C373.949 19.2693 389.83 26.1494 406.228 30.9603C408.634 78.4225 410.832 125.962 412.048 173.45C389.468 163.622 368 151.62 345.032 142.619C341.437 164.734 339.031 187.006 335.643 209.147C322.969 203.793 310.476 197.895 298.009 192.024C296.716 169.03 297.518 146.217 297.337 123.197C297.544 91.9007 296.82 60.5524 297.802 29.2558C319.167 48.7838 339.988 70.1483 362.594 88.3055C362.698 63.7596 358.275 39.6509 357.369 15.2085ZM214.543 23.956C238.391 73.3064 260.686 122.993 288.103 170.662C270.955 179.404 253.263 186.905 235.856 195.104C231.692 187.448 227.941 179.249 222.742 172.24C221.475 170.352 219.716 169.395 217.466 169.343C206.861 168.929 196.153 170.688 185.549 171.386C181.824 183.724 177.505 195.855 173.47 208.115C158.727 203.433 143.958 198.855 129.163 194.329C131.517 182.741 134.051 171.257 138.035 160.135C151.95 118.467 170.547 78.4276 197.162 43.2771C202.438 36.3971 208.232 29.905 214.543 23.956ZM490.315 39.369C509.714 45.499 522.647 59.0005 535.76 73.6918C529.759 83.417 523.578 93.0388 517.241 102.557C510.645 97.591 502.705 90.2712 494.299 89.3142C485.298 89.547 479.064 96.4271 475.133 103.85C469.339 115.36 466.416 129.845 469.779 142.493C471.331 148.054 475.029 153.02 481.392 152.683C491.091 151.959 499.394 143.243 506.171 136.983C499.911 137.345 493.704 138.07 487.47 138.613C487.625 129.353 487.625 120.119 487.548 110.886C508.007 108.791 528.466 106.98 549.055 106.799C549.831 119.99 549.882 132.716 544.865 145.183C533.82 174.591 505.938 197.921 473.555 197.145C454.467 197.3 438.482 182.764 430.257 166.625C418.023 141.924 418.23 112.179 426.403 86.2621C431.498 70.2517 440.396 54.2154 454.622 44.6195C465.278 37.4549 478.03 35.5668 490.315 39.369ZM116.049 46.6629C124.662 48.0854 130.999 54.5 130.146 63.5786C128.646 77.4422 118.558 91.0471 111.006 102.428C120.834 113.757 131.775 125.163 130.999 141.329C130.275 158.089 116.437 171.073 103.143 179.454C75.2345 196.343 42.4378 203.482 9.95137 200.792C7.54593 154.727 20.2456 111.118 40.5237 70.2C44.8432 60.9662 53.12 58.7935 61.8623 55.3018C78.5452 49.4046 98.2802 43.7401 116.049 46.6629Z" fill="black"/>
<path d="M68.8477 80.1629C74.8484 77.4212 82.97 78.7662 89.4103 78.8696C87.0308 83.2667 85.2978 89.707 81.2111 92.785C75.9606 95.5266 69.0546 95.5784 63.2867 96.5354C64.9421 91.0779 66.3905 85.31 68.8477 80.1629ZM205.725 102.453C209.734 113.187 212.605 124.49 215.062 135.664C208.312 135.612 201.587 135.509 194.836 135.509C198.535 124.516 201.716 113.342 205.725 102.453ZM86.5911 135.972C83.6166 141.222 80.9266 148.697 75.7536 152.137C68.796 156.146 59.4846 156.715 51.6992 158.034C53.2253 151.93 53.5615 143.912 57.2085 138.688C66.5974 131.704 76.0123 132.971 86.5911 135.972Z" fill="white"/>
<path d="M375.913 198.053C391.639 201.26 406.719 210.106 421.694 216.133C413.34 257.543 405.193 299.03 396.347 340.336C378.396 330.534 360.938 319.929 342.548 310.928C342.289 324.947 341.694 338.966 341.073 352.984C327.003 355.131 312.881 357.045 298.707 358.261C291.749 313.333 284.145 268.587 276.359 223.789C306.259 238.92 334.84 256.612 364.869 271.406C369.37 247.093 370.921 222.237 375.913 198.053ZM206.369 210.986C217.465 227.1 227.552 243.912 238.26 260.284C255.486 287.287 273.488 314.187 288.412 342.535C273.824 349.906 259.133 356.968 244.235 363.692C239.476 355.933 234.717 348.148 230.061 340.311C219.999 340.311 209.964 340.492 199.902 340.673C199.23 349.053 198.609 357.433 198.04 365.813C183.271 359.295 167.054 355.105 152.983 347.216C150.966 343.647 153.449 337.853 154.07 333.999C162.734 302.78 176.055 272.156 189.893 242.929C195.014 232.143 200.239 221.228 206.369 210.986ZM484.003 214.477C504.204 214.687 520.835 223.145 537.363 233.879C528.413 244.095 519.024 253.847 509.609 263.623C502.885 259.408 494.789 252.967 486.667 252.579C477.899 252.967 471.303 259.459 466.932 266.495C460.828 276.582 457.362 289.152 458.966 300.921C459.845 306.145 462.587 311.965 468.717 311.965C478.235 312.379 487.702 303.223 494.815 297.688C487.728 298.386 480.667 299.369 473.605 300.274C474.821 291.325 475.985 282.376 477.045 273.426C498.436 270.348 519.567 267.348 541.061 265.382C539.794 296.601 525.258 329.605 500.272 348.978C484.365 361.445 462.277 364.626 444.507 354.099C430.359 345.538 422.6 330.2 419.936 314.267C415.642 287.161 421.746 257.83 439.36 236.362C450.353 222.99 466.518 214.377 484.003 214.477ZM85.5533 222.188C103.116 221.774 123.678 221.955 139.947 229.352C148.147 233.025 154.147 240.061 152.751 249.527C150.63 263.391 138.111 275.961 129.136 286.1C137.05 292.618 146.517 298.645 147.965 309.715C149.078 321.587 140.827 331.157 131.153 336.795C112.97 347.504 90.4677 347.581 70.0085 346.572C62.4818 345.615 55.2396 346.391 50.5063 339.408C28.547 308.784 16.7525 269.831 13.3125 232.586C37.1083 227.025 61.1109 223.093 85.5533 222.188Z" fill="black"/>
<path d="M80.873 268.225C86.9512 267.319 92.9002 267.578 99.0043 267.759C97.7886 271.949 97.0644 276.475 95.228 280.433C91.3483 284.106 84.6492 285.166 79.8125 287.184C79.9418 280.847 79.9677 274.484 80.873 268.225ZM211.413 288.787C214.983 295.538 217.906 302.625 220.983 309.608C215.397 311.031 209.81 312.376 204.223 313.773C206.421 305.393 208.646 296.986 211.413 288.787ZM82.8128 309.425C91.0896 307.976 99.2112 308.752 107.488 309.761C106.272 313.149 106.143 319.719 102.548 321.478C96.9351 323.133 90.7534 323.314 84.9338 323.883C84.5717 318.995 83.5112 314.262 82.8128 309.425Z" fill="white"/>
<g filter="url(#filter0_d_2_708)">
<path d="M135.528 391.497C147.607 394.653 156.996 401.662 167.135 408.516C166.178 413.818 165.893 419.095 165.66 424.449C170.133 415.205 175.735 404.016 182.473 390.876H220.986C229.314 407.083 235.633 418.929 239.945 426.415C240.746 415.06 241.29 403.731 241.522 392.351C254.119 392.04 267.129 390.669 279.699 392.118C283.594 392.376 288.664 395.591 294.908 401.765C300.82 395.022 306.063 391.678 310.634 391.73C318.282 391.298 349.03 390.876 408.626 390.876C411.747 390.876 416.915 391.771 424.129 393.566C445.02 388.481 462.994 388.481 478.047 393.566C490.248 397.687 498.33 403.92 502.293 412.267L489.335 428.458C497.293 434.981 501.613 442.042 502.293 449.641C504.22 471.166 495.415 479.29 486.554 484.487C470.831 493.708 441.368 489.838 435.923 489.422C419.241 488.103 402.558 490.068 385.72 489.706C368.993 489.43 343.911 489.437 310.478 489.732L295.347 482.593L277.345 489.861L222.512 489.784L203.035 482.593L186.585 489.474C172.737 489.437 162.383 489.463 155.521 489.551C139.899 489.474 124.302 491.439 108.835 490.715C104.529 489.414 92.1496 486.08 83.1357 476.774C74.2252 467.574 68.6617 452.44 67.9969 444.52C66.6416 428.339 71.618 417 79.8146 407.585C83.953 403.447 87.0672 400.808 91.8522 397.394C105.612 391.161 120.681 387.721 135.528 391.497Z" fill="white"/>
</g>
<path d="M135.525 391.498C147.604 394.653 156.993 401.662 167.132 408.517C166.175 413.819 165.89 419.095 165.658 424.449C170.13 415.205 175.732 404.016 182.47 390.877H220.983C229.311 407.084 235.63 418.93 239.942 426.415C240.744 415.06 241.287 403.732 241.519 392.351C254.116 392.041 267.126 390.67 279.696 392.118C283.591 392.377 288.661 395.592 294.905 401.766C300.817 395.023 306.06 391.679 310.631 391.73C318.279 391.298 349.027 390.877 408.623 390.877C411.745 390.877 416.912 391.772 424.126 393.567C445.017 388.482 462.991 388.482 478.044 393.567C490.245 397.687 498.328 403.92 502.29 412.267L489.332 428.459C497.29 434.982 501.61 442.043 502.29 449.642C504.217 471.167 495.413 479.291 486.551 484.487C470.828 493.708 441.365 489.839 435.921 489.422C419.238 488.103 402.555 490.069 385.717 489.707C368.99 489.43 343.908 489.438 310.475 489.733L295.344 482.594L277.342 489.862L222.509 489.784L203.032 482.594L186.582 489.474C172.734 489.438 162.38 489.464 155.518 489.552C139.896 489.474 124.299 491.44 108.832 490.716C104.526 489.415 92.1467 486.081 83.1328 476.774C74.2223 467.574 68.6587 452.441 67.994 444.521C66.6387 428.34 71.6151 417 79.8117 407.586C83.9501 403.447 87.0643 400.809 91.8493 397.395C105.609 391.161 120.678 387.721 135.525 391.498Z" fill="white"/>
<path d="M151.435 412.887C146.91 417.973 142.536 423.191 138.321 428.536C131.053 426.337 121.25 421.526 113.879 425.329C102.395 430.864 101.955 449.486 112.948 455.772C118.224 458.901 123.707 458.306 129.501 457.323C133.924 450.443 122.518 449.667 118.793 445.736C118.095 441.805 117.991 437.692 117.784 433.709C129.553 433.864 141.321 433.864 153.09 433.786C153.064 444.986 154.849 457.582 151.745 468.42C133.846 482.671 101.8 482.076 87.5482 462.703C74.8226 445.814 79.2973 420.207 97.351 408.982C115.043 398.196 134.855 401.998 151.435 412.887ZM191.088 403.24H214.519C224.959 427.743 235.339 452.272 245.661 476.826C240.332 476.74 232.107 476.722 220.986 476.774L214.519 467.488H191.086L185.626 476.826H160.407L191.088 403.24ZM485.17 412.166C481.316 417.468 477.488 422.77 473.712 428.125C463.599 424.038 455.749 418.922 443.347 423.365C451.618 427.116 451.618 427.116 455.749 429.022C464.284 432.307 471.979 432.703 479.273 438.238C489.49 445.428 488.455 462.654 479.299 470.259C470.401 478.096 456.331 478.949 445.131 477.552C434.553 476.414 425.862 471.681 416.68 466.715C420.973 461.646 425.163 456.498 429.25 451.248C441.2 455.593 451.261 462.861 463.599 455.153C452.011 450.343 437.268 448.946 427.233 441.367C416.033 431.254 420.973 412.812 433.777 406.605C451.003 399.026 469.444 402.984 485.17 412.166ZM253.782 404.223C262.292 404.378 270.801 404.404 279.311 404.3C284.251 412.655 289.347 420.88 294.701 428.95C300.055 420.673 305.254 412.318 310.452 403.964C318.884 404.3 327.316 404.455 335.748 404.455C335.516 428.562 335.619 452.694 335.671 476.8C327.575 476.645 319.505 476.645 311.409 476.8C311.409 465.523 311.358 454.271 310.737 443.02C305.098 450.521 299.874 458.28 294.571 466.014C289.062 458.306 283.656 450.547 278.044 442.917C277.682 454.194 277.5 465.497 277.216 476.8C269.508 476.696 261.775 476.696 254.067 476.774C253.136 452.59 253.42 428.432 253.782 404.223ZM349.017 404.381C369.709 404.044 390.375 403.941 411.067 404.51C411.041 410.95 411.041 417.365 411.067 423.779C398.471 424.115 385.901 424.245 373.304 424.064C373.201 426.417 373.071 428.771 372.968 431.125C384.788 431.409 396.583 431.461 408.377 431.539C408.377 437.255 408.377 442.971 408.403 448.687C396.609 448.817 384.84 448.868 373.046 449.23C373.071 451.688 373.071 454.119 373.097 456.55C385.875 456.498 398.652 456.602 411.403 457.042C411.326 463.611 411.3 470.181 411.274 476.751C390.582 476.673 369.864 476.621 349.172 476.777C348.629 452.644 348.81 428.538 349.017 404.381Z" fill="black"/>
<path d="M203.035 429.02L210.874 449.642H195.56L203.035 429.02Z" fill="white"/>
<defs>
<filter id="filter0_d_2_708" x="61.7754" y="385.752" width="446.785" height="113.123" filterUnits="userSpaceOnUse" color-interpolation-filters="sRGB">
<feFlood flood-opacity="0" result="BackgroundImageFix"/>
<feColorMatrix in="SourceAlpha" type="matrix" values="0 0 0 0 0 0 0 0 0 0 0 0 0 0 0 0 0 0 127 0" result="hardAlpha"/>
<feOffset dy="2"/>
<feGaussianBlur stdDeviation="3"/>
<feColorMatrix type="matrix" values="0 0 0 0 0 0 0 0 0 0 0 0 0 0 0 0 0 0 0.455556 0"/>
<feBlend mode="normal" in2="BackgroundImageFix" result="effect1_dropShadow_2_708"/>
<feBlend mode="normal" in="SourceGraphic" in2="effect1_dropShadow_2_708" result="shape"/>
</filter>
<radialGradient id="paint0_radial_2_708" cx="0" cy="0" r="1" gradientUnits="userSpaceOnUse" gradientTransform="translate(289.798 265.424) scale(288.392)">
<stop stop-color="#E7E7E7"/>
<stop offset="0.432" stop-color="#B7B7B7"/>
<stop offset="0.677" stop-color="#F0F0F0"/>
<stop offset="1" stop-color="#FBFBFB"/>
</radialGradient>
</defs>
</svg>
