<svg width="24" height="24" viewBox="0 0 24 24" fill="none" xmlns="http://www.w3.org/2000/svg">
<g clip-path="url(#clip0_10212_36915)">
<path d="M12 24C18.6274 24 24 18.6274 24 12C24 5.37258 18.6274 0 12 0C5.37258 0 0 5.37258 0 12C0 18.6274 5.37258 24 12 24Z" fill="black"/>
<path d="M19 14.9917C18.3111 14.3481 17.6714 13.7044 17.0318 13.0608C16.7365 12.7637 16.4413 12.4667 16.1461 12.2191C15.9984 12.0706 15.9492 12.0211 16.1461 11.8725C16.6873 11.3774 17.1794 10.8823 17.6714 10.3872C18.0159 10.0406 18.3603 9.69404 18.7048 9.34746C18.754 9.29795 18.8524 9.24844 18.9508 9.14941C19 11.0803 19 13.0113 19 14.9917Z" fill="#FFBD19"/>
<path d="M5 14.9911C5 13.0107 5 11.0798 5 9.0498C5.19682 9.24785 5.39365 9.39638 5.59047 9.59443C6.37776 10.3371 7.11585 11.1293 7.90314 11.8719C8.00155 11.971 8.09997 12.07 7.95235 12.169C7.01744 13.0602 6.08253 14.0009 5.14762 14.8921C5.09841 14.9416 5.04921 14.9416 5 14.9911Z" fill="#FFBD19"/>
<path d="M9.62538 4C9.72379 4 9.77299 4 9.87141 4C10.5603 4 11.2984 4 11.9873 4C13.3158 4 14.3491 4.8912 14.5952 6.228C14.5952 6.32702 14.5952 6.42605 14.5952 6.52507C14.5952 7.81236 14.5952 9.09965 14.5952 10.3869C14.5952 10.8325 14.4475 11.2286 14.2507 11.6247C14.2015 11.6742 14.1031 11.7732 14.0539 11.7732C12.5777 11.7732 11.1508 11.7732 9.67458 11.7732C9.67458 11.7732 9.62538 11.7732 9.57617 11.7237C9.62538 9.14916 9.62538 6.57458 9.62538 4ZM11.3476 11.1791C11.6428 11.1791 11.9381 11.1791 12.2333 11.1296C12.5777 11.0801 12.873 10.7335 12.873 10.3374C12.873 9.09965 12.873 7.86187 12.873 6.57458C12.873 6.17849 12.6269 5.83191 12.2333 5.73289C12.0365 5.68338 11.8396 5.73289 11.6428 5.68338C11.446 5.63387 11.3476 5.73289 11.3476 5.98045C11.3476 7.61431 11.3476 9.24818 11.3476 10.8325C11.3476 10.9811 11.3476 11.0306 11.3476 11.1791Z" fill="white"/>
<path d="M9.65405 20.0414C9.65405 17.4668 9.65405 14.9418 9.65405 12.3672C9.75308 12.3672 9.80259 12.3672 9.90161 12.3672C11.3374 12.3672 12.7733 12.3672 14.2091 12.3672C14.4071 12.3672 14.5061 12.4167 14.5557 12.5652C14.6547 12.9118 14.8032 13.3079 14.8032 13.6545C14.8527 14.9418 14.8032 16.1795 14.8032 17.4668C14.8032 18.9027 13.5654 20.0909 12.2286 20.0414C11.3869 20.0414 10.5453 20.0414 9.65405 20.0414ZM11.3869 12.9118C11.3869 14.7437 11.3869 16.5261 11.3869 18.3085C11.684 18.3085 11.9316 18.3085 12.1791 18.3085C12.7237 18.3085 13.0703 17.9619 13.0703 17.4173C13.0703 16.7737 13.0703 16.13 13.0703 15.4864C13.0703 14.8923 13.0703 14.3476 13.0703 13.7535C13.0703 13.2584 12.7733 12.9118 12.3772 12.8623C12.0801 12.9118 11.7335 12.9118 11.3869 12.9118Z" fill="white"/>
</g>
<defs>
<clipPath id="clip0_10212_36915">
<rect width="24" height="24" fill="white"/>
</clipPath>
</defs>
</svg>
