<svg width="24" height="24" viewBox="0 0 24 24" fill="none" xmlns="http://www.w3.org/2000/svg">
<g clip-path="url(#clip0_3632_112655)">
<path d="M12 24C18.6274 24 24 18.6274 24 12C24 5.37258 18.6274 0 12 0C5.37258 0 0 5.37258 0 12C0 18.6274 5.37258 24 12 24Z" fill="#1C1D1E"/>
<path d="M18.3599 6.29452C18.5247 6.38053 18.6824 6.15834 18.5462 6.02932C17.5141 5.09035 15.4856 3.75 12.3103 3.75C8.28924 3.75 5.25732 5.99348 5.25732 7.31233C5.25732 8.79607 8.16024 9.58447 8.28924 11.8423C8.29644 11.9283 8.36094 11.9928 8.44696 11.9928H13.3067C13.4213 11.9928 13.493 11.8853 13.4572 11.7778C13.0199 10.5235 8.94151 9.72787 8.94151 6.91811C8.94151 4.46677 14.776 4.40226 18.3599 6.29452Z" fill="#28AAE2"/>
<path d="M18.3599 17.7061C18.5247 17.6201 18.6824 17.8423 18.5462 17.9713C17.5141 18.9103 15.4856 20.2506 12.3103 20.2506C8.28924 20.2506 5.25732 18.0071 5.25732 16.6883C5.25732 15.2045 8.16024 14.3516 8.28924 12.1583C8.29644 12.0723 8.36806 12.0078 8.44696 12.0078H13.3067C13.4213 12.0078 13.493 12.1153 13.4572 12.2228C13.0199 13.4771 8.94151 14.2727 8.94151 17.0825C8.94151 19.5338 14.776 19.5983 18.3599 17.7061Z" fill="#FAA31D"/>
<path d="M5.31451 6.85352C5.25 7.05422 5.25 7.18323 5.25 7.31225C5.25 8.83176 8.28195 9.62024 8.28195 11.9927C8.28195 14.3008 5.25 15.1609 5.25 16.6732C5.25 16.8022 5.25 16.9384 5.31451 17.0674C4.92029 15.6196 10.1885 14.3653 12.6256 13.0464C12.6327 13.0464 12.6327 13.0393 12.6399 13.0393C13.1631 12.7095 13.4928 12.3798 13.4928 11.9856C13.4928 11.5914 13.1631 11.2616 12.6399 10.9319C12.6327 10.9319 12.6327 10.9248 12.6256 10.9248C10.1885 9.62744 4.92029 8.37306 5.31451 6.85352Z" fill="#DD1F26"/>
</g>
<defs>
<clipPath id="clip0_3632_112655">
<rect width="24" height="24" fill="white"/>
</clipPath>
</defs>
</svg>
