<svg width="66" height="13" viewBox="0 0 66 13" fill="none" xmlns="http://www.w3.org/2000/svg">
<g clip-path="url(#clip0_2_2)">
<path d="M73 -0.919998H-7V13.92H73V-0.919998Z" fill="#0E183E"/>
<path d="M10.59 2.99001V8.16001C10.59 8.88001 10.38 9.44001 9.97 9.84001C9.56 10.23 9.01 10.43 8.31 10.43C7.61 10.43 7.04 10.23 6.61 9.82001C6.18 9.41001 5.97 8.84001 5.97 8.11001H7.44C7.44 8.43001 7.52 8.67001 7.66 8.85001C7.81 9.03001 8.02 9.11001 8.29 9.11001C8.56 9.11001 8.76 9.03001 8.9 8.86001C9.04 8.69001 9.11 8.46001 9.11 8.16001V2.99001H10.59Z" fill="white"/>
<path d="M17.34 7.31C17.34 7.52 17.33 7.71 17.3 7.88H13.05C13.08 8.3 13.23 8.63 13.49 8.87C13.75 9.11 14.07 9.23 14.44 9.23C14.99 9.23 15.37 8.99 15.6 8.52H17.18C17.01 9.08 16.69 9.55 16.22 9.91C15.74 10.27 15.16 10.45 14.47 10.45C13.91 10.45 13.41 10.33 12.96 10.08C12.52 9.83 12.17 9.47 11.92 9.01C11.68 8.55 11.55 8.02 11.55 7.43C11.55 6.84 11.67 6.29 11.92 5.84C12.16 5.38 12.51 5.03 12.95 4.78C13.39 4.53 13.9 4.41 14.47 4.41C15.04 4.41 15.52 4.53 15.95 4.77C16.39 5.01 16.73 5.35 16.97 5.79C17.21 6.23 17.34 6.73 17.34 7.3M15.82 6.89C15.82 6.51 15.68 6.21 15.41 5.98C15.14 5.75 14.82 5.63 14.44 5.63C14.08 5.63 13.77 5.74 13.52 5.97C13.28 6.19 13.12 6.49 13.07 6.89H15.83H15.82Z" fill="white"/>
<path d="M19.75 5.72001V8.55001C19.75 8.75001 19.8 8.89 19.89 8.98C19.99 9.06 20.15 9.11 20.37 9.11H21.05V10.36H20.13C18.89 10.36 18.27 9.75001 18.27 8.54001V5.72001H17.58V4.51001H18.27V3.06001H19.75V4.51001H21.05V5.72001H19.75Z" fill="white"/>
<path d="M24.32 10.45C23.76 10.45 23.26 10.33 22.81 10.08C22.36 9.83 22.01 9.47 21.75 9.01C21.5 8.55 21.37 8.02 21.37 7.43C21.37 6.84 21.5 6.3 21.76 5.85C22.03 5.39 22.39 5.04 22.84 4.79C23.29 4.54 23.8 4.41 24.36 4.41C24.92 4.41 25.43 4.54 25.88 4.79C26.33 5.04 26.69 5.39 26.95 5.85C27.22 6.31 27.35 6.84 27.35 7.43C27.35 8.02 27.21 8.56 26.94 9.01C26.67 9.47 26.31 9.82 25.85 10.08C25.4 10.33 24.89 10.45 24.32 10.45ZM24.32 9.17C24.59 9.17 24.83 9.11 25.06 8.98C25.3 8.85 25.49 8.65 25.63 8.39C25.77 8.13 25.84 7.81 25.84 7.44C25.84 6.88 25.69 6.46 25.4 6.16C25.11 5.86 24.76 5.71 24.34 5.71C23.92 5.71 23.57 5.86 23.28 6.16C23 6.46 22.86 6.88 22.86 7.44C22.86 8 23 8.43 23.27 8.73C23.55 9.03 23.9 9.17 24.32 9.17Z" fill="white"/>
<path d="M31.28 4.43C31.97 4.43 32.53 4.65 32.96 5.1C33.39 5.54 33.6 6.15 33.6 6.94V10.37H32.13V7.14C32.13 6.68 32.01 6.32 31.78 6.07C31.55 5.82 31.23 5.69 30.84 5.69C30.45 5.69 30.11 5.82 29.88 6.07C29.65 6.32 29.53 6.67 29.53 7.14V10.37H28.06V4.52H29.53V5.25C29.73 5 29.97 4.8 30.27 4.66C30.58 4.51 30.91 4.44 31.28 4.44" fill="white"/>
<path d="M36.1 5.36C36.29 5.08 36.55 4.85 36.88 4.67C37.22 4.49 37.6 4.41 38.02 4.41C38.52 4.41 38.96 4.53 39.36 4.78C39.77 5.03 40.08 5.38 40.31 5.84C40.55 6.29 40.67 6.81 40.67 7.41C40.67 8.01 40.55 8.54 40.31 9C40.08 9.46 39.76 9.81 39.36 10.07C38.96 10.32 38.51 10.45 38.02 10.45C37.59 10.45 37.21 10.37 36.88 10.2C36.56 10.02 36.3 9.8 36.1 9.52V10.35H34.63V2.55H36.1V5.37V5.36ZM39.17 7.41C39.17 7.06 39.1 6.76 38.95 6.5C38.81 6.24 38.62 6.04 38.38 5.91C38.15 5.78 37.9 5.71 37.63 5.71C37.36 5.71 37.11 5.78 36.87 5.92C36.64 6.05 36.45 6.25 36.3 6.51C36.16 6.77 36.09 7.08 36.09 7.43C36.09 7.78 36.16 8.09 36.3 8.35C36.45 8.61 36.64 8.81 36.87 8.95C37.11 9.08 37.36 9.15 37.63 9.15C37.9 9.15 38.15 9.08 38.38 8.94C38.62 8.8 38.81 8.6 38.95 8.34C39.1 8.08 39.17 7.77 39.17 7.41Z" fill="white"/>
<path d="M40.99 7.41C40.99 6.82 41.11 6.29 41.34 5.84C41.58 5.38 41.9 5.03 42.29 4.78C42.7 4.53 43.15 4.41 43.64 4.41C44.07 4.41 44.45 4.5 44.77 4.67C45.1 4.85 45.36 5.07 45.56 5.34V4.51H47.04V10.36H45.56V9.5C45.37 9.77 45.11 10 44.77 10.19C44.44 10.37 44.06 10.45 43.63 10.45C43.14 10.45 42.69 10.32 42.29 10.07C41.89 9.82 41.57 9.46 41.34 9C41.11 8.54 40.99 8 40.99 7.41ZM45.56 7.43C45.56 7.07 45.49 6.76 45.35 6.51C45.21 6.25 45.02 6.05 44.78 5.92C44.54 5.78 44.29 5.71 44.01 5.71C43.73 5.71 43.49 5.78 43.25 5.91C43.02 6.04 42.83 6.24 42.68 6.5C42.54 6.75 42.47 7.06 42.47 7.41C42.47 7.76 42.54 8.07 42.68 8.34C42.83 8.6 43.02 8.8 43.25 8.94C43.49 9.08 43.74 9.15 44.01 9.15C44.28 9.15 44.54 9.08 44.78 8.95C45.02 8.81 45.21 8.61 45.35 8.36C45.49 8.1 45.56 7.79 45.56 7.43Z" fill="white"/>
<path d="M51.33 4.43C52.02 4.43 52.58 4.65 53.01 5.1C53.44 5.54 53.65 6.15 53.65 6.94V10.37H52.18V7.14C52.18 6.68 52.06 6.32 51.83 6.07C51.6 5.82 51.28 5.69 50.89 5.69C50.5 5.69 50.16 5.82 49.93 6.07C49.7 6.32 49.58 6.67 49.58 7.14V10.37H48.11V4.52H49.58V5.25C49.78 5 50.02 4.8 50.32 4.66C50.63 4.51 50.96 4.44 51.33 4.44" fill="white"/>
<path d="M58.11 10.36L56.14 7.87V10.36H54.67V2.55H56.14V6.99L58.09 4.51H60L57.44 7.45L60.02 10.36H58.11Z" fill="white"/>
</g>
<defs>
<clipPath id="clip0_2_2">
<rect width="66" height="13" fill="white"/>
</clipPath>
</defs>
</svg>
