<svg width="24" height="24" viewBox="0 0 24 24" fill="none" xmlns="http://www.w3.org/2000/svg">
<g clip-path="url(#clip0_10228_27669)">
<path d="M12 24C18.6274 24 24 18.6274 24 12C24 5.37258 18.6274 0 12 0C5.37258 0 0 5.37258 0 12C0 18.6274 5.37258 24 12 24Z" fill="black"/>
<path d="M18 8.67477C18 9.00778 18 9.6738 18 10.0068C18 10.3398 18 10.5896 17.4167 10.5896C16.9064 10.5896 16.8327 10.1733 16.7605 9.8403C16.6884 9.50729 16.7605 9.25754 16.6147 9.00778C16.4689 8.75802 16.1044 8.50826 15.6669 8.50826C15.2295 8.50826 14.9378 8.67477 14.5004 9.09103C14.1358 9.59055 14.3545 9.8403 14.6455 10.1733C14.9371 10.5063 15.8127 10.8393 16.1773 11.0891C16.6147 11.4221 17.1251 11.6719 17.4167 12.2546C17.7076 12.9206 17.7076 13.2536 17.7076 14.0862C17.7076 14.9187 17.1244 15.7512 16.4682 16.334C15.8127 16.9159 14.6455 17 13.6976 17C13.2602 17 12.3131 16.8335 11 16.4997C11.0736 15.4174 11.1458 14.6689 11.1458 14.3351C11.2195 13.7523 11.0729 13.4193 11.2195 13.4193C11.6569 13.3369 11.8756 13.6699 12.0944 13.9197C12.3138 14.1694 12.4589 14.4192 12.6047 14.6689C12.7505 14.9187 13.0429 15.0852 13.188 15.335C13.3338 15.5847 14.0629 15.5847 14.2816 15.4182C14.6462 15.1684 15.0844 14.6698 15.0844 14.4192C15.0844 14.1694 15.0107 14.0029 14.574 13.6707C14.2095 13.3377 13.9907 13.1704 13.5533 12.9215C13.1158 12.6717 12.5333 12.0889 12.3146 11.5894C12.0229 11.1732 11.95 10.7569 11.95 10.3406C11.95 9.59138 12.0951 8.6756 12.6791 8.00958C13.2624 7.34356 13.6269 6.9273 15.1573 7.01056C15.8135 7.09381 17.1258 7.51007 17.7827 7.51007C18 8.17526 18 8.25851 18 8.67477Z" fill="white"/>
<path d="M18 8.67477C18 9.00778 18 9.6738 18 10.0068C18 10.3398 18 10.5896 17.4167 10.5896C16.9064 10.5896 16.8327 10.1733 16.7605 9.8403C16.6884 9.50729 16.7605 9.25754 16.6147 9.00778C16.4689 8.75802 16.1044 8.50826 15.6669 8.50826C15.2295 8.50826 14.9378 8.67477 14.5004 9.09103C14.1358 9.59055 14.3545 9.8403 14.6455 10.1733C14.9371 10.5063 15.8127 10.8393 16.1773 11.0891C16.6147 11.4221 17.1251 11.6719 17.4167 12.2546C17.7076 12.9206 17.7076 13.2536 17.7076 14.0862C17.7076 14.9187 17.1244 15.7512 16.4682 16.334C15.8127 16.9159 14.6455 17 13.6976 17C13.2602 17 12.3131 16.8335 11 16.4997C11.0736 15.4174 11.1458 14.6689 11.1458 14.3351C11.2195 13.7523 11.0729 13.4193 11.2195 13.4193C11.6569 13.3369 11.8756 13.6699 12.0944 13.9197C12.3138 14.1694 12.4589 14.4192 12.6047 14.6689C12.7505 14.9187 13.0429 15.0852 13.188 15.335C13.3338 15.5847 14.0629 15.5847 14.2816 15.4182C14.6462 15.1684 15.0844 14.6698 15.0844 14.4192C15.0844 14.1694 15.0107 14.0029 14.574 13.6707C14.2095 13.3377 13.9907 13.1704 13.5533 12.9215C13.1158 12.6717 12.5333 12.0889 12.3146 11.5894C12.0229 11.1732 11.95 10.7569 11.95 10.3406C11.95 9.59138 12.0951 8.6756 12.6791 8.00958C13.2624 7.34356 13.6269 6.9273 15.1573 7.01056C15.8135 7.09381 17.1258 7.51007 17.7827 7.51007C18 8.17526 18 8.25851 18 8.67477Z" fill="white"/>
<path d="M10.9959 7.69328C10.9429 7.98215 10.3061 7.92437 10.147 8.03992C10.0408 8.21324 9.88165 8.50211 9.82859 8.84875C8.87348 13.1817 8.39593 15.3771 8.39593 15.4349C8.39593 15.6082 8.44899 15.8393 8.55511 15.8971C8.66124 16.0126 9.03267 16.186 9.03267 16.4171C9.03267 16.6476 8.60817 16.7059 8.13062 16.8792C7.65307 16.9948 7.54695 17.0526 6.85715 16.937C6.22041 16.8792 5 16.6481 5 16.3015C5 15.9549 5.6898 15.8971 5.79592 15.7238C5.90204 15.5505 6.11429 15.2038 6.22041 14.7994L7.54695 8.84875C7.54695 8.79097 7.75919 8.27101 7.49389 8.03992C7.22858 7.80883 7.01633 7.63551 7.01633 7.46219C7.01633 7.28887 7.38776 7.11555 7.91838 7.05777C8.44899 7 8.76736 7 9.08573 7C9.40409 7 9.72246 7 10.2 7.05777C10.5714 7.23109 11.049 7.34664 10.9959 7.69328Z" fill="white"/>
<path d="M10.9959 7.69328C10.9429 7.98215 10.3061 7.92437 10.147 8.03992C10.0408 8.21324 9.88165 8.50211 9.82859 8.84875C8.87348 13.1817 8.39593 15.3771 8.39593 15.4349C8.39593 15.6082 8.44899 15.8393 8.55511 15.8971C8.66124 16.0126 9.03267 16.186 9.03267 16.4171C9.03267 16.6476 8.60817 16.7059 8.13062 16.8792C7.65307 16.9948 7.54695 17.0526 6.85715 16.937C6.22041 16.8792 5 16.6481 5 16.3015C5 15.9549 5.6898 15.8971 5.79592 15.7238C5.90204 15.5505 6.11429 15.2038 6.22041 14.7994L7.54695 8.84875C7.54695 8.79097 7.75919 8.27101 7.49389 8.03992C7.22858 7.80883 7.01633 7.63551 7.01633 7.46219C7.01633 7.28887 7.38776 7.11555 7.91838 7.05777C8.44899 7 8.76736 7 9.08573 7C9.40409 7 9.72246 7 10.2 7.05777C10.5714 7.23109 11.049 7.34664 10.9959 7.69328Z" fill="white"/>
</g>
<defs>
<clipPath id="clip0_10228_27669">
<rect width="24" height="24" fill="white"/>
</clipPath>
</defs>
</svg>
