<?xml version="1.0" encoding="utf-8"?>
<!-- Generator: Adobe Illustrator 16.0.0, SVG Export Plug-In . SVG Version: 6.00 Build 0)  -->
<!DOCTYPE svg PUBLIC "-//W3C//DTD SVG 1.1//EN" "http://www.w3.org/Graphics/SVG/1.1/DTD/svg11.dtd">
<svg version="1.1" id="Слой_1" xmlns="http://www.w3.org/2000/svg" xmlns:xlink="http://www.w3.org/1999/xlink" x="0px" y="0px"
	 width="100px" height="50px" viewBox="0 0 100 50" enable-background="new 0 0 100 50" xml:space="preserve">
<title>2BDABDD3-17DF-4090-A66C-02A6C2DD821F</title>
<desc>Created with sketchtool.</desc>
<g id="Icons" enable-background="new    ">
	<g id="Artboard" transform="translate(-719.000000, -197.000000)">
		<g id="Group-29" transform="translate(719.000000, 197.000000)">
			<path id="Combined-Shape" fill="#FFFFFF" d="M87.2,17.7c-0.4-0.3-0.8-0.7-1.101-1c-0.5-0.5-0.899-0.8-1.199-0.8
				c-0.7,0-1,0.1-1.301,0.8c-0.3,0.8-0.5,0.8-1,3.1H85.7L87.2,17.7z M83.6,21.6c-0.399,0-0.899,0-1.5,0l-2.5,9.5
				C79.1,33.4,78.3,35.2,77.2,36.4C76.1,37.6,75.4,38.1,73.9,38.1s-1.4,0-2-0.3c-0.7-0.3-1.2-0.6-1.2-1.2c0-0.5,0-1.1,0.2-1.399
				c0.199-0.3,0.899-0.5,1.3-0.4c0.399,0.101,1.1,0.5,1.3,0.8c0.2,0.301,0.7,0.5,1,0.5s0.4-0.3,0.6-0.8c0.2-0.5,0.4-1.2,0.5-2.1
				c1.601-7,2.301-10.7,2.301-11c0-0.3-0.301-0.6-0.9-1.1c-0.2-0.3-0.4-0.5-0.4-0.7c0-0.2,0.4-0.4,0.4-0.4c0.9-0.1,1.2,0.1,1.5,0
				s0.4-0.5,0.4-0.6c0.5-1.9,0.399-2.6,1.699-4c1.301-1.4,3-1.5,4.801-1.5c0.699,0,1.399,0.1,2,0.6c0.399,0.4,1,1.3,1.399,2
				c0.3,0.1,0.9,0.3,1.3,0.3c0.5,0.1,0.101,0.9,0.101,1l-1,1.7c0.1,0.3,0.2,0.4,0.3,0.5c0.2,0.1,0.4,0.2,0.7,0.2
				c0.1,0,0.5,0,0.5,0.1c0,0.1,0.2,0.4,0.2,0.4c0,0.2,0,0.3-0.2,0.5c-0.101,0.2-0.7,0.2-0.8,0.2c-0.7,0.2-1.2,0.3-1.301,0.5
				c-0.1,0.2-0.6,2.1-1.3,5.8c-0.1,0.2-0.2,0.399,0,0.5c0.2,0.1,0.3-0.101,0.4-0.101c0.1,0,0.899,0,1.3,0.2
				c0.2,0.101,0.1,0.601,0.1,0.7s-0.199,0.5-0.5,1.1C88.2,30.7,87.8,31,87.3,31.3s-1,0.4-1.6,0.4c-0.7,0-1.101,0-1.8-0.7
				c-0.7-0.6-0.601-1.5-0.5-2.5l1.699-6.6L83.6,21.6z M19.9,15.6c-0.1,0.5-1.3,0.4-1.6,0.6c-0.2,0.3-0.5,0.8-0.6,1.4
				C15.9,25.1,15,28.9,15,29c0,0.3,0.1,0.7,0.3,0.8c0.2,0.2,0.9,0.5,0.9,0.9c0,0.399-0.8,0.5-1.7,0.8c-0.9,0.2-1.1,0.3-2.4,0.1
				c-1.2-0.1-3.5-0.5-3.5-1.1s1.3-0.7,1.5-1c0.2-0.3,0.6-0.9,0.8-1.6l2.5-10.3c0-0.1,0.4-1-0.1-1.4c-0.5-0.4-0.9-0.7-0.9-1
				c0-0.3,0.7-0.6,1.7-0.7s1.6-0.1,2.2-0.1c0.6,0,1.2,0,2.1,0.1C19.1,14.8,20,15,19.9,15.6z M42,22.2L42,22.2
				c0.6-0.8,1.2-1.2,2.3-1.8c1.1-0.6,2.1-0.6,3.3-0.6c1.7,0,2.5,0.5,3.4,1.1c0.9,0.7,1.4,1.4,1.5,2.6c0.1,0.9,0.1,1.9-0.2,2.9
				c-0.3,1-0.6,1.8-1.2,2.5c-0.6,0.8-1.399,1.399-2.2,2c-0.8,0.5-1.6,0.6-2.9,0.8c-1.4,0.1-3-0.4-3.8-1.101
				c-0.9-0.699-1.4-1.6-1.5-2.8c-0.1-1-0.1-2.3,0.2-3.2c0-0.1,0.1-0.2,0.1-0.4c-0.1-0.3-0.2-0.6-0.4-0.6c-0.3,0-0.8,0.1-1.2,0
				s-0.7-0.1-0.9-0.1c-0.5,0-1.5,1.7-2.1,2.8c-0.6,1.101-1.1,2.9-1.8,4.9c0,0.1-0.8,0.399-1.3,0.5c-0.5,0.1-1,0-1.2,0
				c-0.5-0.2-0.8-0.3-0.9-0.5c-0.2-0.2-0.2-1.7,0-2.3c0.5-1.9,1.4-3.8,1.3-4.5c-0.3-1.2-1.7-1.3-1.8-1.3c-0.1,0-0.2,0-0.3-0.1
				l-1.7,0.1c0,1.9-0.5,3.3-1.5,4.1c-1.1,0.8-2.5,1.3-4.4,1.3c-0.5,0-0.2,0.6,0.6,0.8c0.8,0.3,1.3,0.3,1.9,0.4
				c0.8,0.2,1.5,0.5,2.2,1s1.1,1.5,1.1,2.3c0,1.2-0.9,2.6-2.2,3.5c-1.3,0.9-2.7,1.3-4.1,1.3c-1.8,0-3.1-0.5-4.2-1.1
				C17,36.1,16.4,35.5,16.4,34.6c0-0.899,0.1-1.5,0.6-1.899c0.5-0.4,0.8-0.9,1.9-1.4c-0.3-0.6-0.4-0.6-0.6-1.1
				c-0.2-0.601-0.4-1,0.2-1.601c0.6-0.6,0.7-0.6,1.6-1.3c-0.7-0.3-1.3-2.3-1.3-3c0-1.5,0.3-2.3,1.6-3.5c1.3-1.2,2.4-1.1,3.8-1.1
				c1,0,2.1,0.5,2.7,0.8c0.4,0,0.8-0.3,1.2-0.4c0.2-0.1,0.6-0.2,1-0.4c0.1,0,2,1.2,2.1,1.3c0,0,0,0.1,0.1,0.1l0.1-0.1
				c0.9-0.8,1.7-1.3,2.6-1.3c0.7,0,1.3,0.2,1.7,0.5c0.4,0.4,0.3,0.7,0.3,1.4c0,0.1,0.5,0.4,0.4,0.5c0.3-0.3,0.7-0.7,1.1-1.2
				c0.6-0.8,1.6-1.3,2.2-1.3c0.6,0,1.1,0.4,1.4,0.8C41.5,20.9,41.8,21.6,42,22.2z M25.5,22.7c0.1-0.3,0-0.5,0-0.7
				c-0.1-0.2-0.2-0.3-0.4-0.4c-0.4-0.1-0.9,0.3-1.6,1.2c-0.7,0.9-1.1,1.8-1.3,2.9c-0.1,0.3,0,0.5,0,0.7c0.1,0.199,0.2,0.3,0.5,0.399
				c0.5,0.101,1.1-0.3,1.7-1.2C24.9,24.6,25.3,23.7,25.5,22.7z M25,34c0-0.6-0.4-1-1.1-1.3c-0.8-0.2-0.9-0.2-2.2-0.2
				c-0.6,0.2-1.4,0.6-1.8,0.9c-0.3,0.3-0.8,0.699-0.8,1c0,0.3,0.2,0.8,0.7,1.1c0.5,0.4,1.1,0.4,2.1,0.4c0.9,0,1.5-0.4,2-0.801
				C24.5,34.9,25,34.5,25,34z M47.6,21.6c-0.4,0-0.8,0.3-1.3,0.8c-0.4,0.5-0.7,1.3-1.1,2.2c-0.4,0.8-0.5,1.4-0.7,2.6
				s0.1,2.6,0.3,2.8c0.2,0.2,0.6,0.2,0.8,0.2c0.5-0.101,0.8-0.3,1.3-0.9c0.5-0.6,0.6-0.899,1-1.7c0.4-0.8,0.6-1.6,0.7-2.7
				C48.6,23.7,48.3,21.6,47.6,21.6z M62.7,21.7c0,0.4,0,1.2,0,1.6c0,0.4,0,0.7-0.8,0.7c-0.7,0-0.801-0.5-0.9-0.9s0-0.7-0.2-1
				c-0.2-0.3-0.7-0.6-1.3-0.6s-1,0.2-1.6,0.7c-0.5,0.6-0.2,0.9,0.199,1.3c0.4,0.4,1.601,0.8,2.101,1.1c0.6,0.4,1.3,0.7,1.7,1.4
				c0.399,0.8,0.399,1.2,0.399,2.2s-0.8,2-1.7,2.7c-0.899,0.699-2.5,0.8-3.8,0.8c-0.6,0-1.899-0.2-3.7-0.601
				c0.101-1.3,0.2-2.199,0.2-2.6c0.101-0.7-0.1-1.1,0.101-1.1C54,27.3,54.3,27.7,54.6,28c0.301,0.3,0.5,0.6,0.7,0.9
				c0.2,0.3,0.601,0.5,0.8,0.8c0.2,0.3,1.2,0.3,1.5,0.1c0.5-0.3,1.101-0.899,1.101-1.2c0-0.3-0.101-0.5-0.7-0.899
				c-0.5-0.4-0.8-0.601-1.4-0.9c-0.6-0.3-1.399-1-1.699-1.6c-0.4-0.5-0.5-1-0.5-1.5c0-0.9,0.199-2,1-2.8c0.8-0.8,1.3-1.3,3.399-1.2
				c0.9,0.1,2.7,0.6,3.601,0.6C62.7,21.1,62.7,21.2,62.7,21.7z M75.1,24.1c0,0.9-0.1,2.4-0.399,3.3C74.4,28.3,73.6,29.3,73,29.9
				c-0.7,0.699-1.4,1-2.2,1.5C70,31.8,68.9,32,67.5,31.9c-1.4-0.101-2.3-0.9-3.1-1.7C63.6,29.4,63.3,28.5,63.3,27.4
				c0-0.9,0.2-1.801,0.5-2.601s0.8-1.6,1.5-2.4c0.601-0.7,1.4-1.3,2.3-1.7c0.9-0.4,1.9-0.7,3.101-0.7c1.3,0,2.399,0.4,3.1,1.1
				C74.5,21.8,75.1,23,75.1,24.1z M71.2,22.1c-0.101-0.4-0.2-0.5-0.4-0.5c-0.399,0-1,0.4-1.5,0.9C68.9,23,68.4,23.5,68,24.3
				c-0.4,0.8-0.6,1.601-0.8,2.4s0,2.8,0.1,3c0.101,0.2,0.3,0.5,0.601,0.5c0.399,0,1-0.3,1.5-0.8s0.899-1.2,1.3-2
				c0.3-0.801,0.5-1,0.6-2.101C71.3,24,71.3,22.5,71.2,22.1z M50,0c33.1,0,50,13.2,50,25S80.2,50,50.4,50C20.6,50,0.1,37.6,0,25
				C-0.1,12.4,16.9,0,50,0z M50.2,3.4c-31.6,0-48.4,12-48.1,22.3C2.4,36,21.7,46.5,50.2,46.5S97.7,34.8,97.7,25S81.9,3.4,50.2,3.4z
				 M97.6,7.7C98.1,7.1,98.4,6.3,98.4,5.4l0,0c0-2-1.601-3.6-3.601-3.6c-0.8,0-1.5,0.3-2.1,0.7c2.8-0.2,4.2,0.4,4.2,1.7
				c0,1.3-0.4,0.8-0.4,1.9C96.5,6.6,96.9,7.2,97.6,7.7z M96.3,8.8C95.9,8.1,95.6,7.7,95.4,7.4C95.1,7.1,94.8,6.9,94.3,6.5
				c-0.2,0.6-0.3,1-0.399,1.3C93.8,8.1,93.6,8.3,93.3,8.7C93.8,9,94.4,9.1,95,9.1C95.3,9.1,95.8,9,96.3,8.8z M91.8,7.5
				c0.3-0.3,0.5-0.8,0.5-1.3c0.101-0.6,0-1.7-0.2-3.2c-0.6,0.6-1,1.5-1,2.5l0,0C91.1,6.2,91.4,6.9,91.8,7.5z M94.8,0
				c2.9,0,5.2,2.3,5.2,5.2l0,0c0,2.9-2.3,5.2-5.2,5.2c-2.899,0-5.2-2.3-5.2-5.2l0,0C89.6,2.3,91.9,0,94.8,0z M94.1,3.9V5
				C94.7,4.9,95,4.7,95,4.3C95,3.9,94.7,3.8,94.1,3.9z"/>
		</g>
	</g>
</g>
</svg>
