<?xml version="1.0" encoding="utf-8"?>
<!-- Generator: Adobe Illustrator 26.0.1, SVG Export Plug-In . SVG Version: 6.00 Build 0)  -->
<svg version="1.1" id="layer" xmlns="http://www.w3.org/2000/svg" xmlns:xlink="http://www.w3.org/1999/xlink" x="0px" y="0px"
	 viewBox="0 0 98.8 45" style="enable-background:new 0 0 98.8 45;" xml:space="preserve">
<style type="text/css">
	.st0{fill:url(#SVGID_1_);}
	.st1{fill:url(#SVGID_00000117674625587191088190000004737656770768531641_);}
	.st2{fill:url(#SVGID_00000090254718298405904880000007784601052427693191_);}
	.st3{fill:url(#SVGID_00000116205886740080641180000016690605430002687890_);}
	.st4{fill:url(#SVGID_00000106867732998131152310000011039612868420294805_);}
</style>
<g>
	<g>
		
			<linearGradient id="SVGID_1_" gradientUnits="userSpaceOnUse" x1="22.4" y1="-671.2684" x2="22.4" y2="-716.4385" gradientTransform="matrix(1 0 0 -1 0 -666.3241)">
			<stop  offset="0" style="stop-color:#00CFC4"/>
			<stop  offset="0.1896" style="stop-color:#01CCC4"/>
			<stop  offset="0.3562" style="stop-color:#02C1C5"/>
			<stop  offset="0.5142" style="stop-color:#05AFC7"/>
			<stop  offset="0.6669" style="stop-color:#0996CA"/>
			<stop  offset="0.8158" style="stop-color:#0E75CD"/>
			<stop  offset="0.9599" style="stop-color:#144DD1"/>
			<stop  offset="1" style="stop-color:#1641D2"/>
		</linearGradient>
		<path class="st0" d="M21.9,42.4c10,0,18.2-7.7,19-17.4c0.6-0.2,1-0.7,1-1.4c0-0.6-0.4-1.1-0.9-1.4c-0.6-10-8.9-18-19-18
			c-5.1,0-9.7,2-13.2,5.3C8.6,9.4,8.4,9.4,8.2,9.4c-0.8,0-1.4,0.6-1.4,1.4c0,0.3,0.1,0.5,0.2,0.7c-2.5,3.2-4.1,7.3-4.1,11.7
			c0,1.7,0.2,3.4,0.7,5c-0.1,0.1-0.2,0.3-0.2,0.5c0,0.5,0.4,0.9,0.9,0.9s0.9-0.4,0.9-0.9c0-0.4-0.2-0.7-0.5-0.8
			c-0.4-1.5-0.6-3.2-0.6-4.8c0-4.2,1.4-8,3.8-11.1c0.1,0.1,0.3,0.1,0.5,0.1c0.8,0,1.4-0.6,1.4-1.4c0-0.2-0.1-0.4-0.1-0.6
			c3.2-3.1,7.6-5,12.4-5c9.6,0,17.4,7.5,18,17c-0.5,0.2-0.9,0.7-0.9,1.3s0.4,1.1,0.9,1.3c-0.8,9.2-8.6,16.4-18,16.4
			c-3,0-6-0.7-8.6-2.2c0-0.5-0.4-0.8-0.9-0.8s-0.9,0.4-0.9,0.9s0.4,0.9,0.9,0.9c0.1,0,0.3,0,0.4-0.1l-0.1,0.1
			C15.6,41.6,18.7,42.4,21.9,42.4z M8.2,11.7c-0.4,0-0.8-0.3-0.8-0.8c0-0.4,0.3-0.8,0.8-0.8c0.4,0,0.8,0.3,0.8,0.8
			C9,11.3,8.6,11.7,8.2,11.7z M39.7,23.6c0-0.4,0.3-0.8,0.8-0.8c0.4,0,0.8,0.3,0.8,0.8c0,0.4-0.3,0.8-0.8,0.8S39.7,24,39.7,23.6z"/>
		
			<linearGradient id="SVGID_00000147182805262473509920000012818906234987596180_" gradientUnits="userSpaceOnUse" x1="21.95" y1="-671.2684" x2="21.95" y2="-716.4383" gradientTransform="matrix(1 0 0 -1 0 -666.3241)">
			<stop  offset="0" style="stop-color:#00CFC4"/>
			<stop  offset="0.1896" style="stop-color:#01CCC4"/>
			<stop  offset="0.3562" style="stop-color:#02C1C5"/>
			<stop  offset="0.5142" style="stop-color:#05AFC7"/>
			<stop  offset="0.6669" style="stop-color:#0996CA"/>
			<stop  offset="0.8158" style="stop-color:#0E75CD"/>
			<stop  offset="0.9599" style="stop-color:#144DD1"/>
			<stop  offset="1" style="stop-color:#1641D2"/>
		</linearGradient>
		<path style="fill:url(#SVGID_00000147182805262473509920000012818906234987596180_);" d="M43.9,23.3c0-3.9-1-7.5-2.8-10.7
			c0-0.1,0.1-0.2,0.1-0.4c0-0.5-0.4-0.9-0.9-0.9s-0.9,0.4-0.9,0.9s0.4,0.8,0.8,0.9l0,0c1.7,3,2.6,6.4,2.6,10.1
			c0,5.5-2.1,10.5-5.6,14.2c-0.2-0.1-0.4-0.1-0.6-0.1c-0.8,0-1.4,0.6-1.4,1.4c0,0.2,0,0.4,0.1,0.5c-3.6,3-8.3,4.9-13.4,4.9
			s-9.9-1.9-13.5-5c0.1-0.2,0.1-0.4,0.1-0.6c0-0.8-0.6-1.4-1.4-1.4c-0.2,0-0.4,0.1-0.6,0.1C3.1,33.5,1,28.5,1,23.1
			C1,12.4,9.1,3.5,19.5,2.3C19.8,2.7,20.2,3,20.7,3c0.6,0,1.1-0.4,1.3-0.9c3.1,0,6.1,0.7,8.8,2l0,0c0,0.5,0.4,0.9,0.9,0.9
			s0.9-0.4,0.9-0.9s-0.4-0.9-0.9-0.9c-0.1,0-0.2,0-0.2,0c-2.8-1.4-6-2.2-9.4-2.2c-0.2-0.6-0.7-1-1.4-1s-1.3,0.5-1.4,1.2
			C8.4,2.5,0,11.8,0,23c0,5.7,2.2,10.9,5.8,14.8c-0.1,0.2-0.1,0.4-0.1,0.6c0,0.8,0.6,1.4,1.4,1.4c0.2,0,0.4,0,0.6-0.1
			C11.5,43,16.5,45,21.9,45c5.3,0,10.3-1.9,14.1-5.1c0.2,0.1,0.4,0.2,0.7,0.2c0.8,0,1.4-0.6,1.4-1.4c0-0.2,0-0.4-0.1-0.6
			C41.6,34.4,43.9,29.1,43.9,23.3z M20.7,1.1c0.4,0,0.8,0.3,0.8,0.8c0,0.4-0.3,0.8-0.8,0.8c-0.4,0-0.8-0.3-0.8-0.8
			C20,1.4,20.3,1.1,20.7,1.1z M7.1,39.5c-0.4,0-0.8-0.3-0.8-0.8c0-0.4,0.3-0.8,0.8-0.8c0.4,0,0.8,0.3,0.8,0.8
			C7.9,39.1,7.5,39.5,7.1,39.5z M36.7,39.6c-0.4,0-0.8-0.3-0.8-0.8c0-0.4,0.3-0.8,0.8-0.8c0.4,0,0.8,0.3,0.8,0.8
			C37.4,39.3,37.1,39.6,36.7,39.6z"/>
		
			<linearGradient id="SVGID_00000001644896528422364130000001692319301365446796_" gradientUnits="userSpaceOnUse" x1="22" y1="-671.2682" x2="22" y2="-716.4386" gradientTransform="matrix(1 0 0 -1 0 -666.3241)">
			<stop  offset="0" style="stop-color:#00CFC4"/>
			<stop  offset="0.1896" style="stop-color:#01CCC4"/>
			<stop  offset="0.3562" style="stop-color:#02C1C5"/>
			<stop  offset="0.5142" style="stop-color:#05AFC7"/>
			<stop  offset="0.6669" style="stop-color:#0996CA"/>
			<stop  offset="0.8158" style="stop-color:#0E75CD"/>
			<stop  offset="0.9599" style="stop-color:#144DD1"/>
			<stop  offset="1" style="stop-color:#1641D2"/>
		</linearGradient>
		<path style="fill:url(#SVGID_00000001644896528422364130000001692319301365446796_);" d="M8.6,33.1c0.1,0,0.2,0,0.3,0
			c3,4,7.7,6.5,13,6.5c2.5,0,4.9-0.6,7.1-1.7c0.1,0.1,0.2,0.1,0.4,0.1c0.5,0,0.9-0.4,0.9-0.9s-0.4-0.9-0.9-0.9
			c-0.4,0-0.8,0.3-0.8,0.7c-2.1,1-4.3,1.5-6.7,1.5c-4.9,0-9.4-2.4-12.1-6.1c0.2-0.2,0.3-0.5,0.3-0.9c0-0.8-0.6-1.4-1.4-1.4
			c-0.1,0-0.2,0-0.3,0c-1-2.1-1.6-4.4-1.6-6.9c0-8.4,6.8-15.2,15.2-15.2c3,0,5.8,0.9,8.2,2.4c0,0.1-0.1,0.2-0.1,0.4
			c0,0.8,0.6,1.4,1.4,1.4c0.3,0,0.5-0.1,0.7-0.2c3,2.8,4.9,6.8,4.9,11.2c0,2.1-0.4,4.2-1.3,6.1c-0.4,0.1-0.7,0.4-0.7,0.8
			c0,0.5,0.4,0.9,0.9,0.9s0.9-0.4,0.9-0.9c0-0.1,0-0.2-0.1-0.4c0.9-2.1,1.4-4.3,1.4-6.6c0-4.7-2-9-5.3-12c0.1-0.1,0.1-0.3,0.1-0.5
			c0-0.8-0.6-1.4-1.4-1.4c-0.3,0-0.6,0.1-0.8,0.2c-2.5-1.6-5.6-2.6-8.8-2.6C13,6.7,5.8,14,5.8,22.9c0,2.7,0.7,5.2,1.8,7.4
			c-0.2,0.2-0.3,0.5-0.3,0.9C7.2,32.4,7.8,33.1,8.6,33.1z M8.6,30.9c0.4,0,0.8,0.3,0.8,0.8c0,0.4-0.3,0.8-0.8,0.8
			c-0.4,0-0.8-0.3-0.8-0.8C7.9,31.2,8.2,30.9,8.6,30.9z M31.5,10.2c0.4,0,0.8,0.3,0.8,0.8c0,0.4-0.3,0.8-0.8,0.8
			c-0.4,0-0.8-0.3-0.8-0.8C30.8,10.5,31.1,10.2,31.5,10.2z"/>
	</g>
	
		<linearGradient id="SVGID_00000098923448137724706900000000024225755132166589_" gradientUnits="userSpaceOnUse" x1="12.9575" y1="-680.9404" x2="40.1286" y2="-705.6534" gradientTransform="matrix(1 0 0 -1 0 -666.3241)">
		<stop  offset="0" style="stop-color:#00CFC4"/>
		<stop  offset="0.1896" style="stop-color:#01CCC4"/>
		<stop  offset="0.3562" style="stop-color:#02C1C5"/>
		<stop  offset="0.5142" style="stop-color:#05AFC7"/>
		<stop  offset="0.6669" style="stop-color:#0996CA"/>
		<stop  offset="0.8158" style="stop-color:#0E75CD"/>
		<stop  offset="0.9599" style="stop-color:#144DD1"/>
		<stop  offset="1" style="stop-color:#1641D2"/>
	</linearGradient>
	<path style="fill:url(#SVGID_00000098923448137724706900000000024225755132166589_);" d="M20.4,27.2c-0.8-1.4-0.9-6.3,0.1-7.8
		c1-1.6,4.6-1.7,4.7,1.6h3.6c-0.2-2.6-1.7-4.3-3.7-5v-2.4h-1.9v2c-0.5,0-1,0-1.5,0v-2h-1.9v2.5c-5.1,2.2-4.8,12.4,0,14.4v2.4h1.9V31
		c0.5,0.1,1,0.1,1.5,0v1.9h1.9v-2.3c2.2-0.7,3.6-2.5,3.7-4.9h-3.6C25,29,21.3,28.8,20.4,27.2z"/>
</g>
<linearGradient id="SVGID_00000073690352042370916660000009046132633865415068_" gradientUnits="userSpaceOnUse" x1="74.4" y1="-58.0925" x2="74.4" y2="-39.4529" gradientTransform="matrix(1 0 0 -1 0 -26.3102)">
	<stop  offset="0.3331" style="stop-color:#0996CA"/>
	<stop  offset="0.4858" style="stop-color:#05AFC7"/>
	<stop  offset="0.6438" style="stop-color:#02C1C5"/>
	<stop  offset="0.8104" style="stop-color:#01CCC4"/>
	<stop  offset="1" style="stop-color:#00CFC4"/>
</linearGradient>
<path style="fill:url(#SVGID_00000073690352042370916660000009046132633865415068_);" d="M51.4,21.3c-0.9-0.9-1.3-2-1.3-3.4
	c0-1.3,0.4-2.5,1.3-3.4s2-1.4,3.4-1.4c1.7,0,3.1,0.8,3.9,2.2l-1.5,0.9c-0.5-0.8-1.3-1.3-2.4-1.3c-0.9,0-1.6,0.3-2.2,0.8
	c-0.5,0.6-0.8,1.3-0.8,2.2s0.3,1.6,0.8,2.1c0.5,0.6,1.3,0.8,2.2,0.8c1,0,1.9-0.5,2.4-1.3l1.5,0.9c-0.8,1.3-2.3,2.1-3.9,2.1
	C53.4,22.6,52.3,22.2,51.4,21.3z M64.8,19c1.1-0.5,1.8-1.5,1.8-2.7c0-0.8-0.3-1.5-0.9-2.1c-0.6-0.6-1.3-0.9-2.1-0.9H60v9.1h1.8v-3.2
	h1.4l1.8,3.2h1.9L64.8,19z M63.5,17.7h-1.8V15h1.8c0.7,0,1.2,0.6,1.2,1.3C64.7,17.1,64.2,17.7,63.5,17.7z M74.8,13.3l-3.1,5.6v3.6
	h-1.8v-3.6l-3.1-5.6h2l2,3.8l2-3.8H74.8z M81.3,14.2c-0.6-0.6-1.3-0.9-2.2-0.9h-3.4v9.1h1.8v-3h1.6c0.9,0,1.6-0.3,2.2-0.9
	c0.6-0.6,0.9-1.3,0.9-2.2C82.2,15.5,81.9,14.8,81.3,14.2z M79.1,17.8h-1.6V15h1.6c0.8,0,1.3,0.6,1.3,1.4
	C80.4,17.2,79.8,17.8,79.1,17.8z M89.2,13.3V15h-2.5v7.4h-1.8V15h-2.4v-1.7H89.2z M97.4,14.5c-0.9-0.9-2-1.4-3.4-1.4
	c-1.3,0-2.4,0.5-3.4,1.4c-0.9,0.9-1.4,2-1.4,3.4c0,1.3,0.5,2.4,1.4,3.4c0.9,0.9,2,1.4,3.4,1.4c1.3,0,2.4-0.5,3.4-1.4
	c0.9-0.9,1.4-2,1.4-3.4C98.8,16.6,98.3,15.4,97.4,14.5z M96.1,20c-0.6,0.6-1.3,0.8-2.1,0.8c-0.8,0-1.5-0.3-2.1-0.8
	c-0.6-0.5-0.8-1.3-0.8-2.1c0-0.9,0.3-1.6,0.8-2.2c0.6-0.6,1.3-0.8,2.1-0.8c0.8,0,1.5,0.3,2.1,0.8c0.6,0.6,0.8,1.3,0.8,2.2
	C97,18.8,96.7,19.5,96.1,20z M51,30.8c-0.7-0.7-1-1.5-1-2.5s0.3-1.8,1-2.5s1.5-1,2.5-1c1.2,0,2.3,0.6,2.9,1.6l-1.1,0.7
	c-0.3-0.6-1-1-1.7-1s-1.2,0.2-1.6,0.6c-0.4,0.4-0.6,0.9-0.6,1.6c0,0.6,0.2,1.2,0.6,1.6c0.4,0.4,0.9,0.6,1.6,0.6
	c0.8,0,1.4-0.4,1.7-0.9l1.1,0.7c-0.6,1-1.7,1.6-2.9,1.6C52.5,31.8,51.7,31.4,51,30.8z M57.9,31.2c-0.5-0.4-0.7-1-0.7-1.7V25h1.3v4.4
	c0,0.7,0.4,1.1,1.2,1.1c0.9,0,1.2-0.4,1.2-1.1V25h1.3v4.5c0,0.7-0.2,1.3-0.7,1.7s-1.1,0.6-1.8,0.6C59,31.8,58.4,31.6,57.9,31.2z
	 M67.1,29.1c0.8-0.4,1.3-1.1,1.3-2c0-0.6-0.2-1.1-0.7-1.6c-0.4-0.4-1-0.7-1.6-0.7h-2.7v6.7h1.3v-2.3h1l1.3,2.3h1.4L67.1,29.1z
	 M66.2,28.2h-1.4v-2h1.4c0.5,0,0.9,0.4,0.9,1S66.7,28.2,66.2,28.2z M73,29.1c0.8-0.4,1.3-1.1,1.3-2c0-0.6-0.2-1.1-0.7-1.6
	c-0.4-0.4-1-0.7-1.6-0.7h-2.7v6.7h1.3v-2.3h1l1.3,2.3h1.4L73,29.1z M72,28.2h-1.4v-2H72c0.5,0,0.9,0.4,0.9,1S72.5,28.2,72,28.2z
	 M76.6,30.4h2.8v1.3h-4.1V25h4.1v1.3h-2.8v1.4h2.5v1.2h-2.5V30.4z M84.2,25h1.3v6.7h-1l-2.9-4.1v4.1h-1.3V25h1l2.9,4.1V25z
	 M87.4,30.8c-0.7-0.7-1-1.5-1-2.5s0.3-1.8,1-2.5s1.5-1,2.5-1c1.2,0,2.3,0.6,2.9,1.6l-1.1,0.7c-0.3-0.6-1-1-1.7-1s-1.2,0.2-1.6,0.6
	c-0.4,0.4-0.6,0.9-0.6,1.6c0,0.6,0.2,1.2,0.6,1.6c0.4,0.4,0.9,0.6,1.6,0.6c0.8,0,1.4-0.4,1.7-0.9l1.1,0.7c-0.6,1-1.7,1.6-2.9,1.6
	C88.9,31.8,88.1,31.4,87.4,30.8z M98.8,25l-2.3,4.1v2.6h-1.3v-2.6L92.9,25h1.5l1.5,2.8l1.5-2.8H98.8z"/>
</svg>
