<svg width="310" height="212" viewBox="0 0 310 212" fill="none" xmlns="http://www.w3.org/2000/svg">
<path d="M287.1 27.288C287 27.088 286.9 26.888 286.9 26.788C286 23.888 284.8 21.088 283.4 18.488C268 -9.71196 224.1 0.688032 181.6 29.888C180.4 30.688 179.9 32.288 180.5 33.688L191.5 50.988C192.5 52.688 194.7 53.288 196.4 52.288C196.6 52.188 196.7 52.088 196.9 51.988C229.4 26.088 267 12.388 282.8 24.488C283.4 24.888 283.8 25.588 284 26.288C285.8 31.288 286.9 36.588 287.2 41.888C287.2 41.988 287.2 41.988 287.2 42.088C287.2 42.688 287.2 43.388 287.2 43.988C287.2 44.388 287.2 44.888 287.2 45.288C287.2 45.488 287.2 45.788 287.2 46.088C285.5 85.488 231.6 99.088 198.7 66.688C200.5 68.588 202.4 70.288 204.4 71.888C201.5 69.588 198.8 67.088 196.3 64.388L196.1 64.088C179.3 42.988 177.5 32.488 167 21.688C127.8 -16.412 73.4 -0.611969 37.8 40.388C33.2 45.488 29.0001 50.988 25.4001 56.788C24.7001 57.788 24.1001 58.888 23.4001 59.988L23.8 59.488C23.4 60.188 23 60.888 22.7 61.488C22.1 62.488 21.6001 63.488 21.1001 64.588C15.0001 76.988 13.2001 89.388 17.1001 99.888C27.4001 127.688 73.1 132.388 119.2 110.388C130.5 104.988 135.9 102.088 144.8 94.988C147.8 92.588 147.9 83.788 145.7 80.688L138.6 71.888C137.4 69.988 134.1 69.788 132.4 71.288C128.2 74.888 127.2 75.888 123.9 78.588C83.6001 111.888 40.2001 122.888 26.9001 103.188C26.7001 102.888 26.5 102.588 26.3 102.188C26.1 101.788 25.8 101.488 25.6 101.088C25.8 101.488 26.1 101.788 26.3 102.188C22.9 96.088 21.0001 89.188 20.9001 82.188C21.0001 72.988 25.1 62.188 30.5 52.788C30.7 52.488 30.9 52.188 31.1 51.988C42.9001 40.888 66.7 23.688 97.7 27.588C129.7 31.588 134.9 72.588 182.3 96.788C215.6 113.788 265.3 105.988 285.6 80.488L285.2 80.988C296.1 67.388 298.9 49.288 287.1 27.288ZM19.6001 71.188C19.7001 70.488 19.8 69.888 20 69.188C19.8 69.888 19.7001 70.588 19.6001 71.188Z" fill="white"/>
<path d="M53.6 158.088C53.3 157.988 53 157.888 52.7 157.788C50.4 157.188 44.7 156.988 42.9 158.488L42.8 158.588C42.5 158.888 42.2 159.188 42.1 159.588C36.8 166.688 31.8 174.088 27.3 181.688L13.5 159.588L13.4 159.488C13.2 159.088 13 158.788 12.6 158.488L12.5 158.388C10.9 157.088 6.1 157.088 3.5 157.588C2.9 157.688 2.3 157.788 1.7 157.988C0.700005 158.388 0 159.388 0 160.588V207.188C0 208.088 0.400003 209.788 3.3 210.188C4.3 210.288 5.2 210.388 6.2 210.388C8.2 210.388 12.4 210.388 12.4 207.188V180.288C13.3 181.688 15 184.488 16.9 187.988C19.5 192.888 21.3 195.988 22.2 197.488L22.7 198.488C24.1 200.788 26.9 201.788 29.4 201.088C29.8 200.988 30.2 200.788 30.5 200.488C31.3 199.988 31.9 199.288 32.5 198.588L33.7 196.488C34.3 195.488 35.6 192.988 37.8 188.888C39.9 184.888 41.6 181.888 42.7 180.088C44.4 177.288 42.7 185.088 42.7 185.388V207.088C42.7 210.288 46.9 210.288 48.9 210.288C50.9 210.288 55.1 210.288 55.1 207.088V160.488C55.3 159.588 54.6 158.588 53.6 158.088Z" fill="white"/>
<path d="M68.7001 176.588C64.7001 176.588 64.2001 177.288 64.2001 178.088V207.888C64.2001 208.688 64.7001 209.388 68.7001 209.388C72.7001 209.388 73.2001 208.688 73.2001 207.888V178.088C73.2001 177.288 72.7001 176.588 68.7001 176.588Z" fill="white"/>
<path d="M68.7 210.988C66.7 210.988 62.5 210.988 62.5 207.788V177.988C62.5 174.788 66.7 174.788 68.7 174.788C70.7 174.788 74.9 174.788 74.9 177.988V207.788C74.9 210.988 70.7 210.988 68.7 210.988ZM65.9 207.388C66.8 207.588 67.8 207.688 68.7 207.588C69.6 207.588 70.6 207.588 71.5 207.388V178.488C70.6 178.288 69.6 178.188 68.7 178.288C67.8 178.288 66.8 178.288 65.9 178.488V207.388Z" fill="white"/>
<path d="M114.1 159.788H88.2001C85.5001 159.888 84.1001 160.088 84.1001 161.288V207.888C84.1001 208.688 84.6001 209.388 88.6001 209.388C92.6001 209.388 93.1001 208.688 93.1001 207.888V188.688H111.6C113 188.688 114 187.088 114 184.588C114 182.088 113.1 180.488 111.6 180.488H93.1001V168.188H114.2C115.6 168.188 116.6 166.588 116.6 164.088C116.6 161.588 115.5 159.788 114.1 159.788Z" fill="white"/>
<path d="M88.5 210.988C86.5 210.988 82.3 210.988 82.3 207.788V161.188C82.3 158.188 85.8001 158.088 88.1001 157.988H114.1C116 157.988 118.1 159.488 118.1 163.788C118.1 168.088 115.9 169.588 114.1 169.588H94.7V178.488H111.5C113.4 178.488 115.6 179.988 115.6 184.288C115.6 188.588 113.4 190.088 111.5 190.088H94.7V207.588C94.7 210.988 90.5 210.988 88.5 210.988ZM85.7 207.388C87.5 207.688 89.4 207.688 91.2 207.388V186.888H111.4C111.6 186.788 112.1 186.088 112.1 184.488C112.1 182.888 111.6 182.088 111.5 182.088H91.2V166.388H114C114.1 166.388 114.6 165.788 114.6 163.988C114.6 162.188 114.1 161.588 114 161.588H88.1001C87.3001 161.588 86.5 161.688 85.7 161.788V207.388Z" fill="white"/>
<path d="M181.8 159.788C177.9 159.788 177.3 160.588 177.3 161.288V192.088L156.1 160.688L156 160.588C155 159.588 149.5 159.788 148.2 160.288C147.7 160.388 147.4 160.888 147.4 161.388V207.888C147.4 208.388 147.4 209.388 151.9 209.388C156.4 209.388 156.4 208.388 156.4 207.888V177.188L177.6 208.588C178.1 209.288 179.9 209.488 181.7 209.488C182.9 209.488 184.1 209.388 185.2 209.088C186.1 208.788 186.3 208.288 186.3 207.888V161.388C186.3 160.588 185.8 159.788 181.8 159.788Z" fill="white"/>
<path d="M181.7 210.988C177.8 210.988 176.7 210.088 176.2 209.388L158.1 182.588V207.788C158.1 210.988 153.9 210.988 151.9 210.988C149.9 210.988 145.7 210.988 145.7 207.788V161.288C145.7 160.088 146.5 159.088 147.6 158.688C148.9 158.188 155.4 157.488 157.3 159.388L157.6 159.788L175.7 186.588V161.388C175.7 158.188 180 158.188 181.9 158.188C183.8 158.188 188.1 158.188 188.1 161.388V207.888C188.1 209.188 187.1 210.388 185.8 210.688C184.4 210.888 183 211.088 181.7 210.988ZM178.9 207.288C179.8 207.588 180.8 207.688 181.7 207.588C182.7 207.588 183.6 207.488 184.6 207.388V161.688C182.8 161.388 180.9 161.388 179.1 161.688V197.588L154.8 161.788C152.9 161.488 151 161.488 149 161.788V207.388C150.8 207.688 152.7 207.688 154.5 207.388V171.488L178.9 207.288Z" fill="white"/>
<path d="M202.6 159.788C198.6 159.788 198.1 160.488 198.1 161.288V207.888C198.1 208.688 198.6 209.388 202.6 209.388C206.6 209.388 207.1 208.688 207.1 207.888V161.188C207.1 160.488 206.6 159.788 202.6 159.788Z" fill="white"/>
<path d="M202.6 210.988C200.6 210.988 196.4 210.988 196.4 207.788V161.188C196.4 157.988 200.6 157.988 202.6 157.988C204.6 157.988 208.8 157.988 208.8 161.188V207.788C208.8 210.988 204.6 210.988 202.6 210.988ZM199.8 207.388C200.7 207.588 201.7 207.688 202.6 207.588C203.5 207.588 204.5 207.588 205.4 207.388V161.688C204.5 161.488 203.5 161.388 202.6 161.488C201.7 161.488 200.7 161.488 199.8 161.688V207.388Z" fill="white"/>
<path d="M130.9 159.788C126.9 159.788 126.4 160.488 126.4 161.288V207.888C126.4 208.688 126.9 209.388 130.9 209.388C134.9 209.388 135.4 208.688 135.4 207.888V161.188C135.4 160.488 134.8 159.788 130.9 159.788Z" fill="white"/>
<path d="M130.9 210.988C128.9 210.988 124.7 210.988 124.7 207.788V161.188C124.7 157.988 128.9 157.988 130.9 157.988C132.9 157.988 137.1 157.988 137.1 161.188V207.788C137.1 210.988 132.9 210.988 130.9 210.988ZM128.1 207.388C130 207.688 131.8 207.688 133.7 207.388V161.688C131.8 161.388 130 161.388 128.1 161.688V207.388Z" fill="white"/>
<path d="M255 159.788H218.7C217.9 159.788 217.2 160.288 217.2 164.288C217.2 168.288 217.9 168.788 218.7 168.788H232.4V207.888C232.4 208.688 232.9 209.388 236.9 209.388C240.9 209.388 241.4 208.688 241.4 207.888V168.788H255.1C255.9 168.788 256.6 168.288 256.6 164.288C256.6 160.288 255.8 159.788 255 159.788Z" fill="white"/>
<path d="M236.9 210.988C234.9 210.988 230.7 210.988 230.7 207.788V170.388H218.7C215.5 170.388 215.5 166.188 215.5 164.188C215.5 162.188 215.5 157.988 218.7 157.988H255C258.2 157.988 258.2 162.188 258.2 164.188C258.2 166.188 258.2 170.388 255 170.388H243V207.788C243 210.988 238.9 210.988 236.9 210.988ZM234.1 207.388C235.9 207.688 237.8 207.688 239.6 207.388V166.988H254.5C254.8 165.188 254.8 163.288 254.5 161.488H219.1C218.8 163.288 218.8 165.188 219.1 166.988H234V207.388H234.1Z" fill="white"/>
<path d="M306.9 160.188C305.2 159.588 299 159.488 297.8 160.888L286.5 178.488L275.1 160.888C274 159.388 267.8 159.488 266.1 160.088C265.2 160.388 265 160.988 265 161.288V161.488L282 187.988V207.488C282 207.888 282 209.188 286.5 209.188C291 209.188 291 207.888 291 207.488V188.188L308 161.688V161.488C308 161.088 307.8 160.588 306.9 160.188Z" fill="white"/>
<path d="M286.5 211.088C285 211.088 280.3 211.088 280.3 207.688V188.688L263.3 162.188V161.388C263.3 159.988 264.3 158.888 265.6 158.488C267.2 157.988 274.7 157.388 276.5 159.888L276.6 159.988L286.5 175.388L296.5 159.888C298.5 157.388 306 158.088 307.5 158.588C308.8 158.888 309.7 160.088 309.7 161.388V162.188L292.7 188.688V207.688C292.7 211.088 288 211.088 286.5 211.088ZM283.7 207.388C285.5 207.788 287.5 207.788 289.3 207.388V187.788L306 161.788C304.2 161.388 300.1 161.488 299.2 162.088L286.6 181.788L273.8 162.088C272.8 161.488 268.8 161.388 267 161.788L283.6 187.788L283.7 207.388Z" fill="white"/>
<path d="M66.8 158.488H70.1C72.8 158.488 75 160.688 75 163.388V166.788C75 169.488 72.8 171.688 70.1 171.688H66.8C64.1 171.688 61.9 169.488 61.9 166.788V163.388C62 160.688 64.1 158.488 66.8 158.488Z" fill="white"/>
</svg>
