<?xml version="1.0" encoding="utf-8"?>
<!-- Generator: Adobe Illustrator 22.1.0, SVG Export Plug-In . SVG Version: 6.00 Build 0)  -->
<svg version="1.1" id="Слой_1" xmlns="http://www.w3.org/2000/svg" xmlns:xlink="http://www.w3.org/1999/xlink" x="0px" y="0px"
	 width="100px" height="51px" viewBox="0 0 100 51" style="enable-background:new 0 0 100 51;" xml:space="preserve">
<style type="text/css">
	.st0{fill:none;}
	.st1{fill:#C22C27;}
</style>
<title>B033D831-81FC-4E53-9F59-CC03FDDB2B56</title>
<desc>Created with sketchtool.</desc>
<path class="st0" d="M128.3-36.7"/>
<g>
	<path class="st1" d="M3.3,33.5c-0.1,0.4-0.2,0.6-0.3,0.8c-0.9-1.5-1.9-3-2.6-4.6c-0.7-1.4-0.3-3,0.4-4.4c0,0.8,0,1.5,0.1,2.3
		c0.2,1.4,0.6,2.8,1.5,3.9c0.3,0.4,0.7,0.7,1.1,1c0,0,0.1-0.1,0.1-0.1c-0.4-0.8-0.8-1.7-1.1-2.5c-0.3-0.9-0.5-1.8-0.8-2.8
		c0.4,0.1,0.7,0.2,1,0.3c-0.3-1-0.5-1.9-0.8-2.8c0,0,0.1,0,0.1,0c0.5,0.9,1.1,1.7,1.6,2.6c0.1,0.1,0,0.4-0.1,0.5
		c-0.3,0.5-0.3,1-0.1,1.5c0.5,1,1,1.9,1.5,2.8c0.1-0.9,0.1-1.8-0.4-2.6c-0.4-0.7-0.5-1.2,0-1.9c0.1-0.1,0.2-0.1,0.2-0.2
		c0.1-1,1-1.1,1.6-1.5c0.2-0.1,0.4-0.3,0.7-0.4c0-0.1,0-0.1,0-0.2c-0.3,0-0.6-0.1-0.8,0c-0.4,0.1-0.7,0.3-1,0.5
		c-0.9,0.5-1.3,0.3-1.3-0.7c0.4-0.2,0.9-0.4,1.4-0.7c-0.7-0.4-1.7,0-1.6-1.1c0.3,0.1,0.5,0.1,0.8,0.2c-0.4-0.7-0.8-1.3-1-1.9
		c-0.2-0.7-0.1-1.4-0.2-2.1c-0.1,0-0.1-0.1-0.2-0.1c-0.3,0.3-0.6,0.6-0.9,1C1.6,20,1,20,1,19.1c0.2,0.1,0.4,0.2,0.8,0.3
		c-0.2-0.3-0.3-0.5-0.5-0.7c-0.8-0.8-1-1.8-1-2.8c0-0.7,0.6-1,1.3-0.8c1.2,0.4,2.5,0.8,3.8,1.2c0.5,0.1,1,0.1,1.5,0.1
		c-1.2,0.7-2.5,0.1-3.8,0.1c0,0,0,0.1,0,0.1c0.3,0.1,0.5,0.3,0.7,0.4c-0.1,0.2-0.2,0.4-0.1,0.5C3.9,18.2,4,19,3.8,19.9
		c-0.2,0.8,0.2,1.4,0.8,1.9c0.4,0.4,0.8,0.8,1.2,1.2c0.7,0.7,1.6,1,2.7,0.8c-0.2-0.5-0.7-0.7-1.1-0.8c-1.3-0.4-2.1-1.3-2.7-2.5
		c-0.2-0.3-0.2-0.7-0.3-1.1c0.2,0,0.2,0,0.2,0.1c0.3,0.9,0.9,1.2,1.9,1.2c0.9,0,1.6,0.4,2,1.2C8.7,22.3,9,22.8,9.6,23
		c0.1-0.4,0.2-0.8,0.2-1.2c0-0.2-0.1-0.3-0.3-0.5c-0.3-0.4-0.7-0.7-1-1.1c0.3-0.1,0.5-0.3,0.7-0.4c0,0,0-0.1,0-0.1
		c-0.5,0-1.1,0-1.6,0c0,0,0-0.1,0-0.1c0.5-0.2,1-0.4,1.5-0.6c-1-0.7-2.1-0.3-3.2-0.5c1.3-0.4,2.6-0.8,3.8-1.2c0-0.1,0-0.1,0-0.2
		c-0.7,0-1.5,0-2.2,0c0.6-0.5,1.3-0.9,2.1-0.9c1.2,0,2.5-0.1,3.7,0c0.8,0.1,1.5,0.4,2.3,0.6c0,0.1,0,0.1,0,0.2c-0.7,0-1.5,0-2.2,0
		c0,0.1,0,0.1,0,0.2c1.2,0.4,2.3,0.8,3.6,1.2c-1.1,0.2-2.1-0.1-3,0.5c0,0.1,0,0.1,0,0.2c0.5,0.2,0.9,0.3,1.4,0.5c-0.5,0-1,0-1.5,0
		c0,0,0,0.1,0,0.1c0.2,0.1,0.4,0.3,0.7,0.4c-0.3,0.4-0.7,0.7-1,1.1c-0.2,0.2-0.3,0.4-0.1,0.7c0.1,0.2,0,0.6,0,1
		c0.6-0.3,1-0.8,1.3-1.4c0.4-0.7,1-1.1,1.8-1.2c0.9-0.1,1.8-0.1,2-1.3c0.1,0,0.1,0.1,0.2,0.1c-0.1,0.3-0.1,0.7-0.2,1
		c-0.5,1.3-1.5,2.1-2.9,2.6c-0.3,0.1-0.6,0.3-1,0.5c0,0.1,0,0.1,0,0.2c0.4,0,0.9,0.1,1.3,0c0.9-0.2,1.7-0.8,2.2-1.6
		c0.3-0.5,0.7-1.1,1-1.7c0-0.1,0.1-0.2,0.1-0.3c-0.1-0.5-0.4-1.2-0.2-1.5c0.4-0.5,0.2-1,0.4-1.5c-0.2,0-0.4,0.1-0.5,0.1
		c0,0,0-0.1,0-0.1c0.4-0.2,0.7-0.3,1.1-0.5c-0.6-0.3-1.2-0.2-1.8-0.1c-0.7,0.1-1.4,0.3-2.1-0.2c1.9,0.1,3.5-0.4,5.2-1.1
		c0.8-0.4,1.4,0,1.4,0.9c0,1-0.2,2-1,2.7c-0.1,0.1-0.2,0.3-0.4,0.6c0.4-0.1,0.6-0.2,0.8-0.3c0,0.7-0.3,1-1.3,1.2
		c-0.1-0.2-0.2-0.5-0.4-0.7c-0.1-0.1-0.3-0.2-0.5-0.2c-0.1,0-0.2,0.2-0.3,0.4c0,0.1,0,0.2,0,0.3c0.2,1.2,0.1,2.4-1.1,3.1
		c0,0.1,0.1,0.1,0.1,0.2c0.3,0,0.6,0,0.8,0.1c0,0.9-0.7,0.8-1.3,0.8c0.1,0.4,0.1,0.4,1.1,0.8c0,0.1-0.1,0.3-0.1,0.4
		c-0.2,0.6-0.5,0.7-1,0.4c-0.6-0.4-1.3-0.7-2.2-0.4c0.8,0.5,1.5,0.9,2.2,1.3c-0.2,0.4-0.1,0.7,0.2,0.9c0.4,0.3,0.5,1.1,0.2,1.7
		c-0.5,0.9-0.4,1.8-0.4,2.8c0-0.1,0.1-0.1,0.1-0.2c0.3-1,0.7-1.9,1.3-2.8c0.3-0.4,0.5-1,0-1.6c0-0.1-0.1-0.2,0-0.3
		c0.4-0.9,0.9-1.8,1.3-2.7c0.1,0,0.1,0.1,0.2,0.1c-0.3,0.9-0.6,1.9-0.9,2.9c0.4-0.1,0.7-0.2,1.1-0.4c-0.4,1.9-1.1,3.6-2,5.3
		c0.6,0,1-0.4,1.3-0.8c1.1-1.4,1.5-3,1.6-4.7c0-0.5,0-1,0.1-1.6c0.6,0.9,0.8,3.6,0.5,4.6c0,0.1-0.1,0.2-0.2,0.3
		c-0.8,1.3-1.6,2.5-2.4,3.8c0,0-0.1,0-0.1,0.1c-0.1-0.2-0.1-0.4-0.3-0.7c-0.5,0.9-0.9,1.6-1.3,2.4c0,0-0.1,0-0.1,0
		c0-0.6,0-1.2,0-1.8c0-0.2-0.3-0.4-0.4-0.6c-0.2,0.2-0.4,0.4-0.4,0.6c-0.1,0.4,0,0.7,0,1.2c-0.4-0.2-0.8-0.4-1.1-0.6
		c-0.6-0.3-1.2-0.3-1.7,0.2c-0.3,0.3-0.9,0.5-1.4,0.5c-0.9,0.1-1.9,0-2.8,0.1c-0.6,0-1.1-0.1-1.4-0.5c-0.6-0.6-1.2-0.6-1.9-0.2
		c-0.3,0.2-0.6,0.3-0.9,0.5c-0.1-0.4-0.1-0.9-0.2-1.2c-0.1-0.2-0.3-0.3-0.5-0.5c-0.1,0.2-0.3,0.4-0.3,0.6c0,0.6,0,1.3-0.1,2
		C4.2,35.2,3.8,34.5,3.3,33.5z M15.9,34.1c-0.3-1.3-1.2-2.3-2.5-2.6c-1.1-0.3-2.3-0.4-3.5-0.1c-0.6,0.1-1.3,0.4-1.8,0.8
		C7.5,32.5,7,33.1,7,34c0.3-0.3,0.6-0.5,0.9-0.7c0.3-0.2,0.6-0.1,0.6,0.3c0,0.2,0,0.4,0.2,0.6c0.7,0.6,2.1,0.6,2.8,0.1
		c0.2,0.1,0.3,0.3,0.5,0.3c0.8,0.1,1.5-0.1,2.2-0.5c0.1-0.1,0.2-0.3,0.2-0.4c0-0.5,0.2-0.6,0.6-0.4C15.2,33.5,15.5,33.8,15.9,34.1z
		 M14.3,24.3c0,0.4,0,0.8,0,1.1c0.1,0.5,0,0.9-0.4,1.2c-0.5,0.4-1,0.9-1.6,1.1c-0.7,0.3-0.6,0.8-0.6,1.3c0,0.5,0.3,0.7,0.7,0.8
		c0.7,0.2,1.3,0.5,2,0.7c0.7,0.2,1.7-0.2,1.9-0.9c-0.4-0.1-0.9-0.1-1.4-0.2c1.3-0.6,1.3-0.6,1.4-1c-0.6,0.1-1.2,0.3-1.7,0.4
		c0.3-0.3,0.7-0.5,1-0.8c0.4-0.2,0.6-0.6,0.6-1.1c-0.6,0.3-1,1-1.9,0.8c0.6-0.5,1.1-0.9,1.5-1.2c-0.2-0.4-0.6-0.8-0.6-1.1
		C15.2,24.9,14.9,24.6,14.3,24.3z M8.5,29.5c0,0.1,0,0.1,0,0.2c-0.7,0-1.3,0-2,0c0.3,0.7,1.2,1.1,1.9,0.9c0.8-0.2,1.6-0.5,2.3-0.8
		c0.2-0.1,0.3-0.2,0.4-0.4c0.3-0.7,0-1.5-0.7-1.7c-1.4-0.6-2-1.4-1.8-3c0-0.1,0-0.3,0-0.4c-0.6,0-1,0.4-0.9,1.1c0,0.4,0,0.8-0.5,1
		c0.4,0.5,0.8,1,1.2,1.5c-0.9,0.2-1.3-0.6-1.9-0.8c0.1,0.3,0.2,0.6,0.4,0.8c0.2,0.2,0.5,0.4,0.7,0.5c0.2,0.2,0.5,0.3,0.7,0.5
		c0,0,0,0.1,0,0.1c-0.6-0.1-1.2-0.3-1.9-0.5C6.8,29.4,7.8,29.1,8.5,29.5z M9.5,25.1c-0.1,0-0.1,0-0.2,0c0,0.3-0.2,0.6-0.1,0.8
		c0.1,0.2,0.4,0.4,0.6,0.4c1,0.1,2,0,3,0c0.4,0,0.7-0.1,0.8-0.4c0-0.3-0.1-0.6-0.3-1c-0.5,1.2-1.4,1-2.2,1C10.6,26,9.8,26,9.5,25.1z
		 M6.8,21.2c-0.1,0-0.1,0-0.2,0.1c0,0.2-0.1,0.4-0.1,0.6c0,0.4,0.3,0.7,0.6,0.7c0.2,0,0.4-0.4,0.6-0.6C7.5,21.7,7.2,21.4,6.8,21.2z
		 M16.1,21.4c-0.5-0.1-0.9,0.1-1.1,0.5c-0.1,0.1,0,0.5,0.2,0.6c0.2,0.1,0.5,0.1,0.6,0C16.2,22.2,16.3,21.8,16.1,21.4z"/>
	<path class="st1" d="M80.7,22.9c-0.9,0.4-1.8,0.8-2.7,1.1c-0.1-0.1-0.2-0.3-0.2-0.4c-1-1.7-3.2-1.8-4.4-0.2c-1,1.3-1,3.3-0.1,4.7
		c0.8,1.2,2.3,1.6,3.5,1c0.7-0.4,1.1-0.9,1-1.7c-0.7,0-1.5,0-2.2,0c0-0.8,0-1.5,0-2.2c1.9,0,3.7,0,5.5,0c0.3,3.9-2.2,6.9-6.4,6.4
		c-2.5-0.3-4.3-1.8-4.9-4c-0.7-2.6,0.1-5.2,2-6.6c2.5-1.9,6.3-1.5,8.1,0.8C80.3,22.1,80.5,22.5,80.7,22.9z"/>
	<path class="st1" d="M42.8,31.2c0-3.7,0-7.3,0-11c1.4,0,2.8-0.1,4.2,0c0.8,0,1.6,0.2,2.3,0.5c2.3,1,3.6,3.6,3,6.1
		c-0.5,2.5-2.7,4.3-5.2,4.4C45.7,31.2,44.3,31.2,42.8,31.2z M45.7,28.8c1.5,0.3,2.8-0.3,3.5-1.3c0.7-1.1,0.6-2.8-0.2-3.8
		c-0.7-0.9-2.2-1.4-3.3-1C45.7,24.7,45.7,26.7,45.7,28.8z"/>
	<path class="st1" d="M99.9,31.2c-1.2,0-2.2,0-3.3,0c-0.1,0-0.3-0.2-0.4-0.4c-0.7-1.1-1.4-2.2-2.1-3.3c-0.1-0.2-0.2-0.3-0.4-0.6
		c0,1.5,0,2.9,0,4.3c-1,0-1.9,0-2.8,0c0-3.6,0-7.3,0-11c1,0,2,0,2.9,0c1,0,2,0,2.9,0.2c1.5,0.4,2.2,1.5,2.2,3c0,1.7-0.7,2.6-2.2,3.2
		c-0.1,0-0.1,0-0.2,0.1C97.6,28.2,98.7,29.7,99.9,31.2z M93.6,25.2c0.3,0,0.4,0,0.6,0c0.2,0,0.5,0,0.7-0.1c0.6-0.1,1-0.6,1-1.2
		c0-0.7-0.2-1.2-0.9-1.4c-0.4-0.1-0.8-0.1-1.2-0.2c-0.1,0-0.3,0.2-0.3,0.2C93.6,23.4,93.6,24.3,93.6,25.2z"/>
	<path class="st1" d="M82.7,20.2c2.1,0,4.1,0,6.2,0c0,0.8,0,1.5,0,2.3c-1.1,0-2.2,0-3.3,0c0,0.7,0,1.3,0,1.9c1.1,0,2.1,0,3.2,0
		c0,0.8,0,1.5,0,2.4c-1.1,0-2.1,0-3.2,0c0,0.7,0,1.3,0,2c1.1,0,2.2,0,3.3,0c0,0.8,0,1.6,0,2.4c-2,0-4.1,0-6.1,0
		C82.7,27.6,82.7,23.9,82.7,20.2z"/>
	<path class="st1" d="M64.4,20.3c0,0.8,0,1.5,0,2.3c-0.8,0-1.5,0-2.3,0c0,2.9,0,5.7,0,8.6c-1,0-1.9,0-2.8,0c0-2.8,0-5.7,0-8.6
		c-0.8,0-1.6,0-2.3,0c0-0.8,0-1.5,0-2.3C59.3,20.3,61.8,20.3,64.4,20.3z"/>
	<path class="st1" d="M68.3,31.2c-0.9,0-1.8,0-2.8,0c0-3.6,0-7.3,0-10.9c0.9,0,1.8,0,2.8,0C68.3,23.9,68.3,27.5,68.3,31.2z"/>
	<path class="st1" d="M33.8,31.2c-1.2,0-2.2,0-3.3,0c-0.1,0-0.3-0.2-0.4-0.4c-0.7-1.1-1.4-2.2-2.1-3.3c-0.1-0.2-0.2-0.3-0.4-0.6
		c0,1.5,0,2.9,0,4.3c-1,0-1.9,0-2.8,0c0-3.6,0-7.3,0-11c1,0,2,0,2.9,0c1,0,2,0,2.9,0.2c1.5,0.4,2.2,1.5,2.2,3c0,1.7-0.7,2.6-2.2,3.2
		c-0.1,0-0.1,0-0.2,0.1C31.6,28.2,32.7,29.7,33.8,31.2z M27.5,25.2c0.3,0,0.4,0,0.6,0c0.2,0,0.5,0,0.7-0.1c0.6-0.1,1-0.6,1-1.2
		c0-0.7-0.2-1.2-0.9-1.4c-0.4-0.1-0.8-0.1-1.2-0.2c-0.1,0-0.3,0.2-0.3,0.2C27.5,23.4,27.5,24.3,27.5,25.2z"/>
	<path class="st1" d="M34.8,20.2c2.1,0,4.1,0,6.2,0c0,0.8,0,1.5,0,2.3c-1.1,0-2.2,0-3.3,0c0,0.7,0,1.3,0,1.9c1.1,0,2.1,0,3.2,0
		c0,0.8,0,1.5,0,2.4c-1.1,0-2.1,0-3.2,0c0,0.7,0,1.3,0,2c1.1,0,2.2,0,3.3,0c0,0.8,0,1.6,0,2.4c-2,0-4.1,0-6.1,0
		C34.8,27.6,34.8,23.9,34.8,20.2z"/>
</g>
</svg>
