<svg width="1022" height="475" viewBox="0 0 1022 475" fill="none" xmlns="http://www.w3.org/2000/svg">
<path fill-rule="evenodd" clip-rule="evenodd" d="M526.991 463.902C518.796 467.282 502.992 467.282 494.797 463.902L36.3668 275.067C-1.54547 259.449 -1.4244 212.271 36.5437 196.84L494.974 10.4725C503.067 7.17582 518.712 7.17582 526.805 10.4725L985.226 196.821C1023.2 212.261 1023.31 259.44 985.421 275.048L526.991 463.902Z" fill="white" stroke="black" stroke-width="6.05" stroke-miterlimit="3.86"/>
<path fill-rule="evenodd" clip-rule="evenodd" d="M526.991 463.902C518.796 467.282 502.992 467.282 494.797 463.902L36.3668 275.067C-1.54547 259.449 -1.4244 212.271 36.5437 196.84L494.974 10.4725C503.067 7.17582 518.712 7.17582 526.805 10.4725L985.226 196.821C1023.2 212.261 1023.31 259.44 985.421 275.048L526.991 463.902Z" fill="white" stroke="black" stroke-width="15.56" stroke-miterlimit="3.86"/>
<path fill-rule="evenodd" clip-rule="evenodd" d="M526.991 463.902C518.796 467.282 502.992 467.282 494.797 463.902L36.3668 275.067C-1.54547 259.449 -1.4244 212.271 36.5437 196.84L494.974 10.4725C503.067 7.17582 518.712 7.17582 526.805 10.4725L985.226 196.821C1023.2 212.261 1023.31 259.44 985.421 275.048L526.991 463.902Z" fill="url(#paint0_linear_2_4389)"/>
<path fill-rule="evenodd" clip-rule="evenodd" d="M980.05 262.038L521.629 450.873C516.861 452.838 504.922 452.838 500.209 450.873L41.7329 262.038C15.4895 251.226 15.5547 220.577 41.8539 209.886L500.284 23.51C504.94 21.6008 516.814 21.6008 521.508 23.51L979.929 209.868C1006.22 220.577 1006.33 251.226 980.05 262.038Z" fill="url(#paint1_linear_2_4389)"/>
<path fill-rule="evenodd" clip-rule="evenodd" d="M974.283 248.041L515.853 436.876C514.782 437.314 506.996 437.314 505.925 436.876L47.4951 248.041C33.7867 242.388 33.8147 229.499 47.5603 223.912L505.981 37.5541C507.024 37.135 514.763 37.135 515.797 37.5541L974.218 223.912C987.954 229.499 987.991 242.36 974.283 248.041Z" fill="white"/>
<path d="M510.887 49.6328L52.457 235.991L510.887 424.835L969.308 235.991L510.887 49.6328Z" stroke="black" stroke-width="30.25" stroke-linecap="round" stroke-linejoin="round"/>
<path d="M510.887 49.6328L52.457 235.991L510.887 424.835L969.308 235.991L510.887 49.6328Z" stroke="#FFF000" stroke-width="22.69" stroke-linecap="round" stroke-linejoin="round"/>
<path fill-rule="evenodd" clip-rule="evenodd" d="M510.887 49.6328L969.308 235.991L510.887 424.835L52.457 235.991L510.887 49.6328Z" fill="#30368F"/>
<path fill-rule="evenodd" clip-rule="evenodd" d="M57.1074 236L510.89 51.5327L964.673 236L510.89 422.926L57.1074 236Z" fill="#2C3A92"/>
<path fill-rule="evenodd" clip-rule="evenodd" d="M61.752 236.009L510.888 53.4326L960.015 236.009L510.888 421.017L61.752 236.009Z" fill="#224195"/>
<path fill-rule="evenodd" clip-rule="evenodd" d="M66.4082 236.028L510.888 55.3413L955.367 236.028L510.888 419.116L66.4082 236.028Z" fill="#1F4698"/>
<path fill-rule="evenodd" clip-rule="evenodd" d="M71.0566 236.028L510.889 57.2319L950.722 236.028L510.889 417.207L71.0566 236.028Z" fill="#194A9B"/>
<path fill-rule="evenodd" clip-rule="evenodd" d="M75.7031 236.046L510.889 59.1318L946.065 236.046L510.889 415.308L75.7031 236.046Z" fill="#07509F"/>
<path fill-rule="evenodd" clip-rule="evenodd" d="M80.3516 236.056L510.89 61.041L941.419 236.056L510.89 413.399L80.3516 236.056Z" fill="#0054A2"/>
<path fill-rule="evenodd" clip-rule="evenodd" d="M85.0078 236.056L510.89 62.9409L936.772 236.056L510.89 411.499L85.0078 236.056Z" fill="#0059A6"/>
<path fill-rule="evenodd" clip-rule="evenodd" d="M89.6543 236.075L510.889 64.8408L932.124 236.075L510.889 409.599L89.6543 236.075Z" fill="#005FA9"/>
<path fill-rule="evenodd" clip-rule="evenodd" d="M94.3027 236.093L510.891 66.7402L927.469 236.093L510.891 407.68L94.3027 236.093Z" fill="#0062AC"/>
<path fill-rule="evenodd" clip-rule="evenodd" d="M98.9492 236.102L510.89 68.6401L922.821 236.102L510.89 405.781L98.9492 236.102Z" fill="#0066AF"/>
<path fill-rule="evenodd" clip-rule="evenodd" d="M103.605 236.102L510.89 70.54L918.174 236.102L510.89 403.881L103.605 236.102Z" fill="#006BB3"/>
<path fill-rule="evenodd" clip-rule="evenodd" d="M108.25 236.121L510.887 72.4492L913.515 236.121L510.887 401.981L108.25 236.121Z" fill="#006FB6"/>
<path fill-rule="evenodd" clip-rule="evenodd" d="M112.9 236.13L510.891 74.3398L908.872 236.13L510.891 400.072L112.9 236.13Z" fill="#0073BA"/>
<path fill-rule="evenodd" clip-rule="evenodd" d="M117.545 236.139L510.888 76.2485L904.231 236.139L510.888 398.163L117.545 236.139Z" fill="#0078BE"/>
<path fill-rule="evenodd" clip-rule="evenodd" d="M122.193 236.149L510.889 78.1484L899.576 236.149L510.889 396.263L122.193 236.149Z" fill="#007CC0"/>
<path fill-rule="evenodd" clip-rule="evenodd" d="M126.85 236.158L510.889 80.0483L894.929 236.158L510.889 394.363L126.85 236.158Z" fill="#0081C4"/>
<path fill-rule="evenodd" clip-rule="evenodd" d="M131.496 236.177L510.889 81.9482L890.281 236.177L510.889 392.454L131.496 236.177Z" fill="#0084C8"/>
<path fill-rule="evenodd" clip-rule="evenodd" d="M136.145 236.186L510.89 83.8481L885.626 236.186L510.89 390.545L136.145 236.186Z" fill="#0089CE"/>
<path fill-rule="evenodd" clip-rule="evenodd" d="M140.791 236.196L510.89 85.748L880.979 236.196L510.89 388.646L140.791 236.196Z" fill="#008DD2"/>
<path fill-rule="evenodd" clip-rule="evenodd" d="M145.447 236.205L510.889 87.6475L876.331 236.205L510.889 386.745L145.447 236.205Z" fill="#0092D6"/>
<path fill-rule="evenodd" clip-rule="evenodd" d="M150.092 236.214L510.887 89.5474L871.682 236.214L510.887 384.836L150.092 236.214Z" fill="#0096D9"/>
<path fill-rule="evenodd" clip-rule="evenodd" d="M867.029 236.233L510.89 382.937L154.742 236.233L510.89 91.4565L867.029 236.233Z" fill="#009BDE"/>
<path fill-rule="evenodd" clip-rule="evenodd" d="M790.605 118.184L838.725 220.466L794.48 317.217H844.964L863.608 276.147L883.929 317.487H943.828L903.541 224.424L952.005 117.923H897.833L877.68 163.481L857.024 118.184H790.605ZM668.972 128.652V292.743H772.045L776.45 241.141H724.466V230.142H761.848L765.461 188.011H724.913V177.544H776.972L781.46 128.652H668.972ZM545.568 128.652V293.013H647.515L652.255 240.088H600.718V128.652H545.568ZM414.249 128.652V292.305H469.93V235.162H508.894L512.852 187.49H469.93V177.283H524.372L528.777 128.912L414.249 128.652ZM285.044 128.652V292.743H388.043L393.062 240.61H340.725V229.881H378.106L381.794 188.011H340.725V177.283H393.584L397.719 128.652H285.044ZM131.485 125.02C131.132 125.15 131.485 315 131.485 315H186.431V252.66L191.357 252.13C191.357 252.13 203.147 268.464 209.917 314.73C210.076 315.801 268.504 314.73 268.504 314.73C268.504 314.73 262.255 258.369 240.566 227.237C240.352 226.939 279.53 195.136 257.329 141.224C257.347 141.224 234.038 88.6255 131.485 125.02Z" fill="black" stroke="black" stroke-width="1.33" stroke-miterlimit="3.86"/>
<path d="M510.887 49.6328L52.457 235.991L510.887 424.835L969.308 235.991L510.887 49.6328Z" stroke="black" stroke-width="3.78" stroke-miterlimit="3.86"/>
<path fill-rule="evenodd" clip-rule="evenodd" d="M344.947 321.863C343.656 318.312 340.495 315.829 335.466 314.413C332.404 313.603 329.246 313.211 326.079 313.249C319.504 313.249 314.088 314.835 309.828 318.008C305.57 321.181 303.462 325.926 303.505 332.247C303.505 338.636 305.796 343.159 310.378 345.816C315.147 348.516 320.552 349.893 326.033 349.802C331.757 349.802 336.454 348.752 340.123 346.654C343.783 344.54 346.036 341.793 346.884 338.375H327.97V329.705H362.036V357.587H350.711L348.989 351.068C346.281 353.203 343.296 354.957 340.113 356.283C335.594 358.053 330.044 358.935 323.462 358.928C312.635 358.928 303.76 356.544 296.837 351.776C289.623 346.977 286.016 340.424 286.016 332.117C286.016 323.698 289.661 316.953 296.949 311.88C304.238 306.807 313.861 304.271 325.818 304.271C336.211 304.271 344.553 305.951 350.842 309.31C357.132 312.669 360.757 316.837 361.719 321.817L344.947 321.863ZM400.702 337.974H421.488L411.244 317.533L400.702 337.974ZM401.755 305.659H421.06L450.023 357.606H431.49L426.219 346.933H396.102L390.44 357.606H372.578L401.755 305.659ZM514.616 305.687H539.192V357.634H523.268V322.45C523.268 321.435 523.268 320.029 523.323 318.213C523.379 316.397 523.379 314.972 523.379 313.994L507.902 357.587H491.334L475.968 313.994C475.968 314.972 475.968 316.387 476.024 318.213C476.08 320.038 476.07 321.435 476.08 322.45V357.587H460.155V305.687H485.011L499.911 346.533L514.616 305.687Z" fill="black" stroke="black" stroke-width="11.34" stroke-linejoin="round"/>
<path d="M570.686 305.659H553.709V357.606H570.686V305.659Z" fill="black" stroke="black" stroke-width="11.34" stroke-linejoin="round"/>
<path fill-rule="evenodd" clip-rule="evenodd" d="M586.332 305.659H604.25L636.817 341.923V305.659H652.732V357.606H635.653L602.248 320.709V357.606H586.332V305.659ZM723.649 321.863C722.336 318.315 719.188 315.838 714.15 314.413C711.094 313.602 707.943 313.211 704.781 313.249C698.195 313.249 692.774 314.835 688.521 318.008C684.269 321.181 682.177 325.933 682.245 332.266C682.245 338.654 684.539 343.178 689.127 345.834C693.892 348.538 699.294 349.914 704.772 349.82C710.503 349.82 715.197 348.771 718.853 346.673C722.522 344.559 724.776 341.811 725.623 338.394H706.663V329.723H740.729V357.606H729.404L727.691 351.087C724.981 353.222 721.992 354.976 718.806 356.302C714.299 358.071 708.755 358.953 702.174 358.947C691.334 358.947 682.456 356.563 675.539 351.795C668.331 346.996 664.727 340.442 664.727 332.135C664.727 323.717 668.369 316.971 675.651 311.899C682.934 306.826 692.557 304.29 704.521 304.29C714.914 304.29 723.252 305.969 729.535 309.328C735.818 312.688 739.444 316.856 740.412 321.835L723.649 321.863ZM343.707 319.377C342.403 315.838 339.241 313.354 334.217 311.927C331.157 311.121 328.003 310.73 324.839 310.763C318.252 310.763 312.835 312.349 308.589 315.521C304.342 318.694 302.241 323.447 302.284 329.779C302.284 336.18 304.579 340.7 309.166 343.339C313.928 346.051 319.332 347.431 324.811 347.334C330.548 347.334 335.245 346.284 338.902 344.186C342.559 342.088 344.815 339.328 345.672 335.907H326.73V327.237H360.787V355.119H349.472L347.749 348.6C345.041 350.736 342.055 352.494 338.874 353.825C334.366 355.582 328.82 356.46 322.232 356.46C311.392 356.46 302.514 354.076 295.597 349.308C288.389 344.521 284.785 337.965 284.785 329.64C284.785 321.314 288.445 314.572 295.765 309.412C303.035 304.34 312.658 301.804 324.634 301.804C335.028 301.804 343.369 303.483 349.658 306.842C355.948 310.201 359.57 314.369 360.526 319.349L343.707 319.377ZM399.463 335.488H420.211L409.967 315L399.463 335.488ZM400.515 303.173H419.82L448.774 355.119H430.251L424.979 344.438H394.853L389.191 355.119H371.329L400.515 303.173ZM513.348 303.173H537.897V355.119H521.972V319.982C521.972 318.976 521.972 317.561 522.028 315.754C522.084 313.948 522.084 312.504 522.084 311.517L506.606 355.119H490.057L474.682 311.517C474.682 312.504 474.682 313.92 474.747 315.754C474.812 317.589 474.793 318.976 474.793 319.982V355.119H458.878V303.173H483.734L498.634 344.018L513.348 303.173Z" fill="black" stroke="black" stroke-width="11.34" stroke-linejoin="round"/>
<path d="M569.449 303.182H552.463V355.119H569.449V303.182Z" fill="black" stroke="black" stroke-width="11.34" stroke-linejoin="round"/>
<path fill-rule="evenodd" clip-rule="evenodd" d="M585.086 303.182H603.004L635.57 339.446V303.182H651.495V355.119H634.406L601.011 318.222V355.119H585.086V303.182ZM722.403 319.377C721.111 315.838 717.948 313.354 712.913 311.927C709.853 311.121 706.699 310.73 703.535 310.763C696.948 310.763 691.531 312.349 687.284 315.521C683.038 318.694 680.926 323.44 680.952 329.761C680.952 336.161 683.245 340.682 687.834 343.32C692.595 346.033 698 347.413 703.479 347.315C709.216 347.315 713.916 346.266 717.579 344.167C721.239 342.063 723.483 339.297 724.34 335.888H705.425V327.218H739.492V355.101H728.167L726.444 348.582C723.737 350.713 720.755 352.471 717.579 353.806C713.053 355.564 707.502 356.442 700.927 356.442C690.099 356.442 681.224 354.058 674.302 349.29C667.088 344.503 663.481 337.947 663.481 329.621C663.481 321.295 667.122 314.559 674.405 309.412C681.694 304.34 691.317 301.804 703.274 301.804C713.667 301.804 722.009 303.483 728.298 306.842C734.587 310.201 738.209 314.369 739.166 319.349L722.403 319.377Z" fill="black" stroke="black" stroke-width="11.34" stroke-linejoin="round"/>
<path fill-rule="evenodd" clip-rule="evenodd" d="M343.707 319.377C342.403 315.838 339.241 313.354 334.217 311.927C331.157 311.121 328.003 310.73 324.839 310.763C318.252 310.763 312.835 312.349 308.589 315.521C304.342 318.694 302.241 323.447 302.284 329.779C302.284 336.18 304.579 340.7 309.166 343.339C313.928 346.051 319.332 347.431 324.811 347.334C330.548 347.334 335.245 346.284 338.902 344.186C342.559 342.088 344.815 339.328 345.672 335.907H326.73V327.237H360.787V355.119H349.472L347.749 348.6C345.041 350.736 342.055 352.494 338.874 353.825C334.366 355.582 328.82 356.46 322.232 356.46C311.392 356.46 302.514 354.076 295.597 349.308C288.389 344.521 284.785 337.965 284.785 329.64C284.785 321.314 288.445 314.572 295.765 309.412C303.035 304.34 312.658 301.804 324.634 301.804C335.028 301.804 343.369 303.483 349.658 306.842C355.948 310.201 359.57 314.369 360.526 319.349L343.707 319.377ZM399.463 335.488H420.211L409.967 315L399.463 335.488ZM400.515 303.173H419.82L448.774 355.119H430.251L424.979 344.438H394.853L389.191 355.119H371.329L400.515 303.173ZM513.348 303.173H537.897V355.119H521.972V319.982C521.972 318.976 521.972 317.561 522.028 315.754C522.084 313.948 522.084 312.504 522.084 311.517L506.606 355.119H490.057L474.682 311.517C474.682 312.504 474.682 313.92 474.747 315.754C474.812 317.589 474.793 318.976 474.793 319.982V355.119H458.878V303.173H483.734L498.634 344.018L513.348 303.173Z" fill="black" stroke="black" stroke-width="5.67" stroke-linejoin="round"/>
<path d="M569.449 303.182H552.463V355.119H569.449V303.182Z" fill="black" stroke="black" stroke-width="5.67" stroke-linejoin="round"/>
<path fill-rule="evenodd" clip-rule="evenodd" d="M585.086 303.182H603.004L635.57 339.446V303.182H651.495V355.119H634.406L601.011 318.222V355.119H585.086V303.182ZM722.403 319.377C721.111 315.838 717.948 313.354 712.913 311.927C709.853 311.121 706.699 310.73 703.535 310.763C696.948 310.763 691.531 312.349 687.284 315.521C683.038 318.694 680.926 323.44 680.952 329.761C680.952 336.161 683.245 340.682 687.834 343.32C692.595 346.033 698 347.413 703.479 347.315C709.216 347.315 713.916 346.266 717.579 344.167C721.239 342.063 723.483 339.297 724.34 335.888H705.425V327.218H739.492V355.101H728.167L726.444 348.582C723.737 350.713 720.755 352.471 717.579 353.806C713.053 355.564 707.502 356.442 700.927 356.442C690.099 356.442 681.224 354.058 674.302 349.29C667.088 344.503 663.481 337.947 663.481 329.621C663.481 321.295 667.122 314.559 674.405 309.412C681.694 304.34 691.317 301.804 703.274 301.804C713.667 301.804 722.009 303.483 728.298 306.842C734.587 310.201 738.209 314.369 739.166 319.349L722.403 319.377Z" fill="black" stroke="black" stroke-width="5.67" stroke-linejoin="round"/>
<path fill-rule="evenodd" clip-rule="evenodd" d="M343.707 319.377C342.403 315.838 339.241 313.354 334.217 311.927C331.157 311.121 328.003 310.73 324.839 310.763C318.252 310.763 312.835 312.349 308.589 315.521C304.342 318.694 302.241 323.447 302.284 329.779C302.284 336.18 304.579 340.7 309.166 343.339C313.928 346.051 319.332 347.431 324.811 347.334C330.548 347.334 335.245 346.284 338.902 344.186C342.559 342.088 344.815 339.328 345.672 335.907H326.73V327.237H360.787V355.119H349.472L347.749 348.6C345.041 350.736 342.055 352.494 338.874 353.825C334.366 355.582 328.82 356.46 322.232 356.46C311.392 356.46 302.514 354.076 295.597 349.308C288.389 344.521 284.785 337.965 284.785 329.64C284.785 321.314 288.445 314.572 295.765 309.412C303.035 304.34 312.658 301.804 324.634 301.804C335.028 301.804 343.369 303.483 349.658 306.842C355.948 310.201 359.57 314.369 360.526 319.349L343.707 319.377ZM399.463 335.488H420.211L409.967 315L399.463 335.488ZM400.515 303.173H419.82L448.774 355.119H430.251L424.979 344.438H394.853L389.191 355.119H371.329L400.515 303.173ZM513.348 303.173H537.897V355.119H521.972V319.982C521.972 318.976 521.972 317.561 522.028 315.754C522.084 313.948 522.084 312.504 522.084 311.517L506.606 355.119H490.057L474.682 311.517C474.682 312.504 474.682 313.92 474.747 315.754C474.812 317.589 474.793 318.976 474.793 319.982V355.119H458.878V303.173H483.734L498.634 344.018L513.348 303.173Z" fill="#FFF000"/>
<path d="M569.449 303.182H552.463V355.119H569.449V303.182Z" fill="#FFF000"/>
<path fill-rule="evenodd" clip-rule="evenodd" d="M585.086 303.182H603.004L635.57 339.446V303.182H651.495V355.119H634.406L601.011 318.222V355.119H585.086V303.182ZM722.403 319.377C721.111 315.838 717.948 313.354 712.913 311.927C709.853 311.121 706.699 310.73 703.535 310.763C696.948 310.763 691.531 312.349 687.284 315.521C683.038 318.694 680.926 323.44 680.952 329.761C680.952 336.161 683.245 340.682 687.834 343.32C692.595 346.033 698 347.413 703.479 347.315C709.216 347.315 713.916 346.266 717.579 344.167C721.239 342.063 723.483 339.297 724.34 335.888H705.425V327.218H739.492V355.101H728.167L726.444 348.582C723.737 350.713 720.755 352.471 717.579 353.806C713.053 355.564 707.502 356.442 700.927 356.442C690.099 356.442 681.224 354.058 674.302 349.29C667.088 344.503 663.481 337.947 663.481 329.621C663.481 321.295 667.122 314.559 674.405 309.412C681.694 304.34 691.317 301.804 703.274 301.804C713.667 301.804 722.009 303.483 728.298 306.842C734.587 310.201 738.209 314.369 739.166 319.349L722.403 319.377Z" fill="#FFF000"/>
<path fill-rule="evenodd" clip-rule="evenodd" d="M779.32 102.38L827.43 204.672L783.185 298.935H833.678L852.313 257.857L872.643 299.196H932.533L892.256 208.629L940.71 102.11H886.538L866.385 147.668L845.72 102.38H779.32ZM657.677 112.838V276.948H760.76L765.155 225.337H713.171V214.338H750.553L754.157 172.217H713.618V161.74H765.686L770.165 112.838H657.677ZM534.273 112.838V277.209H636.211L640.96 224.284H589.423V112.838H534.273ZM402.963 112.838V276.501H458.635V219.348H497.599L501.557 171.686H458.635V161.479H513.077L517.473 113.108L402.963 112.838ZM273.749 112.838V276.948H376.748L381.758 224.806H329.43V214.087H366.811L370.508 172.217H329.43V161.479H382.289L386.424 112.838H273.749ZM175.303 153.889C175.303 153.889 195.186 145.349 195.186 162.699C195.186 162.699 194.916 182.032 175.583 182.032L175.303 153.889ZM120.19 109.262C119.837 109.383 120.19 299.243 120.19 299.243H175.136V236.856L180.072 236.326C180.072 236.326 191.852 252.67 198.623 298.926C198.781 300.006 257.2 298.926 257.2 298.926C257.2 298.926 250.96 242.574 229.262 211.386C229.047 211.079 268.226 179.276 246.025 125.373C246.043 125.42 222.743 72.868 120.19 109.234V109.262Z" fill="black" stroke="black" stroke-width="13.24" stroke-linejoin="round"/>
<path fill-rule="evenodd" clip-rule="evenodd" d="M779.32 102.38L827.43 204.672L783.185 298.935H833.678L852.313 257.857L872.643 299.196H932.533L892.256 208.629L940.71 102.11H886.538L866.385 147.668L845.72 102.38H779.32ZM657.677 112.838V276.948H760.76L765.155 225.337H713.171V214.338H750.553L754.157 172.217H713.618V161.74H765.686L770.165 112.838H657.677ZM534.273 112.838V277.209H636.211L640.96 224.284H589.423V112.838H534.273ZM402.963 112.838V276.501H458.635V219.348H497.599L501.557 171.686H458.635V161.479H513.077L517.473 113.108L402.963 112.838ZM273.749 112.838V276.948H376.748L381.758 224.806H329.43V214.087H366.811L370.508 172.217H329.43V161.479H382.289L386.424 112.838H273.749ZM175.303 153.889C175.303 153.889 195.186 145.349 195.186 162.699C195.186 162.699 194.916 182.032 175.583 182.032L175.303 153.889ZM120.19 109.262C119.837 109.383 120.19 299.243 120.19 299.243H175.136V236.856L180.072 236.326C180.072 236.326 191.852 252.67 198.623 298.926C198.781 300.006 257.2 298.926 257.2 298.926C257.2 298.926 250.96 242.574 229.262 211.386C229.047 211.079 268.226 179.276 246.025 125.373C246.043 125.42 222.743 72.868 120.19 109.234V109.262Z" fill="black" stroke="black" stroke-width="11.34" stroke-linejoin="round"/>
<path fill-rule="evenodd" clip-rule="evenodd" d="M779.318 102.38L827.428 204.671L783.183 297.687H833.677L852.312 260.343L872.642 297.957H932.532L892.254 208.629L940.709 102.11H886.536L866.383 147.668L845.718 102.38H779.318Z" fill="url(#paint2_linear_2_4389)"/>
<path fill-rule="evenodd" clip-rule="evenodd" d="M657.678 112.838V275.7H760.761L765.156 225.337H713.173V214.338H750.554L754.158 172.217H713.62V161.74H765.687L770.167 112.838H657.678Z" fill="url(#paint3_linear_2_4389)"/>
<path fill-rule="evenodd" clip-rule="evenodd" d="M534.273 112.838V275.961H636.211L640.96 224.284H589.424V112.838H534.273Z" fill="url(#paint4_linear_2_4389)"/>
<path fill-rule="evenodd" clip-rule="evenodd" d="M402.963 112.838V275.262H458.635V219.348H497.599L501.557 171.686H458.635V161.479H513.077L517.473 113.108L402.963 112.838Z" fill="url(#paint5_linear_2_4389)"/>
<path fill-rule="evenodd" clip-rule="evenodd" d="M273.748 112.838V275.7H376.747L381.757 224.806H329.429V214.087H366.811L370.508 172.217H329.429V161.479H382.288L386.423 112.838H273.748Z" fill="url(#paint6_linear_2_4389)"/>
<path fill-rule="evenodd" clip-rule="evenodd" d="M175.303 153.889C175.303 153.889 195.186 145.349 195.186 162.699C195.186 162.699 194.916 182.032 175.583 182.032L175.303 153.889ZM120.19 109.262C119.837 109.384 120.19 297.976 120.19 297.976H175.136V236.885L180.072 236.354C180.072 236.354 191.852 251.45 198.623 297.716C198.781 298.796 257.2 297.716 257.2 297.716C257.2 297.716 250.96 242.603 229.262 211.461C229.047 211.153 268.226 179.35 246.025 125.448C246.043 125.42 222.743 72.8682 120.19 109.235V109.262Z" fill="url(#paint7_linear_2_4389)"/>
<path fill-rule="evenodd" clip-rule="evenodd" d="M501.156 121.779C501.237 121.778 501.317 121.794 501.391 121.826C501.466 121.858 501.533 121.904 501.588 121.962C501.644 122.021 501.687 122.09 501.716 122.166C501.744 122.241 501.756 122.322 501.752 122.403L500.094 147.817C500.077 147.966 500.008 148.103 499.899 148.206C499.79 148.308 499.648 148.368 499.499 148.376H446.574V185.077H485.744C485.826 185.075 485.909 185.091 485.985 185.123C486.061 185.155 486.13 185.203 486.186 185.265C486.242 185.325 486.285 185.397 486.312 185.476C486.338 185.554 486.348 185.638 486.34 185.72L484.579 206.208C484.556 206.353 484.485 206.486 484.377 206.586C484.269 206.686 484.13 206.746 483.983 206.758H447.198V266.108C447.191 266.264 447.126 266.412 447.016 266.522C446.906 266.632 446.758 266.697 446.602 266.704H413.104C412.948 266.697 412.8 266.632 412.69 266.522C412.58 266.411 412.515 266.264 412.508 266.108L412.648 122.328C412.655 122.172 412.719 122.025 412.83 121.914C412.94 121.804 413.088 121.739 413.244 121.732L501.156 121.779ZM577.009 122.337C577.166 122.34 577.316 122.404 577.427 122.515C577.538 122.626 577.602 122.776 577.605 122.933V237.257H625.463C625.586 237.258 625.705 237.296 625.806 237.366C625.906 237.437 625.983 237.536 626.025 237.651C626.052 237.727 626.065 237.809 626.059 237.89L624.299 266.452C624.282 266.604 624.212 266.744 624.101 266.848C623.99 266.952 623.846 267.014 623.693 267.02H544.125C543.969 267.016 543.82 266.951 543.709 266.841C543.598 266.73 543.534 266.581 543.529 266.424V122.933C543.534 122.777 543.598 122.628 543.709 122.517C543.82 122.406 543.969 122.342 544.125 122.337H577.009ZM756.875 122.337C756.956 122.336 757.037 122.351 757.112 122.382C757.186 122.414 757.254 122.46 757.31 122.519C757.366 122.577 757.409 122.647 757.437 122.723C757.465 122.799 757.477 122.88 757.471 122.961L755.963 148.301C755.945 148.45 755.875 148.587 755.766 148.689C755.657 148.791 755.516 148.852 755.367 148.86L700.636 148.711V181.967H742.543C742.671 181.965 742.797 182.005 742.9 182.081C743.004 182.156 743.08 182.263 743.118 182.386C743.143 182.467 743.15 182.553 743.139 182.637L741.379 204.336C741.351 204.478 741.278 204.606 741.17 204.702C741.063 204.798 740.927 204.856 740.783 204.867H700.636V236.661H753.15C753.231 236.661 753.312 236.679 753.386 236.711C753.461 236.744 753.528 236.791 753.584 236.85C753.639 236.909 753.682 236.979 753.71 237.055C753.738 237.132 753.751 237.213 753.746 237.294L751.986 266.48C751.971 266.63 751.902 266.77 751.793 266.874C751.684 266.979 751.541 267.04 751.39 267.048H667.426C667.27 267.044 667.121 266.979 667.01 266.869C666.899 266.758 666.835 266.609 666.83 266.452V122.933C666.835 122.777 666.899 122.628 667.01 122.517C667.121 122.406 667.27 122.342 667.426 122.337H756.875ZM837.943 111.469C838.055 111.487 838.162 111.529 838.257 111.592C838.352 111.654 838.432 111.736 838.492 111.833L864.047 174.228L891.435 111.525C891.57 111.345 891.765 111.219 891.985 111.171H922.102C922.182 111.157 922.263 111.161 922.341 111.182C922.419 111.203 922.491 111.241 922.552 111.293C922.614 111.345 922.663 111.41 922.696 111.483C922.729 111.557 922.746 111.637 922.745 111.717C922.744 111.825 922.712 111.93 922.652 112.019L879.282 206.18L914.894 288.552C914.948 288.641 914.975 288.743 914.973 288.847C914.971 288.952 914.94 289.053 914.883 289.14C914.826 289.227 914.744 289.296 914.649 289.339C914.554 289.381 914.448 289.396 914.345 289.38H879.562C879.344 289.338 879.151 289.215 879.021 289.036L850.701 229.052L825.129 288.095C825.067 288.189 824.988 288.269 824.895 288.331C824.802 288.394 824.698 288.437 824.588 288.458H799.118C799.013 288.473 798.906 288.457 798.81 288.413C798.714 288.369 798.632 288.298 798.575 288.209C798.517 288.12 798.486 288.017 798.485 287.911C798.484 287.805 798.513 287.701 798.569 287.611L836.974 202.753L795.16 112.307C795.104 112.219 795.074 112.116 795.074 112.011C795.075 111.907 795.106 111.804 795.163 111.716C795.219 111.628 795.3 111.557 795.395 111.513C795.49 111.47 795.596 111.454 795.7 111.469H837.943ZM163.205 192.397C168.271 192.397 204.954 191.578 204.954 162.596C204.954 135.589 178.022 134.407 163.205 146.541V192.397ZM186.264 221.677C178.606 223.317 170.865 224.542 163.075 225.346V287.536C163.07 287.694 163.006 287.844 162.896 287.956C162.785 288.068 162.636 288.135 162.479 288.142H129.558C129.4 288.137 129.249 288.072 129.138 287.959C129.027 287.846 128.964 287.695 128.962 287.536C128.962 287.536 128.897 244.698 128.869 201.859V116.247C128.869 115.846 129.474 116.144 129.474 116.144L129.298 115.576C174.865 101.281 201.537 104.857 216.838 112.205C222.837 114.957 228.111 119.07 232.241 124.219C233.41 125.7 234.438 127.287 235.314 128.959C235.675 129.63 235.987 130.328 236.245 131.045C245.279 155.258 239.784 174.647 232.036 187.946C228.819 193.514 224.915 198.654 220.414 203.247C218.691 204.988 217.21 206.32 216.167 207.223C215.636 207.68 215.236 208.005 214.947 208.248C238.722 241.168 244.385 286.698 244.385 286.698C244.385 286.698 244.17 287.359 243.807 287.369C243.807 287.369 235.426 287.639 226.97 287.769C222.751 287.834 218.523 287.862 215.338 287.769C214.036 287.77 212.734 287.721 211.436 287.62C211.042 287.593 210.65 287.54 210.263 287.462C210.12 287.435 209.98 287.398 209.844 287.35C209.729 287.306 209.626 287.235 209.545 287.142C209.464 287.05 209.407 286.939 209.378 286.819C206.188 270.24 201.279 254.038 194.729 238.477C192.336 232.889 190.184 228.577 188.611 225.681C187.828 224.238 187.195 223.148 186.748 222.412C186.543 222.105 186.385 221.872 186.264 221.677ZM372.91 122.449C372.991 122.449 373.072 122.465 373.146 122.498C373.22 122.53 373.287 122.578 373.342 122.637C373.397 122.697 373.44 122.767 373.466 122.844C373.493 122.92 373.503 123.001 373.497 123.082L371.988 148.385C371.97 148.533 371.9 148.671 371.792 148.773C371.683 148.875 371.541 148.935 371.392 148.944L316.661 148.804V182.06H358.615C358.7 182.058 358.784 182.074 358.862 182.107C358.939 182.14 359.009 182.19 359.066 182.253C359.122 182.316 359.165 182.39 359.19 182.471C359.215 182.552 359.222 182.637 359.211 182.721L357.451 204.42C357.425 204.562 357.352 204.692 357.244 204.788C357.136 204.884 356.999 204.941 356.855 204.951H316.661V236.773H369.176C369.258 236.773 369.338 236.789 369.413 236.821C369.488 236.853 369.556 236.9 369.612 236.959C369.668 237.019 369.71 237.089 369.737 237.167C369.765 237.243 369.777 237.325 369.772 237.406L368.012 266.573C367.995 266.723 367.927 266.863 367.817 266.966C367.708 267.07 367.566 267.132 367.416 267.142H283.461C283.302 267.137 283.15 267.072 283.038 266.959C282.925 266.847 282.86 266.695 282.856 266.536V123.045C282.858 122.886 282.923 122.735 283.036 122.623C283.15 122.512 283.302 122.449 283.461 122.449H372.91Z" fill="#ED2027"/>
<path fill-rule="evenodd" clip-rule="evenodd" d="M482.794 188.346L485.737 185.049C485.82 185.047 485.902 185.063 485.978 185.095C486.055 185.127 486.123 185.176 486.179 185.237C486.236 185.297 486.279 185.369 486.305 185.448C486.332 185.526 486.341 185.61 486.333 185.692L484.573 206.18C484.549 206.325 484.478 206.458 484.37 206.558C484.262 206.658 484.123 206.718 483.977 206.73H447.201V266.08C447.194 266.236 447.129 266.384 447.019 266.494C446.908 266.604 446.761 266.669 446.605 266.676H413.107C412.951 266.669 412.803 266.604 412.693 266.494C412.582 266.383 412.517 266.236 412.51 266.08L414.736 263.146H443.131C443.286 263.142 443.434 263.079 443.545 262.97C443.655 262.862 443.72 262.715 443.727 262.56V203.247H480.503C480.649 203.237 480.787 203.176 480.894 203.076C481.001 202.976 481.07 202.842 481.09 202.697L482.794 188.346ZM501.159 121.751C501.239 121.75 501.319 121.766 501.394 121.798C501.468 121.83 501.535 121.876 501.591 121.934C501.647 121.993 501.69 122.062 501.718 122.138C501.746 122.213 501.759 122.294 501.755 122.375L500.097 147.789C500.08 147.938 500.01 148.075 499.901 148.178C499.792 148.28 499.65 148.34 499.501 148.348H446.577V185.049L443.056 188.393V144.846H495.99C496.138 144.838 496.279 144.777 496.387 144.675C496.494 144.573 496.562 144.435 496.577 144.287L498.048 124.628L501.159 121.751ZM622.299 239.874L625.503 237.257C625.625 237.258 625.745 237.296 625.845 237.366C625.946 237.436 626.022 237.536 626.065 237.651C626.092 237.727 626.104 237.809 626.099 237.89L624.339 266.452C624.322 266.604 624.252 266.744 624.141 266.848C624.03 266.952 623.885 267.014 623.733 267.02H544.128C543.971 267.016 543.822 266.951 543.712 266.841C543.601 266.73 543.536 266.581 543.532 266.424L546.447 263.5H620.222C620.372 263.493 620.514 263.433 620.623 263.331C620.733 263.228 620.802 263.09 620.818 262.941L622.299 239.874ZM577.011 122.337C577.168 122.34 577.318 122.404 577.429 122.515C577.54 122.626 577.604 122.776 577.607 122.933V237.257L574.087 240.749V125.42L577.011 122.337ZM750.052 241.261L753.153 236.605C753.234 236.606 753.314 236.623 753.389 236.655C753.463 236.688 753.53 236.735 753.586 236.794C753.642 236.853 753.685 236.923 753.713 237C753.741 237.076 753.753 237.157 753.749 237.238L751.989 266.424C751.973 266.575 751.905 266.714 751.796 266.818C751.686 266.923 751.543 266.984 751.393 266.992H667.429C667.272 266.988 667.123 266.923 667.012 266.813C666.902 266.702 666.837 266.553 666.833 266.396L669.04 263.472H747.872C748.023 263.466 748.165 263.404 748.274 263.299C748.382 263.195 748.448 263.054 748.459 262.904L750.052 241.261ZM739.342 185.022L742.592 181.939C742.72 181.937 742.846 181.977 742.949 182.053C743.053 182.128 743.129 182.235 743.167 182.358C743.192 182.439 743.199 182.525 743.188 182.609L741.428 204.308C741.4 204.45 741.327 204.578 741.219 204.674C741.112 204.77 740.976 204.828 740.832 204.839H700.638V236.633L697.146 241.373V201.328H737.34C737.483 201.32 737.619 201.264 737.727 201.169C737.835 201.075 737.908 200.947 737.936 200.807L739.342 185.022ZM756.878 122.337C756.959 122.336 757.039 122.351 757.114 122.382C757.189 122.414 757.257 122.46 757.313 122.519C757.369 122.577 757.412 122.647 757.44 122.723C757.467 122.799 757.479 122.88 757.474 122.961L755.965 148.301C755.947 148.45 755.878 148.587 755.769 148.689C755.66 148.791 755.518 148.852 755.369 148.86L700.638 148.711V181.967L697.146 186.679V145.163L751.877 145.312C752.026 145.305 752.169 145.245 752.278 145.142C752.387 145.04 752.456 144.902 752.473 144.753L753.805 126.034L756.878 122.337ZM850.704 229.052L825.131 288.095C825.07 288.189 824.99 288.269 824.898 288.331C824.805 288.394 824.701 288.437 824.591 288.458H799.121C799.016 288.473 798.909 288.457 798.813 288.413C798.716 288.369 798.635 288.298 798.578 288.209C798.521 288.12 798.49 288.016 798.489 287.911C798.487 287.805 798.516 287.701 798.571 287.611L803.47 284.929H821.071C821.181 284.908 821.285 284.866 821.378 284.803C821.471 284.741 821.55 284.66 821.611 284.566L848.068 223.474L850.704 229.052ZM916.825 114.505L922.096 111.115C922.175 111.101 922.256 111.105 922.334 111.126C922.412 111.147 922.484 111.185 922.545 111.237C922.607 111.289 922.656 111.354 922.689 111.427C922.723 111.501 922.739 111.581 922.738 111.661C922.738 111.769 922.705 111.874 922.645 111.963L879.285 206.18L914.897 288.551C914.951 288.641 914.978 288.743 914.976 288.847C914.974 288.952 914.943 289.053 914.886 289.14C914.828 289.227 914.747 289.296 914.651 289.338C914.556 289.381 914.451 289.396 914.347 289.38H879.564C879.347 289.338 879.154 289.215 879.024 289.036L880.495 285.86H910.827C910.93 285.873 911.034 285.857 911.127 285.814C911.221 285.77 911.301 285.702 911.357 285.615C911.414 285.529 911.444 285.428 911.446 285.325C911.448 285.221 911.421 285.12 911.367 285.031L875.755 202.651L916.825 114.505ZM837.936 111.432C838.048 111.45 838.156 111.491 838.25 111.554C838.345 111.616 838.425 111.699 838.486 111.795L864.04 174.191L862.969 176.64L836.26 111.451L837.936 111.432ZM186.266 221.677C176.954 223.697 165.499 225.094 163.077 225.346V287.536C163.073 287.694 163.009 287.844 162.898 287.956C162.788 288.068 162.639 288.135 162.481 288.142H129.561C129.403 288.137 129.252 288.072 129.141 287.959C129.03 287.846 128.967 287.695 128.965 287.536L131.498 284.612H158.961C159.119 284.61 159.269 284.546 159.38 284.435C159.491 284.324 159.555 284.174 159.557 284.016V221.872C167.346 221.059 175.087 219.834 182.746 218.203C182.867 218.38 183.025 218.622 183.23 218.948C183.659 219.646 184.255 220.661 184.981 222.002C187.086 225.932 189.041 229.946 191.211 235.04C197.758 250.587 202.667 266.773 205.86 283.336C205.887 283.456 205.944 283.566 206.026 283.657C206.107 283.748 206.211 283.817 206.326 283.858C206.459 283.919 206.601 283.963 206.745 283.988C207.015 284.035 207.416 284.091 207.918 284.128L211.811 284.193C212.64 284.24 210.675 284.268 211.811 284.286C214.996 284.342 219.261 284.286 223.452 284.286C231.88 284.156 240.29 283.895 240.29 283.895C240.643 283.895 240.867 283.225 240.867 283.225C240.867 283.225 235.205 237.685 211.429 204.765C211.718 204.541 212.128 204.187 212.649 203.74C213.692 202.809 215.173 201.505 216.896 199.764C221.437 195.193 225.382 190.068 228.639 184.509C236.388 171.211 241.891 151.859 232.849 127.599C232.589 126.885 232.278 126.191 231.917 125.522C231.041 123.851 230.012 122.264 228.844 120.782C228.444 120.261 228.006 119.73 227.522 119.18C229.293 120.732 230.914 122.447 232.364 124.302C233.533 125.784 234.562 127.371 235.438 129.042C235.8 129.714 236.111 130.411 236.369 131.129C245.402 155.342 239.908 174.731 232.16 188.03C228.9 193.575 224.955 198.688 220.416 203.247C218.693 204.988 217.213 206.32 216.17 207.223C215.639 207.679 215.238 208.005 214.95 208.248C238.725 241.168 244.387 286.698 244.387 286.698C244.387 286.698 244.173 287.359 243.81 287.369C243.81 287.369 235.428 287.639 226.972 287.769C222.754 287.834 218.526 287.862 215.341 287.769C214.039 287.77 212.737 287.72 211.439 287.62C211.045 287.593 210.653 287.54 210.265 287.462C210.123 287.435 209.983 287.397 209.846 287.35C209.731 287.306 209.629 287.235 209.548 287.142C209.467 287.05 209.409 286.939 209.381 286.819L208.84 284.156L207.909 284.091C207.406 284.091 206.978 283.998 206.736 283.951C206.591 283.926 206.45 283.882 206.317 283.821C206.201 283.78 206.098 283.711 206.017 283.62C205.935 283.529 205.878 283.418 205.851 283.299C202.661 266.72 197.752 250.518 191.202 234.957C189.032 229.89 187.076 225.877 185.084 222.161L186.266 221.677ZM196.874 143.328C187.738 136.409 172.893 138.672 163.208 146.569V192.397C161.587 192.49 160.358 196.122 159.688 196.122V143.04C170.742 133.997 188.548 132.367 196.874 143.328ZM366.077 241.429L369.178 236.773C369.26 236.773 369.34 236.789 369.416 236.821C369.491 236.853 369.559 236.9 369.614 236.959C369.67 237.019 369.713 237.089 369.74 237.166C369.768 237.243 369.78 237.325 369.774 237.406L368.014 266.573C367.998 266.723 367.929 266.862 367.82 266.966C367.711 267.07 367.569 267.132 367.418 267.141H283.464C283.304 267.137 283.153 267.072 283.04 266.959C282.928 266.847 282.863 266.695 282.858 266.536L285.121 263.612H363.898C364.047 263.605 364.189 263.544 364.298 263.442C364.408 263.34 364.477 263.202 364.494 263.053L366.077 241.429ZM355.367 185.143L358.618 182.06C358.702 182.058 358.786 182.074 358.864 182.107C358.942 182.14 359.012 182.19 359.068 182.253C359.125 182.316 359.167 182.39 359.192 182.471C359.217 182.552 359.225 182.637 359.214 182.721L357.453 204.42C357.427 204.562 357.354 204.692 357.247 204.788C357.139 204.884 357.002 204.941 356.857 204.951H316.664V236.773L313.143 241.513V201.468H353.337C353.48 201.457 353.615 201.4 353.722 201.306C353.829 201.212 353.904 201.086 353.933 200.946L355.367 185.143ZM372.913 122.449C372.994 122.449 373.074 122.465 373.149 122.498C373.223 122.53 373.29 122.578 373.345 122.637C373.4 122.697 373.442 122.767 373.469 122.843C373.495 122.92 373.506 123.001 373.499 123.082L371.991 148.385C371.973 148.533 371.903 148.67 371.794 148.773C371.685 148.875 371.544 148.935 371.395 148.944L316.664 148.804V182.06L313.143 186.791V145.275L367.874 145.424C368.024 145.416 368.166 145.356 368.275 145.254C368.384 145.151 368.453 145.014 368.47 144.865L369.802 126.146L372.913 122.449Z" fill="black"/>
<path d="M982.032 104.783C988.29 104.759 994.415 106.591 999.633 110.047C1004.85 113.503 1008.93 118.429 1011.35 124.2C1014.03 130.507 1014.6 137.509 1012.99 144.168C1011.38 150.829 1007.66 156.791 1002.39 161.171C997.12 165.552 990.58 168.118 983.738 168.49C976.896 168.863 970.116 167.021 964.403 163.237C958.693 159.452 954.353 153.929 952.026 147.486C949.699 141.041 949.51 134.018 951.486 127.457C953.466 120.897 957.505 115.15 963.006 111.064C968.508 106.98 975.179 104.778 982.032 104.783ZM982.115 111.05C977.643 111.038 973.246 112.206 969.369 114.436C965.492 116.667 962.272 119.881 960.035 123.755C957.794 127.627 956.615 132.023 956.617 136.497C956.625 140.97 957.81 145.363 960.054 149.233C962.299 153.092 965.52 156.293 969.394 158.514C973.269 160.735 977.659 161.898 982.125 161.889C985.505 161.954 988.867 161.344 992.006 160.095C995.148 158.846 998.01 156.983 1000.42 154.616C1002.84 152.249 1004.75 149.423 1006.06 146.306C1007.37 143.189 1008.04 139.842 1008.04 136.46C1008.04 133.08 1007.37 129.733 1006.06 126.615C1004.75 123.497 1002.84 120.672 1000.42 118.305C998.01 115.938 995.148 114.076 992.006 112.826C988.864 111.577 985.505 110.967 982.125 111.032L982.115 111.05ZM974.609 153.414H967.699V119.795H983.633C985.775 119.728 987.908 120.129 989.873 120.969C991.458 121.672 992.788 122.845 993.682 124.33C994.559 125.862 995.003 127.604 994.967 129.369C994.998 131.652 994.136 133.858 992.564 135.515C990.797 137.33 988.438 138.453 985.915 138.681C987.286 139.18 988.505 140.023 989.454 141.131C990.775 142.883 991.967 144.729 993.021 146.653L996.988 153.414H988.513L985.72 148.003C984.766 146.127 983.664 144.33 982.423 142.63C981.716 141.632 980.78 140.817 979.694 140.255C978.636 139.813 977.497 139.6 976.351 139.631H974.582L974.609 153.414ZM974.609 125.159V134.276H980.095C982.022 134.393 983.959 134.075 985.747 133.345C987.042 132.724 987.685 131.443 987.685 129.499C987.694 128.875 987.554 128.259 987.256 127.708C986.96 127.158 986.527 126.694 985.999 126.361C984.399 125.48 982.578 125.079 980.756 125.206L974.609 125.159Z" fill="black" stroke="black" stroke-width="15.56"/>
<path d="M982.032 104.783C988.29 104.759 994.415 106.591 999.633 110.047C1004.85 113.503 1008.93 118.429 1011.35 124.2C1014.03 130.507 1014.6 137.509 1012.99 144.168C1011.38 150.829 1007.66 156.791 1002.39 161.171C997.12 165.552 990.58 168.118 983.738 168.49C976.896 168.863 970.116 167.021 964.403 163.237C958.693 159.452 954.353 153.929 952.026 147.486C949.699 141.041 949.51 134.018 951.486 127.457C953.466 120.897 957.505 115.15 963.006 111.064C968.508 106.98 975.179 104.778 982.032 104.783ZM982.115 111.05C977.643 111.038 973.246 112.206 969.369 114.436C965.492 116.667 962.272 119.881 960.035 123.755C957.794 127.627 956.615 132.023 956.617 136.497C956.625 140.97 957.81 145.363 960.054 149.233C962.299 153.092 965.52 156.293 969.394 158.514C973.269 160.735 977.659 161.898 982.125 161.889C985.505 161.954 988.867 161.344 992.006 160.095C995.148 158.846 998.01 156.983 1000.42 154.616C1002.84 152.249 1004.75 149.423 1006.06 146.306C1007.37 143.189 1008.04 139.842 1008.04 136.46C1008.04 133.08 1007.37 129.733 1006.06 126.615C1004.75 123.497 1002.84 120.672 1000.42 118.305C998.01 115.938 995.148 114.076 992.006 112.826C988.864 111.577 985.505 110.967 982.125 111.032L982.115 111.05ZM974.609 153.414H967.699V119.795H983.633C985.775 119.728 987.908 120.129 989.873 120.969C991.458 121.672 992.788 122.845 993.682 124.33C994.559 125.862 995.003 127.604 994.967 129.369C994.998 131.652 994.136 133.858 992.564 135.515C990.797 137.33 988.438 138.453 985.915 138.681C987.286 139.18 988.505 140.023 989.454 141.131C990.775 142.883 991.967 144.729 993.021 146.653L996.988 153.414H988.513L985.72 148.003C984.766 146.127 983.664 144.33 982.423 142.63C981.716 141.632 980.78 140.817 979.694 140.255C978.636 139.813 977.497 139.6 976.351 139.631H974.582L974.609 153.414ZM974.609 125.159V134.276H980.095C982.022 134.393 983.959 134.075 985.747 133.345C987.042 132.724 987.685 131.443 987.685 129.499C987.694 128.875 987.554 128.259 987.256 127.708C986.96 127.158 986.527 126.694 985.999 126.361C984.399 125.48 982.578 125.079 980.756 125.206L974.609 125.159Z" fill="black" stroke="black" stroke-width="7.78"/>
<path d="M982.032 104.783C988.29 104.759 994.415 106.591 999.633 110.047C1004.85 113.503 1008.93 118.429 1011.35 124.2C1014.03 130.507 1014.6 137.509 1012.99 144.168C1011.38 150.829 1007.66 156.791 1002.39 161.171C997.12 165.552 990.58 168.118 983.738 168.49C976.896 168.863 970.116 167.021 964.403 163.237C958.693 159.452 954.353 153.929 952.026 147.486C949.699 141.041 949.51 134.018 951.486 127.457C953.466 120.897 957.505 115.15 963.006 111.064C968.508 106.98 975.179 104.778 982.032 104.783ZM982.115 111.05C977.643 111.038 973.246 112.206 969.369 114.436C965.492 116.667 962.272 119.881 960.035 123.755C957.794 127.627 956.615 132.023 956.617 136.497C956.625 140.97 957.81 145.363 960.054 149.233C962.299 153.092 965.52 156.293 969.394 158.514C973.269 160.735 977.659 161.898 982.125 161.889C985.505 161.954 988.867 161.344 992.006 160.095C995.148 158.846 998.01 156.983 1000.42 154.616C1002.84 152.249 1004.75 149.423 1006.06 146.306C1007.37 143.189 1008.04 139.842 1008.04 136.46C1008.04 133.08 1007.37 129.733 1006.06 126.615C1004.75 123.497 1002.84 120.672 1000.42 118.305C998.01 115.938 995.148 114.076 992.006 112.826C988.864 111.577 985.505 110.967 982.125 111.032L982.115 111.05ZM974.609 153.414H967.699V119.795H983.633C985.775 119.728 987.908 120.129 989.873 120.969C991.458 121.672 992.788 122.845 993.682 124.33C994.559 125.862 995.003 127.604 994.967 129.369C994.998 131.652 994.136 133.858 992.564 135.515C990.797 137.33 988.438 138.453 985.915 138.681C987.286 139.18 988.505 140.023 989.454 141.131C990.775 142.883 991.967 144.729 993.021 146.653L996.988 153.414H988.513L985.72 148.003C984.766 146.127 983.664 144.33 982.423 142.63C981.716 141.632 980.78 140.817 979.694 140.255C978.636 139.813 977.497 139.6 976.351 139.631H974.582L974.609 153.414ZM974.609 125.159V134.276H980.095C982.022 134.393 983.959 134.075 985.747 133.345C987.042 132.724 987.685 131.443 987.685 129.499C987.694 128.875 987.554 128.259 987.256 127.708C986.96 127.158 986.527 126.694 985.999 126.361C984.399 125.48 982.578 125.079 980.756 125.206L974.609 125.159Z" fill="white"/>
<defs>
<linearGradient id="paint0_linear_2_4389" x1="862.083" y1="-0.898401" x2="159.696" y2="472.86" gradientUnits="userSpaceOnUse">
<stop stop-color="white"/>
<stop offset="0.06" stop-color="#E2F4FD"/>
<stop offset="0.13" stop-color="#E2F4FD"/>
<stop offset="0.28" stop-color="#F6FBFD"/>
<stop offset="0.37" stop-color="#A7DCDB"/>
<stop offset="0.44" stop-color="#F2FAFE"/>
<stop offset="0.64" stop-color="#E2F4FD"/>
<stop offset="0.79" stop-color="#EFF9FE"/>
<stop offset="0.9" stop-color="#A7DCDB"/>
<stop offset="1" stop-color="white"/>
</linearGradient>
<linearGradient id="paint1_linear_2_4389" x1="362257" y1="225680" x2="454770" y2="-74513.6" gradientUnits="userSpaceOnUse">
<stop stop-color="white"/>
<stop offset="0.06" stop-color="#E2F4FD"/>
<stop offset="0.13" stop-color="#E2F4FD"/>
<stop offset="0.28" stop-color="#F6FBFD"/>
<stop offset="0.37" stop-color="#A7DCDB"/>
<stop offset="0.44" stop-color="#F2FAFE"/>
<stop offset="0.64" stop-color="#E2F4FD"/>
<stop offset="0.79" stop-color="#EFF9FE"/>
<stop offset="0.9" stop-color="#A7DCDB"/>
<stop offset="1" stop-color="white"/>
</linearGradient>
<linearGradient id="paint2_linear_2_4389" x1="136893" y1="62984.8" x2="168633" y2="25627.9" gradientUnits="userSpaceOnUse">
<stop stop-color="white"/>
<stop offset="0.06" stop-color="#E2F4FD"/>
<stop offset="0.13" stop-color="#E2F4FD"/>
<stop offset="0.28" stop-color="#F6FBFD"/>
<stop offset="0.37" stop-color="#A7DCDB"/>
<stop offset="0.44" stop-color="#F2FAFE"/>
<stop offset="0.64" stop-color="#E2F4FD"/>
<stop offset="0.79" stop-color="#EFF9FE"/>
<stop offset="0.9" stop-color="#A7DCDB"/>
<stop offset="1" stop-color="white"/>
</linearGradient>
<linearGradient id="paint3_linear_2_4389" x1="79563" y1="47743.4" x2="100689" y2="26904.4" gradientUnits="userSpaceOnUse">
<stop stop-color="white"/>
<stop offset="0.06" stop-color="#E2F4FD"/>
<stop offset="0.13" stop-color="#E2F4FD"/>
<stop offset="0.28" stop-color="#F6FBFD"/>
<stop offset="0.37" stop-color="#A7DCDB"/>
<stop offset="0.44" stop-color="#F2FAFE"/>
<stop offset="0.64" stop-color="#E2F4FD"/>
<stop offset="0.79" stop-color="#EFF9FE"/>
<stop offset="0.9" stop-color="#A7DCDB"/>
<stop offset="1" stop-color="white"/>
</linearGradient>
<linearGradient id="paint4_linear_2_4389" x1="61181.6" y1="47809.9" x2="78809.8" y2="31345.4" gradientUnits="userSpaceOnUse">
<stop stop-color="white"/>
<stop offset="0.06" stop-color="#E2F4FD"/>
<stop offset="0.13" stop-color="#E2F4FD"/>
<stop offset="0.28" stop-color="#F6FBFD"/>
<stop offset="0.37" stop-color="#A7DCDB"/>
<stop offset="0.44" stop-color="#F2FAFE"/>
<stop offset="0.64" stop-color="#E2F4FD"/>
<stop offset="0.79" stop-color="#EFF9FE"/>
<stop offset="0.9" stop-color="#A7DCDB"/>
<stop offset="1" stop-color="white"/>
</linearGradient>
<linearGradient id="paint5_linear_2_4389" x1="47463.1" y1="45609.4" x2="68595.1" y2="24332" gradientUnits="userSpaceOnUse">
<stop stop-color="white"/>
<stop offset="0.06" stop-color="#E2F4FD"/>
<stop offset="0.13" stop-color="#E2F4FD"/>
<stop offset="0.28" stop-color="#F6FBFD"/>
<stop offset="0.37" stop-color="#A7DCDB"/>
<stop offset="0.44" stop-color="#F2FAFE"/>
<stop offset="0.64" stop-color="#E2F4FD"/>
<stop offset="0.79" stop-color="#EFF9FE"/>
<stop offset="0.9" stop-color="#A7DCDB"/>
<stop offset="1" stop-color="white"/>
</linearGradient>
<linearGradient id="paint6_linear_2_4389" x1="32856" y1="47738.4" x2="53993.1" y2="26855.1" gradientUnits="userSpaceOnUse">
<stop stop-color="white"/>
<stop offset="0.06" stop-color="#E2F4FD"/>
<stop offset="0.13" stop-color="#E2F4FD"/>
<stop offset="0.28" stop-color="#F6FBFD"/>
<stop offset="0.37" stop-color="#A7DCDB"/>
<stop offset="0.44" stop-color="#F2FAFE"/>
<stop offset="0.64" stop-color="#E2F4FD"/>
<stop offset="0.79" stop-color="#EFF9FE"/>
<stop offset="0.9" stop-color="#A7DCDB"/>
<stop offset="1" stop-color="white"/>
</linearGradient>
<linearGradient id="paint7_linear_2_4389" x1="18248" y1="67870.8" x2="47107.7" y2="39854.5" gradientUnits="userSpaceOnUse">
<stop stop-color="white"/>
<stop offset="0.06" stop-color="#E2F4FD"/>
<stop offset="0.13" stop-color="#E2F4FD"/>
<stop offset="0.28" stop-color="#F6FBFD"/>
<stop offset="0.37" stop-color="#A7DCDB"/>
<stop offset="0.44" stop-color="#F2FAFE"/>
<stop offset="0.64" stop-color="#E2F4FD"/>
<stop offset="0.79" stop-color="#EFF9FE"/>
<stop offset="0.9" stop-color="#A7DCDB"/>
<stop offset="1" stop-color="white"/>
</linearGradient>
</defs>
</svg>
