<svg width="24" height="24" viewBox="0 0 24 24" fill="none" xmlns="http://www.w3.org/2000/svg">
<g clip-path="url(#clip0_10228_28018)">
<path d="M12 24C18.6274 24 24 18.6274 24 12C24 5.37258 18.6274 0 12 0C5.37258 0 0 5.37258 0 12C0 18.6274 5.37258 24 12 24Z" fill="black"/>
<path d="M9.76385 7.19752C9.62094 6.79061 9.48199 6.39038 9.37018 5.98146C9.25538 5.56151 9.1697 5.13554 9.10519 4.70555C9.06946 4.46615 9.07475 4.45913 9.30368 4.37888C9.76716 4.21705 10.2399 4.09 10.7252 4.01544C10.9498 3.981 10.9611 3.98835 10.9915 4.21939C11.1199 5.19238 11.3915 6.12256 11.8047 7.01162C11.8517 7.11226 11.8768 7.2761 11.9843 7.28145C12.1213 7.28813 12.1388 7.11427 12.1884 7.00928C12.5996 6.13025 12.8702 5.2091 12.9943 4.24514C13.0281 3.98501 13.0353 3.97866 13.2963 4.01744C13.7826 4.09 14.2531 4.22775 14.7166 4.38657C14.9279 4.4588 14.9236 4.46782 14.8906 4.69786C14.7794 5.46789 14.5803 6.21518 14.3173 6.94642C14.2878 7.02867 14.1975 7.12664 14.2858 7.20421C14.3556 7.2654 14.4443 7.18616 14.5194 7.15473C15.277 6.83876 15.9399 6.38035 16.5238 5.80425C16.5506 5.7775 16.5771 5.75076 16.6039 5.72434C16.8176 5.51169 16.8169 5.51269 17.0554 5.7123C17.4104 6.00921 17.7512 6.32117 18.0489 6.67693C18.1991 6.85681 18.1974 6.85949 18.042 7.02299C16.9056 8.21698 15.5337 9.00105 13.9378 9.39426C13.8644 9.41231 13.7903 9.42602 13.7181 9.44775C13.5458 9.50025 13.5335 9.53736 13.6655 9.67278C14.1022 10.1198 14.5842 10.5124 15.1036 10.8587C15.2654 10.9667 15.2713 10.9624 15.4606 10.7852C16.2588 10.0362 17.16 9.44073 18.1538 8.98801C18.4449 8.85527 18.7449 8.74159 19.0447 8.62991C19.2481 8.55435 19.2822 8.57207 19.3662 8.77502C19.5538 9.22975 19.7146 9.69384 19.8175 10.176C19.8634 10.3926 19.8608 10.4033 19.6408 10.4813C19.1598 10.6518 18.6976 10.8618 18.2563 11.1192C17.9712 11.2857 17.6962 11.4679 17.4313 11.6652C17.3582 11.7197 17.2407 11.7645 17.2529 11.8658C17.2678 11.9922 17.4101 11.9832 17.5017 12.0123C18.1776 12.2269 18.8693 12.3617 19.5763 12.4162C20.1086 12.4573 20.0054 12.4403 19.963 12.8936C19.924 13.3173 19.8416 13.7352 19.7219 14.1441C19.6583 14.3621 19.6521 14.3705 19.4268 14.3538C18.6543 14.2973 17.8957 14.1585 17.152 13.9395C15.2694 13.3852 13.6411 12.4021 12.2529 11.0129C11.9817 10.7411 12.0316 10.7113 11.7402 11.0059C10.2667 12.4958 8.51633 13.5069 6.49271 14.0372C5.88135 14.1973 5.25908 14.303 4.6292 14.3511C4.33874 14.3735 4.34271 14.3655 4.261 14.093C4.12999 13.6563 4.06482 13.2079 4.01388 12.7569C3.9798 12.4563 3.98576 12.4463 4.30268 12.4242C4.99145 12.3757 5.66731 12.261 6.32895 12.0624C6.44606 12.0273 6.56251 11.9889 6.67797 11.9481C6.77754 11.9126 6.78879 11.8464 6.71171 11.7809C6.60419 11.6893 6.49138 11.6034 6.37494 11.5231C5.75068 11.0935 5.08805 10.738 4.37149 10.4876C4.12238 10.4003 4.12007 10.3967 4.17895 10.1459C4.28713 9.68515 4.42575 9.2341 4.61795 8.80077C4.72481 8.5597 4.72878 8.55335 4.97358 8.63827C5.78773 8.92081 6.55192 9.30465 7.26947 9.78311C7.72567 10.0874 8.15011 10.4311 8.5557 10.7992C8.73567 10.9627 8.73533 10.9597 8.93548 10.826C9.39896 10.5154 9.82869 10.1639 10.2237 9.76907C10.2703 9.72226 10.3186 9.67679 10.3603 9.62597C10.4268 9.54505 10.3967 9.48687 10.3074 9.45444C10.2545 9.43505 10.1985 9.42435 10.1436 9.41164C8.52129 9.03683 7.13185 8.24774 5.97134 7.05074C5.94487 7.02366 5.91907 6.99591 5.8926 6.96916C5.82247 6.89827 5.80923 6.82605 5.88003 6.74581C6.24989 6.32786 6.64588 5.938 7.08454 5.59227C7.17486 5.52105 7.23672 5.56251 7.30222 5.63005C7.52553 5.86076 7.75677 6.08244 8.00852 6.28238C8.48457 6.66054 9.00164 6.96615 9.56602 7.1915C9.61598 7.21257 9.66758 7.24467 9.76385 7.19752ZM11.9704 19.9964C11.7352 19.9964 11.4993 20.0061 11.2648 19.9934C11.057 19.982 11.0276 19.9433 11.0269 19.7299C11.0246 19.0121 11.0183 18.2939 11.0299 17.576C11.0339 17.3443 10.9674 17.1637 10.8264 16.9815C10.0464 15.9758 9.27589 14.9623 8.50442 13.9499C8.30692 13.6911 8.31056 13.6891 8.61128 13.544C9.00164 13.3554 9.3844 13.1531 9.75161 12.9214C10.0298 12.7465 10.0315 12.7499 10.2237 13.0016C10.7444 13.6837 11.2651 14.3658 11.7865 15.0476C11.9949 15.3201 12.0005 15.3194 12.2027 15.0546C12.7346 14.3571 13.2669 13.6597 13.7995 12.9629C13.9623 12.7499 13.9659 12.7472 14.1823 12.884C14.5971 13.1461 15.0302 13.3741 15.4725 13.5848C15.665 13.676 15.671 13.7055 15.5416 13.8753C14.7424 14.9262 13.9444 15.9781 13.1366 17.023C13.0128 17.1831 12.9582 17.3403 12.9602 17.5402C12.9678 18.2578 12.9639 18.9763 12.9629 19.6938C12.9622 19.953 12.9539 19.9747 12.7032 19.9917C12.46 20.0081 12.2142 19.9951 11.9701 19.9951V19.9964H11.9704Z" fill="#E6642B"/>
</g>
<defs>
<clipPath id="clip0_10228_28018">
<rect width="24" height="24" fill="white"/>
</clipPath>
</defs>
</svg>
