<svg width="24" height="24" viewBox="0 0 24 24" fill="none" xmlns="http://www.w3.org/2000/svg">
<g clip-path="url(#clip0_10228_28026)">
<path d="M12 24C18.6274 24 24 18.6274 24 12C24 5.37258 18.6274 0 12 0C5.37258 0 0 5.37258 0 12C0 18.6274 5.37258 24 12 24Z" fill="black"/>
<path d="M6.63836 6.2623L6.52992 6.95082C6.42148 7.86885 7.0721 8.67213 7.93958 8.67213H16.506L6.63836 12.1148C6.09618 12.3443 5.77087 12.8033 5.66244 13.377L5.22869 16.1311L5.01182 17.2787C4.90339 18.1967 5.554 19 6.42148 19H15.8554C16.6144 19 17.1566 18.4262 17.265 17.7377L17.3735 17.0492C17.4819 16.1311 16.8313 15.3279 15.9638 15.3279H8.04802L17.3735 12.1148C17.9156 11.8852 18.241 11.4262 18.3494 10.8525L18.7831 8.09836L19 6.83607C19 5.80328 18.241 5 17.3735 5H7.93958C7.28897 5 6.63836 5.57377 6.63836 6.2623Z" fill="#EF7D0F"/>
</g>
<defs>
<clipPath id="clip0_10228_28026">
<rect width="24" height="24" fill="white"/>
</clipPath>
</defs>
</svg>
