<?xml version="1.0" encoding="UTF-8"?>
<svg xmlns="http://www.w3.org/2000/svg" xmlns:xlink="http://www.w3.org/1999/xlink" width="40px" height="40px" viewBox="0 0 40 40" version="1.1">
<g id="surface1">
<path style=" stroke:none;fill-rule:nonzero;fill:rgb(0%,0%,0%);fill-opacity:1;" d="M 29.855469 8.382812 L 20 18.238281 L 10.144531 8.382812 C 9.652344 7.933594 8.894531 7.949219 8.421875 8.421875 C 7.949219 8.894531 7.933594 9.652344 8.382812 10.144531 L 18.234375 20 L 8.378906 29.851562 C 8.050781 30.164062 7.917969 30.628906 8.03125 31.066406 C 8.144531 31.507812 8.488281 31.847656 8.925781 31.960938 C 9.363281 32.078125 9.828125 31.945312 10.140625 31.617188 L 20 21.765625 L 29.855469 31.621094 C 30.347656 32.070312 31.105469 32.054688 31.578125 31.582031 C 32.050781 31.109375 32.066406 30.351562 31.617188 29.859375 L 21.761719 20.003906 L 31.617188 10.144531 C 31.945312 9.832031 32.078125 9.367188 31.964844 8.929688 C 31.851562 8.492188 31.507812 8.148438 31.070312 8.035156 C 30.632812 7.921875 30.167969 8.054688 29.855469 8.378906 Z M 29.855469 8.382812 "/>
</g>
</svg>
