<svg width="27" height="19" viewBox="0 0 27 19" fill="none" xmlns="http://www.w3.org/2000/svg">
<path d="M25.5848 3.198C25.2968 2.118 24.4448 1.266 23.3608 0.973997C21.4008 0.449997 13.5368 0.449997 13.5368 0.449997C13.5368 0.449997 5.67684 0.449997 3.71284 0.973997C2.63284 1.262 1.78084 2.114 1.48884 3.198C0.964844 5.158 0.964844 9.25 0.964844 9.25C0.964844 9.25 0.964844 13.342 1.48884 15.302C1.77684 16.382 2.62884 17.234 3.71284 17.526C5.67684 18.05 13.5368 18.05 13.5368 18.05C13.5368 18.05 21.4008 18.05 23.3608 17.526C24.4408 17.238 25.2928 16.386 25.5848 15.302C26.1088 13.342 26.1088 9.25 26.1088 9.25C26.1088 9.25 26.1088 5.158 25.5848 3.198Z" fill="#FF0000"/>
<path d="M18.7949 9.63449L13.4105 4.25005H8.79492V8.8656L14.1794 14.25L18.7949 9.63449ZM12.641 8.09616C12.4889 8.24829 12.2951 8.35189 12.0841 8.39387C11.8731 8.43584 11.6543 8.4143 11.4556 8.33197C11.2568 8.24964 11.0869 8.11021 10.9674 7.93133C10.8479 7.75245 10.7841 7.54213 10.7841 7.32699C10.7841 7.11185 10.8479 6.90154 10.9674 6.72265C11.0869 6.54377 11.2568 6.40434 11.4556 6.32201C11.6543 6.23968 11.8731 6.21814 12.0841 6.26012C12.2951 6.30209 12.4889 6.40569 12.641 6.55782C12.7421 6.6588 12.8223 6.7787 12.877 6.91068C12.9317 7.04266 12.9599 7.18412 12.9599 7.32699C12.9599 7.46986 12.9317 7.61132 12.877 7.7433C12.8223 7.87528 12.7421 7.99519 12.641 8.09616Z" fill="white"/>
</svg>
