<svg xmlns="http://www.w3.org/2000/svg" id="Layer_3" data-name="Layer 3" viewBox="0 0 800 250"><defs><style>.cls-2{fill:#001c20}.cls-3{fill:#e3a355}</style></defs><path d="M0 0h800v250H0z" style="fill:#fffaee"/><path d="M731.25 187.5h-112.5L612.5 175h125l-6.25 12.5z" class="cls-2"/><path d="M731.25 62.5h-112.5L612.5 175h125l-6.25-112.5z" class="cls-3"/><path d="M475 137.5h125l-6.25 50h-112.5l-6.25-50z" class="cls-2"/><path d="M600 137.5H475l6.25-75h112.5l6.25 75z" class="cls-3"/><path d="M337.5 125h125l-6.25 62.5h-112.5L337.5 125z" class="cls-2"/><path d="M462.5 125h-125l6.25-62.5h112.5l6.25 62.5zM325 112.5H200l6.25-50h112.5l6.25 50z" class="cls-3"/><path d="M200 112.5h125l-6.25 75h-112.5l-6.25-75zM68.75 62.5h112.5L187.5 75h-125l6.25-12.5z" class="cls-2"/><path d="M68.75 187.5h112.5L187.5 75h-125l6.25 112.5z" class="cls-3"/><path d="M117.13 158.61v-39.8l-14.37 6.34-5-10.65 21.79-11.58H134v55.69ZM263.16 104.78q-3.89 0-8.17-.26c-2.85-.17-5.58-.38-8.17-.64s-4.76-.49-6.53-.69l.79-7q2.83.15 6.58.41c2.51.17 5 .32 7.55.44s4.74.18 6.63.18a21.17 21.17 0 0 0 4.37-.36 5.13 5.13 0 0 0 2.38-1 2.38 2.38 0 0 0 .75-1.83 1.74 1.74 0 0 0-.7-1.46 6.89 6.89 0 0 0-2.7-.92q-2-.39-5.69-.75a96.49 96.49 0 0 1-9.67-1.36 25.2 25.2 0 0 1-6.32-2 7.92 7.92 0 0 1-3.44-3 10 10 0 0 1 1.63-11.29 15.83 15.83 0 0 1 7.64-3.39 62.41 62.41 0 0 1 11.75-1q3.18 0 7.2.21c2.67.13 5.29.29 7.85.46s4.79.36 6.67.56l-.62 7.18-6.22-.33q-3.59-.18-7.2-.33c-2.41-.1-4.53-.16-6.36-.16a26.77 26.77 0 0 0-4.28.29 5.76 5.76 0 0 0-2.47.84 1.78 1.78 0 0 0-.75 1.49 1.91 1.91 0 0 0 .79 1.62 7.21 7.21 0 0 0 2.78 1q2 .39 5.7.9c3.82.48 7 1 9.62 1.49a26 26 0 0 1 6.23 1.9 7.71 7.71 0 0 1 3.4 2.9 8.69 8.69 0 0 1 1.06 4.54 9.05 9.05 0 0 1-2.56 6.74 15.09 15.09 0 0 1-7.51 3.65 56.37 56.37 0 0 1-12.01.97ZM377.43 115V69.54h23a50.45 50.45 0 0 1 13.42 1.51 14.83 14.83 0 0 1 8.12 5.11q2.74 3.6 2.74 10t-2.74 10.15a15.09 15.09 0 0 1-8.12 5.41 46.55 46.55 0 0 1-13.42 1.64h-7.25V115Zm15.71-21.31h6.63q4.77 0 6.84-1.81c1.38-1.21 2.08-3.11 2.08-5.71s-.68-4.49-2-5.55-3.65-1.58-6.89-1.58h-6.63Z" class="cls-2"/><path d="m371.34 180.26-9.53-45.71h14l6.44 35.36h1.95l8.16-34.91h15.46l8.3 34.88h2l5.91-35.36h14.13l-9.36 45.71h-21.6l-7.33-34.62h.13l-7.42 34.62Z" class="cls-3"/><path d="M529.6 126.13V73.75h15.81v52.38Z" class="cls-2"/><path d="M266.25 176.08v-8.14h-26v-9L252.39 124H268l-14 33.6h12.27l.89-12.49 12.8-.24v12.73h4.68v10.36h-4.68v8.14ZM530.52 181.25V145.3h14v35.95Z" class="cls-3"/><path d="M647.58 146.42V90.9h18.72l18 31.49h1.49V90.9h16.66v55.52H683.7l-17.87-32.48h-1.59v32.48Z" class="cls-2"/></svg>