<svg width="300" height="55" viewBox="0 0 300 55" fill="none" xmlns="http://www.w3.org/2000/svg">
<path d="M72.6499 35.3164V17.4336H70.8999L66.1499 21.0801L67.25 22.4785L68.7039 21.2871C69.5242 20.6162 70.0161 20.2139 70.1499 20.0811C70.3999 19.8809 70.5999 19.6816 70.75 19.5312C70.7 20.4805 70.6499 21.4795 70.6499 22.5283V35.3164H72.6499Z" fill="white"/>
<path d="M92.5498 35.2666L86.5999 25.875L92.1499 17.3838H89.95L85.45 24.4766L81 17.3838H78.7L84.25 25.9248L78.2998 35.2666H80.5L85.3999 27.4238L90.2 35.2666H92.5498Z" fill="white"/>
<path d="M105.65 35.3164V33.418H96.5999V33.3184L100.5 29.4717C101.499 28.4736 102.326 27.5791 102.969 26.7871C103.421 26.2324 103.782 25.7285 104.05 25.2754C104.7 24.1768 105 23.0781 105 21.9287C105 20.4805 104.5 19.3311 103.55 18.4824C102.6 17.6328 101.3 17.1836 99.5999 17.1836C97.6499 17.1836 95.8499 17.8828 94.2 19.2314L95.2998 20.6299C96.0999 19.9805 96.8499 19.5312 97.5 19.2812C98.1499 19.0322 98.8499 18.9316 99.5999 18.9316C100.274 18.9316 100.857 19.0684 101.35 19.3252C101.588 19.4492 101.804 19.6016 102 19.7812C102.55 20.3311 102.85 21.0801 102.85 22.0293C102.85 22.7285 102.75 23.3281 102.5 23.9268C102.25 24.5264 101.9 25.126 101.45 25.7256C101 26.3252 100.05 27.374 98.5999 28.8223L93.8999 33.5684V35.3164H105.65Z" fill="white"/>
<path d="M129.95 35.3164V17.4336H128.05V27.7236C128.018 28.0439 128.027 28.5088 128.051 29.1182C128.087 29.9705 128.123 30.8228 128.168 31.6748C128.187 32.0312 128.2 32.2686 128.2 32.3691H128.1L118.35 17.4336H116V35.3164H117.9V25.1758C117.9 23.7275 117.85 22.0791 117.7 20.3311H117.8L127.6 35.3164H129.95Z" fill="white"/>
<path d="M144.85 35.2666V33.418L136.95 33.4678V26.874H144.35V25.0264H136.95V19.2812H144.85V17.4336H134.9V35.2666H144.85Z" fill="white"/>
<path d="M154.3 35.3164V19.2812H160V17.4336H146.55V19.2812H152.2V35.3164H154.3Z" fill="white"/>
<path d="M178.25 35.3164L183.05 17.4336H180.85L178.05 28.4229C177.6 30.1211 177.3 31.5195 177.15 32.6689C176.85 31.0703 176.55 29.6221 176.15 28.373L172.8 17.3838H170.6L167.4 28.2734C166.95 29.7217 166.6 31.1699 166.4 32.6689C166.25 31.4199 165.95 30.0215 165.55 28.4727L162.7 17.4336H160.5L165.25 35.3164H167.3L170.8 23.4277C171.2 22.1289 171.45 20.9795 171.65 19.8809C171.675 19.9561 171.712 20.1182 171.768 20.3604C171.824 20.6035 171.9 20.9287 172 21.3301C172.25 22.1289 172.45 22.7783 172.6 23.3281L176.2 35.3164H178.25Z" fill="white"/>
<path fill-rule="evenodd" clip-rule="evenodd" d="M199.25 33.0684C200.7 31.4199 201.4 29.1719 201.4 26.3252C201.4 23.4775 200.7 21.2295 199.2 19.6309C197.8 17.9824 195.75 17.1836 193.2 17.1836C190.55 17.1836 188.55 17.9824 187.1 19.5811C185.65 21.1797 184.95 23.4277 184.95 26.3252C184.95 29.2217 185.65 31.5195 187.1 33.1182C188.55 34.7168 190.55 35.5156 193.2 35.5156C195.8 35.5156 197.8 34.7168 199.25 33.0684ZM188.7 31.8193C187.65 30.5713 187.15 28.7227 187.15 26.3252C187.15 23.9268 187.65 22.1289 188.75 20.9297C189.75 19.6816 191.25 19.0322 193.25 19.0322C195.2 19.0322 196.7 19.6309 197.7 20.8799C198.7 22.1289 199.2 23.9775 199.2 26.375C199.2 28.7725 198.7 30.6211 197.7 31.8691C196.7 33.1182 195.2 33.7178 193.2 33.7178C191.25 33.7178 189.75 33.0684 188.7 31.8193Z" fill="white"/>
<path fill-rule="evenodd" clip-rule="evenodd" d="M207.45 27.873H211.2L215.45 35.3164H217.9L213.05 27.2744C215.45 26.4248 216.65 24.8262 216.65 22.4785C216.65 20.7803 216.15 19.5312 215.1 18.6826C214.05 17.833 212.45 17.4336 210.25 17.4336H205.35V35.3164H207.45V27.873ZM207.45 26.0752V19.2314H210.2C211.75 19.2314 212.85 19.5312 213.55 20.0312C214.25 20.5303 214.6 21.3799 214.6 22.5781C214.6 23.7275 214.25 24.5762 213.55 25.1758C212.85 25.7754 211.75 26.0752 210.3 26.0752H207.45Z" fill="white"/>
<path d="M233.8 35.2666L226.35 25.1758L233.55 17.4336H231.1L223 26.2754V17.4336H220.9V35.2168H223V28.2227L224.85 26.5742L231.35 35.2666H233.8Z" fill="white"/>
<path fill-rule="evenodd" clip-rule="evenodd" d="M297 2.99707H3V51.0508H297V2.99707ZM295 49.0527H5V4.99512H295V49.0527Z" fill="white"/>
<path fill-rule="evenodd" clip-rule="evenodd" d="M300 0H0V54.0986H300V0ZM298.75 52.8496H1.25V1.24902H298.75V52.8496Z" fill="white"/>
</svg>
