<svg width="300" height="77" viewBox="0 0 300 77" fill="none" xmlns="http://www.w3.org/2000/svg">
<path fill-rule="evenodd" clip-rule="evenodd" d="M264.608 29.3311C264.749 29.3934 264.886 29.4603 265.017 29.5317C265.733 29.8978 266.397 30.3601 266.99 30.9058C267.926 31.7352 268.668 32.7631 269.157 33.9149C269.566 34.8797 269.791 35.9112 269.826 36.9583V37.066L287.811 16.4729L288.058 16.189L299.228 3.37428C300.051 2.43177 300.174 1.58579 299.796 0.876068C299.776 0.870315 299.758 0.860135 299.743 0.846343C299.728 0.832549 299.717 0.815518 299.71 0.796579C299.675 0.715198 299.629 0.637282 299.579 0.563791C299.475 0.433509 299.357 0.313718 299.228 0.206086C298.998 0.0592269 298.726 -0.0121696 298.453 0.00169658H287.511C286.592 0.00114149 285.679 0.0751958 284.773 0.223128C281.773 1.31578 279.088 3.13335 276.959 5.5148C272.48 10.6503 268.585 19.0285 265.865 25.9236L264.608 29.3311ZM274.176 12.4473C273.643 13.7009 273.21 14.9936 272.874 16.3139C272.652 17.2053 272.478 18.108 272.319 19.0222V19.0232L272.318 19.0266C272.25 19.4623 272.182 19.898 272.12 20.328C271.963 21.6396 271.827 22.9512 271.759 24.3025C271.715 25.1906 271.651 26.0614 271.588 26.9263L271.572 27.1526L271.571 27.1719C271.543 27.5409 271.516 27.9089 271.491 28.277C271.418 29.2024 271.31 30.1279 271.181 31.0476C271.161 31.1952 271.138 31.3428 271.113 31.4904C271.103 31.5643 271.09 31.638 271.077 31.7119C270.863 33.1637 270.558 34.6009 270.167 36.0156C270.956 34.6809 271.58 33.2548 272.024 31.7687L277.393 24.4728L280.226 20.6517L272.647 29.3897C272.694 29.1555 272.737 28.9211 272.78 28.6867L272.823 28.4528C272.929 27.8851 273.015 27.3174 273.088 26.7497L280.176 17.0406L273.333 24.8419C273.338 24.7931 273.346 24.7435 273.353 24.6934C273.366 24.6151 273.379 24.5354 273.379 24.4558L273.588 22.355L273.628 22.3891L278.657 15.3657L279.722 13.8724L278.425 15.36L273.825 20.5041C273.929 19.6713 274.052 18.8424 274.199 18.0172L279.643 10.3239L274.625 15.8824C274.85 14.8831 275.104 13.8951 275.417 12.9242C276.257 10.4249 277.274 7.98865 278.458 5.63402C276.686 7.66842 275.243 9.96709 274.176 12.4473ZM100.167 15.0763C99.648 15.0763 99.2466 14.9107 98.9635 14.5794C98.6802 14.2009 98.5858 13.7514 98.6802 13.2308L100.096 6.62967C100.191 6.10915 100.45 5.68327 100.875 5.35201C101.347 4.97346 101.819 4.78418 102.292 4.78418H111.143C111.662 4.78418 112.063 4.97346 112.346 5.35201C112.63 5.68327 112.724 6.10915 112.63 6.62967L111.143 13.2308C111.095 13.7514 110.859 14.2009 110.435 14.5794C110.01 14.9107 109.538 15.0763 109.018 15.0763H100.167ZM90.0414 56.6003C90.3248 56.9315 90.726 57.0973 91.2452 57.0973H100.096C100.616 57.0973 101.064 56.9315 101.442 56.6003C101.867 56.2692 102.126 55.8433 102.221 55.3228L109.301 21.962C109.396 21.4415 109.301 21.0156 109.018 20.6844C108.782 20.3531 108.405 20.1875 107.885 20.1875H99.0344C98.5151 20.1875 98.043 20.3768 97.6181 20.7553C97.1932 21.0866 96.9336 21.4888 96.8392 21.962L89.829 55.3228C89.7346 55.7959 89.8055 56.2218 90.0414 56.6003ZM0.354045 56.7414C0.590066 56.9781 0.920526 57.0964 1.34536 57.0964H11.0462C12.1791 57.0964 13.0761 56.5759 13.7369 55.5348L17.8439 48.6497H36.325L37.4579 55.3928C37.6468 56.5285 38.3786 57.0964 39.653 57.0964H48.6457C49.1649 57.0964 49.5898 56.9072 49.9204 56.5285C50.2509 56.15 50.3924 55.6295 50.3452 54.9669L43.4768 9.46857C43.2878 8.0963 42.4855 7.41016 41.0692 7.41016H29.5981C28.2293 7.41016 27.1436 8.0963 26.341 9.46857L0.212433 54.9669C0.0708209 55.2507 0 55.5111 0 55.7478C0 56.1263 0.118025 56.4576 0.354045 56.7414ZM35.617 38.0026H23.0129L33.1385 19.9027L35.617 38.0026ZM61.1472 57.0973C60.4864 57.0973 60.0143 56.9553 59.7312 56.6714C59.495 56.3401 59.3063 55.8905 59.1647 55.3228L52.7209 22.2459C52.6266 21.6308 52.7209 21.1339 53.0043 20.7553C53.3348 20.3768 53.8541 20.1875 54.5621 20.1875H62.4928C63.1064 20.1875 63.5313 20.3295 63.7672 20.6134C64.0505 20.8973 64.263 21.2995 64.4045 21.82L67.591 42.9012L79.9117 21.6781C80.4781 20.6844 81.257 20.1875 82.2483 20.1875H91.3119C91.7368 20.1875 92.0671 20.3058 92.3033 20.5424C92.5392 20.7317 92.6573 21.0156 92.6573 21.3942C92.6573 21.6781 92.5392 22.0093 92.3033 22.3879L71.981 55.3228C71.6035 55.8905 71.2021 56.3401 70.7772 56.6714C70.3997 56.9553 69.8805 57.0973 69.2194 57.0973H61.1472ZM113.456 54.6129C115.628 56.7422 118.696 57.8069 122.661 57.8069C125.163 57.8069 127.24 57.4284 128.892 56.6713C130.545 55.8669 132.197 54.6838 133.849 53.1222L133.353 55.3226C133.259 55.7957 133.353 56.2216 133.637 56.6001C133.92 56.9314 134.321 57.0972 134.841 57.0972H143.267C143.739 57.0972 144.187 56.9314 144.612 56.6001C145.037 56.2691 145.297 55.8432 145.391 55.3226L152.472 21.9619C152.566 21.4886 152.472 21.0864 152.189 20.7552C151.905 20.3766 151.504 20.1873 150.985 20.1873H142.629C142.11 20.1873 141.638 20.353 141.213 20.6842C140.836 21.0154 140.6 21.4413 140.505 21.9619L140.08 23.7364C139.089 22.3641 137.838 21.323 136.327 20.6132C134.817 19.8561 132.74 19.4775 130.096 19.4775C125.329 19.4775 121.41 20.9445 118.342 23.8783C115.274 26.7649 113.055 30.8344 111.686 36.0868L110.624 41.1265C110.388 42.3568 110.27 43.7766 110.27 45.3853C110.27 49.3602 111.332 52.4359 113.456 54.6129ZM132.929 46.0242C131.654 47.3019 129.978 47.9407 127.901 47.9407C126.296 47.9407 125.163 47.5383 124.502 46.7339C123.841 45.9295 123.511 44.7702 123.511 43.256C123.511 42.4988 123.582 41.6945 123.723 40.8427C123.865 39.5175 124.172 38.0508 124.644 36.4418C125.305 34.2177 126.225 32.4906 127.406 31.2603C128.586 29.9826 130.191 29.3438 132.22 29.3438C133.873 29.3438 135.076 29.7697 135.832 30.6215C136.587 31.4733 136.965 32.6327 136.965 34.0996C136.965 34.4306 136.918 34.9749 136.823 35.7321C136.587 37.2936 136.21 39.0681 135.69 41.0556C135.171 43.0431 134.25 44.6993 132.929 46.0242ZM159.686 47.1599C159.686 53.7846 164.1 57.0972 172.927 57.0972H178.946C179.418 57.0972 179.867 56.9315 180.292 56.6002C180.716 56.2691 180.976 55.8432 181.071 55.3227L182.487 48.7924C182.581 48.2718 182.487 47.8462 182.203 47.5149C181.967 47.1362 181.59 46.9469 181.071 46.9469H175.335C174.249 46.9469 173.47 46.734 172.998 46.3081C172.573 45.8822 172.361 45.2199 172.361 44.3206C172.361 43.5162 172.455 42.7119 172.644 41.9075L175.193 29.8406H184.115C184.587 29.8406 185.036 29.6751 185.461 29.3438C185.885 29.0125 186.145 28.5866 186.24 28.0661L187.514 21.9619C187.609 21.4414 187.514 21.0155 187.231 20.6843C186.995 20.353 186.617 20.1874 186.098 20.1874H177.247L179.725 8.47569C179.82 8.00248 179.725 7.60026 179.442 7.26903C179.206 6.89046 178.828 6.70117 178.309 6.70117H169.599C169.127 6.70117 168.679 6.86679 168.254 7.19803C167.829 7.52926 167.57 7.95517 167.475 8.47569L164.997 20.1874H159.403C158.884 20.1874 158.412 20.3767 157.987 20.7552C157.562 21.0865 157.302 21.4887 157.208 21.9619L156.004 28.0661C155.863 28.5395 155.933 28.9654 156.217 29.3438C156.5 29.6751 156.901 29.8406 157.42 29.8406H162.943L160.182 42.972C159.851 44.439 159.686 45.835 159.686 47.1599ZM186.999 56.6003C187.282 56.9315 187.684 57.0973 188.203 57.0973H197.55C198.069 57.0973 198.541 56.9315 198.966 56.6003C199.391 56.2692 199.65 55.8433 199.745 55.3228L203.568 37.4356C203.946 35.543 204.749 34.076 205.976 33.035C207.203 31.9939 208.761 31.4734 210.649 31.4734H217.801C218.32 31.4734 218.792 31.3077 219.217 30.9766C219.642 30.5979 219.878 30.172 219.925 29.6989L221.554 21.962C221.648 21.4415 221.554 21.0156 221.271 20.6844C221.035 20.3531 220.68 20.1875 220.209 20.1875H216.102C213.647 20.1875 211.57 20.5897 209.87 21.3942C208.171 22.1513 206.708 23.2633 205.48 24.7302L206.047 22.033C206.141 21.5125 206.047 21.0866 205.764 20.7553C205.528 20.3768 205.15 20.1875 204.631 20.1875H195.992C195.473 20.1875 195.001 20.3768 194.576 20.7553C194.151 21.0866 193.891 21.5125 193.797 22.033L186.787 55.3228C186.692 55.7959 186.763 56.2218 186.999 56.6003ZM228.698 14.5794C228.981 14.9107 229.382 15.0763 229.901 15.0763H238.753C239.272 15.0763 239.744 14.9107 240.169 14.5794C240.594 14.2009 240.83 13.7514 240.877 13.2308L242.364 6.62967C242.458 6.10915 242.364 5.68327 242.081 5.35201C241.797 4.97346 241.396 4.78418 240.877 4.78418H232.026C231.554 4.78418 231.082 4.97346 230.61 5.35201C230.185 5.68327 229.925 6.10915 229.831 6.62967L228.415 13.2308C228.32 13.7514 228.415 14.2009 228.698 14.5794ZM220.98 57.0973C220.46 57.0973 220.059 56.9315 219.776 56.6003C219.54 56.2218 219.469 55.7959 219.563 55.3228L226.573 21.962C226.668 21.4888 226.928 21.0866 227.352 20.7553C227.777 20.3768 228.249 20.1875 228.768 20.1875H237.62C238.139 20.1875 238.517 20.3531 238.753 20.6844C239.036 21.0156 239.13 21.4415 239.036 21.962L231.955 55.3228C231.861 55.8433 231.601 56.2692 231.176 56.6003C230.798 56.9315 230.35 57.0973 229.831 57.0973H220.98ZM251.917 36.5646L245.045 22.7216C244.951 22.4377 244.903 22.2484 244.903 22.1538C244.903 21.6806 245.069 21.2547 245.399 20.8761C245.777 20.4502 246.225 20.2373 246.744 20.2373H255.525C256.423 20.2373 257.059 20.6632 257.437 21.5149L261.878 30.0635C265.635 30.8798 268.453 34.233 268.453 38.2458C268.453 42.8694 264.714 46.6175 260.102 46.6175C255.489 46.6175 251.749 42.8694 251.749 38.2458C251.749 37.67 251.807 37.1078 251.917 36.5646ZM263.286 38.2458C263.286 40.0087 261.86 41.4378 260.102 41.4378C258.343 41.4378 256.917 40.0087 256.917 38.2458C256.917 36.4826 258.343 35.0535 260.102 35.0535C261.86 35.0535 263.286 36.4826 263.286 38.2458ZM255.429 47.171C255.56 47.2424 255.696 47.3093 255.838 47.3716L254.581 50.7791C251.862 57.6743 247.965 66.0524 243.488 71.1879C241.357 73.5693 238.672 75.3869 235.672 76.4797C234.768 76.6275 233.853 76.7015 232.936 76.701H221.993C221.72 76.7149 221.449 76.6434 221.217 76.4966C221.089 76.3891 220.971 76.2693 220.866 76.1391C220.816 76.0654 220.772 75.9874 220.736 75.9062C220.729 75.8873 220.718 75.8701 220.703 75.8565C220.688 75.8426 220.67 75.8325 220.651 75.8267C220.272 75.117 220.396 74.271 221.217 73.3286L232.387 60.5138L232.636 60.23L250.619 39.6367V39.7445C250.655 40.7916 250.881 41.823 251.288 42.7879C251.779 43.9397 252.52 44.9676 253.456 45.7969C254.049 46.3427 254.712 46.8049 255.429 47.171ZM247.572 60.3889C247.237 61.709 246.801 63.0019 246.269 64.2554C245.204 66.7356 243.759 69.0345 241.987 71.0686C243.173 68.714 244.189 66.2779 245.029 63.7785C245.341 62.8076 245.595 61.8196 245.822 60.8204L240.804 66.3789L246.247 58.6856C246.394 57.8603 246.519 57.0314 246.621 56.1988L242.021 61.3427L240.724 62.8303L241.789 61.3371L246.819 54.3138L246.858 54.3478L247.068 52.2471C247.068 52.1675 247.081 52.0878 247.093 52.0098L247.093 52.0094C247.101 51.9592 247.109 51.9097 247.113 51.8608L240.271 59.662L247.357 49.953C247.43 49.3853 247.516 48.8176 247.623 48.2499C247.68 47.9376 247.737 47.6252 247.799 47.3131L240.22 56.0509L243.052 52.2299L248.422 44.934C248.867 43.4479 249.49 42.0218 250.28 40.6871C249.888 42.1018 249.584 43.539 249.368 44.9908C249.359 45.0446 249.351 45.0982 249.342 45.152L249.332 45.2123C249.308 45.3599 249.285 45.5075 249.266 45.6551C249.135 46.5748 249.028 47.5003 248.954 48.4258C248.928 48.8002 248.901 49.1744 248.874 49.5498C248.805 50.4892 248.737 51.4346 248.688 52.4002C248.62 53.7516 248.484 55.0631 248.325 56.3746C248.266 56.7848 248.202 57.2 248.137 57.6155L248.137 57.6205L248.127 57.6794V57.6806C247.969 58.5947 247.793 59.4975 247.572 60.3889ZM268.612 43.459C266.861 46.3285 263.702 48.2433 260.102 48.2433C259.262 48.2433 258.447 48.1394 257.667 47.9436L261.775 55.8496C262.151 56.7011 262.789 57.127 263.685 57.127H272.465C272.985 57.127 273.434 56.9141 273.81 56.4882C274.141 56.1097 274.307 55.6838 274.307 55.2107C274.307 55.1161 274.259 54.9266 274.166 54.6428L268.612 43.459Z" fill="white"/>
</svg>
