<svg xmlns="http://www.w3.org/2000/svg" width="300" height="52" fill="none" viewBox="0 0 300 52"><path fill="#FFCC29" d="M83.9 0h-2.216v51.92H83.9V0ZM127.105 0h-2.437v51.92h2.437V0ZM297.563 51.994H300V0h-2.437v51.994ZM256.721 0h-2.437v51.92h2.437V0ZM170.31 0h-2.363v51.92h2.363V0ZM213.516 0h-2.438v51.92h2.438V0Z"/><path fill="#fff" d="m102.068 8.715-10.71 34.564h4.95l2.51-8.715h11.079l2.511 8.715h4.874L106.721 8.715h-4.653Zm-2.216 22.083 4.358-15.067h.147l4.284 15.067h-8.789ZM61.965 29.395v-3.693h10.709v12.555c-.96 1.551-2.29 2.88-3.84 3.767-2.069 1.255-4.432 1.699-6.796 1.699-3.25 0-6.499-1.034-8.788-3.324-2.216-2.142-3.324-5.391-3.324-9.453V20.827c0-3.988 1.108-7.09 3.176-9.231 2.142-2.29 5.17-3.398 8.346-3.398 3.028 0 5.908.665 8.124 2.733 2.068 1.92 3.028 4.653 3.102 7.46v.147H68.02c.073-1.773-.517-3.619-1.699-4.948-1.182-1.256-2.954-1.699-4.8-1.699-1.92 0-3.767.812-4.949 2.363-1.255 1.551-1.772 3.693-1.772 6.647v10.34c0 2.954.664 5.17 1.994 6.72 1.33 1.552 3.25 2.364 5.317 2.364 1.33 0 2.733-.221 3.84-.886.887-.517 1.478-1.33 1.921-2.216v-7.828h-5.908ZM154.874 8.715h6.352v34.564h-4.874V29.985l.443-13.294h-.148l-7.533 26.588h-3.25l-7.533-26.588h-.074l.369 13.294V43.28h-4.8V8.715h6.204l7.459 27.326 7.385-27.326ZM240.546 8.715h4.801v34.564h-4.801l-13.072-25.702h-.222V43.28h-4.8V8.715h4.8l13.073 25.701.221-.073V8.715ZM182.496 8.715h16.322v3.767h-5.76v26.957h5.76v3.84h-16.322v-3.914h5.761V12.408h-5.761V8.715Z"/><path fill="#FFCC29" d="M2.216 51.994h36.336c1.256 0 2.216-.96 2.216-2.216V2.216C40.768.96 39.808 0 38.552 0H2.216C.96 0 0 .96 0 2.216v47.489c0 1.255 1.034 2.29 2.216 2.29Z"/><path fill="#000" d="M31.315 28.139c-.887-1.477-2.364-2.438-4.062-2.807 1.403-.59 2.585-1.55 3.323-2.88.739-1.33 1.108-2.88 1.108-4.358 0-2.806-.886-5.391-3.028-7.016s-4.653-2.363-7.607-2.363H10.044v34.638h12.408c2.659 0 5.318-.886 7.312-2.659 1.92-1.625 2.88-4.21 2.88-7.533 0-1.994-.443-3.545-1.33-5.022ZM16.47 14.106h3.397c1.477 0 2.511.296 3.398 1.182.886.886 1.181 2.216 1.107 3.471 0 1.182-.221 2.437-1.107 3.324-.813.812-1.773 1.255-3.102 1.255h-3.767v-9.232h.074Zm7.829 22.674c-.813.886-2.142 1.108-3.324 1.108h-4.431V27.99h4.948c1.255 0 2.437.37 3.102 1.33.738 1.107.886 2.437.886 3.766-.074 1.33-.295 2.733-1.181 3.693Z"/><path fill="#fff" d="M277.843 29.394v-3.692h10.709v12.555c-.96 1.55-2.289 2.88-3.84 3.767-2.068 1.255-4.431 1.698-6.795 1.698-3.249 0-6.499-1.034-8.788-3.323-2.216-2.142-3.324-5.392-3.324-9.454V20.753c0-3.988 1.108-7.09 3.176-9.232 2.142-2.29 5.17-3.397 8.345-3.397 3.029 0 5.909.665 8.125 2.733 2.067 1.92 3.028 4.652 3.101 7.459v.148H283.9c.073-1.773-.517-3.62-1.699-4.948-1.182-1.256-2.954-1.7-4.801-1.7-1.92 0-3.766.813-4.948 2.364-1.256 1.551-1.772 3.693-1.772 6.647v10.34c0 2.954.664 5.17 1.994 6.72 1.329 1.552 3.249 2.364 5.317 2.364 1.33 0 2.733-.221 3.841-.886.886-.517 1.477-1.33 1.92-2.216v-7.755h-5.909Z"/></svg>