<svg xmlns="http://www.w3.org/2000/svg" width="105" height="22"><path d="M47.637 2.496H44.43c-.375 0-.508.121-.578.496l-1.336 7.598c-.059.375.039.496.41.496h.972c.364 0 .504-.121.567-.496l.406-2.3h1.77c1.8 0 3.09-.919 3.414-2.731.312-1.817-.614-3.063-2.418-3.063Zm-.89 3.992h-1.563l.386-2.199h1.563c.695 0 1.047.422.926 1.11-.121.69-.614 1.09-1.313 1.09ZM57.309 2.496h-4.832c-.372 0-.504.121-.579.496l-1.332 7.598c-.058.375.036.496.407.496h4.953c.363 0 .504-.121.566-.496l.145-.813c.07-.363-.035-.496-.399-.496h-3.496l.29-1.644h2.773c.363 0 .52-.121.578-.496l.144-.809c.059-.363-.035-.484-.394-.484h-2.778l.262-1.559h3.38c.37 0 .515-.121.577-.484l.145-.813c.07-.375-.04-.496-.41-.496ZM62.996 1.918c.95 0 1.754-.45 2.172-1.223.11-.23.074-.312-.129-.41l-.652-.254c-.192-.062-.285-.035-.418.157-.168.304-.446.472-.758.472-.313 0-.531-.168-.602-.473-.058-.19-.144-.23-.398-.144l-.684.242c-.226.086-.3.18-.254.41.133.774.782 1.223 1.723 1.223Zm2.86.578h-1.024c-.25 0-.383.074-.516.23L61.54 6.2c-.77.98-1.047 1.414-1.61 2.465h-.062c.496-1.172.653-1.547.89-2.926l.47-2.746c.074-.375-.036-.496-.395-.496h-.977c-.37 0-.503.121-.574.496l-1.336 7.598c-.058.375.035.496.41.496h1.02c.242 0 .375-.063.52-.23l2.812-3.532c.781-.98 1.02-1.355 1.574-2.406h.07c-.492 1.184-.648 1.523-.89 2.926l-.492 2.746c-.059.375.039.496.41.496h.973c.363 0 .503-.121.578-.496l1.32-7.598c.074-.375-.035-.496-.395-.496ZM73.8 2.496h-5.722c-.36 0-.504.121-.574.496l-.133.813c-.074.363.035.484.395.484h1.886l-1.105 6.3c-.059.376.039.497.398.497h.973c.371 0 .516-.121.578-.496l1.106-6.3h1.886c.36 0 .504-.122.578-.485l.133-.813c.07-.375-.039-.496-.398-.496ZM82.035 2.496h-1.023c-.25 0-.383.074-.516.23L77.72 6.2c-.77.98-1.043 1.414-1.61 2.465h-.058c.492-1.172.648-1.547.886-2.926l.47-2.746c.073-.375-.036-.496-.395-.496h-.977c-.37 0-.504.121-.574.496l-1.336 7.598c-.059.375.035.496.41.496h1.02c.242 0 .375-.063.52-.23l2.812-3.532c.781-.98 1.02-1.355 1.574-2.406h.07c-.492 1.184-.648 1.523-.886 2.926l-.497 2.746c-.058.375.04.496.41.496h.973c.364 0 .508-.121.578-.496l1.32-7.598c.075-.375-.034-.496-.394-.496ZM90.703 2.496h-.976c-.372 0-.504.121-.575.496l-.492 2.844h-2.91l.492-2.844c.074-.375-.035-.496-.394-.496h-.977c-.36 0-.504.121-.574.496L82.96 10.59c-.059.375.035.496.41.496h.973c.36 0 .504-.121.578-.496l.516-2.953h2.898l-.52 2.953c-.058.375.036.496.41.496h.973c.36 0 .504-.121.567-.496l1.332-7.598c.074-.375-.035-.496-.395-.496ZM97.98 2.496h-4.437c-.371 0-.504.121-.578.496l-1.332 7.598c-.059.375.035.496.41.496h.973c.359 0 .504-.121.562-.496l1.106-6.3h2.984c.371 0 .516-.122.574-.485l.145-.813c.074-.375-.035-.496-.407-.496ZM47.46 21.027l-1.019-2.953c-.207-.594-.445-.953-.914-1.222l3.137-3.41c.215-.255.168-.481-.168-.481h-1.059c-.578 0-.707.059-1.019.41l-2.633 2.938h-.324l.504-2.856c.07-.371-.035-.492-.399-.492h-.972c-.371 0-.504.121-.578.492l-1.332 7.598c-.059.375.035.496.41.496h.972c.36 0 .504-.121.563-.496l.531-2.977h.313c.683 0 .875.168 1.058.727l.719 2.297c.121.375.29.449.902.449h.961c.36 0 .457-.23.348-.52ZM55.969 21.063l-1.516-7.715c-.058-.317-.203-.387-.539-.387h-.926c-.34 0-.496.07-.664.41l-4.23 7.691c-.18.325-.121.485.242.485h.887c.601 0 .77-.098.953-.45l.574-1.136h2.98l.168 1.137c.051.351.207.449.82.449h.84c.348 0 .47-.16.41-.485Zm-2.766-4.57.3 1.87h-1.948l.965-1.886c.43-.856.585-1.715.585-1.715h.098s-.121.86 0 1.73ZM64.242 15.426c.297-1.598-.676-2.649-2.644-2.649-2.02 0-3.176.727-3.883 2.032-.195.34-.133.507.191.629l.828.328c.325.097.48.046.676-.317.336-.59.852-.894 1.848-.894.77 0 1.094.293 1 .894-.11.606-.504.883-1.094.883h-1.203c-.371 0-.504.121-.578.496l-.13.75c-.062.363.036.485.407.485h1.406c.637 0 .88.34.782.945-.121.59-.516.941-1.43.941-1.105 0-1.574-.3-1.695-.894-.07-.364-.203-.438-.563-.317l-.953.328c-.36.122-.48.29-.418.63.25 1.304 1.406 2.03 3.426 2.03 2.234 0 3.375-.917 3.664-2.538.156-.825.062-1.598-.828-2.13.648-.363 1.047-.847 1.191-1.632ZM72.95 12.96h-1.02c-.254 0-.387.071-.52.227l-2.773 3.473c-.77.98-1.047 1.414-1.614 2.465h-.058c.492-1.172.648-1.547.89-2.926l.47-2.746c.07-.371-.04-.492-.4-.492h-.972c-.375 0-.504.121-.578.492l-1.332 7.598c-.063.375.035.496.406.496h1.024c.238 0 .37-.063.515-.23l2.813-3.532c.781-.98 1.023-1.355 1.574-2.406h.074c-.496 1.184-.652 1.523-.89 2.926l-.493 2.746c-.062.375.036.496.407.496h.976c.36 0 .504-.121.574-.496l1.325-7.598c.07-.371-.035-.492-.399-.492ZM81.617 12.96h-.972c-.375 0-.504.122-.579.493l-.492 2.844h-2.91l.492-2.844c.074-.371-.035-.492-.394-.492h-.973c-.363 0-.508.121-.578.492l-1.336 7.598c-.059.375.04.496.41.496h.973c.363 0 .504-.121.578-.496l.516-2.953h2.898l-.516 2.953c-.062.375.036.496.407.496h.972c.364 0 .508-.121.567-.496l1.336-7.598c.07-.371-.04-.492-.399-.492ZM83.219 15.922l-.43 2.457c-.336 2.004.73 3.348 3.004 3.348 2.285 0 3.703-1.102 4.05-3.11l.434-2.453c.336-2.008-.722-3.387-3.007-3.387-2.27 0-3.7 1.137-4.051 3.145Zm5.144.074-.441 2.516c-.168.941-.832 1.414-1.852 1.414-1.011 0-1.515-.473-1.347-1.414l.445-2.516c.156-.945.828-1.418 1.84-1.418 1.02 0 1.515.473 1.355 1.418Zm0 0" style="stroke:none;fill-rule:nonzero;fill:#d2150d;fill-opacity:1"/><path d="m33.215 20.23-2.348-6.714c-.32-.91-.668-1.473-1.363-1.957l6.324-7.895c.535-.695.348-1.18-.453-1.18h-3.094c-1.363 0-1.629.16-2.297.993L25.102 9.57h-.586l1.039-5.957c.16-.832-.078-1.129-.934-1.129h-3.016c-.851 0-1.171.297-1.332 1.13L17.34 20.417c-.16.832.078 1.125.933 1.125h3.016c.852 0 1.172-.293 1.332-1.125l1.067-6.148h.453c1.015 0 1.336.484 1.601 1.343l1.496 4.805c.32.937.746 1.125 2.16 1.125h2.883c.88 0 1.172-.59.934-1.313Zm0 0" style="stroke:none;fill-rule:nonzero;fill:#000;fill-opacity:1"/><path d="M4.344 2.496h7.363c4.164 0 6.352 2.848 5.633 7.117-.75 4.239-3.762 6.227-7.926 6.227H1.672a.67.67 0 0 1-.656-.79L3.012 3.626c.16-.832.48-1.129 1.332-1.129Zm5.258 8.645H6.988l.692-3.946h2.613c1.281 0 1.871.805 1.656 1.989-.215 1.18-1.094 1.957-2.347 1.957Zm0 0" style="stroke:none;fill-rule:evenodd;fill:#000;fill-opacity:1"/><path d="M1.445 17.684c-.515 0-.957.375-1.05.886l-.383 2.188a.67.67 0 0 0 .656.789h3.613c.52 0 .961-.375 1.051-.887l.387-2.187a.67.67 0 0 0-.657-.79ZM92.813 20.473c.23 0 .378.043.449.136.074.086.093.246.058.477l-.035.152c-.035.235-.11.395-.215.48-.101.087-.27.13-.5.13h-.136c-.23 0-.38-.043-.45-.13-.07-.085-.086-.245-.05-.48l.035-.152c.035-.23.105-.39.207-.477.101-.093.27-.136.5-.136ZM97.652 16.04c.125 0 .203.023.243.07.039.05.046.136.023.261l-.73 4.207h2.074c.125 0 .203.027.242.078.035.051.043.133.023.254l-.09.54c-.019.124-.062.21-.12.26-.051.048-.141.071-.266.071h-3.055c-.121 0-.207-.023-.25-.07-.035-.05-.043-.137-.023-.262l.894-5.078c.028-.125.067-.21.121-.262.051-.047.14-.07.262-.07ZM104.676 16.04c.222 0 .273.105.152.323l-2.73 5.145a.599.599 0 0 1-.188.219.55.55 0 0 1-.265.054h-.649a.52.52 0 0 1-.258-.047c-.05-.039-.082-.109-.097-.21l-.942-5.16c-.035-.22.055-.325.274-.325h.601c.192 0 .317.02.387.063.07.039.113.117.129.234l.41 3.02c.016.128.027.273.031.437.012.16.016.289.012.387v.144h.055c.101-.344.226-.664.37-.96l1.477-3.028a.538.538 0 0 1 .203-.234c.079-.043.215-.063.41-.063Zm0 0" style="stroke:none;fill-rule:nonzero;fill:#000;fill-opacity:1"/></svg>