<svg xmlns="http://www.w3.org/2000/svg" width="105" height="121" viewBox="0 0 105 120"><path style="stroke:none;fill-rule:nonzero;fill:#7c54a2;fill-opacity:1" d="M104.645 89.457c0 .36-.094.543-.442.719-.754.383-1.457.875-2.191 1.297-3.035 1.64-5.98 3.418-8.98 5.125-9.68 5.484-19.286 11.093-28.95 16.597-3.797 2.184-7.59 4.36-11.379 6.551-.238.133-.422.14-.668 0-3.555-2.055-7.12-4.094-10.683-6.14-9.293-5.376-18.63-10.688-27.946-16.051-2.699-1.797-5.722-3.078-8.39-4.926-1.442-.93-3.047-1.61-4.536-2.477-.183-.105-.21-.25-.242-.472-.289-1.895-.086-3.797-.101-5.692-.043-3.922-.008-7.843-.024-11.765-.011-.938-.281-1.743.078-2.68.106.035.262.059.395.137a452.991 452.991 0 0 0 7.21 4.14C16.59 78.898 25.392 83.977 34.216 89c5.926 3.43 11.898 6.77 17.82 10.21.238.145.422.15.668.005 3.223-1.856 6.457-3.695 9.68-5.547 6.418-3.73 12.875-7.406 19.316-11.094 1.59-.914 3.172-1.836 4.762-2.742.234-.137.344-.285.34-.578-.012-2.047-.008-4.09.015-6.137.004-.332-.187-.453-.418-.582-6.164-3.543-12.324-7.097-18.503-10.617C57.3 55.82 46.675 49.77 36.094 43.656c-.067-.043-.125-.105-.25-.207.8-.465 1.535-.898 2.277-1.328 4.399-2.539 8.805-5.062 13.219-7.57.644-.367 1.289-.735 1.918-1.13.27-.167.465-.144.738.02 1.54.91 3.098 1.793 4.649 2.684 5.921 3.39 11.828 6.809 17.75 10.191 9.316 5.305 18.605 10.66 27.91 15.977.304.168.336.422.336.71-.086 8.028.054 18.528.004 26.454Zm0 0"/><path style="stroke:none;fill-rule:nonzero;fill:#495669;fill-opacity:1" d="M17.926 40.563c.008 1.945.008 3.89.004 5.84-.028.144.015.347-.114.44 4.563 2.95 9.45 5.473 14.137 8.255 10.973 6.285 21.953 12.562 32.914 18.87 1.34.802 2.727 1.493 4.028 2.36-.758.442-1.48.871-2.207 1.285-5.098 2.875-10.137 5.832-15.223 8.723-.188.11-.55.105-.742 0a7947.303 7947.303 0 0 1-21.055-12.082A8283.447 8283.447 0 0 0 .48 57.524c-.27-.153-.378-.329-.378-.645.007-8.992 0-17.992-.008-26.984C9.32 24.594 18.57 19.32 27.777 13.977 35.88 9.363 43.934 4.668 52.035.067c.16-.09.461-.087.621.003 2.598 1.492 5.18 3.016 7.774 4.512 7.683 4.328 15.273 8.805 22.941 13.16 6.84 3.863 13.633 7.809 20.426 11.746.293.172.715.188.793.63.02.124.039.245.039.37.004 6.473.004 12.946.004 19.418v.473c-17.461-10.027-34.86-20.012-52.27-30.004-8.754 5.012-17.562 10.125-26.36 15.086-2.597 1.492-5.187 3.004-7.784 4.496-.258.148-.29.344-.29.605Zm0 0"/></svg>