<svg width="300" height="55" viewBox="0 0 300 55" fill="none" xmlns="http://www.w3.org/2000/svg">
<path d="M28.1035 29.7795C30.8874 29.6355 34.0318 29.6835 37.5117 29.9475C35.9755 51.3072 15.6959 60.1389 0 51.7629C1.60797 48.187 3.04831 44.3951 5.28027 40.9631C9.07223 35.1313 15.144 30.4276 28.1035 29.7795Z" fill="white"/>
<path fill-rule="evenodd" clip-rule="evenodd" d="M129.672 17.7073C138.984 17.7073 145.561 24.4032 145.561 33.8352C145.561 43.1471 138.864 49.8429 129.48 49.843C120.168 49.843 113.736 43.2672 113.736 33.8352C113.736 24.3794 120.288 17.7075 129.672 17.7073ZM129.696 24.3069C124.896 24.3069 122.017 27.8591 122.017 33.7629V34.0276C122.017 39.8114 124.825 43.219 129.553 43.219C134.352 43.2188 137.305 39.7872 137.305 34.0276V33.7629C137.305 27.8591 134.424 24.3069 129.696 24.3069Z" fill="white"/>
<path d="M173.376 36.3791C173.376 40.5071 175.345 42.9309 179.017 42.9309C183.288 42.9307 185.064 39.331 185.064 34.0032V18.2834H193.2V49.2434H185.064V44.8508C183.433 48.0667 180.601 49.8429 176.593 49.843C169.585 49.843 165.24 44.8512 165.24 36.8352V18.2834H173.376V36.3791Z" fill="white"/>
<path fill-rule="evenodd" clip-rule="evenodd" d="M250.992 17.7073C260.304 17.7073 266.88 24.4032 266.88 33.8352C266.88 43.147 260.185 49.8428 250.801 49.843C241.489 49.843 235.057 43.2672 235.057 33.8352C235.057 24.3793 241.608 17.7073 250.992 17.7073ZM250.992 24.3069C246.192 24.3069 243.313 27.8592 243.312 33.7629V34.0276C243.313 39.8114 246.121 43.219 250.849 43.219C255.648 43.2188 258.6 39.7872 258.601 34.0276V33.7629C258.6 27.8591 255.72 24.3069 250.992 24.3069Z" fill="white"/>
<path d="M289.248 17.6116C296.016 17.6116 300 22.1472 300 30.6672V49.2434H291.864V31.1477C291.864 26.8277 290.232 24.595 286.416 24.595C282.552 24.5951 280.177 27.7398 280.177 33.5237V49.2668H272.04L272.064 18.2834H280.2V23.3235C281.832 19.7235 284.856 17.6116 289.248 17.6116Z" fill="white"/>
<path d="M82.7764 12.8352H59.4238V23.2756H74.9766V30.427H59.4238V42.0911H83.4961V49.2434H51.2168V5.68285H82.7764V12.8352Z" fill="white"/>
<path d="M98.5205 39.8596L105.336 18.2834H113.473L102.192 49.2434H94.6562L82.7764 18.2834H91.1768L98.5205 39.8596Z" fill="white"/>
<path d="M159.024 49.2434H150.816V5.08324H159.024V49.2434Z" fill="white"/>
<path d="M229.801 49.2434H221.593V18.2834H229.801V49.2434Z" fill="white"/>
<path d="M210.12 18.259H216.217V24.8108H210.048V40.219C210.048 41.731 210.768 42.3794 212.28 42.4514H215.88V49.219H209.593C203.617 48.907 202.321 46.1713 202.177 41.0354V24.8352H197.784V18.2834H202.177V12.427L210.12 7.96312V18.259Z" fill="white"/>
<path d="M0 3.13891C11.184 -2.83701 24.6485 -0.0772486 32.0645 9.69066C35.0644 13.6506 37.0797 18.763 37.5117 24.9309C34.4639 25.1709 31.68 25.2431 29.1602 25.1711C7.63216 24.4991 4.368 12.9549 0 3.13891Z" fill="white"/>
<path d="M229.944 13.7473H221.473V5.80297H229.944V13.7473Z" fill="white"/>
</svg>
