<svg width="300" height="160" viewBox="0 0 300 160" fill="none" xmlns="http://www.w3.org/2000/svg">
<path d="M178.515 39.6076C178.185 39.4522 180.171 40.4354 176.86 38.7798C172.221 36.4604 166.236 34.2269 166.374 26.6387C166.391 25.7209 165.605 26.087 164.581 27.1906C164.511 27.2579 164.438 27.3212 164.361 27.3802C155.475 35.1926 151.468 40.8484 150.247 49.202C148.301 62.51 151.621 64.1794 152.763 63.6384C152.977 63.5315 153.162 63.3768 153.306 63.1864C153.449 62.9959 153.547 62.7749 153.591 62.5405C153.994 60.6752 154.811 54.241 166.113 52.0931C177.275 70.3511 159.914 81.3787 149.301 81.3787C136.343 81.3787 119.19 64.3036 138.991 43.5818C142.368 40.0479 147.132 36.6321 152.026 29.2601C158.021 20.2293 159.075 11.6958 153.048 3.60818C149.956 -0.540724 149.422 -0.404918 149.542 0.563009C150.031 4.47855 149.909 3.27839 149.956 4.42607C150.191 10.1127 146.197 12.8877 140.851 16.1532L120.018 28.1563C119.819 28.2696 117.457 29.5607 117.258 29.674C115.327 30.7777 110.209 34.9167 110.209 41.1252C110.209 44.8427 110.222 72.3056 110.222 72.3056C110.207 74.5613 110.785 76.7813 111.899 78.7428C113.013 80.7043 114.624 82.3383 116.568 83.4809C119.338 85.1199 138.842 96.4693 142.506 98.5193C142.722 98.64 142.976 98.8203 143.196 98.9332C148.301 101.555 153.203 100.845 157.269 98.5193C161.265 96.2333 178.439 86.807 184.448 82.5152C188.311 79.7559 189.829 75.8928 189.691 72.5816V54.232C189.691 47.8856 185.552 42.9188 178.515 39.6076Z" fill="url(#paint0_linear_3427_25)"/>
<path d="M0 136.104C0 129.096 4.96566 124.641 10.9526 124.641C13.9228 124.641 16.3824 125.569 18.0533 127.239V125.151H23.6686V147.52C23.6686 153.09 19.6312 158.38 12.1129 158.38C5.10526 158.38 1.06722 153.879 0.557179 149.052H6.31148C6.91519 151.279 8.67858 153.136 12.1129 153.136C16.1044 153.136 18.1464 150.352 18.1464 147.056V144.921C16.4755 146.639 13.9228 147.52 10.9526 147.52C4.96566 147.52 0 143.112 0 136.104ZM5.61591 136.104C5.61591 140.049 8.35406 142.462 12.0198 142.462C13.6859 142.413 15.2673 141.717 16.4284 140.521C17.5895 139.325 18.239 137.724 18.239 136.057C18.239 134.391 17.5895 132.789 16.4284 131.594C15.2673 130.398 13.6859 129.702 12.0198 129.653C8.35406 129.653 5.61591 132.112 5.61591 136.104Z" fill="white"/>
<path d="M39.5881 149.609C33.4157 149.609 28.1249 144.968 28.1249 137.125C28.1249 129.281 33.4157 124.594 39.5881 124.594C40.933 124.565 42.2702 124.804 43.5213 125.298C44.7725 125.792 45.9124 126.531 46.8744 127.471V125.151H52.6293V149.052H46.8744V146.778C45.9095 147.711 44.768 148.442 43.5168 148.928C42.2656 149.414 40.9299 149.646 39.5881 149.609ZM33.9728 137.125C33.9728 141.719 36.85 144.365 40.6094 144.365C44.0438 144.365 47.014 141.719 47.014 137.125C47.014 132.484 44.0438 129.838 40.6094 129.838C36.85 129.838 33.9728 132.484 33.9728 137.125Z" fill="white"/>
<path d="M87.9014 124.593C93.9814 124.593 96.9516 128.863 96.9516 134.989V149.051H91.0577V135.639C91.0577 131.833 89.4799 129.838 85.9525 129.838C82.9823 129.838 80.6617 131.833 80.6617 135.639V149.051H74.7678V135.639C74.7678 131.833 73.3754 129.838 69.8481 129.838C66.6923 129.838 64.3717 131.833 64.3717 135.639V149.051H58.4778V125.15H64.3717V127.61C65.4861 126.032 67.6205 124.593 71.6121 124.593C75.464 124.593 78.109 126.218 79.3159 128.445C80.7082 126.218 83.3074 124.593 87.9014 124.593Z" fill="white"/>
<path d="M101.873 116.426C101.874 115.466 102.256 114.546 102.934 113.867C103.613 113.189 104.533 112.807 105.492 112.806C105.965 112.807 106.433 112.902 106.869 113.085C107.305 113.268 107.7 113.536 108.033 113.872C108.365 114.209 108.627 114.607 108.805 115.046C108.982 115.484 109.071 115.953 109.066 116.426C109.06 117.376 108.679 118.285 108.005 118.954C107.331 119.624 106.419 120 105.469 120C104.519 120 103.608 119.624 102.934 118.954C102.26 118.285 101.879 117.376 101.873 116.426ZM108.463 125.151V149.052H102.569V125.151H108.463Z" fill="white"/>
<path d="M120.204 125.15V127.61C121.318 126.032 123.592 124.593 127.444 124.593C133.524 124.593 136.865 128.863 136.865 134.989V149.051H130.971V135.639C130.971 131.833 129.161 129.838 125.68 129.838C122.524 129.838 120.204 131.833 120.204 135.639V149.051H114.31V125.15H120.204Z" fill="white"/>
<path d="M141.136 136.104C141.136 129.096 146.101 124.641 152.088 124.641C155.058 124.641 157.518 125.569 159.189 127.239V125.151H164.804V147.52C164.804 153.09 160.767 158.38 153.249 158.38C146.241 158.38 142.203 153.879 141.693 149.052H147.447C148.051 151.279 149.814 153.136 153.249 153.136C157.24 153.136 159.282 150.352 159.282 147.056V144.921C157.611 146.639 155.058 147.52 152.088 147.52C146.101 147.52 141.136 143.112 141.136 136.104ZM146.751 136.104C146.751 140.049 149.49 142.462 153.155 142.462C154.821 142.413 156.403 141.717 157.564 140.521C158.725 139.325 159.375 137.724 159.375 136.057C159.375 134.391 158.725 132.789 157.564 131.594C156.403 130.398 154.821 129.702 153.155 129.653C149.49 129.653 146.751 132.112 146.751 136.104Z" fill="white"/>
<path d="M192.095 144.132C193.426 144.175 194.749 143.913 195.964 143.366C197.178 142.819 198.252 142.002 199.102 140.977L202.212 145.571C200.448 147.474 197.153 149.609 192.048 149.609C184.483 149.609 179.703 144.179 179.703 137.125C179.703 130.07 184.483 124.641 192.048 124.641C197.153 124.641 200.448 126.775 202.212 128.678L199.102 133.273C198.252 132.248 197.178 131.431 195.964 130.884C194.749 130.337 193.426 130.075 192.095 130.117C188.243 130.117 185.598 132.901 185.598 137.125C185.598 141.348 188.243 144.132 192.095 144.132Z" fill="white"/>
<path d="M204.116 137.125C204.116 130.581 208.71 124.594 216.786 124.594C224.861 124.594 229.456 130.581 229.456 137.125C229.456 143.715 224.861 149.702 216.786 149.702C208.71 149.702 204.116 143.715 204.116 137.125ZM210.01 137.125C210.01 141.58 212.934 144.457 216.786 144.457C220.638 144.457 223.561 141.58 223.561 137.125C223.561 132.716 220.638 129.838 216.786 129.838C212.934 129.838 210.01 132.716 210.01 137.125Z" fill="white"/>
<path d="M239.759 125.15V127.424C240.548 125.986 242.079 124.593 245.096 124.593C248.855 124.593 251.501 127.471 251.269 132.669H245.514C245.514 130.951 244.493 129.791 242.775 129.791C241.198 129.791 239.759 130.951 239.759 134.757V149.051H233.865V125.15H239.759Z" fill="white"/>
<path d="M260.782 127.424C262.5 125.568 265.099 124.593 268.255 124.593C274.752 124.593 279.764 129.513 279.764 137.078C279.764 144.643 274.752 149.608 268.255 149.608C265.099 149.608 262.5 148.587 260.782 146.731V159.262H254.888V125.15H260.782V127.424ZM260.504 137.078C260.504 141.719 263.567 144.364 266.955 144.364C270.807 144.364 273.87 141.719 273.87 137.078C273.87 132.483 270.807 129.838 266.955 129.838C263.567 129.838 260.504 132.483 260.504 137.078Z" fill="white"/>
<path d="M281.9 145.014L285.752 141.162C286.215 142.178 286.97 143.033 287.92 143.62C288.87 144.207 289.973 144.498 291.089 144.457C292.807 144.457 294.292 143.482 294.292 141.811C294.292 140.28 293.085 139.445 291.275 138.841L289.14 138.145C285.845 137.078 283.478 134.804 283.478 131.277C283.478 127.656 286.82 124.593 290.904 124.593C294.849 124.593 297.587 126.403 298.84 128.492L294.988 131.833C294.599 131.156 294.038 130.593 293.361 130.202C292.685 129.811 291.917 129.605 291.136 129.606C289.79 129.606 289.001 130.395 289.001 131.277C289.001 132.344 289.837 132.994 291.182 133.458L293.224 134.154C296.473 135.268 300 137.403 300 141.811C300 146.22 296.287 149.608 291.089 149.608C286.309 149.608 283.292 147.427 281.9 145.014Z" fill="white"/>
<defs>
<linearGradient id="paint0_linear_3427_25" x1="120.917" y1="27.1461" x2="177.779" y2="96.7283" gradientUnits="userSpaceOnUse">
<stop offset="0.03856" stop-color="#AA19AB"/>
<stop offset="0.92103" stop-color="#E00E52"/>
</linearGradient>
</defs>
</svg>
