<svg width="1617" height="362" viewBox="0 0 1617 362" fill="none" xmlns="http://www.w3.org/2000/svg">
<path d="M876.98 361.57C873.21 361.57 869.78 360.65 866.69 358.82C863.6 356.99 861.14 354.53 859.31 351.44C857.48 348.35 856.56 344.92 856.56 341.15V268.88C856.56 265.11 857.48 261.68 859.31 258.59C861.14 255.5 863.6 253.04 866.69 251.2C869.78 249.37 873.21 248.45 876.98 248.45H969.36V265.42H879.33C877.65 265.42 876.27 265.97 875.17 267.07C874.07 268.17 873.52 269.56 873.52 271.23V338.79C873.52 340.47 874.07 341.85 875.17 342.95C876.27 344.05 877.66 344.6 879.33 344.6H969.36V361.57H876.98Z" fill="#555C66"/>
<path d="M1037.23 361.57C1033.46 361.57 1030.03 360.65 1026.94 358.82C1023.85 356.99 1021.39 354.53 1019.55 351.44C1017.72 348.35 1016.8 344.92 1016.8 341.15V268.88C1016.8 265.11 1017.72 261.68 1019.55 258.59C1021.38 255.5 1023.84 253.04 1026.94 251.2C1030.03 249.37 1033.46 248.45 1037.23 248.45H1109.5C1113.27 248.45 1116.7 249.37 1119.79 251.2C1122.88 253.04 1125.34 255.5 1127.18 258.59C1129.01 261.68 1129.93 265.11 1129.93 268.88V341.15C1129.93 344.92 1129.01 348.35 1127.18 351.44C1125.35 354.53 1122.88 356.99 1119.79 358.82C1116.7 360.65 1113.27 361.57 1109.5 361.57H1037.23ZM1037.71 344.6H1109.04C1110.09 344.6 1110.98 344.21 1111.71 343.42C1112.44 342.63 1112.81 341.72 1112.81 340.67V269.34C1112.81 268.29 1112.44 267.38 1111.71 266.59C1110.97 265.8 1110.09 265.41 1109.04 265.41H1037.71C1036.66 265.41 1035.75 265.8 1034.96 266.59C1034.17 267.38 1033.78 268.29 1033.78 269.34V340.67C1033.78 341.72 1034.17 342.63 1034.96 343.42C1035.75 344.21 1036.66 344.6 1037.71 344.6Z" fill="#555C66"/>
<path d="M1178.63 361.57V248.61H1271.17C1274.94 248.61 1278.4 249.55 1281.54 251.44C1284.68 253.33 1287.17 255.81 1289 258.9C1290.83 261.99 1291.75 265.37 1291.75 269.03V300.77C1291.75 304.54 1290.83 307.97 1289 311.06C1287.16 314.15 1284.68 316.61 1281.54 318.45C1278.4 320.28 1274.94 321.2 1271.17 321.2L1195.6 321.36V361.58H1178.63V361.57ZM1199.53 304.07H1270.86C1271.91 304.07 1272.8 303.7 1273.53 302.97C1274.26 302.24 1274.63 301.35 1274.63 300.3V269.51C1274.63 268.46 1274.26 267.55 1273.53 266.76C1272.79 265.97 1271.9 265.58 1270.86 265.58H1199.53C1198.48 265.58 1197.57 265.97 1196.78 266.76C1195.99 267.55 1195.6 268.46 1195.6 269.51V300.3C1195.6 301.35 1195.99 302.24 1196.78 302.97C1197.56 303.71 1198.48 304.07 1199.53 304.07ZM1271.33 361.57L1235.98 319.31H1258.13L1291.12 358.43V361.57H1271.32H1271.33Z" fill="#555C66"/>
<path d="M1339.68 361.57V248.61H1432.22C1435.99 248.61 1439.45 249.55 1442.59 251.44C1445.73 253.33 1448.22 255.81 1450.05 258.9C1451.88 261.99 1452.8 265.37 1452.8 269.03V300.77C1452.8 304.54 1451.88 307.97 1450.05 311.06C1448.21 314.15 1445.73 316.61 1442.59 318.45C1439.45 320.28 1435.99 321.2 1432.22 321.2L1356.65 321.36V361.58H1339.68V361.57ZM1360.57 304.07H1431.9C1432.95 304.07 1433.84 303.7 1434.57 302.97C1435.3 302.24 1435.67 301.35 1435.67 300.3V269.51C1435.67 268.46 1435.3 267.55 1434.57 266.76C1433.83 265.97 1432.94 265.58 1431.9 265.58H1360.57C1359.52 265.58 1358.61 265.97 1357.82 266.76C1357.03 267.55 1356.64 268.46 1356.64 269.51V300.3C1356.64 301.35 1357.03 302.24 1357.82 302.97C1358.6 303.71 1359.52 304.07 1360.57 304.07Z" fill="#555C66"/>
<path d="M1515.17 361.57C1511.4 361.57 1507.97 360.65 1504.88 358.82C1501.79 356.99 1499.33 354.53 1497.49 351.44C1495.66 348.35 1494.74 344.92 1494.74 341.15V334.55H1511.71V340.68C1511.71 341.73 1512.1 342.64 1512.89 343.43C1513.68 344.22 1514.59 344.61 1515.64 344.61H1586.97C1588.02 344.61 1588.91 344.22 1589.64 343.43C1590.37 342.64 1590.74 341.73 1590.74 340.68V317.43C1590.74 316.28 1590.37 315.34 1589.64 314.6C1588.91 313.87 1588.02 313.5 1586.97 313.5H1515.17C1511.4 313.5 1507.97 312.58 1504.88 310.75C1501.79 308.92 1499.33 306.46 1497.49 303.36C1495.66 300.27 1494.74 296.84 1494.74 293.07V268.88C1494.74 265.11 1495.66 261.68 1497.49 258.59C1499.32 255.5 1501.78 253.04 1504.88 251.2C1507.97 249.37 1511.4 248.45 1515.17 248.45H1587.44C1591.21 248.45 1594.64 249.37 1597.73 251.2C1600.82 253.04 1603.28 255.5 1605.12 258.59C1606.95 261.68 1607.87 265.11 1607.87 268.88V275.48H1590.74V269.35C1590.74 268.3 1590.37 267.39 1589.64 266.6C1588.91 265.81 1588.02 265.42 1586.97 265.42H1515.64C1514.59 265.42 1513.68 265.81 1512.89 266.6C1512.1 267.39 1511.71 268.3 1511.71 269.35V292.6C1511.71 293.75 1512.1 294.7 1512.89 295.43C1513.68 296.17 1514.59 296.53 1515.64 296.53H1587.44C1591.21 296.53 1594.64 297.45 1597.73 299.28C1600.82 301.11 1603.28 303.58 1605.12 306.66C1606.95 309.75 1607.87 313.18 1607.87 316.95V341.15C1607.87 344.92 1606.95 348.35 1605.12 351.44C1603.29 354.53 1600.82 356.99 1597.73 358.82C1594.64 360.65 1591.21 361.57 1587.44 361.57H1515.17Z" fill="#555C66"/>
<path d="M190.86 143.89V119.92H130.91L158.6 71.96H250.81V191.85H72.0599C32.4999 191.85 0.129883 159.48 0.129883 119.92V71.96C0.129883 32.4 32.4999 0.0200195 72.0599 0.0200195H250.81V47.98H90.2799C73.6699 47.98 60.0799 61.58 60.0799 78.19V113.68C60.0799 130.3 73.6699 143.89 90.2799 143.89H190.86Z" fill="#16307C"/>
<path d="M279.81 191.85L390.56 0.0200195H459.78L570.54 191.85H501.32L425.18 59.97L349.03 191.85H279.81Z" fill="#16307C"/>
<path d="M601.64 191.85V0.0200195H661.49L756.95 116.28L852.41 0.0200195H912.26V191.85H852.31V75.71L756.94 191.85L661.57 75.71V191.85H601.62H601.64Z" fill="#16307C"/>
<path d="M957.98 0.0200195H1017.93V191.85H957.98V0.0200195Z" fill="#16307C"/>
<path d="M1063.63 191.85V0.0200195H1123.7L1266.35 127.62V0.0200195H1326.3V191.85H1266.23L1123.58 64.26V191.85H1063.63Z" fill="#16307C"/>
<path d="M1556.09 143.89V119.92H1496.14L1523.83 71.96H1616.04V191.85H1437.29C1397.73 191.85 1365.36 159.48 1365.36 119.92V71.96C1365.36 32.4 1397.73 0.0200195 1437.29 0.0200195H1616.04V47.98H1455.51C1438.9 47.98 1425.31 61.58 1425.31 78.19V113.68C1425.31 130.3 1438.9 143.89 1455.51 143.89H1556.09Z" fill="#16307C"/>
<path d="M375.57 192.36L425.11 106.57C425.11 106.57 477.78 191.15 474.64 192.36C471.5 193.58 375.57 192.36 375.57 192.36Z" fill="url(#paint0_linear_17_18)"/>
<defs>
<linearGradient id="paint0_linear_17_18" x1="425.17" y1="97.6701" x2="425.17" y2="177.84" gradientUnits="userSpaceOnUse">
<stop stop-color="#16307C"/>
<stop offset="0.95" stop-color="#28BCEA"/>
</linearGradient>
</defs>
</svg>
