<svg width="300" height="177" viewBox="0 0 300 177" fill="none" xmlns="http://www.w3.org/2000/svg">
<path d="M286.519 143.43V149.949H284.255V143.43H282.117V141.473H288.795V143.43H286.519Z" fill="white"/>
<path d="M300 141.473V149.949H297.774L297.939 143.455H297.875L295.776 149.949H293.828L291.678 143.455H291.602L291.792 149.949H289.566V141.473H293.133L294.739 146.797H294.827L296.345 141.473H300Z" fill="white"/>
<path d="M30.8485 141.019V175.859H21.4894V162.174H9.35912V175.859H0V141.019H9.35912V154.182H21.4894V141.019H30.8485Z" fill="white"/>
<path d="M58.123 169.852H45.6268L43.9536 175.859H34.2285L44.6856 141.019H58.855L69.469 175.859H59.953L58.123 169.852ZM56.293 163.114L51.901 147.966L47.6136 163.114H56.293Z" fill="white"/>
<path d="M72.7259 175.859V141.019H91.7055C94.2567 141.132 97.0829 141.513 99.2869 142.899C101.638 144.291 102.11 147.521 102.11 150.003C102.11 151.786 101.913 153.603 101.274 155.279C100.647 157.157 98.4163 157.809 96.6727 158.099V158.308C98.3649 158.557 100.421 159.093 101.431 160.607C102.458 162.146 102.686 164.129 102.686 165.935C102.686 168.57 102.486 172.004 100.333 173.874C98.1191 175.784 94.6165 175.859 91.8624 175.859H72.7259ZM82.085 168.181C84.9063 168.181 88.2956 168.181 90.6075 168.181C92.5721 167.9 93.3787 166.843 93.3787 164.838C93.3787 161.861 91.5235 161.495 88.9344 161.495L82.085 161.39V168.181ZM82.085 154.965C84.7478 154.965 86.8519 154.965 90.3461 154.965C92.0808 154.718 92.8558 153.902 92.8558 152.092C92.8558 149.888 91.8934 148.802 89.6664 148.802L82.085 148.697V154.965Z" fill="white"/>
<path d="M127.744 169.852H115.248L113.575 175.859H103.85L114.307 141.019H128.476L139.09 175.859H129.574L127.744 169.852ZM125.914 163.114L121.522 147.966L117.235 163.114H125.914Z" fill="white"/>
<path d="M176.207 141.019V175.859H160.364L150.535 149.063H150.116L150.535 175.859H141.385V141.019H157.123L166.952 167.502H167.318L166.952 141.019H176.207Z" fill="white"/>
<path d="M189.954 148.697V154.965H204.803V161.442H189.954V168.181H206.163V175.859H180.595V141.019H205.849V148.697H189.954Z" fill="white"/>
<path d="M210.572 175.859V141.019H228.14C231.309 141.117 235.071 141.393 237.708 143.369C240.334 145.409 240.584 149.534 240.584 152.562C240.584 154.677 240.395 156.925 239.695 158.935C238.911 161.187 236.057 161.944 233.996 162.383V162.644C235.706 162.809 237.579 163.35 238.754 164.681C239.955 165.961 240.322 167.893 240.322 169.591V175.859H230.807V171.21C230.807 167.878 229.648 166.718 226.885 166.718L219.931 166.614V175.859H210.572ZM219.931 158.674C222.652 158.674 227.911 158.935 229.499 158.465C229.953 158.256 230.266 157.96 230.441 157.577C230.925 156.511 231.016 155.284 231.016 154.13C231.016 152.877 230.929 151.539 230.441 150.369C229.814 149.221 228.003 149.167 226.885 149.167L219.931 149.063V158.674Z" fill="white"/>
<path d="M244.246 156.689C244.246 153.038 244.36 148.581 246.494 145.511C249.393 141.39 255.901 140.914 260.454 140.914C264.59 140.914 269.786 141.166 273.108 143.996C276.521 146.821 276.715 152.442 276.715 156.48C276.715 161.332 276.466 166.617 274.572 171.158C272.533 176.045 265.07 176.121 260.716 176.121C258.286 176.121 255.716 176.059 253.344 175.598C250.931 175.063 248.376 174.226 246.756 172.255C243.395 167.982 244.246 161.731 244.246 156.689ZM254.598 166.3C255.379 168.153 258.039 168.233 259.722 168.233C262.1 168.233 265.288 168.309 266.349 165.736C267.495 162.476 267.707 156.608 266.886 152.667C266.303 149.758 264.293 148.906 261.396 148.906C257.609 148.906 254.648 149.084 254.128 153.137C253.614 157.043 253.168 162.625 254.598 166.3Z" fill="white"/>
<path d="M141.684 3.66055C141.684 2.14371 142.914 0.914062 144.43 0.914062C145.947 0.914062 147.176 2.14371 147.176 3.66055C147.176 5.1774 145.947 6.40705 144.43 6.40705C142.914 6.40705 141.684 5.1774 141.684 3.66055Z" fill="url(#paint0_linear)"/>
<path d="M152.246 6.61831C152.246 5.10147 153.475 3.87182 154.992 3.87182C156.509 3.87182 157.738 5.10147 157.738 6.61831V14.224C157.738 15.7408 156.509 16.9705 154.992 16.9705C153.475 16.9705 152.246 15.7408 152.246 14.224V6.61831Z" fill="url(#paint1_linear)"/>
<path d="M165.553 20.4916C164.037 20.4916 162.807 21.7213 162.807 23.2381C162.807 24.755 164.037 25.9846 165.553 25.9846C167.07 25.9846 168.299 24.755 168.299 23.2381C168.299 21.7213 167.07 20.4916 165.553 20.4916Z" fill="url(#paint2_linear)"/>
<path fill-rule="evenodd" clip-rule="evenodd" d="M154.992 21.1958C153.475 21.1958 152.246 22.4255 152.246 23.9423V34.5762C152.246 35.9764 151.111 37.1114 149.711 37.1114C148.333 37.1114 147.211 36.0115 147.176 34.6411C147.152 33.7046 147.16 32.7656 147.168 31.8271L147.173 31.2394C147.175 30.9665 147.176 30.6937 147.176 30.4212C147.176 28.9044 145.947 27.6747 144.43 27.6747C142.914 27.6747 141.684 28.9044 141.684 30.4212V38.8016C141.684 40.2018 140.55 41.3368 139.15 41.3368C137.83 41.3368 136.746 40.328 136.626 39.0394L136.615 39.0439V27.4635C136.615 25.9466 135.386 24.717 133.869 24.717C132.352 24.717 131.123 25.9466 131.123 27.4635V44.5762C131.123 45.9764 129.988 47.1115 128.588 47.1115C127.188 47.1115 126.053 45.9764 126.053 44.5762V39.8579C126.053 38.3411 124.824 37.1114 123.307 37.1114C121.791 37.1114 120.561 38.3411 120.561 39.8579V52.4636C120.561 53.8638 119.427 54.9988 118.027 54.9988C116.627 54.9988 115.492 53.8638 115.492 52.4636V47.8497L115.456 47.8645C115.244 46.5588 114.111 45.5622 112.746 45.5622C111.229 45.5622 110 46.7918 110 48.3086V97.3224L149.513 120.914L189 97.3224V47.8157C189 46.3378 187.802 45.1396 186.324 45.1396C184.847 45.1396 183.649 46.3378 183.649 47.8157V49.2946C183.649 50.7336 182.482 51.9002 181.044 51.9002C179.605 51.9002 178.439 50.7336 178.439 49.2946V42.1819C178.439 40.7039 177.241 39.5058 175.763 39.5058C174.285 39.5058 173.087 40.7039 173.087 42.1819V43.4495C173.087 44.7718 172.016 45.8438 170.693 45.8438C169.371 45.8438 168.299 44.7718 168.299 43.4495V31.6889C168.299 30.172 167.07 28.9424 165.553 28.9424C164.037 28.9424 162.807 30.172 162.807 31.6889V38.8237C162.796 40.2137 161.665 41.3368 160.273 41.3368C158.873 41.3368 157.738 40.2018 157.738 38.8016V23.9423C157.738 22.4255 156.509 21.1958 154.992 21.1958ZM143.234 60.351H130.841V90.0694H143.234V81.4778H155.626V90.0694H168.018V60.351H155.626V69.0834H143.234V60.351Z" fill="url(#paint3_linear)"/>
<path d="M144.43 10.7733C142.914 10.7733 141.684 12.0029 141.684 13.5198V20.9846C141.684 22.5014 142.914 23.7311 144.43 23.7311C145.947 23.7311 147.176 22.5014 147.176 20.9846V13.5198C147.176 12.0029 145.947 10.7733 144.43 10.7733Z" fill="url(#paint4_linear)"/>
<defs>
<linearGradient id="paint0_linear" x1="110" y1="76.5482" x2="189" y2="76.5482" gradientUnits="userSpaceOnUse">
<stop stop-color="#EE374D"/>
<stop offset="1" stop-color="#F7942B"/>
</linearGradient>
<linearGradient id="paint1_linear" x1="110" y1="76.5482" x2="189" y2="76.5482" gradientUnits="userSpaceOnUse">
<stop stop-color="#EE374D"/>
<stop offset="1" stop-color="#F7942B"/>
</linearGradient>
<linearGradient id="paint2_linear" x1="110" y1="76.5482" x2="189" y2="76.5482" gradientUnits="userSpaceOnUse">
<stop stop-color="#EE374D"/>
<stop offset="1" stop-color="#F7942B"/>
</linearGradient>
<linearGradient id="paint3_linear" x1="110" y1="76.5482" x2="189" y2="76.5482" gradientUnits="userSpaceOnUse">
<stop stop-color="#EE374D"/>
<stop offset="1" stop-color="#F7942B"/>
</linearGradient>
<linearGradient id="paint4_linear" x1="110" y1="76.5482" x2="189" y2="76.5482" gradientUnits="userSpaceOnUse">
<stop stop-color="#EE374D"/>
<stop offset="1" stop-color="#F7942B"/>
</linearGradient>
</defs>
</svg>
