<svg width="290" height="102" viewBox="0 0 290 102" fill="none" xmlns="http://www.w3.org/2000/svg">
<path d="M189.241 57.0267L194.789 101.266L172.42 66.4641L154.691 78.526L160.223 60.0303L123.65 55.6746L162.824 41.5625L157.846 0L179.983 32.3485L197.916 19.8758L192.149 38.89L228.434 43.1739L189.245 57.0228L189.241 57.0267ZM111.437 64.8566C113.399 68.1872 114.381 71.9486 114.381 76.1287C114.381 80.3089 113.399 84.0703 111.437 87.4009C109.474 90.7314 106.698 93.352 103.104 95.2507C99.5106 97.1533 95.3544 98.1026 90.6317 98.1026C85.9091 98.1026 81.7488 97.1533 78.159 95.2507C74.5652 93.348 71.789 90.7314 69.8266 87.4009C67.8641 84.0703 66.8829 80.3129 66.8829 76.1287C66.8829 71.9446 67.8641 68.1872 69.8266 64.8566C71.789 61.526 74.5652 58.9094 78.159 57.0068C81.7528 55.1042 85.9091 54.1549 90.6317 54.1549C95.3544 54.1549 99.5146 55.1042 103.104 57.0068C106.698 58.9094 109.474 61.526 111.437 64.8566ZM99.73 76.1287C99.73 74.0865 99.3551 72.2996 98.6052 70.7719C97.8553 69.2402 96.7943 68.0556 95.4222 67.2139C94.0501 66.3723 92.4546 65.9535 90.6317 65.9535C88.8089 65.9535 87.2134 66.3723 85.8453 67.2139C84.4731 68.0556 83.4121 69.2402 82.6623 70.7719C81.9124 72.3036 81.5374 74.0905 81.5374 76.1287C81.5374 78.167 81.9124 79.9579 82.6623 81.4856C83.4121 83.0173 84.4731 84.2019 85.8453 85.0435C87.2174 85.8852 88.8129 86.304 90.6317 86.304C92.4506 86.304 94.0501 85.8852 95.4222 85.0435C96.7943 84.2019 97.8553 83.0173 98.6052 81.4856C99.3551 79.9539 99.73 78.167 99.73 76.1287ZM0 96.6667H13.809V55.2398H0V96.6667ZM36.5965 67.1102C37.9686 66.2407 39.5921 65.8059 41.4747 65.8059C42.8748 65.8059 44.1671 66.0811 45.3478 66.6316C46.5284 67.182 47.4897 67.9798 48.2276 69.0168C48.9695 70.0579 49.4083 71.2864 49.5479 72.7104H63.5084C63.309 69.0488 62.248 65.8179 60.3254 63.0138C58.4029 60.2137 55.7783 58.0359 52.4437 56.4843C49.1131 54.9327 45.284 54.1589 40.9602 54.1589C36.6364 54.1589 32.5001 55.1082 28.9661 57.0108C25.4321 58.9134 22.6759 61.534 20.6935 64.8765C18.7111 68.2191 17.7219 71.9725 17.7219 76.1327C17.7219 80.293 18.7111 84.0503 20.6935 87.3889C22.6759 90.7314 25.4321 93.352 28.9661 95.2547C32.5001 97.1573 36.4968 98.1066 40.9602 98.1066C45.4236 98.1066 49.1091 97.3328 52.4437 95.7812C55.7743 94.2296 58.4029 92.0557 60.3254 89.2516C62.248 86.4515 63.309 83.2167 63.5084 79.555H49.5479C49.4083 80.975 48.9655 82.2076 48.2276 83.2486C47.4857 84.2897 46.5284 85.0834 45.3478 85.6339C44.1671 86.1843 42.8748 86.4595 41.4747 86.4595C39.5921 86.4595 37.9686 86.0248 36.5965 85.1552C35.2244 84.2857 34.1794 83.0691 33.4614 81.5095C32.7394 79.9499 32.3804 78.159 32.3804 76.1367C32.3804 74.1144 32.7394 72.3235 33.4614 70.7639C34.1833 69.2043 35.2284 67.9878 36.5965 67.1142V67.1102ZM156.637 81.3859L148.6 86.8544L151.384 77.5447L155.744 62.9819L145.728 61.7893V79.1362L135.361 60.5568L123.244 59.1129L117.264 58.4029V96.6746H129.693V73.1571L142.792 96.6746H158.153V80.3568L156.629 81.3938L156.637 81.3859ZM171.435 71.3143L165.715 75.2073V96.6667H179.524V83.8988L171.435 71.3143ZM250.3 83.9706C251.138 83.3284 252.323 82.5865 253.842 81.7488C256.463 80.3089 258.565 78.8969 260.144 77.5168C261.728 76.1327 262.893 74.6449 263.643 73.0415C264.392 71.442 264.771 69.6231 264.771 67.5809C264.771 64.8606 264.177 62.4913 262.984 60.481C261.792 58.4667 260.053 56.9191 257.759 55.8261C255.466 54.7332 252.69 54.1908 249.427 54.1908C245.965 54.1908 242.969 54.8409 240.436 56.1413C237.903 57.4416 235.953 59.2445 234.581 61.546C233.209 63.8475 232.475 66.4561 232.375 69.3798H245.015C244.975 67.8202 245.358 66.6236 246.156 65.794C246.958 64.9643 247.991 64.5495 249.247 64.5495C249.925 64.5495 250.524 64.6731 251.034 64.9244C251.545 65.1757 251.94 65.5307 252.219 65.9894C252.498 66.4481 252.638 66.9986 252.638 67.6407C252.638 68.2829 252.486 68.8693 252.187 69.3998C251.884 69.9303 251.341 70.5006 250.552 71.1069C249.762 71.7172 248.645 72.4152 247.205 73.193C243.18 75.3749 240.117 77.5727 238.019 79.7824C236.076 81.8286 234.704 84.0663 233.911 86.4914C233.843 86.6909 233.783 86.8903 233.727 87.0937C232.989 89.6744 232.618 92.8654 232.614 96.6707H264.376V86.4954H248.182C248.266 86.2561 248.374 86.0287 248.509 85.8054C248.86 85.223 249.455 84.6167 250.296 83.9745L250.3 83.9706ZM280.666 55.2398C280.084 57.2222 279.246 58.8616 278.146 60.1619C277.045 61.4622 275.649 62.4554 273.957 63.1335C272.266 63.8116 270.232 64.2025 267.847 64.3062V75.9532C269.669 75.9931 271.373 75.7977 272.964 75.3669C274.516 74.9481 275.88 74.3099 277.061 73.4603V96.6667H290V55.2398H280.662H280.666ZM203.277 67.1142C204.649 66.2447 206.273 65.8099 208.155 65.8099C209.555 65.8099 210.848 66.0851 212.028 66.6356C213.209 67.186 214.17 67.9838 214.912 69.0208C215.654 70.0619 216.093 71.2904 216.233 72.7144H230.193C229.994 69.0527 228.933 65.8219 227.01 63.0178C225.088 60.2177 222.463 58.0399 219.128 56.4883C215.818 54.9486 212.013 54.1708 207.725 54.1628L193.018 59.3602L197.641 96.208C200.665 97.4764 204.003 98.1106 207.649 98.1106C211.973 98.1106 215.798 97.3368 219.132 95.7852C222.463 94.2335 225.092 92.0597 227.014 89.2556C228.937 86.4555 229.998 83.2207 230.197 79.559H216.237C216.097 80.979 215.654 82.2115 214.916 83.2526C214.174 84.2936 213.213 85.0874 212.032 85.6378C210.852 86.1883 209.559 86.4635 208.159 86.4635C206.277 86.4635 204.653 86.0287 203.281 85.1592C201.909 84.2897 200.864 83.0731 200.142 81.5135C199.42 79.9539 199.061 78.163 199.061 76.1407C199.061 74.1184 199.42 72.3275 200.142 70.7679C200.864 69.2083 201.909 67.9917 203.281 67.1182L203.277 67.1142Z" fill="#E91339"/>
</svg>
