<svg width="300" height="145" viewBox="0 0 300 145" fill="none" xmlns="http://www.w3.org/2000/svg">
<path d="M0 65.3414C7.67633 29.24 71.523 0.914062 148.711 0.914062C230.984 0.914062 298.13 33.1631 298.13 72.6495C298.11 77.3164 297.196 81.9363 295.44 86.2601C295.954 83.8532 296.215 81.3991 296.218 78.9379C296.218 39.4232 229.058 7.20242 146.771 7.20242C74.1431 7.23075 13.3132 32.2992 0 65.3556V65.3414Z" fill="white"/>
<path d="M300 80.2268C292.31 116.314 228.477 144.654 151.289 144.654C69.002 144.654 1.85535 112.405 1.85535 72.9187C1.8659 68.2494 2.78467 63.6266 4.56047 59.3081C4.04571 61.7149 3.78463 64.1691 3.78151 66.6304C3.79567 106.103 70.9565 138.295 153.243 138.295C225.857 138.295 286.687 113.227 300 80.2268Z" fill="white"/>
<path d="M21.0603 93.7098L21.3294 92.2935H23.1706C24.5936 92.4429 26.0205 92.0482 27.1645 91.1888C28.2305 89.7514 28.9085 88.0638 29.1332 86.2884L37.1069 50.3003C37.4593 48.6795 38.0996 46.1696 36.8237 44.8193C36.1241 44.3489 35.2839 44.1338 34.4443 44.2102H32.0508L32.3199 42.7939H59.3995L59.1304 44.2102H57.4308C56.0168 44.064 54.601 44.47 53.4793 45.3433C52.4234 46.7995 51.7557 48.5005 51.539 50.2862L43.5794 86.2884C43.1797 87.8721 42.4937 90.3636 43.7919 91.6845C44.5096 92.1498 45.3613 92.364 46.2137 92.2935H48.4798L48.2107 93.7098H21.0603Z" fill="white"/>
<path d="M91.167 59.8887L83.5615 91.5571C82.4626 96.2694 81.2829 101.324 78.5195 105.38C75.5939 109.396 70.7359 111.645 65.8011 111.612C63.0867 111.778 60.4002 110.986 58.2098 109.374C56.3796 107.801 55.385 105.467 55.5188 103.057C55.3927 100.39 57.0671 97.2904 60.0509 97.3639C62.895 97.2331 64.5483 100.064 64.4273 102.632C64.4828 103.958 64.105 105.266 63.3509 106.357C62.3763 107.831 60.7496 107.823 59.2012 107.575C59.5243 108.376 60.1287 109.031 60.9007 109.417C61.7341 109.888 62.6767 110.132 63.6342 110.125C66.9672 110.125 69.8895 104.601 72.4011 93.554C73.0535 90.5656 73.7786 87.5936 74.483 84.6172C73.3439 87.4181 71.7077 89.9899 69.6534 92.2086C66.4845 95.5512 60.6834 95.413 58.3514 91.1605C55.0582 85.5464 55.6814 78.1793 57.799 72.2529C58.8365 69.2837 60.4595 66.5529 62.5719 64.2225C65.5813 60.898 73.1824 56.1818 76.8765 61.1492C78.0093 62.958 78.5764 65.0637 78.5053 67.1968L80.3323 59.8603L91.167 59.8887ZM71.7779 66.9701L66.8775 87.2232C66.6047 88.2897 66 91.1641 67.8264 91.3588C68.3929 91.3588 69.0869 90.9197 69.9084 90.0133C73.0869 86.3604 74.9006 81.3485 76.1542 76.7568C76.99 73.7822 77.4328 70.7111 77.4714 67.6216C77.5117 66.1765 77.2861 64.7363 76.8057 63.3727C76.3667 62.2822 75.8002 61.7298 75.092 61.7298C72.8735 61.8823 72.1371 65.2205 71.7779 66.9418L71.7779 66.9701Z" fill="white"/>
<path d="M92.8524 93.7101L99.4241 66.0639C99.6101 65.2875 100.052 62.6223 98.5884 62.7215C97.9653 62.7215 97.1721 63.7837 96.0816 65.9082C94.8151 68.5496 93.7866 71.2986 93.0082 74.1227L92.0593 73.6978C93.0401 69.7432 94.6466 65.9708 96.8181 62.5232C98.0635 60.4856 100.252 59.2129 102.639 59.1383C104.313 59.0673 105.911 59.8447 106.888 61.2061C109.358 65.172 108.293 70.3538 107.766 74.7458C109.938 68.1365 111.661 63.8876 112.936 61.9992C113.908 60.3121 115.678 59.2425 117.623 59.1666C121.3 59.0691 122.625 63.424 122.581 66.4141C122.54 69.2003 121.386 73.3725 117.935 73.3437C114.441 73.3881 113.488 69.1774 113.627 66.4141C113.703 64.8918 114.156 63.4148 114.989 62.1266C113.899 62.1266 112.242 65.1434 110.032 71.2051C107.464 78.5433 105.419 86.0543 103.914 93.6817L92.8524 93.7101Z" fill="white"/>
<path d="M140.907 59.1241C149.441 58.8925 155.682 66.7757 155.396 74.9441C155.531 84.7753 147.842 94.6015 137.565 94.5882C128.9 94.8579 122.902 86.7433 123.218 78.5557C122.992 68.7025 130.598 58.9842 140.907 59.1241ZM144.887 67.0978C145.327 65.0765 146.097 61.5874 143.5 60.6828C140.527 59.647 139.038 63.5459 138.627 65.7949L136.198 76.1976C135.236 80.3199 134.25 84.6641 133.319 88.6641C133.079 90.2691 133.263 92.2709 135 92.9769C136.938 93.7647 138.75 92.0504 139.155 90.6641C140.25 86.9141 141.485 81.753 142.472 77.5005L144.887 67.0978Z" fill="white"/>
<path d="M161.458 89.4753C163.048 92.2599 166.917 93.1953 169.899 93.1577C172.993 93.3786 175.666 91.0897 175.451 87.9032C175.451 85.7505 173.78 83.7157 170.437 81.799C166.22 79.2821 160.778 76.4664 160.962 70.8227C160.851 67.5566 162.251 64.4216 164.758 62.3249C167.552 60.0593 171.078 58.8955 174.672 59.0532C177.708 58.9398 180.697 59.8364 183.17 61.6026C185.245 63.0376 186.488 65.3963 186.498 67.9193C186.636 70.1212 185.127 72.3372 182.759 72.2106C180.497 72.2716 178.604 70.77 178 68.6366C177.389 66.4774 177.908 63.8214 180.25 63.2829C181.095 63.0887 182.067 63.2396 182.915 63.3588C181.364 61.2298 178.341 60.4886 175.833 60.512C172.845 60.3433 170.221 62.6609 170.409 65.724C170.409 69.3085 174.331 71.3932 177.037 72.9896C179.169 74.1789 181.05 75.7711 182.575 77.6776C183.643 79.2645 184.183 81.1478 184.119 83.0595C184.203 86.2574 182.839 89.3226 180.408 91.4015C177.668 93.6618 174.183 94.8183 170.635 94.6448C167.437 94.7769 164.289 93.8125 161.713 91.9113C159.515 90.3644 158.21 87.8431 158.215 85.1556C158.104 83.3897 158.895 81.4497 160.552 80.6641C163.408 79.3095 167.076 81.3341 167.294 84.5389C167.41 86.2463 167.144 88.3266 165.588 89.398C164.461 90.1737 162.634 90.1702 161.458 89.4753Z" fill="white"/>
<path d="M240.204 61.9567C238.476 72.2485 236.805 81.3647 235.19 89.3054C233.576 97.2461 231.886 104.658 230.12 111.541H216.198L216.608 110.125C217.527 110.039 218.346 109.51 218.804 108.709C219.853 106.443 220.646 104.068 221.169 101.627L231.451 61.9709H225.489L225.914 59.9031H231.947C233.161 55.2678 235.311 50.9299 238.264 47.1564C240.244 44.5093 243.316 42.9005 246.62 42.78C248.482 42.7267 250.28 43.4683 251.563 44.8195C252.875 46.1871 253.584 48.0236 253.531 49.9182C253.625 52.2664 252.27 55.2482 249.58 55.2576C246.933 55.2989 245.423 52.5855 245.529 50.2014C245.439 47.9566 246.545 45.0461 249.169 45.0461C248.492 44.5571 247.693 44.2084 246.846 44.2105C245.501 44.2105 244.41 45.0886 243.575 46.859C242.739 48.6293 241.734 52.9632 240.544 59.8747H247.201L246.691 61.9425L240.204 61.9567Z" fill="white"/>
<path d="M253.517 61.9563H248.291L248.744 59.8885H253.942L257.908 43.4028H268.487L264.55 59.931H269.96L269.479 61.9988H264.097L258.276 86.5574C258.012 87.6805 257.304 91.1755 259.338 91.132C260.245 91.132 261.264 90.0981 262.412 88.0445C263.882 85.2278 265.081 82.2782 265.995 79.2351L266.802 79.6884C265.287 84.9995 263.601 88.8093 261.718 91.132C260.125 93.3119 257.591 94.6051 254.891 94.6161C250.638 94.8626 247.912 90.9384 248.178 86.9681C248.213 84.1466 248.924 81.3713 249.566 78.6403L253.517 61.9563Z" fill="white"/>
<path d="M289.873 4.31333C294.13 6.5797 296.695 11.2815 296.714 16.0544C296.701 20.7715 294.144 25.4574 289.958 27.7247C285.804 30.1032 280.701 30.1032 276.546 27.7247C272.374 25.4408 269.79 20.7789 269.79 16.0544C269.795 11.2741 272.389 6.59618 276.631 4.31333C280.732 2.03408 285.774 2.02643 289.873 4.31333ZM277.736 6.22533C273.927 8.22317 272.082 12.1436 272.121 16.0544C272.159 19.9098 274.028 23.756 277.651 25.7419C281.107 27.7239 285.355 27.7239 288.811 25.7419C292.292 23.8382 294.441 19.9508 294.448 16.0119C294.438 12.0136 292.274 8.05757 288.684 6.19701C285.284 4.36337 281.127 4.37428 277.736 6.22533ZM277.339 23.4758V8.98711H282.325C285.75 9.16406 288.599 9.79296 288.599 12.9527C288.618 15.2043 286.643 16.9426 284.463 17.0317C286.007 17.6344 287.037 19.2708 287.848 20.6291L289.619 23.4617H286.786C285.668 21.484 284.702 19.3828 283.033 17.7965C282.48 17.4205 281.816 17.241 281.149 17.2866H279.733V23.4617L277.339 23.4758ZM279.676 15.318H282.509C283.75 15.4141 286.161 14.9257 286.092 13.0944C286.126 11.1734 284 10.9141 282.381 10.9416H279.719L279.676 15.318Z" fill="white"/>
<path d="M206.511 59.1241C215.045 58.8925 221.286 66.7757 221 74.9441C221.135 84.7753 213.446 94.6015 203.169 94.5882C194.504 94.8579 188.506 86.7433 188.822 78.5557C188.595 68.7025 196.202 58.9842 206.511 59.1241ZM210.491 67.0978C210.931 65.0765 211.701 61.5874 209.104 60.6828C206.131 59.647 204.641 63.5459 204.231 65.7949L201.802 76.1976C200.84 80.3199 199.854 84.6641 198.923 88.6641C198.682 90.2691 198.867 92.2709 200.604 92.9769C202.542 93.7647 204.354 92.0504 204.759 90.6641C205.854 86.9141 207.089 81.753 208.076 77.5005L210.491 67.0978Z" fill="white"/>
</svg>
