<svg width="17" height="17" xmlns="http://www.w3.org/2000/svg" fill="none" viewBox="1.91 1.37 17.27 17.27">
<path d="M4.54563 4.00168L4.54562 4.00168C2.94357 5.6038 2.06094 7.73463 2.06094 10.0003C2.06094 12.266 2.94357 14.3968 4.54562 15.999L4.65169 15.8929L4.54563 15.999C6.14775 17.601 8.27858 18.4837 10.5443 18.4837C12.81 18.4837 14.9408 17.601 16.5429 15.999L16.4368 15.8929L16.5429 15.999C18.145 14.3968 19.0276 12.266 19.0276 10.0003C19.0276 7.73463 18.145 5.6038 16.5429 4.00168L16.4368 4.10775L16.5429 4.00168C14.9408 2.39963 12.81 1.51699 10.5443 1.51699C8.27858 1.51699 6.14775 2.39963 4.54563 4.00168ZM15.6402 15.0963C14.2788 16.4577 12.4696 17.2071 10.5443 17.2071C8.61898 17.2071 6.80971 16.4577 5.44832 15.0963C4.08693 13.7349 3.3375 11.9256 3.3375 10.0003C3.3375 8.07504 4.08693 6.26576 5.44832 4.90437C6.80971 3.54299 8.61898 2.79355 10.5443 2.79355C12.4696 2.79355 14.2788 3.54299 15.6402 4.90437C17.0016 6.26576 17.751 8.07504 17.751 10.0003C17.751 11.9256 17.0016 13.7349 15.6402 15.0963Z" fill="white" stroke="white" stroke-width="0.3"/>
<path d="M13.5817 7.99463C13.1631 7.99463 12.8226 8.33519 12.8226 8.75378C12.8226 8.84479 12.8387 8.93213 12.8682 9.01309L12.0171 9.53398L11.0391 7.77051C11.2114 7.63122 11.3218 7.41833 11.3218 7.18005C11.3218 6.76146 10.9813 6.4209 10.5626 6.4209C10.144 6.4209 9.80345 6.76146 9.80345 7.18005C9.80345 7.41829 9.91387 7.63115 10.0861 7.77044L9.10817 9.53398L8.22861 8.99567C8.25423 8.91963 8.26836 8.83835 8.26836 8.75378C8.26836 8.33519 7.9278 7.99463 7.50918 7.99463C7.09056 7.99463 6.75 8.33519 6.75 8.75378C6.75 9.1724 7.09056 9.51296 7.50918 9.51296C7.53206 9.51296 7.55469 9.51175 7.57705 9.50977L8.49977 13.0033H12.6255L13.5476 9.51211C13.559 9.51263 13.5703 9.51299 13.5817 9.51299C14.0004 9.51299 14.3409 9.17243 14.3409 8.75381C14.3409 8.33519 14.0004 7.99463 13.5817 7.99463ZM11.8734 12.0267H9.25189L8.85498 10.524L9.46787 10.8991L10.5626 8.92487L11.6574 10.8991L12.2703 10.5239L11.8734 12.0267Z" fill="white"/>
</svg>