<svg xmlns="http://www.w3.org/2000/svg" width="300" height="66" fill="none" viewBox="0 0 300 66"><g clip-path="url(#a)"><path fill="#fff" d="M7.316 43.401c3.158-.051 6.318-.024 9.476-.016.621.005 1.28-.06 1.852.237.925.425 1.596 1.474 1.363 2.504-1.161 5.284-2.35 10.564-3.529 15.845-.4 1.795-2.21 3.07-4.015 3.04-3.339-.009-6.679.004-10.017-.007-1.213.002-2.523-.925-2.438-2.24v-.287c.058-.896.296-1.762.489-2.635.988-4.385 1.972-8.77 2.95-13.157.281-1.835 2.029-3.274 3.869-3.284ZM274.094.375c1.315-.22 2.654-.14 3.982-.15 6.769-.002 13.538.005 20.307-.006.654-.008 1.301.402 1.552 1.01.099.39.046.8-.012 1.193-2.898 12.945-5.857 25.88-8.795 38.814-.27 1.101-1.324 2.037-2.489 1.966-1.311.002-2.621.011-3.93-.004-.869.002-1.542-.933-1.383-1.76.937-4.102 1.821-8.217 2.804-12.31.144-.674.257-1.47-.181-2.062-.335-.484-.953-.647-1.511-.64-2.844-.013-5.689.038-8.533-.016-1.105-.018-1.761-1.354-1.344-2.31 1.031-2.462 2.939-4.56 5.326-5.767 2.232-1.164 4.796-1.33 7.265-1.352.984.023 1.905-.735 2.111-1.693.554-2.568 1.234-5.111 1.672-7.705.211-.948-.712-1.819-1.629-1.783-3.654-.018-7.309-.002-10.963-.007-.953-.035-1.888.498-2.36 1.323-.238.392-.301.855-.4 1.295-2.398 10.748-4.879 21.478-7.301 32.22-.115.861-.52 1.712-1.273 2.188-.52.377-1.178.417-1.794.387-2.21-.008-4.42-.001-6.629-.005-.807.044-1.515-.716-1.503-1.504.022-.314.11-.617.179-.922 2.018-9.052 4.122-18.084 6.16-27.131.629-2.554.942-5.257 2.312-7.557 1.671-3.09 4.886-5.249 8.36-5.712Zm-36.833 5.533c-.911.208-1.699.929-1.945 1.836-1.84 8.322-3.749 16.628-5.627 24.942-.292 1.228-.673 2.456-.671 3.728.059.761.827 1.29 1.549 1.315 3.515.019 7.031-.006 10.547.012.448-.003.914.045 1.348-.106.852-.266 1.557-1.001 1.728-1.885.524-2.439 1.119-4.86 1.616-7.304.156-.833-.367-1.904-1.298-1.935-3.027-.07-6.056-.001-9.081-.021-.894.021-1.793-.779-1.682-1.706.218-1.44 1.097-2.66 2.015-3.746 2.083-2.528 5.376-3.831 8.6-3.93 1.144-.026 2.372.122 3.424-.433.498-.262.872-.745.977-1.301a587.1 587.1 0 0 0 1.545-6.702c.121-.682.386-1.478-.057-2.1-.453-.679-1.348-.778-2.095-.753-3.63.075-7.269-.103-10.893.089ZM233.667.475c1.798-.254 3.618-.165 5.428-.229C245.408.24 251.72.252 258.031.24c.786.024 1.534.717 1.528 1.523-.031.367-.151.717-.23 1.075-.748 3.104-1.385 6.232-2.102 9.344-.377 1.596-.832 3.186-1.561 4.66-.988 2.148-2.947 3.71-5.078 4.641 1.715 1.213 2.694 3.262 2.859 5.326.142 1.325-.153 2.64-.395 3.936-.512 2.556-1.188 5.12-2.482 7.4-1.786 3.132-5.347 5.036-8.909 5.144l-23.422.001c-.741-.004-1.426-.598-1.534-1.328-.047-.512.152-.999.255-1.49 2.037-9.162 4.177-18.298 6.215-27.46.424-1.655.65-3.363 1.228-4.979.785-2.068 2.097-3.96 3.859-5.316 1.555-1.221 3.453-1.967 5.405-2.242ZM193.255.368c1.324-.201 2.665-.145 4.002-.157 6.72-.013 13.44-.002 20.16 0 .673-.007 1.381.359 1.663.991.162.348.089.743.04 1.109-2.799 12.555-5.655 25.1-8.5 37.645-.201 1.014-.381 2.198-1.322 2.809-.64.54-1.521.462-2.301.455-1.125-.042-2.254.068-3.375-.053-.746-.166-1.203-1.02-1.064-1.745 2.391-10.786 4.918-21.541 7.31-32.327.145-.673.342-1.354.287-2.048-.036-.382-.203-.79-.551-.983-1.123-.666-2.828-.023-3.12 1.28-1.331 5.71-2.576 11.437-3.899 17.147-.311 1.253-1.668 1.977-2.893 1.928-1.175-.074-2.354.035-3.527-.076-.857-.085-1.524-1.02-1.287-1.86 1.23-5.603 2.481-11.202 3.785-16.79.15-.588-.023-1.311-.564-1.643-1.013-.532-2.454-.193-3.026.826-.352.596-.473 1.286-.623 1.95-2.406 10.797-4.89 21.576-7.312 32.369-.235 1.13-1.313 2.044-2.477 2.03-2.394-.028-4.789.002-7.182-.01-.852-.036-1.566-.947-1.352-1.782 2.378-10.732 4.888-21.435 7.276-32.164.672-2.698 2.246-5.2 4.514-6.833 1.558-1.146 3.432-1.804 5.338-2.068ZM152.74.3c1.658-.143 3.327-.039 4.99-.069 6.267.003 12.533.002 18.799-.003.63.022 1.244.434 1.474 1.025.156.77-.11 1.537-.274 2.28-2.773 12.44-5.63 24.861-8.439 37.293-.137 1.137-1.032 2.232-2.207 2.349-1.404.07-2.81.016-4.214.026-.956.067-1.706-.992-1.454-1.882.816-3.574 1.607-7.152 2.422-10.726.226-.926.548-1.858.463-2.824-.072-.757-.808-1.34-1.552-1.338-2.939-.032-5.879.04-8.818-.028-1.02-.05-1.692-1.253-1.331-2.175 1.216-3.13 3.925-5.654 7.152-6.605 1.794-.57 3.696-.591 5.561-.64.948-.022 1.816-.76 2.015-1.683.56-2.577 1.239-5.13 1.681-7.731.19-.906-.656-1.755-1.535-1.767-3.7-.03-7.398-.008-11.097-.01-1.161-.04-2.299.793-2.575 1.926-2.495 11.154-5.062 22.291-7.574 33.441-.241 1.113-1.28 2.074-2.449 2.046-2.349-.005-4.697.004-7.044-.003-.977.104-1.828-.959-1.533-1.889 2.248-10.03 4.576-20.042 6.833-30.07.307-1.449.64-2.905 1.294-4.243.867-1.845 2.169-3.509 3.85-4.676C148.81 1.167 150.763.528 152.74.3Zm-33.428.014c.432-.098.881-.067 1.321-.09 2.118-.02 4.236.01 6.354-.009.923-.04 1.823.904 1.555 1.837-2.109 9.612-4.341 19.197-6.489 28.8-.178.663-.333 1.383-.062 2.045.168.508.658.901 1.206.876 2.933.035 5.868-.014 8.8.023 1.044-.026 2 1.075 1.656 2.103-.792 2.07-2.222 3.89-4.024 5.179-1.975 1.415-4.42 2.066-6.828 2.135-4.197.032-8.394.035-12.591.024-.936.058-1.795-.906-1.571-1.83 2.951-13.076 5.989-26.135 8.885-39.225.227-.873.946-1.576 1.788-1.868ZM84.826.37C85.92.18 87.035.236 88.142.229c6.995.005 13.99.001 20.984 0 .699.019 1.438.53 1.519 1.259.072.571-.1 1.132-.226 1.681-2.751 12.3-5.56 24.587-8.348 36.878-.177.819-.295 1.726-.898 2.36-.495.53-1.21.826-1.935.807-1.308-.016-2.618.026-3.925-.02-.91-.066-1.525-1.057-1.286-1.917.967-4.184 1.87-8.385 2.865-12.563.263-.937-.274-2.21-1.35-2.26-3.01-.086-6.02.034-9.03-.054-1.003-.066-1.657-1.25-1.31-2.162.769-1.998 2.154-3.746 3.885-5 1.513-1.104 3.317-1.777 5.168-2.034 1.205-.17 2.423-.185 3.637-.22.964-.01 1.851-.762 2.047-1.7.53-2.334 1.075-4.663 1.568-7.006.095-.552.237-1.176-.066-1.69-.359-.616-1.119-.84-1.793-.803-3.655.015-7.309-.02-10.963.019-1.102.086-2.1.956-2.308 2.047C83.9 18.953 81.34 30.038 78.84 41.136c-.234 1.132-1.292 2.107-2.478 2.068-2.395-.006-4.791.008-7.188-.006-.86.002-1.577-.918-1.39-1.752 2.249-10.12 4.625-20.209 6.877-30.327.313-1.4.654-2.808 1.262-4.114.718-1.49 1.677-2.883 2.946-3.958A11.475 11.475 0 0 1 84.826.37ZM56.1.337a3.985 3.985 0 0 1 1.035-.114c3.43.026 6.857-.016 10.285.022 1.275-.013 2.411 1.186 2.326 2.459-.043.394-.153.777-.234 1.164-.978 4.436-1.986 8.867-2.977 13.3-.577 2.602-2.077 4.957-4.086 6.691-2.93 2.45-6.441 4.117-10.078 5.23-2.943.917-5.967 1.534-8.987 2.13-.287.069-.597.15-.803.376-.138.265.08.574.356.617.834.217 1.7.253 2.548.386 2.7.43 5.36 1.24 7.756 2.572 1.344.762 2.649 1.642 3.667 2.819 1.927 2.182 2.995 5.189 2.57 8.1-.824 5.323-2.241 10.53-3.334 15.8-.272 1.306-1.278 2.403-2.512 2.876-.776.327-1.63.233-2.45.243-3.113-.004-6.228.01-9.343-.008-1.378.044-2.606-1.37-2.299-2.73.73-3.441 1.552-6.863 2.29-10.302.393-1.91.716-3.872.513-5.825-.31-1.736-.818-3.583-2.17-4.806-1.641-1.374-3.534-2.495-5.615-3.049-1.913-.551-3.945-.699-5.77-1.534-.76-.364-1.528-.799-2.034-1.493-1.1-1.484-1.169-3.632-.228-5.212.478-.837 1.319-1.377 2.168-1.78 1.573-.723 3.312-.926 5.005-1.21 3.333-.518 6.764-.957 9.817-2.488 2.053-.962 4.059-2.247 5.32-4.179a7 7 0 0 0 .928-2.127c1.158-5.003 2.245-10.022 3.389-15.028C53.477 1.81 54.7.687 56.1.337Zm-39.66.01c.604-.152 1.231-.115 1.847-.12 3.2.024 6.398-.023 9.599.022 1.35-.007 2.497 1.401 2.203 2.724-1.168 5.288-2.367 10.569-3.538 15.856-.424 1.746-2.177 2.991-3.947 2.995-3.29.01-6.578-.004-9.867.007-.91.006-1.892-.367-2.376-1.176-.385-.586-.371-1.33-.224-1.992 1.109-4.931 2.21-9.865 3.312-14.798.107-.471.187-.954.403-1.392.505-1.037 1.486-1.81 2.589-2.126Z"/><path fill="#FE7A1C" d="M228.387 49.943c3.461-.033 6.924-.004 10.386-.018-.142.813-.328 1.617-.482 2.426-2.527-.015-5.055.002-7.583-.01-.258 1.273-.511 2.547-.767 3.82 2.408-.002 4.817 0 7.225 0-.169.828-.329 1.66-.485 2.49-2.423-.003-4.848-.013-7.271.008-.256 1.333-.532 2.663-.792 3.995 2.587.001 5.176-.003 7.763.002-.167.806-.325 1.613-.481 2.42-3.506.028-7.012.012-10.517.008.991-5.05 2.034-10.087 3.004-15.141Zm-58.859 15.142c1.002-5.055 2.014-10.109 3.024-15.162.972.016 1.944-.002 2.916.006.945 3.837 1.902 7.672 2.837 11.512 2.427-3.844 4.894-7.662 7.314-11.509.945-.003 1.89-.007 2.835-.001-1.03 5.048-2.024 10.104-3.035 15.157h-2.6c.703-3.52 1.412-7.04 2.107-10.562-2.082 3.52-4.13 7.06-6.233 10.568-.793-.005-1.585-.005-2.377-.008-.696-3.517-1.397-7.033-2.086-10.551-.708 3.514-1.407 7.033-2.11 10.549-.863.01-1.728.001-2.592.001Zm-54.822.012c3.14-5.062 6.303-10.108 9.448-15.168 1.012 0 2.023.003 3.036-.006 1.176 5.056 2.358 10.11 3.534 15.166l-2.913-.001c-.297-1.376-.603-2.75-.895-4.125-1.677-.017-3.356.001-5.033-.01.468-.807.962-1.599 1.412-2.416 1.029-.035 2.059 0 3.089-.025-.424-1.865-.793-3.744-1.258-5.6-.775 1.113-1.429 2.31-2.152 3.46-1.757 2.901-3.517 5.801-5.265 8.708-1.001.025-2.002-.003-3.003.017Zm164.835-14.354c2.97-1.334 6.403-1.133 9.466-.223-.155.854-.325 1.705-.493 2.557-2.262-.801-4.776-1.136-7.12-.502-.966.32-1.829 1.183-1.835 2.251-.098.536.219 1.164.792 1.252 1.611.23 3.264-.097 4.862.268.784.176 1.595.526 2.035 1.236.456.658.512 1.495.412 2.267-.134 1.298-.647 2.592-1.594 3.511-1.041 1.03-2.488 1.542-3.918 1.72-2.275.337-4.606.035-6.805-.593.149-.855.309-1.706.491-2.554 1.666.596 3.446.867 5.214.798.812-.04 1.674-.07 2.392-.505.816-.446 1.389-1.327 1.388-2.266-.018-.499-.352-1.008-.861-1.104-1.67-.372-3.407.102-5.07-.317-.947-.199-1.848-.854-2.104-1.82-.524-2.295.604-4.93 2.748-5.976Zm-206.903-.745c2.238-.377 4.583-.243 6.723.54-.184.84-.349 1.686-.511 2.534-1.924-.786-4.089-1.092-6.126-.599-1.09.266-2.172.75-2.92 1.614-1.249 1.413-1.695 3.365-1.672 5.212.021 1.09.465 2.267 1.458 2.824 1.371.799 3.046.675 4.551.422.307-1.492.599-2.986.903-4.478.934-.003 1.868 0 2.803.003-.431 2.12-.829 4.245-1.29 6.357-2.636.885-5.566 1.132-8.234.233-2.028-.607-3.295-2.76-3.168-4.822-.012-2.47.644-5.017 2.194-6.979 1.29-1.615 3.28-2.536 5.29-2.86ZM13.9 26.508c1.94-.351 3.993.36 5.402 1.715 1.14 1.064 1.795 2.587 1.895 4.133.103 1.906-.73 3.824-2.15 5.093-.915.83-2.1 1.327-3.316 1.507-2.413.318-4.958-.922-6.171-3.036-.834-1.33-.996-2.982-.74-4.505.476-2.473 2.605-4.49 5.08-4.906Z"/></g><defs><clipPath id="a"><path fill="#fff" d="M.008 0h300v65.253h-300z"/></clipPath></defs></svg>