<svg xmlns="http://www.w3.org/2000/svg" width="500" height="152" version="1.0"><path d="M282 15.9c-8.2 2.5-15.7 9.9-19 18.9-3.2 8.5-4.4 20-3.1 29 2 13.5 7.3 21.7 17.8 27.9 4.2 2.5 5.8 2.8 12.8 2.8 7-.1 9.2-.6 17.5-4 5.8-2.3 11.2-3.9 13.9-3.9 3.9-.1 4.7.3 8.1 4.2l3.8 4.3 1.6-2.3c2-2.8 2-8.4.1-12.2-.8-1.5-1.5-2.9-1.5-3 0-.1 2.7 0 6 .2 8 .6 10.7-.3 13-4.1 5-8.1 1.4-15.8-10.8-22.9-8.1-4.6-9.8-10.8-3-10.8 3.8.1 6.6 2.1 10.2 7.5l2.6 3.8v-3.5c0-2-.3-4.9-.6-6.6-.5-2.7-.9-2.9-2.5-1.9-1.4.9-3.3.8-8.3-.6-9-2.4-11.3-2.2-14.7 1.2-2.3 2.4-2.9 3.8-2.9 7.3 0 6.1 2.8 9.9 11.2 15.5 6.7 4.4 7.3 5.1 7.6 8.5.3 2.9-.1 3.9-1.8 4.8-4.4 2.4-10.7-2.4-15.3-11.5l-2.5-5 .5 6.2c.4 4.3.2 6.3-.5 6.3-1.6 0-3.6-5.2-9.2-23.8-2.7-9-5-16.6-5.2-16.8-.3-.2-2.2.3-4.4 1-2.1.8-5.2 1.7-6.8 2.1-2.5.5-2.7.8-1.4 2.3 1.8 2.2 3.2 5.4 5.2 11.6 2.1 6.5 2.1 6.6-1.1 6.6-5 0-5.5-1-3.7-6.9.8-2.9 1.4-5.5 1.1-5.7-.2-.2-1.2 2.2-2.1 5.4-3.4 10.6-8.4 19.2-11.3 19.2-1.2 0-1.3-2.2-.7-12.8.8-15.9 2.5-24.8 5.8-30.1 5.8-9.2 17.3-6.1 23.5 6.4l2 4 .1-9.9c0-9.9 0-9.9-2-8.1-2 1.8-2.4 1.8-9.3.2-7.4-1.8-16.3-2.1-20.7-.8zM303 58c.6 1 1.3 4 1.6 6.5.6 3.7.4 4.5-.9 4.5-.9 0-1.8.4-2.1.9-.3.5 3.9 1.4 9.4 2.1l9.9 1.3-4.7 2.2c-2.6 1.3-6.9 4.6-9.7 7.5-7.4 7.7-12.5 9.7-17.7 6.9-2.8-1.5-5.5-8.2-6.3-15.5l-.7-6.1 4.8.8c2.7.4 6.4.8 8.3.8l3.4.1-2.1-2.3c-1.3-1.3-2.5-4.3-2.8-7l-.7-4.7h4.6c3.6 0 4.9.4 5.7 2zM220.7 30.7c-.4.3.2 1.2 1.3 2 1.8 1.3 2 2.6 2 13.8 0 13.7-.8 16.9-4.8 20.2l-2.7 2.3h5.5c3 0 6.5-.3 7.8-.6l2.2-.6-2.9-3.4c-3.6-4.1-4.3-7.3-3.9-18.8l.3-8.8 7.4 16.6c4 9.1 7.5 16.6 7.7 16.6.2 0 2.2-1.3 4.5-2.9 2.2-1.6 5.4-3.3 7-3.6 3-.7 3-.7 1-2.2-1.9-1.3-2.1-2.4-2.1-10.7 0-11.7.6-14.9 3.6-18.1l2.3-2.5h-7.2c-7 0-7.1.1-5.1 1.8 1.2.9 2.7 2.7 3.3 4 1.6 3 2.7 20.1 1.3 18.7-1.8-1.7-9.4-19.7-9.4-22.2 0-2.2-.3-2.3-9.3-2.3-5 0-9.5.3-9.8.7z"/><path d="M195.4 33.9c-12.6 5.7-16.3 23.7-7 33.9 3.1 3.3 3.9 3.6 9.7 4 8 .4 13.9-2.4 18.4-8.7 4.1-5.9 4.8-15.8 1.5-22.7-3.8-7.7-13.6-10.6-22.6-6.5zm9.4.3c1.5 1.5 1.7 32 .2 34.9-1.6 3-5.8 2.5-7.1-.8-1.6-4.2-.8-31.6 1-33.6 1.6-2 4.2-2.2 5.9-.5z"/><path d="M173.5 37.1c-11.3 2.2-10.5 2.2-10.5.2 0-1.4-.3-1.4-2.2.5-3.2 2.9-22.6 7.8-25.1 6.3-1.3-.9-1.8-.8-2.1.1-.6 2-1.6 16.8-1.2 16.8.3 0 1-1.7 1.6-3.8 1.6-4.9 5.9-11.2 7.7-11.2 1.2 0 1.4 2.7 1.1 17-.3 18.2-.5 19-5.5 19-2.9 0-4.1-2.4-9.3-19.5-2.4-7.7-4.5-14.4-4.8-14.8-.2-.5-1.8.5-3.6 2.1-1.7 1.6-4.6 3.8-6.3 4.8-3.7 2-4 2.9-1.7 3.8 1.2.4 1.4 1.4 1 3.8-.4 2.4-.4 2.8.3 1.3 1-2.2.9-2.3 3.6 5.4.8 2.4 1.4 4.5 1.3 4.6-.9.7-7.2 2.4-7.5 2.1-.2-.2.1-2.3.7-4.6s.9-4.4.7-4.6c-.2-.3-1.2 2.6-2.1 6.3-2.9 11.6-8 21.3-11.3 21.3-1 0-1.3-3.5-1.3-17.6V58.8l2.3 1.4c1.2.8 3.2 3.3 4.5 5.4l2.3 3.9-.6-6c-.4-3.3-.9-7-1.2-8.1l-.5-2.2-2.3 2.2c-3 2.7-20.1 8.9-23.1 8.3-2.3-.4-2.4-.3-2.4 6.7v7.1l2.4-5c1.3-2.8 3.3-5.9 4.5-6.9l2.1-1.9v17.1c0 14.2-.3 17.3-1.6 18.6-2.5 2.6-3.4 1.9-3.4-2.7-.1-9.8-6.3-16.8-21.8-24.6-5.4-2.7-10.4-5.6-11.1-6.5-.7-.8-1.5-3.2-1.8-5.3-1-7.3 6.7-12.4 13.4-9 3.7 2 10.3 9.2 10.3 11.3 0 .9.6 1.4 1.3 1.2 1.2-.5 2.4-19.7 1.3-22.4-.3-.9-1.7-.1-3.9 2.1C64.3 46.9 64 47 55.8 47c-11.1 0-17.8 2.1-23.3 7.1-5.2 4.8-6.9 9.2-6.3 16.5.8 9 4.2 12.7 18.3 20.1 13.1 6.8 18 11.1 19.1 16.8.8 4.6-1 11-4.1 14.1-2.9 2.9-9.6 4.7-14.4 3.9-8.4-1.4-14.5-8.4-12.5-14.3.9-2.6 6.3-6.2 11.4-7.5 2.9-.8 1.6-3.1-3-5.2-2.8-1.3-5.6-1.6-10.5-1.3-6 .4-6.9.7-10.3 4.1-3.4 3.5-3.7 4.2-3.7 9.7 0 5.5.3 6.2 3.9 9.9 6 6.2 12.2 8.3 24.1 8.5 11.4.1 16.9-1.5 24.7-7.1 5.4-3.9 8.7-8.8 10.4-15.3l1.1-4.5 10.4-4c5.7-2.2 10.9-4.3 11.4-4.6.6-.3 2.2-.9 3.7-1.3 1.5-.3 3.9-1.1 5.4-1.6l2.7-1.1-2.1-1.5c-1.8-1.2-2.2-2.5-2.2-6.4 0-4.7.1-4.9 3.6-6 4-1.4 4.6-1 6.3 4 1 3 .9 3.8-.9 6.2-1.1 1.5-1.7 2.8-1.3 2.8.4 0 4.8-1.3 9.8-2.9 4.9-1.5 14.4-4.1 21-5.7 7.6-1.8 11-3 9.3-3.2l-2.8-.3V59.4c0-10.8.4-17.4 1-17.4.9 0 4.8 4.9 7.6 9.6.9 1.5 1 .8.3-3.1-1.1-7.2-1.1-8.5.5-8.5 2.3 0 2.6 2.4 2.6 18.5 0 14.8-.1 15.4-2.2 16.9-2.8 2-2.5 2 8.8 0 8.9-1.6 9.1-1.7 7.3-3.5-1.7-1.7-1.9-3.6-1.9-16.9 0-13.9.2-15.2 2.1-17.1 1.1-1.1 1.9-2.2 1.7-2.3-.1-.1-4.3.6-9.3 1.5zM356.8 42.8c2.1 2.1 2.2 3.1 2.2 18.7 0 16.2 0 16.6-2.2 17.4-1.8.7-.3 1.4 8.1 4 5.7 1.8 12.8 4.3 15.9 5.7 3 1.3 5.7 2.3 5.9 2.1.2-.2-.5-1.5-1.5-2.8-4.6-5.8-5.2-8.4-5.1-20.6V55.5l2.8 7.5c1.5 4.1 4.9 13.6 7.5 21l4.6 13.5h13.8l-1.9-2.7c-1.6-2.1-1.9-4.3-1.8-12 0-11.2 1.4-16 4.9-16.8 2.2-.6 1.8-1-4.6-4.2l-7-3.6 2.8 5.5c2.5 4.9 2.8 6.6 2.8 14.7l-.1 9.1-4.5-12c-2.4-6.6-4.8-13.7-5.2-15.8-.7-3.6-1.1-4-8.5-7.3-4.3-1.9-8-3.4-8.3-3.4-.2 0 0 1 .7 2.2.7 1.4 1 6.3.7 14.4-.3 10.4-.7 12.8-2.4 15.1-4.2 5.6-4.5 4.7-4.2-15.1l.3-18.5-7.5-2.7c-4.1-1.5-8.1-3-8.9-3.2-.8-.3-.5.4.7 1.6z"/><path d="M412.3 73.2c-2.7 3-3.5 5.9-3.4 12.2.1 13.3 9.2 25.4 21.4 28.7 4.9 1.3 9.9-.2 11.7-3.6 1.9-3.5 3-2.1 3 3.8 0 6.9.8 9.7 2.6 9 .8-.3 3 .7 5 2.2l3.6 2.7-3-4.1c-4.5-6.2-9-18.6-9.5-26.3-1-14.3-12.6-26.8-25-26.8-3.2 0-4.9.6-6.4 2.2zm15.8 1.7c2.3 1.8 2.4 2.5 2.7 17.1.2 8.4.1 16.3-.2 17.6-.8 3.2-3.9 3.1-6.5-.2-1.9-2.4-2.1-4-2.1-18.3 0-18.3.8-20.5 6.1-16.2zM466 86c0 2.2.2 4 .4 4s.6-1.8.8-4c.2-2.2 0-4-.4-4-.5 0-.8 1.8-.8 4zM470.9 82.9c1.2.8 1.2 1.2.2 2.5-1 1.1-1 1.9-.1 3.3 1.1 1.7 1.1 1.7.6-.1-.4-1-.1-2.5.5-3.2 1.2-1.5.4-3.4-1.4-3.4-.8 0-.7.4.2.9z"/><path d="M446.6 87.6c-2.1 2-2.1 9.6-.1 13.8.9 1.8 5.2 7.5 9.6 12.6 6.7 7.9 7.9 9.9 7.7 12.5-.3 2.5-.7 3-3 3-2-.1-2.4.2-1.7 1.1 1.6 1.9 9.6 5.4 12.4 5.4 3.8 0 5.9-4 5.1-9.7-.7-5.6-2.8-8.9-12.5-20.1-7.6-8.8-9-12.8-4.8-13.4 2-.3 1.8-.6-1.8-3-5.4-3.5-8.9-4.2-10.9-2.2zM344.8 93c-.2 2.4.1 4 .7 4s.9-1.6.7-4c-.2-2.2-.5-4-.7-4-.2 0-.5 1.8-.7 4zM349 89.5c0 .7 7.4 7.4 8.3 7.5 1.8 0 .4-2.7-2.3-4.5-1.6-1.1-3-2.3-3-2.8 0-.4-.7-.7-1.5-.7s-1.5.2-1.5.5zM359.2 90.2c-1.6 1.6-1.5 3.3.4 5.2 2 2.1 4.1 2.1 2.4.1-.7-.8-1-2.6-.8-4 .6-2.7-.1-3.2-2-1.3zM465.7 97.5c2.2 2.7 5.1 6.8 6.2 9l2.2 4-.6-4.9c-.3-2.7-.5-5.7-.5-6.6 0-1.3-.6-1.6-2.3-1.3-1.6.3-3.5-.5-5.8-2.4-3.3-2.7-3.3-2.7.8 2.2zM367.8 96.7c.7.3 1.6.2 1.9-.1.4-.3-.2-.6-1.3-.5-1.1 0-1.4.3-.6.6z"/></svg>
