<svg width="114" height="28" viewBox="0 0 114 28" fill="none" xmlns="http://www.w3.org/2000/svg">
<path d="M22.5302 18.5007C21.7992 16.6282 20.6385 15.1854 19.0738 14.1786C20.8501 13.1974 22.3956 11.7995 23.6781 10.0039C25.3903 7.61203 26.5317 4.85459 27.0704 1.80858L27.2371 0.84668H21.7222L21.5555 1.80858C20.9848 5.05979 19.7279 7.57355 17.8233 9.28573C15.9124 11.0043 13.6166 11.838 10.8015 11.838H9.0316L10.9746 0.84668H5.53029L0.759277 27.9081H6.20362L8.14024 16.9168H9.91013C11.9494 16.9168 13.6231 17.34 14.8863 18.1801C16.1561 19.0201 16.9961 20.1616 17.4578 21.6493C17.9259 23.1627 17.9837 24.939 17.631 26.9398L17.4642 27.9017H22.9791L23.1458 26.9398C23.7037 23.7911 23.4921 20.9503 22.5366 18.4943L22.5302 18.5007Z" fill="#FF0068"/>
<path d="M52.7788 22.6048L51.8426 27.9081H28.0132L30.8668 11.7225H53.4329L52.4967 17.0258H35.3749L34.3937 22.6048H52.7788Z" fill="#FF0068"/>
<path d="M90.5297 0.84668L89.5806 6.22048H98.5583L94.7364 27.9081H100.251L104.073 6.22048H113.051L114 0.84668H90.5297Z" fill="#FF0068"/>
<path d="M77.4093 15.3906L66.6297 0.84668H61.6535L56.8824 27.9081H62.3973L65.7063 9.15748L76.0499 23.0858L75.197 27.9081H80.7119L85.4829 0.84668H79.968L77.4093 15.3906Z" fill="#FF0068"/>
<path d="M56.613 0.84668L55.3689 7.90701H31.5395L32.7836 0.84668L38.2728 3.50793L44.6983 0.84668L50.1875 3.50793L56.613 0.84668Z" fill="#FF0068"/>
</svg>
