<svg xmlns="http://www.w3.org/2000/svg" fill="#fff" viewBox="3.9 0.6 16.2 22.2">
<path d="M13.8382 5.88718L12.5374 3.24718C12.4877 3.14702 12.4111 3.06271 12.3161 3.00378C12.2211 2.94484 12.1116 2.91361 11.9998 2.91361C11.888 2.91361 11.7784 2.94484 11.6834 3.00378C11.5885 3.06271 11.5118 3.14702 11.4622 3.24718L10.1614 5.88718L7.25258 6.30958C7.14162 6.32569 7.03738 6.37257 6.95171 6.44491C6.86603 6.51724 6.80234 6.61214 6.76785 6.71884C6.73337 6.82554 6.72948 6.93976 6.75662 7.04856C6.78375 7.15736 6.84083 7.25637 6.92138 7.33438L9.02378 9.38398L8.52698 12.2808C8.50773 12.3913 8.51984 12.505 8.56194 12.609C8.60404 12.7129 8.67445 12.803 8.76517 12.869C8.8559 12.935 8.9633 12.9742 9.07519 12.9822C9.18708 12.9903 9.29898 12.9667 9.39818 12.9144L11.9998 11.5464L14.6014 12.9144C14.6873 12.9591 14.7829 12.9822 14.8798 12.9816C15.0063 12.9818 15.1297 12.9423 15.2326 12.8688C15.3238 12.8032 15.3947 12.7133 15.4372 12.6093C15.4796 12.5053 15.4919 12.3914 15.4726 12.2808L14.9758 9.38398L17.0782 7.33438C17.1587 7.25637 17.2158 7.15736 17.243 7.04856C17.2701 6.93976 17.2662 6.82554 17.2317 6.71884C17.1972 6.61214 17.1335 6.51724 17.0479 6.44491C16.9622 6.37257 16.858 6.32569 16.747 6.30958L13.8382 5.88718ZM13.9198 8.74558C13.8508 8.81374 13.7993 8.89755 13.7696 8.9899C13.7399 9.08224 13.733 9.18038 13.7494 9.27598L14.083 11.28L12.2782 10.32C12.1923 10.275 12.0968 10.2515 11.9998 10.2515C11.9028 10.2515 11.8073 10.275 11.7214 10.32L9.91658 11.28L10.2598 9.27118C10.2742 9.17555 10.2653 9.07787 10.234 8.98639C10.2027 8.8949 10.1498 8.81231 10.0798 8.74558L8.63978 7.32238L10.6582 7.02958C10.7544 7.01544 10.8458 6.97813 10.9244 6.92085C11.003 6.86358 11.0665 6.78805 11.1094 6.70078L11.9998 4.87438L12.9022 6.70078C12.9451 6.78805 13.0086 6.86358 13.0872 6.92085C13.1658 6.97813 13.2572 7.01544 13.3534 7.02958L15.3718 7.32238L13.9198 8.74558ZM11.9998 0.599978C10.3595 0.598831 8.75764 1.09598 7.40625 2.02557C6.05486 2.95516 5.01774 4.27334 4.43224 5.80553C3.84674 7.33771 3.74049 9.01161 4.12756 10.6055C4.51464 12.1994 5.37677 13.6382 6.59978 14.7312V22.2C6.59943 22.3073 6.62799 22.4128 6.68247 22.5053C6.73695 22.5977 6.81533 22.6738 6.90938 22.7256C7.00352 22.7766 7.10942 22.8018 7.21644 22.7989C7.32345 22.7959 7.4278 22.7649 7.51898 22.7088L11.9998 19.92L16.4806 22.7088C16.5766 22.7679 16.687 22.7994 16.7998 22.8C16.8787 22.8003 16.9568 22.785 17.0298 22.755C17.1027 22.7249 17.169 22.6807 17.2248 22.6249C17.2805 22.5692 17.3247 22.5029 17.3548 22.43C17.3848 22.357 17.4001 22.2789 17.3998 22.2V14.7312C18.6228 13.6382 19.4849 12.1994 19.872 10.6055C20.2591 9.01161 20.1528 7.33771 19.5673 5.80553C18.9818 4.27334 17.9447 2.95516 16.5933 2.02557C15.2419 1.09598 13.64 0.598831 11.9998 0.599978ZM16.1998 21.12L12.319 18.6912C12.2234 18.6311 12.1127 18.5992 11.9998 18.5992C11.8869 18.5992 11.7762 18.6311 11.6806 18.6912L7.79978 21.12V15.624C9.06568 16.3932 10.5185 16.8 11.9998 16.8C13.4811 16.8 14.9339 16.3932 16.1998 15.624V21.12ZM11.9998 15.6C10.6351 15.6 9.30105 15.1953 8.16635 14.4371C7.03165 13.6789 6.14726 12.6013 5.62502 11.3405C5.10277 10.0797 4.96613 8.69232 5.23237 7.35385C5.4986 6.01539 6.15576 4.78592 7.12075 3.82094C8.08573 2.85596 9.31519 2.1988 10.6537 1.93256C11.9921 1.66632 13.3795 1.80296 14.6403 2.32521C15.9011 2.84745 16.9787 3.73184 17.7369 4.86654C18.4951 6.00124 18.8998 7.33529 18.8998 8.69998C18.8972 10.5292 18.1695 12.2828 16.876 13.5762C15.5826 14.8697 13.829 15.5974 11.9998 15.6Z"/>
</svg>