<svg xmlns="http://www.w3.org/2000/svg" width="300" height="85" fill="none" viewBox="0 0 300 85"><g clip-path="url(#a)"><path fill="#fff" d="M104.412 5.163h9.513l10.419 18.644h.452l10.419-18.644h9.512v36.604h-6.341V13.12h-.227l-10.644 18.415h-5.89L110.981 13.12h-.453v28.646h-6.342V5.163h.226Z"/><path fill="#fff" d="M144.953 41.994h-6.794V13.347l-10.644 18.416h-6.116L110.98 13.573v28.42h-6.794V4.936h9.966v.226l10.417 18.416 10.419-18.642h9.965v37.058Zm-6.114-.456h5.888V5.39h-9.285l-10.42 18.642h-.679v-.226L113.924 5.39h-9.284v36.15h5.888V12.89h.681l10.418 18.416h5.662l10.645-18.416h.679V41.54h.227l-.001-.001ZM157.64 41.993c-2.491 0-4.303-.682-5.663-1.818-1.358-1.365-1.811-3.183-1.811-5.458 0-2.727.906-4.546 2.491-5.91 1.586-1.364 4.077-2.273 7.7-2.502l6.343-.453v-.91c0-.909 0-1.819-.227-2.501-.226-.682-.453-1.136-.906-1.59-.453-.456-1.133-.683-1.813-.91-.678-.229-1.811-.229-2.944-.229-1.132 0-2.49 0-3.85.228-1.359.228-2.944.455-4.303.682l-.453-5.001a54.017 54.017 0 0 1 9.966-.909c4.077 0 7.02.68 8.833 2.273 1.811 1.364 2.944 3.637 2.944 6.82v18.187h-5.663l-.679-3.41h-.452c-3.172 2.275-6.116 3.411-9.513 3.411Zm2.944-4.775c.906 0 2.039-.226 3.17-.68 1.133-.456 2.039-.91 2.946-1.593V29.49l-4.304.454c-2.039.228-3.397.455-4.076 1.137-.68.682-1.133 1.592-1.133 2.956 0 2.046 1.133 3.182 3.397 3.182Z"/><path fill="#fff" d="M157.636 42.22c-2.491 0-4.53-.682-5.661-2.046-1.36-1.364-2.039-3.183-2.039-5.684 0-2.729.906-4.775 2.492-6.138 1.584-1.364 4.303-2.274 7.7-2.502l6.115-.455v-.682c0-.908 0-1.817-.227-2.5 0-.455-.227-.91-.68-1.364-.451-.455-.905-.682-1.811-.682-1.359-.228-3.85-.228-6.794 0-1.359.227-2.945.455-4.303.682h-.227l-.453-5.457h.227a53.986 53.986 0 0 1 9.964-.909c4.077 0 7.022.683 9.06 2.273 2.039 1.593 2.944 3.866 2.944 7.049v18.414h-6.341l-.68-3.41h-.226c-2.718 2.274-5.663 3.41-9.06 3.41Zm2.945-22.735c1.132 0 2.265 0 2.944.227.906.227 1.36.455 2.038.91.453.454.906.908.906 1.59.227.683.227 1.593.227 2.503v1.136l-6.568.454c-3.397.227-5.889 1.137-7.474 2.501-1.586 1.365-2.265 3.183-2.265 5.91 0 2.275.679 4.094 1.812 5.23 1.132 1.137 2.944 1.819 5.435 1.819 3.172 0 6.116-1.137 8.833-3.411h.68l.679 3.41h5.21V23.579c0-2.956-.906-5.23-2.719-6.594-1.811-1.364-4.756-2.046-8.606-2.046-2.944 0-6.115.228-9.738.909l.453 4.547 4.076-.682c1.585-.227 2.944-.227 4.077-.227Zm0 17.96c-2.492 0-3.625-1.136-3.625-3.637 0-1.364.453-2.502 1.36-2.955.906-.682 2.265-.909 4.303-1.138l4.53-.454v5.683c-.906.683-1.813 1.137-2.944 1.593-1.586.68-2.719.908-3.624.908Zm5.888-7.73-3.85.456c-1.811.226-3.171.454-4.077 1.136-.679.455-1.133 1.365-1.133 2.729 0 2.045 1.133 3.181 3.172 3.181.905 0 2.038-.226 2.944-.68 1.133-.456 2.038-.91 2.718-1.593v-5.228l.226-.001ZM179.832 14.94h5.661l.454 3.183h.226c2.492-1.364 4.757-2.273 6.569-2.729a13.648 13.648 0 0 1 4.982-.908c2.265 0 4.077.682 5.436 1.817 1.359 1.366 2.039 3.184 2.039 5.457v20.007h-6.796V24.26c0-1.59-.226-2.5-.906-3.183-.452-.682-1.358-.909-2.717-.909-1.133 0-2.265.227-3.624.681-1.359.456-2.717.91-4.303 1.592v19.325h-6.794V14.94h-.227Z"/><path fill="#fff" d="M205.199 41.993h-7.249V24.26c0-1.364-.226-2.5-.678-3.183-.453-.682-1.359-.909-2.492-.909s-2.265.227-3.624.682c-1.359.455-2.717.91-4.077 1.591v19.552h-7.247V14.711h5.888l.453 3.183c2.492-1.137 4.757-2.045 6.342-2.727 1.812-.456 3.398-.91 4.982-.91 2.266 0 4.303.682 5.436 2.046 1.36 1.364 2.039 3.183 2.039 5.684v20.006h.227Zm-6.796-.454h6.343V21.987c0-2.274-.68-4.093-1.813-5.228-1.133-1.138-2.944-1.82-5.209-1.82a13.669 13.669 0 0 0-4.982.908c-1.812.456-3.85 1.365-6.342 2.73h-.68l-.452-3.184h-5.209v26.373h6.341v-19.78h.226c1.586-.681 2.944-1.136 4.304-1.591 1.359-.455 2.717-.682 3.623-.682 1.36 0 2.266.455 2.944 1.137.68.681.906 1.818.906 3.411V41.54ZM223.318 42.222c-8.833 0-13.363-4.546-13.363-13.867 0-9.321 4.53-13.869 13.363-13.869 1.358 0 2.491 0 3.85.227 1.358.228 2.491.228 3.624.682v5.456c-1.133-.226-2.266-.454-3.397-.454-1.133-.227-2.266-.227-3.397-.227-2.492 0-4.304.681-5.436 2.045-1.133 1.365-1.586 3.411-1.586 6.14 0 2.955.453 5.001 1.586 6.364 1.132 1.365 2.944 1.82 5.436 1.82 1.358 0 2.491 0 3.623-.227 1.132 0 2.038-.228 3.171-.455v5.456c-.906.227-2.039.455-3.397.682-1.359.227-2.719.227-4.077.227Z"/><path fill="#fff" d="M223.316 42.448c-9.06 0-13.589-4.774-13.589-14.095 0-9.322 4.529-14.096 13.589-14.096 1.133 0 2.492 0 3.85.228 1.36.226 2.493.226 3.624.682h.227v5.91h-.227c-1.131-.226-2.264-.454-3.397-.454-1.133-.228-2.264-.228-3.397-.228-2.491 0-4.303.682-5.21 1.819-1.131 1.137-1.584 3.183-1.584 6.14 0 2.727.453 5 1.584 6.136 1.133 1.138 2.719 1.82 5.21 1.82 1.359 0 2.491 0 3.624-.228 1.132 0 2.039-.226 3.17-.454h.227v5.911h-.227c-.905.227-2.038.455-3.397.681-1.359.228-2.717.228-4.077.228Zm0-27.737c-8.833 0-13.136 4.548-13.136 13.642 0 9.093 4.303 13.64 13.136 13.64 1.36 0 2.718 0 4.077-.227 1.133-.227 2.266-.227 3.17-.454V36.31c-1.131.228-2.037.454-2.943.454-1.133 0-2.265.228-3.624.228-2.491 0-4.53-.682-5.663-2.046-1.131-1.365-1.584-3.411-1.584-6.366 0-2.955.679-5.002 1.811-6.366 1.133-1.363 2.945-2.045 5.662-2.045 1.133 0 2.265 0 3.398.226 1.132 0 2.265.228 3.17.456v-5.23c-.905-.228-2.038-.454-3.397-.454-1.585-.228-2.717-.456-4.077-.456ZM242.116 41.993c-2.49 0-4.303-.682-5.661-1.818-1.359-1.365-1.812-3.183-1.812-5.458 0-2.727.906-4.546 2.49-5.91 1.586-1.364 4.077-2.273 7.702-2.502l6.341-.453v-.91c0-.909 0-1.819-.226-2.5-.227-.683-.453-1.137-.907-1.592-.453-.455-1.131-.682-1.811-.91-.679-.228-1.812-.228-2.945-.228-1.132 0-2.491 0-3.85.228-1.358.228-2.944.455-4.304.682l-.451-5.001a53.986 53.986 0 0 1 9.964-.909c4.077 0 7.021.68 8.834 2.273 1.812 1.364 2.943 3.637 2.943 6.82v18.187h-5.661l-.68-3.41h-.453c-3.397 2.275-6.342 3.411-9.513 3.411Zm2.719-4.775c.905 0 2.038-.226 3.171-.68 1.132-.456 2.037-.91 2.944-1.593V29.49l-4.304.454c-2.037.228-3.397.455-4.076 1.137-.68.682-1.133 1.592-1.133 2.956 0 2.046 1.133 3.182 3.398 3.182Z"/><path fill="#fff" d="M242.116 42.22c-2.492 0-4.53-.682-5.663-2.046-1.359-1.364-2.039-3.183-2.039-5.684 0-2.729.906-4.775 2.492-6.138 1.585-1.364 4.304-2.274 7.701-2.502l6.114-.455v-.682c0-.908 0-1.817-.225-2.5-.227-.681-.453-1.137-.906-1.364-.454-.455-.907-.682-1.813-.682-1.585-.228-3.85-.228-6.794 0-1.359.227-2.944.455-4.303.682h-.227L236 15.392h.227a53.983 53.983 0 0 1 9.965-.909c4.077 0 7.021.683 9.059 2.273 2.039 1.593 2.945 3.866 2.945 7.049v18.414h-6.116l-.679-3.41h-.227c-2.944 2.274-5.888 3.41-9.058 3.41Zm2.944-22.735c1.132 0 2.264 0 2.944.227.906.227 1.359.455 2.039.91.453.454.905.908.905 1.59.226.683.226 1.593.226 2.503v1.136l-6.567.454c-3.397.227-5.89 1.137-7.474 2.501-1.586 1.364-2.266 3.183-2.266 5.91 0 2.275.68 4.093 1.813 5.23 1.132 1.137 2.944 1.819 5.436 1.819 3.17 0 6.114-1.137 8.832-3.411h.679l.68 3.41h5.21V23.579c0-2.956-.907-5.23-2.719-6.594-1.811-1.364-4.755-2.046-8.606-2.046-2.945 0-6.115.228-9.739.909l.453 4.547 4.077-.682c1.585-.227 2.717-.227 4.077-.227Zm-.227 17.96c-2.491 0-3.624-1.136-3.624-3.637 0-1.364.454-2.502 1.359-2.955.906-.683 2.265-.909 4.303-1.138l4.53-.454v5.683c-.905.683-1.811 1.137-2.944 1.592-1.586.681-2.491.91-3.624.91Zm5.888-7.73-3.85.456c-1.811.226-3.171.454-4.077 1.136-.678.454-1.131 1.364-1.131 2.729 0 2.045 1.131 3.181 3.17 3.181.906 0 2.038-.226 2.944-.68 1.133-.456 2.039-.91 2.719-1.593v-5.228l.225-.001ZM264.314 1.753h6.795v40.013h-6.795V1.753Z"/><path fill="#fff" d="M271.333 41.992h-7.249V1.523h7.249v40.47Zm-6.796-.454h6.342V1.978h-6.342v39.56ZM283.566 41.993c-2.491 0-4.304-.682-5.662-1.818-1.359-1.365-1.812-3.183-1.812-5.458 0-2.727.906-4.546 2.491-5.91 1.586-1.364 4.076-2.273 7.7-2.502l6.342-.453v-.91c0-.909 0-1.819-.226-2.501-.227-.682-.453-1.136-.906-1.59-.453-.456-1.133-.683-1.812-.91-.679-.229-1.812-.229-2.945-.229-1.131 0-2.491 0-3.85.228-1.358.228-2.944.455-4.303.682l-.453-5.001a54.017 54.017 0 0 1 9.966-.909c4.076 0 7.02.68 8.833 2.273 1.811 1.364 2.944 3.637 2.944 6.82v18.187h-5.663l-.678-3.41h-.453c-3.398 2.275-6.343 3.411-9.513 3.411Zm2.717-4.775c.906 0 2.039-.226 3.172-.68 1.131-.456 2.038-.91 2.944-1.593V29.49l-4.303.454c-2.039.228-3.398.455-4.077 1.137-.68.682-1.133 1.592-1.133 2.956 0 2.046 1.133 3.182 3.397 3.182Z"/><path fill="#fff" d="M283.562 42.22c-2.491 0-4.529-.682-5.662-2.046-1.359-1.364-2.039-3.183-2.039-5.684 0-2.729.907-4.775 2.492-6.138 1.585-1.364 4.304-2.274 7.701-2.502l6.114-.455v-.682c0-.908 0-1.817-.226-2.5-.227-.681-.452-1.137-.905-1.364-.453-.455-.906-.682-1.813-.682-1.585-.228-3.85-.228-6.794 0-1.359.227-2.945.455-4.303.682h-.227l-.453-5.457h.227a53.989 53.989 0 0 1 9.965-.909c4.076 0 7.022.683 9.059 2.273 2.039 1.593 2.946 3.866 2.946 7.049v18.414h-6.116l-.68-3.41h-.226c-2.718 2.274-5.888 3.41-9.06 3.41Zm2.945-22.735c1.132 0 2.264 0 2.944.227.906.227 1.359.455 2.039.91.452.454.905.908.905 1.59.227.683.227 1.593.227 2.503v1.136l-6.568.454c-3.397.227-5.889 1.137-7.474 2.501-1.586 1.365-2.266 3.183-2.266 5.91 0 2.275.68 4.094 1.813 5.23 1.133 1.137 2.944 1.819 5.435 1.819 3.172 0 6.116-1.137 8.833-3.411h.68l.679 3.41h5.21V23.579c0-2.956-.906-5.23-2.719-6.594-1.811-1.364-4.755-2.046-8.606-2.046-2.944 0-6.115.228-9.739.909l.453 4.547 4.077-.682c1.585-.227 2.944-.227 4.077-.227Zm-.227 17.96c-2.492 0-3.623-1.136-3.623-3.637 0-1.364.453-2.502 1.358-2.955.906-.682 2.265-.909 4.303-1.138l4.53-.454v5.683c-.906.683-1.811 1.137-2.944 1.593-1.359.68-2.491.908-3.624.908Zm5.888-7.73-3.85.456c-1.811.226-3.17.454-4.077 1.136-.679.455-1.131 1.365-1.131 2.729 0 2.045 1.131 3.181 3.17 3.181.907 0 2.038-.226 2.944-.68 1.133-.456 2.039-.91 2.718-1.593v-5.228l.226-.001Z"/><path fill="url(#b)" d="M69.305 59.044c-10.42-.682-16.534-7.048-16.76-17.505.226-10.458 6.34-16.824 16.76-17.506 6.794-.456 11.776-5.458 11.55-12.05C80.63 5.845 75.645.615 69.303.615c-6.34 0-12.002 4.775-11.55 11.368.453 8.184-3.17 12.958-10.418 15.46-7.247 2.727-14.041 1.137-19.93-3.638-2.945-2.273-4.078-5.684-4.078-9.321 0-2.273-.226-4.548-.906-6.593-1.81-5.003-7.7-7.958-13.362-6.821C3.622 2.434-.227 7.663 0 13.12c.454 5.912 5.21 10.686 11.325 10.914 7.02.454 12.683 3.183 15.854 9.775 1.36 2.503 1.812 5.229 1.812 7.73 0 2.502-.68 5.229-1.812 7.731-3.17 6.592-8.834 9.32-15.854 9.775-6.115.454-10.871 5-11.098 11.138-.453 5.456 3.623 10.685 8.833 11.822 5.662 1.364 11.551-1.591 13.589-7.275.68-2.046.68-4.32.906-6.594 0-3.637 1.133-7.048 4.077-9.32 5.888-4.775 12.683-6.367 19.93-3.638 7.021 2.729 10.645 7.502 10.42 15.46-.228 6.593 5.208 11.367 11.55 11.367 6.341 0 11.324-5.002 11.55-11.368 0-6.137-4.982-11.366-11.776-11.593Z"/><path fill="#fff" d="M40.541 59.042c-6.341 0-11.55 5.23-11.55 11.596s5.436 11.822 12.003 11.595c6.341 0 11.552-5.23 11.324-11.823-.226-6.366-5.436-11.594-11.777-11.367ZM11.777 29.717C5.21 29.717 0 34.945 0 41.54c0 6.594 5.21 11.822 11.777 11.822 6.342 0 11.552-5.228 11.552-11.594-.228-6.822-5.21-12.05-11.552-12.05Zm69.304 11.368c-.227-6.366-5.663-11.368-12.004-11.368-6.342.228-11.324 5.456-11.324 11.822 0 6.366 4.982 11.596 11.324 11.822 6.341.228 11.55-5.002 12.004-11.367v-.91ZM40.54 24.033c6.34 0 11.55-5.001 11.55-11.595C52.09 6.072 47.108.844 40.767.844c-6.569 0-12.005 5.228-12.005 11.594s5.436 11.595 11.779 11.595ZM122.528 74.049c-.905 1.137-2.265 2.046-3.85 2.728-1.585.682-3.397.909-5.435.909-2.039 0-4.076-.455-5.662-1.363a9.619 9.619 0 0 1-3.851-4.093c-.906-1.818-1.359-3.865-1.359-6.366v-2.045c0-3.866.906-6.822 2.719-8.867 1.811-2.047 4.303-3.183 7.7-3.183 2.718 0 4.982.682 6.794 2.046 1.586 1.363 2.718 3.411 2.944 6.137h-4.303c-.453-2.954-2.266-4.546-5.208-4.546-2.039 0-3.399.682-4.531 2.047-1.132 1.364-1.585 3.41-1.585 6.138v2.046c0 2.728.68 4.774 1.812 6.366 1.133 1.591 2.718 2.273 4.756 2.273 2.265 0 3.851-.454 4.756-1.59v-5.002h-5.208v-3.411h9.511v9.776Zm16.08 3.182c-.227-.455-.454-.908-.454-1.818-1.359 1.363-2.943 2.045-4.982 2.045-1.812 0-3.398-.454-4.53-1.59-1.358-.91-1.812-2.275-1.812-3.866 0-2.046.68-3.637 2.265-4.547 1.586-1.137 3.623-1.591 6.342-1.591h2.491v-1.365c0-.908-.227-1.818-.906-2.272-.453-.683-1.358-.91-2.491-.91-.906 0-1.813.227-2.266.682-.678.454-.905 1.136-.905 1.818h-4.303c0-1.136.453-2.046 1.132-2.955.679-.909 1.585-1.592 2.718-2.046 1.132-.455 2.491-.683 3.85-.683 2.265 0 3.851.455 5.209 1.593 1.359 1.136 2.039 2.727 2.039 4.773v8.413c0 1.59.226 2.955.679 4.092v.227h-4.076Zm-4.757-2.956c.906 0 1.586-.227 2.264-.68.68-.457 1.36-.91 1.586-1.593v-3.637h-2.264c-1.586 0-2.719.226-3.625.908-.678.456-1.131 1.365-1.131 2.275 0 .908.226 1.364.906 2.046.678.455 1.358.681 2.264.681Zm16.987-15.914.226 2.047c1.36-1.592 3.172-2.275 5.437-2.275 2.49 0 4.303.91 5.209 2.956 1.358-1.818 3.171-2.956 5.662-2.956 2.039 0 3.623.683 4.529 1.82.907 1.136 1.586 2.728 1.586 5v12.278h-4.303V64.954c0-1.137-.227-2.047-.68-2.727-.453-.456-1.359-.91-2.491-.91-.906 0-1.812.227-2.265.682-.68.454-1.132 1.136-1.358 2.046v12.959h-4.304V64.727c0-2.274-1.132-3.41-3.398-3.41-1.585 0-2.944.682-3.624 2.046v13.64h-4.303v-18.87h4.077v.228Zm27.18-4.773c0-.683.227-1.137.68-1.591.453-.456.905-.682 1.811-.682.68 0 1.36.226 1.813.682.453.454.679.908.679 1.59 0 .683-.226 1.137-.679 1.593-.453.454-.907.68-1.813.68-.679 0-1.358-.226-1.811-.68-.453-.456-.68-.91-.68-1.593Zm4.53 23.643h-4.303v-18.87h4.303v18.87Zm8.835-18.87.226 2.273c1.358-1.59 3.171-2.5 5.435-2.5 3.85 0 5.889 2.274 5.889 6.821v12.503h-4.303V65.182c0-1.137-.227-2.047-.68-2.729-.453-.682-1.359-.909-2.491-.909-1.585 0-2.945.683-3.85 2.273v13.414h-4.303v-18.87h4.077Zm15.397 9.323c0-2.955.679-5.228 2.039-7.048 1.358-1.818 3.17-2.728 5.435-2.728 2.039 0 3.85.681 4.983 2.273l.226-1.818h3.85v18.186c0 2.502-.679 4.32-2.264 5.913-1.586 1.363-3.624 2.045-6.116 2.045-1.358 0-2.717-.227-4.076-.908-1.359-.683-2.265-1.365-2.944-2.275l2.037-2.5c1.36 1.592 2.946 2.273 4.757 2.273a5.546 5.546 0 0 0 3.397-1.137c.906-.682 1.133-1.817 1.133-3.41v-1.364c-1.133 1.365-2.718 2.047-4.757 2.047-2.264 0-4.077-.909-5.435-2.729-1.586-1.364-2.265-3.636-2.265-6.82Zm4.303.454c0 1.819.453 3.41 1.133 4.547.68 1.137 1.811 1.591 3.17 1.591 1.586 0 2.944-.68 3.851-2.273V63.82c-.907-1.365-2.038-2.047-3.851-2.047-1.359 0-2.49.456-3.17 1.592-.68.909-1.133 2.501-1.133 4.774Z"/></g><defs><linearGradient id="b" x1="3.445" x2="77.814" y1="4.345" y2="78.433" gradientUnits="userSpaceOnUse"><stop offset=".018" stop-color="#FFCE00"/><stop offset=".437" stop-color="#FF1C03"/><stop offset="1" stop-color="#DE0021"/></linearGradient><clipPath id="a"><path fill="#fff" d="M0 0h300v84.647H0z"/></clipPath></defs></svg>