<svg width="41" height="40" viewBox="0 0 41 40" fill="none" xmlns="http://www.w3.org/2000/svg">
<g clip-path="url(#clip0_6015_61506)">
<rect x="10.2812" y="-13" width="58.6983" height="15.3046" transform="rotate(42.202 10.2812 -13)" fill="#FFF0F0"/>
<path d="M16.2227 8.16638L20.7906 3.12907L22.2203 4.42554L21.4398 8.01052L21.0418 9.28304L23.9167 5.96384L25.2649 7.18641L20.697 12.2237L19.2673 10.9273L20.0546 7.33487L20.4465 6.08388L17.5784 9.39568L16.2227 8.16638ZM21.5182 12.9683L26.086 7.931L29.7677 11.2696L28.8004 12.3363L26.4743 10.227L25.675 11.1086L27.7047 12.9491L26.7643 13.9862L24.7345 12.1456L23.8411 13.1309L26.1672 15.2402L25.1998 16.3069L21.5182 12.9683ZM30.251 20.8873L31.909 17.5851L32.3138 16.8857L31.6572 17.3567L28.5398 19.3356L27.0434 17.9787L30.1519 11.618L31.5965 12.9279L29.4708 16.6565L29.0069 17.4508L29.7597 16.9185L33.4336 14.5938L34.567 15.6216L32.6043 19.498L32.1418 20.3206L32.8932 19.76L36.3967 17.2808L37.7672 18.5235L31.74 22.2375L30.251 20.8873Z" fill="#FF0068"/>
</g>
<defs>
<clipPath id="clip0_6015_61506">
<rect width="41" height="40" fill="white"/>
</clipPath>
</defs>
</svg>
