<svg xmlns="http://www.w3.org/2000/svg" width="174" height="50" fill="rgba(255, 255, 255, 0.2)" viewBox="0 0 174 50"><path  d="M61.664 10.084c-.623 0-1.186-.14-1.69-.42a3.373 3.373 0 0 1-1.19-1.157 3.17 3.17 0 0 1-.435-1.641c0-.602.145-1.14.436-1.616.29-.483.686-.865 1.19-1.144a3.313 3.313 0 0 1 1.676-.433c.632 0 1.195.144 1.69.433.503.28.9.661 1.19 1.144.29.475.435 1.014.435 1.616a3.17 3.17 0 0 1-.435 1.64c-.29.484-.687.87-1.19 1.158-.495.28-1.054.42-1.677.42Zm-.013-1.552c.316 0 .593-.068.832-.203.248-.144.435-.34.563-.585a1.8 1.8 0 0 0 .205-.865c0-.323-.068-.607-.205-.853a1.458 1.458 0 0 0-.563-.572 1.578 1.578 0 0 0-.832-.216c-.307 0-.58.072-.819.216a1.458 1.458 0 0 0-.563.572c-.136.246-.205.53-.205.853 0 .322.069.61.205.865.137.246.324.44.563.585.24.135.512.203.82.203Z"/><path  fill-rule="evenodd" d="M72.086 9.957h-1.664v-.558c-.162.159-.35.294-.563.405-.358.187-.76.28-1.203.28-.571 0-1.083-.14-1.535-.42a3.029 3.029 0 0 1-1.076-1.144 3.426 3.426 0 0 1-.383-1.629c0-.61.127-1.157.383-1.64a3.064 3.064 0 0 1 1.063-1.145c.452-.28.968-.42 1.548-.42.444 0 .84.089 1.19.267.214.106.402.238.564.395V3.054c0-.92.75-1.666 1.676-1.666v8.569Zm-2.33-1.616c-.23.136-.502.204-.818.204-.299 0-.568-.068-.806-.204a1.55 1.55 0 0 1-.564-.585 1.927 1.927 0 0 1-.192-.877c0-.323.064-.607.192-.853.137-.246.32-.44.55-.585.24-.144.517-.216.833-.216.307 0 .576.072.806.216.239.136.422.33.55.585.137.246.205.53.205.853 0 .33-.068.623-.205.877a1.457 1.457 0 0 1-.55.585ZM74.632 9.664c.452.28.96.42 1.523.42.443 0 .84-.089 1.19-.267.232-.124.433-.276.601-.456v.596h1.664V3.813h-1.664v.59a2.121 2.121 0 0 0-.601-.45 2.586 2.586 0 0 0-1.19-.267c-.564 0-1.071.14-1.523.42-.453.28-.807.661-1.063 1.144-.256.484-.384 1.03-.384 1.641 0 .602.128 1.145.384 1.629.256.483.61.865 1.063 1.144ZM77.6 8.087c-.29.305-.67.458-1.14.458a1.63 1.63 0 0 1-.818-.204 1.583 1.583 0 0 1-.55-.585 1.927 1.927 0 0 1-.193-.877c0-.323.064-.607.192-.853.137-.254.32-.45.55-.585.24-.144.513-.216.82-.216.316 0 .588.072.819.216.239.136.422.331.55.585.137.246.205.53.205.853 0 .491-.145.894-.435 1.208Z" clip-rule="evenodd"/><path  d="M55.732 8.29c0 .92.75 1.667 1.676 1.667V6.065c0-.416-.102-.802-.307-1.158a2.388 2.388 0 0 0-.844-.878 2.21 2.21 0 0 0-1.216-.343c-.47 0-.892.102-1.267.305-.197.11-.372.242-.525.398v-.576h-1.677v4.478c0 .92.75 1.666 1.677 1.666V6.433c0-.246.051-.462.154-.648.11-.187.26-.331.447-.433.188-.102.401-.152.64-.152.367 0 .666.114.896.343.23.229.346.526.346.89v1.858Z"/><path  fill-rule="evenodd" d="M15.654 3.661h-3.691c-.713 0-1.651-.001-2.472.112-1.017.141-2.521.531-3.806 1.853C4.4 6.95 4.021 8.497 3.885 9.544c-.11.845-.11 1.81-.11 2.544v3.843h4.693v-3.68c0-1.773 0-2.659.535-3.21.535-.55 1.396-.55 3.117-.55h3.534v-4.83Zm25.224 12.27v-3.68c0-1.773 0-2.659-.535-3.21-.535-.55-1.396-.55-3.117-.55h-3.582v-4.83h3.739c.713 0 1.651-.001 2.472.112 1.017.141 2.522.531 3.806 1.853 1.285 1.323 1.664 2.871 1.8 3.918.111.845.11 1.81.11 2.544v3.843h-4.693Zm-7.234 25.45h3.582c1.721 0 2.582 0 3.117-.55.535-.551.535-1.437.535-3.209v-3.7h4.692V37.784c.001.734.002 1.699-.108 2.544-.137 1.047-.516 2.595-1.8 3.918-1.285 1.322-2.79 1.712-3.807 1.853-.819.113-1.755.113-2.467.112H33.644v-4.83ZM8.468 33.92v3.701c0 1.772 0 2.658.535 3.208.535.55 1.396.55 3.117.55h3.534v4.83H11.958c-.712.002-1.648.002-2.467-.111-1.017-.14-2.521-.531-3.806-1.853-1.285-1.323-1.664-2.87-1.8-3.918-.11-.845-.11-1.81-.11-2.544v-3.862h4.693Z" clip-rule="evenodd"/><path  d="M36.563 18.01c0 2.91-2.317 5.269-5.176 5.269-2.858 0-5.175-2.36-5.175-5.27 0-2.91 2.317-5.269 5.175-5.269 2.859 0 5.176 2.36 5.176 5.27ZM31.387 26.967c-2.858 0-5.175 2.359-5.175 5.269v4.742h10.351v-4.742c0-2.91-2.317-5.27-5.176-5.27Z"/><path  d="M12.783 32.127c0-2.765 2.201-5.006 4.917-5.006h4.917v10.012H17.7c-2.716 0-4.917-2.242-4.917-5.006ZM12.783 12.894h5.693c2.287 0 4.14 1.887 4.14 4.215v5.796h-9.833V12.894Z" opacity=".4"/><path  d="M165.229 35.625c1.212 0 2.121.336 2.727 1.008.607.672.91 1.64.91 2.906v6.76h-3.934v-6.286c0-.448-.119-.804-.356-1.067-.224-.277-.547-.415-.968-.415-.488 0-.883.158-1.186.474a1.618 1.618 0 0 0-.455 1.166V46.3h-3.934V35.862h3.222l.257 1.582a4.403 4.403 0 0 1 1.601-1.325 4.752 4.752 0 0 1 2.116-.494ZM150.64 35.625c1.832 0 3.269.468 4.31 1.403 1.054.923 1.581 2.274 1.581 4.053s-.527 3.136-1.581 4.072c-1.041.922-2.478 1.383-4.31 1.383-1.831 0-3.268-.46-4.309-1.383-1.041-.923-1.561-2.28-1.561-4.072 0-1.793.52-3.15 1.561-4.072 1.041-.923 2.478-1.384 4.309-1.384Zm0 2.669c-1.291 0-1.937.744-1.937 2.233v1.127c0 1.476.646 2.214 1.937 2.214 1.305 0 1.957-.738 1.957-2.214v-1.127c0-1.489-.652-2.233-1.957-2.233ZM139.195 34.637v-2.669h3.934v2.669h-3.934Zm0 11.662V35.862h3.934V46.3h-3.934ZM137.627 35.862v2.669h-2.214v3.973c0 .474.079.824.237 1.048.158.21.448.316.87.316h1.107v2.313a6.76 6.76 0 0 1-1.226.257c-.5.066-.935.098-1.304.098-1.16 0-2.056-.21-2.689-.632-.619-.422-.929-1.14-.929-2.155v-5.218h-1.462v-2.669h1.62l.85-3.163h2.926v3.163h2.214ZM123.367 35.625c1.595 0 2.893.27 3.894.81 1.002.528 1.502 1.39 1.502 2.59v4.072c0 .224.053.408.159.553.105.145.263.218.474.218h.712v2.273c-.04.026-.145.073-.317.139a5.07 5.07 0 0 1-.691.158 4.977 4.977 0 0 1-1.048.098c-.764 0-1.397-.112-1.898-.336-.487-.237-.823-.56-1.008-.968a6.374 6.374 0 0 1-1.68.949c-.619.237-1.344.355-2.175.355-2.451 0-3.676-.975-3.676-2.925 0-1.015.27-1.786.81-2.313.554-.54 1.344-.91 2.372-1.107 1.028-.198 2.372-.296 4.033-.296v-.514c0-.409-.145-.718-.435-.93-.277-.21-.639-.316-1.087-.316-.409 0-.765.073-1.068.218-.29.145-.435.375-.435.692v.079h-3.874a1.505 1.505 0 0 1-.02-.277c0-.988.468-1.772 1.404-2.352.949-.58 2.299-.87 4.052-.87Zm1.463 6.128c-1.12 0-1.951.125-2.491.375-.527.238-.791.56-.791.969 0 .659.449.988 1.345.988.514 0 .962-.138 1.344-.415.395-.276.593-.62.593-1.028v-.89ZM110.815 35.625c1.713 0 3.097.369 4.151 1.107 1.068.725 1.601 1.838 1.601 3.34h-3.815c0-1.185-.645-1.779-1.937-1.779-1.291 0-1.937.745-1.937 2.234v1.127c0 1.476.672 2.214 2.016 2.214 1.344 0 2.016-.606 2.016-1.819h3.657c0 1.516-.533 2.642-1.601 3.38-1.054.738-2.438 1.107-4.151 1.107-1.832 0-3.268-.46-4.309-1.383-1.041-.923-1.562-2.28-1.562-4.072 0-1.793.521-3.15 1.562-4.072 1.041-.923 2.477-1.384 4.309-1.384ZM96.76 31.73c.264 0 .587.04.97.12.382.065.691.144.928.237v2.312h-.711c-.422 0-.705.08-.85.238-.145.158-.218.428-.218.81v.415h1.78v2.669h-1.78v7.768h-3.933v-7.768h-1.344v-2.669h1.344v-.435c0-1.344.33-2.293.988-2.846.659-.567 1.601-.85 2.827-.85Zm2.729 2.907v-2.669h3.933v2.669h-3.933Zm0 11.662V35.862h3.933V46.3h-3.933ZM86.58 34.637v-2.669h3.934v2.669h-3.933Zm0 11.662V35.862h3.934V46.3h-3.933ZM84.4 35.605c.303 0 .573.04.81.119.237.066.356.105.356.118v3.302H84.3c-.817 0-1.41.21-1.78.632-.355.422-.533 1.048-.533 1.878v4.645h-3.934V35.862h3.222l.257 1.582c.237-.607.613-1.061 1.127-1.364a3.251 3.251 0 0 1 1.74-.475ZM70.661 35.625c1.911 0 3.367.448 4.369 1.344 1.015.896 1.522 2.267 1.522 4.112v.672h-7.828c0 .751.165 1.318.494 1.7.343.382.877.573 1.602.573.659 0 1.14-.138 1.443-.415.316-.277.474-.646.474-1.107h3.815c0 1.265-.481 2.253-1.443 2.965-.962.712-2.365 1.067-4.21 1.067-1.938 0-3.44-.448-4.507-1.344-1.068-.909-1.601-2.28-1.601-4.111 0-1.793.52-3.15 1.561-4.072 1.041-.923 2.478-1.384 4.31-1.384Zm.159 2.51c-1.24 0-1.931.587-2.076 1.76h3.835c0-.54-.158-.969-.475-1.285-.303-.316-.731-.475-1.284-.475ZM55.252 46.3 50.43 32.7h4.665l2.728 9.092h.079l2.748-9.093h4.467l-4.803 13.6h-5.06ZM127.073 27.703c-.541 1.463-1.206 2.57-1.997 3.321-.777.765-1.871 1.147-3.281 1.147-.857 0-1.614-.119-2.273-.356v-2.352h1.581c.988 0 1.575-.481 1.759-1.443l-4.151-10.437h4.23l1.997 6.938h.138l1.839-6.938h3.874l-3.716 10.12ZM118.467 17.583v2.668h-2.214v3.973c0 .475.08.824.238 1.048.158.21.448.316.869.316h1.107v2.313a6.748 6.748 0 0 1-1.225.257c-.501.066-.936.099-1.305.099-1.159 0-2.056-.211-2.688-.633-.619-.421-.929-1.14-.929-2.154V20.25h-1.463v-2.668h1.621l.85-3.163h2.925v3.163h2.214ZM105.46 16.357v-2.668h3.934v2.668h-3.934Zm0 11.663V17.583h3.934V28.02h-3.934ZM103.892 17.583v2.668h-2.214v3.973c0 .475.079.824.237 1.048.159.21.449.316.87.316h1.107v2.313a6.766 6.766 0 0 1-1.225.257c-.501.066-.936.099-1.305.099-1.16 0-2.056-.211-2.688-.633-.62-.421-.93-1.14-.93-2.154V20.25h-1.462v-2.668h1.62l.85-3.163h2.926v3.163h2.214ZM91.34 17.345c1.213 0 2.122.336 2.728 1.009.606.672.91 1.64.91 2.905v6.76h-3.934v-6.285c0-.448-.119-.804-.356-1.068-.224-.276-.547-.415-.969-.415-.487 0-.883.158-1.186.475a1.621 1.621 0 0 0-.454 1.166v6.128h-3.934V17.583h3.222l.257 1.581a4.392 4.392 0 0 1 1.601-1.324 4.745 4.745 0 0 1 2.115-.495ZM76.752 17.345c1.911 0 3.367.449 4.369 1.345 1.014.896 1.522 2.266 1.522 4.111v.672h-7.828c0 .751.165 1.318.494 1.7.343.382.877.574 1.601.574.66 0 1.14-.139 1.443-.416.317-.276.475-.645.475-1.107h3.815c0 1.265-.481 2.254-1.443 2.965-.962.712-2.366 1.068-4.21 1.068-1.938 0-3.44-.448-4.507-1.344-1.068-.91-1.602-2.28-1.602-4.112 0-1.792.52-3.15 1.562-4.072 1.041-.922 2.477-1.384 4.31-1.384Zm.158 2.51c-1.238 0-1.93.587-2.075 1.76h3.835c0-.54-.159-.968-.475-1.285-.303-.316-.731-.474-1.285-.474ZM66.157 28.02l-.336-1.483c-.764 1.147-1.871 1.72-3.32 1.72-1.41 0-2.498-.461-3.262-1.384-.765-.922-1.147-2.286-1.147-4.092 0-1.792.382-3.143 1.147-4.052.764-.922 1.851-1.384 3.261-1.384 1.2 0 2.175.402 2.926 1.206V13.69h3.933v14.33h-3.202Zm-2.431-7.769c-1.133 0-1.7.679-1.7 2.036v1.048c0 1.344.566 2.016 1.7 2.016.58 0 1.014-.204 1.304-.613.29-.408.435-.942.435-1.6v-.653c0-.659-.145-1.193-.435-1.601-.29-.422-.724-.633-1.304-.633ZM51.753 28.02v-13.6h4.369v13.6h-4.369Z"/></svg>
