<svg width="301" height="141" viewBox="0 0 301 141" fill="none" xmlns="http://www.w3.org/2000/svg">
<path d="M122.049 74.1257V15.1697L171.841 40.0524L143.634 54.1424V40.0524C143.634 36.9187 141.095 34.3696 137.948 34.3696C134.813 34.3696 132.263 36.907 132.263 40.0524V63.3331C132.263 65.3092 133.28 67.1216 134.953 68.1623C136.638 69.203 138.72 69.2965 140.487 68.4079L187.085 45.1271C189.015 44.1683 190.22 42.2039 190.22 40.0524C190.22 37.9009 189.003 35.9364 187.085 34.9776L118.902 0.904251C117.136 0.0272766 115.053 0.120821 113.369 1.1498C111.684 2.19048 110.678 4.00289 110.678 5.97901V74.1257C110.678 77.2595 113.216 79.8085 116.363 79.8085C119.511 79.8085 122.049 77.2712 122.049 74.1257Z" fill="#FF002A"/>
<path d="M34.8914 110.678C34.2479 109.158 33.1833 107.883 31.8379 106.971C31.1711 106.515 30.4223 106.153 29.6268 105.907C28.8313 105.662 27.9889 105.533 27.1232 105.533H3.97067C3.04644 105.533 2.14561 105.907 1.49046 106.562C0.835309 107.217 0.460938 108.117 0.460938 109.041V137.104C0.460938 139.045 2.02862 140.612 3.97067 140.612C5.91272 140.612 7.4804 139.045 7.4804 137.104V128.919H27.1349C28.2931 128.919 29.4045 128.685 30.4106 128.253C31.9315 127.61 33.2067 126.545 34.1192 125.201C34.5755 124.534 34.9382 123.786 35.1839 122.991C35.4295 122.196 35.5582 121.354 35.5582 120.489V113.94C35.5582 112.795 35.3243 111.684 34.8914 110.678ZM28.5388 120.5C28.5388 120.699 28.5037 120.874 28.4335 121.05C28.3282 121.295 28.1527 121.518 27.9187 121.67C27.8017 121.751 27.6847 121.81 27.5561 121.845C27.4274 121.88 27.287 121.903 27.1349 121.903H7.4804V112.549H27.1349C27.3338 112.549 27.5093 112.584 27.6847 112.654C27.9304 112.759 28.1527 112.935 28.3048 113.169C28.3867 113.286 28.4452 113.403 28.4803 113.531C28.5154 113.66 28.5388 113.8 28.5388 113.952V120.5Z" fill="white"/>
<path d="M202.891 121.003C202.224 120.547 201.475 120.185 200.68 119.939C199.884 119.693 199.042 119.565 198.176 119.565H177.585C177.387 119.565 177.211 119.53 177.036 119.46C176.79 119.354 176.568 119.179 176.416 118.945C176.334 118.828 176.275 118.711 176.24 118.583C176.205 118.454 176.182 118.314 176.182 118.162V113.952C176.182 113.753 176.217 113.578 176.287 113.403C176.392 113.157 176.568 112.935 176.802 112.783C176.919 112.701 177.036 112.643 177.164 112.607C177.293 112.572 177.433 112.549 177.585 112.549H201.92C203.862 112.549 205.429 110.982 205.429 109.041C205.429 107.1 203.862 105.533 201.92 105.533H177.585C176.427 105.533 175.316 105.767 174.31 106.2C172.789 106.843 171.514 107.907 170.601 109.252C170.145 109.918 169.782 110.666 169.536 111.462C169.291 112.257 169.162 113.099 169.162 113.964V118.173C169.162 119.331 169.396 120.442 169.829 121.447C170.472 122.967 171.537 124.242 172.882 125.154C173.549 125.61 174.298 125.973 175.094 126.218C175.889 126.464 176.731 126.592 177.597 126.592H198.188C198.386 126.592 198.562 126.627 198.737 126.698C198.983 126.803 199.205 126.978 199.358 127.212C199.439 127.329 199.498 127.446 199.533 127.574C199.568 127.703 199.592 127.843 199.592 127.995V132.205C199.592 132.404 199.556 132.579 199.486 132.754C199.381 133 199.205 133.222 198.971 133.374C198.854 133.456 198.737 133.515 198.609 133.55C198.48 133.585 198.34 133.608 198.188 133.608H173.853C171.911 133.608 170.344 135.175 170.344 137.116C170.344 139.057 171.911 140.624 173.853 140.624H198.188C199.346 140.624 200.457 140.39 201.463 139.957C202.984 139.314 204.259 138.25 205.172 136.905C205.628 136.239 205.991 135.491 206.237 134.696C206.482 133.9 206.611 133.058 206.611 132.193V127.984C206.611 126.826 206.377 125.715 205.944 124.71C205.289 123.19 204.236 121.915 202.891 121.003Z" fill="white"/>
<path d="M160.715 106.398C159.253 105.124 157.042 105.276 155.766 106.726L142.02 122.418L128.285 106.726C127.01 105.264 124.787 105.124 123.336 106.398C121.886 107.673 121.734 109.894 123.009 111.344L138.522 129.059V137.092C138.522 139.033 140.09 140.6 142.032 140.6C143.974 140.6 145.541 139.033 145.541 137.092V129.059L161.054 111.344C162.318 109.894 162.166 107.673 160.715 106.398Z" fill="white"/>
<path d="M252.624 110.678C251.98 109.158 250.916 107.883 249.57 106.971C248.903 106.515 248.155 106.153 247.359 105.907C246.564 105.662 245.721 105.533 244.856 105.533H224.265C223.107 105.533 221.996 105.767 220.989 106.2C219.469 106.843 218.193 107.907 217.281 109.252C216.825 109.918 216.462 110.666 216.216 111.462C215.97 112.257 215.842 113.099 215.842 113.964V132.205C215.842 133.363 216.076 134.473 216.509 135.479C217.152 136.999 218.217 138.274 219.562 139.186C220.229 139.642 220.978 140.004 221.773 140.25C222.569 140.495 223.411 140.624 224.277 140.624H244.867C246.025 140.624 247.137 140.39 248.143 139.957C249.664 139.314 250.939 138.25 251.852 136.905C252.308 136.239 252.671 135.491 252.916 134.696C253.162 133.9 253.291 133.058 253.291 132.193V113.952C253.291 112.795 253.045 111.684 252.624 110.678ZM246.271 132.193C246.271 132.392 246.236 132.567 246.166 132.743C246.061 132.988 245.885 133.211 245.651 133.363C245.534 133.444 245.417 133.503 245.288 133.538C245.16 133.573 245.019 133.596 244.867 133.596H224.277C224.078 133.596 223.902 133.561 223.727 133.491C223.481 133.386 223.259 133.21 223.107 132.977C223.025 132.86 222.967 132.743 222.931 132.614C222.896 132.486 222.873 132.345 222.873 132.193V113.952C222.873 113.753 222.908 113.578 222.978 113.403C223.084 113.157 223.259 112.935 223.493 112.783C223.61 112.701 223.727 112.643 223.856 112.607C223.984 112.572 224.125 112.549 224.277 112.549H244.867C245.066 112.549 245.242 112.584 245.417 112.654C245.663 112.759 245.885 112.935 246.037 113.169C246.119 113.286 246.178 113.403 246.213 113.531C246.248 113.66 246.271 113.8 246.271 113.952V132.193Z" fill="white"/>
<path d="M296.939 105.533C294.997 105.533 293.429 107.1 293.429 109.041V129.095L268.908 106.469C267.879 105.522 266.404 105.276 265.118 105.837C263.842 106.398 263.012 107.65 263.012 109.053V137.116C263.012 139.057 264.579 140.624 266.521 140.624C268.463 140.624 270.031 139.057 270.031 137.116V117.062L294.564 139.688C295.594 140.636 297.068 140.881 298.355 140.32C299.63 139.759 300.461 138.507 300.461 137.104V109.041C300.449 107.1 298.881 105.533 296.939 105.533Z" fill="white"/>
<path d="M72.7614 133.596H51.7031V109.041C51.7031 107.1 50.1354 105.533 48.1933 105.533C46.2513 105.533 44.6836 107.1 44.6836 109.041V137.104C44.6836 138.028 45.058 138.928 45.7131 139.583C46.3683 140.238 47.2691 140.612 48.1933 140.612H72.7614C74.7035 140.612 76.2712 139.045 76.2712 137.104C76.2712 135.163 74.7035 133.596 72.7614 133.596Z" fill="white"/>
<path d="M120.494 140.612C119.289 140.612 118.107 139.992 117.464 138.87L104.115 115.998L90.7664 138.87C89.7954 140.542 87.6427 141.103 85.9697 140.133C84.2968 139.162 83.7352 137.011 84.7062 135.339L101.085 107.275C101.717 106.2 102.863 105.533 104.115 105.533C105.367 105.533 106.513 106.2 107.145 107.275L123.524 135.339C124.495 137.011 123.933 139.162 122.26 140.133C121.71 140.46 121.102 140.612 120.494 140.612Z" fill="white"/>
</svg>
