<svg width="300" height="78" viewBox="0 0 300 78" fill="none" xmlns="http://www.w3.org/2000/svg">
<g clip-path="url(#clip0_8794_260)">
<path d="M264.293 -0.00292969H12.8293C5.77427 -0.00292969 0.00195312 5.58737 0.00195312 12.4171V65.4166C0.00195312 72.2463 5.77427 77.8366 12.8293 77.8366H264.293C271.348 77.8366 277.121 72.2463 277.121 65.4166V12.4171C277.121 5.58737 271.348 -0.00292969 264.293 -0.00292969Z" fill="white"/>
<path d="M291.196 2.94391C286.334 2.94391 282.39 6.88746 282.39 11.7497C282.39 15.3466 284.544 18.4321 287.634 19.8015V38.7219H282.208C281.836 38.7219 281.537 39.0252 281.537 39.3936V44.9362C281.537 45.3089 281.84 45.6079 282.208 45.6079H291.075C292.977 45.6079 294.52 44.0652 294.52 42.1627V19.9012C297.736 18.5881 300.002 15.4333 300.002 11.7454C300.002 6.88313 296.059 2.93958 291.196 2.93958V2.94391ZM291.196 15.1906C289.294 15.1906 287.755 13.6478 287.755 11.7497C287.755 9.85162 289.298 8.30887 291.196 8.30887C293.094 8.30887 294.637 9.85162 294.637 11.7497C294.637 13.6478 293.094 15.1906 291.196 15.1906Z" fill="white"/>
<path d="M182.876 15.8584C182.031 16.9461 180.974 17.8432 179.726 18.5365C178.278 19.3383 176.48 19.7456 174.382 19.7456C172.285 19.7456 170.482 19.3383 169.039 18.5365C167.791 17.8432 166.734 16.9461 165.889 15.8584H153.633C154.634 18.2982 155.991 20.4737 157.672 22.3414C159.614 24.4995 162.027 26.2156 164.849 27.442C167.665 28.6684 170.872 29.2881 174.387 29.2881C177.901 29.2881 181.16 28.6684 183.96 27.442C186.759 26.2156 189.164 24.4995 191.101 22.3414C192.783 20.4737 194.135 18.2982 195.14 15.8584H182.876Z" fill="#FFA502"/>
<path d="M163.301 62.596C162.989 61.1052 162.833 59.5668 162.833 58.0067C162.833 56.0956 163.05 54.2235 163.475 52.4337C163.895 50.67 164.571 49.0796 165.49 47.7058C166.391 46.3537 167.583 45.2617 169.039 44.4556C170.486 43.6539 172.285 43.2466 174.382 43.2466C176.48 43.2466 178.278 43.6539 179.726 44.4556C181.177 45.2617 182.373 46.3537 183.275 47.7058C184.194 49.0839 184.87 50.6743 185.29 52.4337C185.715 54.2192 185.931 56.0956 185.931 58.0067C185.931 59.5668 185.771 61.1052 185.463 62.596H196.765C196.995 61.1095 197.116 59.5798 197.116 58.0067C197.116 54.5919 196.596 51.3764 195.569 48.4512C194.538 45.513 193.038 42.9086 191.101 40.7201C189.16 38.523 186.759 36.7722 183.96 35.5242C181.16 34.2761 177.94 33.6434 174.382 33.6434C170.824 33.6434 167.657 34.2761 164.84 35.5242C162.019 36.7722 159.605 38.523 157.663 40.7201C155.731 42.9129 154.227 45.513 153.196 48.4555C152.168 51.385 151.648 54.6005 151.648 58.011C151.648 59.5841 151.77 61.1139 151.999 62.6003H163.301V62.596Z" fill="#FF6348"/>
<path fill-rule="evenodd" clip-rule="evenodd" d="M80.2324 14.6201C83.7899 14.6202 87.0398 15.2483 89.8564 16.5049C92.6733 17.7616 95.0616 19.4955 97.0117 21.71C98.9618 23.9201 100.457 26.5116 101.501 29.4844C102.541 32.4571 103.062 35.6725 103.062 39.1436C103.062 42.6147 102.541 45.6789 101.501 48.6084C100.461 51.5335 98.9661 54.0818 97.0117 56.2529C95.0616 58.4197 92.6732 60.1224 89.8564 61.3574C87.0355 62.5924 83.829 63.2128 80.2324 63.2129C76.6356 63.2129 73.4762 62.5925 70.6377 61.3574C67.7993 60.1224 65.4027 58.4196 63.4482 56.2529C61.4982 54.0862 60.0034 51.5378 58.959 48.6084C57.9189 45.6832 57.3984 42.5281 57.3984 39.1436C57.3985 35.7591 57.919 32.4571 58.959 29.4844C59.999 26.5159 61.4938 23.9244 63.4482 21.71C65.3983 19.4998 67.7949 17.766 70.6377 16.5049C73.4761 15.2482 76.6747 14.6201 80.2324 14.6201ZM80.2275 23.209C77.9308 23.209 75.9764 23.6556 74.373 24.5439C72.7698 25.4322 71.4698 26.6238 70.4688 28.123C69.472 29.6181 68.7441 31.3218 68.2891 33.2285C67.834 35.1353 67.6035 37.1117 67.6035 39.1484C67.6035 41.185 67.8341 42.9963 68.2891 44.8379C68.7441 46.6797 69.4677 48.3401 70.4688 49.8135C71.4654 51.2866 72.7655 52.4691 74.373 53.3574C75.9764 54.2458 77.9265 54.6924 80.2275 54.6924C82.5286 54.6924 84.4786 54.2458 86.082 53.3574C87.6854 52.4691 88.9863 51.2868 89.9873 49.8135C90.984 48.3401 91.712 46.6797 92.167 44.8379C92.6219 42.9963 92.8515 41.0983 92.8516 39.1484C92.8516 37.1984 92.622 35.1396 92.167 33.2285C91.712 31.3217 90.984 29.6181 89.9873 28.123C88.9906 26.628 87.6897 25.4366 86.082 24.5439C84.4787 23.6557 82.5242 23.209 80.2275 23.209Z" fill="black"/>
<path fill-rule="evenodd" clip-rule="evenodd" d="M36.9746 15.7295C39.878 15.7295 42.3529 16.154 44.3896 16.999C46.4262 17.844 48.0859 18.9621 49.3643 20.3486C50.6427 21.7354 51.5751 23.3175 52.1602 25.0986C52.7451 26.8753 53.039 28.7213 53.0391 30.6279C53.0391 32.5346 52.7451 34.3247 52.1602 36.123C51.5751 37.9215 50.6427 39.5166 49.3643 40.9033C48.0859 42.2899 46.4263 43.4079 44.3896 44.2529C42.3529 45.098 39.8781 45.5225 36.9746 45.5225H26.2451V62.1719H16.0352V15.7295H36.9746ZM26.2402 37.5791H34.1758V37.584C35.3457 37.584 36.4724 37.4966 37.5557 37.3232C38.639 37.1499 39.5927 36.8118 40.416 36.3135C41.2392 35.8152 41.9021 35.1091 42.4004 34.1992C42.8987 33.2892 43.1504 32.0974 43.1504 30.624C43.1504 29.1508 42.8986 27.9593 42.4004 27.0449C41.9021 26.1349 41.2393 25.428 40.416 24.9297C39.5926 24.4313 38.6391 24.0933 37.5557 23.9199C36.4724 23.7466 35.3457 23.6602 34.1758 23.6602H26.2402V37.5791Z" fill="black"/>
<path fill-rule="evenodd" clip-rule="evenodd" d="M130.955 15.7295C133.859 15.7295 136.333 16.154 138.37 16.999C140.407 17.844 142.066 18.9621 143.345 20.3486C144.623 21.7354 145.556 23.3175 146.141 25.0986C146.726 26.8753 147.019 28.7213 147.02 30.6279C147.02 32.5346 146.726 34.3247 146.141 36.123C145.556 37.9215 144.623 39.5166 143.345 40.9033C142.066 42.2899 140.407 43.4079 138.37 44.2529C136.333 45.098 133.859 45.5225 130.955 45.5225H120.226V62.1719H110.016V15.7295H130.955ZM120.226 37.5791H128.16V37.584C129.33 37.584 130.457 37.4965 131.54 37.3232C132.623 37.1499 133.577 36.8118 134.4 36.3135C135.224 35.8151 135.887 35.1093 136.386 34.1992C136.884 33.2892 137.135 32.0974 137.135 30.624C137.135 29.1509 136.884 27.9592 136.386 27.0449C135.887 26.1349 135.224 25.428 134.4 24.9297C133.577 24.4314 132.623 24.0933 131.54 23.9199C130.457 23.7466 129.33 23.6602 128.16 23.6602H120.226V37.5791Z" fill="black"/>
<path d="M214.214 34.9834L232.358 15.7295H245.107L226.963 34.0732L246.867 62.1719H234.053L220.068 41.293L214.214 47.2129V62.1719H204.004V15.7295H214.214V34.9834Z" fill="black"/>
<path d="M261.548 55.0703L260.49 55.3652C260.932 55.6989 261.254 56.11 261.444 56.5996L261.457 56.6172C261.652 57.1069 261.747 57.6013 261.747 58.0996C261.747 58.7321 261.63 59.2996 261.396 59.7979C261.162 60.2962 260.85 60.7207 260.451 61.0674C260.057 61.4139 259.602 61.6827 259.087 61.8604C258.571 62.0423 258.038 62.1338 257.483 62.1338C256.868 62.1338 256.279 62.0469 255.72 61.8779C255.161 61.709 254.675 61.4537 254.255 61.1201C253.835 60.7865 253.501 60.3658 253.254 59.8633C253.003 59.3607 252.881 58.7712 252.881 58.0996C252.881 57.6403 252.933 57.2062 253.041 56.7988C253.149 56.3916 253.314 56.0276 253.544 55.707C253.774 55.3864 254.064 55.118 254.415 54.9014C254.766 54.6847 255.191 54.5374 255.689 54.4551V55.5811C255.364 55.6374 255.087 55.737 254.853 55.8887C254.619 56.0403 254.428 56.2272 254.276 56.4482C254.125 56.6692 254.012 56.9205 253.938 57.2021C253.865 57.4838 253.825 57.7833 253.825 58.0996C253.825 58.615 253.929 59.0527 254.133 59.4209C254.336 59.7893 254.61 60.0883 254.948 60.3223C255.286 60.5562 255.667 60.7296 256.101 60.8379C256.534 60.9506 256.972 61.0029 257.423 61.0029C257.873 61.0029 258.289 60.9381 258.696 60.8125C259.104 60.6868 259.463 60.4999 259.775 60.2529C260.087 60.0059 260.339 59.7068 260.525 59.3428C260.712 58.9832 260.803 58.5673 260.803 58.0908C260.803 57.6488 260.733 57.254 260.59 56.916C260.447 56.5781 260.252 56.2877 260.001 56.0537C259.75 55.8197 259.459 55.6467 259.121 55.5254C258.783 55.4084 258.423 55.3561 258.033 55.3691V58.0732H257.084V54.3594H261.548V55.0703Z" fill="black"/>
<path fill-rule="evenodd" clip-rule="evenodd" d="M261.556 47.1045L259.004 48.0322V51.6162L261.556 52.5645V53.7178L253.084 50.4199V49.167L261.556 45.8564V47.1045ZM254.103 49.7959V49.8174L258.055 51.252V48.3828L254.103 49.7959Z" fill="black"/>
<path d="M261.556 37.6309H254.506V37.6523L261.556 40.3008V41.2627L254.506 43.9102V43.9365H261.556V45.002H253.084V43.4551L260.204 40.7861L253.084 38.1035V36.5605H261.556V37.6309Z" fill="black"/>
<path d="M261.556 34.6367H253.084V33.5098H261.556V34.6367Z" fill="black"/>
<path d="M261.556 26.1084L254.757 30.5371V30.5635H261.556V31.6289H253.084V30.4248L259.957 25.9609V25.9395H253.084V24.873H261.556V26.1084Z" fill="black"/>
<path d="M261.548 16.3926L260.49 16.6875C260.932 17.0212 261.254 17.4322 261.444 17.9219L261.457 17.9395C261.652 18.4291 261.747 18.9235 261.747 19.4219C261.747 20.0544 261.63 20.6219 261.396 21.1201C261.162 21.6185 260.85 22.043 260.451 22.3896C260.057 22.7362 259.602 23.005 259.087 23.1826C258.571 23.3646 258.038 23.456 257.483 23.4561C256.868 23.4561 256.279 23.3691 255.72 23.2002C255.161 23.0312 254.675 22.7759 254.255 22.4424C253.835 22.1088 253.501 21.6881 253.254 21.1855C253.003 20.6829 252.881 20.0934 252.881 19.4219C252.881 18.9625 252.933 18.5284 253.041 18.1211C253.149 17.7139 253.314 17.3499 253.544 17.0293C253.774 16.7087 254.064 16.4403 254.415 16.2236C254.766 16.007 255.191 15.8597 255.689 15.7773V16.9033C255.364 16.9596 255.087 17.0593 254.853 17.2109C254.619 17.3626 254.428 17.5495 254.276 17.7705C254.125 17.9915 254.012 18.2428 253.938 18.5244C253.865 18.8061 253.825 19.1055 253.825 19.4219C253.825 19.9373 253.929 20.375 254.133 20.7432C254.336 21.1115 254.61 21.4105 254.948 21.6445C255.286 21.8785 255.667 22.0518 256.101 22.1602C256.534 22.2728 256.972 22.3252 257.423 22.3252C257.873 22.3252 258.289 22.2603 258.696 22.1348C259.104 22.0091 259.463 21.8222 259.775 21.5752C260.087 21.3282 260.339 21.0291 260.525 20.665C260.712 20.3055 260.803 19.8896 260.803 19.4131C260.803 18.9711 260.733 18.5763 260.59 18.2383C260.447 17.9004 260.252 17.6099 260.001 17.376C259.75 17.142 259.459 16.969 259.121 16.8477C258.783 16.7307 258.423 16.6784 258.033 16.6914V19.3955H257.084V15.6816H261.548V16.3926Z" fill="black"/>
</g>
<defs>
<clipPath id="clip0_8794_260">
<rect width="300" height="77.8396" fill="white"/>
</clipPath>
</defs>
</svg>
