<svg width="571" height="382" viewBox="0 0 571 382" fill="none" xmlns="http://www.w3.org/2000/svg">
<g clip-path="url(#clip0_1120:13)">
<path d="M350.39 117.19V48.58C350.39 28.45 344.26 19.35 337.23 13.16C329.23 6.15999 315.01 0 285.1 0C255.19 0 240.94 6.14999 232.97 13.16C225.97 19.35 219.81 28.45 219.81 48.58V118.58C219.809 125.223 221.182 131.794 223.842 137.881C226.503 143.968 230.394 149.439 235.27 153.95L254.01 171.29C254.448 171.695 254.967 172.004 255.533 172.195C256.098 172.387 256.697 172.457 257.292 172.401C257.886 172.345 258.462 172.165 258.982 171.872C259.502 171.579 259.955 171.18 260.31 170.7L276.19 149.29C276.813 148.448 277.104 147.406 277.006 146.364C276.908 145.321 276.429 144.351 275.66 143.64L262.38 131.35C259.512 128.695 257.225 125.476 255.66 121.895C254.096 118.314 253.289 114.448 253.29 110.54V62.98C253.29 48.57 258.81 42.39 260.91 40.76C263.31 38.89 268.42 34.42 285.1 34.42C301.78 34.42 306.89 38.89 309.29 40.76C311.39 42.39 316.91 48.57 316.91 62.98V107.84C316.912 115.136 314.566 122.239 310.22 128.1L270.63 181.49C270.003 182.33 269.71 183.371 269.806 184.415C269.902 185.458 270.381 186.429 271.15 187.14L285.1 200.05L290.7 205.23L294.38 208.64L298.97 212.89C300.544 214.344 302.608 215.151 304.75 215.15H342.1C342.955 215.148 343.789 214.889 344.495 214.406C345.201 213.923 345.744 213.239 346.056 212.443C346.368 211.647 346.433 210.776 346.243 209.942C346.053 209.109 345.616 208.352 344.99 207.77L315.35 180.36L340.91 145.9C347.065 137.593 350.388 127.529 350.39 117.19Z" fill="#FF7800"/>
<path d="M350.39 117.19V48.58C350.39 28.45 344.26 19.35 337.23 13.16C329.23 6.15999 315.01 0 285.1 0C255.19 0 240.94 6.14999 232.97 13.16C225.97 19.35 219.81 28.45 219.81 48.58V118.58C219.809 125.223 221.182 131.794 223.842 137.881C226.503 143.968 230.394 149.439 235.27 153.95L254.01 171.29C254.448 171.695 254.967 172.004 255.533 172.195C256.098 172.387 256.697 172.457 257.292 172.401C257.886 172.345 258.462 172.165 258.982 171.872C259.502 171.579 259.955 171.18 260.31 170.7L276.19 149.29C276.813 148.448 277.104 147.406 277.006 146.364C276.908 145.321 276.429 144.351 275.66 143.64L262.38 131.35C259.512 128.695 257.225 125.476 255.66 121.895C254.096 118.314 253.289 114.448 253.29 110.54V62.98C253.29 48.57 258.81 42.39 260.91 40.76C263.31 38.89 268.42 34.42 285.1 34.42C301.78 34.42 306.89 38.89 309.29 40.76C311.39 42.39 316.91 48.57 316.91 62.98V107.84C316.912 115.136 314.566 122.239 310.22 128.1L270.63 181.49C270.003 182.33 269.71 183.371 269.806 184.415C269.902 185.458 270.381 186.429 271.15 187.14L285.1 200.05L290.7 205.23L294.38 208.64L298.97 212.89C300.544 214.344 302.608 215.151 304.75 215.15H342.1C342.955 215.148 343.789 214.889 344.495 214.406C345.201 213.923 345.744 213.239 346.056 212.443C346.368 211.647 346.433 210.776 346.243 209.942C346.053 209.109 345.616 208.352 344.99 207.77L315.35 180.36L340.91 145.9C347.065 137.593 350.388 127.529 350.39 117.19Z" fill="#FF7800"/>
<path d="M558.3 282.02V345.82V352.82L524.62 291.69C520.54 284.41 517.73 282.04 512.42 282.04C507.11 282.04 503.36 285.71 503.36 292.99V307.21V371.01H515.26V307.21V300.21L548.94 361.34C553.02 368.62 555.83 370.99 561.14 370.99C566.45 370.99 570.2 367.32 570.2 359.99V345.82V282.02H558.3Z" fill="#FF7800"/>
<path d="M321.04 282.08H304.72L271.88 317.08V282.08H259.97V371.08H271.88V334.53L275.39 330.78L305.6 371.12H321.04L283.62 322L321.04 282.08Z" fill="#FF7800"/>
<path d="M445.1 287.42C438.47 283.05 430.88 282.08 423.4 282.08H401.42V371.08H413.76V339.78H423.35C430.83 339.78 438.42 338.78 445.05 334.44C451.68 330.1 457.15 322.65 457.15 310.91C457.15 299.17 451.63 291.76 445.1 287.42ZM438.78 324.59C435.47 327.2 430.33 328.83 423.4 328.83H413.81V293.07H423.4C430.33 293.07 435.47 294.69 438.78 297.31C440.854 298.928 442.531 300.997 443.685 303.361C444.839 305.724 445.438 308.32 445.438 310.95C445.438 313.58 444.839 316.176 443.685 318.539C442.531 320.903 440.854 322.972 438.78 324.59Z" fill="#FF7800"/>
<path d="M55.2302 360.64C56.7885 358.677 58.1297 356.551 59.2302 354.3C62.4402 347.69 62.4202 340.1 62.4002 335.08V317.56C62.4002 312.56 62.4002 304.95 59.2302 298.34C53.4902 286.62 43.3102 280.76 31.2502 280.76H31.1002C19.0402 280.76 8.86023 286.67 3.18023 298.38C-0.0297673 304.99 -0.00976752 312.58 0.000232477 317.6V335.12C0.000232477 340.12 0.000232697 347.73 3.18023 354.34C8.88023 366.08 19.0802 371.96 31.1802 371.96C35.8696 372.006 40.5108 371.012 44.7702 369.05L54.3502 381.56H71.2102L55.2302 360.64ZM50.4502 335.64C50.4502 339.71 50.5002 345.27 48.4502 349.46C46.3102 353.88 41.1802 360.57 31.1702 360.58C21.1602 360.59 16.0302 353.88 13.8802 349.46C11.7302 345.04 11.8802 338.74 11.8802 334.66V318.03C11.8802 313.96 11.7202 307.65 13.8802 303.23C16.0402 298.81 21.1602 292.12 31.1702 292.12C41.1802 292.12 46.3102 298.81 48.4502 303.23C50.5902 307.65 50.4502 313.96 50.4502 318.03V335.59V335.64Z" fill="#FF7800"/>
<path d="M209.73 296.48C217.88 290.34 227.17 289.71 241.5 293.04V284.81C241.5 284.81 234.4 280.76 223.1 280.76C211.8 280.76 205.26 283.67 200.03 288.33C194.03 293.64 189.47 302.12 188.15 315.33C187.443 322.883 187.443 330.486 188.15 338.04C189.47 351.22 194.07 359.7 200.03 365.04C205.26 369.7 211.75 372.6 223.1 372.6C234.45 372.6 241.46 368.52 241.46 368.52V360.28C227.13 363.62 217.84 362.98 209.69 356.85C201.39 350.6 199.74 338.95 199.69 326.72C199.64 314.49 201.43 302.76 209.73 296.48Z" fill="#FF7800"/>
<path d="M366.49 291.13C372.563 291.377 378.615 292.001 384.61 293V283.41C376.774 281.315 368.663 280.438 360.56 280.81C355.84 280.982 351.15 281.628 346.56 282.74C340.02 284.43 336.38 287.55 334.36 290.61C333.105 292.505 332.309 294.666 332.033 296.922C331.757 299.179 332.009 301.468 332.77 303.61C332.77 303.61 332.82 303.75 332.84 303.79C332.97 304.18 333.12 304.57 333.29 304.97C335.6 310.91 339.1 315.47 344.06 320.84C349.38 326.6 360.41 336.91 365.06 342.45C367.94 346 371.34 350.73 369.65 354.81C367.8 359.28 359.6 362.38 349.93 362.1C343.86 361.814 337.811 361.19 331.81 360.23V369.76C331.81 369.76 339.34 373.08 355.86 372.42C372.38 371.76 378.92 367.34 382.04 362.62C383.606 360.001 384.486 357.029 384.6 353.98V353.73C384.6 353.23 384.58 352.72 384.54 352.2C384.3 347.63 383.36 344.2 377.54 337.47C371 329.94 359.3 318.84 354.02 313.36L352.58 311.84C348.72 307.7 344.49 302.54 346.46 297.62C348.53 292.45 357.74 290.95 366.49 291.13Z" fill="#FF7800"/>
<path d="M171.37 282.07H159.03V371.12H171.37V282.07Z" fill="#FF7800"/>
<path d="M484.79 281.93H472.45V370.98H484.79V281.93Z" fill="#FF7800"/>
<path d="M91.1002 282.08H79.2002V340.43C79.2002 350.87 82.7202 372.48 109.49 372.48C136.26 372.48 139.78 350.87 139.78 340.43V282.08H127.88V340.43C127.88 359.04 115.13 361.43 109.49 361.43C103.85 361.43 91.1002 359.08 91.1002 340.43V282.08Z" fill="#FF7800"/>
</g>
<defs>
<clipPath id="clip0_1120:13">
<rect width="570.2" height="381.52" fill="white"/>
</clipPath>
</defs>
</svg>
