<svg width="13" height="16" viewBox="0 0 13 16" fill="none" xmlns="http://www.w3.org/2000/svg">
<path d="M5.54687 1.33398H8.21354M6.88021 9.33398V6.66732M1.54688 8.66732C1.71012 7.3713 2.34331 6.18026 3.32637 5.32008C4.30943 4.4599 5.57399 3.99041 6.88021 4.00065C7.74291 4.00157 8.59251 4.21175 9.35613 4.61316C10.1197 5.01457 10.7746 5.59523 11.2645 6.30533C11.7544 7.01543 12.0647 7.83378 12.1689 8.69017C12.273 9.54656 12.1679 10.4154 11.8624 11.2222C11.557 12.0291 11.0604 12.7497 10.4152 13.3225C9.77005 13.8952 8.99559 14.3029 8.15825 14.5105C7.32091 14.7182 6.4457 14.7196 5.6077 14.5147C4.76969 14.3098 3.9939 13.9046 3.34687 13.334L1.54688 11.734M4.88021 11.334H1.54688V14.6673" stroke="white" stroke-width="1.5" stroke-linecap="round" stroke-linejoin="round"/>
</svg>
