<svg xmlns="http://www.w3.org/2000/svg" width="300" height="117" fill="none" viewBox="0 0 300 117"><path fill="#fff" fill-rule="evenodd" d="M158.94 77.898c0 2.088 0 2.098-2.137 2.063l-7.517-.13c-4.936-.09-9.867-.178-14.799-.243-2.962-.034-5.93.02-8.893.075-1.058.02-2.072.108-2.058-1.273.079-6.795.119-13.596.114-20.391-.003-5.474-.025-10.948-.047-16.424a5625.2 5625.2 0 0 1-.042-12.325c-.015-8.336-.005-16.678.005-25.014 0-.708-.007-1.422.134-2.118.368-1.76.26-1.978 2.172-1.978l7.084-.022C140.985.096 149.013.073 157.041 0c1.256-.014 1.475.399 1.467 1.512-.07 6.06-.085 12.124-.1 18.189-.029 19.812.532 38.069.532 58.197ZM128.925 17.4c0-1.391.039-2.787.078-4.183.025-.885-.281-1.892.961-1.767 2.725.28 5.47.153 8.202.06 1.123-.035 1.302.382 1.307 1.377.009 6.37.027 12.743.045 19.115v.034c.024 8.294.047 16.59.05 24.885 0 1.218.298 1.586 1.521 1.511 3.389-.2 6.783.188 10.171-.02.815-.055 1.56.243 1.521 1.377-.032.92-.088 1.838-.144 2.757v.003c-.114 1.884-.228 3.771-.144 5.661.032.66-.488.662-.989.642-7.142.111-14.285.069-21.426.208-1.044.02-1.357-.258-1.352-1.327.073-17.02.176-33.367.199-50.333Z" clip-rule="evenodd"/><path fill="#fff" d="M277.316 46.975c.159.445-1.104 1.66-1.076 1.673 1.114.527 2.031.96 1.057 2.246-.089.117-.039.348-.032.526.233 5.701.468 11.403.705 17.105l.002.061c.015.386.027.726.644.658 3.203-.35 6.42-.131 9.631-.177.987-.014 1.297-.234 1.268-1.256-.159-5.529-.272-11.059-.348-16.589-.047-3.403-.328-6.755.759-10.165.82-2.57 1.809-5.08 2.798-7.59 1.459-3.7 2.917-7.4 3.829-11.293.449-1.912 1.349-5.339 2.66-6.955 1.253-1.545.979-2.686-.502-3.814-.908-.692-1.512-.024-2.25-.037-2.418-.043-4.845-.049-7.26-.17-.421-.022-.798-.04-.951.588-.938 3.832-3.813 13.666-4.289 15.997-1.424-5.509-3.895-10.622-5.788-15.942-.219-.614-.645-.63-1.153-.627-2.758.01-5.516-.005-8.274.021-2.061.02-2.496 1.6-1.5 3.27 1.99 3.332 2.929 7.325 4.229 10.978l.006.02h.001c2.112 5.939 4.224 11.879 5.752 18.006l.019.074c.169.675.347 1.386.065 2.026-.225.51-.176.876-.002 1.366ZM206.748 68.088c-.002.715.14 1.016.942 1.008 7.363-.076 14.727-.119 22.091-.15.676-.003.945-.185.928-.91a70.402 70.402 0 0 1 .238-7.874c.122-1.384-.318-1.812-1.725-1.808-1.109.004-2.218.002-3.327 0-2.283-.004-4.566-.008-6.848.037-1.024.02-1.344-.223-1.343-1.303.017-12.48 0-24.963-.071-37.443-.014-2.371-.027-4.742-.009-7.112.006-.787-.144-1.107-1.015-1.06-2.868.152-5.724-.168-8.577-.169-1.356 0-.98.55-.993 1.13a352.02 352.02 0 0 0-.106 7.62c-.025 16.222-.144 31.796-.185 48.034ZM82.085 106.729l.93-2.565-.336 7.684v4.452h3.367v-16.286h-4.407l-4.161 11.812-4.183-11.812H68.91V116.3h3.356v-4.452l-.336-7.673 4.385 12.125h2.304l3.466-9.571Z"/><path fill="#fff" fill-rule="evenodd" d="M80.081 34.492c.005-9.885.01-19.772-.003-29.66-.005-3.782-.04-3.817-3.852-3.772-7.187.093-14.347-.204-21.534-.241C52.12.805 49.55.792 46.98.727c-1.068-.025-1.426.601-1.481 1.456-.156 2.624.61 5.172.383 7.825-.669 7.886-.56 15.827-.388 23.732a272.22 272.22 0 0 1-.224 16.37c-.139 3.122-.328 6.239-.566 9.355-.082.833-.237 1.7-.045 2.526.378 1.604.36 3.231.342 4.86-.02 1.775-.04 3.552.453 5.3.527 1.875.224 3.888.075 5.842-.105 1.337.522 1.924 1.85 1.934.889.005 1.779.07 2.669.064 9.484-.034 18.97-.08 28.454-.283 1.343-.025 1.601-.472 1.596-1.675-.04-14.514-.024-29.028-.017-43.541ZM52.508 67.564c0 .382 0 .695.12.914.129.239.402.368.964.363 3.922-.03 7.845-.04 11.767-.035l7.929.03c.83.005 1.059-.229 1.044-1.049-.05-2.809-.05-5.622 0-8.43.015-.831-.239-1.065-1.06-1.05-1.535.03-3.071.036-4.608.045-1.456.005-2.913.01-4.364.035-.785.013-1.098-.154-1.079-1.02.075-3.745.1-7.493.1-11.24 0-1.093.417-1.61 1.6-1.58 1.147.027 2.294.018 3.441.01 1.533-.012 3.065-.023 4.598.04 1.372.06 1.69-.458 1.64-1.695a139.346 139.346 0 0 1-.075-7.492c.01-.686-.149-.994-.62-1.084-1.274-.272-2.79-.014-4.087-.014-1.709 0-3.417-.014-5.125.02-.905.014-1.139-.274-1.119-1.134.08-3.48.12-6.955.124-10.434 0-.845.224-1.129 1.119-1.109 1.667.03 3.336.027 5.006.024 1.367-.002 2.734-.005 4.101.01.74.006 1.113-.069 1.094-.979a181.49 181.49 0 0 1 .04-8.028c.014-.82-.224-1.059-1.05-1.059-3.55 0-7.097-.023-10.646-.045h-.002a3038.89 3038.89 0 0 0-5.811-.034c-1.079-.005-2.123.377-3.256-.005-1.109-.378-1.546.159-1.536 1.431.122 18.586-.208 36.02-.249 54.594ZM119.025 78.083c.081 2.296-2.501 1.553-4.071 1.544-8.804-.052-17.464.372-26.27.324-.825-.005-1.65-.01-2.474-.004-1.212 0-1.708-.638-1.79-1.66-.352-4.504-.64-9.013-.462-13.532.055-1.436-.606-2.764-.392-4.205.447-3.023.517-6.065.586-9.107.045-1.885.09-3.769.224-5.648.874-12.45-.256-25.02.497-37.507.1-1.704-.312-3.376-.452-5.056-.145-1.77.094-2.56 2.306-2.525 3.784.066 7.57.074 11.355.083 6.615.014 13.209.32 19.819.404.96.015 1.054.338 1.069 1.139.136 7.377.122 14.754.107 22.131-.034 17.848 0 37.715-.052 53.619Zm-27.297-65.37c-.005-1.025.284-1.248 1.268-1.238 6.562.06 13.129.07 19.696.05.964-.006 1.347.213 1.312 1.257-.094 2.674-.104 5.354-.085 8.028.005.731-.248.885-.924.88a377.528 377.528 0 0 0-4.362-.011c-1.628.002-3.256.005-4.885-.024-.869-.015-1.133.22-1.128 1.109.025 3.48-.01 6.96-.084 10.44-.015.854.203 1.143 1.103 1.128 1.357-.029 2.715-.024 4.074-.02 1.5.005 2.999.01 4.496-.03 1.034-.025 1.273.313 1.263 1.288-.031 2.698-.006 5.438.104 8.137l.001.01c.019.65.033 1.098-1.258.955-2.123-.234-4.28-.184-6.433-.134-.845.02-1.69.04-2.535.044-.727 0-1.031.465-1.039 1.129l-.065 6.313-.069 5.593c-.014.735.467.756 1.049.755.812-.004 1.625-.005 2.438-.007 2.09-.004 4.181-.007 6.271-.057.984-.025 1.412.154 1.372 1.282-.094 2.63-.07 5.27-.01 7.9.025.994-.169 1.366-1.287 1.356a1212.797 1212.797 0 0 0-19.293-.005c-1.005.005-1.263-.238-1.258-1.252.094-18.589.36-36.253.268-54.877ZM189.676 11.747c-4.171-1.119-8.402-.905-12.637-.522-2.54 0-5.086.09-7.621-.035-1.357-.065-1.595.398-1.556 1.635.179 5.555.198 11.112.217 16.668v.023c.028 8.407-.356 16.993.146 25.365.194 3.336.12 6.691.045 10.037l-.055 2.938c-.015.964.318 1.203 1.233 1.198 3.435-.015 6.875.005 10.31.094.999.025 1.278-.243 1.268-1.252l-.025-4.047c-.005-4.006.02-8.013-.03-12.02-.015-1.138.403-1.467 1.437-1.501 1.292-.05 2.58-.204 3.867-.309 8.153-.65 12.533-4.404 14.551-12.323 1.16-4.532.574-9.211.02-13.785-.83-6.99-4.922-10.494-11.17-12.164Zm-9.326 13.069c-.05 3.96-.059 7.936 0 11.896.02 1.282.76 1.68 1.829.984 3.018-1.975 6.015-3.981 9.013-5.985.994-.671 1.004-1.308.025-1.964-2.993-2.018-6-4.007-9.023-5.975-1.14-.748-1.834-.336-1.844 1.044ZM258.506 11.703c.708-.023.918.431 1.024 1.048 3.948 18.333 7.829 36.681 11.811 55.006.21.991.14 1.344-.984 1.307-2.315-.065-4.637-.046-6.957-.027h-.006c-1.244.01-2.404.063-2.76-1.414-.639-2.64-1.501-5.22-2.198-7.845-.179-.686-.442-.93-1.163-.934a230.89 230.89 0 0 1-8.297-.224c-.862-.05-1.098.267-1.173 1.084-.242 2.664-.605 5.315-.85 7.979-.075.805-.373 1.009-1.158 1.014-2.764.005-5.538.025-8.297.203-1.139.075-1.263-.268-1.109-1.227.566-3.506 1.105-7.012 1.645-10.52 2.295-14.945 4.772-29.874 6.871-44.849.099-.71.373-.87 1.014-.86 4.519.064 8.071.398 12.587.258Zm-6.199 18.626c1.51 5.605 2.328 11.393 3.286 17.111.258 1.561-.02 1.88-1.601 1.82-1.203-.05-2.411-.184-3.604-.115-.9.055-.905-.328-.82-.99.774-5.946 1.541-11.894 2.351-17.836l.388.01Z" clip-rule="evenodd"/><path fill="#fff" d="M15.711 35.881c.02 1.347.617 1.656 1.765.91l7.685-5.08c.99-.667 1.004-1.269.005-1.944-2.552-1.706-5.103-3.415-7.675-5.09-1.128-.736-1.765-.398-1.78.919a308.8 308.8 0 0 0 0 10.285ZM33.966 61.94c-.99-1.895-1.357-3.528 0-5.175v5.174Z"/><path fill="#fff" fill-rule="evenodd" d="M16.288.218c6.06.176 12.149-.08 18.19.517 1.693.167 3.44-.183 5.164.045 1.263.164 1.715 1.128 1.735 2.143.055 2.61-.015 5.214-.144 7.82-.133 2.7-.338 5.402-.542 8.1v.004l-.094 1.24c-.04.568.293.88.417 1.303.597 2.108.542 4.22.408 6.334-.446 7.08-.378 14.185-.222 21.274.064 2.913.128 5.84-.444 8.741-.127.64-.043 1.333.04 2.017.154 1.268-.054 2.529-.387 3.751l-.001.004c-.174.646-.338 1.322-.378 1.998-.055.94.134 1.88.87 2.73.229.268.482.626.373.969-.526 1.663-.346 3.325-.165 4.985.092.848.168 1.695.184 2.548.033 1.743.05 2.612-.377 3.057-.424.442-1.286.465-3.005.51-1.4.037-2.79-.102-4.188-.139-.88-.025-1.76 0-2.64.16-.765.138-1.312-.523-2.123-.567-2.788-.16-5.457.86-8.257.71-2.806-.158-5.618-.01-8.426-.024-3.206-.015-6.418-.07-9.624-.11-1.616-.02-2.197-.547-2.212-2.197a182.8 182.8 0 0 1 .084-7.198c.493-14.392.428-28.788.363-43.185-.04-8.495-.08-16.991-.005-25.487 0-.266.017-.534-.005-.8C.787.461 1.235.169 2.23.213c1.774.085 3.559.025 5.607.025 2.813-.195 5.636-.102 8.45-.02Zm16.43 56.507-.214.93c-.633-1.069-.9-2.325-1.294-3.496-1.057-3.13-2.113-6.263-3.19-9.384-.18-.517.005-.696.387-.94 2.188-1.386 3.398-3.5 4.216-5.851a30.495 30.495 0 0 0 1.561-13.05c-.631-6.502-5.056-10.35-10.434-12.835-.353-.164-.547.035-.721.219-.184.189-.349.358-.646.055-.5-.5-1.163-.422-1.775-.378-1.785.124-3.58.055-5.369-.015-2.998-.114-5.995-.229-8.958.562-1.226-.782-1.21.345-1.203.848.037 2.642-.05 5.292-.055 7.936 0 1.953 0 3.902-.02 5.856-.005.566.84.89.319 1.56-.373.483-.343 1.1-.294 1.676.192 2.118-.101 4.263.358 6.358.408 1.844-.323 3.897.194 5.851.107.442-.193.575-.358.93-.218.515.006 1.061.114 1.575.244 1.149.274 2.297.269 3.46v19.114c.005 1.745.204 1.95 1.894 1.954 2.413.012 4.826-.054 7.238.03 1.074.04 1.307-.298 1.302-1.327-.043-5.469-.033-10.937-.024-16.402l.005-2.34c0-.93.65-1.377 1.411-.989.385.202.42.656.512 1.034l1.06 3.614 1.67 5.757a1185.56 1185.56 0 0 1 2.36 8.207c.324 1.138.91 1.79 2.113 1.795h3.396c2.263-.003 4.527-.005 6.79.015.82.005.91-.264.592-.94-.229-.482-.413-1-.507-1.521-.348-1.954-.05-3.867.283-6.005.562.627.646 1.113.721 1.59l.318 2.039c.154 1.034.313 2.068.487 3.102.14.855.408 1.64 1.73 1.451-.597-.654-.656-1.372-.713-2.085-.073-.904-.18-1.805-.276-2.707l-.194-1.84c-.084-.85-.164-1.7-.214-2.55-.03-.511-.074-1.023-.119-1.535-.16-1.832-.311-3.698.164-5.499.114-.442.209-.894.264-1.347a5.855 5.855 0 0 0-.34-2.81c-.106-.278-.204-.535-.59-.351-.313.149-.244.352-.085.64.602 1.105.398 2.218-.129 3.277a3.226 3.226 0 0 0-.153.402c-.147.445-.304.917-.841.83-.385-.059-.334-.368-.28-.694l.002-.006c.034-.204.07-.413.005-.577-.096-.34-.15-.79-.507-.954a.865.865 0 0 0-.473-.065c-.377.04-.676.423-.546.621.82 1.282.219 2.202-.417 3.175l-.001.002c-.414.642-.64 1.266-.794 2.022l-.002.006Z" clip-rule="evenodd"/><path fill="#fff" d="M194.172 110.573c.894.671.904 2.156 0 2.819-.448.32-1.07.481-1.868.481-2.148 0-3.222-.899-3.222-2.696h-3.366c0 1.051.268 1.976.805 2.774 1.261 1.848 3.642 2.573 5.783 2.573 1.804 0 3.24-.399 4.306-1.197 2.056-1.553 2.1-4.736.291-6.499-1.834-1.787-4.491-1.782-6.532-3.143-.964-.651-1.07-1.973-.112-2.695.455-.351 1.092-.526 1.912-.526 1.461 0 2.685.8 2.685 2.36h3.355c0-.977-.253-1.849-.76-2.617-1.124-1.727-3.248-2.416-5.224-2.416-1.918 0-4.091.57-5.268 2.203-1.677 2.339-.279 5.136 2.036 6.387 1.627.876 3.706 1.063 5.179 2.192ZM13.754 111.602l2.193-11.588h3.344L15.678 116.3H12.3l-2.65-10.894L6.997 116.3H3.621L.008 100.014h3.344l2.204 11.566 2.684-11.566h2.841l2.673 11.588ZM40.648 109.242h-6.443v4.362h7.561v2.696H30.85v-16.286h10.894v2.718h-7.539v3.882h6.443v2.628Z"/><path fill="#fff" fill-rule="evenodd" d="M108.107 112.944h-5.883l-1.119 3.356h-3.568l6.062-16.286h3.11l6.096 16.286h-3.568l-1.13-3.356Zm-5.018-2.718 2.065-6.096 2.047 6.096h-4.112Z" clip-rule="evenodd"/><path fill="#fff" d="m127.417 111.647 1.745-1.879 4.183 6.532h3.993l-5.95-9.049 5.782-7.237h-4.127l-4.15 5.358-1.476 2.025v-7.383h-3.356V116.3h3.356v-4.653ZM158.136 109.242h-6.443v4.362h7.561v2.696h-10.917v-16.286h10.895v2.718h-7.539v3.882h6.443v2.628ZM213.582 113.604h7.125v2.696h-10.48v-16.286h3.355v13.59Z"/><path fill="#fff" fill-rule="evenodd" d="M245.039 107.799c0-2.676-.931-5.559-3.322-7.024-1.051-.656-2.256-.984-3.613-.984-1.357 0-2.565.328-3.624.984-2.395 1.478-3.31 4.349-3.31 7.035 0 2.947.649 6.09 3.344 7.74 1.059.649 2.263.974 3.613.974 1.364 0 2.572-.329 3.624-.985 2.679-1.66 3.288-4.806 3.288-7.74Zm-4.317-3.903c.611.887.917 2.184.917 3.892 0 1.582.008 3.305-.917 4.664-.604.88-1.469 1.32-2.595 1.32-1.149 0-2.029-.459-2.64-1.376-.916-1.374-.917-3.074-.917-4.664.007-1.693.317-2.975.928-3.848.612-.879 1.48-1.319 2.606-1.319 1.134 0 2.006.443 2.618 1.331Z" clip-rule="evenodd"/><path fill="#fff" d="M268.51 102.732h-4.989V116.3h-3.355v-13.568h-4.922v-2.718h13.266v2.718ZM287.764 110.573c.894.671.904 2.156 0 2.819-.448.32-1.07.481-1.868.481-2.148 0-3.221-.899-3.221-2.696h-3.367c0 1.051.268 1.976.805 2.774 1.261 1.848 3.642 2.573 5.783 2.573 1.804 0 3.24-.399 4.306-1.197 2.057-1.553 2.1-4.736.291-6.499-1.834-1.787-4.491-1.782-6.532-3.143-.53-.358-.794-.801-.794-1.331 0-1.386 1.421-1.89 2.595-1.89 1.46 0 2.684.8 2.684 2.36h3.356c0-.977-.254-1.849-.761-2.617-1.123-1.727-3.248-2.416-5.223-2.416-1.156 0-2.2.194-3.132.581-1.655.694-2.875 2.121-2.875 3.971 0 1.693.925 3.039 2.774 4.038 1.627.876 3.706 1.063 5.179 2.192Z"/></svg>