<svg width="300" height="92" viewBox="0 0 300 92" fill="none" xmlns="http://www.w3.org/2000/svg">
<path d="M107.418 36.5097V32.6293C107.418 30.8636 106.556 29.9807 104.831 29.9807H103.907C102.224 29.9807 101.382 30.8636 101.382 32.6293V39.959C101.382 40.7802 101.546 41.3345 101.875 41.622C102.203 41.9094 102.737 42.279 103.476 42.7307L109.081 45.7488C110.313 46.4468 111.175 47.0012 111.668 47.4118C112.202 47.7814 112.612 48.2536 112.9 48.8285C113.187 49.3623 113.331 50.4094 113.331 51.9698V61.3936C113.331 66.3622 110.949 68.8465 106.186 68.8465H102.552C97.8298 68.8465 95.4688 66.1364 95.4688 60.7161V58.4987H101.382V60.9009C101.382 62.6255 102.265 63.4878 104.03 63.4878H105.077C106.638 63.4878 107.418 62.6255 107.418 60.9009V53.3864C107.418 52.5652 107.254 52.0108 106.925 51.7234C106.597 51.4359 106.063 51.0664 105.324 50.6147L99.7187 47.4734C98.4869 46.8164 97.5835 46.2621 97.0086 45.8104C96.4748 45.3587 96.0847 44.7838 95.8383 44.0857C95.5919 43.3466 95.4688 42.4022 95.4688 41.2524V32.1981C95.4688 27.1474 97.8298 24.6221 102.552 24.6221H106.248C110.97 24.6221 113.331 27.1474 113.331 32.1981V36.5097H107.418Z" fill="white"/>
<path d="M118.28 68.8465V24.6221H124.193V68.8465H118.28Z" fill="white"/>
<path d="M141.72 50.6147L147.201 24.6221H153.73V68.8465H147.817L148.433 39.8974L143.998 60.8393H139.441L135.006 39.8974L135.622 68.8465H129.709V24.6221H136.238L141.72 50.6147Z" fill="white"/>
<path d="M159.303 24.6221H170.082C174.845 24.6221 177.226 27.1474 177.226 32.1981V45.3176C177.226 50.3273 174.865 52.8321 170.143 52.8321H165.216V68.8465H159.303V24.6221ZM165.216 47.4734H168.973C170.533 47.4734 171.313 46.6111 171.313 44.8865V32.5677C171.313 30.8431 170.431 29.9807 168.665 29.9807H165.216V47.4734Z" fill="white"/>
<path d="M195.963 68.8465H181.919V24.6221H187.832V63.4878H195.963V68.8465Z" fill="white"/>
<path d="M199.363 68.8465V24.6221H214.022V29.9807H205.276V43.4082H213.037V48.7669H205.276V63.4878H214.022V68.8465H199.363Z" fill="white"/>
<path d="M218.25 24.6221H229.029C233.792 24.6221 236.174 27.1474 236.174 32.1981V45.3176C236.174 50.3273 233.813 52.8321 229.09 52.8321H224.163V68.8465H218.25V24.6221ZM224.163 47.4734H227.92C229.481 47.4734 230.261 46.6111 230.261 44.8865V32.5677C230.261 30.8431 229.378 29.9807 227.612 29.9807H224.163V47.4734Z" fill="#EF3240"/>
<path d="M254.91 68.8465H240.866V24.6221H246.779V63.4878H254.91V68.8465Z" fill="#FBBA26"/>
<path d="M263.915 68.8465H258.002V50.5223V32.1981C258.002 27.1474 260.363 24.6221 265.085 24.6221H269.52C274.242 24.6221 276.603 27.1474 276.603 32.1981V68.8465H270.69V52.6473H263.915V68.8465ZM270.69 47.2886V32.5677C270.69 30.8431 269.828 29.9807 268.103 29.9807H266.502C264.777 29.9807 263.915 30.8431 263.915 32.5677V47.2886H270.69Z" fill="#00AB83"/>
<path d="M292.854 68.8465H286.941V52.5857L279.673 24.6221H285.524L289.959 43.8394H290.144L294.148 24.6221H299.999L292.854 52.5857V68.8465Z" fill="#009FE4"/>
<path d="M47.3812 38.5688L34.5093 31.1373L12.8314 43.5307L12.8314 58.5045L47.3812 38.5688Z" fill="#EF3240"/>
<path d="M21.8159 23.8087L21.7646 30.7758C21.7635 30.933 21.9358 31.03 22.0696 30.9474L27.9244 27.3354L21.8159 23.8087Z" fill="#EF3240"/>
<path fill-rule="evenodd" clip-rule="evenodd" d="M60.2531 46.0004L47.3812 38.5688L34.5093 31.1373L47.48 23.8087L76.6781 40.6662C80.7844 43.037 80.7844 48.9639 76.6781 51.3346L9.23839 90.2709C5.13213 92.6417 -0.000698156 89.6783 -0.000697948 84.9368L-0.000697443 73.3793L12.8314 65.9088L12.8314 73.3793L60.2531 46.0004ZM-0.000697117 65.9088L12.8314 58.5045L12.8314 43.5307L12.8314 18.6215L21.8159 23.8087L27.9244 27.3354L33.5459 23.8673C33.605 23.8309 33.6409 23.7665 33.6409 23.6971L33.6409 15.8187L9.2384 1.72989C5.13213 -0.640855 -0.000694337 2.32259 -0.000694545 7.06409L-0.000697117 65.9088Z" fill="#EF3240"/>
</svg>
