<svg width="300" height="53" viewBox="0 0 300 53" fill="none" xmlns="http://www.w3.org/2000/svg"><g clip-path="url(#a)"><path d="m78.497 16.768-2.11 4.165s-2.277-1.582-4.637-1.582c-1.776 0-2.721.806-2.721 2.054 0 1.249 2.165 2.193 4.776 3.304 2.554 1.084 5.358 3.248 5.358 6.247 0 5.47-4.165 7.385-8.635 7.385-5.358 0-8.606-3.027-8.606-3.027l2.61-4.387s3.055 2.582 5.608 2.582c1.138 0 3.304-.11 3.304-2.249 0-1.666-2.443-2.416-5.163-3.776-2.75-1.36-4.36-3.5-4.36-5.887 0-4.275 3.777-6.996 7.47-6.996 4.164 0 7.106 2.164 7.106 2.164v.003ZM100.153 33.344h7.885v4.581H94.934V15.019h5.219V33.344ZM132.246 14.602c6.357 0 11.522 5.164 11.522 11.857 0 6.692-4.942 11.882-11.522 11.882s-11.551-5.191-11.551-11.882 5.248-11.857 11.551-11.857Zm0 18.686c4.164 0 5.887-3.414 5.887-6.83 0-3.414-1.833-6.83-5.887-6.83-4.054 0-5.913 3.416-5.913 6.83 0 3.416 1.638 6.83 5.913 6.83ZM155.959 15.019h16.103v4.58h-5.443v18.324H161.4V19.6h-5.443v-4.58h.002ZM205.126 24.348h-.139l-4.692 13.438h-3.11l-4.693-13.438h-.138l-1.084 13.577h-5.219l2.054-22.906h5.553l5.081 13.216 5.081-13.216h5.553l2.055 22.906h-5.22l-1.083-13.577h.001ZM233.196 37.925h-5.219V15.019h5.219v22.906ZM256.739 33.344h7.885v4.581H251.52V15.019h5.219V33.344ZM281.868 33.344h7.885v4.581h-13.105V15.019h5.22V33.344ZM295.066 15.922a4.938 4.938 0 0 1-4.941-4.941 4.94 4.94 0 0 1 4.941-4.941 4.94 4.94 0 0 1 4.941 4.94c0 2.73-2.232 4.942-4.941 4.942Zm-4.612-4.941a4.608 4.608 0 0 0 4.612 4.611 4.607 4.607 0 0 0 4.611-4.611 4.607 4.607 0 0 0-4.611-4.612 4.621 4.621 0 0 0-4.612 4.612Zm2.826-2.52a12.077 12.077 0 0 1 1.584-.116c1.796 0 2.167.787 2.167 1.435 0 .68-.457 1.222-1.221 1.328v.032c.498.106.807.51.923.936.213.797.362 1.295.521 1.55h-.723c-.085-.138-.202-.488-.404-1.296-.16-.648-.458-.936-1.169-1h-1.03v2.295h-.648V8.46v.002Zm.648 2.36h1.105c.871 0 1.328-.392 1.328-.966 0-.67-.531-1-1.477-1-.478 0-.764.033-.956.075v1.891Z" fill="#fff"/><path d="M48.685 24.797c-.02-.912-.29-2.221-.487-2.997-.121-.482.14-.268.416.547-.267-1.24-.692-2.566-.785-2.566-.1 0-.043.192-.06.271-.072-.172-.17-.588-.286-.888-.144-.36-.3-.571-.191-.244.2.594.98 3.737 1.065 4.293-.084-.3-.177-.64-.243-.873-.824-2.885-1.81-5.167-3.095-7.543.099.084.145.121.205.177.013-.136.024-.243.043-.416.261.38.491.701.715 1.029-.463-1.24-1.285-2.282-1.964-3.358a3.17 3.17 0 0 1-.088.14c-.78-1.08-1.829-1.981-2.254-3.258l-.047.132c-.056-.632-.88-.262-.795-.912.476.247 1.272.897 1.655 1.248.38.345.548.351.684.365.116.013-.136-.206-.056-.276.103-.089 1.121 1.261 1.64 1.847-1.435-3.208-5.259-4.377-7.948-6.43C29.757.506 20.275-.67 12.73 3.71c-.337.196-.796.487-.992.616-.201.127.233-.008.252.01-.205.14-.388.266-.608.42-.224.155.248.043.14.116-.112.08-.528.656.032.285.561-.369 1.197-.79 1.534-.79.336 0-1.342.945-1.96 1.347-.968.631-1.828 1.192-2.38 1.58-.464.328-.94.66-1.044.584-.183-.135.468-.668.548-.789.127-.192-.701.34-.51.14.193-.2 1.234-1.188 1.918-1.701.467-.356.757-.566.748-.716-.015-.15-.481.093-.987.369-3.657 2.01-4.923 6.255-6.58 9.772.15-.009.272-.019.458-.032-.392.837-.893 1.58-.968 2.488.188-.136.29-.323.515-.393.089.295-.08.566-.144.846.023.004.042.013.06.019l.332-.893c.093.01.168.014.261.024-.308 2.24-.547 4.461-1.155 6.654l.028-.028c-.524 1.613.164 3.208-.043 4.923h-.06c-.145-.841-.445-1.665-.262-2.549-.028.037-.056.076-.127.16-.023-.24-.051-.464-.075-.678-.019-.163-.233-.163-.22-.019.08.897-.131 1.781.145 2.693.037-.127.07-.256.088-.317.285 1.352 1.01 4.602.814 4.19-.197-.412-.313-.992-.473-1.488.201 1.762.833 3.427 1.469 5.07-.052.004-.197-.117-.309-.38-.065-.16-.233-.155-.205-.056.112.356.42.92.58 1.253-.088-.28-.187-.617-.16-.664.398.468.824 1.389 1.09 1.88.265.491 1.211 2.17.584 1.29-.627-.88-1.96-2.657-2.6-4.166-.192-.445-.304-1.109-.397-1.113-.093-.004-.075.2-.089.276-.06-.084-.07-.496-.144-.468-.131.047.373 1.857.224 1.609-.144-.248-.42-1.38-.48-1.717.05.725.26 1.385.243 1.562-.608-.964-.332-2.001-.332-2.516.014.317.075.655.168.86-.075-.56.037-1.155.013-1.328-.02-.173-.261-.033-.248.173-.047-.108-.06-.296-.12-.28-.057.008-.057.21-.066.331-.032-.047-.037-.131-.075-.103-.043.024-.013.52-.131.44-.065-.037-.005-.449 0-.81.004-.331-.043-.616-.108-.592-.14.047-.024.215-.065.729-.037.468-.44-.211-.407.099.013.112-.108.476-.015.901.088.425-.02 1.066.088.95.108-.113.065-.188.145-.249.024.033.009.131.07.1.061-.038.048-.17.08-.286 1.81 10.558 11.61 15.397 20.994 18.273a5.256 5.256 0 0 0-.177.08c11.405 2.197 23.107-6.935 26.198-17.432.08-.276.267-1.346.392-2.118-.416 1.385-.705 1.346-.696 1.249.112-.925.239-1.557.472-1.988.668-1.048.257-3.717.051-3.853-.159-.103-.22.131-.233.131.02-.21.076-.907-.084-.57-.12.247.29 6.4-1.796 9.032-.084-1.665.813-3.258 1.3-4.877-.013-.005-.028-.009-.036-.013-.127.2-.248.407-.384.631-.015-.065-.028-.112-.037-.155-.168.1-.14.38-.412.393.06-.341.121-.664.177-.988-1.352 2.455-1.82 5.57-3.642 7.832-.313.388.248-.953.576-1.856.295-.796.239-1.15-.309-.155-.64 1.169-1.828 2.6-2.805 3.506-3.46 3.208-7.472 6.088-12.41 6.26v.033h.436c-3.507.407-7.58.088-10.834-1.417.005-.015.015-.024.02-.032.459.163 1.431.677 1.393.435-.015-.103-1.244-.481-2.534-1.085-1.762-.828-3.746-1.94-3.877-2.048-.229-.188.233.29.215.308-2.477-1.72-4.202-4.489-5.526-7.294-.2-.42-.537-.73-.734-1.201-.14-.337-.21-.964-.172-1.02.16-.261-.229-.524-.201-.104.009.173.272 1.244.449 1.745.075.21-.173-.22-.267-.472-.628-1.678-.684-1.978-.818-2.581 0 1.705 1.272 4.409 1.468 4.881-.271-.187-.664-.724-.845-1.272.183.645.373 1.184.36 1.393-.925-1.65-1.66-5.213-1.885-5.213-.22.013.005.565.024.832-.537-.809-.88-3.37-.683-4.026.144-2.926.603-5.924 1.632-8.683 0-.005 0-.015.004-.02.005-.019.015-.036.02-.056.879-2.342 2.169-4.512 4.02-6.307-.012-.009-.027-.024-.042-.032-.328.289-.65.575-.977.86.38-1.262 1.749-1.921 2.253-3.038l-.064-.043c.271-.248.547-.496.86-.785-.552.252-.823.832-1.445.869 1.59-1.8 3.923-3.338 5.69-4.382-.163.1-.148.416.173.529.296.103.524-.44.912-.594 2.413-.963 5.018-.845 7.403-.388-2.562-.916-5.844-.636-6.556-.468.772-.383 1.904-.336 2.338-.36 7.411-.383 14.452 4.47 18.75 10.362.238.327.733 1.108.925 1.683.08.244.523 1.024.677.912.155-.112-.093-.733-.407-1.108-.43-.509-.688-1.132-1.22-2.09.495.59.883 1.048 1.304 1.553-.973-1.693-3.414-4.142-3.67-4.839 1.403 1.024 2.473 2.352 3.366 3.797.8 1.3 1.608 3.017 2.1 4.054.06.131.099.205.116.229-.043-.15-.729-1.753-.74-1.753-.415-1.318-1.144-2.567-1.757-3.85.397.342.346.346.464.24.116-.108-.66-1.066-.805-1.688.505.785 1.01 1.576 1.544 2.412-.121-.3-.22-.551-.323-.804.015-.004.028-.013.043-.02.631.782 1.257 1.562 1.884 2.343-.58-1.206-1.544-2.193-2.117-3.362.036-.019.07-.032.103-.051.537.88 1.72 2 1.982 2.342.26.34-.557-1.09-.216-.697.341.393.865 1.14.977 1.305.112.163.2.168.056-.043-.144-.211-1.104-1.585-1.655-2.38.019-.014.036-.029.056-.043 1.412 1.837 2.753 3.769 3.549 5.957-.833-3.305-3.245-5.924-5.2-8.645.992.785 1.674 1.838 2.507 2.754.014-.015.032-.024.051-.037-.116-.215-.233-.435-.351-.65 1.856 1.614 3.114 6.127 3.236 6.42.117.29-.084-.612-.224-1.229-.14-.617.099-.449.093-.02-.006.43.645 1.67.261 2.33-.032-.052-.06-.104-.117-.201.313.949.197 1.931.566 2.8.177 1.465.08 2.927-.005 4.382.014 0 .033-.004.047-.004.056-.449.117-.897.173-1.342h.06v.52c.085-.8-.055-1.674.234-2.409.052.425.103.852.16 1.273.032 0 .064-.005.098-.01.173-1.785-.02-3.562-.2-5.339.027-.004.051-.004.075-.009.037.244.075.482.116.777.047-.112.071-.173.104-.248.215.571.289 1.173.668 1.665-.112-.656.043-1.281.047-1.937.295.753.436 2.193.496 2.325.06.131.065-.104.047-.15.205.609.356 2.418.365 2.137.013-.28.019-.8-.06-1.762.06.211.182.566.284 1.249l.002.003ZM42.31 41.68c-.38.28-.42.285.047-.3.468-.584 1.492-2.212 1.88-2.913.388-.7-.07.86.285.22.351-.64.6-.94 1.01-2.478.036.487-.468 2.454-1.113 3.563-.64 1.112-1.89 2.417-2.357 2.96-.468.548.86-1.225 1.346-1.828.487-.604.772-1.132.873-1.385-.495.692-1.6 1.88-1.973 2.16h.002ZM7.523 38.104c.594 1.617 3.063 4.1 4.255 4.73-1.96-.84-3.594-2-3.867-2.536-.175-.345.11-.279.363.022.254.301.397.456.817.71-.992-1.277-1.432-2.113-1.568-2.926ZM15.258 3.83c-.585.183-1.113.345-.43-.024.613-.327 1.969-.808 2.221-.552.253.253-1.205.389-1.79.576h-.001Zm20.194 6.288c1.197.216 1.388 1.58 1.79 1.96-.748-.692-1.501-1.46-1.79-1.96Zm3.657 1.796c-.248-.205-.346-.556-.346-.556.188.14.617.673.692.761.076.089-.103 0-.345-.205h-.002Z" fill="#BE1622"/><path d="M5.117 22.124c.158-.762.316-1.522.472-2.283l.064.013-.438 2.31c-.033-.014-.065-.027-.098-.039v-.001ZM2.204 23.665c-.055-.59.007-1.172.122-1.749l.062.006-.183 1.743h-.001ZM43.882 35.097c-.177.33-.395.95 0 .614.394-.336.18-.949 0-.614ZM46.936 30.815c.142-.387.025-1.182.218-.703.193.481-.444 1.315-.218.703ZM.404 31.73c.117.235.028-1.061-.166-1.052-.195.009-.284.146-.197.525.089.38.269.337.363.526v.001ZM.74 30.45c-.065-.165-.3-.693-.22-.804.08-.11.183-.066.256.176.072.242.036.818-.037.629H.74ZM4.212 30.791c.025-.102.125-.43.057-.478-.068-.049-.134-.01-.156.134-.022.145.07.46.099.344ZM.923 29.124c.198-.014.056.233-.05.329-.056.051-.18-.315.05-.33ZM1.528 31.395c.157.04.05.184-.03.228-.043.024-.153-.276.03-.228ZM42.543 19.902c-.146-.358.247.36.492 1.031.146.397.279.73.206.931-.128.363-.355-1.127-.698-1.96v-.002ZM42.885 17.9c.26.476.426.73.528.685.102-.044.146-.262 0-.453-.146-.19-.674-.503-.528-.233ZM43.82 18.704c.061.19.4.103.258-.09-.144-.194-.327-.118-.259.09ZM47.169 29.165c.016.172-.309.165-.257-.025.052-.19.239-.163.257.025ZM48.112 32.123c.075-.258-.161-.301-.183-.062-.024.261.107.32.183.062ZM46.533 30.726c.069.346-.405.632-.38.183.025-.448.303-.56.38-.183ZM10.402 4.396c.21-.125.655-.333.583-.47-.073-.138-.433.13-.583.281-.151.151-.21.316 0 .19ZM6.088 32.84c-.13-.068-.022-.226.059-.176.081.05.109.263-.06.176ZM41.083 18.907c-.12.025-.01.37.126.322.138-.049.01-.351-.127-.322ZM42.886 17.132c-.12.025-.076.208.06.16.135-.05.076-.19-.06-.16ZM42.487 19.284c-.044-.162.427.254.31.453-.116.2-.237-.195-.31-.453ZM15.34 7.84c-.185.092-.387.233-.176.284.211.052.402-.059.446-.22.044-.16-.083-.159-.27-.066v.001Z" fill="#BE1622"/></g><defs><clipPath id="a"><path fill="#fff" d="M.008.97h300v51.06h-300z"/></clipPath></defs></svg>