<svg xmlns="http://www.w3.org/2000/svg" width="300" height="117" fill="none" viewBox="0 0 300 117"><path fill="url(#a)" d="M97.72 25.6C97.118 22.99 60.237 1.303 58.03.835 56.444.5 55.277 0 53.483 0c-1.5 0-3.267.5-4.356.835-.87.268-41.834 22.957-44.176 24.765-2.509 1.938-3.681 3.62-4.685 6.627-.335 1.002-.373 21.686 0 22.958.579 1.976.846 3.132 1.807 4.953.91 1.725 1.385 2.827 2.878 4.083.87.732 2.568 1.536 4.217 2.343 6.853 3.35 17.637 8.132 17.637 8.132s-3.309-5.487-4.853-9.27c-1.306-3.2-2.048-5.036-2.677-8.434-.677-3.654-.811-5.831-.268-9.504.405-2.742.819-4.293 1.94-6.828 1.123-2.533 2.073-3.765 3.75-6.023 1.988-2.68 3.233-4.29 5.555-6.493 2.71-2.571 4.364-3.607 7.764-5.154 2.476-1.126 3.832-1.598 6.425-2.075 2.268-.417 3.585-.405 5.89-.401 2.254.003 3.528.072 5.757.401 3.513.52 5.469 1.096 8.768 2.41 2.639 1.051 3.972 1.97 6.493 3.28 3.134 1.628 4.727 2.998 7.83 4.683 2.252 1.222 3.999 2.52 5.89 2.746 2.812.335 3.615.469 6.159 0 2.083-.384 3.11-1.678 4.417-3.146 1.65-1.852 2.008-3.75 2.075-5.288Z"/><path fill="url(#b)" d="M99.059 91.396c1.113-1.113 1.85-1.673 2.677-3.012.745-1.206 1.406-3.347 1.406-3.347V59.402s-1.099-3.768-2.544-5.757c-1.25-1.72-3.949-3.748-3.949-3.748L58.03 30.888s-5.4-1.187-8.5 0c-2.305.883-3.414 1.74-5.088 3.748-1.019 2.21-1.652 4.338-1.338 6.828.413 3.28 1.46 4.3 3.012 6.024 1.807 2.008 6.014 3.076 9.973 4.819 6.11 2.69 9.888 3.332 15.997 6.024 2.322 1.023 3.73 1.413 5.89 2.744 2.311 1.424 3.678 2.27 5.422 4.35 1.117 1.335 1.541 2.24 2.41 3.749 1.118 1.945 1.83 3.026 2.543 5.154.702 2.095.87 3.355 1.07 5.555.183 2.005.25 3.157 0 5.154-.378 3.027-1.403 5.449-2.41 7.43-1.656 3.263-4.684 8.115-4.684 8.115s15.193-7.647 16.733-9.186Z"/><path fill="url(#c)" d="M44.441 83.096s6.087 1.448 9.505 0c2.846-1.206 4.472-2.54 5.89-5.288 1.1-2.132 1.389-3.632 1.205-6.024-.133-1.732-.426-2.73-1.205-4.283-1.005-2.005-2.081-3.016-4.016-4.15-1.941-1.138-2.744-1.473-4.886-2.276-4.124-1.546-4.083-1.473-9.237-3.012-4.685-1.4-5.514-1.676-8.233-4.083-1.519-1.345-2.288-2.277-3.212-4.083-1.22-2.382-1.4-4.018-1.473-6.693-.084-3.06.19-4.686 1.673-7.363 1.21-2.183 2.31-3.343 4.217-4.953 2.239-1.889 3.665-2.787 6.292-4.083 1.937-.955 3.041-1.425 5.154-1.875 1.845-.394 2.933-.441 4.819-.467 2.356-.033 3.836.025 6.024.334 1.609.228 2.967.538 4.82 1.071 3.087.89 4.472 1.41 7.63 3.08 5.823 3.077 0 .064 5.823 3.077 2.945 1.523 2.945 1.539 4.886 2.744 1.907 1.184 3.102 1.688 5.287 2.008 2.258.33 3.731.15 5.69-.937 2.41-1.339 2.41-1.339 3.949-2.878 1.194-1.195 1.115-1.207 1.606-2.276.864-1.879 1.256-4.284 1.071-5.085-.067 1.537-.424 3.435-2.075 5.287-1.307 1.467-2.334 2.762-4.417 3.146-2.544.469-3.347.335-6.158 0-1.892-.225-3.639-1.524-5.89-2.746-3.104-1.685-4.697-3.055-7.832-4.683-2.52-1.31-3.853-2.229-6.492-3.28-3.299-1.314-5.255-1.89-8.768-2.41-2.23-.33-3.503-.398-5.756-.401-2.306-.004-3.623-.016-5.89.401-2.594.477-3.95.949-6.426 2.075-3.4 1.547-5.055 2.583-7.764 5.154-2.322 2.203-3.567 3.813-5.556 6.492-1.677 2.26-2.626 3.491-3.748 6.024-1.122 2.535-1.536 4.086-1.941 6.828-.543 3.673-.409 5.85.268 9.504.629 3.398 1.371 5.234 2.677 8.434 1.544 3.783 4.853 9.27 4.853 9.27l17.636 8.4Z"/><path fill="url(#d)" d="M1.738 89.722c.321 1.607 39.022 25.502 44.377 26.439 3.012.527 4.807.457 7.831 0 4.953-.749 8.924-4.192 14.457-7.229 5.559-3.05 13.923-8.35 13.923-8.35s3.028-4.852 4.685-8.115c1.006-1.981 2.031-4.403 2.41-7.43.25-1.997.182-3.15 0-5.154-.2-2.2-.37-3.46-1.071-5.555-.714-2.128-1.425-3.209-2.544-5.154-.868-1.508-1.292-2.414-2.41-3.748-1.743-2.081-3.11-2.927-5.421-4.35-2.16-1.332-3.568-1.722-5.89-2.745-6.109-2.692-9.888-3.334-15.997-6.024-3.959-1.743-8.166-2.811-9.973-4.82-1.552-1.724-2.6-2.744-3.012-6.023-.314-2.49.32-4.619 1.338-6.828-.94 2.353-1.94 3.813-2.275 6.023-.185 1.22.096 4.018.937 6.16.63 1.606 2.075 3.219 3.012 3.948 2.011 1.566 3.455 2.116 5.756 3.213 3.474 1.657 5.574 2.242 9.17 3.614 1.878.717 3.034.885 4.819 1.808 2.731 1.412 4.477 2.29 6.225 4.819 1.192 1.725 2.065 3.353 2.41 5.422.334 2.008.218 3.911-.335 6.626-.453 2.221-.932 3.464-2.075 5.421-1.206 2.067-2.123 3.14-3.95 4.686-2.018 1.71-3.167 2.81-5.555 3.949-2.725 1.3-4.58 1.67-7.563 2.142-1.607.253-3.595.155-5.89 0-2.796-.19-4.363-.448-7.095-1.071-2.258-.516-3.55-.786-5.69-1.674-3.209-1.331-4.547-2.96-7.563-4.685-3.075-1.758-4.64-3.195-8.032-4.217-1.885-.567-2.986-.863-4.953-.937-1.705-.063-2.691.004-4.35.402-1.497.359-2.446.667-3.682 1.406-2.041 1.22-3.457 2.18-4.685 4.216-.964 1.598-1.7 2.008-1.339 3.816Z"/><path fill="#fff" d="M117.029 45.992h5.38c0 .7.341 1.247 1.021 1.638.68.392 1.484.588 2.412.588.866 0 1.628-.186 2.288-.557.68-.37 1.021-.866 1.021-1.484 0-.33-.062-.618-.186-.866a1.189 1.189 0 0 0-.526-.618 3.786 3.786 0 0 0-.68-.371c-.185-.103-.484-.176-.897-.217-.391-.062-.67-.103-.835-.123-.165-.021-.453-.042-.865-.062a14.353 14.353 0 0 1-2.938-.464 10 10 0 0 1-2.505-1.083 5.25 5.25 0 0 1-1.824-1.917c-.433-.824-.65-1.783-.65-2.876 0-2.247.815-3.989 2.443-5.226 1.629-1.236 3.618-1.855 5.968-1.855 1.443 0 2.783.258 4.02.773a6.831 6.831 0 0 1 3.093 2.412c.824 1.093 1.226 2.392 1.206 3.896h-5.288c-.021-.7-.309-1.226-.866-1.577-.557-.35-1.247-.525-2.072-.525-1.958 0-2.938.66-2.938 1.979 0 .68.258 1.154.773 1.422.536.268 1.382.464 2.536.588 1.031.082 1.928.196 2.69.34a11.49 11.49 0 0 1 2.32.711c.783.31 1.422.701 1.917 1.175.495.454.897 1.072 1.206 1.856.33.762.495 1.649.495 2.659 0 2.144-.876 3.834-2.629 5.071-1.752 1.237-3.824 1.856-6.215 1.856-2.474 0-4.587-.619-6.34-1.856-1.731-1.237-2.576-3-2.535-5.288ZM148.8 40.302l8.565-9.37h2.01V52.64h-5.659v-9.988l-4.607 4.824h-.65l-4.607-4.824v9.988h-5.659V30.932h2.01l8.597 9.37ZM176.567 49.95h-8.102l-1.236 2.69h-5.907v-.773l9.927-21.09h2.597l9.834 21.09v.773h-5.845l-1.268-2.69Zm-4.051-9.958-2.226 5.226h4.484l-2.258-5.226ZM199.797 44.94l4.236 6.865v.804h-5.999l-3.711-6.772h-2.968v6.772h-5.659V30.963h9.524c2.453 0 4.36.763 5.721 2.288 1.381 1.526 2.072 3.32 2.072 5.38-.042 2.763-1.114 4.866-3.216 6.31Zm-8.535-3.71h3.927c.742 0 1.319-.269 1.732-.805.412-.536.618-1.175.618-1.917s-.206-1.36-.618-1.855c-.392-.516-.969-.773-1.732-.773h-3.927v5.35ZM210.481 35.941h-5.318v-4.947h16.08v4.947h-5.288V52.64h-5.474V35.941ZM223.055 45.992h5.381c0 .7.34 1.247 1.02 1.638.681.392 1.485.588 2.412.588.866 0 1.629-.186 2.289-.557.68-.37 1.02-.866 1.02-1.484 0-.33-.062-.618-.186-.866a1.191 1.191 0 0 0-.525-.618 3.792 3.792 0 0 0-.681-.371c-.185-.103-.484-.176-.896-.217-.392-.062-.67-.103-.835-.123-.165-.021-.454-.042-.866-.062a14.364 14.364 0 0 1-2.938-.464 10.033 10.033 0 0 1-2.505-1.083 5.266 5.266 0 0 1-1.824-1.917c-.433-.824-.649-1.783-.649-2.876 0-2.247.814-3.989 2.443-5.226 1.628-1.236 3.618-1.855 5.968-1.855 1.443 0 2.783.258 4.02.773a6.834 6.834 0 0 1 3.092 2.412c.825 1.093 1.227 2.392 1.206 3.896h-5.288c-.02-.7-.309-1.226-.866-1.577-.556-.35-1.247-.525-2.072-.525-1.958 0-2.937.66-2.937 1.979 0 .68.257 1.154.773 1.422.536.268 1.381.464 2.536.588 1.03.082 1.927.196 2.69.34.763.144 1.536.381 2.319.711.783.31 1.423.701 1.917 1.175.495.454.897 1.072 1.206 1.856.33.762.495 1.649.495 2.659 0 2.144-.876 3.834-2.628 5.071-1.753 1.237-3.825 1.856-6.216 1.856-2.474 0-4.587-.619-6.339-1.856-1.732-1.237-2.577-3-2.536-5.288ZM265.278 41.817c0 3.298-1.041 5.999-3.123 8.102-2.062 2.082-4.731 3.123-8.009 3.123-1.464 0-2.856-.237-4.175-.711a11.262 11.262 0 0 1-3.525-2.072c-1.031-.907-1.856-2.082-2.474-3.525-.598-1.464-.897-3.103-.897-4.917 0-2.392.547-4.453 1.639-6.185 1.093-1.752 2.464-3.03 4.113-3.834 1.67-.825 3.474-1.237 5.411-1.237 1.402 0 2.753.247 4.051.742a10.826 10.826 0 0 1 3.526 2.072c1.051.907 1.886 2.092 2.504 3.556.639 1.443.959 3.072.959 4.886Zm-16.544 0c0 1.835.536 3.278 1.608 4.33 1.072 1.03 2.35 1.545 3.835 1.545 1.463 0 2.731-.515 3.803-1.546 1.093-1.051 1.639-2.494 1.639-4.33 0-1.834-.536-3.267-1.608-4.297-1.072-1.052-2.329-1.578-3.773-1.578-1.525 0-2.824.516-3.896 1.547-1.072 1.01-1.608 2.453-1.608 4.329ZM281.356 40.704v4.947h-6.926v6.989h-5.659V30.994h13.513v4.917h-7.854v4.793h6.926ZM289.239 35.941h-5.319v-4.947H300v4.947h-5.288V52.64h-5.473V35.941ZM117.461 74.954c0-3.216 1.01-5.865 3.03-7.947 2.021-2.082 4.577-3.123 7.669-3.123 2.289 0 4.257.505 5.907 1.515 1.669 1.01 2.875 2.556 3.618 4.638h-1.577c-1.361-3.133-4.02-4.7-7.979-4.7-2.741.041-4.947.97-6.617 2.783-1.67 1.794-2.505 4.072-2.505 6.834 0 2.825.825 5.154 2.474 6.989 1.67 1.814 3.886 2.721 6.648 2.721 2.557 0 4.649-.783 6.278-2.35 1.628-1.567 2.525-3.639 2.69-6.216h-8.535v-1.36h10.081c0 2.164-.319 3.979-.958 5.442-.804 1.897-2.041 3.37-3.711 4.422-1.649 1.031-3.598 1.546-5.845 1.546-3.133 0-5.7-1.04-7.699-3.123-1.98-2.103-2.969-4.793-2.969-8.07ZM156.108 79.593h-11.782l-2.938 6.246h-1.639v-.185l10.143-21.523h.711l10.05 21.523v.185h-1.608l-2.937-6.246Zm-5.876-12.895-5.38 11.534h10.73l-5.35-11.534ZM173.92 77.15l8.998-12.988h.65V85.84h-1.578V68.06L174.074 79.5h-.309l-7.947-11.442V85.84h-1.577V64.162h.649l9.03 12.988ZM193.316 84.571h4.113v1.268h-9.772v-1.268h4.113v-19.11h-3.835v-1.268h9.215v1.268h-3.834v19.11ZM217.833 85.84l-14.905-18.276.154 7.39V85.84h-1.577V64.162h.619l14.812 18.214-.155-7.855V64.162h1.577V85.84h-.525ZM223.095 74.954c0-3.216 1.01-5.865 3.03-7.947 2.021-2.082 4.577-3.123 7.669-3.123 2.288 0 4.257.505 5.906 1.515 1.67 1.01 2.876 2.556 3.618 4.638h-1.577c-1.36-3.133-4.02-4.7-7.978-4.7-2.742.041-4.947.97-6.617 2.783-1.67 1.794-2.505 4.072-2.505 6.834 0 2.825.825 5.154 2.474 6.989 1.67 1.814 3.886 2.721 6.648 2.721 2.557 0 4.649-.783 6.278-2.35 1.628-1.567 2.525-3.639 2.69-6.216h-8.535v-1.36h10.081c0 2.164-.319 3.979-.959 5.442-.804 1.897-2.04 3.37-3.71 4.422-1.65 1.031-3.598 1.546-5.845 1.546-3.133 0-5.7-1.04-7.7-3.123-1.979-2.103-2.968-4.793-2.968-8.07Z"/><defs><linearGradient id="a" x1="51.571" x2="51.571" y1="0" y2="76.898" gradientUnits="userSpaceOnUse"><stop stop-color="#E81D34"/><stop offset=".333" stop-color="#E91945"/><stop offset=".667" stop-color="#E81D33"/><stop offset="1" stop-color="#CA1D2A"/></linearGradient><linearGradient id="b" x1="51.583" x2="51.583" y1=".5" y2="77.068" gradientUnits="userSpaceOnUse"><stop stop-color="#E81D34"/><stop offset=".333" stop-color="#E91945"/><stop offset=".667" stop-color="#E81D33"/><stop offset="1" stop-color="#CA1D2A"/></linearGradient><linearGradient id="c" x1="51.524" x2="51.524" y1="19.358" y2="84.093" gradientUnits="userSpaceOnUse"><stop stop-color="#7E0F12"/><stop offset=".504" stop-color="#AF1C25"/><stop offset="1" stop-color="#D61D2C"/></linearGradient><linearGradient id="d" x1="84.597" x2="29.974" y1="43.222" y2="108.276" gradientUnits="userSpaceOnUse"><stop stop-color="#610203"/><stop offset=".531" stop-color="#B52430"/><stop offset="1" stop-color="#EA1C32"/></linearGradient></defs></svg>