<svg width="290" height="120" viewBox="0 0 290 120" fill="none" xmlns="http://www.w3.org/2000/svg">
<path fill-rule="evenodd" clip-rule="evenodd" d="M0.416016 76.0183V70.0217H16.2222V77.0004C16.2222 83.3878 18.687 86.5833 23.6132 86.5833H23.6757C28.5568 86.5833 31.0008 83.3982 31.0008 77.0316C31.0008 73.3935 29.9489 69.9836 27.8382 66.7986C25.7309 63.6135 23.2105 60.7017 20.277 58.063L12.3548 49.8774C9.08113 47.0139 6.34203 43.4658 4.13757 39.2363C1.92963 35.0034 0.825664 30.3175 0.825664 25.1785C0.825664 17.2695 2.90862 11.2037 7.07454 6.97427C11.237 2.74483 16.8957 0.631836 24.0437 0.631836C31.1917 0.631836 36.6803 2.74483 40.513 6.97081C44.3456 11.1968 46.2619 17.2626 46.2619 25.1681V28.3048H31.6847V24.2171C31.6847 17.809 29.1088 14.6032 23.9535 14.6032C18.7981 14.6032 16.2222 17.8124 16.2222 24.224C16.2222 26.9076 16.7846 29.4667 17.9059 31.9014C19.0273 34.336 20.4819 36.5285 22.2697 38.4859C24.0576 40.4398 26.0295 42.3729 28.1819 44.2819C30.3343 46.1943 32.4623 48.1966 34.5592 50.2889C36.656 52.3811 38.5967 54.6186 40.3776 57.0083C42.155 59.3945 43.6027 62.2164 44.7206 65.4672C45.8384 68.7214 46.3973 72.2557 46.3973 76.0771C46.3973 83.9654 44.4359 90.0173 40.513 94.2329C36.5901 98.4485 31.0529 100.558 23.9014 100.558C16.7499 100.558 11.0461 98.4451 6.79334 94.2191C2.54063 89.9931 0.416016 83.9239 0.416016 76.0183Z" fill="white"/>
<path fill-rule="evenodd" clip-rule="evenodd" d="M70.5528 48.8216H77.8744C80.3809 48.8216 82.2625 48.1161 83.5192 46.7086C84.7725 45.3011 85.4008 42.9149 85.4008 39.55V24.8974C85.4008 21.5325 84.7725 19.1601 83.5192 17.7734C82.2625 16.3866 80.3809 15.695 77.8744 15.695H70.5528V48.8216ZM55.1562 99.4642V1.72363H77.8397C93.1425 1.72363 100.797 9.79866 100.797 25.9452V38.6405C100.797 54.7421 93.1494 62.7964 77.857 62.7964H70.5528V99.4642H55.1562Z" fill="white"/>
<path fill-rule="evenodd" clip-rule="evenodd" d="M123.375 45.7546H129.395C132.498 45.7546 134.814 44.9592 136.341 43.3684C137.869 41.7777 138.633 39.1217 138.633 35.3937V25.7832C138.678 19.0604 136.078 15.6955 130.832 15.6955H123.375V45.7546ZM107.979 99.4648V1.7207H131.21C139.133 1.7207 144.92 3.56395 148.562 7.24699C152.207 10.93 154.029 16.5912 154.029 24.2305V31.9355C154.029 41.9851 150.669 48.6008 143.948 51.7824C150.759 54.6493 154.165 61.5831 154.165 72.5872V87.6272V88.2393C154.165 93.2295 154.713 96.9714 155.807 99.4648H140.198C139.292 96.6982 138.817 92.7074 138.772 87.4889V72.1792C138.772 67.7353 137.984 64.5468 136.411 62.6205C134.835 60.6908 132.269 59.7294 128.711 59.7294H123.375V99.4648H107.979Z" fill="white"/>
<path fill-rule="evenodd" clip-rule="evenodd" d="M164.293 99.4657H179.69V1.72168H164.293V99.4657Z" fill="white"/>
<path fill-rule="evenodd" clip-rule="evenodd" d="M206.307 85.4929H215.135C217.825 85.4929 219.832 84.777 221.155 83.3453C222.477 81.9136 223.14 79.4271 223.14 75.8824V67.3613C223.14 62.9071 222.377 59.8188 220.846 58.0932C219.318 56.364 216.777 55.5029 213.219 55.5029H206.307V85.4929ZM206.307 41.5281H212.354C215.468 41.5281 217.794 40.7327 219.329 39.1419C220.867 37.5511 221.634 34.9159 221.634 31.2364V25.7827C221.679 19.0599 219.068 15.695 213.798 15.695H206.307V41.5281ZM190.91 99.4677V1.72363H214.177C222.113 1.72363 227.907 3.56342 231.556 7.24301C235.204 10.9226 237.03 16.5803 237.03 24.2161V27.6917C237.03 37.7344 233.701 44.3016 227.039 47.3899C234.704 50.3882 238.534 57.3669 238.534 68.3158V76.2905C238.534 83.8329 236.551 89.584 232.583 93.5368C228.612 97.4896 222.797 99.4677 215.135 99.4677H190.91Z" fill="white"/>
<path fill-rule="evenodd" clip-rule="evenodd" d="M247.77 99.4658V1.72168H289.783V15.6965H263.166V42.8922H284.308V56.8635H263.166V85.491H289.783V99.4658H247.77Z" fill="white"/>
<path fill-rule="evenodd" clip-rule="evenodd" d="M0 119.368H290V105.798H0V119.368Z" fill="white"/>
</svg>
