<svg width="21" height="17" viewBox="0 0 21 17" fill="none" xmlns="http://www.w3.org/2000/svg">
<path fill-rule="evenodd" clip-rule="evenodd" d="M1.43784 7.33196C7.07383 4.94042 10.8258 3.3513 12.7098 2.58035C18.0721 0.393346 19.1992 0.0157338 19.9239 0C20.0849 0 20.4392 0.0314679 20.6807 0.220274C20.8739 0.377612 20.9222 0.582152 20.9545 0.73949C20.9867 0.896828 21.0189 1.22724 20.9867 1.47898C20.6968 4.46841 19.4408 11.7217 18.7967 15.0573C18.5229 16.4733 17.9915 16.9453 17.4762 16.9925C16.349 17.0869 15.4956 16.2688 14.4167 15.5765C12.7098 14.4908 11.7597 13.8143 10.1012 12.7444C8.18492 11.5172 9.42484 10.8406 10.5198 9.73924C10.8097 9.45603 15.7532 5.05056 15.8499 4.65721C15.866 4.61001 15.866 4.4212 15.7532 4.3268C15.6405 4.2324 15.4795 4.26387 15.3507 4.29533C15.1735 4.3268 12.4683 6.08899 7.20265 9.56616C6.42972 10.0854 5.73729 10.3371 5.10928 10.3214C4.41686 10.3057 3.09643 9.94377 2.09806 9.6291C0.890347 9.25149 -0.0758222 9.04695 0.0046919 8.38613C0.0530003 8.03998 0.536085 7.69384 1.43784 7.33196Z" fill="white"/>
</svg>
