<svg xmlns="http://www.w3.org/2000/svg" width="105" height="22" viewBox="0 0 103 22"><path style="stroke:none;fill-rule:nonzero;fill:#fff;fill-opacity:1" d="M10.605 3.41v2.45c0 .238-.12.355-.359.355a3.249 3.249 0 0 0-1.644.433c-.23.133-.399.079-.504-.168a6.685 6.685 0 0 0-1.309-2.027c-.101-.023-.226-.11-.375-.25a7.272 7.272 0 0 1 4.191-.793Zm0 0"/><path style="stroke:none;fill-rule:nonzero;fill:#e43045;fill-opacity:1" d="M10.605 3.41a7.34 7.34 0 0 1 3.473 1.36 5.69 5.69 0 0 0-1.062 1.699.41.41 0 0 0 .074.46l1.281 1.458c.129.152.277.172.441.062l1.543-1.02a7.905 7.905 0 0 1 .875 3.587l-1.82.035c-.246.008-.379.133-.394.379-.047.636-.184 1.215-.422 1.726-.11.242-.051.434.176.57l1.585.993a7.722 7.722 0 0 1-2.316 2.707c-.45-.496-.742-.957-.879-1.383-.164-.504-.476-.629-.937-.375a3.702 3.702 0 0 1-1.258.445c-.258.043-.39.196-.402.457l-.106 2.223a7.28 7.28 0 0 1-3.723-.617l1.348-2.254c.14-.242.098-.442-.133-.598a4.223 4.223 0 0 1-1.203-1.273c-.133-.211-.297-.239-.484-.082-1.024.84-1.992 1.219-2.899 1.133a7.836 7.836 0 0 1-1.062-3.86l3.129-.023a.479.479 0 0 0 .457-.364l.46-1.867c.071-.265-.007-.476-.226-.64A8.624 8.624 0 0 0 3.45 6.996c.227-.371.48-.719.762-1.047a.804.804 0 0 0 .469.387c.183.059.32.004.41-.16.367-.645.933-1.219 1.7-1.723.538.567.976 1.242 1.308 2.027.105.247.273.301.504.168a3.249 3.249 0 0 1 1.644-.433c.238 0 .36-.117.36-.356Zm-.562 11.844c2.062.234 3.937-1.418 4.191-3.688.25-2.27-1.214-4.3-3.277-4.535-2.059-.23-3.934 1.418-4.187 3.688-.25 2.273 1.214 4.3 3.273 4.535Zm0 0"/><path style="stroke:none;fill-rule:nonzero;fill:#fe9cad;fill-opacity:1" d="M6.414 4.203c.149.14.274.227.375.25-.766.504-1.332 1.078-1.7 1.723-.089.164-.226.219-.41.16a.804.804 0 0 1-.468-.387 7.548 7.548 0 0 1 2.203-1.746Zm0 0"/><path style="stroke:none;fill-rule:nonzero;fill:#fff;fill-opacity:1" d="M14.078 4.77a7.65 7.65 0 0 1 2.277 2.66l-1.543 1.02c-.164.109-.312.09-.44-.063L13.09 6.93a.41.41 0 0 1-.074-.461 5.69 5.69 0 0 1 1.062-1.7ZM3.45 6.996A8.624 8.624 0 0 1 6.12 8.348c.219.164.297.375.227.64l-.461 1.867a.479.479 0 0 1-.457.364l-3.13.023a7.897 7.897 0 0 1 1.15-4.246ZM10.043 15.254c2.062.234 3.937-1.418 4.191-3.688.25-2.27-1.214-4.3-3.277-4.535-2.059-.23-3.934 1.418-4.187 3.688-.25 2.273 1.214 4.3 3.273 4.535ZM35.305 11.484c.011 1.922-1.524 3.485-3.426 3.496l-.883.004c-1.902.012-3.453-1.539-3.46-3.457l-.005-.937c-.011-1.918 1.524-3.485 3.426-3.492l.883-.004c1.902-.012 3.45 1.535 3.46 3.457Zm-3.88 1.793c.907-.004 1.641-1 1.637-2.226 0-1.227-.738-2.219-1.644-2.219-.906.004-1.637 1-1.637 2.227.004 1.226.739 2.218 1.645 2.218ZM49.82 10.55c-.101 1.16.176 2.934 1.684 2.66.68-.12 1.094-.57 1.242-1.35.02-.102.078-.137.176-.106l1.789.543a.175.175 0 0 1 .113.21c-.453 1.595-1.511 2.427-3.172 2.493-2.422.098-3.793-1-4.109-3.29-.281-2.034.48-4.023 2.637-4.495 1.941-.43 3.87.101 4.547 2.113.027.086 0 .145-.086.164l-1.762.426a.173.173 0 0 1-.191-.09c-.903-1.723-2.72-1.008-2.868.723ZM66.633 8.668c-.645.434-.59.742.164.926 1.422.351 3.754.722 3.836 2.594.11 2.546-2.5 3.062-4.485 2.726-1.285-.219-2.066-.984-2.343-2.3-.043-.204.039-.31.242-.321l1.726-.082c.2-.008.313.086.336.285.125 1 1.43 1.324 2.067.656a.72.72 0 0 0 .168-.695.704.704 0 0 0-.516-.484c-1.68-.368-4.484-.989-3.558-3.43.632-1.664 3.28-1.68 4.687-1.191.754.261 1.23.84 1.426 1.738.043.203-.035.308-.238.316l-1.594.047a.497.497 0 0 1-.469-.273c-.371-.739-.855-.907-1.45-.512ZM92.293 11.496c-.012 1.938-1.582 3.496-3.5 3.484l-.863-.007c-1.918-.012-3.465-1.594-3.45-3.532l.004-.859c.016-1.937 1.582-3.496 3.5-3.484l.864.007c1.918.012 3.465 1.594 3.453 3.532Zm-2.39-1.16a1.425 1.425 0 0 0-1.434-1.422l-.23.004a1.427 1.427 0 0 0-1.41 1.445l.015 1.41c.004.793.648 1.43 1.433 1.422h.227a1.428 1.428 0 0 0 1.41-1.449ZM95.953 9.543c.746.21 1.512.434 2.293.66 2.988.867 1.95 4.395-.805 4.746-2.445.313-3.875-.472-4.285-2.347-.043-.2.04-.301.242-.309l1.809-.078c.129-.004.207.055.238.176l.133.453c.05.183.176.344.348.433.547.293 1.043.293 1.492 0a.703.703 0 0 0 .312-.714.708.708 0 0 0-.527-.575c-1.262-.312-3.277-.664-3.691-2.117-.93-3.226 5.61-3.976 6.23-.785.04.21-.043.316-.25.324l-1.652.063a.34.34 0 0 1-.348-.227c-.3-.7-.828-.906-1.582-.617a.485.485 0 0 0 .043.914ZM24.688 9.29l-.004 5.405c0 .055-.024.11-.063.149a.203.203 0 0 1-.144.054l-1.887-.043a.203.203 0 0 1-.195-.203l.003-5.34a.213.213 0 0 0-.062-.148.197.197 0 0 0-.145-.055l-2.003.028a.204.204 0 0 1-.204-.203L20 7.418a.203.203 0 0 1 .203-.195l6.676-.008c.11 0 .2.094.2.203l-.009 1.52c0 .054-.023.109-.062.144a.2.2 0 0 1-.145.059l-1.968-.055a.2.2 0 0 0-.145.059.204.204 0 0 0-.063.144ZM38.965 12.242l-.012 2.496c0 .106-.05.153-.152.149l-2.016-.028a.148.148 0 0 1-.148-.148l-.004-7.254c0-.144.074-.223.222-.23a55.714 55.714 0 0 1 4.063.039c2.43.12 2.812 3.34.965 4.41-.778.445-1.774.285-2.64.293-.184 0-.278.09-.278.273Zm0-3.363v1.484a.147.147 0 0 0 .14.153h.356c.691.004 1.258-.348 1.258-.782v-.207c.004-.433-.555-.789-1.246-.793h-.356a.154.154 0 0 0-.105.04.165.165 0 0 0-.047.105ZM57.969 13.695l-.336 1.035a.168.168 0 0 1-.156.114l-2.036.054a.158.158 0 0 1-.14-.07.163.163 0 0 1-.02-.152l2.754-7.36a.168.168 0 0 1 .153-.113l2.308.012c.07 0 .129.043.152.105l2.75 7.356a.17.17 0 0 1-.023.148.156.156 0 0 1-.129.07l-2.137-.042a.168.168 0 0 1-.16-.122l-.261-1.007a.163.163 0 0 0-.157-.121l-2.406-.024a.166.166 0 0 0-.156.117Zm1.547-3.925c-.098-.34-.211-.348-.344-.024a14.894 14.894 0 0 0-.598 1.836c-.062.25.035.375.29.375l.913-.004c.25 0 .344-.121.274-.363ZM72.066 7.21h2.04a.14.14 0 0 1 .14.142v7.37a.143.143 0 0 1-.14.145h-2.04a.143.143 0 0 1-.14-.144V7.352a.14.14 0 0 1 .14-.141ZM78.723 11.379c-.375-.649-.563-.598-.559.156l.027 3.168c0 .121-.058.184-.183.184l-1.809-.004a.197.197 0 0 1-.195-.2l-.02-7.148c0-.223.114-.332.332-.332l1.579.02c.183 0 .328.078.43.234l2.32 3.52c.171.261.27.234.3-.075a24.95 24.95 0 0 0 .067-3.57.176.176 0 0 1 .05-.137.176.176 0 0 1 .145-.039c.637.117 1.215.117 1.738.004a.202.202 0 0 1 .168.043c.047.04.078.098.078.16l.004 7.18c0 .223-.11.336-.332.336l-1.535-.012a.543.543 0 0 1-.45-.219 32.276 32.276 0 0 1-2.155-3.27ZM17.23 11.016a7.953 7.953 0 0 1-.875 3.703l-1.585-.992c-.227-.137-.286-.329-.176-.57.238-.512.375-1.09.422-1.727.015-.246.148-.371.394-.38ZM6.734 18.176a7.502 7.502 0 0 1-3.37-3.074c.906.085 1.874-.293 2.898-1.133.187-.156.351-.13.484.082.324.523.727.945 1.203 1.273.23.156.274.356.133.598ZM14.04 17.426a7.394 7.394 0 0 1-3.583 1.367l.105-2.223c.012-.261.145-.414.403-.457.441-.07.86-.218 1.258-.445.46-.254.773-.129.937.375.137.426.43.887.88 1.383Zm0 0"/></svg>