<svg width="17" height="16" viewBox="0 0 17 16" fill="none" xmlns="http://www.w3.org/2000/svg">
<g clip-path="url(#clip0_1772_31603)">
<path d="M4.88542 5.64518H3.88542C3.44339 5.64518 3.01947 5.46959 2.70691 5.15703C2.39434 4.84447 2.21875 4.42054 2.21875 3.97852C2.21875 3.53649 2.39434 3.11256 2.70691 2.8C3.01947 2.48744 3.44339 2.31185 3.88542 2.31185H4.88542M4.88542 5.64518L4.88542 0.978516H12.8854V5.64518M4.88542 5.64518C4.88542 6.70605 5.30684 7.72346 6.05699 8.47361C6.80714 9.22376 7.82455 9.64518 8.88542 9.64518C9.94628 9.64518 10.9637 9.22376 11.7138 8.47361C12.464 7.72346 12.8854 6.70605 12.8854 5.64518M12.8854 5.64518H13.8854C14.3274 5.64518 14.7514 5.46959 15.0639 5.15703C15.3765 4.84447 15.5521 4.42054 15.5521 3.97852C15.5521 3.53649 15.3765 3.11256 15.0639 2.8C14.7514 2.48744 14.3274 2.31185 13.8854 2.31185H12.8854M3.55208 14.3118H14.2188M7.55208 9.41852V10.9785C7.55208 11.3452 7.23875 11.6318 6.90542 11.7852C6.11875 12.1452 5.55208 13.1385 5.55208 14.3118M10.2187 9.41852V10.9785C10.2187 11.3452 10.5321 11.6318 10.8654 11.7852C11.6521 12.1452 12.2188 13.1385 12.2188 14.3118" stroke="white" stroke-width="1.5" stroke-linecap="round" stroke-linejoin="round"/>
</g>
<defs>
<clipPath id="clip0_1772_31603">
<rect width="16" height="16" fill="white" transform="translate(0.882812)"/>
</clipPath>
</defs>
</svg>
