<svg width="299" height="87" viewBox="0 0 299 87" fill="none" xmlns="http://www.w3.org/2000/svg">
<path fill-rule="evenodd" clip-rule="evenodd" d="M85.3125 42.6869C85.3125 66.2622 66.2146 85.3738 42.6562 85.3738C19.0979 85.3738 0 66.2622 0 42.6869C0 19.1116 19.0979 0 42.6562 0C66.2146 0 85.3125 19.1116 85.3125 42.6869ZM60.693 42.2805L74.343 55.9403C76.0492 57.6477 76.0492 60.3309 74.343 62.0384L62.2367 74.1534C60.5305 75.8608 57.8492 75.8608 56.143 74.1534L42.493 60.4935L28.843 74.1534C27.1367 75.8608 24.4555 75.8608 22.7492 74.1534L10.643 62.0384C8.93672 60.3309 8.93672 57.6477 10.643 55.9403L24.293 42.2805L10.643 28.6206C8.93672 26.9132 8.93672 24.23 10.643 22.5225L22.7492 10.4076C24.4555 8.70008 27.1367 8.70008 28.843 10.4076L42.493 24.0674L56.143 10.4076C57.8492 8.70008 60.5305 8.70008 62.2367 10.4076L74.343 22.5225C76.0492 24.23 76.0492 26.9132 74.343 28.6206L60.693 42.2805Z" fill="white"/>
<path d="M74.343 55.9403L60.693 42.2805L74.343 28.6206C76.0492 26.9132 76.0492 24.23 74.343 22.5225L62.2367 10.4076C60.5305 8.70008 57.8492 8.70008 56.143 10.4076L42.493 24.0674L28.843 10.4076C27.1367 8.70008 24.4555 8.70008 22.7492 10.4076L10.643 22.5225C8.93672 24.23 8.93672 26.9132 10.643 28.6206L24.293 42.2805L10.643 55.9403C8.93672 57.6477 8.93672 60.3309 10.643 62.0384L22.7492 74.1534C24.4555 75.8608 27.1367 75.8608 28.843 74.1534L42.493 60.4935L56.143 74.1534C57.8492 75.8608 60.5305 75.8608 62.2367 74.1534L74.343 62.0384C76.0492 60.3309 76.0492 57.6477 74.343 55.9403Z" fill="#FF003A"/>
<path d="M278.688 0C267.475 0 258.375 9.10654 258.375 20.3271C258.375 31.5477 267.475 40.6542 278.688 40.6542C289.9 40.6542 299 31.5477 299 20.3271C299 9.10654 289.9 0 278.688 0ZM288.031 24.3925C288.519 24.8804 288.519 25.6935 288.031 26.1813L284.456 29.7589C283.969 30.2467 283.156 30.2467 282.669 29.7589L278.688 25.7748L274.706 29.7589C274.219 30.2467 273.406 30.2467 272.919 29.7589L269.344 26.1813C268.856 25.6935 268.856 24.8804 269.344 24.3925L273.325 20.4084L269.344 16.4243C268.856 15.9364 268.856 15.1234 269.344 14.6355L272.919 11.0579C273.406 10.5701 274.219 10.5701 274.706 11.0579L278.688 15.0421L282.669 11.0579C283.156 10.5701 283.969 10.5701 284.456 11.0579L288.031 14.6355C288.519 15.1234 288.519 15.9364 288.031 16.4243L284.05 20.4084L288.031 24.3925Z" fill="white"/>
<path d="M151.45 50.4111H162.825C163.312 50.4111 163.8 50.7364 163.962 51.2242L176.637 85.1298C176.962 85.9429 176.312 86.756 175.5 86.756H164.937C164.45 86.756 163.962 86.4308 163.8 85.9429L162.743 83.0158C162.581 82.528 162.093 82.2027 161.606 82.2027H152.668C152.181 82.2027 151.693 82.528 151.531 83.0158L150.475 85.9429C150.312 86.4308 149.825 86.756 149.337 86.756H138.856C138.043 86.756 137.393 85.9429 137.718 85.1298L150.312 51.1429C150.475 50.7364 150.962 50.4111 151.45 50.4111ZM159.575 73.9093C160.387 73.9093 160.956 73.0962 160.712 72.3644L157.218 61.5504H156.975L153.562 72.3644C153.318 73.1775 153.887 73.9093 154.7 73.9093H159.575Z" fill="white"/>
<path d="M182 50.4111H190.369C190.775 50.4111 191.1 50.5737 191.344 50.899L201.338 64.3962C201.825 65.0466 202.8 65.0466 203.287 64.3962L213.281 50.899C213.525 50.5737 213.85 50.4111 214.256 50.4111H222.544C223.194 50.4111 223.762 50.9803 223.762 51.6308V85.5364C223.762 86.1868 223.194 86.756 222.544 86.756H212.712C212.062 86.756 211.494 86.1868 211.494 85.5364V78.3812L211.575 70.9008H211.413L206.05 78.2186C205.806 78.5438 205.481 78.7065 205.075 78.7065H199.387C198.981 78.7065 198.656 78.5438 198.412 78.2186L193.05 70.8195L192.887 70.9008L192.969 78.3812V85.5364C192.969 86.1868 192.4 86.756 191.75 86.756H182C181.35 86.756 180.781 86.1868 180.781 85.5364V51.6308C180.781 50.899 181.269 50.4111 182 50.4111Z" fill="white"/>
<path d="M287.056 64.8025H275.438C275.438 64.8025 272.919 64.9651 272.919 62.7698C272.919 60.5744 275.438 60.5745 275.438 60.5745H297.781C298.431 60.5745 299 60.0053 299 59.3548V51.5492C299 50.8987 298.431 50.3296 297.781 50.3296H274.706C268.775 50.3296 262.681 50.3296 262.681 62.3632C262.681 73.2586 268.531 72.2829 274.544 72.2829H286.163C286.163 72.2829 288.762 72.2829 288.762 74.3156C288.762 76.3483 286.244 76.4296 286.244 76.4296H257.075C257.075 76.4296 257.075 76.4296 256.994 76.4296H238.062V73.5025C238.062 72.852 238.631 72.2829 239.281 72.2829H250.981C251.631 72.2829 252.2 71.7137 252.2 71.0632V65.8595C252.2 65.209 251.631 64.6399 250.981 64.6399H238.062V61.7941C238.062 61.1436 238.631 60.5745 239.281 60.5745H256.994C257.644 60.5745 258.212 60.0053 258.212 59.3548V51.5492C258.212 50.8987 257.644 50.3296 256.994 50.3296H229.125C228.475 50.3296 227.906 50.8987 227.906 51.5492V85.4549C227.906 86.1054 228.475 86.6745 229.125 86.6745H254.881H257.075H286.975C293.15 86.6745 298.919 86.6745 298.919 74.6408C299 63.8268 292.825 64.8025 287.056 64.8025Z" fill="white"/>
<path d="M204.425 39.7601L197.6 28.3769C197.275 27.889 196.788 27.5638 196.219 27.5638H192.562C191.669 27.5638 190.938 28.2956 190.938 29.19V38.8657C190.938 39.76 190.206 40.4918 189.312 40.4918H179.969C179.075 40.4918 178.344 39.76 178.344 38.8657V1.70771C178.344 0.81332 179.075 0.081543 179.969 0.081543H203.206C212.55 0.081543 217.262 6.99276 217.262 13.8227C217.262 18.5386 215.069 23.2544 210.681 25.775C210.6 25.8563 210.519 26.0189 210.6 26.1002L217.506 38.1339C218.156 39.1909 217.344 40.5731 216.044 40.5731H205.806C205.238 40.5731 204.75 40.3292 204.425 39.7601ZM190.938 18.0507C190.938 18.132 191.019 18.2133 191.1 18.2133H200.281C203.369 18.2133 204.912 16.018 204.912 13.8227C204.912 11.6273 203.369 9.43201 200.281 9.43201H192.562C191.669 9.43201 190.938 10.1638 190.938 11.0582V18.0507Z" fill="white"/>
<path d="M252.202 19.7579C252.12 19.6766 252.12 19.6766 252.12 19.5953C252.12 19.514 252.12 19.514 252.202 19.4327C254.152 17.4 255.289 14.1477 255.289 10.8953C255.289 3.33364 250.414 0 245.539 0H223.195C222.058 0 221.164 0.894393 221.164 2.03271V38.6215C221.164 39.7598 222.058 40.6542 223.195 40.6542H245.539C252.933 40.6542 256.264 34.6374 256.264 29.1084C256.264 25.2869 254.72 21.872 252.202 19.7579ZM241.152 17.0748H232.377V10.4888C232.377 9.83832 232.945 9.26916 233.595 9.26916H241.152C243.995 9.26916 245.295 11.2206 245.295 13.172C245.295 15.1234 243.995 17.0748 241.152 17.0748ZM233.595 24.2299H241.152C243.995 24.2299 245.295 26.1813 245.295 28.1327C245.295 30.0028 243.995 32.0355 241.152 32.0355H232.377V25.4495C232.377 24.7991 232.945 24.2299 233.595 24.2299Z" fill="white"/>
<path d="M134.226 64.9658H121.063C120.007 64.9658 119.195 65.7789 119.195 66.8359V71.3892C119.195 72.4462 120.007 73.2593 121.063 73.2593H125.451C125.613 73.2593 125.776 73.4219 125.776 73.5845V75.9424C125.776 76.0238 125.695 76.1864 125.613 76.2677C124.395 76.9181 123.013 77.2434 121.226 77.2434H120.982C117.163 77.2434 115.213 77.1621 113.426 77.0808C109.688 76.8368 106.926 73.3406 106.926 68.7873V68.706C106.926 64.8032 109.363 61.5509 113.101 60.4938C113.995 60.2499 128.376 60.1686 133.82 60.2499C134.713 60.2499 135.363 59.5181 135.363 58.7051C135.363 56.3471 135.363 52.1191 135.363 52.1191C135.363 51.2247 134.632 50.5742 133.82 50.5742C128.295 50.5742 113.345 50.5742 113.02 50.6555C103.107 51.3873 95.957 59.0303 95.957 68.706V68.7873C95.957 79.4387 101.32 86.0245 110.663 86.7563C111.07 86.7563 114.157 86.8376 118.87 86.8376C120.738 86.8376 122.201 86.8376 122.445 86.8376C122.607 86.8376 122.77 86.8376 123.013 86.8376C127.97 86.8376 135.607 81.8778 136.176 80.4144C136.257 80.2518 136.176 66.9985 136.176 66.9985C136.095 65.7789 135.282 64.9658 134.226 64.9658Z" fill="white"/>
<path d="M129.187 0H98.2305C97.3367 0 96.6055 0.731776 96.6055 1.62617V10.8953C96.6055 11.7897 97.3367 12.5215 98.2305 12.5215H105.787C106.68 12.5215 107.412 13.2533 107.412 14.1477V39.028C107.412 39.9224 108.143 40.6542 109.037 40.6542H118.299C119.193 40.6542 119.924 39.9224 119.924 39.028V14.229C119.924 13.3346 120.655 12.6028 121.549 12.6028H129.105C129.999 12.6028 130.73 11.871 130.73 10.9766V1.62617C130.812 0.731776 130.08 0 129.187 0Z" fill="white"/>
<path d="M163.069 0.081543C162.175 0.081543 161.444 0.81332 161.444 1.70771V26.5881C161.444 28.2956 160.794 28.946 159.006 28.946H150.15C148.363 28.946 147.713 28.2956 147.713 26.5881V1.70771C147.713 0.81332 146.981 0.081543 146.088 0.081543H136.5C135.606 0.081543 134.875 0.81332 134.875 1.70771V28.2143C134.875 32.5236 135.931 35.6946 137.963 37.646C139.994 39.6787 143.325 40.6544 147.713 40.6544H161.281C165.669 40.6544 169 39.5974 171.031 37.646C173.062 35.6133 174.119 32.4423 174.119 28.2143V1.70771C174.119 0.81332 173.388 0.081543 172.494 0.081543H163.069Z" fill="white"/>
</svg>
