<?xml version="1.0" standalone="no"?>
<!DOCTYPE svg PUBLIC "-//W3C//DTD SVG 20010904//EN"
 "http://www.w3.org/TR/2001/REC-SVG-20010904/DTD/svg10.dtd">
<svg version="1.0" xmlns="http://www.w3.org/2000/svg"
 width="700.000000pt" height="700.000000pt" viewBox="0 0 700.000000 700.000000"
 preserveAspectRatio="xMidYMid meet">
<metadata>
Created by potrace 1.14, written by Peter Selinger 2001-2017
</metadata>
<g transform="translate(0.000000,700.000000) scale(0.100000,-0.100000)"
fill="#000000" stroke="none">
<path d="M4316 5864 c-13 -12 -16 -510 -3 -531 5 -8 89 -11 298 -12 160 0 293
-2 296 -4 2 -3 -192 -201 -431 -440 -240 -240 -436 -438 -436 -441 0 -3 21
-20 48 -38 26 -17 52 -37 59 -43 7 -5 36 -30 65 -55 172 -144 299 -375 344
-625 9 -53 10 -245 1 -318 -33 -271 -190 -544 -405 -705 -20 -15 -39 -29 -42
-33 -3 -3 -32 -21 -65 -41 -122 -73 -266 -122 -419 -142 -27 -4 -56 -11 -65
-16 -9 -5 -115 -108 -236 -229 -149 -150 -216 -224 -209 -231 9 -9 42 -16 159
-35 22 -4 119 -8 215 -10 142 -3 194 0 275 15 457 88 829 339 1080 729 103
159 194 400 221 581 3 19 8 46 10 60 10 45 12 338 4 377 -5 21 -11 61 -14 88
-16 151 -107 396 -204 553 -29 46 -52 89 -52 96 0 11 490 506 501 506 3 0 4
-133 4 -295 -1 -226 2 -298 11 -306 8 -7 104 -9 276 -7 l263 3 3 769 c1 531
-1 773 -8 780 -16 16 -1529 16 -1544 0z"/>
<path d="M3380 5089 c-96 -8 -163 -17 -220 -30 -25 -6 -52 -12 -60 -14 -179
-40 -459 -182 -611 -311 -64 -54 -196 -189 -244 -249 -183 -227 -304 -523
-332 -810 -12 -121 -5 -418 11 -443 2 -4 7 -25 10 -47 23 -145 100 -342 196
-501 28 -46 50 -89 50 -96 0 -19 -163 -178 -182 -178 -9 0 -114 99 -235 221
-120 121 -226 225 -235 230 -14 8 -48 -21 -193 -166 -156 -157 -174 -178 -164
-196 6 -11 109 -119 230 -240 120 -120 219 -225 219 -232 0 -6 -153 -165 -340
-352 -187 -187 -340 -344 -340 -350 0 -5 86 -95 190 -199 l190 -190 346 347
c191 191 351 347 355 347 4 0 112 -103 239 -230 126 -126 236 -230 243 -230
14 0 357 340 357 354 0 5 -96 105 -212 221 -117 117 -224 224 -236 238 l-24
25 281 280 280 280 -87 65 c-188 140 -307 301 -381 510 -29 84 -35 104 -46
172 -39 231 -2 476 103 680 32 62 88 148 117 182 192 220 438 359 685 389 30
4 64 10 75 14 22 9 465 446 465 460 0 8 -25 14 -120 31 -125 21 -260 28 -380
18z"/>
</g>
</svg>
