<svg width="36" height="39" viewBox="0 0 36 39" fill="none" xmlns="http://www.w3.org/2000/svg">
<path fill-rule="evenodd" clip-rule="evenodd" d="M28.6716 6.72034H12.9023V0H35.3616V22.5612H28.6716V6.72034Z" fill="#4A6DFF"/>
<path fill-rule="evenodd" clip-rule="evenodd" d="M16.3534 20.0926C15.3318 19.4069 14.1308 19.0409 12.9021 19.0409V12.3206C15.4539 12.3206 17.9484 13.0807 20.0702 14.5048C22.1919 15.929 23.8456 17.9531 24.8221 20.3214C25.7987 22.6896 26.0542 25.2956 25.5563 27.8097C25.0585 30.3239 23.8297 32.6332 22.0253 34.4458C20.2209 36.2584 17.922 37.4928 15.4192 37.9929C12.9164 38.4929 10.3222 38.2363 7.96468 37.2553C5.60712 36.2743 3.59209 34.6131 2.17439 32.4818C0.756687 30.3504 -4.86098e-06 27.8446 0 25.2812L6.68999 25.2812C6.68999 26.5154 7.05432 27.7219 7.73692 28.7481C8.41952 29.7744 9.38972 30.5742 10.5248 31.0465C11.66 31.5188 12.909 31.6424 14.114 31.4016C15.3191 31.1609 16.426 30.5665 17.2948 29.6938C18.1635 28.8211 18.7552 27.7092 18.9949 26.4987C19.2346 25.2881 19.1116 24.0334 18.6414 22.8932C18.1712 21.7529 17.375 20.7783 16.3534 20.0926Z" fill="#2EB9FF"/>
</svg>
