<svg xmlns="http://www.w3.org/2000/svg" xmlns:xlink="http://www.w3.org/1999/xlink" viewBox="0 0 2000 573"><defs/><defs><linearGradient id="a" x1="-2659.47" x2="-2834.67" y1="-7030.39" y2="-6901.53" gradientTransform="matrix(1 0 0 -1 3105.15 -6834.45)" gradientUnits="userSpaceOnUse"><stop offset="0" stop-color="#da001f"/><stop offset=".04" stop-color="#da001f" stop-opacity=".94"/><stop offset=".31" stop-color="#da001f" stop-opacity=".61"/><stop offset=".54" stop-color="#da001f" stop-opacity=".35"/><stop offset=".75" stop-color="#da001f" stop-opacity=".16"/><stop offset=".9" stop-color="#da001f" stop-opacity=".04"/><stop offset="1" stop-color="#da001f" stop-opacity="0"/></linearGradient><linearGradient id="b" x1="-12090.78" x2="-12266.42" y1="5247.25" y2="5376.44" gradientTransform="matrix(0 -1 -1 0 5467.4 -11897.66)" xlink:href="#a"/><linearGradient id="c" x1="-6985.92" x2="-7161.56" y1="10021.14" y2="10150.33" gradientTransform="matrix(-1 0 0 1 -6768.59 -9620.9)" xlink:href="#a"/><linearGradient id="d" x1="-2212.12" x2="-2387.76" y1="4916.98" y2="5046.17" gradientTransform="matrix(0 1 1 0 -4491.29 2615.03)" xlink:href="#a"/></defs><path fill="#fff" d="M211.73 288.78c1.69 1.73 29.48 29.48 29.48 29.48h80.21v80.26l42-42.08v-38.18h38.23v-34.74h-38.16V179.04l-21-20.94zm109.73-5.26h-47.29l47.29-47.29zm34.78-100.63z"/><path fill="url(#a)" d="M406 193.68l66.66 72.93 36.93-85-18.8 2.16c-36-58.53-87.12-79.51-120.77-88.34-60.26-15.81-114.57 4.75-130.29 12.66a182 182 0 01117.54 17.55c30 15.48 53.58 36.42 72.91 65.15z"/><path fill="url(#b)" d="M231 202.6l72.92-66.66L218.91 99l2.16 18.8c-58.52 36-79.5 87.12-88.33 120.77-15.81 60.26 4.74 114.57 12.65 130.29A182 182 0 01163 251.33c15.48-30 36.41-53.58 65.15-72.91z"/><path fill="url(#c)" d="M239.57 377.45l-66.67-72.93-36.92 85 18.8-2.17c36 58.53 87.12 79.51 120.77 88.34 60.26 15.81 114.57-4.75 130.29-12.66a182 182 0 01-117.55-17.55c-30-15.48-53.58-36.41-72.9-65.15z"/><path fill="url(#d)" d="M415.66 368.74l-72.93 66.66 85 36.92-2.17-18.79c58.53-36 79.51-87.13 88.34-120.78 15.81-60.26-4.75-114.57-12.66-130.29A182.07 182.07 0 01483.72 320c-15.48 30-36.42 53.58-65.15 72.9z"/><path fill="#fff" d="M595.19 220.32h-54.31v-17.49h127.48v17.49h-54.31v150.43h-18.86zm229.5-17.49v167.92h-18.86V293.5h-85.21v77.25h-19.09V202.83h19.09v72.94h85.21v-72.94zM973.51 353v17.73H872.4v-167.9H971v17.49h-79.74v55.45h76.35v17.73h-76.35V353zm138.19-143.58q15 6.59 23.18 19.09t8.18 29.54q0 28.17-18.86 42.48t-52.49 14.32h-15.45v55.9h-36.13V202.83h56.58q20 0 34.99 6.59zm-14.31 67.94q8.17-5.69 8.18-19.31 0-12-7.39-17.38t-22.61-5.34h-19.31V283h15.45q17.51 0 25.68-5.64zm169.97 60.9v32.49h-95.21V202.83h36.13v135.43zm124.92 3.63h-58.4l-11.81 28.86h-38.63l77.93-170.87h4.78l77.71 170.87h-39.54zM1363 266.23l-18.86 46.12h37.94zm219.7-63.4l-62.27 105v62.95h-35.9v-61.61l-62.48-106.34h43.4l37.49 69.76 37.49-69.76zm127.02 135.43v32.49h-107.94V202.83h105.43v32.5h-69.76v32.48h66.35v32.05h-66.35v38.4zm120.42 32.49L1779 293v77.71h-36.13V202.83h61.58q30.45 0 47.6 13.41t17.16 39.54q0 20.22-11.13 32.49t-31.82 16.36l46.81 66.12zm-33.86-90.44q18.63 0 27.16-5.45t8.51-17.49q0-11.37-7.49-17.05t-23.41-5.68h-22v45.67zm-195.5 201.29a6.12 6.12 0 010-8.57 6 6 0 014.42-1.76 5.84 5.84 0 014.31 1.76 6.1 6.1 0 010 8.57 6 6 0 01-4.31 1.71 6.13 6.13 0 01-4.42-1.71zm38.28-3.6a36.89 36.89 0 01-13.63-14.43 46.12 46.12 0 01.06-41.89 36.5 36.5 0 0113.84-14.33 38.34 38.34 0 0119.65-5.11 39.54 39.54 0 0116.77 3.41 33.9 33.9 0 0112.51 9.79l-6.39 6a25.71 25.71 0 00-9.74-7.93 30.2 30.2 0 00-12.94-2.72 29.22 29.22 0 00-15.23 4 28 28 0 00-10.54 11.28 38.18 38.18 0 00-.05 33.23 28.83 28.83 0 0038.71 12.19 30.22 30.22 0 0010.22-9.05l6.39 5.54a32.73 32.73 0 01-12.89 11.34 39.27 39.27 0 01-17.67 3.89 36.39 36.39 0 01-19.07-5.21zm77.32.35a37.22 37.22 0 01-14.06-14.27 46.45 46.45 0 010-42.75 37.18 37.18 0 0114.06-14.33 39.31 39.31 0 0138.55 0 37.58 37.58 0 0114.07 14.33 46 46 0 010 42.75 37.63 37.63 0 01-14.11 14.27 39.24 39.24 0 01-38.55 0zm34.08-7.45a28.28 28.28 0 0010.7-11.18 38.38 38.38 0 000-34.08 29.25 29.25 0 00-40.31-11.24 28.38 28.38 0 00-10.65 11.24 38.82 38.82 0 000 34.08 28 28 0 0010.65 11.18 30.12 30.12 0 0029.61 0zm110.21 11.1l-9.67-54.92-23.21 55.06h-1.6L1803 427.19l-10 54.84h-9l14.59-80h2.13l26.19 62.5 26.2-62.5h2.23l14.27 80z"/></svg>
