<svg width="341" height="114" viewBox="0 0 341 114" fill="none" xmlns="http://www.w3.org/2000/svg">
<path d="M242.213 72.4161V40.9416C242.213 40.4598 242.534 40.1387 243.016 40.1387H249.278C249.439 40.1387 249.76 40.2993 249.921 40.4598L265.016 58.6059V40.9416C265.016 40.4598 265.337 40.1387 265.819 40.1387H273.045C273.527 40.1387 273.848 40.4598 273.848 40.9416V72.4161C273.848 72.8978 273.527 73.219 273.045 73.219H266.782C266.622 73.219 266.3 73.0584 266.14 72.8978L251.045 54.7518V72.4161C251.045 72.8978 250.724 73.219 250.242 73.219H243.176C242.534 73.219 242.213 72.7373 242.213 72.4161Z" fill="#A6CE39"/>
<path d="M280.432 72.4161V40.9416C280.432 40.4598 280.753 40.1387 281.235 40.1387H305.483C305.965 40.1387 306.286 40.4598 306.286 40.9416V46.4015C306.286 46.8832 305.965 47.2044 305.483 47.2044H289.264V53.3066H303.395C303.877 53.3066 304.198 53.6277 304.198 54.1095V59.0876C304.198 59.5694 303.877 59.8905 303.395 59.8905H289.264V66.4745H306.125C306.607 66.4745 306.928 66.7956 306.928 67.2774V72.7373C306.928 73.219 306.607 73.5402 306.125 73.5402H281.235C280.753 73.219 280.432 72.7373 280.432 72.4161Z" fill="#A6CE39"/>
<path d="M320.417 72.4161V47.2044H310.943C310.461 47.2044 310.14 46.8832 310.14 46.4015V40.9416C310.14 40.4598 310.461 40.1387 310.943 40.1387H338.885C339.366 40.1387 339.687 40.4598 339.687 40.9416V46.4015C339.687 46.8832 339.366 47.2044 338.885 47.2044H329.41V72.4161C329.41 72.8978 329.089 73.219 328.607 73.219H321.22C320.738 73.219 320.417 72.7373 320.417 72.4161Z" fill="#A6CE39"/>
<path d="M40.8401 68.8835C48.2013 68.8835 54.1686 62.9162 54.1686 55.555C54.1686 48.1939 48.2013 42.2266 40.8401 42.2266C33.479 42.2266 27.5117 48.1939 27.5117 55.555C27.5117 62.9162 33.479 68.8835 40.8401 68.8835Z" fill="#A6CE39"/>
<path fill-rule="evenodd" clip-rule="evenodd" d="M62.1979 65.9934C61.8767 66.154 61.395 65.8328 61.7161 65.5116C68.4607 57.643 70.7088 48.3291 66.6942 41.424C61.7161 32.9131 48.8694 31.1466 36.3438 35.643C23.0153 40.4605 14.3438 50.5773 16.1102 60.8547C19.6431 81.7307 61.0738 79.9642 75.5264 78.8401C76.0081 78.8401 76.0081 79.4825 75.687 79.4825C38.592 87.9934 5.83284 82.8547 1.01531 64.227C-3.64163 46.2415 23.1759 35.8036 35.2197 32.5919C51.7599 28.2561 72.957 28.4167 77.2928 40.4605C80.1833 48.1686 73.7599 58.1248 62.1979 65.9934Z" fill="#A6CE39"/>
<path d="M88.0519 72.0949L102.023 40.6204C102.183 40.2993 102.504 40.1387 102.826 40.1387H110.694C111.015 40.1387 111.337 40.2993 111.497 40.6204L125.468 72.0949C125.629 72.5767 125.307 73.219 124.665 73.219H117.118C116.796 73.219 116.475 73.0584 116.315 72.7373L113.906 66.7956H99.2928L96.884 72.7373C96.7235 73.0584 96.4023 73.219 96.0811 73.219H88.6942C88.2125 73.219 87.8913 72.5767 88.0519 72.0949ZM111.337 60.2117L106.519 48.3285L101.702 60.2117H111.337Z" fill="#A6CE39"/>
<path d="M128.84 72.4161V40.9416C128.84 40.4598 129.162 40.1387 129.643 40.1387H135.745C136.067 40.1387 136.227 40.2993 136.388 40.4598L147.95 59.7299L159.512 40.4598C159.673 40.2993 159.833 40.1387 160.154 40.1387H166.256C166.738 40.1387 167.059 40.4598 167.059 40.9416V72.4161C167.059 72.8978 166.738 73.219 166.256 73.219H159.673C159.191 73.219 158.87 72.8978 158.87 72.4161V54.5912L150.037 69.5256C149.877 69.6862 149.716 69.8467 149.395 69.8467H146.344C146.023 69.8467 145.862 69.6862 145.702 69.5256L136.87 55.073V72.4161C136.87 72.8978 136.548 73.219 136.067 73.219H129.483C129.162 73.219 128.84 72.7373 128.84 72.4161Z" fill="#A6CE39"/>
<path d="M189.541 73.8614C184.724 73.8614 180.87 72.5767 178.14 69.8467C175.41 67.1168 174.125 63.4234 174.125 58.4453V40.9416C174.125 40.4598 174.446 40.1387 174.928 40.1387H182.315C182.797 40.1387 183.118 40.4598 183.118 40.9416V58.1241C183.118 63.7445 185.205 66.4745 189.702 66.4745C194.198 66.4745 196.446 63.584 196.446 58.1241V40.9416C196.446 40.4598 196.767 40.1387 197.249 40.1387H204.476C204.957 40.1387 205.278 40.4598 205.278 40.9416V58.4453C205.278 63.2628 203.833 67.1168 201.264 69.8467C198.213 72.4161 194.359 73.8614 189.541 73.8614Z" fill="#A6CE39"/>
<path d="M223.103 73.8607C220.373 73.8607 217.804 73.5395 215.235 72.8972C213.147 72.4154 211.22 71.6125 209.775 70.8096C209.454 70.649 209.293 70.1673 209.454 69.8461L211.702 64.7074C211.702 64.5468 211.862 64.3862 212.183 64.3862C212.505 64.2256 212.665 64.3862 212.826 64.3862C214.11 65.1891 215.556 65.6709 217.162 66.1526C219.089 66.795 221.176 67.1162 223.103 67.1162C226.957 67.1162 228.884 66.1526 228.884 64.0651C228.884 63.2621 228.563 62.2986 227.118 61.6563C225.994 61.1745 224.388 60.6928 221.979 60.211C219.41 59.7293 217.322 59.0869 215.716 58.4446C214.11 57.8023 212.665 56.8388 211.541 55.5541C210.417 54.2694 209.775 52.503 209.775 50.2548C209.775 48.3278 210.256 46.4008 211.381 44.9555C212.505 43.3497 214.11 42.065 216.198 41.1015C218.446 40.138 221.016 39.6562 224.227 39.6562C226.475 39.6562 228.563 39.9774 230.651 40.4592C232.417 40.9409 234.023 41.4227 235.468 42.2256C235.789 42.3862 235.95 42.8679 235.789 43.1891L233.702 48.3278C233.702 48.4884 233.541 48.649 233.22 48.8096C232.899 48.8096 232.738 48.8096 232.738 48.8096C229.848 47.3643 227.118 46.722 224.227 46.722C222.3 46.722 220.855 47.0431 219.892 47.6855C218.928 48.3278 218.446 49.1307 218.446 50.0942C218.446 50.7366 218.767 51.7001 220.213 52.3424C221.176 52.8242 222.943 53.3059 225.191 53.7877C227.76 54.2694 229.848 54.9118 231.454 55.5541C233.059 56.1964 234.505 57.1599 235.629 58.4446C236.753 59.7293 237.395 61.4957 237.395 63.7439C237.395 65.6709 236.913 67.4373 235.789 69.0432C234.665 70.649 233.059 71.9337 230.811 72.8972C229.045 73.3789 226.315 73.8607 223.103 73.8607Z" fill="#A6CE39"/>
</svg>
