<svg height="48" width="302" xmlns="http://www.w3.org/2000/svg"><g fill="none"><path d="m31.977 31.85-.814-.588a10.593 10.593 0 0 0 1.801-3.052c.436-1.125.64-2.276.669-3.427l1.075.027v.187a11.293 11.293 0 0 1 -2.731 6.853zm-10.562 4.326.13-.691a12.98 12.98 0 0 0 3.363-.063c1.139-.167 2.2-.502 3.157-.921l.44.628a13.338 13.338 0 0 1 -5.072 1.13c-.698.022-1.37 0-2.018-.083zm-8.861-6.69.787-.286a9.17 9.17 0 0 0 1.844 2.639 10.98 10.98 0 0 0 2.686 1.996l-.461.666c-2.143-1.165-3.88-2.924-4.856-5.015zm1.222-11.77.55.515c-.596.893-1.077 1.95-1.42 3.086a12.812 12.812 0 0 0 -.528 3.466h-.71v-.19c.091-2.599.848-4.954 2.108-6.877zm9.17-3.528c.68-.022 1.36.023 2.014.09l-.104.624a12.476 12.476 0 0 0 -3.401.067 12.057 12.057 0 0 0 -3.192.98l-.392-.601a13.134 13.134 0 0 1 5.075-1.16zm10.876 6.679-.9.383a10.759 10.759 0 0 0 -1.799-3.037 11.03 11.03 0 0 0 -2.618-2.299l.476-.848c2.169 1.34 3.862 3.393 4.84 5.8zm-3.066 3.53h-14.727c-.158.552-.158.627-.158 1.28 0 .703.052 1.08.263 1.733h14.49c-.974 3.089-3.978 5.324-7.534 5.324-4.347 0-7.878-3.365-7.878-7.509s3.53-7.509 7.878-7.509c3.609 0 6.639 2.31 7.587 5.45h3.847c.079.402.158.828.184 1.23h-3.952zm15.42 22.644-17.794-46.308c-.156-.38-.598-.685-1.013-.685h-8.209c-.416 0-.857.305-1.013.685l-17.95 46.333c-.156.381.077.686.467.686h10.573c.416 0 .961-.254 1.22-.559 0 0 5.742-6.673 10.807-6.673 5.066 0 10.807 6.673 10.807 6.673.26.305.831.559 1.22.559h10.392c.441-.026.649-.33.493-.71z" fill="#76a040"/><path d="m189.13 16.134c2.087 0 3.734.424 4.996 1.328 1.262.797 2.14 2.124 2.689 3.93l-4.446.797c-.164-.85-.494-1.54-1.043-1.966-.549-.425-1.207-.69-2.085-.69-1.153 0-2.031.372-2.69 1.116-.658.743-.988 2.018-.988 3.824 0 1.965.33 3.4 1.043 4.196.714.797 1.592 1.222 2.744 1.222.824 0 1.593-.266 2.086-.69.549-.479.933-1.276 1.153-2.444l4.445.743c-.494 1.966-1.372 3.453-2.69 4.515-1.316 1.01-3.073 1.54-5.268 1.54-2.524 0-4.555-.743-6.038-2.336-1.481-1.54-2.25-3.665-2.25-6.374 0-2.763.769-4.887 2.25-6.428 1.537-1.54 3.514-2.283 6.093-2.283zm-101.702.318v7.65c0 2.336.11 3.77.274 4.302.165.53.494.955.933 1.275.44.318.988.477 1.647.477a3.96 3.96 0 0 0 2.085-.584c.604-.425 1.043-.903 1.263-1.54.22-.584.33-2.125.33-4.462v-7.01h4.555v16.625l-4.227-.053v-2.496c-.603.903-1.427 1.593-2.47 2.124-.987.532-2.085.744-3.238.744a6.78 6.78 0 0 1 -3.128-.744c-.933-.478-1.592-1.168-1.976-2.072-.384-.903-.604-2.124-.604-3.664v-10.57h4.556zm48.683-.318c2.525 0 4.556.796 6.038 2.443 1.482 1.646 2.195 4.143 2.086 7.543h-11.417c.055 1.328.385 2.336 1.098 3.027.714.744 1.592 1.116 2.635 1.116.713 0 1.317-.16 1.81-.584.495-.426.879-1.063 1.099-1.86l4.555.744c-.604 1.593-1.537 2.815-2.744 3.665-1.263.85-2.854 1.275-4.72 1.275-2.964 0-5.215-.957-6.642-2.816-1.152-1.54-1.701-3.399-1.701-5.736 0-2.762.768-4.887 2.25-6.48 1.482-1.54 3.348-2.337 5.653-2.337zm-29.748-5.525v5.896l3.074-.053v3.506h-3.129v6.693c0 1.38.055 2.178.11 2.39s.165.372.384.531c.22.16.494.213.769.213.384 0 1.043-.16 1.811-.425l.384 3.4c-1.097.424-2.25.69-3.567.69-.824 0-1.592-.107-2.196-.372-.658-.266-1.152-.584-1.427-1.062-.33-.425-.549-1.01-.603-1.7-.11-.531-.165-1.54-.165-3.134v-7.277h-2.086v-3.453h2.086v-3.292l4.555-2.55zm63.283 0v5.896l3.129-.053v3.506h-3.129v6.693c0 1.38.055 2.178.11 2.39s.165.372.384.531c.22.16.494.213.769.213.384 0 1.043-.16 1.811-.425l.384 3.4c-1.097.424-2.25.69-3.567.69-.824 0-1.592-.107-2.196-.372-.658-.266-1.152-.584-1.427-1.062-.33-.425-.549-1.01-.604-1.7-.11-.531-.164-1.54-.164-3.134v-7.277h-2.14v-3.453h2.085v-3.292l4.555-2.55zm-13.501 5.63c.988 0 1.92.16 2.744.532a4.48 4.48 0 0 1 1.866 1.327c.44.532.714 1.169.878 1.86.165.69.275 1.7.275 2.975v10.197h-4.556v-8.499c0-1.806-.11-2.975-.274-3.452a2.148 2.148 0 0 0 -.933-1.222c-.44-.319-.988-.425-1.592-.425-.768 0-1.482.213-2.086.638-.603.424-1.097.955-1.317 1.7-.22.69-.33 1.965-.33 3.824v7.542h-4.555v-16.626h4.226v2.444c1.537-1.913 3.403-2.816 5.654-2.816zm-40.726-6.161v.053h.055v8.446c1.482-1.646 3.239-2.497 5.27-2.497 1.042 0 1.975.16 2.853.585.824.371 1.482.85 1.867 1.434.439.584.713 1.222.878 1.965.164.69.22 1.806.22 3.293v9.774h-4.556v-8.764c0-1.753-.11-2.869-.275-3.347-.164-.477-.494-.85-.933-1.115-.439-.266-.988-.425-1.646-.425-.769 0-1.427.159-2.031.531a3.204 3.204 0 0 0 -1.317 1.594c-.275.69-.385 1.752-.385 3.187v8.34h-4.555v-23.055h4.555zm63.393 6.374v16.626h-4.555v-16.626zm-106.23-6.852 9.387 22.892h-5.184l-2.02-5.246h-9.441l-1.965 5.246h-5.02l9.222-22.892h5.02zm63.804 9.88c-.988 0-1.811.318-2.47 1.062-.659.69-.988 1.647-.933 2.868h6.75v-.052c-.054-1.276-.383-2.232-.987-2.87-.659-.69-1.427-1.008-2.36-1.008zm-66.423-4.634-3.22 8.532h6.494zm108.85-4.715v4.09h-4.556v-4.09h4.555z" fill="#fff"/><path d="m294.017 16.027c2.032 0 3.733.797 4.995 2.39v-1.965h2.69v14.395c0 2.603-.275 4.409-.824 5.524-.549 1.063-1.427 1.912-2.58 2.55-1.207.637-2.634.956-4.39.956-2.031 0-3.733-.478-4.994-1.328-1.154-.956-1.757-2.284-1.702-4.09l2.854.371c.11.85.439 1.488.988 1.86.713.53 1.702.796 2.963.796 1.372 0 2.415-.265 3.13-.796.712-.532 1.206-1.275 1.48-2.178.166-.584.22-1.753.22-3.612-1.262 1.488-2.854 2.178-4.775 2.178-2.36 0-4.171-.797-5.488-2.443-1.317-1.647-1.976-3.612-1.976-5.95 0-1.593.274-3.028.878-4.408.604-1.328 1.428-2.39 2.58-3.135 1.152-.743 2.47-1.115 3.951-1.115zm-64.161.106c1.482 0 2.635.16 3.568.478.933.32 1.591.744 2.03 1.275.385.478.714 1.169.933 1.913.11.478.165 1.327.165 2.602v3.772c0 2.602.055 4.249.165 4.94.11.69.384 1.38.713 2.018h-3.128c-.274-.637-.494-1.275-.604-2.072-1.098.903-2.086 1.54-3.128 1.913-.988.371-2.086.53-3.239.53-1.866 0-3.348-.477-4.336-1.327-.988-.903-1.536-2.019-1.536-3.4 0-.796.164-1.54.548-2.23.385-.691.879-1.222 1.537-1.594a8.176 8.176 0 0 1 2.086-.903c.549-.16 1.427-.266 2.58-.425 2.36-.266 4.116-.584 5.214-.956 0-.372.055-.638.055-.744 0-1.168-.274-1.965-.823-2.443-.77-.638-1.867-.956-3.293-.956-1.373 0-2.416.265-3.02.69-.658.478-1.152 1.275-1.427 2.444l-2.854-.372c.275-1.169.714-2.125 1.318-2.869.603-.743 1.427-1.274 2.58-1.7 1.152-.371 2.414-.584 3.896-.584zm-20.033-6.373c1.702 0 3.293.265 4.665.796s2.47 1.275 3.293 2.23c.769.957 1.372 2.232 1.811 3.773l-2.853.743c-.33-1.168-.769-2.125-1.318-2.762-.548-.69-1.317-1.168-2.25-1.593a9.289 9.289 0 0 0 -3.293-.585c-1.428 0-2.69.213-3.733.638-1.042.424-1.865.955-2.524 1.7-.604.69-1.153 1.434-1.537 2.284a11.793 11.793 0 0 0 -.933 4.62c0 2.02.384 3.772 1.098 5.153.713 1.381 1.81 2.39 3.183 3.08 1.372.691 2.854 1.01 4.446 1.01 1.372 0 2.689-.266 3.951-.743 1.318-.532 2.251-1.063 2.965-1.594v-4.25h-6.971v-.159h.055v-2.656l10.044-.053v8.552c-1.537 1.168-3.128 2.071-4.775 2.656-1.647.584-3.348.903-5.05.903-2.305 0-4.445-.478-6.366-1.488-1.921-.955-3.349-2.39-4.337-4.196-.987-1.806-1.426-3.878-1.426-6.108s.493-4.303 1.426-6.268c.988-1.965 2.36-3.4 4.172-4.302 1.811-.956 3.897-1.381 6.257-1.381zm47.53 6.267c1.702 0 3.02.478 3.953 1.38.933.904 1.372 2.339 1.372 4.25v11.42h-2.91v-10.463c0-1.114-.109-1.964-.274-2.442-.164-.479-.548-.904-1.042-1.17-.494-.318-1.043-.477-1.757-.477-1.207 0-2.195.371-3.018 1.168-.769.797-1.208 2.019-1.208 3.772v9.667h-2.909v-10.837c0-1.275-.274-2.178-.713-2.815-.494-.637-1.263-.956-2.306-.956-.823 0-1.591.212-2.25.637-.713.425-1.207 1.062-1.537 1.806-.33.797-.494 1.966-.494 3.453v8.605l-2.964.106v-16.679h2.635v2.338c.549-.797 1.262-1.488 2.14-1.966.879-.478 1.922-.744 3.074-.744 1.262 0 2.305.266 3.129.744.823.531 1.372 1.222 1.756 2.125 1.372-1.965 3.128-2.922 5.324-2.922zm21.736.053c1.043 0 1.975.16 2.854.531.878.373 1.537.797 1.976 1.435.438.584.713 1.275.933 2.071.11.532.164 1.434.164 2.762v10.252h-2.909v-10.091c0-1.169-.11-2.02-.329-2.603a2.503 2.503 0 0 0 -1.207-1.38 4.09 4.09 0 0 0 -2.031-.532c-1.208 0-2.305.371-3.239 1.168-.932.744-1.372 2.178-1.372 4.303v9.083h-2.963v-16.627h2.634v2.39c1.262-1.806 3.073-2.762 5.489-2.762zm-10.923.372v16.626h-2.909v-16.626h2.91zm-34.687 8.286c-1.098.425-2.635.744-4.776 1.063-1.207.16-2.03.372-2.524.584a2.785 2.785 0 0 0 -1.153.903c-.274.372-.384.85-.384 1.328 0 .744.274 1.381.879 1.912.603.478 1.426.744 2.579.744a6.56 6.56 0 0 0 2.964-.69c.878-.479 1.536-1.116 1.92-1.966.33-.637.495-1.593.495-2.815zm60.868-6.32c-1.317 0-2.415.53-3.293 1.54-.988 1.01-1.427 2.496-1.427 4.515 0 2.178.439 3.771 1.372 4.78.878 1.01 2.031 1.488 3.348 1.488 1.372 0 2.47-.478 3.348-1.488.933-1.009 1.372-2.55 1.372-4.674 0-2.018-.494-3.56-1.372-4.621-.933-1.063-2.031-1.54-3.348-1.54zm-26.18-8.287v3.24h-2.91v-3.24z" fill="#76a040"/></g></svg>