<svg xmlns="http://www.w3.org/2000/svg" width="80" height="25"><path d="M7.364.673a.653.653 0 00-.517.213C4.863 2.876 2.877 4.864.894 6.854c-.312.313-.31.744.004 1.058 1.98 1.987 3.96 3.972 5.943 5.956.318.318.75.319 1.07-.001 1.978-1.98 3.955-3.961 5.93-5.945.325-.326.324-.758-.002-1.085C11.864 4.854 9.886 2.874 7.91.892a.682.682 0 00-.545-.219zM7.555 0c.423.082.739.33 1.033.632.667.684 1.35 1.354 2.02 2.035.1.101.166.105.28.018A48.805 48.805 0 0113.825.601c.177-.115.298-.11.467.002a51.491 51.491 0 013.566 2.583 45.677 45.677 0 013.17 2.747c1.232 1.174 2.379 2.422 3.387 3.795.935 1.273 1.722 2.627 2.199 4.145.286.911.434 1.843.37 2.798-.107 1.618-.692 3.041-1.791 4.241-1.017 1.11-2.265 1.801-3.75 2.046-1.332.22-2.613.017-3.846-.518a6.99 6.99 0 01-2.227-1.535 5.837 5.837 0 01-.625-.751c-.023-.033-.035-.079-.101-.093.036.275.097.537.177.794.437 1.421 1.369 2.402 2.698 3.023a7.13 7.13 0 002.75.667c.127.005.16.06.16.179 0 .276.005.276-.269.276H7.949c-.255 0-.33-.106-.26-.36.028-.1.106-.09.18-.093a7.269 7.269 0 002.08-.404c.857-.292 1.625-.732 2.255-1.391.705-.739 1.098-1.632 1.266-2.632.002-.014-.005-.03-.011-.065-.12.155-.224.301-.34.438-1.216 1.444-2.77 2.279-4.632 2.502-1.846.22-3.502-.278-4.93-1.476-1.332-1.119-2.108-2.56-2.366-4.278-.198-1.322.018-2.598.464-3.843a13.44 13.44 0 011.128-2.335c.133-.224.163-.164-.051-.379-.69-.692-1.374-1.39-2.074-2.072C.337 8.298.064 7.969 0 7.508v-.257c.065-.46.34-.786.657-1.102A1296.46 1296.46 0 006.172.622c.288-.29.59-.538 1-.622h.383zm43.912 17.21c-.028.067-.015.133-.015.197v5.325c0 .264-.001.264-.239.264h-.988c-.221 0-.222 0-.222-.248v-6.276c0-.423.004-.845-.003-1.268-.002-.153.044-.203.179-.202.619.006 1.238.007 1.857 0 .133-.002.188.055.227.193.53 1.899 1.065 3.796 1.598 5.694l.075.255c.06-.041.06-.102.075-.152.572-1.919 1.144-3.837 1.71-5.758.049-.17.114-.237.278-.234.6.012 1.199.004 1.798.005.197 0 .203.006.203.22v7.545c0 .22-.006.225-.198.226-.354 0-.708-.007-1.062.003-.15.005-.192-.055-.192-.22.004-1.815.003-3.628.002-5.442v-.183l-.023-.007c-.072.23-.146.461-.217.693-.496 1.612-.99 3.226-1.488 4.838-.115.373-.065.314-.385.317-.36.003-.718-.007-1.076.005-.151.005-.215-.059-.26-.216-.518-1.799-1.042-3.595-1.565-5.391-.017-.061-.022-.13-.07-.184m-20.4-7.941v-.005c.415 0 .83.008 1.245-.003.356-.01.66-.264.774-.618.123-.384.032-.773-.242-1.002-.207-.174-.466-.191-.714-.195-.759-.012-1.518-.003-2.276-.007-.13-.001-.172.046-.17.175.005.488.006.976-.001 1.464-.002.144.045.196.189.194.398-.007.797-.003 1.195-.003zm-.029 3.293v-.002c.387 0 .775.007 1.162-.001.454-.01.777-.258.893-.666.166-.585-.1-1.052-.66-1.145a2.69 2.69 0 00-.422-.04c-.715-.003-1.43.001-2.144-.003-.13-.001-.186.035-.184.177.006.499.007.998 0 1.497-.003.151.056.188.193.186.387-.007.775-.003 1.162-.003zM28 9.991V6.242c0-.24.001-.242.237-.242 1.442 0 2.884-.004 4.326.003.371.002.744.026 1.103.132.709.209 1.251.907 1.322 1.702.065.736-.145 1.37-.683 1.881-.084.08-.174.153-.278.203-.12.059-.104.097.002.157.537.303.863.764.94 1.384.082.65.018 1.273-.397 1.818-.31.405-.732.583-1.212.65-.336.046-.673.07-1.012.069-1.36-.002-2.721 0-4.081 0C28 14 28 13.998 28 13.72V9.99zM67.066 7.44h-1.258c-.088 0-.159.007-.159.129.002.61.002 1.22 0 1.83 0 .09.039.13.126.13.801-.003 1.603.007 2.403-.01.377-.01.706-.148.846-.562.073-.217.097-.444.073-.673-.054-.503-.293-.754-.775-.818-.447-.06-.896-.007-1.256-.026m2.442 3.112c.068.034.1.053.134.066.69.25 1.002.81 1.135 1.507.099.522.084 1.06.192 1.583.06.288.057.289-.234.289-.454 0-.909-.006-1.363.003-.148.003-.214-.053-.233-.2-.064-.495-.122-.99-.202-1.482-.083-.51-.306-.935-.786-1.16a2.124 2.124 0 00-.858-.186c-.491-.01-.983 0-1.475-.008-.138-.002-.171.057-.17.189.003.87.001 1.742.001 2.613 0 .227-.003.23-.225.23-.412.001-.823-.003-1.235.003-.135.002-.189-.042-.189-.19.003-2.541.003-5.082 0-7.623 0-.135.044-.186.176-.186 1.293.004 2.586-.007 3.88.009.495.006.991.053 1.472.205.705.224 1.148.715 1.33 1.445.162.645.085 1.28-.186 1.882-.186.412-.504.697-.898.89-.077.037-.155.07-.266.121m-29.512 10.08v2.136c0 .226-.003.23-.21.23-1.231 0-2.464.008-3.695-.007-.575-.008-1.136-.113-1.637-.442-.632-.416-1.024-1.019-1.217-1.758-.32-1.219-.331-2.445.057-3.649.435-1.352 1.29-1.955 2.594-2.098.724-.08 1.45-.026 2.175-.035.586-.008 1.173.001 1.76-.004.132 0 .178.048.176.185-.006.35-.01.701 0 1.052.005.166-.058.208-.206.207-1.018-.004-2.037 0-3.055-.002-.247 0-.49.023-.728.093-.508.149-.842.484-1.001 1.008-.183.599-.192 1.215-.15 1.834.026.388.097.77.217 1.142.191.592.594.9 1.171.994.148.025.296.04.445.04.496 0 .992-.002 1.488.004.132.001.178-.048.177-.186a60.67 60.67 0 010-1.502c.002-.15-.053-.19-.188-.19-.57.006-1.141.003-1.712.003-.229 0-.238-.01-.239-.24 0-.34.004-.68-.002-1.019-.002-.138.05-.183.18-.183 1.141.004 2.283.004 3.424 0 .146 0 .18.062.179.2-.005.729-.002 1.458-.003 2.187M71.269 15h2.093c.22 0 .221.002.221.245v.969c0 .211-.014.226-.213.226-1.204.002-2.408.004-3.612.004-.146 0-.29.018-.432.042-.364.063-.557.333-.57.79-.013.472.189.76.615.868.16.041.325.065.49.065.554.001 1.107-.007 1.66.006.386.01.774.036 1.146.172.563.205.964.59 1.16 1.205.232.728.247 1.454-.055 2.163-.327.766-.901 1.146-1.673 1.207-.867.068-1.735.022-2.603.033-.65.007-1.302-.003-1.953.004-.15.002-.2-.052-.196-.212.009-.333.002-.668.003-1.002 0-.213.013-.228.211-.228l3.302-.001c.202 0 .403-.003.603-.038.45-.08.73-.379.75-.813.025-.507-.223-.867-.682-.989a1.842 1.842 0 00-.476-.063c-.558 0-1.116.002-1.674-.003a3.97 3.97 0 01-.935-.13c-.943-.237-1.39-1.158-1.441-1.932a2.82 2.82 0 01.383-1.67 1.73 1.73 0 011.006-.785c.274-.088.556-.119.84-.13.063-.002.125-.001.187-.001h1.845V15zm4.747-6.999c-.023.028-.032.035-.036.045-.328.852-.654 1.704-.983 2.556-.04.105.003.125.09.125h1.832c.093 0 .124-.029.086-.128L76.015 8m-.019 4.163c-.412 0-.825.005-1.237-.003-.131-.002-.199.05-.247.175-.19.493-.39.981-.577 1.475-.05.132-.114.19-.252.189-.512-.007-1.024-.002-1.535-.003-.168 0-.175-.013-.11-.18.99-2.543 1.98-5.086 2.965-7.63.051-.131.114-.19.253-.187a50.27 50.27 0 001.504 0c.124 0 .185.049.232.17.905 2.333 1.813 4.666 2.72 6.998.09.231.177.463.27.692.037.093.02.137-.079.137-.548-.001-1.096-.002-1.644 0-.105 0-.144-.065-.178-.153-.196-.503-.398-1.002-.589-1.507-.048-.127-.112-.178-.243-.176-.417.008-.835.003-1.253.003M54.017 8.008c-.023.018-.03.02-.031.025l-.989 2.57c-.04.106.007.124.093.124.605-.002 1.21-.003 1.815 0 .118 0 .132-.042.09-.15-.211-.548-.418-1.1-.627-1.65l-.35-.92m3.034 5.99c-.24 0-.48-.01-.72.002-.145.008-.214-.052-.267-.191-.189-.5-.392-.992-.582-1.49-.045-.117-.108-.157-.224-.157-.84.004-1.68.004-2.521 0-.119 0-.178.05-.221.162-.191.499-.392.993-.582 1.491-.05.132-.12.187-.256.185-.501-.007-1.002-.003-1.504-.003-.2 0-.205-.006-.13-.2l2.238-5.75c.243-.625.49-1.25.728-1.876.046-.12.109-.171.233-.17.501.006 1.002.006 1.503 0 .129-.001.196.045.246.173.556 1.442 1.118 2.882 1.679 4.322l1.275 3.274c.087.225.085.227-.144.227h-.751m-12.059 3.027c-.013.022-.029.043-.038.067-.315.824-.628 1.65-.945 2.473-.059.152.023.156.124.156.58 0 1.161-.003 1.742.002.136 0 .163-.042.111-.177-.31-.802-.614-1.607-.92-2.411-.016-.04-.019-.089-.074-.11m3.082 5.973c-.245 0-.492-.007-.737.003-.14.007-.217-.04-.271-.183-.188-.501-.393-.995-.583-1.495-.047-.122-.111-.166-.235-.165-.836.005-1.673.005-2.51 0-.118 0-.178.046-.222.159-.196.51-.402 1.015-.597 1.524-.044.117-.105.16-.222.16-.512-.006-1.025-.002-1.537-.003-.182 0-.191-.016-.119-.203l1.451-3.73c.504-1.295 1.009-2.59 1.509-3.886.05-.127.115-.176.245-.174.481.007.963.013 1.444-.003.182-.005.266.061.334.237.492 1.288.993 2.572 1.492 3.857l1.422 3.653c.098.25.1.25-.158.25h-.706m-8.176-12.26h-1.883c-.195 0-.207.016-.174.221.019.115.037.23.062.343.155.717.597 1.087 1.26 1.192.262.04.524.07.79.069.611-.004 1.223-.001 1.836 0 .202 0 .206.004.206.225.001.339-.004.677.003 1.016.002.14-.039.198-.177.197-.763-.006-1.525.007-2.288-.01a6.961 6.961 0 01-1.143-.118c-.961-.182-1.602-.788-2-1.715-.27-.63-.37-1.298-.388-1.988-.02-.77.06-1.518.357-2.224.305-.724.767-1.301 1.44-1.664.282-.153.589-.219.9-.241 1.046-.074 2.094-.019 3.141-.036.127-.002.159.06.157.183-.004.355-.006.71.001 1.065.003.145-.045.194-.18.193-.706-.005-1.411-.002-2.117-.002-.218 0-.433.032-.65.055-.716.077-1.15.646-1.196 1.4-.002.022-.001.045-.005.067-.065.4-.007.334.292.334 1.208.002 2.417 0 3.626.001.227 0 .227.001.228.238 0 .327-.007.654.003.981.005.166-.044.224-.203.222-.633-.009-1.265-.004-1.898-.004m24.009 8.989h-1.88c-.195 0-.216.028-.187.234.028.193.07.382.13.567.145.447.424.744.846.881.264.086.534.143.81.145.71.005 1.42.004 2.13.006.236 0 .24.004.24.264 0 .329-.003.657.001.986.002.13-.032.192-.166.191-.844-.006-1.69.008-2.533-.013-.45-.01-.9-.066-1.331-.221-.735-.264-1.22-.815-1.547-1.548-.257-.576-.361-1.19-.404-1.823a5.741 5.741 0 01.163-1.9c.265-.982.77-1.77 1.644-2.237.351-.188.734-.245 1.118-.25.958-.011 1.917-.003 2.875-.008.133 0 .186.044.183.191-.007.345-.002.69-.003 1.036 0 .198-.016.214-.208.215-.772.002-1.544 0-2.316.007-.16.001-.32.018-.479.046-.656.117-1.055.584-1.128 1.31-.052.504-.052.504.422.504h3.497c.207 0 .211.005.212.222 0 .328-.006.657.003.985.004.158-.044.215-.195.213-.632-.007-1.264-.003-1.897-.003m-3.4-13.723h3.252c.235 0 .24.005.24.23v.982c-.001.221-.005.226-.226.226h-2.218c-.235 0-.236.001-.236.23v6.042c0 .287 0 .287-.3.287h-1.203c-.233 0-.237-.004-.237-.232V7.742c0-.329.028-.3-.315-.3-.683-.001-1.366-.005-2.05.002-.16.002-.219-.047-.214-.209.01-.338.01-.677 0-1.015-.006-.168.05-.221.221-.22 1.095.006 2.19.003 3.286.003M45.579 8.535c0 .715-.007 1.431.002 2.147.004.315.03.631.063.945.042.42.262.686.63.8.303.094.616.123.928.13.535.009 1.07.007 1.605 0 .143-.001.197.049.193.21-.008.349-.006.699-.001 1.048.002.137-.045.186-.169.185-.827-.013-1.654.025-2.48-.036-.474-.035-.93-.142-1.335-.433-.608-.438-.885-1.086-.957-1.859A15.496 15.496 0 0144 10.244V6.282C44 6 44 6 44.263 6h1.06c.253 0 .253 0 .253.287v2.248h.003z" fill="#0257FF" fill-rule="evenodd"/></svg>
