<svg version="1.1" id="Слой_1" xmlns="http://www.w3.org/2000/svg" x="0" y="0" viewBox="0 0 76 30" xml:space="preserve"><style>.st0{fill:#fff}</style><path class="st0" d="M37.1 16.9c-.1 0-.1 0-.2.1-.3.1-.8.2-1.2.3-.9.1-2-.2-2.2-1.2v-.3h3.9v-1.4c0-.4-.1-.7-.2-1.1-.5-1.4-2.4-1.6-3.6-1.1-1.4.5-1.9 2-1.8 3.5V16.3c.2 1.4 1.5 2.5 3 2.4.7 0 1.5-.1 2.2-.3v-1.5zm-2.7-3.6c1-.4 1.7.3 1.6 1.3h-2.4c.1-.5.2-1.1.8-1.3zM30.6 12.7c-.8-1-2.5-1.1-3.4-.1h-.1V9.4l-1.7.4v8.4c1.9.7 4.8.8 5.5-1.6.5-1.2.5-2.9-.3-3.9zm-1.4 4c-.3.5-1 .5-1.5.5-.2 0-.3-.1-.4-.1v-2.6c.1-.4.4-.7.8-.9.4-.1 1-.1 1.3.3.2.5.2 2.1-.2 2.8zM41.2 17c-1 .3-1.2-.1-1.2-1.1v-2.6h1.2v-1.4H40V9.8c-.4.1-1.3.3-1.7.4v6.4c-.1 1.9 1.4 2.2 2.9 1.8V17zM63.5 16.5v2.1h-1.7v-1.9c0-.7.1-2.3-.2-2.9-.2-.4-.7-.4-1.1-.3-.4.1-.6.5-.7.8v4.3h-1.7v-1.9c0-.8.1-2.3-.2-3-.2-.4-.7-.4-1.1-.3-.4.1-.6.4-.7.8v4.4h-1.7v-6.3l1.5-.4v1c.8-1.2 3-1.5 3.5.1.5-.9 1.4-1.2 2.4-1.1.8.1 1.3.6 1.4 1.4.3.8.3 2.4.3 3.2zM56.1 11.9l-1.6.4zM46.2 11.9s-.1 0 0 0h-.7c-1.4 0-2.7.6-3.1 2-.2.6-.2 1.2-.2 1.9V16.4c.1.4.2.9.4 1.2 0 .1.1.2.2.2.6.8 1.7 1 2.6.6h.1c.3-.1.5-.3.7-.5h.1v.8c0 .3-.1.5-.3.7-.2.2-.6.4-1.2.4-.4 0-.7 0-1-.1-.3-.1-.5-.2-.7-.2V21c.1 0 .3.1.5.1.4.1.8.1 1.5.1.9 0 1.6-.2 2.1-.7.1-.1.2-.1.2-.2.4-.4.5-1 .5-1.8v-6.1c-.5-.3-1.1-.4-1.7-.5zm0 4.3c-.1.4-.4.7-.8.9-.4.1-1 .1-1.3-.3-.4-.6-.4-2.2.1-2.9.3-.5.9-.5 1.4-.5h.2c.1 0 .2.1.3.1v2.7zM73.5 14.7c-.5-.2-2-.5-1.3-1.3.6-.4 1.6 0 2.2.3v-1.4c-1.3-.5-3.3-.7-4 .8-.3.8-.1 1.9.6 2.4.6.4 1.4.5 1.9.9.1.1.2.2.2.4-.1 1.2-2.1.4-2.7.1v1.5c.9.4 2.1.5 3 .3 2.1-.8 2-3.5.1-4zM69.5 16.9c-.1 0-.1 0-.2.1-.3.1-.8.2-1.2.3-.9.1-2-.2-2.2-1.2v-.3h3.9v-1.4c0-.4-.1-.7-.2-1.1-.5-1.4-2.4-1.6-3.6-1.1-1.4.5-1.9 2-1.8 3.5V16.3c.2 1.4 1.5 2.5 3 2.4.7 0 1.5-.1 2.2-.3v-1.5zm-2.8-3.6c1-.4 1.7.3 1.6 1.3h-2.4c.1-.5.3-1.1.8-1.3zM53.5 14.4c0-.6 0-1-.1-1.2-.1-.6-.5-1-1.1-1.2-1-.4-2.5-.1-3.5.2v1.4c.7-.3 2.4-.7 2.9-.1.1.2.1.5.1.8-.3 0-.8 0-1.3.2-.2 0-.3.1-.5.1-1.3.5-1.6 1.4-1.6 1.9 0 .9.4 1.6 1.1 1.8.2.1.4.1.7.1h.1c.5 0 1.1-.2 1.6-.5v.5h1.5v-1.9c.1-.5.1-1.4.1-2.1zm-1.5 2c-.2.4-.5.7-1 .7-.4.1-1-.2-1-.8 0-.7 1.4-.7 1.9-.6.1 0 .1.7.1.7z"/><g><linearGradient id="SVGID_1_" gradientUnits="userSpaceOnUse" x1="11.001" y1="18.867" x2="11.001" y2="10.564"><stop offset="0" stop-color="#ff8c1a"/><stop offset="1" stop-color="#f7ad1c"/></linearGradient><path d="M15.4 14.4c0 2.4-2 4.4-4.4 4.4s-4.4-2-4.4-4.4S8.6 10 11 10s4.4 1.9 4.4 4.4zm-4.4-2c-1.1 0-1.9.9-1.9 1.9s.9 1.9 1.9 1.9 1.9-.9 1.9-1.9-.8-1.9-1.9-1.9z" fill="url(#SVGID_1_)"/><linearGradient id="SVGID_00000183221844938406524160000005431871667826906768_" gradientUnits="userSpaceOnUse" x1="3.105" y1="18.925" x2="3.105" y2="10.515"><stop offset="0" stop-color="#ff8c1a"/><stop offset="1" stop-color="#f7ad1c"/></linearGradient><path d="m5 18.3-.3.1c-.5.2-1.1 0-1.3-.5L.7 11.8c-.2-.5 0-1.1.5-1.3l.3-.1c.5-.2 1.1 0 1.3.5L5.5 17c.3.5.1 1.1-.5 1.3z" fill="url(#SVGID_00000183221844938406524160000005431871667826906768_)"/><linearGradient id="SVGID_00000170992650216071960700000004816653440423402665_" gradientUnits="userSpaceOnUse" x1="18.896" y1="18.925" x2="18.896" y2="10.515"><stop offset="0" stop-color="#ff8c1a"/><stop offset="1" stop-color="#f7ad1c"/></linearGradient><path d="m20.8 18.3-.3.1c-.5.2-1.1 0-1.3-.5l-2.7-6.1c-.2-.5 0-1.1.5-1.3l.3-.1c.5-.2 1.1 0 1.3.5l2.7 6.1c.3.5 0 1.1-.5 1.3z" fill="url(#SVGID_00000170992650216071960700000004816653440423402665_)"/></g></svg>
