<svg xmlns="http://www.w3.org/2000/svg" xml:space="preserve" id="Слой_1" x="0" y="0" version="1.1" viewBox="0 0 201 48"><style>.st0{fill:#dee6e8}</style><path d="M5.15 44.47c0 .34-.02.7-.06 1.08-.04.38-.13.73-.26 1.05-.13.32-.32.57-.57.77-.26.2-.62.29-1.09.29-.47 0-.83-.1-1.08-.29-.26-.19-.45-.45-.57-.77-.13-.32-.2-.66-.22-1.02-.02-.36-.03-.73-.03-1.12V3.62c0-.34.01-.7.03-1.08.02-.38.1-.73.22-1.05s.32-.57.57-.77C2.34.53 2.7.43 3.17.43c.47 0 .84.1 1.12.29.28.19.48.44.61.76.12.32.2.66.22 1.02.02.36.03.73.03 1.12V19.2c.42-.51.96-1.12 1.6-1.82.64-.7 1.45-1.37 2.43-2.01.98-.64 2.16-1.18 3.54-1.63 1.38-.45 3.01-.67 4.88-.67 2.64 0 4.89.5 6.77 1.5 1.87 1 3.39 2.31 4.56 3.93 1.17 1.62 2.02 3.45 2.55 5.49.53 2.04.8 4.09.8 6.13 0 .81-.06 1.81-.19 3s-.38 2.44-.77 3.73c-.38 1.3-.93 2.59-1.63 3.86a14.09 14.09 0 0 1-2.71 3.48c-1.11 1.04-2.46 1.88-4.05 2.52-1.6.64-3.5.96-5.71.96-1.79 0-3.34-.19-4.66-.57-1.32-.38-2.45-.87-3.38-1.47-.94-.6-1.72-1.22-2.36-1.88-.64-.66-1.19-1.29-1.66-1.88v2.6zM27.3 24.24c-.6-1.74-1.39-3.21-2.39-4.4-1-1.19-2.17-2.08-3.51-2.68-1.34-.6-2.76-.89-4.24-.89-1.49 0-2.87.23-4.15.7-1.28.47-2.43 1.13-3.45 1.98-.6.47-1.16 1.03-1.69 1.69-.53.66-1 1.45-1.4 2.36-.4.91-.72 2.02-.96 3.32-.23 1.3-.35 2.82-.35 4.56 0 2.38.32 4.43.96 6.13.64 1.7 1.49 3.11 2.55 4.21a9.88 9.88 0 0 0 3.73 2.46c1.43.53 2.9.8 4.44.8 1.45 0 2.85-.29 4.21-.86 1.36-.57 2.57-1.45 3.64-2.62 1.06-1.17 1.91-2.64 2.55-4.4.64-1.76.96-3.86.96-6.29-.01-2.31-.3-4.33-.9-6.07zM41.49 30.81c.04 2 .3 3.83.77 5.49.47 1.66 1.16 3.1 2.07 4.31a9.452 9.452 0 0 0 3.45 2.84c1.38.68 2.99 1.02 4.82 1.02.47 0 1.12-.05 1.95-.16.83-.11 1.71-.39 2.65-.86s1.87-1.18 2.81-2.14c.94-.96 1.72-2.29 2.36-3.99.43-.94 1.04-1.4 1.85-1.4.6 0 1.06.19 1.4.57.34.38.51.79.51 1.21 0 .26-.2.93-.61 2.01-.4 1.09-1.12 2.21-2.14 3.38s-2.42 2.22-4.18 3.16c-1.77.94-4.01 1.4-6.73 1.4-2.55 0-4.78-.45-6.67-1.34-1.89-.89-3.47-2.12-4.72-3.67-1.26-1.55-2.18-3.38-2.78-5.49-.6-2.11-.89-4.37-.89-6.8 0-2.59.33-4.96.99-7.08.66-2.13 1.63-3.95 2.9-5.46 1.28-1.51 2.85-2.68 4.72-3.51 1.87-.83 4.02-1.24 6.45-1.24 2.34 0 4.32.36 5.94 1.08 1.62.72 2.96 1.62 4.02 2.68 1.06 1.06 1.89 2.23 2.49 3.51.6 1.28 1.03 2.47 1.31 3.57.28 1.11.44 2.05.48 2.84.04.79.06 1.22.06 1.31 0 .68-.1 1.21-.29 1.59-.19.38-.46.66-.8.83-.34.17-.72.27-1.15.29-.43.02-.89.03-1.4.03H41.49zm21.19-3.19c-.09-.98-.26-2.15-.51-3.51-.26-1.36-.92-2.79-1.98-4.28-.72-.94-1.73-1.76-3.03-2.49-1.3-.72-2.9-1.08-4.82-1.08-1.57 0-3.05.33-4.44.99a10.01 10.01 0 0 0-3.54 2.84c-1.11 1.4-1.82 2.73-2.14 3.99-.32 1.26-.54 2.44-.67 3.54h21.13zM78.72 13.83h3.57c.21 0 .47.01.77.03.3.02.57.08.83.16.26.09.47.22.64.42.17.19.26.46.26.8 0 .72-.31 1.15-.93 1.28-.62.13-1.14.19-1.56.19h-3.57v21.77c0 2 .21 3.46.64 4.37.42.92 1.45 1.37 3.06 1.37.13 0 .32-.01.57-.03.26-.02.52-.05.8-.1.28-.04.54-.07.8-.1.26-.02.43-.03.51-.03.47 0 .83.15 1.08.45.26.3.38.66.38 1.08 0 .72-.42 1.22-1.24 1.5-.83.28-1.93.42-3.29.42-1.79 0-3.17-.27-4.15-.8-.98-.53-1.69-1.2-2.14-2.01-.45-.81-.71-1.71-.8-2.71-.09-1-.13-1.99-.13-2.97V16.71h-1.98c-.21 0-.47-.01-.77-.03-.3-.02-.57-.07-.83-.16-.25-.08-.47-.22-.64-.42-.17-.19-.26-.46-.26-.8 0-.72.31-1.15.93-1.28.62-.13 1.14-.19 1.56-.19h1.98V7.96c0-1.23.07-2.23.22-3s.71-1.15 1.69-1.15 1.55.36 1.72 1.08c.17.72.26 1.68.26 2.87v6.07zM98.16 6.02c-.49.49-1.08.73-1.76.73-.72 0-1.32-.24-1.79-.73s-.7-1.07-.7-1.76c0-.72.23-1.32.7-1.79s1.06-.7 1.79-.7c.68 0 1.27.23 1.76.7s.73 1.06.73 1.79c.01.68-.24 1.27-.73 1.76zm.16 38.45c0 .72-.09 1.44-.26 2.14-.17.7-.72 1.05-1.66 1.05-.51 0-.89-.1-1.15-.29-.26-.19-.45-.45-.57-.77-.13-.32-.2-.66-.22-1.02-.02-.36-.03-.73-.03-1.12V16.32c0-.38.01-.77.03-1.15.02-.38.1-.73.22-1.05.13-.32.32-.57.57-.77s.64-.29 1.15-.29c.47 0 .83.11 1.08.32.26.21.45.48.57.8.13.32.2.67.22 1.05.02.38.03.75.03 1.09v28.15zM117.88 32.47l-12.06-15.38c-.21-.26-.45-.6-.7-1.02-.26-.43-.38-.83-.38-1.21 0-.04.02-.17.06-.38.04-.21.14-.42.29-.61.15-.19.35-.37.61-.54.26-.17.6-.26 1.02-.26.42 0 .79.14 1.08.42.3.28.68.71 1.15 1.31l8.94 11.68 8.81-11.62c.47-.6.85-1.04 1.15-1.34.3-.3.68-.45 1.15-.45.6 0 1.07.19 1.44.57.36.38.54.79.54 1.21 0 .38-.1.73-.29 1.05-.19.32-.5.73-.93 1.24l-9.64 12.13 10.72 14.3c.34.43.62.82.83 1.18.21.36.32.73.32 1.12 0 .34-.17.72-.51 1.15-.34.43-.83.64-1.47.64-.47 0-.9-.21-1.31-.64-.4-.42-.73-.81-.99-1.15l-9.83-13.4zm-3.95 2.69c.76.66.89 1.79.29 2.6l-6.03 8.18c-.41.55-.77.98-1.07 1.28-.3.3-.72.45-1.28.45-.69 0-1.21-.23-1.55-.69-.34-.46-.52-.87-.52-1.24 0-.41.09-.77.28-1.07.18-.3.39-.61.62-.93l6.41-8.34c.67-.88 1.95-1.01 2.79-.28l.06.04zM165.25 38.6c-.83 2.13-1.95 3.87-3.35 5.23-1.45 1.36-3.04 2.34-4.79 2.94-1.75.6-3.55.89-5.43.89-2.34 0-4.43-.43-6.26-1.28-1.83-.85-3.38-2.03-4.66-3.54-1.28-1.51-2.25-3.31-2.9-5.39-.66-2.08-.99-4.38-.99-6.89 0-1.79.21-3.7.64-5.75.43-2.04 1.18-3.94 2.27-5.68 1.09-1.74 2.59-3.19 4.5-4.34 1.91-1.15 4.38-1.72 7.4-1.72 1.66 0 3.29.21 4.88.64 1.6.43 3.18 1.34 4.76 2.74.55.51 1.14 1.13 1.76 1.85.62.72 1.18 1.63 1.69 2.71.51 1.09.93 2.39 1.24 3.93.32 1.53.48 3.36.48 5.49 0 3.32-.41 6.04-1.24 8.17zm-2.94-10.12c-.06-.91-.21-1.9-.45-2.97-.23-1.06-.57-2.15-1.02-3.26-.45-1.11-1.06-2.09-1.85-2.97-.79-.87-1.77-1.6-2.94-2.17-1.17-.57-2.59-.86-4.24-.86-3.23 0-5.85 1.2-7.85 3.61-2 2.4-3 5.86-3 10.37 0 2.26.28 4.27.83 6.03.55 1.77 1.31 3.25 2.27 4.47.96 1.21 2.1 2.14 3.42 2.78 1.32.64 2.77.96 4.34.96 1.74 0 3.28-.36 4.6-1.08a9.727 9.727 0 0 0 3.32-2.97c.89-1.25 1.56-2.72 2.01-4.4.45-1.68.67-3.48.67-5.39-.01-.52-.05-1.23-.11-2.15zM200 44.41c0 .38-.01.77-.03 1.15-.02.38-.1.73-.22 1.05-.13.32-.32.57-.57.77-.26.19-.64.29-1.15.29-.51 0-.89-.1-1.15-.29-.26-.19-.44-.45-.54-.77a3.84 3.84 0 0 1-.19-1.05c-.02-.38-.03-.77-.03-1.15V26.34c0-1.36-.07-2.62-.22-3.77s-.52-2.15-1.12-3c-.68-.98-1.59-1.74-2.71-2.3a8.267 8.267 0 0 0-3.67-.83c-1.83 0-3.61.52-5.33 1.56a9.716 9.716 0 0 0-3.86 4.31c-.47 1.02-.78 2.28-.93 3.77-.15 1.49-.22 3.64-.22 6.45V44.4c0 .38-.01.77-.03 1.15-.02.38-.09.73-.19 1.05-.11.32-.29.57-.54.77-.26.19-.64.29-1.15.29-.98 0-1.55-.35-1.72-1.05-.17-.7-.26-1.44-.26-2.2V16.26c0-.34.01-.7.03-1.08.02-.38.1-.73.22-1.05s.32-.58.57-.8c.26-.21.64-.32 1.15-.32.51 0 .89.1 1.15.29.26.19.44.45.54.77.11.32.17.67.19 1.05.02.38.03.77.03 1.15v2.43c.47-.6 1-1.22 1.6-1.88.6-.66 1.31-1.27 2.14-1.82.83-.55 1.81-1.01 2.94-1.37 1.13-.36 2.46-.54 3.99-.54 1.28 0 2.4.13 3.38.38.98.26 1.82.56 2.52.93.7.36 1.3.74 1.79 1.15.49.4.86.76 1.12 1.05.6.68 1.06 1.43 1.4 2.23.34.81.58 1.62.73 2.43.15.81.24 1.56.29 2.27.04.7.06 1.31.06 1.82v19.06z" class="st0"/></svg>
