<svg height="48" width="132" xmlns="http://www.w3.org/2000/svg"><g fill="none" fill-rule="evenodd"><circle cx="23.873" cy="23.873" fill="#ff2936" r="23.111"/><path d="m9.602 41.454c.952 0 2.665.257 3.584.46.535.117 1.095.284 1.564.473.25.1.482.185.72.299l.699.32c.24.103.415.223.648.338.234.116.43.235.657.362a33.883 33.883 0 0 1 2.786 1.799l.59.428c.108.074.21.138.275.236l-1.742-.264c-2.757-.471-6.318-1.903-8.616-3.577l-.598-.421c-.123-.084-.502-.356-.567-.453zm66.874-7.28.094-1.07h2.532v9.273h-2.438l-.15-1.164c-.288.45-.704.788-1.248 1.014a4.453 4.453 0 0 1 -1.603.356c-1.413.013-2.563-.416-3.451-1.286s-1.332-2.055-1.332-3.557c0-1.501.46-2.69 1.379-3.566s2.078-1.302 3.479-1.277c.6 0 1.147.113 1.641.338s.86.538 1.097.939zm-2.456 1.106c-.7 0-1.281.222-1.744.667-.463.444-.694 1.041-.694 1.792s.231 1.346.694 1.784c.463.437 1.044.657 1.744.657.725 0 1.316-.238 1.773-.714.456-.475.684-1.02.684-1.633 0-.713-.216-1.317-.647-1.811-.431-.495-1.035-.742-1.81-.742zm15.999 7.096h-2.664v-4.975c0-1.351-.531-2.027-1.594-2.027-.513 0-.919.2-1.22.6-.3.401-.45.883-.45 1.446v4.956h-2.7v-9.273h2.363l.188 1.05c.475-.838 1.288-1.257 2.438-1.257 1.288 0 2.188.576 2.7 1.727.413-.625.857-1.073 1.332-1.342.476-.27 1.057-.404 1.745-.404 1.1 0 1.99.338 2.672 1.014s1.022 1.815 1.022 3.417v5.068h-2.72v-5.012c0-1.29-.468-1.934-1.406-1.934-.512 0-.925.191-1.238.573-.312.382-.469.848-.469 1.398v4.975zm10.69-9.292h-2.7v9.292h2.7zm11.685 9.292h-2.72v-4.9c0-1.439-.637-2.158-1.913-2.158-.612-.013-1.116.206-1.51.657-.394.45-.59.988-.59 1.614v4.787h-2.664v-9.273h2.438l.094 1.182c.738-.963 1.738-1.433 3.001-1.408 2.576 0 3.864 1.527 3.864 4.58zm1.763 1.276h2.513c.088 1.252.863 1.877 2.326 1.877.637 0 1.178-.147 1.622-.44.444-.295.666-.717.666-1.268 0-1.064-.75-1.595-2.25-1.595-1.526 0-2.742-.423-3.649-1.268-.906-.844-1.36-1.98-1.36-3.407 0-1.501.488-2.665 1.463-3.491.976-.826 2.157-1.239 3.545-1.239.963 0 1.688.169 2.176.507l1.013-1.314 1.95 1.502-1.181 1.407c.675.814.994 1.702.956 2.666-.037 1.502-.7 2.584-1.988 3.248 1.375.613 2.063 1.608 2.063 2.984 0 1.302-.494 2.309-1.482 3.022-.987.714-2.169 1.07-3.544 1.07-1.588 0-2.798-.372-3.63-1.117-.831-.744-1.234-1.792-1.21-3.144zm4.876-8.428c-.713 0-1.29.206-1.735.62-.444.412-.666.982-.666 1.707 0 .664.229 1.199.685 1.605.456.407 1.028.61 1.716.61.65 0 1.2-.193 1.65-.581s.676-.933.676-1.634c0-.65-.222-1.2-.666-1.651-.444-.45-.997-.676-1.66-.676zm-47.34-23.427h-2.7v9.291h2.7zm1.895 10.568h2.512c.087 1.251.863 1.877 2.326 1.877.637 0 1.178-.147 1.622-.441s.666-.717.666-1.267c0-1.064-.75-1.596-2.25-1.596-1.526 0-2.742-.422-3.649-1.267-.906-.845-1.36-1.98-1.36-3.407 0-1.502.488-2.665 1.463-3.491.976-.826 2.157-1.24 3.545-1.24.963 0 1.688.17 2.176.507l1.013-1.313 1.95 1.501-1.181 1.408c.675.814.994 1.702.956 2.666-.038 1.501-.7 2.584-1.988 3.247 1.375.613 2.063 1.608 2.063 2.985 0 1.301-.494 2.309-1.482 3.022-.987.713-2.169 1.07-3.544 1.07-1.588 0-2.798-.372-3.63-1.117-.831-.745-1.234-1.793-1.21-3.144zm4.876-8.429c-.713 0-1.29.207-1.735.62-.444.413-.666.982-.666 1.708 0 .663.229 1.198.685 1.605s1.028.61 1.716.61c.65 0 1.2-.194 1.65-.582s.676-.932.676-1.633c0-.65-.222-1.201-.666-1.652-.444-.45-.997-.676-1.66-.676zm25.057-2.14h-2.7v9.292h2.7zm10.916 9.292h-2.663v-4.974c0-1.352-.532-2.027-1.595-2.027-.512 0-.919.2-1.219.6s-.45.883-.45 1.446v4.955h-2.7v-9.273h2.363l.187 1.051c.475-.838 1.288-1.257 2.438-1.257 1.288 0 2.189.575 2.701 1.727.413-.626.857-1.073 1.332-1.342.475-.27 1.056-.404 1.744-.404 1.1 0 1.991.338 2.673 1.014.681.675 1.022 1.814 1.022 3.416v5.068h-2.72v-5.012c0-1.289-.469-1.933-1.406-1.933-.513 0-.926.19-1.238.572-.313.382-.47.848-.47 1.399v4.974zm17.011-3.754h-6.808c.075.476.331.867.769 1.173.438.307 1.019.46 1.744.46 1.038 0 1.838-.244 2.4-.732l1.52 1.69c-.925.913-2.25 1.37-3.976 1.37-1.65 0-2.929-.444-3.836-1.333-.906-.888-1.36-2.09-1.36-3.604 0-1.427.445-2.581 1.332-3.463.888-.883 2.082-1.324 3.583-1.324 1.638 0 2.891.5 3.76 1.502.87 1.001 1.16 2.421.872 4.261zm-6.808-1.971h4.389c-.025-.475-.25-.841-.675-1.098s-.938-.385-1.538-.385c-.538 0-1 .132-1.388.394-.388.263-.65.626-.788 1.09zm-84.672-2.07c-.253-.006-.914-.408-1.178-.414.013.153.212.411.288.54.099.166.209.35.317.511-.065.075-.131.138-.196.218-.076.095-.132.148-.205.242-.118.152-.347.306-.363.496.264 0 .963-.25 1.21-.255.017.064.577.99.668 1.051l.095-1.242 1.21-.287c-.038-.142-.241-.158-.519-.278-.18-.077-.405-.187-.595-.232 0-.462.063-.785.063-1.242-.106.029-.336.313-.413.414-.104.136-.353.367-.382.478zm-33.453.35c-.122.01-.673.26-.873.337-.128.05-.209.052-.24.173.05.004 1.087.25 1.108.26.066.034.09.065.1.25l.064.987h.096c.026-.114.076-.159.133-.248l.471-.771c.184.015.42.088.599.134.14.035.443.12.611.12-.037-.158-.072-.142-.167-.247l-.597-.708c.106-.2.607-.971.637-1.083-.207.017-.878.376-1.178.446l-.716-.812c-.079-.09 0-.068-.143-.08 0 .335.095.79.095 1.242zm6.398-4.236-2.133.35c.16.037 1.607.844 1.878.988l-.382 2.07c.18-.015.19-.148.41-.323.157-.126.252-.226.394-.37.08-.081.103-.094.188-.162.18-.144.327-.363.6-.546l.69.36c.21.118 1.046.583 1.188.595-.012-.138-.82-1.777-.892-1.911l.963-.916c.13-.121.517-.4.565-.581-.292 0-1.764.254-2.132.254-.03-.127-.148-.328-.213-.456-.127-.256-.613-1.246-.647-1.391-.168.014-.1.016-.183.422l-.202 1.072c-.026.132-.09.411-.092.545zm20.052-.192c-.47 0-1.811-.254-2.132-.254.011.141.045.13.145.205l1.35 1.292-.657 1.412c-.071.142-.198.325-.202.5.128-.012.16-.046.249-.102l1.63-.854.389.342c.138.122.243.263.383.38.09.076.12.09.206.177l.19.192c.086.086.114.105.204.178.093.075.1.132.219.164-.025-.296-.377-1.877-.382-2.103l1.759-.947c.133-.095.046.008.087-.104l-2.101-.286-.382-2.071c-.116.03-.108.08-.16.19l-.345.706c-.09.222-.435.804-.45.983zm-10.758-3.217h-4.36c.026.1.01.07.185.196l1.552 1.123c.167.115 1.764 1.25 1.764 1.293l-.983 3.062c-.07.227-.318.845-.322 1.048.118-.01.15-.056.232-.119l3.332-2.398c.057.077.334.25.437.328.155.115.291.202.446.318l.887.641c.163.112.284.207.446.319l.89.637c.104.075.356.278.46.305-.005-.183-.255-.842-.323-1.047l-1.014-3.126c.102-.027.56-.382.677-.469.082-.061.14-.097.223-.159l2.441-1.761c.043-.029.065-.04.112-.08.078-.067.052-.007.08-.111h-4.393c-.124-.532-1.32-3.941-1.337-4.141h-.063c-.083.357-.538 1.565-.676 2.063zm-2.992 12.87h2.196v14.176c0 .073.022.096.096.096h3.533c.073 0 .095-.023.095-.096v-14.176h2.101c.022-.268.842-1.18 1.057-1.395a17.85 17.85 0 0 1 1.334-1.15c.466-.35 1.177-.809 1.73-.975.138-.041.106.03.144-.112h-15.405c.037.104-.049.021.093.098.043.023.109.04.16.062.603.264 1.267.793 1.679 1.283l.519.723c.184.276.644 1.182.668 1.466zm7.353 5.001c0 1.852.036 2.75.672 4.52a7.8 7.8 0 0 0 .696 1.406l.655.906c.095.123.154.167.25.29.158.206.365.364.535.516 2.268 2.017 5.37 2.268 8.307 1.576 1.091-.258 2.134-.64 3.068-1.262l.46-.337c.052-.04.125-.07.125-.16v-8.474h-5.984c-.073 0-.095.022-.095.096v3.185h2.355v3.25c-.097.026-.149.077-.222.127-1.168.794-3.113.624-4.297.095-.542-.242-1.068-.69-1.443-1.136a4.886 4.886 0 0 1 -.909-1.639c-.685-2.066-.426-4.91.946-6.595l.487-.5c.074-.06.11-.105.186-.164a5.01 5.01 0 0 1 .388-.281c.076-.049.122-.067.204-.115.088-.052.126-.08.227-.123 1.518-.644 2.804-.624 4.306.105.55.267.734.34 1.242.732.123.096.213.242.381.287l.987-1.88c.068-.137.132-.232.202-.37.14-.278.264-.514.403-.776-.094-.063-.519-.442-.86-.67-.99-.659-2.162-1.125-3.436-1.21-.182-.013-.524-.02-.715-.05-.366-.056-1.761.102-2.133.164a8.596 8.596 0 0 0 -2.342.746c-.475.24-.76.421-1.19.72-.085.059-.136.106-.214.168l-.434.362c-.815.807-1.476 1.607-1.949 2.67-.488 1.097-.86 2.515-.86 3.821zm-13.528 5.894c-.81 0-1.478.046-2.224-.26-.112-.045-.292-.161-.386-.186v-4.333c.827 0 2.462-.047 3.207.104.42.084.679.196 1.001.4 1.257.791 1.121 2.848.272 3.693-.544.542-.989.582-1.87.582zm-.51-7.741h-2.1c0-.659-.072-1.845.14-2.377.178-.444.628-.777 1.076-.899.8-.217 1.542-.175 2.195.308.376.278.695.646.695 1.216 0 1.265-.826 1.752-2.005 1.752zm-6.206-3.855v13.093c0 .15.892.634 1.082.733.414.216.82.382 1.283.564a8.991 8.991 0 0 0 3.11.583c1.42 0 3.246-.058 4.5-.498a5.201 5.201 0 0 0 3.49-4.918c0-2.045-.857-3.31-2.406-4.25-.209-.128-.56-.257-.619-.337.313-.084 1.024-.824 1.27-1.151.752-1.002.754-2.501.295-3.633a4.08 4.08 0 0 0 -.45-.855c-.094-.141-.186-.252-.287-.382a4.164 4.164 0 0 0 -.661-.645c-1.454-1.195-2.669-1.235-4.782-1.235-2.166 0-4.12.665-5.401 2.24-.1.123-.424.526-.424.691zm16.846-17.999h.691c1.826.026 3.649.253 5.387.663.394.093.765.198 1.15.313.998.298 2.243.735 3.161 1.201.65.33 1.303.628 1.927 1.003 1.28.768 2.503 1.603 3.615 2.594.077.069.112.08.19.16l.765.7c.212.21.9.9 1.057 1.107.067.088.108.117.184.2l.495.587c.902 1.073 1.68 2.237 2.379 3.449.353.613.661 1.253.974 1.923a20.684 20.684 0 0 1 1.461 4.367c1.254 5.76.47 11.23-2.182 16.33l-.531.933a21.79 21.79 0 0 1 -1.783 2.58l-.989 1.177c-.324.369-1.274 1.333-1.64 1.64l-.982.833c-.14.111-.265.215-.405.327-.138.11-.28.21-.418.314l-1.28.886c-.442.297-.905.534-1.356.809l-.472.26c-.313.158-.642.341-.962.47-.151.062-.339.15-.503.23-.78.375-1.842.751-2.677.984-.361.1-.75.21-1.128.305-.792.198-1.556.34-2.43.466-1.267.185-2.553.21-3.865.21-1.95 0-4.483-.394-6.29-1-.383-.129-.74-.217-1.104-.361-1.376-.545-2.704-1.091-3.971-1.855-.154-.093-.301-.173-.457-.276-.09-.06-.149-.09-.236-.146-.078-.05-.127-.09-.21-.14a15.44 15.44 0 0 1 -1.696-1.202l-.8-.664c-.087-.07-.123-.107-.206-.177-.448-.38-.896-.787-1.304-1.211-.08-.083-.094-.126-.173-.209-.065-.066-.11-.109-.176-.174-.735-.736-1.366-1.573-1.989-2.406l-.866-1.299a27.249 27.249 0 0 1 -1.052-1.878c-.496-.992-.92-2.01-1.277-3.086-.594-1.784-1.044-3.864-1.142-5.77l-.034-1.4c-.046-.562.002-.448.002-1.021 0-.658.065-1.418.15-2.049.268-2.006.72-3.948 1.469-5.824.073-.183.13-.337.209-.524.314-.749.684-1.49 1.079-2.201.05-.09.072-.143.123-.227l1.12-1.778c.409-.617 1.592-2.118 2.128-2.649.506-.5 1.115-1.192 1.647-1.6.382-.293.78-.674 1.205-.992l.824-.61c.148-.112.277-.192.435-.297.939-.626 2.227-1.398 3.256-1.838 1.53-.653 2.714-1.097 4.326-1.5a22.688 22.688 0 0 1 5.177-.657zm-9.939 37.623c1.14 0 2.091.16 3.037.368.866.19 2.508.622 3.333.902.214.072.434.142.653.207 1.186.349 2.694.867 3.867 1.258l2.578.829c.43.145.86.25 1.297.39 1.754.561 5.332 1.398 7.134 1.398l-.619.368c-.399.24-1.653.83-2.06.997-1.088.447-2.58.976-3.806 1.226-.288.058-.767-.312-1.037-.447l-4.472-2.628c-.111-.068-.21-.121-.318-.192-1.159-.75-2.636-1.597-3.827-2.286-1.467-.849-3.318-1.713-4.92-2.179-.2-.058-.628-.18-.84-.18zm4.583-1.37c.34 0 1.601.163 1.984.213.666.088 1.288.179 1.93.266 5.435.744 11.008 1.899 16.653.959.904-.15 2.333-.479 3.205-.806.111-.041.299-.126.419-.154-.064.095-.145.193-.218.29-.076.102-.139.192-.22.29l-1.432 1.69c-.261.296-1.456 1.423-1.848 1.75-.126.105-.233.097-.423.118-2.718.304-6.377-.416-8.97-1.18-1.327-.39-2.643-.754-3.962-1.194-.282-.095-.502-.17-.795-.256-.854-.251-2.206-.734-3.103-1.035-.518-.174-1.038-.318-1.576-.493a12.585 12.585 0 0 0 -.79-.229c-.224-.056-.62-.197-.854-.197zm-.156-.018c.038-.092.135.136.04.045-.001-.001-.1.099-.04-.045zm-16.745-12.565c0-2.37.299-4.412.895-6.464.1-.34.207-.734.337-1.064.07-.177.118-.334.187-.514l.4-1.001c.724-1.757 1.745-3.378 2.878-4.892l1.98-2.257.726-.674c.083-.064.109-.103.18-.17.667-.621 1.428-1.19 2.176-1.709a21.061 21.061 0 0 1 1.722-1.08l1.378-.723c1.368-.691 3.212-1.33 4.719-1.648 4.677-.987 8.92-.717 13.342.966.902.343 1.8.742 2.63 1.222.077.045.146.074.227.123.153.092.293.163.446.255.72.432 1.427.899 2.099 1.403.395.297.806.595 1.165.937l1.624 1.528.827.925c.071.076.084.112.159.19.074.079.093.11.16.191l.911 1.19 1.103 1.7c.674 1.12 1.38 2.587 1.785 3.82.529 1.609.847 2.758 1.1 4.506.557 3.836.02 7.906-1.395 11.454-.15.375-.307.74-.484 1.109-.17.355-.319.73-.524 1.068-.055.091-.086.159-.133.25-.126.242-.597 1.11-.74 1.234-.065.057-.44.194-.556.24-.757.295-1.596.552-2.428.755-1.91.465-4.107.641-6.367.638-.593 0-2.519-.126-3.209-.197-5.203-.54-10.89-1.811-15.983-1.811-1.744 0-3.396.16-4.862.454a20.549 20.549 0 0 0 -3.605 1.075c-.143.057-.331.157-.477.191-.067-.1-.152-.211-.228-.313-.716-.966-1.304-2.021-1.841-3.095a22.165 22.165 0 0 1 -2.324-9.812z" fill="#fff"/><path d="m98.298 31.77c-.319-.274-.478-.65-.478-1.125 0-.476.16-.851.478-1.127a1.584 1.584 0 0 1 1.06-.413c.387 0 .74.138 1.06.413.318.276.478.651.478 1.127 0 .475-.16.85-.479 1.126a1.584 1.584 0 0 1 -1.06.413c-.387 0-.74-.138-1.059-.413zm-31.35-.9-1.819 1.82c-.813-.775-1.838-1.163-3.076-1.163-1.275 0-2.282.366-3.02 1.098-.737.732-1.106 1.799-1.106 3.2a4.72 4.72 0 0 0 .89 2.806c.307.433.739.777 1.295 1.033.556.257 1.203.385 1.941.385 1.05 0 1.982-.306 2.795-.92v-2.102h-3.132v-2.44h5.664v5.725c-1.138 1.627-2.92 2.44-5.346 2.44-1.212 0-2.281-.197-3.207-.591-.925-.394-1.653-.926-2.185-1.596a7.06 7.06 0 0 1 -1.19-2.205 8.085 8.085 0 0 1 -.395-2.534c0-.951.141-1.837.422-2.657.282-.82.7-1.558 1.257-2.215s1.291-1.173 2.204-1.548c.913-.376 1.95-.563 3.113-.563 1.95 0 3.583.675 4.895 2.027zm34.163-20.388c-.318-.275-.478-.65-.478-1.126 0-.475.16-.85.478-1.126a1.584 1.584 0 0 1 1.06-.413c.388 0 .74.138 1.06.413.319.275.478.65.478 1.126s-.16.851-.478 1.126a1.584 1.584 0 0 1 -1.06.413c-.388 0-.74-.137-1.06-.413zm-8.655 10.606v-10.53h-3.996v-2.61h10.897v2.61h-3.995v10.53zm-23.173-10.605c-.318-.276-.478-.651-.478-1.127 0-.475.16-.85.478-1.126a1.584 1.584 0 0 1 1.06-.413c.388 0 .74.138 1.06.413.319.275.478.65.478 1.126s-.16.851-.478 1.127a1.584 1.584 0 0 1 -1.06.413c-.388 0-.74-.138-1.06-.413zm-7.005-2.535c1.326 0 2.416.304 3.273.91.857.608 1.285 1.493 1.285 2.657 0 1.251-.582 2.146-1.744 2.684.8.288 1.384.795 1.753 1.52.369.727.478 1.49.328 2.29-.375 2.053-1.969 3.08-4.782 3.08h-6.583v-13.141zm-.037 7.547h-3.564v3.04h3.601c1.288 0 1.932-.5 1.932-1.501 0-.476-.169-.851-.506-1.127-.338-.275-.826-.412-1.463-.412zm.037-5.012h-3.6v2.571h3.563c1.138 0 1.707-.413 1.707-1.239 0-.4-.144-.722-.432-.966-.287-.245-.7-.366-1.238-.366z" fill="#ff2936"/></g></svg>