<svg width="48" height="47" xmlns="http://www.w3.org/2000/svg" xmlns:xlink="http://www.w3.org/1999/xlink"><defs><path id="a" d="M0 .267h47.353v46.427H0z"/></defs><g fill="none" fill-rule="evenodd"><ellipse fill="#00C3DE" cx="23.667" cy="23.51" rx="23.667" ry="23.184"/><g transform="translate(0 .06)"><mask id="b" fill="#fff"><use xlink:href="#a"/></mask><path d="M23.61 1.246C10.915 1.28.918 11.097.934 23.513c.016 12.32 10.205 22.295 22.76 22.28 12.518-.013 22.726-10.071 22.699-22.365-.028-12.38-10.13-22.216-22.783-22.182M0 23.355C.01 10.258 10.908-.247 24.655.286c12.81.497 22.021 10.18 22.66 21.746.806 14.616-11.167 24.675-23.71 24.662C10.553 46.68-.009 36.216 0 23.354" fill="#FFF" mask="url(#b)"/></g><path d="M32.256 23.08c-2.548.243-4.575.363-6.58.642-5.522.768-9.775 3.896-13.864 7.3-1.31 1.09-2.53 2.302-3.934 3.26-.602.41-1.566.313-2.365.446.106-.755-.048-1.7.359-2.235 3.646-4.8 7.495-9.445 12.295-13.213 3.475-2.727 5.355-2.78 8.953-.263 1.66 1.16 3.185 2.509 5.136 4.063" fill="#FFF"/><path d="M24.937 24.395c2.74 0 5.26-.036 7.776.037.41.011.875.441 1.195.785a443.993 443.993 0 015.771 6.314c.324.36.652.795.754 1.244.094.418.04 1.045-.228 1.314-.259.262-.89.291-1.326.225-.41-.062-.812-.34-1.163-.594-4.122-2.996-8.234-6.005-12.779-9.325" fill="#FFF"/><path d="M8.602 13.949l.437-.086c0-.104.003-.183.008-.235.286.183.575.274.867.274.339 0 .626-.108.863-.324.237-.217.404-.47.5-.758.097-.29.145-.59.145-.903 0-.286-.021-.552-.063-.796a3.389 3.389 0 00-.21-.727 1.238 1.238 0 00-.454-.566 1.29 1.29 0 00-.742-.207 1.6 1.6 0 00-.797.21 22.208 22.208 0 01-.054-2.234 2.31 2.31 0 00-.594.18l.094 6.172zm1.335-.532a1.68 1.68 0 01-.535-.082c-.164-.054-.261-.129-.293-.222l.024-2.516a.697.697 0 01.293-.308.848.848 0 01.426-.114c.208 0 .382.068.523.203.14.136.242.314.305.536a3.885 3.885 0 01.155 1.175c0 .188-.01.354-.034.5a1.557 1.557 0 01-.13.418.671.671 0 01-.276.305.906.906 0 01-.457.105zm3.618.524c.26-.021.488-.106.683-.254a1.47 1.47 0 00.45-.559 3.204 3.204 0 00.304-1.382c0-.553-.15-1.054-.453-1.504-.302-.45-.703-.676-1.203-.676a.825.825 0 00-.617.281 1.8 1.8 0 00-.399.703 6.24 6.24 0 00-.199.805 4.1 4.1 0 00-.066.695c0 .505.13.931.39 1.278.26.346.63.55 1.11.613zm-.055-.602c-.224 0-.426-.123-.605-.37a1.347 1.347 0 01-.27-.81c0-.223.018-.482.055-.777.036-.294.117-.597.242-.91.125-.312.279-.48.46-.5.345.042.613.221.806.54.192.317.289.69.289 1.116 0 .146-.02.313-.059.5-.04.188-.096.374-.172.559-.075.185-.178.34-.309.465a.617.617 0 01-.437.187zm3.625.602c.26-.021.488-.106.684-.254a1.47 1.47 0 00.449-.559 3.203 3.203 0 00.305-1.382 2.64 2.64 0 00-.454-1.504c-.302-.45-.703-.676-1.203-.676a.825.825 0 00-.617.281c-.177.188-.31.422-.398.703a6.24 6.24 0 00-.2.805 4.1 4.1 0 00-.066.695c0 .505.13.931.39 1.278.261.346.63.55 1.11.613zm-.055-.602c-.224 0-.425-.123-.605-.37a1.347 1.347 0 01-.27-.81c0-.223.019-.482.055-.777.036-.294.117-.597.242-.91.125-.312.279-.48.461-.5.344.042.612.221.805.54.193.317.289.69.289 1.116 0 .146-.02.313-.059.5a3.152 3.152 0 01-.172.559c-.075.185-.178.34-.308.465a.617.617 0 01-.438.187zm5.516.485c.057 0 .221-.037.492-.11a2.256 2.256 0 01-.023-.36c0-.108.006-.32.02-.636.012-.315.019-.566.019-.754 0-1.291-.284-2.018-.852-2.18a1.173 1.173 0 00-.351-.046c-.339 0-.584.156-.735.468-.245-.312-.544-.468-.898-.468-.24 0-.438.122-.594.367l-.023-.399-.352-.078a32.348 32.348 0 00-.062 2.141c-.006.964-.016 1.61-.032 1.937.104.027.198.04.282.04a.59.59 0 00.28-.063v-3.094a.883.883 0 01.22-.258.458.458 0 01.265-.07c.11.005.202.044.278.117a.72.72 0 01.175.309c.042.133.073.277.094.434.02.156.035.343.043.562.008.219.012.428.012.629 0 .2.002.43.008.691.005.26.015.493.03.696a.613.613 0 00.22.039c.099 0 .205-.016.32-.047a61.076 61.076 0 01-.02-.828c-.007-.407-.017-.809-.027-1.207-.01-.399-.026-.744-.047-1.035.104-.136.193-.23.266-.286a.46.46 0 01.258-.09c.427.011.64.558.64 1.641 0 .203-.008.483-.023.84a20.52 20.52 0 00-.024.707c0 .182.01.307.032.375a.27.27 0 00.109.016zm2.344-.094c.218 0 .553-.05 1.004-.152.45-.102.79-.194 1.02-.278l-.079-.344c-.01 0-.121.019-.332.055-.211.037-.452.072-.723.106-.27.033-.5.05-.687.05a.898.898 0 01-.406-.086.752.752 0 01-.27-.214 1.012 1.012 0 01-.156-.328 2.206 2.206 0 01-.078-.372 5.145 5.145 0 01-.028-.398c.078-.016.22-.04.422-.07.203-.032.378-.06.524-.086.145-.026.313-.068.504-.125a2.26 2.26 0 00.468-.192.987.987 0 00.313-.285.692.692 0 00.129-.414.871.871 0 00-.32-.7 1.125 1.125 0 00-.743-.269c-1.177 0-1.765.651-1.765 1.953a3.927 3.927 0 00.242 1.356c.083.232.208.422.375.57a.853.853 0 00.586.223zm-.703-2.445c.041-.318.191-.586.449-.805.258-.219.545-.328.863-.328.125 0 .219.039.281.117.063.078.112.203.149.375-.453.224-1.034.437-1.742.64zm3.468 2.539c.136 0 .227-.078.274-.235-.01-.036-.02-.3-.028-.789-.007-.49-.01-.935-.007-1.336l.003-.625v-.086a5.86 5.86 0 01.329-.238 1.87 1.87 0 01.316-.16.962.962 0 01.363-.078c.26 0 .446.146.555.437l.344.024a.786.786 0 00.015-.18.64.64 0 00-.293-.57 1.274 1.274 0 00-.722-.196c-.26 0-.573.151-.938.454l-.023-.524-.352-.078c-.078.854-.166 2.117-.265 3.789a.48.48 0 00.16.277.405.405 0 00.27.114zm4.742.03c.12 0 .201-.08.243-.241 0-.203.011-.508.035-.914.023-.407.035-.714.035-.922 0-1.521-.44-2.281-1.32-2.281a1.7 1.7 0 00-.617.12c-.209.081-.38.19-.516.325l.156.398c.328-.245.623-.367.883-.367.443 0 .685.305.727.914a.4.4 0 01-.067-.008 1.381 1.381 0 00-.074-.011.503.503 0 00-.063-.004c-.479 0-.907.195-1.285.586-.377.39-.566.828-.566 1.312 0 .287.103.53.308.73.206.201.447.301.723.301.365 0 .708-.156 1.031-.468a.476.476 0 00.11.39c.078.094.164.14.258.14zm-1.359-.608a.512.512 0 01-.523-.547c0-.386.152-.714.457-.985.304-.27.642-.409 1.011-.414h.063c.01.281.016.5.016.656 0 .188-.006.464-.016.829-.443.307-.779.46-1.008.46zm2.586.5a.59.59 0 00.281-.063l-.03-3.094c.077-.093.136-.159.175-.195a.492.492 0 01.203-.094c.096-.026.23-.039.402-.039.151 0 .278.05.38.149.1.099.176.24.226.421a3.3 3.3 0 01.101.555c.019.188.028.406.028.656 0 .151-.004.364-.012.637-.008.274-.012.46-.012.559 0 .192.01.33.032.414.104.047.25.07.437.07a.672.672 0 00.18-.016 45.312 45.312 0 00-.035-1.566 12.334 12.334 0 00-.09-1.086 4.585 4.585 0 00-.14-.715.963.963 0 00-.231-.402.674.674 0 00-.317-.191 1.961 1.961 0 00-.437-.04c-.36 0-.677.146-.953.438l-.024-.438-.351-.078a32.348 32.348 0 00-.063 2.141c-.005.964-.016 1.61-.031 1.937.104.027.198.04.281.04zm4.281 2.039c.266 0 .496-.047.692-.141.195-.094.346-.212.453-.355.107-.144.191-.329.254-.555.062-.227.103-.444.12-.653.02-.208.028-.455.028-.742 0-.13-.002-.323-.008-.578a30.671 30.671 0 01-.007-.562v-.087c-.003-.374-.018-1.087-.047-2.14a6.636 6.636 0 01-.008-.367l-.352.078c0 .11-.002.19-.008.242a1.613 1.613 0 00-.874-.273c-.506 0-.882.19-1.13.57-.247.38-.37.852-.37 1.414 0 .224.011.435.035.633.023.198.067.402.132.613.066.211.15.39.254.54a1.231 1.231 0 001.039.511c.282 0 .55-.073.805-.219-.005.6-.104 1.008-.297 1.227-.192.219-.468.328-.828.328-.135 0-.345-.018-.629-.055l-.488-.062a.61.61 0 00-.023.187c0 .037.006.089.019.157.013.067.022.13.027.187.578.068.982.102 1.211.102zm.313-2.414a.725.725 0 01-.524-.204 1.163 1.163 0 01-.304-.535 3.847 3.847 0 01-.125-.61 5.056 5.056 0 01-.032-.566c0-.37.079-.683.235-.94.156-.259.375-.388.656-.388.198 0 .379.028.543.082.164.055.262.13.293.223l-.023 2.523a.713.713 0 01-.29.301.841.841 0 01-.43.114zM15.344 39.982c.39-.005.708-.133.953-.383s.367-.541.367-.875a.914.914 0 00-.215-.617 1.383 1.383 0 00-.523-.379c-.206-.086-.41-.166-.614-.242a1.582 1.582 0 01-.519-.309.637.637 0 01-.215-.492c0-.245.05-.405.152-.48.102-.076.278-.113.528-.113.281 0 .674.104 1.18.312l.078-.312-.301-.122a10.57 10.57 0 00-.395-.152 3.822 3.822 0 00-.36-.101 1.75 1.75 0 00-.405-.055c-.308 0-.546.105-.715.316-.17.211-.254.473-.254.785 0 .214.036.399.11.555.072.156.169.28.288.371.12.091.252.17.395.235.143.065.286.123.43.175.143.052.274.107.394.164a.81.81 0 01.29.223.52.52 0 01.109.332.53.53 0 01-.235.461c-.156.11-.357.164-.601.164a1.906 1.906 0 01-.555-.09 3.273 3.273 0 01-.262-.113 7.734 7.734 0 00-.277-.125l-.227.234c.146.183.344.334.594.453.25.12.518.18.805.18zm3.14-.055a3.71 3.71 0 001.25-.218c-.047-.089-.12-.23-.218-.422a2.05 2.05 0 01-.586.11c-.209 0-.374-.058-.496-.173-.123-.114-.204-.28-.243-.496a4.57 4.57 0 01-.07-.648 42.2 42.2 0 01-.02-.77 6.043 6.043 0 00-.046-.718c.146-.01.364-.038.656-.083.292-.044.508-.071.648-.082l-.086-.351a20.37 20.37 0 00-.609-.031c-.27-.01-.474-.021-.61-.032 0-.093 0-.227-.003-.402l-.008-.477a17.215 17.215 0 00-.012-.402l-.351-.086c-.026.36-.05.826-.07 1.399a1.12 1.12 0 01-.067-.004l-.046-.003-.036-.001c-.052 0-.13.004-.234.012-.105.007-.18.011-.227.011a.727.727 0 01-.18-.015c0 .01.019.19.055.539l.336-.004c.193-.003.315-.007.367-.012 0 .089-.001.253-.004.492l-.004.563c0 .25.006.471.016.664.01.193.035.397.074.613.04.216.09.395.152.535a.94.94 0 00.266.352.62.62 0 00.406.14zm2.57.008c.303 0 .62-.093.954-.281l.062.203c.104.026.198.04.282.04a.8.8 0 00.296-.063 77.788 77.788 0 01-.12-1.953 39.476 39.476 0 01-.067-1.797v-.078l-.375-.07c-.042.4-.068.998-.078 1.792-.01.795-.021 1.288-.031 1.48a2.042 2.042 0 01-.743.157.871.871 0 01-.507-.14.823.823 0 01-.301-.403 2.4 2.4 0 01-.133-.54 5.34 5.34 0 01-.035-.66c0-.145.006-.359.02-.64.012-.281.019-.479.019-.594 0-.203-.018-.39-.055-.562l-.351-.078a12.458 12.458 0 00-.106 2.457c.013.185.046.39.098.617.052.227.122.417.21.57.09.154.216.283.38.387.164.104.358.156.582.156zm5.04.125l.101-6.172a2.31 2.31 0 00-.593-.18 22.208 22.208 0 01-.055 2.234 1.62 1.62 0 00-.805-.21c-.291 0-.54.073-.746.219a1.269 1.269 0 00-.453.59 3.645 3.645 0 00-.203.722c-.04.235-.059.485-.059.75 0 .516.132.977.395 1.383s.631.61 1.105.61c.308 0 .6-.089.875-.266.005.052.008.13.008.234l.43.086zm-1.336-.531c-.594 0-.89-.443-.89-1.328 0-.208.01-.406.034-.594.024-.187.065-.39.125-.605.06-.216.162-.39.305-.52a.745.745 0 01.52-.195.85.85 0 01.425.113c.133.076.23.178.293.309l.024 2.515c-.032.094-.13.168-.293.223a1.709 1.709 0 01-.543.082zm2.539-4.102a.267.267 0 00.223-.105.44.44 0 00.082-.277.67.67 0 00-.141-.418.427.427 0 00-.352-.184.239.239 0 00-.207.106.472.472 0 00-.074.277.72.72 0 00.125.422c.083.12.198.18.344.18zm-.04 4.446c.136 0 .227-.081.274-.242-.01-.22-.031-.786-.062-1.7a35.534 35.534 0 00-.11-2.011L27 35.842a33.937 33.937 0 00-.11 1.972c-.03.899-.051 1.455-.062 1.668a.48.48 0 00.16.277.405.405 0 00.27.114zm2.485.21c.26-.02.488-.105.684-.253a1.47 1.47 0 00.449-.559 3.204 3.204 0 00.305-1.383c0-.552-.151-1.053-.453-1.504-.303-.45-.704-.675-1.204-.675a.825.825 0 00-.617.281c-.177.187-.31.422-.398.703a6.24 6.24 0 00-.2.805 4.1 4.1 0 00-.066.695c0 .505.13.931.39 1.277.261.347.631.551 1.11.614zm-.055-.6c-.223 0-.425-.125-.605-.372a1.347 1.347 0 01-.27-.809c0-.224.019-.483.055-.777.037-.294.117-.598.242-.91.125-.313.279-.48.461-.5.344.042.612.221.805.539.193.318.29.69.29 1.117 0 .146-.02.313-.06.5a3.233 3.233 0 01-.171.559c-.076.185-.179.34-.309.465a.617.617 0 01-.438.187zm3.047.5c.391-.006.709-.134.953-.384a1.21 1.21 0 00.368-.875.914.914 0 00-.215-.617 1.383 1.383 0 00-.524-.379 16.9 16.9 0 00-.613-.242 1.582 1.582 0 01-.52-.309.637.637 0 01-.214-.492c0-.245.05-.405.152-.48.102-.076.277-.113.527-.113.282 0 .675.104 1.18.312l.078-.312-.3-.122a10.57 10.57 0 00-.395-.152 3.822 3.822 0 00-.36-.101 1.75 1.75 0 00-.406-.055c-.307 0-.545.105-.715.316-.169.211-.253.473-.253.785 0 .214.036.399.109.555a.98.98 0 00.289.371c.12.091.251.17.395.235.143.065.286.123.43.175.142.052.274.107.394.164a.81.81 0 01.289.223c.073.091.11.202.11.332a.53.53 0 01-.235.461c-.156.11-.357.164-.602.164a1.906 1.906 0 01-.555-.09 3.273 3.273 0 01-.261-.113l-.086-.04a6.017 6.017 0 00-.192-.085l-.226.234c.146.183.344.334.594.453.25.12.518.18.804.18z" fill="#FFF" fill-rule="nonzero"/></g></svg>
