<svg id="Layer_1" data-name="Layer 1" xmlns="http://www.w3.org/2000/svg" viewBox="0 0 719.8 202.01"><defs><style>.cls-1{fill:#31b7bc;}.cls-2{fill:#fff;}</style></defs><path class="cls-1" d="M141.46,135.82l-24.74,24.75a7.5,7.5,0,0,1-10.56,0L55.4,109.8a7.48,7.48,0,0,1,0-10.55l14-14H81.93c14.13,0,20.59-3.36,22.86-12H81.42l24.74-24.75a7.5,7.5,0,0,1,10.56,0l24.74,24.75H128.54c-18.45,0-23.86,5.69-23.86,21.47v19.63c0,15.79,5.41,21.48,23.86,21.48Z"/><path class="cls-1" d="M167.47,99.27l-14-14h-24.3c-8.53,0-10.64,2.48-10.64,10.19v18.35c0,7.8,2.11,10.1,10.73,10.1h24.12l14.08-14.09A7.48,7.48,0,0,0,167.47,99.27Zm-23.61,17.85h-7.09V103.27h7.09Zm0-18.14h-7.09v-6.9h7.09Z"/><polygon class="cls-2" points="227.8 94.9 239.71 94.9 239.71 123.98 250.83 123.98 250.83 94.9 262.75 94.9 262.75 85.3 227.8 85.3 227.8 94.9"/><polygon class="cls-2" points="344.88 94.9 356.79 94.9 356.79 123.98 367.92 123.98 367.92 94.9 379.84 94.9 379.84 85.3 344.88 85.3 344.88 94.9"/><path class="cls-2" d="M206.11,85.3a21.64,21.64,0,0,0-7.38,1,13.23,13.23,0,0,0-4.84,3.06,11.55,11.55,0,0,0-2.8,4.83,25.62,25.62,0,0,0-.76,6.37v8.14a24.16,24.16,0,0,0,.76,6.36,10.14,10.14,0,0,0,2.8,4.83,13.1,13.1,0,0,0,4.84,3.06,21.62,21.62,0,0,0,7.38,1h17.24V113.8H207.12c-2.29,0-3.81-.51-4.58-1.53a7.88,7.88,0,0,1-1.27-4.83v-6.62c0-2.29.51-4.07,1.27-4.84s2.29-1.27,4.58-1.27h16.23V85.28Z"/><path class="cls-2" d="M515.18,85.3a21.48,21.48,0,0,0-7.39,1A13.08,13.08,0,0,0,503,89.37a11.53,11.53,0,0,0-2.81,4.85,26.1,26.1,0,0,0-.76,6.37v8.15a24.62,24.62,0,0,0,.76,6.37A10.18,10.18,0,0,0,503,120a13.08,13.08,0,0,0,4.84,3.05,21.48,21.48,0,0,0,7.39,1h17.27V113.84H516.2q-3.44,0-4.59-1.53a7.91,7.91,0,0,1-1.27-4.84v-6.63c0-2.29.51-4.08,1.27-4.84s2.3-1.27,4.59-1.27h16.25V85.28Z"/><polygon class="cls-2" points="536.41 94.9 548.32 94.9 548.32 123.98 559.44 123.98 559.44 94.9 571.37 94.9 571.37 85.3 536.41 85.3 536.41 94.9"/><path class="cls-2" d="M283.55,124V85.3h10.87V124Z"/><path class="cls-2" d="M395.29,113.86h18.19V124H384.42V85.3h28.81V95H395.29v5.69H408v7.83H395.29Z"/><path class="cls-2" d="M647.78,113.86H666V124H636.91V85.3h28.81V95H647.78v5.69h12.67v7.83H647.78Z"/><path class="cls-2" d="M575.11,124V85.3H586V124Z"/><path class="cls-2" d="M620.47,85.3h12.64v.5L619.74,124H603.31L589.81,85.8v-.5H602.7l8.74,28.82h0Z"/><polygon class="cls-2" points="500.97 123.98 471.72 123.98 475.07 115.66 486.35 115.66 478.64 97.6 477.38 97.6 465.85 124.04 454.98 124.04 473.33 85.3 482.69 85.3 500.97 123.98"/><path class="cls-2" d="M453.66,100.14V96.31a11,11,0,0,0-11-11H417.79V124h10.87V111.15H430L440.57,124h12.95v-.31L443.18,111.1A11,11,0,0,0,453.66,100.14ZM442,99.07a3.33,3.33,0,0,1-3.33,3.33H428.4V95.59h10.3A3.33,3.33,0,0,1,442,98.92Z"/><polygon class="cls-2" points="313.19 123.98 313.19 99.11 324.12 123.98 340.3 123.98 340.3 85.3 329.42 85.3 329.42 111.02 317.99 85.3 302.32 85.3 302.32 123.98 313.19 123.98"/></svg>