<svg xmlns="http://www.w3.org/2000/svg" xml:space="preserve" id="Слой_1" x="0" y="0" version="1.1" viewBox="0 0 909 176.6"><style>.st0{fill:#fff}</style><path d="M147.8 15.8h101.6v23h-75.2v33.6h50.1v23h-50.1V133h77.5v23h-104V15.8z" class="st0"/><path d="M244.5 56.4h27l23.7 69.5 22-69.5h26.2L307 156.1h-24.3l-38.2-99.7zM339.2 106.5c0-30.4 21.1-52 51.3-52 30 0 51.1 21.6 51.1 52 0 30-21.5 51.5-51.8 51.5-29.9 0-50.6-21.1-50.6-51.5zm75.8.6v-.8c0-19-9.3-30.4-24.5-30.4-15.4 0-24.7 11.4-24.7 30.4v.8c0 18.6 9.1 29.6 24.3 29.6 15.4 0 24.9-11 24.9-29.6zM453.6 13.9H480v142.2h-26.4V13.9zM495.1 116.2V56.4h26.2v58.3c0 13.3 6.3 21.1 18.2 21.1 13.7 0 19.4-11.6 19.4-28.7V56.4h26.2v99.7h-26.2V142c-5.3 10.4-14.4 16.1-27.2 16.1-22.7-.1-36.6-16.2-36.6-41.9zM609 129.7V77.5h-14.2V56.4H609V37.6l25.6-14.4v33.2h19.7v21.1h-19.9v49.7c0 4.9 2.3 7 7.2 7.2h11.6v21.8h-20.3c-19.2-1.2-23.5-10-23.9-26.5zM666.1 16.2h27.2v25.6h-27.2V16.2zm.5 40.2H693v99.7h-26.4V56.4zM704.9 106.5c0-30.4 21.1-52 51.3-52 30 0 51.1 21.6 51.1 52 0 30-21.5 51.5-51.8 51.5-29.9 0-50.6-21.1-50.6-51.5zm75.8.6v-.8c0-19-9.3-30.4-24.5-30.4-15.4 0-24.7 11.4-24.7 30.4v.8c0 18.6 9.1 29.6 24.3 29.6 15.4 0 24.9-11 24.9-29.6zM819 56.4h26.2v16.3c5.3-11.6 15-18.4 29.2-18.4 21.8 0 34.7 14.6 34.7 42v59.8h-26.2V97.8c0-13.9-5.3-21.1-17.5-21.1-12.5 0-20.1 10.1-20.1 28.7v50.7H819V56.4zM110.6 174.5c-4.5 0-8.1-3.6-8.1-8.1s3.7-8.1 8.1-8.1c4.5 0 8.1 3.6 8.1 8.1.1 4.4-3.6 8.1-8.1 8.1m0-18.4c-5.6 0-10.2 4.6-10.2 10.2s4.6 10.2 10.2 10.2c5.7 0 10.2-4.6 10.2-10.2s-4.5-10.2-10.2-10.2" class="st0"/><g><path d="M93.9 81.1c8.1.3 17.1 0 26.9-.7-1.4-19.9-7.9-36.3-17.6-49.1.5 3.5.7 7.1.7 10.7.1 14.1-3.6 27.5-10 39.1zM90.5 86.7C76 108.6 51.2 123 23 123c-2 0-4-.1-6-.2-7.2 11-11.9 23.3-17 34.8 50.6 27 115.9-1.5 120.8-70.3-11.2-.9-21.3-1-30.3-.6z" class="st0"/><radialGradient id="SVGID_1_" cx="1193.063" cy="-458.016" r="69.002" fx="1124.216" fy="-453.399" gradientTransform="matrix(-.8331 -.5531 .4978 -.7498 1273.941 357.01)" gradientUnits="userSpaceOnUse"><stop offset=".17"/><stop offset=".215" stop-color="#060606"/><stop offset=".354" stop-color="#191919"/><stop offset=".487" stop-color="#373737"/><stop offset=".611" stop-color="#606060"/><stop offset=".722" stop-color="#969696"/><stop offset=".817" stop-color="#d6d6d6"/><stop offset=".885" stop-color="#ececec"/></radialGradient><path fill="url(#SVGID_1_)" d="M0 10.1c14.1 31.7 24.6 68.8 93.9 71 6.4-11.6 10.1-25 10.1-39.2 0-3.6-.3-7.2-.7-10.7C79.4-.2 36-9.1 0 10.1z"/><radialGradient id="SVGID_00000147188751106411918010000000331299303528025510_" cx="946.052" cy="-237.356" r="29.011" fx="930.139" fy="-237.018" gradientTransform="matrix(-.4226 -.9063 2.3873 -1.1132 1020.232 698.008)" gradientUnits="userSpaceOnUse"><stop offset=".116"/><stop offset=".169" stop-color="#4c4c4c"/><stop offset=".265" stop-color="#909090"/><stop offset=".392" stop-color="#c2c2c2"/><stop offset=".545" stop-color="#e1e1e1"/><stop offset=".699" stop-color="#ececec"/></radialGradient><path fill="url(#SVGID_00000147188751106411918010000000331299303528025510_)" d="M90.5 86.7c-41.7 2.1-61.3 17.3-73.5 36 2 .1 4 .2 6 .2 28.2.1 53-14.3 67.5-36.2z"/></g><g><path d="M106.7 164.7h-1.5v-1h4.3v1H108v4.3h-1.3v-4.3zM110.1 163.7h2l1 3.4 1-3.4h2v5.3h-1.3v-4.3l-1.4 4.3h-1l-1.3-4.3v4.3H110v-5.3h.1z" class="st0"/></g></svg>
