<svg width="65" height="30" xmlns="http://www.w3.org/2000/svg"><g fill="none"><path d="M48.3 7.5v-.6h4V19c0 1.2-.3 2.4-1.1 3.4-.8.9-1.8 1.5-3 1.7-2.5.5-4.8.1-7-1-.2-.1-.3-.2-.3-.5V19c.5.3 1 .6 1.5.8 1.2.5 2.4.9 3.7.8.3 0 .6-.1.9-.2.7-.2 1.1-.7 1.2-1.5v-1.5c-.3.2-.6.4-.9.5-2.1 1.1-4.9.4-6.4-1.5-.7-.9-1.1-2-1.2-3.2-.1-1.2 0-2.5.5-3.6 1-1.8 2.5-2.9 4.5-3.1 1.1-.1 2.1.1 3 .6.2.1.4.3.6.4zm0 4.9v-1.3c0-.1-.1-.2-.1-.3-.5-.5-1.1-.8-1.8-.8-.9-.1-1.6.2-2.1.9-.4.7-.5 1.5-.3 2.3.2.8.6 1.3 1.4 1.5 1.1.3 2-.1 2.8-.8 0 0 .1-.1.1-.2v-1.3zM12 1.8v3.8H4.2v2.9h7v3.8h-7v2.8H12V19H.1V1.9C4 1.8 8 1.8 12 1.8zm18.5 5.1V14c0 .3 0 .6.1.8.3.8 1.2 1.2 2.1.9.5-.2.9-.5 1.2-.9.1-.1.1-.2.1-.3V7h4v12.1h-4v-.8c-.1.1-.2.1-.2.2-1.8 1.6-4.8 1.4-6.4-.4-.8-.9-1.1-1.9-1-3.1V7.3c0-.2 0-.3.3-.3h3.5c.1-.1.2-.1.3-.1zm-11.6 8.7h5.7V19H13.4v-3.1c0-.1 0-.2.1-.3 1.2-1.1 2.3-2.3 3.5-3.4.6-.6 1.2-1.2 1.9-1.8l.2-.2h-5.5V6.9h11v3c0 .1-.1.2-.1.3-1.1 1.1-2.3 2.2-3.4 3.4-.8.6-1.5 1.3-2.2 2zM58.5 19h-4V6.9h4V19z" fill="#FFF"/><path d="M58.8 2.7c0-1.5 1.3-2.7 2.8-2.7 1.5 0 2.7 1.3 2.7 2.8 0 1.5-1.3 2.7-2.8 2.7-1.5 0-2.7-1.3-2.7-2.8z" fill="#F72442"/><path d="M25.6 24.4v4.8H25v-3.5c-.6.9-1.2 1.9-1.8 2.9-.6-1-1.2-1.9-1.8-2.9v3.5h-.6v-4.8h.6c.1 0 .1.1.2.2.5.8 1 1.7 1.6 2.5 0 .1.1.1.1.2.1-.1.2-.3.2-.4.5-.8 1-1.6 1.4-2.3.1-.2.2-.2.4-.2h.3zM8.9 29.1h-.6v-1.9c0-.4-.2-.7-.5-.8-.3-.1-.8 0-1 .3v2.4h-.6v-2c0-.4-.2-.7-.5-.7-.4-.1-.8.1-1 .4v2.4h-.6v-3.3h.6v.2c.6-.5 1.3-.5 1.9.1 0 0 .1-.1.2-.1.4-.3.8-.4 1.3-.3.5.1.9.5.9 1.1-.1.7-.1 1.5-.1 2.2zM0 28.2c.3.1.6.3.9.3.3.1.7.1 1 .1.4 0 .6-.3.7-.7 0-.3-.2-.6-.5-.8-.2-.1-.5-.1-.7-.2-.2 0-.3-.1-.5-.1-.5-.2-.8-.6-.9-1.1 0-.6.2-1.1.7-1.3.7-.3 1.5-.2 2.2 0l.1.1v.5l-.9-.3c-.3-.1-.6-.1-1 .1-.3.1-.5.4-.5.7 0 .3.2.5.6.6.3.1.6.1.9.2.9.2 1.3 1 1 1.9-.3.6-.8.8-1.4.9-.5 0-1.1-.1-1.5-.3-.1-.1-.2-.1-.2-.3v-.3zm37.1-.4h-2.5c0 .6.5 1 1.1.9.5 0 .9-.2 1.3-.5v.6s0 .1-.1.1c-.7.5-1.9.6-2.6-.1-.5-.5-.6-1.5-.2-2.2.4-.6 1.1-.9 1.8-.7.6.2 1.1.7 1.1 1.5.1 0 .1.2.1.4zm-.7-.6c0-.5-.4-.9-.9-.9s-.9.4-.9.9h1.8zm-23.9 1.9h-.6v-.2c-.3.2-.7.4-1 .3-.8 0-1.3-.6-1.1-1.3.1-.5.6-.9 1.2-.9h.5c.2 0 .3.1.5.1.1-.4-.1-.8-.5-.9-.4-.1-.8.1-1.2.2-.1 0-.1.1-.2.1V26c0-.1 0-.1.1-.1.6-.3 1.1-.3 1.7-.2.5.1.8.5.8 1-.2.9-.2 1.7-.2 2.4zm-.6-1c0-.4 0-.4-.4-.5-.2-.1-.5-.1-.7 0-.3 0-.5.2-.5.5s.1.5.4.6c.3.1.6.1.8-.1.3-.1.5-.2.4-.5zm16.3 1.2c-1 0-1.7-.7-1.7-1.8 0-1 .7-1.7 1.7-1.7s1.7.7 1.7 1.7-.7 1.8-1.7 1.8zm1.1-1.8c0-.7-.5-1.1-1.1-1.1-.6 0-1.1.5-1.1 1.2s.5 1.1 1.1 1.1c.7-.1 1.1-.6 1.1-1.2zm4.3-1.6c-.1.3-.2.6-.3.8-.3.8-.6 1.5-.9 2.3-.1.1-.1.2-.3.2-.5 0-.5 0-.7-.4-.4-.9-.7-1.8-1.1-2.7 0-.1 0-.1-.1-.2h.6c.1 0 .1.1.2.2.3.7.6 1.4.8 2.1 0 .1.1.1.1.2.1-.3.2-.5.3-.7.2-.5.4-1.1.6-1.6.1-.1.1-.2.3-.2h.5zm-17.3.5h-.6v-.5h.6v-.8c0-.1 0-.2.2-.3.1-.1.3-.1.4-.2v1.3h.8v.6h-.8v1.7c0 .5.2.6.7.6h.1c0 .6.1.6-.5.6s-.9-.3-.9-.9v-2.1zm-2.2 2.7h-.6v-3.3h.6v.5c.3-.5.7-.7 1.2-.6v.7h-.4c-.4 0-.9.4-.9.9.1.6.1 1.2.1 1.8z" fill="#FFF"/></g></svg>
