<svg height="47" width="132" xmlns="http://www.w3.org/2000/svg" xmlns:xlink="http://www.w3.org/1999/xlink"><mask id="a" fill="#fff"><path d="m.034.116h68.711v45.926h-68.71z" fill="#fff" fill-rule="evenodd"/></mask><mask id="b" fill="#fff"><path d="m0 .139h13.703v28.567h-13.703z" fill="#fff" fill-rule="evenodd"/></mask><g fill="#fff" fill-rule="evenodd"><path d="m50.243 16.673.768.257c-.232-2.903-.483-5.738-1.23-8.51l.082-.061c.088.054.21.087.257.165.195.329.425.653.538 1.011.45 1.41.761 2.852.989 4.311a266.8 266.8 0 0 0 .545 3.364c.019.115.092.27.186.316.48.233.975.436 1.48.655.133-.275.028-.49.003-.697-.134-1.128-.289-2.253-.428-3.38-.236-1.917-.46-3.836-.702-5.753-.08-.63-.226-1.249-.527-1.82-.42-.8-1.047-1.298-1.995-1.401-1.189-.13-2.255.12-3.251.778-2.13 1.408-4.48 1.894-7.011 1.461-.716-.122-1.36-.463-1.988-.815-1.144-.641-2.157-1.449-3.117-2.327a13.299 13.299 0 0 0 -4.156-2.61 4.993 4.993 0 0 0 -1-.252c-1.482-.245-2.956-.192-4.447.027-1.858.273-3.2 1.273-4.319 2.656-.713.883-1.336 1.825-1.74 2.883a9.284 9.284 0 0 0 -.43 1.577c-.176.927-.298 1.864-.455 2.795-.169 1.002-.325 2.008-.536 3.003-.157.743-.659 1.233-1.423 1.374a28.83 28.83 0 0 1 -2.546.348c-2.263.211-4.53.369-6.792.596-1.27.127-2.54.31-3.794.544-.945.176-1.849.523-2.708.961-.122.063-.236.204-.462.06.114-.107.2-.221.316-.294 1.177-.738 2.433-1.306 3.826-1.496a307.94 307.94 0 0 1 6.225-.776c1.632-.189 3.254-.417 4.827-.898a7.911 7.911 0 0 0 1.006-.387c.729-.337 1.009-.978 1.133-1.704.191-1.119.36-2.242.556-3.36.34-1.943.996-3.759 2.24-5.343a10.728 10.728 0 0 1 3.996-3.171c.77-.355 1.603-.498 2.447-.576a15.065 15.065 0 0 1 4.27.198 7.856 7.856 0 0 1 3.68 1.784c.371.32.717.674 1.043 1.04 1.304 1.463 2.917 2.482 4.723 3.25 1.237.525 2.442.333 3.651-.063 1.018-.333 1.96-.823 2.894-1.333 1.004-.548 2.081-.82 3.231-.877 1.183-.058 2.05.48 2.776 1.31.459.525.706 1.148.86 1.825.419 1.852.6 3.726.651 5.617.024.884.02 1.77.087 2.652.068.896.206 1.786.315 2.68.018.145.027.297.203.363.247.093.303.315.349.533.206.996.406 1.994.61 2.991l.688 3.337.827 4.033c.281 1.373.56 2.747.84 4.12.101.491.198.983.301 1.474.029.136.075.268.113.402l.102.012c.057-.09.133-.175.168-.273.375-1.042.793-2.071 1.103-3.131.513-1.756.99-3.524 1.417-5.302.452-1.879.835-3.774 1.236-5.665.202-.952.381-1.909.562-2.865.04-.215.156-.297.369-.305 1.202-.046 2.405-.098 3.608-.144.111-.004.224.023.362.04-.018.113-.014.188-.043.25-.499 1.07-.744 2.208-.918 3.362-.42 2.8-.404 5.613-.225 8.43.15 2.372.382 4.735.762 7.082.247 1.528.512 3.055.818 4.573.175.865.449 1.711.673 2.567.025.092.02.191.034.338-1.7-.126-3.346-.317-5.003-.496 0-.159-.014-.261.002-.359.282-1.708.402-3.428.388-5.156a56.128 56.128 0 0 0 -.082-3.005c-.08-1.298-.33-2.573-.681-3.828-.088-.312-.175-.625-.271-.935-.033-.105-.094-.202-.194-.41-.267.59-.318 1.128-.465 1.636-.151.524-.276 1.056-.411 1.585a417.132 417.132 0 0 0 -.793 3.177c-.135.544-.267 1.089-.404 1.632-.132.53-.27 1.058-.405 1.587s-.27 1.058-.408 1.586-.274 1.057-.418 1.584c-.142.515-.234 1.048-.478 1.527l-.128.006c-.061-.104-.146-.2-.182-.313-.482-1.519-.955-3.04-1.436-4.56-.536-1.688-1.079-3.374-1.617-5.062-.376-1.181-.749-2.364-1.126-3.545-.016-.049-.062-.088-.142-.2-.04.178-.08.284-.084.39-.116 3.407-.114 6.813.12 10.216.086 1.235.222 2.467.499 3.679.045.197.104.392.174.655l-4.456.162c-.006-.18-.026-.334-.012-.485.218-2.305.47-4.608.655-6.916.254-3.176.46-6.355.47-9.544.006-2.095-.014-4.187-.223-6.276-.19-1.902-.572-3.759-1.235-5.558-.058-.16-.088-.33-.156-.59" mask="url(#a)" transform="translate(46.118 .069)"/><path d="m90.844 20.216c.01-.166.03-.308.023-.448-.096-1.84-.144-3.685-.31-5.52-.125-1.362-.404-2.711-.615-4.066-.02-.131-.062-.26-.069-.391-.008-.177.013-.352.264-.444.094.24.188.467.273.697.901 2.437 1.445 4.954 1.723 7.53.1.923.204 1.846.29 2.771.028.302.106.504.43.643a4.41 4.41 0 0 1 1.49 1.056c.565.603.85 1.307.827 2.133-.024.857-.204 1.67-.707 2.386-.529.752-1.245 1.179-2.206 1.157-1.302-.03-2.142-1.34-1.59-2.492.127-.267.283-.522.397-.794.262-.621.14-1.091-.46-1.39-1.056-.524-2.185-.716-3.31-.253-.899.37-1.459 1.068-1.642 2.027-.128.667-.059 1.328.125 1.97.273.95.933 1.595 1.807 2.049.789.409 1.64.653 2.486.914 1.204.372 2.418.72 3.483 1.422 1.05.691 1.769 1.619 2.154 2.803a8.374 8.374 0 0 1 .138 4.797c-.35 1.34-1.04 2.514-2.022 3.505-1.907 1.923-4.24 2.997-6.975 3.102-1.915.074-3.613-.574-4.99-1.907-1.165-1.13-1.595-2.534-1.478-4.118.056-.764.264-1.477.717-2.112a2.953 2.953 0 0 1 3.143-1.13c.702.178 1.313.496 1.823 1.007.865.866.81 2.229.337 3.047-.346.597-.906.786-1.586.571-.092-.029-.19-.038-.327-.065.023.668.253 1.217.63 1.702.779.999 1.827 1.406 3.092 1.288a4.259 4.259 0 0 0 3.886-4.176c.011-1.216-.203-2.376-.926-3.404-.546-.777-1.285-1.335-2.143-1.713-.943-.417-1.927-.745-2.888-1.125-.737-.292-1.488-.564-2.194-.92-1.512-.76-2.345-1.985-2.439-3.664-.096-1.722.133-3.386.974-4.929.88-1.612 2.226-2.676 3.997-3.24a8.698 8.698 0 0 1 4.013-.302c.1.016.202.015.355.026m34.486 8.31h-.12c0-1.237.004-2.473-.004-3.71-.002-.372-.053-.419-.42-.393-.435.03-.869.081-1.3.14-.506.07-1.01.148-1.513.239-.444.08-.492.147-.49.582.002.427.008.854.012 1.281.018 1.944.034 3.888.056 5.831.003.27.231.476.506.455a95.177 95.177 0 0 0 2.812-.268c.44-.047.461-.09.461-.534zm-6.779-4.023-1.176.155c-.046-.148-.103-.281-.129-.42a203.2 203.2 0 0 1 -.496-2.698c-.069-.395-.057-.426.352-.507.9-.177 1.802-.343 2.707-.49 1.41-.229 2.823-.439 4.235-.656 1.71-.262 3.42-.523 5.129-.782.042-.007.087.01.18.021.04.12.1.252.123.39.119.683.233 1.367.338 2.052.042.28-.021.35-.32.429-.378.098-.754.2-1.133.292-.242.059-.33.184-.328.44.015 2.42.142 4.833.367 7.242.134 1.423.249 2.85.432 4.268.19 1.475.427 2.947.693 4.411a48.21 48.21 0 0 0 .777 3.587c.286 1.096.67 2.168 1.012 3.251l.081.258c-1.28.337-2.554.593-3.878.886-.064-.27-.135-.505-.174-.745-.317-1.935-.629-3.87-.94-5.807-.153-.96-.3-1.923-.451-2.884-.07-.44-.113-.462-.555-.39-1.127.188-2.257.363-3.384.547-.678.11-.692.11-.824.75-.233 1.126-.446 2.256-.668 3.384-.21 1.07-.424 2.141-.634 3.212-.12.608-.233 1.217-.355 1.824-.078.396-.165.425-.554.287-.805-.286-1.616-.556-2.425-.83-.418-.142-.422-.189-.306-.61.247-.895.502-1.79.687-2.699.27-1.314.5-2.636.71-3.96.169-1.063.315-2.131.416-3.202.194-2.054.388-4.11.505-6.17.084-1.485.045-2.976.055-4.465.001-.112-.04-.223-.069-.37zm-95.732 4.023h-.097c0-.339.005-.677-.001-1.016-.016-.914-.034-1.827-.055-2.74-.008-.336-.048-.397-.352-.36a91.07 91.07 0 0 0 -2.99.416c-.343.054-.385.146-.38.49.006.649.021 1.297.03 1.946.021 1.753.04 3.507.062 5.26.008.586.07.423 1.249.354a23.46 23.46 0 0 0 1.541-.148c.976-.123.994-.004.993-.621-.002-1.194 0-2.387 0-3.58m-5.861 18.378c-.183-.023-.32-.018-.442-.06-.838-.282-1.673-.574-2.508-.863-.362-.125-.375-.144-.262-.508.546-1.753.9-3.548 1.176-5.356.262-1.72.512-3.443.715-5.17.29-2.477.46-4.965.506-7.458.016-.855-.007-1.71-.022-2.565-.007-.373-.059-.408-.427-.362-.15.02-.297.046-.446.07-.358.058-.43.016-.494-.325-.144-.768-.281-1.538-.42-2.308-.05-.271-.096-.544-.153-.87.375-.083.705-.172 1.041-.228a549.23 549.23 0 0 1 4.988-.812c1.53-.24 3.065-.46 4.596-.691.55-.083 1.1-.174 1.65-.26.426-.068.445-.05.517.378.107.64.222 1.278.33 1.918.073.441.047.472-.387.578-.306.075-.612.151-.917.234-.447.122-.482.157-.463.61.077 1.84.145 3.683.248 5.523.147 2.637.442 5.262.83 7.875.39 2.612.9 5.202 1.687 7.733.14.45.319.889.477 1.334.042.12.073.243.124.415-.48.112-.915.215-1.35.314-.704.16-1.406.328-2.112.474-.423.088-.462.05-.528-.366-.272-1.704-.536-3.409-.811-5.113a434.55 434.55 0 0 0 -.656-3.928c-.063-.374-.104-.4-.468-.343-1.233.197-2.463.408-3.697.596-.334.051-.493.204-.551.53a191.627 191.627 0 0 1 -.632 3.302c-.28 1.418-.57 2.835-.855 4.253-.092.46-.18.922-.284 1.449m57.256-22.459c-.176-.012-.281-.037-.382-.024-.982.13-1.965.253-2.944.404-.387.06-.428.15-.423.546l.046 3.754c.014 1.149.027 2.297.046 3.446.005.337.071.418.388.39 1.018-.085 2.034-.184 3.05-.293.298-.032.348-.104.352-.41.005-.44 0-.883-.01-1.324-.039-1.811-.083-3.622-.122-5.433-.007-.336-.001-.673-.001-1.056m6.234 21.3-3.92.875c-.077-.439-.147-.811-.208-1.185-.314-1.922-.626-3.844-.937-5.766-.139-.86-.274-1.719-.412-2.578-.054-.336-.093-.37-.443-.316-1.233.194-2.467.39-3.698.595-.48.08-.487.116-.577.59-.202 1.072-.415 2.143-.625 3.214-.357 1.824-.714 3.648-1.073 5.472-.013.07-.041.137-.076.248-.155-.018-.306-.01-.44-.054-.838-.281-1.672-.575-2.509-.863-.354-.122-.357-.16-.258-.51.224-.795.456-1.59.634-2.395.483-2.192.826-4.408 1.096-6.633.345-2.842.621-5.69.655-8.555.011-.958-.003-1.917-.005-2.876 0-.088.001-.177-.008-.265-.018-.16-.108-.236-.277-.207-.223.038-.444.078-.667.113-.275.042-.333.013-.382-.238-.19-.97-.377-1.94-.556-2.912-.06-.323-.026-.383.323-.453.9-.178 1.801-.35 2.706-.497 1.366-.223 2.735-.426 4.103-.633 1.547-.234 3.094-.464 4.641-.696.179-.027.355-.067.534-.092.315-.043.376-.007.431.293.083.45.152.902.226 1.354.039.232.075.466.118.697.074.391.049.433-.33.527-.336.082-.672.161-1.005.253-.43.118-.46.144-.442.579.075 1.9.14 3.802.248 5.7.073 1.266.176 2.532.333 3.79.251 2.004.538 4.005.849 6 .268 1.72.653 3.42 1.164 5.088.202.662.442 1.314.665 1.971zm-46.948-1.918c-.438-.104-.816-.19-1.19-.284-.933-.235-1.864-.473-2.795-.71-.294-.075-.337-.124-.29-.441.063-.423.152-.842.224-1.264.287-1.686.607-3.368.85-5.06.35-2.424.581-4.86.69-7.308.102-2.317.017-4.627-.134-6.938-.02-.317.01-.362.338-.364.933-.006 1.866-.005 2.8 0 .342.003.386.04.458.365.494 2.228 1.342 4.335 2.257 6.422.94 2.142 1.994 4.226 3.233 6.217.383.617.817 1.202 1.233 1.798.073.103.173.188.27.29.187-.16.123-.332.12-.482-.036-2.285-.077-4.57-.12-6.856-.057-3.154-.116-6.31-.175-9.464-.002-.103 0-.206 0-.31 0-.17.085-.282.253-.319.923-.204 1.84-.455 2.799-.428.013 0 .026.012.095.043 0 .142.01.31-.001.478-.1 1.397-.25 2.792-.296 4.19-.11 3.302-.099 6.605.08 9.906.112 2.046.203 4.094.313 6.14.083 1.546.183 3.09.274 4.636.014.234.025.468.039.726-.127.027-.224.065-.322.066-.692.005-1.385-.006-2.077.008-.262.005-.409-.098-.539-.313-2.505-4.13-5.018-8.257-7.528-12.385l-.356-.582c-.134.451-.084.815-.121 1.166-.039.367-.064.735-.09 1.102-.026.368-.043.736-.07 1.104-.026.368-.06.735-.09 1.102-.029.368-.058.735-.082 1.103-.024.353-.04.707-.06 1.06-.022.368-.054.736-.067 1.104a34.353 34.353 0 0 0 .014 2.211c.016.368.05.735.06 1.104.01.363.003.726.003 1.167m13.127-23.927c.86.046 1.67.132 2.477.123a78.513 78.513 0 0 0 4.376-.148 74.7 74.7 0 0 0 4.626-.45c1.609-.209 3.208-.494 4.808-.767.378-.065.74-.215 1.16-.34.03.15.069.272.075.395.047.942.09 1.885.13 2.828.016.39-.004.422-.398.494-.99.182-1.983.351-2.975.53-1.272.229-2.548.441-3.77.875-.414.147-.421.155-.412.609.038 1.99.038 3.981.137 5.969.117 2.34.291 4.679.496 7.014a43.81 43.81 0 0 0 .885 5.724c.18.804.445 1.59.673 2.384.048.166.103.331.167.538-.158.025-.27.057-.382.057-1.235.004-2.47.004-3.704.001-.416 0-.45-.036-.457-.466-.012-.737-.016-1.474-.024-2.211-.025-2.492-.02-4.985-.085-7.476-.07-2.64-.269-5.273-.762-7.874-.192-1.012-.479-2.007-.733-3.007-.074-.289-.139-.33-.452-.295a54.29 54.29 0 0 0 -1.655.22c-1.057.152-2.113.309-3.17.463-.104.016-.209.026-.314.039-.213.026-.346-.05-.382-.27-.258-1.59-.446-3.185-.38-4.799.003-.055.03-.11.045-.16"/><path d="m8.995 11.458-.288 5.344c-.137-.091-.215-.123-.265-.18-.743-.836-1.676-1.102-2.769-.897-.325.061-.651.116-.974.188-.339.074-.375.118-.381.441-.04 2.023.048 4.037.376 6.04a31.02 31.02 0 0 0 1.519 5.816c.045.121.066.251.11.421-.14.03-.251.071-.362.072-1.415.004-2.83.004-4.245 0-.342 0-.382-.04-.366-.397.047-1.061.112-2.12.155-3.182.153-3.788.212-7.576.034-11.365-.125-2.668-.343-5.328-.792-7.964-.183-1.074-.44-2.135-.662-3.205-.032-.153-.05-.308-.085-.523.19 0 .32-.004.449 0 1.436.047 2.86-.07 4.266-.343 1.858-.36 3.708-.764 5.567-1.123.928-.181 1.868-.301 2.804-.444.118-.018.241-.022.36-.013.23.017.282.083.248.316-.242 1.624-.623 3.213-1.212 4.751-.15.394-.174.401-.528.166-1.456-.964-3.066-1.163-4.754-.872-.71.122-1.402.335-2.1.51-.32.081-.481.26-.548.608-.27 1.395-.435 2.8-.433 4.218 0 .719.073 1.442.18 2.153.077.512.143.51.655.535 1.315.064 2.537-.226 3.662-.902.085-.052.184-.083.38-.17" mask="url(#b)" transform="translate(0 17.217)"/><path d="m74.48 18.519c-1.14-.018-2.187-.352-3.178-.885-1.242-.668-2.292-1.567-3.237-2.588-.434-.469-.836-.967-1.245-1.458a1.598 1.598 0 0 1 -.37-.84c-.063-.516.166-.895.658-1.078.376-.139.761-.153 1.156-.108 1.15.133 2.302.258 3.453.389 1.033.117 1.975-.109 2.808-.724 1.394-1.028 2.779-2.069 4.172-3.098.649-.479 1.308-.944 1.965-1.41.109-.078.229-.145.353-.195.393-.16.676-.047.843.332.04.093.068.196.078.297.076.729.014 1.436-.295 2.119-1.168 2.575-2.523 5.055-3.946 7.5-.707 1.214-1.797 1.777-3.216 1.747m42.301-9.277c-.009.159-.021.317-.024.476a21.382 21.382 0 0 0 .191 3.309c.014.102.028.205.034.308.01.177-.072.284-.26.286-.33.004-.659.001-1.042.001-.005-.173-.025-.329-.013-.481.09-1.103.21-2.203.277-3.307.083-1.384.134-2.772-.125-4.147-.07-.37-.18-.734-.285-1.148.123.02.21.017.283.048.305.126.6.274.908.39.258.096.36.265.41.523.277 1.418.57 2.834.86 4.25.028.136.075.269.144.508.096-.189.15-.268.178-.356.451-1.422.87-2.853 1.112-4.326.027-.16.047-.326.11-.474.038-.09.146-.21.23-.216.355-.024.712-.01 1.118-.01-.067.255-.12.448-.17.643-.274 1.074-.236 2.17-.167 3.257a23.3 23.3 0 0 0 .558 3.804c.04.168.089.335.144.54-.13.017-.226.045-.321.04a13.002 13.002 0 0 1 -.765-.065c-.434-.049-.44-.074-.413-.492.076-1.135.143-2.27-.157-3.388a.408.408 0 0 0 -.174-.238c-.046.112-.106.222-.136.339-.22.872-.435 1.746-.652 2.62-.075.3-.145.602-.23.9-.026.088-.096.165-.205.345-.478-1.374-.856-2.676-1.291-3.957zm-6.415.556c.03.41.07.772.072 1.134 0 .068-.147.172-.245.2-.58.166-.596.161-.553.76.042.602.116 1.202.172 1.804.01.113 0 .228 0 .34-.57.034-.786-.148-.787-.638 0-.233 0-.466-.078-.73-.063.082-.135.16-.187.25-.207.36-.509.618-.887.787-.711.318-1.352.168-1.925-.315-.507-.426-.814-.987-1.002-1.6-.518-1.683-.345-3.325.394-4.908.312-.67.77-1.24 1.494-1.532 1.272-.513 2.514-.006 2.811 1.308a3.38 3.38 0 0 1 -.054 1.747 1.45 1.45 0 0 1 -.549.79c-.467.33-1.243.176-1.368-.457a2.56 2.56 0 0 1 -.048-.74c.03-.298.263-.48.508-.468.247.013.46.212.514.481.022.114.04.228.063.342.002.006.026.009.103.032.034-.128.11-.263.095-.387-.037-.318-.068-.65-.183-.944-.345-.882-1.25-.917-1.878-.39-.467.392-.674.932-.81 1.498a6.496 6.496 0 0 0 .215 3.788c.108.299.277.595.485.837.366.428.892.362 1.208-.102.202-.297.22-.636.253-.973.018-.186-.082-.274-.27-.262-.226.014-.45.044-.676.046-.247.003-.325-.117-.395-.49-.04-.208.062-.309.238-.36.404-.117.81-.223 1.215-.335.535-.149 1.069-.301 1.604-.446.113-.031.234-.036.45-.067m-38.082-2.496c-.05.959-.216 1.792-.897 2.454-.693.675-2.2.82-2.979-.249-.568-.779-.742-1.662-.693-2.594a3.72 3.72 0 0 1 .734-2.053c.84-1.139 2.184-.842 2.859-.17.435.434.68.968.815 1.549.086.371.116.755.161 1.063"/><path d="m113.095 6.904c-.36.063-.653.1-.936.171-.074.02-.17.143-.172.22-.011.675-.01 1.352.01 2.028.003.117.105.21.225.206.291-.008.597.011.873-.149zm.272 3.857c-.462.077-.862.126-1.25.22-.092.022-.189.185-.213.298-.15.706-.282 1.416-.419 2.126-.017.086-.025.175-.042.261-.032.16-.136.233-.294.19a6.205 6.205 0 0 1 -.598-.196c-.195-.075-.197-.232-.16-.407.144-.677.305-1.351.418-2.034.222-1.325.33-2.661.296-4.006-.002-.058-.016-.116-.029-.202-.484-.079-.479-.474-.53-.833-.031-.21.058-.335.28-.374.695-.124 1.388-.258 2.084-.379.355-.061.714-.106 1.072-.148.143-.016.29-.002.469-.002l.107.727c-.043.053-.056.088-.08.097-.584.218-.47.33-.44.723.09 1.146.158 2.295.3 3.434.124 1.008.304 2.011.654 2.974.104.284.071.362-.25.425-.928.18-.852.336-1.001-.636-.112-.727-.24-1.452-.374-2.258zm14.793 1.363c.11.535.474.837 1 .801.462-.031.834-.236 1.077-.633.402-.659.213-1.674-.435-2.104-.343-.228-.75-.364-1.13-.535-.287-.129-.588-.229-.865-.373a1.224 1.224 0 0 1 -.653-.91c-.207-1.22.37-2.26 1.383-2.657.85-.333 1.688-.244 2.45.265.689.46.522 1.247.187 1.635-.11.126-.283.218-.446.275-.231.081-.447.008-.607-.181-.148-.175-.166-.353-.067-.573.225-.498.07-.738-.489-.794-.555-.057-.857.095-1.065.548-.193.42-.02 1.002.39 1.259.275.17.598.27.902.394.332.134.688.224 1 .394.544.297.893.735.833 1.396-.014.146-.02.297 0 .442.163 1.153-1.158 2.407-2.175 2.587-.611.107-1.193.135-1.741-.208-.657-.411-.986-1.175-.794-1.87.098-.35.31-.615.677-.7.397-.092.746.03 1.016.334.413.468.232 1.01-.38 1.153-.026.006-.046.036-.067.055m-1.839-.478c-.037.476-.06.854-.098 1.23-.016.156-.137.21-.29.222-1.259.104-2.517.213-3.776.315-.113.009-.229-.025-.387-.045.041-.324.07-.612.116-.899.288-1.814.353-3.634.18-5.464-.042-.434-.007-.875-.007-1.323l3.245-.301c.08.406.005.783-.036 1.157-.017.166-.185.158-.326.155-.405-.01-.812-.026-1.217-.015-.482.012-.506.043-.55.498a14.11 14.11 0 0 0 -.063.793c-.013.339.04.439.379.484.306.04.624.005.936-.013.144-.009.285-.058.445-.093.143.36.127.692.115 1.068-.14 0-.267-.004-.393 0-.372.016-.745.03-1.116.055-.237.015-.327.169-.359.383-.1.679-.06 1.353.05 2.025.047.292.103.336.425.33a6.89 6.89 0 0 0 2.291-.434c.107-.04.22-.065.436-.128m-48.336-8.248c.63-.01 1.153.058 1.598.367.2.139.376.34.497.55.212.365.08.62-.346.712a3.348 3.348 0 0 1 -.672.06c-.8.007-1.583.11-2.36.309-.498.128-.91.368-1.263.725-.157.158-.304.33-.481.463-.092.068-.268.118-.357.076-.092-.044-.192-.222-.171-.317.076-.356.142-.732.315-1.046.71-1.29 1.887-1.832 3.24-1.899"/></g></svg>