<svg width="178" height="40" fill="none" xmlns="http://www.w3.org/2000/svg"><path d="M38.681 20.19h-18.68v6.64h10.754c-1.028 2.191-2.38 3.799-4.055 4.821-1.675 1.022-3.736 1.535-6.184 1.54-3.756 0-6.915-1.246-9.476-3.736-2.56-2.49-3.841-5.527-3.84-9.11 0-3.468 1.234-6.412 3.7-8.834 2.468-2.423 5.529-3.634 9.184-3.635 4.195 0 7.867 1.666 11.017 4.998l4.977-4.922c-2.272-2.457-4.595-4.19-6.968-5.201A22.93 22.93 0 0 0 20.048.956c-5.317 0-9.773 1.603-13.367 4.81a.47.47 0 0 1-.055.318.482.482 0 0 1-.504.44 8.322 8.322 0 0 0-1.37 1.52c-.09.858-.937 1.476-1.482 2.126-.103.203-.208.405-.319.6-.28.534-.5 1.097-.655 1.68-.163.536-.376 1.048-.572 1.574-.406 1.09-.567 2.23-.912 3.336-.185.59-.421 1.176-.46 1.795-.039.618-.018 1.214-.123 1.822a.415.415 0 0 1-.036.105c.587 3.942 1.862 7.813 4.235 11.055 2.116 2.899 5.276 4.886 8.558 6.225 3.417 1.397 7.337 1.625 10.959 1.034 3.513-.574 6.901-2.032 9.285-4.743 2.424-2.76 4.048-6.058 4.945-9.604a.414.414 0 0 1 .312-.323 18.25 18.25 0 0 0 .25-2.97l-.056-1.566z" fill="#fff"/><path d="M38.572 24.16a18.4 18.4 0 0 1-2.366 6.834c-1.682 2.913-3.861 5.134-6.538 6.664-2.677 1.53-5.816 2.296-9.416 2.297-3.854 0-7.29-.837-10.31-2.51a18.134 18.134 0 0 1-4.588-3.6c-.276-.306 2.566.672 6.996 1.025 3.538.283 8.227.108 12.111-.983 3.95-1.104 7.65-3.376 10.154-5.521 2.646-2.275 3.982-4.402 3.957-4.206z" fill="url(#a)"/><path d="M49.591 6.343h6.367L68.64 39.322h-6.523l-2.581-6.793H46.08l-2.682 6.792h-6.525L49.591 6.343zm3.224 8.744L48.39 26.406h8.823l-4.4-11.32zm23.88-8.744h6.116l7.646 23.003 7.715-23.003h6.112l5.539 32.979h-6.073l-3.541-20.828-7.005 20.828h-5.532l-6.945-20.828-3.618 20.828h-6.123l5.71-32.98zm36.37 0h19.954l-11.741 26.95h10.98v6.03h-20.153l11.685-26.77h-10.725v-6.21zm24.259 0h6.234v32.979h-6.234V6.342zm11.154 0h7.062l6.932 10.588 6.946-10.588h7.054l-10.463 15.99 11.121 16.989h-7.062l-7.592-11.595-7.592 11.595h-7.103l11.155-17.004-10.458-15.975z" fill="#fff"/><path d="M145.906 5.74c-.061-.717-.933-4.785-5.552-4.785-4.427 0-5.397 4.784-5.397 4.784.428-.517 2.409-1.816 5.474-1.816 3.066 0 5.046 1.299 5.475 1.816z" fill="#DEA329"/><path d="M5.67 23.244c-.92-6.547.187-12.25 1.062-17.532C2.075 9.62-.75 15.984.202 23.244c1.111 8.463 8.063 14.99 14.633 16.092-3.732-3.522-7.916-8.967-9.166-16.092z" fill="url(#b)"/><defs><linearGradient id="a" x1="7.074" y1="37.453" x2="39.661" y2="29.999" gradientUnits="userSpaceOnUse"><stop offset=".01" stop-color="#352B19"/><stop offset="1" stop-color="#DEA329"/></linearGradient><linearGradient id="b" x1="3.857" y1="6.013" x2="5.644" y2="39.434" gradientUnits="userSpaceOnUse"><stop stop-color="#342B19"/><stop offset=".924" stop-color="#D59C28"/></linearGradient></defs></svg>
