<svg width="223" height="47" xmlns="http://www.w3.org/2000/svg"><g fill="none"><g fill="#F36C3F"><path d="M12.699.31c.62-.465 1.703.155 1.548.929 0 .774-.929 1.238-1.548.774a.915.915 0 010-1.703zm4.026 1.084c.465-.155.93-.155 1.239.31.31.464.155.928.155 1.393v2.322c-.155.62-.93 1.084-1.549.775-.31-.155-.62-.62-.62-.93v-2.94c.31-.31.465-.775.775-.93zm-3.872 2.632c.62-.31 1.394.155 1.394.929v3.097c0 .619-.774 1.083-1.394.774-.464-.155-.619-.62-.619-.93V5.11c-.155-.465.155-.93.62-1.084zm7.898 3.87c.775-.464 1.704.31 1.549 1.085-.155.774-1.084 1.084-1.703.619-.465-.465-.465-1.394.154-1.703z"/><path d="M16.26 9.135c0-.619.62-1.083 1.084-.929.465 0 .93.465.93.93v4.645c0 .464.31.929.929 1.084.464 0 .774-.31 1.084-.62.155-.774 0-1.548 0-2.168 0-.464.464-.929 1.084-.774.62 0 1.084.465 1.084 1.084v4.336c0 .774.929 1.238 1.548.774.465-.31.31-1.084.775-1.549.464-.464 1.548-.154 1.703.465.155.929 0 1.858 0 2.787 0 .31.31.62.62.774.464.155 1.084 0 1.239-.464.154-.465 0-1.084.31-1.394.309-.62 1.238-.62 1.703 0 .31.31.155.774.155 1.084v18.735c-4.801 2.788-14.557 8.517-15.177 8.826 0 0-10.375-6.038-15.331-8.826v-19.51c.31-.773 1.394-.928 1.858-.154.31.774 0 1.703.31 2.477.155.465.774.775 1.239.465.465-.155.62-.62.62-1.084v-4.955c0-.774 1.238-1.084 1.703-.62.464.465.31 1.085.31 1.55 0 .464-.155 1.083.31 1.548.309.464.928.464 1.393.154.31-.31.465-.774.465-1.083v-6.194c0-.62.464-1.084.929-1.084.464 0 1.084.31 1.084.93v4.335c0 .31.31.619.62.774.464.31 1.238-.155 1.393-.774.155-1.084 0-2.323 0-3.562.155-.619 1.394-.929 1.858-.154.465.774-.155 1.858.465 2.632.465.62 1.703.31 1.703-.62 0-1.083-.154-2.477 0-3.87M8.053 23.07v11.458h4.8v-3.716h4.801v3.716h4.8V23.226h-4.8v3.87h-4.8v-3.87c-1.704-.155-3.253-.155-4.801-.155z"/></g><path d="M197.603 17.187a14.927 14.927 0 013.716 0c1.704.155 3.407.31 4.956 1.084.774.464 1.549 1.084 1.858 1.858.62 1.239.93 2.632 1.084 3.871a35.382 35.382 0 010 5.729c-.155 1.703-.464 3.406-1.084 4.955a3.833 3.833 0 01-2.477 2.168c-1.859.619-3.872.774-5.73.774-1.549 0-3.098 0-4.646-.465-1.084-.31-2.168-.62-3.097-1.548-1.084-1.084-1.549-2.478-1.704-3.871-.155-1.703 0-3.252-.155-4.955 0-1.548 0-2.942.31-4.49.155-1.239.774-2.632 1.704-3.407.619-.619 1.548-.929 2.477-1.238l2.788-.465m2.478 4.645c-.93 0-2.014 0-2.788.465-.31.155-.62.464-.774.774a11.786 11.786 0 00-.465 3.252c0 1.858-.155 3.716.31 5.419.155.62.774 1.084 1.394 1.239 1.084.31 2.323.154 3.561 0 .775-.155 1.704-.465 2.014-1.24.62-1.547.464-3.25.464-4.954 0-1.393 0-2.787-.62-4.026-.774-.929-2.167-.929-3.096-.929zM47.542 17.187h5.42v7.742h6.97v-7.587h5.574V37.47h-5.575v-7.897h-6.969v8.052h-5.575c.155-6.813.155-13.626.155-20.439zM67.52 37.471c2.014-6.813 4.027-13.471 6.195-20.13h8.208c.619 1.55 1.084 3.253 1.548 4.956 1.549 5.11 3.097 10.374 4.646 15.329h-5.575c-.31-1.239-.774-2.323-1.084-3.561h-7.279c-.31 1.238-.619 2.322-.929 3.56-1.858-.154-3.716-.154-5.73-.154m7.898-7.277h4.956c-.774-2.942-1.704-5.884-2.478-8.671-.774 2.787-1.548 5.729-2.478 8.67zM90.13 17.187h11.615c1.548 0 3.097.31 4.336 1.239 1.084.929 1.239 2.322 1.239 3.561 0 1.239 0 2.478-.62 3.716-.464.93-1.703 1.084-2.632 1.394 1.084.155 2.168.464 2.787 1.393.774 1.394.774 2.942.62 4.49-.155 1.394-.465 2.943-1.859 3.562-1.548.929-3.562.774-5.265.774H90.13V17.187m5.574 4.645v3.562h3.252c.775 0 1.704 0 2.323-.31.465-.155.62-.774.62-1.239 0-.62 0-1.239-.31-1.703-.31-.31-.93-.465-1.394-.465-1.548.155-2.942.155-4.49.155m0 7.433v3.87h4.026c.619 0 1.238 0 1.858-.31.464-.309.62-1.083.62-1.702 0-.465 0-1.24-.465-1.549-.62-.31-1.24-.31-1.859-.31h-4.18zm12.543 8.206c2.013-6.813 4.026-13.471 6.04-20.284h8.362c2.013 6.813 4.181 13.471 6.194 20.13h-5.575c-.31-1.085-.619-2.323-1.084-3.562h-7.278c-.31 1.084-.62 2.322-.93 3.406-1.858.31-3.87.31-5.73.31m7.899-7.277h4.955c-.774-2.942-1.703-5.884-2.477-8.671-.93 2.787-1.704 5.729-2.478 8.67zm14.092-13.007h9.137c1.858 5.11 3.717 10.065 5.575 15.02 0 .154.155.31.31.464 0-5.11-.155-10.374-.155-15.33h5.42v20.285h-9.292c-1.858-5.265-3.871-10.374-5.73-15.484h-.31c.156 5.11.156 10.374.31 15.329h-5.42c.155-6.658.155-13.471.155-20.284zm22.92 20.284V17.187h14.711v4.49h-9.291v3.562h8.672v3.716c-2.942.155-5.73 0-8.672 0v3.87h9.446v4.491c-4.8.155-9.756.155-14.866.155zm17.499-20.284h11.46c1.393.155 2.942.31 4.18 1.084.93.62 1.395 1.858 1.704 2.942.31 1.703.31 3.406 0 5.11-.154.774-.31 1.703-.929 2.167-.774.62-1.858.775-2.787 1.239 1.084.155 2.168.31 2.942 1.239.93 1.084.93 2.477.93 3.716v2.787h-5.576c0-1.394.155-2.787-.31-4.18-.154-.775-.929-1.085-1.703-1.085h-4.336v5.42h-5.42c-.155-6.813-.155-13.626-.155-20.439m5.575 4.8v5.574h4.646c.62 0 1.239-.155 1.548-.62.31-.928.31-2.012.31-3.096 0-.464-.155-.774-.31-1.084-.464-.464-1.084-.464-1.548-.62-1.704-.154-3.252-.154-4.646-.154zm36.237-4.49h3.717v1.084h-1.239v3.716h-1.239V18.58h-1.239v-1.084zm4.491 0h2.014c.31.929.62 2.013.929 2.942.464-.93.62-2.013.929-2.942H223v4.8h-1.239c0-1.239.155-2.323 0-3.562-.464 1.24-.774 2.323-1.239 3.562h-1.084c-.464-1.239-.774-2.478-1.239-3.562 0 1.24.155 2.323.155 3.562h-1.239c-.155-1.549-.155-3.097-.155-4.8z" fill="#FFF"/></g></svg>
