<svg height="43" width="151" xmlns="http://www.w3.org/2000/svg" xmlns:xlink="http://www.w3.org/1999/xlink"><mask id="a" fill="#fff"><path d="m.203.073h30.608v22.783h-30.608z" fill="#fff" fill-rule="evenodd"/></mask><mask id="b" fill="#fff"><path d="m.155.146h18.653v22.733h-18.653z" fill="#fff" fill-rule="evenodd"/></mask><mask id="c" fill="#fff"><path d="m0 .059h6.836v6.938h-6.836z" fill="#fff" fill-rule="evenodd"/></mask><mask id="d" fill="#fff"><path d="m.083.201h5.742v8.799h-5.742z" fill="#fff" fill-rule="evenodd"/></mask><mask id="e" fill="#fff"><path d="m0 43h151v-43h-151z" fill="#fff" fill-rule="evenodd"/></mask><g fill="#fff" fill-rule="evenodd"><path d="m21.272 12.72c.874-3.602 1.743-7.204 2.626-10.803.534-2.177.175-1.805 2.356-1.835 1.48-.02 2.96-.003 4.558-.003-.148.621-.23 1.037-.345 1.443-1.904 6.734-3.83 13.463-5.701 20.207-.244.876-.601 1.189-1.536 1.117-1.687-.13-3.386-.158-5.08-.145-.763.005-1.008-.274-1.114-.99-.408-2.784-.878-5.56-1.328-8.338-.041-.25-.105-.496-.383-.757l-1.596 9.8c-2.355 0-4.593.019-6.83-.027-.244-.005-.628-.342-.7-.594a4760.428 4760.428 0 0 1 -5.976-21.104c-.04-.141-.006-.303-.006-.608 1.992 0 3.951-.038 5.905.048.25.011.587.643.686 1.037.868 3.45 1.69 6.911 2.53 10.368.096.392.219.778.577 1.141.638-3.206 1.288-6.41 1.913-9.618.58-2.978.568-2.98 3.609-2.98 3.044 0 3.045 0 3.634 2.953.581 2.914 1.158 5.828 1.742 8.74.065.325.163.642.246.963l.213-.016" mask="url(#a)" transform="translate(120 1)"/><path d="m69.61 10.724c1.75-2.891 3.522-5.768 5.234-8.683.439-.748.925-1.067 1.787-1.04 2.03.065 4.064.021 6.369.021-.344.6-.532.977-.761 1.324-1.755 2.65-3.49 5.315-5.296 7.928-.523.755-.593 1.35-.204 2.205 1.555 3.414 3.029 6.866 4.595 10.448-1.559 0-2.997-.136-4.4.032-1.989.239-3.043-.566-3.506-2.537-.228-.97-.731-1.87-1.218-3.069l-3.437 5.247h-5.671c-.03-.52-.075-.946-.075-1.372-.005-6.26.023-12.52-.027-18.78-.009-1.121.288-1.52 1.388-1.438 1.253.093 2.519.069 3.775.006.868-.044 1.176.238 1.157 1.167-.053 2.6-.02 5.203-.016 7.804 0 .227.036.453.055.68l.25.057m-59.779-.051h4.309v-2.849c0-1.92.026-3.839-.012-5.757-.015-.77.233-1.071 1.027-1.05 1.636.045 3.274.032 4.911.006.645-.01.937.19.935.885-.02 6.237-.016 12.474-.023 18.712 0 .112-.054.224-.093.38h-6.694v-3.463h-4.333v3.168c-2.196 0-4.223.032-6.245-.047-.21-.008-.56-.665-.567-1.026-.05-2.558-.027-5.117-.027-7.676 0-3.239.03-6.478-.018-9.716-.013-.94.277-1.274 1.228-1.228 1.434.07 2.879.089 4.31-.005 1.116-.072 1.334.386 1.312 1.39-.059 2.713-.02 5.427-.02 8.276m103.37-2.75-.298-.044-1.638 10.293h3.473c-.52-3.475-1.029-6.862-1.537-10.25m-10.2 15.58c1.063-3.733 2.055-7.226 3.054-10.717 1.012-3.535 2.055-7.062 3.027-10.607.228-.828.54-1.214 1.46-1.174 1.762.076 3.531-.024 5.292.06.377.017.963.44 1.063.79 2.055 7.186 4.053 14.39 6.06 21.591.031.113.02.237.044.556l-20-.5"/><path d="m.155 22.328 3.16-4.343c.67.699 1.218 1.32 1.82 1.886 1.4 1.32 3.03 2.112 5.041 1.91 1.098-.11 1.99-.534 2.155-1.72.158-1.126-.523-1.809-1.524-2.14-1.11-.367-2.272-.583-3.397-.913-1.084-.318-2.197-.602-3.208-1.08a6.865 6.865 0 0 1 -2.112-1.558c-3.923-4.347-1.455-12.382 4.273-13.804 4.053-1.006 7.713-.253 10.746 2.744.595.589.686 1.035.14 1.71-1.023 1.262-1.963 2.587-2.988 3.953-.466-.387-.824-.696-1.195-.99-1.164-.925-2.456-1.537-4.004-1.472-.972.04-1.934.196-2.188 1.303-.267 1.158.504 1.744 1.478 2.132.411.164.84.295 1.269.409.86.227 1.731.421 2.592.65 5.525 1.466 7.848 5.764 5.935 11.07-.128.355-.693.81-1.047.804-5.476-.092-10.952-.252-16.427-.401-.11-.003-.218-.061-.52-.15" mask="url(#b)" transform="translate(84)"/><path d="m35.266 18.227-1.606-10.35-.288.03-1.618 10.32h3.51zm7.686 3.773-18.952-.51c.379-1.32.709-2.478 1.042-3.635 1.512-5.253 3.043-10.502 4.52-15.765.226-.809.566-1.118 1.416-1.088 1.778.063 3.562-.026 5.338.055.39.018 1.003.413 1.102.754 1.897 6.575 3.732 13.168 5.576 19.759.02.07-.013.156-.042.43zm17.028-13.38c-.505-.474-.775-.758-1.074-1.004-2.232-1.835-5.52-1.077-6.68 1.699-1.397 3.344-1.362 6.797.123 10.104.445.99 1.422 1.725 2.128 2.546-.102.005-.423.042-.743.034-2.496-.063-4.992-.158-7.49-.19-.654-.008-.977-.25-1.18-.884-1.672-5.214-1.447-10.292 1.197-15.1 2.6-4.728 7.623-6.786 12.654-5.4.752.207 1.108.523 1.084 1.399-.059 2.174-.02 4.351-.02 6.797m-40.979 20.309c.624-2.337 1.157-4.417 1.76-6.474.068-.23.536-.462.813-.456a1872.9 1872.9 0 0 1 17.146.491c.247.008.642.241.704.459.54 1.898 1.02 3.815 1.577 5.96-2.236 0-4.257.03-6.275-.04-.225-.008-.523-.541-.633-.889-.3-.953-.252-2.348-.841-2.8-.665-.511-1.874-.202-2.847-.22-1.018-.019-2.042-.07-3.051.035-.333.034-.779.444-.909.798-.358.97-.303 2.424-.922 2.896-.696.53-1.95.215-2.962.234-1.089.022-2.178.005-3.56.005m23.01-5.929 14.984.377c0 1.888.027 3.706-.033 5.52-.008.23-.435.572-.726.649-4.998 1.31-11.298-.06-14.22-6.149-.03-.061-.005-.149-.005-.397m55.99 1.583c-1.489 3.16-3.873 4.855-7.052 5.291-4.241.583-7.803-.872-10.628-4.192-.219-.256-.405-.817-.28-1.046.174-.316.66-.642 1.006-.636 5.484.101 10.967.255 16.45.402.108.003.215.074.504.181m23 4.35c-2.196 0-4.18.029-6.16-.035-.259-.009-.596-.46-.729-.767-.349-.802-.349-1.938-.972-2.371-.596-.415-1.802-.118-2.74-.124-1.017-.007-2.04-.058-3.048.03-.334.028-.785.367-.915.661-.356.809-.296 2.02-.914 2.414-.693.443-1.948.18-2.96.196-1.122.018-2.246.004-3.562.004.414-1.3.728-2.425 1.153-3.515.085-.217.592-.432.899-.426 6.022.114 12.044.248 18.065.43.353.01.861.405 1.001.725.364.836.564 1.731.882 2.778m-56 14.067h-2.055v-4.064c-1.067.69-.225 2.627-2.153 2.422-1.385-.148-.74-1.528-1.622-2.21v3.831h-2.17v-7.763c.15-.056.257-.126.369-.133 2.168-.139 2.166-.137 2.845 1.799.224.642.46 1.28.81 2.251.376-1.083.735-1.835.889-2.622.236-1.208.909-1.681 2.182-1.457.27.048.552.044.905.07z"/><path d="m.009.059h6.821c0 2.195.025 4.24-.035 6.282-.006.223-.49.61-.763.62-1.728.057-3.46.016-5.189.036-.622.008-.85-.242-.844-.86.024-2.009.011-4.017.011-6.077" mask="url(#c)" transform="translate(0 22)"/><path d="m17.993 22c0 2.189.031 4.214-.039 6.235-.009.26-.54.702-.841.714a66.29 66.29 0 0 1 -5.252-.002c-.293-.012-.807-.473-.816-.741-.069-2.065-.038-4.134-.038-6.206zm93.097 17.655v3.235h-2.09v-7.7c1.87-.35 1.869-.35 2.562 1.162.318.692.64 1.383 1.219 2.065v-3.304h2.219v7.734c-1.931.296-1.928.295-2.65-1.236-.322-.686-.663-1.364-.996-2.046l-.263.09"/><path d="m5.722 3.185h-2.156c-.036-.331-.003-.646-.117-.873-.1-.198-.36-.385-.563-.406-.13-.012-.406.285-.41.45a103.458 103.458 0 0 0 -.006 4.486c.003.168.25.432.415.464.166.033.524-.16.53-.271.025-.434.008-.898-.114-1.308-.137-.457-.405-.867-.727-1.526h3.206c0 1.163.137 2.338-.062 3.442-.09.505-.797 1.13-1.31 1.24-.92.2-1.908.093-2.865.043-.9-.048-1.424-.619-1.44-1.598-.03-1.828-.021-3.658-.001-5.486.01-.938.53-1.496 1.35-1.566.99-.084 2-.115 2.983 0 1.217.141 1.492.82 1.287 2.91" mask="url(#d)" transform="translate(3 34)"/><path d="m141.926 37.703h-2.228c-.04-.183-.03-.35-.11-.456-.194-.26-.43-.49-.648-.734-.162.254-.452.502-.464.761a34.916 34.916 0 0 0 -.004 3.29c.014.316.248.631.432.917.019.03.559-.128.569-.226.041-.395.047-.824-.08-1.195-.146-.423-.449-.8-.81-1.41h3.369c0 1.06.145 2.163-.07 3.2-.09.438-.893.941-1.453 1.053-.884.176-1.837.062-2.76.045-1.06-.02-1.651-.529-1.661-1.545-.016-1.59.001-3.179-.008-4.768-.005-.968.539-1.486 1.51-1.585.677-.07 1.365-.047 2.047-.044 2.128.01 2.575.494 2.369 2.697m-107.839 2.457-.482-2.089-.21.006-.512 2.083zm2.913 2.74h-2.217c-.099-1.077-.83-1.244-1.744-1.091-.176.03-.475.09-.494.182-.32 1.54-1.487.807-2.545.99l1.28-4.778c.147-.547.36-1.086.43-1.642.147-1.177.68-1.622 1.941-1.554.979.053 1.367.33 1.586 1.264.517 2.196 1.153 4.366 1.763 6.63zm43-13.903c-2.343 0-4.431.013-6.519-.02-.211-.003-.521-.237-.61-.441-.637-1.472-1.231-2.963-1.871-4.536 2.237 0 4.32-.006 6.404.012.164.001.412.13.477.27.688 1.485 1.347 2.984 2.119 4.714m-14.008-4.996c0 1.566.031 2.958-.03 4.345-.01.223-.428.604-.668.613-1.54.056-3.083.056-4.621-.002-.23-.009-.626-.411-.636-.644-.06-1.425-.03-2.854-.03-4.312zm57.008 1h7c-.188 1.262-.3 2.346-.54 3.392-.06.257-.536.54-.83.554-1.28.06-2.566.088-3.84-.013-.358-.029-.856-.458-.994-.84-.35-.967-.531-2.012-.796-3.093m11 1h7c-.302.962-.5 1.774-.832 2.539-.095.22-.57.421-.88.432-1.306.048-2.617.003-3.925.028-.617.013-.918-.194-.99-.756-.095-.752-.246-1.498-.373-2.243"/><path d="m86 43h2v-8h-2zm-26-23v2h-3z" mask="url(#e)"/></g></svg>