<svg xmlns="http://www.w3.org/2000/svg" width="72" height="33" fill="none"><path fill="#fff" d="M21.06 17.767c-.647 0-1.158-.168-1.534-.505-.377-.338-.565-.796-.565-1.375V5.434c.166-.027.43-.064.79-.112.345-.045.691-.07 1.039-.07.346 0 .65.023.914.07.263.048.485.132.666.253.18.122.316.29.406.506.09.215.136.499.136.849v7.986h5.169c.105.148.203.347.294.596.09.25.135.51.135.779 0 .539-.128.92-.384 1.142-.256.223-.595.334-1.016.334h-6.05zm8.127-6.207c0-1.051.184-1.981.553-2.79a5.786 5.786 0 0 1 1.513-2.032 6.59 6.59 0 0 1 2.257-1.243 8.992 8.992 0 0 1 2.81-.425c1.008 0 1.945.142 2.81.425a6.713 6.713 0 0 1 2.27 1.243 5.723 5.723 0 0 1 1.523 2.032c.369.809.553 1.739.553 2.79s-.18 1.985-.542 2.8a5.649 5.649 0 0 1-1.5 2.042c-.64.546-1.397.96-2.27 1.243-.872.284-1.82.425-2.844.425a9 9 0 0 1-2.844-.434 6.502 6.502 0 0 1-2.257-1.264 5.83 5.83 0 0 1-1.49-2.042c-.361-.809-.542-1.732-.542-2.77zm4.063 0c0 1.226.279 2.143.835 2.75.557.606 1.302.91 2.235.91.948 0 1.7-.304 2.258-.91.556-.607.835-1.524.835-2.75 0-1.213-.275-2.123-.824-2.73-.55-.606-1.298-.91-2.246-.91-.933 0-1.682.3-2.246.9-.565.6-.847 1.514-.847 2.74zm11.445-3.275a2.492 2.492 0 0 1-.294-.607 2.414 2.414 0 0 1-.135-.808c0-.526.132-.903.395-1.133.264-.229.606-.343 1.027-.343h9.842c.106.148.203.35.294.606.09.256.135.526.135.809 0 .526-.132.903-.395 1.132-.264.23-.606.344-1.027.344h-2.505v9.34c-.166.04-.426.081-.78.122a9.2 9.2 0 0 1-1.05.06c-.345 0-.65-.023-.913-.07a1.73 1.73 0 0 1-.666-.253 1.107 1.107 0 0 1-.406-.506c-.091-.215-.136-.498-.136-.849V8.285h-3.386z"/><path fill="#E82F3F" fill-rule="evenodd" d="M66.646 17.44c-.22.168-.562.315-1.025.441-.464.126-.97.19-1.52.19-.66 0-1.226-.088-1.697-.263-.472-.176-.794-.417-.967-.725a40.822 40.822 0 0 1-1.426-2.961 97.886 97.886 0 0 1-.848-2.006 60.016 60.016 0 0 1-.837-2.152 84.031 84.031 0 0 1-.754-2.143 40.356 40.356 0 0 1-.613-1.974c.22-.196.538-.374.955-.535.416-.161.86-.242 1.331-.242.582 0 1.057.109 1.426.326.37.217.64.62.813 1.208.407 1.319.836 2.631 1.285 3.937.432 1.253.884 2.559 1.355 3.917h.142c.424-1.316.86-2.751 1.308-4.306.444-1.542.873-3.09 1.284-4.64a5.88 5.88 0 0 1 .908-.316 4.35 4.35 0 0 1 1.096-.126c.58 0 1.076.116 1.484.347.409.23.613.612.613 1.144 0 .308-.082.756-.247 1.344a32.38 32.38 0 0 1-.637 1.985c-.273.773-.564 1.54-.872 2.3-.305.76-.627 1.512-.966 2.257a37.593 37.593 0 0 1-.907 1.87c-.283.538-.511.913-.684 1.123z" clip-rule="evenodd"/><path fill="#E82F3F" d="M.959 4.11c0-2.403 2.684-3.831 4.676-2.488l10.886 7.334c1.778 1.198 1.761 3.822-.033 4.997l-10.885 7.13C3.608 22.392.959 20.96.959 18.575V4.11z"/><path fill="#fff" d="M6.444 12.838a27.032 27.032 0 0 1-1.821-.62 5.75 5.75 0 0 1-1.412-.762 3.236 3.236 0 0 1-.922-1.068c-.22-.414-.33-.919-.33-1.515 0-1.152.497-2.074 1.491-2.766.994-.691 2.387-1.037 4.178-1.037.653 0 1.26.041 1.822.122a5.93 5.93 0 0 1 1.445.377c.402.169.718.386.945.65.228.265.342.573.342.925 0 .353-.091.655-.274.905a2.642 2.642 0 0 1-.66.64c-.334-.189-.781-.355-1.343-.497a7.498 7.498 0 0 0-1.844-.214c-.683 0-1.184.085-1.503.254-.319.17-.478.383-.478.64 0 .204.099.37.296.5.197.128.493.247.888.355l1.207.346c1.426.406 2.523.925 3.29 1.555.766.63 1.15 1.488 1.15 2.573 0 1.152-.51 2.084-1.526 2.796-1.017.712-2.512 1.067-4.485 1.067-.699 0-1.348-.05-1.947-.152a6.705 6.705 0 0 1-1.571-.447c-.448-.197-.797-.441-1.047-.733a1.5 1.5 0 0 1-.376-1.006c0-.393.129-.729.387-1.007.258-.278.539-.491.842-.64.425.298.945.555 1.56.772a6.017 6.017 0 0 0 2.015.326c.744 0 1.267-.102 1.57-.305.304-.204.456-.44.456-.712a.68.68 0 0 0-.364-.62c-.243-.142-.584-.281-1.025-.417l-.956-.285zm2.438 10.329c-.443 0-.782.121-1.017.365-.236.244-.354.588-.354 1.035 0 .45.13.798.392 1.041.262.244.614.366 1.057.366.236 0 .435-.029.599-.086.164-.057.32-.121.47-.194a.731.731 0 0 1 .31.614c0 .213-.13.393-.392.54-.262.148-.66.222-1.194.222a3.88 3.88 0 0 1-1.087-.147 2.5 2.5 0 0 1-.888-.455 2.158 2.158 0 0 1-.599-.778c-.147-.313-.22-.688-.22-1.123 0-.405.07-.761.211-1.07.134-.299.332-.566.578-.781.244-.213.53-.373.858-.482a3.315 3.315 0 0 1 1.052-.164c.529 0 .938.078 1.229.234.29.155.435.355.435.598a.563.563 0 0 1-.112.35.886.886 0 0 1-.259.233 2.919 2.919 0 0 0-.478-.225 1.706 1.706 0 0 0-.591-.093zm10.063-.809c.098-.052.246-.101.444-.147.197-.047.398-.07.6-.07.287 0 .541.037.763.112.221.075.363.193.427.354.118.311.23.625.336.94.12.358.241.728.362 1.109.222.702.44 1.406.655 2.111a.728.728 0 0 1-.31.175 1.625 1.625 0 0 1-.492.066 1.672 1.672 0 0 1-.349-.03.658.658 0 0 1-.233-.094.473.473 0 0 1-.146-.164 1.339 1.339 0 0 1-.1-.233l-.155-.536h-1.56c-.046.155-.092.316-.138.482-.045.16-.09.322-.138.482a1.66 1.66 0 0 1-.578.093c-.293 0-.51-.045-.65-.136a.426.426 0 0 1-.212-.377c0-.072.011-.145.034-.218a7.82 7.82 0 0 0 .078-.257c.04-.14.096-.313.168-.52.072-.208.151-.432.237-.673.086-.24.178-.489.276-.743l.276-.719c.129-.338.264-.674.405-1.007zm1.035 1.003c-.08.218-.17.46-.272.727-.1.267-.19.538-.271.813h1.069a36.79 36.79 0 0 0-.246-.82c-.083-.268-.16-.507-.228-.72h-.052zm11.34 1.695a10.266 10.266 0 0 1-.69-.237 2.175 2.175 0 0 1-.535-.291 1.233 1.233 0 0 1-.35-.409 1.23 1.23 0 0 1-.124-.579c0-.44.188-.793.565-1.057.376-.265.904-.397 1.582-.397.247 0 .477.016.69.047.212.03.395.079.547.143a.946.946 0 0 1 .358.25.53.53 0 0 1 .13.353c0 .135-.035.25-.104.346a1.019 1.019 0 0 1-.25.245 2.071 2.071 0 0 0-.509-.19 2.819 2.819 0 0 0-.698-.082c-.259 0-.449.032-.57.097-.12.065-.18.147-.18.245 0 .078.037.141.112.19.075.05.187.095.336.137l.457.132c.54.155.956.354 1.246.595.29.24.435.569.435.983 0 .441-.192.797-.578 1.07-.385.272-.95.408-1.698.408-.265 0-.51-.02-.737-.059a2.528 2.528 0 0 1-.595-.17 1.09 1.09 0 0 1-.397-.28.577.577 0 0 1-.142-.386.55.55 0 0 1 .146-.384c.09-.101.2-.184.32-.245.16.114.358.212.59.295.233.083.487.125.763.125.282 0 .48-.04.595-.117.115-.078.173-.169.173-.272a.26.26 0 0 0-.138-.237 1.896 1.896 0 0 0-.388-.16l-.363-.109zM42.658 26.9a3.497 3.497 0 0 1-.698.07 2 2 0 0 1-.35-.027.657.657 0 0 1-.254-.097.425.425 0 0 1-.155-.194.866.866 0 0 1-.052-.327v-4.106c.063-.01.164-.024.302-.043a3 3 0 0 1 .397-.027c.132 0 .248.01.349.027.1.019.185.05.254.098.069.046.12.11.155.194a.867.867 0 0 1 .052.327V26.9zm12.417-.132a.818.818 0 0 1-.35.167 2.229 2.229 0 0 1-.547.059 2.084 2.084 0 0 1-.603-.086c-.19-.057-.345-.194-.466-.412l-.853-1.57a12.62 12.62 0 0 1-.233-.456 12.73 12.73 0 0 1-.224-.493l-.052.007c.023.28.036.565.039.856.002.29.004.575.004.855V26.9a3.21 3.21 0 0 1-.672.07c-.127 0-.24-.007-.337-.023a.547.547 0 0 1-.241-.093.453.453 0 0 1-.147-.19.81.81 0 0 1-.052-.316V22.46a.725.725 0 0 1 .371-.234c.167-.052.345-.078.535-.078.206 0 .41.03.608.09.192.06.346.195.461.408l.862 1.57a11.895 11.895 0 0 1 .457.949l.043-.007c-.023-.28-.037-.56-.043-.84-.005-.28-.008-.56-.008-.84v-1.26a3.21 3.21 0 0 1 .672-.07c.253 0 .446.04.578.121.132.08.198.248.198.501v3.997zm7.425-2.2c0-.405.07-.763.211-1.074.141-.31.334-.571.578-.781.244-.21.532-.37.862-.478.33-.11.689-.164 1.074-.164.385 0 .743.055 1.073.164.33.108.62.268.867.478.25.213.449.48.582.781.14.311.211.669.211 1.074 0 .404-.07.763-.207 1.076a2.174 2.174 0 0 1-.573.786c-.245.21-.534.37-.867.478a3.484 3.484 0 0 1-1.086.163 3.41 3.41 0 0 1-1.087-.167 2.48 2.48 0 0 1-.862-.486 2.24 2.24 0 0 1-.569-.785 2.604 2.604 0 0 1-.207-1.065zm1.552 0c0 .471.106.824.32 1.057.212.233.496.35.853.35.362 0 .65-.117.862-.35.213-.233.32-.586.32-1.057 0-.467-.106-.817-.316-1.05-.21-.233-.495-.35-.858-.35-.356 0-.642.115-.858.346-.215.23-.323.582-.323 1.054z"/></svg>
