<svg xmlns="http://www.w3.org/2000/svg" xmlns:xlink="http://www.w3.org/1999/xlink" width="64" height="64"><defs><linearGradient id="b" x1="90.461%" x2="5.078%" y1="21.353%" y2="69.075%"><stop offset="0%" stop-color="#6A1F4B"/><stop offset="100%" stop-color="#21293C"/></linearGradient><rect id="a" width="64" height="64" x="0" y="0" rx="32"/></defs><g fill="none" fill-rule="evenodd"><mask id="c" fill="#fff"><use xlink:href="#a"/></mask><use fill="url(#b)" fill-rule="nonzero" xlink:href="#a"/><path fill="#2F3B57" d="M104-15.024c-10.621 2.036-19.917 4.512-27.164 7.532C52.193 2.773 57.301 16.592 35.695 27.354c-28.658 14.276-96.38 19.2-155.87 17.967-59.492-1.235 7.144 21.989 34.056 27.152C-31.62 82.928 38.46 86.755 104 83.726v-98.75z" mask="url(#c)" opacity=".322" style="mix-blend-mode:multiply"/><g mask="url(#c)"><path fill="#F3B200" d="M15.865 13.61v3.736c0 4.991 5.217 9.037 11.653 9.037 6.435 0 11.652-4.046 11.652-9.037V13.61c0 4.99-5.217 9.037-11.652 9.037-6.436 0-11.653-4.046-11.653-9.037z"/><path fill="#FFDB00" d="M39.17 13.618c0 4.995-5.217 9.045-11.652 9.045-6.436 0-11.653-4.05-11.653-9.045 0-4.996 5.217-9.045 11.653-9.045 6.435 0 11.652 4.05 11.652 9.045"/><path fill="#FFF53A" d="M27.518 20.958c-5.233 0-9.475-3.29-9.475-7.348 0-1.319.448-2.556 1.232-3.626-.945 1.143-1.494 2.503-1.494 3.962 0 4.058 4.242 7.348 9.475 7.348 3.533 0 6.613-1.5 8.242-3.722-1.684 2.036-4.629 3.386-7.98 3.386"/><path fill="#FFA01F" d="M27.518 20.958c3.351 0 6.296-1.35 7.98-3.386.785-1.07 1.233-2.308 1.233-3.626 0-4.058-4.242-7.348-9.475-7.348-3.351 0-6.296 1.35-7.98 3.386-.785 1.07-1.233 2.307-1.233 3.626 0 4.058 4.242 7.348 9.475 7.348"/><path fill="#E37903" d="M27.181 6.986c5.233 0 9.475 3.29 9.475 7.348 0 .74-.233 1.454-.495 2.127.476-.877.831-1.84.831-2.851 0-4.059-4.242-7.348-9.474-7.348-4.28 0-7.895 2.2-9.071 5.22 1.435-2.641 4.805-4.496 8.734-4.496"/><path fill="#FFBA00" d="M25.136 15.853a5.659 5.659 0 002.341.548c1.292 0 1.898-.501 1.898-1.127 0-.658-.505-1.018-1.817-1.394-1.756-.485-2.584-1.237-2.584-2.145 0-1.221 1.272-2.223 3.372-2.223.989 0 1.857.22 2.402.47l-.444 1.002a4.632 4.632 0 00-1.999-.439c-1.05 0-1.635.47-1.635 1.034 0 .626.585.908 1.857 1.283 1.696.501 2.564 1.159 2.564 2.286 0 1.331-1.332 2.27-3.654 2.27-1.07 0-2.06-.203-2.746-.516l.445-1.05z"/><path fill="#FFBA00" d="M27.468 18.59h.846V8.63h-.846z"/><path fill="#FFDF00" d="M24.762 15.853a5.658 5.658 0 002.342.548C28.396 16.4 29 15.9 29 15.274c0-.658-.504-1.018-1.816-1.394-1.757-.485-2.585-1.237-2.585-2.145 0-1.221 1.272-2.223 3.372-2.223.989 0 1.857.22 2.402.47l-.444 1.002a4.633 4.633 0 00-1.998-.439c-1.05 0-1.636.47-1.636 1.034 0 .626.586.908 1.858 1.283 1.695.501 2.563 1.159 2.563 2.286 0 1.331-1.332 2.27-3.654 2.27-1.07 0-2.059-.203-2.745-.516l.444-1.05z"/><path fill="#FFDF00" d="M27.095 18.59h.845V8.63h-.845z"/><path fill="#FFF53A" d="M28.202 10.545v.008a4.58 4.58 0 011.728.43l.043-.097a4.73 4.73 0 00-1.771-.34M28.202 14.13v.114c.565.271.8.581.8 1.03 0 .409-.26.765-.8.962v.078c.719-.17 1.061-.57 1.061-1.04 0-.513-.306-.844-1.061-1.143M27.095 17.415c-.981-.027-1.879-.223-2.516-.513l.401-.948a3.83 3.83 0 01-.218-.101l-.444 1.049c.686.313 1.675.516 2.745.516h.032v-.003zM27.095 13.854v-.079c-1.515-.485-2.233-1.195-2.233-2.04 0-.981.821-1.82 2.233-2.112v-.047c-1.571.238-2.495 1.119-2.495 2.16 0 .891.8 1.632 2.495 2.118"/><path fill="#FF8900" d="M33.032 25.309c1.75-.73 3.232-1.798 4.3-3.09v-3.736c-1.068 1.292-2.55 2.359-4.3 3.09v3.736z" opacity=".578"/><g><path fill="#FFDB00" d="M18.17 56.61c0 4.99-5.217 9.037-11.652 9.037-6.436 0-11.653-4.046-11.653-9.037 0-4.991 5.217-9.037 11.653-9.037 6.435 0 11.652 4.046 11.652 9.037"/><path fill="#F3B200" d="M-5.135 56.61v3.736c0 4.991 5.217 9.037 11.653 9.037 6.435 0 11.652-4.046 11.652-9.037V56.61c0 4.99-5.217 9.037-11.652 9.037-6.436 0-11.653-4.046-11.653-9.037z"/><path fill="#FFF53A" d="M6.518 63.958c-5.233 0-9.475-3.29-9.475-7.348 0-1.319.448-2.556 1.232-3.626-.945 1.143-1.494 2.503-1.494 3.962 0 4.058 4.242 7.348 9.475 7.348 3.533 0 6.613-1.5 8.242-3.722-1.684 2.036-4.629 3.386-7.98 3.386"/><path fill="#FC8815" d="M6.518 63.958c3.351 0 6.296-1.35 7.98-3.386.785-1.07 1.233-2.308 1.233-3.626 0-4.058-4.242-7.348-9.475-7.348-3.351 0-6.296 1.35-7.98 3.386-.785 1.07-1.233 2.307-1.233 3.626 0 4.058 4.242 7.348 9.475 7.348"/><path fill="#E37903" d="M6.181 49.986c5.233 0 9.475 3.29 9.475 7.348 0 .74-.233 1.454-.495 2.127.476-.877.831-1.84.831-2.851 0-4.059-4.242-7.348-9.474-7.348-4.28 0-7.895 2.2-9.071 5.22 1.435-2.641 4.805-4.496 8.734-4.496"/><path fill="#FFBA00" d="M4.136 58.853a5.659 5.659 0 002.341.548c1.292 0 1.898-.501 1.898-1.127 0-.658-.505-1.018-1.817-1.394-1.756-.485-2.584-1.237-2.584-2.145 0-1.221 1.272-2.223 3.372-2.223.989 0 1.857.22 2.402.47l-.444 1.002a4.632 4.632 0 00-1.999-.439c-1.05 0-1.635.47-1.635 1.034 0 .626.585.908 1.857 1.283 1.696.501 2.564 1.159 2.564 2.286 0 1.331-1.332 2.27-3.654 2.27-1.07 0-2.06-.203-2.746-.516l.445-1.05z"/><path fill="#FFBA00" d="M6.468 61.59h.846v-9.96h-.846z"/><path fill="#FFDF00" d="M3.762 58.853a5.658 5.658 0 002.342.548C7.396 59.4 8 58.9 8 58.274c0-.658-.504-1.018-1.816-1.394-1.757-.485-2.585-1.237-2.585-2.145 0-1.221 1.272-2.223 3.372-2.223.989 0 1.857.22 2.402.47l-.444 1.002a4.633 4.633 0 00-1.998-.439c-1.05 0-1.636.47-1.636 1.034 0 .626.586.908 1.858 1.283 1.695.501 2.563 1.159 2.563 2.286 0 1.331-1.332 2.27-3.654 2.27-1.07 0-2.059-.203-2.745-.516l.444-1.05z"/><path fill="#FFDF00" d="M6.095 61.59h.845v-9.96h-.845z"/><path fill="#FFF53A" d="M7.202 53.545v.008a4.58 4.58 0 011.728.43l.043-.097a4.73 4.73 0 00-1.771-.34M7.202 57.13v.114c.565.271.8.581.8 1.03 0 .409-.26.765-.8.962v.078c.719-.17 1.061-.57 1.061-1.04 0-.513-.306-.844-1.061-1.143M6.095 60.415c-.981-.027-1.879-.223-2.516-.513l.401-.948a3.83 3.83 0 01-.218-.101l-.444 1.049c.686.313 1.675.516 2.745.516h.032v-.003zM6.095 56.854v-.079c-1.515-.485-2.233-1.195-2.233-2.04 0-.981.821-1.82 2.233-2.112v-.047c-1.571.238-2.495 1.119-2.495 2.16 0 .891.8 1.632 2.495 2.118"/><path fill="#FF8900" d="M12.032 68.309c1.75-.73 3.232-1.798 4.3-3.09v-3.736c-1.068 1.292-2.55 2.359-4.3 3.09v3.736z" opacity=".578"/></g><g><path fill="#FFDB00" d="M43.17 41.61c0 4.99-5.217 9.037-11.652 9.037-6.436 0-11.653-4.046-11.653-9.037 0-4.991 5.217-9.037 11.653-9.037 6.435 0 11.652 4.046 11.652 9.037"/><path fill="#F3B200" d="M19.865 41.61v3.736c0 4.991 5.217 9.037 11.653 9.037 6.435 0 11.652-4.046 11.652-9.037V41.61c0 4.99-5.217 9.037-11.652 9.037-6.436 0-11.653-4.046-11.653-9.037z"/><path fill="#FFF53A" d="M31.518 48.958c-5.233 0-9.475-3.29-9.475-7.348 0-1.319.448-2.556 1.232-3.626-.945 1.143-1.494 2.503-1.494 3.962 0 4.058 4.242 7.348 9.475 7.348 3.533 0 6.613-1.5 8.242-3.722-1.684 2.036-4.629 3.386-7.98 3.386"/><path fill="#FFA01F" d="M31.518 48.958c3.351 0 6.296-1.35 7.98-3.386.785-1.07 1.233-2.308 1.233-3.626 0-4.058-4.242-7.348-9.475-7.348-3.351 0-6.296 1.35-7.98 3.386-.785 1.07-1.233 2.307-1.233 3.626 0 4.058 4.242 7.348 9.475 7.348"/><path fill="#E37903" d="M31.181 34.986c5.233 0 9.475 3.29 9.475 7.348 0 .74-.233 1.454-.495 2.127.476-.877.831-1.84.831-2.851 0-4.059-4.242-7.348-9.474-7.348-4.28 0-7.895 2.2-9.071 5.22 1.435-2.641 4.805-4.496 8.734-4.496"/><path fill="#FFBA00" d="M29.136 43.853a5.659 5.659 0 002.341.548c1.292 0 1.898-.501 1.898-1.127 0-.658-.505-1.018-1.817-1.394-1.756-.485-2.584-1.237-2.584-2.145 0-1.221 1.272-2.223 3.372-2.223.989 0 1.857.22 2.402.47l-.444 1.002a4.632 4.632 0 00-1.999-.439c-1.05 0-1.635.47-1.635 1.034 0 .626.585.908 1.857 1.283 1.696.501 2.564 1.159 2.564 2.286 0 1.331-1.332 2.27-3.654 2.27-1.07 0-2.06-.203-2.746-.516l.445-1.05z"/><path fill="#FFBA00" d="M31.468 46.59h.846v-9.96h-.846z"/><path fill="#FFDF00" d="M28.762 43.853a5.658 5.658 0 002.342.548C32.396 44.4 33 43.9 33 43.274c0-.658-.504-1.018-1.816-1.394-1.757-.485-2.585-1.237-2.585-2.145 0-1.221 1.272-2.223 3.372-2.223.989 0 1.857.22 2.402.47l-.444 1.002a4.633 4.633 0 00-1.998-.439c-1.05 0-1.636.47-1.636 1.034 0 .626.586.908 1.858 1.283 1.695.501 2.563 1.159 2.563 2.286 0 1.331-1.332 2.27-3.654 2.27-1.07 0-2.059-.203-2.745-.516l.444-1.05z"/><path fill="#FFDF00" d="M31.095 46.59h.845v-9.96h-.845z"/><path fill="#FFF53A" d="M32.202 38.545v.008a4.58 4.58 0 011.728.43l.043-.097a4.73 4.73 0 00-1.771-.34M32.202 42.13v.114c.565.271.8.581.8 1.03 0 .409-.26.765-.8.962v.078c.719-.17 1.061-.57 1.061-1.04 0-.513-.306-.844-1.061-1.143M31.095 45.415c-.981-.027-1.879-.223-2.516-.513l.401-.948a3.83 3.83 0 01-.218-.101l-.444 1.049c.686.313 1.675.516 2.745.516h.032v-.003zM31.095 41.854v-.079c-1.515-.485-2.233-1.195-2.233-2.04 0-.981.821-1.82 2.233-2.112v-.047c-1.571.238-2.495 1.119-2.495 2.16 0 .891.8 1.632 2.495 2.118"/><path fill="#FF8900" d="M37.032 53.309c1.75-.73 3.232-1.798 4.3-3.09v-3.736c-1.068 1.292-2.55 2.359-4.3 3.09v3.736z" opacity=".578"/></g><g><path fill="#FFDB00" d="M55.35 47.16c.01 1.184-5.199 2.19-11.634 2.246-6.435.057-11.66-.858-11.671-2.043-.01-1.185 5.198-2.19 11.633-2.247 6.436-.056 11.66.858 11.671 2.043"/><path fill="#F47D07" d="M55.35 47.134h-.003l.002.025c.01 1.185-5.198 2.191-11.633 2.248-6.39.055-11.587-.846-11.669-2.02l.03 3.834h.002c.04 1.18 5.253 2.09 11.67 2.034 6.385-.056 11.561-1.047 11.632-2.22v-.009l.002-.018-.001-.018-.031-3.856z"/><path fill="#FFA01F" d="M53.171 47.178c.009.964-4.226 1.782-9.459 1.828-5.232.045-9.48-.699-9.49-1.662-.008-.963 4.227-1.781 9.46-1.827 5.232-.046 9.481.698 9.49 1.661"/><path fill="#E37903" d="M43.347 45.692c5.233-.046 9.481.698 9.49 1.661.001.176-.139.347-.4.509.475-.213.737-.444.734-.684-.008-.963-4.257-1.707-9.49-1.661-4.278.037-7.89.591-9.059 1.318 1.43-.64 4.796-1.109 8.725-1.143"/><path fill="#FFF53A" d="M43.712 49.006c-5.232.045-9.48-.699-9.49-1.662 0-.176.14-.346.4-.508-.475.212-.736.443-.734.683.008.963 4.257 1.707 9.49 1.661 4.278-.037 7.89-.59 9.06-1.318-1.43.64-4.797 1.11-8.726 1.144"/><path fill="#FFBA00" d="M41.32 47.815c.525.058 1.454.117 2.343.11 1.292-.012 1.896-.136 1.895-.285-.001-.156-.507-.237-1.82-.315-1.757-.1-2.586-.271-2.588-.487-.003-.29 1.267-.539 3.366-.557.99-.008 1.858.036 2.404.09l-.442.242a17.877 17.877 0 00-2-.086c-1.05.009-1.634.126-1.633.26.002.148.587.21 1.86.288 1.697.104 2.566.253 2.569.52.002.316-1.328.55-3.65.571-1.07.01-2.059-.03-2.746-.099l.442-.252z"/><path fill="#FFBA00" d="M44.504 48.436l-.846.007-.02-2.363.845-.008z"/><path fill="#FFDF00" d="M40.946 47.818c.526.058 1.455.117 2.343.11 1.292-.012 1.897-.136 1.895-.285 0-.156-.507-.237-1.82-.315-1.757-.1-2.586-.27-2.588-.486-.002-.29 1.267-.54 3.367-.558.989-.008 1.857.036 2.403.09l-.442.243a17.877 17.877 0 00-2-.087c-1.05.01-1.634.126-1.632.26 0 .148.587.21 1.86.288 1.696.104 2.566.253 2.568.52.003.316-1.328.551-3.65.571-1.07.01-2.059-.03-2.746-.098l.442-.253z"/><path fill="#FFDF00" d="M44.13 48.44l-.845.007-.022-2.364.846-.007z"/><path fill="#FFF53A" d="M44.383 47.379v.027c.565.06.8.13.801.237.001.097-.257.184-.797.236v.018c.718-.046 1.06-.144 1.059-.256-.001-.122-.308-.198-1.063-.262M43.282 48.168a26.422 26.422 0 01-2.516-.1l.399-.228a12.99 12.99 0 01-.219-.022l-.442.253c.687.068 1.677.108 2.747.098h.031zM43.275 47.323v-.019c-1.517-.102-2.235-.264-2.237-.465-.002-.232.817-.439 2.228-.52v-.012c-1.57.07-2.492.288-2.49.535.002.212.804.38 2.499.48"/><path fill="#FF8900" fill-opacity=".58" d="M48.646 53.014c1.692-.16 3.163-.39 4.295-.668l-.034-3.848c-1.132.278-2.603.508-4.295.667l.034 3.849z"/></g><g><path fill="#FFDB00" d="M49.474 51.43c3.823 3.209 3.57 9.806-.567 14.736-4.137 4.93-10.59 6.326-14.413 3.117-3.824-3.208-3.57-9.805.567-14.735s10.59-6.325 14.413-3.117"/><path fill="#F3B200" d="M34.494 69.283l2.862 2.402c3.823 3.208 10.276 1.813 14.413-3.117 4.137-4.93 4.39-11.527.567-14.736l-2.862-2.401c3.823 3.208 3.57 9.805-.568 14.735-4.136 4.93-10.59 6.326-14.412 3.117z"/><path fill="#FFF53A" d="M47.613 65.08c-3.364 4.009-8.61 5.144-11.72 2.535-1.01-.847-1.67-1.986-1.985-3.274.268 1.459.957 2.753 2.075 3.69 3.109 2.61 8.356 1.474 11.72-2.534 2.27-2.706 3.101-6.03 2.446-8.707.477 2.6-.382 5.723-2.536 8.29"/><path fill="#EC9116" d="M47.613 65.08c2.154-2.567 3.013-5.69 2.536-8.29-.316-1.288-.976-2.427-1.986-3.274-3.108-2.61-8.355-1.474-11.719 2.534-2.154 2.568-3.013 5.691-2.536 8.29.316 1.289.975 2.428 1.985 3.275 3.11 2.609 8.356 1.474 11.72-2.535"/><path fill="#E37903" d="M36.694 56.357c3.363-4.008 8.61-5.143 11.719-2.535.566.476.963 1.113 1.31 1.747-.365-.929-.874-1.82-1.649-2.47-3.109-2.609-8.356-1.474-11.72 2.535-2.75 3.278-3.389 7.462-1.83 10.305-1.101-2.798-.356-6.572 2.17-9.582"/><path fill="#FFBA00" d="M42.17 63.624a5.659 5.659 0 001.926-1.442c.83-.99.836-1.776.356-2.178-.504-.423-1.104-.268-2.235.496-1.5 1.033-2.609 1.184-3.304.6-.936-.784-.886-2.403.464-4.011.636-.758 1.362-1.282 1.904-1.539l.482.985a4.632 4.632 0 00-1.62 1.249c-.675.804-.692 1.555-.26 1.917.48.402 1.072.135 2.177-.598 1.474-.977 2.536-1.219 3.4-.494 1.019.855.882 2.48-.61 4.258-.688.82-1.48 1.447-2.161 1.771l-.518-1.014z"/><path fill="#FFBA00" d="M45.767 63.596l.544-.648-7.63-6.402-.544.648z"/><path fill="#FFDF00" d="M41.93 63.91a5.658 5.658 0 001.926-1.442c.83-.99.836-1.776.356-2.178-.504-.423-1.104-.268-2.235.496-1.501 1.034-2.609 1.185-3.304.6-.936-.784-.886-2.403.464-4.01.635-.759 1.361-1.283 1.904-1.54l.482.985a4.633 4.633 0 00-1.62 1.25c-.676.803-.692 1.554-.26 1.916.48.403 1.072.135 2.177-.597 1.474-.977 2.536-1.22 3.4-.495 1.019.855.882 2.48-.61 4.258-.688.82-1.48 1.447-2.161 1.771l-.518-1.014z"/><path fill="#FFDF00" d="M45.527 63.882l.544-.647-7.63-6.402-.543.647z"/><path fill="#FFF53A" d="M40.076 57.863l.006.005a4.58 4.58 0 011.44-1.047l-.046-.096a4.73 4.73 0 00-1.4 1.138M42.823 60.168l.087.073c.57-.259.959-.24 1.302.049.314.263.42.69.224 1.231l.06.05c.331-.66.245-1.179-.116-1.481-.392-.33-.843-.308-1.557.078M44.627 63.127c-.651.734-1.378 1.296-2.01 1.597l-.468-.916a3.83 3.83 0 01-.218.102l.518 1.014c.68-.324 1.473-.951 2.16-1.77l.02-.025-.002-.002zM41.9 60.838l-.061-.05c-1.346.848-2.35.942-2.998.398-.752-.63-.867-1.799-.183-3.068l-.036-.03c-.827 1.357-.746 2.63.05 3.299.684.573 1.766.437 3.228-.549"/><path fill="#FF8900" d="M54.49 63.653c.566-1.81.7-3.631.398-5.28l-2.862-2.402c.302 1.649.167 3.47-.398 5.28l2.862 2.402z" opacity=".578"/></g><g><path fill="#FBAB04" d="M24.134 44.119h-.003l.004.025c.113 1.18-4.988 2.636-11.394 3.253-6.36.612-11.616.167-11.8-.994l.365 3.816h.001c.142 1.172 5.415 1.624 11.803 1.009 6.356-.612 11.426-2.05 11.394-3.225h.001v-.01l-.001-.018-.003-.018-.367-3.838z"/><path fill="#FFDB00" d="M24.135 44.152c.113 1.187-4.988 2.651-11.393 3.272-6.406.62-11.692.162-11.805-1.024-.114-1.187 4.987-2.652 11.393-3.273 6.406-.62 11.691-.162 11.805 1.025"/><path fill="#FFA01F" d="M21.967 44.353c.092.959-4.055 2.143-9.264 2.645-5.209.501-9.506.13-9.598-.828-.093-.96 4.055-2.143 9.264-2.645 5.208-.502 9.506-.131 9.598.828"/><path fill="#E37903" d="M12.05 43.728c5.209-.501 9.506-.13 9.599.828.016.175-.108.358-.354.542.455-.253.695-.506.672-.745-.092-.959-4.39-1.33-9.598-.828-4.26.41-7.809 1.277-8.91 2.103 1.368-.762 4.68-1.523 8.591-1.9"/><path fill="#FFF53A" d="M12.703 46.998c-5.209.501-9.506.13-9.598-.828-.017-.175.107-.357.353-.542-.454.253-.695.506-.671.745.092.96 4.39 1.33 9.598.828 4.26-.41 7.808-1.277 8.91-2.103-1.369.762-4.681 1.523-8.592 1.9"/><path fill="#FFBA00" d="M10.216 46.02c.528.012 1.46-.01 2.343-.095 1.286-.124 1.878-.3 1.864-.449-.015-.155-.526-.192-1.84-.155-1.76.054-2.6-.044-2.622-.259-.027-.288 1.216-.647 3.306-.848a23.656 23.656 0 012.402-.12l-.42.28c-.386-.008-1.095 0-1.999.088-1.045.1-1.617.267-1.604.4.014.149.603.16 1.878.126 1.7-.044 2.578.028 2.604.294.03.315-1.275.665-3.586.887-1.065.103-2.054.15-2.744.141l.418-.29z"/><path fill="#FFBA00" d="M13.442 46.361l-.842.081-.227-2.353.842-.08z"/><path fill="#FFDF00" d="M9.844 46.056c.528.012 1.46-.01 2.343-.095 1.287-.124 1.878-.3 1.864-.449-.015-.155-.526-.192-1.84-.155-1.76.054-2.6-.044-2.621-.259-.028-.289 1.215-.647 3.305-.849a23.654 23.654 0 012.402-.119l-.42.28c-.386-.008-1.095 0-1.999.088-1.045.1-1.617.267-1.604.4.014.148.603.159 1.878.126 1.7-.044 2.578.028 2.604.294.03.315-1.275.664-3.586.887a27.25 27.25 0 01-2.744.141l.418-.29z"/><path fill="#FFDF00" d="M13.07 46.397l-.842.081-.227-2.353.842-.08z"/><path fill="#FFF53A" d="M13.229 45.319l.002.027c.569.01.81.06.82.166.01.097-.24.206-.774.304l.001.019c.712-.11 1.044-.237 1.033-.348-.012-.12-.324-.17-1.082-.168M12.202 46.201c-.977.088-1.875.128-2.516.12l.378-.262c-.08 0-.153-.002-.22-.003l-.418.29c.69.008 1.68-.038 2.744-.141l.032-.003zM12.12 45.36l-.001-.019c-1.52.03-2.25-.068-2.27-.268-.022-.232.777-.509 2.175-.713v-.011c-1.56.207-2.458.503-2.434.749.02.21.833.31 2.53.262"/><path fill="#E67C01" fill-opacity=".58" d="M17.967 50.56c1.672-.306 3.117-.663 4.22-1.039l-.369-3.83c-1.103.375-2.548.733-4.22 1.039l.37 3.83z"/></g><g><path fill="#F3B200" d="M13.865 54.61v3.736c0 4.991 5.217 9.037 11.653 9.037 6.435 0 11.652-4.046 11.652-9.037V54.61c0 4.99-5.217 9.037-11.652 9.037-6.436 0-11.653-4.046-11.653-9.037z"/><path fill="#FFDB00" d="M37.265 54.623c0 4.998-5.238 9.05-11.7 9.05-6.462 0-11.7-4.052-11.7-9.05 0-4.999 5.238-9.05 11.7-9.05 6.462 0 11.7 4.051 11.7 9.05"/><path fill="#FFF53A" d="M25.518 61.958c-5.233 0-9.475-3.29-9.475-7.348 0-1.319.448-2.556 1.232-3.626-.945 1.143-1.494 2.503-1.494 3.962 0 4.058 4.242 7.348 9.475 7.348 3.533 0 6.613-1.5 8.242-3.722-1.684 2.036-4.629 3.386-7.98 3.386"/><path fill="#FFA01F" d="M25.518 61.958c3.351 0 6.296-1.35 7.98-3.386.785-1.07 1.233-2.308 1.233-3.626 0-4.058-4.242-7.348-9.475-7.348-3.351 0-6.296 1.35-7.98 3.386-.785 1.07-1.233 2.307-1.233 3.626 0 4.058 4.242 7.348 9.475 7.348"/><path fill="#E37903" d="M25.181 47.986c5.233 0 9.475 3.29 9.475 7.348 0 .74-.233 1.454-.495 2.127.476-.877.831-1.84.831-2.851 0-4.059-4.242-7.348-9.474-7.348-4.28 0-7.895 2.2-9.071 5.22 1.435-2.641 4.805-4.496 8.734-4.496"/><path fill="#FFBA00" d="M23.136 56.853a5.659 5.659 0 002.341.548c1.292 0 1.898-.501 1.898-1.127 0-.658-.505-1.018-1.817-1.394-1.756-.485-2.584-1.237-2.584-2.145 0-1.221 1.272-2.223 3.372-2.223.989 0 1.857.22 2.402.47l-.444 1.002a4.632 4.632 0 00-1.999-.439c-1.05 0-1.635.47-1.635 1.034 0 .626.585.908 1.857 1.283 1.696.501 2.564 1.159 2.564 2.286 0 1.331-1.332 2.27-3.654 2.27-1.07 0-2.06-.203-2.746-.516l.445-1.05z"/><path fill="#FFBA00" d="M25.468 59.59h.846v-9.96h-.846z"/><path fill="#FFDF00" d="M22.762 56.853a5.658 5.658 0 002.342.548C26.396 57.4 27 56.9 27 56.274c0-.658-.504-1.018-1.816-1.394-1.757-.485-2.585-1.237-2.585-2.145 0-1.221 1.272-2.223 3.372-2.223.989 0 1.857.22 2.402.47l-.444 1.002a4.633 4.633 0 00-1.998-.439c-1.05 0-1.636.47-1.636 1.034 0 .626.586.908 1.858 1.283 1.695.501 2.563 1.159 2.563 2.286 0 1.331-1.332 2.27-3.654 2.27-1.07 0-2.059-.203-2.745-.516l.444-1.05z"/><path fill="#FFDF00" d="M25.095 59.59h.845v-9.96h-.845z"/><path fill="#FFF53A" d="M26.202 51.545v.008a4.58 4.58 0 011.728.43l.043-.097a4.73 4.73 0 00-1.771-.34M26.202 55.13v.114c.565.271.8.581.8 1.03 0 .409-.26.765-.8.962v.078c.719-.17 1.061-.57 1.061-1.04 0-.513-.306-.844-1.061-1.143M25.095 58.415c-.981-.027-1.879-.223-2.516-.513l.401-.948a3.83 3.83 0 01-.218-.101l-.444 1.049c.686.313 1.675.516 2.745.516h.032v-.003zM25.095 54.854v-.079c-1.515-.485-2.233-1.195-2.233-2.04 0-.981.821-1.82 2.233-2.112v-.047c-1.571.238-2.495 1.119-2.495 2.16 0 .891.8 1.632 2.495 2.118"/><path fill="#FF8900" d="M31.032 66.309c1.75-.73 3.232-1.798 4.3-3.09v-3.736c-1.068 1.292-2.55 2.359-4.3 3.09v3.736z" opacity=".578"/></g><g><path fill="#FFDB00" d="M68.16 58.612c-.705.952-5.47-1.379-10.643-5.207-5.174-3.828-8.796-7.703-8.091-8.655.705-.953 5.47 1.378 10.643 5.206 5.173 3.828 8.796 7.703 8.091 8.656"/><path fill="#FBAB04" d="M68.176 58.592l-.002-.001-.014.02c-.705.953-5.47-1.378-10.643-5.206-5.137-3.8-8.744-7.648-8.105-8.634l-2.282 3.08h.001c-.679.966 2.938 4.83 8.097 8.648 5.132 3.798 9.862 6.121 10.625 5.228l.006-.008.012-.014.01-.015 2.295-3.098z"/><path fill="#FFA01F" d="M66.41 57.316c-.574.775-4.448-1.12-8.655-4.233-4.206-3.113-7.152-6.264-6.579-7.038.573-.774 4.448 1.12 8.655 4.233 4.206 3.113 7.151 6.264 6.578 7.038"/><path fill="#E37903" d="M59.458 50.217c4.206 3.112 7.152 6.263 6.579 7.037-.105.142-.32.194-.625.166.507.116.855.09.997-.104.573-.774-2.372-3.925-6.579-7.038-3.44-2.545-6.657-4.276-8.029-4.399 1.528.35 4.499 2 7.657 4.338"/><path fill="#FFF53A" d="M57.755 53.083c-4.206-3.113-7.152-6.264-6.579-7.038.105-.141.32-.193.625-.166-.506-.116-.854-.089-.997.104-.573.775 2.372 3.926 6.579 7.038 3.44 2.545 6.657 4.276 8.029 4.4-1.527-.35-4.498-2.001-7.657-4.338"/><path fill="#FFBA00" d="M56.561 50.692c.385.363 1.091.969 1.805 1.497 1.04.769 1.597 1.034 1.685.914.093-.125-.262-.494-1.264-1.347-1.343-1.137-1.902-1.773-1.774-1.946.172-.233 1.336.332 3.024 1.581a23.656 23.656 0 011.865 1.519l-.499-.073a17.877 17.877 0 00-1.544-1.273c-.844-.624-1.381-.883-1.46-.775-.09.12.342.521 1.311 1.35 1.293 1.104 1.897 1.746 1.738 1.96-.188.255-1.391-.358-3.258-1.74a27.279 27.279 0 01-2.134-1.731l.505.064z"/><path fill="#FFBA00" d="M58.73 53.105l-.68-.504 1.406-1.9.68.503z"/><path fill="#FFDF00" d="M56.26 50.47c.385.363 1.092.969 1.806 1.497 1.039.769 1.596 1.033 1.685.914.093-.126-.262-.495-1.264-1.347-1.343-1.137-1.903-1.773-1.774-1.946.172-.233 1.336.332 3.024 1.58a23.654 23.654 0 011.865 1.52l-.499-.074a17.877 17.877 0 00-1.545-1.272c-.844-.624-1.38-.883-1.46-.775-.088.12.342.521 1.312 1.35 1.292 1.104 1.897 1.745 1.738 1.96-.188.255-1.392-.359-3.258-1.74a27.25 27.25 0 01-2.134-1.731l.505.064z"/><path fill="#FFDF00" d="M58.43 52.882l-.68-.503 1.406-1.9.68.503z"/><path fill="#FFF53A" d="M59.27 52.187l-.017.022c.416.387.561.586.498.672-.058.078-.317-.008-.779-.292l-.01.015c.6.395.933.522.999.432.072-.097-.127-.343-.692-.849M57.916 52.155a26.422 26.422 0 01-1.95-1.594l.456.058a12.99 12.99 0 01-.161-.15l-.505-.063a27.247 27.247 0 002.134 1.731l.025.02v-.002zM58.419 51.476l.01-.015c-1.149-.994-1.625-1.556-1.506-1.718.138-.187.917.142 2.093.925l.007-.009c-1.297-.889-2.164-1.27-2.31-1.071-.126.17.412.787 1.706 1.888"/><path fill="#FF8900" fill-opacity=".58" d="M59.283 59.253c1.447.891 2.76 1.592 3.832 2.051l2.29-3.093c-1.072-.46-2.386-1.16-3.833-2.052l-2.289 3.094z"/></g></g></g></svg>
