<svg width="299" height="48" xmlns="http://www.w3.org/2000/svg"><g fill-rule="nonzero" fill="none"><path d="M225 14h2.5a9 9 0 013.8 1.7 8.6 8.6 0 013.1 5.2l.3 1.6V37c0 .4-.1.5-.6.5h-6.3V24v-.4l-.1-.5c0-.4-.1-.7-.3-1-.4-1-1.2-1.6-2.3-1.8H224c-1.3.1-2.4 1.1-2.7 2.5-.1.3-.2.6-.1.9v13.1c0 .6 0 .6-.7.6h-5.7c-.6 0-.6 0-.6-.6v-13-.5c-.2-.8-.4-1.5-1-2.1-.4-.5-1-.8-1.7-.9h-1.2c-1.3.1-2 1-2.6 2-.2.7-.3 1.3-.3 2v13c-1 .2-1.9.1-2.8.1h-3.6c-.4 0-.5 0-.5-.4V15c0-.3 0-.5.3-.5h6.4l.2.1v1.8c.4-.2.6-.6 1-.9a7 7 0 013.3-1.4c1.6-.3 3.2-.2 4.8.4 1 .4 1.9 1 2.5 1.9.5.5.5.5.9 0 1-1.3 2.3-1.9 3.8-2.2l.8-.2h.6zM255.8 14.6v1.9c.4-.5.9-.9 1.4-1.2 2-1.2 4-1.5 6.2-1.3a8 8 0 013.9 1.5c1.9 1.4 2.9 3.3 3.3 5.6l.2.8v15.5h-6.4c-.4 0-.4-.1-.4-.5V24.6 24c-.2-1.9-1.2-3.4-3.3-3.7h-1.4c-2 .1-3.4 1.8-3.4 3.7l-.1.7v12.7h-6.5c-.3 0-.4 0-.4-.4V15c0-.3 0-.5.3-.5h6.4l.2.1zM102 22.4v15H95.8c-.4 0-.5-.1-.5-.5v-12-.7c-.2-2-1.1-3.4-3.3-3.9h-1.4c-2 0-3.4 1.8-3.4 3.6v.6l-.1 8.4v4.5h-6.4c-.4 0-.5 0-.5-.4V15c0-.3 0-.5.3-.5h6.4l.2.1v2c1.3-1.7 3-2.3 5-2.6h.5c1.6 0 3 0 4.5.7a8 8 0 014.6 5.4l.4 1.7v.6zM138.5 37.5c-1 0-2-.3-2.8-.7a5.4 5.4 0 01-3-3c-.4-1-.6-1.9-.6-2.8v-.8a17742.4 17742.4 0 00-.1-9h-3c-.6 0-.6 0-.6-.6v-5.4c0-.7 0-.6.6-.7h3v-3.9c0-.3.1-.4.4-.5l6-1.8c.5-.1.5 0 .5.3V14.5h3l1.7.1v6.5h-4.1l-.5.1-.1.3V29.4c0 1.2 1 1.6 2 1.8h2.6c.3.3.1.8.1 1.2v4.2c0 .8 0 .8-.9.9h-4.2zM238.2 37.4V14.6H244.6c.4 0 .5 0 .5.4v22c0 .2 0 .4-.3.4h-6.5zM241 12.6a4 4 0 01-3.5-3.5V7.9a4 4 0 013.5-3.5h1.2c1.9.4 3 1.5 3.5 3.4v1.4c-.2.8-.5 1.6-1.2 2.2-.6.6-1.4 1-2.2 1.2H241z" fill="#FFF"/><path d="M35.4 40l-.3-.5.3-.6 4-6.3c.4-.6.4-1 0-1.5a40.5 40.5 0 01-1.3-2.8 5 5 0 00-.7-1.8c-.4-.6-.8-1.1-1.3-1.5l-1-.9-1.1-2.5-4.5-9.3-1.4-3c.5-.6 1.2-.7 2-.8l.1.1c.8 1.3 1.4 2.7 2 4.1l1.6 3.4 4.5 9.3L42 33c.1.3.3.5.1.8-.4 0-.6-.3-.8-.5-.6-.5-.7-.5-1.1.1l-4 6.4c-.2.2-.3.5-.7.4z" fill="#C1160E"/><path d="M13 13l3-4.7c.4-.1.4.1.5.3l2.2 4.5 1.7 3.7.5.7c.1.2 0 .4-.1.6l-1 1.3c-.5 1-1 1.8-1.7 2.7h-.2c-.4.1-.5-.1-.7-.4l-2.5-5.4L13 13z" fill="#BE150F"/><path d="M63.6 21.5l-2.6 4c-.4 0-.5-.2-.6-.4l-2.7-5.7-1.2-2.5-.3-.6c0-.4.3-.7.4-1l.8-1.2.7-1 .4-.7c.2-.1.2-.5.5-.4.5.5.7 1.2 1 1.9l3.4 7.1.2.5z" fill="#E92208"/><path d="M16.5 41a8 8 0 01-3 2.8c-.4-.2-.5-.5-.6-.9l-3-6.3-1.7-3.5.2-.2c1-.1 1.8-.5 2.6-1l.7-.5c.4 0 .5.4.6.6l2.7 5.6 1.4 2.9c0 .2.2.3 0 .6z" fill="#920816"/><path d="M69.9 9.8a9 9 0 01-1.5 4.1c-.2 0-.3-.3-.4-.5l-4.1-8.5a1 1 0 01-.1-.5c0-.3.2-.5.3-.7.6-.7.6-.8 0-1.4L62.7.8c-.1-.2-.3-.4-.1-.6a9.1 9.1 0 017.3 9.6z" fill="#FE2805"/><path d="M63.6 21.5l-1.6-3-1.9-4L59 12c-.1-.1 0-.3 0-.4l.8-1.2c.3-.3.4-.8.8-1.2l.6-1c.1 0 .2-.2.3-.1.2 0 .3.3.4.5l4 8.4c.1.2.3.4.2.6l-2.5 4z" fill="#F12407"/><path d="M22.8 31.3l-2.5 3.9c-.4.1-.4-.2-.5-.4l-2-4.1-2-4-.3-.6V26c0-.2 0-.4.2-.5l1.8-2.8.5-.5c.4-.2.5.2.6.4l1.9 4 2.2 4.4v.4z" fill="#A30D13"/><path d="M38.7 11.7l4.6 7 .3.4c.3.3.7.6.8 1 0 .3 0 .5.2.7l2 4.4 4.5 9.3c.2.3.5.6.3 1-.2.2-.5.3-.8.3-.3 0-.6.2-.9.1-.5-.7-.8-1.6-1.2-2.4l-2.8-5.8-5.8-12c-.7-1.5-1.3-3-2.2-4.5 0-.1-.2-.3-.1-.5.2-.1.3 0 .5.2l.6.8z" fill="#CF1A0C"/><path d="M18.1 5c.7-1.2 1.6-2.2 2.6-3 .3 0 .4.2.6.5l3.4 7.1.7 1.4c0 .1 0 .3-.2.4-.8.9-1.3 1.9-2 2.8 0 .2-.2.3-.4.3-.3 0-.4-.2-.5-.4-1.3-3-2.8-5.8-4.1-8.7V5z" fill="#C7180D"/><path d="M18 22L15.5 26c-.3 0-.4-.3-.5-.5l-2.9-6-1-2c-.1-.3-.3-.6-.3-1l1.5-2.4.7-1c.3 0 .3.1.4.3a12225.3 12225.3 0 014 8.4c0 .3.3.4.6.4z" fill="#B9140F"/><path d="M66 17.6l-.5-1.3-3.4-7-.6-1.2c-.1-.3.2-.5.3-.7l.5-.9.4-.6.8-1.2c.1-.1.2-.3.4-.3l.1.5 3.1 6.4 1.3 2.6-2.3 3.7z" fill="#F82606"/><path d="M7.8 45a7 7 0 01-2.5-.8c-.2-.8-.6-1.5-1-2.2-1-2.2-2-4.5-3.2-6.7l-.8-1.7c.3-1.1.8-2.1 1.4-3 .3 0 .4.3.6.5L6.5 40l2 4.3c.2.2.4.4.2.7h-.9z" fill="#840418"/><path d="M22.9 14.5l.2-.3c.3 0 .4.2.5.4l2.9 6c.5 1.1 1 2.3 1.7 3.5 0 .3-.2.3-.4.5-.5.4-1.1.8-1.4 1.5-.5 0-.4.5-.7.6-.2 0-.3-.2-.4-.4L23 21.9 21 17.4V17c.6-.7 1-1.5 1.5-2.2l.4-.3z" fill="#B01111"/><path d="M8.2 33.1c.5.5.6 1 1 1.6l1.6 3.5 2.6 5.6c-.8.5-1.8.9-2.8 1-.5-1.5-1.3-2.9-2-4.3l-3.2-6.7-.3-.6c0-.2 0-.4.2-.5L8 33l.2.1z" fill="#8B0617"/><path d="M22.9 14.5l-1.6 2.4c0 .1-.3.3-.3.5v.1c-.5 0-.6-.5-.7-.8l-3.9-8c0-.1 0-.4-.3-.4L18 5l1.7 3.3 2 4.4.6 1.2c.1.3.1.6.5.6z" fill="#C4170E"/><path d="M15.5 26a7458.9 7458.9 0 004.4 8.6c0 .3.1.6.4.6a4116.8 4116.8 0 01-2 3.2c-.3-.1-.4-.4-.5-.6a760.6 760.6 0 01-4.3-8.7c0-.5.4-.7.5-1l1-1.6c.1-.2.2-.5.5-.4z" fill="#9C0B14"/><path d="M56.3 16.2L60 24c.2.5.3 1.2.9 1.5l-2 3c-.2 0-.3-.2-.4-.4l-4.1-8.6a1 1 0 01-.2-.5l.2-.3.7-1.2.8-1.1c0-.1.1-.2.3-.2z" fill="#E32009"/><path d="M38.7 11.7l-1-1c-.3 0-.4-.2-.6-.3A8.5 8.5 0 0034 9l-.5-.2h-.6c-.4-.1-.6-.4-.8-.7-1-2.4-2.2-4.7-3.4-7 0-.3-.2-.5 0-.7a9 9 0 015.6 4.1 2872.4 2872.4 0 014.5 7.3z" fill="#D61C0B"/><path d="M25.4 11l-.4-.4a291.4 291.4 0 00-4.3-8.7A7 7 0 0123.4.5c.3 0 .3.2.4.4 1.2 2.5 2.5 5 3.6 7.6l.5.7c0 .3-.2.4-.4.4l-1 .7c-.5.2-.6.7-1.1.7z" fill="#CD1A0C"/><path d="M13.6 29c.5.5.7 1.2 1 1.9l1.5 3 2.1 4.5c-.5.9-1 1.8-1.7 2.7l-4.1-8.7c-.2-.3-.3-.7-.7-.9 0-.5.6-.6.7-1l.7-1c.2-.2.2-.4.5-.5z" fill="#980A15"/><path d="M5.2 32.8c0 .3 0 .5.2.8l3.2 6.6 2 4.2c0 .1.2.3 0 .4a6 6 0 01-2 .1v-.4l-3.3-6.7a981.9 981.9 0 01-3.6-7.3l.3-.3.3.3c.7.8 1.5 1.5 2.5 2 .1 0 .3 0 .4.3z" fill="#880517"/><path d="M22.8 31.3c-.5-.5-.7-1.2-1-1.8-.6-1-1-2.2-1.6-3.3l-1.8-3.7c0-.2-.1-.4-.4-.4l1.7-2.7c.3 0 .4.2.5.3l3.6 7.5.5 1c0 .2.2.4.1.6l-1.6 2.5z" fill="#A90F12"/><path d="M13.6 29c-.4.5-.6 1.1-1.1 1.5-.3 0-.4-.2-.5-.4l-4-8.2c0-.3-.2-.5-.3-.7l1.6-2.5c.3.1.4.4.5.6l4 8.3c0 .2.2.4.3.5l-.5 1z" fill="#B21211"/><path d="M5.2 32.8A7 7 0 012 30.2l2.9-4.5c.3 0 .4.3.5.6l2.9 6c.1.2.3.5.2.7l-.3.1c-1 0-2 0-3-.3z" fill="#A90F12"/><path d="M14 28.1c-.2 0-.2-.2-.3-.3l-1.4-3a1268.5 1268.5 0 00-3-6l1.5-2.4 3.8 8c.3.5.4 1 1 1.5v.2c-.7.6-1 1.4-1.5 2z" fill="#B51210"/><path d="M8.5 33l-2.9-6c-.2-.4-.3-1-.7-1.3.4-.9 1-1.7 1.5-2.4.4-.2.4.2.5.3l2 4 1.7 3.7c.1.3.3.4.5.6-.8.6-1.7 1-2.6 1.1z" fill="#AC1012"/><path d="M27.9 9.3A1518.6 1518.6 0 0123.7.8l-.3-.3a6 6 0 012.2-.4c.3-.2.5 0 .6.2l4 8.2v.1a5.2 5.2 0 00-2.2.7h-.1z" fill="#D01B0C"/><path d="M57.8 30.4l-1 1.5c0 .1 0 .2-.2.2-.5-.4-.7-1-1-1.7L54 27.1l-2.4-5.2a1 1 0 01-.2-.4v-.2l1.5-.9h.3l1.6 3.2 2.1 4.5.9 1.8v.5z" fill="#DC1E0A"/><path d="M11 32c-.3 0-.4-.4-.5-.6l-3.6-7.6c-.1-.2-.2-.5-.5-.5l1.3-2c.4 0 .4.3.5.5l1.4 3 2.6 5.4c0 .1.1.3.3.3-.1.5-.6.6-.8 1l-.6.4z" fill="#AF1111"/><path d="M24.4 28.8l-.9-1.8-3.5-7.2c0-.2 0-.4-.3-.4l1.2-1.9h.1c.3 0 .4.4.5.6l1.7 3.7c.9 1.6 1.5 3.4 2.5 5l-1.3 2z" fill="#AC1012"/><path d="M30.1 8.6c-.6-.9-1-2-1.5-2.9L26.3.8l-.2-.4c0-.3-.2-.4-.5-.3 1-.2 2 0 3 .2l1 2.4 2.5 5.2c.1.3.4.5.7.6l-.5.2c-.3-.1-.7-.2-1 0h-1.1z" fill="#D31B0C"/><path d="M56.6 32h.2l-3 4.7-2.6 4.1a8.8 8.8 0 01-4.5 3.6c0-.4.4-.7.6-1l4.6-7.2.5-1 1.6-1c.9-.5 1.6-1.1 2.3-1.8l.3-.3z" fill="#FE2805"/><path d="M57.8 30.4l-.8-1.7c-1-2.4-2.2-4.7-3.3-7l-.6-1.3c0-.4.5-.6.7-.9.2-.2.3-.5.6-.6 0 .2 0 .4.2.5l2.9 6 1.5 3.2c-.3.6-.7 1.3-1.2 1.8z" fill="#DF1F0A"/><path d="M.3 33.6c.3.1.4.5.6.7l3.5 7.4 1 2v.5A8.7 8.7 0 010 37l-.1-.6v-1-.6c.2-.4.1-.9.3-1.2z" fill="#800319"/><path d="M36.1 24.9c.7.3 1 1 1.3 1.5-.3.8-.9 1.5-1.3 2.2L32.5 34c-.1.2-.2.6-.6.4l-1-1.6 4.6-7.2c.2-.3.3-.6.6-.8z" fill="#A20D13"/><path d="M41.5 44.8a9 9 0 01-1.6-.5c-.1-.3 0-.5.2-.8l4.3-6.6c.3-.4.5-1 1-1.4.2-.1.5 0 .8 0l.5.1c.2.1.5 0 .7.2h.1v.2c-.3.1-.5.4-.7.6a4394.3 4394.3 0 00-5.3 8.2z" fill="#E32009"/><path d="M45.3 35.5c0 .4-.3.7-.5 1l-4.6 7.1a5 5 0 00-.3.7l-1.5-.9c0-.2 0-.4.2-.5l3.4-5.3 1.4-2.2.5-.5c.4 0 .7.2 1 .3.1 0 .4 0 .4.3z" fill="#DB1D0A"/><path d="M44 35a1162.6 1162.6 0 00-5.5 8.5l-1.5-1.2c.1-.5.4-.8.6-1.1l4.2-6.5c.2-.3.3-.6.6-.7.5 0 .8.5 1.3.7.1 0 .3.1.2.3z" fill="#D21B0C"/><path d="M41.5 44.8c.1-.6.6-1 .9-1.4 1.4-2.4 3-4.7 4.5-7 .1-.3.3-.5.6-.4.4-.3.9-.2 1.3-.2.4.3.1.5 0 .7L47 39.2l-3.5 5.5c-.1.1-.2.3-.4.3h-.6l-1-.2z" fill="#EA2208"/><path d="M31.9 34.5c.5-.2.7-.7 1-1 1.3-2.2 2.6-4.3 4-6.3.1-.3.2-.6.5-.8.5.5.7 1.2.8 1.9L36.4 31l-2.9 4.5c-.1.3-.2.6-.6.6l-1-1.6z" fill="#AB0F12"/><path d="M36.1 24.9l-2 3.2a220 220 0 01-2.7 4.2c-.1.3-.2.6-.6.6l-1-1.5c1.6-2.3 3-4.6 4.5-7l.5-.5c.2 0 .3 0 .4.2l1 .8z" fill="#9A0A14"/><path d="M52.5 35.2l-.2.6a4095 4095 0 01-5.5 8.6c-.6.3-1.2.4-1.8.4-.2-.2 0-.4.1-.6l4.4-6.7 1.2-1.8.7-.2c.3-.3.7-.5 1-.3z" fill="#F72606"/><path d="M44.3 20.1c-.1-.4-.7-.5-.7-1l1.4-2.3c.3-.2.4 0 .5.1 1 .9 1.7 1.8 2.5 2.7.5.6 1.1 1 1.6 1.7.1.2.3.5-.1.7h-1.2a7.6 7.6 0 01-3.7-1.4c-.1-.1-.3-.3-.3-.5z" fill="#77001A"/><path d="M50.7 35.7c-.2.7-.7 1.2-1 1.7l-4.5 7-.2.4c-.3.3-.7 0-1 .3l-.7-.1c.7-1.4 1.6-2.7 2.5-4l3-4.6.1-.4c.2-.2.4-.2.5-.2h1.3z" fill="#F12407"/><path d="M42.4 34.1L40.5 37l-3.2 5-.3.4c-.5-.4-.7-.9-1-1.3l3.8-5.9 1-1.6.4-.4.8.6c.2 0 .4.1.4.4z" fill="#CB190D"/><path d="M34.8 24L32 28.4 30.3 31c-.1.2-.2.4-.5.4L29 30c0-.5.4-.8.6-1.2l3.3-5.1c0-.2.2-.3.3-.4.6 0 1.2.1 1.6.6z" fill="#930816"/><path d="M32.9 36c.7-.6 1-1.5 1.6-2.3l3.3-5c0-.2.2-.3.4-.4l.6 1.6c-.4.9-1 1.7-1.6 2.6l-3 4.5c0 .2-.2.5-.5.5L33 36z" fill="#B21111"/><path d="M60.6 9.3c-.3.4-.3.9-.7 1.2-.3 0-.4-.2-.5-.3a192 192 0 01-4-4.2l-1.6-1.8-.3-.4c.2-.5.5-.8.8-1.1.4 0 .6.3.8.6l4 4.2c.5.6 1.1 1.1 1.5 1.8z" fill="#C60F12"/><path d="M53 20.5c-.5.3-1 .7-1.5.8l-1.7-1.8-3.8-4.1.8-1.4c.3 0 .4.2.6.3l3.7 4 1.6 1.8c.1.1.3.2.2.4z" fill="#850119"/><path d="M56 16.4c-.2.4-.4.9-.7 1.2a.8.8 0 01-.4-.3l-3.4-3.6c-.9-1-1.7-2-2.7-2.8l.9-1.3c.3 0 .5.3.7.5L54 14l1.9 2 .2.4z" fill="#9B0319"/><path d="M46 15.4c.2 0 .3.1.5.3l4.1 4.5c.3.3.7.6 1 1.1v.1c-.7.4-1.3.7-2 .4.1-.1 0-.3-.1-.4l-1.6-1.8-2.6-2.7-.3-.1 1-1.4z" fill="#7F011A"/><path d="M48.8 11c.7 0 1 .6 1.4 1l2.1 2.4 3 3.2-.7 1.1c-.2 0-.4 0-.5-.2-1.4-1.6-3-3.1-4.3-4.8-.6-.5-1.2-1-1.6-1.7.1-.4.4-.7.6-1z" fill="#940219"/><path d="M53 20.5l-2.3-2.4-3.6-3.8-.3-.3.7-1c.3-.2.5 0 .6.1l3.1 3.4 2.4 2.5c.1.2.4.3.3.6l-.8.8-.2.1z" fill="#8B0219"/><path d="M53.5 3.7l2 2.3 1.6 1.5c.9 1 1.7 2.1 2.8 3-.3.4-.4.9-.8 1.2-.6-.4-1.1-1-1.6-1.5l-1.8-2-3-3.3c.2-.4.4-.8.8-1.2z" fill="#BD0C14"/><path d="M57.5 14.2c-.2.4-.4.8-.8 1.2l-.5-.5-4.8-5.1-1-1.2c0-.4.4-.7.6-1 .3-.2.5 0 .6.2l4 4.2 1.9 2.2z" fill="#A60418"/><path d="M50.3 8.6c.6.3 1 .8 1.3 1.2l2.4 2.6 2.7 3-.4.8-.2.2-1.7-1.7-3.7-4c-.4-.4-.6-.8-1-1l.6-1z" fill="#A00318"/><path d="M33.2 23.4c-.5 1-1.2 2-1.8 2.9L29 30l-1-1.5c.3-.7.8-1.3 1.2-2l1.7-2.6c.2-.3.2-.5 0-.7v-.1a4 4 0 012 0l.3.3z" fill="#8B0617"/><path d="M57.5 14.2c-.6-.4-1-1-1.4-1.4l-1.8-2-2.8-3a.5.5 0 00-.5-.3l.7-1c.3-.2.4 0 .5.1l4 4.3 1.8 2s.2.1.1.3c-.1.4-.3.7-.6 1z" fill="#AA0418"/><path d="M33.7 37.5c.8-1 1.4-2 2-3l2.6-4 .5-.6.7 1.2c-.3.8-.8 1.4-1.3 2l-3.1 5c-.2.2-.3.5-.6.6l-.8-1.2z" fill="#B91310"/><path d="M60.6 9.3c-1-.8-1.7-1.8-2.5-2.7L56.5 5c-.7-.8-1.3-1.7-2.2-2.3.2-.4.7-.5 1-.8a243.3 243.3 0 014 4l1.8 2c.1.1.3.2.2.4-.2.4-.3.7-.7 1z" fill="#CF1310"/><path d="M54 19.6l-1.7-1.8-3.7-3.9-.6-.7c-.1-.1-.2-.3-.5-.2l.7-1c.5.2.7.7 1.1 1.1l2.2 2.3 3 3.3v.2l-.6.7z" fill="#900219"/><path d="M61.3 8.3l-.9-1-3.8-4c-.4-.5-.8-1-1.4-1.4a3 3 0 011.1-.7c.5.3.9.8 1.3 1.2l2 2.2 2 2.1c.2.2.4.4.2.7 0 .3-.2.4-.3.7l-.2.2z" fill="#D7170E"/><path d="M52.7 5l.4.1 6 6.6v.3l-.5.5c-.2 0-.4-.2-.5-.4L53.3 7c-.3-.4-.9-.7-1.1-1.3l.5-.8z" fill="#B60816"/><path d="M41.2 33.1L37.4 39l-1 1.5c0 .2-.2.4-.5.4l-.5-.8a4018.8 4018.8 0 014.7-6.9c.4-.8.5-.8 1.1 0z" fill="#C4170E"/><path d="M34.5 38.7l3.7-5.8 1.3-1.8c.5.7.6.7 0 1.6L35 39.5l-.5-.8z" fill="#BD150F"/><path d="M63.6 4.7c-.2.5-.5.9-.8 1.2L61 4l-2.4-2.6c-.3-.2-.5-.6-.7-1l1.3-.2c.2-.1.3 0 .4 0l3.9 4.3v.2z" fill="#E91F0A"/><path d="M31 23.3c.2 0 .4 0 .2.4L28.3 28c0 .2-.2.3-.3.4L27 27l2-2.9v-.6c.6-.3 1.2-.6 1.8-.3z" fill="#840418"/><path d="M52.2 5.7c1 .8 1.8 2 2.7 2.8l2 2.2 1.7 1.8c-.2.2-.2.6-.5.7L55 9.7l-2.5-2.6c-.2-.2-.3-.6-.7-.6l.5-.8z" fill="#B10617"/><path d="M58 .5l1.5 1.7a55 55 0 003.3 3.7c0 .3-.2.5-.4.7-.4 0-.6-.3-.7-.5-.6-.8-1.3-1.4-2-2l-2.1-2.5c-.3-.2-.6-.4-.4-.9l.7-.2z" fill="#E11B0C"/><path d="M63.6 4.7l-1.9-2C61 2 60.2 1 59.2.3c.3-.2.7-.1 1-.1.5-.2.8 0 1.1.3l2.7 3c.1 0 .3.2.2.3 0 .3-.3.4-.3.7l-.3.3z" fill="#F12208"/><path d="M57.2.7c0 .4.2.7.5.9l1.2 1.3 3.2 3.5.3.2c-.2.3-.3.6-.6.8a1 1 0 00-.3-.5L58 3l-1.6-1.8.9-.5z" fill="#DD190D"/><path d="M64.2 3.7L63 2.4l-1.8-2c-.3-.3-.6-.4-1-.3.8-.2 1.6 0 2.4.1 0 .5.4.7.7 1 .3.5.8.8 1 1.2.5.6.5.7 0 1.3z" fill="#F82506"/><path d="M189.5 35.5c.2-.2.2 0 .2.1v1.5c0 .2 0 .3.3.3h6.3c.2 0 .3 0 .3-.3v-.3-21.6c0-.5-.2-.6-.6-.6h-5.8c-.4 0-.5 0-.5.5v1.3c0 .3-.1.2-.2 0 .3-.4 0-.9 0-1.4 0-.4.2-.5.6-.5h6c.4 0 .6 0 .6.5v22c0 .4-.2.5-.6.5h-6c-.4 0-.5-.2-.5-.5 0-.5.1-1-.1-1.5z" fill="#FDFDFD"/><path d="M29.2 23.7s.2 0 .1.2c-.6 1-1.2 2.1-2 3.1h-.2c-.3-.2-.4-.6-.7-1 0-.5.4-.7.7-1l1.1-.9c.2-.3.5-.5 1-.4z" fill="#7D0219"/><path d="M238.2 37.4h6.4c.4 0 .5 0 .5-.5v-9.7-12.1c0-.4-.1-.5-.5-.5h-6.4c.1-.2.3-.1.5-.1h6c.4 0 .5.1.5.5v22c0 .3 0 .5-.5.5h-6l-.5-.1z" fill="#FFF"/><path d="M207.3 14.6h-6.6c-.2 0-.3 0-.3.3V36.8c0 .5.1.6.6.6h6.3-6.5c-.3 0-.5 0-.5-.4V15c0-.3 0-.5.4-.5h6.3l.3.1z" fill="#FDFDFD"/><path d="M87 14.6h-6.6c-.2 0-.3 0-.3.3v21.9c0 .5.1.6.6.6H87h-6.5c-.3 0-.5 0-.5-.4V15c0-.3 0-.5.4-.5h6.3l.3.1zM255.8 14.6h-6.6c-.2 0-.3 0-.3.3V36.8c0 .5.1.6.6.6h6.3-6.5c-.3 0-.5 0-.5-.4V15c0-.3 0-.5.4-.5h6.3l.3.1z" fill="#FFF"/><path d="M214 23.2l.1.8v12.8c0 .5 0 .6.6.6h5.7c.5 0 .6-.1.6-.6V24.4v-.7V37c0 .4 0 .5-.4.5h-6c-.5 0-.6-.1-.6-.5V23.2zM297.8 37.6V15c0-.4 0-.5-.5-.5h-5.6c-.5 0-.6.1-.6.5v1.5c0 .2 0 .2-.1 0 .1-.5 0-1 0-1.6 0-.4.1-.5.5-.5h6c.3 0 .4.1.4.4v22.3l-.1.4zM227.8 37.4h6.4c.3 0 .5 0 .5-.5V22.7v-.2V37c0 .4 0 .6-.5.6h-5.9l-.5-.1z" fill="#FDFDFD"/><path d="M264 24V36.8c0 .5.1.6.6.6h6.3-6.5c-.4 0-.5 0-.5-.4V24zM95.1 24.2v12.6c0 .5.2.6.8.6H102h-6.5c-.3 0-.5 0-.5-.5V24.2z" fill="#FFF"/><path d="M111.8 29v-.2h15.5c.3 0 .6 0 .7-.3 0 .2 0 .3-.3.3H112.5l-.7.1zM132 14.5c-.1.2-.3 0-.5 0h-2.8c-.2 0-.3 0-.3.4v6c0 .2.1.3.3.3H132h-3.2c-.4 0-.5 0-.5-.4V15c0-.4.1-.5.5-.5h3.2zM139 29.4c-.2-.6 0-1.2 0-1.8v-5.9c0-.1-.2-.3 0-.5v8.2zM169.3 14.7c-1.3-.2-2.6 0-4 0h-2.7c.1-.3.3-.2.4-.2h6s.2 0 .3.2zM139 21.3c1-.2 2.2 0 3.3-.1l1.3-.1c-.1.3-.4.1-.5.1H139zM143.6 14.7c-1.4-.2-2.8 0-4.1-.1-.2 0-.4.1-.5-.1h4c.3 0 .5-.1.6.2zM128.1 27.3v-2.6c.3.8.3 1.7 0 2.6zM116 38h2.2c-.7.3-1.5.3-2.2 0zM104.5 25.1V27c-.2-.7-.2-1.3 0-1.9z" fill="#FDFDFD"/><path d="M286.8 41c-.5.3-1 .3-1.6 0h1.6z" fill="#FEFEFE"/><path d="M245.7 9.2V7.8c.3.4.3 1 0 1.4z" fill="#FFF"/><path d="M172 25.3v1.3-1.3zM284.3 47.2l1.3.1c-.4 0-.9.2-1.3-.1zM182.3 38h1.3c-.4.3-.8.3-1.3 0z" fill="#FDFDFD"/><path d="M241 12.6h1.3c-.4.2-.8.2-1.3 0zM90.5 20.4c.5-.2 1-.2 1.4 0h-1.4zM259.3 20.4c.5-.2 1-.2 1.4 0h-1.4z" fill="#FFF"/><path d="M223.9 20.4c.4-.2.8-.2 1.2 0H224zM210.2 20.4c.4-.2.8-.2 1.2 0h-1.2zM286 47.3l1.1-.1c-.4.3-.8 0-1.2 0z" fill="#FDFDFD"/><path d="M242.2 4.4H241c.4-.2.8-.2 1.2 0zM237.6 7.9V9a1 1 0 010-1.2z" fill="#FFF"/><path d="M117.6 31.9a1 1 0 01-1 0h1zM169.2 37.6l.2-1c0 .3.1.7-.2 1zM132 30.2l.2.8c-.3-.3-.1-.5-.2-.8zM142.5 31.2c-.3.1-.6.1-.8 0h.8z" fill="#FDFDFD"/><path d="M7.8 45c.3-.2.5-.2.8 0h-.8z" fill="#880517"/><path d="M144.7 26l.2.8c-.3-.2-.1-.5-.2-.7zM142 37.6h.7c-.2.2-.5 0-.7 0z" fill="#FDFDFD"/><path d="M102.1 22.4a1 1 0 01-.1-.6c.3.2.1.4.1.6z" fill="#FFF"/><path d="M144.9 24.2l-.2.7c0-.2-.1-.4.2-.7zM273.4 24l-.1.7c0-.2-.2-.5.1-.7z" fill="#FDFDFD"/><path d="M255.8 24.7l.1-.7c0 .2.2.5 0 .7z" fill="#FFF"/><path d="M138.5 37.5l.7.1c-.2 0-.5.2-.7-.1zM273.3 26.5l.1.6c-.3-.2-.1-.4-.1-.6zM227.7 23c.2.2.2.4.1.6-.2-.2 0-.4-.1-.6zM271 22.4l-.2-.5c.2.1.1.3.1.5z" fill="#FDFDFD"/><path d="M92.5 14H92h.5z" fill="#FFF"/><path d="M115.5 14l-.6.1c.1-.3.4-.1.6-.1zM118.1 14h-.5.5zM157.5 14.1l-.6-.1c.2 0 .4-.2.6.1zM182 14l-.5.1c.1-.2.3-.1.5-.1z" fill="#FDFDFD"/><path d="M87 24.5c0-.2 0-.4.2-.6 0 .2 0 .4-.2.6z" fill="#FFF"/><path d="M225 14l-.6.1c.2-.2.4-.1.6-.1zM227.5 14.1l-.6-.1c.2 0 .4-.2.6.1z" fill="#FDFDFD"/><path d="M158 47.3c.3-.2.5-.1.7-.1-.2.2-.4 0-.6 0z" fill="#FEFEFE"/><path d="M283.5 14l-.6.1c.2-.3.4-.1.6-.1zM184.5 14.1l-.6-.1c.2 0 .4-.1.6.1z" fill="#FDFDFD"/><path d="M169.3 32.4a16239.9 16239.9 0 01-.2-17.9h-6.3l-.2.1v2.2l-1-1a8.4 8.4 0 00-4.1-1.8h-.6c-1 0-2.2 0-3.2.2-2.8.5-5 2-6.7 4.2-1.3 1.8-2 3.7-2.2 5.8V26.8a11 11 0 001.1 4c1.2 2.5 3 4.4 5.6 5.4 1.6.7 3.3 1 5 1 2.1-.2 4-.8 5.5-2.3l.6-.6V37c-.2 1.6-.8 2.9-2.3 3.6-.7.4-1.4.6-2.2.6-2.3.1-4.4-.4-5.7-2.6-.1-.3-.3-.2-.5 0l-5.3 3c-.3.1-.2.2-.1.4.9 1.6 2.2 2.9 3.8 3.7 2 1 4.1 1.6 6.3 1.6h2.1l3-.6c2.1-.7 4-1.8 5.5-3.7 1.2-1.6 1.8-3.4 2-5.3l.1-1v-4.2zm-12.2-1.6c-3.3 0-5.5-2.2-5.5-5.3 0-3.1 2.3-5.3 5.5-5.3 3.3 0 5.5 2.2 5.5 5.3 0 3.1-2.3 5.3-5.5 5.3zM297.4 14.5h-5c-.4 0-1-.1-1.2.1-.3.3 0 .9-.1 1.3 0 .3.1.5-.1.8a8 8 0 00-3.9-2.4c-1.2-.3-2.4-.4-3.6-.3h-.6l-1.2.3c-3.3.8-5.7 2.8-7.2 5.8-.7 1.2-1 2.6-1.2 4v3c.1.8.3 1.7.6 2.5a11 11 0 009.8 7.5c1.9.1 3.7-.1 5.3-1 .8-.5 1.5-1.1 2.2-1.9l-.1 2.6c-.1 1.3-.5 2.4-1.6 3.3-.8.6-1.7 1-2.7 1h-1.6c-1.8 0-3.2-.9-4.2-2.5-.1-.2-.3-.4-.6-.2l-5.3 3c-.3.2-.2.3 0 .5.4.8 1 1.5 1.7 2.2.9.8 2 1.5 3 2 1.5.6 3 1 4.5 1l1.3.1h1.5c1-.1 2.1-.3 3.1-.6 2.2-.7 4.1-1.9 5.6-3.7a10.7 10.7 0 002-5.5V15c0-.3 0-.4-.4-.4zm-11.8 16.3c-3.2 0-5.5-2.1-5.5-5.3 0-3.1 2.3-5.3 5.6-5.3 3.2 0 5.4 2.3 5.4 5.3 0 3.1-2.2 5.3-5.5 5.3zM196.2 14.5h-6.1c-.4 0-.5.2-.4.5V16c0 .2 0 .4-.2.3l-1.2-1a9.5 9.5 0 00-3.8-1.4h-3a10.8 10.8 0 00-8 5.9 12.2 12.2 0 00-1.5 6.7 14 14 0 002 6.3c.9 1.5 2 2.7 3.4 3.6a9.7 9.7 0 006.3 1.6c.8-.1 1.6-.2 2.3-.5a8.4 8.4 0 003.5-2c.2 0 .2 0 .2.2v1c0 .6 0 .6.5.6h5.8c.6 0 .6 0 .6-.6V15.2v-.3c0-.3 0-.4-.4-.4zm-12 17c-3.2 0-5.3-2.2-5.3-5.6 0-3.3 2.2-5.5 5.5-5.5 3.1 0 5.3 2.3 5.3 5.6s-2.2 5.5-5.4 5.5zM128.1 24.7l-.1-.6a11.3 11.3 0 00-9.9-10c-.2-.1-.4 0-.5-.2h-2.1l-.6.1-.9.2a11.7 11.7 0 00-9.6 11 13.9 13.9 0 001.3 6.5 11.8 11.8 0 004.4 4.7c1.8 1 3.8 1.5 5.9 1.6a18.5 18.5 0 004.5-.3c2.6-.6 4.7-2 6.3-4 .2-.3.2-.4 0-.5a5805 5805 0 00-5.5-2.9c-.1.3-.4.4-.6.5a5 5 0 01-3 1 3 3 0 01-1.2 0h-1.3c-1.6-.5-2.8-1.3-3.4-2.9 0-.3.3-.1.5-.1h15.1c.2 0 .5 0 .6-.3l.1-1.2v-2.6zm-11.3-1H112c-.4 0-.4-.2-.3-.5.8-2.2 3-3.5 5.5-3.1a4.6 4.6 0 014.1 3.5h-4.5z" fill="#FEFEFE"/><path d="M33.2 23.4l-.3-.1a.7.7 0 01-.5-.5L27.7 13l-1.3-2.7c.4-.5 1-.7 1.5-1h.2c.6.6.8 1.4 1.2 2.2l1.4 3 3.4 7c.4 1 1 1.7 1.1 2.6l-.4-.2c-.5-.2-1-.5-1.6-.5z" fill="#BD150F"/><path d="M42.4 34.1l-.4-.4-.1-.6A2408.6 2408.6 0 0131.2 11l-1-2.4h1c.2 0 .3.2.4.4l4.4 9.2 6.2 12.9 1.4 3.1c.1.2.3.4.1.6-.5-.1-.8-.6-1.3-.7z" fill="#C4170E"/><path d="M49.7 35.8h-2.2c-.4-.5-.6-1.2-1-1.8l-2.4-5.3-5.8-12-3.4-7c-.1-.3-.3-.4 0-.6a7 7 0 012.3 1.2l.4.4c0 .3.3.5.4.7l3.6 7.5a2065.9 2065.9 0 017.9 16.4l.2.5z" fill="#CB190D"/><path d="M44.3 20.1a7 7 0 003.3 1.6l.7.2 1.5 3 1.5 3.3 2.7 5.6c0 .1.2.3.1.5l-1.6.9-1.1.3c-.4-1.2-1-2.2-1.5-3.4l-3.4-6.9-2.1-4.5c-.1-.2-.2-.4 0-.6z" fill="#D11B0C"/><path d="M29.2 23.7c-.4 0-.7.3-1 .4-.3-.1-.4-.5-.5-.7L24 16l-.6-1.4c0-.2-.2-.3-.4-.4.6-.9 1.1-1.8 1.8-2.6l.3-.3c.3 0 .4.3.5.5l5 10.5c.2.3.4.5.2.9-.6 0-1.2.2-1.7.5z" fill="#B81310"/><path d="M31 23.2l-.5-1a3727 3727 0 00-4.7-9.7c-.2-.4-.2-1-.6-1.2l.2-.3c.3-.2.6-.6 1-.7a2998.3 2998.3 0 014.8 9.6l1.4 3c0 .2.2.3.3.4-.7-.2-1.3-.1-2-.1z" fill="#BB140F"/><path d="M45.3 35.5l-.5-.2-1-2.1-4.4-9.3L33.2 11l-.8-1.7c-.1-.3-.3-.5 0-.8h.3l.7.1c.6.8 1 1.6 1.3 2.5l1.5 3.1 4.5 9.3 5 10.4.5 1.2c0 .2.2.3 0 .5h-.9z" fill="#C8180D"/><path d="M34.8 9c0 .4.2.6.4.8A5945.2 5945.2 0 0044 28.3l3.4 7 .1.6c-.2 0-.5 0-.8-.2-.5-.6-.8-1.4-1.1-2.2L44 30.3 39.6 21l-5-10.3-.6-1.4c-.1-.1-.2-.3 0-.6l.8.4z" fill="#C9180D"/><path d="M34 8.7c.1.8.5 1.4.8 2.1l4.6 9.4a1810 1810 0 017.3 15.5h-.5c0-.7-.4-1.2-.7-1.8l-4.6-9.5a1648.3 1648.3 0 01-7.5-15.8l.5.1z" fill="#C9180D"/><path d="M54.1 34.3L50 25.6l-1.5-3.3-.1-.4h1.3c.7 0 1.3-.4 2-.5l.7 1.7 3.2 6.7 1.1 2.3c-.6 1-1.6 1.6-2.5 2.2z" fill="#D91D0B"/><path d="M32.3 8.5c.1 1 .7 1.7 1 2.5l4.6 9.5a1778.3 1778.3 0 016.8 14.3c.1.1.2.3 0 .5-.2-.2-.5-.3-.8-.3l-.2-.2-.5-1.2-3.2-6.8a2834.3 2834.3 0 01-7.4-15.4l-1.4-2.9c.4-.2.8 0 1.1 0z" fill="#C5170E"/><path d="M47.5 35.8h2c-.2.4-.4.2-.6.2h-1.4v-.2z" fill="#D11B0C"/></g></svg>
