<svg width="130" height="48" xmlns="http://www.w3.org/2000/svg"><g fill="none"><path d="M111.342 10.162H130v5.406h-6.509v22.918h-5.64V15.568h-6.509v-5.406zm-24.082 0h4.99l11.065 17.297V10.162h5.64v28.324h-4.99L92.902 21.19v17.297h-5.64V10.162zm-17.79 0h14.753v5.406H71.206v6.054H82.27v5.405H71.206v6.054h13.017v5.405H69.47V48h-1.085V0h1.085v10.162z" fill="#78BD1F"/><path d="M24.607 10.14H43.17v5.42H30.435v6.069h11.008v5.418H30.435v6.07H43.17v5.418H24.607V10.141zM0 10.14h5.18l10.793 17.34V10.14h5.612v28.395H16.62L5.612 21.195v17.34H0V10.141zm45.76 0h18.563v5.42h-6.476v22.975h-5.612V15.56H45.76v-5.42z" fill="#FFF"/></g></svg>
