<svg width="340" height="88" viewBox="0 0 340 88" fill="none" xmlns="http://www.w3.org/2000/svg">
<path d="M1.90698 9.83652C1.90698 7.81219 3.49124 6.0519 6.48374 5.78785C8.50807 5.43579 10.6204 5.25977 12.5567 5.25977C27.0791 5.25977 35.0884 12.2129 35.0884 24.0949C35.0884 37.3851 27.1671 43.106 13.7889 43.106C12.3807 43.106 10.9725 42.93 9.65226 42.6659V64.6695C9.65226 66.7819 7.97998 68.5422 5.77962 68.5422C3.57926 68.5422 1.90698 66.8699 1.90698 64.6695V9.83652ZM9.65226 36.0575C11.0605 36.4976 12.9088 36.5856 14.229 36.5856C22.7664 36.5856 27.0791 31.3927 27.0791 24.0875C27.0791 16.7823 22.7664 11.7655 14.229 11.7655C12.9088 11.7655 11.1485 11.7655 9.65226 12.2056V36.0575Z" fill="white"/>
<path d="M54.6277 63.1659C52.5153 66.6865 48.7307 68.5348 44.0659 68.5348C34.8244 68.5348 29.5435 61.5817 29.5435 52.6922C29.5435 43.8028 34.7364 36.8496 44.33 36.8496C48.9948 36.8496 52.4273 38.7859 54.4516 41.6024V40.3702C54.4516 38.4339 55.8599 36.8496 58.0602 36.8496C59.9086 36.8496 61.4048 37.9938 61.4048 40.3702V65.0142C61.4048 67.3906 59.9966 68.5348 58.0602 68.5348C56.1239 68.5348 54.6277 67.4787 54.6277 65.0142V63.1659ZM54.3636 52.6922C54.3636 47.4994 51.2831 43.0986 45.6502 43.0986C40.0173 43.0986 36.8488 47.4113 36.8488 52.7802C36.8488 58.1491 40.1053 62.2858 45.5622 62.2858C51.0191 62.2858 54.3636 57.8851 54.3636 52.6922Z" fill="white"/>
<path d="M78.3916 58.7654C78.3916 61.8459 79.7998 62.2859 80.944 62.2859C82.0882 62.2859 82.7923 61.8459 83.2324 61.6698C84.8166 61.1418 86.1369 62.9901 86.1369 64.7503C86.1369 65.6305 85.7848 66.5987 84.9927 67.0387C83.4964 67.9189 81.8241 68.535 79.0957 68.535C73.9909 68.535 71.3504 66.2466 71.3504 59.8215V43.8029H69.062C67.2137 43.8029 66.0695 42.7467 66.0695 40.8104C66.0695 38.8741 67.3018 37.8179 69.062 37.8179H71.3504V33.5932C71.3504 31.1288 73.1107 29.8086 74.871 29.8086C76.6313 29.8086 78.3916 31.1288 78.3916 33.5932V37.8179H82.4402C84.4646 37.8179 85.5208 39.1381 85.5208 40.8104C85.5208 42.8347 84.2885 43.8029 82.3522 43.8029H78.3916V58.7654Z" fill="white"/>
<path d="M97.3147 54.4525C97.5787 59.2933 101.187 63.0779 107.348 63.0779C110.957 63.0779 113.421 62.0218 115.622 60.7015C117.91 59.5573 119.934 61.2296 119.934 63.0779C119.934 63.9581 119.494 64.8382 118.526 65.4543C115.798 67.3026 111.397 68.5348 106.644 68.5348C94.8503 68.5348 89.8335 61.0536 89.8335 52.8682C89.8335 44.6829 95.2023 36.8496 105.412 36.8496C115.094 36.8496 120.551 43.4507 120.551 51.284C120.551 53.0443 119.406 54.4525 116.854 54.4525H97.3147ZM113.773 49.6997C113.421 45.9151 110.693 42.2185 105.588 42.2185C100.483 42.2185 97.7548 45.9151 97.4027 49.6997H113.773Z" fill="white"/>
<path d="M127.328 40.4582C127.328 38.4339 128.824 36.8496 130.848 36.8496C132.432 36.8496 134.193 37.9058 134.193 40.4582V42.8346C136.129 39.314 140.002 36.8496 144.578 36.8496C153.556 36.8496 159.189 43.8028 159.189 52.6922C159.189 61.5817 153.556 68.6228 144.666 68.6228C140.354 68.6228 136.569 66.4225 134.369 62.7259V80.6808C134.369 83.3213 132.608 84.2894 130.848 84.2894C129.088 84.2894 127.328 83.2332 127.328 80.6808V40.4582ZM151.972 52.7802C151.972 46.7952 148.275 43.1867 143.17 43.1867C138.065 43.1867 134.369 47.5874 134.369 52.8682C134.369 58.1491 137.977 62.3738 143.17 62.3738C148.363 62.3738 151.972 58.6772 151.972 52.7802Z" fill="white"/>
<path d="M164.998 6.66731C164.998 4.11489 166.582 2.9707 168.43 2.9707C170.279 2.9707 172.039 4.11489 172.039 6.66731V58.4125C172.039 61.0529 172.303 62.5492 174.503 62.7252C175.56 62.8132 176.352 63.4293 176.352 65.6297C176.352 67.8301 175.208 68.5342 172.743 68.5342C166.67 68.5342 164.998 64.6615 164.998 59.3807V6.66731Z" fill="white"/>
<path d="M204.516 63.1659C202.404 66.6865 198.619 68.5348 193.955 68.5348C184.713 68.5348 179.432 61.5817 179.432 52.6922C179.432 43.8028 184.625 36.8496 194.219 36.8496C198.883 36.8496 202.316 38.7859 204.34 41.6024V40.3702C204.34 38.4339 205.749 36.8496 207.949 36.8496C209.797 36.8496 211.293 37.9938 211.293 40.3702V65.0142C211.293 67.3906 209.885 68.5348 207.949 68.5348C206.013 68.5348 204.516 67.4787 204.516 65.0142V63.1659ZM204.252 52.6922C204.252 47.4994 201.172 43.0986 195.539 43.0986C189.906 43.0986 186.737 47.4113 186.737 52.7802C186.737 58.1491 189.994 62.2858 195.451 62.2858C200.908 62.2858 204.252 57.8851 204.252 52.6922Z" fill="white"/>
<path d="M227.576 65.8064L217.366 42.6586C217.102 42.0425 216.574 41.1623 216.574 40.1942C216.574 38.3459 218.071 36.8496 219.919 36.8496C221.767 36.8496 222.735 38.4339 223.439 40.1942L231.537 59.4693L239.546 40.1942C240.25 38.4339 241.306 36.8496 243.155 36.8496C245.003 36.8496 246.323 38.1698 246.323 39.9301C246.323 40.9863 245.971 42.0425 245.619 42.6586L228.456 79.9767C227.048 82.8812 225.816 84.5535 223.968 84.5535C222.119 84.5535 220.535 83.1452 220.535 81.2969C220.535 80.1527 221.503 78.4805 221.767 77.7764L227.576 65.8064Z" fill="white"/>
<path d="M265.679 36.6211H257.472C255.059 36.6211 253.108 38.5794 253.108 40.9851C253.108 43.5229 255.169 45.5839 257.706 45.5839H266.06C269.031 63.3262 289.318 75.2815 308.909 63.3848C314.931 59.7249 319.815 50.9014 319.815 43.8603V36.6211H265.686H265.679Z" fill="#FBDF4B"/>
<path d="M326.79 23.3898C323.637 8.80869 306.371 -0.579519 290.052 10.3196C285.064 13.6495 282.13 19.3118 282.13 25.3041V32.9393H331.397C334.176 32.9393 336.428 30.6876 336.428 27.9078C336.428 25.4068 334.404 23.3824 331.903 23.3824H326.79V23.3898ZM311.879 26.1255C309.782 26.1255 308.08 24.4239 308.08 22.3263C308.08 20.2286 309.782 18.527 311.879 18.527C313.977 18.527 315.679 20.2286 315.679 22.3263C315.679 24.4239 313.977 26.1255 311.879 26.1255Z" fill="#FBDF4B"/>
</svg>
