<svg width="236" height="48" xmlns="http://www.w3.org/2000/svg"><g fill="none"><path fill="#EC008C" d="M182.794 0v15.961l17.539-7.983z"/><path fill="#00AEEF" d="M200.333 7.978V23.94l17.535-7.978z"/><path fill="#00B5A5" d="M200.333 23.935v15.966l17.535-7.983z"/><path fill="#FFE600" d="M217.868 15.961v15.957l17.535-7.983z"/><path fill="#ED1C24" d="M182.794 15.961v15.957l17.539-7.983z"/><path fill="#FBB040" d="M182.794 31.918v15.96l17.539-7.977z"/><path d="M18.928 6.136a4.033 4.033 0 011.617.325 4.47 4.47 0 011.332.864 3.806 3.806 0 011.22 2.82v6.227a3.749 3.749 0 01-.32 1.557c-.21.48-.516.91-.9 1.267a4.55 4.55 0 01-1.332.865 4.03 4.03 0 01-1.617.324H4.173a2.763 2.763 0 01-.71-.043v7.982H.005V6.136h18.924zm.704 4.005a.644.644 0 00-.207-.476.692.692 0 00-.497-.2H4.173a.683.683 0 00-.497.2.631.631 0 00-.212.476v6.227a.636.636 0 00.212.48.683.683 0 00.497.198h14.755a.692.692 0 00.497-.198.644.644 0 00.207-.48V10.14zm5.133-4.07h3.464V24.97h19.633v3.33H24.765zm43.949.035a4.212 4.212 0 012.949 1.168c.38.37.686.81.9 1.297.213.49.322 1.021.32 1.557v18.188h-3.46v-7.784H53.25v7.784h-3.46V10.11a3.845 3.845 0 01.32-1.556c.212-.488.518-.929.9-1.298a4.213 4.213 0 012.949-1.168l14.755.018zm.704 11.096V10.11a.644.644 0 00-.207-.475.705.705 0 00-.497-.204h-14.76a.696.696 0 00-.497.204.644.644 0 00-.207.475v7.092h16.168zm28.71-11.096L87.477 19.974v8.324h-3.464v-8.324L73.363 6.106h4.073l8.307 10.11 8.276-10.11zm23.351 5.302h-3.46V10.11a.644.644 0 00-.207-.475.688.688 0 00-.497-.204h-14.742a.688.688 0 00-.497.204.644.644 0 00-.208.475v4.757a.644.644 0 00.208.48c.133.13.311.2.497.199h14.755c.555-.004 1.106.1 1.621.307.494.2.945.494 1.328.865.384.367.69.809.9 1.297.216.49.325 1.021.32 1.557v4.757a3.749 3.749 0 01-.32 1.556c-.21.489-.516.93-.9 1.298a4.143 4.143 0 01-1.328.865 4.212 4.212 0 01-1.621.307h-14.755a4.19 4.19 0 01-2.954-1.172 4.017 4.017 0 01-.899-1.298 3.816 3.816 0 01-.32-1.556V23.03h3.46v1.298a.644.644 0 00.207.48.683.683 0 00.497.199h14.755a.683.683 0 00.497-.2.644.644 0 00.208-.48v-4.756a.644.644 0 00-.208-.48.683.683 0 00-.497-.199h-14.746a4.242 4.242 0 01-2.954-1.172 4.065 4.065 0 01-.899-1.297 3.829 3.829 0 01-.32-1.557V10.11a3.846 3.846 0 01.32-1.556c.213-.487.519-.927.9-1.298a4.213 4.213 0 012.953-1.168h14.755a4.216 4.216 0 011.621.308 4.129 4.129 0 012.228 2.162c.215.49.324 1.02.32 1.557l-.018 1.293zm21.011-5.302a4.21 4.21 0 012.954 1.168c.381.369.685.81.895 1.297.218.49.328 1.02.325 1.557V24.31a3.742 3.742 0 01-.325 1.553c-.207.488-.512.93-.895 1.297a4.19 4.19 0 01-2.953 1.172h-14.755a4.19 4.19 0 01-2.953-1.172 3.935 3.935 0 01-.895-1.297 3.74 3.74 0 01-.32-1.553V10.128a3.774 3.774 0 01.32-1.557 4.03 4.03 0 01.895-1.297 4.213 4.213 0 012.953-1.168h14.755zm0 18.863a.683.683 0 00.498-.2.644.644 0 00.208-.475V10.11a.644.644 0 00-.208-.475.688.688 0 00-.497-.204h-14.755a.688.688 0 00-.497.204.644.644 0 00-.208.475v14.184c0 .18.075.353.208.476a.683.683 0 00.497.199h14.755zm26.046-18.863H172v22.192h-4.104l-15.524-17.755v17.755h-3.464V6.106h4.104l15.524 17.751zM40.558 42.975v-.55a6.21 6.21 0 01-2.642.71c-1.817 0-2.258-1.03-2.258-2.633v-4.273h.865v4.273c0 1.44.355 1.937 1.544 1.937a6.486 6.486 0 002.478-.657v-5.553h.865v6.746h-.852zm7.494 0v-4.277c0-1.44-.342-1.937-1.53-1.937a6.634 6.634 0 00-2.474.649v5.565h-.891V36.23h.89v.545a5.929 5.929 0 012.556-.722c1.916 0 2.353.921 2.353 2.646v4.277h-.904zm2.629-8.065v-1.54h.917v1.54h-.917zm0 8.065V36.23h.904v6.746h-.904zm7.248 2.595v-2.86c-.7.283-1.447.43-2.201.433-1.86 0-2.707-.865-2.707-3.243v-.498c0-2.594 1.037-3.342 3.295-3.342.837-.001 1.673.054 2.503.164v9.353l-.89-.008zm0-8.735a29.72 29.72 0 00-1.626-.06c-1.64 0-2.392.41-2.392 2.62v.497c0 1.916.532 2.525 1.955 2.525a6.396 6.396 0 002.063-.376v-5.206zm7.455 6.14v-.55a6.21 6.21 0 01-2.642.71c-1.82 0-2.258-1.03-2.258-2.633v-4.273h.865v4.273c0 1.44.355 1.937 1.544 1.937a6.486 6.486 0 002.478-.657v-5.553h.886v6.746h-.873zm3.148-3.096v.147c0 1.54.467 2.396 2.49 2.396.851-.008 1.7-.07 2.543-.186v.648c-.845.168-1.706.25-2.568.247-2.53 0-3.352-1.03-3.352-3.278v-.476c0-2.11.943-3.33 3.08-3.33 2.136 0 3.087 1.194 3.087 3.421v.407l-5.28.004zm4.35-.791c0-1.207-.367-2.327-2.162-2.327s-2.162 1.155-2.162 2.327v.108h4.35l-.026-.108zm7.157 6.607a18.318 18.318 0 01-2.595-.212v-.597A32.7 32.7 0 0080.04 45c1.626 0 1.967-.497 1.967-1.777v-.333c-.58.15-1.177.233-1.777.246-2.063 0-3.13-.817-3.13-3.105v-.865c0-2.127.955-3.109 3.295-3.109.837.014 1.673.073 2.503.178v6.992c0 1.6-.575 2.47-2.858 2.47zm1.967-8.834a13.751 13.751 0 00-1.612-.113c-1.79 0-2.41.722-2.41 2.413v.865c0 1.812.645 2.409 2.258 2.409a7.697 7.697 0 001.764-.234v-5.34zm6.911 6.114v-.484a5.111 5.111 0 01-2.478.644c-1.449 0-2.214-.597-2.214-1.937v-.186c0-1.73 1.22-2.063 3.39-2.063h1.259v-.57c0-1.32-.312-1.63-1.968-1.63-.723.006-1.445.052-2.162.137v-.596c.739-.15 1.49-.229 2.244-.238 2.366 0 2.802.735 2.802 2.326v4.597h-.873zm-.043-3.394h-1.259c-1.79 0-2.5.224-2.5 1.43v.234c0 .934.571 1.259 1.506 1.259a4.982 4.982 0 002.253-.61v-2.313zm10.906 3.394v-4.51c0-1.068-.096-1.704-1.298-1.704a4.688 4.688 0 00-2.093.636c.072.351.104.71.095 1.068v4.51h-.9v-4.51c0-1.094-.068-1.704-1.232-1.704a4.757 4.757 0 00-2.067.636v5.578H91.4V36.23h.886v.532a4.363 4.363 0 012.258-.71c.89 0 1.383.29 1.656.762a4.67 4.67 0 012.396-.761c1.993 0 2.088 1.297 2.088 2.413v4.51h-.904zm2.624-8.065v-1.54h.917v1.54h-.917zm0 8.065V36.23h.904v6.746h-.904zm7.581 0v-4.277c0-1.44-.342-1.937-1.53-1.937a6.634 6.634 0 00-2.479.649v5.565h-.89V36.23h.89v.545a5.946 5.946 0 012.56-.722c1.912 0 2.353.921 2.353 2.646v4.277h-.904zm5.172 2.72a18.318 18.318 0 01-2.595-.212v-.597a32.7 32.7 0 002.595.113c1.626 0 1.967-.497 1.967-1.777v-.333c-.58.15-1.177.233-1.777.246-2.067 0-3.13-.817-3.13-3.105v-.865c0-2.127.955-3.109 3.294-3.109.838.014 1.673.073 2.504.178v6.992c0 1.6-.575 2.47-2.858 2.47zm1.967-8.834a13.751 13.751 0 00-1.613-.113c-1.79 0-2.408.722-2.408 2.413v.865c0 1.812.644 2.409 2.257 2.409a7.732 7.732 0 001.764-.234v-5.34zm6.936 6.274a12.043 12.043 0 01-2.378-.246v-.636c.78.105 1.566.167 2.353.186 1.396 0 1.833-.433 1.833-1.116s-.329-.934-1.67-1.431l-.531-.186c-1.423-.523-2.08-1.055-2.08-2.01 0-1.12.865-1.644 2.65-1.644a9.66 9.66 0 012.163.238v.622a19.234 19.234 0 00-2.132-.15c-1.232 0-1.794.198-1.794.933 0 .631.384.908 1.535 1.328l.532.199c1.656.635 2.2 1.068 2.2 2.088.014.956-.587 1.825-2.68 1.825zm6.677 0c-2.106 0-3.092-1.094-3.092-3.178v-.722c0-2.076.986-3.183 3.092-3.183s3.092 1.107 3.092 3.183v.722c0 2.084-.986 3.178-3.092 3.178zm2.201-3.892c0-1.73-.657-2.46-2.2-2.46-1.544 0-2.202.735-2.202 2.46v.722c0 1.73.658 2.47 2.201 2.47 1.544 0 2.201-.744 2.201-2.47v-.722zm2.327 3.732v-9.604h.89v9.604zm7.498 0v-.55a6.21 6.21 0 01-2.642.71c-1.816 0-2.257-1.03-2.257-2.633v-4.273h.865v4.273c0 1.44.354 1.937 1.543 1.937a6.486 6.486 0 002.478-.657v-5.553h.904v6.746h-.89zm5.116.16c-1.258 0-1.682-.432-1.682-1.678v-4.545l-1.613-.064v-.619h1.613v-1.825h.89v1.817h2.132v.683h-2.131v4.51c0 .865.12 1.055.886 1.055.372 0 .917-.026 1.245-.06v.57c-.441.091-.89.143-1.34.156zm2.409-8.225v-1.54h.916v1.54h-.916zm0 8.065V36.23h.903v6.746h-.903zm5.444.16c-2.106 0-3.092-1.094-3.092-3.178v-.722c0-2.076.986-3.183 3.092-3.183s3.092 1.107 3.092 3.183v.722c0 2.084-.986 3.178-3.092 3.178zm2.201-3.892c0-1.73-.657-2.46-2.201-2.46s-2.201.735-2.201 2.46v.722c0 1.73.653 2.47 2.2 2.47 1.549 0 2.202-.744 2.202-2.47v-.722zm7.17 3.732v-4.277c0-1.44-.342-1.937-1.531-1.937a6.634 6.634 0 00-2.478.649v5.565h-.89V36.23h.89v.545a5.946 5.946 0 012.56-.722c1.911 0 2.352.921 2.352 2.646v4.277h-.903zm4.622.16a12.043 12.043 0 01-2.378-.246v-.636c.78.105 1.565.167 2.352.186 1.397 0 1.834-.433 1.834-1.116s-.329-.934-1.67-1.431l-.531-.186c-1.423-.523-2.08-1.055-2.08-2.01 0-1.12.865-1.644 2.65-1.644a9.66 9.66 0 012.163.238v.622a19.25 19.25 0 00-2.132-.15c-1.232 0-1.79.198-1.79.933 0 .631.38.908 1.53 1.328l.532.199c1.657.635 2.201 1.068 2.201 2.088.013.956-.588 1.825-2.68 1.825z" fill="#FFF"/></g></svg>
