<svg width="212" height="48" xmlns="http://www.w3.org/2000/svg"><g fill="#FFF"><path d="M49.026 17.642c-.033-.08-.053-.16-.086-.242-2.009-4.923-9.64-6.416-18.438-4.166l-1.443-.899c4.331-1.869 8.645-2.845 12.26-2.578 5.39.409 8.027 3.477 7.707 7.885m-7.822 10.343c-5.64 7.181-15.834 12.152-22.77 11.638-6.924-.524-7.975-6.766-2.332-13.947.112-.148.233-.293.351-.44l.018 9.004c-.037 2.289 2.167 3.363 3.752 2.454L40.96 24.046c1.622-1.05 1.45-3.4-.077-4.305l-8.408-4.84c2.273-.683 4.454-1.005 6.392-.862 6.93.525 7.973 6.764 2.336 13.946M14.828 43.487c-6.365-.48-8.904-4.675-7.247-10.388-.01.952.14 1.865.493 2.713 2.487 6.116 13.655 6.944 24.94 1.867.231-.104.46-.218.689-.32-6.336 4.09-13.394 6.534-18.875 6.128m7.333-31.972l13.921 8.773c1.029.617 1.153 2.223.057 2.936l-14.063 8.575c-1.074.619-2.58-.118-2.55-1.682l-.067-17.028c.06-1.421 1.467-2.28 2.702-1.574m32.225 3.158c-2.918-7.17-15.035-8.748-28.148-4.109L20.42 6.92c-1.812-1.035-3.881.225-3.981 2.322l.003 5.921c-11.3 6.772-17.854 16.52-15.064 23.381 3.234 7.926 17.717 9.014 32.351 2.42 14.638-6.588 23.886-18.36 20.658-26.29m11.631 10.334l-1.265 4.655a35.913 35.913 0 00-.45 1.91c-.119.585-.168 1.003-.168 1.262 0 .499.135.88.412 1.166.29.285.676.425 1.149.425.742 0 1.513-.419 2.312-1.255.796-.838 1.557-2.036 2.301-3.607a44.862 44.862 0 002.176-5.964c.54-1.955.824-3.495.824-4.59 0-.795-.165-1.437-.485-1.914-.322-.483-.734-.73-1.217-.73-1.101 0-2.105.712-3.025 2.114-.921 1.417-1.775 3.587-2.564 6.528m-7.944-10.814a113.73 113.73 0 005.613-.591 80.498 80.498 0 005.148-.82l-1.392 4.99c1.39-1.93 2.715-3.347 3.985-4.22 1.247-.9 2.543-1.328 3.905-1.328 1.854 0 3.293.585 4.292 1.75 1.015 1.179 1.512 2.852 1.512 5.015 0 1.826-.34 3.754-1.033 5.766a22.59 22.59 0 01-2.9 5.63c-1.439 2.021-2.956 3.537-4.58 4.54-1.631 1.011-3.35 1.522-5.181 1.522a6.524 6.524 0 01-2.118-.33 6.116 6.116 0 01-1.78-.978l-1.424 5.411a5.676 5.676 0 00-.212 1.011 6.113 6.113 0 00-.07 1.003c0 .65.187 1.121.572 1.384.387.262 1.168.423 2.342.497v1.264H51.466v-1.319c.045 0 .11-.006.194-.022a.905.905 0 01.19-.03c.827 0 1.442-.211 1.854-.645.416-.432.838-1.557 1.284-3.39l5.289-21.544c.092-.343.163-.695.22-1.028a5.27 5.27 0 00.084-.764c0-.593-.178-.99-.524-1.208-.357-.243-1.019-.353-1.983-.353v-1.213z"/><path d="M82.455 2.31a94.29 94.29 0 005.727-.64c1.83-.26 3.57-.563 5.2-.934l-7.297 28.886c-.047.159-.102.35-.165.6-.096.374-.131.613-.131.741 0 .34.063.61.196.797.141.194.34.289.597.289.263 0 .56-.181.901-.552.338-.363.994-1.32 1.97-2.868l1.164.883c-1.465 2.452-2.877 4.235-4.204 5.338-1.327 1.102-2.705 1.65-4.146 1.65-1.27 0-2.264-.352-2.95-1.069-.692-.716-1.032-1.749-1.032-3.082 0-.656.355-2.395 1.056-5.214l.071-.285 4.843-18.8c.044-.173.105-.43.183-.768.308-1.237.444-2.034.444-2.378 0-.473-.16-.816-.49-1.046-.321-.222-.824-.342-1.52-.342h-.417V2.311z"/><path d="M105.301 17.27c0-.69-.145-1.239-.447-1.65-.303-.41-.693-.611-1.182-.611-.695 0-1.363.337-2.01 1.024-.648.695-1.39 1.842-2.24 3.448-.994 1.914-1.773 3.78-2.333 5.619-.575 1.855-.86 3.424-.86 4.725 0 .792.16 1.402.473 1.866.316.435.75.657 1.278.657.784 0 1.583-.465 2.411-1.417.827-.946 1.608-2.282 2.348-4a45.953 45.953 0 001.86-5.56c.465-1.792.702-3.156.702-4.1m8.804-4.24l-3.893 14.29v.05c-.593 2.201-.892 3.481-.892 3.849 0 .34.06.61.197.822.127.214.294.306.518.306.63 0 1.453-.757 2.44-2.279.299-.434.528-.777.685-1.017l1.131.891c-1.27 2.23-2.536 3.88-3.828 4.93-1.292 1.055-2.688 1.575-4.174 1.575-1.239 0-2.185-.275-2.823-.819-.658-.563-.978-1.364-.978-2.434 0-.318.023-.729.092-1.21.057-.489.16-1.12.295-1.892-1.176 2.15-2.458 3.75-3.842 4.782-1.379 1.053-2.92 1.573-4.618 1.573-1.755 0-3.135-.546-4.15-1.642-1.02-1.107-1.528-2.609-1.528-4.521 0-2.2.481-4.517 1.469-6.968.974-2.418 2.283-4.584 3.934-6.443 1.302-1.494 2.649-2.643 4.05-3.448 1.412-.805 2.76-1.201 4.059-1.201 1.24 0 2.202.302 2.919.9.715.61 1.184 1.534 1.41 2.765l.716-2.858h6.81z"/><path d="M111.836 15.008v-1.32c1.897-.211 3.817-.474 5.774-.769 1.942-.296 3-.44 3.147-.44.782 0 1.805 3.438 3.043 10.325.503 2.741.915 4.95 1.24 6.603 1.476-2.994 2.485-5.18 3.03-6.546.544-1.358.811-2.37.811-3.015 0-.501-.455-1.11-1.362-1.803-.905-.7-1.369-1.505-1.369-2.395 0-1.03.315-1.861.955-2.491.626-.62 1.464-.933 2.51-.933 1.035 0 1.852.312 2.437.933.575.63.874 1.511.874 2.633 0 1.41-.678 3.68-2.019 6.804-1.344 3.118-3.182 6.628-5.509 10.555-2.632 4.476-5.035 7.725-7.191 9.783-2.158 2.056-4.235 3.078-6.232 3.078-1.327 0-2.365-.294-3.125-.885-.756-.595-1.137-1.408-1.137-2.444 0-.943.324-1.706.986-2.327.654-.614 1.482-.919 2.491-.919.79 0 1.638.316 2.543.939.9.632 1.515.93 1.814.93.544 0 1.156-.455 1.85-1.364.712-.92 1.067-1.785 1.067-2.623 0-.61-.057-1.39-.165-2.325a77.074 77.074 0 00-.496-3.465c-.46-2.935-.925-5.615-1.388-8.02-.476-2.4-.898-4.297-1.277-5.684-.333-1.19-.67-1.963-1.009-2.328-.34-.361-.89-.54-1.674-.54h-.061a4.287 4.287 0 01-.558.053"/><path d="M142.197 29.987c-1.466 2.068-2.907 3.654-4.311 4.75-1.39 1.107-2.66 1.656-3.815 1.656-.93 0-1.657-.308-2.193-.903-.536-.608-.809-1.423-.809-2.444 0-.36.038-.758.108-1.205.065-.452.17-.953.309-1.48l4.185-16.367h-4.407l.41-1.407c1.895-.415 3.57-1.318 5.032-2.716 1.455-1.403 2.776-3.341 3.936-5.823h1.504l-1.967 8.217h4.027l-.407 1.73h-4.15l-4.019 15.808c-.092.359-.163.673-.212.97-.033.288-.065.553-.065.777 0 .526.114.923.352 1.205.218.281.55.417.952.417.526 0 1.144-.307 1.877-.949.73-.628 1.655-1.66 2.764-3.084l.9.848z"/><path d="M146.308 24.6c3.24-.156 5.97-1.043 8.16-2.643 2.206-1.626 3.294-3.45 3.294-5.519 0-.693-.175-1.213-.526-1.563-.34-.335-.868-.508-1.577-.508-1.963 0-3.787.89-5.456 2.703-1.67 1.826-2.964 4.331-3.895 7.53m-.383 1.733a13.684 13.684 0 00-.316 1.694 9.575 9.575 0 00-.102 1.463c0 1.37.332 2.417 1.015 3.137.672.723 1.663 1.257 2.955 1.257 1.272 0 2.735-.605 4.345-1.479 1.63-.867 3.461-2.183 5.48-3.94l1.065 1.614c-2.409 2.171-4.676 3.777-6.808 4.802-2.125 1.047-4.206 1.557-6.25 1.557-2 0-3.57-.607-4.672-1.798-1.111-1.208-1.663-2.898-1.663-5.103 0-2.106.432-4.25 1.296-6.422.864-2.163 2.046-4.105 3.538-5.786 1.447-1.611 3.039-2.835 4.753-3.69 1.74-.847 3.512-1.285 5.338-1.285 1.682 0 3 .395 3.974 1.176.971.776 1.462 1.846 1.462 3.208 0 2.453-1.429 4.583-4.26 6.373-2.837 1.787-6.554 2.853-11.15 3.222"/><path d="M177.577 26.67l-.062 3.097c-1.526 2.233-3.179 3.897-4.98 5.009-1.8 1.101-3.765 1.649-5.893 1.649-2.33 0-4.235-.78-5.697-2.358-1.457-1.553-2.184-3.622-2.184-6.192 0-1.889.413-3.815 1.237-5.78a17.293 17.293 0 013.424-5.281c1.337-1.408 2.837-2.507 4.5-3.261 1.647-.768 3.332-1.163 5.067-1.163 1.82 0 3.265.424 4.343 1.255 1.076.832 1.616 1.938 1.616 3.332 0 .826-.275 1.543-.84 2.132-.558.595-1.218.885-1.99.885-.63 0-1.138-.198-1.529-.616-.388-.413-.583-.947-.583-1.614 0-.465.151-.997.471-1.618.309-.61.458-.991.458-1.144 0-.287-.151-.517-.475-.695-.322-.18-.746-.268-1.298-.268-1.12 0-2.256.342-3.426 1.049-1.16.718-2.175 1.684-3.047 2.911a18.502 18.502 0 00-2.458 4.746c-.567 1.668-.848 3.29-.848 4.896 0 1.814.455 3.265 1.376 4.323.93 1.06 2.18 1.779 3.76 1.779 1.247 0 2.472-.583 3.675-1.36 1.212-.792 3.216-2.366 5.384-5.714"/><path d="M174.831 36.452l8.244-29.868a3.69 3.69 0 00.1-.567c.031-.183.04-.373.04-.526 0-.532-.136-.897-.393-1.104-.261-.182-1.01-.282-2.23-.282h-1.877l.29-1.363a27.97 27.97 0 004.245-.496c1.303-.275 2.552-.629 3.708-1.09h1.49l-5.705 20.63c2.922-2.978 5.613-5.283 8.062-6.944 2.442-1.632 4.393-2.46 5.848-2.46.768 0 1.323.183 1.693.548.359.377.553.948.553 1.716 0 .24-.04.524-.11.867-.065.356-.153.744-.259 1.163l-4.164 14.053a9.023 9.023 0 00-.194.899 5.4 5.4 0 00-.087.954c0 .18.087.338.236.483.149.138.332.383.528.383.406 0 .978-.448 1.69-1.001.719-.554 1.473-1.312 2.27-2.27l.848.728c-1.433 1.78-2.815 3.15-4.14 4.082-1.332.943-2.56 1.418-3.68 1.418-.732 0-1.31-.181-1.731-.534-.43-.362-.635-.84-.635-1.467 0-.22.018-.457.067-.71.044-.252.126-.525.226-.825l4.278-14.534c.079-.319.13-.562.157-.727.026-.159.033-.318.033-.451 0-.372-.1-.654-.316-.854-.204-.185-.502-.281-.895-.281-.609 0-1.508.379-2.692 1.148-1.193.768-2.554 1.865-4.12 3.285-1.4 1.256-2.435 2.326-3.085 3.212-.65.887-1.125 1.806-1.42 2.76l-2.836 10.025c-.324-.05-1.47-.087-1.805-.108-.331-.024.154-.024-.19-.024-.347 0-.695 0-1.03.024a13.48 13.48 0 00-1.012.108m-48.962 8.216v.388c-.002.2.02.383.074.558.118.471.501.707 1.155.707.243 0 .463-.034.661-.102.446-.136.672-.472.686-.996a.965.965 0 00-.44-.836 6.41 6.41 0 00-.738-.403l-.862-.39a4.878 4.878 0 01-.852-.468c-.475-.331-.715-.805-.715-1.425.006-.68.275-1.158.8-1.443.392-.214.926-.324 1.611-.33.832 0 1.435.157 1.802.473.293.254.44.752.44 1.494v.14h-1.184v-.167l-.023-.361c-.073-.542-.424-.807-1.052-.793-.798 0-1.2.32-1.21.958 0 .406.251.738.748.993.312.163.66.322 1.049.487.392.16.71.316.954.463.571.35.858.872.858 1.577-.012 1.27-.854 1.91-2.531 1.91-.719.01-1.272-.112-1.659-.355a1.525 1.525 0 01-.738-1.241l-.016-.56v-.278h1.182zm4.553-2.388c.004-.573.059-.992.159-1.259.16-.42.508-.722 1.046-.897a3.892 3.892 0 011.257-.196c.442 0 .86.065 1.254.196.53.175.876.477 1.039.897.1.261.157.686.165 1.259v2.338c0 .42-.024.787-.07 1.092-.132.92-.918 1.388-2.355 1.392-1.042 0-1.741-.214-2.097-.648-.27-.324-.404-.939-.398-1.836V42.28zm1.186 2.33c.004.587.047.972.127 1.143.08.173.236.314.456.416.226.1.455.151.693.151.214 0 .422-.04.618-.127.377-.15.583-.417.62-.8.02-.217.03-.477.034-.783v-2.336c.008-.507-.051-.864-.169-1.068-.186-.33-.557-.497-1.103-.493-.214 0-.412.031-.599.104-.387.132-.603.405-.648.811a4.51 4.51 0 00-.03.646v2.336zm4.806-4.582h1.182v4.655l.011.614c.042.678.436 1.02 1.182 1.023.748 0 1.159-.318 1.23-.958a6.52 6.52 0 00.044-.68v-4.654h1.184v4.73a9.685 9.685 0 01-.04.899 1.291 1.291 0 01-.396.812c-.431.423-1.093.629-1.984.633-.925-.004-1.593-.208-1.999-.62a1.331 1.331 0 01-.385-.825 9.693 9.693 0 01-.03-.9v-4.73zm7.919 0h.707c.273 0 .524.026.752.063.873.14 1.315.695 1.329 1.674 0 .515-.116.9-.346 1.173-.223.253-.661.424-1.303.516v-.004c.4.04.689.1.866.183a.86.86 0 01.475.606c.04.183.064.4.076.646l.051.82a3.908 3.908 0 00.273 1.296h-1.233l-.12-.445a2.386 2.386 0 01-.064-.481l-.047-.626-.04-.654c-.055-.499-.296-.801-.722-.9a3.101 3.101 0 00-.619-.056h-.819v3.163h-1.187v-6.974h1.971zm-.783.785v2.238h.846c.253 0 .465-.015.656-.043.36-.057.612-.202.752-.438.09-.155.133-.412.133-.773 0-.387-.131-.658-.396-.807-.193-.114-.548-.173-1.078-.177h-.913zm8.026 1.054l-.006-.324c-.03-.557-.36-.834-.996-.83-.565.002-.932.15-1.103.44a.87.87 0 00-.155.428l-.01.573v2.752c.004.5.053.821.143.962.196.3.534.452 1.015.452.626-.004.984-.3 1.062-.891l.05-.45v-.24h1.183v.244l-.01.436c-.04.52-.214.919-.536 1.197-.194.171-.426.29-.69.358a3.847 3.847 0 01-1.024.127 4.14 4.14 0 01-.909-.082c-.976-.183-1.465-.833-1.47-1.956v-2.778a4.997 4.997 0 01.056-.844c.044-.318.15-.585.319-.793.376-.471 1.054-.713 2.03-.72 1.364.007 2.1.441 2.204 1.297.02.165.03.348.03.55v.27h-1.184v-.178zm2.216-1.839h3.874v.785h-2.69v2.21h2.523v.786h-2.523v2.405h2.764v.788h-3.948zm7.018 2.252c.003-.573.054-.992.158-1.259.157-.42.506-.722 1.044-.897a3.892 3.892 0 011.257-.196c.441 0 .862.065 1.258.196.526.175.874.477 1.039.897.1.261.155.686.163 1.259v2.338c0 .42-.024.787-.067 1.092-.14.92-.919 1.388-2.36 1.392-1.044 0-1.743-.214-2.095-.648-.27-.324-.402-.939-.396-1.836V42.28zm1.183 2.33c.006.587.049.972.131 1.143.08.173.232.314.454.416.223.1.455.151.69.151.219 0 .423-.04.623-.127.371-.15.577-.417.615-.8.021-.217.033-.477.035-.783v-2.336c.008-.507-.049-.864-.167-1.068-.188-.33-.56-.497-1.105-.493-.214 0-.41.031-.597.104-.387.132-.603.405-.646.811a4.08 4.08 0 00-.033.646v2.336zm8.59-4.582v.785h-2.59v2.205h2.492v.783h-2.492v3.2h-1.186v-6.973zm3.939 4.64v.388c-.006.2.015.383.07.558.118.471.505.707 1.153.707.243 0 .465-.034.665-.102.442-.136.67-.472.686-.996-.004-.36-.148-.64-.44-.836a6.448 6.448 0 00-.74-.403l-.862-.39a5.236 5.236 0 01-.856-.468c-.47-.331-.709-.805-.709-1.425.01-.68.273-1.158.801-1.443.389-.214.927-.324 1.608-.33.832 0 1.433.157 1.806.473.293.254.436.752.436 1.494v.14h-1.182v-.167l-.023-.361c-.075-.542-.424-.807-1.055-.793-.8 0-1.197.32-1.209.958 0 .406.253.738.75.993.308.163.66.322 1.048.487.391.16.711.316.957.463.567.35.856.872.856 1.577-.014 1.27-.856 1.91-2.531 1.91-.72.01-1.274-.112-1.66-.355a1.51 1.51 0 01-.735-1.241l-.02-.56v-.278h1.186zm4.594-4.64h1.182v4.655l.01.614c.04.678.44 1.02 1.182 1.023.748 0 1.158-.318 1.23-.958.024-.224.038-.45.042-.68v-4.654h1.186v4.73a8.286 8.286 0 01-.046.899 1.264 1.264 0 01-.388.812c-.436.423-1.1.629-1.987.633-.925-.004-1.594-.208-2.003-.62a1.347 1.347 0 01-.38-.825 10.566 10.566 0 01-.028-.9v-4.73zm9.444 1.839l-.007-.324c-.027-.557-.363-.834-.999-.83-.563.002-.929.15-1.101.44a.91.91 0 00-.156.428l-.01.573v2.752c.007.5.053.821.15.962.19.3.53.452 1.009.452.628-.004.983-.3 1.066-.891l.047-.45v-.24h1.184v.244l-.012.436c-.033.52-.216.919-.536 1.197-.196.171-.426.29-.689.358a3.863 3.863 0 01-1.023.127 4.096 4.096 0 01-.909-.082c-.975-.183-1.464-.833-1.466-1.956v-2.778a4.782 4.782 0 01.053-.844c.04-.318.143-.585.316-.793.379-.471 1.054-.713 2.032-.72 1.366.007 2.102.441 2.205 1.297.017.165.029.348.029.55v.27h-1.184v-.178zm5.717 0l-.007-.324c-.03-.557-.357-.834-.997-.83-.565.002-.93.15-1.103.44a.826.826 0 00-.151.428l-.014.573v2.752c.004.5.055.821.145.962.196.3.534.452 1.013.452.63-.004.984-.3 1.064-.891l.05-.45v-.24h1.183v.244l-.01.436c-.04.52-.218.919-.536 1.197a1.65 1.65 0 01-.691.358c-.31.086-.656.127-1.025.127a4.1 4.1 0 01-.907-.082c-.976-.183-1.465-.833-1.47-1.956v-2.778a4.75 4.75 0 01.056-.844c.042-.318.144-.585.315-.793.378-.471 1.058-.713 2.033-.72 1.367.007 2.101.441 2.205 1.297.02.165.03.348.03.55v.27h-1.184v-.178zm2.215-1.839h3.872v.785h-2.688v2.21h2.52v.786h-2.52v2.405h2.764v.788h-3.948zm5.688 4.64v.388c-.005.2.019.383.074.558.118.471.5.707 1.15.707.244 0 .467-.034.666-.102.442-.136.671-.472.689-.996-.008-.36-.153-.64-.444-.836a6.448 6.448 0 00-.74-.403l-.86-.39a4.977 4.977 0 01-.854-.468c-.471-.331-.71-.805-.71-1.425.007-.68.27-1.158.798-1.443.39-.214.925-.324 1.61-.33.833 0 1.434.157 1.807.473.29.254.435.752.435 1.494v.14h-1.183v-.167l-.024-.361c-.072-.542-.426-.807-1.054-.793-.795 0-1.2.32-1.208.958 0 .406.252.738.746.993.31.163.662.322 1.053.487.39.16.707.316.954.463.567.35.858.872.858 1.577-.014 1.27-.854 1.91-2.533 1.91-.722.01-1.272-.112-1.657-.355-.457-.29-.703-.7-.736-1.241l-.022-.56v-.278h1.184zm5.489 0v.388c-.007.2.017.383.07.558.118.471.505.707 1.153.707.245 0 .465-.034.661-.102.446-.136.674-.472.691-.996a.973.973 0 00-.443-.836 6.287 6.287 0 00-.74-.403l-.858-.39a4.977 4.977 0 01-.854-.468c-.476-.331-.713-.805-.713-1.425.008-.68.275-1.158.799-1.443.39-.214.925-.324 1.612-.33.834 0 1.431.157 1.802.473.293.254.442.752.442 1.494v.14h-1.184v-.167l-.027-.361c-.071-.542-.424-.807-1.055-.793-.793 0-1.197.32-1.205.958 0 .406.247.738.75.993.306.163.658.322 1.046.487.393.16.71.316.953.463.57.35.86.872.86 1.577-.014 1.27-.857 1.91-2.531 1.91-.719.01-1.27-.112-1.657-.355a1.502 1.502 0 01-.738-1.241l-.022-.56v-.278h1.188z"/></g></svg>
