<svg height="48" width="109" xmlns="http://www.w3.org/2000/svg"><g fill="none" fill-rule="evenodd"><path d="m2.045 30.357h.526c.414 0 .701-.03.863-.09a.768.768 0 0 0 .382-.293.86.86 0 0 0 .138-.495c0-.336-.13-.581-.39-.736-.19-.114-.54-.171-1.052-.171h-.467zm-1.656-3.4h1.756c.95 0 1.635.088 2.055.264.42.175.75.459.993.851.242.392.364.862.364 1.41 0 .607-.16 1.112-.476 1.513-.318.403-.748.683-1.292.84-.32.09-.9.136-1.744.136v3.684h-1.656zm8.181 3.4h.518c.526 0 .889-.07 1.087-.208.199-.138.298-.367.298-.688a.817.817 0 0 0 -.542-.798c-.165-.061-.468-.091-.908-.091h-.454v1.785zm-1.657-3.4h1.755c.96 0 1.644.086 2.052.258.407.171.735.456.983.854s.372.87.372 1.413c0 .572-.137 1.05-.41 1.434-.275.384-.688.675-1.24.872l2.06 3.867h-1.809l-1.955-3.685h-.152v3.684h-1.656v-8.698zm10.773 2.306-1.167 2.986h2.326l-1.16-2.986zm-.85-2.306h1.679l3.345 8.697h-1.72l-.681-1.791h-3.549l-.708 1.791h-1.72zm13.681 1.419-1.165 1.153c-.738-.78-1.598-1.17-2.58-1.17-.856 0-1.573.283-2.151.85a2.791 2.791 0 0 0 -.867 2.07c0 .84.3 1.551.9 2.135.599.583 1.339.875 2.219.875.572 0 1.054-.12 1.447-.36.393-.241.709-.618.95-1.13h-2.518v-1.555h4.375l.012.367a4.26 4.26 0 0 1 -.592 2.163c-.394.682-.905 1.202-1.531 1.561-.627.359-1.362.538-2.205.538-.903 0-1.709-.196-2.416-.588a4.302 4.302 0 0 1 -1.679-1.676 4.673 4.673 0 0 1 -.617-2.347c0-1.151.38-2.152 1.14-3.004.903-1.013 2.078-1.52 3.524-1.52.757 0 1.464.14 2.123.42.556.237 1.1.643 1.631 1.218m2.883-1.419h1.613l2.016 6.066 2.034-6.066h1.612l1.46 8.698h-1.602l-.932-5.493-1.848 5.493h-1.459l-1.831-5.493-.955 5.493h-1.614zm13.937 2.306-1.167 2.986h2.327zm-.85-2.306h1.68l3.344 8.697h-1.72l-.68-1.791h-3.55l-.707 1.791h-1.72zm4.847 0h4.807v1.632h-1.584v7.066h-1.68v-7.066h-1.543zm6.103 8.698h1.643v-8.698h-1.643zm11.376-7.169-1.158 1.104c-.788-.833-1.674-1.25-2.658-1.25-.831 0-1.53.285-2.1.853s-.854 1.269-.854 2.101c0 .58.126 1.095.378 1.545s.609.803 1.07 1.06c.46.256.972.384 1.535.384.48 0 .92-.09 1.318-.27.397-.18.834-.505 1.311-.979l1.123 1.171c-.643.627-1.25 1.062-1.822 1.305-.57.242-1.223.363-1.957.363-1.352 0-2.458-.428-3.32-1.286-.86-.857-1.291-1.956-1.291-3.296 0-.867.196-1.637.588-2.312.392-.673.954-1.215 1.685-1.626a4.757 4.757 0 0 1 2.362-.614 4.94 4.94 0 0 1 2.072.454 4.956 4.956 0 0 1 1.718 1.293m7.197 1.979h.516c.406 0 .688-.03.846-.088a.751.751 0 0 0 .374-.287.846.846 0 0 0 .136-.486c0-.329-.128-.569-.382-.72-.186-.113-.53-.169-1.031-.169h-.458v1.75zm-1.62-3.33h1.72c.93 0 1.6.085 2.012.257s.736.45.973.834c.238.384.357.845.357 1.381 0 .595-.156 1.09-.467 1.483-.31.394-.733.668-1.265.823-.313.088-.883.133-1.71.133v3.609h-1.62zm6.107-.001h1.622v6.974h2.364v1.547h-3.986zm9.041 2.259-1.143 2.925h2.28zm-.832-2.26h1.644l3.278 8.521h-1.686l-.666-1.755h-3.477l-.694 1.755h-1.685l3.285-8.52zm3.728.001h1.742l1.59 3.065 1.581-3.065h1.72l-2.494 4.83v3.69h-1.633v-3.69zm11.778 3.051h-.582v-2.447h-.534v-.564h1.665v.564h-.55v2.447zm3.703 0-.322-1.902-.64 1.902h-.505l-.635-1.902-.33 1.902h-.559l.522-3.011h.558l.698 2.1.704-2.1h.558l.506 3.01h-.555z" fill="#fefefe"/><g fill="#f6931d"><path d="m88.663 18.828c-5.092.316-2.805 6.948 2.824 6.597 5.505-.342 2.603-6.935-2.824-6.597"/><path d="m86.512 45.82c-8.108 0-14.68-6.572-14.68-14.68 0-8.109 6.572-14.682 14.68-14.682 8.109 0 14.681 6.573 14.681 14.682 0 8.108-6.572 14.68-14.68 14.68m0-31.089c-9.063 0-16.409 7.346-16.409 16.409 0 9.061 7.346 16.407 16.408 16.407s16.408-7.346 16.408-16.407c0-9.063-7.346-16.409-16.408-16.409m-.494-11.452c-3.894 2.945-3.218 7.459-3.218 7.459s-2.448-6.354-5.626-10.238c-.43 5 1.138 11.627 1.138 11.627s-1.992-4.108-6.867-4.338c4.045 2.328 5.613 6.514 5.973 7.638a16.312 16.312 0 0 1 8-2.421c-.32-1.048-1.455-5.456.6-9.727"/></g></g></svg>