<svg height="48" width="78" xmlns="http://www.w3.org/2000/svg" xmlns:xlink="http://www.w3.org/1999/xlink"><mask id="a" fill="#fff"><path d="m.165.053h5.842v4.307h-5.842z" fill="#fff" fill-rule="evenodd"/></mask><g fill="none" fill-rule="evenodd"><path d="m36.42 22.5c.513-.152.932-.204 1.278-.392.826-.45 1.33-1.678 1.14-2.614-.146-.711-.82-1.213-1.543-1.113-.108.015-.248.177-.28.295-.082.313-.115.638-.164.96-.136.892-.27 1.786-.431 2.864m-5.669 8.537.704-4.518c.58-3.726 1.159-7.451 1.737-11.177.032-.205.004-.428.332-.42 1.933.051 3.866.086 5.8.14.273.007.547.073.816.134 2.247.514 3.36 2.083 3.054 4.369-.093.703-.23 1.416-.47 2.08-.446 1.23-.939 1.676-2.705 2.728l2.177 6.667h-1.748c-.813 0-1.627-.018-2.44.007-.37.012-.532-.078-.608-.477-.366-1.931-.771-3.855-1.166-5.78-.024-.12-.078-.234-.146-.428-.226 1.533-.438 2.977-.653 4.42-.096.643-.186 1.287-.306 1.925-.023.122-.17.314-.263.316-1.346.02-2.693.014-4.115.014" fill="#fff"/><path d="m6.502 22.463c.43-.09.786-.109 1.094-.24.907-.384 1.499-1.588 1.356-2.631-.084-.621-.426-.993-1.02-1.158-.705-.195-.796-.138-.902.586-.016.112-.039.224-.056.336zm5.77 8.567h-.946c-1.09 0-2.179-.012-3.268.006-.332.006-.479-.074-.547-.43-.36-1.867-.753-3.727-1.135-5.59a1.442 1.442 0 0 0 -.216-.565l-.983 6.55h-4.317l2.473-15.963c.058-.037.085-.07.113-.07 2.191.006 4.392-.2 6.567.201 2.308.426 3.394 1.76 3.26 4.097a8.949 8.949 0 0 1 -.552 2.55c-.447 1.214-1.368 2.032-2.642 2.498zm11.24-3.864c.95.006 1.555-.456 1.965-1.127 1.1-1.8 1.358-3.77.995-5.822a1.516 1.516 0 0 0 -1.03-1.207c-.539-.19-.648-.118-.735.443-.253 1.623-.51 3.244-.762 4.867-.144.927-.282 1.855-.433 2.846m-4.898 3.795c.195-1.261.387-2.525.584-3.79.605-3.901 1.218-7.802 1.808-11.706.061-.404.187-.544.606-.533 1.267.037 2.538-.017 3.804.048 3.407.173 5.486 2.225 5.651 5.622.11 2.263-.346 4.434-1.42 6.446-1.237 2.311-3.194 3.633-5.782 3.87-1.679.155-3.378.079-5.069.104-.044 0-.09-.03-.182-.06" fill="#ff0722"/><path d="m65.858 14.95-1.308 2.183c-1.021 1.7-2.034 3.406-3.073 5.096-.207.336-.245.62-.126.996.77 2.415 1.515 4.839 2.267 7.26.047.152.084.307.139.511-.167.017-.305.041-.442.042-1.236.003-2.473-.018-3.709.012-.404.01-.52-.153-.592-.508-.423-2.087-.865-4.17-1.302-6.254a1.029 1.029 0 0 0 -.207-.468c-.16 1-.322 2.001-.479 3.002-.201 1.285-.391 2.572-.612 3.854-.022.135-.213.344-.328.347-1.285.022-2.57.01-3.855.006-.045 0-.09-.03-.179-.06.134-.878.267-1.758.403-2.638.669-4.305 1.343-8.61 1.998-12.916.058-.384.18-.51.575-.5 1.09.029 2.18.01 3.27.012.174 0 .348.017.562.028l-1.017 6.58.084.034c.069-.116.144-.227.205-.347.982-1.944 1.972-3.884 2.933-5.84.179-.363.393-.475.784-.466 1.155.026 2.31.009 3.465.01.156 0 .311.014.544.024m-18.338 4.059a5.235 5.235 0 0 0 -.08-.005l-1.988 6.533h1.84l.229-6.528m3.323-4.005.91 15.977h-4.48v-2.009c-.952 0-1.86-.01-2.764.015-.102.002-.24.19-.288.318-.178.47-.305.961-.497 1.425-.056.136-.268.296-.398.287-.156-.01-.39-.16-.438-.3-.534-1.551-1.04-3.112-1.549-4.673-.038-.117-.076-.272-.032-.373.31-.704.476-1.456 1.048-2.058 1.126-1.186 1.528-2.686 1.617-4.289a2.87 2.87 0 0 1 .173-.846 99.36 99.36 0 0 1 1.26-3.17c.066-.156.272-.356.416-.358 1.625-.024 3.252-.013 4.877-.01.03 0 .059.025.145.064m24.069-.028c-.18 1.198-.344 2.34-.543 3.474-.019.105-.272.236-.419.24-.927.022-1.854.011-2.781.011h-.557l-.365 2.27h3.342c-.144.947-.266 1.824-.413 2.697-.184 1.095-.193 1.093-1.327 1.093h-2.201l-.389 2.485h3.732c-.19 1.286-.372 2.501-.558 3.753h-8.07c.102-.687.2-1.367.306-2.047.703-4.529 1.41-9.058 2.11-13.588.04-.261.062-.449.417-.447 2.456.016 4.912.009 7.368.012.094 0 .188.024.348.047" fill="#fff"/><g fill="#ff0722"><path d="m14.715 27.268h3.721c-.182 1.21-.35 2.363-.54 3.512-.016.095-.183.235-.281.237-1.431.018-2.862.021-4.293.01-.108-.002-.28-.118-.313-.217a424.975 424.975 0 0 1 -1.919-5.834c-.032-.1.065-.317.163-.371 2.39-1.32 3.157-4.613 2.683-6.878-.198-.943-.69-1.707-1.442-2.31-.096-.078-.134-.228-.199-.344.109-.047.217-.134.326-.134 2.487-.003 4.975.003 7.462.01.062 0 .124.021.265.047l-.552 3.698c-1.054 0-2.076.033-3.093-.014-.522-.025-.723.143-.764.649-.043.53-.155 1.053-.249 1.663h3.349l-.59 3.76c-.649 0-1.293-.01-1.936.003-.465.01-1.062-.112-1.355.127-.268.219-.213.84-.29 1.287-.056.334-.094.67-.153 1.099m25.69 6.862 3.46 1.049c2.223.673 4.447 1.343 6.667 2.028.272.085.544.22.77.39 3.019 2.289 6.03 4.585 9.034 6.893.205.157.382.399.478.64.35.872.662 1.761 1.024 2.743-.197-.08-.323-.117-.437-.177-6.494-3.395-12.988-6.792-19.477-10.195-.16-.084-.34-.225-.402-.382-.376-.95-.719-1.913-1.117-2.989m31.134-21.789c-.627-1.85-2.994-2.94-4.87-2.555.11-.178.183-.306.264-.428 1.335-2 2.69-3.986 3.993-6.007.477-.74 1.11-1.023 1.93-.95 1.18.104 2.199.568 2.957 1.504.555.685.562 1.22.075 1.951l-4.06 6.08c-.09.133-.185.26-.29.405"/><path d="m64.504 13.187c.075-.173.132-.37.238-.537.368-.574.781-1.122 1.124-1.71.372-.638.935-.908 1.621-.894 1.317.028 2.435.527 3.264 1.576.3.38.493.825.324 1.316-.05.145-.25.338-.381.34-2.015.016-4.03.004-6.045-.003-.026 0-.053-.03-.145-.088m-12.089 24.771-1.695-1.248c.51-.766 1.05-1.586 1.6-2.401.326-.482.568-1.138 1.025-1.383s1.137-.076 1.72-.086c.221-.003.444 0 .766 0l-3.415 5.118"/><path d="m5.049 4.36c-.5-1.631-2.646-2.974-4.884-2.583.294-.434.52-.879.852-1.22.23-.235.596-.425.923-.467 1.485-.188 2.713.351 3.653 1.497.556.679.534 1.17.042 1.904-.18.269-.362.536-.586.868" mask="url(#a)" transform="translate(71.593 .353)"/></g><path d="m11.218 35.187c-.155.854-.304 1.71-.471 2.562-.026.13-.134.244-.203.365l-.151-.06c0-.105-.016-.213.002-.316.219-1.264.435-2.53.675-3.79.027-.142.194-.257.295-.385l.17.074.27 3.426.1.023c.116-.258.237-.515.348-.776.336-.793.659-1.592 1.01-2.378.067-.15.244-.25.37-.372l.18.096c-.266 1.443-.53 2.887-.808 4.327-.008.041-.152.056-.332.115l.506-2.974-.11-.038-1.28 3.018-.207-.038-.226-2.86-.138-.02" fill="#fff"/><path d="m62.287 47.947-1.139-3.04c.908-.55 2.064-.5 2.653.086.222.223.297.407.082.706-.514.711-.985 1.452-1.476 2.18-.015.022-.05.03-.12.068" fill="#ff0722"/><path d="m22.672 35.169c-.143.82-.277 1.644-.437 2.462-.032.168-.16.317-.243.476l-.181-.077c.113-.665.225-1.33.34-1.994.123-.704.257-1.405.37-2.11.05-.31.198-.372.483-.245l.262 2.918.124.007c.121-.676.244-1.352.364-2.029.04-.224.057-.454.12-.67.033-.119.142-.215.216-.32l.156.066c-.11.63-.216 1.258-.326 1.887-.126.72-.245 1.442-.392 2.157-.029.137-.179.249-.273.372-.084-.133-.229-.26-.243-.4-.078-.76-.121-1.524-.18-2.285-.006-.073-.036-.144-.055-.216h-.105m-20.901-.234c.022-.27.07-.412.033-.524-.06-.176-.178-.333-.272-.498-.182.105-.38.191-.54.322-.072.06-.077.209-.097.32-.155.879-.303 1.759-.461 2.637-.048.264-.043.557.266.56.195.002.536-.214.561-.372.077-.476.45-.965.052-1.46l.528-.306.145.134c-.127.629-.218 1.268-.393 1.883-.125.44-.673.625-1.188.484-.491-.136-.422-.518-.365-.87.156-.96.326-1.918.498-2.875.079-.438.304-.79.779-.799.28-.006.7.064.809.246.137.23.037.614.003.927-.007.06-.182.101-.358.191m27.605.723c-.11.624-.19 1.136-.29 1.644-.128.65-.495.905-1.15.837-.396-.041-.613-.253-.549-.644.184-1.12.368-2.241.609-3.35.116-.532.893-.795 1.363-.509.423.258.237.665.183 1.015-.016.099-.196.171-.301.255l-.095-.1c.017-.11.07-.23.042-.326-.057-.193-.16-.374-.244-.56-.203.123-.486.2-.586.38-.134.243-.13.563-.18.85-.121.671-.243 1.342-.358 2.014-.045.266-.064.596.288.594.191 0 .516-.235.545-.405.08-.458.289-.881.098-1.422-.16-.454.356-.151.625-.273m-22.994.933.103.182c.246-.098.697-.182.706-.297.06-.84.032-1.686.032-2.622l-.84 2.737m.79.542c-.875-.14-.868-.138-1.165.633-.05.131-.19.229-.288.342l-.15-.102c.04-.15.074-.302.121-.45.37-1.14.765-2.275 1.107-3.425.134-.45.346-.628.856-.45 0 .245.005.53-.001.817-.021 1.006-.035 2.013-.08 3.017-.008.187-.148.368-.228.551-.057-.176-.129-.348-.167-.528-.026-.123-.005-.255-.005-.405m10.951-3.429c-.237 1.338-.47 2.675-.72 4.01-.025.141-.142.266-.217.398a28.612 28.612 0 0 0 -.198-.077c.067-.406.13-.811.2-1.215.169-.972.333-1.946.52-2.915.025-.122.177-.218.27-.327z" fill="#fff"/><path d="m40.958 33.953c.795-.535 1.992-.442 2.533.199.09.107.106.276.156.416-.14.026-.297.105-.422.072-.7-.19-1.394-.406-2.09-.615-.057-.017-.111-.045-.177-.072" fill="#ff0722"/></g></svg>