<svg width="182" height="48" xmlns="http://www.w3.org/2000/svg"><path d="M49.541 28.14c-.085-1.066-.402-2.033-.695-3.053-.1-.031-.208-.07-.316-.07a1.829 1.829 0 00-.27.147c-.04.68.007 1.368-.07 2.049-.031.386-.008.773-.046 1.16-.17 2.017-.495 3.996-1.174 5.906-.185.603-.502 1.136-.649 1.755v-.31a2.91 2.91 0 01-.208.565c-.579 1.121-1.25 2.18-2.108 3.108-.432.44-1.019.765-1.59.966-.2.085-.37-.085-.417-.262.046-.248.2-.48.309-.712.78-1.592 1.629-3.185 2.254-4.847.672-1.755 1.096-3.541 1.621-5.335.055-.185.062-.37.062-.556-.131-.031-.293-.109-.432-.07-.487.116-.934.379-1.405.503-.147.046-.232-.07-.348-.132 0-.502.209-.912.34-1.384.317-1.113.71-2.195 1.035-3.3.231-.697.432-1.4.679-2.096a3.62 3.62 0 00.162-.634c-.463.673-.996 1.345-1.366 2.064-.255.472-.54.936-.803 1.407-.24.441-.502.843-.672 1.315l-.054-.055c-.14.518-.394.998-.58 1.5-.154.402-.347.797-.493 1.206-.039.186.1.263.2.395.332.324.549.773.572 1.237.062.804-.263 1.616-.641 2.311-.224.426-.533.75-.818 1.13-.618.795-1.004 1.816-1.328 2.767-.132.448-.301.881-.402 1.33a1.411 1.411 0 01-.3.162c-.101-.039-.194-.108-.287-.162-.015-.611.054-1.222.14-1.825.084-.742.216-1.492.455-2.196.147-.44.533-.688.672-1.12.239-.673.231-1.415.123-2.119a3.12 3.12 0 00-.386-1.005c-.278-.394-.764-.448-1.027-.82-.108-.154-.224-.347-.185-.533.046-.317.178-.58.309-.866a1.634 1.634 0 00-.31-.301c-.377-.248-.771-.457-1.173-.68-.772-.434-1.544-.882-2.316-1.315-.185-.108-.394-.209-.556-.348-.023-.147-.007-.301 0-.448 1.15-.302 2.47.116 3.467.695.417.225.741.518 1.181.627.587.162 1.266-.062 1.676-.503.316-.363.478-.881.555-1.353.039-.185-.085-.317-.254-.363-.54-.155-1.089-.263-1.622-.449-.324-.123-.633-.278-.733-.649-.023-.17.03-.464.255-.448.579-.031 1.158.054 1.76-.109.332-.1.587-.348.733-.657.14-.301.255-.641.325-.958.038-.132-.062-.248-.116-.364-.294-.015-.54.07-.81.163-.31.092-.564-.016-.827-.17-.039-.117-.07-.225-.108-.34.27-.31.579-.573.826-.898.602-.765 1.027-1.7 1.42-2.582.418-.997.82-2.018 1.128-3.054.332-1.051.61-2.172.664-3.278.301.286.563.603.741.975.193.417.324.889.425 1.345.687-.217 1.451-.48 2.007-.959.548-.502.61-1.322.51-2.01-.24.131-.48.263-.726.379-.317.147-.58.348-.919.433.108-.317.247-.619.425-.897.177-.286.463-.503.702-.75.664-.665 1.112-1.477 1.436-2.35a11.37 11.37 0 00.518-2.876c.046-.55.077-1.16-.162-1.67-.217-.588-.788-1.02-1.39-1.144a2.606 2.606 0 00-1.513.185c-1.421.634-2.865 1.314-4.355 1.755-1.845.464-3.729.905-5.62 1.106-.695.038-1.483.2-2.155.07-1.528-.434-3.065-.65-4.64-.851-1.057-.1-2.1-.201-3.165-.193-.672-.047-1.336-.086-2.007-.04-.618.063-1.236.024-1.853.078a44.146 44.146 0 00-4.038.44c-.772.101-1.521.302-2.293.395-.518.093-1.02.07-1.544.077-1.035.024-2.07-.116-3.089-.286-2.748-.502-5.45-1.438-7.99-2.59C3.502.331 3.1.123 2.707.038c-.556-.07-1.097-.07-1.583.24C.762.524.43.895.299 1.32c-.201.588-.14 1.245-.062 1.848.07 1.353.417 2.767 1.143 3.92.3.494.695.896 1.096 1.298.394.325.618.874.818 1.338-.602-.186-1.08-.596-1.675-.773-.077.394-.023.773.054 1.16.139.58.618 1.028 1.15 1.252.425.185.857.386 1.297.518.147-.317.248-.626.44-.92.186-.294.41-.55.641-.812.047-.015.1-.023.147-.039.108 1.384.525 2.652.957 3.959.17.525.41.99.502 1.53-.007-.123-.007-.255-.015-.378.108.549.355 1.028.587 1.53.37.781.748 1.523 1.297 2.196.216.24.463.456.687.688a3.692 3.692 0 01-.031.278c-.209.248-.517.38-.842.294-.308-.085-.579-.193-.903-.162-.185.402.1.912.247 1.291.155.41.51.642.919.727.563.1 1.104.046 1.675.077.054.054.108.116.162.17-.015.147.008.34-.085.456-.208.31-.525.418-.864.526-.525.155-1.066.286-1.598.433-.047.162-.1.31-.054.48.1.424.262.896.548 1.229.432.41 1.05.618 1.636.479.572-.186.989-.565 1.552-.835.657-.348 1.39-.534 2.131-.603.37-.023.703.008 1.05.154-.023.194.008.356-.185.48-.58.363-1.197.68-1.791 1.028-.78.472-1.59.881-2.363 1.368-.008.225.008.372.116.573.154.332.2.71-.07.997-.293.386-.772.425-1.026.82-.355.548-.41 1.167-.479 1.809a3.69 3.69 0 00.232 1.352c.123.372.44.565.586.928.371.905.48 1.948.595 2.915.07.433.077.874.062 1.314-.116.039-.278.147-.394.085-.178-.07-.193-.263-.263-.417-.432-1.376-.864-2.876-1.79-4.005a5.65 5.65 0 01-1.151-2.002c-.155-.557-.286-1.083-.093-1.647.116-.433.386-.742.695-1.052-.015-.44-.247-.75-.394-1.144-.27-.696-.556-1.407-.895-2.072a4.487 4.487 0 01-.178-.456c-.015.023-.038.039-.054.062-.062-.14-.123-.286-.2-.418-.325-.548-.641-1.105-.958-1.654-.355-.65-.81-1.245-1.228-1.855.031.44.193.819.325 1.237.494 1.53.98 3.061 1.459 4.592.116.487.324.943.41 1.43-.078.077-.155.162-.233.24-.563-.116-1.088-.433-1.652-.557-.293-.046-.386.263-.309.503.417 1.492.811 2.992 1.29 4.46.656 2.034 1.613 3.85 2.563 5.753.116.247.278.494.34.757.046.163-.147.27-.24.371-.501-.154-.95-.402-1.39-.688-.3-.2-.501-.48-.733-.75-.625-.726-1.15-1.577-1.606-2.42-.355-.626-.625-1.314-.888-1.979-.532-1.422-.864-2.922-1.073-4.422-.123-.688-.139-1.392-.231-2.087-.031-.96-.024-1.918-.1-2.876-.117-.194-.402-.225-.541-.04-.131.202-.178.457-.247.681a12.988 12.988 0 00-.54 2.93c-.14 1.199-.364 2.428-.255 3.634.061.541.077 1.082.2 1.616.085.417.1.835.263 1.214.131.309.316.572.502.85.694 1.09 1.397 2.165 2.084 3.263 1.097 1.67 2.147 3.363 3.25 5.025.109-.008.217-.008.317-.031.07-.062.14-.14.2-.209.287-.038.595-.123.889-.1.255.355.401.804.61 1.19.455.874.857 1.786 1.374 2.629.062.193.47.186.556.023.062-.332.023-.688.03-1.028 0-.827-.007-1.647.008-2.474.039-.402-.007-.905.255-1.237.34-.379 1.05-.387 1.398-.016.285.395.262.874.262 1.338.016.742-.046 1.469.077 2.203.17.039.301.109.471.008.765-.448 1.405-.997 2.27-1.291.865-.278 1.776-.51 2.687-.394.71.1 1.359.448 2.007.734-.285-.24-.54-.502-.864-.688a4.93 4.93 0 00-1.915-.642c-.556-.07-1.104 0-1.652.109-.402.085-.796.077-1.197.07-.07-.086-.154-.163-.2-.264.038-.27.17-.525.246-.78.27-.85.487-1.732.618-2.614.07-.433.054-.873.108-1.314.039-.356-.039-.711-.062-1.082-.139-1.276-.718-2.513-1.837-3.209-.193-.139-.51-.232-.556-.495-.24-1.012-.479-1.979-.44-3.022.015-1.508.671-2.961 1.745-4.013a10.16 10.16 0 011.667-1.26c.124-.07.209-.031.301.062.942.997 1.722 2.296 2.764 3.17.008.046.016.092.031.139-.68.185-1.343.023-1.968-.263-.618-.325-1.159-.827-1.699-1.245-.278-.209-.51-.433-.857-.526.1.704.479 1.369.95 1.887.88.897 2.215 1.376 3.157 2.172.116.085.07.194.093.317a9.65 9.65 0 01-1.042-.232c-.904-.216-1.807-.456-2.71-.672a2.55 2.55 0 01-.58-.194c-.03.016-.061.04-.084.055.231.324.417.657.741.904.54.425 1.297.619 1.969.688.401.054.795.132 1.189.209.401.085.749.27 1.096.472-.193.262-.602.347-.896.456-.995.293-1.899 0-2.895-.116-.332-.078-.625.108-.934.216.039.186.085.356.2.51.302.41.711.588 1.136.835.857.518 2 .828 2.98.51 1.776-.54 3.474-1.205 5.234-1.87.471-.17.811-.557.88-1.052.062-.564-.007-1.136.024-1.7.03-.403-.062-.79-.324-1.098-.255-.302-.587-.418-.958-.526a7.803 7.803 0 01-4.069-2.868 5.055 5.055 0 01-.718-1.616c-.054-.232-.077-.464.016-.696.17-.448.278-.92.324-1.392-.015-.65-.193-1.252-.34-1.863-.085-.301-.1-.665-.285-.912-.209-.286-.41-.572-.641-.835-.24-.278-.61-.402-.934-.557-.595-.286-1.212-.464-1.838-.68-1.444-.518-2.64-1.492-3.567-2.706a17.206 17.206 0 01-1.621-2.683 2.248 2.248 0 01-.27-.889c-.07-.471 0-.935-.116-1.407a3.75 3.75 0 01.093-.178c.115-.007.231-.007.347-.015.262.526.525 1.051.772 1.577.216.487.68.928 1.212 1.02.178.047.355.055.54.055 1.267.038 2.456.1 3.645.58.772.316 1.42.85 1.945 1.492.433.556.68 1.175 1.066 1.77.332.533.741 1.02 1.212 1.438.332.294.71.495 1.096.704.1-.689-.216-1.493-.285-2.165.27-.108.447-.248.64-.456-.015-.201 0-.402-.1-.58-.286-.541-.772-.936-1.181-1.376a71.728 71.728 0 00-1.652-1.763 9.404 9.404 0 00-.024-.17c.649-.248 1.32-.518 1.822-1.013-1.528-.039-3.057.008-4.586-.023.07-.132.085-.193.24-.217.556-.1 1.088-.293 1.629-.448.695-.263 1.459-.472 2.084-.866-.27-.255-.594-.371-.934-.495-.81-.286-1.737-.324-2.602-.355-1.18.062-2.416.147-3.582-.093a3.7 3.7 0 01.1-.278c.51-.178 1.043-.263 1.56-.418a123.26 123.26 0 003.32-.874 34.256 34.256 0 003.242-1.252c.186-.077.34-.193.487-.325-1.32-.03-2.648-.007-3.969-.015-.602-.008-1.212.023-1.814-.016.14-.232.417-.286.649-.417 1.12-.58 2.17-1.152 3.397-1.469a8.02 8.02 0 012.393-.131c1.521.03 3.042.038 4.555.015.672.008 1.336-.093 2.008-.077 1.382-.031 2.632.394 3.875.935.664.286 1.297.626 1.946.928.116.046.162.124.224.224-1.946.039-3.907-.015-5.852.023.146.116.293.209.463.286.965.457 1.976.82 2.988 1.176 1.227.402 2.494.664 3.729 1.059.502.131.98.355 1.49.448-1.027.348-2.015.247-3.08.27-.572-.023-1.128.055-1.7.109-.825.093-1.66.356-2.37.804 0 .054.008.108.008.162.31.255.618.503.996.642.98.371 1.884.209 2.903.472.155.046.317.085.471.131-1.158.031-2.316.008-3.474.015-.448.008-.873-.038-1.313.047l.047.155c.478.378 1.019.649 1.575.889.007.363-.255.471-.456.719-.409.487-.888.92-1.297 1.407-.3.355-.687.672-.942 1.059-.17.255-.208.61.008.85.131.14.324.232.47.356-.092.673-.424 1.446-.292 2.126.594-.417 1.25-.858 1.706-1.423.525-.572.934-1.26 1.297-1.948a4.428 4.428 0 011.876-1.87c1.158-.612 2.447-.712 3.737-.743.579-.015 1.189-.093 1.629-.502.293-.232.463-.518.587-.866.193-.526.424-1.029.78-1.47.092.395.231.75.216 1.16.015.704-.217 1.322-.518 1.94a9.152 9.152 0 01-2.964 3.75c-1.012.766-2.193 1.33-3.374 1.763-.44.163-.958.279-1.328.565-.471.348-.85.881-.942 1.469-.108.626-.332 1.252-.402 1.878-.054.472.047.913.124 1.369.008-.039.008-.07.015-.109.062.256.155.495.247.735.17.417.1.928-.115 1.306-.224.387-.556.743-.857 1.067-.873.959-1.923 1.825-3.104 2.374-.41.209-.81.278-1.158.549-.263.216-.518.464-.564.82-.077.533-.038 1.082-.054 1.623.008.317-.039.688.131.974.162.31.44.518.765.642 1.459.549 2.918 1.128 4.385 1.654.363.132.733.302 1.112.379.37.046.787.062 1.142-.077.75-.302 1.421-.712 2.085-1.168.332-.232.579-.556.602-.974-.525.008-1.019-.124-1.544-.155-.64-.07-1.235-.131-1.791-.494.177-.21.44-.21.695-.27.818-.171 1.567-.272 2.216-.867.231-.263.501-.487.486-.866-1.328.356-2.68.65-4.007 1.02l-.185-.092v-.201c.216-.162.417-.325.64-.472.657-.44 1.521-.796 2.147-1.322.293-.278.625-.564.795-.935.216-.41.309-.804.293-1.268-.74.456-1.297 1.136-2.061 1.577-.448.27-.95.402-1.46.449-.277.015-.578-.07-.848-.14 1.05-.811 2.053-1.677 3.096-2.497.2-.154.324-.332.579-.386.671.595 1.297 1.213 1.721 2.01.317.51.51 1.067.68 1.639.386 1.461.332 2.93.054 4.407-.425.255-.826.502-1.174.858-.733.711-1.096 1.762-1.212 2.76-.154 1.654.162 3.34.68 4.909.084.27.208.549.239.827-.077.093-.162.17-.24.255-.432-.007-.849 0-1.266-.108-.401-.1-.826-.193-1.235-.2-.865.03-1.699.285-2.386.819-.162.139-.324.278-.494.41.75-.503 1.83-.51 2.695-.449.849.116 1.806.17 2.547.626.556.34 1.105.704 1.645 1.06l.363-.093c.108-.557.038-1.16.062-1.732.023-.595-.078-1.152.208-1.701.34-.526 1.266-.48 1.567.054.155.464.17 1.005.163 1.492 0 .905.007 1.802 0 2.706a1.4 1.4 0 00.084.503c.132.007.27.015.402.015.378-.549.656-1.167.957-1.755.386-.734.726-1.492 1.104-2.226.286.03.572.061.857.1.078.085.162.162.24.247.108-.007.231 0 .332-.038.185-.217.324-.472.478-.704.911-1.4 1.8-2.814 2.71-4.213.819-1.315 1.691-2.606 2.502-3.928.247-.378.247-.773.332-1.198.162-.85.27-1.716.262-2.582.023-1.183-.24-2.381-.324-3.557zM11.687 4.522c-1.112.007-2.162-.634-3.32-.634-.448.007-.942-.039-1.367.092-.293.093-.579.178-.795.418.81.356 1.598.742 2.401 1.106.363.177.718.355 1.096.502-.162-.008-.324-.008-.486-.046-.587-.147-1.166-.286-1.745-.441.085.657.07 1.314.1 1.971.07.518.078 1.044.17 1.562.132 1.028.41 2.041.726 3.03.448 1.276 1.012 2.544 1.745 3.68.54.867 1.174 1.663 1.838 2.436a8.96 8.96 0 001.567 1.345 20.77 20.77 0 01-1.768-.912c.131.054.262.1.394.155-.587-.302-1.066-.72-1.545-1.168-1.25-1.252-2.138-2.752-2.802-4.383-.51-1.23-.896-2.505-1.374-3.75-.193-.51-.533-.881-.796-1.368-.247-.426-.401-.89-.556-1.361a4.703 4.703 0 01-.239-1.825c.031-.61.34-1.175.857-1.5.61-.386 1.42-.487 2.123-.471.548 0 1.02.186 1.544.31.803.192 1.599.37 2.394.587.579.108 1.135.301 1.722.386-.618.24-1.243.279-1.884.279zM37.18 19.049a5.554 5.554 0 001.297-1.029 7.264 7.264 0 001.375-1.731c.193-.38.34-.781.525-1.168.803-1.755 1.266-3.618 1.536-5.528.085-.92.178-1.832.247-2.752.054-.41.093-.804.093-1.222-.186.055-.379.109-.556.178-.525.209-1.066.371-1.583.603.278-.2.533-.433.803-.641a7.853 7.853 0 012-1.052c.316-.1.625-.154.926-.309a7.614 7.614 0 00-1.498-.387c-1.057-.154-2.185.178-3.242.325-.942.17-1.892.31-2.842.07.525-.255 1.058-.302 1.622-.449a133.63 133.63 0 013.034-.75c.34-.077.703-.208 1.05-.224.456-.023.926.039 1.382.1.556.124 1.096.349 1.42.836.31.394.363.858.394 1.345-.023.912-.332 1.824-.694 2.652-.178.417-.425.804-.618 1.221-.471 1.284-.911 2.575-1.475 3.82-.857 1.963-2.092 3.904-3.79 5.233-.464.387-.997.634-1.483.99-.2.147-.44.232-.68.286a4.75 4.75 0 01.757-.417zm-21.664-3.704c.556.217 1.027.557 1.374 1.052-.07.24-.139.464-.285.665-.216.301-.525.626-.896.71-.401.14-.872-.107-1.173-.37-.34-.279-.433-.758-.48-1.168-.007-.425-.076-.82.163-1.198.479-.07.857.147 1.297.31zm19.719-.17c.085.016.262-.023.316.054.046.255.054.518.077.773.047.457-.146.99-.47 1.315-.279.247-.618.464-.981.564-.286.07-.564-.015-.788-.178-.355-.355-.47-.827-.44-1.322.34-.41.734-.757 1.205-1.005.332-.139.718-.193 1.08-.2zM20.75 23.494c.092.433.139.881.47 1.206.541.464 1.182.619 1.877.704.494.092.98.085 1.482.1a11.25 11.25 0 002.162-.093c.47-.046.934-.123 1.382-.293.394-.147.757-.449.934-.843.093-.201.1-.44.178-.642l.177-.046c.193.309.37.641.525.974.124.255.132.572.093.85-.07.302-.348.55-.602.696-.386.248-.934.209-1.375.224-.386-.007-.772.047-1.158.07-1.366.023-2.725.023-4.092.008-.486.007-.972-.078-1.474-.147-.37-.062-.81-.155-1.066-.449-.278-.37-.309-.927-.262-1.368.07-.387.47-.704.749-.951zm4.678 13.653c.363-.007.718.039 1.081.07 1.228.077 2.463.317 3.614.75.687.255 1.312.626 1.922 1.036 1.552 1.113 2.571 2.837 3.104 4.646-.603-.41-1.143-.881-1.691-1.368-.525-.464-1.212-.65-1.907-.588-.093.116-.216.217-.24.364-.115.417.04.865.04 1.314-1.19 1.036-2.734 1.523-4.301 1.507-.525-.023-1.112.078-1.56-.262-.363-.232-.424-.696-.448-1.09-.03.363-.231.657-.47.912-.526.425-1.182.564-1.846.58-.965.007-1.9-.201-2.802-.55-.495-.162-.927-.44-1.398-.633-.17-.55-.023-1.183-.077-1.755.03-.255-.301-.387-.502-.44-.533.015-1.034.277-1.475.556-.47.301-.748.726-1.119 1.129-.093.108-.193.146-.324.185.092-.943.417-1.801.926-2.59.988-1.469 2.517-2.528 4.185-3.085a11.126 11.126 0 013.127-.626c.718-.093 1.428-.054 2.161-.062zM141.65 14.138c2.158-.064 4.302.558 5.977 1.952.584.558 1.193 1.154 1.6 1.838.253.419.494.837.748 1.243-.863.469-1.79.747-2.677 1.153-.635.266-1.193.583-1.879.723-.317-.66-.634-1.28-1.193-1.775-1.37-1.344-3.743-1.395-5.253-.254-.75.507-1.282 1.331-1.663 2.13-.698 1.623-.749 3.486-.178 5.16.356.963.876 1.85 1.726 2.472.75.646 1.714.9 2.678.913.926-.026 1.916-.203 2.652-.812.686-.482 1.028-1.356 1.206-2.142-.038-.28-.343-.152-.546-.19-1.078.012-2.17 0-3.261.012-.127-.57-.076-1.128-.076-1.711.012-.697-.038-1.382.05-2.08 3.11.014 6.231.014 9.34 0 .064 1.243-.088 2.473-.279 3.703-.38 2.13-1.599 3.993-3.274 5.337-1.497 1.115-3.325 1.673-5.177 1.749-.686.101-1.358-.013-2.044-.05-1.764-.165-3.439-.85-4.86-1.902-.393-.317-.736-.697-1.091-1.052-.75-.761-1.282-1.75-1.688-2.739-.673-1.698-.762-3.46-.61-5.26.216-2.143 1.13-4.21 2.64-5.756 1.878-1.838 4.493-2.726 7.132-2.662zm-66.498.558c2.411.012 4.822 0 7.234.012.71.064 1.408.013 2.119.038a139.624 139.624 0 000 3.994c-1.256.012-2.513 0-3.77.012-.621-.012-1.243-.012-1.852.076.013.99-.013 1.965.013 2.954 1.586.038 3.172.013 4.771.013.203.012.394-.038.546.114.038 1.306 0 2.611.013 3.917-1.46.038-2.92 0-4.379.025a3.666 3.666 0 01-.913-.088c-.114 1.064-.038 2.167-.038 3.232 1.865-.012 3.73-.012 5.596 0 0 1.331-.013 2.675.013 4.006-.749.064-1.498.026-2.246.038-2.69 0-5.381-.012-8.072.013-.05-.228-.101-.444-.101-.685V14.81a5.08 5.08 0 011.066-.114zm35.381.088c.394-.14.876-.088 1.295-.088h8.883c.825-.013 1.637.063 2.462.076a102.737 102.737 0 000 3.955c-1.32.05-2.64-.013-3.96.038V31.2c0 .621.051 1.217-.076 1.826-1.332-.026-2.677-.013-4.01-.013a3.17 3.17 0 01-.698-.089c.038-4.703 0-9.406.025-14.122-1.294-.165-2.626-.013-3.934-.089.026-1.306-.025-2.624.013-3.93zm17.412-.088c.558-.013 1.104 0 1.65.076.05.748.025 1.495.025 2.243v14.326c0 .57.038 1.14-.076 1.71-1.498-.037-3.008 0-4.506-.024-.24 0-.19-.254-.203-.419-.012-5.945.013-11.878-.012-17.824 1.053-.152 2.068-.076 3.122-.088zm27.411 0h6.6c.532 0 1.052.05 1.573.088v3.943c-1.117.038-2.234.013-3.35.013-.8.012-1.562-.064-2.361.076.025.988.013 1.977.013 2.966 1.789.025 3.566-.038 5.355.025-.013 1.331.013 2.675-.013 4.006-1.167.026-2.335 0-3.502.013-.635.013-1.231-.05-1.853.076.025.989.025 1.99 0 2.992.622.127 1.218.063 1.853.076 1.282.013 2.563-.013 3.845.013.013 1.305 0 2.624.013 3.93-.229.05-.444.114-.686.114-2.576-.013-5.165 0-7.74-.013-.673 0-1.32.05-1.98-.076.012-6.06.025-12.12 0-18.18.736-.1 1.484-.062 2.233-.062zM68.121 26.827c-.291-.367-.596-.735-.888-1.102v-.241a4.387 4.387 0 002.729-1.636c.71-.95 1.142-2.104 1.09-3.296.064-1.394-.19-2.801-1.154-3.879-.964-1.103-2.31-1.623-3.718-1.863-2.132-.178-4.239-.102-6.384-.114-.685.012-1.37-.026-2.043.012-.279.444-.063 1.154-.076 1.66v14.453c-.025.722-.152 1.407-.013 2.13.762.1 1.498.05 2.26.063.672 0 1.357.013 2.03 0 .216 0 .431-.013.419-.292.038-2.218-.026-4.437.038-6.655.457.469.723 1.04 1.091 1.585 1.168 1.749 2.246 3.587 3.414 5.324.457.063.926.025 1.383.025h3.68c.267 0 .52-.05.787-.101-1.548-2.029-3.122-4.031-4.645-6.073zm-2.068-5.489c-.102.533-.533.938-.99 1.192-.863.431-1.739.368-2.678.368.013-1.522-.012-3.043.013-4.564 1.003.05 2.297.025 3.096.71.673.532.737 1.521.559 2.294zm113.3 8.71c-.799-1.103-1.649-2.156-2.474-3.233-.317-.444-.761-.786-.837-1.331 1.154-.216 2.233-.9 2.893-1.876 1.13-1.7 1.244-4.02.431-5.883-.266-.659-.837-1.217-1.357-1.686-.94-.748-2.183-1.153-3.363-1.255-1.637-.165-3.3-.076-4.95-.088-1.066 0-2.182-.026-3.248.088-.039.444-.013.888-.013 1.331 0 5.451.013 10.903 0 16.354.013.19.013.355.076.532 1.548.05 3.096-.012 4.645.026.05-1.661.012-3.334.025-4.995.013-.672-.089-1.293.102-1.952 1.408 2.167 2.753 4.36 4.175 6.503.165.215.24.469.57.43 1.854-.012 3.72 0 5.572-.012-.698-1.001-1.497-1.965-2.246-2.954zm-5.494-7.505c-.774.367-1.726.405-2.564.355a.358.358 0 01-.114-.305c-.013-.76.013-1.534.013-2.294.012-.685-.076-1.306.089-1.965.583 0 1.154.025 1.726.152.583.114 1.129.317 1.522.786.75 1.014.483 2.662-.672 3.27zm-70.94-1.839c-.28-.659-.571-1.33-.977-1.926-.508-.66-.978-1.294-1.625-1.813a9.064 9.064 0 00-5.609-2.219c-1.56-.101-3.135-.038-4.695-.063-.889.025-1.714-.076-2.577.101.026 5.515 0 11.03.013 16.544.013.583-.05 1.14.089 1.711 1.802-.05 3.604 0 5.406-.025 1.447.013 2.855.013 4.239-.494.837-.317 1.637-.66 2.36-1.18.8-.595 1.561-1.23 2.132-2.053 1.828-2.409 2.272-5.73 1.244-8.583zm-4.556 4.539c-.241 1.23-1.003 2.358-2.107 2.979-1.256.76-2.627.76-4.048.748-.013-3.372 0-6.744-.013-10.116l.064-.09a9.106 9.106 0 011.662.026c1.384.064 2.754.723 3.604 1.838.584.723.813 1.56.94 2.46.139.722 0 1.42-.102 2.155z" fill="#E52F31"/></svg>
