<svg width="178" height="48" xmlns="http://www.w3.org/2000/svg"><path d="M6.57.096c0 .032.111.063.35.095.047-.032.08-.047.11-.047l.192.047c.063-.032.095-.047.111-.047l.239.047.095-.047c.16.08.318.111.477.111l.191-.064c0 .048.016.064.048.064.016 0 .048-.016.111-.064a.853.853 0 00.239.064 2.72 2.72 0 01.382-.064l.111.112h.16V.191l.19.064h.095l.064-.064c0 .064.111.096.334.112l.143-.048.287.048c.047 0 .111-.032.19-.112 0 .048.016.064.048.064h.112c.047 0 .063-.032.063-.111.175.08.287.111.334.111 0-.08.016-.111.064-.111 0 .111.064.159.19.159.033 0 .049-.032.049-.112.334-.032.524-.047.588-.047.08 0 .111.047.111.159l.239-.048.064.048a1.64 1.64 0 01.35-.048h.397l.287.048.016-.112.206.064h.398l.255.048c0-.032.015-.048.047-.048l.239.048.35-.048.19.048a.36.36 0 01.207-.048h.064c.191 0 .334.032.43.112 0-.048.031-.08.11-.112v.16h.112c.128-.112.223-.16.287-.16.62.08.954.112 1.002.112.016 0 .016.032.016.095h.159V.367h.572c.144 0 .319-.016.541-.064a.204.204 0 00.16.064l.142-.064a.829.829 0 00.335.064h.063v.095a.523.523 0 01.302-.095h.096l.143.16h.239V.414h.047c.048 0 .064.047.064.16h.095c0-.113.032-.16.112-.16l-.048-.112h.111c.112.064.16.144.16.24h.063a.204.204 0 00.16-.065l.063.064.43-.16v.16h-.064V.59h.111c0-.112.064-.16.19-.16h.049l.238.048.398-.047h.111l.064-.048v.095h.111v-.16h.112v.113c0 .08-.032.111-.112.111v.096c.112 0 .16.032.16.112h.063l.095-.048-.095-.24c.032 0 .048-.015.048-.047.127.111.222.16.302.16.063 0 .095-.033.095-.113.128 0 .207.128.239.4 0 .143.08.238.254.286 0-.08.032-.111.096-.111 0 .334.032.494.111.494-.032.08-.063.303-.095.686.032 0 .047.016.047.047h-.063v.575c.063 0 .111.127.143.398l-.064.048v2.121c-.27 3.747-.397 5.725-.397 5.932l-.016.112h.016c0 .048 0 .064-.016.064l.063.207v.048l-.19.35c0 .112.015.16.063.16h.048l.064-.064c0 .192.047.287.159.287l-.112.287c.016 0 .048.016.112.064 0 .08-.048.128-.16.16v.095l.287-.048h.016v.463h.254c0 .16.032.367.112.622-.016.255-.016.462-.016.622-.128 4.258-.207 7.32-.239 9.201-.016 1.643.096 3.365.08 4.704 0 .24-.096.24-.096.479 0 .223.096.446.096.654a395.316 395.316 0 01-.096 4.034c-.016.24-.175.144-.175.367-.032 1.1.127 2.073.112 2.583 0 .192-.08.527-.239.846-.095.207-.286.446-.302.446.016 0 .047.112.111.335 0 .112-.032.16-.095.16l.047.286c0 .048-.19.192-.047.192h.095v.255l-.048.287c.032 0 .048.048.064.16l-.064.398.112.192.302.255.159.255.143.335-.238.606v.733c.015.271.031.479.031.606.032.654.096 1.643.175 2.966.048.096-.19 1.483-.159 1.69h-4.486v-.095c-.015 0-.015.016-.015.048l-.096-.048h-.143l-.207.048c0-.032-.127-.08-.382-.16-.031 0-.047.064-.047.208h-.048l-.064-.048c0 .032-.016.048-.047.048h-.096c-.111 0-.254.016-.43.063-.079 0-.206-.111-.397-.334h-.19c-.096 0-.208-.016-.35-.064-.16.08-.255.111-.303.111v-.047c-.334-.048-.493-.112-.493-.192-.016 0-.016.016-.016.064-.143 0-.207-.096-.207-.287h-.159v.207h-.35l.048.112c-.143 0-.27.112-.398.335h-.254l-.239-.048c-.032.032-.095.048-.19.048h-.908v.111a2.28 2.28 0 00-.397-.111c-.143.048-.27.064-.382.064h-.286l-.287-.064-.016.111-.286-.047c-.032 0-.064.016-.111.047 0-.031-.016-.047-.048-.047h-.048l-.063.047v-.047l-.478.047-.19-.047a1.208 1.208 0 01-.334.047c-.128 0-.255-.016-.382-.047l-.239.047-.286-.047c-.048.031-.08.047-.112.047a.268.268 0 01-.159-.047l-.238.047h-2.8l-.398-.047c0 .031-.015.047-.047.047l-.239-.047h-.048a.256.256 0 00-.143.047.268.268 0 00-.159-.047h-.286a.736.736 0 01-.302-.064.644.644 0 01-.303.064H3.31l-.064.047c0-.031-.016-.047-.048-.047H2.96c-.143 0-.366-.016-.668-.064 0 .048-.016.064-.048.064 0-.048-.016-.064-.048-.064h-.477l-.239.064c0-.048-.175-.064-.54-.064-.223 0-.335-.064-.335-.208l-.063.048v-.16H.429l-.11.112c0-.047-.049-.159-.16-.334H.27a1.763 1.763 0 00-.143-.527c0-.16 0-.366.016-.622l-.016-.111c.048-.606.096-.91.143-.91a.562.562 0 00-.063-.159v-1.18c0-.08.016-.111.063-.111a14.086 14.086 0 01-.063-.734l.048-.335a.52.52 0 01-.048-.16c0-.19.016-.382.048-.573l-.048-.287c0-.032.016-.144.048-.335-.064-.096-.096-.287-.112-.574.01-.139.014-.27.015-.394l.001-.292-.016-.096h.255V.383C.509.383.557.319.557.19l.477-.047c.08 0 .175.031.302.111.064 0 .175-.032.334-.111l.064.047c.143-.032.223-.047.238-.047A.36.36 0 012.18.19l.239-.047h.954l.239.047c.032-.032.095-.047.19-.047h.637l.255.047c0-.032.015-.047.047-.047l.064.047.239-.047h1.24L6.57.096zm44.842.398c.095 0 .206.016.35.048.047-.032.08-.048.095-.048.032 0 .048.016.048.048l.302-.048h.111c.318 0 .668.016 1.066.048a.637.637 0 01.239-.048c.047.032.08.048.095.048.048-.032.08-.048.096-.048l.143.048c.032 0 .047-.016.047-.048l.335.048h1.208c.08 0 .175-.016.287-.048.032.032.095.048.207.048.031 0 .047-.016.047-.048l.048.048a.256.256 0 00.143-.048l.048.048c.032 0 .064-.016.095-.048.128.032.223.048.287.048.031 0 .047-.016.047-.048l.064.048h.048c.08 0 .127-.016.159-.048l.19.048h.207c.032 0 .048-.016.048-.048l.048.048h.159c.016 0 .016-.016.016-.048l.064.048h.015c.064 0 .096-.016.096-.048l.159.048h.239c.015 0 .015-.016.015-.048l.064.048h.096c.015 0 .015-.016.015-.048l.064.048h.048c.032 0 .048-.016.048-.048l.047.048h.16l.19-.048a.144.144 0 00.112.048c.031 0 .047-.016.047-.048l.16.048h3.499l.19.048.048-.048.191.048c.032 0 .048-.016.048-.048l.16.048h.763l.302.064V.59l.064.064h.015c.016 0 .016-.016.016-.064l.064.064h.064c.016 0 .016-.016.016-.064l.063.064h.875c.127 0 .27.016.445.048a.256.256 0 01.144-.048c.19.032.381.048.588.048.016 0 .016-.016.016-.048l.064.048h1.86l.192.048c.016 0 .016-.016.016-.048l.159.048h.286c.095 0 .19.015.302.063.08-.048.398-.063.525-.063l.048.159v.134c0 .102-.003.153-.016.153 0 .016 0 .128.016.335 0 .271.016 1.036.048 2.312 0 .08-.016.144-.048.207.032.256.048.447.048.59v2.106c0 .303 0 .653-.16 1.068-.015.064-.015.16-.015.287l.016.494c0 .096 0 .24-.016.43.016.463.016.91.016 1.34v.363c0 .198-.003.291-.016.291l.016.638v25.18c-.001.848-.004 1.925-.016 3.237a.442.442 0 00-.048.208.357.357 0 01.048.16 1.984 1.984 0 00-.048.43h.048l-.048.111v4.109c.002.414.018-1.419.048-.33-.032.128-.048.623-.048 1.484h.048l-.048.111c0 .064.016.096.048.096l-.048.399v.478c0 .08-.016.112-.048.112h-.938a.144.144 0 00-.112.048c-.031 0-.047-.016-.047-.048-.319.032-.541.048-.684.048h-1.766s-.111-.112-.239-.208c-.031 0-.047.016-.063.048-.032 0-.064-.016-.096-.064a2.545 2.545 0 01-.525.064h-.35c-.063 0-.111.192-.143.144l-.19.064h-.812c-.016 0-.016.015-.016.047l-.063-.047h-.064c-.16 0-.35.015-.589.047-.047-.032-.08-.047-.095-.047l-.064.047c-.063 0-.095-.016-.095-.047a6.258 6.258 0 01-.636.047c-.366-.143-.589-.223-.669-.223-.35 0-.763.08-1.24.223-.27 0-.573.016-.907.048-.064-.032-.19-.048-.382-.048v.048c-.016 0-.016-.016-.016-.048-.063 0-.095.016-.095.048a4.927 4.927 0 00-.54-.048l-.35-.223c-.017 0-.017.016-.017.048l-.063-.048h-.35a.144.144 0 00-.112.048.256.256 0 00-.143-.048c-.016 0-.048.016-.095.048-.016 0-.016-.016-.016-.048l-.207.048h-.255l-.206-.048v-.446l-.064-.048c-.493.032-.97.27-.986.27l-.382-.047v.048l-.064-.048h-.095a.256.256 0 00-.143.048.144.144 0 00-.112-.048h-.015c-.032 0-.048.016-.048.048l-.048-.048c-.159 0-.239.016-.239.048l-.381-.048h-.97c-.032 0-.048.016-.048.048-.032-.032-.064-.048-.096-.048-.302 0-.525.016-.668.048a6.96 6.96 0 00-.859-.048h-.286c-.016 0-.016.016-.016.048l-.064-.048h-.636c-.016 0-.016.016-.016.048-.19 0-.366-.144-.525-.43-.016 0-.063-.064-.159-.208l-.048.048V46.5c0-.175-.08-1.164-.238-2.982 0-.032.016-.048.047-.048-.015-.335-.031-.494-.063-.494.016-.064.016-.112.016-.16 0-.16-.016-.335-.048-.542h.064v-.048l-.016-.111h.111v-.208h-.111l.016-.382c0-.224-.032-.335-.096-.335.048-.367.064-.574.064-.622-.064-.112-.112-.16-.16-.16v-.048h.064v-.159c0-.032 0-.048-.016-.048.016-.08.032-.287.048-.622-.016-.064-.016-.127-.016-.207h.064v-.16c0-.08-.016-.111-.064-.111l.112-.59h-.096c0-.048.016-.255.064-.622v-.096h-.064v-.111h.064c0-.224-.048-.335-.16-.335v-.048h.064v-.16c0-.127-.063-.27-.19-.43 0-.048 0-.096.015-.16l-.015-.398c.015-.495.015-.798.015-.925h.064v-.16l-.064-.16.191-.254h.048c0-.112-.032-.16-.095-.16v-.239c.11 0 .175-.08.206-.255v-.112h-.111l.016-.383c0-.175-.032-.255-.096-.255.016-.16.048-.239.096-.239l-.016-.542v-.096h.19v-.064c0-.08-.03-.255-.095-.542.032-.143.08-.207.144-.207v-.383l-.048-.111c.048 0 .064-.032.064-.112 0-.223-.016-.606-.064-1.148.048 0 .064-.048.064-.16l-.016-.111.016-.096-.016-.399c.063-.175.095-.446.095-.813h.048v-.064l-.048-.382c.08-.718.111-1.149.111-1.308v-.335h.016v-.16a.721.721 0 01-.047-.207 4.38 4.38 0 00.047-.494l-.047-.064.016-.255c0-.032 0-.048-.016-.048l.016-.111v-.288c0-.08 0-.143-.016-.207l.047-.494c-.016-.51-.016-.941-.016-1.308v-1.34c0-.031 0-.047-.015-.047 0-.032 0-.048.015-.048l-.015-.287c-.032-1.34-.048-2.408-.048-3.19 0-.08 0-.143-.016-.207.016-.064.016-.143.016-.239v-.096c0-.048 0-.063-.016-.063 0-.032 0-.048.016-.048 0-.048 0-.224-.016-.542.011-.24.014-.414.015-.523v-.1c-.031 0-.047-.031-.047-.095v-.112l.016-.335c-.016-.063-.016-.111-.016-.16l.016-.206-.016-.208c.016-.207.016-.35.016-.446l-.016-.096c.016-.08.016-.127.016-.16v-.048a.52.52 0 00-.016-.11l.048-.67c0-.288-.016-.431-.048-.431l.016-.287v-.521c-.002-.014-.005-.021-.016-.021l.096-.782c0-.08-.016-.223-.048-.43.032-.574.063-.877.095-.925v-.064a.552.552 0 01-.047-.207c0-.032 0-.144.015-.335l-.015-.096c.031-.128.063-.319.095-.574 0-.032-.016-.048-.048-.048l.048-.255v-.24l-.048-.095c.08 0 .112-.032.112-.112a.52.52 0 00-.048-.159c.032-.526.08-.925.143-1.212l-.095-.096.095-.287v-.16l-.048-.334a.357.357 0 00.048-.16.52.52 0 00-.048-.159c.032-.191.048-.335.048-.43a.357.357 0 00-.048-.16.442.442 0 00.048-.207v-.064l-.064-.16v-.382l-.016-.335c.016-.064.016-.128.016-.207-.08 0-.127-.288-.159-.878-.016 0-.016-.015-.016-.047.016-.08.016-.128.016-.16a.947.947 0 01-.063-.335v-.111h.063a3.67 3.67 0 00-.063-.43v-.113c.063 0 .127-.08.206-.255h.016l-.016.096.048.048.048-.096c-.048 0-.064-.032-.064-.111.08 0 .112-.032.112-.096 0-.112.016-.16.063-.16zM83.098 0c.223.048.382.064.494.064h9.067l.206.048c.032-.032.08-.048.16-.048h.668c.063.032.095.143.095.335v5.804c-.064 1.5-.095 2.28-.095 2.36v.027c.001.014.005.021.015.021 0 .08 0 .112-.015.112 0 .175.031 1.674-.128 4.481.2 21.702.297 32.886.302 33.552v.032c0 .367-.063.606-.206.734-.032 0-.048.031-.048.095h-.716c-.08 0-.175-.016-.302-.048l-.064.048-.063-.048a.144.144 0 00-.112.048l-1.431-.095c-.016 0-.048.016-.096.047a3.922 3.922 0 00-.54-.047h-.494a.852.852 0 01-.302-.064c-.016 0-.016.016-.016.064a6.532 6.532 0 00-.827-.064h-1.193l-.19-.048a.339.339 0 01-.192.048h-.207c-.095 0-.143-.016-.143-.048l-.238.048h-1.114c-.08 0-.175-.016-.286-.048l-.064.048-.159-.048a.663.663 0 00-.143.048c-.016 0-.016-.016-.016-.048-.064 0-.111.016-.143.048a11.222 11.222 0 00-.875-.048h-.398l-.334-.048v-.191c-.016 0-.016-.016-.016-.048l-.238.048c-.143 0-.318-.016-.541-.048a.256.256 0 01-.143.048v-.112h-.064c-.048.08-.08.112-.111.112l-.16-.048-.158.048-.16-.048-.238.048-.16-.048-.19.048a.268.268 0 01-.159-.048 3.936 3.936 0 01-.525.048h-.286c-.08 0-.191-.016-.35-.048-.032.032-.096.048-.207.048v-.048c-.016 0-.016.016-.016.048-.207-.08-.35-.112-.43-.112-.031 0-.143.016-.35.064-.031-.048-.063-.064-.095-.064a.338.338 0 01-.254.112c-.032 0-.064-.016-.096-.048l-.207.048h-.143a.79.79 0 01-.254-.048.658.658 0 01-.255.048h-.143c-.08 0-.127-.016-.159-.048l-.19.048h-.112c-.127 0-.207-.016-.239-.048a1.067 1.067 0 01-.286.048h-.35l-.191-.048a.256.256 0 01-.143.048c-.016 0-.048-.016-.096-.048-.318.032-.477.064-.477.096l-.636-.096c-.191.032-.286.064-.286.096l-.064-.048h-.064c-.016 0-.016.016-.016.048-.143-.016-.206-.064-.206-.16h-.144c0 .048 0 .096-.015.16l-.16-.096.016-.574v-2.121c0-.08.016-.271.064-.574-.048-.016-.064-.048-.064-.112 0-.701.016-1.722.048-3.078h-.048l.048-.111v-.495c0-.047 0-.063.016-.063 0-.032 0-.048-.016-.048l.016-.207c0-.08-.016-.192-.064-.351a.442.442 0 00.048-.208h-.048l.048-.111v-.287a.56.56 0 00-.048-.255l.048-.351v-.542c0-.16-.016-.303-.048-.447.032-.143.048-.287.048-.446l-.048-.288.048-.095a3.563 3.563 0 01-.048-.526v-.048l.048-.383h-.048l.048-.112v-.16c0-.11-.016-.159-.048-.159 0-.08.016-.111.048-.111a37.963 37.963 0 01-.048-1.531v-.781l.048-.543h-.048l.048-.111v-.335c0-.112-.016-.16-.048-.16l.048-.335a45.86 45.86 0 01-.064-1.69l.001-9.371c.001-.015.005-.022.015-.022-.016-.063-.016-.111-.016-.16l.001-.026c.001-.014.005-.02.015-.02l-.016-.288V19.2l.016-.335c-.016-.064-.016-.175-.016-.335v-.05c.001-.043.004-.061.016-.061l-.016-.383c0-.973.016-1.834.064-2.6-.016-.223-.032-.334-.064-.334l.016-.112v-.048c0-.239 0-.51-.016-.829.016-.16.016-.303.016-.447h-.016c0-.047 0-.063.016-.063l-.016-.543.001-1.531c.001-.118.005-.239.015-.366-.016-.144-.016-.32-.016-.526v-.294c.001-.102.004-.153.016-.153l-.016-.383V5.821l.016-.686h-.016l.016-.096v-.064c0-.207 0-.334-.016-.382l.016-.399c-.01-.48-.014-.835-.015-1.065v-.275a.52.52 0 01.015-.111l-.016-.335v-.24l.016-.334c-.016-.064-.016-.16-.016-.287v-.16l.064.064c0-.111.032-.16.111-.16v-.19l-.159-.049.048-.542-.048-.287V.16h.048v.112h.016c.08 0 .143-.048.207-.16.111.033.175.048.19.048l.064-.047c.016 0 .016.016.016.047l.239-.047h.111c.016 0 .016.016.016.047l.064-.047h.19c.032 0 .048.016.048.047l.048-.047h.239c.111 0 .222.016.334.047a.663.663 0 01.143-.047c.19.032.35.047.493.047V.112l.064.047h.063c.064 0 .096-.015.096-.047l.159.047h.318c.048 0 .08-.015.111-.047.032 0 .048.016.048.047l.302-.047h.334c.016 0 .016-.016.016-.048l.064.048.302-.048.239.048.063-.048.191.048c.111 0 .223-.016.334-.048.032 0 .143.016.334.048.35-.032.589-.048.716-.048.08 0 .127.016.16.048.158-.032.285-.048.38-.048h1.782A.466.466 0 0081.985 0c.095.048.19.064.286.064h.525c.207 0 .302-.016.302-.064zM28.41.494c.095 0 .207.016.35.048.048-.032.08-.048.095-.048.032 0 .048.016.048.048l.302-.048h.112c.318 0 .668.016 1.065.048a.637.637 0 01.24-.048c.047.032.079.048.095.048.047-.032.08-.048.095-.048l.143.048c.032 0 .048-.016.048-.048l.334.048h1.209c.08 0 .175-.016.286-.048.032.032.096.048.207.048.032 0 .048-.016.048-.048l.047.048a.256.256 0 00.144-.048l.047.048c.032 0 .064-.016.096-.048.127.032.222.048.286.048.032 0 .048-.016.048-.048l.063.048h.048c.08 0 .127-.016.16-.048l.19.048h.207c.032 0 .048-.016.048-.048l.047.048h.16c.015 0 .015-.016.015-.048l.064.048h.016c.063 0 .095-.016.095-.048l.16.048h.238c.016 0 .016-.016.016-.048l.063.048h.096c.016 0 .016-.016.016-.048l.063.048h.048c.032 0 .048-.016.048-.048l.048.048h.159l.19-.048a.144.144 0 00.112.048c.032 0 .048-.016.048-.048l.159.048 3.165.223.191.048.048-.048.19.048c.033 0 .048-.016.048-.048l.16.048.986-.223.302.064V.59l.064.064h.016c.015 0 .015-.016.015-.064l.064.064h.064c.016 0 .016-.016.016-.064l.063.064h.875c.127 0 .27.016.446.048a.256.256 0 01.143-.048c.19.032.381.048.588.048.016 0 .016-.016.016-.048l.064.048h2.068l.19.048c.016 0 .016-.016.016-.048l.16.048h.302c.095 0 .19.015.302.063a.568.568 0 01.302-.063l.048.159v.134c0 .102-.003.153-.016.153 0 .016 0 .128.016.335 0 .271.016 1.036.048 2.312 0 .08-.016.144-.048.207.032.256.048.447.048.59v2.293c0 .258.003.55.016.881-.016.064-.016.16-.016.287l.016.494c0 .096 0 .24-.016.43.016.463.016.91.016 1.34v.363c0 .198-.003.291-.016.291l.016.638v24.718c-.001.848-.004 1.924-.016 3.237a.442.442 0 00-.048.207.357.357 0 01.048.16 1.984 1.984 0 00-.048.43h.048l-.048.112v.638c0 .877.016 1.913.048 3.093-.032.128-.048.622-.048 1.484h.111l-.047.111c0 .064.016.096.047.096l-.047.399v.478c0 .08-.016.112-.048.112h-.716a.144.144 0 00-.111.047c-.032 0-.048-.016-.048-.047-.318.031-.54.047-.684.047h-1.972c-.016 0-.016.016-.016.064l-.064-.064h-.064c-.063 0-.111.016-.143.064-.032 0-.063-.016-.095-.064a2.545 2.545 0 01-.525.064h-.35c-.064 0-.111-.016-.143-.064l-.191.064h-.811c-.016 0-.016.016-.016.048l-.064-.048h-.064c-.159 0-.35.016-.588.048-.048-.032-.08-.048-.096-.048l-.063.048c-.064 0-.096-.016-.096-.048a6.258 6.258 0 01-.636.048h-1.909c-.27 0-.572.016-.907.048-.063-.032-.19-.048-.381-.048v.048c-.016 0-.016-.016-.016-.048-.064 0-.096.016-.096.048a4.927 4.927 0 00-.54-.048h-.573c-.016 0-.016.016-.016.048l-.064-.048h-.35a.144.144 0 00-.111.048.256.256 0 00-.143-.048c-.016 0-.048.016-.096.048-.015 0-.015-.016-.015-.048l-.207.048h-.255l-.207-.048v.048l-.063-.048c-.493.032-.748.048-.764.048l-.382-.048v.048l-.063-.048h-.096a.256.256 0 00-.143.048.144.144 0 00-.111-.048h-.016c-.032 0-.048.016-.048.048l-.047-.048c-.16 0-.24.016-.24.048l-.38-.048h-.971c-.032 0-.048.016-.048.048-.032-.032-.064-.048-.095-.048-.303 0-.525.016-.668.048a6.96 6.96 0 00-.86-.048h-.286c-.016 0-.016.016-.016.048l-.063-.048h-.637c-.015 0-.015.016-.015.048-.191 0-.366-.144-.525-.43-.016 0-.064-.064-.16-.208l-.047.048V46.5c0-.255.032-.957.111-2.105-.016-.144-.016-.287-.016-.446v-.038a.767.767 0 01.016-.122c0-.064-.032-.462-.111-1.212v-.59l-.096-.207-.143-.255c0-.224-.032-.335-.095-.335.047-.367.063-.574.063-.622-.063-.112-.111-.16-.159-.16v-.048h.064v-.186c-.002-.014-.005-.02-.016-.02.016-.08.032-.288.048-.623-.016-.064-.016-.127-.016-.207h.063v-.16c0-.08-.015-.111-.063-.111l.111-.59h-.095c0-.048.016-.255.063-.622v-.096h-.063v-.111h.063c0-.224-.047-.335-.159-.335v-.048h.064v-.16c0-.127-.064-.27-.19-.43 0-.048 0-.096.015-.16l-.016-.398c.012-.371.015-.634.016-.796v-.13h.064v-.159l-.064-.16.19-.254h.049c0-.112-.032-.16-.096-.16v-.239c.111 0 .175-.08.207-.255v-.112h-.111l.015-.383c0-.175-.031-.255-.095-.255.016-.16.048-.239.095-.239l-.015-.542v-.096h.047v-.064c0-.08-.032-.255-.095-.542.032-.143.08-.207.143-.207v-.383l-.048-.111c.048 0 .064-.032.064-.112 0-.223-.016-.606-.064-1.148.048 0 .064-.048.064-.16l-.016-.111.016-.096-.016-.399c.064-.175.095-.446.095-.813h.048v-.064l-.048-.382c.08-.718.112-1.149.112-1.308v-.335h.016v-.16a.721.721 0 01-.048-.207 4.38 4.38 0 00.048-.494l-.048-.064.016-.255c0-.032 0-.048-.016-.048l.016-.111v-.363a.598.598 0 00-.016-.132l.048-.494c-.016-.51-.016-.941-.016-1.308v-1.34c0-.031 0-.047-.016-.047 0-.032 0-.048.016-.048l-.016-.287c-.032-1.34-.048-2.408-.048-3.19 0-.08 0-.143-.016-.207.016-.064.016-.143.016-.239v-.133c-.002-.02-.005-.026-.016-.026 0-.032 0-.048.016-.048 0-.048 0-.224-.016-.542.012-.24.015-.414.016-.523v-.1c-.032 0-.048-.031-.048-.095v-.112l.016-.335c-.016-.063-.016-.111-.016-.16l.016-.206-.016-.208c.016-.207.016-.35.016-.446l-.016-.096c.016-.08.016-.127.016-.16 0-.047 0-.095-.016-.159l.048-.67c0-.287-.016-.43-.048-.43l.016-.287v-.495c0-.031 0-.047-.016-.047l.096-.782c0-.08-.016-.223-.048-.43.032-.574.064-.877.096-.925v-.064a.552.552 0 01-.048-.207c0-.032 0-.144.016-.335l-.016-.096c.032-.128.064-.319.095-.574 0-.032-.016-.048-.047-.048l.047-.255v-.24l-.047-.095c.08 0 .111-.032.111-.112a.52.52 0 00-.048-.159c.032-.526.08-.925.143-1.212l-.095-.096.095-.287v-.16l-.047-.334a.357.357 0 00.047-.16.52.52 0 00-.047-.159c.032-.191.047-.335.047-.43a.357.357 0 00-.047-.16.442.442 0 00.047-.207v-.064l-.063-.16v-.382l-.016-.335c.016-.064.016-.128.016-.207-.08 0-.127-.288-.16-.878-.015 0-.015-.015-.015-.047.016-.08.016-.128.016-.16a.947.947 0 01-.064-.335v-.111h.064a3.67 3.67 0 00-.064-.43v-.113c.064 0 .127-.08.207-.255h.016l-.016.096.048.048.047-.096c-.047 0-.063-.032-.063-.111.08 0 .111-.032.111-.096 0-.112.016-.16.064-.16zm-15.684 6.65H4.009l-.62.43c0-.286-.096-.43-.303-.43l-.334.782v8.372c0 .287.111.43.334.43l-.334.734v3.811l.334.781c-.223 0-.334.128-.334.383.223 0 .334.112.334.351h-.334l.334.781-.334.782c.223.51.334.877.334 1.116 0 .287-.111.43-.334.43l.334 1.914v6.826c0 .255-.111.382-.334.382l.334.734v4.991c.064.495.254.734.589.734H9.29v-12.55h.922l1.623 5.485 1.813 6.315.668.351h7l-.653-1.93c.016-.063.016-.111.032-.19.032-.192.064-.495.064-.75 0-.112-.048-.096-.048-.128.016-.08.048-.191.08-.303.012-.076.005-.173.001-.225l-.001-.03c0-.064.031-.415.047-.654v-.016l.016-.111c0-.032.004-.056.008-.072l.008-.024c.016-.207.032-.415.16-.558.27.35.19.366.317.75.064.27.128.525.175.876.016.08.048.144.048.224.016.111.016.287.016.398.016.32.08.734.175 1.1.032.096 0 .16 0 .256 0 .111.063.207.08.303.015.223.015.255.095.382.016 0 .016 0 .032-.016 0 .032-.016.064-.016.112v.207l.143.08h.08c.079.064.095.128.127.16.032.031.08.063.175.08h.047a.47.47 0 00.27-.033c.052.039.092.026.099-.013l-.003-.034v-.032c-.016-.208-.19-.176-.318-.351l-.016-.016v-.032c-.016 0-.016-.016-.032-.016-.016-.048-.031-.112-.047-.143.031 0 .063 0 .063-.016.016-.096-.016-.16-.016-.224 0-.08-.031-.127-.047-.239-.016-.127-.032-.16-.032-.223 0-.096-.016-.096-.016-.191-.016-.351-.064-.638-.064-1.053 0-.032-.016-.223-.063-.255-.048-.048-.032-.16-.032-.191-.016-.096 0-.112-.016-.144-.048-.08-.016-.128-.032-.191v-.064c0-.146.011-.26.006-.459l-.006-.131c0-.128-.016-.24-.032-.351l-.024-.16-.023-.159c-.032-.16-.032-.319-.048-.478v-.08c0-.08-.016-.16-.032-.24 0-.047-.032-.031-.032-.11v-.065s0-.016-.016-.016v-.032L22 35.227h.032c.016 0 .032 0 .032-.016.032-.016 0-.064 0-.08 0-.048-.016-.08-.016-.128-.032-.319-.111-.909-.111-1.307 0-.192-.048-.335-.064-.622 0-.048-.016-.128-.016-.16-.016-.095.032-.303.032-.303 0-.095 0-.175.048-.27.063-.144.08-.272.111-.431.032-.128.032-.271.064-.399.016-.048.032-.112.032-.112l-.032-.016v-.08c.032-.143.048-.286.063-.43 0-.096.016-.191.048-.287.032-.08.064-.16.08-.255.032-.16.016-.319-.016-.479-.016-.111-.064-.223-.08-.35a.752.752 0 00-.063-.255l-.064-.144c0-.112-.016-.35-.048-.399-.032-.048-.047-.111-.095-.095s-.08.016-.112.016c-.031 0-.063 0-.079.016-.032.015-.064 0-.095 0-.032 0-.032.031-.048.015-.032 0-.064-.015-.096.016-.031.032-.016.032-.047.08-.032.048.016.112.031.16.016.032.032.127.064.16.032.031.048 0 .096.031.047.032.095.048.095.08l.032.127a1.12 1.12 0 010 .399c-.016.175 0 .335-.032.51a.587.587 0 00.016.287c.016.032 0 .064-.016.096-.021.043-.042.092-.068.14l-.043.067c-.048.064-.08.144-.112.208-.032.063-.047.127-.08.191v.016l-.031-.016s-.048.191-.111.287a.775.775 0 01-.175.223c-.048.032-.16.08-.207.016-.016.016-.016.016-.048.032a.964.964 0 01-.08-.255.121.121 0 00.032-.064v-.032l-.016-.111c.032 0 .048-.096.048-.128 0-.048.016-.143 0-.191 0-.032-.016-.048-.032-.064h-.031v-.064c0-.016-.016-.032-.032-.064v-.06c-.006-.014-.01-.025-.016-.035 0-.016 0-.032-.016-.048-.016-.032-.064-.096-.08-.144.032.032.048.048.08.096-.048-.112-.048-.16-.16-.191l.033-.032-.08.032c.016-.016.016-.032 0-.064.016.08-.175.032-.223.016-.08 0-.127 0-.206-.032l.031.032c-.031 0-.063 0-.08-.032 0 .032.017.048.049.064h-.016a.226.226 0 00-.096.032c-.032 0-.047 0-.063-.016a.167.167 0 00.047.063c-.047.032-.095.064-.111.128l-.032.016h.032v.016l.032-.032h.032l-.064.128v.016s-.016 0-.016.015h.016c-.016.032-.032.048-.032.08l.016-.032.032-.016c0 .016-.016.032-.016.064l.032-.032c.016.16.016.176.063.32h.016c-.016 0-.016 0-.031.015-.016.016 0 .032.015.064.032.048.08.127.096.16.016.031.08.111.111.095v.032a1.1 1.1 0 00.048.128l.016.015.024.014.024.002v.016a.492.492 0 01.047.208h-.031v.095s0 .016-.016.032c-.016 0-.016 0-.016.016v.016l-.016.016c-.016.016-.064.016-.096.032-.063.032-.095 0-.143.064a5.88 5.88 0 00-.27.08c-.064.015-.112.095-.143.159-.096.175-.08.303-.144.478-.015.064-.031.144-.047.208l-.032.095c-.016.032-.048.112-.048.112l.016.016s-.016.048-.016.064c-.048.143-.095.27-.127.414a.766.766 0 01-.08.271c-.047.08-.047.144-.08.24-.015.016-.015.048-.015.063l-2.704-8.005c2.195-1.116 3.467-4.066 3.833-8.882v-1.531c0-4.003-2.163-6.937-6.49-8.803h-.254v.43l-.668-.43zm163.62-.303c-.637-.67-.143-.494 1.495.542l.048-.255-.35 2.207.047-.469c-.45-.077-1.403 2.54-2.856 7.854l-.102.375c-1.13 2.344-2.26 5.502-3.373 9.44l.048 1.627.255 11.546.016 1.387-6.109.048-.668.143c-.048-.893-.207-4.48-.477-10.764l.016-.287c.032-.175.127-.255.302-.239.048-.51-.254-.797-.923-.877v-.24l.812.049c-.08-.862-.207-1.292-.398-1.308l.302-.478v-.256c.128-.972-1.75-6.809-5.599-17.493-.62-.75-.827-1.627-.636-2.632.286 0 .875-.015 1.781-.047a75.407 75.407 0 011.623-.048l.413-.048.525.096.557-.016 1.575.016 1.972 5.103c1.098 2.727 1.607 4.337 1.527 4.816l.255.047c.382-2.2.668-3.3.875-3.285.016-.175-.064-.27-.239-.287.032-.319.27-.988.732-2.009l-.255-.016c.414-.542.875-1.993 1.384-4.385zm-98.751-.35l-.668.446c-.462-.255-.669-.367-.637-.335l-.143 34.54 14.141-.095v-.35c-.047-.639.016-2.488.175-5.566l-.715-.383-.684.064-6.443-.016-.063-27.907h-4.916l-.047-.399zm46.369 0l.047.398h4.9l.063 27.907 6.443.016.684-.064.732.383c-.175 3.078-.24 4.927-.191 5.565v.351l-14.142.096.16-34.541c-.032-.032.174.08.636.335l.668-.447zm-15.43-.017c6.204.4 9.624 2.743 10.26 7.017l.477 3.173c.239 1.436.191 3.062-.159 4.912-.843 4.688-3.34 7.368-7.476 8.07-2.53.19-4.009.334-4.454.43v11.067l-7.572-.096c0-5.358.032-8.404.095-9.137l-.254.095.302-3.955-.254.096c.143-1.658.111-8.802-.096-21.416 2.625-.08 5.679-.16 9.13-.256zm36.666.367l8.399.176 7.285 34.062-6.204-.016-1.718-6.028-6.108-.143-.636 5.996-6.252.16L145.2 6.84zm-90.989.016v.32l-.143 33.822h12.964v-6.267l-6.57.048v-3.62l.048-3.939c.064-.414.223-.622.478-.622h5.742c0 .208.08.303.255.303l.206-.622-.063-5.82h-6.474l.063-7.511h6.681l.064-6.044-13.25-.048zm-21.951 0h-1.178v.303l-.143 33.823h12.964v-6.267l-6.57.048v-3.62l.049-3.939c.063-.414.222-.622.477-.622H43.6c0 .144.16.048.477-.303l-.063-5.82H37.54l.063-7.511h6.681l.08-6.044H37.89l-.144-.032-.604.032h-.414c-.652-.032-1.065-.032-1.209 0l-2.052-.032-.7.223-.508-.239zm-12.344 26.87c.031.048.016.224 0 .288-.016.08-.016.143.047.191.032.016.032.032.016.064-.016.064-.047.095-.08.143-.015.048-.015.08 0 .112.017.016.048.048.033.08-.016.047 0 .095.015.143.016.032-.015.048-.015.096 0 .032-.016.16 0 .207.015.048-.032.335.031.43l.016.017c-.016.032-.016.048-.016.08 0 .031.016.047 0 .111a.401.401 0 00-.031.16c0 .047.015.08.015.143v.112c.016.127 0 .43 0 .574 0 .095.016.143.016.207l-.016.048c.016.096.016.207.032.303l-.652-1.914c0-.111.032-.207.064-.319.047-.16.063-.335.111-.494.032-.096.064-.191.048-.287 0-.032.016-.096.032-.128.047-.063.063-.095.127-.143.063-.064.08-.128.127-.192l.016-.015.032.015c.016 0 .016-.031.032-.031zM149.51 18.02l-.286.064c-.986 7.24-1.447 10.987-1.4 11.258.446-.08 1.623-.048 3.563.096-.047-.271.016-.43.175-.463-.715-4.736-1.4-8.372-2.052-10.955zm-42.121-4.098a.605.605 0 00-.605.606v7.574c0 .335.27.606.605.606a.712.712 0 00.302-.08l5.679-3.779a.618.618 0 00.016-1.068L107.69 14a.657.657 0 00-.302-.08zm-97.765.574c.095 0 .19.032.27.08l4.947 3.284c.175.096.27.272.27.463a.55.55 0 01-.27.462L9.894 22.07a.748.748 0 01-.27.064.53.53 0 01-.525-.526v-6.586a.53.53 0 01.525-.526z" fill="#DA291C" fill-rule="nonzero"/></svg>
