<svg width="151" height="47" xmlns="http://www.w3.org/2000/svg"><g fill="#FFF"><path d="M8.727 42.327c0 1.746-.436 2.91-1.454 3.782-.582.582-1.455.727-2.618.727-1.455 0-2.473-.581-3.346-1.6C.582 44.218.291 43.2.291 42.036c0-1.454.29-2.618 1.164-3.636.436-.436.872-.873 1.309-1.164a4.026 4.026 0 011.89-.436c.728 0 1.31.145 2.037.29.582.146 1.018.437 1.309.874.145.145.145.29.145.436 0 .145 0 .29-.145.436-.145.146-.29.146-.436.146-.146 0-.291 0-.437-.146-.436-.29-.727-.581-1.018-.727-.436-.145-.727-.29-1.309-.29-1.018 0-1.89.436-2.473 1.308a5.023 5.023 0 00-.727 2.618c0 1.455.436 2.473 1.164 3.346a2.409 2.409 0 001.745.727c.436 0 1.018-.145 1.455-.29 1.018-.437 1.6-1.455 1.6-2.764v-.437H5.818c-.29 0-.582-.145-.582-.582 0-.436.146-.581.582-.581H8c.436 0 .727.436.727 1.018v.145zm141.818 0c0 1.746-.436 2.91-1.454 3.782-.582.582-1.455.727-2.618.727-1.455 0-2.473-.581-3.346-1.6-.727-1.018-1.018-2.036-1.018-3.2 0-1.454.291-2.618 1.164-3.636.436-.436.872-.873 1.309-1.164a4.026 4.026 0 011.89-.436c.728 0 1.31.145 2.037.29.582.146 1.018.437 1.31.874.145.145.145.29.145.436 0 .145 0 .29-.146.436-.145.146-.29.146-.436.146-.146 0-.291 0-.437-.146-.436-.29-.727-.581-1.018-.727-.436-.145-.727-.29-1.309-.29-1.018 0-1.89.436-2.473 1.308a5.023 5.023 0 00-.727 2.618c0 1.455.437 2.473 1.164 3.346a2.409 2.409 0 001.745.727c.437 0 1.018-.145 1.455-.29 1.018-.437 1.6-1.455 1.6-2.764v-.437h-1.746c-.29 0-.581-.145-.581-.582 0-.436.145-.581.581-.581h2.182c.582 0 .873.29.873.872v.291h-.146zM68.8 46.11c0 .58-.145.872-.582.872-.29 0-.582-.146-.582-.582l-1.163-8-2.328 8c-.145.29-.29.436-.581.436s-.582-.145-.582-.436l-2.327-8-1.164 8c0 .436-.291.582-.727.582-.291 0-.582-.291-.582-.727v-.291l1.454-8.291c0-.291.146-.437.291-.582.146-.146.437-.291.582-.291.291 0 .436 0 .582.145.145.146.29.291.29.437l2.037 7.127 2.037-7.273c0-.145.145-.29.29-.436.146-.145.291-.145.582-.145s.437 0 .582.145c.146.145.291.29.291.582l1.6 8.727zm22.69.145c0 .436-.145.727-.58.727-.437 0-.583-.146-.583-.582v-8.727c0-.437.146-.582.582-.582.436 0 .582.145.582.582v8.582zm29.237 0c0 .436-.145.581-.582.581-.29 0-.436-.145-.727-.436l-5.236-7.418v7.127c0 .436-.146.582-.582.582-.436 0-.582-.146-.582-.582v-8.727c0-.437.146-.582.437-.582.29 0 .436.145.727.436l5.09 7.419v-7.128c0-.145 0-.29.146-.436.146-.146.291-.146.437-.146.436 0 .581.146.581.582v8.728h.291zm-83.2.145c0 .29-.145.436-.582.436-.145 0-.29 0-.436-.145-.145 0-.145 0-.145-.146l-.582-1.745h-4.51l-.872 1.745c-.145.291-.29.437-.582.437-.29 0-.582-.146-.582-.437v-.29l3.2-8.437c.146-.29.146-.436.291-.582.146-.145.291-.145.437-.145.145 0 .29 0 .581.145.146.146.291.291.291.582l3.2 8.437c.291 0 .291.145.291.145m-2.182-2.764l-1.89-5.381-2.037 5.381h3.927z"/><g transform="translate(122.182)"><circle cx="4.073" cy="3.927" r="3.927"/><path d="M28.51 3.927a3.91 3.91 0 01-3.928 3.928 3.91 3.91 0 01-3.927-3.928A3.91 3.91 0 0124.582 0a3.91 3.91 0 013.927 3.927z"/><circle cx="4.073" cy="23.127" r="3.927"/><path d="M28.51 23.127a3.91 3.91 0 01-3.928 3.928 3.91 3.91 0 01-3.927-3.928 3.91 3.91 0 013.927-3.927 3.91 3.91 0 013.927 3.927zm-10.183-9.6a3.91 3.91 0 01-3.927 3.928 3.91 3.91 0 01-3.927-3.928A3.91 3.91 0 0114.4 9.6a3.91 3.91 0 013.927 3.927z"/></g><path d="M115.782 26.182L104.872.436c-.145-.29-.29-.436-.581-.436h-4.655c-.29 0-.436.145-.581.436L88 26.182v.145c0 .291.145.437.436.437h4.946c.29 0 .436-.146.582-.437l2.327-5.963h11.636l2.328 5.963c.145.291.29.437.581.437h4.946c.29 0 .436-.146.436-.437-.29 0-.29-.145-.436-.145zM97.89 15.709l4.073-10.327 4.072 10.327H97.89zM38.255 8.29c.29-1.017.727-1.454.727-1.454s.582-1.018 1.89-1.6c1.31-.581 2.473-.581 2.473-.581h9.746c.29 0 .582-.291.582-.582V.582c0-.291-.291-.582-.582-.582H42.327c-5.963 0-10.763 5.236-10.763 11.636v3.782c0 6.4 4.8 11.637 10.763 11.637h10.764c.29 0 .582-.291.582-.582v-3.637c0-.29-.291-.581-.582-.581h-9.746s-1.309 0-2.472-.582c-1.31-.582-1.891-1.6-1.891-1.6s-.437-.582-.727-1.455c-.291-1.018-.291-2.327-.291-2.327v-.582H53.09c.29 0 .582-.29.582-.582v-3.636c0-.291-.291-.582-.582-.582H37.964v-.29s.145-1.31.29-2.328zM71.71 26.764h8.872c.29 0 .436-.291.436-.582v-3.637c0-.29-.145-.581-.436-.581h-8s-1.018 0-2.037-.582c-1.018-.582-1.6-1.6-1.6-1.6s-.581-.582-.581-1.6V.437c0-.292-.146-.437-.437-.437h-4.654c-.291 0-.582.29-.582.582v17.745c.145 4.655 4.073 8.437 9.018 8.437M24 26.182l-6.255-10.473c3.2-.727 5.382-2.909 5.382-7.709.146-6.4-4.218-7.855-9.6-8H.582C.29 0 0 .29 0 .582v25.745c0 .291.29.582.582.582h4.654c.291 0 .582-.29.582-.582V16.291h6.546l5.818 10.182a.8.8 0 00.727.436h4.946c.29 0 .436-.145.436-.436-.291-.146-.291-.291-.291-.291zM13.673 11.49l-1.455.145H5.673V4.8h8c3.054 0 3.927 1.455 3.927 3.345-.145 1.891-1.018 3.346-3.927 3.346z"/></g></svg>
