<svg version="1.1" id="Слой_1" xmlns="http://www.w3.org/2000/svg" x="0" y="0" viewBox="0 0 2129 602.8" style="enable-background:new 0 0 2129 602.8" xml:space="preserve"><style>.st0{fill:#fff}</style><path class="st0" d="M598.3 169c-95.6-22.3-167.6-76-216-161.9-6.7-1.3-13.6-2.4-20.6-3.6C350.4 1.6 339 .8 327.6.3c-13.9-.7-27.9 0-41.8 1.4-11.5 1.1-22.9 3.1-34.3 5-3.8.6-5.9 2.3-7.5 5.5-2.3 4.8-5.2 9.2-8 13.7-11.2 18.1-24.3 34.7-38.9 50.2-4.8 5.1-9.9 9.8-15 14.6-13.7 12.9-28.6 24-44.3 34.3-13.9 9.1-28.5 16.8-43.7 23.5-14.1 6.2-28.6 11.3-43.4 15.5-5.5 1.5-11.1 2.9-16.7 4.4-17.4 32.8-29.2 67.3-34 103.4 72.2 75.8 101.7 165 89.4 268.7l1.8 1.5c11.8 11.8 24.5 22.3 38 32 14.8 10.6 30.4 19.9 46.8 28 2.3 1.1 4.1 1.2 6.5.1 13.8-6.4 28.1-11.8 42.7-16 16.4-4.8 33-8.3 49.9-10.3 11-1.3 22.1-2.4 33.2-2.7 13.6-.3 27.2.4 40.8 1.6 8.6.8 17.1 2.1 25.6 3.6 13.7 2.4 27.1 6 40.3 10.3 12 3.8 23.7 8.5 35.1 13.7 1.8.8 3.2.8 5.1-.1 8.4-3.9 16.5-8.5 24.5-13.2 8.8-5.1 17.1-10.7 25.3-16.7 7.9-5.8 15.5-11.9 22.9-18.3 6.6-5.8 12.8-12.1 18.9-18.2-11-99.9 18.1-186.1 85.8-259.7-5.1-37.6-16.3-73.3-34.3-107.1zm-48.7 161.6c-1.4 20.7-5.3 40.9-12.1 60.6-6.6 18.9-15.4 36.5-26.4 53.2-11.1 16.9-24.7 31.6-39.6 45.3-10.8 9.9-22.6 18.4-35.2 25.8-16 9.5-32.9 17-50.7 22.4-12.4 3.8-24.9 6.4-37.7 8.3-16.2 2.4-32.5 2.3-48.8 1.5-10.4-.5-20.7-2.2-30.9-4.4-13.5-2.8-26.6-6.7-39.3-11.8-17.2-6.8-33.2-15.7-48.2-26.3-8-5.7-15.5-11.8-22.8-18.4s-14.1-13.6-20.5-21.1c-5.9-6.9-11.4-14.2-16.4-21.8-5.6-8.6-10.9-17.3-15.3-26.6-7.9-17-14.3-34.4-18.1-52.9-2.2-10.4-3.8-20.9-4.5-31.4-.8-12.6-.8-25.3.5-37.9.9-9.4 2.3-18.7 4.2-27.9 3-14 7.4-27.5 12.9-40.6C105.8 214.5 112 203 119 192c10-15.6 21.6-29.8 35-42.6 13.2-12.6 27.8-23.5 43.6-32.8 20.6-12.1 42.5-20.7 65.6-26.2 9.5-2.3 19.1-3.7 28.9-4.7 8-.8 15.9-.8 23.9-1 9.7-.2 19.3.2 28.9 1.4 13.2 1.6 26.1 4.4 38.8 8.2 11.4 3.4 22.5 7.7 33.3 12.8 15.5 7.3 29.9 16.4 43.5 26.8 8.5 6.5 16.1 13.8 23.8 21.2 5 4.8 9.5 10.2 13.9 15.6 6.6 8.1 12.6 16.6 18 25.5 7.5 12.3 13.8 25.2 19 38.7 6 15.7 10.1 31.8 12.6 48.3 2.2 15.8 2.8 31.6 1.8 47.4zM1399.2 469.8c8.3-1.3 15.2-5 18.3-13.4 1.5-4 2.3-8.2 2.3-12.6-.1-47.5 0-95 0-142.5V158.8c0-4.7-.8-9.2-2.7-13.5-3.2-7.3-9.1-11.2-16.8-12.4-5.4-.8-10.9-1-16.4-.9-32.5.1-65 0-97.5 0-5.6 0-11.3-.2-16.9.8-8.4 1.4-14.9 5.1-18 13.5-1.9 4.9-2.5 9.9-2.5 15.1v275.9c0 4.3.1 8.6.8 12.9 1.4 8.4 5.3 14.8 13.7 18 4 1.5 8 1.8 12.2 1.8h117.5c2 .1 4 .2 6-.2zm-30.4-43.3h-68.3c-.8-4-1.2-237.8-.3-250.4h68.7c-.1 83.6-.1 166.9-.1 250.4zM2051.6 419.5c3.5 10.1 6.7 20.4 10.5 30.4 2.5 6.6 4.2 13.5 7.4 19.9 11.9.9 49 .5 52.4-.6-18.3-50.6-36.7-101.1-55-151.6 1.1-.8 2-.7 2.8-.6 7.3.1 14.6-.1 21.9-1 9.6-1.2 17.1-5.2 20.5-14.8 1.3-3.6 1.7-7.4 1.7-11.2V161c0-3.5-.2-6.9-.9-10.4-1.6-7.3-5.5-12.5-12.3-15.7-5-2.3-10.3-2.6-15.5-2.7-44-.2-88-.1-132-.1-1.1 0-2.4-.4-3.2.7v337.1h50.2V176.2h63.1v106.6h-48.4c-1.1 1-.9 1.9-.9 2.7 0 6.2.4 12.4-.1 18.5-.5 7 1.4 13.4 3.6 19.8 7.4 20.9 14.9 41.7 22.4 62.6 3.9 11 7.9 22 11.8 33.1zM852.8 393.3c-4.6-12.6-9.2-25.1-13.7-37.7-4.5-12.7-9.5-25.2-13.8-38.7 5.7 0 10.7.3 15.6-.1 5.6-.4 11.2-.7 16.6-2.6 5-1.7 8.7-4.7 11.2-9.2 2.4-4.2 3.2-8.6 3.2-13.4v-134c0-3-.2-6-1.1-8.8-2-6.9-6.1-12.1-13.1-14.4-4.9-1.7-10-2.2-15.2-2.2h-132c-1 0-2 .2-2.8 1.5v333c0 .8 0 1.7.1 2.5 0 .1.2.3.3.4l.3.3h49.7v-3.7c.3-55-.6-109.9.5-164.9.1-6-.4-12-.4-17.9-.2-33.2-.1-66.3-.1-99.5 0-2.6.3-5.2 1-7.7h62.5c1 16.2.6 102.3-.6 106.8h-48.9v2.9c0 8 .1 16-.1 24 0 2.4.4 4.6 1.2 6.8 2.5 6.8 5.1 13.6 7.5 20.5 6.4 17.9 12.6 35.8 19 53.7 7.7 21.7 15.3 43.3 23 65 1.7 4.8 3.4 9.5 5.1 14.1 11.6.9 48.7.5 52.6-.5-4.5-12.6-9.1-25.2-13.6-37.8-4.7-13-9.3-25.7-14-38.4zM1219.1 132.1c-4.2-.1-8.3 0-12.5 0-4.3 0-8.7-.1-13 0-4.1.1-8.2-.3-12.3.3-1.2 7.7-2.3 14.8-3.5 22-1.4 8.7-2.8 17.3-4.2 26-1.5 9.1-3.2 18.2-4.6 27.4-1.5 9.5-2.6 19-4.4 28.4-2.6 13.5-4.5 27-6.7 40.6-1.4 8.6-2.8 17.3-4.3 25.9-1.5 9-3 17.9-4.5 26.9-1.2 7.3-2.3 14.7-3.5 22-1.3 7.7-3 15.3-2.7 23.2.1 2 0 4 0 5.9-1.3-10.4-2.1-20.8-3.9-31.1-1.5-8.6-2.8-17.3-4.2-25.9-1.9-11.4-3.8-22.8-5.8-34.2l-3.9-23.4c-1-6.4-2-12.7-3.1-19.1-1.2-7.7-2.4-15.3-3.6-23-1.4-8.5-3-16.9-4.3-25.4-1.5-9.6-2.9-19.3-4.4-28.9-1.2-7.3-2.5-14.7-3.7-22-.8-5-1.7-10-2.5-15.2h-50.8c4.3 23.1 8.5 45.6 12.8 68.2s8.6 45.1 12.9 67.6c4.3 22.6 8.6 45.1 12.9 67.6 4.3 22.6 8.5 45.2 13 67.7 4.5 22.4 8.1 45 13 67.1h49.5c.1 0 .3-.2.4-.3l.5-.5c21.5-112.1 42.9-224.4 64.5-337.3-4.8-.8-9-.4-13.1-.5zM1766.2 132.1c-10.4-.6-44.5-.2-48 .8-.4 2.2-.9 4.4-1.3 6.7-1.5 9-2.9 18-4.3 26.9-1.8 11.1-3.8 22.1-5.6 33.2-1.2 7.5-2.2 15.1-3.4 22.6-1.8 11.1-3.8 22.1-5.7 33.2-1.8 10.9-3.5 21.8-5.2 32.8-1.6 9.8-3.3 19.6-4.9 29.4-1.4 8.6-2.8 17.3-4.2 25.9-1.6 9.6-3.8 19.2-3.9 29 0 1.1.2 2.4-1.5 3.2-.4-6.2-.3-12.2-1.3-18.1-1.5-9-3.1-17.9-4.4-26.9-1.1-7.3-2.4-14.7-3.6-22-1.5-9.1-2.9-18.3-4.4-27.4-1.8-11.1-3.7-22.1-5.5-33.2-1.5-9.1-2.7-18.3-4.4-27.4-1.4-7.3-2.4-14.7-3.7-22-1.5-9.1-2.9-18.3-4.4-27.4-1.9-11.7-3.8-23.5-5.7-35.2-.2-1.4-.4-2.6-1.6-3.4-5.8-.9-46.4-.6-49.9.4 21.4 112.4 42.9 224.9 64.3 337.3.8.2 1.2.5 1.7.5h47c.9 0 1.6-.4 2-.9 21.5-112.4 42.9-224.6 64.3-336.4-.8-1.5-1.6-1.6-2.4-1.6zM1925.8 425.1h-88.6c-.8-8.1-.6-101.7.3-105.4h55.9c6.3 0 12.6.1 18.7 0 1-4.3 1.1-39.7.1-43.9-25-.1-50.1 0-75.1-.1v-98.8h87.4c.7-9.3.5-40.5-.3-44.2-1.3-1.1-2.9-.6-4.3-.6h-128.5c-1.7 0-3.7-.7-5.2.9-.6 6.1-.4 333 .2 336.8h139.3c.1-14.9.1-29.5.1-44.7zM951.4 425.1c-.9-8.9-.6-101.7.3-105.5h75.1v-43.9h-50.6c-4.2 0-8.3.1-12.5 0-4.1-.1-8.3.6-12.4-.5v-98.3h87.6v-44.5c-10.5-.7-134-.4-137.8.3-.8 6.6-.5 333.7.4 337.5h133.8c1.5 0 3-.1 4.5-.2.1 0 .3-.1.4-.2s.2-.2.3-.4c.8-14.4.5-40.1-.7-44.2-29.4-.1-58.9-.1-88.4-.1zM1581.6 469.4v-44.6h-81.9V135.6c0-1.2.2-2.4-1.4-3.5-15.9.1-32.3-.1-49.1.1v337.5c7 .8 128.9.5 132.4-.3zM2129 556h-46.1c.2 3.3-.4 6.5.4 10h16.2c5.3 0 10.5-.2 15.7.1 1 5.8.8 20-.2 23.2-7 1-58.4.6-61.6-.4-.5-4.2-.5-52.5.1-57.3 3.9-.8 8.1-.3 12.1-.4 4.2-.1 8.3 0 12.5 0h12.5c4.2 0 8.3-.1 12.5 0 4.1.1 8.2-.5 12.7.5v11.5c4.7-.9 8.8-1.7 13.2-2.5 0-2.8.2-5.2 0-7.5-1-7.7-5-11.2-9.4-12-3.1-.6-6.2-1.1-9.4-1.1-17.5.1-35 .1-52.5 0-2.7 0-5.3.4-7.9 1-4.6 1.1-8 3.5-9.3 8.6-.9 3.6-1.2 7.3-1.2 10.8 0 15.8-.9 31.6.5 47.4.6 7.3 3.5 10.9 10.4 12.7 1.5.4 3 .3 4.5.3h58c1 0 2 0 3-.1 10.4-1.4 12-5.4 13.2-13.2.2-1.5.1-3 .1-4.5V556zM1444.1 556h-45.3v10h31.8v23.3c-8.2.8-58.3.5-62-.3-.2-.3-.5-.6-.5-.8-.1-17.5-.1-35-.1-52.5 0-1.2.1-2.3.2-3.5 0-.1.1-.3.3-.4l.4-.4c.7-.5 1.6-.4 2.4-.4 19.5.2 39-.3 58.4.3.1 0 .3.2.4.3l.5.5c.7 3.4-.3 7.1.6 10.7 4.7.2 8.9-1.6 13.4-2.2.4-4.1-.4-7.8-1.2-11.5-1-4.6-4.4-7-8.6-8-2.9-.7-5.8-1.2-8.9-1.1-7.3.1-14.7 0-22 0-10.5 0-21 .1-31.5 0-2.9 0-5.6.5-8.4 1.1-5.3 1.1-9.1 6.6-9.1 13.3-.1 17.5-.1 35 0 52.5.1 8 3.4 11.8 11.1 13.6 1.3.3 2.6.3 4 .3 19.5 0 39 0 58.5.1 2.6 0 5-.5 7.3-1.2 3.4-1 6-3.2 7.2-7 1.1-3.5 1.6-7.1 1.6-10.7.1-7.5 0-15 0-22.5.1-1.1.5-2.3-.5-3.5zM1730.1 520c-12.1 17.4-24 34.9-36.4 52.4-13.3-17.9-26.2-35.2-39-52.3-4 .3-7.4-.5-10.7.5v80.5c3.8-.3 7.4.4 11.2-.6v-62c12.4 17 24.3 33.2 36.3 49.6 1.5.1 2.9.6 4.5-.5 11.2-16.4 22.6-33 34.1-49.8 0 10.8-.1 21.2-.1 31.6v31.5h12c1-4.5 1-76.3 0-80.3-3.8-1-7.8-.3-11.9-.6zM1974.7 520.5c-.1-.1-.3-.2-.7-.5-3.5.2-7.3-.3-10.9.3-.2.6-.3.9-.3 1.2 0 17.8.1 35.7 0 53.5 0 2.3 1.4 4.4.5 6.9-1.2-.1-1.9-.9-2.4-1.7-1.6-2.4-3.6-4.3-5.7-6.2-10.5-9.4-21.2-18.7-31.7-28.1-8.7-7.8-17.2-15.6-25.8-23.5-1.8-1.7-3.8-2.6-6.3-2.4-1.5.1-3 0-4.9 0v80.7c4.4.1 8.3.5 12.3-.3v-31.2c0-10.4.3-20.7-.5-32.2 3 4.4 6.5 6.9 9.6 9.8 7.5 7.1 15.2 13.9 22.9 20.8 9.7 8.7 19.1 17.6 28.7 26.3 2.7 2.5 5.5 4.7 8.2 7.1 2.5-.2 4.8.4 7.2-.5.1-1 .2-1.8.2-2.6 0-25.7-.1-51.3-.2-77 0-.1-.1-.2-.2-.4zM1553.3 527c-1.4-2.4-2.4-5.1-4.6-6.8h-13.5c-2.2 3.3-38.1 68.6-42.7 77.6-.3.6-.5 1.2-.7 1.8 0 .1 0 .3.1.5.1.1.2.3.4.6h11.9c4.3-6.3 6.7-13.6 10.9-19.7h52.4c.5 0 1 .2 1.5.3 3.4 6.5 6.8 13.1 10 19.3h15c-5.1-9.2-9.7-17.8-14.4-26.3-8.8-15.8-17.6-31.5-26.3-47.3zm6.6 43.7H1524c-1 0-2 .1-2.9-1.4 6.7-12.7 13.4-25.6 20.7-39.4 7.3 13.8 14.1 26.7 20.8 39.5-.7 1.4-1.7 1.3-2.7 1.3zM1821.1 568.7v-48.5H1808v80.5h13c.1-5 0-10.3.1-15.5v-16.5z"/><path class="st0" d="M440.7 305.4h-59.4c-.9 5.5-.7 26.3.3 29.7h12c4.1.1 8.2-.3 12.3.2v64.4h-44.5V227.9c11.6-.8 40.9-.5 44.9.6v40h35.1c.2-.6.3-.9.3-1.2v-51.5c0-2.7-.6-5.2-1.3-7.8-1-4-3.5-6.6-7-8.5-4-2.1-8.3-2.4-12.5-2.4-25-.1-50 0-75-.1-2.7 0-5.4.4-7.9 1.1-5.8 1.5-9.9 5.3-11.1 11.4-.5 2.7-.9 5.5-.9 8.4.1 64.1 0 128.3 0 192.4 0 1-.1 2 0 3 .6 7.3 3.3 13.1 10.7 15.9 2.6 1 5.2.8 7.9.8h79c1.3 0 2.7 0 4-.2 6.3-.8 10.9-4 12.8-10.2.8-2.6 1.4-5.4 1.4-8.3v-103c-.1-.8.1-1.9-1.1-2.9zM276.4 324.8c4.6-.3 9.3-.5 13.9-.9 3.8-.3 7.5-1.1 10.6-3.6 4.2-3.4 5.9-7.8 5.9-13.1v-92.5c0-.8 0-1.7-.1-2.5-.8-5.7-3-10.6-8.6-13-3.5-1.5-7.3-2.1-11.2-2.1h-89.5c-1.1 0-2.3-.4-3.6.6v232.1H228c.4-.4.5-.5.6-.7.1-.1 0-.3 0-.5V229.7c0-.3 0-.7.1-1 0-.1.1-.3.2-.4.1-.1.2-.2.4-.3h42.2c.9 9.6.6 69.4-.4 72.9h-11c-3.8 0-7.7-.1-11.5 0-3.6.1-7.2-.6-10.8.5v18.7c0 1.3.1 2.6.6 3.9 2.5 6.6 4.9 13.3 7.3 20 8.1 22.9 16.1 45.8 24.1 68.8 2 5.7 4.2 11.4 6.3 17.1h36.4c-12.7-35-25.2-69.7-37.8-104.5.9-.3 1.3-.6 1.7-.6z"/></svg>
