<svg xmlns="http://www.w3.org/2000/svg" xmlns:xlink="http://www.w3.org/1999/xlink" width="64" height="64"><defs><path id="d" d="M0 .149V25.69h52.76c1.711-2.834 2.79-6.42 2.718-9.72-.064-2.884-.905-5.841-2.849-7.992-.53-.586-1.137-1.11-1.574-1.767-.436-.657-.763-1.49-.477-2.224h-1.454c.164.685-.047 1.415-.42 2.014-.375.598-.9 1.087-1.42 1.565-.758.695-1.528 1.392-2.103 2.241-.575.849-.943 1.878-.8 2.89-.947-.236-2.066-.005-2.631.783-.872-.797-2.221-1.273-3.406-1.201a4.49 4.49 0 00-3.099 1.534c-.814-.394-1.917-.414-2.733-.023a3.02 3.02 0 00-1.623 2.044 3.067 3.067 0 00-2.098-1.261 3.047 3.047 0 00-2.33.717c-.76-.955-1.893-1.718-3.113-1.865a4.798 4.798 0 00-3.461.952 3.547 3.547 0 00-1.422-2.428 3.725 3.725 0 00-2.8-.656c-.273-1.253-1.179-2.484-2.285-3.152a4.906 4.906 0 00-3.744-.53C9.464 5.342 8.33 3.112 6.51 1.721 5.07.62 3.25.021 1.43.021A8.292 8.292 0 000 .15"/><path id="f" d="M51.757.02c-.242 2.89-.513 5.78-1.404 8.547-.674 2.096-2.382 4.426-3.966 6.01-.605.606-1.27 1.163-1.773 1.855-.503.69-.835 1.559-.661 2.392-.8-.23-1.655-.098-2.385.3a3.171 3.171 0 00-1.515 1.88c-.668-1.114-2.006-.919-2.311-.103-1.737-1.102-3.894-1.876-5.911-1.443a7.981 7.981 0 00-4.96 3.396c-.257-.313-.645-.39-1.053-.377a1.358 1.358 0 00-1.041.553c-.436-1.397-1.67-2.709-3.09-3.122-1.422-.412-3.043-.076-4.176.865-.377-1.08-1.705-1.792-2.823-1.495-.817-1.773-2.487-3.392-4.323-4.105a7.888 7.888 0 00-5.775.053c-.065-1-.753-1.92-1.65-2.39a3.085 3.085 0 00-2.916.067v20.052h105.525V12.903a3.078 3.078 0 00-2.915-.066c-.898.468-1.587 1.39-1.652 2.39a7.88 7.88 0 00-5.774-.054c-1.837.713-3.506 2.332-4.323 4.105-1.118-.297-2.447.415-2.823 1.495-1.133-.941-2.754-1.277-4.176-.865-1.42.413-2.654 1.725-3.09 3.122a1.355 1.355 0 00-1.042-.553c-.408-.013-.796.064-1.053.377a7.979 7.979 0 00-4.959-3.396c-2.018-.433-4.174.341-5.911 1.443-.305-.816-1.643-1.011-2.311.103a3.17 3.17 0 00-1.516-1.88c-.729-.398-1.585-.53-2.384-.3.173-.833-.159-1.701-.662-2.392-.502-.692-1.167-1.25-1.773-1.855-1.584-1.584-3.291-3.914-3.966-6.01-.89-2.767-1.161-5.656-1.403-8.546h-2.059z"/><linearGradient id="b" x1="100%" x2="0%" y1="45.116%" y2="50%"><stop offset="0%" stop-color="#118777"/><stop offset="100%" stop-color="#004643"/></linearGradient><rect id="a" width="64" height="64" x="0" y="0" rx="32"/></defs><g fill="none" fill-rule="evenodd"><mask id="c" fill="#fff"><use xlink:href="#a"/></mask><use fill="url(#b)" fill-rule="nonzero" xlink:href="#a"/><path fill="#2F3B57" d="M612.561-90.731c-13.81 2.648-25.897 5.868-35.32 9.795-32.044 13.35-25.404 31.322-53.498 45.318-37.264 18.566-125.323 24.97-202.68 23.365-77.358-1.605-151.71-9.242-229.03-10.966C36.051-24.466-26.443-21.77-62.783-10.087c18.685-.624 36.437 3.667 40.409 8.688 3.969 5.02-3.548 10.319-15.666 14.249-38.193 12.386-111.905 11.366-163.33 3.296-51.43-8.07-88.494-21.348-132.13-32.314-122.648-30.823-295.9-42.652-462.633-43.306-89.322-.35-180.905 2.093-266.207-5.144-73.229-6.213-136.237-19.117-206.655-27.382H-1308v64.767l.401.425c24.9 25.957 79.193 54.008 175.57 59.339 26.684 1.477 55.896.89 78.875-3.094 17.854-3.095 30.475-7.925 44.292-12.296C-976.26 6.831-935.36-1.298-892.635-8.335c75.414-12.421 160.092-21.857 248.17-22.189 88.082-.33 179.802 9.654 229.455 29.506 17.37 6.946 29.147 14.815 45.31 21.974 76.155 33.726 257.24 45.718 381.587 25.268 21.857-3.594 43.774-8.993 44.007-15.956.35-10.673-49.937-18.115-45.695-28.726 3.782-9.459 46.902-13.271 81.77-13.395 60.65-.216 121.858 4.192 172.595 13.26 35.788 6.397 65.789 14.937 100.783 21.651C436.214 36.656 527.34 41.633 612.56 37.694V-90.731z" mask="url(#c)" opacity=".245" style="mix-blend-mode:multiply"/><g mask="url(#c)"><g transform="translate(-31 50)"><mask id="e" fill="#fff"><use xlink:href="#d"/></mask><path d="M0 .149V25.69h52.76c1.711-2.834 2.79-6.42 2.718-9.72-.064-2.884-.905-5.841-2.849-7.992-.53-.586-1.137-1.11-1.574-1.767-.436-.657-.763-1.49-.477-2.224h-1.454c.164.685-.047 1.415-.42 2.014-.375.598-.9 1.087-1.42 1.565-.758.695-1.528 1.392-2.103 2.241-.575.849-.943 1.878-.8 2.89-.947-.236-2.066-.005-2.631.783-.872-.797-2.221-1.273-3.406-1.201a4.49 4.49 0 00-3.099 1.534c-.814-.394-1.917-.414-2.733-.023a3.02 3.02 0 00-1.623 2.044 3.067 3.067 0 00-2.098-1.261 3.047 3.047 0 00-2.33.717c-.76-.955-1.893-1.718-3.113-1.865a4.798 4.798 0 00-3.461.952 3.547 3.547 0 00-1.422-2.428 3.725 3.725 0 00-2.8-.656c-.273-1.253-1.179-2.484-2.285-3.152a4.906 4.906 0 00-3.744-.53C9.464 5.342 8.33 3.112 6.51 1.721 5.07.62 3.25.021 1.43.021A8.292 8.292 0 000 .15" mask="url(#e)"/></g><g fill="#FFF" opacity=".935"><path d="M77.429 47.743c-1.837 1.41-2.981 3.67-3.155 5.968a4.928 4.928 0 00-3.779.537c-1.116.676-2.031 1.923-2.306 3.192a3.754 3.754 0 00-2.827.664 3.599 3.599 0 00-1.435 2.46 4.825 4.825 0 00-3.494-.964c-1.23.148-2.374.921-3.14 1.889a3.07 3.07 0 00-2.353-.727c-.84.1-1.633.59-2.117 1.278a3.053 3.053 0 00-1.64-2.07c-.823-.397-1.936-.377-2.758.023a4.522 4.522 0 00-3.127-1.554c-1.196-.073-2.558.409-3.438 1.216-.57-.798-1.7-1.032-2.656-.793.145-1.025-.227-2.068-.807-2.927-.58-.86-1.358-1.566-2.122-2.27-.526-.485-1.056-.98-1.433-1.586-.378-.606-.59-1.346-.425-2.04h-1.468c.289.744-.041 1.587-.482 2.253-.44.666-1.054 1.197-1.588 1.79-1.962 2.179-2.812 5.174-2.876 8.096-.073 3.341 1.017 6.975 2.743 9.845H84V46.15a8.135 8.135 0 00-1.444-.128c-1.836 0-3.673.604-5.127 1.72M-30.429 47.743c1.837 1.41 2.981 3.67 3.155 5.968a4.928 4.928 0 013.779.537c1.116.676 2.031 1.923 2.306 3.192.98-.17 2.027.076 2.827.664.8.588 1.313 1.48 1.435 2.46a4.825 4.825 0 013.494-.964c1.23.148 2.374.921 3.14 1.889a3.07 3.07 0 012.353-.727c.84.1 1.633.59 2.117 1.278a3.053 3.053 0 011.64-2.07c.823-.397 1.936-.377 2.758.023a4.522 4.522 0 013.127-1.554c1.196-.073 2.558.409 3.438 1.216.57-.798 1.7-1.032 2.656-.793-.145-1.025.227-2.068.807-2.927.58-.86 1.358-1.566 2.122-2.27.526-.485 1.056-.98 1.433-1.586.378-.606.59-1.346.425-2.04h1.468c-.289.744.041 1.587.482 2.253.44.666 1.054 1.197 1.588 1.79 1.962 2.179 2.812 5.174 2.876 8.096.073 3.341-1.017 6.975-2.743 9.845H-37V46.15c.477-.086.96-.128 1.444-.128 1.836 0 3.673.604 5.127 1.72"/></g><path fill="#FFE02E" d="M49.543 62.065a.41.41 0 01-.407.413.41.41 0 01-.406-.413.41.41 0 01.406-.413.41.41 0 01.407.413m-15.049-4.563a.23.23 0 01-.229.233.231.231 0 01-.229-.233c0-.128.103-.232.23-.232a.23.23 0 01.228.232m3.03 3.201c0 .18-.144.326-.321.326a.324.324 0 01-.321-.326c0-.18.144-.326.32-.326.178 0 .322.146.322.326m-4.64-5.499a.175.175 0 01-.174.176.174.174 0 01-.173-.176c0-.098.077-.177.173-.177.096 0 .174.08.174.177m18.099 1.843a.098.098 0 01-.097.098.097.097 0 01-.097-.098c0-.055.043-.099.097-.099.053 0 .097.044.097.099M33.61 55.763a.114.114 0 01-.114.115.114.114 0 01-.113-.115c0-.063.05-.115.113-.115s.113.052.113.115m4.161.515c0 .16-.127.288-.284.288a.286.286 0 01-.283-.288c0-.159.127-.288.283-.288.157 0 .284.13.284.288m13.019 5.414a.242.242 0 01-.24.244.243.243 0 01-.241-.244c0-.135.108-.245.24-.245.133 0 .24.11.24.245m-37.278-4.19a.23.23 0 00.228.233c.127 0 .23-.104.23-.233a.231.231 0 00-.23-.232.23.23 0 00-.228.232m-3.03 3.201c0 .18.143.326.32.326a.324.324 0 00.322-.326.324.324 0 00-.321-.326.323.323 0 00-.321.326m4.64-5.499c0 .097.077.176.173.176a.175.175 0 00.174-.176.175.175 0 00-.174-.177.176.176 0 00-.174.177m-.725.559a.113.113 0 10.227 0 .115.115 0 00-.114-.115.115.115 0 00-.113.115m-4.16.515c0 .16.126.288.283.288a.286.286 0 00.284-.288.286.286 0 00-.284-.288.286.286 0 00-.283.288"/><g transform="translate(-29 50)"><mask id="g" fill="#fff"><use xlink:href="#f"/></mask><path fill="#FFF" d="M51.757.02c-.242 2.89-.513 5.78-1.404 8.547-.674 2.096-2.382 4.426-3.966 6.01-.605.606-1.27 1.163-1.773 1.855-.503.69-.835 1.559-.661 2.392-.8-.23-1.655-.098-2.385.3a3.171 3.171 0 00-1.515 1.88c-.668-1.114-2.006-.919-2.311-.103-1.737-1.102-3.894-1.876-5.911-1.443a7.981 7.981 0 00-4.96 3.396c-.257-.313-.645-.39-1.053-.377a1.358 1.358 0 00-1.041.553c-.436-1.397-1.67-2.709-3.09-3.122-1.422-.412-3.043-.076-4.176.865-.377-1.08-1.705-1.792-2.823-1.495-.817-1.773-2.487-3.392-4.323-4.105a7.888 7.888 0 00-5.775.053c-.065-1-.753-1.92-1.65-2.39a3.085 3.085 0 00-2.916.067v20.052h105.525V12.903a3.078 3.078 0 00-2.915-.066c-.898.468-1.587 1.39-1.652 2.39a7.88 7.88 0 00-5.774-.054c-1.837.713-3.506 2.332-4.323 4.105-1.118-.297-2.447.415-2.823 1.495-1.133-.941-2.754-1.277-4.176-.865-1.42.413-2.654 1.725-3.09 3.122a1.355 1.355 0 00-1.042-.553c-.408-.013-.796.064-1.053.377a7.979 7.979 0 00-4.959-3.396c-2.018-.433-4.174.341-5.911 1.443-.305-.816-1.643-1.011-2.311.103a3.17 3.17 0 00-1.516-1.88c-.729-.398-1.585-.53-2.384-.3.173-.833-.159-1.701-.662-2.392-.502-.692-1.167-1.25-1.773-1.855-1.584-1.584-3.291-3.914-3.966-6.01-.89-2.767-1.161-5.656-1.403-8.546h-2.059z" mask="url(#g)"/></g></g><g fill-rule="nonzero" mask="url(#c)"><path fill="#808B96" d="M31.963 47.407l-.493 3.353h4.734l-.527-3.353z"/><path fill="#F5AE45" d="M33.837 14.467a10.78 10.78 0 00-3.156 7.62v25.517h6.312V22.087a10.78 10.78 0 00-3.156-7.62z"/><path fill="#F09E26" d="M33.844 14.476a11.518 11.518 0 011.57 5.788v27.34h1.579V22.087c0-2.854-1.132-5.592-3.149-7.611z"/><path fill="#E38800" d="M30.681 27.091h6.312v1.578h-6.312zm0 7.89h6.312v1.577h-6.312zm.089-14.201c-.056.433-.086.87-.09 1.307v.27h6.313v-.27a10.592 10.592 0 00-.09-1.308H30.77z"/><path fill="#576573" d="M35.956 49.182l-.279-1.775h-3.714l-.261 1.775z"/><path fill="#F5AE45" d="M13.324 14.467a10.78 10.78 0 00-3.156 7.62v25.517h6.312V22.087a10.78 10.78 0 00-3.156-7.62z"/><path fill="#F09E26" d="M13.33 14.476a11.52 11.52 0 011.572 5.788v27.34h1.578V22.087a10.77 10.77 0 00-3.15-7.611z"/><path fill="#E38800" d="M10.168 27.091h6.312v1.578h-6.312zm0 7.89h6.312v1.577h-6.312zm.089-14.201c-.056.433-.086.87-.09 1.307v.27h6.313v-.27a10.592 10.592 0 00-.09-1.308h-6.132z"/><path fill="#808B96" d="M11.45 47.407l-.493 3.353h4.734l-.527-3.353z"/><path fill="#576573" d="M15.443 49.182l-.279-1.775H11.45l-.261 1.775z"/><path fill="#FF6D2E" d="M23.58 5a15.945 15.945 0 00-7.1 13.268v26.97h14.2v-26.97c0-5.332-2.663-10.31-7.1-13.268z"/><path fill="#EC5B1C" d="M23.58 5h-.004a18.44 18.44 0 012.371 9.037v31.2h4.734V18.268c0-5.332-2.664-10.31-7.1-13.268z"/><path fill="#D45119" d="M16.48 20.779h14.201v1.578H16.48z"/><path fill="#D0D7DF" d="M27.525 46.026h-7.89V24.591c0-2.854 1.498-5.5 3.945-6.968a8.128 8.128 0 013.945 6.968v21.435z"/><path fill="#B7BDC4" d="M7.012 45.237h12.624V26.302l-4.734 11.045-5.184 3.11a5.58 5.58 0 00-2.706 4.781zm33.136 0H27.525V26.302l4.734 11.045 5.183 3.11a5.573 5.573 0 012.706 4.78z"/><path fill="#B7BDC4" d="M23.58 47.604h-3.944v-1.578a3.155 3.155 0 013.155-3.156h.79v4.734z"/><path fill="#B7BDC4" d="M23.58 47.604h3.945v-1.578a3.156 3.156 0 00-3.156-3.156h-.789v4.734z"/><path fill="#808B96" d="M22.791 38.926h1.578v8.678h-1.578zm-3.155 8.678h3.944v3.156h-3.944zm3.944 0h3.945v3.156H23.58zm.922-22.442a1.139 1.139 0 00-1.843 0l-1.313-.876a2.682 2.682 0 014.469 0l-1.313.876zm-4.866 23.231l-12.624-.789v-2.367h12.624zm7.889 0l12.623-.789v-2.367H27.525z"/><path fill="#576573" d="M22.791 47.604h1.578v3.156h-1.578z"/><path fill="#A8B2BF" d="M29.103 29.984l-1.578-3.682v18.935h1.578z"/><path fill="#576573" d="M27.525 45.237v3.156l1.578-.099v-3.057z"/></g></g></svg>
