<svg xmlns="http://www.w3.org/2000/svg" id="Шар_1" x="0" y="0" version="1.1" viewBox="0 0 184 48" xml:space="preserve"><style>.st0{fill:#9f1d22}.st1{fill:#d5212c}.st2{fill:#be2028}.st3{fill:#c82434}.st4{fill:#c82333}.st5{fill:#fff}.st7{fill:#e11f31}.st8{fill:#ba2327}.st9{fill:#e62636}.st10{fill:#b22025}.st11{fill:#c52028}</style><path d="M7.7.8c.8.2 1.6.4 2.5.5 2.6.5 5.1 1.2 7.6 2v11.4c-.8-.2-1.5 0-2.2.3-.1-.3-.3-.6-.5-.9-.2-.4-.4-.7-.6-1.1-2.1-3.6-4.1-7.2-6.2-10.7-.2-.4-.5-.9-.9-1.3V.8h.3z" class="st0"/><path d="M3 22.4v-.6-.5c0-1.9.2-3.8.5-5.7.2-.1.4-.1.6 0l5 2.2 2.4 1 .2.4-5.4 2.7c-1.1.6-2.2 1.4-3.4 1.9.1-.5.1-.9.1-1.4z" class="st1"/><path d="M3.6 31.6c-.3-1.7-.5-3.4-.5-5.1V25.3v-1.5c.1 0 .2.1.2.1 1.9 1.1 3.9 2.2 5.8 3.3.7.4 1.4.8 2.1 1.3-.3.1-.5.1-.7.2-1.6.6-3.1 1.3-4.7 2-.8.4-1.5.7-2.2.9z" class="st2"/><path d="M3.1 23.9v1.4-2.9c.2.4 0 .9 0 1.3v.2z" class="st3"/><path d="M7.9 46.7h-.3l3.3-5.7 2-3.6.1-.1c.5-.9 1-1.9 1.6-2.8.3-.6.6-1.2 1.1-1.8.5.2 1 .3 1.5.3.5-.1 1-.2 1.4-.3 0 .1 0 .2.2.3l2.4 1.4c2.2 1.3 4.4 2.5 6.6 3.8.6.4 1.2.7 1.8.9-1.9 1.2-3.8 2.2-5.8 3.1-4.9 2.2-10 3.7-15.2 4.5h-.7z" class="st1"/><path d="M100 23.5c.7.2 1.3.4 1.9.8 1.3 1 1.9 2.8 1.3 4.4-.6 1.7-2 3-3.8 3.3-.8.2-1.6.3-2.4.3h-6c-.4 0-.5 0-.5-.5V15.5c0-.3 0-.5.4-.5h6.3c1.1 0 2.2.3 3.2.7 1.5.6 2.4 2 2.4 3.6.1 1.5-.8 3-2.2 3.6l-.6.6zm-6.2 3.9v2.2c0 .2 0 .4.3.4 1.3.1 2.6.1 3.8 0 1.3 0 2.4-1.1 2.4-2.4.1-1.2-.8-2.3-2-2.4h-.1c-1.3-.2-2.7-.2-4-.2-.3 0-.2.1-.2.3l-.2 2.1zm0-7.2v1.1c0 .4-.2 1 0 1.3.2.3.8 0 1.3 0 .9.1 1.9 0 2.8-.2 1.2-.2 2-1.3 1.8-2.4v-.2c0-1.1-.8-2-1.9-2.1-1.2-.1-2.4-.1-3.7 0-.3 0-.2.1-.2.3l-.1 2.2z" class="st3"/><path d="M65.9 25c.9.9 1.7 2 2.4 3.1 1 1.4 1.9 2.8 2.9 4.3h-1.9c-2.2 0-1.8 0-2.8-1.5l-3-4.5c-.3-.5-.9-.9-1.5-.8-1.2 0-1.2 0-1.2 1.2V32c0 .3 0 .5-.4.5H58c-.4 0-.5-.1-.5-.5V20v-4.3c0-.4 0-.5.5-.5h5.6c.9 0 1.9.2 2.7.5 2.5.8 3.8 3.5 3 6-.2.7-.7 1.4-1.2 1.9-.5.6-1.3 1.1-2.2 1.4zm-5-4.5V23c0 .2 0 .3.2.3 1 .1 1.9.1 2.9 0 1.5-.2 2.5-1.5 2.4-3 0-1.4-.9-2.3-2.4-2.5h-2.7c-.3 0-.4 0-.4.4v2.3zM83.8 20.8v-5.2c0-.4 0-.5.5-.5h2.4c.3 0 .4 0 .4.4v10.4c0 3.8-3.1 6.8-6.9 6.8-.4 0-.7 0-1.1-.1-2.7-.1-5.1-1.9-6-4.5-.3-.8-.4-1.6-.4-2.5v-10c0-.4.1-.5.5-.5h2.4c.4 0 .5 0 .5.5v10.1c-.1 2.2 1.6 4 3.8 4s4-1.6 4-3.8c-.1-1.7-.1-3.4-.1-5.1z" class="st4"/><path d="M169.1 32.4h-2.4c-.6.1-1.2-.3-1.3-.9-.4-1-.7-2-1.1-2.9 0-.3-.2-.4-.5-.4h-6.3c-.2 0-.5.1-.5.4-.3 1-.7 2-1.1 3-.1.6-.7 1-1.3.9h-2.4c.3-.8.5-1.5.8-2.2 1.9-4.9 3.9-9.8 5.8-14.7 0-.3.3-.4.6-.4h2.5c.2 0 .4.1.4.3 2.2 5.6 4.3 11.1 6.5 16.6l.3.3zm-8.4-14.2c-.3 1-.6 1.9-1 2.9-.5 1.4-1.1 2.9-1.6 4.4 0 .1-.3.4 0 .4h5.2c-.7-2.6-1.9-5.1-2.6-7.7zM126.8 23.7v-8.2c0-.4 0-.5.5-.5h5.6c1.4 0 2.8.3 4.1 1 1.3.8 2.2 2.2 2.2 3.8.3 1.7-.3 3.5-1.6 4.7-1 .9-2.3 1.4-3.6 1.5-1.1.1-2.2.1-3.3.1-.4 0-.5 0-.5.5v5.2c0 .3 0 .5-.4.5h-2.4c-.4 0-.4 0-.4-.5v-8.2h-.2zm3.2-3v2.8c0 .2 0 .4.3.3h3c1.5-.1 2.7-1.4 2.6-2.9.2-1.5-.8-2.8-2.3-3.1h-.1c-1-.1-2.1-.1-3.1 0-.2 0-.2 0-.2.3l-.2 2.6zM174.2 23.3c1-2.4 2.4-4.4 3.4-6.6l.6-1c.2-.4.6-.7 1.1-.6h2.7v.4c-1.9 3.3-3.9 6.5-5.9 9.8-.3.3-.4.6-.5 1V32c0 .4 0 .5-.4.5h-2.4c-.3 0-.4 0-.4-.4v-5.8c0-.3-.1-.6-.2-.9l-5.9-9.9-.1-.3h3.1c.4 0 .6.4.8.7 1.3 2.4 2.8 4.7 3.9 7.4h.2z" class="st5"/><path d="M112 23.3c1.2-2.6 2.6-4.9 3.9-7.4.2-.5.7-.8 1.3-.8h2.6c0 .2 0 .4-.2.5-1.9 3.2-3.9 6.5-5.8 9.7-.1.2-.2.5-.2.8v5.8c0 .4 0 .5-.5.5h-2.4c-.3 0-.4 0-.4-.4v-5.7c0-.4-.1-.7-.3-1l-5.8-9.8c-.1-.1-.1-.2-.2-.3h3.1c.4.1.7.3.9.7 1.3 2.4 2.8 4.7 3.9 7.3l.1.1z" class="st3"/><path fill="#991d20" d="M17.8 14.7V4.1v-.8c4 1.3 7.9 3 11.6 5.2l-5.5 3.3c-.7.3-1.3.7-1.9 1.2-.4.1-.8.3-1.1.6-.8.4-1.5.8-2.3 1.4l-.8-.3z"/><path d="M151.9 29.7l-1.1 2.5c0 .2-.2.1-.3.1h-8.4c-.4 0-.3-.3-.3-.5V17.7v-2.4c0-.3 0-.4.3-.4h2.4c.4 0 .5 0 .5.5V29c0 .5 0 .6.6.6h6.4v.1z" class="st5"/><path d="M37.5 14c1.5 1.1 2.8 2.4 4.2 3.7.4.4.9.8 1.2 1.3 0 .3-.2.3-.4.3l-4.1.6c-1.9.3-3.9.6-5.9.9-1 .1-2 .3-2.9.6l-.9-.6c0-.1 0-.1.1-.1l.1-.1c.7-.1.7-.1.7-.8v-4.6c.7 0 1.3-.1 1.9-.2 1.1-.2 2.4-.3 3.4-.5.9-.1 1.7-.3 2.6-.5z" class="st7"/><path d="M42.3 29.3c-1.5 1.5-3.2 2.9-4.9 4.2-1.8-.6-3.6-1.2-5.4-1.7-.8-.3-1.6-.5-2.4-.8v-4.7l1.1-1c0 .3.3.3.5.4 2.4.8 4.7 1.5 7 2.4 1.2.3 2.7.6 4.1 1.2z" class="st8"/><path d="M29.6 21.3c.9-.3 1.9-.5 2.9-.6 1.9-.4 3.9-.6 5.9-.9l4.1-.6c.2 0 .4 0 .4-.3 1.6 1.6 3 3.3 4.3 5.1H30.9c-.1-1.1-.5-2-1.3-2.7z" class="st9"/><path d="M30.9 23.9h16.2c-.7 1-1.5 2-2.4 3-.9 1-1.1 1.2-1.7 1.7-.3.2-.4.4-.7.8-1.4-.6-2.8-.9-4.3-1.4-2.4-.8-4.7-1.5-7-2.4-.2 0-.5 0-.5-.4.2-.4.3-.8.4-1.3z" class="st10"/><path d="M29.6 31.1c-.1 0 1.6.4 2.4.7 1.8.6 3.7 1.2 5.5 1.8-1.9 1.6-3.9 3-6 4.3l-2 1.2.1-8z" class="st11"/><path d="M37.5 14c-.8.2-1.6.4-2.4.5-1.1.2-2.4.4-3.4.5-.6.1-1.4.2-2.1.2l.1-6.6c1.6.8 3.1 1.8 4.5 2.9 1 .8 2.1 1.4 3 2.2l.3.3z" class="st1"/><path d="M29.7 8.6v4.7c-.3.2-.7.3-1 .2h-1.6L22 13c.6-.5 1.3-.9 1.9-1.2l5.5-3.4s.3.1.3.2z" class="st8"/><path fill="#cb2229" d="M15.6 15c-.7.6-1.2 1.5-1.3 2.4l-2.8 1.5-2.4-1-4.9-2.3c-.2-.1-.4-.1-.6 0 .3-2 .6-4 1.1-6 .2 0 .3.1.5.1 2.6 1.2 5.3 2.4 8 3.5.6.4 1.3.6 2 .8.2.4.3.7.4 1z"/><path d="M15.2 14.2c-.7-.2-1.5-.5-2.1-.9-2.7-1.1-5.3-2.4-8-3.5-.1 0-.2-.1-.3-.1.6-3 1.5-5.9 2.7-8.7.4.4.7.9.9 1.4 2.1 3.6 4.1 7 6.2 10.6.1.3.4.9.6 1.2z" class="st2"/><path d="M11.5 18.9l2.7-1.5v12.9l-3.1-1.6c-.7-.5-1.4-.9-2.1-1.3-1.9-1.3-3.8-2.4-5.8-3.5h-.1v-.2c1.1-.5 2.2-1.2 3.3-1.8l5-2.9.1-.1z" class="st9"/><path d="M11 28.6l3.3 1.7c.1.5.5 1.3.8 1.8-.3.2-1 .5-1.4.6L7 35.2c-.8.4-1.7.8-2.6 1-.3-1.6-.6-3.2-.7-4.7.6-.2 1.3-.5 2-.9 1.6-.6 3.1-1.3 4.7-2 .3.1.4 0 .6 0z" class="st10"/><path fill="#aa1f22" d="M4.3 36.2c.9-.2 1.8-.6 2.6-1l6.9-2.9c.4-.1.7-.3 1.1-.5.2.3.5.6.9.9-.4.5-.8 1.1-1.1 1.8-.6.9-1.1 1.9-1.6 2.8l-.1.1c-.2-.1-.4-.1-.6 0L9 38.8l-3.6 1.5c-.5-1.3-.8-2.7-1.1-4.1z"/><path d="M5.3 40.3l3.6-1.5 3.4-1.4c.2-.1.6-.2.7-.1l-2 3.6-3.5 5.9c-.1 0-.2 0-.2-.2-.7-2.1-1.4-4.2-2-6.3z" class="st0"/><path d="M18.7 32.7l10.5-6.2.4-.2v12.8c-.6-.2-1.2-.6-1.8-.9-2.2-1.2-4.4-2.5-6.6-3.8L18.9 33s-.2-.2-.2-.3z" class="st7"/><path d="M21.4 16.5l-2.8-1.6c.7-.5 1.5-1 2.3-1.4.3-.3.7-.5 1.1-.6l5.1.4h1.6c.3 0 .7 0 1-.2v3.4c-.3.3-.7.3-1.1.2l-4.3-.1-2.3-.1c-.2 0-.4-.1-.6 0z" class="st11"/><path d="M21.4 16.5c.2-.1.5-.1.7 0l2.2.2 4.3.1c.4.1.8 0 1.1-.3v3.2c0 .7 0 .7-.7.9-.1 0-.1.1-.1.1-2.6-1.3-5.1-2.7-7.5-4.2z" class="st1"/></svg>
