<?xml version="1.0" encoding="utf-8"?>
<!-- Generator: Adobe Illustrator 24.2.3, SVG Export Plug-In . SVG Version: 6.00 Build 0)  -->
<svg version="1.1" id="Layer_1" xmlns="http://www.w3.org/2000/svg" xmlns:xlink="http://www.w3.org/1999/xlink" x="0px" y="0px"
	 viewBox="0 0 379.8 135.6" style="enable-background:new 0 0 379.8 135.6;" xml:space="preserve">
<style type="text/css">
	.st0{fill:#BD9A5F;}
	.st1{fill:#FFFFFF;}
</style>
<g>
	<g>
		<path class="st0" d="M74,107.4c-1.4-1.5-2.7-3.1-3.7-4.7c-1-1.6-1.6-3.2-1.8-4.8c-0.3-1.6-0.1-3.2,0.4-4.6c0.5-1.5,1.1-2.8,1.9-4
			c1.2-1.9,2.7-3.6,4.1-5c1.4-1.4,2.8-2.5,4-3.5c0.6-0.4,1.1-0.9,1.6-1.2l15,47.8C95.4,127.4,76.8,110.4,74,107.4 M61.6,60.5
			c3.3-10.2,7.1-23,7.8-25.7c0.5,3.5,2.7,13.8,4.5,21.9C69.9,57.5,65.7,58.8,61.6,60.5 M89.1,75.1c7-4.4,11-7.5,17-11
			c0.7-0.4,0.6-0.8-0.2-0.5c-10.5,4.3-17.6,8.6-17.6,8.6s-2.1-5.4-4.5-14.1c5.5-0.6,8.6-0.2,7.8-0.5c-2.6-1-5.4-1.5-8.3-1.7
			c-2.3-8.6-4.6-20-5.6-32.6c-0.5-5.6-0.2-13.8,0.7-17.7C78,5.6,78,6,77,5.3c-3.6-2.5-7-8-10.1-3.7c1.7,6-0.6,15.5-1.7,21.6
			c-1.7,9.3-5.9,23.8-11.8,41c-4.7,2.5-9.1,5.3-12.8,8.1c0,0,2.4-6.5-12.6-20.2c-15-13.7-13.2-21.4-12.2-24.5
			c1.1-3.1,12.4-17,14.8-11.5c0,0-0.9,2.7-4.3,5.9c-3.4,3.1-4.9,9,0.7,5.1c5.5-3.9,14.3-11.4,14.3-11.4c6-6.5,4.2-15.6-0.2-15.8
			C36.8-0.2,19.1,6.4,6.6,23c-12.5,16.6,1.5,28.3,8.3,34.7c6.8,6.4,18.3,15.3,12.2,19.2c-4.1,2.7-0.8,4.9-0.5,5.3
			c0.3,0.4-4.5,9.3-12.1,8.5c-3.4-0.4,2.5-3.9,4.1-5c1.6-1.1,8.6-6.1,2.8-5.9C19.5,80-4,90.7,0.6,98.5c4.6,7.9,21.1,1.4,33.1-12.2
			c7.8-8.9,13.2-12.3,17.3-14.8c-1.6,4.3-3.7,8.6-6,12.4c5.5,2.4,10.3-6.4,12.2-10.5c0.5-1.1,1.5-3.9,2.7-7.5
			c5.3-3,10.4-4.9,14.8-6.1c0.8,3.3,1.4,5.9,1.7,7c0.6,2,1.3,4.5,2.3,7.4c0.2,0.6,0.4,1.2,0.6,1.9c-0.8,0.5-1.6,1-2.6,1.7
			c-1.4,1-2.9,2.1-4.6,3.5c-1.6,1.4-3.4,3.1-5.1,5.4c-1,1.3-2,3.1-2.8,5c-0.7,2-1.2,4.4-0.9,6.8c0.2,2.5,1.1,4.9,2.2,7
			c1.1,2.1,2.6,4.1,4.1,5.9c2.7,3.2,16.9,16.4,20.5,19.3c0,0,5.4,6.9,10.8,4.4c3.8-1.7,7.2-6.1,4.8-12.4
			C99.6,106.9,89.1,75.1,89.1,75.1"/>
		<path class="st0" d="M101.9,54.6c-2-0.4-3.6,0.3-3.7,1.6c-0.1,1.3,1.5,2.7,3.6,3.1c2,0.4,6.6-0.3,6.7-1.6
			C108.5,56.3,103.9,55,101.9,54.6"/>
	</g>
	<g>
		<path class="st1" d="M167.2,76.1c-1.7,0.8-3.6,1.5-5.7,2c-2.1,0.5-4.5,0.7-7.2,0.7c-2.8,0-5.3-0.4-7.6-1.3
			c-2.3-0.9-4.3-2.1-5.9-3.7c-1.6-1.6-2.9-3.5-3.8-5.7c-0.9-2.2-1.4-4.6-1.4-7.3c0-2.7,0.5-5.2,1.4-7.4c0.9-2.2,2.3-4.1,3.9-5.6
			c1.7-1.5,3.6-2.7,5.9-3.6c2.3-0.8,4.7-1.3,7.3-1.3c2.7,0,5.2,0.4,7.5,1.2c2.3,0.8,4.1,1.8,5.5,3.1l-4.2,4.5
			c-0.9-1-2.1-1.8-3.6-2.5c-1.6-0.7-3.3-1-5.1-1c-1.8,0-3.4,0.3-4.9,1c-1.5,0.6-2.7,1.5-3.7,2.7c-1,1.1-1.8,2.4-2.4,4
			c-0.6,1.5-0.8,3.2-0.8,4.9c0,1.8,0.3,3.5,0.8,5c0.6,1.5,1.4,2.9,2.4,4c1,1.1,2.3,2,3.8,2.6c1.5,0.6,3.2,0.9,5.1,0.9
			c2.6,0,4.9-0.4,6.8-1.2v-8.7h-7.2v-5h13.1V76.1z"/>
		<path class="st1" d="M202.1,64.9L196.9,51l-5.4,13.9H202.1z M194.4,43.7h5.3l14.7,34.2h-7l-3.2-7.8h-14.8l-3.1,7.8h-6.8
			L194.4,43.7z"/>
		<polygon class="st1" points="226.9,43.7 236.4,43.7 245.3,68 245.4,68 254.2,43.7 263.8,43.7 263.8,77.9 257.7,77.9 257.7,50.4 
			257.6,50.4 247.3,77.9 243,77.9 232.8,50.4 232.7,50.4 232.7,77.9 226.9,77.9 		"/>
		<rect x="280.4" y="43.7" class="st1" width="6.1" height="34.2"/>
		<polygon class="st1" points="303.1,43.7 311.2,43.7 327.1,69.3 327.2,69.3 327.2,43.7 333.3,43.7 333.3,77.9 325.5,77.9 
			309.3,51.5 309.2,51.5 309.2,77.9 303.1,77.9 		"/>
		<path class="st1" d="M379.8,76.1c-1.7,0.8-3.6,1.5-5.7,2c-2.1,0.5-4.5,0.7-7.2,0.7c-2.8,0-5.3-0.4-7.6-1.3
			c-2.3-0.9-4.3-2.1-5.9-3.7c-1.6-1.6-2.9-3.5-3.8-5.7c-0.9-2.2-1.4-4.6-1.4-7.3c0-2.7,0.5-5.2,1.4-7.4c0.9-2.2,2.3-4.1,3.9-5.6
			c1.7-1.5,3.6-2.7,5.9-3.6c2.3-0.8,4.7-1.3,7.3-1.3c2.7,0,5.2,0.4,7.5,1.2c2.3,0.8,4.1,1.8,5.5,3.1l-4.2,4.5
			c-0.9-1-2.1-1.8-3.6-2.5c-1.6-0.7-3.3-1-5.1-1c-1.8,0-3.4,0.3-4.9,1c-1.5,0.6-2.7,1.5-3.7,2.7c-1,1.1-1.8,2.4-2.4,4
			c-0.6,1.5-0.8,3.2-0.8,4.9c0,1.8,0.3,3.5,0.8,5c0.6,1.5,1.4,2.9,2.4,4c1,1.1,2.3,2,3.8,2.6c1.5,0.6,3.2,0.9,5.1,0.9
			c2.6,0,4.9-0.4,6.8-1.2v-8.7h-7.2v-5h13.1V76.1z"/>
	</g>
</g>
</svg>
