<svg xmlns="http://www.w3.org/2000/svg" xml:space="preserve" id="Слой_1" x="0" y="0" version="1.1" viewBox="0 0 76 30"><style>.st0{fill:#4fb059}.st1{fill:#fff}</style><g id="Layer_2"><g id="Layer_1-2"><path d="m4.5 13 1.9 1.6c1.2 1 1.3 1.9 1.3 3.4 0 1.8-1.1 2.7-3.3 2.7s-3.2-.8-3.2-2.7v-1.2c0-.3.2-.6.5-.7H3c.3 0 .6.2.7.5V18c0 .4.3.8.7.8h.1c.4 0 .8-.3.8-.7V18c0-.8-.1-1.3-.8-1.9l-1.9-1.6c-1.2-1.1-1.4-1.9-1.4-3.4 0-1.8 1.1-2.7 3.3-2.7s3.3.8 3.3 2.7v1.2c0 .3-.2.6-.5.7H6c-.3 0-.6-.2-.7-.5v-1.3c0-.4-.3-.8-.7-.8h-.1c-.4 0-.8.3-.8.7v.1c0 .8.1 1.2.8 1.8zM13.4 10.4v9.5c0 .3-.2.6-.5.7H11.7c-.3 0-.6-.2-.7-.5v-9.6H9.4c-.3 0-.6-.2-.7-.5V9.2c0-.3.2-.6.5-.7H15c.3 0 .6.2.7.5v.6c0 .3-.2.6-.5.7h-1.8zM20.3 20l-.3-1.7h-2l-.1 1.7c0 .3-.3.6-.6.6h-1c-.5 0-.8-.3-.7-.8l1.6-10.5c0-.5.3-.6.7-.6h2.5c.4 0 .6.2.7.6l1.6 10.5c.1.5-.2.8-.7.8h-1c-.4.1-.7-.2-.7-.6zm-2-3.5h1.6l-.2-1.9-.5-4.4H19l-.5 4.4-.2 1.9zM26.2 13.6h.2l1.9-4.7c.1-.3.4-.4.6-.4H30c.7 0 .8.7.6 1l-2.2 5.1 2.2 5.1c.1.3.1 1-.6 1h-1.1c-.3 0-.5-.1-.6-.4l-1.9-4.7h-.2V20c0 .3-.2.6-.5.7H24.5c-.3 0-.6-.2-.7-.5v-11c0-.3.2-.6.5-.7H25.5c.3 0 .6.2.7.5v4.6zM36.9 8.6c.3 0 .6.2.7.5v.6c0 .3-.2.6-.5.7h-2.5v3.2h1.8c.3 0 .6.2.7.5v.6c0 .3-.2.6-.5.7H34.7v3.2h2.4c.3 0 .6.2.7.5v.6c0 .3-.2.6-.5.7H33c-.3 0-.6-.2-.7-.5V9.2c0-.3.2-.6.5-.7h.1c-.2.1 4 .1 4 .1z" class="st0"/><path d="M41.4 18.8h2.4c.3 0 .6.2.7.5v.7c0 .3-.2.6-.5.7h-4.3c-.3 0-.6-.2-.7-.5v-11c0-.3.2-.6.5-.7H40.7c.3 0 .6.2.7.5V18.8zM52 11.1V18c0 1.8-1.1 2.7-3.3 2.7s-3.3-.8-3.3-2.7v-6.9c0-1.8 1.1-2.7 3.3-2.7s3.3.9 3.3 2.7zm-4.1 0V18c0 .5.4.8.9.8.4 0 .7-.3.8-.8v-6.9c0-.5-.4-.8-.9-.8-.5.1-.8.4-.8.8zM59.4 14.2c.3 0 .6.2.7.5V18c0 1.8-1.1 2.7-3.3 2.7s-3.3-.8-3.3-2.7v-6.9c0-1.8 1.1-2.7 3.3-2.7s3.3.8 3.3 2.7v1c0 .3-.2.6-.5.7H58.4c-.3 0-.6-.2-.7-.5v-1.1c0-.5-.4-.8-.9-.8-.4 0-.7.3-.8.8V18c0 .5.4.8.9.8.4 0 .7-.3.8-.8v-2h-.2c-.3 0-.6-.2-.7-.5v-.6c0-.3.2-.6.5-.7h2.1zM64 19.9c0 .3-.2.6-.5.7H62.3c-.3 0-.6-.2-.7-.5V9.2c0-.3.2-.6.5-.7H63.3c.3 0 .6.2.7.5v10.9zM72.1 12.8c0 .3-.2.6-.5.7H70.4c-.3 0-.6-.2-.7-.5v-1.8c0-.5-.4-.8-.9-.8-.4 0-.8.4-.8.8V18c0 .5.4.8.9.8.4 0 .8-.4.8-.8v-1.7c0-.3.2-.6.5-.7H71.4c.3 0 .6.2.7.5V18c0 1.8-1.1 2.7-3.3 2.7s-3.3-.8-3.3-2.7v-6.9c0-1.8 1.1-2.7 3.3-2.7s3.3.8 3.3 2.7v1.7zM73.4 8.8c.4-.4 1-.4 1.3 0 .2.2.3.4.3.7 0 .3-.1.5-.3.7-.4.4-1 .4-1.3 0-.2-.2-.3-.4-.3-.7.1-.4.2-.6.3-.7zm.2 1.2c.3.3.8.3 1.1 0 .1-.2.2-.3.2-.5s-.1-.4-.2-.6c-.3-.3-.8-.3-1.1 0-.1.2-.2.4-.2.6 0 .1 0 .3.2.5zm.2-1.1h.4c.3 0 .4.1.4.3 0 .1 0 .2-.1.2 0 0-.1.1-.2.1l.3.5h-.2l-.3-.5h-.2v.5h-.2l.1-1.1zm.2.5h.4s.1-.1 0-.1c0 0 0-.1-.1-.1h-.4l.1.2z" class="st1"/></g></g></svg>
