<svg width="226" height="40" fill="none" xmlns="http://www.w3.org/2000/svg"><path fill-rule="evenodd" clip-rule="evenodd" d="M67.801.001h12.014a3.463 3.463 0 0 0-1.113 1.7 24.98 24.98 0 0 0-4.968.733c-1.853.469-3.465 1.605-3.465 3.559.001.611.155 1.213.449 1.75l-.017-.41.249-.128c.225-.12.466-.221.698-.324a16.01 16.01 0 0 1 1.845-.65 25.786 25.786 0 0 1 12.694 0c.626.183 1.242.4 1.844.65.238.096.471.204.698.324l.25.128-.017.41a3.671 3.671 0 0 0 .449-1.75c0-1.954-1.612-3.107-3.465-3.559a26.19 26.19 0 0 0-5.284-.743A4.392 4.392 0 0 1 82.158.608c.357-.196.715-.384 1.038-.606h8.681a2.179 2.179 0 0 1 2.144 2.202v35.582a2.18 2.18 0 0 1-2.144 2.203H67.802a2.179 2.179 0 0 1-2.142-2.203V2.203A2.168 2.168 0 0 1 67.8.001zm13.834 17.326a8.084 8.084 0 0 0 4.618-7.246 12.479 12.479 0 0 1-4.618 7.247zm-10.286-5.325c.432 5.974 6.713 6.478 8.49 9.858 1.779-3.38 8.059-3.893 8.49-9.858l.2-4.404a22.77 22.77 0 0 0-17.371 0l.19 4.404z" fill="url(#a)"/><path fill-rule="evenodd" clip-rule="evenodd" d="M34.97.001h24.076a2.178 2.178 0 0 1 2.143 2.202v35.583a2.18 2.18 0 0 1-2.143 2.203H34.97a2.18 2.18 0 0 1-2.144-2.203V2.203A2.179 2.179 0 0 1 34.97.001zm13.965 27.372a8.087 8.087 0 0 0 4.62-7.246 12.479 12.479 0 0 1-4.62 7.246zm-10.41-5.001c.433 5.974 6.714 6.486 8.492 9.858 1.777-3.38 8.058-3.892 8.49-9.858l.2-4.405a22.77 22.77 0 0 0-17.372 0l.19 4.405zm7.353-10.302c-1.676.077-3.34.323-4.968.734-1.852.47-3.464 1.605-3.464 3.56 0 .611.155 1.212.449 1.748l-.017-.408.249-.128c.224-.12.465-.222.698-.325.6-.254 1.217-.47 1.844-.648a25.762 25.762 0 0 1 12.695 0c.626.181 1.242.398 1.844.648.238.096.471.204.698.325l.249.128-.016.409a3.668 3.668 0 0 0 .448-1.75c0-1.954-1.612-3.106-3.464-3.559a26.12 26.12 0 0 0-5.284-.742 4.383 4.383 0 0 1 1.495-1.085c1.246-.674 2.46-1.33 2.61-3.217-2.31.299-1.148.188-3.424 1.63a4.506 4.506 0 0 0-2.642 2.68z" fill="url(#b)"/><path fill-rule="evenodd" clip-rule="evenodd" d="M2.144.001h3.464l.084 1.87c.431 5.975 6.712 6.477 8.49 9.858 1.777-3.38 8.059-3.892 8.49-9.859l.084-1.869h3.464a2.178 2.178 0 0 1 2.143 2.202v35.583a2.178 2.178 0 0 1-2.143 2.203h-3.456l.108-2.365a22.77 22.77 0 0 0-17.372 0l.108 2.365H2.144A2.174 2.174 0 0 1 0 37.786V2.203A2.179 2.179 0 0 1 2.144.001zm18.618 0a11.819 11.819 0 0 1-4.329 6.342A8.062 8.062 0 0 0 20.97 0h-.208zm-7.71 31.734a24.996 24.996 0 0 0-4.969.734c-1.852.47-3.463 1.605-3.463 3.56.001.61.155 1.212.448 1.749l-.016-.41.249-.128c.224-.12.465-.222.698-.324.6-.255 1.216-.471 1.844-.649a25.76 25.76 0 0 1 12.694 0 17.32 17.32 0 0 1 1.845.65c.238.094.471.203.698.323l.249.128-.016.41a3.674 3.674 0 0 0 .448-1.75c0-1.954-1.612-3.106-3.464-3.56a26.116 26.116 0 0 0-5.285-.741 4.38 4.38 0 0 1 1.496-1.084c1.246-.675 2.459-1.332 2.609-3.219-2.31.3-1.147.188-3.424 1.631a4.465 4.465 0 0 0-2.641 2.68z" fill="url(#c)"/><path fill-rule="evenodd" clip-rule="evenodd" d="M117.276 23.004a7.14 7.14 0 0 0 7.793-7.272v-.06a6.094 6.094 0 0 0-5.815-6.23l5.475-5.369V.386h-14.63v4.19h8.507l-5.168 5.336.739 3.114h1.978c2.659 0 4.237 1.016 4.237 2.826v.059a2.74 2.74 0 0 1-1.927 2.593c-.368.115-.756.15-1.139.104a6.55 6.55 0 0 1-5.225-2.671l-3.265 3.226a10.385 10.385 0 0 0 8.44 3.841zm31.975 0a11.345 11.345 0 0 0 11.532-11.506v-.06a11.502 11.502 0 0 0-23.006.06v.06a11.242 11.242 0 0 0 11.474 11.446zm.058-4.516a6.67 6.67 0 0 1-6.555-6.99v-.06a6.567 6.567 0 0 1 6.497-6.921 6.675 6.675 0 0 1 6.152 4.366c.309.839.446 1.731.403 2.624v.06a6.568 6.568 0 0 1-6.497 6.921zm12.462 4.132h4.852l1.977-4.985h9.156l1.976 4.985h4.977L175.446.224h-4.395l-9.28 22.396zm8.541-9.304 2.874-7.212 2.875 7.212h-5.749zm17.745 9.304h4.768v-6.794l2.501-2.672 6.712 9.466h5.716L198.54 9.818l8.815-9.432h-5.749l-8.781 9.722V.386h-4.768V22.62zm29.967.324c4.669 0 7.951-2.476 7.951-6.896v-.06c0-3.875-2.476-5.497-6.862-6.675-3.739-.982-4.67-1.46-4.67-2.92v-.067c0-1.084.956-1.938 2.784-1.938a9.965 9.965 0 0 1 5.624 2.194l2.476-3.687A12.323 12.323 0 0 0 217.285.07a6.84 6.84 0 0 0-7.577 6.7v.06c0 4.413 2.816 5.659 7.178 6.803 3.623.956 4.361 1.588 4.361 2.824v.06c0 1.306-1.17 2.1-3.123 2.1a9.819 9.819 0 0 1-6.464-2.696l-2.816 3.464a13.56 13.56 0 0 0 9.18 3.56zm-104.44 17.053a5.782 5.782 0 0 0 3.864-1.477v-4.028h-3.93v1.767h2.002v1.322a3.077 3.077 0 0 1-1.869.555 2.74 2.74 0 0 1-2.586-1.835 2.752 2.752 0 0 1-.148-1.11v-.024a2.761 2.761 0 0 1 2.593-2.894 3.248 3.248 0 0 1 2.359.939l1.255-1.554a4.896 4.896 0 0 0-3.548-1.272 4.7 4.7 0 0 0-4.735 4.806v.026a4.583 4.583 0 0 0 1.323 3.43 4.581 4.581 0 0 0 3.42 1.35zm17.4-.162h2.027l.823-2.083h3.822l.823 2.083h2.076l-3.871-9.355h-1.836l-3.864 9.355zm3.565-3.884 1.204-3.012 1.205 3.012h-2.409zm19.82 3.884h1.944V33.81l2.517 3.934h.059l2.542-3.97v6.061h1.977V30.55h-2.143l-2.376 3.926-2.376-3.926h-2.144v9.286z" fill="#fff"/><path d="M180.054 30.55h-1.986v9.285h1.986V30.55z" fill="#fff"/><path fill-rule="evenodd" clip-rule="evenodd" d="M194.723 39.835h1.968V33.93l4.379 5.906h1.687V30.55h-1.961v5.719l-4.238-5.719h-1.835v9.286zm26.957.162a5.778 5.778 0 0 0 3.863-1.477v-4.028h-3.93v1.767h2.003v1.322a3.082 3.082 0 0 1-1.87.555 2.748 2.748 0 0 1-2.741-2.944v-.025a2.756 2.756 0 0 1 2.592-2.894 3.248 3.248 0 0 1 2.359.939l1.255-1.554a4.896 4.896 0 0 0-3.548-1.272 4.707 4.707 0 0 0-3.383 1.402 4.692 4.692 0 0 0-1.352 3.404v.026a4.583 4.583 0 0 0 1.331 3.428 4.599 4.599 0 0 0 3.421 1.351z" fill="#fff"/><defs><linearGradient id="a" x1="93.086" y1="1.906" x2="66.874" y2="37.69" gradientUnits="userSpaceOnUse"><stop stop-color="#F3B90E"/><stop offset="1" stop-color="#E67512"/></linearGradient><linearGradient id="b" x1="60.258" y1="1.904" x2="34.046" y2="37.688" gradientUnits="userSpaceOnUse"><stop stop-color="#F3B90E"/><stop offset="1" stop-color="#E67512"/></linearGradient><linearGradient id="c" x1="27.431" y1="1.903" x2="1.22" y2="37.688" gradientUnits="userSpaceOnUse"><stop stop-color="#F3B90E"/><stop offset="1" stop-color="#E67512"/></linearGradient></defs></svg>
