<svg width="156" height="48" xmlns="http://www.w3.org/2000/svg" xmlns:xlink="http://www.w3.org/1999/xlink"><defs><path id="a" d="M0 .12h103.987V16.3H0z"/></defs><g fill="none" fill-rule="evenodd"><g transform="translate(51.52 15.68)"><mask id="b" fill="#fff"><use xlink:href="#a"/></mask><path d="M103.985 14.674c-.038-.161-1.105-4.344-3.27-6.324 1.062-.999 3.225-2.976 2.505-7.468a.556.556 0 00-.606-.462l-2.851.32a.555.555 0 00-.379.214.563.563 0 00-.105.421c.007.045.588 3.292-1.621 5.244l.054-5.537a.56.56 0 00-.182-.414.557.557 0 00-.431-.137l-2.851.318a.554.554 0 00-.491.562l.333 13.859a.55.55 0 00.571.538c.013 0 .028 0 .042-.002l2.412-.27a.553.553 0 00.49-.519l.202-4.33c.759.79 2.039 2.805 2.242 4.495a.55.55 0 00.609.482l2.85-.318a.55.55 0 00.477-.672zM87.579.691c-.798.05-3.415.52-3.632 4.373-.028.49-.055.956-.082 1.398-.16 2.622-.272 4.517.064 6.158.202.98 1.023 3.261 4.27 3.261.201 0 .412-.01.623-.027 1.354-.112 2.358-.546 2.986-1.291.89-1.059.77-2.417.707-3.146l-.013-.144a.552.552 0 00-.574-.509l-2.048.09a.555.555 0 00-.403.202.558.558 0 00-.116.438c.045.274.091 1.153-.267 1.582-.09.11-.259.26-.644.264l-.028.002c-.295 0-.517-.088-.692-.274-.3-.315-.636-1.082-.54-2.964.023-.436.043-.945.065-1.487.055-1.406.119-3.001.25-4.002l.002-.033c.1-.762.245-1.084.881-1.113.457-.02.774.074.943.275.212.258.189.698.162.842a.551.551 0 00.535.659l2.466.034a.559.559 0 00.56-.531c.002-.064.042-1.57-1.094-2.744C91 1.01 89.522.564 87.58.691zm-5.596-.4l-2.63.339a.55.55 0 00-.482.545l-.024 13.674a.554.554 0 00.576.552h.016l2.862-.213a.548.548 0 00.511-.556L82.605.83a.55.55 0 00-.191-.409.54.54 0 00-.43-.13zm-6.889 8.583c.798-1.052 2.818-3.492 2.608-7.766a.55.55 0 00-.586-.524l-2.299.153a.55.55 0 00-.513.587c.08 1.21-.72 3.793-1.87 5.419l.165-5.254a.553.553 0 00-.559-.565L69.081.97a.556.556 0 00-.39.167.557.557 0 00-.153.395l.297 13.955a.547.547 0 00.622.535l2.307-.305a.55.55 0 00.479-.54l.036-4.09c.469.282 1.84 2.271 2.075 4.235a.55.55 0 00.55.488l2.433-.01.035-.002a.549.549 0 00.513-.563c-.01-.504-.84-4.79-2.79-6.36zM64.24 6.823c-.497.534-1.35.694-1.892.739V3.588c.175-.039.356-.057.53-.057.738 0 1.642.33 1.763 1.913.045.588-.087 1.039-.4 1.379zm3.488-1.902C67.59 2.988 66.92.419 62.714.419c-.904 0-1.964.118-3.147.35a.554.554 0 00-.446.55l.192 13.483c.005.286.225.52.508.543l1.932.15a.534.534 0 00.417-.144.544.544 0 00.177-.405l.001-4.348.986-.053 1.093 4.655a.55.55 0 00.541.45c.014 0 .03 0 .045-.002l1.93-.151a.555.555 0 00.5-.647l-1.37-5.18c.957-.735 1.847-2.063 1.655-4.75zm-10.036 8.082l-3.23.254-.149-3.018 2.09-.115a.551.551 0 00.514-.494l.196-1.854a.55.55 0 00-.58-.61l-2.266.116V4.007h3.354a.547.547 0 00.54-.675l-.187-1.965a.554.554 0 00-.567-.5l-6.135.15a.553.553 0 00-.537.559l.195 13.783c.004.302.25.545.552.545l6.205.002a.554.554 0 00.552-.537l.049-1.8a.558.558 0 00-.171-.415.566.566 0 00-.425-.151zM46.21 9.597c-.296 2.355-1.032 2.503-1.841 2.782l.38-8.75c.28.073.637.065 1.092.672.662.883.656 2.996.369 5.296zM42.53.417c-.173 0-.347.002-.527.007a.55.55 0 00-.536.533l-.444 13.935a.551.551 0 00.508.568c.013 0 .326.025.816.025 1.73 0 5.861-.314 6.814-3.219.795-2.417.667-5.718.467-7.286C49.234 1.91 46.912.418 42.53.418zm-3.294.285L36.78.82a.565.565 0 00-.386.185.563.563 0 00-.138.406l.407 6.804-2.55-7.03a.554.554 0 00-.577-.357l-2.464.272a.553.553 0 00-.493.556l.407 13.412a.55.55 0 00.51.547l2.472.182a.554.554 0 00.59-.58l-.385-5.87 2.131 6.097a.555.555 0 00.486.359l2.6-.003a.558.558 0 00.412-.152.553.553 0 00.172-.407l-.158-13.993a.558.558 0 00-.174-.396.544.544 0 00-.406-.15zM28.824.122l-2.37.18a.551.551 0 00-.51.547s.024 9.062-.01 10.25c-.02.703.074 1.884-.694 1.919-.529.024-.716-.754-.727-1.85-.011-1.233.091-9.664.092-9.751a.55.55 0 00-.492-.554l-2.69-.288a.55.55 0 00-.61.556s.103 10.62.11 10.996c.031 1.376 1.094 3.85 4.08 3.765 3.35-.09 3.956-2.084 4.162-4.411.086-.97.244-9.821.253-10.803a.55.55 0 00-.176-.408.551.551 0 00-.418-.148zM19.171 1.34l-2.603-.143a.548.548 0 00-.557.523l-.04 5.743-1.133.245-.287-6.514a.552.552 0 00-.545-.528l-2.565.065a.555.555 0 00-.559.562l.47 14.484c.004.297.245.54.546.543l2.564-.065c.15 0 .291-.056.396-.16a.554.554 0 00.161-.394l-.28-4.851 1.007.07.178 4.342a.552.552 0 00.545.575l2.679.186h.033a.554.554 0 00.524-.533l.012-13.58a.548.548 0 00-.546-.57zM9.144.625L.534.893a.551.551 0 00-.533.59l.157 2.34c.02.294.267.521.558.516l2.34-.029.528 11.012a.554.554 0 00.588.525l2.643-.178a.553.553 0 00.515-.567L7.023 4.256l2.316-.03c.15 0 .293-.067.395-.177a.547.547 0 00.146-.412l-.167-2.5a.553.553 0 00-.569-.512z" fill="#FFFFFE" mask="url(#b)"/></g><path d="M35.628 27.138l-8.504.23-.306 9.587-.459 5.676-7.408-.077V37.11l-.613-9.51-8.885.383-.306-9.204 13.086-.077 13.548-.383.23 1.227-.383 7.593zm6.49 5.705l1.467-10.276-6.141-12.896-4.172 1.433-5.445-5.85L18.207 0l-2.105 7.792-1.486-4.091-7.389 7.233-4.133 7.238-.182 7.5L0 24.281l1.985 12.016 4.5 7.737 10.62 3.648 8.7.317 14.999-5.493 4.316-10.695-3.003 1.03z" fill="#FFFFFE"/></g></svg>
