<svg xmlns="http://www.w3.org/2000/svg" xmlns:xlink="http://www.w3.org/1999/xlink" width="64" height="64"><defs><linearGradient id="b" x1="93.697%" x2="8.243%" y1="28.048%" y2="71.022%"><stop offset="0%" stop-color="#3279AB"/><stop offset="100%" stop-color="#36394C"/></linearGradient><rect id="a" width="64" height="64" x="0" y="0" rx="32"/></defs><g fill="none" fill-rule="evenodd"><mask id="c" fill="#fff"><use xlink:href="#a"/></mask><use fill="url(#b)" fill-rule="nonzero" xlink:href="#a"/><path fill="#2F3B57" d="M538-14.35c-7.076 1.358-13.269 3.009-18.097 5.022-16.417 6.844-13.015 16.056-27.409 23.231-19.093 9.517-64.21 12.8-103.843 11.977-39.634-.822-77.729-4.737-117.344-5.621-28.682-.64-60.7.742-79.32 6.731 9.574-.32 18.669 1.88 20.704 4.454 2.034 2.574-1.818 5.29-8.026 7.305-19.568 6.35-57.335 5.826-83.683 1.69-26.35-4.137-45.34-10.944-67.696-16.565C-9.553 8.073-98.319 2.009-183.744 1.674c-45.764-.18-92.687 1.073-136.391-2.637-37.52-3.185-69.802-9.8-105.88-14.037H-446v33.201l.206.218c12.757 13.306 40.574 27.686 89.953 30.419 13.671.757 28.638.456 40.411-1.586 9.148-1.587 15.614-4.063 22.693-6.303 16.704-5.285 37.66-9.453 59.55-13.06 38.638-6.368 82.023-11.205 127.15-11.375 45.128-.17 92.12 4.949 117.56 15.126 8.9 3.56 14.934 7.594 23.216 11.264C73.756 60.193 166.535 66.34 230.244 55.857c11.199-1.843 22.428-4.61 22.548-8.18.179-5.47-25.586-9.286-23.412-14.725 1.937-4.849 24.03-6.803 41.895-6.867 31.074-.11 62.433 2.149 88.429 6.798 18.336 3.28 33.706 7.657 51.636 11.099 36.308 6.97 82.997 9.522 126.66 7.502v-65.833z" mask="url(#c)" opacity=".25" style="mix-blend-mode:multiply"/><g mask="url(#c)"><path fill="#FAB659" fill-rule="nonzero" d="M28.717 18.702a8.702 8.702 0 11-17.404 0 8.702 8.702 0 0117.404 0z"/><path fill="#FF9C20" fill-rule="nonzero" d="M11.316 18.604l-.002.098a8.702 8.702 0 1017.403 0l-.002-.097a28.374 28.374 0 00-8.7-1.355c-3.002 0-5.93.464-8.699 1.354z"/><path fill="#F5E277" fill-rule="nonzero" d="M20.015 23.315a4.619 4.619 0 01-4.613-4.613 4.618 4.618 0 014.613-4.613 4.618 4.618 0 014.613 4.613 4.618 4.618 0 01-4.613 4.613z"/><path fill="#E8738B" fill-rule="nonzero" d="M-.699 36.879c-6.62-2.362-5.553-9.59-4.319-13.71a4.392 4.392 0 014.233-3.13c4.3.028 11.523 1.126 11.842 8.148L-.7 36.879z"/><path fill="#FFDDE3" fill-rule="nonzero" d="M.886 24.446c1.331.11 2.668.372 3.85.946 1.364.661 1.92 1.5 1.988 2.991L.76 32.794c-1.407-.502-2.045-1.28-2.277-2.777-.167-1.07-.084-2.434.231-3.943a2.05 2.05 0 012.173-1.628z"/><path fill="#E8738B" fill-rule="nonzero" d="M40.73 36.879c6.62-2.362 5.553-9.59 4.319-13.71a4.392 4.392 0 00-4.233-3.13c-4.301.028-11.524 1.126-11.842 8.148l11.756 8.692z"/><path fill="#FFDDE3" fill-rule="nonzero" d="M39.144 24.446c-1.33.11-2.667.372-3.85.946-1.363.661-1.92 1.5-1.988 2.991l5.966 4.411c1.406-.502 2.045-1.28 2.277-2.777.166-1.07.084-2.434-.231-3.943a2.05 2.05 0 00-2.174-1.628z"/><path fill="#FD99C8" fill-rule="nonzero" d="M41.301 50.61l-17.28 12.277c0 2.326.228 4.138.51 5.49a4.008 4.008 0 003.927 3.183h5.766a3.792 3.792 0 003.459-2.253c3.85-8.62 3.618-18.696 3.618-18.696zm-42.571 0l17.28 12.277c0 2.326-.228 4.138-.51 5.49a4.009 4.009 0 01-3.927 3.183H5.807a3.794 3.794 0 01-3.46-2.253C-1.502 60.687-1.27 50.61-1.27 50.61z"/><path fill="#E8738B" fill-rule="nonzero" d="M41.301 50.61l-17.28 12.277c0 2.326.228 4.137.51 5.49.09.439.253.848.472 1.218 5.388-.951 10.352-3.438 14.318-7.238.284-.272.56-.55.83-.832C41.415 55.58 41.3 50.61 41.3 50.61zM-.12 61.525c.27.282.546.56.83.832 3.966 3.8 8.93 6.287 14.317 7.238.22-.37.382-.779.473-1.219.282-1.352.51-3.163.51-5.49L-1.27 50.612s-.115 4.97 1.15 10.914z"/><path fill="#FAB659" fill-rule="nonzero" d="M15.536 17.6a4.618 4.618 0 004.479 5.715 4.618 4.618 0 004.48-5.714 28.672 28.672 0 00-4.48-.351c-1.515 0-3.012.12-4.479.35z"/><path fill="#FD99C8" fill-rule="nonzero" d="M43.681 43.64c0-12.523-10.595-22.674-23.666-22.674-13.07 0-23.666 10.151-23.666 22.674S6.945 66.315 20.015 66.315 43.681 56.163 43.681 43.64z"/><path fill="#E8738B" fill-rule="nonzero" d="M27.636 38.87c0-3.285-3.412-5.947-7.62-5.947-4.21 0-7.621 2.662-7.621 5.947 0 3.284 3.412 5.947 7.62 5.947 4.209 0 7.62-2.663 7.62-5.947z"/><path fill="#4B5562" fill-rule="nonzero" d="M19.024 38.87c0-1.445-.777-2.617-1.735-2.617-.958 0-1.735 1.172-1.735 2.617s.777 2.617 1.735 2.617c.958 0 1.735-1.172 1.735-2.617zm5.451 0c0-1.445-.776-2.617-1.734-2.617s-1.735 1.172-1.735 2.617.777 2.617 1.735 2.617c.958 0 1.734-1.172 1.734-2.617zM9.571 35.383a.93.93 0 01-.929-.929v-2.102a.93.93 0 111.858.001v2.102a.93.93 0 01-.929.93z"/><path fill="#E8738B" fill-rule="nonzero" d="M8.65 38.846H5.785a.93.93 0 11.001-1.858H8.65a.928.928 0 010 1.858z"/><path fill="#4B5562" fill-rule="nonzero" d="M30.459 35.383a.93.93 0 01-.93-.929v-2.103a.93.93 0 011.859 0v2.103a.93.93 0 01-.93.93z"/><path fill="#E8738B" fill-rule="nonzero" d="M34.245 38.846h-2.864a.93.93 0 11.001-1.858h2.863a.93.93 0 110 1.858z"/></g></g></svg>
