<svg width="198" height="48" xmlns="http://www.w3.org/2000/svg" xmlns:xlink="http://www.w3.org/1999/xlink"><defs><path id="a" d="M0 .133h47.98V48H0z"/></defs><g fill="none" fill-rule="evenodd"><path d="M138.577 24.782c2.17-.813 3.657-2.562 3.657-5.347v-.05c0-1.625-.512-2.98-1.463-3.942-1.122-1.133-2.803-1.75-4.973-1.75h-7.237v17.25h3.754V17.118h3.166c1.828 0 2.95.838 2.95 2.464v.05c0 1.453-1.049 2.439-2.877 2.439h-1.85v3.35h.996l3.657 5.52h4.389l-4.17-6.16zm-75.257 6.16h3.755v-5.564l6.558-11.684h-4.266l-4.145 7.674-4.072-7.674h-4.388l6.558 11.759v5.49zm20.764-8.98v2.968h1.769v1.824c-.95.69-2.17 1.034-3.535 1.034-3.023 0-5.168-2.316-5.168-5.47v-.05c0-2.931 2.17-5.37 4.9-5.37 1.974 0 3.145.64 4.461 1.749l2.365-2.883c-1.78-1.528-3.632-2.366-6.704-2.366-5.169 0-8.947 4.017-8.947 8.92v.05c0 5.1 3.657 8.87 8.971 8.87 3.12 0 5.534-1.232 7.29-2.735v-6.54h-5.402zm18.746 0v2.968h1.77v1.824c-.951.69-2.17 1.034-3.536 1.034-3.022 0-5.168-2.316-5.168-5.47v-.05c0-2.931 2.17-5.37 4.9-5.37 1.975 0 3.145.64 4.462 1.749l2.365-2.883c-1.78-1.528-3.633-2.366-6.705-2.366-5.168 0-8.947 4.017-8.947 8.92v.05c0 5.1 3.657 8.87 8.972 8.87 3.12 0 5.534-1.232 7.289-2.735v-6.54h-5.402zm19.392.356c0-3.055-2.072-5.2-5.144-5.2h-2.11v10.4h2.11c3.072 0 5.144-2.095 5.144-5.15v-.05zm-5.144-8.624c5.364 0 9.07 3.72 9.07 8.575v.05c0 4.853-3.706 8.623-9.07 8.623h-5.865V13.694h5.865zm44.924 17.31l-7.314-17.372h-3.462l-7.313 17.372h3.827l5.169-12.813 2.244 5.565h-3.013l-1.333 3.337h5.692l1.578 3.91h3.925zm.768-2.689c2.048 1.848 4.656 2.76 7.24 2.76 3.682 0 6.266-1.922 6.266-5.348v-.049c0-3.006-1.95-4.262-5.413-5.174-2.95-.764-3.68-1.134-3.68-2.267v-.05c0-.837.755-1.503 2.194-1.503 1.438 0 2.925.64 4.437 1.7l1.95-2.858c-1.731-1.404-3.852-2.193-6.339-2.193-3.486 0-5.973 2.07-5.973 5.2v.049c0 3.425 2.22 4.386 5.656 5.273 2.853.739 3.438 1.232 3.438 2.193v.05c0 1.01-.927 1.626-2.462 1.626-1.95 0-3.56-.814-5.096-2.095l-2.218 2.686zm16.344 2.627h3.754V13.694h-3.754v17.248zm6.883-17.248h3.754v13.799h7.963v3.45h-11.717v-17.25z" fill="#FFF"/><mask id="b" fill="#fff"><use xlink:href="#a"/></mask><path d="M26.825 47.83v-8.066l8.149-10.623a34.964 34.964 0 01-5.05-2.737l-5.935 7.737-5.935-7.737a34.963 34.963 0 01-5.05 2.737l8.148 10.623v8.07c1.892.224 3.797.22 5.673-.004M47.98 25.463a23.906 23.906 0 01-1.032 5.63c-9.068-.543-17.178-4.638-22.96-10.913-5.779 6.273-13.887 10.368-22.953 10.913A24.188 24.188 0 010 25.463c3.04-.11 5.958-.697 8.681-1.69a24.807 24.807 0 00-8.263-4.536 23.853 23.853 0 011.766-5.392 30.517 30.517 0 0111.97 7.228 28.486 28.486 0 005.513-4.576A25.04 25.04 0 015.444 8.673a23.917 23.917 0 014.098-3.925 19.433 19.433 0 008.012 5.355 33.787 33.787 0 01-2.273-8.543A24.16 24.16 0 0120.826.138c.389 3.7 1.49 7.187 3.163 10.322A28.162 28.162 0 0027.152.133a23.87 23.87 0 015.545 1.424 33.791 33.791 0 01-2.274 8.546 19.434 19.434 0 008.008-5.35 23.994 23.994 0 014.106 3.917 25.04 25.04 0 01-14.227 7.827 28.482 28.482 0 005.514 4.576 30.519 30.519 0 0111.97-7.228 24.112 24.112 0 011.76 5.394 24.808 24.808 0 00-8.258 4.533 28.24 28.24 0 008.684 1.69" fill="#F96431" mask="url(#b)"/></g></svg>
