<svg width="151" height="84" viewBox="0 0 151 84" fill="none" xmlns="http://www.w3.org/2000/svg">
<g clip-path="url(#clip0_75_22908)">
<path fill-rule="evenodd" clip-rule="evenodd" d="M74.1143 35.6004C71.7143 38.9147 71.3715 42.8004 74.3429 45.0861C76.6286 46.8004 79.4858 46.229 82.8 43.2564C85.8858 46.229 88.7429 46.9136 91.4858 45.0861C94.9143 42.229 93.3155 37.3147 91.0298 34.8004C89.9475 33.5526 88.1391 31.7597 85.7366 29.3778L85.736 29.3773L85.7356 29.3769L85.7354 29.3767L85.7348 29.3762L85.7342 29.3755L85.734 29.3754L85.7338 29.3752L85.7328 29.3741L85.7307 29.3721L85.7301 29.3715L85.7247 29.3661C84.8298 28.4789 83.8527 27.5102 82.8 26.4576C82 27.2576 81.2001 28.0576 80.5143 28.8576L78.1143 26.4576C77.8858 26.229 77.4286 26.229 77.0858 26.4576L71.4858 32.0576C71.2572 32.2861 71.2572 32.7433 71.4858 33.0861L74.1143 35.6004ZM72.1715 32.1718L77.4286 27.029C77.5429 26.9147 77.7715 26.9147 77.8858 27.029L83.1429 32.1718C83.2572 32.2861 83.2572 32.5147 83.1429 32.629L77.8858 37.7718C77.7703 37.8861 77.5418 37.8861 77.4286 37.7718L72.1715 32.629C72.0572 32.5147 72.0572 32.2861 72.1715 32.1718ZM50.1143 45.5431H51.8286V38.6859H54.6857V37.0859H47.3715V38.6859H50.1143V45.5431ZM42.6857 43.6012L41.7714 45.5429H39.7142L43.3714 37.0869H45.3142L48.7428 45.5429H46.6857L45.8857 43.6012H42.6857ZM45.3142 42.1143L44.1714 39.2572L43.0285 42.1143H45.3142ZM36.1714 45.5431H39.4857V44.0573H36.7429C36.0572 44.0573 35.6 43.4859 35.6 42.9145V37.2002H33.7714V43.1431C33.6572 44.4002 34.8 45.5431 36.1714 45.5431ZM84.3999 46.9138H81.2C82.1142 45.771 82.5714 44.7424 82.8011 43.8281C83.2571 45.0853 83.8285 46.1138 84.3999 46.9138ZM29.4286 45.5431H32.8571V44.0574H30C28.9714 44.0574 28.0571 43.1431 28.0571 42.1145H32.8571V40.6288H28.0571C28.0571 39.6014 28.9714 38.6859 30 38.6859H32.8571V37.0859H29.4286C27.7143 37.0859 26 38.8002 26 41.3145C26 43.8288 27.4857 45.5431 29.4286 45.5431ZM24.2857 41.2003C25.0857 41.6574 25.5429 42.3431 25.5429 43.3717C25.5429 44.1717 25.0857 45.5431 23.3714 45.4288H18V36.9717H23.1429C24.8571 36.9717 25.5429 38.23 25.5429 39.2574C25.5429 39.9431 25.0857 40.6288 24.2857 41.2003ZM22.5714 38.5717H19.7143V40.6288H22.5714C23.1429 40.6288 23.4857 40.0574 23.4857 39.6003C23.6 39.1431 23.3714 38.5717 22.5714 38.5717ZM19.7143 42.0003V43.9431C21.3143 43.9431 22.2286 43.9431 22.6857 44.0574C23.3714 44.0574 23.7143 43.486 23.7143 43.0288C23.7143 42.4574 23.4857 42.0003 22.6857 42.0003H19.7143ZM56.8571 42.3432H58.3428C59.8286 42.3432 60.4 43.2575 60.5143 43.9432C60.6286 44.3992 60.7429 44.9707 60.7429 45.5421H62.6857C62.6314 45.2167 62.6029 44.9169 62.5757 44.6305C62.5456 44.3143 62.5171 44.0145 62.4571 43.7147C62.3428 42.9147 61.8857 42.3432 61.0857 41.8861C62.1143 41.5421 62.5714 40.7432 62.5714 39.485C62.5714 38.4564 61.8857 37.085 60.1714 37.085H55.0286V45.5432H56.8571V42.3432ZM56.8571 38.5718H59.7143C60.5143 38.5718 60.7428 39.1432 60.6286 39.7147C60.6286 40.2861 60.2857 40.8575 59.7143 40.8575H56.8571V38.5718ZM69.0857 43.6002H65.8857L64.9714 45.5431H63.0286L66.5714 37.0859H68.5143L71.9428 45.5419H69.8857L69.0857 43.6002ZM68.6286 42.1145L67.4857 39.2574L66.3428 42.1145H68.6286Z" fill="white"/>
<path fill-rule="evenodd" clip-rule="evenodd" d="M129.771 43.4858C129.543 43.6001 129.429 43.6001 129.2 43.6001C128.862 43.6001 128.635 43.4877 128.409 43.376L128.4 43.3715C128.171 43.2572 128.057 43.1429 127.829 42.9144L126.457 44.1715C126.685 44.5144 127.029 44.7429 127.485 44.8572C127.942 44.9715 128.399 45.0858 128.743 45.0858C129.086 45.0858 129.429 45.0858 129.77 44.9704C129.884 44.9323 129.999 44.8944 130.113 44.8565L130.113 44.8564C130.342 44.7805 130.571 44.7045 130.799 44.6275C131.142 44.5132 131.37 44.2847 131.599 43.9418C131.826 43.5989 131.942 43.3704 132.055 42.9132C132.055 42.5704 132.055 42.2275 131.941 41.9989C131.825 41.7704 131.598 41.5418 131.369 41.4275C131.141 41.3132 130.912 41.1989 130.569 41.0847C130.456 41.0282 130.314 40.9999 130.172 40.9716C130.029 40.9431 129.886 40.9145 129.771 40.8572C129.543 40.8572 129.315 40.7429 129.2 40.6287C129.086 40.5144 128.971 40.4001 128.971 40.2858C128.971 40.0572 129.087 39.9429 129.2 39.9429C129.258 39.9429 129.344 39.9139 129.43 39.885C129.515 39.8562 129.6 39.8275 129.657 39.8275C130.113 39.8275 130.457 40.0561 130.685 40.3989L132.056 39.2561C131.827 38.9132 131.485 38.6847 131.029 38.5704C130.95 38.5508 130.875 38.5312 130.803 38.5122L130.803 38.5122C130.451 38.4203 130.15 38.3418 129.77 38.3418C129.427 38.3418 129.085 38.3418 128.743 38.4561C128.574 38.5131 128.432 38.5698 128.291 38.6263C128.146 38.6844 128.002 38.7422 127.829 38.8001C127.601 38.9144 127.373 39.1429 127.143 39.4858C126.914 39.7144 126.8 40.0572 126.8 40.4001C126.686 40.7429 126.8 41.0858 126.914 41.3144C127.03 41.5418 127.257 41.7704 127.486 41.8858C127.714 42.0001 127.943 42.1132 128.286 42.2287C128.4 42.2858 128.543 42.3144 128.686 42.3429C128.829 42.3715 128.971 42.4001 129.086 42.4572C129.314 42.4572 129.542 42.5715 129.657 42.6847L129.664 42.6913C129.776 42.8044 129.886 42.9154 129.886 43.0287C130 43.2572 129.886 43.3715 129.771 43.4858ZM102.806 41.7604C102.349 41.8759 102.006 42.1033 101.663 42.4473C101.633 42.4772 101.604 42.5072 101.576 42.5373L102.114 38.6856H100.286L100.171 39.4856C100.113 39.4279 100.084 39.3702 100.055 39.3125C100.027 39.2559 99.9989 39.1993 99.9429 39.1427L99.9361 39.1361C99.823 39.024 99.7098 38.9119 99.4857 38.7999C99.4215 38.7357 99.3213 38.7076 99.2053 38.675C99.1147 38.6496 99.0145 38.6214 98.9143 38.5713C98.6857 38.457 98.4583 38.457 98.1143 38.457C97.7356 38.457 97.4353 38.5355 97.0835 38.6274C97.0106 38.6464 96.9356 38.666 96.8571 38.6856L96.8558 38.6865C96.5134 38.9148 96.171 39.143 95.8286 39.3725C95.4857 39.601 95.2571 40.0582 95.1429 40.3999C94.9143 40.7439 94.8 41.1999 94.8 41.6582C94.6846 42.1142 94.6846 42.5725 94.8 42.9153L94.8011 42.9187C94.915 43.2605 95.0293 43.6033 95.256 43.9439C95.4201 44.1901 95.6432 44.3178 95.8832 44.4553C95.9775 44.5093 96.0744 44.5648 96.1714 44.6296C96.5143 44.745 96.9703 44.8582 97.4286 44.8582C97.6999 44.8582 97.8996 44.7866 98.141 44.7001C98.2047 44.6773 98.2713 44.6535 98.3429 44.6296C98.6857 44.5153 99.0297 44.2867 99.2571 43.9439L99.1429 44.5142C99.0286 44.9702 98.9143 45.3142 98.5714 45.657C98.2286 45.9999 97.7714 46.1142 97.2 46.1142C96.8571 46.1142 96.4 45.9999 96.1726 45.8867C95.9313 45.8058 95.7469 45.6692 95.54 45.516C95.4518 45.4507 95.3596 45.3825 95.2571 45.3142L94 46.9142C94.2286 47.1427 94.4571 47.257 94.6857 47.3713H94.5714C95.1429 47.5999 96.2857 47.9427 96.6286 47.9427C97.3143 48.057 97.8857 47.9427 98.3429 47.8285C98.4921 47.7538 98.7392 47.6797 98.9879 47.6051C99.1201 47.5655 99.2528 47.5257 99.3714 47.4856C99.6 47.3713 99.8274 47.257 100.057 47.0296C100.692 46.5013 101.13 45.6791 101.283 44.655C101.377 44.8283 101.485 44.986 101.663 45.0759L102.349 45.4187C102.577 45.533 102.92 45.533 103.149 45.533C103.492 45.533 103.949 45.4187 104.292 45.3056C104.634 45.189 104.977 44.9604 105.206 44.6176L105.092 45.4176H106.92L107.377 42.2176C107.492 41.6462 107.492 41.189 107.492 40.8462V40.8462C107.492 40.5033 107.377 40.1604 107.149 39.8176C106.92 39.589 106.692 39.3604 106.349 39.2462C106.006 39.1319 105.549 39.0176 104.977 39.0176C104.406 39.0176 103.949 39.1319 103.492 39.2462C103.034 39.3604 102.577 39.7033 102.12 40.0461L102.12 40.0462L103.034 41.0747L103.038 41.0714L103.038 41.0713C103.265 40.8439 103.492 40.617 103.834 40.5033C103.903 40.4801 103.968 40.457 104.029 40.4349L104.029 40.4349L104.029 40.4349C104.274 40.347 104.475 40.2747 104.749 40.2747C105.092 40.2747 105.32 40.389 105.549 40.6176C105.776 40.8462 105.892 41.0747 105.776 41.4176H104.406C103.72 41.5319 103.263 41.6462 102.806 41.7604ZM104.863 42.6747H105.32V43.1319C105.32 43.298 105.259 43.4037 105.182 43.5369C105.154 43.5869 105.122 43.6408 105.092 43.7033L104.749 44.0462C104.692 44.1033 104.606 44.1319 104.52 44.1604C104.434 44.189 104.349 44.2176 104.292 44.2747C104.177 44.389 103.949 44.389 103.72 44.389H103.377C103.263 44.389 103.149 44.2747 103.149 44.2747L102.92 44.0462V43.7033C102.92 43.477 103.033 43.3627 103.145 43.2496L103.149 43.2462C103.264 43.1319 103.492 43.0187 103.72 43.0187C103.949 42.9033 104.177 42.9033 104.406 42.9033C104.634 42.6747 104.749 42.6747 104.863 42.6747ZM111.214 41.3938C111.182 41.5044 111.143 41.6377 111.143 41.7713L110.571 45.1999H108.629L109.543 38.9141H111.373L111.257 39.7141L111.6 39.3713C111.657 39.314 111.743 39.2567 111.829 39.1996C111.914 39.1427 112 39.086 112.056 39.0296C112.17 38.9724 112.256 38.9439 112.342 38.9153C112.427 38.8867 112.513 38.8581 112.627 38.801C112.857 38.6856 113.086 38.6856 113.314 38.6856C113.77 38.6856 114.113 38.6856 114.457 38.9141C114.8 39.0284 115.029 39.3713 115.143 39.7141C115.371 39.2582 115.713 39.0296 116.053 38.8016L116.056 38.7999C116.399 38.6856 116.857 38.5713 117.314 38.5713C117.771 38.5713 118.114 38.6856 118.343 38.801C118.571 38.9153 118.8 39.0296 118.914 39.3724C118.938 39.4439 118.962 39.5104 118.985 39.5741L118.985 39.5742L118.985 39.5742C119.071 39.8157 119.143 40.0154 119.143 40.2867C119.219 40.5144 119.194 40.7426 119.168 40.9713C119.156 41.0858 119.143 41.2005 119.143 41.3153L118.571 44.9713H116.743L117.2 41.3141C117.2 40.9701 117.2 40.7427 117.086 40.5141C117.086 40.2856 116.857 40.1713 116.514 40.1713C116.286 40.1713 116.171 40.1713 115.943 40.2856C115.719 40.3976 115.606 40.5097 115.492 40.6218L115.486 40.6284C115.416 40.6984 115.39 40.7684 115.353 40.8647C115.329 40.9256 115.302 40.997 115.257 41.0856C115.257 41.1999 115.229 41.2856 115.2 41.3713C115.171 41.457 115.143 41.5427 115.143 41.657L114.686 44.9713H112.743L113.2 41.6559V41.1987V40.7427C113.143 40.6859 113.115 40.629 113.086 40.5721C113.057 40.5147 113.028 40.4573 112.97 40.3999C112.857 40.2856 112.743 40.2856 112.514 40.2856C112.286 40.2856 112.057 40.2856 111.943 40.3999C111.714 40.5141 111.6 40.6284 111.486 40.7439C111.373 40.857 111.257 41.0856 111.257 41.1999C111.257 41.2478 111.237 41.3151 111.214 41.3938ZM120.4 44.1715C120.588 44.453 120.852 44.5797 121.194 44.7432C121.269 44.7788 121.347 44.8161 121.429 44.8572C121.495 44.8739 121.56 44.8906 121.622 44.9069C121.991 45.0024 122.312 45.0858 122.8 45.0858C123.256 45.0858 123.827 44.9703 124.286 44.7429C124.743 44.5143 125.2 44.1715 125.543 43.8275L124.286 42.8001C124.057 43.0286 123.829 43.2561 123.6 43.3715C123.371 43.4858 123.143 43.6001 122.8 43.6001C122.457 43.6001 122.114 43.4858 121.886 43.2572C121.657 43.0286 121.543 42.8001 121.543 42.3429H126L126.114 41.7715C126.23 41.3155 126.23 40.8572 126.114 40.4001C126 39.9429 125.886 39.6001 125.657 39.3715C125.463 39.0807 125.269 38.9543 125.006 38.7825C124.959 38.7517 124.909 38.7195 124.857 38.6846C124.514 38.5703 124.171 38.4561 123.714 38.4561C123.257 38.4561 122.8 38.5703 122.343 38.6846L122.343 38.6846C121.886 38.8001 121.543 39.0286 121.2 39.3715L121.2 39.3715C120.857 39.7144 120.514 40.0572 120.286 40.3989C120.057 40.8561 119.943 41.1989 119.829 41.7703C119.714 42.2275 119.829 42.6846 119.944 43.1418C120.057 43.6001 120.171 43.8286 120.4 44.1715ZM121.886 40.6286L122 40.5141L122 40.5136C122.076 40.4377 122.152 40.3617 122.229 40.2858C122.343 40.1715 122.457 40.0572 122.685 40.0572C122.8 39.9429 123.029 39.9429 123.256 39.9429C123.6 39.9429 123.827 40.0572 124.056 40.2858C124.285 40.5143 124.285 40.7429 124.285 41.0858V41.0858H121.77L121.77 41.0791V41.0791C121.771 40.9628 121.774 40.7407 121.886 40.6286ZM98.6857 43.1427C98.9143 43.0285 99.1429 42.9142 99.2571 42.7999C99.4857 42.6856 99.6011 42.5702 99.7143 42.3416C99.7452 42.2791 99.7763 42.2252 99.8051 42.1752C99.8819 42.042 99.9429 41.9363 99.9429 41.7702C100.017 41.6226 99.9951 41.5226 99.9706 41.4088C99.9572 41.3463 99.9429 41.2797 99.9429 41.1987C99.9429 41.0856 99.8286 40.857 99.7143 40.7427C99.6571 40.6856 99.5714 40.6285 99.4857 40.5713C99.4 40.5142 99.3143 40.457 99.2571 40.3999C99.1429 40.2856 98.9143 40.2856 98.6857 40.2856C98.4571 40.2856 98.2286 40.2856 98 40.3999C97.9916 40.4041 97.9832 40.4084 97.9748 40.4126C97.7548 40.5236 97.5387 40.6327 97.4286 40.7439C97.3143 40.857 97.2 40.9713 97.0857 41.1999C97.0551 41.2611 97.0245 41.3142 96.996 41.3634C96.9184 41.4979 96.8571 41.604 96.8571 41.7713C96.7749 41.9357 96.811 42.1001 96.8377 42.222C96.8481 42.2696 96.8571 42.3107 96.8571 42.3427C96.8571 42.457 96.9714 42.6856 97.0869 42.7999C97.2 42.9142 97.3154 43.0285 97.5429 43.1427C97.6583 43.257 97.8869 43.257 98.1143 43.257C98.2297 43.257 98.4583 43.257 98.6857 43.1427Z" fill="#3E6FFB"/>
<path d="M99.2571 47.4856C99.2571 47.4856 99.3714 47.4856 99.2571 47.4856C98.9143 47.601 98.5714 47.8285 98.3429 47.8285C97.8857 47.9427 97.3143 47.9427 96.7429 48.057C96.4 48.057 95.2571 47.7142 94.6857 47.4856H18V48.9713H132.286V47.4856H99.2571Z" fill="url(#paint0_linear_75_22908)"/>
</g>
<defs>
<linearGradient id="paint0_linear_75_22908" x1="18" y1="48.2281" x2="132.286" y2="48.2281" gradientUnits="userSpaceOnUse">
<stop stop-color="#DB42FB"/>
<stop offset="0.2519" stop-color="#2F54FB"/>
<stop offset="0.5697" stop-color="#05002A"/>
</linearGradient>
<clipPath id="clip0_75_22908">
<rect width="114.286" height="24" fill="white" transform="translate(18 26)"/>
</clipPath>
</defs>
</svg>
