<svg width="151" height="84" viewBox="0 0 151 84" fill="none" xmlns="http://www.w3.org/2000/svg">
<g clip-path="url(#clip0_75_22946)">
<path d="M37.8165 33.2092C39.491 34.465 40.7468 34.9673 42.8398 35.972C44.3468 36.6418 47.1933 37.7301 49.37 38.8185C46.6072 37.1441 43.3421 35.0511 43.3421 31.3673C43.3421 25.5906 58.2445 26.0092 65.3607 31.3673C65.3607 31.3673 60.7561 24.5859 50.4584 24.5859C43.677 24.5859 38.1514 27.7673 36.3096 30.4464L36.3933 30.6138C36.3933 30.5301 36.1421 31.9534 37.8165 33.2092Z" fill="url(#paint0_linear_75_22946)"/>
<path d="M43.4261 53.0511C43.4261 49.7023 46.1052 47.693 48.6168 46.186C45.6029 47.693 40.4959 49.6186 39.3238 50.2884C38.1517 50.9581 37.4819 51.0418 36.9796 52.0465C36.6447 52.6325 36.4773 53.5535 36.3936 54.1395C38.3191 56.8186 43.761 59.8325 50.5424 59.8325C60.8401 59.8325 65.4447 53.0511 65.4447 53.0511C58.4122 58.4093 43.4261 58.8279 43.4261 53.0511Z" fill="url(#paint1_linear_75_22946)"/>
<path d="M39.3234 50.2884C40.4955 49.6178 45.6024 47.6922 48.6164 46.1861C50.8769 44.7628 53.0536 43.6744 53.0536 42.2512C53.0536 40.9954 51.3792 39.9907 49.4536 38.8186C47.2769 37.7303 44.3466 36.6419 42.9234 35.9721C40.8303 34.9675 39.5745 34.4651 37.9001 33.2093C36.2257 31.9535 36.4769 30.614 36.4769 30.614L36.3094 30.4465C35.8908 31.0326 35.6396 31.7023 35.6396 32.2047C35.6396 35.4698 42.0862 37.1442 42.0862 42.1675C42.0862 47.107 35.6396 48.9489 35.6396 52.1303C35.6396 52.7163 35.8908 53.3861 36.3931 54.0567C36.4769 53.4698 36.5606 52.5489 36.8955 51.9628C37.4815 51.0419 38.1513 50.9582 39.3234 50.2884Z" fill="url(#paint2_linear_75_22946)"/>
<path d="M51.2114 40.8279C51.2114 40.8279 52.1323 41.414 52.2998 41.9163C52.4672 42.4186 51.8812 43.2558 51.3789 43.5907C50.8765 43.9247 50.123 44.0093 50.0393 43.8419C49.7882 43.3387 51.044 43.0047 50.8765 42.2512C50.7091 41.4977 50.2068 41.1628 49.8719 40.9116C49.6207 40.5768 49.2858 40.2419 49.4533 40.1581C49.537 39.907 51.2114 40.8279 51.2114 40.8279Z" fill="url(#paint3_linear_75_22946)"/>
<path fill-rule="evenodd" clip-rule="evenodd" d="M98.4632 39.9143L98.4548 39.9153C98.4223 39.8589 98.4256 39.8041 98.4287 39.7505V39.7504C98.4296 39.7364 98.4304 39.7224 98.4306 39.7085C98.4297 39.5214 98.4297 39.3341 98.4297 39.1467C98.4297 38.9592 98.4297 38.7717 98.4289 38.5842C98.4289 38.4678 98.4289 38.3523 98.418 38.2376C98.4021 38.0676 98.3644 37.901 98.2614 37.7578C98.1543 37.6122 98.0187 37.5209 97.8294 37.5276C97.7643 37.5289 97.6986 37.526 97.6332 37.523L97.585 37.5209C97.3455 37.5125 97.1094 37.4857 96.8884 37.3819C96.8824 37.3794 96.8746 37.3817 96.8639 37.3849C96.8592 37.3862 96.854 37.3878 96.8482 37.3891C96.845 37.3899 96.8417 37.3905 96.8382 37.3911V37.6331V45.3597L96.8379 45.4058V45.4058V45.4058V45.4059V45.4059V45.4059V45.406V45.406V45.406C96.8376 45.4448 96.8372 45.4839 96.839 45.5221C96.8401 45.5481 96.8449 45.5737 96.8502 45.6021C96.8529 45.6167 96.8557 45.6321 96.8583 45.6485L96.9064 45.6503C97.122 45.6583 97.3307 45.666 97.5373 45.631C97.6712 45.6083 97.8043 45.5765 97.9341 45.5363C98.2347 45.4426 98.382 45.2199 98.4188 44.916C98.429 44.8284 98.429 44.7395 98.4289 44.6497L98.4289 44.6305C98.4297 43.6337 98.4297 42.6369 98.4297 41.6401V41.6266C98.4297 41.5608 98.4319 41.4961 98.4341 41.4325V41.4325V41.4324V41.4323V41.4323V41.4322V41.4321L98.4341 41.4318L98.4356 41.388C98.6399 41.2842 98.8475 41.2448 99.0551 41.2147C99.3816 41.1661 99.7081 41.1695 100.03 41.2448C100.331 41.3151 100.523 41.4826 100.561 41.8099C100.598 42.1147 100.632 42.4186 100.634 42.725C100.636 43.0131 100.636 43.3011 100.637 43.5892C100.638 43.9349 100.639 44.2806 100.641 44.6263C100.642 44.741 100.654 44.8574 100.674 44.9704C100.735 45.2852 100.925 45.4953 101.225 45.5983C101.346 45.6393 101.477 45.6603 101.604 45.6762C101.807 45.6996 102.009 45.6912 102.216 45.6402C102.218 45.623 102.219 45.6065 102.221 45.5905C102.224 45.5565 102.227 45.5247 102.227 45.4928V44.7988C102.229 44.1687 102.229 43.5389 102.23 42.9093V42.9091V42.9088L102.23 42.8751C102.23 42.467 102.231 42.0589 102.231 41.6509C102.233 41.2741 102.123 40.9267 101.954 40.5951C101.839 40.3691 101.67 40.1975 101.456 40.0643C101.125 39.8576 100.763 39.7496 100.375 39.7353C100.123 39.7261 99.8706 39.7269 99.6186 39.7412C99.251 39.7621 98.8843 39.7939 98.5302 39.9053C98.5148 39.9102 98.4972 39.9116 98.4803 39.9128L98.4803 39.9129C98.4744 39.9133 98.4687 39.9137 98.4632 39.9143ZM73.8092 39.9957V39.125V38.3071L73.809 38.0312C73.8088 37.846 73.8086 37.6596 73.8092 37.4707C73.8517 37.4819 73.8924 37.4934 73.932 37.5046C74.0253 37.5309 74.1119 37.5554 74.2001 37.5695C74.2838 37.5824 74.3686 37.588 74.4535 37.5935L74.4535 37.5935L74.4535 37.5935C74.5113 37.5973 74.569 37.6011 74.6263 37.6072C74.7284 37.6172 74.8297 37.6273 74.9293 37.6432C75.116 37.6733 75.2299 37.7914 75.3002 37.9588C75.3613 38.1053 75.3814 38.2602 75.3923 38.4167C75.3967 38.4883 75.3966 38.5593 75.3965 38.6313V38.6314V38.6314V38.6315V38.6316V38.6316V38.6317V38.6317V38.6318V38.6319L75.3965 38.6629V44.69C75.3965 44.7015 75.3963 44.7129 75.3961 44.7242C75.3958 44.7467 75.3954 44.769 75.3965 44.7913C75.4007 44.8566 75.3756 44.9076 75.3379 44.9587C75.1679 45.1931 74.9385 45.3455 74.6765 45.4552C74.4161 45.5648 74.1415 45.6101 73.8644 45.6469C73.316 45.7214 72.7652 45.7407 72.2134 45.6904C71.8459 45.6561 71.4867 45.5883 71.1418 45.4501C70.5918 45.2316 70.2117 44.8482 69.9973 44.2965C69.8726 43.9767 69.8023 43.6451 69.7705 43.3044C69.7378 42.9528 69.7211 42.5986 69.7571 42.2453C69.7931 41.8811 69.8776 41.5337 70.0275 41.2013C70.2184 40.7777 70.5214 40.4554 70.9132 40.2134C71.2649 39.9949 71.6458 39.8576 72.0577 39.8032C72.4386 39.7513 72.8171 39.7487 73.1972 39.8032C73.3671 39.8266 73.5287 39.8727 73.6844 39.9472C73.7059 39.9576 73.7279 39.9657 73.7601 39.9775L73.7602 39.9776C73.7743 39.9827 73.7903 39.9886 73.8092 39.9957ZM73.8004 44.1277L73.8035 44.102L73.8035 44.102C73.8075 44.0685 73.8117 44.0345 73.8117 44.0001C73.8117 43.1219 73.81 42.2453 73.8075 41.3654C73.8075 41.3369 73.8024 41.308 73.7975 41.2793C73.7957 41.2692 73.7939 41.2591 73.7924 41.249L73.779 41.2429C73.7466 41.228 73.7192 41.2154 73.6911 41.208C73.3445 41.1209 72.992 41.0841 72.6379 41.1209C72.195 41.1703 71.655 41.4022 71.4658 42.0779C71.3796 42.3843 71.3653 42.6949 71.3888 43.008C71.4005 43.1654 71.4407 43.3161 71.4985 43.4626C71.6458 43.8368 71.9137 44.0729 72.2997 44.186C72.6337 44.2839 72.9711 44.294 73.311 44.2571L73.3501 44.2533C73.4977 44.239 73.649 44.2244 73.7974 44.1575C73.7982 44.1476 73.7993 44.1377 73.8004 44.1277ZM91.2699 45.5336C91.2627 45.7376 91.2633 45.9324 91.2638 46.1247V46.1252V46.1258V46.1264V46.1269V46.1275C91.2641 46.201 91.2643 46.2742 91.2641 46.3474C91.2635 46.527 91.2637 46.7073 91.2639 46.8882V46.8885V46.8889V46.8893V46.8897V46.89V46.8904V46.8908V46.8912V46.8915L91.2641 47.1654V47.9574C91.2543 47.9586 91.2458 47.9604 91.2386 47.9619C91.226 47.9645 91.2172 47.9664 91.2113 47.9632C90.9719 47.846 90.7132 47.8334 90.4545 47.8217C90.3858 47.8175 90.3188 47.8167 90.251 47.8167C90.1129 47.8175 90.0007 47.7598 89.9078 47.6618C89.8098 47.5605 89.7487 47.4383 89.7236 47.3027C89.701 47.1628 89.6817 47.0188 89.6792 46.8774C89.6742 46.6275 89.6748 46.3767 89.6754 46.1264V46.1261C89.6757 46.0427 89.6759 45.9593 89.6759 45.876C89.6759 45.4483 89.676 45.0205 89.6762 44.5928V44.5928V44.5927V44.5927V44.5927V44.5926V44.5926V44.5925V44.5925V44.5925C89.6766 43.3101 89.6771 42.0279 89.6734 40.7448C89.6725 40.5916 89.7144 40.4735 89.8199 40.363C90.0359 40.1336 90.3013 39.9846 90.6001 39.9001C90.8027 39.844 91.0112 39.8071 91.2197 39.777C91.7622 39.6991 92.3072 39.6924 92.8522 39.7351C93.2189 39.7644 93.5781 39.8364 93.923 39.9737C94.4731 40.1914 94.8548 40.574 95.07 41.1257C95.2056 41.4707 95.276 41.8307 95.3061 42.1982C95.3337 42.523 95.3396 42.852 95.3128 43.1777C95.2802 43.5888 95.1797 43.9831 94.9871 44.3507C94.8088 44.6897 94.5627 44.9627 94.2378 45.1703C93.779 45.4641 93.2784 45.6207 92.7392 45.6542C92.3767 45.676 92.0167 45.6718 91.6584 45.6115C91.5818 45.5985 91.5052 45.5825 91.4202 45.5646C91.3731 45.5548 91.3235 45.5444 91.2699 45.5336ZM91.2774 44.1849C91.2957 44.1911 91.3127 44.1976 91.3291 44.2038C91.3524 44.2128 91.3745 44.2212 91.3972 44.2276C91.5471 44.2674 91.7001 44.2852 91.853 44.3031C91.9093 44.3096 91.9656 44.3162 92.0217 44.3239C92.4286 44.3791 92.7894 44.2711 93.1294 44.0593C93.27 43.9706 93.3864 43.855 93.4609 43.7068C93.517 43.598 93.5655 43.485 93.6041 43.3694C93.6953 43.0865 93.702 42.7934 93.6903 42.4996C93.6777 42.2149 93.5865 41.9546 93.4324 41.7143C93.3068 41.5175 93.1361 41.3769 92.9167 41.3007C92.6521 41.2094 92.3792 41.1374 92.0979 41.1575C91.9229 41.1705 91.7487 41.1925 91.5742 41.2146L91.5742 41.2146L91.5741 41.2146C91.5116 41.2225 91.449 41.2304 91.3863 41.2379C91.3603 41.2419 91.3359 41.253 91.3125 41.2637L91.3024 41.2683L91.2902 41.2737L91.2791 41.2781C91.2582 41.4397 91.2557 43.9279 91.2774 44.1849ZM57.5288 43.6218C57.5212 43.8227 57.6167 43.9558 57.7657 44.0571C57.8913 44.1425 58.0336 44.1936 58.1809 44.222C58.3141 44.248 58.4505 44.2681 58.5853 44.2723C59.0625 44.2873 59.5389 44.2672 60.0119 44.1994C60.3217 44.1551 60.6323 44.1149 60.9429 44.0755C60.97 44.0721 60.9975 44.0729 61.0277 44.0738H61.0277H61.0278H61.0279H61.028C61.0425 44.0742 61.0575 44.0747 61.0735 44.0747C61.0757 44.0875 61.0785 44.1004 61.0813 44.1132C61.0869 44.1389 61.0925 44.1645 61.0936 44.1902C61.1011 44.4305 61.0802 44.6658 61.0082 44.8968C60.9044 45.2317 60.6942 45.4619 60.3602 45.5783C60.094 45.6729 59.8194 45.719 59.5406 45.7324C59.091 45.7541 58.6414 45.7558 58.1943 45.6939C57.8427 45.6453 57.4995 45.5649 57.1713 45.4243C56.5861 45.1731 56.1942 44.747 55.99 44.1458C55.8803 43.821 55.82 43.4861 55.7966 43.1454C55.7631 42.6556 55.7698 42.1667 55.8669 41.6811C55.9238 41.399 56.0117 41.1285 56.1524 40.8749C56.293 40.6204 56.4839 40.4127 56.7275 40.2503C57.0792 40.0167 57.4685 39.8803 57.8837 39.8166C58.3643 39.7421 58.8474 39.7354 59.3304 39.779C59.6226 39.8049 59.9081 39.8677 60.1827 39.9782C60.7026 40.1858 61.045 40.5576 61.2125 41.0917C61.3431 41.5078 61.3665 41.9348 61.3322 42.3651C61.3213 42.494 61.2836 42.6188 61.2275 42.736C61.1095 42.983 60.9245 43.1521 60.6616 43.2341C60.4523 43.2978 60.238 43.3363 60.0211 43.3564C59.7231 43.384 59.4242 43.3965 59.1236 43.3865C58.6674 43.3714 58.2128 43.4091 57.7674 43.528L57.7453 43.5325C57.6728 43.5473 57.5987 43.5625 57.5288 43.6218ZM57.4892 42.4499L57.4956 42.4496C57.5103 42.449 57.5257 42.4484 57.5388 42.4421C57.7548 42.3492 57.9825 42.3165 58.2153 42.3032C58.3277 42.297 58.44 42.2907 58.5525 42.2844C58.6713 42.2778 58.7902 42.2711 58.9093 42.2646C59.1086 42.2546 59.2953 42.201 59.4761 42.1131C59.7457 41.9817 59.883 41.5497 59.5155 41.3127C59.3882 41.2307 59.2517 41.1721 59.1069 41.1294C58.7343 41.0189 58.3668 41.0348 58.0102 41.1938C57.8444 41.2684 57.7062 41.3764 57.6058 41.5271C57.445 41.769 57.3931 42.1458 57.481 42.4505L57.4892 42.4499ZM82.9313 43.0397V42.6931C82.9363 42.6931 82.9422 42.6922 82.9472 42.6906L82.9386 42.4901L82.9385 42.4879V42.4879V42.4878V42.4878V42.4877C82.9333 42.3653 82.928 42.2425 82.9221 42.1196C82.902 41.7043 82.7756 41.3176 82.5897 40.95C82.5353 40.842 82.46 40.7407 82.3813 40.6486C82.0615 40.2769 81.6671 40.0224 81.1933 39.8943C80.7152 39.7645 80.2296 39.7193 79.7365 39.7402C79.2844 39.7603 78.8441 39.8399 78.4238 40.014C78.1107 40.1429 77.8319 40.3204 77.6067 40.5758C77.3597 40.8546 77.1722 41.171 77.0658 41.5277C76.9336 41.9706 76.8766 42.4202 76.9436 42.8806C76.9496 42.9242 76.9534 42.9678 76.9572 43.0114L76.9573 43.0116L76.962 43.064C76.9972 43.424 77.0667 43.7781 77.173 44.123C77.2659 44.4228 77.4242 44.6798 77.6418 44.905C77.8989 45.1721 78.207 45.3479 78.5619 45.4475C79.1856 45.6216 79.8211 45.6736 80.4641 45.6376C80.819 45.6175 81.1648 45.5429 81.498 45.4149C82.1787 45.1528 82.5956 44.653 82.7982 43.9665C82.8869 43.6659 82.933 43.3553 82.9313 43.0397ZM81.2887 41.9589C81.3917 42.2309 81.4218 42.5122 81.4101 42.7969C81.4193 43.007 81.3976 43.2063 81.3389 43.4056C81.2092 43.8442 80.9061 44.087 80.4766 44.1816C80.0764 44.2696 79.6771 44.2361 79.2844 44.1289C78.9027 44.0251 78.7009 43.7446 78.5996 43.3838C78.5 43.0271 78.4857 42.6588 78.5109 42.2912C78.5226 42.1154 78.5803 41.9446 78.6532 41.783C78.7369 41.5947 78.8776 41.4615 79.0584 41.3669C79.3816 41.1987 79.729 41.156 80.0882 41.1744C80.2506 41.1819 80.4122 41.2062 80.5687 41.2598C80.9187 41.3803 81.159 41.6131 81.2887 41.9589ZM114.349 41.2007C114.302 40.8273 114.353 40.4966 114.541 40.1969C114.69 39.9541 114.928 39.8386 115.192 39.7774C115.31 39.749 115.434 39.7364 115.556 39.7347C116.081 39.7264 116.605 39.7222 117.128 39.7691C117.527 39.8042 117.908 39.908 118.258 40.0964C118.679 40.3225 118.948 40.6841 119.11 41.1287C119.211 41.405 119.265 41.6946 119.27 41.9893C119.277 42.5402 119.277 43.0911 119.272 43.6437C119.268 43.8965 119.218 44.1435 119.136 44.3846C118.924 45.0293 118.474 45.4135 117.819 45.5651C117.557 45.6228 117.295 45.6521 117.028 45.6488C116.586 45.6446 116.142 45.6463 115.701 45.6488C115.495 45.6496 115.294 45.6186 115.093 45.5759C114.855 45.5257 114.645 45.4186 114.45 45.2754C114.148 45.0527 113.991 44.7396 113.931 44.3804C113.861 43.971 113.9 43.565 114.012 43.1673C114.13 42.7487 114.389 42.4523 114.785 42.2681C115.068 42.1384 115.367 42.0839 115.675 42.0639C115.791 42.0572 115.907 42.0559 116.023 42.0545C116.097 42.0536 116.172 42.0528 116.247 42.0505C116.54 42.0429 116.833 42.0354 117.122 41.981C117.221 41.9626 117.321 41.9324 117.415 41.8939C117.475 41.8705 117.535 41.8294 117.584 41.7834C117.716 41.6536 117.726 41.4636 117.603 41.3221C117.554 41.2685 117.492 41.2191 117.426 41.189C117.321 41.1396 117.211 41.0986 117.099 41.0726C116.672 40.9788 116.239 40.9479 115.8 40.9721C115.426 40.9922 115.054 41.0324 114.688 41.1145C114.62 41.1299 114.554 41.1474 114.481 41.1665L114.481 41.1665L114.481 41.1666C114.439 41.1775 114.396 41.1889 114.349 41.2007ZM117.7 42.8957L117.691 42.8968C117.676 42.8985 117.668 42.8994 117.664 42.9036C117.342 43.1623 116.979 43.2837 116.566 43.2812C116.411 43.2803 116.254 43.3013 116.099 43.3264C115.944 43.3515 115.795 43.3992 115.662 43.4871C115.53 43.5742 115.476 43.6964 115.498 43.8546C115.521 44.0254 115.614 44.1485 115.766 44.2138C115.871 44.259 115.986 44.2883 116.098 44.3042C116.417 44.3494 116.738 44.3469 117.058 44.3352C117.112 44.3335 117.166 44.326 117.218 44.3159C117.492 44.259 117.631 44.115 117.681 43.8412C117.737 43.5405 117.732 43.2373 117.726 42.9203L117.726 42.8919C117.716 42.8936 117.707 42.8948 117.7 42.8957ZM64.4098 41.3414C64.4119 41.3312 64.4144 41.3195 64.4164 41.3052C64.5373 41.2615 64.6563 41.2456 64.7734 41.23L64.7736 41.2299C64.8113 41.2249 64.8488 41.2199 64.8861 41.214C65.1691 41.1713 65.4529 41.1361 65.7401 41.1537C65.9117 41.1654 66.0775 41.1989 66.2332 41.2751C66.4132 41.363 66.5429 41.502 66.599 41.6937C66.625 41.7841 66.6292 41.882 66.6292 41.9758C66.6295 42.3612 66.6294 42.7466 66.6293 43.1319V43.1346V43.1346V43.1347V43.1347C66.6292 43.6475 66.6291 44.1601 66.63 44.6725C66.6309 44.788 66.6417 44.9052 66.666 45.0174C66.7179 45.261 66.8586 45.436 67.0955 45.5231C67.1909 45.5582 67.2897 45.585 67.3894 45.6101C67.5842 45.6581 67.7828 45.6553 67.9809 45.6524C68.0142 45.6519 68.0476 45.6514 68.0809 45.6512C68.1074 45.6506 68.1339 45.6462 68.1602 45.6419L68.1602 45.6419L68.1808 45.6386L68.1981 45.6361C68.2248 45.5655 68.2228 45.4991 68.2209 45.4345C68.2204 45.4179 68.2199 45.4014 68.2199 45.3849C68.2207 44.2128 68.2207 43.0407 68.2199 41.8703C68.2199 41.754 68.2182 41.6384 68.2073 41.5229C68.1529 40.9017 67.8649 40.427 67.3174 40.118C67.2169 40.062 67.1097 40.0159 67.0034 39.9715C66.6593 39.8317 66.2968 39.7647 65.9301 39.738C65.2352 39.6877 64.5412 39.7045 63.8522 39.8141C63.6027 39.8543 63.3582 39.9138 63.133 40.0352C62.9304 40.1457 62.8282 40.3056 62.8282 40.5475C62.8312 41.6919 62.8312 42.8367 62.8313 43.9816C62.8313 44.4717 62.8313 44.9618 62.8316 45.4519C62.8316 45.4944 62.8354 45.5373 62.8392 45.5788L62.8392 45.5789L62.84 45.5886C62.8412 45.6018 62.8424 45.6149 62.8433 45.6277C63.0208 45.6604 63.3666 45.6671 63.5449 45.6319C63.678 45.6051 63.8111 45.5733 63.9392 45.5281C64.2013 45.4377 64.3453 45.2401 64.398 44.9755C64.4164 44.8826 64.4248 44.7846 64.4248 44.6909C64.4256 44.0973 64.4248 43.5054 64.4215 42.9127C64.4195 42.6066 64.4156 42.3003 64.4118 41.994L64.4118 41.9934L64.4118 41.9928L64.4118 41.9923C64.4093 41.788 64.4067 41.5838 64.4047 41.3797C64.4042 41.3678 64.4067 41.3562 64.4098 41.3414ZM108.581 41.3109C108.579 41.323 108.577 41.3334 108.575 41.3431C108.574 41.3494 108.572 41.3553 108.572 41.3611C108.571 41.3667 108.57 41.3723 108.57 41.3778C108.572 41.4511 108.575 41.5245 108.579 41.5981C108.585 41.7559 108.592 41.914 108.592 42.0711C108.596 42.9359 108.596 43.8016 108.592 44.6664C108.592 44.7819 108.58 44.8992 108.556 45.0113C108.501 45.2608 108.351 45.4366 108.11 45.5287C107.944 45.5932 107.771 45.6351 107.594 45.6451C107.467 45.653 107.339 45.6516 107.21 45.6502L107.163 45.6497L107.103 45.6493C107.086 45.6493 107.068 45.645 107.05 45.6404C107.041 45.6383 107.032 45.6361 107.023 45.6342C107.001 45.5658 107.002 45.5001 107.004 45.4354V45.4352L107.004 45.4076L107.004 45.3872V41.5034C107.004 41.4052 107.005 41.307 107.006 41.2089C107.007 40.98 107.009 40.7513 107.002 40.5222C106.995 40.3037 107.091 40.1597 107.269 40.0534C107.435 39.9529 107.617 39.8993 107.803 39.8566C108.097 39.7871 108.394 39.752 108.693 39.7361C109.129 39.7101 109.565 39.6967 110.002 39.7285C110.369 39.7545 110.731 39.8148 111.081 39.9353C111.274 40.0023 111.458 40.0894 111.628 40.2049C112.047 40.4896 112.285 40.8881 112.358 41.3845C112.382 41.5461 112.392 41.7111 112.392 41.8735C112.394 43.0396 112.394 44.2057 112.393 45.3743V45.3762V45.378V45.3799V45.3898C112.393 45.4064 112.393 45.423 112.394 45.4398C112.396 45.5042 112.398 45.5702 112.368 45.6392C111.986 45.6685 111.609 45.6635 111.245 45.5162C110.995 45.414 110.866 45.2165 110.821 44.9569C110.805 44.8707 110.803 44.7811 110.803 44.6932C110.803 44.2431 110.803 43.7932 110.804 43.3434V43.3431C110.804 42.8936 110.805 42.4442 110.805 41.9949L110.805 41.9658C110.805 41.9075 110.805 41.8489 110.794 41.7914C110.749 41.557 110.619 41.3829 110.402 41.2749C110.246 41.1978 110.081 41.1652 109.909 41.1535C109.628 41.1359 109.352 41.1711 109.076 41.2096C108.968 41.2242 108.861 41.2432 108.755 41.2621L108.673 41.2765C108.653 41.2807 108.634 41.2891 108.615 41.2973C108.603 41.3022 108.592 41.3071 108.581 41.3109ZM88.2744 40.7655C88.3882 40.439 88.3974 40.1016 88.348 39.7474C88.339 39.7466 88.3307 39.7459 88.323 39.7451C88.314 39.7441 88.306 39.7432 88.2985 39.7424L88.2984 39.7424C88.2772 39.74 88.2609 39.7382 88.2442 39.7382C88.0627 39.7382 87.8812 39.738 87.6996 39.7378H87.6994H87.6991C87.2754 39.7372 86.8512 39.7367 86.4258 39.739C86.2299 39.7399 86.0332 39.7683 85.8414 39.8194C85.1022 40.0195 84.6769 40.5076 84.522 41.2494C84.4852 41.4235 84.476 41.5993 84.476 41.7768V44.5957C84.476 44.6769 84.4776 44.7598 84.4877 44.8402C84.5061 45.0059 84.5655 45.1558 84.6836 45.2789C84.7899 45.3919 84.918 45.4572 85.0712 45.4898L85.1542 45.5073C85.4458 45.5685 85.7378 45.6298 86.0039 45.7728C86.0089 45.7759 86.0174 45.7743 86.0296 45.772L86.0297 45.772C86.0376 45.7705 86.0471 45.7688 86.0583 45.7678L86.0597 45.7297C86.0619 45.6712 86.0641 45.6111 86.0641 45.5526C86.0645 45.0421 86.0645 44.5318 86.0645 44.0217C86.0645 43.5104 86.0645 42.9993 86.065 42.4884L86.065 42.4603C86.0649 42.3473 86.0648 42.2338 86.0733 42.1209C86.0817 42.0121 86.0959 41.9032 86.1202 41.7986C86.1638 41.601 86.2793 41.4562 86.4593 41.3607C86.5932 41.2904 86.7356 41.2477 86.8871 41.2377C86.9985 41.2315 87.1096 41.2264 87.2209 41.2212C87.2928 41.2178 87.3649 41.2145 87.4371 41.2109C87.4663 41.2093 87.4957 41.2086 87.5251 41.208C87.5918 41.2064 87.6586 41.2049 87.7243 41.1933C87.9813 41.1497 88.1839 41.025 88.2744 40.7655ZM103.825 39.6602C103.857 39.6716 103.887 39.6827 103.916 39.6932L103.916 39.6933C103.981 39.7174 104.038 39.7385 104.097 39.7531C104.183 39.7757 104.271 39.7899 104.359 39.7966C104.502 39.8092 104.644 39.8176 104.788 39.815C105.039 39.8109 105.196 39.9389 105.302 40.1491C105.372 40.2856 105.394 40.4354 105.406 40.5853C105.413 40.6722 105.413 40.7617 105.413 40.8504V40.8507L105.413 41.8068C105.413 42.7618 105.414 43.7172 105.411 44.6725C105.411 44.7939 105.399 44.9178 105.374 45.0376C105.325 45.2745 105.176 45.4352 104.951 45.5215C104.758 45.5968 104.556 45.632 104.352 45.6454C104.183 45.6571 104.015 45.6621 103.847 45.642C103.844 45.6304 103.84 45.6204 103.836 45.6115C103.83 45.5962 103.826 45.5842 103.826 45.5725C103.825 43.6109 103.825 41.6502 103.825 39.6602ZM103.779 38.5076C103.78 38.9839 104.162 39.3741 104.63 39.3598C105.014 39.3816 105.471 39.0551 105.477 38.5226C105.483 38.0354 105.082 37.6653 104.625 37.667C104.111 37.6678 103.777 38.1183 103.779 38.5076Z" fill="white"/>
</g>
<defs>
<linearGradient id="paint0_linear_75_22946" x1="50.8347" y1="38.7892" x2="50.8347" y2="24.6243" gradientUnits="userSpaceOnUse">
<stop stop-color="#161B60"/>
<stop offset="0.0355" stop-color="#14266B"/>
<stop offset="0.1871" stop-color="#0E4F93"/>
<stop offset="0.3423" stop-color="#0971B4"/>
<stop offset="0.4995" stop-color="#058CCE"/>
<stop offset="0.6595" stop-color="#029FE0"/>
<stop offset="0.824" stop-color="#01AAEB"/>
<stop offset="1" stop-color="#00AEEF"/>
</linearGradient>
<linearGradient id="paint1_linear_75_22946" x1="50.9196" y1="46.1309" x2="50.9196" y2="59.7772" gradientUnits="userSpaceOnUse">
<stop stop-color="#4E0900"/>
<stop offset="0.0923" stop-color="#6D2505"/>
<stop offset="0.2404" stop-color="#984B0C"/>
<stop offset="0.3908" stop-color="#BC6B11"/>
<stop offset="0.5415" stop-color="#D78415"/>
<stop offset="0.6928" stop-color="#EB9619"/>
<stop offset="0.8451" stop-color="#F7A01A"/>
<stop offset="1" stop-color="#FBA41B"/>
</linearGradient>
<linearGradient id="paint2_linear_75_22946" x1="44.3462" y1="54.1244" x2="44.3461" y2="30.4232" gradientUnits="userSpaceOnUse">
<stop stop-color="#660308"/>
<stop offset="0.4381" stop-color="#DE1A23"/>
<stop offset="0.6237" stop-color="#DE1A23"/>
<stop offset="1" stop-color="#660308"/>
</linearGradient>
<linearGradient id="paint3_linear_75_22946" x1="50.8686" y1="43.9508" x2="50.8686" y2="40.0473" gradientUnits="userSpaceOnUse">
<stop stop-color="#DE1A22"/>
<stop offset="1" stop-color="#F9D7D8"/>
</linearGradient>
<clipPath id="clip0_75_22946">
<rect width="83.7209" height="36" fill="white" transform="translate(35.6396 24)"/>
</clipPath>
</defs>
</svg>
