<svg width="151" height="84" viewBox="0 0 151 84" fill="none" xmlns="http://www.w3.org/2000/svg">
<path fill-rule="evenodd" clip-rule="evenodd" d="M25 33H40V51H25V33ZM28.6735 48.2609V36.2283H32.3469C33.6735 36.2283 34.6939 36.5217 35.4082 37.0109C36.1224 37.5 36.5306 38.3804 36.5306 39.4565C36.5306 40.0435 36.4286 40.5326 36.1224 41.0217C35.8163 41.5109 35.4082 41.8043 34.898 42C35.6122 42.0978 36.0204 42.4891 36.3265 42.9783C36.6327 43.4674 36.8367 44.0543 36.8367 44.7391C36.8367 45.913 36.5306 46.7935 35.8163 47.3804C35.102 47.9674 34.1837 48.2609 32.8571 48.2609H28.6735ZM30.9184 42.9783V46.4022H32.6531C33.1633 46.4022 33.5714 46.3043 33.7755 46.0109C33.9796 45.7174 34.1837 45.3261 34.1837 44.7391C34.1837 44.1522 34.0816 43.7609 33.8776 43.4674C33.6735 43.1739 33.2653 42.9783 32.8571 42.9783H30.9184ZM30.9184 41.3152H32.2449C32.7551 41.3152 33.1633 41.1196 33.3673 40.9239C33.5714 40.7283 33.7755 40.2391 33.7755 39.75C33.7755 39.163 33.6735 38.7717 33.3673 38.4783C33.0612 38.1848 32.6531 38.087 32.1429 38.087H30.9184V41.3152Z" fill="#FFCC29"/>
<path fill-rule="evenodd" clip-rule="evenodd" d="M54.8094 51.5824H53.9061V33.72H54.8094V51.5824ZM69.8656 51.5824H68.9622V33.72H69.8656V51.5824ZM84.8214 51.5824H84.0184V33.72H84.8214V51.5824ZM114.934 51.5824H114.03V33.72H114.934V51.5824ZM99.8776 51.5824H98.9742V33.72H99.8776V51.5824ZM50.5942 46.9227C50.2931 47.4081 49.8916 47.7964 49.189 48.1847C48.5867 48.573 47.7837 48.7672 46.78 48.7672C45.4751 48.7672 44.4714 48.3789 43.6684 47.6022C42.8654 46.8256 42.4639 45.7578 42.4639 44.3987V40.9038C42.4639 39.5447 42.8654 38.4769 43.568 37.7002C44.2706 36.9236 45.2744 36.5353 46.5792 36.5353C47.8841 36.5353 48.7875 36.8265 49.4901 37.409C50.1927 37.9915 50.4938 38.8652 50.5942 40.0301V40.1272H48.9882C48.9882 39.3506 48.7875 38.8652 48.386 38.3798C47.9845 37.9915 47.4826 37.7973 46.6796 37.7973C45.8766 37.7973 45.3747 38.0885 44.8729 38.5739C44.4714 39.0593 44.2706 39.836 44.2706 40.9038V44.4957C44.2706 45.4665 44.4714 46.2431 44.9732 46.8256C45.4751 47.4081 46.0773 47.6022 46.8803 47.6022C47.4826 47.6022 47.8841 47.5052 48.2856 47.311C48.5867 47.1169 48.8878 46.8256 48.9882 46.5344V43.8162H46.8803V42.6512H50.6946L50.5942 46.9227ZM63.2415 44.4955H60.1299L61.6355 39.2533H61.7359L63.2415 44.4955ZM59.8288 45.8546H63.7434L64.6468 48.8641H66.3531L62.5389 36.9234H60.9329L57.1187 48.8641H58.9254L59.8288 45.8546ZM73.981 36.9234L76.8918 46.6313L79.8027 36.9234H82.0109V48.8641H80.3046V44.3014L80.5053 39.6416H80.4049L77.4941 48.8641H76.2896L73.3787 39.6416H73.2784L73.4791 44.3014V48.8641H71.7727V36.9234H73.981ZM91.0447 48.8641H92.751V36.9234H91.0447V48.8641ZM111.22 48.8641H109.514L104.896 39.9328H104.796V48.8641H103.09V36.9234H104.796L109.514 45.7576V36.9234H111.22V48.8641ZM124.269 48.2818C124.971 47.8935 125.373 47.5052 125.674 47.0198V42.5542H121.86V43.8162H123.968V46.5344C123.867 46.8256 123.566 47.1169 123.265 47.311C122.864 47.5052 122.462 47.6023 121.86 47.6023C121.057 47.6023 120.455 47.311 119.953 46.8256C119.451 46.3402 119.25 45.5636 119.25 44.4957V40.9038C119.25 39.836 119.551 39.0593 119.953 38.5739C120.455 38.0885 120.956 37.7973 121.759 37.7973C122.562 37.7973 123.064 37.9915 123.466 38.3798C123.867 38.7681 124.068 39.3506 124.068 40.1272H125.674V40.0301C125.574 38.8652 125.273 37.9915 124.57 37.409C123.867 36.8265 122.864 36.5353 121.659 36.5353C120.455 36.5353 119.35 36.9236 118.648 37.7002C117.945 38.4769 117.544 39.5447 117.544 40.9038V44.4957C117.544 45.8548 117.945 46.9227 118.748 47.6993C119.551 48.476 120.555 48.8643 121.86 48.8643C122.864 48.8643 123.667 48.6701 124.269 48.2818Z" fill="white"/>
</svg>
