<svg width="151" height="84" viewBox="0 0 151 84" fill="none" xmlns="http://www.w3.org/2000/svg">
<g clip-path="url(#clip0_75_22854)">
<path fill-rule="evenodd" clip-rule="evenodd" d="M42.0557 32H24.0557L23.0557 34H43.0557L42.0557 32ZM45.0557 40H65.0557L64.0557 52H46.0557L45.0557 40ZM87.0557 42H67.0557L68.0557 52H86.0557L87.0557 42ZM89.0557 44H109.056L108.056 52H90.0557L89.0557 44ZM130.056 52H112.056L111.056 50H131.056L130.056 52Z" fill="#E3A355"/>
<path fill-rule="evenodd" clip-rule="evenodd" d="M65.0557 40H45.0557L46.0557 32H64.0557L65.0557 40ZM67.0557 42H87.0557L86.0557 32H68.0557L67.0557 42ZM109.056 44H89.0557L90.0557 32H108.056L109.056 44ZM130.056 32H112.056L111.056 50H131.056L130.056 32ZM42.0557 52H24.0557L23.0557 34H43.0557L42.0557 52Z" fill="#FFFAEE"/>
<path fill-rule="evenodd" clip-rule="evenodd" d="M53.8541 38.7228C54.3106 38.7506 54.7463 38.7645 55.1613 38.7645C55.8058 38.7788 56.45 38.7241 57.0829 38.6013C57.5303 38.5235 57.9468 38.3211 58.2845 38.0173C58.423 37.8752 58.5308 37.7061 58.6013 37.5206C58.6718 37.3351 58.7033 37.1371 58.6941 36.9389C58.7048 36.6858 58.6461 36.4346 58.5244 36.2125C58.3933 36.0071 58.204 35.8455 57.9804 35.7485C57.6623 35.6057 57.3273 35.5036 56.9837 35.4445C56.5644 35.3661 56.0557 35.2829 55.4445 35.2061C55.0498 35.1517 54.7458 35.1037 54.5324 35.0621C54.3747 35.04 54.2233 34.9855 54.0877 34.9021C54.0467 34.8727 54.0136 34.8337 53.9913 34.7885C53.969 34.7433 53.9581 34.6933 53.9597 34.6429C53.9586 34.5962 53.9691 34.5499 53.9903 34.5083C54.0116 34.4667 54.0428 34.431 54.0813 34.4045C54.201 34.33 54.3362 34.284 54.4764 34.2701C54.7031 34.2363 54.9321 34.2208 55.1613 34.2237C55.4541 34.2237 55.7917 34.2317 56.1789 34.2493C56.5639 34.2653 56.948 34.2829 57.3309 34.3021L58.3261 34.3549L58.4253 33.2061C58.1245 33.1741 57.7677 33.1437 57.3581 33.1165C56.9485 33.0893 56.5293 33.0621 56.1005 33.0413C55.6717 33.0205 55.2893 33.0093 54.9501 33.0093C54.3198 33.0031 53.6903 33.0567 53.0701 33.1693C52.6214 33.2373 52.1992 33.4246 51.8477 33.7117C51.6252 33.9503 51.4811 34.2512 51.4345 34.574C51.3878 34.8969 51.441 35.2263 51.5869 35.5181C51.7189 35.7289 51.9104 35.8959 52.1373 35.9981C52.4588 36.1488 52.7988 36.2564 53.1485 36.3181C53.6602 36.4167 54.1766 36.4893 54.6957 36.5357C55.0893 36.5741 55.3927 36.6141 55.6061 36.6557C55.7587 36.6746 55.9057 36.7247 56.0381 36.8029C56.0743 36.8298 56.1034 36.8651 56.1229 36.9058C56.1424 36.9465 56.1517 36.9914 56.1501 37.0365C56.1523 37.0908 56.1427 37.145 56.122 37.1952C56.1013 37.2455 56.07 37.2907 56.0301 37.3277C55.9203 37.4169 55.7889 37.4754 55.6493 37.4973C55.4188 37.5406 55.1845 37.5599 54.9501 37.5549C54.6471 37.5549 54.2936 37.5453 53.8893 37.5261C53.4839 37.5069 53.0813 37.4834 52.6813 37.4557C52.2813 37.4279 51.9303 37.4061 51.6285 37.3901L51.5021 38.5101C51.7853 38.5421 52.1325 38.5788 52.5469 38.6205C52.9613 38.6621 53.3981 38.6957 53.8541 38.7228ZM31.7965 41.0092V47.3772H34.4957V38.4668H32.1837L28.6973 40.3196L29.4973 42.0236L31.7965 41.0092ZM73.4428 40.3996V33.126H77.1228C77.8467 33.1099 78.5696 33.1911 79.2718 33.3676C79.7834 33.4887 80.2401 33.7763 80.5707 34.1852C80.8629 34.5692 81.009 35.1026 81.009 35.7852C81.009 36.4679 80.8629 37.0092 80.5707 37.4092C80.2457 37.8337 79.7884 38.1381 79.2718 38.2748C78.5718 38.4664 77.8481 38.5548 77.1228 38.5372H75.9644V40.3996H73.4428ZM75.9581 36.99H77.0188C77.5277 36.99 77.8925 36.8935 78.1133 36.7004C78.334 36.5068 78.4462 36.2028 78.4462 35.7868C78.4462 35.3708 78.3373 35.0668 78.1261 34.8988C77.9148 34.7308 77.5421 34.646 77.0253 34.646H75.9644L75.9581 36.99ZM70.8812 43.5615L72.2941 50.8415H76.0381L77.0268 45.6047H77.0557L78.0444 50.8415H81.8557L83.2351 43.5615H80.6923L79.929 48.9487H79.6318L78.4734 43.6464H75.6892L74.5692 48.9487H74.2717L73.3964 43.5615H70.8812ZM97.7918 42.1806V33.7998H100.321V42.1806H97.7918ZM55.5357 48.9455V50.1727L57.9949 50.1758V48.9487H58.6445V47.1022H57.9949V45.2047L55.7197 45.2542L55.5357 47.1022H53.9085L56.0413 41.8398H53.2157L51.4669 47.3455V48.9455H55.5357ZM97.7918 51V45.248H100.321V51H97.7918ZM116.668 36.5439V45.4271H119.334V40.2303H119.588L122.448 45.4271H125.448V36.5439H122.782V41.5823H122.542L119.662 36.5439H116.668Z" fill="#001C20"/>
</g>
<defs>
<clipPath id="clip0_75_22854">
<rect width="108.889" height="20" fill="white" transform="translate(23.0557 32)"/>
</clipPath>
</defs>
</svg>
