<svg width="196" height="128" viewBox="0 0 196 128" fill="none" xmlns="http://www.w3.org/2000/svg">
<g clip-path="url(#clip0_990_33760)">
<path d="M53.1185 42.7483H54.448L56.4861 43.3596C56.7621 45.2979 56.0854 46.4213 54.456 46.7295C53.8032 46.8549 53.6015 47.2938 53.8509 48.0461C53.4847 48.2395 53.23 48.4511 53.0867 48.6809C52.9381 48.9161 52.954 49.1407 53.1344 49.3549L53.636 49.9505C53.0681 50.7395 53.5856 51.2254 55.1884 51.4082C55.4697 51.4396 55.6475 51.5885 55.7218 51.855L56.2791 53.7359C56.3534 53.9971 56.5206 54.1747 56.7806 54.2688C58.1871 54.7651 58.487 55.2745 57.6802 55.797L44.8946 52.4584C44.6717 52.4009 44.5895 52.4819 44.6478 52.7014C44.6691 52.785 44.6983 52.8764 44.7354 52.9757L40.0304 51.3612C39.903 51.3142 39.8632 51.228 39.911 51.1026L39.9906 50.891C40.0065 50.8596 40.0569 50.8518 40.1418 50.8675L44.4727 51.902C44.616 51.9333 44.7089 51.8811 44.7513 51.7452L44.815 51.5101C44.8363 51.437 44.8097 51.3873 44.7354 51.3612C43.8703 51.0477 43.1007 50.5671 42.4267 49.9192C42.2197 49.7207 42.1666 49.4882 42.2675 49.2217L43.183 46.8863L53.1185 42.7483ZM49.9259 49.0266C49.9227 48.6608 49.5455 48.3132 48.8773 48.0603C48.2092 47.8073 47.3048 47.6698 46.3632 47.6779C45.4215 47.686 44.5197 47.839 43.8562 48.1034C43.1927 48.3678 42.8217 48.7218 42.8249 49.0876C42.8281 49.4534 43.2053 49.801 43.8735 50.054C44.5416 50.3069 45.446 50.4445 46.3877 50.4364C47.3293 50.4283 48.2311 50.2752 48.8946 50.0108C49.5582 49.7465 49.9291 49.3924 49.9259 49.0266Z" fill="#E25A44"/>
<path d="M56.486 43.3596L65.2114 45.5932C64.7232 46.147 64.1473 46.612 63.4839 46.9882C63.2875 47.1031 63.1336 47.2573 63.0221 47.4506C62.8841 47.6909 62.6984 47.8894 62.4649 48.0462C62.3404 48.1299 62.2352 48.2385 62.1562 48.3648C62.0772 48.4911 62.0263 48.6322 62.0067 48.7789C61.9871 48.9255 61.9994 49.0743 62.0427 49.2155C62.086 49.3567 62.1593 49.487 62.2579 49.5979C63.0142 50.4522 64.2959 51.518 65.506 51.5885C65.7767 51.6042 66.0208 51.68 66.2384 51.8158C67.0876 52.3644 67.0584 52.8581 66.1509 53.297C65.2964 53.7098 64.4949 54.1277 63.7466 54.5509C61.7828 55.6534 59.7607 56.0687 57.6802 55.797C58.4869 55.2746 58.1871 54.7652 56.7806 54.2688C56.5205 54.1748 56.3533 53.9971 56.279 53.7359L55.7218 51.855C55.6475 51.5885 55.4697 51.4396 55.1884 51.4083C53.5855 51.2254 53.068 50.7395 53.6359 49.9506C55.5201 50.5567 57.4573 50.5462 59.4476 49.9192C59.5899 49.875 59.7189 49.7969 59.8233 49.6919C59.9276 49.5868 60.004 49.4581 60.0457 49.3171C60.0875 49.176 60.0932 49.027 60.0625 48.8833C60.0317 48.7395 59.9655 48.6054 59.8695 48.4929C58.7948 47.2311 55.2521 47.6543 53.8509 48.0462C53.6014 47.2938 53.8031 46.8549 54.4559 46.7296C56.0853 46.4213 56.762 45.298 56.486 43.3596Z" fill="#D92222"/>
<path d="M65.2115 45.5931L75.3142 48.3204C74.1784 49.4855 72.947 50.4417 71.6202 51.1888C71.1531 51.4553 70.7153 51.7583 70.3066 52.0979C69.4415 52.8189 68.5313 53.4798 67.5759 54.0807C65.8139 55.1883 64.2986 56.6094 63.0301 58.344C62.8921 58.5321 62.8098 58.7437 62.7833 58.9788C62.7408 59.3446 62.6427 59.7025 62.4887 60.0525C62.2764 60.5227 62.1305 61.0191 62.0509 61.5416C61.552 64.645 61.3025 67.5735 61.3025 70.3269C61.3025 71.7167 61.2043 73.177 61.008 74.7078C60.7453 76.7611 60.9682 79.4571 60.1163 81.338C59.8191 81.9858 59.4688 82.6729 59.0655 83.3991L50.6585 80.5464C52.0862 80.3009 52.1791 79.4101 50.9371 77.874C49.3369 75.9069 48.493 73.2345 47.267 71.0793C46.9745 70.5703 46.8158 69.9965 46.8053 69.41C46.8 69.2167 47.0919 69.295 47.681 69.6451L51.0725 76.3458C51.5024 77.2026 52.1764 77.793 53.0946 78.1169L56.2791 79.2298C57.245 79.5694 57.4945 79.2873 57.0274 78.3834L51.8128 68.2501C51.7327 68.0979 51.7006 67.9256 51.7204 67.7553C51.7403 67.585 51.8113 67.4244 51.9243 67.294L56.4223 62.0666C56.6453 62.0248 56.8231 62.0379 56.9557 62.1058C57.1893 62.226 57.2211 62.3853 57.0513 62.5839L53.3653 66.9413C53.1719 67.1741 53.0529 67.4577 53.0231 67.7562C52.9933 68.0547 53.0542 68.3548 53.1981 68.6184L54.0659 70.2015C54.3896 70.7919 54.8089 70.8677 55.3237 70.4288C57.7439 68.3546 59.1955 66.667 59.6785 65.366C60.0394 64.3838 60.3127 63.2448 60.4985 61.9491C60.7108 60.4966 60.3445 59.227 59.3998 58.1403C56.0508 56.5363 52.6912 55.366 49.321 54.6293L44.7354 52.9757C44.6982 52.8764 44.669 52.7849 44.6478 52.7014C44.5894 52.4819 44.6717 52.4009 44.8946 52.4584L57.6802 55.797C59.7607 56.0687 61.7829 55.6533 63.7466 54.5509C64.495 54.1277 65.2964 53.7097 66.1509 53.297C67.0584 52.8581 67.0876 52.3644 66.2384 51.8158C66.0208 51.6799 65.7767 51.6042 65.506 51.5885C64.2959 51.518 63.0142 50.4521 62.2579 49.5979C62.1593 49.487 62.086 49.3566 62.0427 49.2154C61.9994 49.0743 61.9872 48.9255 62.0067 48.7788C62.0263 48.6322 62.0772 48.4911 62.1562 48.3648C62.2352 48.2385 62.3404 48.1299 62.4649 48.0461C62.6984 47.8894 62.8841 47.6909 63.0221 47.4505C63.1336 47.2572 63.2875 47.1031 63.4839 46.9881C64.1473 46.612 64.7232 46.147 65.2115 45.5931ZM70.1474 48.9726C70.1467 48.6068 69.7728 48.2566 69.108 47.9991C68.4431 47.7416 67.5418 47.5978 66.6022 47.5994C66.137 47.6002 65.6763 47.6367 65.2466 47.7068C64.8169 47.7768 64.4266 47.8791 64.0978 48.0077C63.7691 48.1364 63.5084 48.2889 63.3307 48.4565C63.1529 48.6242 63.0616 48.8037 63.0619 48.9849C63.0626 49.3507 63.4365 49.7009 64.1013 49.9584C64.7662 50.2159 65.6675 50.3597 66.6071 50.3581C67.0724 50.3573 67.533 50.3208 67.9627 50.2507C68.3924 50.1807 68.7828 50.0784 69.1115 49.9498C69.4402 49.8211 69.7009 49.6686 69.8787 49.501C70.0564 49.3333 70.1477 49.1538 70.1474 48.9726Z" fill="#C9020B"/>
<path d="M43.183 46.8862L42.2675 49.2217C42.1666 49.4881 42.2197 49.7206 42.4267 49.9192C43.1007 50.567 43.8703 51.0477 44.7354 51.3612C44.8097 51.3873 44.8363 51.437 44.815 51.5101L44.7513 51.7452C44.7089 51.8811 44.616 51.9333 44.4727 51.902L40.1418 50.8675C40.0569 50.8518 40.0065 50.8596 39.9906 50.891L39.911 51.1026C39.8632 51.228 39.903 51.3142 40.0304 51.3612L44.7354 52.9756L49.321 54.6292L44.4647 56.4553L40.8265 55.4678C40.6806 55.4269 40.527 55.4199 40.3778 55.4474C40.2286 55.4749 40.0876 55.5361 39.966 55.6263C39.8443 55.7165 39.7452 55.8333 39.6763 55.9675C39.6073 56.1018 39.5705 56.2499 39.5686 56.4004L39.4412 68.446L39.1945 68.7908C39.0458 68.9998 38.8548 69.0521 38.6212 68.9476C38.271 68.7856 37.7774 68.7072 37.1405 68.7124L36.3444 54.786V52.4976C37.3793 49.6762 39.6589 47.8058 43.183 46.8862Z" fill="#EC9064"/>
<path d="M75.3141 48.3204C76.4871 49.4803 76.8984 50.8596 76.5481 52.4584C75.0196 53.7332 74.0112 55.4025 73.5229 57.4663C73.4857 57.6335 73.4088 57.7745 73.292 57.8895C73.1859 57.9888 73.0585 57.9809 72.9099 57.866C72.7188 57.7197 72.5728 57.7563 72.472 57.9757C72.2809 58.3832 71.9943 58.587 71.6122 58.587C71.4795 57.7719 71.2778 57.1946 71.0072 56.855C70.6516 56.4109 70.1872 56.4762 69.614 57.0509C68.7701 57.3749 68.2632 57.9652 68.0934 58.8221C67.2813 62.9392 66.4746 66.9308 65.6732 70.7971C64.1553 71.0322 63.1654 71.735 62.7037 72.9053C61.3874 76.2491 61.5175 79.6399 63.0938 83.0778C62.0004 83.4174 60.6577 83.5245 59.0654 83.3991C59.4688 82.6729 59.8191 81.9858 60.1163 81.338C60.9681 79.4571 60.7452 76.7611 61.0079 74.7078C61.2043 73.177 61.3025 71.7167 61.3025 70.3269C61.3025 67.5735 61.552 64.645 62.0509 61.5416C62.1305 61.0191 62.2764 60.5227 62.4887 60.0525C62.6426 59.7025 62.7408 59.3446 62.7833 58.9788C62.8098 58.7437 62.8921 58.5321 63.0301 58.344C64.2986 56.6094 65.8138 55.1883 67.5759 54.0807C68.5312 53.4798 69.4415 52.8189 70.3066 52.0979C70.7152 51.7583 71.1531 51.4553 71.6202 51.1888C72.947 50.4417 74.1783 49.4855 75.3141 48.3204Z" fill="#970003"/>
<path d="M76.5482 52.4584C76.5216 58.6392 76.3783 64.611 76.1183 70.3739C75.9829 73.5087 74.4783 74.2532 71.7078 76.5103C68.9957 78.7099 66.1244 80.8991 63.0938 83.0778C61.5175 79.6399 61.3875 76.2491 62.7037 72.9053C63.1655 71.7349 64.1553 71.0322 65.6732 70.7971L64.2323 78.0072C64.1155 78.5976 64.3305 78.7595 64.8771 78.4931C65.2593 78.3102 65.6202 78.0777 65.9598 77.7956C66.4851 77.3597 66.8421 76.7592 66.9709 76.0949C67.2204 74.7679 67.4433 73.4225 67.6396 72.0589C67.8466 70.6247 69.3035 70.0134 70.2827 69.12C70.3393 69.068 70.4093 69.0327 70.4851 69.0179C70.5609 69.0031 70.6397 69.0094 70.7127 69.0361C70.7858 69.0627 70.8504 69.1088 70.8995 69.1692C70.9487 69.2296 70.9804 69.302 70.9913 69.3786L71.3973 72.4821C71.461 72.9784 71.7157 73.109 72.1616 72.8739C73.8653 71.9648 74.2845 70.69 73.4194 69.0494L71.6122 58.587C71.9944 58.587 72.281 58.3832 72.4721 57.9757C72.5729 57.7562 72.7188 57.7197 72.9099 57.8659C73.0585 57.9809 73.1859 57.9887 73.2921 57.8895C73.4088 57.7745 73.4858 57.6334 73.5229 57.4663C74.0112 55.4025 75.0196 53.7332 76.5482 52.4584Z" fill="#7B0000"/>
<path d="M49.321 54.6293C52.6912 55.366 56.0508 56.5363 59.3998 58.1403C59.3361 58.8404 58.4286 58.9867 56.6771 58.5792C56.5073 58.5374 56.3693 58.5818 56.2631 58.7124C56.1888 58.796 56.1676 58.877 56.1994 58.9553C56.364 59.3315 56.218 59.4961 55.7616 59.4491C54.4878 59.3028 53.2989 59.0128 52.195 58.5792C51.9643 58.4888 51.7119 58.4674 51.4696 58.5176C51.2273 58.5678 51.0061 58.6874 50.8336 58.8613C49.7456 59.9637 48.7903 61.1314 47.9676 62.3645C47.8986 62.4689 47.8057 62.5525 47.689 62.6152C47.5191 62.7093 47.4077 62.7772 47.3546 62.819C47.2957 62.8672 47.2249 62.899 47.1493 62.9112C47.0737 62.9234 46.9962 62.9155 46.9248 62.8884C46.8534 62.8612 46.7906 62.8157 46.743 62.7567C46.6954 62.6977 46.6647 62.6272 46.654 62.5525C46.447 61.1157 46.3276 59.6737 46.2958 58.2265C46.2905 57.9809 46.1684 57.819 45.9296 57.7406C45.8022 57.6988 45.6722 57.7014 45.5395 57.7484C45.1786 57.4506 44.815 57.2312 44.4488 57.0901C44.5549 56.9908 44.6797 56.9386 44.823 56.9334C45.0193 56.9334 45.0883 56.8419 45.03 56.6591C44.9822 56.5023 44.7938 56.4344 44.4647 56.4553L49.321 54.6293Z" fill="#E25A44"/>
<path d="M44.4647 56.4553C44.7938 56.4344 44.9822 56.5023 45.0299 56.659C45.0883 56.8419 45.0193 56.9333 44.8229 56.9333C44.6796 56.9386 44.5549 56.9908 44.4488 57.0901L41.535 56.2202C41.4024 56.1813 41.2622 56.1739 41.1262 56.1987C40.9903 56.2234 40.8624 56.2796 40.7533 56.3624C40.6442 56.4452 40.5571 56.5524 40.4992 56.6749C40.4413 56.7974 40.4143 56.9317 40.4204 57.0666L40.9777 72.3959C41.0149 73.3311 41.474 73.9659 42.355 74.3003L44.6478 75.178C45.6138 75.549 46.0808 75.225 46.049 74.2062L45.5395 57.7484C45.6721 57.7014 45.8022 57.6988 45.9295 57.7406C46.1684 57.8189 46.2905 57.9809 46.2958 58.2264C46.3276 59.6737 46.447 61.1157 46.654 62.5525C46.6647 62.6272 46.6954 62.6976 46.743 62.7567C46.7906 62.8157 46.8534 62.8612 46.9248 62.8883C46.9962 62.9155 47.0737 62.9234 47.1493 62.9112C47.2248 62.899 47.2957 62.8672 47.3546 62.819C47.4077 62.7772 47.5191 62.7092 47.689 62.6152C47.8057 62.5525 47.8986 62.4689 47.9676 62.3644C48.7903 61.1314 49.7456 59.9637 50.8336 58.8613C51.006 58.6874 51.2273 58.5678 51.4696 58.5176C51.7119 58.4673 51.9643 58.4888 52.195 58.5791C53.2989 59.0128 54.4878 59.3027 55.7616 59.449C56.218 59.4961 56.364 59.3315 56.1994 58.9553C56.1676 58.8769 56.1888 58.7959 56.2631 58.7123C56.3693 58.5817 56.5073 58.5373 56.6771 58.5791C58.4286 58.9866 59.3361 58.8404 59.3998 58.1402C60.3445 59.227 60.7107 60.4966 60.4984 61.9491C60.3127 63.2448 60.0394 64.3838 59.6784 65.366C59.1955 66.667 57.7439 68.3545 55.3237 70.4288C54.8089 70.8676 54.3896 70.7919 54.0658 70.2015L53.1981 68.6184C53.0542 68.3548 52.9933 68.0547 53.0231 67.7562C53.0529 67.4576 53.1719 67.174 53.3653 66.9413L57.0513 62.5839C57.2211 62.3853 57.1893 62.226 56.9557 62.1058C56.8231 62.0379 56.6453 62.0248 56.4223 62.0666C56.5073 61.9882 56.5895 61.8576 56.6691 61.6748C56.6996 61.61 56.7157 61.5395 56.7163 61.4681C56.7169 61.3967 56.7021 61.326 56.6727 61.2607C56.6433 61.1954 56.6 61.137 56.5459 61.0895C56.4917 61.042 56.4279 61.0064 56.3587 60.9851L51.8765 59.6058C51.6868 59.5485 51.4834 59.5518 51.2948 59.6151C51.1063 59.6783 50.9422 59.7984 50.8257 59.9584L46.6461 65.6795C46.4762 65.9094 46.4152 66.168 46.4629 66.4554C46.6487 67.5212 47.0547 68.5844 47.681 69.645C47.0919 69.295 46.8 69.2166 46.8053 69.4099C46.8158 69.9965 46.9745 70.5703 47.267 71.0792C48.493 73.2344 49.3369 75.9069 50.9371 77.874C52.179 79.41 52.0862 80.3008 50.6585 80.5464C45.6695 79.3186 41.389 77.5892 37.8171 75.3583C39.558 73.4721 40.0993 71.1681 39.4412 68.446L39.5686 56.4004C39.5705 56.2499 39.6073 56.1018 39.6762 55.9675C39.7451 55.8333 39.8443 55.7165 39.9659 55.6263C40.0876 55.5361 40.2285 55.4749 40.3778 55.4474C40.527 55.4199 40.6805 55.4269 40.8265 55.4678L44.4647 56.4553Z" fill="#D92222"/>
<path d="M97.9636 65.6168L97.5815 67.6701C97.5178 67.9836 97.3267 68.1482 97.0083 68.1639L95.6469 68.2344C95.2595 68.2553 95.1162 68.0829 95.217 67.7171C96.0238 64.6816 96.8544 61.5807 97.7089 58.4146C98.3458 56.0634 101.602 55.9459 102.167 58.1873C102.974 61.3482 103.842 64.5248 104.77 67.7171C104.788 67.7726 104.791 67.8313 104.781 67.8885C104.771 67.9457 104.747 67.9999 104.712 68.047C104.676 68.094 104.63 68.1326 104.577 68.1597C104.523 68.1867 104.464 68.2016 104.404 68.203L103.162 68.2266C102.716 68.2318 102.451 68.0202 102.366 67.5918L101.928 65.4366C101.87 65.1335 101.687 64.982 101.379 64.982H98.7438C98.3033 64.982 98.0432 65.1936 97.9636 65.6168ZM98.6085 62.9052C98.5977 62.9501 98.5973 62.9969 98.6075 63.0419C98.6176 63.087 98.638 63.1292 98.6672 63.1654C98.6963 63.2016 98.7333 63.2309 98.7756 63.251C98.8178 63.271 98.8641 63.2814 98.911 63.2814H101.021C101.068 63.2814 101.114 63.271 101.156 63.251C101.198 63.2309 101.235 63.2016 101.265 63.1654C101.294 63.1292 101.314 63.087 101.324 63.0419C101.334 62.9969 101.334 62.9501 101.323 62.9052L100.256 58.6026C100.241 58.5353 100.202 58.4752 100.147 58.4322C100.092 58.3892 100.024 58.3658 99.9539 58.3658C99.8837 58.3658 99.8156 58.3892 99.7606 58.4322C99.7057 58.4752 99.6672 58.5353 99.6514 58.6026L98.6085 62.9052Z" fill="#B11219"/>
<path fill-rule="evenodd" clip-rule="evenodd" d="M70.1473 48.9729C70.1487 49.7346 68.5636 50.3549 66.6071 50.3583C64.6505 50.3616 63.0633 49.7468 63.0619 48.985C63.0606 48.2233 64.6456 47.603 66.6022 47.5996C68.5588 47.5963 70.146 48.2111 70.1473 48.9729ZM53.6359 49.95L53.1344 49.3544C52.9539 49.1402 52.938 48.9155 53.0866 48.6804C53.2299 48.4505 53.4846 48.2389 53.8509 48.0456C55.252 47.6537 58.7947 47.2305 59.8695 48.4923C59.9654 48.6048 60.0317 48.7389 60.0624 48.8827C60.0932 49.0264 60.0874 49.1754 60.0457 49.3165C60.004 49.4575 59.9276 49.5863 59.8232 49.6913C59.7189 49.7963 59.5899 49.8744 59.4475 49.9186C57.4573 50.5456 55.52 50.5561 53.6359 49.95ZM46.3875 50.4364C48.3484 50.4196 49.9326 49.7884 49.9258 49.0267C49.9191 48.2649 48.324 47.661 46.3631 47.6779C44.4022 47.6947 42.818 48.3259 42.8248 49.0877C42.8315 49.8494 44.4266 50.4533 46.3875 50.4364ZM44.4487 57.0905C44.8149 57.2316 45.1785 57.451 45.5394 57.7488L46.0489 74.2066C46.0807 75.2255 45.6137 75.5494 44.6477 75.1784L42.3549 74.3007C41.4739 73.9663 41.0148 73.3315 40.9776 72.3963L40.4204 57.067C40.4142 56.9321 40.4412 56.7978 40.4991 56.6753C40.557 56.5528 40.6441 56.4456 40.7532 56.3628C40.8623 56.28 40.9902 56.2238 41.1262 56.1991C41.2621 56.1744 41.4023 56.1817 41.5349 56.2206L44.4487 57.0905ZM142.787 56.3911L144.044 56.3932C144.352 56.3938 144.601 56.6398 144.601 56.9428L144.599 57.7108C144.599 58.0138 144.349 58.259 144.041 58.2585L142.783 58.2563C142.475 58.2558 142.226 58.0097 142.227 57.7067L142.228 56.9387C142.229 56.6357 142.479 56.3905 142.787 56.3911ZM73.4191 69.0487L73.4194 69.0491C74.2845 70.6896 73.8652 71.9645 72.1615 72.8736C71.7157 73.1087 71.461 72.978 71.3973 72.4817L70.9912 69.3782C70.9804 69.3016 70.9486 69.2292 70.8995 69.1688C70.8504 69.1084 70.7858 69.0624 70.7127 69.0357C70.6396 69.009 70.5609 69.0028 70.4851 69.0175C70.4093 69.0323 70.3393 69.0676 70.2827 69.1196C70.0216 69.3579 69.7265 69.576 69.4302 69.7951C68.6153 70.3976 67.7914 71.0068 67.6396 72.0585C67.4432 73.4221 67.2203 74.7675 66.9709 76.0946C66.8421 76.7589 66.4851 77.3594 65.9598 77.7952C65.6201 78.0774 65.2592 78.3099 64.8771 78.4927C64.3304 78.7592 64.1155 78.5972 64.2322 78.0068L65.6732 70.7967C66.4746 66.9305 67.2814 62.9388 68.0934 58.8217C68.2632 57.9649 68.7701 57.3745 69.614 57.0505L69.6143 57.0509C70.1873 56.4766 70.6516 56.4114 71.0071 56.8554C71.2778 57.195 71.4795 57.7724 71.6122 58.5874L73.4191 69.0487ZM69.9623 57.994C69.9467 58.1954 69.8836 58.4086 69.7732 58.6336C69.6962 58.7925 69.647 58.9563 69.6258 59.1252C69.6471 58.9566 69.6962 58.793 69.7731 58.6344C69.8837 58.4091 69.9468 58.1956 69.9623 57.994ZM69.6537 60.9381L68.6984 65.9848C68.6454 66.2721 68.7595 66.3714 69.0408 66.2826C70.2668 65.9116 70.6595 64.9921 70.219 63.524L70.219 63.5239L70.2563 63.0807L70.2563 63.0806C70.2907 62.2249 70.0898 61.5109 69.6537 60.9385L69.6537 60.9381ZM71.7441 64.3133C71.6865 65.0733 71.478 65.8029 71.1186 66.502C71.0656 66.6041 71.0351 66.7062 71.0272 66.8083C71.0352 66.7065 71.0657 66.6046 71.1186 66.5028C71.478 65.8035 71.6866 65.0736 71.7441 64.3133ZM86.1254 68.1955L87.9086 68.2269C87.9452 68.228 87.9816 68.2217 88.0155 68.2082C88.0494 68.1947 88.0801 68.1744 88.1055 68.1486C88.131 68.1228 88.1507 68.092 88.1635 68.0582C88.1762 68.0245 88.1816 67.9885 88.1793 67.9526L88.0281 63.6187C88.028 63.5637 88.0458 63.5101 88.0788 63.4658C88.1117 63.4214 88.1582 63.3885 88.2115 63.3719C88.2647 63.3553 88.322 63.3559 88.3749 63.3735C88.4278 63.3911 88.4736 63.4248 88.5057 63.4698L91.6265 68.0936C91.6506 68.1301 91.6837 68.16 91.7227 68.1806C91.7616 68.2011 91.8052 68.2116 91.8494 68.2112L94.1263 68.2269C94.1744 68.2269 94.2217 68.2139 94.2628 68.1893C94.3039 68.1647 94.3374 68.1295 94.3596 68.0874C94.3818 68.0454 94.3918 67.9981 94.3886 67.9509C94.3853 67.9036 94.369 67.8581 94.3413 67.8193L90.297 62.4588C90.2613 62.4122 90.2427 62.3551 90.2441 62.2968C90.2456 62.2384 90.267 62.1823 90.305 62.1375L94.4846 57.0747C94.517 57.0361 94.5374 56.989 94.5432 56.9392C94.549 56.8894 94.5399 56.839 94.5171 56.7942C94.4944 56.7494 94.4588 56.712 94.4149 56.6867C94.3709 56.6614 94.3205 56.6491 94.2696 56.6515L92.1042 56.7534C92.0648 56.7558 92.0264 56.7669 91.9919 56.7859C91.9575 56.8049 91.9278 56.8313 91.9052 56.8631L88.2749 61.7848C88.2418 61.832 88.1937 61.867 88.1382 61.8844C88.0827 61.9018 88.0229 61.9005 87.9682 61.8807C87.9135 61.861 87.867 61.8239 87.8361 61.7754C87.8051 61.7268 87.7914 61.6695 87.7972 61.6124L88.0997 56.9964C88.1019 56.9611 88.0967 56.9258 88.0845 56.8926C88.0723 56.8594 88.0532 56.829 88.0286 56.8033C88.004 56.7776 87.9743 56.7571 87.9414 56.7431C87.9084 56.7292 87.8729 56.722 87.837 56.7221H86.189C86.1194 56.7221 86.0525 56.7493 86.0033 56.7978C85.954 56.8463 85.9263 56.9121 85.9263 56.9807L85.8626 67.9369C85.8626 68.0055 85.8903 68.0713 85.9396 68.1198C85.9888 68.1683 86.0557 68.1955 86.1254 68.1955ZM115.757 65.5615L115.749 62.5521C115.749 62.2961 115.879 62.1681 116.139 62.1681L117.476 62.1916C117.79 62.1968 117.946 62.3536 117.946 62.6618L117.962 67.607C117.962 67.8735 117.827 68.0354 117.556 68.0929C110.94 69.5506 109.348 66.1728 110.017 60.4596C110.494 56.3608 114.117 56.2746 117.389 56.8467C117.851 56.9303 118.063 57.1994 118.026 57.6539L117.994 58.0223C117.982 58.1748 117.909 58.3164 117.791 58.4162C117.673 58.5161 117.52 58.566 117.365 58.5552L114.348 58.3749C114.068 58.3589 113.788 58.3993 113.525 58.4938C113.262 58.5882 113.021 58.7346 112.817 58.9239C112.614 59.1133 112.452 59.3417 112.341 59.595C112.231 59.8483 112.174 60.1212 112.174 60.3969L112.182 64.48C112.188 65.3055 112.575 65.8907 113.345 66.2355C113.727 66.4027 114.157 66.5124 114.634 66.5647C115.388 66.643 115.762 66.3087 115.757 65.5615ZM124.888 62.3101L124.801 61.8947C124.746 61.651 124.606 61.4339 124.405 61.2819C124.204 61.1299 123.955 61.0527 123.702 61.064L120.939 61.1816C120.579 61.1972 120.395 61.0274 120.39 60.6722L120.382 60.296C120.372 59.9041 120.56 59.669 120.947 59.5906C123.352 59.0969 127.03 59.0969 126.918 62.5217C126.86 64.2458 126.881 65.9125 126.982 67.5217C126.989 67.6418 126.966 67.7617 126.914 67.8708C126.863 67.9799 126.785 68.0748 126.687 68.1469C126.589 68.2191 126.475 68.2663 126.354 68.2844C126.233 68.3025 126.11 68.2909 125.995 68.2506C125.119 67.9528 124.363 67.9319 123.726 68.1879C119.419 69.9042 117.612 62.459 124.243 63.0311C124.785 63.0781 125 62.8378 124.888 62.3101ZM122.651 66.6753C123.861 67.0829 125.246 66.2913 124.856 64.8336C124.787 64.5828 124.62 64.4444 124.355 64.4183C123.659 64.3556 123.057 64.4392 122.548 64.6691C122.348 64.7593 122.18 64.9064 122.066 65.0914C121.953 65.2764 121.898 65.4907 121.909 65.7067C121.92 65.9227 121.997 66.1305 122.129 66.3031C122.261 66.4758 122.443 66.6054 122.651 66.6753ZM137.443 61.1815C137.974 61.1658 138.239 61.4192 138.239 61.9417L138.199 67.8038C138.198 67.858 138.208 67.9118 138.229 67.9622C138.25 68.0125 138.281 68.0584 138.32 68.097C138.359 68.1357 138.406 68.1664 138.458 68.1874C138.51 68.2084 138.565 68.2192 138.621 68.2192L139.847 68.2114C140.213 68.2114 140.394 68.0311 140.389 67.6706C140.367 65.6486 140.336 63.7181 140.293 61.879C140.229 59.1282 137.427 58.9323 135.508 59.8571C135.384 59.9152 135.246 59.9426 135.107 59.9372C134.969 59.9317 134.833 59.8935 134.712 59.8257C133.752 59.2719 132.796 59.2301 131.846 59.7003C131.645 59.8018 131.415 59.8322 131.193 59.7865L129.641 59.4652C129.551 59.4466 129.458 59.448 129.368 59.4692C129.279 59.4905 129.195 59.5311 129.123 59.5881C129.052 59.6452 128.994 59.7172 128.954 59.7989C128.914 59.8807 128.893 59.9701 128.893 60.0608L128.869 67.702C128.869 67.8316 128.92 67.956 129.011 68.0483C129.101 68.1407 129.225 68.1936 129.354 68.1957L130.453 68.2192C130.841 68.2297 131.032 68.0442 131.026 67.6628L130.939 62.2474C130.935 62.0024 131.023 61.7646 131.186 61.5795C131.349 61.3944 131.576 61.2751 131.822 61.2442L132.555 61.1502C133.287 61.0561 133.648 61.3722 133.638 62.0985L133.542 67.6628C133.537 68.0337 133.722 68.2192 134.099 68.2192L135.063 68.2114C135.45 68.2114 135.641 68.0207 135.636 67.6393L135.556 62.0593C135.551 61.5055 135.83 61.2207 136.392 61.205L137.443 61.1815ZM151.94 62.0667C151.942 61.946 151.92 61.8262 151.874 61.7144C151.828 61.6026 151.759 61.5012 151.672 61.4162C151.585 61.3313 151.481 61.2645 151.367 61.2201C151.253 61.1756 151.131 61.1544 151.009 61.1576L149.831 61.1889C149.093 61.2098 148.729 61.5808 148.74 62.3018L148.78 67.8504C148.78 68.1169 148.644 68.2449 148.374 68.2344L146.996 68.1874C146.889 68.1833 146.788 68.1386 146.714 68.0626C146.64 67.9866 146.598 67.8853 146.598 67.7799V60.1074C146.598 59.7939 146.755 59.6058 147.068 59.5431C147.578 59.4439 148.1 59.4987 148.636 59.7077C148.955 59.8331 149.271 59.8331 149.584 59.7077C154.251 57.8546 154.139 62.587 154.063 65.77C154.046 66.4908 154.031 67.1322 154.074 67.5996C154.116 68.0071 153.928 68.2109 153.509 68.2109L152.41 68.2187C152.038 68.2187 151.855 68.0333 151.861 67.6623L151.94 62.0667ZM163.723 60.6487V59.6063L163.549 59.5917C160.076 59.2988 154.438 58.8233 156.231 63.9873C156.343 64.3269 156.287 64.6351 156.064 64.912C155.634 65.445 155.69 65.9439 156.231 66.4089C156.303 66.4719 156.361 66.5486 156.402 66.6344C156.442 66.7201 156.465 66.8131 156.468 66.9077C156.471 67.0022 156.454 67.0964 156.419 67.1845C156.384 67.2725 156.331 67.3526 156.263 67.4199C155.764 67.9215 155.592 68.5171 155.746 69.2067C156.311 71.6754 159.79 71.597 161.709 71.1425C163.707 70.6723 164.503 68.1017 162.473 67.1456C161.226 66.5657 159.793 66.2261 158.174 66.1268C158.019 66.1187 157.873 66.0525 157.766 65.9416C157.66 65.8308 157.6 65.6838 157.601 65.5312V65.2961C157.599 65.2394 157.612 65.1833 157.637 65.1323C157.662 65.0813 157.7 65.0368 157.746 65.0025C157.793 64.9681 157.847 64.9449 157.905 64.9346C157.962 64.9244 158.022 64.9274 158.078 64.9434C160.419 65.6435 162.13 65.2203 163.213 63.6738C163.378 63.4439 163.433 63.1879 163.38 62.9058C163.163 61.7981 163.277 61.0458 163.723 60.6487ZM161.291 61.8292C161.345 61.9642 161.372 62.1084 161.369 62.2535L161.363 62.614C161.358 62.907 161.234 63.186 161.02 63.3895C160.806 63.5931 160.519 63.7046 160.221 63.6995L159.027 63.679C158.879 63.6765 158.734 63.6454 158.599 63.5876C158.464 63.5297 158.341 63.4462 158.239 63.3418C158.137 63.2374 158.056 63.1142 158.002 62.9792C157.948 62.8442 157.921 62.7 157.924 62.5549L157.93 62.1944C157.936 61.9014 158.059 61.6224 158.273 61.4188C158.487 61.2152 158.775 61.1038 159.072 61.1089L160.266 61.1293C160.414 61.1319 160.559 61.1629 160.694 61.2208C160.83 61.2787 160.952 61.3622 161.054 61.4666C161.157 61.5709 161.237 61.6942 161.291 61.8292ZM158.206 67.6707L161.255 68.3055C161.303 68.3148 161.348 68.3334 161.388 68.3602C161.429 68.3871 161.463 68.4216 161.49 68.4617C161.517 68.5018 161.535 68.5468 161.544 68.594C161.553 68.6412 161.552 68.6897 161.541 68.7365L161.51 68.8854C161.43 69.2553 161.187 69.5754 160.833 69.7752C160.479 69.9751 160.044 70.0384 159.623 69.9513L159.026 69.8259C158.605 69.7383 158.232 69.5075 157.99 69.1843C157.749 68.861 157.657 68.4716 157.736 68.1017L157.768 67.9528C157.777 67.9057 157.796 67.861 157.823 67.8212C157.851 67.7815 157.886 67.7474 157.926 67.7211C157.967 67.6949 158.013 67.6769 158.061 67.6682C158.109 67.6595 158.158 67.6604 158.206 67.6707ZM56.4223 62.0669L51.9243 67.2942C51.8112 67.4246 51.7403 67.5853 51.7204 67.7556C51.7006 67.9259 51.7327 68.0981 51.8128 68.2504L57.0274 78.3837C57.4944 79.2876 57.245 79.5697 56.279 79.2301L53.0946 78.1172C52.1764 77.7933 51.5023 77.2029 51.0724 76.346L47.681 69.6454C47.0547 68.5847 46.6487 67.5215 46.4629 66.4557C46.4152 66.1683 46.4762 65.9097 46.646 65.6798L50.8256 59.9588C50.9422 59.7988 51.1063 59.6787 51.2948 59.6154C51.4834 59.5521 51.6868 59.5489 51.8765 59.6061L56.3586 60.9854C56.4279 61.0067 56.4917 61.0423 56.5459 61.0898C56.6 61.1373 56.6433 61.1957 56.6726 61.261C56.702 61.3263 56.7169 61.397 56.7163 61.4684C56.7157 61.5398 56.6996 61.6103 56.6691 61.6751C56.5895 61.8579 56.5073 61.9886 56.4223 62.0669ZM142.642 59.6068L144.155 59.6042C144.308 59.6039 144.433 59.7265 144.434 59.878L144.448 67.9031C144.448 68.0546 144.324 68.1776 144.17 68.1779L142.657 68.1805C142.503 68.1808 142.378 68.0582 142.378 67.9067L142.364 59.8816C142.364 59.7301 142.488 59.607 142.642 59.6068Z" fill="white"/>
<path d="M69.6538 60.9381C70.1633 61.6069 70.3517 62.469 70.219 63.5243C70.6595 64.9925 70.2668 65.912 69.0408 66.283C68.7595 66.3718 68.6454 66.2725 68.6984 65.9852L69.6538 60.9381Z" fill="#7B0000"/>
<path d="M39.4412 68.446C40.0993 71.1681 39.558 73.4722 37.8171 75.3583L37.1404 68.7125C37.7773 68.7073 38.2709 68.7857 38.6212 68.9476C38.8547 69.0521 39.0458 68.9999 39.1944 68.7909L39.4412 68.446Z" fill="#E25A44"/>
</g>
<defs>
<clipPath id="clip0_990_33760">
<rect width="127.378" height="41.5364" fill="white" transform="translate(36.3444 42.7483)"/>
</clipPath>
</defs>
</svg>
