<svg width="3041" height="800" viewBox="0 0 3041 800" fill="none" xmlns="http://www.w3.org/2000/svg">
<g clip-path="url(#clip0_1178_1109)">
<path d="M2240.74 400H2140.74V500H2240.74V400Z" fill="#757575"/>
<path d="M2940.74 400H2840.74V500H2940.74V400Z" fill="#757575"/>
<path d="M2840.74 200H2740.74V300H2840.74V200Z" fill="#757575"/>
<path d="M2740.74 300H2640.74V400H2740.74V300Z" fill="#757575"/>
<path d="M2340.74 500H2240.74V600H2340.74V500Z" fill="#757575"/>
<path d="M2840.74 500H2740.74V600H2840.74V500Z" fill="#757575"/>
<path d="M2640.74 700V800H0V100H100V700H2340.74V600H2440.74V700H2640.74Z" fill="#757575"/>
<path d="M2740.74 600H2640.74V700H2740.74V600Z" fill="#757575"/>
<path d="M3040.74 100H2940.74V400H3040.74V100Z" fill="#757575"/>
<path d="M2940.74 0H2640.74V100H2940.74V0Z" fill="#757575"/>
<path d="M2640.74 100H2440.74V200H2640.74V100Z" fill="#757575"/>
<path d="M2440.74 0V100H2140.74V400H2040.74V100H100V0H2440.74Z" fill="#757575"/>
<path d="M818.518 266.666V233.333H585.185V266.666H551.852V533.333H585.185V566.666H818.518V533.333H851.852V266.666H818.518ZM785.185 500H618.518V300H785.185V500Z" fill="#757575"/>
<path d="M1874.07 266.666V233.333H1607.41V566.666H1674.07V433.333H1874.07V400H1907.41V266.666H1874.07ZM1840.74 366.666H1674.07V300H1840.74V366.666Z" fill="#757575"/>
<path d="M1555.56 233.333V566.666H1488.89V433.333H1322.22V566.666H1255.56V233.333H1322.22V366.666H1488.89V233.333H1555.56Z" fill="#757575"/>
<path d="M1170.37 266.666V233.333H937.036V266.666H903.703V533.333H937.036V566.666H1170.37V533.333H1203.7V266.666H1170.37ZM1137.04 500H970.37V300H1137.04V500Z" fill="#757575"/>
<path d="M500 500V566.666H233.333V500H333.333V366.666H266.666V300H300V266.666H333.333V233.333H400V500H500Z" fill="#757575"/>
</g>
<defs>
<clipPath id="clip0_1178_1109">
<rect width="3040.74" height="800" fill="#757575"/>
</clipPath>
</defs>
</svg>
