<svg width="1529" height="283" viewBox="0 0 1529 283" fill="none" xmlns="http://www.w3.org/2000/svg">
<path d="M1514.05 283H1259.35L1245.2 254.7H1528.2L1514.05 283Z" fill="#8D8A8A"/>
<path d="M14.15 0H268.85L283 28.3H0L14.15 0Z" fill="#8D8A8A"/>
<path d="M283 28.2998L268.85 283H14.1504L0 28.2998H283ZM129.165 91.5107L79.832 117.728L91.1523 141.84L123.686 127.485V217.593H161.879V91.5107H129.165Z" fill="#757575"/>
<path d="M594.299 113.2H311.299L325.449 0H580.148L594.299 113.2ZM451.307 14.2861C442.388 14.1995 433.481 14.9573 424.705 16.5498C418.356 17.5123 412.381 20.1629 407.407 24.2246C404.26 27.6009 402.22 31.8593 401.561 36.4277C400.901 40.9961 401.654 45.6566 403.718 49.7852C405.586 52.7688 408.296 55.1322 411.506 56.5771C416.055 58.7099 420.866 60.2328 425.814 61.1055C433.055 62.5006 440.362 63.5284 447.707 64.1846C453.276 64.7279 457.57 65.2942 460.589 65.8828C462.748 66.1502 464.829 66.8593 466.702 67.9658C467.214 68.347 467.626 68.8472 467.902 69.4229C468.178 69.9985 468.31 70.6326 468.286 71.2705C468.318 72.0393 468.183 72.8062 467.89 73.5176C467.597 74.2289 467.153 74.8685 466.589 75.3916C465.036 76.6537 463.177 77.4813 461.2 77.791C457.939 78.4044 454.624 78.678 451.307 78.6064C447.02 78.6064 442.016 78.4699 436.296 78.1982C430.561 77.9266 424.863 77.5946 419.203 77.2021C413.543 76.8097 408.577 76.5008 404.306 76.2744L402.518 92.1221C406.525 92.5749 411.438 93.0959 417.302 93.6846C423.165 94.2732 429.346 94.7489 435.798 95.1338C442.258 95.5262 448.424 95.7217 454.295 95.7217C463.415 95.9247 472.53 95.1511 481.485 93.4131C487.817 92.3127 493.711 89.4483 498.488 85.1494C500.448 83.1388 501.975 80.7461 502.972 78.1211C503.969 75.4963 504.415 72.6944 504.284 69.8896C504.435 66.309 503.606 62.7549 501.885 59.6113C500.03 56.7054 497.349 54.4195 494.187 53.0459C489.684 51.0265 484.945 49.5811 480.082 48.7441C474.15 47.6348 466.951 46.4578 458.303 45.3711C452.718 44.6013 448.416 43.9216 445.397 43.333C443.166 43.0209 441.023 42.2503 439.104 41.0693C438.524 40.6536 438.055 40.1015 437.739 39.4619C437.423 38.8223 437.27 38.1144 437.292 37.4014C437.276 36.7405 437.426 36.0859 437.727 35.4971C438.027 34.9084 438.469 34.4037 439.013 34.0283C440.707 32.975 442.621 32.3239 444.605 32.126C447.813 31.6483 451.053 31.429 454.295 31.4697C458.438 31.4697 463.215 31.583 468.694 31.832C474.143 32.0584 479.577 32.3074 484.995 32.5791L499.077 33.3262L500.48 17.0703C496.224 16.6175 491.176 16.1876 485.38 15.8027C479.584 15.4179 473.652 15.0336 467.585 14.7393C461.517 14.4449 456.106 14.2861 451.307 14.2861Z" fill="#757575"/>
<path d="M905.6 141.5H622.6L636.75 0H891.449L905.6 141.5ZM795.46 19.3574C785.524 16.8602 775.297 15.7101 765.055 15.9385H712.982V118.859H748.663V92.5068H765.055C775.316 92.7555 785.56 91.5048 795.46 88.7939C802.775 86.8597 809.241 82.5517 813.844 76.5459C817.979 70.886 820.047 63.226 820.047 53.5664C820.047 43.9067 817.979 36.3594 813.844 30.9258C809.167 25.1391 802.7 21.0703 795.46 19.3574ZM763.674 37.4463C770.986 37.4463 776.262 38.6463 779.25 41.0234C782.238 43.4007 783.777 47.7026 783.777 53.5889C783.777 59.4751 782.193 63.7762 779.068 66.5156C775.944 69.2475 770.782 70.6142 763.583 70.6143H748.572L748.663 37.4463H763.674Z" fill="#757575"/>
<path d="M891.449 283H636.75L622.6 141.5H905.6L891.449 283ZM676.732 163.596L696.724 266.608H749.701L763.692 192.508H764.101L778.092 266.608H832.021L851.536 163.596H815.561L804.762 239.825H800.551L784.159 164.796H744.766L728.918 239.825H724.707L712.322 163.596H676.732Z" fill="#8D8A8A"/>
<path d="M1216.9 169.8H933.9L948.051 0H1202.75L1216.9 169.8ZM1057.52 25.4697V144.059H1093.31V25.4697H1057.52Z" fill="#757575"/>
<path d="M580.148 283H325.449L311.299 113.2H594.299L580.148 283ZM426.765 139.236L402.02 217.141V239.78H459.593V257.146L494.391 257.19V239.825H503.583V213.699H494.391V186.848L462.196 187.55L459.593 213.699H436.568L466.747 139.236H426.765Z" fill="#8D8A8A"/>
<path d="M1202.75 283H948.051L933.9 169.8H1216.9L1202.75 283ZM1057.52 187.459V268.85H1093.31V187.459H1057.52Z" fill="#8D8A8A"/>
<path d="M1514.05 0L1528.2 254.7H1245.2L1259.35 0H1514.05ZM1324.62 64.2979V189.995H1362.33V116.46H1365.94L1406.39 189.995H1448.84V64.2979H1411.12V135.591H1407.73L1366.98 64.2979H1324.62Z" fill="#757575"/>
</svg>
