<svg width="2734" height="484" viewBox="0 0 2734 484" fill="none" xmlns="http://www.w3.org/2000/svg">
<path fill-rule="evenodd" clip-rule="evenodd" d="M820.3 0H965.644C959.714 5.06103 954.89 11.4648 952.176 20.554C932.173 21.4835 912.07 24.3756 892.068 29.4366C869.653 35.1173 850.153 48.8545 850.153 72.5071C850.153 80.1503 852.164 87.3803 855.581 93.6807L855.38 88.723L858.395 87.1737C861.11 85.7277 864.024 84.4882 866.839 83.2488C874.076 80.1503 881.615 77.568 889.153 75.3991C933.379 62.5916 998.513 62.5916 1042.74 75.3991C1050.28 77.568 1057.82 80.2535 1065.05 83.2488C1067.87 84.385 1070.78 85.7277 1073.5 87.1737L1076.51 88.723L1076.31 93.6807C1079.73 87.3803 1081.74 80.1503 1081.74 72.5071C1081.74 48.8545 1062.24 34.9108 1039.82 29.4366C1018.52 24.2724 997.206 21.1737 975.897 20.4507C980.319 14.6667 987.154 10.9484 993.989 7.33334C998.312 4.95774 1002.63 2.68545 1006.55 0H1111.59C1125.86 0 1137.52 11.9812 1137.52 26.6478V457.249C1137.52 471.916 1125.86 483.897 1111.59 483.897H820.3C806.027 483.897 794.367 471.916 794.367 457.249V26.6478C794.267 11.9812 805.926 0 820.3 0ZM987.658 209.671C1024.55 188.085 1041.43 163.193 1043.54 121.981C1028.57 172.385 1006.65 196.761 987.658 209.671ZM863.219 145.221C868.447 217.522 944.436 223.615 965.946 264.517C987.457 223.615 1063.45 217.418 1068.67 145.221L1071.08 91.9249C1019.12 64.1409 912.874 64.1409 860.908 91.9249L863.219 145.221Z" fill="#757575"/>
<path fill-rule="evenodd" clip-rule="evenodd" d="M423.066 0H714.358C728.63 0 740.29 11.9812 740.29 26.6478V457.249C740.29 471.916 728.63 483.897 714.358 483.897H423.066C408.792 483.897 397.133 471.916 397.133 457.249V26.6478C397.133 11.9812 408.792 0 423.066 0ZM592.031 331.24C628.92 309.652 645.807 284.76 647.917 243.549C632.94 293.953 611.028 318.329 592.031 331.24ZM466.086 270.713C471.313 343.014 547.302 349.211 568.812 390.01C590.323 349.108 666.311 342.91 671.538 270.713L673.95 217.418C621.985 189.634 515.74 189.634 463.775 217.418L466.086 270.713ZM555.042 146.047C535.039 146.976 514.937 149.868 494.934 154.93C472.519 160.611 453.019 174.348 453.019 198C453.019 205.643 455.03 212.873 458.447 219.173L458.246 214.216L461.262 212.667C463.976 211.221 466.89 209.981 469.705 208.742C476.941 205.643 484.48 203.061 492.02 200.891C536.245 188.085 601.38 188.085 645.605 200.891C653.144 203.061 660.683 205.746 667.92 208.742C670.734 209.878 673.649 211.221 676.363 212.667L679.378 214.216L679.178 219.173C682.595 212.873 684.606 205.643 684.606 198C684.606 174.348 665.105 160.404 642.691 154.93C621.381 149.765 600.072 146.667 578.764 145.944C583.186 140.159 590.021 136.441 596.856 132.827C611.933 124.666 626.609 116.714 628.417 93.8873C600.475 97.5024 614.546 96.1597 587.005 113.615C573.737 120.845 560.168 128.179 555.042 146.047Z" fill="#757575"/>
<path fill-rule="evenodd" clip-rule="evenodd" d="M25.9328 0H67.8475L68.8525 22.6197C74.0793 94.9201 150.069 101.014 171.579 141.916C193.088 101.014 269.078 94.8169 274.305 22.6197L275.31 0H317.224C331.498 0 343.157 11.9812 343.157 26.6478V457.249C343.157 471.916 331.498 483.897 317.224 483.897H275.411L276.717 455.287C224.751 427.503 118.507 427.503 66.5407 455.287L67.8475 483.897H25.9328C11.6597 484 0 471.916 0 457.249V26.6478C0 11.9812 11.6597 0 25.9328 0ZM251.186 0C236.411 43.0704 216.408 64.8639 198.819 76.7418C232.29 57.1173 249.277 34.7042 253.699 0H251.186ZM157.909 384.019C137.906 384.948 117.803 387.84 97.8008 392.901C75.3861 398.582 55.8862 412.32 55.8862 435.971C55.8862 443.615 57.8964 450.845 61.3139 457.145L61.1129 452.188L64.1284 450.639C66.8423 449.192 69.7572 447.953 72.5716 446.714C79.8087 443.615 87.3473 441.033 94.8859 438.863C139.112 426.057 204.246 426.057 248.472 438.863C256.011 441.033 263.549 443.718 270.787 446.714C273.601 447.85 276.516 449.192 279.23 450.639L282.246 452.188L282.045 457.145C285.462 450.845 287.472 443.615 287.472 435.971C287.472 412.32 267.972 398.376 245.558 392.901C224.248 387.737 202.939 384.638 181.63 383.916C186.052 378.131 192.887 374.413 199.722 370.798C214.8 362.638 229.475 354.685 231.284 331.859C203.341 335.474 217.413 334.132 189.873 351.587C176.604 358.714 163.035 366.047 157.909 384.019Z" fill="#757575"/>
<path fill-rule="evenodd" clip-rule="evenodd" d="M1418.86 278.358C1477.27 278.358 1513.15 241.072 1513.15 190.358V189.636C1513.15 139.645 1478.37 120.434 1442.79 114.237L1509.03 49.2695V4.64978H1332.03V55.3635H1434.95L1372.43 119.917L1381.37 157.617H1405.3C1437.47 157.617 1456.56 169.908 1456.56 191.804V192.528C1456.56 212.566 1441.18 225.167 1419.47 225.167C1392.94 225.167 1374.23 213.598 1356.25 192.838L1316.75 231.88C1339.16 259.147 1371.73 278.358 1418.86 278.358Z" fill="#757575"/>
<path fill-rule="evenodd" clip-rule="evenodd" d="M1805.75 278.357C1886.56 278.357 1945.27 215.662 1945.27 139.127V138.403C1945.27 61.8685 1887.26 0 1806.45 0C1725.64 0 1666.93 62.6948 1666.93 139.127V139.849C1666.93 216.488 1724.94 278.357 1805.75 278.357ZM1806.45 223.718C1760.01 223.718 1727.14 185.296 1727.14 139.127V138.403C1727.14 92.2348 1759.31 54.6385 1805.75 54.6385C1852.19 54.6385 1885.06 93.061 1885.06 139.23V139.953C1885.06 186.122 1852.89 223.718 1806.45 223.718Z" fill="#757575"/>
<path fill-rule="evenodd" clip-rule="evenodd" d="M1957.23 273.709H2015.93L2039.84 213.39H2150.62L2174.53 273.709H2234.74L2122.67 2.6853H2069.51L1957.23 273.709ZM2060.55 161.126L2095.33 73.8496L2130.11 161.126H2060.55Z" fill="#757575"/>
<path fill-rule="evenodd" clip-rule="evenodd" d="M2275.26 273.711H2332.95V191.495L2363.2 159.166L2444.41 273.711H2513.57L2402.1 118.781L2508.75 4.64978H2439.19L2332.95 122.294V4.64978H2275.26V273.711Z" fill="#757575"/>
<path fill-rule="evenodd" clip-rule="evenodd" d="M2637.8 277.632C2694.3 277.632 2734 247.679 2734 194.176V193.454C2734 146.561 2704.05 126.937 2650.98 112.683C2605.74 100.805 2594.48 95.0214 2594.48 77.3594V76.5331C2594.48 63.4158 2606.05 53.0871 2628.16 53.0871C2650.27 53.0871 2673.09 63.1059 2696.21 79.6317L2726.16 35.012C2699.62 13.1153 2667.05 0.824219 2628.86 0.824219C2575.39 0.824219 2537.19 33.1528 2537.19 81.9041V82.6271C2537.19 136.026 2571.27 151.106 2624.04 164.946C2667.86 176.515 2676.8 184.157 2676.8 199.135V199.857C2676.8 215.66 2662.64 225.266 2639.01 225.266C2609.06 225.266 2584.43 212.561 2560.81 192.627L2526.74 234.561C2558.1 263.378 2598.21 277.632 2637.8 277.632Z" fill="#757575"/>
<path fill-rule="evenodd" clip-rule="evenodd" d="M1374.23 484C1394.24 484 1409.72 475.944 1420.98 466.132V417.381H1373.44V438.76H1397.65V454.77C1391.52 459.315 1383.79 461.484 1375.04 461.484C1355.64 461.484 1341.97 446.404 1341.97 425.85V425.54C1341.97 406.433 1355.85 390.526 1373.34 390.526C1386.01 390.526 1393.54 394.657 1401.88 401.888L1417.06 383.09C1405.7 373.174 1393.74 367.7 1374.14 367.7C1341.06 367.7 1316.84 393.832 1316.84 425.85V426.16C1316.75 459.418 1340.17 484 1374.23 484Z" fill="#757575"/>
<path fill-rule="evenodd" clip-rule="evenodd" d="M1584.72 482.036H1609.24L1619.19 456.834H1665.43L1675.39 482.036H1700.51L1653.67 368.835H1631.46L1584.72 482.036ZM1627.84 435.041L1642.41 398.581L1656.99 435.041H1627.84Z" fill="#757575"/>
<path fill-rule="evenodd" clip-rule="evenodd" d="M1867.66 482.04H1891.18V409.12L1921.64 456.735H1922.34L1953.1 408.707V482.04H1977.02V369.665H1951.1L1922.34 417.177L1893.6 369.665H1867.66V482.04Z" fill="#757575"/>
<path d="M2178.45 369.665H2154.43V482.04H2178.45V369.665Z" fill="#757575"/>
<path fill-rule="evenodd" clip-rule="evenodd" d="M2355.86 482.04H2379.68V410.566L2432.66 482.04H2453.06V369.665H2429.34V438.866L2378.07 369.665H2355.86V482.04Z" fill="#757575"/>
<path fill-rule="evenodd" clip-rule="evenodd" d="M2682.04 484C2702.04 484 2717.52 475.944 2728.77 466.132V417.381H2681.23V438.76H2705.46V454.77C2699.33 459.315 2691.59 461.484 2682.84 461.484C2663.45 461.484 2649.67 446.404 2649.67 425.85V425.54C2649.67 406.433 2663.54 390.526 2681.04 390.526C2693.7 390.526 2701.24 394.657 2709.58 401.888L2724.76 383.09C2713.4 373.174 2701.43 367.7 2681.84 367.7C2648.77 367.7 2624.54 393.832 2624.54 425.85V426.16C2624.54 459.418 2648.06 484 2682.04 484Z" fill="#757575"/>
</svg>
