<svg width="1909" height="320" viewBox="0 0 1909 320" fill="none" xmlns="http://www.w3.org/2000/svg">
<path d="M380.888 106.728H336.723V92.5029H440.38V106.739H396.204V229.191H380.888V106.728Z" fill="#757575"/>
<path d="M567.524 92.5029V229.147H552.231V166.271H482.885V229.147H467.367V92.5029H482.885V151.865H552.231V92.5029H567.524Z" fill="#757575"/>
<path d="M688.57 214.72V229.147H606.336V92.5029H686.537V106.739H621.619V151.865H683.771V166.282H621.671V214.73L688.57 214.72Z" fill="#757575"/>
<path d="M800.968 97.8269C808.651 101.026 815.213 106.432 819.827 113.362C824.261 120.134 826.478 128.149 826.478 137.405C826.478 152.689 821.367 164.21 811.142 171.968C800.918 179.727 786.686 183.632 768.444 183.681H755.875V229.169H726.492V92.5029H772.532C783.359 92.5029 792.838 94.2776 800.968 97.8269ZM789.325 153.196C793.763 150.119 795.988 144.87 795.988 137.49C795.988 130.953 793.983 126.235 789.975 123.339C785.965 120.443 779.836 118.995 771.584 118.995H755.875V157.817H768.444C777.938 157.782 784.898 156.241 789.325 153.196Z" fill="#757575"/>
<path d="M927.572 202.709V229.147H850.137V92.5029H879.521V202.709H927.572Z" fill="#757575"/>
<path d="M1029.17 205.658H981.675L972.1 229.147H940.68L1004.04 90.0964H1007.92L1071.13 229.147H1038.97L1029.17 205.658ZM1005.34 144.081L989.996 181.616H1020.86L1005.34 144.081Z" fill="#757575"/>
<path d="M1184.05 92.5029L1133.4 177.931V229.158H1104.2V179.028L1053.38 92.5029H1088.69L1119.17 149.278L1149.67 92.5029H1184.05Z" fill="#757575"/>
<path d="M1287.36 202.709V229.147H1199.57V92.5029H1285.32V118.953H1228.58V145.391H1282.55V171.468H1228.58V202.709H1287.36Z" fill="#757575"/>
<path d="M1385.31 229.147L1343.73 165.91V229.147H1314.34V92.5029H1364.42C1380.93 92.5029 1393.84 96.1406 1403.14 103.417C1412.44 110.693 1417.1 121.419 1417.1 135.595C1417.1 146.562 1414.08 155.375 1408.03 162.034C1402 168.692 1393.37 173.129 1382.15 175.344L1420.23 229.158L1385.31 229.147ZM1357.77 155.549C1367.86 155.549 1375.23 154.069 1379.86 151.109C1384.49 148.149 1386.8 143.404 1386.78 136.873C1386.78 130.712 1384.75 126.097 1380.69 123.031C1376.62 119.964 1370.27 118.423 1361.65 118.409H1343.73V155.571L1357.77 155.549Z" fill="#757575"/>
<path d="M1441.08 228.104C1439.13 226.114 1438.04 223.438 1438.04 220.651C1438.04 217.863 1439.13 215.187 1441.08 213.197C1442.08 212.19 1443.29 211.4 1444.6 210.875C1445.93 210.349 1447.34 210.099 1448.76 210.142C1450.15 210.118 1451.52 210.377 1452.8 210.903C1454.08 211.427 1455.25 212.209 1456.22 213.197C1458.16 215.187 1459.26 217.863 1459.26 220.651C1459.26 223.438 1458.16 226.114 1456.22 228.104C1455.23 229.07 1454.06 229.829 1452.79 230.339C1451.51 230.849 1450.14 231.099 1448.76 231.075C1447.35 231.116 1445.94 230.873 1444.62 230.363C1443.3 229.853 1442.1 229.085 1441.08 228.104Z" fill="#757575"/>
<path d="M1507.58 221.908C1497.54 215.876 1489.35 207.211 1483.89 196.853C1478.11 186.12 1475.21 174.03 1475.21 160.586C1475.21 146.893 1478.13 134.712 1483.99 124.043C1489.56 113.677 1497.88 105.059 1508.04 99.1474C1518.41 93.1694 1530.2 90.1018 1542.17 90.2671C1552.18 90.0939 1562.13 92.1142 1571.29 96.1876C1579.78 100.074 1587.23 105.911 1593.04 113.224L1581.93 123.573C1577.51 117.652 1571.71 112.918 1565.01 109.795C1557.96 106.577 1550.29 104.966 1542.54 105.078C1533.25 104.927 1524.09 107.329 1516.08 112.021C1508.26 116.705 1501.91 123.499 1497.77 131.624C1493.21 140.59 1490.93 150.539 1491.11 160.597C1490.94 170.57 1493.2 180.435 1497.67 189.346C1503.83 201.032 1514.35 209.813 1526.94 213.781C1539.54 217.749 1553.18 216.583 1564.91 210.535C1571.96 206.717 1578.03 201.338 1582.68 194.808L1593.77 204.392C1588.2 212.826 1580.49 219.627 1571.42 224.101C1561.85 228.703 1551.34 231.014 1540.72 230.851C1529.06 230.983 1517.58 227.888 1507.58 221.908Z" fill="#757575"/>
<path d="M1641.86 222.461C1631.61 216.581 1623.17 208.005 1617.44 197.662C1611.4 187.014 1608.38 174.648 1608.39 160.565C1608.4 146.481 1611.42 134.083 1617.44 123.371C1623.15 112.985 1631.6 104.369 1641.86 98.466C1652.08 92.7143 1663.61 89.6926 1675.34 89.6926C1687.07 89.6926 1698.6 92.7143 1708.82 98.466C1719.09 104.384 1727.55 112.995 1733.29 123.371C1739.4 134.105 1742.45 146.502 1742.45 160.565C1742.45 174.627 1739.4 186.993 1733.29 197.662C1727.53 207.994 1719.07 216.565 1708.82 222.461C1698.6 228.22 1687.07 231.246 1675.34 231.246C1663.61 231.246 1652.08 228.22 1641.86 222.461ZM1701.04 209.503C1708.93 204.888 1715.37 198.161 1719.64 190.081C1724.27 181.626 1726.57 171.787 1726.56 160.565C1726.56 149.207 1724.26 139.307 1719.64 130.867C1716.38 124.93 1711.97 119.704 1706.66 115.496C1701.35 111.288 1695.27 108.183 1688.75 106.363C1682.22 104.543 1675.4 104.044 1668.69 104.897C1661.97 105.75 1655.49 107.937 1649.63 111.329C1641.77 115.984 1635.37 122.739 1631.14 130.835C1626.57 139.29 1624.29 149.189 1624.29 160.532C1624.29 171.77 1626.57 181.609 1631.14 190.049C1635.35 198.136 1641.76 204.869 1649.63 209.47C1657.47 213.915 1666.33 216.25 1675.34 216.25C1684.35 216.25 1693.21 213.915 1701.04 209.47V209.503Z" fill="#757575"/>
<path d="M1892.47 228.85L1875.64 133.36L1835.34 229.041H1832.52L1792.21 133.551L1774.83 228.85H1759.3L1784.63 89.8835H1788.34L1833.84 198.493L1879.34 89.8835H1883.22L1908 228.85H1892.47Z" fill="#757575"/>
<path d="M227.296 84.8259L281.573 144.252L311.712 74.9659L296.398 76.7335C267.014 29.0308 225.391 11.9409 197.987 4.74289C148.882 -8.1411 104.662 8.60809 91.8594 15.0607C124.487 8.96873 158.214 14.0041 187.642 29.3609C211.705 41.6003 232.168 59.8974 247.017 82.4515L227.296 84.8259Z" fill="#757575"/>
<path d="M84.781 92.0877L144.187 37.7834L74.9261 7.67114L76.6928 22.9935C29.025 52.3499 11.9331 93.994 4.73883 121.413C-8.13859 170.521 8.6127 214.784 15.0514 227.593C8.96248 194.95 13.9953 161.205 29.3442 131.762C41.582 107.699 59.8694 87.237 82.4078 72.3892L84.781 92.0877Z" fill="#757575"/>
<path d="M91.7501 234.578L37.4731 175.152L7.38672 244.438L22.6906 242.638C52.0426 290.331 93.6546 307.431 121.07 314.63C170.164 327.545 214.383 310.785 227.186 304.396C194.559 310.491 160.831 305.456 131.404 290.097C107.335 277.862 86.8677 259.564 72.0186 237.006L91.7501 234.578Z" fill="#757575"/>
<path d="M235.181 227.476L175.785 281.78L245.037 311.85L243.27 296.528C290.948 267.171 308.029 225.538 315.224 198.109C328.101 149.001 311.36 104.748 304.921 91.9382C311.004 124.583 305.967 158.327 290.618 187.77C278.391 211.849 260.102 232.324 237.555 247.175L235.181 227.476Z" fill="#757575"/>
<path d="M69.0625 162.321C70.446 163.727 93.0719 186.343 93.0719 186.343H158.46V251.71L192.696 217.424V186.301H223.825V158.03H192.696V72.9001L175.562 55.8635L69.0625 162.321ZM158.46 158.062H119.945L158.46 119.496V158.062Z" fill="#757575"/>
</svg>
