<svg width="2013" height="529" fill="none" xmlns="http://www.w3.org/2000/svg"><path opacity=".936" fill-rule="evenodd" clip-rule="evenodd" d="M347.892 2.397C462.551-9.936 559.319 25.324 638.194 108.178c66.111 81.157 81.78 171.268 47.012 270.328-7.717 18.195-17.512 35.042-29.383 50.54a212.6 212.6 0 0 1-44.661 0c-5.442-2.607-8.968-6.918-10.578-12.929-3.089-6.086-4.657-12.355-4.701-18.805 11.16 2.668 22.521 3.061 34.084 1.175 3.314-.865 5.665-2.823 7.052-5.876a1436.362 1436.362 0 0 0-23.507-61.118c11.131-14.802 8.78-26.949-7.052-36.436-22.345-4.276-32.922 4.737-31.733 27.033 4.163 8.47 10.822 13.954 19.98 16.455a260.908 260.908 0 0 1 11.753 37.611c-7.221.745-14.272-.038-21.155-2.351a7754.312 7754.312 0 0 0-36.435-101.079c-19.012-2.699-38.207-3.092-57.59-1.176a533.878 533.878 0 0 1 17.63 97.554c-2.123 2.823-4.864 4.783-8.227 5.876a208.546 208.546 0 0 1-54.065-1.175 1162.845 1162.845 0 0 1-11.753-103.43h-11.753a4766.202 4766.202 0 0 1 4.701 105.781h-68.168a7975.355 7975.355 0 0 1 4.702-105.781h-9.403A2721.125 2721.125 0 0 1 340.84 374.98a311.272 311.272 0 0 1-54.064 0c-8.913-4.826-11.654-12.268-8.227-22.331a2414.053 2414.053 0 0 1 17.63-79.923 226.938 226.938 0 0 0-56.415-1.176 12712.827 12712.827 0 0 0-55.24 151.619c-2.121 2.824-4.864 4.784-8.227 5.877-15.928 2.163-31.599 1.378-47.012-2.35-56.438-91.08-59.18-183.932-8.228-278.557C174.244 64.807 249.855 16.226 347.892 2.397zm35.26 42.312c46.977.57 82.629 20.943 106.953 61.118a465.146 465.146 0 0 1 24.681 48.189 6231.37 6231.37 0 0 1-242.114 0c12.579-33.789 32.166-62.78 58.766-86.975 15.589-11.837 32.826-19.28 51.714-22.332zM143.388 166.945c166.897-.393 333.791 0 500.682 1.175 3.364 1.093 6.105 3.054 8.228 5.877a143.213 143.213 0 0 1 1.175 25.857 2888.818 2888.818 0 0 1-62.292 21.157 2521.216 2521.216 0 0 0-99.901-35.261 1030.96 1030.96 0 0 0-97.551 37.611 938.78 938.78 0 0 0-98.726-37.611 7534.186 7534.186 0 0 0-99.901 35.261 611.64 611.64 0 0 1-56.415-21.157c-2.726-9.306-3.118-18.709-1.175-28.208 2.338-1.33 4.297-2.898 5.876-4.701zm507.734 47.014c-15.335 23.758-37.274 37.469-65.817 41.136a4064.435 4064.435 0 0 1-191.576 3.527c-64.71.319-129.352-.856-193.926-3.527-27.559-4.346-48.715-18.057-63.467-41.136a1308.781 1308.781 0 0 0 58.766 21.156 1532.095 1532.095 0 0 0 99.901-37.611 1874.3 1874.3 0 0 0 98.726 37.611 1873.964 1873.964 0 0 0 98.726-37.611 1532.34 1532.34 0 0 0 99.902 37.611 1307.85 1307.85 0 0 0 58.765-21.156zm-343.19 79.923c28.557-1.925 37.96 10.221 28.207 36.435-14.021 8.773-26.95 7.598-38.785-3.526-6.549-14.306-3.023-25.277 10.578-32.909zm75.22 0c26.66-3.519 37.238 7.449 31.733 32.909-12.519 11.646-25.84 12.428-39.961 2.351-6.567-14.32-3.824-26.074 8.228-35.26zm77.57 0c22.326-3.12 32.904 6.283 31.733 28.208-4.231 9.758-11.675 14.459-22.33 14.104-20.011-.811-27.456-10.999-22.331-30.559 3.305-5.275 7.613-9.191 12.928-11.753z" fill="#757575"/><path opacity=".917" fill-rule="evenodd" clip-rule="evenodd" d="M942.599 134.035c24.303-.39 48.592 0 72.871 1.175a9639.452 9639.452 0 0 0 57.59 130.463c6.35 5.647 13.8 8.78 22.33 9.403v35.26H975.507v-35.26c13.627 2.304 18.328-2.79 14.104-15.279a170.316 170.316 0 0 0-39.96 0c-5.694 4.964-5.694 9.666 0 14.104 4.543.59 8.852 1.765 12.928 3.526a231.253 231.253 0 0 1 1.175 32.909H862.678v-35.26c8.286.362 14.947-2.771 19.98-9.403 18.027-41.55 36.049-83.08 54.064-124.586 1.641-2.8 3.599-5.15 5.877-7.052zm23.506 72.871c1.836 6.646 4.969 12.912 9.402 18.806-5.324 2.696-10.808 3.088-16.454 1.175a100.864 100.864 0 0 0 7.052-19.981z" fill="#757575"/><path opacity=".91" fill-rule="evenodd" clip-rule="evenodd" d="M1102.44 134.035c37.62-.393 75.23 0 112.83 1.175a1112.598 1112.598 0 0 0 34.09 74.047c10.57-24.682 21.15-49.365 31.73-74.047a980.8 980.8 0 0 1 117.53 1.176c2.6 10.054 2.99 20.239 1.18 30.559-7.24 1.643-12.73 5.561-16.46 11.753a847.63 847.63 0 0 0 0 89.326c4.61 5.378 10.48 8.512 17.63 9.403a117.332 117.332 0 0 1 2.35 32.909h-115.18v-32.909c6.5-.701 12.38-3.051 17.63-7.052a493.917 493.917 0 0 0 0-68.17 1725.545 1725.545 0 0 0-41.14 105.781c-14.62 3.077-29.12 3.077-43.48 0a2187.223 2187.223 0 0 0-44.66-105.781 428.21 428.21 0 0 0 0 63.468c3.95 6.505 9.83 10.423 17.63 11.754a117.332 117.332 0 0 1 2.35 32.909c-31.92.76-63.66-.023-95.2-2.35a85.063 85.063 0 0 1 0-28.209c7.11-2.625 13.38-6.544 18.8-11.753a803.63 803.63 0 0 0 0-86.975c-3.93-8.437-10.59-12.353-19.98-11.754-.65-11.977.13-23.73 2.35-35.26z" fill="#757575"/><path opacity=".92" fill-rule="evenodd" clip-rule="evenodd" d="M1410.37 134.035c38.18-.764 76.19.021 114.01 2.351a100.356 100.356 0 0 1 0 30.559c-8.79 2.795-15.06 8.279-18.81 16.454a760.821 760.821 0 0 0 0 84.625c6.94 5.95 14.38 11.044 22.33 15.28-2.25 8.768-3.04 17.778-2.35 27.032h-115.18v-30.558c6.3-.407 11.79-2.758 16.46-7.053a627.956 627.956 0 0 0 1.17-94.027c-4.5-4.017-9.59-7.153-15.28-9.403a134.563 134.563 0 0 1-2.35-35.26z" fill="#757575"/><path opacity=".908" fill-rule="evenodd" clip-rule="evenodd" d="M1626.63 134.035c28.16-1.519 55.19 3.183 81.1 14.104 4.17-1.81 7.69-4.553 10.57-8.227a302.16 302.16 0 0 1 37.61-1.176v68.17h-68.16c1.99-14.889-4.28-24.684-18.81-29.383-14.2-5.336-27.52-3.769-39.96 4.701a69.847 69.847 0 0 0-5.88 10.578c-2.15 22.118-1.37 44.057 2.35 65.819 11.57 11.053 25.29 14.579 41.14 10.578 8.57-3.432 11.7-9.308 9.4-17.63-5.44-3.366-11.32-5.717-17.63-7.052-1.87-10.002-1.48-19.795 1.18-29.383a941.808 941.808 0 0 1 115.18 1.175c2.57 8.481 2.96 17.101 1.17 25.857-7.12 1.392-13.39 4.528-18.8 9.403-1.18 18.789-1.57 37.595-1.18 56.417-11.78.39-23.53-.003-35.26-1.176-2.11-2.905-4.85-4.866-8.22-5.876-35.06 9.71-70.71 13.236-106.96 10.578-50.37-8.453-78.58-37.837-84.62-88.151 4.65-38.004 25.02-64.254 61.12-78.748 15.03-4.389 29.91-7.915 44.66-10.578z" fill="#757575"/><path opacity=".939" fill-rule="evenodd" clip-rule="evenodd" d="M1856.99 134.035c25.87-.393 51.73 0 77.57 1.175 66.65 16.138 90.54 57.275 71.69 123.411-24.63 39.743-60.67 57.766-108.12 54.066-38.97 2.823-72.67-8.93-101.08-35.26-22.68-35.456-23.46-71.499-2.35-108.132 17.59-17.604 38.35-29.357 62.29-35.26zm35.26 35.26c15.83-.103 24.84 7.732 27.03 23.507 5.78 25.611 4.21 50.683-4.7 75.222-13.41 13.027-25.95 12.245-37.61-2.351-10.87-27.362-10.87-54.787 0-82.274 4.4-5.517 9.49-10.218 15.28-14.104z" fill="#757575"/><path opacity=".81" fill-rule="evenodd" clip-rule="evenodd" d="M919.093 345.597c26.409-4.906 48.74 2.146 66.993 21.156 3.317 5.054 5.277 10.541 5.877 16.455a143.208 143.208 0 0 1-25.857-1.175c-15.376-14.396-32.613-16.747-51.714-7.053-18.805 18.806-18.805 37.611 0 56.417 12.973 6.664 26.294 7.449 39.961 2.351 4.802-4.015 8.72-8.717 11.753-14.105a302.304 302.304 0 0 0-37.61-1.175v-23.507c21.952-.39 43.893 0 65.817 1.176 2.308 28.276-9.445 48.647-35.259 61.117-30.507 7.887-55.973.442-76.395-22.331-19.332-42.698-7.189-72.474 36.434-89.326z" fill="#757575"/><path opacity=".801" fill-rule="evenodd" clip-rule="evenodd" d="M1920.46 345.597c32.63-5.609 57.71 5.362 75.22 32.909a8.704 8.704 0 0 1-2.35 3.527 71.715 71.715 0 0 1-25.86 0c-13.44-13.27-29.11-16.406-47.01-9.403-26.49 24.313-24.14 45.469 7.05 63.468 18.11 4.159 32.22-1.326 42.31-16.455a341.02 341.02 0 0 0-39.96-1.175c-.67-7.703.11-15.145 2.35-22.331a461.076 461.076 0 0 1 65.82 0c2.61 29.183-9.93 49.557-37.61 61.117-23.86 4.685-45.81.769-65.82-11.753-27.41-29.327-26.63-58.318 2.35-86.975 8.19-4.126 16.03-8.435 23.51-12.929z" fill="#757575"/><path opacity=".833" fill-rule="evenodd" clip-rule="evenodd" d="M1128.3 347.947c8.65-.388 17.27.003 25.86 1.176a5926.949 5926.949 0 0 1 50.53 99.904 19.705 19.705 0 0 1 1.18 9.402 86.693 86.693 0 0 1-28.21-2.35 77.661 77.661 0 0 0-9.4-19.981 284.806 284.806 0 0 0-51.71 0l-11.76 21.156a143.135 143.135 0 0 1-25.85 1.175c14.54-37.707 31-74.533 49.36-110.482zm11.75 35.26c6.46 7.417 11.16 16.037 14.11 25.858-8.62 3.133-17.24 3.133-25.86 0 5.85-7.785 9.77-16.403 11.75-25.858z" fill="#757575"/><path opacity=".845" fill-rule="evenodd" clip-rule="evenodd" d="M1295.19 347.947c10.81-.705 21.39.078 31.73 2.351 13.33 25.858 26.64 51.715 39.97 77.573 14.7-25.482 28.8-51.339 42.31-77.573 10.34-2.273 20.92-3.056 31.73-2.351V458.43h-28.21c.39-19.605 0-39.193-1.17-58.768a961.295 961.295 0 0 0-29.39 56.417c-9.3 2.727-18.7 3.119-28.2 1.175a617.426 617.426 0 0 1-29.39-55.241c-.78 18.023-1.56 36.043-2.35 54.066-8.76 2.257-17.77 3.039-27.03 2.351V347.947z" fill="#757575"/><path opacity=".811" fill-rule="evenodd" clip-rule="evenodd" d="M1539.66 347.947h28.2v110.482h-28.2V347.947z" fill="#757575"/><path opacity=".835" fill-rule="evenodd" clip-rule="evenodd" d="M1668.94 347.948c10.31-.767 20.49.018 30.56 2.35 17.6 22.633 35.23 45.357 52.89 68.17 1.17-23.493 1.56-47 1.17-70.52h28.21V458.43c-10.21.39-20.4-.003-30.56-1.176a43708.552 43708.552 0 0 0-52.89-66.994c-.78 21.939-1.56 43.88-2.35 65.819-8.76 2.257-17.77 3.039-27.03 2.351V347.948z" fill="#757575"/><path opacity=".913" fill-rule="evenodd" clip-rule="evenodd" d="M284.425 399.662c72.874-.392 145.743 0 218.608 1.176 10.476 12.07 8.909 22.256-4.702 30.559a1059.586 1059.586 0 0 1-70.518 1.175v32.91c105.134 1.083 208.561 14.795 310.282 41.137a337.889 337.889 0 0 1 49.363 19.98l-5.877 2.351c-193.002-32.193-386.928-39.637-581.778-22.331a3371.647 3371.647 0 0 0-190.4 22.331L0 526.599c45.91-19.905 93.706-33.617 143.388-41.137a1442.352 1442.352 0 0 1 216.257-19.98v-32.91c-23.52.39-47.027 0-70.519-1.175-13.725-8.71-15.293-19.288-4.701-31.735z" fill="#757575"/><path opacity=".047" fill-rule="evenodd" clip-rule="evenodd" d="M180.998 524.249c3.134 1.567 3.134 1.567 0 0z" fill="#757575"/></svg>