<?xml version="1.0" encoding="utf-8"?>
<!-- Generator: Adobe Illustrator 24.2.1, SVG Export Plug-In . SVG Version: 6.00 Build 0)  -->
<svg version="1.1" id="Слой_1" xmlns="http://www.w3.org/2000/svg" xmlns:xlink="http://www.w3.org/1999/xlink" x="0px" y="0px"
	 viewBox="0 0 654.338 216.34" style="enable-background:new 0 0 654.338 216.34;" xml:space="preserve">
<style type="text/css">
	.st0{fill:#A6A6A6;}
	.st1{fill:#FFFFFF;}
	.st2{enable-background:new    ;}
</style>
<g>
	<path class="st0" d="M36.869,216.339c-20.33,0-36.869-16.54-36.869-36.87V36.87C0,16.54,16.54,0,36.869,0h580.6
		c20.33,0,36.869,16.54,36.869,36.87v142.6c0,20.33-16.539,36.87-36.869,36.87L36.869,216.339L36.869,216.339z"/>
	<path d="M648.669,179.47c0,17.2-14,31.2-31.2,31.2h-580.6c-17.2,0-31.2-14-31.2-31.2V36.87c0-17.2,14-31.2,31.2-31.2h580.6
		c17.2,0,31.2,14,31.2,31.2V179.47z"/>
	<g>
		<path class="st1" d="M73.169,84.37c-2.3,0-4.3,0.8-5.9,2.4c-1.6,1.6-2.4,3.6-2.4,5.8v34.9c0,2.3,0.8,4.3,2.4,5.9
			c1.6,1.6,3.6,2.4,5.9,2.4s4.3-0.8,5.9-2.4c1.6-1.6,2.4-3.6,2.4-5.9v-34.8c0-2.3-0.8-4.2-2.4-5.8
			C77.369,85.17,75.469,84.37,73.169,84.37z"/>
		<path class="st1" d="M84.669,139.97c0,2.5,0.9,4.6,2.6,6.3s3.8,2.6,6.3,2.6h6l0.1,18.4c0,2.3,0.8,4.3,2.4,5.9
			c1.6,1.6,3.6,2.4,5.8,2.4c2.3,0,4.3-0.8,5.9-2.4c1.6-1.6,2.4-3.6,2.4-5.9v-18.4h11.2v18.4c0,2.3,0.8,4.3,2.4,5.9
			c1.6,1.6,3.6,2.4,5.9,2.4c2.3,0,4.3-0.8,5.9-2.4c1.6-1.6,2.4-3.6,2.4-5.9v-18.4h6.1c2.4,0,4.5-0.9,6.2-2.6s2.6-3.8,2.6-6.3v-54
			h-74.2V139.97z"/>
		<path class="st1" d="M140.369,53.07l5.8-10.6c0.4-0.7,0.2-1.2-0.4-1.6c-0.7-0.3-1.2-0.2-1.6,0.5l-5.8,10.7
			c-5.1-2.3-10.6-3.4-16.3-3.4c-5.7,0-11.2,1.1-16.3,3.4l-5.8-10.7c-0.4-0.6-0.9-0.8-1.6-0.5c-0.6,0.4-0.8,0.9-0.4,1.6l5.8,10.6
			c-5.8,3-10.5,7.1-14,12.5c-3.5,5.3-5.2,11.2-5.2,17.5h75c0-6.3-1.7-12.2-5.2-17.5C150.769,60.17,146.169,56.07,140.369,53.07z
			 M107.069,68.57c-0.6,0.6-1.4,0.9-2.2,0.9c-0.9,0-1.6-0.3-2.2-0.9c-0.6-0.6-0.9-1.4-0.9-2.2c0-0.9,0.3-1.6,0.9-2.2
			c0.6-0.6,1.3-0.9,2.2-0.9s1.6,0.3,2.2,0.9c0.6,0.6,0.9,1.4,0.9,2.2C107.969,67.17,107.669,67.87,107.069,68.57z M141.269,68.57
			c-0.6,0.6-1.3,0.9-2.2,0.9s-1.6-0.3-2.2-0.9c-0.6-0.6-0.9-1.4-0.9-2.2c0-0.9,0.3-1.6,0.9-2.2c0.6-0.6,1.4-0.9,2.2-0.9
			c0.9,0,1.6,0.3,2.2,0.9c0.6,0.6,0.9,1.4,0.9,2.2C142.169,67.17,141.869,67.87,141.269,68.57z"/>
		<path class="st1" d="M176.569,86.77c-1.6-1.6-3.6-2.4-5.9-2.4c-2.3,0-4.2,0.8-5.8,2.4c-1.6,1.6-2.4,3.6-2.4,5.9v34.9
			c0,2.3,0.8,4.3,2.4,5.9c1.6,1.6,3.6,2.4,5.8,2.4c2.3,0,4.3-0.8,5.9-2.4c1.6-1.6,2.4-3.6,2.4-5.9v-34.9
			C179.069,90.37,178.269,88.37,176.569,86.77z"/>
	</g>
	<g class="st2">
		<path class="st1" d="M227.129,84.522c-2.801,0-5.319-0.536-7.552-1.607c-2.234-1.071-3.901-2.437-5.001-4.096l2.451-2.748
			c1,1.383,2.409,2.498,4.226,3.344c1.817,0.848,3.743,1.271,5.777,1.271c2.601,0,4.652-0.579,6.152-1.737
			c1.5-1.158,2.25-2.739,2.25-4.744c0-2.074-0.775-3.611-2.326-4.614c-1.55-1.002-3.66-1.503-6.327-1.503h-6.802V64.25h6.802
			c2.367,0,4.309-0.475,5.827-1.426c1.517-0.95,2.275-2.376,2.275-4.277c0-1.866-0.759-3.318-2.275-4.355
			c-1.518-1.037-3.426-1.555-5.727-1.555c-3.769,0-6.919,1.4-9.453,4.199l-2.301-2.696c1.333-1.589,3.042-2.877,5.127-3.863
			c2.083-0.985,4.393-1.478,6.927-1.478c3.401,0,6.243,0.83,8.528,2.489c2.283,1.659,3.426,3.906,3.426,6.74
			c0,2.281-0.742,4.104-2.226,5.47s-3.143,2.221-4.977,2.566c1.833,0.173,3.576,1.003,5.227,2.488
			c1.65,1.487,2.476,3.492,2.476,6.014c0,2.904-1.15,5.289-3.451,7.155C233.881,83.588,230.863,84.522,227.129,84.522z"/>
		<path class="st1" d="M264.941,83.899h-3.751v-2.852c-2.034,2.316-4.701,3.474-8.002,3.474c-2.234,0-4.201-0.743-5.902-2.229
			c-1.701-1.485-2.551-3.507-2.551-6.066c0-2.626,0.842-4.657,2.526-6.092c1.683-1.434,3.659-2.152,5.927-2.152
			c3.434,0,6.102,1.141,8.002,3.422v-4.51c0-1.659-0.567-2.956-1.7-3.889c-1.134-0.933-2.601-1.4-4.402-1.4
			c-2.834,0-5.301,1.159-7.402,3.474l-1.75-2.696c2.567-2.765,5.785-4.148,9.653-4.148c2.767,0,5.018,0.692,6.752,2.074
			c1.733,1.383,2.601,3.508,2.601,6.377v17.213H264.941z M254.538,81.722c3.001,0,5.218-1.037,6.652-3.11v-4.718
			c-1.434-2.074-3.651-3.111-6.652-3.111c-1.734,0-3.16,0.51-4.276,1.529c-1.118,1.02-1.676,2.342-1.676,3.966
			c0,1.59,0.558,2.896,1.676,3.915C251.378,81.212,252.804,81.722,254.538,81.722z"/>
		<path class="st1" d="M289.348,58.857v3.422h-13.154v21.62h-3.751V58.857H289.348z"/>
		<path class="st1" d="M306.154,84.522c-3.401,0-6.12-1.469-8.153-4.407v13.324h-3.751V58.857h3.751v3.733
			c0.9-1.313,2.067-2.367,3.501-3.163c1.433-0.794,2.983-1.192,4.651-1.192c3.201,0,5.793,1.185,7.777,3.552
			c1.983,2.368,2.976,5.556,2.976,9.565c0,4.01-0.992,7.207-2.976,9.592C311.947,83.329,309.355,84.522,306.154,84.522z
			 M305.203,81.048c2.367,0,4.251-0.907,5.651-2.722s2.101-4.139,2.101-6.974c0-2.833-0.7-5.15-2.101-6.947
			c-1.4-1.797-3.284-2.696-5.651-2.696c-1.435,0-2.826,0.389-4.177,1.167c-1.351,0.777-2.359,1.72-3.026,2.825v11.303
			c0.667,1.141,1.675,2.1,3.026,2.877C302.377,80.658,303.769,81.048,305.203,81.048z"/>
		<path class="st1" d="M321.507,93.698l0.601-3.525c0.601,0.276,1.283,0.415,2.051,0.415c0.866,0,1.583-0.19,2.15-0.57
			c0.566-0.38,1.051-1.072,1.45-2.074l1.601-3.785l-10.103-25.301h4.051l8.053,20.531l8.003-20.531h4.101l-12.104,30.123
			c-1.334,3.318-3.701,5.011-7.103,5.081C323.258,94.062,322.34,93.94,321.507,93.698z"/>
		<path class="st1" d="M355.918,84.522c-4.635,0-8.27-1.365-10.903-4.096l1.851-2.489c2.268,2.247,5.284,3.37,9.053,3.37
			c2.167,0,3.893-0.397,5.177-1.192c1.283-0.795,1.926-1.849,1.926-3.163c0-2.765-2.534-4.148-7.603-4.148h-5.401v-3.163h5.401
			c2.101,0,3.817-0.354,5.151-1.063c1.334-0.708,2.001-1.753,2.001-3.137c0-1.174-0.667-2.134-2.001-2.877s-3.018-1.114-5.051-1.114
			c-3.369,0-6.069,1.071-8.104,3.214l-1.95-2.385c2.501-2.661,5.802-3.992,9.903-3.992c3.301-0.034,5.977,0.544,8.027,1.737
			c2.051,1.192,3.076,2.843,3.076,4.951c0,1.729-0.675,3.128-2.025,4.2c-1.35,1.072-2.844,1.711-4.477,1.918
			c1.7,0.139,3.292,0.726,4.776,1.763c1.483,1.037,2.226,2.489,2.226,4.355c0,2.144-0.992,3.897-2.976,5.262
			C362.012,83.839,359.32,84.522,355.918,84.522z"/>
		<path class="st1" d="M376.675,83.899h-3.602V58.857h3.751v19.131l12.654-19.131h3.701v25.042h-3.751V64.405L376.675,83.899z"/>
		<path class="st1" d="M408.835,83.899h-3.752v-21.62h-7.002v-3.422h17.806v3.422h-7.052L408.835,83.899L408.835,83.899z"/>
		<path class="st1" d="M431.691,84.522c-3.601,0-6.552-1.218-8.853-3.655s-3.451-5.607-3.451-9.514c0-3.663,1.134-6.766,3.401-9.306
			c2.267-2.541,5.102-3.811,8.503-3.811c3.567,0,6.394,1.271,8.478,3.811c2.083,2.54,3.126,5.747,3.126,9.617v0.985h-19.557
			c0.167,2.455,1.033,4.51,2.602,6.169c1.566,1.659,3.601,2.489,6.102,2.489c3.001,0,5.484-1.054,7.452-3.163l1.801,2.541
			C438.826,83.243,435.625,84.522,431.691,84.522z M439.194,69.797c-0.033-2.143-0.734-4.07-2.101-5.781
			c-1.368-1.711-3.318-2.566-5.853-2.566c-2.4,0-4.293,0.847-5.677,2.54c-1.384,1.694-2.125,3.629-2.226,5.807H439.194z"/>
		<path class="st1" d="M458.999,90.276v-9.591c1.233-0.242,2.2-1.011,2.9-2.307c0.7-1.296,1.268-3.689,1.701-7.181l1.551-12.34
			h16.805v21.62h2.801v9.799h-3.751v-6.377H462.75v6.377H458.999z M468.452,62.279l-1.101,9.384
			c-0.567,4.39-1.734,7.328-3.501,8.814h14.354V62.279H468.452z"/>
		<path class="st1" d="M487.058,84.522v-3.214c1.133,0,2.067-0.778,2.801-2.333c0.733-1.556,1.333-4.148,1.801-7.777l1.551-12.34
			h16.805V83.9h-3.751V62.28h-9.753l-1.101,9.384c-0.534,4.598-1.468,7.89-2.801,9.877
			C491.276,83.528,489.425,84.522,487.058,84.522z"/>
		<path class="st1" d="M521.118,83.899h-4.401l6.452-9.851c-1.835-0.242-3.326-1.037-4.477-2.385
			c-1.15-1.348-1.726-3.059-1.726-5.133c0-2.211,0.683-4.044,2.051-5.496c1.366-1.452,3.233-2.178,5.602-2.178h12.754v25.042h-3.751
			v-9.695h-6.603L521.118,83.899z M525.02,70.782h8.603v-8.503h-8.603c-1.301,0-2.326,0.389-3.076,1.167
			c-0.75,0.777-1.125,1.806-1.125,3.084c0,1.279,0.366,2.307,1.1,3.085S523.686,70.782,525.02,70.782z"/>
	</g>
	<g class="st2">
		<path class="st1" d="M275.459,167.071h-12.355l-4.552-12.038h-28.427l-4.552,12.038h-12.355l24.339-62.728h13.563L275.459,167.071
			z M255.486,145.347l-11.147-29.906l-11.147,29.906H255.486z"/>
		<path class="st1" d="M321.998,167.071h-9.754V138.67c0-6.269-3.004-9.404-9.01-9.404c-2.355,0-4.553,0.596-6.597,1.787
			c-2.043,1.192-3.685,2.633-4.923,4.326v31.693h-9.754v-45.423h9.754v6.207c1.672-2.006,3.901-3.729,6.688-5.173
			c2.787-1.441,5.82-2.163,9.103-2.163c4.77,0,8.377,1.255,10.824,3.762c2.445,2.508,3.668,6.113,3.668,10.815v31.974H321.998z"/>
		<path class="st1" d="M375.971,167.071h-9.754v-6.207c-3.716,4.891-8.517,7.335-14.399,7.335c-5.885,0-10.684-2.13-14.399-6.395
			c-3.716-4.263-5.573-10.063-5.573-17.398c0-7.272,1.857-13.072,5.573-17.398c3.716-4.326,8.515-6.489,14.399-6.489
			c5.883,0,10.684,2.477,14.399,7.429v-23.605h9.754V167.071z M354.605,159.453c2.29,0,4.52-0.564,6.688-1.693
			c2.167-1.128,3.809-2.57,4.924-4.326v-18.057c-1.115-1.754-2.757-3.212-4.924-4.373c-2.169-1.16-4.398-1.74-6.688-1.74
			c-3.841,0-6.906,1.411-9.197,4.232c-2.292,2.821-3.437,6.458-3.437,10.909c0,4.452,1.145,8.073,3.437,10.862
			C347.699,158.059,350.764,159.453,354.605,159.453z"/>
		<path class="st1" d="M398.359,167.071h-9.754v-45.423h9.754v6.677c1.733-2.257,3.901-4.106,6.503-5.549
			c2.601-1.441,5.295-2.163,8.082-2.163v9.781c-0.868-0.188-1.89-0.282-3.065-0.282c-2.044,0-4.228,0.611-6.55,1.834
			s-3.979,2.619-4.97,4.185V167.071z"/>
		<path class="st1" d="M441.09,168.199c-6.937,0-12.511-2.304-16.722-6.912c-4.212-4.608-6.316-10.266-6.316-16.975
			c0-6.708,2.104-12.351,6.316-16.928c4.211-4.576,9.785-6.865,16.722-6.865c6.998,0,12.603,2.289,16.814,6.865
			c4.211,4.577,6.317,10.22,6.317,16.928c0,6.771-2.106,12.446-6.317,17.022C453.693,165.912,448.088,168.199,441.09,168.199z
			 M441.09,159.453c4.025,0,7.2-1.458,9.522-4.373s3.483-6.504,3.483-10.768c0-4.2-1.161-7.759-3.483-10.674
			c-2.322-2.916-5.497-4.373-9.522-4.373c-3.964,0-7.106,1.458-9.429,4.373c-2.322,2.915-3.483,6.474-3.483,10.674
			c0,4.264,1.161,7.853,3.483,10.768S437.126,159.453,441.09,159.453z"/>
		<path class="st1" d="M478.899,116.099c-1.611,0-3.019-0.595-4.227-1.787c-1.208-1.19-1.812-2.633-1.812-4.326
			c0-1.693,0.604-3.134,1.812-4.326c1.208-1.19,2.615-1.787,4.227-1.787c1.672,0,3.097,0.597,4.273,1.787
			c1.176,1.192,1.765,2.633,1.765,4.326c0,1.693-0.589,3.136-1.765,4.326C481.995,115.503,480.571,116.099,478.899,116.099z
			 M483.823,167.071h-9.754v-45.423h9.754V167.071z"/>
		<path class="st1" d="M537.795,167.071h-9.754v-6.207c-3.716,4.891-8.517,7.335-14.399,7.335c-5.885,0-10.684-2.13-14.399-6.395
			c-3.716-4.263-5.573-10.063-5.573-17.398c0-7.272,1.857-13.072,5.573-17.398c3.716-4.326,8.515-6.489,14.399-6.489
			c5.883,0,10.684,2.477,14.399,7.429v-23.605h9.754V167.071z M516.429,159.453c2.29,0,4.52-0.564,6.688-1.693
			c2.167-1.128,3.809-2.57,4.924-4.326v-18.057c-1.115-1.754-2.757-3.212-4.924-4.373c-2.169-1.16-4.398-1.74-6.688-1.74
			c-3.841,0-6.906,1.411-9.197,4.232c-2.292,2.821-3.437,6.458-3.437,10.909c0,4.452,1.145,8.073,3.437,10.862
			C509.523,158.059,512.588,159.453,516.429,159.453z"/>
	</g>
</g>
</svg>
