<?xml version="1.0" encoding="utf-8"?>
<!-- Generator: Adobe Illustrator 24.2.1, SVG Export Plug-In . SVG Version: 6.00 Build 0)  -->
<svg version="1.1" id="Слой_1" xmlns="http://www.w3.org/2000/svg" xmlns:xlink="http://www.w3.org/1999/xlink" x="0px" y="0px"
	 viewBox="0 0 654.338 216.34" style="enable-background:new 0 0 654.338 216.34;" xml:space="preserve">
<style type="text/css">
	.st0{fill:#A6A6A6;}
	.st1{enable-background:new    ;}
	.st2{fill:#FFFFFF;}
</style>
<g>
	<path class="st0" d="M36.869,216.34C16.539,216.34,0,199.8,0,179.47V36.87C0,16.54,16.54,0,36.869,0h580.6
		c20.33,0,36.869,16.54,36.869,36.87v142.6c0,20.33-16.539,36.87-36.869,36.87H36.869z"/>
	<path d="M648.669,179.47c0,17.2-14,31.2-31.2,31.2h-580.6c-17.2,0-31.2-14-31.2-31.2V36.87c0-17.2,14-31.2,31.2-31.2h580.6
		c17.2,0,31.2,14,31.2,31.2V179.47z"/>
	<g class="st1">
		<path class="st2" d="M204.452,84.522c-2.801,0-5.318-0.536-7.552-1.607c-2.234-1.071-3.901-2.437-5.002-4.096l2.451-2.748
			c1,1.383,2.408,2.498,4.226,3.344c1.817,0.848,3.743,1.271,5.777,1.271c2.601,0,4.651-0.579,6.152-1.737
			c1.5-1.158,2.25-2.739,2.25-4.744c0-2.074-0.775-3.611-2.325-4.614c-1.551-1.002-3.66-1.503-6.327-1.503h-6.803v-3.837h6.803
			c2.367,0,4.309-0.475,5.827-1.426c1.517-0.95,2.275-2.376,2.275-4.277c0-1.866-0.759-3.318-2.275-4.355
			c-1.519-1.037-3.427-1.555-5.728-1.555c-3.769,0-6.919,1.4-9.453,4.199l-2.301-2.696c1.334-1.589,3.043-2.877,5.127-3.863
			c2.084-0.985,4.393-1.478,6.928-1.478c3.4,0,6.243,0.83,8.527,2.489c2.283,1.659,3.426,3.906,3.426,6.74
			c0,2.281-0.742,4.104-2.226,5.47c-1.483,1.366-3.143,2.221-4.977,2.566c1.834,0.173,3.576,1.003,5.227,2.488
			c1.65,1.487,2.477,3.492,2.477,6.014c0,2.904-1.15,5.289-3.451,7.155C211.205,83.589,208.186,84.522,204.452,84.522z"/>
		<path class="st2" d="M242.265,83.9h-3.751v-2.852c-2.034,2.316-4.701,3.474-8.003,3.474c-2.234,0-4.201-0.743-5.901-2.229
			c-1.701-1.485-2.551-3.507-2.551-6.066c0-2.626,0.842-4.657,2.525-6.092c1.684-1.434,3.659-2.152,5.927-2.152
			c3.435,0,6.103,1.141,8.003,3.422v-4.51c0-1.659-0.567-2.956-1.7-3.889c-1.135-0.933-2.602-1.4-4.402-1.4
			c-2.834,0-5.301,1.159-7.402,3.474l-1.75-2.696c2.567-2.765,5.784-4.148,9.653-4.148c2.767,0,5.018,0.692,6.752,2.074
			c1.733,1.383,2.601,3.508,2.601,6.377V83.9H242.265z M231.861,81.722c3.001,0,5.218-1.037,6.652-3.11v-4.718
			c-1.435-2.074-3.651-3.111-6.652-3.111c-1.734,0-3.159,0.51-4.276,1.529c-1.117,1.02-1.676,2.342-1.676,3.966
			c0,1.59,0.559,2.896,1.676,3.915C228.702,81.213,230.127,81.722,231.861,81.722z"/>
		<path class="st2" d="M266.672,58.858v3.422h-13.154V83.9h-3.751V58.858H266.672z"/>
		<path class="st2" d="M283.477,84.522c-3.401,0-6.12-1.469-8.153-4.407v13.324h-3.751V58.857h3.751v3.733
			c0.9-1.313,2.067-2.367,3.502-3.163c1.433-0.794,2.983-1.192,4.651-1.192c3.201,0,5.793,1.185,7.777,3.552
			c1.983,2.368,2.976,5.556,2.976,9.565c0,4.01-0.992,7.207-2.976,9.592C289.27,83.329,286.679,84.522,283.477,84.522z
			 M282.527,81.048c2.367,0,4.251-0.907,5.651-2.722c1.4-1.815,2.101-4.139,2.101-6.974c0-2.833-0.7-5.15-2.101-6.947
			c-1.4-1.797-3.284-2.696-5.651-2.696c-1.435,0-2.826,0.389-4.177,1.167c-1.351,0.777-2.359,1.72-3.026,2.825v11.303
			c0.667,1.141,1.676,2.1,3.026,2.877S281.093,81.048,282.527,81.048z"/>
		<path class="st2" d="M298.831,93.698l0.601-3.525c0.601,0.276,1.283,0.415,2.051,0.415c0.866,0,1.583-0.19,2.15-0.57
			c0.566-0.38,1.051-1.072,1.45-2.074l1.601-3.785l-10.103-25.301h4.051l8.053,20.531l8.003-20.531h4.101l-12.104,30.123
			c-1.334,3.318-3.701,5.011-7.103,5.081C300.582,94.062,299.664,93.94,298.831,93.698z"/>
		<path class="st2" d="M333.242,84.522c-4.635,0-8.27-1.365-10.903-4.096l1.851-2.489c2.268,2.247,5.284,3.37,9.053,3.37
			c2.167,0,3.893-0.397,5.177-1.192c1.283-0.795,1.926-1.849,1.926-3.163c0-2.765-2.534-4.148-7.603-4.148h-5.401v-3.163h5.401
			c2.101,0,3.817-0.354,5.151-1.063c1.334-0.708,2.001-1.753,2.001-3.137c0-1.174-0.667-2.134-2.001-2.877s-3.018-1.114-5.051-1.114
			c-3.369,0-6.069,1.071-8.104,3.214l-1.95-2.385c2.501-2.661,5.802-3.992,9.903-3.992c3.301-0.034,5.977,0.544,8.027,1.737
			c2.051,1.192,3.076,2.843,3.076,4.951c0,1.729-0.675,3.128-2.025,4.2s-2.844,1.711-4.477,1.918c1.7,0.139,3.292,0.726,4.776,1.763
			c1.483,1.037,2.226,2.489,2.226,4.355c0,2.144-0.992,3.897-2.976,5.262C339.336,83.84,336.643,84.522,333.242,84.522z"/>
		<path class="st2" d="M353.999,83.9h-3.602V58.858h3.751v19.131l12.654-19.131h3.701V83.9h-3.751V64.406L353.999,83.9z"/>
		<path class="st2" d="M386.159,83.9h-3.752V62.28h-7.002v-3.422h17.806v3.422h-7.052L386.159,83.9L386.159,83.9z"/>
		<path class="st2" d="M409.015,84.522c-3.601,0-6.552-1.218-8.853-3.655s-3.451-5.607-3.451-9.514c0-3.663,1.134-6.766,3.401-9.306
			c2.267-2.541,5.102-3.811,8.503-3.811c3.567,0,6.394,1.271,8.478,3.811c2.083,2.54,3.126,5.747,3.126,9.617v0.985h-19.557
			c0.167,2.455,1.033,4.51,2.602,6.169c1.566,1.659,3.601,2.489,6.102,2.489c3.001,0,5.484-1.054,7.452-3.163l1.801,2.541
			C416.15,83.243,412.949,84.522,409.015,84.522z M416.518,69.798c-0.033-2.143-0.734-4.07-2.101-5.781
			c-1.368-1.711-3.318-2.566-5.853-2.566c-2.4,0-4.293,0.847-5.677,2.54c-1.384,1.694-2.125,3.629-2.226,5.807H416.518z"/>
		<path class="st2" d="M452.728,83.9h-13.555V58.858h13.305c2.101,0,3.759,0.588,4.977,1.763c1.217,1.175,1.825,2.73,1.825,4.666
			c0,1.417-0.375,2.636-1.125,3.655c-0.75,1.02-1.676,1.703-2.776,2.048c1.233,0.311,2.276,1.055,3.126,2.229
			c0.851,1.175,1.275,2.472,1.275,3.888c0,2.04-0.625,3.681-1.875,4.925C456.654,83.278,454.929,83.9,452.728,83.9z M451.828,69.331
			c1.133,0,2.017-0.319,2.65-0.959c0.634-0.639,0.951-1.478,0.951-2.515c0-1.106-0.317-1.979-0.951-2.618s-1.518-0.959-2.65-0.959
			h-8.903v7.051L451.828,69.331L451.828,69.331z M451.978,80.478c1.2,0,2.15-0.345,2.851-1.037c0.7-0.691,1.051-1.624,1.051-2.799
			c0-1.071-0.351-1.987-1.051-2.748c-0.7-0.76-1.65-1.141-2.851-1.141h-9.054v7.725L451.978,80.478L451.978,80.478z"/>
	</g>
	<g class="st1">
		<path class="st2" d="M252.782,167.071h-12.355l-4.552-12.038h-28.427l-4.552,12.038h-12.355l24.34-62.728h13.563L252.782,167.071z
			 M232.81,145.347l-11.147-29.906l-11.147,29.906H232.81z"/>
		<path class="st2" d="M283.437,168.199c-5.945,0-10.746-2.476-14.399-7.429v23.605h-9.754v-62.728h9.754v6.207
			c3.591-4.891,8.392-7.335,14.399-7.335c5.883,0,10.668,2.132,14.354,6.395c3.684,4.264,5.527,10.063,5.527,17.398
			s-1.844,13.151-5.527,17.445C294.105,166.052,289.32,168.199,283.437,168.199z M280.559,159.453c3.838,0,6.904-1.411,9.195-4.232
			s3.438-6.457,3.438-10.909c0-4.451-1.146-8.072-3.438-10.862c-2.291-2.789-5.357-4.185-9.195-4.185
			c-2.23,0-4.43,0.596-6.597,1.787c-2.169,1.192-3.809,2.633-4.924,4.326v17.962c1.115,1.693,2.755,3.136,4.924,4.326
			C276.129,158.858,278.328,159.453,280.559,159.453z"/>
		<path class="st2" d="M337.132,168.199c-5.946,0-10.746-2.476-14.399-7.429v23.605h-9.754v-62.728h9.754v6.207
			c3.591-4.891,8.392-7.335,14.399-7.335c5.883,0,10.667,2.132,14.353,6.395c3.684,4.264,5.527,10.063,5.527,17.398
			s-1.844,13.151-5.527,17.445C347.799,166.052,343.015,168.199,337.132,168.199z M334.252,159.453c3.839,0,6.904-1.411,9.196-4.232
			c2.291-2.821,3.438-6.457,3.438-10.909c0-4.451-1.146-8.072-3.438-10.862c-2.292-2.789-5.357-4.185-9.196-4.185
			c-2.229,0-4.429,0.596-6.596,1.787c-2.169,1.192-3.81,2.633-4.924,4.326v17.962c1.114,1.693,2.755,3.136,4.924,4.326
			C329.823,158.858,332.022,159.453,334.252,159.453z"/>
		<path class="st2" d="M412.004,168.199c-10.652,0-19.044-3.322-25.175-9.969l6.038-8.464c5.325,5.769,11.858,8.652,19.601,8.652
			c4.148,0,7.261-0.847,9.337-2.54c2.074-1.693,3.111-3.698,3.111-6.019c0-2.382-1.239-4.279-3.716-5.69
			c-2.478-1.411-5.48-2.523-9.011-3.338c-3.53-0.814-7.076-1.787-10.637-2.916c-3.562-1.128-6.581-3.04-9.058-5.737
			c-2.478-2.695-3.716-6.174-3.716-10.439c0-5.266,2.091-9.639,6.271-13.119c4.181-3.479,9.615-5.219,16.304-5.219
			c9.536,0,17.279,2.915,23.225,8.746l-6.225,8.182c-4.707-4.764-10.683-7.147-17.929-7.147c-3.222,0-5.775,0.705-7.664,2.116
			c-1.89,1.411-2.834,3.308-2.834,5.69c0,1.568,0.665,2.884,1.998,3.95c1.331,1.067,3.049,1.928,5.155,2.586
			c2.104,0.659,4.443,1.302,7.014,1.928c2.569,0.627,5.14,1.396,7.711,2.304c2.569,0.909,4.907,2.022,7.014,3.338
			c2.104,1.316,3.823,3.136,5.155,5.455c1.331,2.32,1.998,5.079,1.998,8.276c0,5.643-2.014,10.283-6.039,13.918
			C425.906,166.382,419.931,168.199,412.004,168.199z"/>
		<path class="st2" d="M457.802,168.199c-3.778,0-6.643-1.003-8.593-3.009c-1.951-2.006-2.927-4.89-2.927-8.652V130.3h-7.432v-8.652
			h7.432v-12.414h9.755v12.414h9.104v8.652h-9.104v23.793c0,1.631,0.371,2.932,1.114,3.903c0.743,0.973,1.796,1.458,3.158,1.458
			c1.981,0,3.438-0.532,4.366-1.599l2.322,7.43C464.955,167.227,461.89,168.199,457.802,168.199z"/>
		<path class="st2" d="M494.216,168.199c-6.937,0-12.511-2.304-16.722-6.912c-4.212-4.608-6.316-10.266-6.316-16.975
			c0-6.708,2.104-12.351,6.316-16.928c4.211-4.576,9.785-6.865,16.722-6.865c6.998,0,12.603,2.289,16.814,6.865
			c4.211,4.577,6.317,10.22,6.317,16.928c0,6.771-2.106,12.446-6.317,17.022C506.818,165.912,501.214,168.199,494.216,168.199z
			 M494.216,159.453c4.025,0,7.2-1.458,9.522-4.373s3.483-6.504,3.483-10.768c0-4.2-1.161-7.759-3.483-10.674
			c-2.322-2.916-5.497-4.373-9.522-4.373c-3.964,0-7.106,1.458-9.429,4.373c-2.322,2.915-3.483,6.474-3.483,10.674
			c0,4.264,1.161,7.853,3.483,10.768S490.252,159.453,494.216,159.453z"/>
		<path class="st2" d="M536.948,167.071h-9.754v-45.423h9.754v6.677c1.733-2.257,3.901-4.106,6.503-5.549
			c2.601-1.441,5.295-2.163,8.082-2.163v9.781c-0.868-0.188-1.89-0.282-3.065-0.282c-2.044,0-4.228,0.611-6.55,1.834
			s-3.979,2.619-4.97,4.185L536.948,167.071L536.948,167.071z"/>
		<path class="st2" d="M580.144,168.199c-6.813,0-12.434-2.21-16.861-6.63c-4.429-4.42-6.642-10.171-6.642-17.257
			c0-6.645,2.151-12.273,6.456-16.881c4.304-4.608,9.738-6.912,16.304-6.912c6.626,0,11.968,2.32,16.024,6.959
			c4.056,4.641,6.085,10.565,6.085,17.774v2.351h-34.65c0.371,3.574,1.826,6.552,4.366,8.934c2.538,2.384,5.853,3.574,9.939,3.574
			c2.291,0,4.599-0.438,6.921-1.316c2.322-0.877,4.258-2.1,5.807-3.668l4.459,6.489
			C593.831,166.006,587.762,168.199,580.144,168.199z M592.035,140.645c-0.125-3.135-1.254-5.925-3.391-8.37
			s-5.219-3.668-9.243-3.668c-3.841,0-6.844,1.208-9.011,3.621c-2.169,2.414-3.377,5.219-3.623,8.417H592.035z"/>
	</g>
	<g id="_Group_2_1_">
		<g id="_Group_3_1_">
			<path id="_Path__1_" class="st2" d="M140.953,107.584c0.125-9.677,5.198-18.616,13.442-23.684
				c-5.225-7.462-13.662-12.023-22.766-12.308c-9.579-1.005-18.865,5.732-23.746,5.732c-4.976,0-12.491-5.632-20.584-5.465
				c-10.648,0.344-20.334,6.251-25.514,15.56c-11.032,19.1-2.803,47.171,7.765,62.61c5.287,7.56,11.466,16.005,19.552,15.705
				c7.912-0.328,10.867-5.045,20.418-5.045c9.462,0,12.234,5.045,20.484,4.855c8.49-0.138,13.839-7.594,18.941-15.225
				c3.799-5.387,6.722-11.34,8.661-17.64C147.522,128.413,140.965,118.533,140.953,107.584z"/>
			<path id="_Path_2_1_" class="st2" d="M125.372,61.439c4.629-5.557,6.91-12.7,6.358-19.911
				c-7.072,0.743-13.605,4.123-18.297,9.467c-4.633,5.272-6.98,12.17-6.524,19.174C114.076,70.242,120.881,67.024,125.372,61.439z"
				/>
		</g>
	</g>
</g>
</svg>
