<svg width="1488" height="448" viewBox="0 0 1488 448" fill="none" xmlns="http://www.w3.org/2000/svg">
<mask id="mask0_1388_101" style="mask-type:luminance" maskUnits="userSpaceOnUse" x="0" y="0" width="1488" height="448">
<path d="M0 0H1488V448H0V0Z" fill="white"/>
</mask>
<g mask="url(#mask0_1388_101)">
<path fill-rule="evenodd" clip-rule="evenodd" d="M1488 448H0V-0.00231934H1488V448ZM1261.21 244.865C1261.21 275.391 1278.55 293.726 1310.28 293.726H1349.01V264.467H1317.13C1301.05 264.467 1295.74 256.209 1295.74 238.851V182.567H1349.01L1356.41 153.876H1295.74V114.954H1271.27L1261.77 153.876H1234.93V182.567H1261.21V244.865ZM1127.94 180.611C1151.42 180.611 1170.58 198.81 1170.58 223.727C1170.58 248.786 1151.42 266.991 1127.94 266.991C1105.01 266.991 1086.84 248.933 1086.84 223.727C1086.84 198.668 1105.01 180.611 1127.94 180.611ZM1204.97 153.876H1175.6L1171.97 174.03C1160.38 158.912 1142.9 150.232 1122.21 150.232C1083.48 150.232 1052.45 180.469 1052.45 223.727C1052.45 267.689 1083.62 297.227 1121.92 297.227C1142.62 297.227 1160.23 288.543 1171.97 273.43L1175.6 293.726H1204.97V153.876ZM972.03 215.753C972.03 195.309 983.486 182.567 1004.32 182.567H1031.02V151.357H1006.7C988.112 151.357 973.983 160.026 967.84 173.609L965.176 153.876H911.357V180.611L937.638 182.43V265.308L911.357 266.991V293.726H1022.08V266.991L972.03 265.308V215.753ZM796.815 180.611C820.302 180.611 839.457 198.81 839.457 223.727C839.457 248.786 820.302 266.991 796.815 266.991C773.888 266.991 755.708 248.933 755.708 223.727C755.708 198.668 773.888 180.611 796.815 180.611ZM873.839 153.876H844.491L840.848 174.03C829.253 158.912 811.774 150.232 791.084 150.232C752.358 150.232 721.331 180.469 721.331 223.727C721.331 267.689 752.503 297.227 790.806 297.227C811.496 297.227 829.109 288.543 840.848 273.43L844.491 293.726H873.839V153.876ZM621.465 266.991C598.121 266.991 578.823 248.786 578.823 223.727C578.823 198.81 598.121 180.611 621.465 180.611C644.386 180.611 662.562 198.668 662.562 223.727C662.562 248.933 644.386 266.991 621.465 266.991ZM578.823 325.782V275.243C590.423 289.248 607.346 297.227 627.195 297.227C665.365 297.227 696.954 267.689 696.954 223.727C696.954 180.469 666.339 150.232 627.613 150.232C606.784 150.232 589.17 159.053 577.431 174.172L573.789 153.876H544.436V325.924L518.995 327.606V354.489H629.715V327.606L578.823 325.782ZM435.205 266.991C411.861 266.991 392.705 248.786 392.705 223.727C392.705 198.81 411.861 180.611 435.205 180.611C458.129 180.611 476.444 198.668 476.444 223.727C476.444 248.933 458.129 266.991 435.205 266.991ZM392.705 325.782V275.391C404.307 289.248 421.084 297.227 440.937 297.227C479.237 297.227 510.834 267.689 510.834 223.727C510.834 180.469 480.082 150.232 441.357 150.232C420.664 150.232 403.047 158.912 391.304 174.172L387.535 153.876H331.891V180.611L358.175 182.43V325.924L332.873 327.606V354.489H443.588V327.606L392.705 325.782ZM266.42 255.646L275.229 293.726H313.954L267.822 108.935H145.642L137.951 139.598H239.722L259.428 224.989H191.774L206.031 162.975H170.944L137.951 293.726H175.978L184.781 255.646H266.42Z" fill="#757575"/>
</g>
</svg>
