<svg width="1535" height="511" viewBox="0 0 1535 511" fill="none" xmlns="http://www.w3.org/2000/svg">
<path d="M675.694 307.653H650.931L639.591 288.114L612.514 241.174L585.437 288.114L574.135 307.653H549.334L560.674 288.114L612.514 198.165L664.393 288.114L675.694 307.653Z" fill="#757575"/>
<path d="M767.726 198.165L756.425 217.704L704.546 307.653L652.706 217.704L641.366 198.165H666.168L677.469 217.704L704.546 264.644L731.623 217.704L742.963 198.165H767.726Z" fill="#757575"/>
<path d="M860.104 307.653H835.341L824.001 288.114L796.924 241.174L769.847 288.114L758.507 307.653H733.744L745.084 288.114L796.924 198.165L848.764 288.114L860.104 307.653Z" fill="#757575"/>
<path d="M959.387 198.319V217.858H908.588V307.807H886.448V217.858H835.688V198.319H959.387Z" fill="#757575"/>
<path d="M1061.68 307.653H1036.88L1025.58 288.114L998.498 241.174L971.421 288.114L960.081 307.653H935.318L946.62 288.114L998.498 198.165L1050.34 288.114L1061.68 307.653Z" fill="#757575"/>
<path d="M0 446.121L201.459 65.1686L294.069 0L490.127 462.693L257.811 175.812L0 446.121Z" fill="#757575"/>
<path d="M162.077 378.255L243.116 448.819L542.199 164.251L247.744 510.904L162.077 378.255Z" fill="#757575"/>
<path d="M1178.86 288.268L1190.2 307.807H1165.55L1153.98 288.268L1142.41 267.765L1141.87 266.84C1139.73 263.875 1136.9 261.472 1133.63 259.834C1130.36 258.197 1126.74 257.374 1123.08 257.437H1100.98V307.807H1078.84V198.319H1157.07C1165.71 198.225 1174.08 201.28 1180.63 206.913C1183.64 209.527 1186.06 212.746 1187.73 216.359C1189.41 219.972 1190.3 223.897 1190.35 227.878C1190.17 233.804 1188.22 239.542 1184.75 244.35C1181.28 249.158 1176.45 252.817 1170.87 254.855C1167.83 256.133 1164.6 256.926 1161.31 257.206L1178.86 288.268ZM1156.91 237.898C1158.51 237.914 1160.08 237.585 1161.54 236.935C1163.17 236.443 1164.64 235.521 1165.79 234.265C1166.93 233.01 1167.72 231.468 1168.07 229.802C1168.41 228.136 1168.3 226.408 1167.74 224.801C1167.18 223.193 1166.2 221.767 1164.9 220.671C1162.66 218.801 1159.83 217.802 1156.91 217.858H1100.83V238.052L1156.91 237.898Z" fill="#757575"/>
<path d="M1367.24 198.512V283.296C1367.24 297.093 1357.06 308.154 1344.83 308.154H1246.28C1233.9 308.154 1223.91 297.093 1223.91 283.296V198.512H1232.94V283.296C1232.77 287.024 1234.07 290.67 1236.57 293.445C1239.06 296.221 1242.55 297.905 1246.28 298.134H1344.83C1348.56 297.905 1352.05 296.221 1354.54 293.445C1357.04 290.67 1358.35 287.024 1358.18 283.296V198.512H1367.24Z" fill="#757575"/>
<path d="M1470.27 253.236L1534.22 307.961H1519.56L1462.94 259.518L1406.51 307.961H1391.66L1455.61 253.236L1391.66 198.512H1406.51L1462.94 246.955L1519.56 198.512H1534.22L1470.27 253.236Z" fill="#757575"/>
</svg>
