<svg width="2607" height="638" viewBox="0 0 2607 638" fill="none" xmlns="http://www.w3.org/2000/svg">
<path d="M0 11.3708C29.9623 11.3144 59.9246 11.258 90.7948 11.1999C100.223 11.175 109.652 11.1501 119.366 11.1245C130.961 11.1121 130.961 11.1121 136.405 11.1098C140.173 11.1073 143.941 11.0971 147.708 11.0821C152.539 11.0631 157.369 11.0578 162.2 11.0616C163.958 11.0608 165.715 11.0555 167.472 11.0448C183.281 10.9531 199.267 12.1613 214.513 16.6111C215.336 16.8451 216.159 17.0791 217.007 17.3202C234.743 22.5447 249.403 31.1287 262.473 44.1799C263.148 44.8437 263.822 45.5075 264.517 46.1913C281.747 64.2599 287.758 91.361 287.308 115.665C285.973 134.694 279.6 150.779 266.119 164.48C265.425 165.186 264.73 165.892 264.015 166.62C258.065 172.315 251.472 176.152 244.246 179.973C244.713 180.197 245.181 180.421 245.662 180.651C256.036 185.681 264.531 190.721 272.498 199.112C273.234 199.842 273.969 200.571 274.727 201.323C290.713 217.878 297.716 240.978 297.472 263.539C296.844 287.034 290.144 308.91 274.321 326.703C273.727 327.384 273.132 328.064 272.52 328.765C253.224 349.47 223.912 356.971 196.855 360.424C195.671 360.579 194.488 360.735 193.268 360.895C185.365 361.67 177.405 361.454 169.473 361.439C167.592 361.438 165.711 361.439 163.83 361.439C158.812 361.439 153.793 361.434 148.775 361.428C144.059 361.422 139.343 361.422 134.627 361.421C120.852 361.417 107.076 361.404 93.3011 361.392C62.5117 361.373 31.7224 361.355 0 361.335C0 245.847 0 130.359 0 11.3708ZM65.6183 71.5209C65.6183 97.987 65.6183 124.453 65.6183 151.721C85.1298 151.776 85.1298 151.776 104.641 151.813C111.625 151.823 118.608 151.835 125.591 151.859C131.719 151.879 137.847 151.889 143.975 151.894C146.303 151.897 148.631 151.904 150.959 151.914C183.875 152.393 183.875 152.393 212.241 137.517C218.644 130.216 220.885 121.711 220.743 112.201C219.919 101.899 214.558 91.9612 207.058 84.9885C192.382 73.1065 175.303 71.3522 157.08 71.4174C156.083 71.4173 155.085 71.4172 154.058 71.417C150.804 71.4177 147.549 71.4247 144.295 71.4319C142.022 71.4336 139.749 71.4349 137.476 71.4358C131.525 71.4393 125.574 71.4482 119.623 71.4583C112.466 71.4699 105.309 71.4735 98.1524 71.4788C87.3077 71.4876 76.463 71.5051 65.6183 71.5209ZM65.6183 210.049C65.6183 239.522 65.6183 268.996 65.6183 299.362C85.5479 299.445 85.5479 299.445 105.477 299.5C112.612 299.515 119.747 299.534 126.882 299.569C132.536 299.596 138.19 299.614 143.845 299.62C146.83 299.623 149.816 299.633 152.801 299.651C176.212 299.792 202.281 299.444 220.796 282.936C227.743 275.796 230.986 267.785 231.145 257.895C230.971 246.258 225.93 237.64 218.059 229.344C210.507 222.18 201.139 217.6 191.387 214.264C190.761 214.046 190.136 213.829 189.492 213.605C175.448 209.104 160.809 209.808 146.253 209.871C143.921 209.874 141.59 209.877 139.258 209.878C133.781 209.885 128.304 209.899 122.827 209.917C115.969 209.94 109.11 209.95 102.251 209.96C90.04 209.977 77.8293 210.014 65.6183 210.049Z" fill="#757575"/>
<path d="M1703.34 11.3706C1789.96 11.3706 1876.58 11.3706 1965.82 11.3706C1965.82 32.7239 1965.82 54.0772 1965.82 76.0776C1901.16 76.0776 1836.49 76.0776 1769.87 76.0776C1769.87 102.243 1769.87 128.408 1769.87 155.366C1832.43 155.366 1894.99 155.366 1959.44 155.366C1959.44 175.817 1959.44 196.268 1959.44 217.339C1896.88 217.339 1834.33 217.339 1769.87 217.339C1769.87 243.204 1769.87 269.068 1769.87 295.717C1834.53 295.717 1899.2 295.717 1965.82 295.717C1965.82 317.371 1965.82 339.025 1965.82 361.335C1879.2 361.335 1792.58 361.335 1703.34 361.335C1703.34 245.847 1703.34 130.359 1703.34 11.3706Z" fill="#757575"/>
<path d="M462.976 11.3706C487.337 11.3706 511.698 11.3706 536.797 11.3706C544.137 27.0998 544.137 27.0998 547.171 33.8201C547.685 34.9572 547.685 34.9572 548.21 36.1173C549.305 38.5386 550.399 40.9604 551.493 43.3823C552.266 45.094 553.04 46.8056 553.814 48.5172C558.513 58.9184 563.198 69.3264 567.859 79.7446C570.631 85.9391 573.411 92.1299 576.199 98.317C583.128 113.693 590.033 129.078 596.866 144.496C602.214 156.558 607.646 168.582 613.095 180.598C618.387 192.272 623.626 203.969 628.817 215.688C633.783 226.897 638.82 238.072 643.883 249.237C649.544 261.723 655.159 274.227 660.709 286.763C665.786 298.225 670.943 309.648 676.122 321.064C680.83 331.445 685.53 341.826 690.077 352.278C690.446 353.123 690.814 353.968 691.193 354.839C693.552 360.302 693.552 360.302 693.552 361.335C669.191 361.335 644.83 361.335 619.731 361.335C617.269 355.715 614.807 350.095 612.269 344.304C605.985 329.963 605.985 329.963 599.599 315.667C599.32 315.048 599.041 314.428 598.753 313.79C597.461 310.925 596.164 308.063 594.86 305.204C594.409 304.208 593.959 303.211 593.494 302.185C593.102 301.325 592.71 300.466 592.306 299.58C591.479 297.539 591.479 297.539 591.479 295.717C501.254 296.168 501.254 296.168 409.206 296.628C397.088 322.964 397.088 322.964 385.1 349.358C384.261 351.22 383.419 353.081 382.577 354.941C382.107 355.982 381.638 357.022 381.155 358.095C380.042 360.424 380.042 360.424 379.131 361.335C376.885 361.422 374.664 361.45 372.418 361.439C371.716 361.439 371.013 361.439 370.29 361.439C367.957 361.438 365.625 361.431 363.292 361.424C361.679 361.422 360.066 361.421 358.453 361.42C354.2 361.417 349.946 361.408 345.693 361.398C341.356 361.388 337.018 361.384 332.681 361.38C324.165 361.37 315.649 361.354 307.133 361.335C308.846 355.894 310.833 350.695 313.21 345.511C313.53 344.803 313.85 344.095 314.18 343.366C314.868 341.848 315.558 340.33 316.249 338.814C318.112 334.725 319.962 330.63 321.814 326.536C322.38 325.287 322.38 325.287 322.958 324.012C326.218 316.813 329.431 309.593 332.63 302.366C338.558 288.973 344.573 275.621 350.621 262.282C355.614 251.271 360.564 240.242 365.46 229.187C371.082 216.494 376.786 203.839 382.519 191.195C387.512 180.184 392.462 169.155 397.358 158.101C402.98 145.407 408.684 132.752 414.417 120.109C419.708 108.439 424.946 96.7474 430.134 85.0314C435.895 72.0242 441.754 59.0625 447.647 46.1146C452.884 34.5823 457.924 22.9905 462.976 11.3706ZM499.431 87.014C489.401 109.829 479.404 132.659 469.455 155.51C466.556 162.168 463.654 168.824 460.752 175.481C459.795 177.676 458.838 179.871 457.882 182.066C454.844 189.036 451.805 196.006 448.761 202.973C447.316 206.28 445.871 209.589 444.427 212.897C443.735 214.481 443.043 216.065 442.35 217.648C441.392 219.838 440.436 222.027 439.48 224.217C439.195 224.868 438.91 225.518 438.617 226.188C437.527 228.688 436.498 231.155 435.635 233.744C478.041 233.744 520.447 233.744 564.138 233.744C562.514 228.873 561.057 224.508 558.962 219.92C558.497 218.896 558.033 217.872 557.555 216.816C557.058 215.73 556.561 214.643 556.05 213.523C554.972 211.145 553.898 208.765 552.824 206.385C552.55 205.779 552.277 205.172 551.995 204.547C549.223 198.395 546.534 192.207 543.86 186.011C543.373 184.884 542.887 183.757 542.4 182.63C541.642 180.874 540.884 179.119 540.126 177.364C536.85 169.777 533.549 162.201 530.247 154.626C529.926 153.89 529.605 153.155 529.275 152.397C525.443 143.605 521.6 134.819 517.74 126.039C517.185 124.776 517.185 124.776 516.619 123.487C514.833 119.425 513.046 115.363 511.257 111.303C510.604 109.82 509.952 108.337 509.299 106.854C508.991 106.154 508.683 105.455 508.365 104.734C506.196 99.7956 504.137 94.824 502.164 89.8039C501.417 87.7753 501.417 87.7753 499.431 87.014Z" fill="#757575"/>
<path d="M2136.24 11.3706C2160.6 11.3706 2184.96 11.3706 2210.06 11.3706C2214.86 21.4941 2219.62 31.5784 2224.12 41.8237C2225.68 45.3469 2227.24 48.8664 2228.8 52.3856C2229.12 53.1238 2229.45 53.862 2229.79 54.6226C2233.65 63.3146 2237.58 71.9739 2241.5 80.6344C2246.89 92.5002 2252.23 104.38 2257.51 116.292C2264.38 131.79 2271.33 147.25 2278.3 162.706C2281.7 170.257 2285.09 177.816 2288.47 185.375C2291.26 191.601 2294.06 197.823 2296.86 204.043C2303.79 219.416 2310.69 234.798 2317.52 250.214C2322.51 261.458 2327.56 272.668 2332.64 283.869C2339.62 299.265 2346.52 314.693 2353.37 330.15C2355.31 334.534 2357.26 338.914 2359.22 343.293C2359.74 344.461 2360.26 345.628 2360.78 346.796C2361.74 348.953 2362.71 351.11 2363.67 353.266C2364.09 354.203 2364.51 355.14 2364.94 356.105C2365.3 356.923 2365.67 357.74 2366.05 358.582C2366.82 360.424 2366.82 360.424 2366.82 361.335C2342.46 361.335 2318.1 361.335 2293 361.335C2289.39 353.215 2285.78 345.095 2282.06 336.728C2280.46 333.127 2278.86 329.527 2277.2 325.817C2274.94 320.724 2274.94 320.724 2273.84 318.229C2273.07 316.508 2272.31 314.788 2271.54 313.069C2270.41 310.522 2269.28 307.974 2268.15 305.425C2267.8 304.654 2267.46 303.884 2267.1 303.09C2266.64 302.032 2266.64 302.032 2266.16 300.953C2265.89 300.335 2265.61 299.717 2265.33 299.081C2264.74 297.539 2264.74 297.539 2264.74 295.717C2174.52 296.168 2174.52 296.168 2082.47 296.628C2073 317.15 2063.54 337.655 2054.32 358.291C2053.31 360.424 2053.31 360.424 2052.4 361.335C2050.15 361.422 2047.93 361.45 2045.68 361.439C2044.98 361.439 2044.28 361.439 2043.56 361.439C2041.22 361.438 2038.89 361.431 2036.56 361.424C2034.94 361.422 2033.33 361.421 2031.72 361.42C2027.47 361.417 2023.21 361.408 2018.96 361.398C2014.62 361.388 2010.28 361.384 2005.95 361.38C1997.43 361.37 1988.91 361.354 1980.4 361.335C1981.12 357.323 1982.48 353.896 1984.2 350.221C1984.64 349.27 1984.64 349.27 1985.09 348.299C1985.72 346.936 1986.35 345.574 1986.98 344.213C1988.67 340.585 1990.34 336.949 1992.01 333.314C1992.35 332.586 1992.69 331.858 1993.03 331.107C1995.82 325.049 1998.55 318.964 2001.25 312.862C2005.72 302.741 2010.25 292.647 2014.8 282.559C2020.06 270.897 2025.28 259.223 2030.47 247.528C2036.11 234.798 2041.83 222.105 2047.58 209.423C2052.57 198.412 2057.53 187.383 2062.42 176.328C2068.04 163.634 2073.75 150.98 2079.48 138.336C2084.47 127.325 2089.42 116.296 2094.32 105.241C2099.58 93.3672 2104.9 81.5253 2110.27 69.698C2115.93 57.2053 2121.56 44.6974 2127.13 32.1611C2127.59 31.1222 2127.59 31.1222 2128.06 30.0623C2130.82 23.8456 2133.56 17.623 2136.24 11.3706ZM2172.7 87.014C2164.3 106.109 2155.92 125.211 2147.59 144.336C2142.89 155.143 2138.16 165.939 2133.42 176.729C2128.4 188.137 2123.39 199.548 2118.43 210.979C2117.7 212.657 2116.97 214.333 2116.24 216.01C2115.59 217.526 2115.59 217.526 2114.92 219.073C2114.36 220.363 2114.36 220.363 2113.79 221.679C2112.11 225.679 2110.51 229.715 2108.9 233.744C2151.31 233.744 2193.71 233.744 2237.4 233.744C2235.97 229.442 2234.38 225.353 2232.56 221.216C2232.26 220.532 2231.96 219.848 2231.65 219.143C2230.67 216.889 2229.68 214.636 2228.69 212.384C2227.99 210.789 2227.29 209.194 2226.6 207.599C2225.15 204.286 2223.7 200.973 2222.24 197.66C2219.25 190.828 2216.27 183.99 2213.3 177.151C2211.69 173.461 2210.08 169.772 2208.47 166.082C2208.15 165.349 2207.83 164.616 2207.5 163.861C2205.56 159.4 2203.61 154.939 2201.67 150.479C2200.36 147.494 2199.06 144.51 2197.76 141.525C2196.8 139.324 2195.84 137.123 2194.88 134.923C2191.54 127.277 2188.23 119.62 2184.95 111.948C2183.94 109.597 2182.94 107.247 2181.93 104.896C2180.97 102.661 2180.02 100.424 2179.08 98.1867C2178.5 96.838 2177.92 95.4895 2177.34 94.1411C2177.08 93.5212 2176.82 92.9012 2176.55 92.2625C2175.32 89.0393 2175.32 89.0393 2172.7 87.014Z" fill="#757575"/>
<path d="M1503.77 0.0277506C1506.3 0.0361035 1508.82 0.0298536 1511.35 0.00906046C1548.89 -0.297815 1586.66 7.12481 1615.85 32.3321C1616.54 32.9007 1617.23 33.4693 1617.94 34.0551C1627.39 42.0519 1634.04 51.9643 1640.46 62.4071C1641.01 63.2084 1641.56 64.0096 1642.12 64.8351C1643.19 66.964 1643.19 66.964 1643.12 68.7431C1641.85 71.564 1639.98 72.1153 1637.22 73.4361C1635.63 74.2126 1635.63 74.2126 1634.01 75.0047C1632.85 75.5523 1631.7 76.0998 1630.55 76.6472C1628.8 77.4977 1627.04 78.3528 1625.29 79.2081C1624.12 79.7798 1622.95 80.35 1621.77 80.9187C1616.78 83.3413 1611.86 85.8849 1606.97 88.495C1605.06 89.5101 1603.16 90.5249 1601.25 91.529C1599.99 92.196 1598.74 92.8778 1597.49 93.5707C1596.86 93.914 1596.22 94.2574 1595.56 94.6111C1594.99 94.924 1594.43 95.237 1593.84 95.5594C1591.71 96.2786 1590.6 96.0064 1588.51 95.2163C1587.18 93.7567 1587.18 93.7567 1585.95 91.9126C1574.27 75.5706 1554.51 66.7324 1535.65 61.4958C1534.58 61.1856 1533.51 60.8755 1532.4 60.5559C1515.26 56.4923 1493.42 56.9124 1476.41 61.4958C1475.83 61.6522 1475.25 61.8086 1474.64 61.9697C1460.49 65.8794 1448.56 72.4334 1440.87 85.1913C1436.4 94.4644 1434.78 103.401 1437.62 113.444C1440.97 122.527 1447.54 128.461 1455.95 132.96C1475.3 141.847 1496.65 144.257 1517.53 147.151C1548 151.377 1579.74 155.971 1606.74 171.771C1607.3 172.095 1607.85 172.419 1608.43 172.753C1615.86 177.148 1622.4 182.154 1628.61 188.176C1629.45 188.91 1629.45 188.91 1630.3 189.66C1644.95 203.006 1652.66 225.353 1654.13 244.68C1655.29 274.269 1651.77 302.82 1631.35 325.792C1630.81 326.458 1630.27 327.124 1629.72 327.81C1620.78 338.608 1609.04 345.872 1596.71 352.221C1596.17 352.508 1595.63 352.794 1595.08 353.089C1581.74 360.098 1567.02 364.219 1552.29 367.088C1551.6 367.222 1550.91 367.356 1550.21 367.495C1535.72 370.092 1521.18 370.794 1506.49 370.734C1505.21 370.731 1505.21 370.731 1503.91 370.729C1458.97 370.582 1415.33 361.117 1382.03 329.21C1371.45 318.313 1363.45 305.485 1356.91 291.844C1356.63 291.267 1356.35 290.691 1356.06 290.098C1354.18 286.024 1354.18 286.024 1355.2 282.958C1357.17 281.749 1359.07 280.705 1361.13 279.686C1361.74 279.375 1362.35 279.064 1362.98 278.744C1364.98 277.729 1366.98 276.726 1368.99 275.724C1370.36 275.03 1371.73 274.335 1373.1 273.639C1375.17 272.588 1377.24 271.538 1379.32 270.491C1383.49 268.381 1387.64 266.234 1391.78 264.043C1392.73 263.539 1393.68 263.034 1394.67 262.514C1396.42 261.584 1398.16 260.649 1399.91 259.711C1400.69 259.3 1401.47 258.888 1402.27 258.465C1402.93 258.11 1403.59 257.755 1404.28 257.39C1406.43 256.443 1408.48 255.999 1410.8 255.617C1411.33 256.792 1411.33 256.792 1411.87 257.991C1422.45 280.343 1440.12 294.673 1463.17 303.128C1492.96 313.341 1530.45 314.098 1559.4 300.405C1571.33 294.455 1579.83 287.097 1584.75 274.357C1587.86 264.532 1588.4 252.788 1584.18 243.206C1583.62 242.132 1583.62 242.132 1583.04 241.035C1582.48 239.96 1582.48 239.96 1581.91 238.863C1572.96 223.871 1554.09 217.444 1538.05 213.354C1527.05 210.731 1515.85 209.27 1504.64 207.82C1462.76 202.396 1416.47 194.996 1387.73 160.949C1371.83 139.919 1367.15 113.947 1370.08 88.0397C1371.44 78.7528 1373.69 69.8803 1377.99 61.4958C1378.5 60.4796 1379.02 59.4634 1379.55 58.4164C1394.12 30.8049 1421.38 15.4223 1450.33 6.47206C1451.69 6.06896 1453.06 5.67013 1454.43 5.27589C1455.02 5.10239 1455.6 4.92888 1456.21 4.75012C1458.38 4.15447 1460.55 3.65362 1462.74 3.16836C1463.79 2.92906 1464.84 2.68977 1465.92 2.44323C1478.42 -0.148582 1491.06 -0.0161851 1503.77 0.0277506Z" fill="#757575"/>
<path d="M1047.16 11.3707C1069.11 11.3707 1091.07 11.3707 1113.69 11.3707C1113.99 59.19 1114.29 107.009 1114.6 156.278C1118.79 152.085 1122.76 148.089 1126.59 143.633C1129.83 139.897 1133.16 136.25 1136.47 132.582C1137.84 131.064 1139.21 129.545 1140.58 128.026C1151.51 115.874 1162.45 103.722 1173.38 91.5709C1174.06 90.8213 1174.73 90.0718 1175.43 89.2996C1176.82 87.756 1178.21 86.2133 1179.6 84.6715C1182.68 81.2582 1185.75 77.841 1188.76 74.3688C1191.91 70.753 1195.16 67.2297 1198.4 63.7035C1200.73 61.1726 1203.03 58.6253 1205.28 56.0276C1208.39 52.4451 1211.6 48.9627 1214.81 45.4757C1217.13 42.945 1219.44 40.3979 1221.69 37.8003C1224.36 34.7103 1227.12 31.6945 1229.89 28.6866C1236.82 21.5419 1236.82 21.5419 1242.68 13.578C1245.5 10.8098 1246.89 10.8373 1250.7 10.8037C1251.86 10.8283 1251.86 10.8283 1253.04 10.8534C1253.86 10.8527 1254.67 10.852 1255.52 10.8513C1258.22 10.8545 1260.92 10.89 1263.62 10.9257C1265.5 10.9342 1267.37 10.9407 1269.25 10.9452C1274.18 10.9626 1279.11 11.0074 1284.04 11.0578C1289.08 11.1044 1294.11 11.1252 1299.15 11.1482C1309.02 11.197 1318.9 11.2748 1328.77 11.3707C1328.04 14.7526 1326.94 16.3394 1324.56 18.8894C1323.82 19.6871 1323.08 20.4848 1322.32 21.3067C1321.43 22.2481 1320.55 23.1891 1319.66 24.1298C1318.59 25.2699 1317.52 26.4103 1316.46 27.551C1314.12 30.0543 1311.77 32.554 1309.42 35.0519C1306.42 38.2495 1303.43 41.4649 1300.46 44.6925C1296.55 48.943 1292.62 53.1742 1288.67 57.3946C1284.71 61.6349 1280.76 65.8849 1276.82 70.1538C1272.35 75.0081 1267.85 79.8356 1263.35 84.6573C1259.48 88.795 1255.64 92.9506 1251.8 97.1154C1248.29 100.922 1244.76 104.707 1241.22 108.488C1237.42 112.552 1233.64 116.629 1229.89 120.735C1225.6 125.432 1221.26 130.088 1216.91 134.736C1213.48 138.411 1210.06 142.097 1206.65 145.797C1202.18 150.643 1197.69 155.463 1193.19 160.277C1189.1 164.66 1185.02 169.063 1180.97 173.482C1178.93 175.689 1176.9 177.877 1174.75 179.973C1176.05 182.931 1177.61 184.861 1179.92 187.108C1180.58 187.762 1181.25 188.416 1181.93 189.091C1182.97 190.104 1182.97 190.104 1184.04 191.138C1188.51 195.509 1192.83 199.914 1196.91 204.661C1199.42 207.502 1202.12 210.133 1204.83 212.783C1208.65 216.558 1212.32 220.355 1215.79 224.459C1218.4 227.363 1221.19 230.086 1223.97 232.833C1227.78 236.61 1231.46 240.405 1234.93 244.509C1237.54 247.413 1240.33 250.136 1243.1 252.883C1246.92 256.66 1250.6 260.455 1254.07 264.56C1256.68 267.463 1259.47 270.186 1262.24 272.933C1266.06 276.71 1269.74 280.505 1273.21 284.61C1275.82 287.513 1278.61 290.236 1281.38 292.983C1285.2 296.76 1288.88 300.555 1292.35 304.66C1294.96 307.563 1297.74 310.286 1300.52 313.033C1304.34 316.81 1308.02 320.605 1311.48 324.71C1314.63 328.208 1318.03 331.467 1321.37 334.777C1324.68 338.067 1327.85 341.409 1330.84 344.995C1333.6 348.072 1336.71 350.817 1339.76 353.596C1341.95 356.409 1341.68 357.863 1341.53 361.335C1330.84 361.504 1320.16 361.634 1309.47 361.713C1304.51 361.751 1299.54 361.802 1294.58 361.885C1289.79 361.965 1285 362.008 1280.2 362.027C1278.38 362.04 1276.55 362.067 1274.73 362.106C1260.44 362.402 1260.44 362.402 1255.92 359.788C1254.07 357.965 1252.71 356.223 1251.31 354.044C1250.3 352.855 1249.27 351.676 1248.23 350.513C1247.46 349.614 1247.46 349.614 1246.67 348.697C1244.65 346.444 1242.52 344.324 1240.37 342.196C1237.7 339.557 1235.12 336.908 1232.68 334.051C1230.07 330.996 1227.28 328.156 1224.42 325.336C1221.01 321.973 1217.78 318.524 1214.68 314.88C1211.96 311.832 1209.01 309.011 1206.11 306.141C1203.69 303.689 1201.45 301.125 1199.22 298.508C1197.22 296.273 1195.11 294.178 1192.98 292.071C1189.73 288.862 1186.69 285.572 1183.72 282.103C1181.73 279.869 1179.62 277.773 1177.49 275.667C1174.81 273.028 1172.23 270.379 1169.8 267.521C1167.19 264.467 1164.4 261.627 1161.54 258.807C1158.13 255.444 1154.9 251.994 1151.79 248.351C1149.07 245.302 1146.13 242.481 1143.22 239.611C1140.8 237.159 1138.57 234.595 1136.33 231.978C1133.6 228.927 1130.66 226.099 1127.75 223.224C1125.27 220.714 1122.95 218.108 1120.68 215.413C1118.75 213.232 1116.66 211.196 1114.6 209.137C1114.3 259.362 1114 309.588 1113.69 361.335C1091.74 361.335 1069.78 361.335 1047.16 361.335C1047.16 245.847 1047.16 130.359 1047.16 11.3707Z" fill="#757575"/>
<path d="M848.993 8.17732C850.997 8.16851 853.002 8.15931 855.006 8.14974C859.198 8.13343 863.389 8.1283 867.581 8.12993C872.902 8.1302 878.222 8.09295 883.543 8.04579C887.683 8.0151 891.822 8.00986 895.962 8.01129C897.921 8.00811 899.88 7.99625 901.838 7.97484C915.053 7.84399 926.291 9.51659 938.706 14.1048C939.717 14.4751 940.728 14.8455 941.771 15.2271C944.011 16.0804 946.199 17.0023 948.389 17.9781C949.172 18.3218 949.956 18.6655 950.764 19.0196C968.728 27.063 984.09 37.6613 998.856 50.5594C999.635 51.2361 1000.41 51.9128 1001.22 52.61C1002.86 54.0472 1004.51 55.4892 1006.15 56.939C1004.63 60.8887 1001.7 63.4397 998.742 66.3374C998.246 66.8326 997.75 67.3278 997.239 67.838C994.59 70.4592 991.882 72.9663 989.051 75.3906C983.79 79.9464 978.981 84.964 974.098 89.9177C972.845 91.1873 971.589 92.4543 970.333 93.7211C969.596 94.468 968.86 95.2149 968.102 95.9844C966.283 97.7242 964.451 99.2306 962.401 100.685C959.425 99.4202 957.12 97.6062 954.64 95.5534C929.323 74.6474 896.513 66.4674 864.1 68.9896C833.252 72.0002 805.297 84.4885 784.685 107.975C781.657 111.755 778.975 115.676 776.482 119.823C776.14 120.391 775.797 120.959 775.444 121.544C758.115 150.857 753.426 187.602 761.567 220.593C767.183 241.895 776.195 260.15 791.976 275.667C792.736 276.426 793.496 277.185 794.279 277.967C818.84 301.293 853.069 306.561 885.499 305.866C892.148 305.598 898.527 304.577 904.985 303.008C905.619 302.856 906.253 302.705 906.906 302.548C926.616 297.67 944.805 288.551 959.934 275.015C962 273.271 963.642 272.236 966.046 271.11C968.658 273.699 971.267 276.291 973.873 278.886C974.757 279.766 975.641 280.644 976.527 281.522C981.144 286.099 985.64 290.7 989.869 295.638C993.572 299.789 997.583 303.651 1001.53 307.565C1002.43 308.453 1003.32 309.342 1004.21 310.231C1006.37 312.382 1008.54 314.531 1010.7 316.678C997.083 332.921 979.081 343.695 960.18 352.848C959.518 353.173 958.856 353.498 958.174 353.833C955.962 354.879 953.718 355.823 951.465 356.778C950.25 357.357 950.25 357.357 949.012 357.946C937.056 362.858 924.253 362.02 911.552 361.977C908.814 361.971 906.077 361.979 903.339 361.986C896.869 362.004 890.4 362 883.93 361.979C877.303 361.959 870.676 361.975 864.049 362.009C858.316 362.038 852.583 362.045 846.849 362.035C843.444 362.029 840.039 362.031 836.634 362.053C822.155 362.136 809.037 361.87 795.621 355.867C794.099 355.235 794.099 355.235 792.546 354.59C790.034 353.534 787.589 352.393 785.14 351.196C784.264 350.771 783.387 350.346 782.483 349.907C769.251 343.323 757.231 334.932 746.407 324.881C745.861 324.374 745.315 323.868 744.753 323.347C718.904 299.096 702.842 267.11 695.542 232.605C695.364 231.766 695.187 230.927 695.004 230.062C692.256 216.231 691.378 202.586 691.441 188.517C691.443 187.719 691.445 186.922 691.447 186.099C691.636 138.038 707.62 92.115 740.939 56.939C741.731 56.0884 742.523 55.2378 743.339 54.3615C762.761 33.9227 788.375 19.9419 815.294 12.0246C816.725 11.5993 818.148 11.1493 819.562 10.6709C829.186 7.77164 839.04 8.18766 848.993 8.17732Z" fill="#757575"/>
<path d="M2317.61 11.3706C2412.94 11.3706 2508.28 11.3706 2606.51 11.3706C2606.51 31.2202 2606.51 51.0697 2606.51 71.5207C2569.82 71.5207 2533.13 71.5207 2495.32 71.5207C2495.32 167.159 2495.32 262.798 2495.32 361.335C2473.37 361.335 2451.41 361.335 2428.79 361.335C2428.79 265.696 2428.79 170.058 2428.79 71.5207C2392.1 71.5207 2355.41 71.5207 2317.61 71.5207C2317.61 51.6712 2317.61 31.8217 2317.61 11.3706Z" fill="#757575"/>
<path d="M1056.62 510.194C1069.38 510.194 1069.38 510.194 1072.17 512.711C1073.09 514.401 1073.09 514.401 1073.93 516.289C1074.67 517.656 1075.4 519.021 1076.14 520.383C1076.52 521.107 1076.9 521.832 1077.29 522.579C1079.32 526.303 1081.74 529.761 1084.13 533.263C1085.2 534.863 1086.28 536.464 1087.35 538.066C1087.95 538.961 1088.55 539.857 1089.16 540.78C1093.11 546.702 1097.02 552.652 1100.93 558.6C1101.88 560.043 1102.82 561.486 1103.77 562.929C1105.12 564.973 1106.46 567.018 1107.81 569.063C1108.21 569.676 1108.61 570.29 1109.03 570.922C1110.66 573.407 1112.25 575.881 1113.74 578.456C1114.79 580.488 1114.79 580.488 1116.77 581.281C1117.1 580.329 1117.1 580.329 1117.44 579.358C1118.76 576.33 1120.48 573.732 1122.35 571.028C1126.53 564.872 1130.55 558.624 1134.54 552.345C1141.86 540.845 1149.4 529.5 1157 518.18C1158.81 515.674 1158.81 515.674 1159.93 512.608C1160.72 511.812 1161.52 511.015 1162.34 510.194C1166.55 510.194 1170.76 510.194 1175.09 510.194C1175.09 551.698 1175.09 593.201 1175.09 635.963C1171.79 635.963 1168.48 635.963 1165.07 635.963C1164.77 600.173 1164.47 564.384 1164.16 527.51C1161.15 532.322 1158.14 537.134 1155.04 542.092C1150.3 549.244 1150.3 549.244 1148.37 552.113C1146.17 555.395 1144.01 558.699 1141.86 562.012C1140.89 563.509 1139.91 565.004 1138.94 566.498C1136.28 570.56 1133.67 574.64 1131.11 578.76C1129.74 580.964 1128.35 583.159 1126.96 585.352C1126.28 586.43 1125.61 587.513 1124.95 588.6C1124.01 590.125 1123.06 591.634 1122.1 593.143C1121.55 594.019 1121.01 594.896 1120.45 595.799C1118.59 597.685 1118.59 597.685 1115.75 598.108C1113.12 597.685 1113.12 597.685 1111.24 595.457C1110.59 594.349 1109.97 593.23 1109.36 592.103C1108.58 590.752 1107.78 589.404 1106.98 588.059C1106.53 587.284 1106.07 586.508 1105.6 585.709C1102.39 580.443 1098.9 575.35 1095.46 570.23C1094.78 569.204 1094.09 568.177 1093.4 567.15C1090.86 563.354 1088.32 559.558 1085.78 555.762C1079.77 546.74 1073.75 537.717 1067.55 528.421C1067.25 563.91 1066.95 599.399 1066.64 635.963C1063.33 635.963 1060.03 635.963 1056.62 635.963C1056.62 594.459 1056.62 552.955 1056.62 510.194Z" fill="#757575"/>
<path d="M1487.69 510.194C1493.16 510.194 1493.16 510.194 1495.03 511.668C1495.58 512.347 1496.13 513.026 1496.69 513.726C1497.31 514.483 1497.94 515.241 1498.58 516.022C1499.51 517.197 1499.51 517.197 1500.45 518.396C1501 519.077 1501.55 519.757 1502.12 520.458C1503.3 521.919 1504.47 523.386 1505.63 524.858C1508.19 528.078 1510.78 531.269 1513.38 534.459C1513.88 535.078 1514.39 535.697 1514.91 536.334C1515.94 537.61 1516.98 538.886 1518.02 540.161C1519.58 542.08 1521.14 543.999 1522.7 545.919C1526.97 551.181 1531.24 556.443 1535.54 561.686C1540.36 567.571 1545.15 573.479 1549.95 579.384C1552.43 582.447 1554.92 585.509 1557.41 588.572C1563.33 595.862 1569.26 603.153 1575.18 610.444C1575.48 577.362 1575.78 544.279 1576.09 510.194C1579.4 510.194 1582.71 510.194 1586.12 510.194C1586.12 551.698 1586.12 593.201 1586.12 635.963C1581.56 635.963 1581.56 635.963 1579.08 633.62C1578.18 632.552 1577.3 631.471 1576.44 630.38C1575.96 629.805 1575.49 629.23 1575 628.638C1571.37 624.21 1567.83 619.699 1564.32 615.176C1561.04 610.956 1557.62 606.87 1554.15 602.805C1551.04 599.162 1548.03 595.455 1545.05 591.704C1542.54 588.543 1539.97 585.423 1537.41 582.299C1534.65 578.93 1531.9 575.548 1529.16 572.167C1523.78 565.54 1518.38 558.929 1512.96 552.331C1512.27 551.489 1511.58 550.648 1510.87 549.782C1510.27 549.047 1509.67 548.313 1509.05 547.557C1505.86 543.627 1502.7 539.666 1499.54 535.712C1499.24 568.795 1498.94 601.877 1498.63 635.963C1495.02 635.963 1491.41 635.963 1487.69 635.963C1487.69 594.459 1487.69 552.955 1487.69 510.194Z" fill="#757575"/>
<path d="M650.435 520.632C652.821 522.57 655.153 524.542 657.437 526.598C655.819 529.368 654.358 531.728 651.969 533.889C649.106 532.568 646.739 530.939 644.223 529.048C630.789 519.537 615.131 517.003 599.078 519.503C586.219 521.842 574.271 528.899 566.646 539.61C557.214 554.499 555.154 571.539 558.846 588.61C562.483 602.01 570.058 612.232 581.794 619.558C595.679 626.58 611.897 628.467 627.021 624.456C632.647 622.569 637.88 620.06 642.855 616.824C643.639 616.356 644.423 615.889 645.23 615.408C648.286 612.285 648.077 609.392 648.057 605.246C648.07 604.569 648.083 603.892 648.097 603.194C648.14 600.675 648.144 598.154 648.153 595.634C648.209 589.995 648.266 584.356 648.324 578.546C634.188 578.546 620.053 578.546 605.489 578.546C605.489 575.539 605.489 572.531 605.489 569.432C622.933 569.432 640.377 569.432 658.349 569.432C658.518 577.252 658.687 585.072 658.861 593.128C658.973 596.811 658.973 596.811 659.088 600.568C659.112 602.531 659.133 604.494 659.15 606.457C659.192 607.462 659.234 608.468 659.277 609.504C659.281 613.738 659.26 616.578 656.581 619.979C654.516 621.842 652.446 623.465 650.146 625.026C649.314 625.608 649.314 625.608 648.464 626.202C632.416 636.752 613.638 639.393 594.817 636.283C579.332 633.053 566.581 624.924 557.244 612.267C546.317 595.437 543.701 575.035 547.642 555.549C551.108 540.35 559.487 526.94 572.68 518.396C596.158 504.222 628.09 503.563 650.435 520.632Z" fill="#757575"/>
<path d="M1835.21 520.632C1837.59 522.57 1839.93 524.542 1842.21 526.598C1840.8 529.631 1839.2 531.598 1836.74 533.889C1833.88 532.569 1831.51 530.939 1829 529.048C1815.76 519.679 1800.45 517.046 1784.62 519.507C1771.58 522.183 1759.64 528.117 1751.99 539.358C1743.06 554.742 1740.12 570.068 1743.78 587.66C1747.28 600.598 1753.96 611.509 1765.37 618.817C1778.77 626.478 1795.62 628.235 1810.65 625.026C1817.67 622.922 1827.46 618.928 1832.19 613.178C1832.49 610.506 1832.63 608.012 1832.65 605.336C1832.67 604.657 1832.68 603.979 1832.7 603.281C1832.75 600.751 1832.78 598.221 1832.81 595.691C1832.91 590.034 1833 584.376 1833.1 578.546C1818.96 578.546 1804.83 578.546 1790.26 578.546C1790.26 575.539 1790.26 572.531 1790.26 569.433C1807.71 569.433 1825.15 569.433 1843.12 569.433C1843.29 577.252 1843.46 585.072 1843.63 593.128C1843.75 596.811 1843.75 596.811 1843.86 600.569C1843.88 602.531 1843.91 604.494 1843.92 606.457C1843.96 607.463 1844.01 608.468 1844.05 609.504C1844.05 613.738 1844.03 616.578 1841.35 619.979C1839.29 621.842 1837.22 623.465 1834.92 625.026C1834.09 625.608 1834.09 625.608 1833.24 626.202C1816.88 636.956 1797.53 639.576 1778.42 635.939C1762.38 632.254 1748.92 623.109 1740.14 609.102C1730.11 591.986 1728.72 570.932 1733.59 551.964C1736.95 541.146 1742.18 532.781 1750.16 524.776C1750.72 524.194 1751.28 523.613 1751.86 523.014C1773.13 502.567 1812.46 503.253 1835.21 520.632Z" fill="#757575"/>
<path d="M850.648 510.194C854.558 510.194 858.468 510.194 862.496 510.194C868.603 521.923 873.93 533.969 879.258 546.067C881.68 551.549 884.135 557.016 886.59 562.484C887.088 563.594 887.586 564.705 888.085 565.816C890.545 571.301 893.007 576.784 895.472 582.267C898.185 588.302 900.889 594.342 903.588 600.383C904.481 602.381 905.375 604.378 906.269 606.375C907.871 609.953 909.467 613.534 911.059 617.116C911.679 618.509 912.301 619.901 912.925 621.292C913.793 623.23 914.655 625.171 915.515 627.112C915.777 627.692 916.038 628.272 916.307 628.869C917.428 631.414 918.089 633.146 918.089 635.963C914.48 635.963 910.871 635.963 907.153 635.963C905.497 632.413 903.843 628.862 902.191 625.31C901.629 624.104 901.067 622.897 900.504 621.691C899.693 619.951 898.884 618.212 898.075 616.471C897.588 615.426 897.101 614.381 896.599 613.304C895.494 610.861 894.478 608.377 893.482 605.888C869.121 605.587 844.761 605.286 819.662 604.976C818.759 607.683 817.857 610.39 816.927 613.178C816.137 615.119 815.319 617.049 814.467 618.963C814.024 619.965 813.581 620.967 813.124 621.998C812.441 623.525 812.441 623.525 811.744 625.083C811.278 626.133 810.812 627.183 810.333 628.264C809.193 630.832 808.048 633.397 806.902 635.963C802.993 635.963 799.083 635.963 795.055 635.963C797.234 628.643 800.391 621.83 803.6 614.92C805.262 611.34 806.909 607.754 808.558 604.168C808.888 603.451 809.218 602.734 809.558 601.995C812.331 595.967 815.043 589.913 817.725 583.844C822.276 573.552 826.886 563.288 831.509 553.028C837.934 538.77 844.317 524.494 850.648 510.194ZM856.116 522.042C849.19 537.253 842.35 552.5 835.622 567.8C834.897 569.45 834.17 571.1 833.443 572.749C832.413 575.088 831.386 577.428 830.359 579.768C830.055 580.458 829.751 581.148 829.437 581.859C829.15 582.516 828.862 583.174 828.566 583.851C828.319 584.413 828.073 584.976 827.818 585.555C826.543 588.657 825.396 591.811 824.218 594.951C845.572 594.951 866.925 594.951 888.925 594.951C887.13 589.566 885.322 584.52 882.984 579.397C882.678 578.719 882.372 578.04 882.057 577.34C881.065 575.139 880.068 572.941 879.071 570.743C877.676 567.654 876.283 564.563 874.892 561.473C874.541 560.695 874.19 559.916 873.829 559.115C871.48 553.89 869.175 548.647 866.903 543.388C866.609 542.707 866.314 542.027 866.011 541.326C864.885 538.722 863.759 536.118 862.645 533.509C861.89 531.739 861.127 529.971 860.363 528.204C859.937 527.208 859.511 526.211 859.071 525.184C858.158 522.837 858.158 522.837 856.116 522.042Z" fill="#757575"/>
<path d="M1326.38 510.194C1329.69 510.194 1333 510.194 1336.4 510.194C1336.4 551.698 1336.4 593.201 1336.4 635.963C1333.1 635.963 1329.79 635.963 1326.38 635.963C1326.38 594.459 1326.38 552.955 1326.38 510.194Z" fill="#757575"/>
</svg>
