<?xml version="1.0" encoding="utf-8"?>
<!-- Generator: Adobe Illustrator 24.2.1, SVG Export Plug-In . SVG Version: 6.00 Build 0)  -->
<svg version="1.1" id="Слой_1" xmlns="http://www.w3.org/2000/svg" xmlns:xlink="http://www.w3.org/1999/xlink" x="0px" y="0px"
	 viewBox="0 0 22 22" style="enable-background:new 0 0 22 22;" xml:space="preserve">
<style type="text/css">
	.st0{fill:#E4C892;}
</style>
<g>
	<path class="st0" d="M21.195,6.861c-0.553-1.365-1.366-2.589-2.416-3.639c-1.051-1.051-2.275-1.864-3.639-2.416
		C13.821,0.271,12.428,0,11,0C9.572,0,8.179,0.271,6.861,0.805C5.497,1.358,4.273,2.171,3.222,3.221
		C2.173,4.27,1.36,5.495,0.806,6.861C0.271,8.179,0,9.572,0,11s0.271,2.821,0.806,4.139c0.554,1.365,1.367,2.59,2.416,3.639
		c1.05,1.05,2.274,1.863,3.639,2.416C8.177,21.729,9.57,22,11,22c1.428,0,2.82-0.271,4.139-0.805
		c1.366-0.554,2.59-1.367,3.639-2.416c1.05-1.05,1.863-2.274,2.416-3.639C21.729,13.822,22,12.43,22,11
		C22,9.572,21.729,8.179,21.195,6.861z M2.808,15.573c-0.555-0.348-1.025-0.726-1.425-1.138c-0.654-1.84-0.769-3.821-0.336-5.718
		c0.206-0.405,0.44-0.795,0.698-1.158c0.028-0.04,0.056-0.08,0.083-0.121c0.044-0.064,0.088-0.129,0.135-0.191l2.414,1.428V8.71
		c-0.006,1.311,0.126,2.637,0.398,3.956l-1.884,2.954C2.863,15.606,2.836,15.59,2.808,15.573z M18.416,5.693
		c-0.104-0.043-0.211-0.081-0.32-0.119L14.89,1.962c0.017-0.124,0.028-0.252,0.034-0.391c1.235,0.512,2.344,1.254,3.297,2.207
		c0.843,0.843,1.522,1.811,2.022,2.879C19.685,6.286,19.071,5.962,18.416,5.693z M13.678,2.361c0.188,0,0.362,0.006,0.529,0.017
		l3.249,3.662l-0.029,0.093c-0.098,0.311-0.2,0.634-0.317,0.943c-0.209,0.553-0.436,1.11-0.655,1.648l-0.061,0.151l-4.707,0.484
		c-0.053-0.069-0.107-0.137-0.164-0.202c-0.412-0.466-0.826-0.931-1.24-1.395L9.856,7.281c0.005-0.016,0.001-0.034-0.011-0.047
		L9.18,6.571l1.309-3.939c0.094-0.024,0.172-0.039,0.245-0.047l0.414-0.043c0.573-0.06,1.165-0.121,1.748-0.155
		C13.21,2.369,13.451,2.361,13.678,2.361z M7.726,1.375c0.665,0.23,1.32,0.573,2.002,1.05L8.508,6.1
		c-0.09,0.037-0.18,0.073-0.271,0.109c-0.165,0.065-0.33,0.131-0.491,0.204C6.578,6.943,5.638,7.449,4.79,8.005L2.396,6.588
		c0.005-0.067,0.018-0.129,0.038-0.181L2.49,6.258c0.143-0.381,0.29-0.776,0.454-1.154C3.08,4.79,3.238,4.477,3.42,4.156
		c0.116-0.128,0.236-0.254,0.359-0.378c1.112-1.112,2.426-1.932,3.905-2.437c0.004,0.006,0.008,0.011,0.013,0.015
		C7.701,1.361,7.72,1.373,7.726,1.375z M5.302,13.306l0.11,0.028c1.086,0.291,2.28,0.529,3.651,0.728c0,0,0.125,0.017,0.161,0.022
		l2.269,3.924c-0.448,0.629-0.828,1.151-1.195,1.643c-0.063,0.084-0.129,0.165-0.198,0.245l-4.847-0.864
		c-0.585-0.712-1.094-1.451-1.514-2.196c-0.034-0.059-0.068-0.118-0.103-0.178c-0.076-0.129-0.154-0.262-0.218-0.398L5.302,13.306z
		 M10.011,20.675c0.033,0.021,0.067,0.041,0.102,0.059c0.352,0.18,0.717,0.338,1.086,0.472c-0.066,0.001-0.133,0.002-0.199,0.002
		c-1.695,0-3.364-0.42-4.845-1.217L10.011,20.675z M10.915,11.535c0.241-0.457,0.478-0.917,0.716-1.379l4.834-0.497
		c0.687,1.009,1.208,1.864,1.64,2.69c0.087,0.166,0.174,0.335,0.26,0.505l-2.345,4.374c-0.006,0.001-0.011,0.002-0.018,0.003
		c-1.279,0.239-2.569,0.363-3.833,0.371l-2.335-4.038C10.197,12.89,10.557,12.212,10.915,11.535z M17.055,19.225
		c-0.072-0.54-0.192-1.077-0.356-1.596l2.433-4.539c0.754-0.344,1.383-0.699,1.923-1.086c0.041-0.029,0.078-0.059,0.112-0.091
		c-0.211,2.382-1.254,4.618-2.945,6.309C17.859,18.585,17.466,18.922,17.055,19.225z"/>
	<path class="st0" d="M4.478,8.216c1.463-0.689,2.927-1.378,4.39-2.067"/>
</g>
</svg>
