<svg width="541" height="476" viewBox="0 0 541 476" fill="none" xmlns="http://www.w3.org/2000/svg">
<path fill-rule="evenodd" clip-rule="evenodd" d="M348.369 0C357.928 2.34121 367.255 5.61954 376.582 8.89816C383.433 11.3063 390.284 13.7145 397.228 15.7518C399.634 63.214 401.832 110.754 403.048 158.242C393.539 154.103 384.227 149.578 374.917 145.055C362.12 138.837 349.327 132.621 336.032 127.411C334.063 139.52 332.451 151.676 330.84 163.832L330.84 163.833L330.839 163.834C329.508 173.878 328.176 183.921 326.643 193.938C314.24 188.698 302.01 182.938 289.808 177.191L289.009 176.815C288.129 161.167 288.219 145.603 288.31 130.001V129.998V129.995V129.993V129.99V129.987V129.985V129.982C288.352 122.664 288.395 115.337 288.337 107.989C288.41 96.9438 288.367 85.8923 288.324 74.839V74.8385V74.838V74.8375V74.837V74.8365V74.836V74.8355C288.245 54.5698 288.166 34.2977 288.802 14.0473C295.73 20.3793 302.6 26.9043 309.493 33.4506C323.857 47.093 338.318 60.8273 353.594 73.097C353.652 59.2839 352.277 45.6093 350.902 31.9358C349.834 21.3114 348.765 10.6876 348.369 0ZM205.543 8.74753C210.782 19.5884 215.946 30.4455 221.105 41.2939L221.105 41.2941L221.105 41.2943L221.105 41.2946L221.105 41.2948L221.106 41.295L221.106 41.2952L221.106 41.2955C239.434 79.8311 257.709 118.257 279.103 155.454C268.083 161.072 256.838 166.177 245.589 171.285C239.333 174.125 233.077 176.966 226.856 179.896C225.807 177.968 224.784 176.005 223.758 174.035L223.758 174.035L223.758 174.034L223.758 174.034L223.757 174.033L223.757 174.033L223.757 174.033L223.757 174.032C220.709 168.183 217.631 162.274 213.742 157.031C212.475 155.143 210.716 154.186 208.466 154.134C201.328 153.856 194.143 154.562 186.975 155.266C183.493 155.608 180.015 155.95 176.549 156.178C174.055 164.438 171.295 172.605 168.532 180.78C167.168 184.816 165.803 188.854 164.47 192.906C149.727 188.225 134.958 183.646 120.163 179.12C122.517 167.533 125.051 156.048 129.035 144.927C142.95 103.258 161.547 63.2191 188.162 28.0686C193.438 21.1886 199.232 14.6965 205.543 8.74753ZM481.315 24.1605C500.714 30.2905 513.647 43.792 526.76 58.4833C520.759 68.2085 514.578 77.8303 508.241 87.3486C507.175 86.5458 506.073 85.6815 504.941 84.7925L504.939 84.791C499.064 80.1811 492.345 74.9079 485.299 74.1057C476.298 74.3385 470.064 81.2186 466.133 88.6418C460.339 100.152 457.416 114.636 460.779 127.284C462.331 132.845 466.029 137.811 472.392 137.475C481.129 136.822 488.733 129.685 495.109 123.7C495.811 123.041 496.498 122.396 497.171 121.775C492.998 122.016 488.848 122.419 484.698 122.821L484.696 122.821C482.622 123.022 480.547 123.223 478.47 123.404C478.625 114.145 478.625 104.911 478.548 95.6771C499.007 93.582 519.466 91.7715 540.055 91.5904C540.831 104.782 540.882 117.507 535.865 129.974C524.82 159.382 496.938 182.713 464.555 181.937C445.467 182.092 429.482 167.556 421.257 151.416C409.023 126.715 409.23 96.9703 417.403 71.0536C422.498 55.0432 431.396 39.0069 445.622 29.411C456.278 22.2464 469.03 20.3583 481.315 24.1605ZM107.049 31.4544C115.662 32.8769 121.999 39.2915 121.146 48.3701C119.804 60.7663 111.598 72.9557 104.476 83.533C103.633 84.7851 102.805 86.0146 102.006 87.2192C102.612 87.9176 103.222 88.6162 103.833 89.3162L103.836 89.3195C113.141 99.9746 122.727 110.953 121.999 126.12C121.275 142.881 107.437 155.865 94.1428 164.245C66.2345 181.135 33.4378 188.274 0.951367 185.584C-1.45407 139.518 11.2456 95.9099 31.5237 54.9915C35.3365 46.8408 42.2328 44.1919 49.8109 41.2811C50.8179 40.8943 51.8369 40.5028 52.8623 40.0933C69.5452 34.1961 89.2802 28.5316 107.049 31.4544ZM75.8658 63.4645C70.4333 63.1601 64.5024 62.8279 59.8477 64.9546C57.8821 69.072 56.562 73.5866 55.2651 78.0218L55.265 78.0221L55.2649 78.0224L55.2648 78.0227L55.2642 78.0249L55.2638 78.0262L55.2636 78.0269C54.9398 79.1344 54.6174 80.2369 54.2867 81.3271C55.8145 81.0736 57.4222 80.8836 59.0578 80.6904C63.597 80.154 68.3513 79.5922 72.2111 77.5767C75.1234 75.3833 76.8404 71.4823 78.4478 67.8301L78.4479 67.83L78.4479 67.8299L78.448 67.8298L78.448 67.8297L78.4482 67.8293C79.0963 66.3568 79.7266 64.9247 80.4103 63.6614C78.9658 63.6382 77.4366 63.5525 75.8658 63.4645ZM206.062 120.456C203.605 109.282 200.734 97.979 196.725 87.245C194.26 93.9415 192.107 100.745 189.955 107.549L189.955 107.55C188.607 111.809 187.26 116.068 185.836 120.3C190.333 120.3 194.818 120.346 199.307 120.392L199.313 120.392C201.561 120.415 203.81 120.438 206.062 120.456ZM75.4853 124.792C76.1958 123.38 76.8854 122.009 77.5911 120.763C67.0123 117.763 57.5974 116.496 48.2085 123.479C45.6071 127.206 44.6902 132.354 43.8244 137.215L43.8244 137.215C43.4764 139.169 43.1367 141.076 42.6992 142.826C44.2886 142.557 45.9417 142.319 47.6253 142.076L47.6258 142.076L47.6262 142.076L47.6264 142.076L47.6267 142.076L47.627 142.076C54.1896 141.131 61.2169 140.119 66.7536 136.929C70.6994 134.305 73.2005 129.334 75.4852 124.792L75.4853 124.792ZM366.913 182.845C377.634 185.031 388.055 189.839 398.347 194.586C403.151 196.803 407.928 199.006 412.694 200.924C410.761 210.51 408.838 220.099 406.915 229.689L406.904 229.746L406.891 229.811L406.89 229.816L406.889 229.82L406.888 229.824L406.887 229.829L406.886 229.833C400.511 261.627 394.135 293.431 387.347 325.128C381.309 321.831 375.326 318.443 369.346 315.055C357.546 308.372 345.752 301.693 333.548 295.72C333.289 309.738 332.694 323.757 332.073 337.776C318.003 339.923 303.881 341.837 289.707 343.052C282.749 298.125 275.145 253.379 267.359 208.58C281.437 215.705 295.223 223.397 309.005 231.086C324.494 239.729 339.979 248.369 355.869 256.198C357.945 244.985 359.393 233.657 360.841 222.333L360.841 222.332C362.533 209.101 364.224 195.875 366.913 182.845ZM197.369 195.777C204.219 205.726 210.685 215.94 217.15 226.154C221.157 232.483 225.163 238.812 229.26 245.076C232.251 249.765 235.266 254.45 238.283 259.141L238.284 259.141C252.645 281.464 267.08 303.901 279.412 327.327C264.824 334.698 250.133 341.759 235.235 348.484C230.476 340.725 225.717 332.939 221.061 325.102C211.026 325.102 201.017 325.282 190.983 325.463H190.982H190.982H190.981H190.98H190.98L190.902 325.464C190.23 333.844 189.609 342.225 189.04 350.605C183.292 348.068 177.324 345.884 171.349 343.697L171.348 343.696C161.972 340.265 152.577 336.826 143.983 332.008C142.487 329.361 143.466 325.49 144.325 322.094C144.625 320.912 144.909 319.787 145.07 318.791C153.734 287.572 167.055 256.948 180.893 227.721C186.014 216.935 191.239 206.02 197.369 195.777ZM475.003 199.269C495.204 199.479 511.835 207.936 528.363 218.67C519.413 228.887 510.024 238.638 500.609 248.415C499.41 247.663 498.168 246.841 496.889 245.995C490.997 242.095 484.341 237.69 477.667 237.371C468.899 237.759 462.303 244.251 457.932 251.286C451.828 261.373 448.362 273.944 449.966 285.712C450.845 290.937 453.587 296.757 459.717 296.757C467.802 297.108 475.849 290.555 482.448 285.182C483.619 284.229 484.743 283.313 485.815 282.479C480.232 283.029 474.666 283.756 469.103 284.482L469.096 284.483L469.089 284.484L469.083 284.485C467.59 284.68 466.098 284.874 464.605 285.066C465.821 276.116 466.985 267.167 468.045 258.218C489.436 255.14 510.567 252.14 532.061 250.174C530.794 281.393 516.258 314.397 491.272 333.769C475.365 346.236 453.277 349.418 435.507 338.891C421.359 330.329 413.6 314.992 410.936 299.059C406.642 271.952 412.746 242.621 430.36 221.153C441.353 207.781 457.518 199.168 475.003 199.269ZM76.5533 206.979C94.1156 206.566 114.678 206.747 130.947 214.144C139.147 217.817 145.147 224.852 143.751 234.319C141.852 246.726 131.627 258.097 123.066 267.617L123.065 267.617C122.061 268.735 121.079 269.827 120.136 270.892C121.174 271.747 122.24 272.594 123.31 273.445L123.311 273.446C130.398 279.079 137.707 284.889 138.966 294.506C140.078 306.378 131.827 315.949 122.153 321.587C103.97 332.295 81.4677 332.373 61.0085 331.364C59.6812 331.195 58.3627 331.08 57.0652 330.967C51.0055 330.439 45.4049 329.951 41.5063 324.199C19.547 293.575 7.75254 254.623 4.3125 217.377C28.1083 211.816 52.111 207.885 76.5533 206.979ZM88.7997 252.514C83.1157 252.341 77.5508 252.171 71.873 253.016C71.0632 258.615 70.9571 264.297 70.8511 269.969L70.8441 270.347L70.8303 271.075L70.8219 271.508L70.8125 271.975C72.2943 271.357 73.9508 270.829 75.6475 270.288C79.4892 269.063 83.5369 267.772 86.228 265.225C87.4871 262.512 88.2233 259.531 88.9536 256.575C89.2885 255.219 89.6221 253.868 90.0043 252.551L89.3877 252.532L88.7997 252.514ZM210.134 290.168C207.701 284.573 205.263 278.969 202.413 273.579C199.646 281.778 197.421 290.184 195.223 298.565C197.45 298.008 199.677 297.459 201.904 296.911L201.929 296.905C205.28 296.079 208.632 295.254 211.983 294.4C211.363 292.993 210.749 291.581 210.134 290.168ZM98.488 294.553C90.2112 293.544 82.0896 292.768 73.8128 294.217C74.0529 295.88 74.3358 297.53 74.6184 299.179C75.1578 302.327 75.6962 305.467 75.9338 308.675C77.1862 308.553 78.4555 308.448 79.7322 308.343L79.7369 308.343C84.391 307.96 89.1445 307.568 93.5478 306.27C96.1295 305.007 96.924 301.263 97.6169 297.998C97.8889 296.716 98.1453 295.508 98.488 294.553ZM126.273 475.006H126.274L126.275 475.006C133.013 474.658 139.764 474.309 146.519 474.343C148.902 474.312 151.705 474.289 154.929 474.274C151.705 474.289 148.902 474.312 146.519 474.343C139.764 474.309 133.013 474.658 126.275 475.006L126.274 475.006H126.273H126.273H126.272C117.43 475.462 108.611 475.918 99.8332 475.507C99.6158 475.441 99.3779 475.37 99.1209 475.294C98.8187 475.204 98.4901 475.106 98.1375 474.999C98.4901 475.106 98.8187 475.204 99.1209 475.294L99.1382 475.299L99.1506 475.303C99.3963 475.376 99.6242 475.444 99.8332 475.507C108.611 475.918 117.431 475.462 126.273 475.006H126.273ZM92.7213 378.32C103.662 374.736 115.159 373.397 126.526 376.289C126.861 376.376 127.193 376.467 127.524 376.56C127.193 376.467 126.861 376.376 126.526 376.289C115.159 373.398 103.662 374.736 92.7213 378.32ZM374.169 474.459C375.039 474.471 375.888 474.484 376.718 474.498C383.71 474.649 390.676 474.397 397.627 474.147H397.628H397.628C407.413 473.794 417.167 473.442 426.922 474.214C427.409 474.251 428.089 474.316 428.935 474.397L428.935 474.396C428.936 474.397 428.937 474.397 428.939 474.397M374.169 474.459C375.039 474.471 375.888 474.484 376.718 474.498ZM376.718 474.498C383.71 474.648 390.676 474.397 397.626 474.147ZM397.626 474.147H397.627ZM397.627 474.147H397.628ZM397.628 474.147H397.628ZM397.628 474.147C407.413 473.794 417.167 473.442 426.922 474.213ZM426.922 474.213C427.409 474.251 428.089 474.316 428.935 474.396ZM471.285 379.155C470.554 378.881 469.808 378.615 469.045 378.358C453.992 373.273 436.018 373.273 415.127 378.358C407.913 376.563 402.746 375.668 399.624 375.668C340.028 375.668 309.28 376.089 301.632 376.521C301.517 376.52 301.402 376.521 301.287 376.524C301.402 376.521 301.517 376.52 301.632 376.522C309.28 376.09 340.028 375.668 399.624 375.668C402.746 375.668 407.913 376.563 415.127 378.358C436.018 373.273 453.992 373.273 469.045 378.358C469.808 378.616 470.554 378.881 471.285 379.155ZM242.84 376.733C252.139 376.296 261.535 375.854 270.697 376.91C270.941 376.926 271.189 376.953 271.441 376.993C271.189 376.953 270.941 376.926 270.697 376.909C261.535 375.854 252.139 376.296 242.84 376.733C239.381 376.896 235.935 377.058 232.52 377.142V377.142C235.935 377.058 239.381 376.896 242.84 376.733ZM493.303 434.565L493.301 434.55L493.298 434.513C493.3 434.531 493.301 434.548 493.303 434.565ZM211.984 375.668H173.471V375.668H211.984C212.504 376.681 213.017 377.677 213.522 378.656C213.017 377.677 212.504 376.681 211.984 375.668ZM142.436 397.679C137.911 402.764 133.537 407.983 129.322 413.327C127.996 412.926 126.585 412.438 125.12 411.931L125.119 411.931C118.557 409.66 110.906 407.012 104.88 410.12C93.3956 415.655 92.9559 434.278 103.949 440.563C109.225 443.693 114.708 443.098 120.502 442.115C123.451 437.528 119.363 435.654 115.206 433.749C113.129 432.797 111.035 431.838 109.794 430.528C109.203 427.201 109.038 423.744 108.876 420.345C108.846 419.728 108.817 419.113 108.785 418.5C120.554 418.656 132.322 418.656 144.091 418.578C144.084 421.568 144.206 424.658 144.33 427.787C144.67 436.379 145.021 445.267 142.746 453.211C124.847 467.463 92.8007 466.868 78.5491 447.495C65.8236 430.605 70.2982 404.999 88.352 393.773C106.044 382.988 125.856 386.79 142.436 397.679ZM182.089 388.031H205.52C215.96 412.535 226.34 437.064 236.662 461.617C231.333 461.532 223.108 461.514 211.986 461.566L205.52 452.28H182.087L176.626 461.617H151.408L182.089 388.031ZM476.171 396.957C472.317 402.26 468.489 407.562 464.713 412.916C463.212 412.309 461.76 411.68 460.336 411.063C452.169 407.521 444.909 404.373 434.348 408.157C442.617 411.906 442.619 411.907 446.746 413.812L446.747 413.812L446.75 413.814C449.615 414.916 452.385 415.693 455.077 416.448L455.077 416.449C460.406 417.943 465.428 419.352 470.274 423.029C480.491 430.22 479.456 447.446 470.3 455.05C461.402 462.887 447.332 463.741 436.132 462.344C425.629 461.214 416.986 456.54 407.876 451.612L407.681 451.507C411.974 446.437 416.164 441.29 420.251 436.039C422.513 436.862 424.706 437.789 426.861 438.699L426.861 438.699C436.091 442.599 444.597 446.194 454.6 439.945C450.379 438.193 445.739 436.893 441.06 435.583L441.06 435.583C432.896 433.296 424.613 430.977 418.234 426.159C407.034 416.046 411.974 397.604 424.777 391.397C442.004 383.818 460.445 387.775 476.171 396.957ZM244.783 389.014C253.293 389.17 261.802 389.195 270.312 389.092C275.252 397.446 280.348 405.671 285.702 413.741C291.056 405.464 296.255 397.11 301.453 388.756C309.885 389.092 318.317 389.247 326.749 389.247C326.548 410.142 326.598 431.057 326.649 451.957C326.653 453.407 326.656 454.857 326.66 456.306C326.664 458.068 326.668 459.83 326.672 461.591C318.576 461.436 310.506 461.436 302.41 461.591C302.41 450.314 302.359 439.063 301.738 427.812C296.883 434.27 292.335 440.921 287.779 447.581C287.044 448.656 286.309 449.731 285.572 450.806C283.813 448.344 282.064 445.878 280.316 443.412C276.59 438.156 272.865 432.902 269.045 427.708C268.814 434.892 268.657 442.087 268.499 449.285L268.499 449.287C268.41 453.388 268.32 457.49 268.217 461.591C260.509 461.488 252.776 461.488 245.068 461.566C244.137 437.382 244.421 413.224 244.783 389.014ZM340.018 389.172C360.71 388.836 381.376 388.732 402.068 389.301C402.042 395.742 402.042 402.156 402.068 408.571C389.472 408.907 376.901 409.036 364.305 408.855C364.254 410.031 364.195 411.207 364.137 412.383V412.384C364.079 413.561 364.021 414.739 363.969 415.917C374.605 416.173 385.22 416.24 395.834 416.308H395.836C397.017 416.315 398.197 416.323 399.378 416.33V416.35C399.378 422.06 399.378 427.769 399.404 433.479C397.054 433.505 394.704 433.527 392.356 433.55L392.341 433.55C382.909 433.641 373.486 433.732 364.047 434.022C364.059 435.247 364.066 436.466 364.072 437.682V437.689C364.079 438.909 364.085 440.125 364.098 441.342C376.876 441.29 389.653 441.393 402.404 441.833C402.327 448.403 402.301 454.973 402.275 461.542C381.583 461.465 360.865 461.413 340.173 461.568C339.63 437.436 339.811 413.33 340.018 389.172ZM201.873 434.433L194.034 413.811L186.559 434.433H201.873Z" fill="#757575"/>
</svg>
