<svg width="1528" height="370" viewBox="0 0 1528 370" fill="none" xmlns="http://www.w3.org/2000/svg">
<path d="M795.847 9.67433C795.339 5.09176 791.612 1.69727 787.038 1.69727H680.485C675.911 1.69727 672.184 5.26149 671.676 9.67433L640.506 358.798C639.998 363.89 644.064 368.473 649.315 368.473H700.305C704.879 368.473 708.775 364.908 709.114 360.156L712.332 312.972C712.502 310.766 714.196 309.069 716.398 309.069H750.956C753.158 309.069 754.852 310.766 755.022 312.972L758.24 360.156C758.579 364.739 762.475 368.473 767.049 368.473H818.208C823.46 368.473 827.525 364.06 827.017 358.798L795.847 9.67433ZM721.819 250.514C719.447 250.514 717.584 248.477 717.753 246.101L730.458 74.6789C730.628 73.3211 731.644 72.4725 732.83 72.4725H734.524C735.879 72.4725 736.896 73.4908 736.896 74.6789L749.601 246.101C749.77 248.477 747.907 250.514 745.535 250.514H721.819Z" fill="#757575"/>
<path d="M1495.14 9.67433C1494.8 5.09176 1490.9 1.69727 1486.33 1.69727H1379.77C1375.2 1.69727 1371.47 5.26149 1370.96 9.67433L1339.96 358.798C1339.46 363.89 1343.52 368.473 1348.77 368.473H1399.76C1404.34 368.473 1408.23 364.908 1408.57 360.156L1411.79 312.972C1411.96 310.766 1413.65 309.069 1415.86 309.069H1450.41C1452.62 309.069 1454.31 310.766 1454.48 312.972L1457.7 360.156C1458.04 364.739 1461.93 368.473 1466.51 368.473H1517.5C1522.75 368.473 1526.81 364.06 1526.31 358.798L1495.14 9.67433ZM1421.11 250.514C1418.74 250.514 1416.87 248.477 1417.04 246.101L1429.75 74.6789C1429.92 73.3211 1430.93 72.4725 1432.12 72.4725H1433.81C1435.17 72.4725 1436.18 73.4908 1436.18 74.6789L1448.89 246.101C1449.06 248.477 1447.2 250.514 1444.82 250.514H1421.11Z" fill="#757575"/>
<path d="M309.496 217.078V292.945C309.496 295.151 311.36 297.018 313.562 297.018H371.497C376.41 297.018 380.306 300.922 380.306 305.844V359.477C380.306 364.399 376.41 368.303 371.497 368.303H249.189C244.277 368.303 240.38 364.399 240.38 359.477V10.523C240.38 5.60093 244.277 1.69727 249.189 1.69727H371.497C376.41 1.69727 380.306 5.60093 380.306 10.523V63.8165C380.306 68.7385 376.41 72.6422 371.497 72.6422H313.562C311.36 72.6422 309.496 74.5092 309.496 76.7156V149.867C309.496 152.073 311.36 153.94 313.562 153.94H359.808C364.721 153.94 368.617 157.844 368.617 162.766V204.179C368.617 209.101 364.721 213.005 359.808 213.005H313.562C311.36 213.005 309.496 214.872 309.496 217.078Z" fill="#757575"/>
<path d="M1029.11 1.69727H877.838C872.925 1.69727 869.029 5.60093 869.029 10.523V63.8165C869.029 68.7385 872.925 72.6422 877.838 72.6422H914.937C917.139 72.6422 919.002 74.5092 919.002 76.7156V359.647C919.002 364.569 922.898 368.473 927.811 368.473H979.14C984.052 368.473 987.949 364.569 987.949 359.647V76.5459C987.949 74.3395 989.812 72.4725 992.014 72.4725H1029.11C1034.03 72.4725 1037.92 68.5688 1037.92 63.6468V10.523C1037.92 5.60093 1034.03 1.69727 1029.11 1.69727Z" fill="#757575"/>
<path d="M577.658 297.018H525.313C523.111 297.018 521.248 295.151 521.248 292.945V10.523C521.248 5.60093 517.351 1.69727 512.439 1.69727H461.11C456.198 1.69727 452.301 5.60093 452.301 10.523V359.647C452.301 364.569 456.198 368.473 461.11 368.473H577.658C582.571 368.473 586.467 364.569 586.467 359.647V306.014C586.467 301.092 582.571 297.018 577.658 297.018Z" fill="#757575"/>
<path d="M1239.51 195.184V192.977C1239.51 191.959 1240.19 191.11 1241.03 190.771C1259.5 183.642 1272.54 165.651 1272.54 144.775V68.3991C1272.71 31.5688 1242.9 1.69727 1206.14 1.69727H1112.97C1108.05 1.69727 1104.16 5.60093 1104.16 10.523V359.647C1104.16 364.569 1108.05 368.473 1112.97 368.473H1164.3C1169.21 368.473 1173.1 364.569 1173.1 359.647V232.523C1173.1 230.317 1174.97 228.45 1177.17 228.45H1189.2C1197.33 228.45 1203.94 235.069 1203.94 243.216V359.817C1203.94 364.739 1207.83 368.642 1212.74 368.642H1264.07C1268.99 368.642 1272.88 364.739 1272.88 359.817V243.725C1272.88 222.679 1259.84 204.858 1241.37 197.729C1240.19 197.05 1239.51 196.202 1239.51 195.184ZM1203.77 154.45C1203.77 162.596 1197.16 169.216 1189.03 169.216H1177C1174.8 169.216 1172.93 167.349 1172.93 165.142V76.5459C1172.93 74.3395 1174.8 72.4725 1177 72.4725H1189.03C1197.16 72.4725 1203.77 79.0918 1203.77 87.2386V154.45Z" fill="#757575"/>
<path d="M170.418 68.3991C170.418 31.5688 140.603 1.69727 103.673 1.69727H10.5027C5.59008 1.69727 1.69385 5.60093 1.69385 10.523V359.647C1.69385 364.569 5.59008 368.473 10.5027 368.473H123.663C149.412 368.473 170.248 347.596 170.248 321.798V233.032C170.248 211.986 157.204 194.165 138.74 187.037C137.723 186.697 137.215 185.849 137.215 184.83V182.624C137.215 181.606 137.893 180.757 138.74 180.417C157.204 173.289 170.248 155.298 170.248 134.422L170.418 68.3991ZM101.471 282.422C101.471 290.569 94.8646 297.188 86.7333 297.188H74.7058C72.5036 297.188 70.6402 295.321 70.6402 293.115V217.248C70.6402 215.041 72.5036 213.174 74.7058 213.174H86.7333C94.8646 213.174 101.471 219.794 101.471 227.94V282.422ZM101.471 139.174C101.471 147.321 94.8646 153.94 86.7333 153.94H74.7058C72.5036 153.94 70.6402 152.073 70.6402 149.867V76.5459C70.6402 74.3395 72.5036 72.4725 74.7058 72.4725H86.7333C94.8646 72.4725 101.471 79.0918 101.471 87.2386V139.174Z" fill="#757575"/>
</svg>
