<?xml version="1.0" encoding="utf-8"?>
<!-- Generator: Adobe Illustrator 24.2.1, SVG Export Plug-In . SVG Version: 6.00 Build 0)  -->
<svg version="1.1" id="Layer_1" xmlns="http://www.w3.org/2000/svg" xmlns:xlink="http://www.w3.org/1999/xlink" x="0px" y="0px"
	 viewBox="0 0 110 24" style="enable-background:new 0 0 110 24;" xml:space="preserve">
<style type="text/css">
	.st0{fill:url(#SVGID_1_);}
	.st1{fill:url(#SVGID_2_);}
	.st2{fill:url(#SVGID_3_);}
	.st3{fill:url(#Shape_5_);}
	.st4{fill:url(#Shape_6_);}
	.st5{fill:url(#Path_4_);}
	.st6{fill:url(#Path_5_);}
	.st7{fill:url(#Shape_7_);}
	.st8{fill:url(#Shape_8_);}
	.st9{fill:url(#Path_6_);}
</style>
<desc>Created with Sketch.</desc>
<g>
	
		<linearGradient id="SVGID_1_" gradientUnits="userSpaceOnUse" x1="11.4828" y1="833.4631" x2="11.4828" y2="830.1411" gradientTransform="matrix(1 0 0 1 0 -818)">
		<stop  offset="0" style="stop-color:#F6DFAF"/>
		<stop  offset="6.550192e-02" style="stop-color:#F2DDB0"/>
		<stop  offset="0.1225" style="stop-color:#E8D6B3"/>
		<stop  offset="0.2583" style="stop-color:#E4D3B3"/>
		<stop  offset="0.4027" style="stop-color:#D7CBB4"/>
		<stop  offset="0.5375" style="stop-color:#C4BFB5"/>
		<stop  offset="0.6854" style="stop-color:#CFC9C0"/>
		<stop  offset="0.8347" style="stop-color:#DED8CF"/>
		<stop  offset="1" style="stop-color:#FCFDFB"/>
	</linearGradient>
	<path class="st0" d="M10.2,12.2L9.5,15c0.9,0.2,3.5,1.1,3.9-0.5C13.8,12.8,11.1,12.4,10.2,12.2z"/>
	
		<linearGradient id="SVGID_2_" gradientUnits="userSpaceOnUse" x1="12.2759" y1="829.1747" x2="12.2759" y2="826.202" gradientTransform="matrix(1 0 0 1 0 -818)">
		<stop  offset="0" style="stop-color:#F6DFAF"/>
		<stop  offset="6.550192e-02" style="stop-color:#F2DDB0"/>
		<stop  offset="0.1225" style="stop-color:#E8D6B3"/>
		<stop  offset="0.2583" style="stop-color:#E4D3B3"/>
		<stop  offset="0.4027" style="stop-color:#D7CBB4"/>
		<stop  offset="0.5375" style="stop-color:#C4BFB5"/>
		<stop  offset="0.6854" style="stop-color:#CFC9C0"/>
		<stop  offset="0.8347" style="stop-color:#DED8CF"/>
		<stop  offset="1" style="stop-color:#FCFDFB"/>
	</linearGradient>
	<path class="st1" d="M11.2,8.2l-0.6,2.6c0.7,0.2,2.9,0.9,3.3-0.6C14.2,8.7,11.9,8.4,11.2,8.2z"/>
	
		<linearGradient id="SVGID_3_" gradientUnits="userSpaceOnUse" x1="11.2628" y1="841.9369" x2="11.2628" y2="818.0363" gradientTransform="matrix(1 0 0 1 0 -818)">
		<stop  offset="0" style="stop-color:#F6DFAF"/>
		<stop  offset="6.550192e-02" style="stop-color:#F2DDB0"/>
		<stop  offset="0.1225" style="stop-color:#E8D6B3"/>
		<stop  offset="0.2583" style="stop-color:#E4D3B3"/>
		<stop  offset="0.4027" style="stop-color:#D7CBB4"/>
		<stop  offset="0.5375" style="stop-color:#C4BFB5"/>
		<stop  offset="0.6854" style="stop-color:#CFC9C0"/>
		<stop  offset="0.8347" style="stop-color:#DED8CF"/>
		<stop  offset="1" style="stop-color:#FCFDFB"/>
	</linearGradient>
	<path class="st2" d="M14,0.4C7.9-1.1,1.6,2.7,0.1,9.1S2.3,22,8.5,23.6c6.1,1.6,12.4-2.3,13.9-8.7S20.2,1.9,14,0.4z M16.3,10.3
		c-0.2,1.2-0.8,1.7-1.6,1.9c1.1,0.6,1.7,1.6,1.1,3.2c-0.7,2-2.3,2.2-4.5,1.8l-0.5,2.2L9.6,19l0.5-2.1c-0.3-0.1-0.6-0.2-1-0.3
		l-0.5,2.2l-1.3-0.3l0.5-2.2c-0.3-0.1-0.6-0.1-0.9-0.2l-1.7-0.4L6,14.2c0,0,0.9,0.3,0.9,0.2c0.4,0.1,0.5-0.2,0.6-0.3l0.8-3.4h0.1
		H8.3l0.6-2.5c0-0.3-0.1-0.6-0.6-0.8L7.4,7.2l0.3-1.4l1.7,0.4l0,0c0.3,0.1,0.5,0.2,0.8,0.2l0.5-2.2L12,4.6l-0.5,2.1
		c0.3,0.1,0.7,0.1,1,0.3L13,4.9l1.3,0.3l-0.5,2.2C15.4,7.8,16.5,8.7,16.3,10.3z"/>
</g>
<linearGradient id="Shape_5_" gradientUnits="userSpaceOnUse" x1="31.007" y1="841.9504" x2="31.007" y2="818.05" gradientTransform="matrix(1 0 0 1 0 -818)">
	<stop  offset="0" style="stop-color:#F6DFAF"/>
	<stop  offset="6.550192e-02" style="stop-color:#F2DDB0"/>
	<stop  offset="0.1225" style="stop-color:#E8D6B3"/>
	<stop  offset="0.2583" style="stop-color:#E4D3B3"/>
	<stop  offset="0.4027" style="stop-color:#D7CBB4"/>
	<stop  offset="0.5375" style="stop-color:#C4BFB5"/>
	<stop  offset="0.6854" style="stop-color:#CFC9C0"/>
	<stop  offset="0.8347" style="stop-color:#DED8CF"/>
	<stop  offset="1" style="stop-color:#FCFDFB"/>
</linearGradient>
<path id="Shape_1_" class="st3" d="M33.4,7.3c0.9,0,1.7,0.2,2.4,0.5c0.7,0.3,1.3,0.8,1.7,1.4c0.4,0.6,0.8,1.3,1,2.1
	c0.2,0.8,0.3,1.7,0.3,2.5c0,1.4-0.3,2.7-0.8,4c-0.5,1.2-1.2,2.3-2,3.3c-0.9,0.9-1.9,1.7-3,2.2c-1.2,0.5-2.4,0.8-3.8,0.8
	c-0.2,0-0.5,0-0.9,0s-0.9,0-1.5-0.2c-0.6-0.1-1.1-0.2-1.8-0.4c-0.6-0.1-1.2-0.4-1.8-0.7l5.1-21.9l4.5-0.8L31,7.8
	c0.4-0.2,0.8-0.3,1.1-0.4C32.6,7.3,32.9,7.3,33.4,7.3L33.4,7.3z M29.6,20.3c0.7,0,1.3-0.2,1.9-0.5c0.6-0.3,1.1-0.8,1.5-1.4
	s0.8-1.2,1-2c0.3-0.7,0.4-1.5,0.4-2.3c0-1-0.1-1.7-0.5-2.3C33.6,11.2,33,11,32.2,11c-0.3,0-0.6,0-1.1,0.1c-0.4,0.1-0.8,0.3-1.2,0.6
	L28,20c0.1,0,0.2,0,0.3,0.1c0.1,0,0.2,0,0.3,0c0.1,0,0.2,0,0.4,0C29.3,20.3,29.4,20.3,29.6,20.3L29.6,20.3z"/>
<linearGradient id="Shape_6_" gradientUnits="userSpaceOnUse" x1="43.8532" y1="841.5521" x2="43.8532" y2="818.3985" gradientTransform="matrix(1 0 0 1 0 -818)">
	<stop  offset="0" style="stop-color:#F6DFAF"/>
	<stop  offset="6.550192e-02" style="stop-color:#F2DDB0"/>
	<stop  offset="0.1225" style="stop-color:#E8D6B3"/>
	<stop  offset="0.2583" style="stop-color:#E4D3B3"/>
	<stop  offset="0.4027" style="stop-color:#D7CBB4"/>
	<stop  offset="0.5375" style="stop-color:#C4BFB5"/>
	<stop  offset="0.6854" style="stop-color:#CFC9C0"/>
	<stop  offset="0.8347" style="stop-color:#DED8CF"/>
	<stop  offset="1" style="stop-color:#FCFDFB"/>
</linearGradient>
<path id="Shape_2_" class="st4" d="M43.5,23.6h-4.3l3.6-15.9h4.3L43.5,23.6z M45.6,5.7c-0.6,0-1.1-0.2-1.6-0.6
	c-0.5-0.4-0.7-0.9-0.7-1.7c0-0.4,0.1-0.8,0.3-1.2c0.2-0.4,0.4-0.7,0.6-1c0.3-0.3,0.6-0.5,0.9-0.6c0.4-0.2,0.8-0.2,1.1-0.2
	c0.6,0,1.1,0.2,1.6,0.6c0.5,0.4,0.7,0.9,0.7,1.7c0,0.4-0.1,0.8-0.3,1.2c-0.2,0.4-0.4,0.7-0.6,1c-0.3,0.3-0.6,0.5-0.9,0.6
	C46.4,5.6,46,5.7,45.6,5.7z"/>
<linearGradient id="Path_4_" gradientUnits="userSpaceOnUse" x1="53.3004" y1="841.8875" x2="53.3004" y2="820.9294" gradientTransform="matrix(1 0 0 1 0 -818)">
	<stop  offset="0" style="stop-color:#F6DFAF"/>
	<stop  offset="6.550192e-02" style="stop-color:#F2DDB0"/>
	<stop  offset="0.1225" style="stop-color:#E8D6B3"/>
	<stop  offset="0.2583" style="stop-color:#E4D3B3"/>
	<stop  offset="0.4027" style="stop-color:#D7CBB4"/>
	<stop  offset="0.5375" style="stop-color:#C4BFB5"/>
	<stop  offset="0.6854" style="stop-color:#CFC9C0"/>
	<stop  offset="0.8347" style="stop-color:#DED8CF"/>
	<stop  offset="1" style="stop-color:#FCFDFB"/>
</linearGradient>
<path id="Path_1_" class="st5" d="M50.9,3.6l4.5-0.7l-1.1,4.7h4.8l-0.9,3.7h-4.8l-1.3,5.6c-0.1,0.5-0.2,0.9-0.2,1.3s0,0.8,0.1,1
	c0.1,0.3,0.3,0.5,0.6,0.7s0.7,0.3,1.3,0.3c0.5,0,0.9,0,1.4-0.1c0.4-0.1,0.9-0.2,1.3-0.4l0.3,3.4c-0.6,0.2-1.2,0.4-1.9,0.6
	c-0.7,0.2-1.5,0.2-2.4,0.2c-1.3,0-2.4-0.2-3.1-0.6c-0.8-0.4-1.3-1-1.6-1.7c-0.3-0.7-0.4-1.5-0.4-2.5c0-0.9,0.2-1.9,0.4-3L50.9,3.6
	L50.9,3.6z"/>
<linearGradient id="Path_5_" gradientUnits="userSpaceOnUse" x1="65.6468" y1="841.9504" x2="65.6468" y2="825.1936" gradientTransform="matrix(1 0 0 1 0 -818)">
	<stop  offset="0" style="stop-color:#F6DFAF"/>
	<stop  offset="6.550192e-02" style="stop-color:#F2DDB0"/>
	<stop  offset="0.1225" style="stop-color:#E8D6B3"/>
	<stop  offset="0.2583" style="stop-color:#E4D3B3"/>
	<stop  offset="0.4027" style="stop-color:#D7CBB4"/>
	<stop  offset="0.5375" style="stop-color:#C4BFB5"/>
	<stop  offset="0.6854" style="stop-color:#CFC9C0"/>
	<stop  offset="0.8347" style="stop-color:#DED8CF"/>
	<stop  offset="1" style="stop-color:#FCFDFB"/>
</linearGradient>
<path id="Path_2_" class="st6" d="M59,17.2c0-1.4,0.2-2.7,0.6-3.9c0.4-1.2,1-2.3,1.8-3.2c0.8-0.9,1.8-1.6,2.9-2.1
	c1.1-0.5,2.4-0.8,3.8-0.8c0.9,0,1.7,0.1,2.3,0.3c0.7,0.2,1.3,0.4,1.9,0.7l-1.5,3.5c-0.4-0.1-0.8-0.3-1.2-0.4
	c-0.4-0.2-0.9-0.2-1.5-0.2c-1.4,0-2.6,0.5-3.4,1.5c-0.8,1.1-1.3,2.4-1.3,4.2c0,1.1,0.2,1.9,0.6,2.5c0.4,0.6,1.2,0.9,2.4,0.9
	c0.6,0,1.1-0.1,1.6-0.2c0.5-0.1,1-0.3,1.4-0.5l0.3,3.6c-0.5,0.2-1.1,0.4-1.8,0.6c-0.6,0.1-1.4,0.3-2.4,0.3c-1.2,0-2.2-0.2-3.1-0.6
	s-1.5-0.9-2-1.5c-0.5-0.6-0.9-1.4-1.2-2.2C59.1,19,59,18.1,59,17.2L59,17.2z"/>
<linearGradient id="Shape_7_" gradientUnits="userSpaceOnUse" x1="79.3427" y1="841.9504" x2="79.3427" y2="825.1936" gradientTransform="matrix(1 0 0 1 0 -818)">
	<stop  offset="0" style="stop-color:#F6DFAF"/>
	<stop  offset="6.550192e-02" style="stop-color:#F2DDB0"/>
	<stop  offset="0.1225" style="stop-color:#E8D6B3"/>
	<stop  offset="0.2583" style="stop-color:#E4D3B3"/>
	<stop  offset="0.4027" style="stop-color:#D7CBB4"/>
	<stop  offset="0.5375" style="stop-color:#C4BFB5"/>
	<stop  offset="0.6854" style="stop-color:#CFC9C0"/>
	<stop  offset="0.8347" style="stop-color:#DED8CF"/>
	<stop  offset="1" style="stop-color:#FCFDFB"/>
</linearGradient>
<path id="Shape_3_" class="st7" d="M78.1,24c-1,0-1.9-0.2-2.7-0.5c-0.8-0.3-1.4-0.8-1.9-1.4c-0.5-0.6-0.9-1.3-1.1-2.1
	c-0.3-0.8-0.4-1.7-0.4-2.7c0-1.2,0.2-2.4,0.6-3.6c0.4-1.2,0.9-2.3,1.7-3.3C75,9.4,76,8.6,77,8c1.1-0.6,2.3-0.9,3.7-0.9
	c1,0,1.9,0.2,2.7,0.5C84.1,8,84.7,8.5,85.2,9c0.5,0.6,0.9,1.3,1.1,2.1c0.3,0.8,0.4,1.7,0.4,2.7c0,1.2-0.2,2.4-0.5,3.6
	c-0.4,1.2-0.9,2.3-1.6,3.3c-0.7,1-1.6,1.8-2.7,2.4C80.7,23.7,79.5,24,78.1,24L78.1,24z M80.2,11c-0.6,0-1.2,0.2-1.7,0.6
	c-0.5,0.4-0.9,0.9-1.2,1.5c-0.3,0.6-0.6,1.2-0.8,1.9c-0.2,0.7-0.3,1.4-0.3,2c0,1,0.1,1.8,0.5,2.4c0.4,0.6,0.9,0.9,1.7,0.9
	c0.6,0,1.2-0.2,1.7-0.6c0.5-0.4,0.9-0.9,1.2-1.5c0.3-0.6,0.6-1.2,0.8-1.9c0.2-0.7,0.3-1.3,0.3-2c0-1-0.1-1.8-0.5-2.4
	C81.6,11.3,81,11,80.2,11z"/>
<linearGradient id="Shape_8_" gradientUnits="userSpaceOnUse" x1="91.6891" y1="841.5521" x2="91.6891" y2="818.3985" gradientTransform="matrix(1 0 0 1 0 -818)">
	<stop  offset="0" style="stop-color:#F6DFAF"/>
	<stop  offset="6.550192e-02" style="stop-color:#F2DDB0"/>
	<stop  offset="0.1225" style="stop-color:#E8D6B3"/>
	<stop  offset="0.2583" style="stop-color:#E4D3B3"/>
	<stop  offset="0.4027" style="stop-color:#D7CBB4"/>
	<stop  offset="0.5375" style="stop-color:#C4BFB5"/>
	<stop  offset="0.6854" style="stop-color:#CFC9C0"/>
	<stop  offset="0.8347" style="stop-color:#DED8CF"/>
	<stop  offset="1" style="stop-color:#FCFDFB"/>
</linearGradient>
<path id="Shape_4_" class="st8" d="M91.3,23.6H87l3.6-15.9H95L91.3,23.6L91.3,23.6z M93.5,5.7c-0.6,0-1.1-0.2-1.6-0.6
	c-0.5-0.4-0.7-0.9-0.7-1.7c0-0.4,0.1-0.8,0.3-1.2c0.2-0.4,0.4-0.7,0.6-1c0.3-0.3,0.6-0.5,0.9-0.6c0.3-0.1,0.8-0.2,1.1-0.2
	c0.6,0,1.1,0.2,1.6,0.6c0.5,0.4,0.7,0.9,0.7,1.7c0,0.4-0.1,0.8-0.3,1.2s-0.4,0.7-0.6,1c-0.3,0.3-0.6,0.5-0.9,0.6
	C94.3,5.6,93.9,5.7,93.5,5.7L93.5,5.7z"/>
<linearGradient id="Path_6_" gradientUnits="userSpaceOnUse" x1="102.2856" y1="841.5251" x2="102.2856" y2="825.2524" gradientTransform="matrix(1 0 0 1 0 -818)">
	<stop  offset="0" style="stop-color:#F6DFAF"/>
	<stop  offset="6.550192e-02" style="stop-color:#F2DDB0"/>
	<stop  offset="0.1225" style="stop-color:#E8D6B3"/>
	<stop  offset="0.2583" style="stop-color:#E4D3B3"/>
	<stop  offset="0.4027" style="stop-color:#D7CBB4"/>
	<stop  offset="0.5375" style="stop-color:#C4BFB5"/>
	<stop  offset="0.6854" style="stop-color:#CFC9C0"/>
	<stop  offset="0.8347" style="stop-color:#DED8CF"/>
	<stop  offset="1" style="stop-color:#FCFDFB"/>
</linearGradient>
<path id="Path_3_" class="st9" d="M98.1,8.3c0.3-0.1,0.7-0.2,1.1-0.3c0.4-0.1,0.8-0.3,1.3-0.4c0.5-0.1,1-0.2,1.7-0.3
	c0.6-0.1,1.3-0.1,2.1-0.1c2.3,0,3.8,0.7,4.7,2.1s1,3.3,0.5,5.7l-2,8.6h-4.3l1.9-8.4c0.1-0.5,0.2-1.1,0.3-1.5c0.1-0.5,0.1-0.9,0-1.3
	s-0.3-0.7-0.5-0.9c-0.2-0.2-0.7-0.3-1.3-0.3s-1.1,0.1-1.7,0.2l-2.8,12.3h-4.3L98.1,8.3L98.1,8.3z"/>
</svg>
