<?xml version="1.0" encoding="utf-8"?>
<!-- Generator: Adobe Illustrator 24.2.1, SVG Export Plug-In . SVG Version: 6.00 Build 0)  -->
<svg version="1.1" id="Слой_1" xmlns="http://www.w3.org/2000/svg" xmlns:xlink="http://www.w3.org/1999/xlink" x="0px" y="0px"
	 viewBox="0 0 19 23" style="enable-background:new 0 0 19 23;" xml:space="preserve">
<style type="text/css">
	.st0{fill:#E4C892;}
</style>
<g>
	<path class="st0" d="M18.313,15.971c-0.49-0.806-1.177-1.367-1.986-1.621l-2.286-0.719c-0.075-0.024-0.153-0.022-0.222,0
		l-0.361-0.533c-0.108-0.16-0.325-0.208-0.492-0.109l-0.177,0.105v-0.515c0-0.054-0.013-0.106-0.035-0.152
		c1.138-0.989,1.865-2.487,1.865-4.16V7.016c0.915-2.516,0.905-5.412,0.281-6.161c-0.001-0.002-0.003-0.003-0.004-0.005c0,0,0,0,0,0
		c-0.001-0.001-0.002-0.002-0.003-0.003c-0.006-0.008-0.013-0.015-0.02-0.022c-0.004-0.004-0.009-0.008-0.014-0.012
		c-0.004-0.004-0.008-0.007-0.012-0.011c-0.006-0.005-0.013-0.009-0.019-0.014c-0.003-0.002-0.006-0.004-0.009-0.007
		c-0.007-0.004-0.014-0.009-0.021-0.013c-0.003-0.002-0.006-0.004-0.009-0.005c-0.007-0.004-0.014-0.007-0.021-0.01
		c-0.004-0.002-0.008-0.004-0.012-0.005c-0.006-0.003-0.013-0.005-0.019-0.007c-0.005-0.002-0.01-0.004-0.015-0.005
		c-0.006-0.002-0.011-0.003-0.017-0.005c-0.006-0.001-0.012-0.003-0.018-0.004c-0.005-0.001-0.011-0.002-0.016-0.002
		c-0.006-0.001-0.013-0.002-0.019-0.003c-0.006-0.001-0.011-0.001-0.016-0.001c-0.006,0-0.013-0.001-0.019-0.001
		c-0.007,0-0.014,0-0.021,0.001c-0.005,0-0.009,0-0.014,0.001c-0.011,0.001-0.022,0.003-0.032,0.005c-0.001,0-0.002,0-0.003,0
		c0,0-0.001,0-0.002,0c0,0,0,0,0,0c-0.853,0.163-1.868-0.072-2.943-0.321C9.907,0.014,8.158-0.391,6.797,0.729
		C6.724,0.723,6.651,0.72,6.577,0.72c-1.612,0-2.923,1.29-2.923,2.875c0,1.692,0.618,3.647,0.739,4.011v0.661
		c0,1.669,0.723,3.164,1.857,4.153c-0.024,0.048-0.038,0.102-0.038,0.159v0.515l-0.177-0.105c-0.167-0.099-0.384-0.051-0.492,0.109
		l-0.361,0.533c-0.07-0.022-0.147-0.024-0.222,0L2.673,14.35c-0.809,0.255-1.496,0.815-1.986,1.621C0.244,16.7,0,17.578,0,18.443
		v3.119C0,22.355,0.656,23,1.462,23h4.384c0,0,0.001,0,0.001,0c0.001,0,0.001,0,0.002,0h7.304c0.001,0,0.001,0,0.002,0
		c0,0,0.001,0,0.001,0h4.384C18.344,23,19,22.355,19,21.563v-3.119C19,17.578,18.756,16.7,18.313,15.971L18.313,15.971z
		 M6.102,22.281l-2.734-7.395l1.39-0.438c0.011,0.054,0.035,0.106,0.072,0.151l0.477,0.587c-0.122,0.139-0.192,0.319-0.192,0.507
		v2.385c0,0.255,0.127,0.494,0.34,0.64c0.134,0.091,0.292,0.139,0.451,0.139c0.094,0,0.188-0.016,0.278-0.05l2.174-0.802
		c0.199,0.197,0.473,0.318,0.777,0.318h0.731c0.303,0,0.578-0.122,0.777-0.318l2.174,0.802c0.09,0.033,0.184,0.05,0.278,0.05
		c0.159,0,0.316-0.047,0.451-0.139c0.213-0.145,0.341-0.384,0.341-0.64v-2.385c0-0.149-0.044-0.293-0.123-0.416l0.437-0.718
		c0.021-0.035,0.035-0.073,0.043-0.111l1.391,0.438l-2.734,7.395H6.102z M2.187,15.396c0.159-0.114,0.323-0.207,0.489-0.279
		l2.649,7.164H2.192v-6.828C2.192,15.434,2.19,15.415,2.187,15.396L2.187,15.396z M8.038,16.527v0.004H7.308
		c-0.202,0-0.365,0.161-0.365,0.359c0,0.198,0.164,0.359,0.365,0.359h0.731v0.106l-2.111,0.779c-0.02,0.007-0.038,0.005-0.056-0.007
		c-0.017-0.012-0.026-0.028-0.026-0.049v-2.385c0-0.021,0.009-0.037,0.026-0.049c0.011-0.007,0.022-0.011,0.033-0.011
		c0.007,0,0.014,0.001,0.022,0.004l2.111,0.778V16.527z M9.134,16.168h0.731c0.202,0,0.365,0.161,0.365,0.359v0.719
		c0,0.198-0.164,0.359-0.365,0.359H9.134c-0.201,0-0.365-0.161-0.365-0.359v-0.719C8.769,16.329,8.933,16.168,9.134,16.168
		L9.134,16.168z M13.072,15.639c0.02-0.007,0.038-0.005,0.056,0.007c0.017,0.012,0.026,0.028,0.026,0.049v2.385
		c0,0.021-0.009,0.037-0.026,0.049c-0.017,0.012-0.036,0.014-0.056,0.007l-2.111-0.779V17.25h0.731c0.202,0,0.365-0.161,0.365-0.359
		c0-0.198-0.163-0.359-0.365-0.359h-0.731v-0.115L13.072,15.639z M16.324,15.117c0.166,0.072,0.33,0.165,0.489,0.279
		c-0.003,0.019-0.005,0.038-0.005,0.057v6.828h-3.132L16.324,15.117z M13.043,13.782l0.409,0.604l-0.323,0.531
		c-0.105-0.005-0.212,0.011-0.314,0.048l-2.174,0.802c-0.133-0.132-0.301-0.23-0.489-0.28L13.043,13.782z M5.123,8.266V7.907
		c0-1.271,0.924-2.26,0.933-2.269C6.195,5.493,6.188,5.266,6.041,5.13C5.894,4.994,5.663,5.001,5.524,5.145
		c-0.028,0.029-0.433,0.459-0.75,1.137c-0.189-0.759-0.39-1.777-0.39-2.688c0-1.189,0.983-2.156,2.192-2.156
		c0.293,0,0.577,0.056,0.844,0.166c0.186,0.076,0.4-0.01,0.478-0.193C7.968,1.247,7.905,1.062,7.758,0.97
		c1.025-0.477,2.318-0.179,3.675,0.135c0.838,0.194,1.698,0.393,2.505,0.393c0.163,0,0.323-0.009,0.481-0.027
		c0.104,0.28,0.21,0.866,0.189,1.749c-0.023,0.96-0.188,1.979-0.472,2.934l-0.681-0.967c-0.095-0.135-0.271-0.189-0.428-0.132
		c-0.009,0.003-0.889,0.317-2.185,0.303C9.117,5.336,7.511,4.769,6.07,3.67C5.91,3.548,5.681,3.577,5.557,3.734
		C5.433,3.891,5.463,4.117,5.622,4.238c1.968,1.5,3.938,1.828,5.245,1.838c0.992,0.01,1.754-0.157,2.139-0.263l0.882,1.252v1.201
		c0,2.576-1.966,4.672-4.382,4.672S5.123,10.842,5.123,8.266L5.123,8.266z M6.942,12.929c0.754,0.463,1.63,0.728,2.564,0.728
		c0.929,0,1.8-0.263,2.552-0.721v0.589L9.5,15.034l-2.558-1.509V12.929z M5.957,13.782l2.89,1.705
		c-0.188,0.05-0.355,0.148-0.489,0.28l-2.174-0.802c-0.05-0.018-0.102-0.032-0.154-0.039l-0.463-0.57L5.957,13.782z M0.731,21.563
		v-3.119c0-0.933,0.296-1.726,0.731-2.321v6.159C1.058,22.281,0.731,21.959,0.731,21.563L0.731,21.563z M18.269,21.563
		c0,0.396-0.328,0.719-0.731,0.719v-6.159c0.435,0.595,0.731,1.388,0.731,2.321V21.563z M18.269,21.563"/>
	<path class="st0" d="M9.5,18.688c-0.403,0-0.731,0.322-0.731,0.719c0,0.396,0.328,0.719,0.731,0.719
		c0.403,0,0.731-0.322,0.731-0.719S9.903,18.688,9.5,18.688L9.5,18.688z M9.5,18.688"/>
	<path class="st0" d="M9.5,20.485c-0.403,0-0.731,0.322-0.731,0.719c0,0.396,0.328,0.719,0.731,0.719
		c0.403,0,0.731-0.322,0.731-0.719C10.231,20.807,9.903,20.485,9.5,20.485L9.5,20.485z M9.5,20.485"/>
</g>
</svg>
