<svg width="1029" height="551" viewBox="0 0 1029 551" fill="none" xmlns="http://www.w3.org/2000/svg">
<path d="M94.58 219.695L80.2939 231.838L90.341 243.98L88.1829 256.117L66.7455 274.333H36.4117L38.5752 262.185H56.7866L63.9158 256.117L66.0739 243.98L61.0751 237.906H42.8528L44.9503 225.791H63.1561L70.3019 219.723L71.3809 213.649H41.0306L33.8848 219.695L24.2726 274.333H0L9.60664 219.695L31.0385 201.485H97.8061L94.5635 219.695H94.58ZM178.034 274.333H111.272L96.3142 256.117L105.893 201.49H130.171L120.565 256.117L125.558 262.185H155.903L166.589 201.49H190.867L178.034 274.333ZM273.242 262.185L271.084 274.333H186.121L198.954 201.485H223.254L212.546 262.185H273.242ZM366.302 262.185L364.139 274.333H279.182L292.02 201.485H316.32L305.612 262.185H366.302ZM465.743 225.797H441.443L443.601 213.649H413.278L406.133 219.695L402.967 237.906H463.662L461.504 250.048H400.82L398.662 262.185H459.368L457.205 274.333H372.275L381.882 219.695L403.286 201.485H470.048L465.727 225.775L465.749 225.802L465.743 225.797ZM560.956 213.649H530.606L519.926 274.333H495.626L506.306 213.627H475.989L478.114 201.485H563.087L560.923 213.627L560.956 213.649ZM650.791 231.865L629.425 250.076H599.086L601.244 237.934H619.455L626.535 231.865L629.772 213.649H599.422L592.281 219.723L582.675 274.355H558.369L567.976 219.723L589.408 201.485H656.164L650.763 231.838L650.791 231.865ZM743.857 231.865L722.486 250.076H728.558L732.472 262.213H738.545L736.381 274.355H712.081L704.241 250.048H692.102L694.26 237.906H712.494L719.573 231.838L722.811 213.627H692.455L685.314 219.695L675.702 274.333H651.402L661.009 219.695L682.468 201.485H749.214L743.813 231.838L743.857 231.865ZM832.684 256.144L811.247 274.355H744.49L754.075 219.695L775.529 201.485H842.291L832.684 256.111V256.144ZM785.515 213.649L778.375 219.695L770.921 262.185H801.26L808.406 256.117L815.871 213.627L785.515 213.649ZM925.739 256.144L904.307 274.355H837.551L847.157 219.723L868.589 201.485H935.351L925.739 256.111V256.144ZM878.581 213.649L871.436 219.723L863.97 262.213H894.321L901.467 256.144L908.926 213.649H878.581ZM1024.09 225.797H999.79L1001.95 213.649H971.603L964.458 219.723L961.298 237.934H1021.99L1019.83 250.076H959.184L954.867 274.382H930.562L940.174 219.75L961.65 201.485H1028.41L1024.09 225.797ZM718.825 306.685C718.698 304.185 717.872 302.411 716.347 301.36C714.864 300.32 713.094 299.77 711.283 299.785H709.989C708.207 299.964 706.477 300.484 704.891 301.316C703.519 301.95 702.327 302.918 701.423 304.13C700.753 305.214 700.134 306.33 699.567 307.472C698.822 308.974 698.232 310.548 697.806 312.169C697.42 313.601 697.217 315.066 697.206 316.547C697.134 318.805 697.855 321.013 699.243 322.797C700.597 324.493 702.683 325.374 705.491 325.44C708.299 325.44 710.886 324.334 713.248 322.125C715.61 319.923 717.025 317.489 717.487 314.835L717.559 314.576C717.564 314.491 717.564 314.407 717.559 314.322H707.693L708.343 311.778H720.796L717.559 326.966H715.01L715.979 322.56C714.912 324.033 713.519 325.239 711.91 326.085C710.322 326.93 708.599 327.493 706.818 327.748C706.103 327.869 705.379 327.933 704.654 327.941C701.981 327.955 699.386 327.038 697.316 325.347C695.158 323.618 694.068 320.87 694.051 317.103C694.058 316.116 694.143 315.131 694.304 314.157C694.488 313.043 694.727 311.938 695.02 310.848C696.105 306.866 697.806 303.794 700.14 301.63C702.193 299.63 704.717 298.181 707.478 297.417C708.658 297.112 709.872 296.958 711.09 296.96C713.76 296.916 716.369 297.753 718.516 299.339C720.575 300.737 721.798 303.083 721.759 305.567V306.652L718.825 306.685ZM781.238 327.015L779.669 317.891H766.885L761.518 327.015H758.369L775.776 297.516H779.019L784.387 327.015H781.238ZM776.762 300.666L768.24 315.248H779.355L776.762 300.666ZM852.553 327.015H849.31L855.068 301.316L840.067 327.015H837.248L833.466 301.316L827.999 327.015H824.85L831.198 297.846H835.685L839.467 323.265L854.468 297.846H858.845L852.553 327.015ZM920.834 300.341H904.676L902.358 310.528H917.36L916.711 313.072H901.758L899.209 324.515H916.089L915.444 327.015H895.714L902.012 297.846H921.456L920.806 300.346L920.834 300.341ZM980.929 306.035L978.105 305.991C978.105 305.925 978.116 305.864 978.133 305.804C978.138 305.727 978.138 305.649 978.133 305.572C978.166 305.418 978.182 305.264 978.199 305.11C978.209 304.972 978.209 304.834 978.199 304.697C978.218 303.981 978.067 303.27 977.758 302.624C977.449 301.977 976.99 301.414 976.42 300.98C975.232 300.027 973.748 299.52 972.225 299.548C971.785 299.548 971.345 299.592 970.91 299.664C970.447 299.748 969.991 299.864 969.544 300.011C969.264 300.104 969.005 300.203 968.713 300.313C968.427 300.424 968.146 300.556 967.876 300.699C967.045 301.189 966.302 301.806 965.68 302.538C965.052 303.237 964.6 304.075 964.359 304.983C964.294 305.167 964.248 305.357 964.221 305.55C964.188 305.741 964.171 305.935 964.171 306.128C964.199 307.147 964.639 308.111 965.404 308.794C966.219 309.62 967.568 310.198 969.451 310.539C973.216 311.31 975.82 312.373 977.279 313.733C978.727 315.099 979.437 316.542 979.437 318.056C979.437 318.441 979.393 318.827 979.316 319.196C979.245 319.581 979.14 319.961 979.019 320.33C978.765 321.024 978.448 321.693 978.072 322.329C977.676 322.99 977.23 323.629 976.751 324.235C975.789 325.321 974.57 326.149 973.205 326.641C971.335 327.408 969.35 327.855 967.331 327.963C967.04 327.979 966.737 327.963 966.428 327.963C964.298 328.001 962.206 327.412 960.406 326.272C958.644 325.149 957.763 323.271 957.763 320.644C957.763 320.303 957.763 319.923 957.835 319.488C957.906 319.058 957.939 318.623 958 318.194V318.166H960.824V318.904C960.791 319.002 960.774 319.104 960.775 319.207V319.51C960.775 321.547 961.369 322.984 962.564 323.833C963.714 324.659 965.063 325.165 966.472 325.314H967.964C968.096 325.314 968.228 325.297 968.355 325.264C969.247 325.222 970.131 325.083 970.992 324.851C972.253 324.504 973.404 323.844 974.328 322.924C975.311 321.973 975.973 320.739 976.222 319.394C976.255 319.157 976.272 318.918 976.272 318.678C976.278 317.885 976.069 317.104 975.666 316.421C975.256 315.717 974.596 315.193 973.817 314.956C973.73 314.932 973.646 314.902 973.563 314.868L973.31 314.774C972.493 314.474 971.664 314.204 970.827 313.965C970.031 313.739 969.238 313.5 968.449 313.249C966.657 312.761 964.93 312.058 963.307 311.156C961.92 310.347 961.226 309.031 961.22 307.208C961.286 305.832 961.58 304.478 962.09 303.199C962.789 301.508 964.039 300.104 965.636 299.212C967.337 298.166 969.236 297.483 971.212 297.202C971.51 297.147 971.813 297.109 972.115 297.092H973.018C975 297.048 976.943 297.654 978.551 298.81C980.142 299.961 980.935 301.795 980.94 304.311V305.143C980.935 305.439 980.902 305.734 980.841 306.024L980.929 306.035Z" fill="#757575"/>
<path d="M323.487 278.683C335.13 329.262 354.316 377.611 381.055 423.729C407.789 469.842 437.996 512.161 471.688 550.67C421.992 514.149 382.013 475.47 351.751 434.633C321.488 393.8 297.502 341.817 279.797 278.683H323.487ZM671.302 278.683C661.58 312.775 652.513 338.271 644.096 355.171C635.678 372.076 621.706 394.929 602.173 423.729C617.395 390.805 628.527 365.501 635.568 347.819C642.604 330.143 648.929 307.097 656.169 278.683H671.302ZM478.795 0C557.718 0 630.476 12.3956 697.072 37.1922C702.561 94.8088 700.524 147.299 690.978 194.662H684.295C677.133 201.6 668.06 206.639 667.3 207.344C668.517 188.032 673.631 138.058 672.414 59.8743C586.604 46.1626 522.066 40.0006 478.806 41.3883C413.91 43.4699 343.845 53.8995 308.226 71.7743C308.226 113.256 309.382 154.221 311.689 194.662H288.462C285.446 208.115 280.92 229.304 274.881 258.237C255.106 181.198 248.621 107.518 255.442 37.1922C325.414 12.3901 399.867 0 478.795 0Z" fill="#757575"/>
</svg>
