<svg width="1927" height="999" viewBox="0 0 1927 999" fill="none" xmlns="http://www.w3.org/2000/svg">
<path d="M676.45 998.513C661.521 998.513 650.147 994.602 642.322 986.774C634.589 978.95 630.723 966.898 630.723 950.617C630.723 940.001 632.52 931.141 636.118 924.035C639.713 916.929 645.019 911.622 652.034 908.115C659.048 904.516 667.592 902.718 677.661 902.718C683.957 902.718 689.667 903.393 694.792 904.741C699.919 906.092 704.325 908.161 708.012 910.949C711.789 913.648 714.666 917.065 716.642 921.204C718.711 925.34 719.747 930.243 719.747 935.909H706.662C706.662 931.952 705.943 928.578 704.504 925.79C703.064 922.912 700.998 920.572 698.3 918.773C695.692 916.975 692.633 915.714 689.128 914.996C685.619 914.188 681.888 913.78 677.933 913.78C672.537 913.78 667.724 914.456 663.5 915.807C659.273 917.154 655.721 919.267 652.845 922.148C649.965 925.025 647.764 928.713 646.234 933.21C644.705 937.707 643.94 943.061 643.94 949.266V952.1C643.94 960.464 645.201 967.255 647.717 972.474C650.326 977.689 654.056 981.513 658.912 983.94C663.768 986.281 669.614 987.45 676.45 987.45C683.371 987.45 689.081 986.506 693.58 984.616C698.075 982.639 701.402 979.669 703.56 975.712C705.808 971.755 706.933 966.762 706.933 960.736V959.116H674.291V948.186H719.88V996.893H710.171L708.82 985.155C706.394 988.304 703.514 990.867 700.187 992.847C696.86 994.824 693.173 996.264 689.128 997.165C685.172 998.062 680.945 998.513 676.45 998.513ZM771.933 996.893L808.488 904.337H825.347L862.037 996.893H848.144L839.104 973.957H794.052L785.151 996.893H771.933ZM798.236 963.027H834.787L823.592 934.021C823.324 933.21 822.92 932.088 822.381 930.647C821.841 929.207 821.255 927.634 820.626 925.925C819.997 924.124 819.368 922.326 818.736 920.528C818.107 918.638 817.525 916.929 816.985 915.4H816.174C815.545 917.201 814.827 919.267 814.016 921.608C813.208 923.946 812.397 926.24 811.589 928.488C810.778 930.647 810.106 932.492 809.567 934.021L798.236 963.027ZM914.997 996.893V904.337H934.825L955.868 964.378C956.407 965.997 956.947 967.795 957.486 969.775C958.115 971.663 958.655 973.464 959.105 975.172C959.645 976.881 960.049 978.364 960.317 979.626H961.263C961.531 978.275 961.892 976.745 962.339 975.036C962.789 973.238 963.286 971.394 963.825 969.504C964.365 967.616 964.858 965.908 965.308 964.378L986.351 904.337H1006.04V996.893H993.23V942.657C993.23 939.866 993.273 936.852 993.366 933.614C993.455 930.286 993.544 927.273 993.634 924.575C993.723 921.787 993.769 919.807 993.769 918.638H992.69C992.419 919.807 991.972 921.472 991.34 923.631C990.711 925.7 990.036 927.902 989.317 930.243C988.688 932.492 988.102 934.515 987.563 936.313L965.848 996.893H954.789L933.071 936.313C932.531 934.786 931.948 933.031 931.316 931.051C930.777 928.982 930.194 926.869 929.565 924.71C929.025 922.552 928.486 920.528 927.946 918.638H927C927.092 920.618 927.135 923.091 927.135 926.058C927.225 928.939 927.271 931.862 927.271 934.829C927.36 937.707 927.407 940.316 927.407 942.657V996.893H914.997ZM1069.67 996.893V904.337H1140.88V915.4H1082.48V944.004H1134.95V955.067H1082.48V985.831H1141.7V996.893H1069.67ZM1235.41 998.513C1230.37 998.513 1225.52 998.019 1220.84 997.029C1216.25 996.039 1212.16 994.466 1208.56 992.307C1204.97 990.059 1202.09 987.178 1199.93 983.672C1197.86 980.165 1196.83 975.848 1196.83 970.719C1196.83 970.269 1196.83 969.818 1196.83 969.371C1196.92 968.921 1196.96 968.47 1196.96 968.02H1209.91C1209.91 968.292 1209.87 968.739 1209.78 969.371C1209.78 969.911 1209.78 970.404 1209.78 970.854C1209.78 974.454 1210.86 977.51 1213.02 980.03C1215.17 982.546 1218.14 984.437 1221.92 985.695C1225.78 986.864 1230.15 987.45 1235 987.45C1237.16 987.45 1239.41 987.314 1241.75 987.046C1244.17 986.775 1246.47 986.324 1248.62 985.695C1250.87 984.976 1252.85 984.076 1254.56 982.996C1256.36 981.828 1257.75 980.434 1258.74 978.814C1259.82 977.106 1260.36 975.037 1260.36 972.609C1260.36 969.55 1259.46 967.03 1257.66 965.053C1255.95 962.984 1253.66 961.319 1250.78 960.06C1247.91 958.712 1244.62 957.54 1240.94 956.554C1237.34 955.474 1233.61 954.438 1229.74 953.448C1225.87 952.461 1222.1 951.335 1218.41 950.077C1214.81 948.726 1211.58 947.107 1208.7 945.22C1205.82 943.24 1203.48 940.812 1201.69 937.932C1199.98 935.054 1199.12 931.548 1199.12 927.409C1199.12 923.542 1199.89 920.078 1201.41 917.019C1203.03 913.962 1205.37 911.4 1208.43 909.33C1211.58 907.171 1215.44 905.552 1220.03 904.473C1224.61 903.304 1229.87 902.718 1235.81 902.718C1240.67 902.718 1245.16 903.257 1249.3 904.337C1253.53 905.327 1257.21 906.9 1260.36 909.059C1263.6 911.128 1266.11 913.78 1267.91 917.019C1269.71 920.257 1270.61 924.171 1270.61 928.757V930.376H1257.93V928.353C1257.93 925.296 1256.99 922.687 1255.1 920.528C1253.21 918.369 1250.6 916.704 1247.28 915.535C1244.04 914.366 1240.35 913.78 1236.21 913.78C1230.82 913.78 1226.32 914.32 1222.73 915.4C1219.13 916.39 1216.43 917.873 1214.63 919.853C1212.93 921.743 1212.07 923.902 1212.07 926.33C1212.07 929.118 1212.93 931.455 1214.63 933.346C1216.43 935.233 1218.77 936.809 1221.65 938.068C1224.53 939.236 1227.81 940.316 1231.49 941.306C1235.18 942.296 1238.91 943.329 1242.69 944.408C1246.55 945.398 1250.29 946.567 1253.88 947.918C1257.57 949.176 1260.85 950.796 1263.73 952.776C1266.7 954.663 1269.04 957.093 1270.75 960.06C1272.45 962.938 1273.31 966.49 1273.31 970.719C1273.31 977.285 1271.69 982.639 1268.45 986.774C1265.21 990.824 1260.77 993.791 1255.1 995.681C1249.43 997.569 1242.87 998.513 1235.41 998.513Z" fill="#757575"/>
<path fill-rule="evenodd" clip-rule="evenodd" d="M0 661.16V869.412H107.435C119.777 869.412 130.703 867.491 140.212 863.645C149.722 859.799 157.309 853.73 162.974 845.431C168.639 837.134 171.472 826.204 171.472 812.644C171.472 802.525 169.651 794.025 166.009 787.144C162.569 780.06 157.916 774.395 152.048 770.145C146.181 765.892 139.605 762.959 132.322 761.34V760.125C138.796 757.898 144.562 754.561 149.621 750.108C154.679 745.654 158.624 740.091 161.457 733.41C164.289 726.733 165.705 719.446 165.705 711.554C165.705 701.231 163.278 692.327 158.422 684.839C153.768 677.351 147.091 671.581 138.391 667.534C129.691 663.285 119.373 661.16 107.435 661.16H0ZM107.132 844.521H28.8316V774.999H104.704C112.999 774.999 119.879 776.316 125.341 778.947C130.804 781.377 134.952 785.22 137.785 790.485C140.617 795.542 142.033 801.917 142.033 809.609C142.033 822.155 138.796 831.164 132.322 836.626C125.847 841.89 117.45 844.521 107.132 844.521ZM101.973 750.41H28.8316V686.051H104.097C113.809 686.051 121.598 688.685 127.466 693.947C133.333 699.004 136.267 706.998 136.267 717.928C136.267 724.201 134.749 729.87 131.715 734.928C128.882 739.785 124.937 743.631 119.879 746.465C114.82 749.096 108.852 750.41 101.973 750.41ZM250.756 864.555C263.503 870.224 278.677 873.055 296.28 873.055C314.086 873.055 329.36 870.224 342.106 864.555C355.055 858.89 364.971 849.986 371.849 837.841C378.728 825.495 382.169 809.711 382.169 790.485V661.16H353.64V793.519C353.64 811.734 348.58 825.393 338.464 834.501C328.348 843.608 314.286 848.163 296.28 848.163C278.475 848.163 264.616 843.608 254.702 834.501C244.99 825.393 240.134 811.734 240.134 793.519V661.16H211.302V790.485C211.302 809.711 214.641 825.495 221.318 837.841C228.197 849.986 238.009 858.89 250.756 864.555ZM433.896 869.412V661.16H462.727V844.215H566.217V869.412H433.896ZM596.605 661.16V869.412H728.927V844.215H625.439V661.16H596.605Z" fill="#757575"/>
<path d="M1319.99 806.886L1293.02 803.515L1277.84 800.141L1284.58 828.811L1301.44 820.379L1287.96 817.005L1319.99 806.886Z" fill="#757575"/>
<path fill-rule="evenodd" clip-rule="evenodd" d="M909.241 673.302C892.042 662.375 870.09 656.91 843.383 656.91C816.273 656.91 793.812 662.375 776.009 673.302C758.407 684.029 749.605 700.828 749.605 723.696C749.605 739.28 753.752 751.625 762.049 760.733C770.342 769.84 780.054 776.418 791.182 780.465C802.312 784.311 816.371 788.055 833.369 791.697C847.33 794.531 857.344 797.264 863.412 799.894C869.686 802.325 872.822 806.069 872.822 811.127C872.822 816.795 869.988 820.539 864.324 822.359C858.861 824.182 851.881 825.091 843.383 825.091C831.849 825.091 823.352 823.371 817.888 819.932C812.428 816.289 809.696 809.205 809.696 798.679H746.266C746.266 826.408 755.269 845.736 773.278 856.663C791.487 867.593 816.877 873.058 849.454 873.058C877.372 873.058 899.63 867.087 916.221 855.146C933.015 843.204 941.411 824.888 941.411 800.2C941.207 785.627 937.06 774.09 928.967 765.59C920.873 757.09 911.365 751.018 900.438 747.376C889.715 743.53 875.957 739.887 859.163 736.449C844.799 733.614 834.38 730.882 827.906 728.251C821.431 725.62 818.194 721.571 818.194 716.109C818.194 712.263 820.521 709.025 825.174 706.394C830.03 703.764 836.909 702.447 845.81 702.447C854.915 702.447 861.695 704.47 866.144 708.519C870.596 712.566 872.822 717.627 872.822 723.696V724.911H935.645V721.269C935.238 700.019 926.439 684.029 909.241 673.302ZM1115.52 790.18V869.413H1182.59V660.552H1115.52V736.751H1041.77V660.552H974.697V869.413H1041.77V790.18H1115.52ZM1435.35 869.413L1370.57 852.423C1316.62 761.353 1299.76 771.468 1298.07 788.332C1296.72 801.862 1279.52 855.793 1279.52 855.793C1257.59 861.548 1241.36 863.973 1229.08 865.808C1221.05 867.007 1214.71 867.954 1209.58 869.413H1208.08L1284.26 660.552H1362.26L1438.43 869.413H1435.35ZM1651.58 759.215C1658.46 748.893 1661.9 737.359 1661.9 724.609C1661.9 713.071 1659.17 702.447 1653.7 692.732C1648.44 682.816 1640.45 675.023 1629.73 669.358C1619.21 663.488 1606.46 660.552 1591.49 660.552H1463.72V869.413H1530.79V793.217H1555.68L1592.7 869.413H1667.97L1621.53 781.985C1634.68 777.128 1644.7 769.538 1651.58 759.215ZM1588.15 713.679C1591.79 717.321 1593.61 721.876 1593.61 727.341C1593.61 732.803 1591.79 737.46 1588.15 741.303C1584.51 744.948 1580.06 746.768 1574.8 746.768H1530.79V708.214H1574.8C1580.06 708.214 1584.51 710.037 1588.15 713.679ZM1841.36 660.552H1924.51L1849.55 746.466L1926.03 869.413H1846.82L1803.42 792.912L1767 822.664V869.413H1699.93V660.552H1767V749.806L1841.36 660.552Z" fill="#757575"/>
<path d="M1319.99 806.886L1293.02 803.515L1277.84 800.141L1284.59 828.811L1301.44 820.379L1287.96 817.005L1319.99 806.886Z" fill="#757575"/>
<path d="M1008.41 0C1067.89 0.000246777 1116.11 48.0873 1116.11 107.394V125.664C1137.14 132.436 1156.12 140.775 1171.96 150.428L1178.73 154.546L1173.21 160.207C1171.84 161.622 1139.37 194.775 1111.68 205.817L1108.69 207.005L1105.95 205.287C1105.6 205.077 1070.74 183.912 1026.05 198.843L1017.71 201.623V192.854C1017.71 190.985 1017.23 188.432 1016.75 187.75C1015.79 186.765 1011.65 186.613 1005.27 190.858C991.966 199.702 975.215 200.056 962.09 197.15C969.261 203.846 980.333 206.676 995.03 205.59L1005.07 204.857L1001.39 214.207C1001.32 214.46 1001.26 214.965 1001.26 215.269C1002.38 215.774 1009.25 217.871 1035.33 206.879L1043.66 203.366L1044.07 211.856C1044.09 211.856 1044.4 212.818 1045.56 213.449C1046.78 214.106 1050.61 215.268 1059.7 211.907C1074.12 206.576 1078.73 207.081 1081.83 209.734C1083.83 211.427 1084.66 214.005 1084.13 216.582C1081.52 229.09 1033.5 244.024 1031.45 244.656C1027.72 245.819 1023.29 247.057 1018.17 248.497C983.324 258.301 918.478 276.546 901.625 316.319C896.606 328.147 896.202 341.412 900.407 355.916C900.003 354.325 897.191 341.688 902.941 325.266C909.783 305.656 925.039 298.126 925.039 298.126C925.039 298.126 918.576 305.757 916.754 314.299C920.756 308.485 925.622 303.356 931.477 299.49C931.514 299.456 950.718 282.009 1034.51 261.309C1081.72 249.634 1101.95 239.274 1114.24 231.011C1111.98 242.913 1107.77 254.107 1101.95 264.266C1127.74 285.214 1144.21 317.127 1144.21 352.884V358.67C1161.65 358.241 1179.69 360.742 1197.51 367.743C1209.75 372.57 1250.62 390.939 1262.05 424.876L1262.08 424.9L1267.78 441.856L1252.65 432.256C1251.36 431.445 1222.57 413.783 1193.75 431.27C1201.94 440.821 1215.65 462.224 1213.29 496.92L1211.82 518.573L1201.41 499.52C1200.59 498.05 1185.49 472.027 1143.78 459.646C1138.89 518.296 1089.65 564.388 1029.57 564.388H855.1V482.135C870.127 486.961 886.064 489.715 902.285 490.196C908.467 490.372 914.497 490.499 920.556 490.499C945.869 490.499 971.593 488.226 1008.84 477.74H1029.57C1042.92 477.74 1054.1 468.262 1056.74 455.729C1033.7 458.686 1018.93 463.587 1004.54 468.414C983.654 475.415 962.062 482.641 917.438 483.729C916.172 483.779 914.905 483.778 913.638 483.778C837.868 483.778 771.548 428.617 755.204 356.625C754.418 362.081 753.989 368.172 754.267 374.716L754.544 381.514L747.728 381.285C747.401 381.211 711.213 380.555 678.118 409.739L667.271 419.29L667.576 404.863C667.65 402.007 670.009 334.765 750.262 264.847C751.581 256.533 756.675 229.015 769.014 209.103C762.527 199.829 738.277 170.693 676.672 148.026L662.887 142.948L676.04 136.429C679.641 134.633 760.173 95.6188 855.047 115.379V0H1008.41ZM988.926 325.214C1000.03 338.633 1004.81 355.842 1003.12 376.409L1002 389.853L992.345 380.403C991.556 379.618 973.946 363.092 941.969 364.332V388.363C939.182 385.026 936.191 379.416 934.569 369.942C934.563 369.991 933.762 375.959 934.468 383.512C934.949 388.715 936.163 394.655 938.876 399.886C939.764 401.579 940.776 403.17 941.969 404.659C943.917 407.086 946.353 409.184 949.368 410.775C962.188 419.368 983.73 422.325 1019.41 402.766C1020.73 402.056 1022.58 400.946 1024.88 399.556C1031.98 395.312 1043.23 388.589 1057.32 381.819V352.884C1057.32 337.621 1044.88 325.214 1029.57 325.214H988.926ZM979.775 118.26C976.812 118.285 973.87 118.361 970.981 118.437C970.451 118.462 969.918 118.487 969.388 118.487C966.446 118.563 963.533 118.689 960.696 118.841C960.493 118.866 960.289 118.866 960.086 118.866C957.197 119.018 954.36 119.194 951.598 119.396C951.369 119.422 951.141 119.447 950.913 119.447C948.101 119.675 945.339 119.903 942.626 120.155C942.296 120.206 941.993 120.231 941.663 120.256C939.964 120.433 938.343 120.609 936.696 120.786C935.682 120.913 934.618 121.014 933.632 121.115C933.555 121.14 933.453 121.141 933.376 121.141C930.842 121.419 928.384 121.747 925.977 122.05C925.218 122.151 924.481 122.253 923.723 122.354C922.101 122.581 920.503 122.809 918.931 123.036C918.502 123.112 918.046 123.162 917.614 123.238C901.702 126.624 884.164 130.111 868.758 135.241C864.195 136.808 859.611 138.476 855.072 140.32C843.695 144.945 832.746 150.806 824.233 159.701C831.026 147.901 842.252 138.653 855.072 131.375C856.367 130.642 857.659 129.909 859 129.201C858.417 129.075 857.835 128.923 857.252 128.797C856.543 128.645 855.809 128.469 855.072 128.317C854.187 128.14 853.323 127.912 852.438 127.735H852.387C850.182 127.28 848.002 126.852 845.822 126.473H845.798C840.553 125.563 835.382 124.829 830.239 124.248C798.893 120.711 769.726 123.339 745.677 127.938H745.6C744.055 128.215 742.535 128.544 741.012 128.848C740.885 128.873 740.735 128.899 740.608 128.924C739.19 129.227 737.796 129.53 736.427 129.833C736.199 129.884 735.996 129.934 735.768 129.984C734.476 130.263 733.209 130.566 731.941 130.869C731.664 130.945 731.359 130.995 731.081 131.071C729.888 131.349 728.722 131.627 727.557 131.931C727.202 132.007 726.872 132.108 726.542 132.184C725.454 132.487 724.362 132.764 723.299 133.042C722.92 133.143 722.565 133.245 722.186 133.346C721.171 133.624 720.182 133.902 719.195 134.18C718.788 134.281 718.409 134.407 718.002 134.508C717.065 134.76 716.152 135.038 715.268 135.291C714.811 135.442 714.379 135.569 713.947 135.695C713.136 135.923 712.301 136.176 711.515 136.429C711.034 136.555 710.577 136.707 710.121 136.858C709.387 137.111 708.653 137.338 707.944 137.565C707.436 137.717 706.955 137.894 706.474 138.046C705.839 138.248 705.182 138.475 704.571 138.678C704.017 138.854 703.483 139.057 702.95 139.233C702.445 139.41 701.911 139.587 701.405 139.764C700.798 139.966 700.215 140.194 699.632 140.396C699.25 140.547 698.822 140.674 698.439 140.825C697.478 141.154 696.565 141.507 695.677 141.836C696.463 142.164 697.2 142.493 697.958 142.821C728.291 147.269 779.913 162.784 789.489 173.498C797.65 182.595 792.581 195.179 783.714 209.052L783.967 209.558L781.763 212.69C781.18 213.499 780.647 214.333 780.113 215.167C779.962 215.42 779.811 215.647 779.657 215.9C779.229 216.557 778.846 217.24 778.442 217.922C778.316 218.149 778.213 218.351 778.087 218.554C777.606 219.438 777.125 220.322 776.669 221.231C776.567 221.433 776.466 221.636 776.364 221.838C775.985 222.571 775.63 223.304 775.275 224.062C775.146 224.34 775.02 224.618 774.894 224.896C774.514 225.729 774.135 226.564 773.78 227.397C773.728 227.499 773.678 227.624 773.626 227.726C773.222 228.686 772.843 229.621 772.461 230.581C772.335 230.859 772.233 231.137 772.131 231.415C771.853 232.148 771.575 232.881 771.295 233.614C771.221 233.867 771.119 234.145 771.018 234.397C770.688 235.357 770.358 236.292 770.028 237.252C769.979 237.404 769.926 237.581 769.877 237.732C769.6 238.541 769.344 239.35 769.091 240.158C769.014 240.411 768.915 240.689 768.838 240.967C768.61 241.75 768.357 242.559 768.129 243.342C768.104 243.493 768.051 243.645 768.002 243.797C767.721 244.732 767.469 245.667 767.216 246.577C767.163 246.779 767.115 246.982 767.065 247.184C766.862 247.916 766.658 248.649 766.482 249.382C766.43 249.584 766.381 249.761 766.328 249.963C765.872 251.757 765.443 253.475 765.089 255.093C765.037 255.244 765.012 255.37 764.987 255.521C764.808 256.28 764.657 257.039 764.503 257.746V257.821C764.352 258.579 764.201 259.288 764.074 259.97C764.05 260.045 764.05 260.096 764.05 260.172C763.92 261.006 763.793 261.865 763.667 262.724C763.618 262.749 763.593 262.8 763.541 262.8C763.516 262.875 763.491 262.951 763.491 263.027C763.389 263.583 763.288 264.114 763.211 264.594C763.186 264.77 763.161 264.923 763.137 265.1C763.06 265.428 763.01 265.757 762.958 266.06C762.933 266.236 762.881 266.388 762.881 266.539C762.832 266.792 762.783 267.02 762.755 267.247C762.73 267.373 762.705 267.499 762.705 267.601C762.68 267.878 762.628 268.157 762.604 268.334V268.384C762.528 268.657 762.526 268.834 762.526 268.839L762.225 271.215L760.399 272.781C758.701 274.272 757.004 275.763 755.354 277.229C754.8 277.734 754.267 278.213 753.733 278.719C752.645 279.704 751.557 280.69 750.518 281.676C749.907 282.257 749.324 282.812 748.717 283.394C747.78 284.303 746.818 285.188 745.905 286.098C745.295 286.704 744.712 287.285 744.104 287.892C743.217 288.751 742.331 289.635 741.468 290.494C740.885 291.101 740.328 291.682 739.745 292.289C738.91 293.148 738.074 294.007 737.263 294.866C736.705 295.448 736.174 296.054 735.616 296.635C734.83 297.494 734.02 298.354 733.233 299.213C732.728 299.769 732.246 300.35 731.737 300.905C730.951 301.764 730.169 302.649 729.407 303.533C728.926 304.089 728.469 304.645 727.988 305.201C727.227 306.086 726.493 306.945 725.76 307.829C725.276 308.411 724.819 308.967 724.362 309.547C723.681 310.382 722.969 311.24 722.312 312.075C721.832 312.655 721.375 313.263 720.919 313.843C720.284 314.651 719.624 315.462 719.017 316.27C718.56 316.849 718.132 317.433 717.7 318.013C717.093 318.821 716.482 319.631 715.899 320.439C715.471 321.019 715.064 321.602 714.66 322.182C714.077 322.965 713.519 323.773 712.961 324.557C712.554 325.14 712.174 325.72 711.771 326.303C711.237 327.086 710.704 327.87 710.198 328.625C709.819 329.208 709.437 329.787 709.058 330.37C708.577 331.129 708.071 331.885 707.587 332.644C707.208 333.226 706.853 333.806 706.499 334.389C706.043 335.12 705.586 335.853 705.154 336.56C704.775 337.167 704.421 337.772 704.066 338.38C703.659 339.086 703.255 339.771 702.848 340.452C702.493 341.06 702.167 341.64 701.837 342.247C701.455 342.928 701.075 343.61 700.696 344.267C700.366 344.874 700.061 345.454 699.734 346.062C699.377 346.694 699.022 347.351 698.695 347.983C698.365 348.588 698.035 349.221 697.729 349.828C697.427 350.432 697.122 351.04 696.817 351.619C696.515 352.251 696.21 352.859 695.904 353.491C695.627 354.046 695.35 354.602 695.094 355.157C694.792 355.789 694.511 356.422 694.209 357.054C693.956 357.584 693.7 358.114 693.472 358.62C693.17 359.277 692.89 359.91 692.612 360.542C692.409 361.048 692.18 361.526 691.977 362.007C691.699 362.664 691.447 363.321 691.166 363.953C690.99 364.406 690.787 364.863 690.611 365.291C690.331 365.948 690.077 366.605 689.824 367.262C689.673 367.666 689.495 368.07 689.344 368.474C689.091 369.131 688.835 369.816 688.582 370.473C688.431 370.824 688.304 371.179 688.178 371.533C687.922 372.215 687.694 372.921 687.441 373.605C687.34 373.883 687.241 374.185 687.14 374.463C686.884 375.172 686.655 375.879 686.43 376.561C686.353 376.813 686.251 377.066 686.174 377.319C685.946 378.053 685.746 378.735 685.518 379.441C685.441 379.645 685.363 379.845 685.313 380.049C685.085 380.783 684.882 381.489 684.679 382.195C684.654 382.349 684.605 382.5 684.553 382.651C684.325 383.385 684.149 384.117 683.945 384.826C683.921 384.925 683.896 385.026 683.868 385.128C683.668 385.887 683.464 386.642 683.285 387.352C683.26 387.376 683.261 387.426 683.261 387.479C683.085 388.237 682.906 388.993 682.73 389.702H682.779C716.962 320.515 757.916 296.484 768.255 291.278C769.75 362.991 802.744 396.523 802.744 396.523C789.745 350.913 797.727 296.711 821.548 252.944C830.366 236.747 841.795 221.56 855.148 207.99C860.038 203.012 865.185 198.212 870.58 193.714C869.544 185.628 867.389 177.642 864.146 169.985C869.846 174.863 874.561 181.004 877.931 187.826C881.174 185.35 884.494 182.974 887.864 180.675C888.117 168.167 885.66 155.684 880.693 143.934C889.564 151.514 896.05 162.254 898.785 173.751C898.862 173.701 898.912 173.676 898.989 173.625C898.228 164.048 895.949 154.597 892.123 145.576C899.193 151.615 904.742 159.676 908.112 168.521C907.733 157.629 905.324 146.814 900.965 136.555C909.126 143.504 915.259 153.106 918.349 163.542C924.355 160.813 930.515 158.438 936.746 156.341C950.583 151.691 964.877 148.658 979.347 147.647C990.369 146.864 1000.94 146.334 1011.05 146.006L999.668 131.88C1011.91 130.995 1023.79 131.476 1034.54 132.588C1061.93 135.418 1082 142.519 1082 142.519L1070.67 146.258C1088.31 147.041 1103.52 148.381 1116.16 149.872C1137.6 152.399 1151.72 155.355 1157.77 156.771C1157.65 156.695 1157.52 156.643 1157.39 156.567C1144.7 149.669 1130.73 143.857 1116.16 138.98C1089.68 130.136 1061.2 124.502 1034.54 121.368C1029.75 120.787 1024.98 120.281 1020.35 119.877C1019.76 119.826 1019.18 119.802 1018.6 119.751C1015.76 119.524 1012.92 119.296 1010.16 119.119C1008.95 119.018 1007.75 118.993 1006.54 118.917C1004.43 118.791 1002.33 118.664 1000.28 118.588C997.035 118.461 993.865 118.361 990.775 118.311C987.581 118.26 984.439 118.26 981.322 118.26H979.775ZM1034.51 140.623C1030.03 140.37 1025.37 140.345 1020.91 140.825L1034.51 149.139L1041.56 153.46H1041.58L1061.5 144.944C1061.43 144.924 1048.74 141.455 1034.51 140.623ZM936.696 81.3418V95.0625H936.721C920.552 98.4741 898.634 105.423 872.56 119.599C882.417 116.794 929.424 104.564 990.977 105.676C1005.65 105.954 1020.22 106.939 1034.51 108.531V107.344C1034.51 92.9911 1022.8 81.3419 1008.44 81.3418H936.696Z" fill="#757575"/>
</svg>
