<?xml version="1.0" encoding="utf-8"?>
<!-- Generator: Adobe Illustrator 24.2.1, SVG Export Plug-In . SVG Version: 6.00 Build 0)  -->
<svg version="1.1" id="Слой_1" xmlns="http://www.w3.org/2000/svg" xmlns:xlink="http://www.w3.org/1999/xlink" x="0px" y="0px"
	 viewBox="0 0 21 22" style="enable-background:new 0 0 21 22;" xml:space="preserve">
<style type="text/css">
	.st0{fill:#E4C892;}
</style>
<g>
	<path class="st0" d="M15.249,22c-1.415,0-2.776-0.516-3.832-1.452c-0.042-0.038-0.097-0.058-0.154-0.058
		c-0.057,0-0.112,0.021-0.154,0.058C10.052,21.484,8.689,22,7.273,22c-3.171,0-5.751-2.554-5.751-5.692
		c0-2.913,2.205-5.346,5.128-5.659c0.113-0.012,0.2-0.103,0.206-0.215C6.946,8.824,7.374,7.291,8.13,5.878
		c0.046-0.086,0.032-0.191-0.035-0.263C8.052,5.568,7.99,5.541,7.926,5.541c-0.032,0-0.063,0.006-0.092,0.019
		C6.967,5.932,6.108,6.121,5.279,6.121c-2.714,0-4.862-2.007-4.952-2.093L0,3.719l0.327-0.31c0.09-0.085,2.238-2.093,4.952-2.093
		c2.145,0,3.954,1.271,4.631,1.817c0.041,0.033,0.093,0.051,0.146,0.051c0.061,0,0.118-0.023,0.162-0.065
		C12.297,1.108,15.027,0,17.908,0h1.046l-0.74,0.732c-1.633,1.616-2.532,3.765-2.532,6.051v3.64c0,0.117,0.089,0.215,0.206,0.228
		C18.802,10.971,21,13.403,21,16.308C21,19.446,18.42,22,15.249,22z M15.249,11.473c-2.693,0-4.884,2.169-4.884,4.835
		s2.191,4.835,4.884,4.835s4.884-2.169,4.884-4.835S17.943,11.473,15.249,11.473z M7.273,11.473c-2.693,0-4.884,2.169-4.884,4.835
		s2.191,4.835,4.884,4.835c1.203,0,2.36-0.438,3.258-1.233c0.088-0.078,0.103-0.209,0.034-0.304
		c-0.698-0.968-1.066-2.108-1.066-3.298c0-1.19,0.369-2.33,1.066-3.298c0.069-0.095,0.054-0.226-0.034-0.304
		C9.633,11.911,8.476,11.473,7.273,11.473z M16.344,0.977c-4.701,0.726-8.325,4.693-8.618,9.434
		c-0.007,0.122,0.082,0.228,0.205,0.241c1.187,0.136,2.286,0.625,3.178,1.414c0.043,0.038,0.097,0.058,0.154,0.058
		c0.057,0,0.112-0.021,0.155-0.059c0.898-0.796,2.002-1.286,3.193-1.417c0.117-0.013,0.206-0.111,0.206-0.228v-3.64
		c0-1.964,0.606-3.847,1.752-5.446c0.054-0.075,0.057-0.175,0.008-0.253c-0.043-0.068-0.116-0.109-0.197-0.109
		C16.374,0.975,16.35,0.976,16.344,0.977z M5.279,2.174c-1.606,0-3.029,0.851-3.734,1.359C1.486,3.575,1.45,3.644,1.45,3.718
		c0,0.073,0.036,0.142,0.096,0.185c0.709,0.508,2.137,1.361,3.734,1.361c1.605,0,3.028-0.851,3.734-1.358
		c0.06-0.043,0.095-0.113,0.095-0.186c0-0.073-0.036-0.142-0.096-0.185C8.304,3.026,6.876,2.174,5.279,2.174z"/>
	<path class="st0" d="M12.166,16.078c0.113-1.502,1.334-2.711,2.852-2.823v0.861c-1.047,0.107-1.874,0.925-1.982,1.962H12.166z"/>
	<path class="st0" d="M4.19,16.078c0.113-1.502,1.334-2.711,2.852-2.823v0.861c-1.047,0.107-1.874,0.925-1.982,1.962H4.19z"/>
</g>
</svg>
