<svg width="3063" height="474" viewBox="0 0 3063 474" fill="none" xmlns="http://www.w3.org/2000/svg">
<path d="M762.15 196.45H832.45V315.05H877.25V196.45H946.75V156.95H762.15V196.45Z" fill="#757575"/>
<path d="M1335.05 196.45H1405.35V315.05H1450.05V196.45H1519.65V156.95H1335.05V196.45Z" fill="#757575"/>
<path d="M2374.15 196.45H2444.45V315.05H2489.15V196.45H2558.75V156.95H2374.15V196.45Z" fill="#757575"/>
<path d="M616.95 156.95C605.25 156.95 595.25 158.45 586.95 161.45C578.75 164.45 572.05 168.65 566.95 174.05C561.85 179.45 558.15 186.05 555.85 193.85C553.55 201.55 552.35 210.25 552.35 219.85V252.45C552.35 262.05 553.45 270.65 555.85 278.45C558.15 286.25 561.85 292.75 566.95 298.25C572.05 303.65 578.65 307.95 586.95 310.85C595.25 313.85 605.25 315.35 616.95 315.35H740.95V274.25H620.95C612.15 274.25 605.95 272.35 602.45 268.45C598.95 264.65 597.25 257.95 597.25 248.55V222.05C597.25 212.35 599.05 205.65 602.55 202.05C606.05 198.45 612.25 196.55 620.95 196.55H740.95V157.05H616.95V156.95Z" fill="#757575"/>
<path d="M2233.35 156.95C2221.65 156.95 2211.65 158.45 2203.35 161.45C2195.15 164.45 2188.45 168.65 2183.35 174.05C2178.25 179.45 2174.55 186.05 2172.25 193.85C2169.95 201.55 2168.75 210.25 2168.75 219.85V252.45C2168.75 262.05 2169.85 270.65 2172.25 278.45C2174.55 286.25 2178.25 292.75 2183.35 298.25C2188.45 303.65 2195.05 307.95 2203.35 310.85C2211.65 313.85 2221.65 315.35 2233.35 315.35H2357.35V274.25H2237.35C2228.55 274.25 2222.35 272.35 2218.85 268.45C2215.35 264.65 2213.65 257.95 2213.65 248.55V222.05C2213.65 212.35 2215.45 205.65 2218.95 202.05C2222.45 198.45 2228.65 196.55 2237.35 196.55H2357.35V157.05H2233.35V156.95Z" fill="#757575"/>
<path d="M358.45 363.75L257.95 464.25C246.15 476.05 226.85 476.05 215.05 464.25L8.85 257.95C-2.95 246.15 -2.95 226.85 8.85 215.05L65.75 158.25H116.65C174.05 158.25 200.35 144.55 209.55 109.35H124.25H114.45L215.05 8.85C226.85 -2.95 246.15 -2.95 257.95 8.85L358.45 109.35H305.95C230.95 109.35 209.05 132.45 209.05 196.55V276.35C209.05 340.45 231.05 363.65 305.95 363.65H358.45V363.75Z" fill="#757575"/>
<path d="M464.15 215.15L407.25 158.35H308.55C273.85 158.35 265.25 168.45 265.25 199.75V274.35C265.25 306.05 273.85 315.35 308.85 315.35H406.85L464.05 258.15C475.95 246.15 475.95 226.95 464.15 215.15ZM360.35 267.55H347.25V224.85H360.35V267.55ZM360.35 213.45H347.25V200.65H360.35V213.45Z" fill="#757575"/>
<path d="M1031.05 315.05V157.45H1075.65V315.15H1031.05V315.05Z" fill="#757575"/>
<path d="M1587.45 273.75H1723.25V314.65H1542.45L1542.85 157.05L1722.55 156.95L1722.75 195.75L1587.55 196.45V219.15H1660.95V251.25L1587.45 251.15V273.75Z" fill="#757575"/>
<path d="M2926.55 273.75H3062.25V314.65H2881.45L2881.85 157.05L3061.55 156.95L3061.75 195.75L2926.55 196.45V219.15H2999.95V251.25L2926.45 251.15L2926.55 273.75Z" fill="#757575"/>
<path d="M1793.65 258.05V315.15H1749.05L1749.35 157.45H1878.35C1888.15 157.45 1896.45 158.65 1903.25 160.95C1910.05 163.25 1915.55 166.65 1919.75 171.05C1923.95 175.45 1926.95 180.75 1928.85 186.95C1930.75 193.15 1931.65 200.15 1931.65 207.95V219.15C1931.65 226.85 1930.75 233.65 1928.85 239.75C1926.95 245.85 1923.95 250.95 1919.85 255.25C1915.75 259.55 1910.45 262.75 1903.95 265.15C1897.45 267.45 1889.55 268.65 1880.15 268.65H1875.65C1873.45 268.65 1869.95 268.65 1869.95 268.65V269.95C1871.85 271.65 1934.65 313.45 1934.65 313.45V315.15H1876.55L1793.65 258.05ZM1793.55 196.85L1793.65 234.95H1870.35C1876.25 234.95 1880.45 233.75 1883.05 231.45C1885.55 229.15 1886.85 224.75 1886.85 218.25V212.85C1886.85 206.75 1885.55 202.65 1883.05 200.25C1880.55 197.95 1876.25 196.75 1870.35 196.75H1793.55V196.85Z" fill="#757575"/>
<path d="M2575.55 315.05V157.45H2620.15V315.15H2575.55V315.05Z" fill="#757575"/>
<path d="M2814.55 157.45H2866.35V159.15L2784.75 314.25L2717.95 314.45L2636.95 159.25V157.55H2689.55L2747.55 276.05H2755.95L2814.55 157.45Z" fill="#757575"/>
<path d="M2165.35 314.45H2015.05L2038.75 273.75H2097.25L2058.25 206.95H2052.55L1989.85 314.45H1945.45L2036.65 156.55H2074.05L2165.35 314.45Z" fill="#757575"/>
<path d="M1268.45 274.05H1263.45L1178.85 156.65H1114.65V314.35H1158.75V197.65H1163.55L1246.85 314.35H1312.65V156.65H1268.45V274.05Z" fill="#757575"/>
</svg>
