<svg width="23" height="23" viewBox="0 0 23 23" fill="none" xmlns="http://www.w3.org/2000/svg">
<g clip-path="url(#clip0_2170_185)">
<path d="M21.9993 10.1277C21.5048 8.57753 20.8095 7.10422 19.9324 5.74822C19.5861 5.21778 19.1197 4.78344 18.574 4.48341C18.0282 4.18339 17.4198 4.02678 16.8021 4.0273C16.0701 4.02033 15.3525 4.23893 14.7404 4.65537C14.1282 5.07181 13.6491 5.66735 13.3638 6.36648H9.68705C9.41503 5.72093 8.98134 5.16264 8.431 4.74958C7.88065 4.33653 7.23369 4.08374 6.55732 4.01749C5.88096 3.95124 5.19986 4.07394 4.58467 4.37284C3.96947 4.67174 3.4426 5.13596 3.05884 5.71728C2.18105 7.07138 1.48877 8.54527 1.00181 10.0968C0.278557 12.3686 -0.0577072 14.7537 0.00808231 17.1451C0.0240003 17.7362 0.211688 18.3087 0.546493 18.7874C0.881299 19.2661 1.34764 19.6289 1.88455 19.8282C2.42145 20.0275 3.00391 20.054 3.55564 19.9044C4.10736 19.7548 4.60263 19.436 4.97672 18.9897L7.55051 15.8159C7.67171 15.6652 7.82378 15.5444 7.9957 15.4624C8.16761 15.3804 8.35503 15.3392 8.54424 15.3418H14.447C14.6362 15.3392 14.8236 15.3804 14.9955 15.4624C15.1674 15.5444 15.3195 15.6652 15.4407 15.8159L18.0244 18.9897C18.3985 19.436 18.8938 19.7548 19.4455 19.9044C19.9973 20.054 20.5797 20.0275 21.1166 19.8282C21.6535 19.6289 22.1199 19.2661 22.4547 18.7874C22.7895 18.3087 22.9771 17.7362 22.993 17.1451C23.0537 14.7641 22.7176 12.3901 21.9993 10.1277ZM20.1907 19.1854C19.9012 19.1857 19.6151 19.1203 19.3525 18.994C19.0899 18.8676 18.8571 18.6833 18.6703 18.4538L16.0867 15.28C15.8851 15.0325 15.6341 14.8333 15.3509 14.6963C15.0678 14.5592 14.7594 14.4878 14.447 14.4866H8.54424C8.23182 14.4878 7.92338 14.5592 7.64027 14.6963C7.35716 14.8333 7.10612 15.0325 6.90456 15.28L4.32089 18.4538C4.13415 18.6833 3.90129 18.8676 3.63867 18.994C3.37605 19.1203 3.08998 19.1857 2.80046 19.1854C2.27335 19.1854 1.76786 18.9684 1.39514 18.5819C1.02242 18.1954 0.813 17.6711 0.813 17.1245C0.703796 13.2527 1.74449 9.43972 3.79419 6.20157C4.1006 5.75454 4.5162 5.40014 4.99832 5.17463C5.48044 4.94911 6.01171 4.86058 6.53767 4.91827C7.06364 4.97595 7.56537 5.1777 7.99133 5.50281C8.41728 5.82792 8.75214 6.26476 8.96158 6.76838C9.01689 6.89873 9.10719 7.00981 9.22172 7.08838C9.33626 7.16696 9.47021 7.20962 9.60753 7.21141H13.4632C13.6011 7.21226 13.7361 7.17068 13.8511 7.09178C13.9661 7.01289 14.0559 6.90031 14.1091 6.76838C14.3185 6.26476 14.6535 5.82792 15.0794 5.50281C15.5054 5.1777 16.007 4.97595 16.533 4.91827C17.059 4.86058 17.5902 4.94911 18.0724 5.17463C18.5545 5.40014 18.9701 5.75454 19.2765 6.20157C21.3168 9.44414 22.3567 13.2541 22.2577 17.1245C22.2579 17.4022 22.204 17.6771 22.0992 17.9327C21.9944 18.1883 21.8408 18.4193 21.6478 18.6118C21.4547 18.8043 21.2261 18.9543 20.9757 19.0528C20.7253 19.1514 20.4583 19.1965 20.1907 19.1854Z" fill="#DAC092"/>
<path d="M16.07 9.22827C15.9814 9.22771 15.8939 9.20876 15.813 9.17261C15.7321 9.13646 15.6596 9.08394 15.6001 9.01831C15.5442 8.96178 15.5004 8.89457 15.4711 8.82068C15.4419 8.74679 15.4279 8.66781 15.43 8.58838C15.45 8.42605 15.5286 8.27658 15.6511 8.16821C15.7736 8.05985 15.9315 8 16.0951 8C16.2586 8 16.4165 8.05985 16.539 8.16821C16.6615 8.27658 16.7401 8.42605 16.76 8.58838C16.7575 8.67594 16.7375 8.76203 16.7013 8.8418C16.6651 8.92156 16.6134 8.99329 16.5492 9.05286C16.4849 9.11243 16.4095 9.15873 16.3272 9.18884C16.245 9.21896 16.1575 9.23229 16.07 9.22827Z" fill="#DAC092"/>
<path d="M14.64 10.6083C14.556 10.6083 14.4727 10.5917 14.3951 10.5596C14.3174 10.5274 14.2469 10.4803 14.1874 10.4209C14.128 10.3615 14.0809 10.2909 14.0487 10.2133C14.0165 10.1356 14 10.0523 14 9.96826C14.0026 9.79933 14.0708 9.63815 14.1903 9.51868C14.3098 9.39921 14.4711 9.33095 14.64 9.32837C14.73 9.32933 14.8189 9.34832 14.9014 9.3844C14.9838 9.42048 15.0582 9.47288 15.12 9.53833C15.1755 9.59464 15.2185 9.66209 15.2461 9.73621C15.2737 9.81032 15.2852 9.88935 15.28 9.96826C15.28 10.0523 15.2635 10.1356 15.2313 10.2133C15.1992 10.2909 15.152 10.3615 15.0926 10.4209C15.0332 10.4803 14.9626 10.5274 14.8849 10.5596C14.8073 10.5917 14.7241 10.6083 14.64 10.6083Z" fill="#DAC092"/>
<path d="M7.14052 12.2611C7.08285 12.2639 7.02524 12.2547 6.97127 12.2342C6.9173 12.2137 6.86815 12.1823 6.82686 12.142C6.78557 12.1016 6.75301 12.0532 6.73128 11.9998C6.70955 11.9463 6.69908 11.8889 6.70052 11.8312V10.5612H5.43056C5.37284 10.5626 5.3154 10.5521 5.26192 10.5304C5.20843 10.5087 5.16 10.4761 5.11965 10.4348C5.07929 10.3935 5.04792 10.3444 5.02742 10.2904C5.00692 10.2364 4.99774 10.1788 5.00051 10.1211C4.99773 10.066 5.00641 10.0111 5.0259 9.95959C5.04539 9.90804 5.07529 9.86109 5.11379 9.82165C5.15228 9.78222 5.19853 9.75107 5.24959 9.73034C5.30065 9.70962 5.35545 9.69972 5.41054 9.70117H6.70052V8.43115C6.6963 8.3753 6.70383 8.31922 6.72267 8.26648C6.74151 8.21373 6.77124 8.16553 6.80989 8.125C6.84854 8.08446 6.89525 8.05245 6.94704 8.03112C6.99883 8.00979 7.05457 7.99953 7.11055 8.00109C7.16686 7.99696 7.22337 8.00456 7.27663 8.02331C7.32989 8.04206 7.37875 8.07161 7.42006 8.1101C7.46137 8.14859 7.49429 8.19514 7.51674 8.24694C7.5392 8.29875 7.55071 8.35467 7.55055 8.41113V9.68115H8.8105C8.87178 9.67172 8.93442 9.6756 8.99404 9.69262C9.05365 9.70965 9.10885 9.73941 9.1559 9.77978C9.20295 9.82015 9.24073 9.87018 9.26662 9.92651C9.29251 9.98284 9.30593 10.0442 9.30593 10.1062C9.30593 10.1682 9.29251 10.2294 9.26662 10.2858C9.24073 10.3421 9.20295 10.3921 9.1559 10.4325C9.10885 10.4729 9.05365 10.5026 8.99404 10.5196C8.93442 10.5367 8.87178 10.5406 8.8105 10.5311H7.52052V11.8011C7.52656 11.9115 7.49084 12.0201 7.42043 12.1053C7.35002 12.1906 7.25007 12.2462 7.14052 12.2611Z" fill="#DAC092"/>
<path d="M17.51 10.6083C17.426 10.6083 17.3427 10.5917 17.2651 10.5596C17.1874 10.5274 17.1169 10.4803 17.0575 10.4209C16.9981 10.3615 16.9509 10.2909 16.9188 10.2133C16.8866 10.1356 16.87 10.0523 16.87 9.96826C16.8726 9.79933 16.9408 9.63815 17.0603 9.51868C17.1798 9.39921 17.3411 9.33095 17.51 9.32837C17.5999 9.32989 17.6887 9.34921 17.7711 9.38525C17.8534 9.4213 17.9278 9.47332 17.99 9.53833C18.0455 9.59464 18.0885 9.66209 18.1161 9.73621C18.1437 9.81032 18.1552 9.88935 18.15 9.96826C18.1474 10.1372 18.0792 10.2985 17.9597 10.418C17.8402 10.5374 17.6789 10.6057 17.51 10.6083Z" fill="#DAC092"/>
<path d="M16.07 12.0683C15.9003 12.0683 15.7375 12.0008 15.6175 11.8808C15.4975 11.7608 15.43 11.598 15.43 11.4283C15.43 11.2586 15.4975 11.0958 15.6175 10.9758C15.7375 10.8558 15.9003 10.7883 16.07 10.7883C16.247 10.7855 16.4181 10.8519 16.5469 10.9732C16.6758 11.0946 16.7522 11.2615 16.76 11.4383C16.7562 11.525 16.7353 11.6101 16.6985 11.6887C16.6617 11.7673 16.6097 11.8379 16.5457 11.8964C16.4816 11.955 16.4066 12.0003 16.325 12.0297C16.2433 12.0592 16.1567 12.0724 16.07 12.0683Z" fill="#DAC092"/>
</g>
<defs>
<clipPath id="clip0_2170_185">
<rect width="23" height="23" fill="white"/>
</clipPath>
</defs>
</svg>
