<?xml version="1.0" encoding="utf-8"?>
<!-- Generator: Adobe Illustrator 24.2.1, SVG Export Plug-In . SVG Version: 6.00 Build 0)  -->
<svg version="1.1" id="Layer_1" xmlns="http://www.w3.org/2000/svg" xmlns:xlink="http://www.w3.org/1999/xlink" x="0px" y="0px"
	 viewBox="0 0 128 32" style="enable-background:new 0 0 128 32;" xml:space="preserve">
<style type="text/css">
	.st0{fill:url(#SVGID_1_);}
</style>
<desc>Created with Sketch.</desc>
<linearGradient id="SVGID_1_" gradientUnits="userSpaceOnUse" x1="64" y1="842" x2="64" y2="809.9287" gradientTransform="matrix(1 0 0 1 0 -810)">
	<stop  offset="0" style="stop-color:#F6DFAF"/>
	<stop  offset="6.550192e-02" style="stop-color:#F2DDB0"/>
	<stop  offset="0.1225" style="stop-color:#E8D6B3"/>
	<stop  offset="0.2583" style="stop-color:#E4D3B3"/>
	<stop  offset="0.4027" style="stop-color:#D7CBB4"/>
	<stop  offset="0.5375" style="stop-color:#C4BFB5"/>
	<stop  offset="0.6854" style="stop-color:#CFC9C0"/>
	<stop  offset="0.8347" style="stop-color:#DED8CF"/>
	<stop  offset="1" style="stop-color:#FCFDFB"/>
</linearGradient>
<path class="st0" d="M31.7,13.5c-2.6,0-4.5,2.3-4.5,4.9c0,2.5,1.9,4.9,4.5,4.9c1.5,0,3.1-0.7,3.9-2c0,0,0-0.1,0-0.2
	c0-0.2-0.2-0.4-0.4-0.4c-0.1,0-0.3,0.1-0.3,0.2c-0.8,1.1-1.8,1.6-3.2,1.6c-2,0-3.5-1.8-3.7-3.7h7.9c0.3,0,0.4-0.2,0.4-0.4
	C36.2,15.8,34.4,13.5,31.7,13.5z M28,18.1c0.2-1.9,1.6-3.7,3.7-3.7s3.5,1.8,3.7,3.7H28z M46.2,14.1c0,0.2-0.2,0.4-0.4,0.4h-2.1v8.3
	c0,0.2-0.2,0.4-0.4,0.4s-0.4-0.2-0.4-0.4v-8.3h-2c-0.2,0-0.4-0.2-0.4-0.4s0.2-0.4,0.4-0.4h2v-3c0-0.2,0.2-0.4,0.3-0.4
	c0.3,0,0.4,0.2,0.4,0.4v3h2.1C46,13.7,46.2,13.9,46.2,14.1z M58.8,17.8v5c0,0.2-0.2,0.4-0.4,0.4c-0.2,0-0.4-0.2-0.4-0.4v-5
	c0-1.7-1-3.3-2.8-3.3c-2.4,0-3.4,2.1-3.3,4.2V19v3.7c0,0.2-0.2,0.4-0.3,0.4c-0.3,0-0.4-0.2-0.4-0.4V6.3c0-0.2,0.2-0.4,0.4-0.4
	s0.4,0.2,0.4,0.4v9.3c0.7-1.2,1.9-2,3.3-2C57.3,13.5,58.8,15.5,58.8,17.8z M68.2,13.5c-2.6,0-4.5,2.3-4.5,4.9c0,2.5,1.9,4.9,4.5,4.9
	c1.5,0,3.1-0.7,3.9-2c0,0,0-0.1,0-0.2c0-0.2-0.2-0.4-0.4-0.4c-0.1,0-0.3,0.1-0.3,0.2c-0.8,1.1-1.8,1.6-3.2,1.6c-2,0-3.5-1.8-3.7-3.7
	h7.9c0.3,0,0.4-0.2,0.4-0.4C72.8,15.8,70.9,13.5,68.2,13.5z M64.5,18.1c0.2-1.9,1.6-3.7,3.7-3.7s3.5,1.8,3.7,3.7H64.5z M82.5,14
	c0,0.3-0.1,0.4-0.4,0.4c-2.3,0.3-3.3,2.2-3.3,4.4v3.7c0,0.2-0.2,0.4-0.3,0.4c-0.3,0-0.4-0.2-0.4-0.4v-8.5c0-0.2,0.2-0.4,0.3-0.4
	c0.3,0,0.4,0.2,0.4,0.4v1.7c0.6-1.1,1.9-2.1,3.3-2.1C82.3,13.7,82.5,13.8,82.5,14z M90.9,13.5c-2.6,0-4.5,2.3-4.5,4.9
	c0,2.5,1.9,4.9,4.5,4.9c1.5,0,3.1-0.7,3.9-2c0,0,0-0.1,0-0.2c0-0.2-0.2-0.4-0.4-0.4c-0.1,0-0.3,0.1-0.3,0.2
	c-0.8,1.1-1.8,1.6-3.2,1.6c-2,0-3.5-1.8-3.7-3.7H95c0.3,0,0.4-0.2,0.4-0.4C95.4,15.8,93.5,13.5,90.9,13.5z M87.1,18.1
	c0.2-1.9,1.6-3.7,3.7-3.7s3.5,1.8,3.7,3.7H87.1z M108.1,14.2V17v5.9c0,0.2-0.2,0.4-0.4,0.4c-0.2,0-0.4-0.2-0.4-0.4v-1.6
	c-0.6,1.3-1.8,2.2-3.3,2.2c-2.3,0-3.6-2-3.6-4.1v-5c0-0.2,0.2-0.4,0.4-0.4c0.2,0,0.4,0.2,0.4,0.4v5c0,1.7,1,3.3,2.8,3.3
	c2.6,0,3.3-2.5,3.3-5.2v-3.2c0-0.3,0.3-0.5,0.5-0.4C107.9,13.8,108.1,14,108.1,14.2z M128,17.7v5c0,0.2-0.2,0.4-0.4,0.4
	c-0.2,0-0.4-0.2-0.4-0.4v-5c0-1.7-1-3.3-2.8-3.3c-2.4,0-3.3,2.5-3.3,4.5v3.8c0,0.2-0.2,0.4-0.4,0.4c-0.2,0-0.4-0.2-0.4-0.4v-5
	c0-1.7-1-3.3-2.8-3.3c-2.4,0-3.3,1.9-3.3,4.4V19v3.8c0,0.2-0.2,0.4-0.3,0.4c-0.3,0-0.4-0.2-0.4-0.4v-8.7c0-0.2,0.2-0.4,0.3-0.4
	c0.3,0,0.4,0.2,0.4,0.4v1.4c0.7-1.2,1.9-2,3.3-2c1.6,0,2.8,1,3.3,2.5c0.6-1.4,1.9-2.5,3.5-2.5C126.7,13.5,128,15.5,128,17.7z
	 M9.9,22.1L0,16.4L9.9,0l9.8,16.3L9.9,22.1z M0,18.2L9.9,32l9.8-13.8l-9.9,5.8L0,18.2z"/>
</svg>
