<?xml version="1.0" encoding="utf-8"?>
<!-- Generator: Adobe Illustrator 24.2.1, SVG Export Plug-In . SVG Version: 6.00 Build 0)  -->
<svg class="st0" version="1.1" id="Layer_1" xmlns="http://www.w3.org/2000/svg" xmlns:xlink="http://www.w3.org/1999/xlink" x="0px" y="0px"
	 viewBox="0 0 261.1 42.3" style="enable-background:new 0 0 261.1 42.3;" xml:space="preserve">
<style type="text/css">
	.st0{fill:#626262;}
</style>
<g>
	<polygon class="st0" points="0,42.3 26.2,42.3 30,33.3 0,33.3 	"/>
	<polygon class="st0" points="0,31.5 32.3,27 36.2,17.4 0,22.5 	"/>
	<polygon class="st0" points="0,20.7 39.2,10.7 43.6,0 0,11.4 	"/>
	<polygon points="62.7,25.4 71.3,25.4 74.2,18.7 62.7,18.7 62.7,14 76.1,14 79.2,6.9 79.2,6.8 54.3,6.8 54.3,37.6 79.2,37.6 
		79.2,30.3 62.7,30.3 	"/>
	<path d="M170.1,9.7c-2.3-1.9-5.4-2.9-9.3-2.9h-13.2v30.7h8.5v-8.8h4.2c4,0,7.1-1,9.6-2.9c2.4-1.9,3.6-4.7,3.6-8.2
		C173.6,14.3,172.4,11.6,170.1,9.7 M163.7,21c-0.9,0.7-2.1,1.1-3.6,1.1h-4V14h4c1.6,0,2.8,0.3,3.6,1c0.9,0.7,1.3,1.7,1.3,3
		C165,19.3,164.6,20.3,163.7,21"/>
	<polygon points="185,6.8 176.5,6.8 176.5,37.6 195.4,37.6 198.5,30.1 185,30.1 	"/>
	<path d="M213.1,6.6l-11,26l-2.1,4.9h2.9h6.1l2.2-5.5H223l2.2,5.5h9.1l-13.1-31H213.1z M213.6,25.4l3.5-8.7l3.4,8.7H213.6z"/>
	<polygon points="251.6,6.8 245.2,18 238.9,6.8 229.2,6.8 240.9,26 240.9,37.6 249.4,37.6 249.4,25.9 261.1,6.8 	"/>
	<polygon points="104.4,6.8 97.4,26.3 90.4,6.8 80.9,6.8 93.4,37.8 101.3,37.8 113.8,6.8 	"/>
	<path d="M128.2,6.3c-8.8,0-16,7.2-16,16c0,8.8,7.2,16,16,16s16-7.2,16-16C144.1,13.4,137,6.3,128.2,6.3 M128.2,30.6
		c-4.6,0-8.4-3.8-8.4-8.4s3.8-8.4,8.4-8.4s8.4,3.8,8.4,8.4S132.8,30.6,128.2,30.6"/>
</g>
</svg>
