<svg width="80" height="80" viewBox="0 0 80 80" fill="none" xmlns="http://www.w3.org/2000/svg">
<g clip-path="url(#clip0_6835_789)">
<g clip-path="url(#clip1_6835_789)">
<path d="M73.706 0H6.29399C2.81994 0 0 2.81994 0 6.29399V73.706C0 77.1801 2.81994 80 6.29399 80H73.706C77.1849 80 80 77.1801 80 73.706V6.29399C80 2.81994 77.1849 0 73.706 0ZM32.8266 42.6867H15.3546L14.1821 53.2057H8.07704L9.14784 43.5879C9.44825 40.8697 11.9145 38.6554 14.6278 38.6554H33.2724L32.8266 42.6867ZM40.0993 32.1628H10.4221L7.74756 28.1364H40.5499L40.0993 32.1628ZM74.2487 32.1628H50.6765L50.381 34.8277L50.2501 35.9954C50.0902 37.4587 51.1514 38.6603 52.6146 38.6603H67.4217C70.7795 38.6603 73.2215 41.4075 72.8484 44.7653L72.5868 47.1007C72.2088 50.4585 69.1563 53.2057 65.7986 53.2057H42.3039L42.7545 49.1793H63.5843C65.0524 49.1793 66.38 47.9826 66.5447 46.5144L66.6756 45.3467C66.8354 43.8835 65.7743 42.6818 64.3062 42.6818H49.4991C46.1414 42.6818 43.6994 39.9346 44.0773 36.5768L44.1403 35.9954L44.3389 34.2414L44.3438 34.2075L44.5715 32.1628L41.8969 28.1364H74.6993L74.2487 32.1628Z" fill="#757575"/>
</g>
</g>
<defs>
<clipPath id="clip0_6835_789">
<rect width="80" height="80" fill="white"/>
</clipPath>
<clipPath id="clip1_6835_789">
<rect width="80" height="80" fill="white"/>
</clipPath>
</defs>
</svg>
