<svg width="1920" height="278" viewBox="0 0 1920 278" fill="none" xmlns="http://www.w3.org/2000/svg">
  <path opacity="0.984" fill-rule="evenodd" clip-rule="evenodd" d="M371 0C382.667 0 394.333 0 406 0C456.234 7.39664 487.734 35.73 500.5 85C501.523 91.293 502.189 97.6263 502.5 104C503 161.999 503.167 219.999 503 278C484.667 278 466.333 278 448 278C448 253 448 228 448 203C408.333 203 368.667 203 329 203C329 228 329 253 329 278C311 278 293 278 275 278C274.833 217.999 275 157.999 275.5 98C280.932 53.9455 304.099 23.4455 345 6.5C353.64 3.67319 362.307 1.50652 371 0ZM383 53C404.231 51.6818 422.064 58.6818 436.5 74C442.301 81.7279 445.967 90.3945 447.5 100C448 116.33 448.167 132.663 448 149C408.333 149 368.667 149 329 149C328.833 132.997 329 116.997 329.5 101C332.57 78.6863 344.737 63.8529 366 56.5C371.765 55.1145 377.431 53.9478 383 53Z" fill="#757575"></path>
  <path opacity="0.988" fill-rule="evenodd" clip-rule="evenodd" d="M838 0C849 0 860 0 871 0C925.209 8.04077 957.375 39.0408 967.5 93C968 154.666 968.167 216.332 968 278C950 278 932 278 914 278C914 253 914 228 914 203C874.333 203 834.667 203 795 203C795 228 795 253 795 278C777 278 759 278 741 278C740.833 216.999 741 155.999 741.5 95C747.417 53.4244 769.583 24.2578 808 7.5C817.899 4.02514 827.899 1.52514 838 0ZM849 53C871.199 51.5264 889.366 59.1931 903.5 76C908.797 83.8875 912.13 92.5541 913.5 102C914 117.663 914.167 133.33 914 149C874.333 149 834.667 149 795 149C794.833 132.33 795 115.663 795.5 99C799.048 77.4506 811.215 63.284 832 56.5C837.765 55.1145 843.431 53.9478 849 53Z" fill="#757575"></path>
  <path opacity="0.986" fill-rule="evenodd" clip-rule="evenodd" d="M236 278C203 278 170 278 137 278C111.518 275.709 87.1851 268.876 64 257.5C26.4698 236.126 5.13645 203.959 0 161C0 148 0 135 0 122C7.68978 65.4597 39.0231 28.9597 94 12.5002C105.145 9.27117 116.478 6.93783 128 5.50016C163.976 4.06839 199.976 3.56839 236 4.00016C236 22.0002 236 40.0002 236 58.0002C205.998 57.8336 175.998 58.0002 146 58.5002C122.198 60.2083 100.864 68.2083 82 82.5002C65.1191 98.4578 56.7858 118.124 57 141.5C57.1096 183.594 77.4429 209.927 118 220.5C139.161 224.233 160.495 225.733 182 225C182 196.667 182 168.333 182 140C200 140 218 140 236 140C236 186 236 232 236 278Z" fill="#757575"></path>
  <path opacity="0.99" fill-rule="evenodd" clip-rule="evenodd" d="M714 278C656.333 278 598.667 278 541 278C541 186.667 541 95.3333 541 4C559 4 577 4 595 4C595 77.6667 595 151.333 595 225C634.667 225 674.333 225 714 225C714 242.667 714 260.333 714 278Z" fill="#757575"></path>
  <path opacity="0.982" fill-rule="evenodd" clip-rule="evenodd" d="M1240 278C1218.33 278 1196.67 278 1175 278C1156.09 247.084 1136.76 216.417 1117 186C1097.16 216.349 1077.83 247.016 1059 278C1037.33 278 1015.67 278 994 278C1022.58 232.519 1050.91 186.852 1079 141C1050.7 95.6907 1022.37 50.3574 994 5.00015C1015.67 3.66682 1037.33 3.66682 1059 5.00015C1078.1 35.5392 1097.43 65.8726 1117 96.0002C1136.58 65.8362 1155.92 35.5029 1175 5.00015C1196.66 3.83372 1218.33 3.66705 1240 4.50015C1211.46 50.0845 1182.79 95.5845 1154 141C1182.93 186.526 1211.59 232.193 1240 278Z" fill="#757575"></path>
  <path opacity="0.984" fill-rule="evenodd" clip-rule="evenodd" d="M1392 278C1349.33 278 1306.67 278 1264 278C1264 260.333 1264 242.667 1264 225C1301.67 225.167 1339.33 225 1377 224.5C1409.04 222.266 1419.21 206.099 1407.5 176C1399.48 168.767 1389.98 165.267 1379 165.5C1358.67 165.167 1338.33 164.833 1318 164.5C1287.14 161.294 1266.64 145.128 1256.5 116C1249 89.8568 1251 64.5235 1262.5 39.9999C1275.78 19.7611 1294.61 8.26115 1319 5.49991C1360.31 4.05225 1401.64 3.55225 1443 3.99991C1443 21.9999 1443 39.9999 1443 57.9999C1405 57.8332 1367 57.9999 1329 58.4999C1310.08 62.1179 1301.91 73.6179 1304.5 92.9999C1307.04 105.871 1314.87 112.704 1328 113.5C1350.69 113.615 1373.36 114.282 1396 115.5C1442.65 122.822 1465.31 150.155 1464 197.5C1465.24 218.741 1459.74 237.908 1447.5 255C1438.28 263.865 1427.45 270.031 1415 273.5C1407.24 275.234 1399.57 276.734 1392 278Z" fill="#757575"></path>
  <path opacity="0.981" fill-rule="evenodd" clip-rule="evenodd" d="M1614 278C1596 278 1578 278 1560 278C1560.17 248.331 1560 218.665 1559.5 189C1527.46 127.421 1495.29 65.9214 1463 4.50018C1482.57 3.67442 1502.07 3.84108 1521.5 5.00018C1542.83 48.3335 1564.17 91.6669 1585.5 135C1607.26 91.8214 1628.76 48.4881 1650 5.00018C1669.33 3.66685 1688.67 3.66685 1708 5.00018C1676.58 65.5103 1645.41 126.177 1614.5 187C1614 217.332 1613.83 247.665 1614 278Z" fill="#757575"></path>
  <path opacity="0.984" fill-rule="evenodd" clip-rule="evenodd" d="M1920 180C1920 191.667 1920 203.333 1920 215C1918.29 232.265 1911.29 247.098 1899 259.5C1883.34 270.552 1866.01 276.719 1847 278C1804.67 278 1762.33 278 1720 278C1720 260.333 1720 242.667 1720 225C1757 225.167 1794 225 1831 224.5C1863.36 223.484 1874.53 207.65 1864.5 177C1857.11 169.087 1847.94 165.254 1837 165.5C1816.33 165.167 1795.67 164.833 1775 164.5C1736.99 159.491 1715.16 137.991 1709.5 99.9998C1705.11 73.2748 1711.11 49.2748 1727.5 27.9998C1740.77 15.283 1756.6 7.783 1775 5.49984C1816.31 4.046 1857.64 3.546 1899 3.99984C1899 21.9998 1899 39.9998 1899 57.9998C1859.29 57.5233 1819.62 58.0233 1780 59.4998C1766.71 63.6477 1760.05 72.8144 1760 86.9998C1759.94 100.422 1766.27 108.922 1779 112.5C1803.66 113.534 1828.32 114.534 1853 115.5C1891.58 120.405 1913.91 141.905 1920 180Z" fill="#757575"></path>
</svg>