<svg width="1868" height="246" viewBox="0 0 1868 246" fill="none" xmlns="http://www.w3.org/2000/svg">
<path d="M218.1 109.4V137.3C218.1 192.2 188.6 245.3 114.5 245.3C40.4 245.3 0 194.2 0 122.6C0 51 40.4 0 114.4 0C168.7 0 202.8 28.5 211.7 71.9H160.3C155.1 54.3 139.8 44 114.2 44C71.7 44 50.6 77.5 50.6 122.4C50.6 167.3 71.8 201.4 114.3 201.4C150.9 201.4 167.3 179.9 168.3 149.7H112.5V109.3H218.1V109.4Z" fill="#757575"/>
<path d="M391.5 177H301.6L282.4 241H233.7L308.9 4.30005H385.4L461 241H411L391.5 177ZM314.2 133.9H378.5L353.7 51.7H339.3L314.2 133.9Z" fill="#757575"/>
<path d="M486.2 4.30005H562.1L600.9 99.8H609.5L648 4.30005H724.2V241H678.1V64.6H669.5L629.7 160.1H580.3L540.9 64.6H532.3V240.9H486.2V4.30005Z" fill="#757575"/>
<path d="M897.4 196.9L890.2 241H770.6V4.30005H931.6L923 48.4001H820.2V98.1001H915L907.5 141.2H820.2V197H897.4V196.9Z" fill="#757575"/>
<path d="M1093.4 122C1109.9 131.5 1120 149.1 1119.9 168.1C1119.9 217.5 1079.8 241 1034.4 241H931.6L973.1 4.30005H1066.9C1100.4 4.30005 1130.9 22.9001 1130.9 58.3001C1131.5 82.8001 1117.2 105.2 1094.8 115L1093.4 122ZM1030.6 221.3C1066.7 221.3 1097.9 206 1097.9 167.3C1097.9 138.1 1072 127.2 1046.5 127.2H973.3L956.7 221.3H1030.6ZM977.1 107.1H1050.3C1082.5 107.1 1109 95.2001 1109 60C1109 34.8 1086.8 24.2001 1064.6 24.2001H991.8L977.1 107.1Z" fill="#757575"/>
<path d="M1242.2 221L1231.8 240.9H1140L1181.5 4.30005H1355.7L1345.3 24.2001H1200L1185.1 107.8H1301.4L1291 127.7H1181.7L1165.1 221.2L1242.2 221Z" fill="#757575"/>
<path d="M1484.7 241H1461.8L1448.5 164.4H1341.8L1302 241H1278.2L1402.2 4.30005H1442.3L1484.7 241ZM1352.2 144.5H1445.2L1425.3 27.5H1412.7L1352.2 144.5Z" fill="#757575"/>
<path d="M1668.8 24.2001H1590.4L1552.3 240.9H1530.4L1568.5 24.2001H1490.1L1493.4 4.30005H1672.4L1668.8 24.2001Z" fill="#757575"/>
<path d="M1825 240.9H1696.5L1738.8 4.30005H1867.2L1825 240.9Z" fill="url(#paint0_linear_914_51)"/>
<path d="M1757.4 240.9H1629L1672.6 4.30005H1801.1L1757.4 240.9Z" fill="url(#paint1_linear_914_51)"/>
<defs>
<linearGradient id="paint0_linear_914_51" x1="1781.87" y1="242.864" x2="1781.87" y2="22.6963" gradientUnits="userSpaceOnUse">
<stop offset="0.2" stop-color="#646564" stop-opacity="0"/>
<stop offset="1" stop-color="#757575"/>
</linearGradient>
<linearGradient id="paint1_linear_914_51" x1="1715.02" y1="3.27585" x2="1715.02" y2="253.434" gradientUnits="userSpaceOnUse">
<stop offset="0.2" stop-color="#717971" stop-opacity="0"/>
<stop offset="1" stop-color="#757575"/>
</linearGradient>
</defs>
</svg>
