<svg width="1184" height="629" viewBox="0 0 1184 629" fill="none" xmlns="http://www.w3.org/2000/svg">
<path d="M704.483 156.305C703.18 155.692 711.017 159.572 697.95 153.038C679.644 143.885 656.026 135.071 656.571 105.125C656.637 101.503 653.533 102.948 649.493 107.303C649.218 107.569 648.929 107.819 648.626 108.052C613.558 138.882 597.745 161.202 592.925 194.168C585.246 246.686 598.349 253.274 602.857 251.139C603.699 250.717 604.431 250.106 604.998 249.355C605.565 248.603 605.95 247.731 606.124 246.806C607.715 239.445 610.937 214.054 655.538 205.577C699.587 277.629 631.077 321.148 589.193 321.148C538.055 321.148 470.364 253.764 548.507 171.989C561.833 158.043 580.632 144.563 599.946 115.47C623.607 79.8316 627.764 46.1557 603.98 14.2391C591.779 -2.13388 589.669 -1.59794 590.146 2.22182C592.074 17.6739 591.592 12.9376 591.78 17.4668C592.706 39.9083 576.943 50.8592 555.845 63.7462L473.631 111.114C472.849 111.562 463.524 116.656 462.742 117.104C455.119 121.459 434.923 137.793 434.923 162.294C434.923 176.965 434.974 285.343 434.974 285.343C434.915 294.244 437.198 303.005 441.594 310.746C445.99 318.487 452.344 324.935 460.019 329.444C470.948 335.912 547.918 380.701 562.379 388.791C563.23 389.267 564.233 389.979 565.101 390.424C585.246 400.769 604.591 397.968 620.636 388.791C636.408 379.769 704.184 342.57 727.895 325.633C743.14 314.744 749.129 299.499 748.585 286.432V214.018C748.585 188.973 732.251 169.372 704.483 156.305Z" fill="#757575"/>
<path d="M0 537.108C0 509.454 19.5962 491.872 43.2228 491.872C54.9443 491.872 64.6505 495.535 71.2446 502.128V493.886H93.4045V582.163C93.4045 604.141 77.4714 625.019 47.8017 625.019C20.1471 625.019 4.21163 607.255 2.19882 588.207H24.9072C27.2897 596.998 34.2486 604.324 47.8017 604.324C63.5535 604.324 71.6119 593.336 71.6119 580.331V571.907C65.0178 578.683 54.9443 582.163 43.2228 582.163C19.5962 582.163 0 564.764 0 537.108ZM22.1623 537.108C22.1623 552.677 32.968 562.2 47.4344 562.2C54.0091 562.007 60.2498 559.26 64.832 554.541C69.4143 549.822 71.9773 543.503 71.9773 536.926C71.9773 530.348 69.4143 524.03 64.832 519.311C60.2498 514.592 54.0091 511.845 47.4344 511.651C32.968 511.651 22.1623 521.358 22.1623 537.108Z" fill="#757575"/>
<path d="M156.228 590.404C131.869 590.404 110.99 572.09 110.99 541.137C110.99 510.186 131.869 491.688 156.228 491.688C161.535 491.572 166.812 492.517 171.75 494.467C176.687 496.417 181.186 499.333 184.982 503.043V493.885H207.693V588.207H184.982V579.233C181.175 582.916 176.67 585.801 171.732 587.719C166.795 589.638 161.523 590.551 156.228 590.404ZM134.068 541.137C134.068 559.269 145.423 569.709 160.259 569.709C173.812 569.709 185.533 559.269 185.533 541.137C185.533 522.823 173.812 512.383 160.259 512.383C145.423 512.383 134.068 522.823 134.068 541.137Z" fill="#757575"/>
<path d="M346.889 491.688C370.883 491.688 382.604 508.538 382.604 532.713V588.207H359.345V535.277C359.345 520.259 353.118 512.383 339.198 512.383C327.476 512.383 318.318 520.259 318.318 535.277V588.207H295.059V535.277C295.059 520.259 289.564 512.383 275.644 512.383C263.191 512.383 254.033 520.259 254.033 535.277V588.207H230.773V493.885H254.033V503.593C258.43 497.366 266.854 491.688 282.605 491.688C297.806 491.688 308.245 498.098 313.007 506.889C318.502 498.098 328.759 491.688 346.889 491.688Z" fill="#757575"/>
<path d="M402.024 459.454C402.029 455.667 403.535 452.036 406.213 449.358C408.891 446.68 412.522 445.173 416.309 445.168C418.175 445.174 420.021 445.549 421.742 446.271C423.462 446.993 425.023 448.049 426.334 449.377C427.645 450.704 428.68 452.279 429.38 454.008C430.08 455.738 430.431 457.589 430.413 459.454C430.389 463.203 428.883 466.79 426.223 469.433C423.564 472.075 419.967 473.558 416.218 473.558C412.47 473.558 408.873 472.075 406.213 469.433C403.554 466.79 402.048 463.203 402.024 459.454ZM428.031 493.886V588.207H404.771V493.886H428.031Z" fill="#757575"/>
<path d="M474.366 493.885V503.593C478.763 497.366 487.738 491.688 502.938 491.688C526.93 491.688 540.116 508.538 540.116 532.713V588.207H516.856V535.277C516.856 520.259 509.714 512.383 495.977 512.383C483.524 512.383 474.366 520.259 474.366 535.277V588.207H451.106V493.885H474.366Z" fill="#757575"/>
<path d="M556.969 537.108C556.969 509.454 576.565 491.872 600.192 491.872C611.914 491.872 621.62 495.535 628.214 502.128V493.886H650.374V582.163C650.374 604.141 634.441 625.019 604.771 625.019C577.116 625.019 561.181 607.255 559.168 588.207H581.876C584.259 596.998 591.218 604.324 604.771 604.324C620.523 604.324 628.581 593.336 628.581 580.331V571.907C621.987 578.683 611.914 582.163 600.192 582.163C576.565 582.163 556.969 564.764 556.969 537.108ZM579.132 537.108C579.132 552.677 589.937 562.2 604.404 562.2C610.978 562.007 617.219 559.26 621.801 554.541C626.383 549.822 628.947 543.503 628.947 536.926C628.947 530.348 626.383 524.03 621.801 519.311C617.219 514.592 610.978 511.845 604.404 511.651C589.937 511.651 579.132 521.358 579.132 537.108Z" fill="#757575"/>
<path d="M758.071 568.793C763.324 568.961 768.547 567.926 773.339 565.767C778.132 563.609 782.368 560.384 785.725 556.34L797.997 574.47C791.036 581.98 778.034 590.405 757.887 590.405C728.033 590.405 709.169 568.977 709.169 541.138C709.169 513.299 728.033 491.872 757.887 491.872C778.034 491.872 791.036 500.296 797.997 507.805L785.725 525.937C782.368 521.892 778.132 518.667 773.339 516.509C768.547 514.351 763.324 513.316 758.071 513.483C742.87 513.483 732.431 524.471 732.431 541.138C732.431 557.804 742.869 568.793 758.071 568.793Z" fill="#757575"/>
<path d="M805.512 541.137C805.512 515.314 823.642 491.688 855.51 491.688C887.379 491.688 905.511 515.314 905.511 541.137C905.511 567.145 887.379 590.771 855.51 590.771C823.642 590.771 805.512 567.145 805.512 541.137ZM828.772 541.137C828.772 558.72 840.309 570.075 855.51 570.075C870.711 570.075 882.249 558.72 882.249 541.137C882.249 523.739 870.711 512.383 855.51 512.383C840.309 512.383 828.772 523.739 828.772 541.137Z" fill="#757575"/>
<path d="M946.17 493.885V502.86C949.284 497.183 955.328 491.688 967.233 491.688C982.069 491.688 992.507 503.043 991.591 523.555H968.881C968.881 516.779 964.853 512.201 958.075 512.201C951.848 512.201 946.17 516.779 946.17 531.797V588.207H922.911V493.885H946.17Z" fill="#757575"/>
<path d="M1029.14 502.86C1035.91 495.535 1046.17 491.688 1058.62 491.688C1084.26 491.688 1104.04 511.102 1104.04 540.955C1104.04 570.808 1084.26 590.405 1058.62 590.405C1046.17 590.405 1035.91 586.375 1029.14 579.049V628.5H1005.88V493.885H1029.14V502.86ZM1028.04 540.955C1028.04 559.269 1040.13 569.709 1053.5 569.709C1068.7 569.709 1080.78 559.269 1080.78 540.955C1080.78 522.823 1068.7 512.383 1053.5 512.383C1040.13 512.384 1028.04 522.823 1028.04 540.955Z" fill="#757575"/>
<path d="M1112.47 572.273L1127.68 557.072C1129.5 561.082 1132.48 564.458 1136.23 566.774C1139.98 569.089 1144.33 570.238 1148.74 570.075C1155.52 570.075 1161.38 566.23 1161.38 559.635C1161.38 553.592 1156.61 550.295 1149.47 547.914L1141.05 545.167C1128.04 540.955 1118.7 531.981 1118.7 518.062C1118.7 503.775 1131.89 491.688 1148.01 491.688C1163.57 491.688 1174.38 498.83 1179.32 507.072L1164.12 520.259C1162.59 517.586 1160.37 515.364 1157.7 513.821C1155.03 512.277 1152.01 511.465 1148.92 511.468C1143.61 511.468 1140.5 514.581 1140.5 518.062C1140.5 522.273 1143.79 524.838 1149.11 526.669L1157.16 529.416C1169.98 533.812 1183.9 542.237 1183.9 559.635C1183.9 577.035 1169.25 590.405 1148.74 590.405C1129.87 590.405 1117.97 581.797 1112.47 572.273Z" fill="#757575"/>
</svg>
