<svg width="1710" height="375" viewBox="0 0 1710 375" fill="none" xmlns="http://www.w3.org/2000/svg">
<path d="M372.632 185.801H192.193V249.929H296.066C286.138 271.064 273.082 286.589 256.89 296.503C240.697 306.419 220.802 311.376 197.206 311.376C160.918 311.376 130.405 299.348 105.67 275.289C80.9371 251.233 68.5704 221.889 68.5704 187.265C68.5704 153.779 80.4877 125.331 104.322 101.923C128.157 78.5146 157.725 66.8107 193.036 66.8107C233.546 66.8107 269.013 82.904 299.438 115.089L347.517 67.5427C325.572 43.8093 303.138 27.0653 280.217 17.312C253.068 5.772 223.892 -1.11537e-05 192.681 -1.11537e-05C141.326 -1.11537e-05 98.2944 15.4986 63.565 46.456C63.729 47.48 63.5757 48.6853 63.029 49.532C63.021 49.5453 63.017 49.5587 63.009 49.572C62.809 51.972 60.8757 53.7253 58.4677 53.8333C58.3584 53.8387 58.2477 53.832 58.1357 53.8253C58.1264 53.8333 58.1197 53.8413 58.1104 53.8493C53.009 58.1066 48.789 63.172 44.8837 68.5186C44.0157 76.8213 35.833 82.7933 30.5677 89.0666C29.5637 91.0266 28.549 92.9733 27.477 94.8693C24.5944 99.9693 22.9211 105.393 21.2197 110.969C19.6371 116.157 17.5864 121.111 15.6957 126.187C11.7757 136.709 10.2211 147.732 6.87972 158.409C5.09705 164.105 2.81171 169.779 2.44104 175.785C2.07704 181.7 2.26771 187.524 1.25171 193.392C1.18771 193.763 1.06105 194.092 0.907715 194.401C6.57038 232.483 18.9011 269.861 41.8104 301.187C62.261 329.145 92.7784 348.389 124.45 361.328C157.458 374.813 195.325 377.023 230.304 371.307C264.242 365.761 296.942 351.688 319.998 325.496C343.42 298.888 359.09 266.979 367.758 232.724C368.214 230.92 369.406 229.929 370.777 229.596C372.336 220.192 373.12 210.635 373.12 200.919L372.632 185.801Z" fill="#757575"/>
<path d="M509.154 136.502L466.413 245.867H551.641L509.154 136.502ZM478.026 52.0433H539.523L662.046 370.606H599.026L574.102 304.989H444.114L418.198 370.606H355.179L478.026 52.0433Z" fill="#757575"/>
<path d="M739.833 52.0428H798.914L872.762 274.236L947.278 52.0428H1006.32L1059.76 370.605H1001.12L966.966 169.42L899.29 370.605H845.85L778.774 169.42L743.799 370.605H684.677L739.833 52.0428Z" fill="#757575"/>
<path d="M1091.17 52.0428H1283.91L1170.48 312.351H1276.54V370.605H1081.85L1194.76 112.031H1091.17V52.0428Z" fill="#757575"/>
<path d="M1325.49 52.0432H1385.69V370.606H1325.49V52.0432Z" fill="#757575"/>
<path d="M1433.23 52.0428H1501.44L1568.4 154.321L1635.49 52.0428H1703.63L1602.56 206.495L1709.99 370.605H1641.77L1568.46 258.605L1495.16 370.605H1426.51L1534.26 206.367L1433.23 52.0428Z" fill="#757575"/>
<path d="M1408.37 46.22C1407.79 39.2933 1399.36 -3.1895e-05 1354.76 -3.1895e-05C1311.99 -3.1895e-05 1302.61 46.22 1302.61 46.22C1306.75 41.2186 1325.88 28.6706 1355.49 28.6706C1385.1 28.6706 1404.23 41.2186 1408.37 46.22Z" fill="#757575"/>
</svg>
