<svg width="1746" height="496" viewBox="0 0 1746 496" fill="none" xmlns="http://www.w3.org/2000/svg">
<path d="M115.541 199.941H165.414V240.678L244.38 242.756V14.5488C244.38 12.0545 243.133 9.97632 241.055 9.97632H168.739C166.66 9.97632 165.414 11.6392 165.414 14.5488V122.625H115.541V14.5488C115.541 12.0545 114.293 9.97632 112.215 9.97632H40.7301C38.6521 9.97632 37.4053 11.6392 37.4053 14.5488V237.768L115.541 239.847V199.941Z" fill="#757575"/>
<path d="M427.248 13.7173C426.417 11.223 425.171 10.3916 423.508 10.3916H345.788C344.126 10.3916 342.879 11.223 342.048 13.7173L275.966 243.588L493.331 249.407L427.248 13.7173ZM363.659 207.008L384.025 76.9005L403.974 207.008H363.659Z" fill="#757575"/>
<path d="M798.807 246.082L833.302 195.785L859.485 258.552L940.531 260.631L880.684 127.198L957.569 14.9642C959.645 12.0546 958.401 9.5603 955.492 9.5603H874.035C872.371 9.5603 870.706 10.8078 870.294 12.0546L799.222 126.366V14.1328C799.222 11.6393 797.975 9.5603 795.897 9.5603H729.399C727.322 9.5603 726.074 11.2232 726.074 14.1328V254.811L799.222 256.89L798.807 246.082Z" fill="#757575"/>
<path d="M1182.84 218.231C1182.84 98.5162 1048.17 141.331 1048.17 93.9437C1048.17 80.2263 1059.81 74.4063 1075.19 74.4063C1093.48 74.4063 1111.76 82.7198 1129.64 101.426C1130.47 102.673 1132.13 103.089 1133.38 102.257C1133.79 101.841 1134.21 101.426 1134.21 101.01L1170.78 50.2972C1172.03 48.6343 1172.03 45.7247 1170.36 44.0619C1145.01 13.7174 1114.68 0 1078.1 0C1028.23 0 974.615 24.5252 974.615 103.089C974.615 228.624 1110.93 178.742 1110.93 230.286C1110.93 246.082 1098.05 253.979 1079.76 253.979C1056.9 253.979 1034.04 242.341 1011.19 211.165C1009.94 209.502 1007.86 209.086 1006.61 211.165L970.875 261.878L1173.27 267.282C1179.93 251.486 1182.84 234.858 1182.84 218.231Z" fill="#757575"/>
<path d="M1348.66 13.7173C1347.83 11.223 1346.58 10.3916 1344.92 10.3916H1266.79C1265.13 10.3916 1263.87 11.223 1263.05 13.7173L1190.32 267.281L1421.39 273.101L1348.66 13.7173ZM1285.07 207.008L1305.85 76.9005L1325.8 207.008H1285.07Z" fill="#757575"/>
<path d="M1566.02 147.566L1586.39 277.673L1670.76 279.751L1744.74 14.9641C1745.57 12.0545 1744.32 9.97632 1742.25 9.97632H1672.84C1670.76 9.97632 1669.51 11.2231 1669.1 14.1327L1632.11 167.934L1602.19 14.1327C1601.77 12.0545 1600.52 9.97632 1598.44 9.97632H1533.61C1531.53 9.97632 1530.28 11.6392 1529.87 14.1327L1499.94 167.934L1462.96 14.1327C1462.54 11.6392 1461.29 9.97632 1459.22 9.97632H1389.8C1387.73 9.97632 1386.48 11.6392 1387.32 14.9641L1459.63 274.348L1545.66 276.426L1566.02 147.566Z" fill="#757575"/>
<path d="M691.994 229.87C691.994 229.455 691.578 228.623 691.163 228.623C690.748 228.623 690.331 228.623 689.916 229.039C679.941 243.588 663.732 252.317 645.861 251.901C607.625 251.901 589.338 213.658 589.338 162.946C589.338 116.806 604.3 76.069 646.692 76.069C664.148 75.2376 680.357 83.9672 689.916 98.1C690.331 98.5161 691.163 98.9314 691.578 98.5161C691.994 98.1 691.994 98.1 691.994 97.6847V12.8859C691.994 10.8077 690.747 9.14482 689.085 8.31338C674.538 3.3256 658.745 0.831299 643.367 0.831299C558.582 0.831299 504.138 75.2376 504.138 169.181C503.722 197.031 509.125 224.466 519.931 249.823L691.994 254.395V229.87Z" fill="#757575"/>
<path d="M128.008 327.139C128.008 329.633 129.255 331.296 131.333 331.296H203.234C205.312 331.296 206.559 329.633 206.559 327.139V255.227L127.593 253.148L128.008 327.139Z" fill="#757575"/>
<path d="M3.3249 331.296H74.8102C76.8883 331.296 78.5507 329.633 78.5507 327.139V251.486L0 249.823V327.139C0 329.633 1.24683 331.296 3.3249 331.296Z" fill="#757575"/>
<path d="M221.105 331.296H293.007C295.085 331.296 296.332 329.633 296.747 327.971L305.891 288.066H386.519L395.663 327.971C396.079 330.049 397.741 331.296 399.403 331.296H471.304C473.798 331.296 474.629 329.218 473.798 325.892L455.511 261.046L238.146 255.227L217.781 325.476C217.365 329.218 218.612 331.296 221.105 331.296Z" fill="#757575"/>
<path d="M845.768 328.387C846.188 330.049 847.852 331.296 849.508 331.296H924.737C927.233 331.296 928.478 329.218 927.233 325.892L903.127 272.686L822.081 270.607L845.768 328.387Z" fill="#757575"/>
<path d="M691.579 331.296H758.076C760.155 331.296 761.402 329.633 761.402 327.139V269.36L688.254 267.281V326.724C688.254 329.633 689.5 331.296 691.579 331.296Z" fill="#757575"/>
<path d="M928.065 288.066C953.828 321.735 993.729 341.688 1036.12 341.688C1078.93 341.688 1118.83 320.904 1136.29 279.336L933.882 273.932L928.065 282.246C926.813 283.909 926.813 286.403 928.065 288.066Z" fill="#757575"/>
<path d="M1142.51 331.296H1214.42C1216.5 331.296 1218.16 329.633 1218.58 327.971L1227.72 288.066H1308.35L1317.49 327.971C1317.9 330.05 1319.57 331.296 1321.64 331.296H1393.13C1395.63 331.296 1396.46 329.218 1395.63 325.892L1383.99 285.155L1152.91 279.336L1139.61 325.892C1138.77 329.218 1140.44 331.296 1142.51 331.296Z" fill="#757575"/>
<path d="M1555.22 327.555C1555.64 329.633 1556.88 331.296 1558.96 331.296H1620.05C1622.13 331.296 1623.38 330.049 1623.8 327.555L1633.77 291.807L1549.4 289.729L1555.22 327.555Z" fill="#757575"/>
<path d="M1437.61 331.296H1498.7C1500.77 331.296 1502.02 329.633 1502.44 327.555L1508.67 288.896L1422.64 286.818L1434.28 327.97C1434.28 330.049 1435.52 331.296 1437.61 331.296Z" fill="#757575"/>
<path d="M607.21 343.351C622.171 343.351 637.133 341.273 651.264 336.7C653.342 335.869 654.589 334.206 654.589 332.128V266.45L482.525 261.878C504.554 311.759 548.192 343.351 607.21 343.351Z" fill="#757575"/>
<path d="M108.059 431.474H81.0446V419.004C81.0446 416.925 79.7977 415.679 77.3039 415.679H71.901C69.4073 415.679 68.1605 416.925 68.1605 419.004V474.289C68.1605 476.368 69.4073 477.615 71.901 477.615H77.7196C80.2132 477.615 81.4599 476.368 81.4599 474.289V458.078H73.5635V441.451H108.059V476.368C108.059 488.838 100.578 495.074 85.2003 495.074H63.1731C47.7955 495.074 40.3145 488.838 40.3145 476.368V416.925C40.3145 404.456 47.7955 398.22 63.1731 398.22H85.2003C100.578 398.22 108.059 404.456 108.059 416.925V431.474Z" fill="#757575"/>
<path d="M398.157 494.657L394.832 480.109H370.726L367.401 494.657H340.387L366.155 398.22H399.403L425.172 494.657H398.157ZM375.298 461.403H391.091L383.61 426.486L375.298 461.403Z" fill="#757575"/>
<path d="M684.513 494.657H659.992V398.22H689.5L706.125 449.764L722.334 398.22H751.842V494.657H727.737V433.552L715.269 474.289H696.566L684.097 433.969L684.513 494.657Z" fill="#757575"/>
<path d="M992.897 398.22H1020.32V494.657H992.897V398.22Z" fill="#757575"/>
<path d="M1306.68 398.22H1331.62V494.657H1308.35L1285.9 443.945V494.657H1260.96V398.22H1284.24L1306.68 449.764V398.22Z" fill="#757575"/>
<path d="M1639.59 431.474H1612.57V419.004C1612.57 416.925 1611.33 415.679 1608.83 415.679H1603.02C1600.52 415.679 1599.28 416.925 1599.28 419.004V474.289C1599.28 476.368 1600.52 477.615 1603.02 477.615H1608.42C1610.91 477.615 1612.16 476.368 1612.16 474.289V458.078H1604.26V441.451H1639.59V476.368C1639.59 488.838 1632.11 495.074 1616.73 495.074H1594.7C1579.32 495.074 1571.84 488.838 1571.84 476.368V416.925C1571.84 404.456 1579.32 398.22 1594.7 398.22H1616.73C1632.11 398.22 1639.59 404.456 1639.59 416.925V431.474Z" fill="#757575"/>
</svg>
