<svg width="731" height="610" viewBox="0 0 731 610" fill="none" xmlns="http://www.w3.org/2000/svg">
<path fill-rule="evenodd" clip-rule="evenodd" d="M658.888 91.361L650.687 186.316L643.782 186.964L640.976 220.414L646.587 230.557L641.894 284.894C639.743 285.022 637.565 285.181 635.367 285.372C621.771 286.667 610.117 289.041 599.974 293.141L600.19 290.551L490.559 300.047L270.435 319.254L165.121 328.533L163.179 336.087L149.367 333.929C141.814 332.85 133.181 331.986 123.686 331.77C114.19 331.555 105.342 331.555 97.573 332.418C75.3448 334.36 58.296 339.324 45.1317 347.74C38.4695 351.953 32.6524 357.189 27.6602 363.428L14.2696 339.324L34.1239 104.957L182.6 92.0084C173.968 77.765 175.694 59.2056 180.873 46.0413C184.758 36.3299 191.016 27.4818 199.433 20.3601C201.159 18.8495 203.102 17.5546 205.044 16.6914C206.555 14.3175 208.497 11.9436 210.871 10.2172C218.424 4.17455 228.783 3.09551 237.631 7.19586C243.458 10.0013 248.421 13.4543 252.737 17.7704C253.17 17.4461 253.602 17.0676 254.035 16.6891C254.466 16.3123 254.896 15.9355 255.327 15.6124C257.054 14.1017 258.996 12.8068 260.938 11.9436C262.449 9.56975 264.391 7.19586 266.765 5.46939C274.318 -0.57323 284.677 -1.65227 293.525 2.44808C300.863 5.90101 307.121 10.6488 312.085 16.6914C325.681 32.877 331.939 58.9898 319.854 80.3547L393.228 73.8805L495.737 64.8166L637.307 52.5155L658.888 91.361ZM53.6456 376.619L35.8504 378.17L27.6602 363.428C21.656 370.931 16.845 379.885 13.1921 390.254C8.01283 405.577 4.12824 426.294 1.75435 453.918C-0.619543 481.757 -0.619543 502.475 1.97016 517.15C3.69662 526.861 6.50213 534.63 10.1708 540.888L31.7516 579.95C37.7943 590.74 45.7792 596.999 52.4692 600.667C62.6122 606.278 75.3448 609.084 91.0988 609.084C95.415 609.084 100.163 608.868 105.126 608.436C113.974 607.573 123.686 606.278 134.045 604.12C134.582 604.013 135.065 603.906 135.548 603.799L135.555 603.797C136.041 603.689 136.527 603.581 137.066 603.473L322.877 587.287L491.207 572.612L601.7 562.901L601.916 561.606C606.232 561.822 610.764 562.038 615.728 562.253H621.123C628.892 562.253 636.446 562.038 643.567 561.39C658.242 560.095 670.327 557.29 680.686 552.758C693.635 547.147 704.425 537.004 712.41 522.545C719.532 510.028 723.848 493.195 725.79 471.614C727.085 455.428 726.438 442.264 723.416 431.69L722.769 431.474C721.042 426.079 718.884 421.331 716.295 417.23L723.416 417.446L730.969 329.612L709.389 290.767L683.708 286.667C678.528 285.803 671.838 285.156 663.422 284.724C656.701 284.389 649.457 284.445 641.894 284.894L639.423 313.508C638.937 313.551 638.448 313.596 637.957 313.644C626.303 314.507 616.592 316.881 608.607 320.118C603.601 322.148 599.189 325.195 595.317 329.26L568.268 331.614L569.114 321.628L479.554 329.397L478.702 339.391L458.195 341.149L459.05 331.124L392.366 336.951L390.259 347.067L363.653 349.408L363.232 339.54L295.684 345.367L295.108 352.122C284.272 356.762 271.118 359.703 255.111 361.121L254.773 361.147L253.604 349.036L186.919 354.863L184.208 365.236L144.449 368.703L145.051 362.2C138.577 361.121 131.239 360.474 122.607 360.258C114.191 360.042 106.637 360.042 99.9469 360.689C82.4666 362.2 69.0865 365.869 60.0226 371.696C57.7428 373.128 55.6192 374.767 53.6456 376.619ZM53.6456 376.619L144.449 368.703L141.814 397.161C125.628 396.945 114.838 396.945 109.011 397.377C98.4369 398.24 91.3148 399.751 87.646 401.693C83.7615 403.635 81.1718 407.951 79.4453 414.857C77.7189 421.763 75.9924 434.28 74.4817 452.624C72.9711 469.888 72.3237 481.973 72.3237 488.879C72.3237 495.785 73.4027 500.317 75.345 502.475C77.2872 504.633 80.7402 505.497 86.1354 505.065L93.257 504.202L96.2784 469.241L85.2721 470.104L88.2935 433.848L139.656 429.316L130.808 532.041C124.333 534.415 116.349 536.357 107.069 538.299C97.7889 540.242 89.1567 541.321 81.1718 542.184C64.5546 543.695 52.4693 542.184 44.4844 537.868C36.7153 533.552 31.536 525.135 29.5937 512.834C27.4356 500.533 27.4356 481.758 29.5937 456.724C31.7518 431.69 34.9889 412.699 39.5208 399.751C42.9394 389.984 47.5859 382.303 53.6456 376.619ZM184.208 365.236L204.181 363.495L204.828 355.51C214.108 359.826 225.33 361.768 239.357 361.768C244.221 361.768 249.292 361.561 254.773 361.147L270.437 523.409L224.685 527.509L223.175 497.728L191.451 500.533L184.761 530.962L139.873 534.847L184.208 365.236ZM295.108 352.122C295.813 351.82 296.508 351.511 297.194 351.194L296.762 355.294L363.653 349.408L367.764 445.934L369.706 445.718L390.259 347.067L431.642 343.425L458.195 341.149L443.944 508.302L400.566 512.187L410.925 391.766L408.551 391.982L381.36 513.697L342.514 517.15L336.256 398.24L333.666 398.456L323.307 518.877L280.577 522.545L295.108 352.122ZM478.702 339.391L492.069 338.245L568.268 331.614L565.877 359.826L522.068 363.71L519.479 394.355L556.813 391.118L553.576 428.884L516.241 432.121L513.436 464.493L557.245 460.608L554.008 498.806L464.448 506.575L478.702 339.391ZM595.317 329.26C593.013 331.679 590.9 334.458 588.968 337.598C583.789 346.015 580.552 357.668 579.257 372.775C577.962 388.313 578.394 400.183 580.552 408.383C582.71 416.8 587.457 421.332 594.363 421.979L615.512 424.137C620.692 424.569 624.145 425.216 626.087 426.079C628.029 426.943 629.324 428.238 629.756 430.396C630.187 432.338 630.187 436.007 629.756 441.186C629.324 444.639 628.893 447.229 628.461 449.171C628.029 451.113 627.166 452.624 626.087 453.703C625.008 454.998 623.282 455.861 620.908 456.508C618.534 457.156 614.649 457.587 609.47 458.019C602.132 458.666 590.479 459.098 574.941 459.314L571.919 494.275C577.962 495.138 585.515 495.57 594.363 495.785C603.211 496.001 611.628 495.785 619.613 494.922C631.051 494.059 640.546 491.901 647.884 488.664C655.221 485.427 661.48 479.384 666.443 470.32C671.407 461.256 674.644 448.092 676.155 430.827C677.234 418.095 676.802 408.167 674.644 400.83C672.702 394.571 669.68 390.255 666.012 388.097C662.343 385.939 657.595 384.429 651.984 383.781L633.856 381.839C630.619 381.407 628.461 380.76 627.166 380.112C625.871 379.465 625.008 378.17 624.792 376.228C624.576 374.286 624.576 371.264 625.008 367.164C625.224 363.711 625.655 360.905 626.303 358.963C626.95 357.021 627.814 355.51 629.108 354.431C630.403 353.352 632.13 352.489 634.504 352.057C636.878 351.626 640.33 351.194 645.294 350.762C655.869 349.899 666.227 349.683 676.37 349.899L679.392 314.507C675.291 313.859 669.465 313.428 662.127 312.996C655.197 312.792 647.69 312.781 639.423 313.508L638.386 325.512L595.317 329.26ZM116.777 234.009L110.95 302.636L156.917 298.536L172.024 121.357L126.273 125.457L120.446 193.005L100.16 194.732L105.987 127.184L60.2354 131.284L45.1289 308.463L90.6644 304.362L96.4912 235.735L116.777 234.009ZM192.094 289.473C184.757 284.725 180.656 276.74 179.793 265.518C178.93 254.296 179.793 235.305 181.951 208.329C184.325 181.353 186.699 162.146 189.504 150.709C192.31 139.271 197.705 130.423 206.122 124.38C214.538 118.337 227.918 114.453 246.478 112.726C265.037 111 277.986 112.726 285.539 117.474C292.876 122.222 296.977 130.207 298.056 141.429C298.919 152.651 298.272 171.642 295.898 198.402C293.524 225.162 290.934 244.369 288.129 255.807C285.323 267.245 279.712 276.093 271.296 282.351C262.879 288.61 249.499 292.494 230.94 294.005C212.596 295.731 199.432 294.221 192.094 289.473ZM242.809 253.002C244.32 251.275 245.399 247.175 246.262 240.916C247.125 234.658 248.42 221.925 250.146 202.718C251.873 183.511 252.736 170.779 252.952 164.52C253.168 158.262 252.736 154.377 251.441 152.867C250.146 151.356 247.557 150.709 243.456 151.14C239.356 151.572 236.766 152.651 235.256 154.377C233.745 156.104 232.666 160.204 231.803 166.463C230.94 172.721 229.645 185.454 227.918 204.661C226.192 223.867 225.329 236.6 225.113 242.859C224.897 249.117 225.329 253.002 226.408 254.512C227.487 256.023 230.076 256.67 234.177 256.239C238.493 255.807 241.298 254.728 242.809 253.002ZM321.364 108.409L306.258 285.588L390.423 278.25L393.876 238.757L355.246 242.21L367.115 104.309L321.364 108.409ZM403.803 276.956L418.91 99.7772L464.661 95.6772L452.792 233.578L491.422 230.125L487.969 269.618L403.803 276.956ZM516.67 91.3608L501.564 268.539L591.124 260.554L594.361 222.356L550.552 226.241L553.357 193.869L590.692 190.632L593.929 152.866L556.595 156.103L559.184 125.674L602.993 121.79L606.23 83.5917L516.67 91.3608ZM216.049 39.9995C213.243 42.3734 207.848 47.5527 204.827 55.5377C201.806 63.0909 199.863 76.2551 207.632 82.7295C213.028 87.2614 220.365 86.1823 222.091 85.7507C222.151 85.7307 222.299 85.6994 222.523 85.6521L222.524 85.652L222.524 85.652L222.524 85.6519L222.524 85.6518C224.712 85.1898 234.132 83.2 240.004 75.1761C249.067 63.0908 243.456 46.4737 236.551 38.0572C233.098 33.9569 229.429 31.7988 226.623 30.5039C227.055 32.8778 227.702 37.6255 225.329 42.805C224.681 44.5313 222.091 50.1425 218.207 50.7899C216.049 51.2215 214.754 49.7108 214.754 49.7108C213.028 47.5527 213.243 43.6682 216.049 39.9995ZM260.506 50.5748C263.527 42.5899 268.923 37.4105 271.728 35.0366C269.138 38.7053 268.707 42.8057 270.433 44.748C270.433 44.748 271.728 46.2586 273.886 45.827C277.771 45.1796 280.36 39.5686 281.008 37.8421C283.382 32.6627 282.734 27.9149 282.303 25.541C285.108 26.8359 288.777 28.994 292.23 33.0943C299.136 41.5108 304.747 58.1281 295.683 70.2133C289.813 78.2363 280.393 80.2265 278.205 80.6888C277.98 80.7364 277.832 80.7677 277.771 80.7879C276.044 81.2195 268.707 82.2986 263.312 77.7666C255.543 71.2923 257.485 58.1281 260.506 50.5748ZM217.348 392.845L215.621 393.061L200.299 463.198L220.801 461.472L217.348 392.845Z" fill="#757575"/>
</svg>
