<?xml version="1.0" encoding="utf-8"?>
<!-- Generator: Adobe Illustrator 24.2.1, SVG Export Plug-In . SVG Version: 6.00 Build 0)  -->
<svg version="1.1" id="Слой_1" xmlns="http://www.w3.org/2000/svg" xmlns:xlink="http://www.w3.org/1999/xlink" x="0px" y="0px"
	 viewBox="0 0 22 22" style="enable-background:new 0 0 22 22;" xml:space="preserve">
<style type="text/css">
	.st0{fill:#E4C892;}
</style>
<g>
	<path class="st0" d="M11,22C4.934,22,0,17.065,0,10.999C0,4.934,4.934,0,11,0c6.066,0,11,4.934,11,10.999
		C22,17.065,17.065,22,11,22z M11,0.863c-5.59,0-10.137,4.547-10.137,10.137c0,5.59,4.547,10.138,10.137,10.138
		c5.59,0,10.138-4.548,10.138-10.138C21.137,5.41,16.59,0.863,11,0.863z"/>
	<g>
		<path class="st0" d="M13.1,15.709c-0.44,0.174-0.789,0.305-1.052,0.396c-0.262,0.091-0.566,0.137-0.912,0.137
			c-0.532,0-0.946-0.13-1.241-0.39c-0.295-0.26-0.442-0.588-0.442-0.988c0-0.155,0.011-0.314,0.033-0.476
			c0.022-0.162,0.058-0.344,0.106-0.549l0.55-1.943c0.048-0.187,0.09-0.364,0.124-0.528c0.033-0.166,0.049-0.319,0.049-0.458
			c0-0.247-0.051-0.421-0.153-0.518c-0.103-0.098-0.298-0.145-0.588-0.145c-0.142,0-0.288,0.021-0.437,0.065
			c-0.148,0.046-0.277,0.087-0.382,0.127l0.145-0.599c0.36-0.147,0.705-0.273,1.034-0.377c0.329-0.106,0.64-0.158,0.933-0.158
			c0.528,0,0.936,0.129,1.223,0.383c0.286,0.255,0.429,0.587,0.429,0.995c0,0.085-0.01,0.234-0.03,0.446
			c-0.02,0.213-0.056,0.408-0.11,0.586l-0.547,1.938c-0.045,0.155-0.085,0.333-0.121,0.532c-0.035,0.199-0.053,0.351-0.053,0.453
			c0,0.257,0.057,0.433,0.173,0.526c0.114,0.093,0.314,0.14,0.598,0.14c0.134,0,0.283-0.024,0.453-0.07
			c0.168-0.046,0.289-0.087,0.366-0.123L13.1,15.709z"/>
		<path class="st0" d="M11.925,7.845C11.669,8.082,11.362,8.2,11.003,8.2c-0.359,0-0.668-0.119-0.925-0.356
			C9.822,7.607,9.692,7.319,9.692,6.982c0-0.336,0.13-0.625,0.385-0.865c0.257-0.24,0.567-0.359,0.925-0.359
			c0.359,0,0.667,0.119,0.922,0.359c0.255,0.239,0.383,0.528,0.383,0.865C12.308,7.32,12.18,7.607,11.925,7.845z"/>
	</g>
</g>
</svg>
