<svg width="1647" height="514" viewBox="0 0 1647 514" fill="none" xmlns="http://www.w3.org/2000/svg">
<path d="M436.49 0H458.617L542.294 52.2985H518.961L436.49 0Z" fill="#757575"/>
<path d="M349.998 513.329H372.124L455.802 461.031H432.469L349.998 513.329Z" fill="#757575"/>
<path d="M290.522 414.365L343.561 254.251L391.343 414.365H507.8C507.8 414.365 498.772 439.374 492.986 455.399C481.549 458.064 475.026 459.215 463.358 460.629C451.21 462.1 432.082 462.64 432.082 462.64H103.696C79.0053 462.64 63.7793 462.64 39.5001 454.997C25.437 450.569 16.4555 444.537 9.45978 436.089C0.759807 425.582 0 414.365 0 414.365H290.522Z" fill="#757575"/>
<path d="M100.815 84.0798C109.647 76.6745 115.411 73.279 125.918 68.3903C136.609 63.4151 154.724 59.1375 154.724 59.1375L140.732 100.574L104.519 235.343L55.1374 414.365H0C0 414.365 0.000263766 379.883 2.87543 367.698C18.4097 301.866 22.2171 296.09 39.5001 232.527C49.5861 195.433 55.9611 174.596 66.6597 138.39C76.369 105.532 81.4841 100.289 100.815 84.0798Z" fill="#757575"/>
<path d="M495.449 100.574L451.375 259.883L394.63 100.574H140.32L154.723 59.1376C154.723 59.1376 167.454 56.5408 175.71 55.5169C183.866 54.5055 196.697 53.7941 196.697 53.7941L544.014 52.1849C568.704 52.1849 583.929 52.2985 608.209 59.9422C622.272 64.3695 631.254 70.4019 638.249 78.8501C646.949 89.3564 646.891 100.574 646.891 100.574H495.449Z" fill="#757575"/>
<path d="M546.894 430.054C538.063 437.46 532.298 440.855 521.792 445.744C511.1 450.719 504.552 452.914 492.986 455.399C498.45 439.06 506.977 413.56 506.977 413.56L543.19 278.791L592.572 99.7694H646.892C646.892 99.7694 646.802 124.142 644.834 139.597C641.201 168.148 591.877 353.209 581.05 375.744C570.222 398.279 566.226 413.845 546.894 430.054Z" fill="#757575"/>
<path d="M436.49 0L519.187 52.4135L352.146 53.7065L436.49 0Z" fill="#757575"/>
<path d="M349.997 513.329L265.729 459.623H434.653L349.997 513.329Z" fill="#757575"/>
<path d="M241.492 100.574H280.646L196.345 414.365H157.191L241.492 100.574Z" fill="#757575"/>
<path d="M90.5273 181.838H232.087V221.263H90.5273V181.838Z" fill="#757575"/>
<path d="M395.859 414.365L343.561 254.251L375.744 414.365H395.859Z" fill="#757575"/>
<path d="M506.087 100.574L451.375 259.883L485.57 100.574H506.087Z" fill="#757575"/>
<path d="M634.601 124.71L636.164 113.419C637.639 102.76 635.446 91.9159 629.944 82.6679C623.297 71.4969 612.358 63.5432 599.682 60.6663L562.812 52.2985L575.629 52.2985C578.875 52.2986 582.113 52.6459 585.285 53.3345L611.553 59.036C624.95 61.9441 636.736 69.8493 644.509 81.1424C650.695 90.1297 654.008 100.784 654.008 111.695V119.508C654.008 126.413 653.103 133.288 651.316 139.958L585.104 387.064C579.713 407.183 567.48 424.795 550.508 436.869C541.883 443.006 532.239 447.565 522.023 450.335L514.86 452.277C498.323 456.761 481.388 459.613 464.295 460.792L454.996 461.433L511.63 441.087C518.634 438.57 525.282 435.154 531.405 430.923C548.159 419.345 560.251 402.19 565.521 382.519L634.601 124.71Z" fill="#757575"/>
<path d="M63.9644 414.365H44.252L97.0549 221.263H115.056L63.9644 414.365Z" fill="#757575"/>
<path d="M207.988 414.365H188.275L271.953 100.574H290.459L207.988 414.365Z" fill="#757575"/>
<path d="M207.988 414.365H188.275L271.953 100.574H290.459L207.988 414.365Z" fill="#757575"/>
<path d="M126.321 181.838H106.434L128.434 100.574H146.435L126.321 181.838Z" fill="#757575"/>
<path d="M764.211 102.031C764.211 102.031 733.182 106.838 724.296 110.335C700.988 119.657 683.507 140.052 673.747 169.333C670.833 178.073 633.249 318.066 628.296 338.898C623.052 360.749 623.052 377.356 628.296 388.282C634.415 400.664 644.466 407.656 662.53 411.881C670.396 413.774 685.401 414.358 748.623 414.794C846.809 415.668 862.683 414.066 887.448 401.101C904.787 391.923 920.372 371.384 928.965 345.89C933.342 333.217 972.816 185.212 976.018 169.77C983.887 131.894 973.548 112.665 940.624 103.924C932.61 101.886 920.662 101.448 850.598 101.302C806.169 101.157 764.211 102.031 764.211 102.031ZM874.631 186.085C872.596 194.68 838.795 320.106 837.338 324.476L835.737 329.283H781.983C752.411 329.283 728.229 329.283 728.229 329.283C728.229 328.409 761.734 203.129 765.521 189.727L767.707 182.152H821.754H875.653L874.631 186.085Z" fill="#757575"/>
<path d="M1026.81 100.574C1023.31 111.063 962.71 342.394 961.254 350.697C955.863 380.415 962.276 398.333 981.063 406.491C999.279 414.212 1002.63 414.503 1094.55 414.503C1171.32 414.503 1181.08 414.212 1192.88 411.881C1227.98 404.743 1246.78 388.864 1260.76 354.776C1263.97 347.056 1279.26 293.156 1298.35 221.921C1316.12 156.076 1330.54 101.011 1330.54 100.574C1330.54 100.574 1308.39 100.574 1281.3 100.574H1232.06L1201.62 213.472C1184.87 275.529 1170.15 328.409 1169.57 329.283H1117.13H1090.54H1063.95L1094.7 216.385C1111.45 154.619 1125.14 101.593 1125.14 100.574C1125.14 100.574 1114.36 100.574 1076.33 100.574C1038.46 100.574 1026.81 100.574 1026.81 100.574Z" fill="#757575"/>
<path d="M1355.65 100.574C1355.36 101.593 1350.7 120.531 1345.46 140.635C1340.21 160.592 1334.24 180.841 1333.8 182.152C1333.8 182.152 1337.3 182.152 1382.6 182.152H1430.82L1429.8 185.356C1429.21 187.25 1415.37 238.528 1399.07 299.42C1382.75 360.311 1367.01 413.92 1366.58 415.231H1417.42H1467.09C1467.53 413.483 1482.39 357.836 1499 295.778L1529.51 182.443H1577.52H1625.88C1626.31 181.132 1641.75 120.531 1647 100.574C1647 100.574 1617.87 100.574 1501.91 100.574C1386.68 100.574 1355.65 100.574 1355.65 100.574Z" fill="#757575"/>
</svg>
