<?xml version="1.0" encoding="utf-8"?>
<!-- Generator: Adobe Illustrator 26.0.1, SVG Export Plug-In . SVG Version: 6.00 Build 0)  -->
<svg version="1.1" id="Layer_1" xmlns="http://www.w3.org/2000/svg" xmlns:xlink="http://www.w3.org/1999/xlink" x="0px" y="0px"
	 viewBox="0 0 22.084 22.08" style="enable-background:new 0 0 22.084 22.08;" xml:space="preserve">
<style type="text/css">
	.st0{fill:#E4C892;}
</style>
<g>
	<path class="st0" d="M21.949,0.493c-0.023-0.199-0.179-0.354-0.378-0.379C20.968,0.039,20.354,0,19.748,0
		C15.806,0,11.942,1.612,8.9,4.527C8.525,4.477,8.149,4.45,7.785,4.45c-4.483,0-7.041,3.869-7.424,6.615
		c-0.022,0.119,0.013,0.243,0.095,0.342c0.082,0.099,0.197,0.156,0.367,0.156c0.005,0,3.706-0.465,3.706-0.465l0.998,0.958
		L4.89,13.341c-0.232,0.47-0.14,1.033,0.23,1.402l2.212,2.214c0.23,0.23,0.536,0.356,0.861,0.356c0.187,0,0.374-0.044,0.54-0.127
		l1.236-0.643l1.14,1.14c0.082,0.082,0.19,0.127,0.306,0.127c0.072,0,0.144-0.019,0.207-0.053c1.125-0.611,2.724-1.609,4.308-3.051
		c0.271-0.237,0.542-0.483,0.812-0.744c0.159,3.127-1.903,5.474-4.201,6.467c-0.043,0.018-0.087,0.04-0.13,0.057
		c-0.025,0.01-0.051,0.018-0.077,0.028c-0.3,0.114-0.6,0.205-0.897,0.271l0.171-1.409c0.014-0.132-0.021-0.248-0.101-0.337
		c-0.082-0.091-0.204-0.143-0.334-0.143c-0.171,0-0.385,0.099-0.422,0.376l-0.24,1.968c-0.017,0.135,0.032,0.271,0.129,0.363
		c0.079,0.077,0.188,0.121,0.299,0.121l0.069-0.005c3.039-0.425,7.217-3.433,6.523-8.505C20.263,10.467,22.689,5.466,21.949,0.493z
		 M9.381,15.899l-1.033,0.512c-0.048,0.024-0.102,0.037-0.155,0.037c-0.094,0-0.183-0.037-0.25-0.104l-2.212-2.214
		c-0.107-0.107-0.134-0.27-0.067-0.405l0.495-0.998l2.412,2.36C8.85,15.367,9.123,15.64,9.381,15.899z M7.583,7.163
		c0.11-0.134,0.133-0.295,0.063-0.443C7.571,6.561,7.406,6.453,7.236,6.453c-0.085,0-0.209,0.027-0.319,0.158
		C6.088,7.59,5.038,9.13,4.448,10.252L2.16,10.571l-0.835,0.102c0.299-1.21,1.144-3.401,3.443-4.609
		c0.935-0.49,1.972-0.739,3.083-0.739c0.369,0,0.737,0.028,1.163,0.088c0.117,0,0.221-0.038,0.301-0.112
		c2.957-2.859,6.657-4.434,10.418-4.434c0.474,0,0.955,0.025,1.391,0.039c0.13,1.321,0.079,2.636-0.151,3.907
		c-1.207,6.728-7.052,10.664-9.461,12.051L9.76,15.109c-1.479-1.482-3.339-3.346-4.539-4.501C5.824,9.515,6.795,8.099,7.583,7.163z"
		/>
	<path class="st0" d="M3.669,16.196c-2.069,0-3.639,3.568-3.668,5.422c-0.01,0.114,0.031,0.23,0.113,0.319
		c0.083,0.091,0.197,0.143,0.313,0.143l0.03-0.001c1.593-0.025,4.498-1.183,5.245-2.87c0.349-0.787,0.186-1.572-0.487-2.338
		C4.713,16.424,4.193,16.196,3.669,16.196z M2.382,20.783c-0.419,0.161-0.854,0.277-1.273,0.38c-0.066,0.011-0.13,0.029-0.197,0.038
		c0.178-1.323,0.743-2.552,1.637-3.552c0.321-0.376,0.707-0.574,1.115-0.574c0.545,0,1.062,0.367,1.258,0.895
		c0.203,0.546,0.021,1.115-0.5,1.563C3.819,20.072,3.132,20.492,2.382,20.783z"/>
	<path class="st0" d="M14.542,10.691v-0.04l0.06,0.04c1.293,0,2.41-0.761,2.913-1.986c0.504-1.228,0.244-2.558-0.681-3.471
		C16.231,4.632,15.429,4.3,14.575,4.3c-0.854,0-1.657,0.332-2.258,0.935c-0.925,0.907-1.187,2.234-0.684,3.464
		S13.25,10.691,14.542,10.691z M12.927,5.848c0.488-0.455,1.054-0.695,1.637-0.695c0.912,0,1.781,0.588,2.162,1.463
		c0.374,0.859,0.19,1.781-0.504,2.526c-0.484,0.456-1.048,0.697-1.631,0.697c-0.917,0-1.791-0.594-2.173-1.478
		C12.048,7.502,12.233,6.585,12.927,5.848z"/>
</g>
</svg>
