<svg width="1486" height="488" viewBox="0 0 1486 488" fill="none" xmlns="http://www.w3.org/2000/svg">
<path fill-rule="evenodd" clip-rule="evenodd" d="M250.447 9.23337C253.761 10.0976 257.076 10.9588 260.391 11.8171C269.09 14.0782 277.778 16.3804 286.465 18.6919C294.361 20.7858 302.265 22.8458 310.17 24.9059L312.295 25.4597C327.478 29.4228 342.647 33.4337 357.812 37.4672C367.6 40.0667 377.398 42.629 387.205 45.1558C393.386 46.7498 399.563 48.3588 405.739 49.9697C408.602 50.7126 411.467 51.4486 414.334 52.1772C442.203 59.266 450.962 61.4941 456.962 66.8274C459.712 69.2722 461.882 72.3695 465.047 76.8867C467.195 81.2841 468.467 85.566 469.191 89.9654C469.337 90.1849 469.492 90.4168 469.656 90.6623C469.94 94.5017 470.06 98.1973 470.054 102.023C470.055 102.198 470.055 102.374 470.055 102.549C470.055 102.689 470.055 102.828 470.054 102.968L470.054 103.073L470.065 106.465L470.065 107.023C470.071 111.278 470.052 115.534 470.03 119.789L470.02 124.318C469.951 153.201 469.3 182.074 468.571 210.946C468.467 215.071 468.362 219.195 468.256 223.32L468.254 223.416L468.158 227.163C467.75 242.998 467.323 258.833 466.838 274.665C466.547 284.165 466.235 293.664 465.893 303.162L465.724 307.951C464.817 332.017 463.732 354.4 448.745 374.462C445.58 377.214 442.486 379.728 439.129 382.21C437.246 383.644 435.365 385.082 433.487 386.522L430.617 388.718C426.344 392.056 422.234 395.572 418.124 399.108C410.681 405.486 403.056 411.578 395.316 417.592C389.352 422.247 383.541 427.048 377.795 431.969C372.348 436.628 366.823 441.166 361.217 445.615C357.453 448.614 353.662 451.58 349.851 454.531C347.044 456.761 344.26 459.018 341.503 461.317C322.885 476.769 305.509 487.014 280.706 487.048L276.668 487.159C260.488 487.228 244.438 482.505 228.827 476.902C222.11 474.898 215.492 472.374 208.946 469.878L208.945 469.877C206.027 468.764 203.123 467.657 200.231 466.604C196.681 465.33 193.131 464.058 189.579 462.789C181.207 459.788 172.843 456.765 164.484 453.727C159.649 451.971 154.813 450.219 149.975 448.47C137.25 443.898 124.534 439.297 111.826 434.676L106.787 432.843C97.3544 429.41 87.9303 425.954 78.512 422.482C73.6288 420.693 68.7367 418.93 63.8438 417.168C60.6175 415.991 57.3914 414.814 54.1655 413.636L49.6964 412.047C35.3385 406.762 25.8583 400.118 18.5622 386.412C14.0043 375.815 11.126 365.729 10.5173 354.194L10.2466 349.206L10.2444 349.173L10.0593 345.558L9.96662 343.752L9.96444 343.705L9.65692 337.97C9.37691 332.733 9.1041 327.497 8.83323 322.26C8.66253 318.966 8.49028 315.672 8.31752 312.378C7.71132 300.82 7.11106 289.261 6.51612 277.702C5.96763 267.048 5.40628 256.394 4.8386 245.741C4.34784 236.52 3.86671 227.298 3.39242 218.076C3.11082 212.604 2.82583 207.132 2.53094 201.66C1.3781 180.193 0.396431 158.717 0.164351 137.219C0.128456 134.311 0.0652153 131.404 0.000911522 128.496C-0.00649703 126.733 0.0311959 125.019 0.116156 123.348L0.0938719 119.772C0.258637 118.647 0.450565 117.74 0.701603 116.968C2.43797 104.205 7.50345 93.8761 17.0707 83.194L19.5446 80.3525C29.5957 69.5191 43.0889 63.1557 56.2993 56.9256L57.2134 56.4944L61.5708 54.4256C84.081 43.8294 106.873 33.8408 129.659 23.855L130.591 23.4467L133.763 22.0546C140.477 19.1089 147.2 16.1838 153.929 13.271L158.963 11.0746C163.423 9.15838 167.905 7.32028 172.414 5.52251L175.878 4.04997C199.225 -4.58563 224.906 2.34308 248.015 8.578L248.016 8.5782L248.017 8.5784L248.028 8.58146C248.838 8.79985 249.644 9.01739 250.447 9.23337ZM159.624 72.6447C157.477 68.257 157.477 68.257 155.254 66.1915C136.575 53.275 107.923 52.1848 87.274 60.7886C80.8192 64.1823 77.4063 66.4928 75.0445 73.5782C75.3246 78.7128 75.3246 78.7127 77.863 81.8135C87.2863 89.6947 99.2473 91.3985 111.188 91.4061L115.747 91.3157C129.839 91.4145 143.066 90.5517 154.77 81.9802C158.299 78.5857 158.906 77.6722 159.624 72.6447ZM77.2609 164.898L77.261 164.898C77.9218 165.141 78.5826 165.384 79.2438 165.626L84.3083 167.38C101.924 173.739 101.924 173.739 106.69 183.271C106.901 186.92 107.026 190.532 107.087 194.184L107.161 197.603C107.214 200.066 107.263 202.53 107.31 204.994C107.386 208.949 107.47 212.903 107.558 216.857C107.804 228.108 108.032 239.36 108.258 250.611C108.424 258.832 108.6 267.052 108.785 275.272L108.877 279.374C109.354 300.053 110.255 320.676 111.683 341.311C112.058 346.883 112.379 352.454 112.665 358.031L112.844 361.087C113.011 364.152 113.122 367.214 113.219 370.281L113.443 375.751C112.665 380.437 112.665 380.437 109.172 384.024C104.319 386.938 101.818 387.083 96.2344 386.411C91.9973 385.248 91.9973 385.248 87.6749 383.628L82.9226 381.851L78.0302 379.97L73.0853 378.141C58.1986 372.5 58.1986 372.5 54.3303 365.732C52.8614 362.384 52.4601 360.022 52.2849 356.391L52.0886 352.733L51.9166 348.757L51.7018 344.537C51.4701 339.92 51.2574 335.302 51.0447 330.684C50.8863 327.452 50.7267 324.221 50.5659 320.989C50.1446 312.454 49.7394 303.918 49.3375 295.381C48.9623 287.468 48.5743 279.554 48.1862 271.641L48.0894 269.668C47.2621 252.74 46.4523 235.811 45.6506 218.882C45.4444 214.536 45.2372 210.19 45.0296 205.845L44.8244 201.547C44.6972 198.884 44.5699 196.221 44.4424 193.558C43.3983 171.677 43.1991 167.503 44.839 164.258C45.2256 163.493 45.7145 162.78 46.3186 161.898C50.1254 159.235 52.4554 158.491 57.088 158.774C64.0413 160.034 70.6488 162.465 77.2609 164.898ZM174.712 199.376C181.592 199.471 187.415 201.164 193.872 203.412L197.316 204.574C199.696 205.384 202.073 206.203 204.447 207.031C208.085 208.294 211.736 209.513 215.39 210.729C217.71 211.523 220.028 212.321 222.345 213.121L225.65 214.215C233.154 216.884 233.154 216.884 235.853 220.894L236.64 223.6C230.699 231.447 224.534 239.071 218.156 246.565C211.937 253.877 205.737 261.199 199.718 268.679C197.236 271.748 194.72 274.759 192.157 277.758C190.771 279.433 189.386 281.109 188.002 282.787L184.169 287.326C180.545 293.788 180.093 298.597 181.374 305.752C184.378 313.601 188.189 320.988 192.037 328.449L192.116 328.601C193.232 330.811 194.345 333.023 195.456 335.236C198.383 341.045 201.341 346.838 204.307 352.628C206.965 357.832 209.597 363.049 212.229 368.266L213.188 370.167C217.546 378.789 221.913 387.406 226.31 396.008L227.793 398.919C230.188 403.597 232.643 408.224 235.238 412.794L238.145 417.949L240.754 422.449C242.818 427.209 242.98 430.569 242.615 435.703C234.869 436.06 229.206 435.079 221.978 432.319L219.173 431.256C217.231 430.516 215.292 429.768 213.356 429.011C210.418 427.865 207.469 426.749 204.517 425.638C182.778 417.305 174.635 408.451 165.13 387.812C159.049 374.837 152.764 361.99 146.304 349.202C142.024 340.712 137.796 332.196 133.576 323.677L132.184 320.872C129.113 314.673 126.104 308.447 123.12 302.205L120.755 297.422C116.501 288.385 114.342 282.643 117.146 272.891C119.55 268.422 119.55 268.422 122.747 264.116L124.528 261.67C125.826 259.889 127.135 258.116 128.453 256.349C131.263 252.566 134.014 248.743 136.766 244.918L136.766 244.918L136.767 244.918L136.767 244.917L136.767 244.917L136.768 244.917L136.768 244.916L136.768 244.916L137.57 243.801C140.03 240.386 142.501 236.979 144.971 233.571C150.86 225.429 156.646 217.216 162.413 208.988L162.413 208.988C166.553 203.093 168.056 200.953 170.1 200.083C171.265 199.588 172.606 199.505 174.712 199.376ZM273.308 66.1913C274.14 66.9837 274.654 67.4721 275.091 68.0208C275.794 68.9024 276.302 69.9397 277.625 72.6435L277.625 72.6441L277.625 72.6445C276.761 78.6953 274.26 80.5912 269.581 84.1389L269.358 84.3081C254.299 94.2337 228.754 93.0044 211.682 89.5359C207.81 88.1837 204.365 86.6911 200.794 84.6873L195.94 81.98C194.757 80.5015 194.109 79.692 193.72 78.7731C193.249 77.6612 193.157 76.3892 192.952 73.5781C195.385 66.6456 198.887 63.8972 205.275 60.7884C225.77 52.2972 254.83 53.2256 273.308 66.1913ZM355.741 57.3347L351 57.4281C336.132 57.4994 319.641 58.2742 311.324 72.7383C311.273 74.4402 311.242 75.4502 311.515 76.3705C311.913 77.714 312.957 78.8661 315.525 81.7004C328.604 89.9064 341.609 91.4951 356.666 90.9542L362.109 90.6625C370.351 90.2334 377.126 88.5191 384.515 84.6878C389.232 81.6679 392.925 79.0591 394.597 73.4851C393.477 69.7509 393.477 69.7509 389.929 65.83C379.89 58.3763 367.883 57.2743 355.741 57.3347ZM403.934 166.84C408.789 171.321 409.644 177.077 410.56 183.237C410.65 183.844 410.741 184.454 410.836 185.068L411.474 188.88C411.936 191.645 412.39 194.41 412.838 197.177C414.078 204.83 415.37 212.473 416.665 220.117L417.516 225.152C419.907 239.163 422.517 253.126 425.184 267.086L426.431 273.633C428.287 283.36 430.152 293.084 432.043 302.804C432.64 305.887 433.231 308.97 433.819 312.054C434.545 315.856 435.281 319.656 436.03 323.454L437.002 328.587L437.868 333.055C438.408 338.271 438.282 342.721 434.938 346.921L432.611 348.859L430.053 351.012L427.366 353.177L424.732 355.412C416.941 361.852 416.941 361.852 411.402 362.513C407.967 359.077 407.665 356.847 407.089 352.593C407.021 352.092 406.95 351.563 406.869 351.001L406.101 345.822L405.334 340.387C404.82 336.861 404.305 333.335 403.788 329.809L403.111 325.055C402.5 321.08 401.771 317.157 400.947 313.221L398.412 315.093C394.621 317.893 390.829 320.692 387.037 323.49L383.049 326.437L379.212 329.266L375.68 331.874C373.19 333.68 370.646 335.413 368.086 337.12C367.584 338.498 367.32 339.225 367.133 339.972C366.924 340.807 366.812 341.665 366.575 343.482L366.575 343.483L366.575 343.486L366.575 343.487L365.909 347.477L365.244 351.8L363.736 360.838C362.967 365.593 362.205 370.349 361.446 375.106C360.707 379.694 359.942 384.278 359.176 388.862L358.52 393.149C356.83 403.211 353.861 411.01 345.488 417.44L342.953 419.395L340.359 421.326L337.748 423.363L337.748 423.363C333.871 426.305 332.336 427.47 330.612 427.932C329.481 428.235 328.269 428.235 326.262 428.235C324.861 420.735 324.904 415.027 326.542 407.591L327.165 404.68C327.611 402.603 328.065 400.527 328.526 398.453C329.613 393.547 330.655 388.631 331.696 383.715L331.697 383.712L331.697 383.708L331.698 383.705C331.864 382.921 332.03 382.137 332.196 381.353L332.964 377.756C335.618 365.273 338.01 352.744 340.359 340.201L340.997 336.806C343.351 324.288 345.675 311.765 347.991 299.241C348.785 294.949 349.58 290.658 350.375 286.366C351.384 280.919 352.387 275.47 353.388 270.021C355.924 256.264 358.626 242.559 361.553 228.879C362.905 222.535 364.176 216.193 365.285 209.801L365.962 205.912C366.394 203.378 366.814 200.842 367.222 198.304C369.412 185.965 374.437 178.932 384.516 171.321L388.064 168.614C393.823 166.008 397.625 166.128 403.934 166.84Z" fill="#757575"/>
<path d="M387.502 221C391.789 228.584 392.416 236.964 393.757 245.459C394.041 247.138 394.325 248.817 394.617 250.547C394.878 252.176 395.139 253.805 395.408 255.483C395.647 256.963 395.886 258.442 396.132 259.966C396.496 264.742 396.118 268.633 394.97 273.279C391.662 276.441 391.662 276.441 387.595 279.067C386.257 279.956 384.919 280.846 383.54 281.763C380.033 283.735 380.033 283.735 377.046 283.735C376.902 276.764 377.339 270.334 378.575 263.477C378.898 261.671 379.222 259.864 379.555 258.004C380.069 255.214 380.069 255.214 380.593 252.367C381.09 249.577 381.09 249.577 381.597 246.731C383.178 238.008 384.81 229.453 387.502 221Z" fill="#757575"/>
<path d="M1234.42 162.359C1238.62 162.319 1242.82 162.29 1247.02 162.266C1248.22 162.254 1249.42 162.241 1250.66 162.228C1253.71 162.215 1256.76 162.281 1259.81 162.359C1261.31 163.853 1261.31 163.853 1261.5 168.521C1261.5 170.431 1261.5 172.341 1261.49 174.309C1261.5 177.174 1261.5 177.174 1261.5 180.097C1261.31 184.765 1261.31 184.765 1259.81 186.258C1255.81 186.407 1251.86 186.466 1247.86 186.445C1246.18 186.454 1246.18 186.454 1244.47 186.463C1236.1 186.447 1236.1 186.447 1234.42 184.765C1234.31 180.985 1234.28 177.247 1234.33 173.469C1234.33 172.407 1234.34 171.345 1234.35 170.251C1234.36 167.62 1234.39 164.99 1234.42 162.359Z" fill="#757575"/>
<path d="M1435.82 199.357C1437.19 199.358 1438.57 199.358 1439.98 199.359C1442.87 199.363 1445.75 199.375 1448.64 199.394C1453.07 199.421 1457.51 199.424 1461.94 199.424C1464.75 199.431 1467.55 199.44 1470.36 199.45C1472.36 199.453 1472.36 199.453 1474.4 199.455C1483.69 199.528 1483.69 199.528 1485.36 201.195C1485.71 204.451 1485.71 204.451 1485.82 208.476C1485.91 210.458 1485.91 210.458 1485.99 212.479C1485.36 216.132 1485.36 216.132 1482.34 218.851C1481.36 219.432 1480.39 220.014 1479.38 220.613C1480.12 222.091 1480.12 222.091 1480.88 223.6C1482.85 248.209 1482.85 248.209 1475.81 257.144C1463.54 268.935 1449.29 270.384 1432.86 270.108C1427.38 269.846 1422.06 269.244 1416.65 268.41C1416.15 270.382 1415.66 272.354 1415.15 274.385C1416.83 274.747 1418.52 275.109 1420.25 275.482C1471.94 286.716 1471.94 286.716 1480.04 296.884C1484.74 305.732 1485.22 314.341 1482.37 323.863C1479.41 330.929 1474.18 335.202 1467.43 338.613C1457.55 341.807 1448.18 342.148 1437.84 342.161C1436.32 342.198 1434.8 342.234 1433.24 342.272C1420.5 342.321 1409.58 339.614 1398.72 332.825C1390.73 324.336 1390.51 315.82 1390.69 304.685C1391.22 300.099 1391.68 298.024 1394.43 294.457C1395.35 293.255 1396.28 292.054 1397.23 290.816C1396.38 286.761 1396.38 286.761 1394.24 283.347C1392.1 276.907 1392.07 270.667 1392.75 263.929C1394 261.896 1394 261.896 1395.27 259.822C1395.92 258.713 1396.56 257.604 1397.23 256.461C1396.2 254.526 1396.2 254.526 1395.16 252.552C1392.23 246.405 1391.94 241.701 1392 234.989C1392.01 233.862 1392.02 232.736 1392.03 231.575C1392.31 222.794 1393.73 216.462 1400.22 210.157C1410.78 200.472 1422 199.244 1435.82 199.357ZM1421.13 223.6C1417.46 229.561 1416.47 232.692 1417.39 239.657C1420.02 245.356 1421.5 246.386 1427.1 248.993C1432.19 249.754 1432.19 249.754 1437.56 249.646C1440.24 249.689 1440.24 249.689 1442.97 249.734C1448.89 248.864 1451.32 247.238 1455.48 243.018C1457.7 236.204 1456.87 231.58 1453.99 225.094C1451.03 221.365 1449.67 220.666 1445.03 219.119C1436.27 218.335 1428.4 218.105 1421.13 223.6ZM1419.63 296.79C1418.86 298.937 1418.1 301.089 1417.35 303.244C1416.92 304.441 1416.5 305.639 1416.06 306.873C1414.86 310.363 1414.86 310.363 1415.9 314.528C1418.77 318.594 1421.1 320.026 1425.61 322.183C1429.74 322.615 1433.45 322.811 1437.56 322.743C1438.6 322.76 1439.65 322.778 1440.72 322.796C1447.35 322.758 1451.8 321.929 1456.98 317.702C1458.22 313.221 1458.22 313.221 1456.98 308.74C1450.37 303.44 1442.17 302.132 1434.1 300.245C1432.71 299.909 1431.32 299.573 1429.89 299.226C1426.47 298.403 1423.06 297.592 1419.63 296.79Z" fill="#757575"/>
<path d="M1128.56 197.554C1129.57 197.54 1130.59 197.525 1131.64 197.51C1138.62 197.626 1143.22 199.361 1149.28 202.689C1153.66 202.352 1157.24 201.033 1161.42 199.655C1167.8 198.058 1173.45 197.712 1179.99 197.741C1181.08 197.717 1182.17 197.693 1183.29 197.668C1190.48 197.662 1195.32 198.783 1201.56 202.689C1209.44 210.753 1212.4 218.099 1212.35 229.309C1212.35 230.983 1212.35 232.657 1212.35 234.381C1212.34 236.165 1212.32 237.948 1212.31 239.786C1212.3 241.63 1212.3 243.474 1212.29 245.373C1212.28 251.248 1212.24 257.122 1212.2 262.996C1212.18 266.985 1212.17 270.974 1212.16 274.963C1212.13 284.729 1212.08 294.494 1212.01 304.259C1208.06 304.299 1204.11 304.329 1200.16 304.352C1199.03 304.365 1197.9 304.377 1196.74 304.39C1193.87 304.403 1190.99 304.337 1188.12 304.259C1185.68 301.818 1186.4 299.042 1186.36 295.674C1186.34 294.164 1186.32 292.653 1186.3 291.097C1186.28 288.63 1186.28 288.63 1186.25 286.113C1186.21 282.667 1186.16 279.22 1186.11 275.774C1186.03 270.313 1185.97 264.852 1185.91 259.39C1185.85 254.139 1185.77 248.888 1185.69 243.637C1185.68 241.998 1185.67 240.36 1185.66 238.672C1185.63 237.152 1185.61 235.632 1185.58 234.066C1185.56 232.057 1185.56 232.057 1185.53 230.008C1185.34 226.174 1185.34 226.174 1182.14 222.107C1178.47 221.503 1178.47 221.503 1174.3 221.733C1172.83 221.772 1171.37 221.81 1169.86 221.85C1165.41 222.125 1161.11 222.657 1156.75 223.6C1157.49 225.079 1157.49 225.079 1158.24 226.588C1158.38 229.02 1158.43 231.459 1158.44 233.896C1158.44 235.416 1158.44 236.936 1158.45 238.502C1158.45 240.148 1158.44 241.795 1158.44 243.491C1158.44 245.174 1158.44 246.857 1158.44 248.591C1158.45 252.153 1158.44 255.715 1158.44 259.278C1158.43 264.752 1158.44 270.227 1158.45 275.701C1158.45 279.154 1158.44 282.608 1158.44 286.061C1158.44 287.71 1158.45 289.359 1158.45 291.058C1158.44 293.331 1158.44 293.331 1158.44 295.65C1158.43 296.991 1158.43 298.332 1158.43 299.714C1158.24 302.765 1158.24 302.765 1156.75 304.259C1152.72 304.368 1148.73 304.397 1144.71 304.352C1143.57 304.346 1142.44 304.339 1141.27 304.332C1138.46 304.314 1135.66 304.288 1132.85 304.259C1132.81 302.301 1132.77 300.343 1132.74 298.326C1132.59 291.004 1132.45 283.683 1132.29 276.362C1132.23 273.204 1132.17 270.046 1132.11 266.888C1132.02 262.327 1131.92 257.766 1131.83 253.206C1131.8 251.812 1131.78 250.419 1131.75 248.984C1131.55 239.963 1130.89 231.071 1129.86 222.107C1127.31 222.025 1124.76 221.968 1122.21 221.92C1120.79 221.885 1119.37 221.851 1117.9 221.815C1113 222.135 1109.09 223.472 1104.47 225.094C1104.47 226.064 1104.48 227.033 1104.48 228.033C1104.51 238.087 1104.54 248.142 1104.55 258.197C1104.56 261.954 1104.57 265.711 1104.58 269.468C1104.6 274.855 1104.61 280.242 1104.62 285.629C1104.62 287.32 1104.63 289.011 1104.64 290.754C1104.64 293.086 1104.64 293.086 1104.64 295.466C1104.64 296.842 1104.65 298.219 1104.65 299.637C1104.47 302.765 1104.47 302.765 1102.98 304.259C1095.09 304.259 1087.2 304.259 1079.08 304.259C1079.08 269.755 1079.08 235.251 1079.08 199.701C1086.96 199.701 1094.85 199.701 1102.98 199.701C1103.47 201.18 1103.96 202.659 1104.47 204.182C1105.95 203.197 1107.43 202.211 1108.95 201.195C1115.35 197.97 1121.5 197.587 1128.56 197.554Z" fill="#757575"/>
<path d="M577.199 166.84C585.579 166.84 593.958 166.84 602.592 166.84C605.664 169.912 604.47 176.333 604.558 180.569C604.589 181.793 604.62 183.018 604.652 184.28C604.75 188.206 604.838 192.133 604.926 196.06C604.99 198.716 605.055 201.372 605.121 204.027C605.281 210.551 605.433 217.075 605.579 223.6C606.51 222.284 607.441 220.968 608.4 219.613C616.47 208.241 624.705 197.029 633.212 185.978C635.283 183.281 637.352 180.583 639.42 177.885C640.311 176.727 641.201 175.57 642.119 174.377C643.962 171.924 645.7 169.393 647.402 166.84C650.484 166.331 650.484 166.331 654.229 166.402C655.567 166.417 656.905 166.431 658.284 166.446C660.384 166.502 660.384 166.502 662.526 166.56C663.937 166.58 665.348 166.6 666.803 166.621C670.295 166.674 673.785 166.748 677.276 166.84C676.549 173.782 673.434 178.015 669.154 183.27C667.786 184.997 666.419 186.724 665.052 188.452C664.352 189.328 663.651 190.204 662.929 191.106C659.692 195.176 656.537 199.306 653.377 203.435C652.152 205.028 650.927 206.621 649.701 208.214C649.087 209.012 648.474 209.809 647.841 210.631C639.407 221.597 639.407 221.597 630.972 232.562C637.12 242.712 643.782 252.38 650.763 261.969C657.334 271.009 663.878 280.064 670.274 289.228C670.982 290.226 671.69 291.224 672.42 292.252C677.276 299.258 677.276 299.258 677.276 304.259C666.383 306.14 655.151 307.484 644.415 304.259C634.439 297.215 628.832 285.53 622.943 275.132C621.233 272.319 619.512 269.512 617.78 266.712C613.585 259.881 609.531 252.98 605.579 246.005C605.542 247.717 605.504 249.428 605.466 251.192C605.325 257.519 605.176 263.846 605.023 270.173C604.958 272.916 604.896 275.659 604.836 278.402C604.75 282.336 604.655 286.269 604.558 290.203C604.521 292.054 604.521 292.054 604.482 293.942C604.256 302.595 604.256 302.595 602.592 304.259C594.212 304.259 585.833 304.259 577.199 304.259C577.199 258.91 577.199 213.562 577.199 166.84Z" fill="#757575"/>
<path d="M741.411 164.693C742.957 164.649 742.957 164.649 744.535 164.603C752.255 164.61 756.697 166.173 762.416 171.322C769.448 182.872 772.146 196.045 775.509 209.008C776.169 211.518 776.83 214.028 777.492 216.538C778.871 221.778 780.241 227.02 781.604 232.263C783.35 238.977 785.116 245.686 786.888 252.393C788.254 257.567 789.61 262.743 790.963 267.92C791.611 270.395 792.261 272.869 792.914 275.343C793.824 278.797 794.722 282.254 795.616 285.712C795.886 286.728 796.156 287.744 796.435 288.79C797.838 294.274 798.264 298.483 798.264 304.259C789.391 304.259 780.519 304.259 771.378 304.259C766.958 291.843 762.416 278.694 762.416 265.424C748.614 265.424 734.812 265.424 720.592 265.424C720.1 269.367 719.607 273.31 719.099 277.373C718.57 279.738 717.987 282.092 717.319 284.421C716.87 286.014 716.87 286.014 716.412 287.639C715.847 289.581 715.847 289.581 715.271 291.563C714.07 295.753 712.868 299.943 711.63 304.259C702.758 304.259 693.885 304.259 684.744 304.259C685.671 291.156 689.047 278.736 692.329 266.071C692.946 263.674 693.562 261.278 694.178 258.881C695.467 253.876 696.764 248.873 698.065 243.872C699.725 237.491 701.356 231.103 702.981 224.713C704.243 219.767 705.524 214.825 706.81 209.885C707.42 207.533 708.022 205.179 708.618 202.823C715.577 175.371 715.577 175.371 725.546 166.881C730.857 164.848 735.804 164.636 741.411 164.693ZM740.01 187.752C736.128 201.355 732.35 214.968 729.088 228.735C728.832 229.803 728.577 230.87 728.313 231.97C727.314 236.261 726.567 240.089 726.567 244.512C736.426 244.512 746.284 244.512 756.441 244.512C754.351 232.408 751.776 220.505 748.879 208.57C748.478 206.888 748.076 205.207 747.663 203.474C745.921 195.407 745.921 195.407 742.998 187.752C742.012 187.752 741.026 187.752 740.01 187.752Z" fill="#757575"/>
<path d="M927.28 165.16C929.034 165.297 930.788 165.434 932.595 165.575C945.493 166.626 945.493 166.626 950.619 168.334C950.619 175.235 950.619 182.136 950.619 189.246C947.397 189.194 944.176 189.142 940.857 189.088C937.708 189.053 934.559 189.026 931.41 189C929.235 188.977 927.061 188.947 924.887 188.908C921.746 188.853 918.606 188.828 915.465 188.808C913.58 188.785 911.694 188.761 909.752 188.737C903.349 189.336 899.537 190.751 893.859 193.727C881.337 209.633 883.687 235.154 885.363 254.332C886.611 263.206 888.27 270.273 893.859 277.373C900.968 282.164 906.645 282.037 915.155 281.953C917.983 281.932 917.983 281.932 920.868 281.91C923.025 281.882 923.025 281.882 925.226 281.854C925.218 280.369 925.21 278.883 925.202 277.353C925.175 271.861 925.158 266.369 925.144 260.877C925.137 258.496 925.126 256.115 925.113 253.735C925.095 250.32 925.087 246.906 925.08 243.491C925.073 242.421 925.065 241.35 925.057 240.247C925.057 237.685 925.134 235.123 925.226 232.563C927.848 229.94 931.254 230.871 934.742 230.865C935.792 230.871 936.841 230.876 937.922 230.882C938.972 230.876 940.021 230.871 941.102 230.865C948.936 230.88 948.936 230.88 950.619 232.563C950.758 234.764 950.794 236.971 950.788 239.177C950.788 240.582 950.788 241.987 950.788 243.435C950.78 244.963 950.772 246.491 950.765 248.065C950.762 249.622 950.76 251.178 950.758 252.781C950.75 257.773 950.731 262.765 950.712 267.758C950.705 271.133 950.698 274.508 950.692 277.884C950.675 286.178 950.65 294.472 950.619 302.766C938.887 305.636 927.88 306.4 915.797 306.5C913.942 306.562 912.087 306.623 910.176 306.687C895.332 306.811 883.59 303.464 872.249 293.578C857.345 278.643 856.216 259.193 856.158 239.201C856.144 236.248 856.097 233.295 856.05 230.343C855.969 210.162 858.492 193.03 872.107 177.67C888.845 162.973 906.182 163.341 927.28 165.16Z" fill="#757575"/>
<path d="M1010.93 197.834C1012.57 197.803 1014.21 197.772 1015.9 197.74C1027.51 197.685 1035.81 199.052 1045.84 205.209C1054.54 214.153 1055.86 222.689 1055.85 234.719C1055.82 236.487 1055.79 238.255 1055.76 240.077C1055.75 241.917 1055.74 243.756 1055.73 245.652C1055.7 251.496 1055.63 257.339 1055.55 263.182C1055.52 267.158 1055.49 271.133 1055.47 275.108C1055.4 284.826 1055.3 294.542 1055.18 304.259C1051.5 304.339 1047.83 304.398 1044.16 304.445C1043.12 304.47 1042.07 304.495 1041 304.521C1038.25 304.548 1035.51 304.413 1032.77 304.259C1031.29 302.78 1031.29 302.78 1029.78 301.271C1028.34 302.011 1026.89 302.75 1025.4 303.512C1014.38 307.611 999.422 308.23 988.299 304.282C981.201 300.007 977.133 295.322 974.237 287.548C971.779 276.013 972.283 265.703 977.505 254.967C983.861 247.065 991.434 242.975 1001.4 241.524C1006.29 241.35 1011.17 241.383 1016.06 241.431C1017.38 241.437 1018.7 241.444 1020.06 241.451C1023.3 241.469 1026.54 241.495 1029.78 241.524C1029.61 239.127 1029.42 236.731 1029.22 234.336C1029.07 232.334 1029.07 232.334 1028.91 230.292C1028.49 226.223 1028.49 226.223 1025.3 222.106C1020.38 220.464 1016.8 220.465 1011.61 220.519C1009.82 220.531 1008.02 220.542 1006.16 220.554C1003.35 220.583 1003.35 220.583 1000.47 220.612C996.748 220.65 993.025 220.682 989.302 220.706C987.649 220.723 985.996 220.74 984.293 220.758C980.492 220.612 980.492 220.612 978.998 219.119C978.773 216.418 978.667 213.707 978.625 210.997C978.586 209.52 978.548 208.043 978.508 206.522C978.67 205.257 978.832 203.992 978.998 202.688C988.31 196.48 1000.1 197.884 1010.93 197.834ZM1001.79 262.774C999.155 266.485 999.314 269.219 999.35 273.732C999.338 275.181 999.327 276.631 999.315 278.125C999.511 279.355 999.708 280.586 999.91 281.853C1004.84 285.138 1006.57 285.284 1012.33 285.308C1013.71 285.333 1015.09 285.358 1016.51 285.383C1021.83 284.956 1021.83 284.956 1029.78 280.36C1029.78 272.966 1029.78 265.572 1029.78 257.954C1020.56 257.619 1009.65 257.228 1001.79 262.774Z" fill="#757575"/>
<path d="M1337.76 197.554C1338.92 197.54 1340.07 197.525 1341.26 197.51C1348.53 197.617 1353.59 198.716 1359.89 202.689C1372.36 215.726 1372.07 229.479 1372.04 246.554C1372.04 248.16 1372.04 249.766 1372.04 251.421C1372.04 254.798 1372.04 258.175 1372.03 261.552C1372.02 266.744 1372.03 271.936 1372.04 277.128C1372.04 280.411 1372.04 283.694 1372.04 286.977C1372.04 288.537 1372.04 290.098 1372.05 291.705C1372.04 293.853 1372.04 293.853 1372.03 296.043C1372.03 297.308 1372.03 298.574 1372.03 299.878C1371.84 302.765 1371.84 302.765 1370.34 304.259C1366.32 304.368 1362.33 304.397 1358.3 304.352C1357.17 304.346 1356.04 304.339 1354.87 304.332C1352.06 304.314 1349.25 304.288 1346.45 304.259C1346.4 301.39 1346.4 301.39 1346.36 298.463C1346.24 291.308 1346.11 284.154 1345.97 277C1345.91 273.915 1345.86 270.829 1345.82 267.743C1345.75 263.286 1345.66 258.829 1345.57 254.372C1345.55 253.012 1345.54 251.651 1345.52 250.25C1345.31 241.251 1344.69 232.234 1341.96 223.6C1337.49 219.942 1333.4 220.502 1327.87 220.893C1321.87 221.526 1317.42 223.851 1312.09 226.588C1312.08 227.539 1312.06 228.49 1312.04 229.47C1311.88 239.331 1311.71 249.191 1311.53 259.052C1311.47 262.737 1311.41 266.421 1311.35 270.106C1311.26 275.389 1311.17 280.673 1311.07 285.956C1311.04 287.614 1311.02 289.273 1310.99 290.982C1310.96 292.507 1310.93 294.032 1310.9 295.603C1310.88 296.953 1310.86 298.303 1310.83 299.694C1310.6 302.765 1310.6 302.765 1309.1 304.259C1301.22 304.259 1293.33 304.259 1285.2 304.259C1285.2 269.755 1285.2 235.251 1285.2 199.701C1293.09 199.701 1300.98 199.701 1309.1 199.701C1309.6 201.18 1310.09 202.659 1310.6 204.182C1312.26 203.197 1313.92 202.211 1315.64 201.195C1323.01 197.892 1329.82 197.586 1337.76 197.554Z" fill="#757575"/>
<path d="M1235.91 199.701C1243.8 199.701 1251.69 199.701 1259.81 199.701C1259.81 234.205 1259.81 268.71 1259.81 304.259C1251.93 304.259 1244.04 304.259 1235.91 304.259C1233.15 301.499 1234.23 296.988 1234.23 293.296C1234.22 291.813 1234.22 291.813 1234.22 290.3C1234.21 287.018 1234.22 283.736 1234.22 280.454C1234.22 278.182 1234.22 275.911 1234.22 273.639C1234.22 268.872 1234.22 264.106 1234.23 259.339C1234.23 253.216 1234.23 247.093 1234.22 240.97C1234.21 236.277 1234.22 231.585 1234.22 226.893C1234.22 224.635 1234.22 222.376 1234.22 220.118C1234.21 216.967 1234.22 213.816 1234.23 210.665C1234.23 208.868 1234.23 207.072 1234.23 205.221C1234.42 201.195 1234.42 201.195 1235.91 199.701Z" fill="#757575"/>
</svg>
