<svg width="2035" height="441" viewBox="0 0 2035 441" fill="none" xmlns="http://www.w3.org/2000/svg">
<path d="M50.4176 292.91C71.8342 292.561 93.26 292.745 114.677 292.8C118.89 292.837 123.361 292.396 127.235 294.407C133.504 297.289 138.058 304.403 136.479 311.389C128.602 347.218 120.543 383.02 112.547 418.83C109.839 431.003 97.5653 439.641 85.3194 439.439C62.6819 439.384 40.0351 439.467 17.3976 439.393C9.17246 439.412 0.28636 433.123 0.864691 424.201V422.264C1.25943 416.187 2.87508 410.311 4.17862 404.39C10.8799 374.657 17.5537 344.923 24.1907 315.181C26.0909 302.733 37.9421 292.974 50.4176 292.91ZM1859.4 1.15596C1868.32 -0.34036 1877.4 0.201252 1886.41 0.136993C1932.31 0.127813 1978.21 0.173712 2024.11 0.100273C2028.54 0.0451941 2032.93 2.82669 2034.63 6.94845C2035.3 9.59225 2034.94 12.3737 2034.54 15.0359C2014.9 102.814 1994.83 190.518 1974.91 278.232C1973.07 285.695 1965.93 292.038 1958.03 291.561C1949.14 291.57 1940.26 291.634 1931.38 291.533C1925.49 291.542 1920.92 285.208 1922.01 279.599C1928.36 251.784 1934.35 223.878 1941.02 196.127C1941.99 191.555 1942.76 186.158 1939.79 182.146C1937.52 178.86 1933.33 177.758 1929.54 177.804C1910.26 177.712 1890.97 178.061 1871.68 177.694C1864.19 177.574 1859.74 168.514 1862.57 162.033C1869.56 145.335 1882.5 131.106 1898.68 122.927C1913.82 115.032 1931.21 113.912 1947.95 113.756C1954.62 113.912 1960.87 108.771 1962.26 102.281C1966.02 84.8671 1970.63 67.6181 1973.6 50.0295C1975.03 43.6036 1968.77 37.701 1962.55 37.9396C1937.78 37.8203 1912.99 37.9305 1888.22 37.8938C1881.75 37.6551 1875.41 41.2719 1872.22 46.8625C1870.6 49.5246 1870.17 52.6641 1869.5 55.6476C1853.24 128.526 1836.41 201.286 1819.99 274.128C1819.21 279.967 1816.47 285.732 1811.36 288.963C1807.84 291.515 1803.38 291.79 1799.2 291.588C1784.21 291.533 1769.23 291.579 1754.25 291.552C1748.77 291.855 1743.97 286.695 1744.06 281.353C1744.2 279.223 1744.8 277.167 1745.27 275.101C1758.95 213.725 1773.22 152.477 1787.04 91.1278C1791.3 73.8145 1793.42 55.4824 1802.71 39.8858C1814.04 18.9373 1835.84 4.29547 1859.4 1.15596ZM1609.64 38.674C1603.47 40.0877 1598.12 44.9714 1596.45 51.1219C1583.98 107.551 1571.03 163.878 1558.3 220.252C1556.32 228.578 1553.74 236.904 1553.75 245.533C1554.15 250.692 1559.36 254.281 1564.25 254.447C1588.09 254.575 1611.93 254.41 1635.77 254.529C1638.81 254.511 1641.97 254.832 1644.91 253.813C1650.69 252.005 1655.47 247.02 1656.63 241.026C1660.18 224.493 1664.22 208.07 1667.59 191.5C1668.64 185.855 1665.1 178.593 1658.78 178.382C1638.26 177.905 1617.72 178.373 1597.21 178.235C1591.15 178.382 1585.05 172.957 1585.8 166.669C1587.28 156.911 1593.24 148.63 1599.46 141.268C1613.59 124.129 1635.92 115.289 1657.78 114.619C1665.54 114.445 1673.87 115.445 1681 111.681C1684.38 109.91 1686.91 106.633 1687.63 102.86C1691.21 87.7404 1694.7 72.5844 1698.1 57.4193C1698.92 52.7927 1700.72 47.3949 1697.72 43.1722C1694.64 38.5731 1688.57 37.9029 1683.51 38.0682C1658.89 38.5822 1634.22 37.3705 1609.64 38.674ZM1585.27 1.83527C1597.46 0.109453 1609.81 0.715324 1622.08 0.28387C1664.89 0.237971 1707.69 0.32059 1750.48 0.237971C1755.82 0.403209 1760.88 5.1033 1760.85 10.5653C1760.63 13.0531 1759.82 15.4306 1759.28 17.8541C1754.21 38.9035 1749.89 60.1182 1745.03 81.2135C1742.48 92.0366 1739.39 102.823 1734.44 112.811C1727.74 127.379 1714.46 137.973 1700.01 144.288C1711.64 152.513 1718.28 166.403 1719.4 180.402C1720.36 189.389 1718.36 198.303 1716.72 207.088C1713.25 224.419 1708.67 241.806 1699.89 257.274C1687.78 278.507 1663.63 291.414 1639.48 292.148C1586.54 292.157 1533.6 292.148 1480.66 292.157C1475.64 292.13 1470.99 288.1 1470.26 283.152C1469.94 279.682 1471.29 276.377 1471.98 273.045C1485.8 210.925 1500.31 148.97 1514.13 86.8499C1517 75.623 1518.53 64.038 1522.45 53.0864C1527.78 39.0596 1536.67 26.2262 1548.63 17.0371C1559.16 8.75688 1572.03 3.69878 1585.27 1.83527ZM1311.24 1.11006C1320.22 -0.257741 1329.32 0.127813 1338.38 0.045194C1383.95 -0.0466046 1429.52 0.0268343 1475.09 0.045194C1479.65 -0.000705296 1484.45 2.47786 1486.36 6.76485C1487.46 9.12407 1486.96 11.8046 1486.63 14.2832C1467.65 99.4172 1448.29 184.478 1428.99 269.547C1427.63 276.423 1426.41 284.456 1420.03 288.596C1415.69 292.258 1409.72 291.726 1404.43 291.68C1396.8 291.396 1389.14 292.139 1381.54 291.322C1376.48 290.193 1373.38 284.41 1374.33 279.489C1390.54 206.353 1407.68 133.419 1423.9 60.2834C1424.88 55.721 1426.21 51.1036 1425.84 46.3943C1425.6 43.8056 1424.47 41.0424 1422.11 39.7297C1414.49 35.2132 1402.93 39.5737 1400.95 48.4139C1391.93 87.1253 1383.48 125.965 1374.51 164.686C1372.4 173.177 1363.2 178.089 1354.89 177.758C1346.93 177.253 1338.93 177.997 1330.98 177.244C1325.17 176.666 1320.64 170.322 1322.25 164.631C1330.59 126.635 1339.08 88.6676 1347.92 50.7823C1348.94 46.789 1347.76 41.887 1344.09 39.6379C1337.22 36.0302 1327.46 38.3252 1323.57 45.2376C1321.19 49.2768 1320.37 53.9585 1319.35 58.4658C1303.04 131.675 1286.19 204.765 1269.77 277.947C1268.17 285.612 1260.86 291.809 1252.97 291.717C1236.74 291.524 1220.5 291.726 1204.27 291.643C1198.5 291.405 1193.65 285.227 1195.1 279.563C1211.23 206.794 1228.25 134.218 1244.44 61.4676C1249 43.1722 1259.67 26.2078 1275.05 15.1277C1285.61 7.36154 1298.32 2.90013 1311.24 1.11006ZM1036.52 0.641885C1047.76 -0.33118 1059.08 0.375669 1070.35 0.173712C1112.85 0.192072 1155.34 0.182892 1197.83 0.155352C1202.1 0.30223 1206.26 3.09291 1207.82 7.10451C1208.88 12.3187 1207.08 17.5236 1205.97 22.5634C1187.16 106.917 1167.79 191.142 1148.74 275.441C1147.81 283.152 1141.75 290.579 1133.78 291.368C1124.26 291.845 1114.72 291.478 1105.2 291.542C1098.72 292.001 1093.64 284.823 1095.34 278.782C1100.88 254.548 1106.24 230.285 1111.77 206.05C1113.3 199.771 1115.48 193.456 1114.9 186.901C1114.42 181.77 1109.42 177.813 1104.38 177.832C1084.46 177.611 1064.52 178.107 1044.59 177.639C1037.67 177.299 1033.11 169.147 1035.56 162.896C1043.81 141.663 1062.18 124.552 1084.06 118.107C1096.22 114.233 1109.12 114.096 1121.77 113.765C1128.2 113.618 1134.08 108.606 1135.43 102.355C1139.23 84.8763 1143.83 67.5631 1146.83 49.9285C1148.12 43.7872 1142.38 38.0314 1136.42 37.9488C1111.33 37.7469 1086.25 37.8938 1061.18 37.8754C1053.3 37.6092 1045.59 43.2548 1043.71 50.9383C1026.8 126.571 1009.39 202.094 992.354 277.699C990.72 285.245 983.679 291.763 975.747 291.57C959.82 291.542 943.902 291.597 927.984 291.552C921.357 292.258 915.592 285.052 917.593 278.746C932.831 210.732 948.621 142.838 963.924 74.8427C966.007 65.0202 968.266 55.1427 972.7 46.073C978.575 33.5609 987.406 22.2788 998.807 14.3658C1009.87 6.52617 1023.12 2.19328 1036.52 0.641885ZM809.849 0.733683C812.777 0.0727336 815.825 0.28387 818.808 0.118633C833.166 -0.00988511 847.532 0.192072 861.89 0.0635538C868.15 -0.202662 874.255 6.1957 872.437 12.5206C858.135 77.6976 842.997 142.691 828.438 207.813C827.226 212.302 826.18 217.186 828.016 221.675C829.154 225.117 832.477 227.788 836.195 227.614C856.079 227.853 875.981 227.522 895.864 227.77C902.942 227.596 909.423 235.059 907.091 242.035C901.721 256.071 892.027 268.409 879.809 277.148C866.415 286.741 849.836 291.157 833.505 291.625C805.048 291.845 776.59 291.864 748.133 291.79C741.78 292.185 735.96 285.649 737.475 279.379C757.487 190.711 778.087 102.162 797.722 13.4019C799.265 7.48088 804.139 2.71653 809.849 0.733683ZM576.001 1.11924C583.428 -0.156763 590.992 0.210432 598.492 0.164532C645.924 0.201252 693.357 0.173712 740.78 0.164532C745.516 0.29305 750.529 3.76304 751.079 8.7018C751.566 12.5757 750.4 16.3762 749.546 20.1032C730.893 103.511 711.845 186.819 692.943 270.163C691.741 275.716 690.942 281.867 686.848 286.163C683.497 289.762 678.641 291.772 673.73 291.643C664.862 291.533 655.976 291.818 647.118 291.506C640.939 291.056 636.772 284.336 638.397 278.507C644.951 250.132 651.074 221.647 657.821 193.318C659.602 186.965 655.967 178.336 648.669 177.988C628.262 177.409 607.846 178.226 587.439 177.63C580.637 177.18 576.203 169.157 578.553 162.969C583.767 149.42 593.158 137.569 604.899 129.068C615.153 121.577 627.39 117.015 639.939 115.271C648.109 114.123 656.371 114.013 664.605 113.774C671.141 113.71 677.154 108.615 678.485 102.254C682.074 86.4277 685.774 70.6291 689.115 54.748C689.758 51.0026 690.722 46.7707 688.666 43.2823C686.233 39.1055 681.083 37.5908 676.511 37.8387C651.726 37.9396 626.949 37.7102 602.173 37.9672C594.701 38.5547 587.926 44.4482 586.521 51.8471C569.722 127.131 552.363 202.296 535.417 277.552C533.829 285.227 526.65 291.836 518.609 291.57C502.37 291.533 486.121 291.625 469.873 291.533C464.044 291.542 459.178 285.309 460.445 279.654C475.693 211.035 491.804 142.618 507.079 74.0073C509.199 64.5153 511.513 54.9683 515.634 46.1097C520.5 36.0119 527.008 26.5658 535.61 19.277C546.929 9.45455 561.157 3.12045 576.001 1.11924ZM381.223 0.898921C383.518 0.31141 385.886 0.100273 388.246 0.127813C411.498 0.30223 434.742 0.0176544 457.985 0.27469C466.632 0.182892 474.334 8.31625 473.756 16.9453C473.462 19.6167 472.719 22.2146 472.168 24.84C465.54 54.9224 458.701 84.9681 451.981 115.032C448.071 132.667 437.899 148.64 424.276 160.399C404.402 177.015 380.599 188.315 355.942 195.861C335.985 202.076 315.477 206.262 294.997 210.301C293.05 210.769 290.948 211.32 289.553 212.853C288.617 214.652 290.094 216.745 291.967 217.039C297.622 218.507 303.497 218.755 309.244 219.655C327.548 222.574 345.587 228.064 361.835 237.097C370.951 242.265 379.8 248.232 386.703 256.209C399.766 271.007 407.009 291.396 404.127 311.132C398.545 347.227 388.934 382.533 381.526 418.27C379.681 427.129 372.86 434.565 364.488 437.778C359.228 439.99 353.436 439.357 347.882 439.421C326.768 439.393 305.645 439.485 284.522 439.366C275.177 439.669 266.851 430.085 268.935 420.859C273.883 397.524 279.455 374.317 284.467 351C287.129 338.048 289.314 324.746 287.937 311.499C285.835 299.731 282.393 287.21 273.222 278.911C262.096 269.593 249.262 261.992 235.153 258.238C222.182 254.502 208.403 253.501 196.019 247.837C190.869 245.368 185.664 242.421 182.231 237.712C174.777 227.651 174.309 213.082 180.689 202.369C183.929 196.696 189.63 193.033 195.386 190.307C206.053 185.396 217.849 184.019 229.324 182.1C251.925 178.584 275.196 175.61 295.896 165.228C309.813 158.701 323.417 149.989 331.964 136.889C334.819 132.465 337.013 127.59 338.261 122.468C346.11 88.539 353.481 54.5093 361.238 20.5622C363.432 10.8866 371.731 3.26732 381.223 0.898921ZM112.299 0.96318C116.393 -0.0649644 120.643 0.182892 124.82 0.155352C146.512 0.31141 168.204 -0.000705237 189.906 0.30223C199.067 0.256331 206.842 9.80338 204.85 18.7721C196.928 54.6286 188.795 90.4393 180.854 126.287C177.981 138.129 166.093 146.574 154.095 146.602C131.788 146.666 109.49 146.574 87.1829 146.648C81.014 146.684 74.3586 144.16 71.0723 138.67C68.4652 134.695 68.557 129.646 69.5576 125.167C77.0759 91.7244 84.5391 58.273 92.0115 24.8216C92.7367 21.627 93.2783 18.3498 94.7471 15.3847C98.1712 8.35297 104.827 3.10209 112.299 0.96318Z" fill="#868A8A"/>
<path d="M50.4176 292.91C71.8342 292.561 93.26 292.745 114.677 292.8C118.89 292.837 123.361 292.396 127.235 294.407C133.504 297.289 138.058 304.403 136.479 311.389C128.602 347.218 120.543 383.02 112.547 418.83C109.839 431.003 97.5653 439.641 85.3194 439.439C62.6819 439.384 40.0351 439.467 17.3976 439.393C9.17246 439.412 0.28636 433.123 0.864691 424.201V422.264C1.25943 416.187 2.87508 410.311 4.17862 404.39C10.8799 374.657 17.5537 344.923 24.1907 315.181C26.0909 302.733 37.9421 292.974 50.4176 292.91ZM1859.4 1.15596C1868.32 -0.34036 1877.4 0.201252 1886.41 0.136993C1932.31 0.127813 1978.21 0.173712 2024.11 0.100273C2028.54 0.0451941 2032.93 2.82669 2034.63 6.94845C2035.3 9.59225 2034.94 12.3737 2034.54 15.0359C2014.9 102.814 1994.83 190.518 1974.91 278.232C1973.07 285.695 1965.93 292.038 1958.03 291.561C1949.14 291.57 1940.26 291.634 1931.38 291.533C1925.49 291.542 1920.92 285.208 1922.01 279.599C1928.36 251.784 1934.35 223.878 1941.02 196.127C1941.99 191.555 1942.76 186.158 1939.79 182.146C1937.52 178.86 1933.33 177.758 1929.54 177.804C1910.26 177.712 1890.97 178.061 1871.68 177.694C1864.19 177.574 1859.74 168.514 1862.57 162.033C1869.56 145.335 1882.5 131.106 1898.68 122.927C1913.82 115.032 1931.21 113.912 1947.95 113.756C1954.62 113.912 1960.87 108.771 1962.26 102.281C1966.02 84.8671 1970.63 67.6181 1973.6 50.0295C1975.03 43.6036 1968.77 37.701 1962.55 37.9396C1937.78 37.8203 1912.99 37.9305 1888.22 37.8938C1881.75 37.6551 1875.41 41.2719 1872.22 46.8625C1870.6 49.5246 1870.17 52.6641 1869.5 55.6476C1853.24 128.526 1836.41 201.286 1819.99 274.128C1819.21 279.967 1816.47 285.732 1811.36 288.963C1807.84 291.515 1803.38 291.79 1799.2 291.588C1784.21 291.533 1769.23 291.579 1754.25 291.552C1748.77 291.855 1743.97 286.695 1744.06 281.353C1744.2 279.223 1744.8 277.167 1745.27 275.101C1758.95 213.725 1773.22 152.477 1787.04 91.1278C1791.3 73.8145 1793.42 55.4824 1802.71 39.8858C1814.04 18.9373 1835.84 4.29547 1859.4 1.15596ZM1609.64 38.674C1603.47 40.0877 1598.12 44.9714 1596.45 51.1219C1583.98 107.551 1571.03 163.878 1558.3 220.252C1556.32 228.578 1553.74 236.904 1553.75 245.533C1554.15 250.692 1559.36 254.281 1564.25 254.447C1588.09 254.575 1611.93 254.41 1635.77 254.529C1638.81 254.511 1641.97 254.832 1644.91 253.813C1650.69 252.005 1655.47 247.02 1656.63 241.026C1660.18 224.493 1664.22 208.07 1667.59 191.5C1668.64 185.855 1665.1 178.593 1658.78 178.382C1638.26 177.905 1617.72 178.373 1597.21 178.235C1591.15 178.382 1585.05 172.957 1585.8 166.669C1587.28 156.911 1593.24 148.63 1599.46 141.268C1613.59 124.129 1635.92 115.289 1657.78 114.619C1665.54 114.445 1673.87 115.445 1681 111.681C1684.38 109.91 1686.91 106.633 1687.63 102.86C1691.21 87.7404 1694.7 72.5844 1698.1 57.4193C1698.92 52.7927 1700.72 47.3949 1697.72 43.1722C1694.64 38.5731 1688.57 37.9029 1683.51 38.0682C1658.89 38.5822 1634.22 37.3705 1609.64 38.674ZM1585.27 1.83527C1597.46 0.109453 1609.81 0.715324 1622.08 0.28387C1664.89 0.237971 1707.69 0.32059 1750.48 0.237971C1755.82 0.403209 1760.88 5.1033 1760.85 10.5653C1760.63 13.0531 1759.82 15.4306 1759.28 17.8541C1754.21 38.9035 1749.89 60.1182 1745.03 81.2135C1742.48 92.0366 1739.39 102.823 1734.44 112.811C1727.74 127.379 1714.46 137.973 1700.01 144.288C1711.64 152.513 1718.28 166.403 1719.4 180.402C1720.36 189.389 1718.36 198.303 1716.72 207.088C1713.25 224.419 1708.67 241.806 1699.89 257.274C1687.78 278.507 1663.63 291.414 1639.48 292.148C1586.54 292.157 1533.6 292.148 1480.66 292.157C1475.64 292.13 1470.99 288.1 1470.26 283.152C1469.94 279.682 1471.29 276.377 1471.98 273.045C1485.8 210.925 1500.31 148.97 1514.13 86.8499C1517 75.623 1518.53 64.038 1522.45 53.0864C1527.78 39.0596 1536.67 26.2262 1548.63 17.0371C1559.16 8.75688 1572.03 3.69878 1585.27 1.83527ZM1311.24 1.11006C1320.22 -0.257741 1329.32 0.127813 1338.38 0.045194C1383.95 -0.0466046 1429.52 0.0268343 1475.09 0.045194C1479.65 -0.000705296 1484.45 2.47786 1486.36 6.76485C1487.46 9.12407 1486.96 11.8046 1486.63 14.2832C1467.65 99.4172 1448.29 184.478 1428.99 269.547C1427.63 276.423 1426.41 284.456 1420.03 288.596C1415.69 292.258 1409.72 291.726 1404.43 291.68C1396.8 291.396 1389.14 292.139 1381.54 291.322C1376.48 290.193 1373.38 284.41 1374.33 279.489C1390.54 206.353 1407.68 133.419 1423.9 60.2834C1424.88 55.721 1426.21 51.1036 1425.84 46.3943C1425.6 43.8056 1424.47 41.0424 1422.11 39.7297C1414.49 35.2132 1402.93 39.5737 1400.95 48.4139C1391.93 87.1253 1383.48 125.965 1374.51 164.686C1372.4 173.177 1363.2 178.089 1354.89 177.758C1346.93 177.253 1338.93 177.997 1330.98 177.244C1325.17 176.666 1320.64 170.322 1322.25 164.631C1330.59 126.635 1339.08 88.6676 1347.92 50.7823C1348.94 46.789 1347.76 41.887 1344.09 39.6379C1337.22 36.0302 1327.46 38.3252 1323.57 45.2376C1321.19 49.2768 1320.37 53.9585 1319.35 58.4658C1303.04 131.675 1286.19 204.765 1269.77 277.947C1268.17 285.612 1260.86 291.809 1252.97 291.717C1236.74 291.524 1220.5 291.726 1204.27 291.643C1198.5 291.405 1193.65 285.227 1195.1 279.563C1211.23 206.794 1228.25 134.218 1244.44 61.4676C1249 43.1722 1259.67 26.2078 1275.05 15.1277C1285.61 7.36154 1298.32 2.90013 1311.24 1.11006ZM1036.52 0.641885C1047.76 -0.33118 1059.08 0.375669 1070.35 0.173712C1112.85 0.192072 1155.34 0.182892 1197.83 0.155352C1202.1 0.30223 1206.26 3.09291 1207.82 7.10451C1208.88 12.3187 1207.08 17.5236 1205.97 22.5634C1187.16 106.917 1167.79 191.142 1148.74 275.441C1147.81 283.152 1141.75 290.579 1133.78 291.368C1124.26 291.845 1114.72 291.478 1105.2 291.542C1098.72 292.001 1093.64 284.823 1095.34 278.782C1100.88 254.548 1106.24 230.285 1111.77 206.05C1113.3 199.771 1115.48 193.456 1114.9 186.901C1114.42 181.77 1109.42 177.813 1104.38 177.832C1084.46 177.611 1064.52 178.107 1044.59 177.639C1037.67 177.299 1033.11 169.147 1035.56 162.896C1043.81 141.663 1062.18 124.552 1084.06 118.107C1096.22 114.233 1109.12 114.096 1121.77 113.765C1128.2 113.618 1134.08 108.606 1135.43 102.355C1139.23 84.8763 1143.83 67.5631 1146.83 49.9285C1148.12 43.7872 1142.38 38.0314 1136.42 37.9488C1111.33 37.7469 1086.25 37.8938 1061.18 37.8754C1053.3 37.6092 1045.59 43.2548 1043.71 50.9383C1026.8 126.571 1009.39 202.094 992.354 277.699C990.72 285.245 983.679 291.763 975.747 291.57C959.82 291.542 943.902 291.597 927.984 291.552C921.357 292.258 915.592 285.052 917.593 278.746C932.831 210.732 948.621 142.838 963.924 74.8427C966.007 65.0202 968.266 55.1427 972.7 46.073C978.575 33.5609 987.406 22.2788 998.807 14.3658C1009.87 6.52617 1023.12 2.19328 1036.52 0.641885ZM809.849 0.733683C812.777 0.0727336 815.825 0.28387 818.808 0.118633C833.166 -0.00988511 847.532 0.192072 861.89 0.0635538C868.15 -0.202662 874.255 6.1957 872.437 12.5206C858.135 77.6976 842.997 142.691 828.438 207.813C827.226 212.302 826.18 217.186 828.016 221.675C829.154 225.117 832.477 227.788 836.195 227.614C856.079 227.853 875.981 227.522 895.864 227.77C902.942 227.596 909.423 235.059 907.091 242.035C901.721 256.071 892.027 268.409 879.809 277.148C866.415 286.741 849.836 291.157 833.505 291.625C805.048 291.845 776.59 291.864 748.133 291.79C741.78 292.185 735.96 285.649 737.475 279.379C757.487 190.711 778.087 102.162 797.722 13.4019C799.265 7.48088 804.139 2.71653 809.849 0.733683ZM576.001 1.11924C583.428 -0.156763 590.992 0.210432 598.492 0.164532C645.924 0.201252 693.357 0.173712 740.78 0.164532C745.516 0.29305 750.529 3.76304 751.079 8.7018C751.566 12.5757 750.4 16.3762 749.546 20.1032C730.893 103.511 711.845 186.819 692.943 270.163C691.741 275.716 690.942 281.867 686.848 286.163C683.497 289.762 678.641 291.772 673.73 291.643C664.862 291.533 655.976 291.818 647.118 291.506C640.939 291.056 636.772 284.336 638.397 278.507C644.951 250.132 651.074 221.647 657.821 193.318C659.602 186.965 655.967 178.336 648.669 177.988C628.262 177.409 607.846 178.226 587.439 177.63C580.637 177.18 576.203 169.157 578.553 162.969C583.767 149.42 593.158 137.569 604.899 129.068C615.153 121.577 627.39 117.015 639.939 115.271C648.109 114.123 656.371 114.013 664.605 113.774C671.141 113.71 677.154 108.615 678.485 102.254C682.074 86.4277 685.774 70.6291 689.115 54.748C689.758 51.0026 690.722 46.7707 688.666 43.2823C686.233 39.1055 681.083 37.5908 676.511 37.8387C651.726 37.9396 626.949 37.7102 602.173 37.9672C594.701 38.5547 587.926 44.4482 586.521 51.8471C569.722 127.131 552.363 202.296 535.417 277.552C533.829 285.227 526.65 291.836 518.609 291.57C502.37 291.533 486.121 291.625 469.873 291.533C464.044 291.542 459.178 285.309 460.445 279.654C475.693 211.035 491.804 142.618 507.079 74.0073C509.199 64.5153 511.513 54.9683 515.634 46.1097C520.5 36.0119 527.008 26.5658 535.61 19.277C546.929 9.45455 561.157 3.12045 576.001 1.11924ZM381.223 0.898921C383.518 0.31141 385.886 0.100273 388.246 0.127813C411.498 0.30223 434.742 0.0176544 457.985 0.27469C466.632 0.182892 474.334 8.31625 473.756 16.9453C473.462 19.6167 472.719 22.2146 472.168 24.84C465.54 54.9224 458.701 84.9681 451.981 115.032C448.071 132.667 437.899 148.64 424.276 160.399C404.402 177.015 380.599 188.315 355.942 195.861C335.985 202.076 315.477 206.262 294.997 210.301C293.05 210.769 290.948 211.32 289.553 212.853C288.617 214.652 290.094 216.745 291.967 217.039C297.622 218.507 303.497 218.755 309.244 219.655C327.548 222.574 345.587 228.064 361.835 237.097C370.951 242.265 379.8 248.232 386.703 256.209C399.766 271.007 407.009 291.396 404.127 311.132C398.545 347.227 388.934 382.533 381.526 418.27C379.681 427.129 372.86 434.565 364.488 437.778C359.228 439.99 353.436 439.357 347.882 439.421C326.768 439.393 305.645 439.485 284.522 439.366C275.177 439.669 266.851 430.085 268.935 420.859C273.883 397.524 279.455 374.317 284.467 351C287.129 338.048 289.314 324.746 287.937 311.499C285.835 299.731 282.393 287.21 273.222 278.911C262.096 269.593 249.262 261.992 235.153 258.238C222.182 254.502 208.403 253.501 196.019 247.837C190.869 245.368 185.664 242.421 182.231 237.712C174.777 227.651 174.309 213.082 180.689 202.369C183.929 196.696 189.63 193.033 195.386 190.307C206.053 185.396 217.849 184.019 229.324 182.1C251.925 178.584 275.196 175.61 295.896 165.228C309.813 158.701 323.417 149.989 331.964 136.889C334.819 132.465 337.013 127.59 338.261 122.468C346.11 88.539 353.481 54.5093 361.238 20.5622C363.432 10.8866 371.731 3.26732 381.223 0.898921ZM112.299 0.96318C116.393 -0.0649644 120.643 0.182892 124.82 0.155352C146.512 0.31141 168.204 -0.000705237 189.906 0.30223C199.067 0.256331 206.842 9.80338 204.85 18.7721C196.928 54.6286 188.795 90.4393 180.854 126.287C177.981 138.129 166.093 146.574 154.095 146.602C131.788 146.666 109.49 146.574 87.1829 146.648C81.014 146.684 74.3586 144.16 71.0723 138.67C68.4652 134.695 68.557 129.646 69.5576 125.167C77.0759 91.7244 84.5391 58.273 92.0115 24.8216C92.7367 21.627 93.2783 18.3498 94.7471 15.3847C98.1712 8.35297 104.827 3.10209 112.299 0.96318Z" fill="#868A8A"/>
<path d="M50.4176 292.91C71.8342 292.561 93.26 292.745 114.677 292.8C118.89 292.837 123.361 292.396 127.235 294.407C133.504 297.289 138.058 304.403 136.479 311.389C128.602 347.218 120.543 383.02 112.547 418.83C109.839 431.003 97.5653 439.641 85.3194 439.439C62.6819 439.384 40.0351 439.467 17.3976 439.393C9.17246 439.412 0.28636 433.123 0.864691 424.201V422.264C1.25943 416.187 2.87508 410.311 4.17862 404.39C10.8799 374.657 17.5537 344.923 24.1907 315.181C26.0909 302.733 37.9421 292.974 50.4176 292.91ZM1859.4 1.15596C1868.32 -0.34036 1877.4 0.201252 1886.41 0.136993C1932.31 0.127813 1978.21 0.173712 2024.11 0.100273C2028.54 0.0451941 2032.93 2.82669 2034.63 6.94845C2035.3 9.59225 2034.94 12.3737 2034.54 15.0359C2014.9 102.814 1994.83 190.518 1974.91 278.232C1973.07 285.695 1965.93 292.038 1958.03 291.561C1949.14 291.57 1940.26 291.634 1931.38 291.533C1925.49 291.542 1920.92 285.208 1922.01 279.599C1928.36 251.784 1934.35 223.878 1941.02 196.127C1941.99 191.555 1942.76 186.158 1939.79 182.146C1937.52 178.86 1933.33 177.758 1929.54 177.804C1910.26 177.712 1890.97 178.061 1871.68 177.694C1864.19 177.574 1859.74 168.514 1862.57 162.033C1869.56 145.335 1882.5 131.106 1898.68 122.927C1913.82 115.032 1931.21 113.912 1947.95 113.756C1954.62 113.912 1960.87 108.771 1962.26 102.281C1966.02 84.8671 1970.63 67.6181 1973.6 50.0295C1975.03 43.6036 1968.77 37.701 1962.55 37.9396C1937.78 37.8203 1912.99 37.9305 1888.22 37.8938C1881.75 37.6551 1875.41 41.2719 1872.22 46.8625C1870.6 49.5246 1870.17 52.6641 1869.5 55.6476C1853.24 128.526 1836.41 201.286 1819.99 274.128C1819.21 279.967 1816.47 285.732 1811.36 288.963C1807.84 291.515 1803.38 291.79 1799.2 291.588C1784.21 291.533 1769.23 291.579 1754.25 291.552C1748.77 291.855 1743.97 286.695 1744.06 281.353C1744.2 279.223 1744.8 277.167 1745.27 275.101C1758.95 213.725 1773.22 152.477 1787.04 91.1278C1791.3 73.8145 1793.42 55.4824 1802.71 39.8858C1814.04 18.9373 1835.84 4.29547 1859.4 1.15596ZM1609.64 38.674C1603.47 40.0877 1598.12 44.9714 1596.45 51.1219C1583.98 107.551 1571.03 163.878 1558.3 220.252C1556.32 228.578 1553.74 236.904 1553.75 245.533C1554.15 250.692 1559.36 254.281 1564.25 254.447C1588.09 254.575 1611.93 254.41 1635.77 254.529C1638.81 254.511 1641.97 254.832 1644.91 253.813C1650.69 252.005 1655.47 247.02 1656.63 241.026C1660.18 224.493 1664.22 208.07 1667.59 191.5C1668.64 185.855 1665.1 178.593 1658.78 178.382C1638.26 177.905 1617.72 178.373 1597.21 178.235C1591.15 178.382 1585.05 172.957 1585.8 166.669C1587.28 156.911 1593.24 148.63 1599.46 141.268C1613.59 124.129 1635.92 115.289 1657.78 114.619C1665.54 114.445 1673.87 115.445 1681 111.681C1684.38 109.91 1686.91 106.633 1687.63 102.86C1691.21 87.7404 1694.7 72.5844 1698.1 57.4193C1698.92 52.7927 1700.72 47.3949 1697.72 43.1722C1694.64 38.5731 1688.57 37.9029 1683.51 38.0682C1658.89 38.5822 1634.22 37.3705 1609.64 38.674ZM1585.27 1.83527C1597.46 0.109453 1609.81 0.715324 1622.08 0.28387C1664.89 0.237971 1707.69 0.32059 1750.48 0.237971C1755.82 0.403209 1760.88 5.1033 1760.85 10.5653C1760.63 13.0531 1759.82 15.4306 1759.28 17.8541C1754.21 38.9035 1749.89 60.1182 1745.03 81.2135C1742.48 92.0366 1739.39 102.823 1734.44 112.811C1727.74 127.379 1714.46 137.973 1700.01 144.288C1711.64 152.513 1718.28 166.403 1719.4 180.402C1720.36 189.389 1718.36 198.303 1716.72 207.088C1713.25 224.419 1708.67 241.806 1699.89 257.274C1687.78 278.507 1663.63 291.414 1639.48 292.148C1586.54 292.157 1533.6 292.148 1480.66 292.157C1475.64 292.13 1470.99 288.1 1470.26 283.152C1469.94 279.682 1471.29 276.377 1471.98 273.045C1485.8 210.925 1500.31 148.97 1514.13 86.8499C1517 75.623 1518.53 64.038 1522.45 53.0864C1527.78 39.0596 1536.67 26.2262 1548.63 17.0371C1559.16 8.75688 1572.03 3.69878 1585.27 1.83527ZM1311.24 1.11006C1320.22 -0.257741 1329.32 0.127813 1338.38 0.045194C1383.95 -0.0466046 1429.52 0.0268343 1475.09 0.045194C1479.65 -0.000705296 1484.45 2.47786 1486.36 6.76485C1487.46 9.12407 1486.96 11.8046 1486.63 14.2832C1467.65 99.4172 1448.29 184.478 1428.99 269.547C1427.63 276.423 1426.41 284.456 1420.03 288.596C1415.69 292.258 1409.72 291.726 1404.43 291.68C1396.8 291.396 1389.14 292.139 1381.54 291.322C1376.48 290.193 1373.38 284.41 1374.33 279.489C1390.54 206.353 1407.68 133.419 1423.9 60.2834C1424.88 55.721 1426.21 51.1036 1425.84 46.3943C1425.6 43.8056 1424.47 41.0424 1422.11 39.7297C1414.49 35.2132 1402.93 39.5737 1400.95 48.4139C1391.93 87.1253 1383.48 125.965 1374.51 164.686C1372.4 173.177 1363.2 178.089 1354.89 177.758C1346.93 177.253 1338.93 177.997 1330.98 177.244C1325.17 176.666 1320.64 170.322 1322.25 164.631C1330.59 126.635 1339.08 88.6676 1347.92 50.7823C1348.94 46.789 1347.76 41.887 1344.09 39.6379C1337.22 36.0302 1327.46 38.3252 1323.57 45.2376C1321.19 49.2768 1320.37 53.9585 1319.35 58.4658C1303.04 131.675 1286.19 204.765 1269.77 277.947C1268.17 285.612 1260.86 291.809 1252.97 291.717C1236.74 291.524 1220.5 291.726 1204.27 291.643C1198.5 291.405 1193.65 285.227 1195.1 279.563C1211.23 206.794 1228.25 134.218 1244.44 61.4676C1249 43.1722 1259.67 26.2078 1275.05 15.1277C1285.61 7.36154 1298.32 2.90013 1311.24 1.11006ZM1036.52 0.641885C1047.76 -0.33118 1059.08 0.375669 1070.35 0.173712C1112.85 0.192072 1155.34 0.182892 1197.83 0.155352C1202.1 0.30223 1206.26 3.09291 1207.82 7.10451C1208.88 12.3187 1207.08 17.5236 1205.97 22.5634C1187.16 106.917 1167.79 191.142 1148.74 275.441C1147.81 283.152 1141.75 290.579 1133.78 291.368C1124.26 291.845 1114.72 291.478 1105.2 291.542C1098.72 292.001 1093.64 284.823 1095.34 278.782C1100.88 254.548 1106.24 230.285 1111.77 206.05C1113.3 199.771 1115.48 193.456 1114.9 186.901C1114.42 181.77 1109.42 177.813 1104.38 177.832C1084.46 177.611 1064.52 178.107 1044.59 177.639C1037.67 177.299 1033.11 169.147 1035.56 162.896C1043.81 141.663 1062.18 124.552 1084.06 118.107C1096.22 114.233 1109.12 114.096 1121.77 113.765C1128.2 113.618 1134.08 108.606 1135.43 102.355C1139.23 84.8763 1143.83 67.5631 1146.83 49.9285C1148.12 43.7872 1142.38 38.0314 1136.42 37.9488C1111.33 37.7469 1086.25 37.8938 1061.18 37.8754C1053.3 37.6092 1045.59 43.2548 1043.71 50.9383C1026.8 126.571 1009.39 202.094 992.354 277.699C990.72 285.245 983.679 291.763 975.747 291.57C959.82 291.542 943.902 291.597 927.984 291.552C921.357 292.258 915.592 285.052 917.593 278.746C932.831 210.732 948.621 142.838 963.924 74.8427C966.007 65.0202 968.266 55.1427 972.7 46.073C978.575 33.5609 987.406 22.2788 998.807 14.3658C1009.87 6.52617 1023.12 2.19328 1036.52 0.641885ZM809.849 0.733683C812.777 0.0727336 815.825 0.28387 818.808 0.118633C833.166 -0.00988511 847.532 0.192072 861.89 0.0635538C868.15 -0.202662 874.255 6.1957 872.437 12.5206C858.135 77.6976 842.997 142.691 828.438 207.813C827.226 212.302 826.18 217.186 828.016 221.675C829.154 225.117 832.477 227.788 836.195 227.614C856.079 227.853 875.981 227.522 895.864 227.77C902.942 227.596 909.423 235.059 907.091 242.035C901.721 256.071 892.027 268.409 879.809 277.148C866.415 286.741 849.836 291.157 833.505 291.625C805.048 291.845 776.59 291.864 748.133 291.79C741.78 292.185 735.96 285.649 737.475 279.379C757.487 190.711 778.087 102.162 797.722 13.4019C799.265 7.48088 804.139 2.71653 809.849 0.733683ZM576.001 1.11924C583.428 -0.156763 590.992 0.210432 598.492 0.164532C645.924 0.201252 693.357 0.173712 740.78 0.164532C745.516 0.29305 750.529 3.76304 751.079 8.7018C751.566 12.5757 750.4 16.3762 749.546 20.1032C730.893 103.511 711.845 186.819 692.943 270.163C691.741 275.716 690.942 281.867 686.848 286.163C683.497 289.762 678.641 291.772 673.73 291.643C664.862 291.533 655.976 291.818 647.118 291.506C640.939 291.056 636.772 284.336 638.397 278.507C644.951 250.132 651.074 221.647 657.821 193.318C659.602 186.965 655.967 178.336 648.669 177.988C628.262 177.409 607.846 178.226 587.439 177.63C580.637 177.18 576.203 169.157 578.553 162.969C583.767 149.42 593.158 137.569 604.899 129.068C615.153 121.577 627.39 117.015 639.939 115.271C648.109 114.123 656.371 114.013 664.605 113.774C671.141 113.71 677.154 108.615 678.485 102.254C682.074 86.4277 685.774 70.6291 689.115 54.748C689.758 51.0026 690.722 46.7707 688.666 43.2823C686.233 39.1055 681.083 37.5908 676.511 37.8387C651.726 37.9396 626.949 37.7102 602.173 37.9672C594.701 38.5547 587.926 44.4482 586.521 51.8471C569.722 127.131 552.363 202.296 535.417 277.552C533.829 285.227 526.65 291.836 518.609 291.57C502.37 291.533 486.121 291.625 469.873 291.533C464.044 291.542 459.178 285.309 460.445 279.654C475.693 211.035 491.804 142.618 507.079 74.0073C509.199 64.5153 511.513 54.9683 515.634 46.1097C520.5 36.0119 527.008 26.5658 535.61 19.277C546.929 9.45455 561.157 3.12045 576.001 1.11924ZM381.223 0.898921C383.518 0.31141 385.886 0.100273 388.246 0.127813C411.498 0.30223 434.742 0.0176544 457.985 0.27469C466.632 0.182892 474.334 8.31625 473.756 16.9453C473.462 19.6167 472.719 22.2146 472.168 24.84C465.54 54.9224 458.701 84.9681 451.981 115.032C448.071 132.667 437.899 148.64 424.276 160.399C404.402 177.015 380.599 188.315 355.942 195.861C335.985 202.076 315.477 206.262 294.997 210.301C293.05 210.769 290.948 211.32 289.553 212.853C288.617 214.652 290.094 216.745 291.967 217.039C297.622 218.507 303.497 218.755 309.244 219.655C327.548 222.574 345.587 228.064 361.835 237.097C370.951 242.265 379.8 248.232 386.703 256.209C399.766 271.007 407.009 291.396 404.127 311.132C398.545 347.227 388.934 382.533 381.526 418.27C379.681 427.129 372.86 434.565 364.488 437.778C359.228 439.99 353.436 439.357 347.882 439.421C326.768 439.393 305.645 439.485 284.522 439.366C275.177 439.669 266.851 430.085 268.935 420.859C273.883 397.524 279.455 374.317 284.467 351C287.129 338.048 289.314 324.746 287.937 311.499C285.835 299.731 282.393 287.21 273.222 278.911C262.096 269.593 249.262 261.992 235.153 258.238C222.182 254.502 208.403 253.501 196.019 247.837C190.869 245.368 185.664 242.421 182.231 237.712C174.777 227.651 174.309 213.082 180.689 202.369C183.929 196.696 189.63 193.033 195.386 190.307C206.053 185.396 217.849 184.019 229.324 182.1C251.925 178.584 275.196 175.61 295.896 165.228C309.813 158.701 323.417 149.989 331.964 136.889C334.819 132.465 337.013 127.59 338.261 122.468C346.11 88.539 353.481 54.5093 361.238 20.5622C363.432 10.8866 371.731 3.26732 381.223 0.898921ZM112.299 0.96318C116.393 -0.0649644 120.643 0.182892 124.82 0.155352C146.512 0.31141 168.204 -0.000705237 189.906 0.30223C199.067 0.256331 206.842 9.80338 204.85 18.7721C196.928 54.6286 188.795 90.4393 180.854 126.287C177.981 138.129 166.093 146.574 154.095 146.602C131.788 146.666 109.49 146.574 87.1829 146.648C81.014 146.684 74.3586 144.16 71.0723 138.67C68.4652 134.695 68.557 129.646 69.5576 125.167C77.0759 91.7244 84.5391 58.273 92.0115 24.8216C92.7367 21.627 93.2783 18.3498 94.7471 15.3847C98.1712 8.35297 104.827 3.10209 112.299 0.96318Z" fill="#757575"/>
<path d="M1549.47 336.967C1572.94 336.747 1596.43 336.939 1619.9 336.848C1618.93 342.356 1617.68 347.808 1616.63 353.298C1599.49 353.197 1582.35 353.307 1565.21 353.234C1563.46 361.863 1561.74 370.501 1560.01 379.13C1576.34 379.121 1592.67 379.13 1609 379.13C1607.85 384.748 1606.77 390.385 1605.72 396.021C1589.28 395.993 1572.84 395.929 1556.41 396.067C1554.68 405.109 1552.8 414.124 1551.04 423.157C1568.58 423.166 1586.13 423.138 1603.68 423.175C1602.55 428.637 1601.47 434.108 1600.42 439.579C1576.64 439.772 1552.87 439.662 1529.1 439.635C1535.82 405.394 1542.9 371.235 1549.47 336.967ZM1150.36 439.644C1157.15 405.366 1164.02 371.098 1170.87 336.829C1177.46 336.939 1184.05 336.82 1190.64 336.875C1197.05 362.891 1203.54 388.897 1209.87 414.932C1226.33 388.87 1243.06 362.983 1259.47 336.894C1265.88 336.875 1272.28 336.848 1278.69 336.884C1271.71 371.116 1264.97 405.403 1258.11 439.662C1252.23 439.671 1246.35 439.671 1240.49 439.662C1245.25 415.794 1250.06 391.927 1254.77 368.041C1240.65 391.918 1226.76 415.923 1212.5 439.708C1207.13 439.671 1201.76 439.671 1196.39 439.653C1191.67 415.804 1186.91 391.964 1182.24 368.105C1177.44 391.936 1172.7 415.794 1167.94 439.635C1162.08 439.708 1156.21 439.644 1150.36 439.644ZM778.619 439.726C799.907 405.403 821.36 371.18 842.685 336.875C849.543 336.875 856.4 336.894 863.267 336.829C871.244 371.116 879.258 405.385 887.235 439.671C880.644 439.662 874.062 439.671 867.48 439.662C865.47 430.335 863.395 421.018 861.412 411.691C850.038 411.581 838.655 411.7 827.281 411.627C830.458 406.156 833.808 400.785 836.856 395.241C843.833 395.002 850.819 395.241 857.804 395.076C854.931 382.426 852.425 369.684 849.276 357.098C844.016 364.644 839.582 372.768 834.68 380.562C822.765 400.235 810.831 419.898 798.98 439.607C792.196 439.781 785.403 439.589 778.619 439.726ZM1896.34 342.392C1916.48 333.35 1939.76 334.709 1960.53 340.878C1959.48 346.67 1958.32 352.444 1957.18 358.218C1941.84 352.784 1924.8 350.516 1908.91 354.813C1902.35 356.988 1896.51 362.836 1896.46 370.079C1895.8 373.714 1897.95 377.973 1901.83 378.57C1912.75 380.122 1923.96 377.909 1934.8 380.388C1940.12 381.581 1945.62 383.95 1948.6 388.769C1951.69 393.23 1952.07 398.904 1951.39 404.136C1950.48 412.94 1947 421.715 1940.59 427.949C1933.53 434.934 1923.71 438.404 1914.02 439.607C1898.59 441.893 1882.78 439.846 1867.87 435.586C1868.88 429.794 1869.97 424.02 1871.21 418.273C1882.5 422.312 1894.57 424.148 1906.56 423.68C1912.07 423.405 1917.91 423.212 1922.78 420.256C1928.31 417.236 1932.2 411.26 1932.19 404.889C1932.07 401.511 1929.8 398.059 1926.35 397.407C1915.03 394.883 1903.25 398.096 1891.97 395.259C1885.55 393.91 1879.44 389.467 1877.71 382.912C1874.15 367.352 1881.8 349.488 1896.34 342.392ZM493.364 337.343C508.538 334.782 524.438 335.691 538.951 340.997C537.703 346.698 536.583 352.435 535.481 358.182C522.437 352.857 507.758 350.783 493.942 354.124C486.553 355.923 479.218 359.21 474.141 365.067C465.678 374.65 462.648 387.888 462.804 400.409C462.951 407.799 465.962 415.785 472.691 419.558C481.99 424.974 493.346 424.139 503.554 422.422C505.638 412.306 507.611 402.172 509.677 392.055C516.011 392.037 522.345 392.055 528.679 392.074C525.76 406.449 523.061 420.862 519.94 435.182C502.057 441.186 482.192 442.857 464.099 436.761C450.347 432.649 441.755 418.044 442.618 404.063C442.535 387.309 446.987 370.042 457.498 356.74C466.247 345.789 479.732 339.547 493.364 337.343ZM95.0684 178.064C108.223 175.677 122.14 180.506 131.696 189.685C139.425 196.901 143.869 207.228 144.548 217.711C145.245 230.637 139.6 243.645 129.97 252.246C123.765 257.873 115.723 261.242 107.48 262.463C91.121 264.621 73.8629 256.212 65.6378 241.882C59.983 232.867 58.8814 221.659 60.6256 211.331C63.8477 194.56 78.2876 180.891 95.0684 178.064Z" fill="#868A8A"/>
<path d="M1549.47 336.967C1572.94 336.747 1596.43 336.939 1619.9 336.848C1618.93 342.356 1617.68 347.808 1616.63 353.298C1599.49 353.197 1582.35 353.307 1565.21 353.234C1563.46 361.863 1561.74 370.501 1560.01 379.13C1576.34 379.121 1592.67 379.13 1609 379.13C1607.85 384.748 1606.77 390.385 1605.72 396.021C1589.28 395.993 1572.84 395.929 1556.41 396.067C1554.68 405.109 1552.8 414.124 1551.04 423.157C1568.58 423.166 1586.13 423.138 1603.68 423.175C1602.55 428.637 1601.47 434.108 1600.42 439.579C1576.64 439.772 1552.87 439.662 1529.1 439.635C1535.82 405.394 1542.9 371.235 1549.47 336.967ZM1150.36 439.644C1157.15 405.366 1164.02 371.098 1170.87 336.829C1177.46 336.939 1184.05 336.82 1190.64 336.875C1197.05 362.891 1203.54 388.897 1209.87 414.932C1226.33 388.87 1243.06 362.983 1259.47 336.894C1265.88 336.875 1272.28 336.848 1278.69 336.884C1271.71 371.116 1264.97 405.403 1258.11 439.662C1252.23 439.671 1246.35 439.671 1240.49 439.662C1245.25 415.794 1250.06 391.927 1254.77 368.041C1240.65 391.918 1226.76 415.923 1212.5 439.708C1207.13 439.671 1201.76 439.671 1196.39 439.653C1191.67 415.804 1186.91 391.964 1182.24 368.105C1177.44 391.936 1172.7 415.794 1167.94 439.635C1162.08 439.708 1156.21 439.644 1150.36 439.644ZM778.619 439.726C799.907 405.403 821.36 371.18 842.685 336.875C849.543 336.875 856.4 336.894 863.267 336.829C871.244 371.116 879.258 405.385 887.235 439.671C880.644 439.662 874.062 439.671 867.48 439.662C865.47 430.335 863.395 421.018 861.412 411.691C850.038 411.581 838.655 411.7 827.281 411.627C830.458 406.156 833.808 400.785 836.856 395.241C843.833 395.002 850.819 395.241 857.804 395.076C854.931 382.426 852.425 369.684 849.276 357.098C844.016 364.644 839.582 372.768 834.68 380.562C822.765 400.235 810.831 419.898 798.98 439.607C792.196 439.781 785.403 439.589 778.619 439.726ZM1896.34 342.392C1916.48 333.35 1939.76 334.709 1960.53 340.878C1959.48 346.67 1958.32 352.444 1957.18 358.218C1941.84 352.784 1924.8 350.516 1908.91 354.813C1902.35 356.988 1896.51 362.836 1896.46 370.079C1895.8 373.714 1897.95 377.973 1901.83 378.57C1912.75 380.122 1923.96 377.909 1934.8 380.388C1940.12 381.581 1945.62 383.95 1948.6 388.769C1951.69 393.23 1952.07 398.904 1951.39 404.136C1950.48 412.94 1947 421.715 1940.59 427.949C1933.53 434.934 1923.71 438.404 1914.02 439.607C1898.59 441.893 1882.78 439.846 1867.87 435.586C1868.88 429.794 1869.97 424.02 1871.21 418.273C1882.5 422.312 1894.57 424.148 1906.56 423.68C1912.07 423.405 1917.91 423.212 1922.78 420.256C1928.31 417.236 1932.2 411.26 1932.19 404.889C1932.07 401.511 1929.8 398.059 1926.35 397.407C1915.03 394.883 1903.25 398.096 1891.97 395.259C1885.55 393.91 1879.44 389.467 1877.71 382.912C1874.15 367.352 1881.8 349.488 1896.34 342.392ZM493.364 337.343C508.538 334.782 524.438 335.691 538.951 340.997C537.703 346.698 536.583 352.435 535.481 358.182C522.437 352.857 507.758 350.783 493.942 354.124C486.553 355.923 479.218 359.21 474.141 365.067C465.678 374.65 462.648 387.888 462.804 400.409C462.951 407.799 465.962 415.785 472.691 419.558C481.99 424.974 493.346 424.139 503.554 422.422C505.638 412.306 507.611 402.172 509.677 392.055C516.011 392.037 522.345 392.055 528.679 392.074C525.76 406.449 523.061 420.862 519.94 435.182C502.057 441.186 482.192 442.857 464.099 436.761C450.347 432.649 441.755 418.044 442.618 404.063C442.535 387.309 446.987 370.042 457.498 356.74C466.247 345.789 479.732 339.547 493.364 337.343ZM95.0684 178.064C108.223 175.677 122.14 180.506 131.696 189.685C139.425 196.901 143.869 207.228 144.548 217.711C145.245 230.637 139.6 243.645 129.97 252.246C123.765 257.873 115.723 261.242 107.48 262.463C91.121 264.621 73.8629 256.212 65.6378 241.882C59.983 232.867 58.8814 221.659 60.6256 211.331C63.8477 194.56 78.2876 180.891 95.0684 178.064Z" fill="#868A8A"/>
<path d="M1549.47 336.967C1572.94 336.747 1596.43 336.939 1619.9 336.848C1618.93 342.356 1617.68 347.808 1616.63 353.298C1599.49 353.197 1582.35 353.307 1565.21 353.234C1563.46 361.863 1561.74 370.501 1560.01 379.13C1576.34 379.121 1592.67 379.13 1609 379.13C1607.85 384.748 1606.77 390.385 1605.72 396.021C1589.28 395.993 1572.84 395.929 1556.41 396.067C1554.68 405.109 1552.8 414.124 1551.04 423.157C1568.58 423.166 1586.13 423.138 1603.68 423.175C1602.55 428.637 1601.47 434.108 1600.42 439.579C1576.64 439.772 1552.87 439.662 1529.1 439.635C1535.82 405.394 1542.9 371.235 1549.47 336.967ZM1150.36 439.644C1157.15 405.366 1164.02 371.098 1170.87 336.829C1177.46 336.939 1184.05 336.82 1190.64 336.875C1197.05 362.891 1203.54 388.897 1209.87 414.932C1226.33 388.87 1243.06 362.983 1259.47 336.894C1265.88 336.875 1272.28 336.848 1278.69 336.884C1271.71 371.116 1264.97 405.403 1258.11 439.662C1252.23 439.671 1246.35 439.671 1240.49 439.662C1245.25 415.794 1250.06 391.927 1254.77 368.041C1240.65 391.918 1226.76 415.923 1212.5 439.708C1207.13 439.671 1201.76 439.671 1196.39 439.653C1191.67 415.804 1186.91 391.964 1182.24 368.105C1177.44 391.936 1172.7 415.794 1167.94 439.635C1162.08 439.708 1156.21 439.644 1150.36 439.644ZM778.619 439.726C799.907 405.403 821.36 371.18 842.685 336.875C849.543 336.875 856.4 336.894 863.267 336.829C871.244 371.116 879.258 405.385 887.235 439.671C880.644 439.662 874.062 439.671 867.48 439.662C865.47 430.335 863.395 421.018 861.412 411.691C850.038 411.581 838.655 411.7 827.281 411.627C830.458 406.156 833.808 400.785 836.856 395.241C843.833 395.002 850.819 395.241 857.804 395.076C854.931 382.426 852.425 369.684 849.276 357.098C844.016 364.644 839.582 372.768 834.68 380.562C822.765 400.235 810.831 419.898 798.98 439.607C792.196 439.781 785.403 439.589 778.619 439.726ZM1896.34 342.392C1916.48 333.35 1939.76 334.709 1960.53 340.878C1959.48 346.67 1958.32 352.444 1957.18 358.218C1941.84 352.784 1924.8 350.516 1908.91 354.813C1902.35 356.988 1896.51 362.836 1896.46 370.079C1895.8 373.714 1897.95 377.973 1901.83 378.57C1912.75 380.122 1923.96 377.909 1934.8 380.388C1940.12 381.581 1945.62 383.95 1948.6 388.769C1951.69 393.23 1952.07 398.904 1951.39 404.136C1950.48 412.94 1947 421.715 1940.59 427.949C1933.53 434.934 1923.71 438.404 1914.02 439.607C1898.59 441.893 1882.78 439.846 1867.87 435.586C1868.88 429.794 1869.97 424.02 1871.21 418.273C1882.5 422.312 1894.57 424.148 1906.56 423.68C1912.07 423.405 1917.91 423.212 1922.78 420.256C1928.31 417.236 1932.2 411.26 1932.19 404.889C1932.07 401.511 1929.8 398.059 1926.35 397.407C1915.03 394.883 1903.25 398.096 1891.97 395.259C1885.55 393.91 1879.44 389.467 1877.71 382.912C1874.15 367.352 1881.8 349.488 1896.34 342.392ZM493.364 337.343C508.538 334.782 524.438 335.691 538.951 340.997C537.703 346.698 536.583 352.435 535.481 358.182C522.437 352.857 507.758 350.783 493.942 354.124C486.553 355.923 479.218 359.21 474.141 365.067C465.678 374.65 462.648 387.888 462.804 400.409C462.951 407.799 465.962 415.785 472.691 419.558C481.99 424.974 493.346 424.139 503.554 422.422C505.638 412.306 507.611 402.172 509.677 392.055C516.011 392.037 522.345 392.055 528.679 392.074C525.76 406.449 523.061 420.862 519.94 435.182C502.057 441.186 482.192 442.857 464.099 436.761C450.347 432.649 441.755 418.044 442.618 404.063C442.535 387.309 446.987 370.042 457.498 356.74C466.247 345.789 479.732 339.547 493.364 337.343ZM95.0684 178.064C108.223 175.677 122.14 180.506 131.696 189.685C139.425 196.901 143.869 207.228 144.548 217.711C145.245 230.637 139.6 243.645 129.97 252.246C123.765 257.873 115.723 261.242 107.48 262.463C91.121 264.621 73.8629 256.212 65.6378 241.882C59.983 232.867 58.8814 221.659 60.6256 211.331C63.8477 194.56 78.2876 180.891 95.0684 178.064Z" fill="#757575"/>
</svg>
