<?xml version="1.0" encoding="utf-8"?>
<!-- Generator: Adobe Illustrator 24.2.1, SVG Export Plug-In . SVG Version: 6.00 Build 0)  -->
<svg version="1.1" id="Layer_1" xmlns="http://www.w3.org/2000/svg" xmlns:xlink="http://www.w3.org/1999/xlink" x="0px" y="0px"
	 viewBox="0 0 75 24" style="enable-background:new 0 0 75 24;" xml:space="preserve">
<style type="text/css">
	.st0{fill-rule:evenodd;clip-rule:evenodd;fill:url(#Filter_1_);}
</style>
<desc>Created with Sketch.</desc>
<linearGradient id="Filter_1_" gradientUnits="userSpaceOnUse" x1="37.5" y1="834.0267" x2="37.5" y2="809.9733" gradientTransform="matrix(1 0 0 1 0 -810)">
	<stop  offset="0" style="stop-color:#F6DFAF"/>
	<stop  offset="6.550192e-02" style="stop-color:#F2DDB0"/>
	<stop  offset="0.1225" style="stop-color:#E8D6B3"/>
	<stop  offset="0.2583" style="stop-color:#E4D3B3"/>
	<stop  offset="0.4027" style="stop-color:#D7CBB4"/>
	<stop  offset="0.5375" style="stop-color:#C4BFB5"/>
	<stop  offset="0.6854" style="stop-color:#CFC9C0"/>
	<stop  offset="0.8347" style="stop-color:#DED8CF"/>
	<stop  offset="1" style="stop-color:#FCFDFB"/>
</linearGradient>
<path id="Filter" class="st0" d="M10.5,5.3l-2,7.1L6.9,13L6.3,15l1.6-0.5l-1,4.2h11.4L19,16H12l0.9-3.2l1.9-0.8l0.6-2l-1.8,0.5
	L15,5.4L10.5,5.3z M12.6,0c6.9,0,12.6,5.4,12.6,12c0,6.7-5.7,12-12.6,12S0,18.7,0,12C0,5.4,5.7,0,12.6,0L12.6,0z M34.5,7.5
	c0,0.5-0.4,0.8-0.9,0.8c-0.5,0-0.8-0.4-0.9-0.8c0-0.5,0.4-0.8,0.9-0.8C34.1,6.7,34.5,7.1,34.5,7.5L34.5,7.5z M66.7,7.5
	c0,0.5-0.4,0.8-0.9,0.8c-0.5,0-0.8-0.4-0.9-0.8c0-0.5,0.4-0.8,0.9-0.8C66.4,6.7,66.7,7.1,66.7,7.5L66.7,7.5z M29.9,6.2H31v11.3h-1.1
	V6.2z M39.3,10.3v1h-1.6v6.4h-1.1v-6.4h-1.4v-1h1.4V7.5h1.1v2.7L39.3,10.3L39.3,10.3L39.3,10.3z M42.8,10.3c1.1-0.2,2.3-0.1,3.2,0.5
	c1.2,0.8,1.7,2.3,1.4,3.6h-6.5c0.1,0.7,0.5,1.4,1,1.7c1.2,0.8,3.1,0.6,4-0.5l0.2-0.2c0.4,0.1,0.7,0.2,1.1,0.2
	c-0.3,0.8-1,1.4-1.8,1.7c-1,0.4-2.2,0.5-3.2,0.1c-1-0.3-1.7-1.1-2.2-2c-0.5-1.1-0.4-2.4,0.1-3.4C40.7,11.2,41.6,10.4,42.8,10.3
	L42.8,10.3z M41.7,11.9c-0.4,0.4-0.7,1-0.8,1.5h5.4c-0.1-0.9-0.7-1.8-1.7-2.1C43.6,11,42.5,11.2,41.7,11.9L41.7,11.9z M49.4,11.3
	c1.4-1.5,4.2-1.6,5.8-0.2l-0.8,0.8c-1.1-0.9-2.9-0.9-4,0c-1.3,1.1-1.2,3.3,0.2,4.3c1.1,0.8,2.8,0.8,3.8-0.2l0.8,0.8
	c-1.5,1.3-4.1,1.4-5.5,0.1C48.1,15.4,48,12.8,49.4,11.3L49.4,11.3z M69.5,11.4c0.4-0.8,1.5-1.3,2.6-1.3c0.5,0,1,0.1,1.4,0.2
	c0.8,0.3,1.2,1,1.4,1.7c0.2,0.4,0.2,0.8,0.2,1.3v4.3h-1.1v-4.2c0-0.6-0.2-1.3-0.6-1.7c-0.5-0.5-1.2-0.5-1.8-0.4
	c-0.7,0.1-1.4,0.5-1.7,1.1c-0.2,0.4-0.2,0.8-0.2,1.2v4h-1.1v-7.4h1.1L69.5,11.4z M58.9,10.2c1.1-0.2,2.3,0,3.2,0.5
	c0.9,0.5,1.4,1.4,1.7,2.4c0.2,1,0,2.1-0.6,3c-0.7,1-2,1.6-3.3,1.6c-1.1,0.1-2.2-0.3-3-1.1c-1.3-1.1-1.5-3.2-0.6-4.6
	C56.8,11.1,57.8,10.4,58.9,10.2L58.9,10.2z M59,11.3c-0.9,0.2-1.7,0.8-2,1.6c-0.4,1.1-0.1,2.6,1,3.3c1.3,0.8,3.2,0.7,4.1-0.5
	c0.6-0.9,0.7-2.1,0.2-3C61.8,11.4,60.2,10.9,59,11.3L59,11.3z M33,17.6v-7.3h1v7.4L33,17.6L33,17.6z M66.5,17.6h-1.1v-7.4h1
	L66.5,17.6z"/>
</svg>
