<svg width="27" height="23" viewBox="0 0 27 23" fill="none" xmlns="http://www.w3.org/2000/svg">
  <path d="M24.21 8.10053H23.73C22.9901 5.85237 21.5484 3.90086 19.617 2.53286C17.6856 1.16485 15.3663 0.452511 13 0.500531C10.632 0.450349 8.31042 1.16169 6.377 2.52984C4.44358 3.898 3.00044 5.8507 2.26 8.10053H1.79C0.28 8.10053 0 8.82053 0 10.2205V13.9105C0 15.3005 0.28 16.0205 1.79 16.0205H3C3.11246 16.0259 3.22487 16.0089 3.33069 15.9704C3.43652 15.932 3.53365 15.8729 3.61645 15.7966C3.69925 15.7203 3.76607 15.6283 3.81303 15.526C3.85999 15.4237 3.88615 15.3131 3.89 15.2005V9.02053C4.41546 7.01821 5.60018 5.2513 7.253 4.00488C8.90583 2.75845 10.9304 2.10521 13 2.15053C15.0718 2.106 17.0984 2.75919 18.7542 4.00514C20.41 5.25109 21.599 7.01749 22.13 9.02053V15.2005C22.0754 16.5375 21.4933 17.7984 20.5113 18.7074C19.5293 19.6163 18.2272 20.0992 16.89 20.0505H16.24C15.89 19.3005 15.09 19.2505 14.14 19.2505H11.62C10.37 19.2505 9.62 19.7105 9.62 20.8705C9.62 22.0305 10.41 22.5005 11.62 22.5005H14.15C15.09 22.5005 15.9 22.4505 16.25 21.6905H16.9C18.5546 21.7492 20.1746 21.2076 21.4611 20.1655C22.7476 19.1234 23.6138 17.6512 23.9 16.0205H24.25C25.76 16.0205 26.04 15.3005 26.04 13.9005V10.2205C26 8.82053 25.72 8.10053 24.21 8.10053Z" fill="url(#paint0_linear_3149_409)"/>
  <path d="M6.8 14.1005V15.3505H12.35V13.6905H9.61L11 12.4305C11.3669 12.1452 11.6696 11.7858 11.8885 11.3758C12.1073 10.9657 12.2373 10.5142 12.27 10.0505C12.2567 9.70813 12.1735 9.37207 12.0254 9.06306C11.8773 8.75406 11.6675 8.47865 11.4089 8.2538C11.1503 8.02895 10.8484 7.85943 10.5219 7.75568C10.1953 7.65193 9.85093 7.61614 9.51 7.65053C8.93442 7.62184 8.36311 7.76295 7.86707 8.0563C7.37103 8.34966 6.97215 8.78233 6.72 9.30053L8.29 10.1505C8.38958 9.91062 8.55723 9.70513 8.77226 9.55941C8.98728 9.41369 9.24027 9.33412 9.5 9.33053C9.61111 9.3192 9.72336 9.33156 9.82935 9.3668C9.93533 9.40203 10.0326 9.45934 10.1149 9.53494C10.1971 9.61054 10.2623 9.70271 10.3063 9.80537C10.3503 9.90804 10.372 10.0189 10.37 10.1305C10.2852 10.6789 9.98681 11.1715 9.54 11.5005L6.8 14.1005Z" fill="url(#paint1_linear_3149_409)"/>
  <path d="M15.47 7.80053L12.87 12.5405V14.1405H16.58V15.3505H18.46V14.1405H19.28V12.5405H18.46V10.9305H16.58V12.5405H14.88L17.47 7.80053H15.47Z" fill="url(#paint2_linear_3149_409)"/>
  <defs>
    <linearGradient id="paint0_linear_3149_409" x1="13" y1="22.5005" x2="13" y2="0.50053" gradientUnits="userSpaceOnUse">
      <stop stop-color="#E5BF87"/>
      <stop offset="0.52" stop-color="#ABA295"/>
      <stop offset="0.74" stop-color="#D7CDC3"/>
      <stop offset="1" stop-color="#E6E6E5"/>
    </linearGradient>
    <linearGradient id="paint1_linear_3149_409" x1="13.0431" y1="22.5005" x2="13.0431" y2="0.534194" gradientUnits="userSpaceOnUse">
      <stop stop-color="#E5BF87"/>
      <stop offset="0.52" stop-color="#ABA295"/>
      <stop offset="0.74" stop-color="#D7CDC3"/>
      <stop offset="1" stop-color="#E6E6E5"/>
    </linearGradient>
    <linearGradient id="paint2_linear_3149_409" x1="16.0772" y1="15.3508" x2="16.0772" y2="7.80078" gradientUnits="userSpaceOnUse">
      <stop stop-color="#E5BF87"/>
      <stop offset="0.52" stop-color="#ABA295"/>
      <stop offset="0.74" stop-color="#D7CDC3"/>
      <stop offset="1" stop-color="#E6E6E5"/>
    </linearGradient>
  </defs>
</svg>