<svg width="128" height="99" viewBox="0 0 128 99" fill="none" xmlns="http://www.w3.org/2000/svg">
<path d="M0 0V84C0 92.25 6.777 99 15.061 99H112.273C120.556 99 127.334 92.25 127.334 84V0H0Z" fill="url(#paint0_linear)"/>
<path d="M3.01199 0V84C3.01199 90.617 8.41699 96 15.061 96H112.273C118.917 96 124.322 90.617 124.322 84V0H3.01199Z" fill="#1A1A1A"/>
<path d="M12.335 21.04C16.917 21.04 21.499 21.054 26.081 21.033C27.549 21.026 28.986 21.216 30.38 21.638C32.048 22.144 33.554 22.975 34.906 24.09C36.297 25.237 37.465 26.57 38.383 28.119C39.131 29.38 39.602 30.746 39.901 32.178C40.213 33.673 40.203 35.189 40.051 36.686C39.834 38.807 39.083 40.767 37.886 42.542C36.603 44.444 34.998 46.005 32.968 47.098C32.467 47.368 31.941 47.594 31.415 47.814C31.166 47.919 31.267 48.042 31.354 48.168C31.829 48.856 32.309 49.542 32.789 50.227C33.685 51.507 34.584 52.786 35.479 54.067C36.766 55.907 38.051 57.748 39.337 59.589C39.545 59.887 39.755 60.183 39.957 60.485C39.995 60.542 40.033 60.638 40.01 60.687C39.99 60.731 39.885 60.755 39.817 60.755C36.942 60.752 34.068 60.725 31.193 60.757C30.612 60.764 30.295 60.59 29.971 60.117C27.824 56.985 25.641 53.878 23.469 50.763C22.462 49.318 21.452 47.875 20.443 46.432C20.414 46.391 20.374 46.358 20.279 46.258C20.279 46.502 20.279 46.67 20.279 46.837C20.278 51.045 20.277 55.252 20.276 59.46C20.276 59.801 20.272 60.143 20.273 60.484C20.274 60.676 20.194 60.756 19.992 60.755C17.558 60.746 15.124 60.744 12.69 60.736C12.571 60.736 12.453 60.707 12.334 60.691C12.335 47.476 12.335 34.258 12.335 21.04ZM20.279 28.974C20.279 29.125 20.279 29.232 20.279 29.339C20.279 33.037 20.279 36.736 20.279 40.434C20.279 40.873 20.276 40.876 20.698 40.876C22.58 40.878 24.462 40.883 26.345 40.873C26.739 40.871 27.145 40.864 27.523 40.769C29.582 40.253 31.047 39.02 31.815 37.029C32.399 35.514 32.395 33.959 31.678 32.508C30.546 30.216 28.692 28.963 26.072 28.972C24.256 28.978 22.44 28.973 20.623 28.973C20.525 28.974 20.426 28.974 20.279 28.974Z" fill="url(#paint1_linear)"/>
<path d="M117.22 60.694C117.002 60.71 116.784 60.741 116.566 60.741C113.845 60.745 111.125 60.742 108.404 60.75C108.165 60.751 108.019 60.679 107.899 60.469C106.422 57.867 104.936 55.27 103.455 52.671C102.807 51.533 102.167 50.391 101.519 49.253C101.464 49.157 101.38 49.078 101.292 48.97C100.914 49.623 100.56 50.227 100.214 50.836C99.23 52.567 98.25 54.3 97.268 56.032C96.65 57.123 96.032 58.215 95.412 59.306C95.195 59.688 94.972 60.068 94.755 60.45C94.624 60.68 94.457 60.767 94.167 60.764C91.678 60.732 89.189 60.726 86.699 60.712C86.317 60.71 85.935 60.712 85.478 60.712C85.658 60.384 85.805 60.111 85.957 59.842C87.082 57.862 88.21 55.884 89.333 53.903C90.445 51.942 91.547 49.975 92.661 48.015C93.939 45.768 95.223 43.525 96.513 41.285C96.668 41.015 96.708 40.797 96.539 40.502C95.079 37.966 93.635 35.42 92.187 32.876C90.326 29.606 88.469 26.334 86.606 23.066C86.252 22.445 85.878 21.837 85.515 21.221C85.495 21.187 85.496 21.14 85.481 21.072C85.566 21.059 85.636 21.038 85.707 21.038C88.571 21.038 91.435 21.044 94.299 21.033C94.553 21.032 94.65 21.16 94.749 21.334C95.601 22.836 96.449 24.341 97.305 25.841C98.226 27.456 99.157 29.066 100.079 30.68C100.471 31.365 100.852 32.056 101.267 32.796C101.368 32.687 101.461 32.617 101.515 32.524C103.05 29.842 104.583 27.158 106.114 24.473C106.73 23.394 107.346 22.315 107.949 21.228C108.062 21.025 108.218 21.04 108.395 21.04C111.336 21.041 114.277 21.041 117.218 21.041C117.218 21.107 117.218 21.173 117.218 21.239C117.133 21.314 117.022 21.374 116.968 21.467C116.262 22.685 115.562 23.907 114.865 25.129C113.758 27.067 112.655 29.007 111.549 30.946C110.525 32.742 109.501 34.537 108.475 36.331C107.656 37.763 106.838 39.195 106.008 40.619C105.897 40.81 105.901 40.944 106.01 41.129C106.65 42.22 107.282 43.316 107.907 44.415C109.333 46.92 110.751 49.429 112.176 51.933C113.602 54.438 115.03 56.941 116.464 59.441C116.697 59.847 116.966 60.233 117.219 60.628C117.22 60.65 117.22 60.672 117.22 60.694Z" fill="url(#paint2_linear)"/>
<path d="M63.632 60.738C52.972 61.015 43.753 51.724 43.748 40.933C43.743 30.135 52.833 21.086 63.475 21C74.284 20.913 83.482 29.997 83.553 40.794C83.623 51.615 74.45 60.994 63.632 60.738ZM48.355 35.976C48.342 36.006 48.328 36.037 48.315 36.067C48.399 36.144 48.476 36.23 48.568 36.297C49.075 36.667 49.586 37.03 50.094 37.398C51.903 38.71 53.71 40.023 55.519 41.336C56.241 41.86 56.964 42.381 57.685 42.905C57.83 43.011 57.957 43.119 57.876 43.342C57.728 43.755 57.605 44.177 57.467 44.594C57.041 45.888 56.611 47.182 56.187 48.477C55.557 50.398 54.931 52.321 54.305 54.243C54.284 54.306 54.287 54.376 54.271 54.5C54.408 54.427 54.499 54.391 54.576 54.336C54.979 54.048 55.38 53.757 55.78 53.465C57.523 52.194 59.266 50.924 61.009 49.652C61.943 48.971 62.872 48.284 63.816 47.618C63.901 47.558 64.116 47.588 64.213 47.657C65.315 48.443 66.406 49.245 67.5 50.042C69.492 51.494 71.483 52.947 73.477 54.397C73.53 54.435 73.605 54.443 73.687 54.471C73.687 54.403 73.695 54.369 73.686 54.34C73.223 52.919 72.756 51.499 72.294 50.077C71.928 48.948 71.571 47.816 71.205 46.687C70.856 45.611 70.516 44.531 70.138 43.465C70.04 43.189 70.076 43.052 70.304 42.892C71.24 42.233 72.169 41.563 73.096 40.891C75.208 39.359 77.318 37.825 79.425 36.287C79.507 36.227 79.557 36.123 79.673 35.973C79.38 35.99 79.185 36.012 78.99 36.012C75.542 36.015 72.095 36.015 68.647 36.016C68.427 36.016 68.201 36.041 67.988 36.001C67.864 35.978 67.697 35.874 67.657 35.766C67.44 35.179 67.256 34.581 67.063 33.985C66.762 33.055 66.467 32.123 66.163 31.193C65.804 30.097 65.433 29.004 65.078 27.907C64.737 26.851 64.41 25.789 64.074 24.731C64.063 24.695 64.023 24.668 63.964 24.597C63.79 25.118 63.626 25.601 63.468 26.085C63.168 27.004 62.872 27.924 62.574 28.843C62.221 29.93 61.867 31.016 61.514 32.103C61.138 33.264 60.756 34.423 60.393 35.588C60.292 35.912 60.121 36.02 59.776 36.019C56.185 36.007 52.594 36.014 49.003 36.013C48.787 36.013 48.571 35.989 48.355 35.976Z" fill="url(#paint3_linear)"/>
<path d="M71.585 69.822C71.585 70.303 71.585 70.783 71.585 71.264C71.586 72.024 71.581 72.784 71.592 73.543C71.596 73.817 71.511 73.951 71.213 73.936C70.402 73.897 70.431 74.114 70.436 73.169C70.446 71.286 70.435 69.403 70.434 67.52C70.434 67.08 70.443 67.131 70.869 67.066C71.397 66.985 71.586 67.288 71.783 67.672C72.386 68.845 73.005 70.009 73.62 71.176C73.638 71.209 73.681 71.229 73.769 71.302C73.782 71.148 73.798 71.049 73.798 70.949C73.796 69.771 73.795 68.593 73.786 67.415C73.784 67.171 73.847 67.064 74.125 67.072C74.939 67.098 74.936 66.899 74.937 67.9C74.94 69.761 74.938 71.622 74.937 73.483C74.937 73.915 74.924 73.889 74.492 73.937C74.049 73.986 73.818 73.815 73.623 73.426C73.036 72.257 72.41 71.107 71.796 69.951C71.763 69.89 71.703 69.843 71.656 69.79C71.631 69.8 71.608 69.811 71.585 69.822Z" fill="#EAC28A"/>
<path d="M77.955 70.542C77.955 69.927 77.917 69.309 77.963 68.697C78.058 67.44 79.557 66.797 80.564 67.116C81.698 67.475 82.092 68.397 82.079 69.288C82.066 70.19 82.09 71.092 82.068 71.993C82.045 72.936 81.487 73.673 80.586 73.908C79.234 74.261 77.994 73.478 77.945 72.123C77.926 71.596 77.942 71.068 77.942 70.541C77.946 70.542 77.95 70.542 77.955 70.542ZM80.929 70.593C80.929 70.593 80.928 70.593 80.927 70.593C80.927 70.087 80.944 69.581 80.923 69.076C80.893 68.332 80.195 67.911 79.536 68.234C79.125 68.435 78.975 68.817 78.968 69.241C78.953 70.076 78.963 70.912 78.976 71.747C78.979 71.918 79.039 72.09 79.082 72.259C79.238 72.868 79.756 72.961 80.115 72.907C80.622 72.831 80.93 72.436 80.929 71.912C80.928 71.472 80.929 71.033 80.929 70.593Z" fill="#EAC28A"/>
<path d="M56.02 73.93C55.887 73.93 55.788 73.927 55.689 73.931C55.497 73.939 55.386 73.87 55.347 73.662C55.29 73.361 55.193 73.067 55.127 72.767C55.07 72.508 54.93 72.405 54.659 72.42C54.264 72.441 53.866 72.446 53.471 72.421C53.232 72.406 53.126 72.503 53.068 72.71C52.973 73.049 52.889 73.392 52.765 73.72C52.729 73.816 52.578 73.909 52.466 73.927C52.263 73.961 52.049 73.932 51.841 73.943C51.62 73.954 51.564 73.853 51.623 73.658C51.994 72.428 52.37 71.2 52.734 69.967C52.973 69.156 53.189 68.338 53.423 67.526C53.484 67.314 53.503 67.067 53.841 67.071C54.593 67.081 54.613 67.084 54.739 67.515C55.125 68.833 55.517 70.15 55.904 71.468C56.114 72.184 56.317 72.903 56.526 73.619C56.591 73.842 56.536 73.964 56.283 73.947C56.184 73.94 56.085 73.934 56.02 73.93ZM54.055 68.724C54.005 68.803 53.964 68.842 53.954 68.888C53.781 69.645 53.616 70.403 53.441 71.159C53.396 71.354 53.473 71.425 53.655 71.426C53.951 71.429 54.248 71.447 54.543 71.426C54.609 71.421 54.73 71.269 54.716 71.209C54.549 70.45 54.364 69.694 54.178 68.939C54.163 68.875 54.11 68.819 54.055 68.724Z" fill="#EAC28A"/>
<path d="M61.11 73.976C60.244 74.008 59.581 73.686 59.051 73.054C58.91 72.886 58.913 72.768 59.092 72.65C59.101 72.644 59.111 72.638 59.119 72.632C59.315 72.49 59.506 72.247 59.708 72.238C59.878 72.23 60.058 72.497 60.236 72.639C60.731 73.033 61.691 73.024 61.969 72.49C62.229 71.992 62.066 71.417 61.537 71.201C61.06 71.006 60.565 70.85 60.099 70.632C59.481 70.342 59.098 69.883 59.085 69.145C59.072 68.382 59.278 67.752 59.965 67.355C60.96 66.78 62.164 66.991 62.923 67.722C63.104 67.897 63.129 68.048 62.896 68.197C62.823 68.244 62.754 68.304 62.697 68.37C62.453 68.657 62.237 68.68 61.937 68.404C61.626 68.118 61.225 68.021 60.796 68.153C60.471 68.253 60.28 68.464 60.211 68.8C60.146 69.118 60.281 69.365 60.53 69.501C60.902 69.705 61.308 69.847 61.7 70.016C61.931 70.115 62.178 70.189 62.393 70.317C63.217 70.804 63.412 71.822 63.214 72.504C62.947 73.422 62.282 73.941 61.336 73.976C61.249 73.979 61.161 73.976 61.11 73.976Z" fill="#EAC28A"/>
<path d="M46.328 70.525C46.352 71.074 46.363 71.624 46.405 72.171C46.435 72.561 46.695 72.773 47.059 72.858C47.416 72.942 47.783 72.897 47.975 72.58C48.228 72.162 48.474 72.132 48.891 72.34C49.269 72.529 49.327 72.565 49.13 72.946C48.719 73.741 47.767 74.153 46.818 73.947C45.883 73.744 45.253 73.024 45.236 72.09C45.217 71.067 45.223 70.043 45.23 69.019C45.239 67.575 46.603 66.813 47.79 67.084C48.444 67.234 48.9 67.64 49.199 68.232C49.301 68.434 49.302 68.588 49.028 68.637C48.944 68.652 48.866 68.703 48.785 68.739C48.509 68.861 48.308 68.913 48.087 68.568C47.717 67.991 47.001 67.958 46.579 68.472C46.434 68.648 46.379 68.931 46.361 69.17C46.328 69.619 46.351 70.072 46.351 70.523C46.343 70.525 46.335 70.525 46.328 70.525Z" fill="#EAC28A"/>
<path d="M67.258 70.542C67.258 71.555 67.252 72.568 67.262 73.581C67.265 73.87 67.167 73.964 66.871 73.943C66.128 73.89 66.129 73.903 66.129 73.163C66.128 71.269 66.125 69.375 66.123 67.481C66.123 67.109 66.164 67.069 66.544 67.076C67.25 67.09 67.255 67.09 67.259 67.801C67.264 68.715 67.26 69.628 67.26 70.542H67.258Z" fill="#EAC28A"/>
<defs>
<linearGradient id="paint0_linear" x1="63.6667" y1="12.4727" x2="63.6667" y2="99.9997" gradientUnits="userSpaceOnUse">
<stop stop-color="#E6E6E6"/>
<stop offset="0.25" stop-color="#D6CDC3"/>
<stop offset="0.5541" stop-color="#ACA498"/>
<stop offset="0.75" stop-color="#E5C18B"/>
</linearGradient>
<linearGradient id="paint1_linear" x1="26.2438" y1="21.0326" x2="26.2438" y2="60.757" gradientUnits="userSpaceOnUse">
<stop stop-color="#E6E6E6"/>
<stop offset="0.25" stop-color="#D6CDC3"/>
<stop offset="0.5" stop-color="#ACA498"/>
<stop offset="0.75" stop-color="#E5C18B"/>
<stop offset="1" stop-color="#F0C788"/>
</linearGradient>
<linearGradient id="paint2_linear" x1="101.349" y1="21.0328" x2="101.349" y2="60.7639" gradientUnits="userSpaceOnUse">
<stop stop-color="#E6E6E6"/>
<stop offset="0.25" stop-color="#D6CDC3"/>
<stop offset="0.5" stop-color="#ACA498"/>
<stop offset="0.75" stop-color="#E5C18B"/>
<stop offset="1" stop-color="#F0C788"/>
</linearGradient>
<linearGradient id="paint3_linear" x1="63.6505" y1="20.9992" x2="63.6505" y2="60.7438" gradientUnits="userSpaceOnUse">
<stop stop-color="#E6E6E6"/>
<stop offset="0.25" stop-color="#D6CDC3"/>
<stop offset="0.5" stop-color="#ACA498"/>
<stop offset="0.75" stop-color="#E5C18B"/>
<stop offset="1" stop-color="#F0C788"/>
</linearGradient>
</defs>
</svg>
