<?xml version="1.0" encoding="utf-8"?>
<!-- Generator: Adobe Illustrator 24.1.0, SVG Export Plug-In . SVG Version: 6.00 Build 0)  -->
<svg version="1.1" id="Слой_1" xmlns="http://www.w3.org/2000/svg" xmlns:xlink="http://www.w3.org/1999/xlink" x="0px" y="0px"
	 width="486px" height="167px" viewBox="0 0 486 167" style="enable-background:new 0 0 486 167;" xml:space="preserve">
<style type="text/css">
	.st0{fill:#626262;}
</style>
<g>
	<path class="st0" d="M172.1,24.5H187l16.1,29h0.5l16.2-29h14.9v56.8H225V37h-0.6l-16.4,28.6h-9.1l-16.4-28.6h-0.5v44.3h-9.7
		L172.1,24.5z"/>
	<path class="st0" d="M235.1,81.6h-10.4V37.4h-0.1L208.2,66h-9.5l-0.1-0.2l-16.4-28.4v44.3h-10.4V24.1h15.5l0.1,0.2l16,28.8h0.1
		l16.2-29h15.4V81.6z M225.3,80.9h9V24.8H220l-16.2,29h-1l-0.1-0.2l-16-28.8h-14.4v56.1h9V36.7h1.1l0.1,0.2L199,65.3h8.7l16.4-28.5
		h1.2L225.3,80.9z"/>
	<path class="st0" d="M254.8,81.7c-3.8,0-6.7-1-8.7-3c-2.1-2.3-3.2-5.4-3-8.5c0-4.1,1.3-7.2,3.8-9.3c2.5-2.1,6.5-3.4,11.9-3.8
		l9.7-0.7V55c0-1.3-0.1-2.6-0.4-3.8c-0.2-0.9-0.7-1.8-1.4-2.5c-0.8-0.7-1.8-1.1-2.8-1.3c-1.5-0.3-3.1-0.4-4.6-0.4
		c-1.8,0-3.8,0.1-6.1,0.3c-2.2,0.2-4.5,0.6-6.8,1l-0.7-7.6c5.1-1,10.3-1.5,15.4-1.5c6.2,0,10.7,1.1,13.7,3.4c3,2.2,4.4,5.8,4.4,10.5
		v28.1h-8.7l-1-5.1H269C265.1,79.6,260.1,81.6,254.8,81.7z M259.2,74.1c1.7,0,3.3-0.4,4.8-1c1.6-0.6,3.2-1.5,4.6-2.5v-8.5l-6.5,0.6
		c-3.1,0.3-5.2,0.9-6.4,1.8c-1.3,1.1-1.9,2.8-1.8,4.5C253.9,72.4,255.7,74.1,259.2,74.1z"/>
	<path class="st0" d="M254.8,82.1c-3.9,0-6.9-1-9-3.1c-2-2.1-3-5-3-8.8c0-4.2,1.3-7.4,3.9-9.6c2.6-2.2,6.7-3.5,12.1-3.9l9.4-0.7V55
		c0-1.2-0.1-2.5-0.4-3.7c-0.2-0.9-0.7-1.6-1.3-2.2c-0.8-0.6-1.7-1.1-2.7-1.2c-3.5-0.5-7.1-0.5-10.6,0c-2.2,0.2-4.5,0.6-6.8,1
		l-0.4,0.1l-0.7-8.3h0.3c5.1-1,10.3-1.5,15.5-1.5c6.2,0,10.9,1.2,13.9,3.5s4.5,5.9,4.5,10.8v28.4h-9.4l-1-5.2h-0.2
		C265.1,80.1,260.1,82,254.8,82.1z M259.4,46.8c1.6,0,3.2,0.1,4.7,0.4c1.1,0.2,2.1,0.7,3,1.4c0.8,0.7,1.3,1.6,1.5,2.6
		c0.3,1.3,0.4,2.6,0.4,3.9v1.7l-10.1,0.7c-5.3,0.4-9.3,1.7-11.7,3.7c-2.5,2-3.7,5.1-3.7,9.1c-0.2,3,0.8,6,2.9,8.3
		c1.9,1.9,4.7,2.9,8.5,2.9c5.1-0.1,10.1-2,13.9-5.4l0.1-0.1h1l1,5.2h8.1V53.2c0-4.6-1.4-8.1-4.3-10.2s-7.4-3.3-13.5-3.3
		c-5,0.1-10.1,0.6-15,1.5l0.6,6.9c2.2-0.4,4.4-0.7,6.5-1C255.3,46.8,257.3,46.7,259.4,46.8L259.4,46.8z M259.2,74.6
		c-3.7,0-5.6-1.8-5.6-5.5c-0.2-1.8,0.6-3.6,1.9-4.7c1.2-1,3.4-1.6,6.6-1.8l6.9-0.7v9.1l-0.1,0.1c-1.5,1-3,1.8-4.7,2.5
		C262.6,74.1,260.9,74.5,259.2,74.6L259.2,74.6z M268.3,62.6l-6.1,0.6c-3,0.2-5.1,0.8-6.2,1.7c-1.2,1-1.8,2.6-1.7,4.2
		c0,3.2,1.6,4.8,4.9,4.8c1.6,0,3.2-0.4,4.7-1c1.5-0.6,3-1.4,4.4-2.3L268.3,62.6z"/>
	<path class="st0" d="M289.2,39.8h8.9l0.6,4.8h0.4c3.2-1.6,6.6-3.1,10.1-4.2c2.5-0.8,5.1-1.3,7.7-1.3c3.1-0.2,6.1,0.9,8.4,2.9
		c2,1.9,3,4.8,3,8.5v30.7h-10.7V54.1c0.2-1.8-0.2-3.5-1.2-5c-1.1-1.1-2.6-1.6-4.1-1.5c-1.9,0-3.8,0.4-5.6,1
		c-2.3,0.7-4.5,1.5-6.6,2.5v30.2h-10.7L289.2,39.8z"/>
	<path class="st0" d="M328.7,81.6h-11.4V54.1c0.2-1.7-0.3-3.4-1.2-4.8c-1-1-2.4-1.5-3.9-1.4c-1.9,0-3.8,0.4-5.5,0.9
		c-2.2,0.7-4.3,1.5-6.4,2.5v30.4h-11.4V39.5h9.6l0.6,4.8h0.1c3.2-1.6,6.6-3,10-4.2c2.5-0.8,5.1-1.3,7.8-1.3c3.2-0.2,6.3,0.9,8.6,3
		c2.1,2,3.1,4.9,3.1,8.8L328.7,81.6z M318,80.9h10V50.5c0-3.6-1-6.4-2.9-8.3c-2.2-2-5.1-3-8.1-2.8c-2.6,0-5.1,0.4-7.6,1.2
		c-3.4,1.2-6.8,2.6-10,4.2h-0.1h-0.8l-0.6-4.8h-8.2v40.8h10v-30l0.2-0.1c2.2-1,4.4-1.8,6.7-2.5c1.9-0.6,3.8-0.9,5.7-1
		c1.6-0.1,3.2,0.5,4.4,1.6c1.1,1.5,1.6,3.4,1.4,5.3L318,80.9z"/>
	<path class="st0" d="M356.9,82c-13.8,0-20.7-7.1-20.7-21.4s6.9-21.4,20.7-21.4c2,0,4,0.1,6,0.3c1.9,0.2,3.7,0.5,5.6,0.9v8.5
		c-1.8-0.3-3.7-0.6-5.4-0.7c-1.7-0.2-3.4-0.3-5.2-0.3c-3.9,0-6.7,1-8.4,3c-1.7,2-2.6,5.2-2.6,9.6c0,4.5,0.8,7.8,2.5,9.7
		c1.7,2,4.5,3,8.4,3c2.1,0,4-0.1,5.6-0.2c1.7-0.1,3.4-0.4,5.1-0.7v8.4c-1.7,0.5-3.5,0.8-5.3,0.9C361.1,81.9,359,82,356.9,82z"/>
	<path class="st0" d="M356.9,82.3c-14,0-21.1-7.4-21.1-21.8s7.1-21.8,21.1-21.8c1.9,0,4,0.1,6.1,0.3c1.9,0.2,3.8,0.5,5.6,0.9
		l0.3,0.1v9.2l-0.4-0.1c-1.8-0.3-3.7-0.5-5.4-0.7c-1.7-0.2-3.5-0.3-5.1-0.3c-3.8,0-6.5,1-8.2,2.9c-1.7,1.9-2.5,5.1-2.5,9.4
		c0,4.3,0.8,7.6,2.5,9.5c1.6,1.9,4.4,2.9,8.2,2.9c2.1,0,3.9-0.1,5.5-0.2c1.7-0.1,3.4-0.4,5.1-0.7l0.4-0.1V81l-0.3,0.1
		c-1.8,0.5-3.6,0.8-5.4,0.9C361.1,82.2,359,82.3,356.9,82.3z M356.9,39.5c-13.7,0-20.4,6.9-20.4,21.1s6.7,21.1,20.4,21.1
		c2.1,0,4.2-0.1,6.2-0.3c1.7-0.2,3.4-0.4,5-0.8v-7.7c-1.6,0.3-3.1,0.5-4.7,0.7c-1.6,0.1-3.5,0.2-5.6,0.2c-4,0-7-1-8.7-3.1
		c-1.8-2.1-2.6-5.4-2.6-10c0-4.6,0.9-7.8,2.7-9.8s4.7-3.1,8.7-3.1c1.6,0,3.4,0.1,5.2,0.3s3.4,0.4,5.1,0.7v-7.8
		c-1.7-0.4-3.5-0.7-5.2-0.8C360.9,39.6,358.8,39.5,356.9,39.5z"/>
	<path class="st0" d="M385.9,81.7c-3.8,0-6.7-1-8.7-3c-2-2-3-4.8-3-8.5c0-4.1,1.3-7.2,3.8-9.3c2.5-2.1,6.5-3.4,11.9-3.8l9.7-0.7V55
		c0-1.3-0.1-2.6-0.4-3.8c-0.2-0.9-0.7-1.8-1.4-2.5c-0.8-0.7-1.8-1.1-2.8-1.3c-1.5-0.3-3.1-0.4-4.6-0.4c-1.8,0-3.8,0.1-6.1,0.3
		c-2.3,0.2-4.5,0.6-6.8,1l-0.7-7.6c5.1-1,10.3-1.5,15.4-1.5c6.2,0,10.8,1.1,13.7,3.4c2.9,2.2,4.4,5.8,4.4,10.5v28.1h-8.8l-1-5.1
		h-0.6C396.2,79.6,391.2,81.6,385.9,81.7z M390.3,74.1c1.7,0,3.3-0.4,4.8-1c1.6-0.6,3.2-1.5,4.6-2.5v-8.5l-6.5,0.6
		c-3.1,0.3-5.2,0.9-6.4,1.8c-1.3,1.1-2,2.8-1.8,4.5C385,72.4,386.8,74.1,390.3,74.1L390.3,74.1z"/>
	<path class="st0" d="M385.9,82.1c-3.9,0-6.9-1-9-3.1c-2-2.1-3-5-3-8.8c0-4.2,1.3-7.4,3.9-9.6c2.6-2.2,6.7-3.5,12.1-3.9l9.4-0.7V55
		c0-1.2-0.1-2.5-0.4-3.7c-0.2-0.9-0.7-1.6-1.3-2.2c-0.8-0.6-1.7-1.1-2.7-1.2c-3.5-0.5-7.1-0.5-10.6,0c-2.2,0.2-4.5,0.6-6.8,1
		l-0.4,0.1l-0.7-8.3h0.3c5.1-1,10.3-1.5,15.5-1.5c6.2,0,10.9,1.2,13.9,3.5s4.5,5.9,4.5,10.8v28.4h-9.4l-1-5.2h-0.2
		C396.2,80.1,391.2,82,385.9,82.1z M390.5,46.8c1.6,0,3.2,0.1,4.7,0.4c1.1,0.2,2.1,0.7,3,1.4c0.8,0.7,1.3,1.6,1.5,2.6
		c0.3,1.3,0.4,2.6,0.4,3.9v1.7L390,57.4c-5.3,0.4-9.3,1.7-11.7,3.7c-2.5,2-3.7,5.1-3.7,9.1c-0.2,3,0.9,6,2.9,8.2
		c1.9,1.9,4.7,2.9,8.5,2.9c5.1-0.1,10-2,13.9-5.3l0.1-0.1h1l1,5.2h8.1V53.2c0-4.6-1.4-8.1-4.3-10.2s-7.4-3.3-13.5-3.3
		c-5.1,0.1-10.1,0.6-15.1,1.5l0.6,6.9c2.2-0.4,4.4-0.7,6.5-1C386.4,46.8,388.4,46.7,390.5,46.8L390.5,46.8z M390.3,74.6
		c-3.7,0-5.6-1.8-5.6-5.5c-0.2-1.8,0.6-3.6,1.9-4.7c1.2-1,3.4-1.6,6.6-1.8l6.9-0.7v9.1L400,71c-1.5,1-3,1.8-4.7,2.5
		C393.7,74.1,392,74.5,390.3,74.6L390.3,74.6z M399.4,62.6l-6.1,0.6c-3,0.2-5.1,0.8-6.2,1.7c-1.2,1-1.8,2.6-1.7,4.2
		c0,3.2,1.6,4.8,4.9,4.8c1.6,0,3.2-0.4,4.7-1c1.5-0.6,3-1.4,4.4-2.3L399.4,62.6z"/>
	<path class="st0" d="M420.4,19.3h10.7v62h-10.7V19.3z"/>
	<path class="st0" d="M431.4,81.6H420V18.9h11.4V81.6z M420.8,80.9h9.9V19.6h-10L420.8,80.9z"/>
	<path class="st0" d="M450.5,81.7c-3.8,0-6.7-1-8.7-3c-2.1-2.3-3.2-5.4-3-8.5c0-4.1,1.2-7.2,3.8-9.3c2.6-2.1,6.5-3.3,11.9-3.8
		l9.8-0.7V55c0-1.3-0.1-2.6-0.4-3.8c-0.2-0.9-0.7-1.8-1.4-2.5c-0.8-0.7-1.8-1.1-2.8-1.3c-1.5-0.3-3.1-0.4-4.6-0.4
		c-1.8,0-3.8,0.1-6.1,0.3c-2.2,0.2-4.5,0.6-6.8,1l-0.7-7.6c5.1-1,10.3-1.5,15.4-1.5c6.2,0,10.8,1.1,13.7,3.4
		c2.9,2.2,4.4,5.8,4.4,10.6v28.1h-8.7l-1-5.1h-0.6C460.7,79.6,455.7,81.6,450.5,81.7z M454.9,74.1c1.7,0,3.3-0.4,4.8-1
		c1.6-0.6,3.2-1.5,4.6-2.5v-8.5l-6.5,0.6c-3.1,0.3-5.2,0.9-6.4,1.8c-1.3,1.1-1.9,2.8-1.8,4.5C449.6,72.4,451.3,74.1,454.9,74.1z"/>
	<path class="st0" d="M450.5,82.1c-3.9,0-6.9-1-9-3.1c-2-2.1-3.1-5-3.1-8.8c0-4.2,1.3-7.4,3.9-9.6c2.6-2.2,6.7-3.5,12.1-3.9l9.4-0.7
		V55c0-1.2-0.1-2.5-0.4-3.7c-0.2-0.9-0.7-1.6-1.3-2.2c-0.8-0.6-1.7-1.1-2.7-1.2c-3.5-0.5-7.1-0.5-10.6,0c-2.2,0.2-4.5,0.6-6.8,1
		h-0.4l-0.7-8.3h0.3c5.1-1,10.3-1.5,15.5-1.5c6.2,0,10.9,1.2,13.9,3.5c3,2.3,4.5,5.9,4.5,10.8v28.4h-9.4l-1-5.2h-0.2
		C460.8,80,455.7,82,450.5,82.1z M455,46.8c1.6,0,3.2,0.1,4.7,0.4c1.1,0.2,2.1,0.7,3,1.4c0.8,0.7,1.3,1.6,1.5,2.6
		c0.3,1.3,0.4,2.6,0.4,3.9v1.7l-10.1,0.7c-5.3,0.4-9.3,1.7-11.7,3.7c-2.5,2-3.7,5.1-3.7,9.1c-0.2,3,0.8,6,2.9,8.3
		c1.9,1.9,4.7,2.9,8.5,2.9c5.1-0.1,10.1-2,13.9-5.4l0.1-0.1h1l1,5.2h8.1V53.2c0-4.6-1.4-8.1-4.3-10.2s-7.4-3.3-13.5-3.3
		c-5.1,0.1-10.1,0.5-15.1,1.5l0.6,6.9c2.2-0.4,4.4-0.7,6.5-1C450.9,46.8,453,46.7,455,46.8L455,46.8z M454.9,74.6
		c-3.7,0-5.7-1.8-5.7-5.5c-0.2-1.8,0.6-3.6,1.9-4.7c1.2-1,3.4-1.6,6.6-1.8l6.9-0.7v9.1l-0.1,0.1c-1.5,1-3,1.8-4.7,2.5
		C458.3,74.1,456.6,74.5,454.9,74.6L454.9,74.6z M464,62.6l-6.1,0.6c-3,0.2-5.1,0.8-6.2,1.7c-1.2,1-1.8,2.6-1.7,4.2
		c0,3.2,1.6,4.8,4.9,4.8c1.6,0,3.2-0.4,4.7-1c1.5-0.6,3-1.4,4.4-2.3L464,62.6z"/>
	<path class="st0" d="M117.2,107.9c-16.2-0.9-25.8-10.9-26-27c0.2-16.1,9.8-26.1,26-27c10.7-0.6,18.4-8.5,18.1-18.5
		c-0.3-9.7-8.2-17.5-17.9-17.5c-10-0.1-18.6,7.4-18.1,17.7c0.6,12.5-5,19.9-16.1,24.1c-11.4,4.3-21.7,1.9-31-5.6
		c-4.5-3.7-6.3-8.6-6.4-14.4c0.1-3.4-0.3-6.9-1.3-10.2c-3.1-8.5-12.2-13.3-21-11.1c-9.7,2.3-15.7,11.9-13.5,21.6
		C12,48,18.9,53.7,27,54c10.9,0.7,19.7,4.9,24.7,15c3.9,7.5,3.9,16.5,0,24c-5.1,10.1-13.8,14.3-24.7,15c-9.9,0.3-17.7,8.7-17.4,18.6
		c0.3,8.1,6,15.1,13.9,16.9c8.8,2.3,17.9-2.5,21-11.1c1-3.3,1.4-6.7,1.3-10.2c0.1-5.8,1.8-10.8,6.4-14.4c9.3-7.5,19.6-9.9,31-5.6
		c11.1,4.2,16.6,11.5,16.1,24.1c-0.5,10.3,8.2,17.8,18.1,17.7c9.7-0.1,17.6-7.8,17.9-17.5C135.6,116.4,127.9,108.5,117.2,107.9z"/>
	<path class="st0" d="M72.4,107.9c-10,0.1-17.9,8.3-17.8,18.2c0.1,10,8.3,17.9,18.2,17.8c10-0.1,17.9-8.3,17.8-18.2
		C90.6,115.8,82.4,107.8,72.4,107.9L72.4,107.9z"/>
	<path class="st0" d="M27.8,62.7c-10.1,0-18.2,8.2-18.2,18.2s8.2,18.2,18.2,18.2c9.9,0,17.8-8,17.8-17.9c0-0.1,0-0.1,0-0.2v-0.3
		c0.1-9.9-7.8-18-17.7-18.1C27.9,62.7,27.9,62.7,27.8,62.7z"/>
	<path class="st0" d="M135.5,80.2c-0.4-9.9-8.6-17.7-18.5-17.5c-10.1,0.4-17.9,8.8-17.6,18.9c0.4,9.6,8,17.2,17.6,17.6
		c9.9,0.2,18.1-7.6,18.5-17.5V80.2z"/>
	<path class="st0" d="M72.4,53.9c10-0.1,17.9-8.3,17.8-18.3c-0.1-9.6-7.8-17.5-17.4-17.8c-10-0.3-18.3,7.4-18.7,17.4
		c-0.3,10,7.4,18.3,17.4,18.7C71.9,53.9,72.2,53.9,72.4,53.9z"/>
	<path class="st0" d="M200.1,131.2c-1.5,1.9-3.6,3.4-5.9,4.2c-2.8,1-5.7,1.5-8.6,1.4c-3.1,0.1-6.1-0.7-8.7-2.2
		c-2.5-1.5-4.6-3.7-5.9-6.4c-1.4-3-2.2-6.4-2.1-9.7v-3.1c0-5.9,1.4-10.6,4.3-13.9s6.8-5,11.9-5c4.4,0,7.8,1.1,10.4,3.2
		c2.7,2.4,4.4,5.7,4.6,9.3h-6.6c-0.8-4.7-3.5-7.1-8.2-7.1c-2.7-0.2-5.3,1.1-7,3.3c-1.6,2.2-2.4,5.4-2.5,9.7v3c0,4.2,0.9,7.5,2.7,9.8
		c1.8,2.3,4.5,3.6,7.4,3.5c3.5,0,6-0.8,7.4-2.4v-7.6h-8.1v-5.2h14.9L200.1,131.2z"/>
	<path class="st0" d="M225,136.2c-0.4-0.9-0.6-1.8-0.8-2.7c-2,2.1-4.7,3.3-7.6,3.3c-2.6,0.1-5.2-0.8-7.2-2.5
		c-1.8-1.5-2.8-3.8-2.8-6.1c-0.1-2.8,1.2-5.5,3.5-7.2c2.3-1.6,5.6-2.5,9.8-2.5h4v-2.1c0.1-1.3-0.4-2.7-1.2-3.7c-1-1-2.4-1.5-3.9-1.4
		c-1.3-0.1-2.6,0.3-3.7,1.1c-0.9,0.7-1.4,1.7-1.4,2.8h-6.5c0-1.6,0.6-3.2,1.6-4.5c1.1-1.4,2.6-2.6,4.3-3.3c1.9-0.8,4-1.3,6.1-1.2
		c2.9-0.2,5.8,0.8,8.2,2.6c2.1,1.8,3.2,4.5,3.1,7.2v13.1c-0.1,2.1,0.3,4.3,1.1,6.3v0.5L225,136.2z M217.8,131.5
		c1.3,0,2.6-0.3,3.7-0.9c1.1-0.6,2-1.5,2.6-2.5v-5.5h-3.6c-1.9-0.1-3.8,0.3-5.5,1.2c-1.2,0.8-1.9,2.1-1.8,3.6
		c-0.1,1.1,0.4,2.2,1.2,3C215.4,131.2,216.6,131.6,217.8,131.5z"/>
	<path class="st0" d="M244.1,107.1l0.2,3c2.1-2.4,5.2-3.7,8.4-3.6c3.9,0,6.6,1.5,8,4.5c2-2.9,5.4-4.6,8.9-4.5c3.2,0,5.6,0.9,7.2,2.7
		c1.6,1.8,2.4,4.4,2.5,7.9v19.2h-6.5v-19c0.1-1.5-0.3-2.9-1.2-4.1c-1.1-1-2.5-1.4-4-1.3c-1.3-0.1-2.7,0.4-3.7,1.2
		c-1,0.8-1.7,1.9-2,3.1v20h-6.6v-19.2c-0.1-3.4-1.8-5.2-5.2-5.2c-2.3-0.2-4.5,1.1-5.6,3.2v21.1H238v-29.2H244.1z"/>
	<path class="st0" d="M286.5,99.5c0-0.9,0.3-1.8,1-2.5c0.7-0.7,1.7-1.1,2.7-1c1-0.1,2,0.3,2.8,1c0.6,0.7,1,1.5,1,2.5
		c0,0.9-0.3,1.8-1,2.5c-0.7,0.7-1.7,1-2.8,1c-1,0.1-2-0.3-2.7-1C286.9,101.3,286.5,100.4,286.5,99.5z M293.5,136.2h-6.5v-29.1h6.5
		V136.2z"/>
	<path class="st0" d="M307.2,107.1l0.2,3.4c2.1-2.6,5.2-4,8.5-3.9c6.1,0,9.2,3.5,9.3,10.4v19.3h-6.5v-18.9c0.1-1.5-0.3-2.9-1.2-4.1
		c-1.1-1-2.5-1.5-3.9-1.3c-2.5-0.1-4.8,1.3-5.9,3.6v20.7H301v-29.1H307.2z"/>
	<path class="st0" d="M331.2,121.4c0-4.5,1.1-8.1,3.2-10.8c2-2.6,5.2-4.2,8.5-4.1c3-0.1,5.9,1.1,7.8,3.5l0.3-2.9h5.9v28.3
		c0.2,3.4-1.1,6.7-3.6,9c-2.7,2.3-6.1,3.5-9.6,3.3c-2.2,0-4.3-0.5-6.3-1.3c-1.8-0.7-3.4-1.9-4.6-3.5l3.1-3.9
		c1.8,2.3,4.5,3.6,7.4,3.6c1.9,0.1,3.7-0.5,5.1-1.8c1.3-1.4,2-3.3,1.9-5.2v-2c-1.9,2.1-4.7,3.3-7.5,3.1c-3.3,0.1-6.4-1.4-8.4-4.1
		C332.4,130,331.2,126.3,331.2,121.4z M337.8,122c-0.1,2.4,0.5,4.8,1.8,6.9c1.1,1.6,3,2.5,4.9,2.5c2.4,0.1,4.7-1.2,5.9-3.4v-12.7
		c-1.1-2.2-3.4-3.5-5.8-3.3c-2-0.1-3.9,0.9-5,2.6C338.2,116.8,337.6,119.4,337.8,122L337.8,122z"/>
</g>
</svg>
