<svg width="486" height="167" viewBox="0 0 486 167" fill="none" xmlns="http://www.w3.org/2000/svg">
<path d="M1.51416 165.711C1.51416 164.253 1.51416 163.281 1.51416 162.309C1.51416 141.413 1.51416 120.517 1.51416 99.6208C1.51416 76.295 19.4962 58.8006 42.8242 60.2585C48.6562 60.7444 54.4882 63.6601 60.3202 65.604C62.7502 66.5759 63.2362 68.0337 62.2642 70.4635C61.2922 73.3792 59.8342 75.809 58.8622 79.2107C51.5722 73.8652 44.2822 71.4354 35.5342 72.8933C23.3842 75.323 14.1502 85.5281 13.6642 98.1629C13.1782 115.657 13.6642 133.152 13.6642 151.132C59.8342 151.132 106.004 151.132 152.174 151.132C152.174 149.674 152.174 148.702 152.174 147.244C152.174 132.666 152.174 117.601 152.174 103.022C152.174 101.079 153.146 99.1348 154.604 97.677C157.034 94.7612 159.95 91.8455 162.866 88.4438C163.352 92.8174 164.324 96.2191 164.324 99.6208C164.324 121.003 164.324 142.871 164.324 164.253C164.324 164.739 164.324 165.225 164.324 166.197C109.892 165.711 55.4602 165.711 1.51416 165.711Z" fill="#626262"/>
<path d="M163.352 0.971911C163.352 1.94382 163.352 2.91573 163.352 3.40169C163.352 23.8118 163.352 44.2219 163.352 64.6321C162.866 94.2753 131.276 112.742 105.032 98.163C102.116 96.7051 101.63 95.2473 102.602 92.3315C103.574 89.9017 105.032 87.472 106.004 84.5562C112.322 89.4158 118.64 91.3596 125.93 90.8737C138.566 90.3877 150.716 79.6967 150.716 67.0618C151.202 49.0815 150.716 31.5871 150.716 13.6068C150.716 13.6068 150.716 13.1208 150.23 12.6348C104.546 12.6348 58.376 12.6348 12.206 12.6348C12.206 14.0927 12.206 15.5506 12.206 16.5225C12.206 31.1011 12.206 46.1658 12.206 60.7444C12.206 62.2023 11.234 64.1461 10.262 65.604C7.83199 68.5197 4.91599 71.4354 1.99999 74.8371C1.51399 70.9495 0.541992 67.5478 0.541992 64.1461C0.541992 43.25 0.541992 22.3539 0.541992 1.45787C0.541992 0.971911 0.541992 0.971911 1.02799 0C55.46 0.971911 109.406 0.971911 163.352 0.971911Z" fill="#626262"/>
<path d="M21.9259 85.0421C41.3659 98.6488 59.3479 87.9578 65.1799 75.323C71.4979 61.2303 64.6939 44.7078 50.5999 39.8482C47.6839 41.7921 45.7399 43.7359 43.3099 44.2218C39.9079 45.6797 36.0199 44.7078 34.5619 41.7921C31.6459 36.4466 22.8979 34.5027 25.3279 26.7275C25.8139 24.2977 27.7579 21.382 29.7019 20.896C34.5619 18.9522 39.9079 17.9803 45.2539 17.4943C49.6279 17.0084 53.0299 20.896 53.0299 25.2696C53.0299 27.2134 53.5159 28.1853 55.4599 29.1572C76.3579 38.3904 85.1059 62.6881 74.8999 82.6123C64.6939 102.05 39.9079 109.34 20.4679 98.1628C18.5239 97.1909 17.5519 95.7331 18.5239 93.7893C19.4959 90.8735 20.4679 87.9578 21.9259 85.0421Z" fill="#626262"/>
<path d="M115.238 123.919C122.042 116.143 127.874 117.115 133.22 124.89C133.706 125.862 134.678 126.348 135.65 126.834C139.052 129.264 140.996 133.152 139.538 137.525C138.08 141.899 134.678 144.329 130.304 144.329C128.846 144.329 127.388 144.815 125.93 145.301C120.098 148.216 112.808 144.815 112.322 138.497C111.836 135.581 110.378 134.61 108.434 133.638C93.3676 125.862 85.5916 113.714 86.0776 97.191C86.5636 81.1545 94.8256 69.9776 109.406 63.1742C121.07 57.8287 132.734 58.8006 144.398 64.6321C147.314 66.0899 147.8 68.0337 146.828 70.4635C145.856 72.8933 144.398 75.3231 143.426 78.2388C132.248 70.4635 121.07 69.0057 110.378 76.295C101.144 82.1264 97.2556 91.3596 98.7136 102.051C99.1996 112.742 105.518 119.545 115.238 123.919Z" fill="#626262"/>
<path d="M87.5356 75.3231C81.7036 57.3427 90.9376 37.4186 108.434 29.1573C110.864 28.1854 111.836 27.2135 111.836 24.7837C112.322 18.4663 119.612 15.0646 125.444 17.9804C126.902 18.4663 128.36 18.9523 129.818 18.9523C134.192 18.9523 138.08 21.868 139.052 25.7556C140.024 29.6433 138.566 34.0169 135.164 36.4467C134.192 36.9326 133.22 37.4186 132.734 38.3905C127.388 46.6517 121.07 47.1377 114.752 39.3624C104.546 43.736 99.1996 51.0253 97.2556 61.7163C96.7696 63.1742 95.7976 65.118 94.8256 66.0899C92.8816 69.4916 90.4516 72.4073 87.5356 75.3231Z" fill="#626262"/>
<path d="M50.1142 123.919C59.8342 119.545 65.6662 112.256 67.6102 101.565C68.0962 99.6208 69.0682 97.677 70.5262 96.2191C72.9562 93.3034 75.3862 90.3877 78.3022 87.4719C81.7042 98.1629 80.2462 107.882 74.9002 117.601C71.0122 124.89 64.6942 130.236 56.9182 133.638C54.9742 134.61 53.5162 135.581 53.5162 138.011C53.0302 144.329 45.7402 147.73 39.9082 145.301C38.4502 144.815 36.5062 144.329 35.0482 144.329C30.6742 144.329 26.7862 141.413 25.8142 137.525C24.8422 133.638 26.3002 129.264 29.7022 126.834C30.6742 126.348 31.6462 125.862 32.1322 124.89C36.9922 117.115 43.3102 116.629 50.1142 123.919Z" fill="#626262"/>
<path d="M188.138 94.2753V69.0056H192.512L200.774 86.014L209.036 69.0056H213.41V94.2753H209.036V79.2107L201.746 94.2753H200.288L192.512 79.2107V94.2753H188.138Z" fill="#626262"/>
<path d="M216.812 94.2753L224.588 69.0056H231.878L239.654 94.2753H234.794L227.99 71.9213H228.962L222.158 94.2753H216.812ZM221.672 88.9298V84.5562H235.28V88.9298H221.672Z" fill="#626262"/>
<path d="M251.464 94.4754C249.52 94.4754 248.402 94.2753 246.944 93.7893C245.486 93.3034 244.028 92.3314 243.056 90.8736C242.084 89.4157 241.598 87.9578 241.112 86.5L245.972 85.5281C246.458 86.9859 246.944 87.9578 248.402 88.9298C249.374 89.9017 250.832 89.9017 252.29 89.9017C253.262 89.9017 253.748 89.9017 254.72 89.4157C255.692 88.9298 256.178 88.9298 256.664 88.4438C257.15 87.9578 257.15 87.4719 257.15 86.5C257.15 86.014 257.15 86.014 257.15 85.5281C257.15 85.5281 257.049 85.2625 256.664 85.0421C256.278 84.8218 256.12 84.7117 255.692 84.5562C255.182 84.3712 254.234 84.0702 254.234 84.0702L247.43 82.1264C246.944 82.1264 245.486 81.6404 245.486 81.6404C245.486 81.6404 244.028 81.1545 243.542 80.6685C243.056 80.1826 242.57 79.6966 242.084 78.7247C241.598 77.7528 241.598 76.7809 241.598 75.809C241.598 73.8651 242.084 72.8932 243.056 71.4354C244.028 69.9775 245 69.4916 246.458 69.0056C247.916 68.5196 249.374 68.0337 251.318 68.0337C253.262 68.0337 254.72 68.5196 256.178 69.0056C257.636 69.4916 258.608 70.4635 259.58 71.4354C260.552 72.4073 261.038 73.8652 261.524 75.323L256.178 76.2949C256.178 75.323 255.692 74.8371 255.206 74.3511C254.72 73.8652 254.234 73.3792 253.262 72.8932C252.776 72.4073 251.804 72.4073 250.832 72.4073C249.86 72.4073 249.374 72.4073 248.888 72.8932C248.402 72.8932 247.916 73.3792 247.43 73.8652C246.944 74.3511 246.944 74.8371 246.944 75.323C246.944 75.809 246.944 76.2949 247.43 76.7809C247.916 77.2668 248.402 77.2668 248.888 77.7528C249.374 77.7528 249.86 78.2387 250.346 78.2387L254.72 79.2107C255.206 79.2107 256.178 79.6966 256.664 79.6966C257.636 80.1826 258.122 80.1826 259.094 80.6685C260.066 81.1545 260.552 81.6404 261.038 82.6123C261.524 83.5843 261.524 84.5562 261.524 86.014C261.524 87.4719 261.038 88.4438 260.552 89.4157C260.066 90.3876 259.16 91.2112 258.154 91.8959C257.228 92.5267 256.9 92.752 255.047 93.6757C253.193 94.5994 252.436 94.4754 251.464 94.4754Z" fill="#626262"/>
<path d="M276.589 94.7612C274.159 94.7612 271.729 94.2753 269.785 93.3034C267.841 92.3315 266.383 90.8736 265.411 88.4438C264.925 86.5 264.439 84.0702 264.439 81.6404C264.439 79.2107 264.925 76.7809 265.897 74.8371C266.869 72.8933 268.327 71.4354 270.271 69.9775C272.215 69.0056 274.159 68.5197 277.075 68.5197C279.991 68.5197 282.422 69.0056 284.366 70.4635C286.31 71.9213 287.768 73.8652 288.74 76.2949L283.88 77.7528C283.394 76.2949 282.422 74.8371 281.45 74.3511C280.478 73.3792 279.019 72.8932 277.075 72.8932C275.617 72.8932 274.159 73.3792 273.187 73.8652C272.215 74.3511 271.243 75.809 270.757 76.7809C270.271 78.2388 269.785 79.6966 269.785 81.1545C269.785 82.6124 270.271 84.5562 270.757 85.5281C271.243 86.9859 272.215 87.9579 273.187 88.4438C274.159 88.9298 275.617 89.4157 277.075 89.4157C279.019 89.4157 280.478 88.9298 281.45 87.9579C282.422 86.9859 283.394 86.014 283.88 84.5562L288.74 86.014C287.768 88.4438 286.31 90.3876 284.366 91.8455C282.422 93.3034 279.506 94.7612 276.589 94.7612Z" fill="#626262"/>
<path d="M302.834 94.7612C300.404 94.7612 297.974 94.2753 296.03 93.3034C294.086 92.3315 292.628 90.8736 291.656 88.4438C290.684 86.5 290.198 84.0702 290.198 81.6404C290.198 79.2107 290.684 76.7809 291.656 74.8371C292.628 72.8933 294.086 71.4354 296.03 69.9775C297.974 69.0056 299.918 68.5197 302.834 68.5197C305.264 68.5197 307.694 69.0056 309.638 69.9775C311.582 70.9494 313.04 72.4073 314.012 74.8371C314.984 76.7809 315.47 79.2107 315.47 81.6404C315.47 84.0702 314.984 86.5 314.012 88.4438C313.04 90.3876 311.582 91.8455 309.638 93.3034C307.694 94.2753 305.75 94.7612 302.834 94.7612ZM302.834 90.3876C304.292 90.3876 305.75 89.9017 306.722 89.4157C307.694 88.9298 308.666 87.4719 309.152 86.5C309.638 85.0421 310.124 83.5843 310.124 81.6404C310.124 79.6966 309.638 78.2388 309.152 77.2668C308.666 75.809 307.694 74.8371 306.722 74.3511C305.75 73.8652 304.292 73.3792 302.834 73.3792C301.376 73.3792 299.918 73.8652 298.946 74.3511C297.974 74.8371 297.002 76.2949 296.516 77.2668C296.03 78.7247 295.544 80.1826 295.544 82.1264C295.544 84.0702 296.03 85.5281 296.516 86.5C297.002 87.4719 297.974 88.9298 298.946 89.4157C299.918 89.9017 301.376 90.3876 302.834 90.3876Z" fill="#626262"/>
<path d="M324.218 94.2753V73.3792H315.956V69.0056H336.854V73.3792H329.078V94.2753H324.218Z" fill="#626262"/>
<path d="M356.293 94.7612C354.835 94.7612 353.377 94.2753 351.919 93.7893C350.461 93.3033 349.003 92.3314 348.031 91.3595C347.059 90.3876 346.087 88.9298 345.601 86.9859C345.115 85.5281 344.629 83.5842 344.629 81.1545C344.629 78.2387 345.115 75.809 346.087 73.8651C347.059 71.9213 348.517 70.4635 350.461 69.4916C352.405 68.5196 354.349 68.0337 356.293 68.0337C359.695 68.0337 362.125 69.0056 364.069 70.4635C366.013 71.9213 366.985 74.3511 367.957 76.7809L363.097 77.2668C362.611 75.809 362.125 74.8371 360.667 73.8651C359.695 72.8932 358.237 72.4073 356.779 72.4073C355.321 72.4073 353.863 72.8932 352.891 73.3792C351.919 73.8652 350.947 75.323 350.461 76.2949C349.975 77.7528 349.489 79.2107 349.489 81.1545C349.489 83.0983 349.975 84.5562 350.461 85.5281C350.947 86.5 351.919 87.9578 352.891 88.4438C353.863 88.9298 355.321 89.4157 356.779 89.4157C357.751 89.4157 358.723 89.4157 359.695 88.9298C360.667 88.4438 361.153 87.9578 362.125 86.9859C363.097 86.014 363.097 85.0421 363.583 83.5842H359.695V79.6966H368.929C368.929 79.6966 368.929 80.1826 368.929 80.6685C368.929 81.1545 368.929 81.1545 368.929 81.1545C368.929 83.5842 368.443 85.5281 367.471 87.4719C366.499 89.4157 365.041 90.8736 363.097 91.8455C360.667 94.2753 358.723 94.7612 356.293 94.7612Z" fill="#626262"/>
<path d="M369.416 94.2753L377.192 69.0056H384.482L392.258 94.2753H387.398L380.594 71.9213H381.08L374.276 94.2753H369.416ZM374.276 88.9298V84.5562H387.884V88.9298H374.276Z" fill="#626262"/>
<path d="M395.174 94.2753V69.0056H399.548L407.81 86.014L416.072 69.0056H420.446V94.2753H416.072V79.2107L408.782 94.2753H407.324L399.548 79.2107V94.2753H395.174Z" fill="#626262"/>
<path d="M425.792 94.2753V69.0056H430.651V94.2753H425.792Z" fill="#626262"/>
<path d="M435.998 94.2753V69.0056H440.858L452.036 86.014V69.0056H456.896V94.2753H452.036L440.858 77.2669V94.2753H435.998Z" fill="#626262"/>
<path d="M472.448 94.7612C470.99 94.7612 469.532 94.2753 468.074 93.7893C466.616 93.3033 465.158 92.3314 464.186 91.3595C463.214 90.3876 462.242 88.9298 461.756 86.9859C461.27 85.5281 460.784 83.5842 460.784 81.1545C460.784 78.2387 461.27 75.809 462.242 73.8651C463.214 71.9213 464.672 70.4635 466.616 69.4916C468.56 68.5196 470.504 68.0337 472.448 68.0337C475.85 68.0337 478.28 69.0056 480.224 70.4635C482.168 71.9213 483.14 74.3511 484.112 76.7809L479.252 77.2668C478.766 75.809 478.28 74.8371 476.822 73.8651C475.85 72.8932 474.392 72.4073 472.934 72.4073C471.476 72.4073 470.018 72.8932 469.046 73.3792C468.074 73.8652 467.102 75.323 466.616 76.2949C466.13 77.7528 465.644 79.2107 465.644 81.1545C465.644 83.0983 466.13 84.5562 466.616 85.5281C467.102 86.5 468.074 87.9578 469.046 88.4438C470.018 88.9298 471.476 89.4157 472.934 89.4157C473.906 89.4157 474.878 89.4157 475.85 88.9298C476.822 88.4438 477.308 87.9578 478.28 86.9859C479.252 86.014 479.252 85.0421 479.738 83.5842H475.85V79.6966H485.084C485.084 79.6966 485.084 80.1826 485.084 80.6685C485.084 81.1545 485.084 81.1545 485.084 81.1545C485.084 83.5842 484.598 85.5281 483.626 87.4719C482.654 89.4157 481.196 90.8736 479.252 91.8455C476.822 94.2753 474.878 94.7612 472.448 94.7612Z" fill="#626262"/>
</svg>
