<?xml version="1.0" encoding="utf-8"?>
<!-- Generator: Adobe Illustrator 24.2.1, SVG Export Plug-In . SVG Version: 6.00 Build 0)  -->
<svg version="1.1" id="Layer_1" xmlns="http://www.w3.org/2000/svg" xmlns:xlink="http://www.w3.org/1999/xlink" x="0px" y="0px"
	 viewBox="0 0 136 24" style="enable-background:new 0 0 136 24;" xml:space="preserve">
<style type="text/css">
	.st0{fill:url(#SVGID_1_);}
	.st1{fill:#F79E1B;}
	.st2{fill:url(#SVGID_2_);}
	.st3{fill:url(#SVGID_3_);}
	.st4{fill:url(#SVGID_4_);}
</style>
<linearGradient id="SVGID_1_" gradientUnits="userSpaceOnUse" x1="91.1463" y1="0.437" x2="91.1463" y2="11.8913" gradientTransform="matrix(1 0 0 -1 0 17.9806)">
	<stop  offset="0.2583" style="stop-color:#E4D3B3"/>
	<stop  offset="0.4027" style="stop-color:#D7CBB4"/>
	<stop  offset="0.5375" style="stop-color:#C4BFB5"/>
	<stop  offset="0.6854" style="stop-color:#CFC9C0"/>
	<stop  offset="0.8347" style="stop-color:#DED8CF"/>
</linearGradient>
<path class="st0" d="M58.9,17.3v-5c0-1.9-1.2-3.2-3.1-3.2c-1.1-0.1-2.2,0.5-2.8,1.4c-0.6-0.9-1.6-1.5-2.6-1.4
	c-0.9,0-1.8,0.4-2.3,1.2v-1h-1.7v8h1.8v-4.4c0-1.4,0.8-2.1,2-2.1c1.2,0,1.7,0.8,1.7,2.1v4.4h1.8v-4.4c0-1.4,0.8-2.1,2-2.1
	c1.2,0,1.8,0.8,1.8,2.1v4.4L58.9,17.3L58.9,17.3z M84.7,9.3h-2.8V6.9h-1.8v2.4h-1.6v1.6h1.6v3.6c0,1.9,0.7,3,2.8,3
	c0.8,0,1.5-0.2,2.2-0.6l-0.5-1.5c-0.5,0.3-1,0.4-1.5,0.5c-0.9,0-1.2-0.5-1.2-1.3v-3.6h2.8L84.7,9.3L84.7,9.3z M99.5,9.1
	c-0.9,0-1.7,0.4-2.1,1.2v-1h-1.7v8h1.7v-4.5c0-1.3,0.6-2.1,1.7-2.1c0.4,0,0.7,0.1,1.1,0.2l0.5-1.6C100.3,9.2,99.9,9.1,99.5,9.1
	L99.5,9.1z M77.2,10c-1-0.6-2.1-0.9-3.3-0.8c-2,0-3.3,1-3.3,2.6c0,1.3,1,2.1,2.8,2.4l0.8,0.1c1,0.1,1.4,0.4,1.4,0.8
	c0,0.6-0.6,1-1.8,1c-1,0-1.9-0.3-2.7-0.8l-0.8,1.4c1,0.7,2.2,1.1,3.5,1c2.3,0,3.6-1.1,3.6-2.6c0-1.4-1.1-2.1-2.8-2.4l-0.8-0.1
	c-0.8-0.1-1.4-0.3-1.4-0.8c0-0.6,0.6-0.9,1.5-0.9c0.9,0,1.7,0.2,2.5,0.7L77.2,10z M123.5,9.1c-0.9,0-1.7,0.4-2.1,1.2v-1h-1.7v8h1.7
	v-4.5c0-1.3,0.6-2.1,1.7-2.1c0.4,0,0.7,0.1,1.1,0.2l0.5-1.6C124.3,9.2,123.9,9.1,123.5,9.1L123.5,9.1z M101.2,13.3
	c0,2.4,1.7,4.2,4.3,4.2c1,0.1,2.1-0.3,2.9-1l-0.8-1.4c-0.6,0.5-1.3,0.7-2.1,0.7c-1.4,0-2.4-1-2.4-2.6c0-1.5,1-2.5,2.4-2.6
	c0.8,0,1.5,0.3,2.1,0.7l0.8-1.4c-0.8-0.7-1.8-1-2.9-1C102.9,9.1,101.2,10.9,101.2,13.3L101.2,13.3z M117.4,13.3v-4h-1.7v1
	c-0.6-0.8-1.5-1.2-2.5-1.2c-2.2,0-4,1.8-4,4.2s1.8,4.2,4,4.2c1,0,1.9-0.4,2.5-1.2v1h1.7V13.3z M111,13.3c0-1.4,0.9-2.6,2.4-2.6
	c1.4,0,2.4,1.1,2.4,2.6s-1,2.6-2.4,2.6C111.9,15.8,111,14.7,111,13.3z M90.1,9.1c-2.3,0-4,1.7-4,4.2c0,2.5,1.7,4.2,4.1,4.2
	c1.2,0,2.4-0.4,3.3-1.1l-0.9-1.3c-0.7,0.5-1.5,0.8-2.3,0.8c-1.1,0-2.1-0.5-2.4-2h5.9c0-0.2,0-0.4,0-0.7C93.8,10.8,92.3,9.1,90.1,9.1
	L90.1,9.1z M90.1,10.7c1.1,0,1.8,0.7,2,1.9H88C88.1,11.4,88.8,10.7,90.1,10.7z M133.5,13.3V6.1h-1.7v4.2c-0.6-0.8-1.5-1.2-2.5-1.2
	c-2.2,0-4,1.8-4,4.2s1.8,4.2,4,4.2c1,0,1.9-0.4,2.5-1.2v1h1.7V13.3z M135.5,16.5c0.1,0,0.1,0,0.2,0s0.1,0.1,0.2,0.1
	c0,0,0.1,0.1,0.1,0.2c0.1,0.1,0.1,0.3,0,0.4c0,0.1-0.1,0.1-0.1,0.2c0,0-0.1,0.1-0.2,0.1c-0.1,0-0.1,0-0.2,0c-0.2,0-0.4-0.1-0.5-0.3
	c-0.1-0.1-0.1-0.3,0-0.4c0.1-0.1,0.2-0.2,0.3-0.3C135.4,16.5,135.4,16.5,135.5,16.5L135.5,16.5z M135.5,17.4c0.1,0,0.1,0,0.2,0
	c0,0,0.1,0,0.1-0.1c0.2-0.2,0.2-0.4,0-0.6c0,0-0.1-0.1-0.1-0.1c0,0-0.1,0-0.2,0c-0.1,0-0.1,0-0.2,0c-0.2,0.1-0.3,0.3-0.2,0.5
	c0,0,0,0.1,0.1,0.1c0,0,0.1,0.1,0.1,0.1C135.4,17.4,135.4,17.4,135.5,17.4L135.5,17.4z M135.5,16.8c0,0,0.1,0,0.1,0
	c0,0,0.1,0.1,0,0.1c0,0,0,0.1,0,0.1c0,0-0.1,0-0.1,0l0.2,0.2h-0.1l-0.1-0.2h-0.1v0.2h-0.1v-0.5L135.5,16.8z M135.4,16.9V17h0.1
	c0,0,0,0,0.1,0l0,0c0,0,0,0,0,0C135.5,17,135.5,17,135.4,16.9L135.4,16.9L135.4,16.9z M127,13.3c0-1.4,0.9-2.6,2.4-2.6
	c1.4,0,2.4,1.1,2.4,2.6s-1,2.6-2.4,2.6C127.9,15.8,127,14.7,127,13.3z M68.6,13.3v-4h-1.7v1c-0.6-0.8-1.5-1.2-2.5-1.2
	c-2.2,0-4,1.8-4,4.2s1.8,4.2,4,4.2c1,0,1.9-0.4,2.5-1.2v1h1.7V13.3z M62.2,13.3c0-1.4,0.9-2.6,2.4-2.6c1.4,0,2.4,1.1,2.4,2.6
	s-1,2.6-2.4,2.6C63.1,15.8,62.2,14.7,62.2,13.3L62.2,13.3z"/>
<g>
	<path class="st1" d="M19.1,13.1v-0.4h0.2v-0.1h-0.4v0.1H19L19.1,13.1L19.1,13.1z M19.9,13.1v-0.5h-0.1L19.6,13l-0.1-0.3h-0.1v0.5
		h0.1v-0.4l0.1,0.3h0.1l0.1-0.3L19.9,13.1L19.9,13.1z"/>
	<g>
		
			<linearGradient id="SVGID_2_" gradientUnits="userSpaceOnUse" x1="19.3316" y1="-3.4227" x2="19.3316" y2="15.4202" gradientTransform="matrix(1 0 0 -1 0 17.9806)">
			<stop  offset="0" style="stop-color:#F6DFAF"/>
			<stop  offset="6.550192e-02" style="stop-color:#F2DDB0"/>
			<stop  offset="0.1225" style="stop-color:#E8D6B3"/>
			<stop  offset="0.2583" style="stop-color:#E4D3B3"/>
			<stop  offset="0.4027" style="stop-color:#D7CBB4"/>
			<stop  offset="0.5375" style="stop-color:#C4BFB5"/>
			<stop  offset="0.6854" style="stop-color:#CFC9C0"/>
			<stop  offset="0.8347" style="stop-color:#DED8CF"/>
			<stop  offset="1" style="stop-color:#FCFDFB"/>
		</linearGradient>
		<path class="st2" d="M14.8,12c0,3.7,1.7,7.2,4.5,9.4l0,0c5.2-4.1,6.1-11.6,2-16.8c-0.6-0.7-1.3-1.4-2-2l0,0l0,0
			C16.5,4.8,14.8,8.3,14.8,12z"/>
		
			<linearGradient id="SVGID_3_" gradientUnits="userSpaceOnUse" x1="9.1664" y1="-5.9917" x2="9.1664" y2="17.9819" gradientTransform="matrix(1 0 0 -1 0 17.9806)">
			<stop  offset="0" style="stop-color:#F6DFAF"/>
			<stop  offset="6.550192e-02" style="stop-color:#F2DDB0"/>
			<stop  offset="0.1225" style="stop-color:#E8D6B3"/>
			<stop  offset="0.2583" style="stop-color:#E4D3B3"/>
			<stop  offset="0.4027" style="stop-color:#D7CBB4"/>
			<stop  offset="0.5375" style="stop-color:#C4BFB5"/>
			<stop  offset="0.6854" style="stop-color:#CFC9C0"/>
			<stop  offset="0.8347" style="stop-color:#DED8CF"/>
			<stop  offset="1" style="stop-color:#FCFDFB"/>
		</linearGradient>
		<path class="st3" d="M13.5,12c0-3.9,1.8-7.5,4.8-10.1c-5.1-3.2-12-2.1-15.8,2.7c-4.1,5.2-3.2,12.8,2,16.8c4,3.2,9.5,3.4,13.7,0.7
			C15.3,19.5,13.5,15.8,13.5,12z"/>
		
			<linearGradient id="SVGID_4_" gradientUnits="userSpaceOnUse" x1="29.5233" y1="-5.9931" x2="29.5233" y2="17.9769" gradientTransform="matrix(1 0 0 -1 0 17.9806)">
			<stop  offset="0" style="stop-color:#F6DFAF"/>
			<stop  offset="6.550192e-02" style="stop-color:#F2DDB0"/>
			<stop  offset="0.1225" style="stop-color:#E8D6B3"/>
			<stop  offset="0.2583" style="stop-color:#E4D3B3"/>
			<stop  offset="0.4027" style="stop-color:#D7CBB4"/>
			<stop  offset="0.5375" style="stop-color:#C4BFB5"/>
			<stop  offset="0.6854" style="stop-color:#CFC9C0"/>
			<stop  offset="0.8347" style="stop-color:#DED8CF"/>
			<stop  offset="1" style="stop-color:#FCFDFB"/>
		</linearGradient>
		<path class="st4" d="M36.1,4.6c-3.8-4.9-10.7-6-15.8-2.7c0.6,0.5,1.1,1,1.6,1.5c4.9,5.7,4.2,13.8-1.6,18.7
			c1.9,1.2,4.1,1.9,6.4,1.9c6.6,0,12-5.4,12-12C38.7,9.3,37.8,6.7,36.1,4.6z"/>
	</g>
</g>
</svg>
