<svg width="910" height="841" viewBox="0 0 910 841" fill="none" xmlns="http://www.w3.org/2000/svg">
<path d="M146.856 837.993H154.148V794.848L197.496 840.424V780.264H190.204V823.004L146.856 777.428V837.993ZM96.8237 837.993H127.816V831.309H103.913V809.432H127.005V802.748H103.913V786.543H127.816V779.859H96.8237V837.993ZM247.731 786.746H233.957V837.993H226.665V786.746H212.891V780.061H247.529V786.746H247.731ZM264.341 837.993H295.333V831.309H271.431V809.432H294.523V802.748H271.431V786.543H295.333V779.859H264.341V837.993ZM349.619 796.671C349.822 804.773 343.948 811.863 335.643 812.876L353.873 837.993H345.163L328.148 813.484H325.11V837.993H317.817V780.061H326.527C331.591 780.061 337.263 780.061 341.72 782.694C346.784 785.733 349.822 790.999 349.619 796.671ZM327.135 786.543H325.312V807.407H327.54C334.832 807.407 342.935 805.989 342.935 796.874C342.935 787.961 334.427 786.543 327.135 786.543ZM386.08 786.746H399.854V780.061H365.217V786.746H378.991V837.993H386.283L386.08 786.746ZM459.812 837.993L453.128 823.409H426.592L419.908 837.993H412.211L439.759 777.63L467.307 837.993H459.812ZM439.961 793.633L429.631 817.13H450.292L439.961 793.633ZM490.197 780.264H482.904V838.196H490.197V780.264ZM516.124 837.993H508.832V777.428L552.18 823.004V780.264H559.472V840.424L516.124 794.848V837.993ZM608.492 839.209L625.912 799.709H626.115L632.799 837.993H640.294L628.545 777.63L608.694 823.206L588.844 777.63L577.095 837.993H584.59L591.274 799.709H591.477L608.492 839.209ZM692.149 837.993H661.158V780.061H692.149V786.746H668.247V802.95H691.542V809.635H668.45V831.512H692.352L692.149 837.993ZM712 837.993H719.293V794.848L762.641 840.424V780.264H755.348V823.004L712 777.428V837.993ZM813.078 786.746H799.304V837.993H792.012V786.746H778.238V780.061H813.078V786.746Z" fill="#757575"/>
<path d="M0 702.886H17.2177V599.985L120.929 708.557V564.739H103.711V666.83L0 558.257V702.886ZM151.11 702.886H225.247V687.086H168.328V634.825H223.627V619.026H168.328V580.336H225.247V564.537H151.11V702.886ZM331.187 580.539H298.372V702.886H281.154V580.539H248.339V564.739H331.187V580.539ZM427.606 633.205V649.005H463.256C462.446 671.489 439.354 690.124 418.085 690.124C388.309 690.124 364.407 662.576 364.407 633.61C364.407 602.618 388.511 577.501 419.503 577.501C436.721 577.906 452.723 586.211 462.851 599.985L475.005 588.439C450.09 557.447 404.716 552.788 373.927 577.703C356.912 591.477 346.986 612.138 347.189 634.218C347.189 672.502 378.383 705.924 417.072 705.924C455.761 705.924 482.499 676.755 482.499 638.876V633.407L427.606 633.205ZM612.949 702.886L597.149 668.248H533.747L517.948 702.886H499.515L565.549 558.865L631.584 702.886H612.949ZM565.549 596.541L541.039 652.448H590.059L565.549 596.541ZM726.18 705.722L767.502 611.531H767.907L784.112 702.683H801.938L773.782 558.662L726.382 667.438L678.983 558.662L650.827 702.683H668.653L684.858 611.531H685.263L726.18 705.722ZM909.7 702.886H835.563V564.739H909.7V580.539H852.78V619.228H908.079V635.028H852.78V687.288H909.7V702.886Z" fill="#757575"/>
<path d="M459.003 399.45L553.194 494.653H365.015L459.003 399.45Z" fill="#757575"/>
<path fill-rule="evenodd" clip-rule="evenodd" d="M617.81 236.389L744.208 364.204L617.81 492.02L491.412 364.204L617.81 236.389ZM586.616 364.204C600.795 358.33 611.936 347.189 617.81 333.01C623.684 347.189 634.825 358.33 649.004 364.204C641.712 366.635 635.23 370.888 630.369 376.763C625.102 382.232 620.848 388.511 617.81 395.398C617.81 395.398 616.19 389.119 606.872 378.181C601.605 371.901 594.516 367.04 586.616 364.204ZM702.075 364.204L617.81 279.939L533.544 364.204L617.81 448.47L702.075 364.204ZM564.739 364.407L617.81 311.336L670.881 364.407L617.81 417.478L564.739 364.407Z" fill="#757575"/>
<path fill-rule="evenodd" clip-rule="evenodd" d="M291.89 236.389L418.288 364.204L291.89 492.02L165.492 364.204L291.89 236.389ZM260.696 364.204C274.875 358.33 286.016 347.189 291.89 333.01C297.764 347.189 308.905 358.33 323.084 364.204C315.792 366.635 309.31 370.888 304.449 376.763C299.182 382.232 294.929 388.511 291.89 395.398C291.89 395.398 290.27 389.119 280.952 378.181C275.483 371.901 268.596 367.04 260.696 364.204ZM376.155 364.204L291.89 279.939L207.625 364.204L291.89 448.47L376.155 364.204ZM238.819 364.407L291.89 311.336L344.961 364.407L291.89 417.478L238.819 364.407Z" fill="#757575"/>
<path fill-rule="evenodd" clip-rule="evenodd" d="M456.977 0L622.064 167.113L456.977 334.225L291.89 167.113L456.977 0ZM416.06 167.112C434.493 159.415 449.28 144.831 456.774 126.398C464.472 144.831 479.056 159.618 497.489 167.112C497.489 167.112 485.335 170.151 472.979 183.317C460.825 196.484 456.774 207.827 456.774 207.827C456.774 207.827 454.749 199.725 442.595 185.343C435.708 177.038 426.39 170.758 416.06 167.112ZM562.309 167.113L456.977 61.781L351.646 167.113L456.977 272.444L562.309 167.113ZM383.042 166.91L456.977 92.9754L530.912 166.91L456.977 240.845L383.042 166.91Z" fill="#757575"/>
</svg>
