<?xml version="1.0" encoding="utf-8"?>
<!-- Generator: Adobe Illustrator 24.1.0, SVG Export Plug-In . SVG Version: 6.00 Build 0)  -->
<svg version="1.1" id="Слой_1" xmlns="http://www.w3.org/2000/svg" xmlns:xlink="http://www.w3.org/1999/xlink" x="0px" y="0px"
	 width="100px" height="35.6px" viewBox="0 0 100 35.6" style="enable-background:new 0 0 100 35.6;" xml:space="preserve">
<style type="text/css">
	.st0{fill:#757575;}
</style>
<desc>Created with sketchtool.</desc>
<g>
	<path class="st0" d="M12.6,24.4c4.7-1,7.7-5.7,6.6-10.3c-0.9-4-4.3-6.7-8.5-6.8c-3.9-0.1-7.4,2.4-8.5,6c-0.2,0.5-0.3,1-0.4,1.5
		c0,0.8,0,1.5,0,2.3c0,0.1,0.1,0.1,0.1,0.2C2.8,22.3,7.5,25.5,12.6,24.4z M10.6,11c2.5,0,4.7,2.3,4.6,4.9c0,2.6-2.2,4.8-4.7,4.8
		c-2.5,0-4.7-2.2-4.7-4.9C5.9,13.3,8.1,11,10.6,11z"/>
	<path class="st0" d="M56.7,23.3c0.4,0.3,0.7,0.6,1.1,0.8c1.2,0.6,2.4,0.6,3.7,0.3c2.4-0.6,5.2-3.2,4.9-6.8c-0.2-2.7-1.4-4.8-4-5.9
		c-2.1-0.9-4.5-0.4-5.8,1.6c0,0-0.1,0-0.1,0c0-0.7,0-1.3,0-2.1c-1.2,0.1-2.3,0.3-3.5,0.4c0,0.3,0,0.5,0,0.7c0,4.5,0,9.1,0,13.6
		c0,0.9,0,1.7,0,2.6c0.2,0,0.4,0,0.7,0c1-0.1,2-0.3,3.1-0.4C56.7,26.6,56.7,24.9,56.7,23.3z M59.5,14.7c1.6,0,3.1,1.5,3,3.2
		c0,1.7-1.4,3.2-3,3.2c-1.6,0-3.1-1.5-3.1-3.2C56.5,16.3,57.9,14.7,59.5,14.7z"/>
	<path class="st0" d="M52.5,12.7c0.1-0.1,0.1-0.3,0.2-0.5c-1.2-0.3-2.4-0.6-3.6-0.9c-1,2.4-2,4.8-3,7.3c-1-2.5-2-4.9-3-7.3
		c-1.3,0.3-2.4,0.6-3.7,0.9c0.1,0.2,0.2,0.4,0.3,0.6c1.4,3.2,2.8,6.4,4.3,9.6c0.1,0.3,0.1,0.6,0,0.9c-0.7,1.5-1.5,2.9-2.2,4.4
		c-0.1,0.2-0.2,0.3-0.2,0.6c0.2,0,0.3,0,0.5,0c0.9,0.1,1.8,0.2,2.7,0.3c0.3,0,0.5,0,0.8,0c0,0,0-0.1,0.1-0.1
		C47.8,23.3,50.2,18,52.5,12.7z"/>
	<path class="st0" d="M95.7,18.1c0.9-1.9,1.7-3.8,2.6-5.8c-1.2-0.3-2.4-0.6-3.6-0.9c-1,2.4-2,4.8-3,7.3c-1-2.5-2-4.9-3-7.3
		c-1.3,0.3-2.5,0.6-3.7,0.9c0.1,0.3,0.2,0.5,0.3,0.7c1.4,3.1,2.8,6.3,4.2,9.4c0.2,0.4,0.2,0.7,0,1c-0.7,1.4-1.4,2.9-2.2,4.3
		c-0.1,0.2-0.1,0.3-0.2,0.5c0.2,0,0.3,0,0.4,0c0.9,0.1,1.8,0.2,2.7,0.3c0.3,0,0.6,0,0.9,0c0.1-0.2,0.1-0.3,0.2-0.5
		C92.7,24.8,94.2,21.4,95.7,18.1z"/>
	<path class="st0" d="M32.2,15.2c-0.1-1.6-0.9-3-2.5-3.5c-1.9-0.6-3.6-0.4-4.9,1.3c0,0-0.1,0.1-0.2,0.2c0-0.6,0-1.2,0-1.8
		c-1.2,0.1-2.3,0.3-3.4,0.4c0,4.2,0,8.4,0,12.7c1.3-0.1,2.5-0.3,3.7-0.4c0-0.2,0-0.4,0-0.6c0-2.1,0-4.3,0-6.4c0-0.9,0.2-1.7,1.1-2
		c1.4-0.5,2.6,0.3,2.6,1.8c0,2.3,0,4.7,0,7c0,0.2,0,0.4,0,0.7c1.3-0.1,2.5-0.3,3.7-0.4c0-0.1,0.1-0.1,0.1-0.2
		C32.3,21,32.3,18.1,32.2,15.2z"/>
	<path class="st0" d="M81.9,11.7c-1.9-0.6-3.8-0.4-5.7,0.1c-0.1,0-0.3,0.2-0.3,0.3c-0.2,1-0.3,2-0.5,3.2c1.3-0.5,2.4-0.8,3.7-0.7
		c1.5,0.1,2.1,0.8,1.9,2.3c-1.1-0.6-2.2-1-3.5-0.8c-1.3,0.2-2.3,0.7-3,1.8c-1.1,1.6-0.8,4.2,0.6,5.6c0.9,0.9,2,1.1,3.1,1.2
		c1.2,0,2.3-0.3,3.1-1.5c0,0.5,0,0.9,0,1.3c1.1-0.1,2.2-0.3,3.2-0.4c0-0.1,0-0.2,0-0.3c0-2.8,0-5.7,0-8.5
		C84.6,13.6,83.6,12.2,81.9,11.7z M81,20.6c-0.2,0.7-0.9,1-1.8,1c-1.3,0-2.1-1-1.8-2.1c0.3-0.9,1.5-1.3,2.5-1
		C80.9,18.9,81.3,19.7,81,20.6z"/>
	<path class="st0" d="M34.9,24.4c1.3-0.1,2.5-0.3,3.7-0.4c0-5.7,0-11.3,0-17c-1.2,0.1-2.4,0.3-3.7,0.4C34.9,13,34.9,18.7,34.9,24.4z
		"/>
	<path class="st0" d="M68.3,24.4c1.2-0.1,2.4-0.2,3.7-0.4c0-5.7,0-11.3,0-17c-1.2,0.1-2.5,0.3-3.7,0.4
		C68.3,13.1,68.3,18.7,68.3,24.4z"/>
</g>
</svg>
