<svg width="1205" height="670" viewBox="0 0 1205 670" fill="none" xmlns="http://www.w3.org/2000/svg">
<path d="M9.07358 669.046C6.16829 669.046 3.92607 668.234 2.35564 666.603C0.785213 664.971 0 662.703 0 659.798V554.055C0 551.028 0.811387 548.733 2.44289 547.163C4.07439 545.593 6.34278 544.807 9.24807 544.807H50.9517C64.213 544.807 74.447 548.097 81.6622 554.666C88.8775 561.245 92.4807 570.458 92.4807 582.323C92.4807 594.189 88.8775 603.585 81.6622 610.155C74.447 616.733 64.213 620.013 50.9517 620.013H18.1472V659.798C18.1472 662.703 17.3881 664.971 15.8788 666.603C14.3694 668.234 12.101 669.046 9.07358 669.046ZM18.1472 605.531H48.3343C57.0589 605.531 63.6634 603.585 68.1391 599.685C72.6148 595.794 74.857 590.001 74.857 582.323C74.857 574.645 72.6148 569.036 68.1391 565.136C63.6634 561.245 57.0589 559.29 48.3343 559.29H18.1472V605.531Z" fill="#757575"/>
<path d="M121.797 667.824C118.656 667.824 116.239 666.978 114.556 665.294C112.872 663.61 112.025 661.193 112.025 658.053V554.579C112.025 551.438 112.863 549.021 114.556 547.338C116.239 545.654 118.656 544.807 121.797 544.807H185.487C187.929 544.807 189.788 545.418 191.07 546.64C192.353 547.861 192.99 549.632 192.99 551.962C192.99 554.404 192.353 556.263 191.07 557.545C189.788 558.828 187.929 559.465 185.487 559.465H129.475V598.027H181.648C184.204 598.027 186.097 598.664 187.319 599.947C188.54 601.229 189.151 603.027 189.151 605.356C189.151 607.799 188.54 609.631 187.319 610.853C186.097 612.074 184.204 612.685 181.648 612.685H129.475V653.167H185.487C187.929 653.167 189.788 653.804 191.07 655.086C192.353 656.369 192.99 658.175 192.99 660.496C192.99 662.938 192.353 664.771 191.07 665.992C189.788 667.213 187.929 667.824 185.487 667.824H121.797Z" fill="#757575"/>
<path d="M223.349 669.046C220.67 669.046 218.577 668.287 217.067 666.777C215.558 665.268 214.799 663.113 214.799 660.321V552.66C214.799 549.754 215.523 547.512 216.98 545.942C218.437 544.371 220.383 543.586 222.825 543.586C224.919 543.586 226.516 543.961 227.624 544.72C228.732 545.479 230.041 546.849 231.55 548.821L303.441 643.57H299.078V552.136C299.078 549.466 299.803 547.372 301.26 545.854C302.717 544.345 304.776 543.586 307.454 543.586C310.133 543.586 312.34 544.345 313.736 545.854C315.132 547.364 315.83 549.458 315.83 552.136V660.496C315.83 663.174 315.158 665.268 313.823 666.777C312.479 668.287 310.708 669.046 308.501 669.046C306.407 669.046 304.688 668.636 303.354 667.824C302.01 667.013 300.588 665.617 299.078 663.636L227.537 569.062H231.55V660.321C231.55 663.113 230.852 665.268 229.456 666.777C228.06 668.287 226.027 669.046 223.349 669.046Z" fill="#757575"/>
<path d="M402.03 669.395C388.655 669.395 377.365 666.865 368.178 661.804C358.991 656.744 352.038 649.503 347.327 640.08C342.615 630.658 340.26 619.429 340.26 606.403C340.26 596.632 341.63 587.881 344.36 580.142C347.091 572.403 351.052 565.773 356.226 560.25C361.399 554.727 367.742 550.505 375.245 547.599C382.749 544.694 391.272 543.237 400.808 543.237C407.788 543.237 414.654 544.136 421.399 545.942C428.143 547.748 434.311 550.679 439.895 554.754C441.526 555.914 442.573 557.258 443.036 558.767C443.498 560.276 443.533 561.82 443.123 563.391C442.713 564.961 441.962 566.331 440.854 567.491C439.746 568.652 438.411 569.35 436.841 569.585C435.271 569.821 433.552 569.35 431.694 568.189C427.157 565.049 422.384 562.754 417.385 561.297C412.386 559.84 406.855 559.116 400.808 559.116C391.735 559.116 384.083 560.974 377.863 564.7C371.642 568.425 366.957 573.799 363.816 580.84C360.675 587.881 359.105 596.396 359.105 606.403C359.105 621.872 362.769 633.624 370.098 641.651C377.427 649.677 388.306 653.691 402.728 653.691C407.963 653.691 413.11 653.193 418.17 652.207C423.231 651.221 428.09 649.791 432.74 647.932L429.076 657.006V616.349H406.567C404.237 616.349 402.405 615.739 401.07 614.517C399.735 613.296 399.064 611.577 399.064 609.37C399.064 607.162 399.735 605.505 401.07 604.397C402.405 603.289 404.237 602.739 406.567 602.739H436.754C439.197 602.739 441.055 603.376 442.338 604.658C443.62 605.941 444.257 607.799 444.257 610.242V654.214C444.257 656.308 443.882 658.088 443.123 659.536C442.364 660.993 441.116 662.066 439.371 662.764C434.372 664.745 428.492 666.341 421.748 667.563C415.003 668.784 408.425 669.395 402.03 669.395Z" fill="#757575"/>
<path d="M521.732 669.395C513.469 669.395 506.202 668.322 499.92 666.167C493.638 664.012 488.377 660.783 484.129 656.482C479.88 652.181 476.652 646.824 474.444 640.429C472.237 634.034 471.129 626.644 471.129 618.269V552.66C471.129 549.632 471.914 547.364 473.485 545.854C475.055 544.345 477.297 543.586 480.203 543.586C483.108 543.586 485.35 544.345 486.92 545.854C488.491 547.364 489.276 549.632 489.276 552.66V617.92C489.276 629.898 492.042 638.859 497.564 644.791C503.087 650.724 511.149 653.69 521.732 653.69C532.315 653.69 540.516 650.724 545.986 644.791C551.456 638.859 554.187 629.898 554.187 617.92V552.66C554.187 549.632 554.972 547.364 556.543 545.854C558.113 544.345 560.294 543.586 563.086 543.586C565.878 543.586 568.208 544.345 569.717 545.854C571.226 547.364 571.985 549.632 571.985 552.66V618.269C571.985 629.436 570.092 638.832 566.314 646.449C562.537 654.066 556.918 659.798 549.476 663.636C542.034 667.475 532.786 669.395 521.732 669.395Z" fill="#757575"/>
<path d="M608.968 669.046C606.063 669.046 603.821 668.234 602.25 666.603C600.68 664.971 599.895 662.703 599.895 659.798V552.834C599.895 549.807 600.68 547.512 602.25 545.942C603.821 544.371 606.063 543.586 608.968 543.586C611.873 543.586 614.116 544.371 615.686 545.942C617.256 547.512 618.042 549.807 618.042 552.834V659.798C618.042 662.703 617.283 664.971 615.773 666.603C614.264 668.234 611.996 669.046 608.968 669.046Z" fill="#757575"/>
<path d="M655.208 669.046C652.53 669.046 650.436 668.287 648.927 666.777C647.417 665.268 646.658 663.113 646.658 660.321V552.66C646.658 549.754 647.382 547.512 648.839 545.942C650.296 544.371 652.242 543.586 654.685 543.586C656.779 543.586 658.375 543.961 659.483 544.72C660.591 545.479 661.9 546.849 663.409 548.821L735.3 643.57H730.938V552.136C730.938 549.466 731.662 547.372 733.119 545.854C734.576 544.345 736.635 543.586 739.313 543.586C741.992 543.586 744.199 544.345 745.595 545.854C746.991 547.364 747.689 549.458 747.689 552.136V660.496C747.689 663.174 747.017 665.268 745.682 666.777C744.339 668.287 742.568 669.046 740.36 669.046C738.267 669.046 736.548 668.636 735.213 667.824C733.869 667.013 732.447 665.617 730.938 663.636L659.396 569.062H663.409V660.321C663.409 663.113 662.712 665.268 661.316 666.777C659.92 668.287 657.887 669.046 655.208 669.046Z" fill="#757575"/>
<path d="M825.583 669.046C822.678 669.046 820.436 668.234 818.865 666.603C817.295 664.971 816.51 662.703 816.51 659.797V552.659C816.51 549.632 817.295 547.364 818.865 545.854C820.436 544.345 822.678 543.586 825.583 543.586C828.489 543.586 830.731 544.345 832.301 545.854C833.872 547.364 834.657 549.632 834.657 552.659V600.121H835.006L888.575 548.297C890.32 546.666 891.978 545.479 893.548 544.72C895.118 543.961 896.89 543.586 898.87 543.586C901.548 543.586 903.494 544.258 904.715 545.593C905.937 546.927 906.434 548.533 906.199 550.391C905.963 552.249 904.977 554.055 903.232 555.8L847.569 608.846L847.918 599.947L905.85 655.784C907.944 657.765 909.052 659.798 909.165 661.891C909.278 663.985 908.642 665.704 907.246 667.039C905.85 668.374 903.869 669.046 901.313 669.046C898.983 669.046 897.125 668.583 895.729 667.65C894.333 666.725 892.702 665.381 890.843 663.636L835.006 610.416H834.657V659.797C834.657 662.703 833.898 664.98 832.389 666.603C830.879 668.234 828.611 669.046 825.583 669.046Z" fill="#757575"/>
<path d="M937.781 669.046C934.875 669.046 932.633 668.234 931.063 666.603C929.492 664.971 928.707 662.703 928.707 659.797V552.834C928.707 549.815 929.492 547.512 931.063 545.941C932.633 544.371 934.875 543.586 937.781 543.586C940.686 543.586 942.928 544.371 944.499 545.941C946.069 547.512 946.854 549.815 946.854 552.834V659.797C946.854 662.703 946.095 664.98 944.586 666.603C943.076 668.234 940.808 669.046 937.781 669.046Z" fill="#757575"/>
<path d="M984.021 669.046C981.342 669.046 979.248 668.287 977.739 666.777C976.23 665.268 975.471 663.113 975.471 660.321V552.659C975.471 549.754 976.195 547.512 977.652 545.941C979.109 544.371 981.055 543.586 983.497 543.586C985.591 543.586 987.188 543.961 988.296 544.72C989.404 545.479 990.713 546.84 992.222 548.821L1064.11 643.57H1059.75V552.136C1059.75 549.458 1060.47 547.364 1061.93 545.854C1063.39 544.345 1065.45 543.586 1068.13 543.586C1070.8 543.586 1073.01 544.345 1074.41 545.854C1075.8 547.364 1076.5 549.458 1076.5 552.136V660.495C1076.5 663.174 1075.83 665.268 1074.49 666.777C1073.15 668.287 1071.38 669.046 1069.17 669.046C1067.08 669.046 1065.36 668.636 1064.03 667.824C1062.68 667.013 1061.26 665.617 1059.75 663.636L988.209 569.062H992.222V660.321C992.222 663.113 991.524 665.268 990.128 666.777C988.732 668.287 986.699 669.046 984.021 669.046Z" fill="#757575"/>
<path d="M1162.7 669.395C1149.33 669.395 1138.04 666.865 1128.85 661.804C1119.66 656.744 1112.71 649.503 1108 640.08C1103.29 630.657 1100.93 619.429 1100.93 606.403C1100.93 596.632 1102.3 587.881 1105.03 580.142C1107.76 572.403 1111.72 565.773 1116.9 560.25C1122.07 554.727 1128.41 550.505 1135.92 547.599C1143.42 544.694 1151.94 543.237 1161.48 543.237C1168.46 543.237 1175.33 544.144 1182.07 545.942C1188.81 547.748 1194.98 550.688 1200.57 554.753C1202.2 555.914 1203.24 557.257 1203.71 558.767C1204.17 560.276 1204.2 561.82 1203.79 563.391C1203.38 564.961 1202.63 566.331 1201.53 567.491C1200.42 568.652 1199.08 569.35 1197.51 569.585C1195.94 569.821 1194.22 569.35 1192.37 568.189C1187.83 565.048 1183.06 562.754 1178.06 561.297C1173.06 559.84 1167.53 559.116 1161.48 559.116C1152.41 559.116 1144.76 560.974 1138.53 564.699C1132.31 568.425 1127.63 573.808 1124.49 580.84C1121.35 587.881 1119.78 596.396 1119.78 606.403C1119.78 621.872 1123.44 633.624 1130.77 641.65C1138.1 649.677 1148.98 653.69 1163.4 653.69C1168.63 653.69 1173.78 653.202 1178.84 652.207C1183.9 651.221 1188.76 649.791 1193.41 647.932L1189.75 657.006V616.349H1167.24C1164.91 616.349 1163.08 615.738 1161.74 614.517C1160.41 613.296 1159.74 611.577 1159.74 609.369C1159.74 607.162 1160.41 605.504 1161.74 604.396C1163.08 603.288 1164.91 602.739 1167.24 602.739H1197.43C1199.87 602.739 1201.73 603.376 1203.01 604.658C1204.29 605.941 1204.93 607.799 1204.93 610.242V654.214C1204.93 656.308 1204.55 658.079 1203.79 659.536C1203.04 660.993 1201.79 662.066 1200.04 662.764C1195.04 664.744 1189.16 666.341 1182.42 667.563C1175.68 668.784 1169.1 669.395 1162.7 669.395Z" fill="#757575"/>
<path d="M638.085 327.434C636.445 323.264 635.276 318.963 634.482 314.591C634.473 314.53 634.447 314.469 634.421 314.408C633.103 311.704 633.828 308.737 632.597 306.076C631.934 304.637 632.24 303.267 632.999 302.246C633.112 302.089 633.182 301.915 633.173 301.723C632.824 290.119 634.482 278.315 636.689 267.182C640.615 247.403 647.167 228.323 652.28 208.849C652.428 208.291 652.664 207.846 652.961 207.48C653.283 207.087 653.231 206.494 652.795 206.223C643.939 200.683 633.81 197.516 623.035 197.516C588.364 197.516 560.262 230.085 560.262 270.262C560.262 310.439 588.364 343.008 623.035 343.008C630.067 343.008 636.811 341.646 643.119 339.177C643.608 338.985 643.791 338.392 643.503 337.947C641.366 334.684 639.551 331.186 638.076 327.434H638.085Z" fill="#757575"/>
<path d="M652.436 140.291C653.082 140.466 653.318 141.277 652.812 141.714C650.857 143.406 645.081 145.91 628.88 141.94C606.458 136.444 591.163 117.59 591.163 117.59C591.163 117.59 582.404 106.745 577.501 95.761C572.816 85.2566 571.795 71.4892 571.716 70.3027C571.716 70.2416 571.708 70.198 571.69 70.1369C571.132 68.2349 561.116 34.7325 548.997 29.8293C548.997 29.8293 543.204 26.7146 553.604 25.6676C563.995 24.6294 588.153 26.2609 600.577 49.1281C613.001 71.9952 637.064 121.891 637.064 121.891C637.064 121.891 644.035 138.014 652.454 140.291H652.436Z" fill="#757575"/>
<path d="M692.624 118.803C692.493 118.977 692.449 119.195 692.484 119.413C692.711 120.783 693.54 126.306 693.199 132.71C693.4 126.157 693.165 130.197 692.859 136.383C692.859 136.409 692.859 136.435 692.859 136.461C692.693 137.726 692.475 139 692.187 140.265C691.21 144.156 689.692 147.035 688.322 149.025C684.457 154.19 679.633 156.781 676.003 158.055C672.985 158.997 669.041 159.756 664.007 159.904C662.288 159.957 660.779 160.183 659.435 160.532L659.383 160.55C659.112 160.62 658.851 160.698 658.589 160.777C658.537 160.794 658.484 160.803 658.423 160.82C658.38 160.838 658.336 160.855 658.292 160.864C658.144 160.916 657.987 160.969 657.847 161.021C651.941 163.141 649.978 167.259 649.376 170.348C649.201 171.115 649.097 171.988 649.114 172.965C649.088 173.296 649.088 173.488 649.088 173.488C649.088 173.488 649.114 173.593 649.158 173.776C649.166 173.872 649.175 173.977 649.193 174.073C649.201 174.186 649.219 174.256 649.219 174.256C649.515 176.516 650.501 179.212 652.796 182.257H652.805C653.232 182.92 653.694 183.565 654.218 184.167C657.874 188.46 664.417 198.144 664.888 198.833C664.906 198.86 664.923 198.886 664.94 198.921L665.857 200.735C666.075 201.163 666.598 201.32 667.008 201.076C672.077 198.101 700.711 179.604 700.327 141.766C700.327 141.74 700.327 141.713 700.327 141.679C700.205 140.475 697.248 112.617 692.65 118.785L692.624 118.803Z" fill="#757575"/>
<path d="M631.289 194.942C629.186 191.278 605.77 154.032 527.606 164.79C527.021 164.868 526.533 164.345 526.681 163.769C528.138 158.107 536.139 134.236 567.172 138.031C567.216 138.031 567.242 138.04 567.285 138.049C569.135 138.529 619.668 151.747 635.119 176.236C649.611 199.2 634.316 195.98 631.786 195.317C631.568 195.265 631.394 195.125 631.289 194.933V194.942Z" fill="#757575"/>
<path d="M748.94 489.642C748.905 489.171 748.791 488.699 748.652 488.246C747.229 483.386 743.347 478.867 740.468 474.749C737.275 470.177 734.02 465.649 730.749 461.139C727.259 456.323 723.464 451.637 720.166 446.682L678.017 386.569C666.902 372.148 648.956 334.876 641.226 318.343C641.226 318.343 641.226 317.767 641.749 318.099C649.322 331.526 658.09 344.36 668.481 355.772C675.435 363.406 683.147 370.429 691.741 376.187C698.398 380.645 705.639 384.772 713.622 386.185C716.571 386.709 720.436 387.04 722.958 384.964C728.812 380.148 721.509 368.649 718.857 364.217C710.961 351.008 706.224 341.716 702.996 334.606C699.279 325.898 691.383 304.166 682.545 260.237C681.786 256.302 681.018 252.359 680.242 248.45C680.102 247.761 679.963 247.08 679.815 246.391V246.348C679.815 246.348 671.23 192.909 623.497 161.466L623.427 161.422C615.488 155.629 606.292 150.124 595.814 145.631C590.335 143.188 585.475 141.53 581.366 140.396C572.467 137.953 567.224 138.04 567.224 138.04C564.92 138.756 573.907 141.155 574.474 141.303C574.491 141.303 574.509 141.312 574.526 141.321C604.207 150.979 622.616 173.837 622.616 173.837C622.616 173.837 623.07 174.343 623.776 175.216C627.929 180.442 640.72 199.409 619.719 215.079C593.781 234.43 578.269 257.498 580.947 287.842C583.6 320.873 629.29 385.496 620.862 410.265C614.598 428.674 591.146 426.406 585.598 425.978C580.267 425.507 575.32 424.443 571.036 422.907C551.196 416.573 519.369 387.965 519.369 387.965C519.369 387.965 497.313 367.07 475.816 332.494C450.602 290.965 439.661 235.765 439.661 235.765C439.495 235.459 439.347 235.389 439.225 235.442C438.789 235.302 438.64 236.026 438.658 237.143C438.64 237.291 438.623 237.396 438.623 237.396C438.64 237.51 438.658 237.632 438.675 237.745C438.832 240.677 439.775 245.318 439.775 245.318C440.412 249.776 447.33 297.779 472.78 342.091C497.915 385.88 533.843 413.467 538.764 417.132C538.869 417.219 539.253 417.568 538.816 417.952C524.456 430.166 479.568 436.989 476.636 437.285C476.243 437.32 475.868 437.381 475.502 437.451C473.382 437.8 472.125 438.332 471.393 438.865C471.332 438.899 471.297 438.917 471.297 438.917C471.297 438.917 471.227 438.969 471.122 439.074C470.285 439.789 470.328 440.426 470.328 440.426C469.944 441.918 470.791 444.326 477.831 446.795C489.269 450.809 506.64 450.809 530.851 447.092C539.113 445.827 547.934 445.181 555.96 444.885C555.978 444.885 555.986 444.885 556.004 444.885C565.104 443.934 617.687 445.076 633.714 448.165C649.052 450.66 664.154 454.647 678.628 460.31C689.246 464.463 699.515 469.497 709.234 475.456C715.673 479.399 721.727 483.875 727.861 488.289C729.71 489.616 731.569 490.95 733.575 492.024C737.598 494.17 743.024 495.636 747.151 492.905C747.866 492.434 748.529 491.805 748.809 490.994C748.957 490.567 748.983 490.122 748.948 489.677L748.94 489.642Z" fill="#757575"/>
<path d="M528.984 141.801C467.344 143.615 421.191 185.302 421.191 185.302C421.191 185.302 414.622 190.641 411.804 194.829L411.769 194.881C411.324 195.553 410.966 196.19 410.757 196.774C405.6 208.692 423.599 220.104 423.599 220.104C426.033 221.788 429.139 223.568 433.1 225.286C447.243 231.411 454.711 236.428 461.394 240.432C468.077 244.446 469.639 239.429 469.639 239.429C477.229 215 460.627 189.071 454.458 180.59C453.699 179.543 454.903 178.217 456.029 178.845C459.806 180.948 463.296 185.485 464.91 187.788C465.381 188.46 466.359 188.46 466.847 187.797C481.923 167.373 516.35 150.159 529.533 144.087C530.72 143.537 530.292 141.757 528.984 141.792V141.801Z" fill="#757575"/>
<path d="M793.105 121.725L792.712 121.525L764.087 110.732C763.144 110.375 762.656 109.336 762.996 108.385C764.357 104.538 767.603 95.3945 768.178 93.763C768.92 91.6865 768.178 90.2732 768.178 90.2732C767.83 89.4792 767.123 88.9383 766.329 88.5719C765.134 88.0222 754.106 86.1639 749.063 85.335C747.824 85.1344 747.152 83.7908 747.719 82.674C750.974 76.2964 760.099 58.4197 761.495 55.7412C763.205 52.4782 762.089 51.0648 762.089 51.0648C760.457 48.6917 757.857 49.3548 757.857 49.3548L750.433 51.2131L725.864 57.46C724.695 57.7566 723.552 56.8754 723.543 55.6627L723.474 39.3302V39.1994C723.543 38.798 723.805 36.5296 722.654 35.1773C721.388 33.6942 718.125 34.9505 718.125 34.9505L704.384 39.0859C703.259 39.4262 702.098 38.641 701.994 37.4719L698.966 3.76878C698.966 3.76878 698.966 -0.000244141 695.738 -0.000244141C694.744 -0.000244141 693.993 0.322566 693.688 0.497058C693.574 0.55813 693.243 0.758791 692.885 1.09905C692.205 1.7534 691.219 3.8822 690.957 4.33588C678.289 26.5138 665.621 48.7005 652.953 70.8784C652.778 71.1925 652.412 71.3495 652.063 71.271C646.636 70.0932 641 69.465 635.216 69.465C633.383 69.465 631.569 69.5435 629.763 69.6744C629.606 69.6831 628.393 66.3678 628.262 66.0799C627.521 64.3786 626.727 62.7034 625.906 61.037C623.717 56.6224 621.265 52.3386 618.534 48.2381C615.254 43.2999 611.572 38.6235 607.428 34.3834C602.952 29.803 597.935 25.7373 592.369 22.5616C588.731 20.4851 584.918 18.6791 580.809 17.7805C576.927 16.9255 572.974 16.4282 568.996 16.4718C562.924 16.5416 556.816 17.8852 551.442 20.7643C549.034 22.0555 546.966 23.3206 544.829 25.1091C544.026 25.7722 543.258 26.6447 543.11 27.7091C542.944 28.9218 543.59 29.4627 544.489 30.0647C545.3 30.6056 546.085 31.1902 546.862 31.7922C548.388 32.97 549.845 34.2351 551.224 35.5787C553.946 38.2135 556.371 41.145 558.491 44.2771C560.603 47.3918 562.418 50.7158 563.953 54.1446C565.489 57.5821 566.754 61.1417 567.774 64.7712C568.787 68.3744 569.554 72.0388 570.113 75.738C570.654 79.35 570.994 82.9881 571.133 86.635C571.273 90.2819 571.229 93.5798 571.003 97.0435C570.793 100.228 570.435 103.404 569.886 106.545C569.406 109.31 568.778 112.05 567.94 114.737C567.347 116.639 566.658 118.506 565.794 120.295C565.035 122.729 562.304 125.957 564.983 125.32C571.718 121.202 574.745 110.584 575.976 104.276C576.237 102.959 578.017 102.741 578.61 103.945C579.247 105.236 579.849 106.37 580.39 107.356C583.278 112.582 588.6 117.468 589.525 118.052C590.607 118.803 591.706 118.768 591.976 118.384C592.23 118.017 591.933 117.101 591.043 116.368L590.842 116.168C580.347 103.761 579.012 91.0148 577.188 79.5943C574.885 67.0483 572.878 57.1371 566.832 46.5717C563.43 40.3336 558.718 34.1478 552.663 30.2654C552.437 30.1171 552.201 29.9687 552.061 29.7332C551.459 28.7037 556.467 28.0493 556.973 27.9795C559.791 27.5957 562.54 27.8225 565.314 28.4681C572.215 30.0734 578.357 34.1042 583.339 39.0598C586.768 42.4711 589.717 46.3797 592.099 50.5937C593.582 53.2111 594.751 55.9331 595.937 58.6901C602.245 73.3387 604.514 87.8739 608.859 98.4481C613.203 109.031 618.194 116.491 618.194 116.491C633.209 137.875 649.062 141.443 649.062 141.443C649.062 141.443 657.969 143.223 652.516 134.202C647.055 125.18 640.712 109.144 640.712 109.144C640.712 109.144 628.611 80.1177 647.299 83.3284C647.753 83.3546 648.207 83.4069 648.66 83.4767C648.913 83.5291 649.175 83.564 649.428 83.6163C649.472 83.625 649.524 83.6338 649.568 83.6425C677.652 89.4094 698.774 114.266 698.774 144.052C698.774 166.962 686.263 186.916 667.723 197.542C667.706 197.551 667.68 197.568 667.662 197.577L665.638 198.554C665.219 198.755 665.054 199.252 665.254 199.671L670.28 209.844C670.498 210.28 671.03 210.437 671.449 210.193C672.513 209.556 674.293 208.491 674.284 208.491C695.031 196.521 709.497 175.329 711.678 150.708C711.713 150.359 711.957 150.063 712.297 149.984L716.939 148.815C716.939 148.815 788.516 129.508 791.787 128.696C795.05 127.876 795.05 125.355 795.05 125.355C795.356 123.514 793.689 122.179 793.096 121.769L793.105 121.725ZM779.983 124.57L751.916 132.073L731.858 137.273C730.907 137.517 729.93 136.985 729.624 136.051C724.983 121.926 721.397 116.621 721.397 116.621C721.397 116.621 720.132 114.17 718.204 115.208C716.276 116.246 717.829 119.37 717.829 119.37C722.139 129.691 723.081 139.637 723.081 139.637L722.732 139.715L712.969 142.35C712.454 142.49 711.948 142.106 711.931 141.574C710.823 110.139 689.779 83.6337 660.718 73.679C660.229 73.5132 660.002 72.9461 660.264 72.4924L672.094 51.6581L689.718 20.5462C690.617 18.9583 693.025 19.4818 693.191 21.2965L697.195 66.5074C697.195 66.5074 697.195 69.3254 698.678 70.5905C700.161 71.8555 703.582 70.8173 703.582 70.8173L748.164 59.0217C749.709 58.6116 751.017 60.2169 750.302 61.6478L731.326 99.6608L731.212 99.8528C730.933 100.263 729.843 102.034 730.235 103.918C730.68 106.073 732.46 106.667 732.46 106.667L780.428 124.343L779.983 124.57Z" fill="#757575"/>
<path d="M677.442 127.536C678.48 129.054 679.152 129.691 679.152 129.691C680.818 130.581 680.304 128.06 680.304 128.06C675.924 113.655 664.861 108.089 661.258 106.152C659.688 105.314 656.18 104.451 655.709 107.086C655.508 108.185 656.302 109.319 657.218 109.869C669.991 115.81 676.413 126.018 677.451 127.545L677.442 127.536Z" fill="#757575"/>
</svg>
