<svg width="1504" height="713" viewBox="0 0 1504 713" fill="none" xmlns="http://www.w3.org/2000/svg">
<mask id="mask0_2_424" style="mask-type:luminance" maskUnits="userSpaceOnUse" x="0" y="0" width="1504" height="713">
<path d="M0 0H1504V713H0V0Z" fill="white"/>
</mask>
<g mask="url(#mask0_2_424)">
<path fill-rule="evenodd" clip-rule="evenodd" d="M321.428 19.1685C365.151 38.5163 398.311 74.2379 418.579 117.161C439.993 71.1924 476.841 33.751 524.504 15.4423C578.361 -5.76856 641.35 -3.22469 694.742 18.1653C745.413 38.3729 787.919 77.1042 812.448 125.832C855.169 209.851 844.104 317.589 784.481 390.717C758.591 422.39 719.845 447.542 678.449 451.089C681.435 448.492 684.458 446.01 687.463 443.543L687.464 443.542C695.197 437.193 702.813 430.94 709.388 423.07C736.174 391.684 749.996 349.119 749.961 308.131C749.638 275.204 740.22 241.954 717.195 217.59C683.999 182.621 631.431 170.117 585.845 185.667C602.246 194.731 617.179 205.158 627.993 220.743C649.049 249.478 653.561 288.747 639.882 321.602C631.682 342.312 616.785 358.076 598.916 370.903C600.035 373.283 601.154 375.661 602.274 378.04L602.408 378.326C614.138 403.257 625.863 428.177 637.232 453.274C606.472 457.932 577.896 450.695 551.182 435.432C549.535 448.832 546.24 457.574 539.186 468.968C545.81 489.104 554.476 499.996 571.45 512.357C558.308 514.542 545.846 515.116 532.525 514.471C539.365 530.128 548.962 542.059 561.173 553.775C554.53 554.452 547.875 554.941 541.216 555.431C536.244 555.796 531.269 556.162 526.294 556.606C528.013 559.365 529.804 562.123 531.63 564.811C539.86 569.813 548.828 573.818 557.774 577.812L557.777 577.813C563.31 580.284 568.835 582.751 574.172 585.448C580.717 571.274 587.295 557.099 593.873 542.925C597.155 535.853 600.436 528.78 603.714 521.708L603.859 521.775L603.881 521.785L603.902 521.795L603.924 521.805L603.945 521.815L603.967 521.824L603.988 521.834L604.009 521.844L604.031 521.854L604.052 521.864L604.074 521.874L604.095 521.884C628.175 532.968 652.256 544.052 676.372 555.137C666.954 575.523 657.572 595.946 648.226 616.369L648.11 616.602L648.017 616.79C647.935 616.957 647.852 617.124 647.77 617.291C647.62 617.598 647.47 617.906 647.32 618.213L647.303 618.248C644.113 624.784 640.942 631.281 633.329 633.602C623.732 636.505 615.352 633.065 606.687 629.231C598.748 625.539 590.822 621.824 582.898 618.11C564.37 609.426 545.85 600.745 527.189 592.363C529.768 612.535 534.674 627.547 544.342 645.247C542.527 645.079 540.664 644.939 538.777 644.797C530.204 644.152 521.111 643.468 513.51 639.944C507.045 637.032 501.891 631.995 496.836 627.055L496.832 627.051C495.981 626.219 495.132 625.39 494.281 624.574C494.281 648.185 496.501 670.614 504.021 693.115C477.951 687.776 457.253 679.177 435.947 663.197C436.375 663.973 436.799 664.746 437.222 665.516C443.208 676.408 448.849 686.674 458.113 695.408C465.212 702.305 473.427 706.408 482.098 710.74L482.152 710.766L482.752 711.067L483.251 711.316C446.725 713.143 412.277 711.137 381.051 690.069C355.304 673.015 341.195 646.573 333.961 617.157C328.769 629.805 325.26 642.202 322.753 655.673C297.077 628.981 292.924 589.748 305.564 555.817C295.681 555.495 285.905 554.814 276.093 553.847C288.161 541.987 297.579 530.021 304.633 514.506C291.276 515.116 278.779 514.542 265.565 512.357C282.467 500.031 291.312 489.104 297.865 469.003C290.811 457.538 287.624 448.832 285.762 435.36C259.048 450.946 230.579 457.789 199.711 453.31C212.424 425.829 225.172 398.348 238.171 371.011C225.1 361.122 213.068 350.588 204.617 336.292C185.638 305.623 184.313 265.458 201.18 233.534C212.173 211.929 230.221 196.523 251.635 185.738C206.837 170.511 155.594 181.869 122.076 215.333C98.3704 238.873 88.1647 271.764 87.2337 304.583C86.3026 346.109 99.7312 389.427 126.445 421.601C133.442 430.199 141.645 436.938 149.981 443.787C152.866 446.157 155.766 448.54 158.638 451.017C118.424 447.793 80.2866 423.5 54.647 393.189C-8.66425 317.769 -19.2639 204.119 28.6851 118.129C59.3022 62.5934 113.733 21.999 175.397 7.66737C223.453 -4.01293 276.057 -1.28992 321.428 19.1685ZM505.416 183.732C474.191 197.884 453.421 219.812 442.535 252.524C425.454 249.227 411.631 249.156 394.586 252.488C388.856 236.902 381.623 222.284 369.949 210.245C359.206 198.422 345.849 190.826 331.704 183.768C344.739 169.794 359.6 158.293 377.756 151.915C422.876 135.47 473.618 147.544 505.416 183.732ZM277.417 213.542C301.195 207.737 326.906 215.154 343.951 232.71C364.255 253.097 369.806 285.128 357.595 311.212C345.24 338.299 315.984 355.103 286.334 351.663C252.995 348.438 225.78 320.169 223.775 286.705C221.125 252.954 244.544 221.245 277.417 213.542ZM524.575 214.115C551.002 206.734 580.044 215.942 597.34 237.153C616.032 259.367 618.718 292.437 603.785 317.374C589.068 342.813 558.773 356.643 529.874 350.803C497.825 344.891 473.26 315.726 473.045 283.05C472.185 251.485 494.137 222.32 524.575 214.115ZM347.603 292.831C348.785 273.233 346.851 255.282 332.205 240.879C310.827 218.88 273.693 219.847 253.496 242.921C240.318 257.217 239.244 274.2 239.638 292.76C240.599 291.087 241.526 289.425 242.442 287.78L242.444 287.778L242.447 287.772L242.452 287.763L242.453 287.761L242.454 287.76C247.817 278.138 252.835 269.135 262.341 262.377C281.463 248.367 308.678 248.869 327.156 263.81C336.097 270.775 340.767 279.733 345.761 289.315C346.367 290.479 346.979 291.652 347.603 292.831ZM597.16 292.724C597.876 274.379 596.838 257.647 583.946 243.387C564.036 220.098 526.902 218.665 505.309 240.449C490.448 254.745 487.869 273.054 489.91 292.76L490.177 292.209C495.874 280.416 501.15 269.497 512.363 261.983C531.664 248.081 558.987 249.156 577.286 264.347C585.318 270.819 589.761 279.06 594.438 287.733C595.328 289.384 596.227 291.051 597.16 292.724ZM438.271 282.262C439.775 302.649 444.287 322.104 455.889 339.23C468.96 359.76 488.404 372.444 510.284 382.01C489.121 378.857 471.073 372.515 452.022 363.021C471.86 387.85 492.952 401.179 523.784 408.99C523.747 411.741 523.758 414.512 523.77 417.291V417.292C523.804 425.081 523.837 432.933 522.782 440.591C520.897 446.903 516.801 452.712 512.706 458.52C507.851 465.405 502.998 472.287 501.833 480.003C501.317 494.212 501.42 508.446 501.524 522.684V522.685C501.592 532.178 501.661 541.672 501.546 551.16C488.195 544.914 474.843 538.693 461.498 532.475C451.722 527.919 441.949 523.366 432.183 518.806C432.183 500.354 432.183 481.938 432.148 463.486C437.193 458.613 442.294 453.797 447.396 448.981C453.773 442.961 460.151 436.94 466.417 430.809C466.862 430.347 467.305 429.891 467.745 429.439L467.747 429.436C472.729 424.309 477.272 419.633 478.127 411.963C475.312 402.865 466.701 402.561 458.684 402.277C457.419 402.233 456.169 402.188 454.958 402.11C444.528 402.206 434.088 402.161 423.647 402.117H423.647H423.647H423.646H423.646H423.645H423.645H423.644H423.644H423.643C406.627 402.044 389.609 401.972 372.632 402.504C363.895 402.899 355.121 407.485 359.096 417.66C364.902 427.31 373.79 435.327 382.517 443.199C386.655 446.931 390.756 450.631 394.476 454.457C395.387 455.486 396.526 456.537 397.71 457.628C401.183 460.828 405.037 464.38 404.61 468.788C405.077 479.139 404.978 489.517 404.878 499.888V499.89V499.893V499.897V499.901V499.904V499.908V499.911V499.915V499.918V499.922C404.818 506.234 404.757 512.543 404.825 518.842C390.007 525.76 375.19 532.664 360.362 539.573L360.018 539.733L359.745 539.86L359.597 539.929C351.567 543.67 343.535 547.413 335.498 551.16C335.35 540.997 335.427 530.81 335.504 520.621C335.614 506.024 335.724 491.424 335.175 476.886C333.487 470.399 329.133 464.65 324.759 458.877L324.759 458.877C320.413 453.14 316.048 447.378 314.263 440.842C313.311 433.327 313.394 425.646 313.476 418.011C313.509 415.016 313.541 412.029 313.511 409.061C343.089 401.035 363.107 387.779 381.298 363.057C364.145 371.512 347.207 377.818 328.372 381.544C345.596 373.268 361.639 364.131 373.85 349.047C390.179 330.022 397.377 306.59 398.845 281.832C413.312 278.858 423.84 279.001 438.271 282.262ZM1017.8 308.32H1017.8L1018.21 308.318C1027.42 308.272 1036.63 308.227 1045.85 308.417C1059.61 308.955 1074.9 312.323 1084.46 323C1102 340.699 1099.78 377.173 1077.08 389.821C1063.9 398.019 1047.23 398.173 1031.52 398.316C1027.74 398.348 1024.01 398.384 1020.39 398.528C1020.35 410.914 1020.36 423.296 1020.37 435.682C1020.37 444.973 1020.37 454.267 1020.36 463.557H995.936C995.797 446.134 995.868 428.688 995.943 411.24L995.945 410.883V410.881V410.879V410.877V410.875V410.873V410.871V410.869V410.867C996.055 383.7 996.166 356.523 995.471 329.417C995.56 321.194 991.353 316.519 986.565 311.198L986.565 311.198L986.45 311.07C985.577 310.097 984.685 309.103 983.797 308.062C995.136 308.435 1006.46 308.378 1017.8 308.32H1017.8ZM1020.82 316.73C1023.27 316.769 1025.72 316.778 1028.18 316.758C1034.67 316.73 1041.24 316.704 1047.57 317.769C1060.57 320.957 1068.41 334.572 1068.84 347.292C1069.56 360.728 1068.2 375.059 1056.78 383.838C1049.31 389.858 1038.65 389.796 1028.82 389.739L1028.81 389.739C1026.16 389.699 1023.51 389.726 1020.86 389.821C1020.75 365.468 1020.79 341.114 1020.82 316.761V316.73ZM1258.63 331.24C1258.69 335.632 1258.7 340.023 1258.72 344.419C1258.74 348.81 1258.76 353.206 1258.81 357.61C1262.12 357.694 1265.5 357.607 1268.89 357.52C1275.7 357.344 1282.58 357.167 1289.11 358.363C1290.61 360.226 1292.15 362.232 1293.72 364.346C1282.72 365.36 1271.75 365.322 1260.72 365.285C1260.05 365.282 1259.37 365.28 1258.7 365.278C1258.77 375.78 1258.73 386.281 1258.7 396.783C1258.66 410.287 1258.61 423.791 1258.77 437.295C1259.06 445.464 1260.03 453.704 1268.48 457.287C1275.58 459.82 1284.1 456.412 1291.5 453.45C1293.31 452.724 1295.05 452.025 1296.7 451.447L1295.19 461.228C1279.58 465.707 1263.04 469.147 1248.32 460.082C1239.15 453.919 1236.61 444.21 1236.43 433.712C1236.18 420.591 1236.24 407.447 1236.31 394.306V394.293V394.29V394.288V394.286V394.284V394.281V394.279V394.277C1236.35 384.677 1236.4 375.078 1236.32 365.493L1235.62 365.461C1230.26 365.221 1224.88 364.979 1219.53 364.705C1231.95 352.845 1245.24 341.953 1258.63 331.24ZM1479.68 356.106C1486.68 353.935 1492.68 355.995 1499.01 358.171C1500.51 358.689 1502.04 359.213 1503.6 359.689L1500.27 373.949C1499.09 373.586 1497.91 373.203 1496.74 372.822C1488.28 370.078 1480.01 367.397 1471.55 372.587C1460.2 379.681 1457.45 392.186 1456.91 404.726C1456.63 416.376 1456.71 428.014 1456.79 439.655V439.656V439.658V439.659V439.661V439.662V439.664V439.665C1456.84 447.567 1456.89 455.47 1456.84 463.378C1451.75 463.474 1446.67 463.506 1441.58 463.537C1439.04 463.553 1436.5 463.569 1433.95 463.593C1433.87 451.696 1433.91 439.793 1433.95 427.891V427.89V427.888V427.887V427.886V427.885V427.883V427.882C1434.02 410.575 1434.08 393.27 1433.74 375.991C1434.11 369.412 1430.87 365.481 1427.28 361.112L1427.27 361.112C1426.31 359.937 1425.31 358.73 1424.36 357.431C1432.52 357.599 1440.7 357.614 1448.87 357.63C1451.2 357.634 1453.54 357.638 1455.87 357.646C1455.98 365.027 1456.01 372.408 1456.05 379.789C1456.75 378.726 1457.45 377.648 1458.15 376.565L1458.15 376.561C1463.69 368.004 1469.39 359.19 1479.68 356.106ZM1208.98 406.431L1208.98 406.449L1209.14 408.667C1199.35 408.696 1189.56 408.685 1179.76 408.674L1178.68 408.673C1163.65 408.659 1148.61 408.645 1133.59 408.775C1133.79 410.402 1133.98 412.023 1134.16 413.631L1134.2 413.981C1135.4 424.514 1136.55 434.636 1142.86 443.78C1148.45 452.128 1157.22 456.786 1167.21 457.251C1181.38 458.287 1192.73 452.706 1205 446.677L1205.01 446.675L1205.13 446.61C1205.85 449.226 1206.57 451.805 1207.28 454.385C1184.11 467.463 1156.54 470.974 1132.8 457.323C1104.08 438.871 1102.54 393.655 1125.31 369.972C1143.47 350.266 1180.93 349.155 1198.19 370.473C1207.17 381.228 1208.03 393.206 1208.98 406.431ZM1177.67 369.076C1183.96 377.403 1184.83 387.234 1185.72 397.159L1185.73 397.336C1185.86 398.711 1185.98 400.091 1186.12 401.465C1168.82 401.501 1151.53 401.501 1134.2 401.465C1134.43 400.333 1134.65 399.187 1134.88 398.029C1137.05 387.019 1139.37 375.242 1148.02 367.428C1155.65 360.083 1171.26 360.047 1177.67 369.076ZM1406.37 405.933L1406.37 405.944L1406.63 408.667C1396.84 408.696 1387.05 408.685 1377.25 408.674L1376.18 408.673C1361.14 408.659 1346.09 408.645 1331.04 408.775C1332.58 426.331 1334.59 443.959 1351.27 453.812C1368.64 462.16 1386.87 454.779 1402.66 446.574C1402.89 447.843 1403.11 449.115 1403.33 450.389L1403.46 451.164L1404.13 454.994L1403.86 455.116L1403.83 455.13C1392.16 460.453 1381.1 465.496 1367.96 465.85C1348.94 466.997 1328.39 461.264 1317.07 444.89C1298.38 417.266 1306.08 374.773 1337.13 359.581C1355.03 351.448 1382.89 353.239 1395.46 370.258C1403.96 381.043 1405.11 392.924 1406.37 405.932V405.933ZM1374.87 369.004C1381.37 377.291 1382.31 386.747 1383.28 396.614C1383.44 398.233 1383.61 399.85 1383.79 401.465C1366.31 401.501 1348.8 401.537 1331.33 401.43C1331.53 400.498 1331.74 399.556 1331.94 398.606C1334.31 387.668 1336.92 375.658 1345.22 367.679C1352.74 360.047 1368.35 360.011 1374.87 369.004ZM378.938 412.286C404.255 409.635 432.974 409.026 458.148 412.788C447.401 424.004 433.859 424.498 419.246 425.031L418.973 425.041C404.219 424.611 389.645 423.716 378.938 412.286ZM1111.11 481.988L1111.08 480.752C1111.05 479.417 1111.02 478.081 1110.99 476.742C1090.79 468.358 1065.66 464.955 1046.32 477.137C1025.51 489.104 1019.71 521.923 1036.08 539.694C1043.63 548.055 1054.21 553.569 1064.59 558.979C1073.21 563.47 1081.68 567.889 1088.18 573.804C1103.11 586.953 1099.42 614.792 1079.73 621.349C1058.39 628.085 1041.3 618.088 1026.09 604.115C1026.1 607.148 1026.13 610.181 1026.16 613.213C1026.18 616.236 1026.21 619.258 1026.23 622.28C1047.68 632.814 1078.08 636.612 1098.92 622.925C1122.06 608.379 1125.39 571.582 1104.94 553.381C1097.74 546.404 1088.64 541.694 1079.6 537.012C1069.93 532.004 1060.32 527.028 1053.16 519.343C1041.59 506.373 1047 486.022 1063.01 479.931C1081.52 473.375 1096.7 480.827 1111.35 491.755C1111.3 489.279 1111.23 486.813 1111.17 484.346L1111.17 484.249L1111.16 483.868C1111.14 483.242 1111.13 482.615 1111.11 481.988ZM968.9 456.535C972.09 470.341 962.844 476.787 953.316 483.429L953.312 483.432L953.193 483.515C951.857 484.448 950.516 485.384 949.205 486.345C953.176 490.845 957.082 495.396 960.987 499.945L961.305 500.315H961.308C967.124 507.097 972.943 513.876 978.962 520.49C981.863 507.341 981.182 498.24 977.96 485.413L988.609 486.044L988.881 486.058C990.063 501.035 988.917 511.174 981.827 524.682L985.583 529.221L985.594 529.232C989.153 533.519 992.695 537.818 996.222 542.131C989.562 542.131 982.937 542.131 976.277 542.167C974.346 540.056 972.416 537.982 970.485 535.907L970.475 535.896C955.471 544.424 938.068 547.326 922.419 538.62C913.216 533.353 909.277 523.32 910.781 513.037C912.259 502.868 919.521 497.376 926.968 491.743L926.981 491.733C928.005 490.96 929.029 490.182 930.046 489.39C929.483 488.357 928.912 487.346 928.348 486.346L928.256 486.184L928.25 486.173C923.944 478.528 920.035 471.586 922.204 462.017C925.749 441.809 961.953 436.399 968.9 456.535ZM956.366 455.281C960.807 467.893 954.719 475.632 945.982 483.765C945.108 482.228 944.084 480.619 943.024 478.96L943.02 478.957C938.211 471.429 932.711 462.812 937.638 454.385C942.043 447.076 952.786 447.327 956.366 455.281ZM967.346 532.407L967.292 532.34C956.294 518.776 945.189 505.077 933.09 492.436C925.749 505.8 924.245 521.063 936.17 532.278C945.487 540.364 954.601 537.147 964.531 533.639C965.512 533.292 966.504 532.944 967.503 532.6L967.346 532.407ZM1367.21 527.441C1358.43 519.487 1343.82 518.842 1332.8 520.92C1322.93 522.826 1316.34 528.953 1309.42 535.385C1308.27 536.449 1307.12 537.521 1305.94 538.584C1305.87 533.174 1305.76 527.728 1305.65 522.317C1300.24 522.264 1294.82 522.237 1289.39 522.21H1289.38C1283.97 522.183 1278.55 522.156 1273.14 522.102C1274.25 523.734 1275.46 525.204 1276.63 526.63C1280.01 530.748 1283.09 534.497 1282.77 540.698C1282.99 557.343 1282.94 574 1282.88 590.655V590.695V590.696C1282.84 603.173 1282.8 615.65 1282.88 628.121H1305.26C1305.44 618.205 1305.34 608.251 1305.25 598.292V598.291V598.29C1305.1 582.666 1304.95 567.032 1305.87 551.518C1311.35 538.226 1330.32 525.291 1344.76 532.278C1352.24 536.362 1353.56 543.636 1353.74 551.518C1353.93 566.118 1353.88 580.717 1353.83 595.31V595.314V595.319C1353.79 606.257 1353.75 617.192 1353.82 628.121H1376.66C1376.62 615.537 1376.65 602.953 1376.67 590.369C1376.69 579.879 1376.71 569.389 1376.7 558.899C1376.41 547.684 1376.09 535.538 1367.21 527.441ZM1471.09 537.401L1468.62 525.327C1454.69 518.09 1430.95 517.731 1417.27 525.829C1401.84 534.248 1398.86 556.964 1411.36 569.146C1417.03 574.624 1424.8 578.093 1432.49 581.526C1438.89 584.38 1445.23 587.209 1450.25 591.145C1460.38 599.923 1456.2 616.226 1444.16 620.883C1429.6 626.747 1417.75 620.145 1405.49 613.31L1405.48 613.306C1404.91 612.985 1404.33 612.665 1403.76 612.344C1403.33 612.109 1402.91 611.874 1402.48 611.64C1402.55 616.369 1402.62 621.063 1402.77 625.792C1422.96 631.955 1444.81 634.785 1463.07 621.815C1477.86 611.245 1478.5 588.064 1465.72 575.774C1459.92 570.581 1452.44 567.138 1445.02 563.721C1438.51 560.725 1432.05 557.749 1426.8 553.632C1417.99 546.896 1421.89 533.281 1431.52 529.447C1445.17 524.086 1455.36 529.328 1466.81 535.222C1468.22 535.945 1469.64 536.677 1471.09 537.401ZM1236.5 532.744C1221.07 520.383 1198.69 517.086 1179.89 522.138C1160.41 527.548 1144.72 543.313 1140.71 563.306C1136.92 583.119 1142.86 604.653 1158.8 617.623C1179.64 635.251 1216.02 635.215 1236.83 617.587C1262.25 597.594 1262.07 552.45 1236.5 532.744ZM1218.71 536.255C1210.86 527.226 1198.12 524.682 1187.09 528.91C1173.73 534.356 1167.18 549.368 1165.28 562.804C1162.95 579.859 1164.53 600.819 1176.63 614.219C1185.12 624 1199.62 626.903 1210.97 620.453C1223.58 613.037 1229.31 598.132 1230.52 584.194C1231.6 567.605 1230.31 549.261 1218.71 536.255ZM479.605 570.205C459.329 560.596 439.042 550.981 418.504 541.952C399.514 550.312 380.738 559.192 361.962 568.072C354.184 571.75 346.407 575.429 338.613 579.071C373.241 611.066 424.091 619.45 467.098 599.923C478.808 594.764 488.584 587.096 498.431 579.107C492.152 576.152 485.879 573.179 479.605 570.205Z" fill="#757575"/>
</g>
</svg>
