<svg width="824" height="429" viewBox="0 0 824 429" fill="none" xmlns="http://www.w3.org/2000/svg">
<path d="M0 428.587V374.74H33.6309V381.573H40.4664V401.8H33.6309V408.633H13.3977V428.86L0 428.587ZM26.7953 394.967V388.133H13.3977V394.967H26.7953Z" fill="#757575"/>
<path d="M53.8644 428.587V421.753H47.0288V381.3H53.8644V374.467H80.6597V381.3H87.4953V421.753H80.6597V428.587H53.8644ZM74.0976 415.193V388.407H60.6999V415.193H74.0976Z" fill="#757575"/>
<path d="M100.893 428.587V421.753H94.0571V381.3H100.893V374.467H127.688V381.3H134.524V394.693H121.126V387.86H107.728V414.647H121.126V407.813H134.524V421.207H127.688V428.04L100.893 428.587Z" fill="#757575"/>
<path d="M141.086 428.587V374.74H154.484V394.967H167.881V374.74H181.279V394.967H174.443V408.36H181.279V428.587H167.881V408.36H154.484V428.587H141.086Z" fill="#757575"/>
<path d="M188.388 428.587V374.74H228.854V388.133H202.059V394.967H222.292V408.36H202.059V415.193H228.854V428.587H188.388Z" fill="#757575"/>
<path d="M248.814 428.587V388.133H235.417V374.74H275.883V388.133H262.485V428.587H248.814Z" fill="#757575"/>
<path d="M302.678 428.587V421.753H295.843V381.3H302.678V374.467H329.474V387.86H309.24V414.647H322.638V407.813H315.803V394.42H336.036V421.207H329.2V428.04L302.678 428.587Z" fill="#757575"/>
<path d="M342.871 428.587V381.573H349.707V374.74H376.502V381.573H383.338V428.587H369.94V415.193H356.542V428.587H342.871ZM369.666 401.527V388.133H356.269V401.527H369.666Z" fill="#757575"/>
<path d="M389.9 428.587V374.74H396.735V381.573H403.571V388.407H410.407V395.24H417.242V388.407H424.078V381.573H430.913V374.74H437.749V428.587H424.351V408.36H417.515V415.193H410.68V408.36H403.844V428.587H389.9Z" fill="#757575"/>
<path d="M443.764 428.587V374.74H484.23V388.133H457.435V394.967H477.668V408.36H457.435V415.193H484.23V428.587H443.764Z" fill="#757575"/>
<path d="M490.792 428.587V415.193H517.588V408.36H497.355V401.527H490.519V381.3H497.355V374.467H530.985V387.86H504.19V394.693H524.423V401.527H531.259V421.753H524.423V428.587H490.792Z" fill="#757575"/>
<path d="M551.219 428.587V415.193H578.014V408.36H557.781V401.527H550.945V381.3H557.781V374.467H591.412V387.86H564.616V394.693H584.85V401.527H591.685V421.753H584.85V428.587H551.219Z" fill="#757575"/>
<path d="M605.083 428.587V421.753H598.247V381.3H605.083V374.467H631.878V381.3H638.714V421.753H631.878V428.587H605.083ZM625.316 414.92V388.133H611.918V414.92H625.316Z" fill="#757575"/>
<path d="M645.549 428.587V374.74H686.016V388.133H659.22V394.967H679.454V408.36H659.22V428.587H645.549Z" fill="#757575"/>
<path d="M705.975 428.313V387.86H692.578V374.467H733.044V387.86H719.646V428.313H705.975Z" fill="#757575"/>
<path fill-rule="evenodd" clip-rule="evenodd" d="M270.141 0H299.397V29.2467H270.141V0Z" fill="#757575"/>
<path fill-rule="evenodd" clip-rule="evenodd" d="M0 33.8933H29.2561V63.14H0V33.8933Z" fill="#757575"/>
<path fill-rule="evenodd" clip-rule="evenodd" d="M33.6309 303.947H62.887V333.193H33.6309V303.947Z" fill="#757575"/>
<path fill-rule="evenodd" clip-rule="evenodd" d="M202.605 236.433H231.862V265.68H202.605V236.433Z" fill="#757575"/>
<path fill-rule="evenodd" clip-rule="evenodd" d="M96.7914 0H67.5352V29.2467H96.7914V0ZM62.887 0H33.6309V29.2467H62.887V0ZM101.166 29.2467H130.422V0H101.166V29.2467ZM164.327 0H135.07V29.2467H164.327V0ZM197.957 0H168.701V29.2467H197.957V0ZM265.493 0H236.237V29.2467H265.493V0ZM33.6309 63.14H62.887V33.8933H33.6309V63.14ZM0 96.76H29.2561V67.5133H0V96.76ZM33.6309 96.76H62.887V67.5133H33.6309V96.76ZM0 130.653H29.2561V101.407H0V130.653ZM33.6309 130.653H62.887V101.407H33.6309V130.653ZM0 164.273H29.2561V135.027H0V164.273ZM33.6309 164.273H62.887V135.027H33.6309V164.273ZM0 198.167H29.2561V168.92H0V198.167ZM33.6309 198.167H62.887V168.92H33.6309V198.167ZM0 231.787H29.2561V202.54H0V231.787ZM33.6309 231.787H62.887V202.54H33.6309V231.787ZM0 265.68H29.2561V236.433H0V265.68ZM33.6309 265.68H62.887V236.433H33.6309V265.68ZM67.5352 231.787H96.7914V202.54H67.5352V231.787ZM67.5352 265.68H96.7914V236.433H67.5352V265.68ZM101.166 231.787H130.422V202.54H101.166V231.787ZM101.166 265.68H130.422V236.433H101.166V265.68ZM135.07 231.787H164.327V202.54H135.07V231.787ZM135.07 265.68H164.327V236.433H135.07V265.68ZM168.701 231.787H197.957V202.54H168.701V231.787ZM168.701 265.68H197.957V236.433H168.701V265.68ZM236.237 231.787H265.493V202.54H236.237V231.787ZM0 299.3H29.2561V270.053H0V299.3ZM0 333.193H29.2561V303.947H0V333.193ZM33.6309 299.3H62.887V270.053H33.6309V299.3ZM67.5352 63.14H96.7914V33.8933H67.5352V63.14ZM101.166 63.14H130.422V33.8933H101.166V63.14ZM135.07 63.14H164.327V33.8933H135.07V63.14ZM168.701 63.14H197.957V33.8933H168.701V63.14ZM202.606 29.2467H231.862V0H202.606V29.2467ZM202.606 231.787H231.862V202.54H202.606V231.787ZM202.606 63.14H231.862V33.8933H202.606V63.14ZM236.237 63.14H265.493V33.8933H236.237V63.14ZM270.141 63.14H299.397V33.8933H270.141V63.14ZM236.237 96.76H265.493V67.5133H236.237V96.76ZM270.141 96.76H299.397V67.5133H270.141V96.76ZM303.772 67.5133V96.76H333.028V67.5133H303.772ZM270.141 130.653H299.397V101.407H270.141V130.653ZM303.772 130.653H333.028V101.407H303.772V130.653ZM270.141 164.273H299.397V135.027H270.141V164.273ZM303.772 164.273H333.028V135.027H303.772V164.273ZM270.141 198.167H299.397V168.92H270.141V198.167ZM270.141 231.787H299.397V202.54H270.141V231.787ZM236.237 198.167H265.493V168.92H236.237V198.167ZM303.772 198.167H333.028V168.92H303.772V198.167ZM399.743 130.653H428.999V101.407H399.743V130.653ZM399.743 164.273H428.999V135.027H399.743V164.273ZM399.743 198.167H428.999V168.92H399.743V198.167ZM399.743 231.787H428.999V202.54H399.743V231.787ZM399.743 265.68H428.999V236.433H399.743V265.68ZM433.374 96.76H462.63V67.5133H433.374V96.76ZM433.374 63.14H462.63V33.8933H433.374V63.14ZM467.278 96.76H496.534V67.5133H467.278V96.76ZM467.278 63.14H496.534V33.8933H467.278V63.14ZM530.165 33.8933H500.909V63.14H530.165V33.8933ZM500.909 29.2467H530.165V0H500.909V29.2467ZM534.813 63.14H564.069V33.8933H534.813V63.14ZM534.813 29.2467H564.069V0H534.813V29.2467ZM568.444 63.14H597.7V33.8933H568.444V63.14ZM597.7 0H568.444V29.2467H597.7V0ZM631.605 33.8933H602.349V63.14H631.605V33.8933ZM602.349 29.2467H631.605V0H602.349V29.2467ZM433.374 130.653H462.63V101.407H433.374V130.653ZM433.374 164.273H462.63V135.027H433.374V164.273ZM433.374 198.167H462.63V168.92H433.374V198.167ZM568.444 164.273H597.7V135.027H568.444V164.273ZM568.444 198.167H597.7V168.92H568.444V198.167ZM631.605 135.027H602.349V164.273H631.605V135.027ZM631.605 168.92H602.349V198.167H631.605V168.92ZM635.979 164.273H665.236V135.027H635.979V164.273ZM635.979 198.167H665.236V168.92H635.979V198.167ZM635.979 265.68H665.236V236.433H635.979V265.68ZM669.884 164.273H699.14V135.027H669.884V164.273ZM669.884 198.167H699.14V168.92H669.884V198.167ZM635.979 63.14H665.236V33.8933H635.979V63.14ZM635.979 96.76H665.236V67.5133H635.979V96.76ZM669.884 63.14H699.14V33.8933H669.884V63.14ZM669.884 96.76H699.14V67.5133H669.884V96.76ZM433.374 231.787H462.63V202.54H433.374V231.787ZM433.374 265.68H462.63V236.433H433.374V265.68ZM467.278 265.68H496.534V236.433H467.278V265.68ZM467.278 299.3H496.534V270.053H467.278V299.3ZM467.278 333.193H496.534V303.947H467.278V333.193ZM530.165 270.053H500.909V299.3H530.165V270.053ZM500.909 333.193H530.165V303.947H500.909V333.193ZM534.813 299.3H564.069V270.053H534.813V299.3ZM534.813 333.193H564.069V303.947H534.813V333.193ZM568.444 299.3H597.7V270.053H568.444V299.3ZM568.444 333.193H597.7V303.947H568.444V333.193ZM631.605 270.053H602.349V299.3H631.605V270.053ZM602.349 333.193H631.605V303.947H602.349V333.193ZM635.979 299.3H665.236V270.053H635.979V299.3ZM669.884 299.3H699.14V270.053H669.884V299.3ZM669.884 231.787H699.14V202.54H669.884V231.787ZM669.884 265.68H699.14V236.433H669.884V265.68ZM703.515 168.92V198.167H732.771V168.92H703.515ZM703.515 231.787H732.771V202.54H703.515V231.787Z" fill="#757575"/>
<path fill-rule="evenodd" clip-rule="evenodd" d="M399.743 67.5133H428.999V96.76H399.743V67.5133Z" fill="#757575"/>
<path fill-rule="evenodd" clip-rule="evenodd" d="M467.278 0H496.534V29.2467H467.278V0Z" fill="#757575"/>
<path fill-rule="evenodd" clip-rule="evenodd" d="M433.374 270.053H462.63V299.3H433.374V270.053Z" fill="#757575"/>
<path fill-rule="evenodd" clip-rule="evenodd" d="M635.979 303.947H665.236V333.193H635.979V303.947Z" fill="#757575"/>
<path fill-rule="evenodd" clip-rule="evenodd" d="M703.515 135.027H732.771V164.273H703.515V135.027Z" fill="#757575"/>
<path fill-rule="evenodd" clip-rule="evenodd" d="M703.515 236.433H732.771V265.68H703.515V236.433Z" fill="#757575"/>
<path d="M772.144 408.36V379.933H763.667V374.74H785.541V379.933H777.339V408.36H772.144ZM790.189 408.36V374.74H795.931L806.868 396.333L817.532 374.74H823.274V408.36H818.079V385.4L810.149 401.8H804.407L795.658 384.853V408.36H790.189Z" fill="#757575"/>
</svg>
