<svg width="2030" height="564" viewBox="0 0 2030 564" fill="none" xmlns="http://www.w3.org/2000/svg">
<mask id="mask0_1435_33" style="mask-type:luminance" maskUnits="userSpaceOnUse" x="0" y="0" width="2030" height="564">
<path d="M2030 0H0V564H2030V0Z" fill="white"/>
</mask>
<g mask="url(#mask0_1435_33)">
<path fill-rule="evenodd" clip-rule="evenodd" d="M294.131 2.82052C295.763 12.5292 296.384 19.5657 296.84 33.5008L297.354 49.2098L290.658 48.1146C252.956 41.9467 210.898 45.5501 173.866 58.1227C134.606 71.4503 103.249 91.4135 73.7951 121.832C58.8699 137.248 52.6325 145.066 41.1809 162.722C19.6866 195.858 5.90179 234.918 1.2109 275.972C-0.419129 290.247 -0.400559 320.01 1.24889 334.507C12.8389 436.366 80.8436 521.065 176.398 552.654C201.073 560.811 217.015 563.35 246.851 563.874C273.162 564.336 282.247 563.648 301.369 559.745C340.807 551.694 378.594 533.594 410.432 507.502C422.449 497.655 442.021 477.185 451.588 464.462C480.656 425.799 498.11 381.835 503.505 333.694C505.157 318.942 505.136 291.008 503.46 275.977C494.033 191.451 445.717 117.815 372.66 76.6331C362.272 70.7778 349.527 64.7166 348.918 65.3424C348.7 65.5672 349.198 69.1348 350.026 73.2693L351.53 80.7875L362.671 86.7341C384.707 98.4988 403.804 112.963 421.641 131.398C434.501 144.689 441.481 153.432 451.152 168.363C470.753 198.624 482.262 228.209 488.368 264.028C491.383 281.716 492.187 314.074 490.077 332.821C486.634 363.406 479.08 389.027 465.308 416.822C433.733 480.556 375.717 527.673 308.505 544.169C288.18 549.157 276.05 550.533 252.37 550.533C228.691 550.533 216.561 549.157 196.235 544.169C128.871 527.635 70.7132 480.357 39.2486 416.55C23.2641 384.134 15.6524 355.19 13.5176 318.702C10.585 268.579 23.0725 218.242 49.1977 174.872C61.523 154.413 84.3249 127.895 102.114 113.334C131.146 89.5702 167.892 71.6109 202.514 64.2662C230.433 58.3432 261.91 57.4406 289.08 61.7833L295.564 62.8195L295.023 66.7743C294.186 72.8788 293.754 73.8898 292.187 73.3943C286.648 71.6413 267.706 70.0409 252.37 70.0296C222.114 70.0079 196.695 74.9339 168.352 86.3123C113.997 108.134 67.6329 153.604 43.7538 208.515C24.8173 252.059 19.0687 301.068 27.435 347.646C41.7229 427.192 96.0444 494.683 169.376 524.001C199.018 535.852 224.553 540.337 257.99 539.568C283.452 538.982 301.392 535.93 323.452 528.428C400.586 502.201 458.415 436.259 475.97 354.518C483.551 319.219 482.502 278.716 473.094 243.422C464.985 213.002 450.014 182.838 430.676 157.951C423.12 148.225 405.672 130.097 396.718 122.669C382.952 111.247 354.221 92.7856 352.706 94.3873C352.371 94.7407 352.002 97.5513 351.885 100.633L351.67 106.237L359.632 110.945C396.924 133.002 426.703 165.152 445.998 204.191C462.741 238.067 470.182 272.705 469.059 311.548C468.256 339.25 464.02 361.328 454.88 385.443C433.401 442.105 390.046 487.789 335.676 511.054C294.911 528.496 248.643 532.655 205.099 522.791C125.387 504.734 61.4842 440.717 41.8351 359.237C37.47 341.134 36.2402 331.593 35.6872 311.531C34.9216 283.75 38.1007 260.089 45.8532 235.873C64.2378 178.448 103.442 131.974 156.201 105.062C183.091 91.3458 207.45 84.6069 238.533 82.2837C258.412 80.7988 290.357 83.3191 290.357 86.373C290.357 86.9996 288.207 91.9265 285.58 97.322C281.415 105.875 279.82 108.151 273.129 115.089C265.573 122.923 265.22 123.162 250.286 130.577C232.826 139.246 225.931 143.711 218.338 151.262C208.913 160.636 204.024 170.232 201.695 183.938C200.288 192.211 198.252 195.576 188.283 206.115C174.214 220.987 170.057 227.269 166.783 238.609C164.86 245.269 163.625 257.429 164.371 262.355L165.001 266.524L169.222 259.874C175.158 250.524 183.214 242.985 192.24 238.337C206.53 230.977 219.431 227.175 235.284 225.653C245.727 224.65 253.626 222.18 259.297 218.144C263.344 215.265 268.104 208.935 268.876 205.405C269.518 202.478 269.482 202.493 278.539 201.364C292.37 199.64 299.199 196.185 309.349 185.772C315.129 179.844 315.435 179.664 323.278 177.534C337.773 173.598 346.407 172.446 361.687 172.407C384.421 172.351 397.654 175.154 422.465 185.283C425.339 186.457 417.028 178.055 409.822 172.503C394.208 160.474 372.57 152.425 349.68 150.131C344.212 149.583 337.08 148.864 333.83 148.532L327.921 147.929L337.207 145.844C344.037 144.309 350.286 143.625 360.842 143.26L375.193 142.762L370.55 139.532C361.391 133.159 348.777 129.31 337.064 129.31H330.7L333.321 126.24C343.125 114.762 345.766 93.7897 340.171 71.8426C339.233 68.1594 337.566 63.0825 336.471 60.5605L334.476 55.9765L334.001 59.0139C333.74 60.6846 332.914 66.2414 332.164 71.3626C328.931 93.4547 323.247 107.943 314.703 115.88C312.836 117.613 311.155 118.871 310.965 118.675C310.774 118.48 311.541 115.987 312.668 113.136C323.693 85.2414 320.94 50.5845 305.128 18.2015C301.761 11.3081 294.932 0 294.134 0C293.872 0 293.87 1.2688 294.131 2.82052ZM227.046 101.614C200.64 105.094 172.86 115.102 149.385 129.594C131.422 140.683 109.932 160.099 96.3893 177.476C89.3382 186.523 88.6722 188.351 85.7 206.824C82.9937 223.649 81.8693 237.479 81.8794 253.847C81.9056 298.005 96.8 336.255 125.432 365.691C150.206 391.16 181.071 405.589 217.6 408.777C240.649 410.788 260.719 405.736 278.872 393.35C284.549 389.478 300.233 374.363 299.431 373.538C299.225 373.326 296.59 374.853 293.577 376.931C281.567 385.21 269.544 388.661 250.112 389.403C239.978 389.792 235.569 389.575 229.008 388.37C195.781 382.263 167.719 361.464 152.547 331.697C142.344 311.68 137.672 286.807 138.667 257.801C139.634 229.64 145.334 206.807 157.585 182.021C165.927 165.146 173.9 153.682 186.924 139.835C200.496 125.405 213.208 115.852 231.228 106.541L242.584 100.671L237.559 100.781C234.795 100.842 230.064 101.216 227.046 101.614ZM343.959 185.85C336.915 186.777 326.325 189.327 319.902 191.644L315.259 193.319L318.213 193.818C319.838 194.092 323.637 194.55 326.654 194.837C329.672 195.122 336.755 196.308 342.394 197.469C383.217 205.875 421.227 230.806 444.102 264.18C448.989 271.31 449.256 270.417 446.152 257.318C443.042 244.195 437.742 229.081 431.851 216.529C423.354 198.425 423.559 198.671 413.885 194.954C403.393 190.923 388.391 187.037 378.57 185.808C369.762 184.706 352.494 184.727 343.959 185.85ZM289.513 209.174C285.567 209.602 280.818 210.294 278.961 210.711C275.789 211.424 276.018 211.508 282.759 212.098C306.808 214.203 322.737 220.01 343.115 234.102C380.678 260.075 407.682 301.421 416.519 346.485C420.93 368.981 421.123 393.119 417.053 413.531C416.198 417.828 415.592 421.456 415.707 421.594C416.336 422.342 426.376 404.927 431.361 394.439C439.929 376.413 446.346 355.797 449.055 337.594C450.021 331.097 450.016 331.067 446.539 320.672C439.09 298.4 426.724 276.031 412.903 259.825C390.311 233.336 358.189 215.323 324.148 210.053C315.327 208.688 298.037 208.249 289.513 209.174ZM1907.33 218.916C1906.94 220.095 1902.7 259.837 1902.94 260.038C1903.02 260.105 1905.39 260.43 1908.21 260.759L1913.32 261.357L1914.8 255.866C1916.77 248.472 1919.7 244.104 1924.04 242.081C1927.33 240.544 1930.03 240.431 1964.16 240.414L2000.75 240.396L1999.1 243.216C1998.19 244.768 1993.65 252.48 1989 260.356C1959.72 309.957 1931.14 366.064 1925.91 384.242L1925.34 386.194H1944.42C1958.96 386.194 1963.56 385.937 1963.78 385.11C1963.94 384.514 1964.51 381.108 1965.05 377.543C1969.43 348.575 2003.64 266.636 2026.64 230.045C2030.58 223.788 2030.97 221.14 2028.25 219.183C2026.6 217.991 2019.38 217.831 1967.02 217.831C1920.3 217.831 1907.6 218.062 1907.33 218.916ZM589.337 227.089C589.578 229.175 590.118 229.512 594.78 230.485C597.626 231.079 601.118 232.184 602.537 232.938C608.081 235.885 607.753 231.284 607.753 306.168C607.753 351.302 607.461 374.723 606.881 375.834C605.809 377.893 600.862 380.561 595.581 381.928C592.059 382.84 591.652 383.193 591.88 385.137L592.137 387.321L621.892 387.409L651.649 387.496V385.203C651.649 382.918 650.339 381.855 647.525 381.855C644.792 381.855 637.573 377.527 636.585 375.295C635.873 373.689 635.61 354.217 635.61 303.274V233.453H652.461C667.437 233.453 669.832 233.652 673.984 235.25C680.518 237.763 687.209 244.283 690.67 251.51C693.363 257.136 693.433 257.568 693.433 268.6C693.433 279.605 693.358 280.078 690.704 285.619C684.018 299.582 667.178 308.823 645.529 310.41L638.142 310.951V313.986V317.023L651.697 316.411C682.246 315.03 699.394 309.957 709.854 299.202C717.019 291.836 720.821 280.943 720.853 267.698C720.892 251.217 712.342 237.433 697.654 230.301C686.235 224.758 686.423 224.774 635.376 224.774H589.069L589.337 227.089ZM289.586 231.992C324.65 247.556 347.544 275.718 354.944 312.385C358.037 327.722 358.031 354.321 354.929 372.743C350.159 401.069 338.062 429.427 320.869 452.586C311.433 465.295 294.672 481.264 280.483 491.064C273.536 495.863 259.344 503.465 251.692 506.487C246.308 508.613 245.77 509.016 247.45 509.655C249.509 510.437 262.05 509.89 275.162 508.444C299.974 505.71 326.955 496.699 349.752 483.534C359.027 478.178 360.072 477.306 363.956 471.678C379.699 448.858 389.795 426.026 394.821 401.866C396.901 391.869 397.088 389.353 397.086 371.441C397.084 354.389 396.841 350.759 395.165 342.802C386.472 301.515 364.635 268.754 330.73 246.127C317.328 237.184 302.187 231.259 290.357 230.33L284.87 229.899L289.586 231.992ZM1396.18 306.815C1396.18 379.355 1396.49 375.094 1391.05 377.983C1389.68 378.713 1386.19 379.799 1383.29 380.4C1378.51 381.39 1378 381.705 1377.77 383.842L1377.5 386.194H1403.3H1429.1V383.79C1429.1 381.538 1428.78 381.321 1424.01 380.39C1417.56 379.13 1412.94 376.693 1411.57 373.834C1410.76 372.116 1410.57 362.299 1410.74 331.134L1410.95 290.664L1440.91 319.797C1457.4 335.822 1480.08 358.586 1491.32 370.383L1511.75 391.835L1511.79 326.289C1511.83 252.7 1511.34 258.155 1518.26 255.104C1520.29 254.206 1523.86 253.213 1526.18 252.897C1530.14 252.357 1530.39 252.166 1530.39 249.817V247.313L1504.44 247.542L1478.48 247.772V249.865C1478.48 251.733 1479.04 252.076 1483.66 253.044C1486.51 253.641 1489.99 254.748 1491.42 255.502C1496.83 258.38 1496.64 256.628 1496.64 301.983V343.225L1470.68 316.761C1456.4 302.205 1433.8 279.169 1420.45 265.568L1396.18 240.84V306.815ZM1062.74 244.829C1033.67 248.216 1008.83 268.484 1000.15 295.912C996.495 307.451 995.828 322.445 998.497 333.287C1004.89 359.31 1022.51 377.425 1049.66 385.874C1056.63 388.044 1058.44 388.241 1071.61 388.26C1084.86 388.281 1086.53 388.102 1093.38 385.929C1113.89 379.429 1129.91 365.927 1138.62 347.807C1149.16 325.876 1148.73 303.543 1137.33 280.99C1132.74 271.918 1119.69 258.66 1110.44 253.687C1102.04 249.167 1091.57 246.002 1081.03 244.795C1072.11 243.772 1071.81 243.772 1062.74 244.829ZM782.49 249.941C782.49 252.097 782.832 252.545 784.475 252.545C787.445 252.545 791.858 254.261 794.941 256.614L797.685 258.709V316.766V374.824L794.894 377.012C793.358 378.217 790.035 379.743 787.508 380.405C783.531 381.446 782.876 381.916 782.646 383.902L782.378 386.194H810.291H838.203V383.702C838.203 381.455 837.862 381.153 834.749 380.641C830.346 379.917 825.007 377.13 823.881 374.966C823.335 373.918 823.009 363.362 823.009 346.764V320.237H857.197H891.384V346.764C891.384 363.362 891.057 373.918 890.512 374.966C889.386 377.13 884.047 379.917 879.644 380.641C876.531 381.153 876.189 381.455 876.189 383.702V386.194H904.046H931.903V383.702C931.903 381.455 931.561 381.153 928.449 380.641C924.046 379.917 918.707 377.13 917.581 374.966C917.006 373.862 916.709 354.009 916.709 316.766C916.709 279.524 917.006 259.67 917.581 258.567C918.707 256.403 924.046 253.615 928.449 252.891C931.561 252.38 931.903 252.077 931.903 249.83V247.338H904.046H876.189V249.83C876.189 252.077 876.531 252.38 879.644 252.891C884.047 253.615 889.386 256.403 890.512 258.567C891.052 259.604 891.384 269.36 891.384 284.165V308.088H857.197H823.009V284.165C823.009 269.36 823.342 259.604 823.881 258.567C825.007 256.403 830.346 253.615 834.749 252.891C837.862 252.38 838.203 252.077 838.203 249.83V247.338H810.347H782.49V249.941ZM1209.1 248.611C1208.23 250.954 1209.26 251.928 1213.88 253.128C1219.1 254.477 1222.23 256.523 1223.75 259.572C1224.55 261.163 1224.79 274.735 1224.79 316.766C1224.79 358.798 1224.55 372.37 1223.75 373.961C1222.23 377.015 1219.09 379.056 1213.85 380.416C1209.84 381.453 1209.2 381.905 1209.2 383.69V385.761H1261.07H1312.95L1317.34 370.573C1319.76 362.22 1321.48 355.1 1321.15 354.751C1320.83 354.403 1319.45 353.896 1318.07 353.626C1315.7 353.163 1315.46 353.4 1313.65 357.732C1310.9 364.352 1306 370.571 1301.72 372.896C1298.07 374.871 1297.49 374.912 1273.65 374.912H1249.3V347.508V320.102L1265.28 320.387C1279.87 320.646 1281.47 320.829 1283.64 322.469C1286.94 324.966 1288.97 329.472 1288.97 334.34V338.463H1292.79H1296.6L1296.37 314.379L1296.15 290.296H1292.77H1289.4L1288.95 295.07C1288.69 297.695 1287.86 301.059 1287.08 302.546C1284.56 307.383 1281.7 308.088 1264.58 308.088H1249.3V283.354V258.62H1272.06H1294.82L1297.86 261.359C1301.09 264.273 1303.8 269.007 1305.48 274.676C1306.44 277.899 1306.71 278.129 1309.3 277.903C1310.84 277.769 1312.18 277.574 1312.27 277.469C1312.37 277.365 1311.66 270.542 1310.71 262.309L1308.97 247.338H1259.28C1216.37 247.338 1209.5 247.512 1209.1 248.611ZM1588.96 248.611C1588.08 250.954 1589.11 251.928 1593.75 253.128C1598.95 254.477 1602.09 256.523 1603.62 259.572C1604.4 261.163 1604.66 274.735 1604.66 316.766C1604.66 358.798 1604.4 372.37 1603.62 373.961C1602.08 377.015 1598.95 379.056 1593.71 380.416C1589.71 381.453 1589.07 381.905 1589.07 383.69V385.761L1616.71 385.989L1644.36 386.218V383.714C1644.36 381.453 1644.02 381.154 1640.89 380.639C1636.74 379.958 1633.21 378.181 1630.88 375.607C1629.19 373.748 1629.16 372.789 1629.16 316.766C1629.16 260.744 1629.19 259.785 1630.88 257.925C1633.21 255.352 1636.74 253.574 1640.89 252.893C1644.02 252.38 1644.36 252.078 1644.36 249.83V247.338H1616.9C1593.54 247.338 1589.37 247.528 1588.96 248.611ZM1702.61 249.45C1702.61 251.618 1703.09 251.91 1708.51 253.02C1712.62 253.862 1716.98 256.281 1719.61 259.191C1721.42 261.199 1755.45 308.192 1762.33 318.186L1764.2 320.908L1746.38 344.221C1736.58 357.044 1727.19 369.035 1725.5 370.867C1721.79 374.908 1714.84 378.656 1708.3 380.153C1703.78 381.188 1703.44 381.431 1703.44 383.742V386.222L1727.72 385.99L1751.98 385.761L1752.26 383.805C1752.41 382.726 1752.02 381.699 1751.41 381.517C1750.8 381.334 1748.69 380.74 1746.75 380.195C1742.78 379.09 1740.58 377.257 1740.59 375.067C1740.6 374.266 1747.78 364.142 1756.57 352.57L1772.54 331.528L1787.38 352.033C1796.12 364.114 1802.21 373.327 1802.21 374.458C1802.21 377.225 1799.82 379.052 1794.75 380.173C1790.69 381.067 1790.32 381.345 1790.55 383.341L1790.82 385.53L1820.15 385.645L1849.48 385.761V383.432C1849.48 380.985 1848.94 380.653 1843.39 379.64C1836.27 378.343 1834.09 375.912 1810.37 342.861L1787.83 311.428L1806.33 286.977C1816.5 273.529 1825.72 261.676 1826.81 260.638C1829.58 258.017 1836.51 254.569 1841.5 253.339C1843.8 252.773 1846.16 252.178 1846.74 252.02C1847.32 251.862 1847.8 250.743 1847.8 249.534V247.338H1823.32H1798.83V249.534C1798.83 251.882 1799.19 252.109 1804.15 252.96C1807.77 253.579 1810.66 256.056 1810.66 258.549C1810.66 260.328 1780.85 299.843 1779.5 299.843C1779.06 299.843 1772.41 291.072 1764.71 280.352C1754.95 266.756 1750.72 260.169 1750.72 258.573C1750.72 255.409 1753.33 253.289 1757.86 252.764C1761.42 252.351 1761.69 252.14 1761.69 249.828V247.338H1732.14H1702.61V249.45ZM1079.85 254.686C1105.52 260.279 1121.46 288.825 1119.85 326.313C1118.69 353.172 1107.49 371.319 1088.19 377.588C1081.76 379.678 1070.07 380.065 1063.17 378.418C1050.12 375.306 1038.11 364.826 1031.31 350.612C1025.41 338.297 1023.79 331.048 1023.29 314.923C1022.78 298.263 1024.1 290.249 1029.15 279.462C1038.4 259.686 1058.26 249.983 1079.85 254.686ZM240.552 257.334C233.083 259.439 225.34 263.904 220.192 269.075C212.798 276.501 211.884 282.15 216.598 291.297L218.766 295.504L216.579 293.404C215.376 292.249 213.441 289.341 212.278 286.942C208.735 279.632 209.615 272.203 214.862 265.129L217.117 262.092H215.084C210.441 262.092 202.943 264.828 200.253 267.503C194.815 272.916 195.483 280.242 202.031 286.973C205.983 291.037 206.336 291.708 205.678 293.922C204.317 298.494 204.663 312.498 206.274 318.068C210.051 331.12 219.14 342.523 230.379 348.302C233.798 350.061 236.672 351.397 236.766 351.273C236.86 351.148 239.507 347.337 242.651 342.802C251.239 330.412 251.205 330.077 243.232 348.586C239.221 357.894 239.396 360.429 244.389 365.404C247.13 368.134 247.845 368.404 252.37 368.404C256.867 368.404 257.62 368.126 260.262 365.493C263.321 362.445 265.333 356.835 264.091 354.819C262.932 352.939 263.156 352.68 266.932 351.535C281.913 346.987 295.063 332.325 298.892 315.898C300.084 310.787 300.167 297.937 299.036 293.948C298.424 291.791 298.829 291.016 302.743 286.863C307.413 281.905 308.722 278.335 307.672 273.421C306.404 267.491 300.938 263.656 292.017 262.44C287.121 261.772 287.159 261.382 291.487 267.908C295.092 273.345 295.521 280.485 292.609 286.602C291.402 289.141 289.211 292.377 287.74 293.794L285.067 296.372L287.222 292.9C293.949 282.07 291.75 273.86 279.771 265.072C271.455 258.972 264.829 256.721 254.058 256.339C247.924 256.122 243.765 256.428 240.552 257.334ZM56.2741 269.035C53.7924 275.593 52.3708 309.338 53.9317 324.658C55.7448 342.469 59.3747 358.754 65.2034 375.232C67.7722 382.494 68.3226 383.314 74.9719 389.794C97.2492 411.501 123.111 425.341 152.846 431.467C160.865 433.12 165.212 433.455 178.93 433.472C195.598 433.492 200.475 432.942 214.384 429.469C222.487 427.445 224.746 426.116 220.083 426.116C213.859 426.116 196.793 423.415 186.528 420.807C118.369 403.487 66.5414 345.474 57.9126 276.845C57.282 271.833 56.5451 268.318 56.2741 269.035ZM332.963 299.48C336.448 318.744 334.597 338.145 327.614 355.539C318.658 377.846 300.323 399.038 275.584 415.682C265.389 422.541 244.896 432.531 232.111 436.874C208.347 444.949 186.768 448.301 163.313 447.561C139.809 446.82 119.372 441.98 102.142 433.073C98.3169 431.095 95.0331 429.634 94.8452 429.827C94.3405 430.346 104.765 442.7 111.881 450.016C126.024 464.556 144.296 478.191 162.355 487.679L172.369 492.941L182.192 492.93C202.095 492.912 223.442 489.522 240.504 483.669C283.892 468.789 318.094 434.397 332.853 390.804C341.555 365.103 343.393 334.298 337.612 311.055C336.013 304.63 332.159 295.031 332.963 299.48Z" fill="#757575"/>
</g>
</svg>
