<?xml version="1.0" encoding="utf-8"?>
<!-- Generator: Adobe Illustrator 24.2.1, SVG Export Plug-In . SVG Version: 6.00 Build 0)  -->
<svg version="1.1" id="Layer_1" xmlns="http://www.w3.org/2000/svg" xmlns:xlink="http://www.w3.org/1999/xlink" x="0px" y="0px"
	 viewBox="0 0 84 32" style="enable-background:new 0 0 84 32;" xml:space="preserve">
<style type="text/css">
	.st0{fill:url(#SVGID_1_);}
</style>
<g>
	
		<linearGradient id="SVGID_1_" gradientUnits="userSpaceOnUse" x1="42" y1="-3.2432" x2="42" y2="28.7568" gradientTransform="matrix(1 0 0 -1 0 28.7568)">
		<stop  offset="0" style="stop-color:#F6DFAF"/>
		<stop  offset="6.550192e-02" style="stop-color:#F2DDB0"/>
		<stop  offset="0.1225" style="stop-color:#E8D6B3"/>
		<stop  offset="0.2583" style="stop-color:#E4D3B3"/>
		<stop  offset="0.4027" style="stop-color:#D7CBB4"/>
		<stop  offset="0.5375" style="stop-color:#C4BFB5"/>
		<stop  offset="0.6854" style="stop-color:#CFC9C0"/>
		<stop  offset="0.8347" style="stop-color:#DED8CF"/>
		<stop  offset="1" style="stop-color:#FCFDFB"/>
	</linearGradient>
	<path class="st0" d="M32.1,10.4c-0.6-0.4-1.3-0.5-2-0.5H27c-0.2,0-0.3,0.1-0.4,0.2c-0.1,0.1-0.2,0.3-0.2,0.4v11.1
		c0,0.2,0.1,0.3,0.2,0.4c0.1,0.1,0.3,0.2,0.4,0.2c0.2,0,0.3-0.1,0.4-0.2c0.1-0.1,0.2-0.3,0.2-0.4c0,0,0-3.7,0.1-3.8h2.5
		c0.7,0,1.4-0.2,2-0.5c0.6-0.3,1.1-0.8,1.4-1.4c0.4-0.6,0.5-1.3,0.5-2c0-0.7-0.2-1.4-0.5-2C33.2,11.2,32.7,10.7,32.1,10.4z
		 M32.5,15.3c-0.3,0.4-0.6,0.7-1,1c-0.4,0.2-0.9,0.3-1.4,0.3h-2.5v-5.6h2.5c0.6,0,1,0.1,1.4,0.4c0.5,0.3,0.8,0.6,1,1.1
		c0.3,0.4,0.4,0.9,0.4,1.4C32.9,14.4,32.8,14.9,32.5,15.3z M37,13.7c0.1,0.1,0.2,0.3,0.2,0.4v7.4c0,0.2-0.1,0.3-0.2,0.4
		c-0.1,0.1-0.3,0.2-0.4,0.2s-0.3-0.1-0.4-0.2C36,21.9,36,21.7,36,21.6v-7.4c0-0.2,0.1-0.3,0.2-0.4s0.3-0.2,0.4-0.2
		C36.7,13.6,36.9,13.6,37,13.7z M37.2,10.4c0.2,0.2,0.3,0.4,0.3,0.6s-0.1,0.4-0.3,0.6c-0.2,0.2-0.4,0.3-0.6,0.3s-0.4-0.1-0.6-0.3
		c-0.2-0.2-0.2-0.4-0.2-0.6s0.1-0.5,0.3-0.6c0.2-0.1,0.4-0.2,0.6-0.2C36.8,10.2,37.1,10.2,37.2,10.4z M46.5,14.1
		c-0.6-0.4-1.4-0.6-2.2-0.6c-0.9,0-1.6,0.2-2.1,0.6c-0.7,0.3-1.2,0.9-1.6,1.5c-0.4,0.7-0.5,1.4-0.5,2.2c0,0.9,0.2,1.5,0.5,2.2
		c0.4,0.6,0.9,1.1,1.5,1.5c0.6,0.4,1.4,0.6,2.2,0.6c0.7,0,1.3-0.1,1.9-0.4c0.5-0.3,1-0.7,1.4-1.2v1c0,0.2,0.1,0.3,0.2,0.4
		c0.1,0.1,0.3,0.2,0.4,0.2c0.2,0,0.3-0.1,0.4-0.2c0.1-0.1,0.2-0.3,0.2-0.4v-3.7c0-0.9-0.2-1.5-0.6-2.2C47.7,15,47.2,14.4,46.5,14.1z
		 M47,19.6c-0.3,0.5-0.6,0.9-1.1,1.2c-0.5,0.3-1,0.4-1.6,0.4c-0.6,0-1.2-0.2-1.6-0.4c-0.5-0.3-0.9-0.6-1.1-1.2
		c-0.3-0.5-0.4-1-0.4-1.7c0-0.6,0.2-1.2,0.4-1.7c0.3-0.5,0.6-0.9,1.1-1.2c0.5-0.3,1.1-0.4,1.6-0.4c0.6,0,1.1,0.1,1.6,0.4
		c0.5,0.3,0.9,0.6,1.1,1.2c0.3,0.5,0.4,1.1,0.4,1.7C47.4,18.5,47.3,19,47,19.6z M56.5,18.2c0.5,0.4,0.7,1,0.7,1.5
		c0,0.5-0.2,0.9-0.4,1.3s-0.7,0.7-1.2,0.9c-0.5,0.2-1.1,0.3-1.8,0.3S52.6,22.2,52,22s-1.1-0.5-1.4-0.9c-0.1-0.1-0.2-0.3-0.2-0.4
		c0-0.2,0.1-0.3,0.3-0.5c0.1-0.1,0.3-0.2,0.4-0.2c0.2,0,0.3,0.1,0.4,0.2c0.3,0.3,0.6,0.5,1,0.7c0.4,0.2,0.9,0.2,1.4,0.2
		c0.7,0,1.3-0.1,1.6-0.4c0.4-0.3,0.5-0.6,0.5-1c0-0.4-0.2-0.7-0.5-1c-0.4-0.3-1-0.4-1.8-0.6c-1-0.2-1.8-0.5-2.3-0.9
		c-0.5-0.4-0.7-0.9-0.7-1.5c0-0.8,0.3-1.3,0.9-1.8c0.7-0.4,1.4-0.6,2.3-0.6c0.7,0,1.3,0.1,1.8,0.4c0.5,0.2,0.9,0.5,1.2,1
		C57,15,57,15.1,57,15.2c0,0.2-0.1,0.3-0.3,0.4c-0.1,0.1-0.2,0.1-0.3,0.1c-0.2,0-0.4-0.1-0.5-0.2c-0.5-0.6-1.2-0.9-2.1-0.9
		c-0.6,0-1,0.1-1.4,0.4c-0.3,0.2-0.5,0.5-0.5,0.9s0.2,0.7,0.5,0.9c0.3,0.2,0.9,0.4,1.7,0.5C55.2,17.5,56,17.8,56.5,18.2z M63.6,21.2
		c0.1,0.1,0.2,0.3,0.2,0.4s-0.1,0.3-0.2,0.4c-0.1,0.1-0.3,0.2-0.5,0.2h-0.3c-0.5,0-1.1-0.2-1.5-0.4c-0.4-0.3-0.7-0.6-1-1.1
		c-0.3-0.5-0.4-1-0.4-1.5v-4.2h-1c-0.2,0-0.3-0.1-0.4-0.2c-0.1-0.1-0.2-0.2-0.2-0.4c0-0.2,0.1-0.3,0.2-0.4c0.1-0.1,0.3-0.2,0.4-0.2
		h1v-2.5c0-0.2,0.1-0.3,0.2-0.4c0.1-0.1,0.3-0.2,0.4-0.2s0.3,0.1,0.4,0.2c0.1,0.1,0.2,0.3,0.2,0.4v2.5h1.8c0.2,0,0.3,0.1,0.4,0.2
		c0.1,0.1,0.2,0.2,0.2,0.4c0,0.2-0.1,0.3-0.2,0.4s-0.2,0.2-0.4,0.2h-1.8v4.2c0,0.5,0.2,1,0.5,1.3c0.3,0.3,0.7,0.5,1.2,0.5h0.3V21
		C63.3,21,63.4,21,63.6,21.2z M71.1,14.1c0,0.1,0,0.1,0,0.2c-0.1,0.2-0.1,0.3-0.2,0.3c-0.1,0.1-0.2,0.1-0.4,0.1
		c-0.1,0-0.3,0-0.5-0.1c-0.1,0-0.2,0-0.4,0c-0.7,0-1.4,0.2-1.9,0.6c-0.5,0.4-0.7,1-0.7,1.7v4.8c0,0.2-0.1,0.3-0.2,0.4
		c-0.1,0.1-0.3,0.2-0.4,0.2c-0.2,0-0.3-0.1-0.4-0.2c-0.1-0.1-0.2-0.3-0.2-0.4v-7.5c0-0.2,0.1-0.3,0.2-0.4c0.1-0.1,0.3-0.2,0.4-0.2
		c0.2,0,0.3,0.1,0.4,0.2c0.1,0.1,0.2,0.3,0.2,0.4v0.7c0.3-0.4,0.7-0.8,1.2-1.1c0.4-0.2,0.9-0.3,1.5-0.3c0.4,0,0.7,0.1,1,0.2
		S71.1,13.9,71.1,14.1z M74.2,13.7c0.1,0.1,0.2,0.3,0.2,0.4v7.4c0,0.2-0.1,0.3-0.2,0.4c-0.1,0.1-0.3,0.2-0.4,0.2
		c-0.2,0-0.3-0.1-0.4-0.2c-0.1-0.1-0.2-0.3-0.2-0.4v-7.4c0-0.2,0.1-0.3,0.2-0.4s0.3-0.2,0.4-0.2C74,13.6,74.1,13.6,74.2,13.7z
		 M74.4,10.4c0.2,0.2,0.3,0.4,0.3,0.6s-0.1,0.4-0.3,0.6c-0.2,0.2-0.4,0.3-0.6,0.3c-0.3,0-0.4-0.1-0.6-0.3c-0.2-0.2-0.2-0.4-0.2-0.6
		s0.1-0.5,0.3-0.6c0.2-0.1,0.4-0.2,0.6-0.2S74.2,10.2,74.4,10.4z M83.8,21.2c0.1,0.2,0.2,0.3,0.2,0.4c0,0.1-0.1,0.3-0.2,0.4
		c-0.1,0.1-0.2,0.2-0.4,0.2c-0.1,0-0.2-0.1-0.3-0.1c-0.1-0.1-0.2-0.1-0.2-0.2l-2.6-3.3L77.7,22c-0.1,0.1-0.2,0.2-0.4,0.2
		c-0.2,0-0.3-0.1-0.4-0.2c-0.1-0.1-0.2-0.2-0.2-0.4c0-0.2,0.1-0.3,0.2-0.4l2.7-3.4L77,14.5c-0.1-0.1-0.2-0.3-0.2-0.4
		s0.1-0.3,0.2-0.4c0.1-0.1,0.2-0.2,0.4-0.2c0.2,0,0.3,0.1,0.4,0.2l2.5,3.3l2.5-3.2c0.2-0.2,0.3-0.3,0.5-0.3c0.2,0,0.3,0.1,0.4,0.2
		c0.1,0.1,0.2,0.2,0.2,0.4s-0.1,0.3-0.2,0.5l-2.6,3.3L83.8,21.2z M12.9,16.5c-0.1-0.7,0-1.4,0.3-2c0.3-0.6,0.9-1.1,1.5-1.3
		c0.1,0,0.1-0.1,0.2-0.1C15,13,15.1,13,15.3,13c0.1-0.1,0.1-0.1,0.2-0.1c0.7-0.2,1.5,0.1,2.1,0.4c0.6,0.4,1.1,1,1.3,1.7
		c0.2,0.7,0.1,1.5-0.2,2.2c-0.3,0.7-0.9,1.2-1.5,1.5C16.8,19,16.4,19,16,19.1c-0.1,0-0.1,0-0.1,0c-0.4,0-0.7-0.1-1.1-0.2
		c-0.1-0.1-0.2-0.1-0.2-0.1c-0.1-0.1-0.2-0.1-0.3-0.2c-0.1,0-0.1,0-0.2-0.1c-0.5-0.3-0.9-0.9-1.1-1.5c0-0.1,0-0.2-0.1-0.3
		C13,16.7,12.9,16.6,12.9,16.5z M4.4,9.9C4,8.5,3.8,7.2,3.8,5.8c3.4,0,5.8,0.6,7.4,1.9c0.2,1.8,0.8,3.6,1.9,5.3
		c-0.6,0.5-1.1,1.3-1.2,2.1c-2-0.2-3.8-1-5.3-2.1c-0.3-0.2-0.5-0.4-0.7-0.7c-0.1,0-0.1-0.1-0.1-0.1v-0.1C5.3,11.5,4.8,10.7,4.4,9.9z
		 M14.8,19.9c-0.4,2.2-1.4,4-2.7,5.4h-0.1l-0.2,0.2v0.1c-0.9,0.7-1.9,1.3-3,1.7c-1.3,0.4-2.7,0.4-4.1,0.2c0.3-2.7,0.9-4.9,1.9-6.4
		h0.1c2.2-0.1,4.4-0.7,6.5-2.1C13.6,19.4,14.1,19.8,14.8,19.9z M6.3,20C5.2,20,4,19.7,3,19.1c-1.2-0.7-2.3-1.7-3-2.9
		c1.9-1.6,3.7-2.6,5.3-3c0.2,0.2,0.4,0.4,0.6,0.6c1.6,1.3,3.6,2.1,5.9,2.4c0.1,0.7,0.2,1.4,0.6,2c-1.9,1.2-3.8,1.8-5.8,1.8L6.3,20z
		 M19,3c0.6,1.1,1,2.4,1,3.6c0,0.3,0,0.5-0.1,0.7v0.1c-0.1,1.8-0.7,3.5-1.8,5.2c-0.6-0.4-1.3-0.6-2-0.6c-0.7-0.1-1.4,0.1-2,0.4
		c-1-1.6-1.5-3.3-1.7-5V7.4c-0.1-0.3-0.1-0.5-0.1-0.7c0.1-1.3,0.4-2.5,1-3.6s1.6-2.1,2.8-3C17.4,0.9,18.3,1.9,19,3z M19.7,25.8
		c0,0.1,0,0.2,0.1,0.2c-0.1,1-0.4,2-0.9,2.9c-0.7,1.2-1.6,2.3-2.8,3.1c-1.8-2.2-2.8-4.2-3.1-5.9c1.5-1.6,2.4-3.6,3-6c0,0,0,0,0.1,0
		c0.6,0,1.3-0.1,1.9-0.4c1,1.7,1.5,3.3,1.8,5C19.6,25.1,19.6,25.5,19.7,25.8z"/>
</g>
</svg>
