<svg width="1267" height="443" fill="none" xmlns="http://www.w3.org/2000/svg"><path opacity=".993" fill-rule="evenodd" clip-rule="evenodd" d="M1267 .208v421.698c-4.53 9.09-11.55 15.767-21.08 20.031a177837.103 177837.103 0 0 1-1224.839 0C11.554 437.673 4.527 430.996 0 421.906V92.982C4.89 82.145 13.322 75.468 25.298 72.95l1167.912-2.109a2890.905 2890.905 0 0 0 63.25-68.526c3.26-2.007 6.77-2.71 10.54-2.108zM638.77 135.151h46.38v40.062h-46.38v-40.062zm-373.143 8.434h46.38v187.656h-46.38V143.585zm-113.84 139.161c-2.091 15.775-2.794 31.939-2.108 48.495h-48.488V152.019c29.523-.351 59.037.001 88.543 1.055 46.101 13.156 62.616 43.026 49.541 89.61-8.555 19.095-22.96 31.394-43.217 36.899a265.152 265.152 0 0 1-44.271 3.163zm427.955-90.665c10.836 2.083 22.081 2.786 33.731 2.108v35.844h-33.731c-.35 16.883 0 33.751 1.054 50.604 1.845 5.725 5.709 8.535 11.595 8.434 6.588 2.064 13.614 2.769 21.082 2.109v40.061h-40.055c-17.365-2.25-29.662-11.388-36.893-27.41a472.653 472.653 0 0 1-3.162-73.798h-25.298c-.342-4.273.01-8.49 1.054-12.65l60.082-64.309a17.775 17.775 0 0 1 8.433-1.055c-.681 13.752.021 27.106 2.108 40.062zm137.03 189.764V194.189h31.622l5.271 10.543c23.206-16.971 48.152-20.134 74.839-9.489 21.377 10.736 34.378 27.955 39.001 51.658 4.459 63.013-24.705 92.182-87.488 87.503a54.222 54.222 0 0 1-15.811-7.38c-1.055 18.26-1.405 36.534-1.055 54.821h-46.379zM1167.92 234.25c-15.65.627-31.11-.075-46.38-2.108-3.33-8.691-9.65-11.854-18.98-9.488-8.4 4.097-9.81 9.72-4.21 16.868 16.06 4.48 32.22 8.697 48.49 12.651 18.31 9.574 25.69 24.684 22.13 45.332-5.87 20.731-19.57 33.032-41.11 36.899-25.55 5.431-48.39.16-68.51-15.814-7.41-9.233-11.27-19.775-11.6-31.627h46.38c1.48 12.37 8.51 16.937 21.08 13.705 10.27-5.223 10.97-11.548 2.11-18.976a303.175 303.175 0 0 1-48.49-12.651c-20.47-16.523-24.33-36.553-11.59-60.092 14.32-13.803 31.54-20.832 51.65-21.085 32.81-.537 52.48 14.925 59.03 46.386zm-777.912-44.278c21.419-3.078 41.095 1.139 59.029 12.651 2.835-1.785 4.943-4.245 6.324-7.38a305.567 305.567 0 0 1 35.839-1.054v137.052a172.58 172.58 0 0 1-37.947-2.108 15.371 15.371 0 0 0-4.216-6.326c-27.761 16.457-55.871 16.807-84.327 1.054-29.119-26.826-36.498-58.805-22.135-95.936 10.532-19.327 26.343-31.978 47.433-37.953zm295.142 4.217v137.052h-46.38V194.189h46.38zm204.491 0h46.379c-.691 25.677.011 50.979 2.108 75.906 2.127 22.778 13.722 29.103 34.785 18.976 4.264-4.784 6.021-10.407 5.27-16.868 2.098-25.628 2.802-51.635 2.108-78.014h46.379c.35 28.825 0 57.64-1.05 86.448-7.16 36.667-29.644 54.939-67.464 54.821-37.717.211-60.205-18.061-67.461-54.821-1.054-28.808-1.406-57.623-1.054-86.448z" fill="#757575"/><path opacity=".537" fill-rule="evenodd" clip-rule="evenodd" d="M579.742 192.081h35.839c.681 13.051-.021 25.702-2.108 37.952v-35.844c-11.65.678-22.895-.025-33.731-2.108z" fill="#757575"/><path opacity=".039" fill-rule="evenodd" clip-rule="evenodd" d="M685.15 194.189h-46.38v137.052h46.38c-15.774 2.092-31.935 2.794-48.488 2.108V192.081c16.553-.687 32.714.016 48.488 2.108z" fill="#757575"/><path opacity=".031" fill-rule="evenodd" clip-rule="evenodd" d="M748.396 194.189h-31.623v187.656a4272.965 4272.965 0 0 1-2.108-189.764c11.65-.678 22.895.025 33.731 2.108zM889.641 194.189c15.773-2.092 31.934-2.795 48.487-2.108v78.014c-2.097-24.927-2.799-50.229-2.108-75.906h-46.379zM1026.67 194.189h-46.378c.693 26.379-.011 52.386-2.108 78.014v-80.122c16.553-.687 32.716.016 48.486 2.108z" fill="#757575"/><path opacity=".2" fill-rule="evenodd" clip-rule="evenodd" d="M177.085 196.298h-25.298v42.169c-2.09-14.365-2.792-29.125-2.108-44.278 9.555-.671 18.69.032 27.406 2.109z" fill="#757575"/><path opacity=".98" fill-rule="evenodd" clip-rule="evenodd" d="M177.085 196.298c16.605 5.851 21.172 17.095 13.703 33.735-2.559 3.267-5.722 5.725-9.487 7.38a207.499 207.499 0 0 1-29.514 1.054v-42.169h25.298z" fill="#757575"/><path opacity=".979" fill-rule="evenodd" clip-rule="evenodd" d="M406.875 230.033c29.459.306 41.758 15.066 36.893 44.279-14.949 24.072-33.219 26.885-54.812 8.434-11.798-23.843-5.823-41.413 17.919-52.713z" fill="#757575"/><path opacity=".994" fill-rule="evenodd" clip-rule="evenodd" d="M782.126 230.034c23.231-1.053 36.585 9.842 40.055 32.681-6.909 30.512-24.476 38.946-52.704 25.302-11.764-13.802-13.52-28.914-5.271-45.332 4.895-6.105 10.868-10.322 17.92-12.651z" fill="#757575"/><path opacity=".2" fill-rule="evenodd" clip-rule="evenodd" d="M1121.54 232.142c15.27 2.033 30.74 2.735 46.38 2.109-7.35 1.402-15.08 2.106-23.19 2.108-8.57-.023-16.3-1.429-23.19-4.217z" fill="#757575"/><path opacity=".106" fill-rule="evenodd" clip-rule="evenodd" d="M592.391 289.071h23.19v44.279c-14.449.683-28.504-.019-42.163-2.109h40.055V291.18c-7.467.66-14.494-.044-21.082-2.109z" fill="#757575"/><path opacity=".314" fill-rule="evenodd" clip-rule="evenodd" d="M151.787 282.746v50.604c-17.253.687-34.118-.017-50.596-2.109h48.488c-.686-16.556.017-32.719 2.108-48.495z" fill="#757575"/></svg>