<svg width="1283" height="553" viewBox="0 0 1283 553" fill="none" xmlns="http://www.w3.org/2000/svg">
<g clip-path="url(#clip0_1444_90)">
<path d="M853.193 13.7715C858.188 15.9084 863.183 18.5201 867.94 21.1318L1101.99 155.999C1195.47 210.136 1195.47 345.002 1101.99 399.139L867.94 534.242C863.183 536.854 858.188 539.466 853.193 541.603C801.982 519.693 768.566 469.734 768.279 413.99V141.39C768.566 85.8739 801.982 35.6811 853.193 13.7715ZM877.217 166.684C861.518 166.684 851.766 170.008 848.436 176.894C846.771 179.98 845.582 183.305 844.868 186.866C844.392 191.14 844.155 195.414 844.393 199.926V408.398C844.155 415.047 844.868 421.696 846.533 427.869C849.388 437.129 859.615 441.878 876.979 441.878C892.677 441.878 902.43 438.554 905.76 431.668C907.425 428.581 908.614 425.257 909.327 421.695C909.803 417.421 910.041 413.147 909.803 408.873V366.371H955.947C977.83 366.371 998.999 358.298 1019.46 342.39C1030.16 334.079 1038.48 323.157 1044.19 311.048C1050.85 297.276 1053.94 282.08 1053.71 266.884C1053.94 251.688 1050.61 236.491 1044.19 222.482C1038.72 209.898 1030.16 199.213 1019.69 190.665C999.238 174.519 978.068 166.684 956.423 166.684H877.217ZM955.947 233.167C964.034 233.404 971.884 236.254 978.068 241.715C985.204 247.413 988.771 255.724 988.771 266.646C988.771 277.568 985.204 285.879 978.068 291.34C972.122 296.564 964.51 299.413 956.423 299.65H909.803V233.167H955.947Z" fill="#6C6D6E"/>
<path d="M526.377 148.401H509.252V122.994H558.012V256.674H526.377V148.401ZM426.239 232.93C430.521 232.692 435.04 231.98 439.322 231.03C444.554 229.843 449.787 229.368 455.02 229.13C485.466 229.13 500.689 241.24 500.689 265.696C500.689 279.231 494.504 289.678 482.374 297.513C470.243 305.112 455.496 309.148 438.37 309.148C418.39 309.386 398.886 302.975 382.712 291.103L402.454 266.646C412.206 276.144 425.288 281.605 439.084 281.605C446.695 281.842 454.307 280.418 461.442 277.568C467.389 274.957 470.243 271.158 470.243 266.646C470.243 258.811 463.821 254.774 450.739 254.774C445.506 255.012 440.273 255.249 435.04 255.961C429.807 256.674 424.575 257.149 419.342 257.149C397.935 257.149 386.993 249.55 386.993 234.117C387.231 229.368 389.134 224.619 392.464 221.057C395.794 217.021 400.075 213.697 405.07 211.797C390.323 203.012 381.522 186.866 382.236 169.77C381.998 156.236 387.707 143.177 397.935 134.392C408.638 124.894 422.434 119.908 436.705 120.383C446.695 120.145 456.447 122.045 465.248 126.319L474.287 117.296C476.427 115.159 479.995 115.159 482.374 117.296L494.504 129.405C496.645 131.542 496.645 135.104 494.504 137.478L486.893 145.076C491.412 152.912 493.791 161.935 493.553 170.957C493.553 186.154 488.796 198.263 479.519 207.523C470.243 216.784 457.399 221.532 444.317 221.295C441.224 221.295 438.37 221.057 435.278 220.583L430.045 219.87C427.667 220.583 425.526 221.532 423.385 222.482C419.58 224.382 417.677 226.044 417.677 227.943C417.677 231.267 420.531 232.93 426.239 232.93ZM420.531 188.766C425.05 193.752 431.472 196.364 438.132 195.889C444.554 196.364 450.977 193.752 455.258 189.003C459.302 184.254 461.204 177.843 461.204 169.77C461.442 163.359 459.064 157.423 454.782 152.674C450.501 147.926 444.317 145.551 438.132 145.789C425.288 145.076 414.585 155.049 413.871 167.633C413.871 168.346 413.871 169.058 413.871 169.77C413.633 176.893 415.774 183.542 420.531 188.766ZM300.889 232.93C305.17 232.692 309.69 231.98 313.971 231.03C319.204 229.843 324.437 229.368 329.67 229.13C360.115 229.13 375.338 241.24 375.338 265.696C375.338 279.231 369.154 289.678 357.023 297.513C344.892 305.112 330.145 309.148 313.02 309.148C306.598 309.148 300.175 308.436 293.991 307.249V426.206C293.991 442.59 298.986 452.562 308.738 455.649C303.981 464.909 295.656 469.421 284.001 469.421C269.73 469.421 262.832 459.686 262.832 439.978V294.427C262.594 294.189 262.356 294.189 262.118 293.952L282.812 270.92C291.613 277.806 302.554 281.367 313.733 281.605C321.345 281.842 328.956 280.418 336.092 277.568C342.038 274.957 344.892 271.158 344.892 266.646C344.892 258.811 338.47 254.774 325.626 254.774C320.393 255.012 315.16 255.249 309.928 255.961C304.695 256.674 299.462 257.149 294.229 257.149C272.822 257.149 261.88 249.55 261.88 234.117C262.118 229.368 264.021 224.619 267.351 221.057C270.681 217.021 274.963 213.697 279.958 211.797C265.21 203.012 256.41 186.866 257.123 169.77C256.885 156.236 262.594 143.177 272.822 134.392C283.525 124.894 297.321 119.908 311.592 120.383C321.82 120.145 332.048 122.282 341.325 126.793L350.839 117.533C352.98 115.396 356.547 115.396 358.926 117.533L371.057 129.643C373.197 131.78 373.197 135.341 371.057 137.716L362.494 146.264C366.775 153.862 368.916 162.41 368.678 171.195C368.678 186.391 363.921 198.501 354.645 207.761C345.368 217.021 332.524 221.77 319.442 221.532C316.35 221.532 313.495 221.295 310.403 220.82L305.17 220.108C302.792 220.82 300.651 221.77 298.51 222.72C294.705 224.619 292.802 226.281 292.802 228.181C292.088 231.267 294.943 232.93 300.889 232.93ZM294.943 188.766C299.462 193.752 305.884 196.364 312.544 195.889C318.966 196.364 325.388 193.752 329.67 189.003C333.713 184.254 335.616 177.843 335.616 169.77C335.854 163.359 333.475 157.423 329.194 152.674C324.912 147.926 318.728 145.551 312.544 145.789C299.7 145.076 288.996 155.049 288.283 167.633C288.283 168.346 288.283 169.058 288.283 169.77C288.045 176.893 290.423 183.542 294.943 188.766ZM183.388 259.048C162.932 259.048 147.233 252.637 135.816 240.053C124.399 227.468 118.928 210.373 118.928 189.478C118.928 169.058 124.875 152.437 136.53 139.615C148.423 126.793 163.883 120.383 183.15 120.383C203.605 120.383 219.304 126.556 230.483 138.903C241.663 151.25 247.371 168.108 247.371 189.478C247.371 210.848 241.663 227.706 230.245 240.29C218.828 252.875 203.13 259.048 183.388 259.048ZM183.388 145.789C174.111 145.551 165.548 149.825 160.078 157.186C154.369 164.784 151.515 175.469 151.515 189.24C151.515 218.683 162.218 233.404 183.388 233.404C192.664 233.642 201.227 229.368 206.698 222.007C212.406 214.409 215.26 203.487 215.26 189.24C215.023 160.51 204.557 145.789 183.388 145.789ZM47.3335 190.19C43.7657 190.19 38.7707 189.953 32.5864 189.24V256.436H0V73.8441C21.645 72.8943 34.2514 72.4194 38.0571 72.4194C67.0756 72.4194 88.2449 76.9308 101.565 85.7161C114.885 94.5014 121.545 108.51 121.545 127.268C121.545 169.295 96.8077 190.19 47.3335 190.19ZM42.3385 101.387C39.0085 101.387 35.6785 101.625 32.3485 102.1V160.51C37.8192 160.985 42.1007 161.46 45.4307 161.46C60.1778 161.46 71.1192 159.085 78.017 154.099C84.9149 149.113 88.2449 141.04 88.2449 129.88C88.2449 110.885 73.0221 101.387 42.3385 101.387ZM227.153 295.851C240.473 304.637 247.133 318.646 247.133 337.404C247.133 379.431 222.396 400.325 172.922 400.325C169.354 400.325 164.359 400.088 158.175 399.376V466.571H125.588V283.979C147.233 283.03 159.84 282.555 163.646 282.555C192.664 282.555 213.833 287.066 227.153 295.851ZM158.175 370.645C162.456 371.12 166.738 371.358 171.257 371.595C186.004 371.595 196.945 369.221 203.843 364.234C210.741 359.248 214.071 351.175 214.071 340.015C214.071 321.02 198.848 311.522 168.165 311.522C164.835 311.522 161.505 311.76 158.175 312.235V370.645ZM382.236 378.243C386.517 378.243 391.037 378.956 395.318 380.143C395.318 364.472 385.328 356.636 365.348 356.636C355.12 356.399 345.13 358.298 335.854 362.572L329.194 338.353C341.325 332.892 354.407 330.28 367.489 330.518C387.945 330.518 402.93 335.267 412.444 344.527C421.958 353.787 426.715 371.358 426.715 397.239V425.732C426.715 443.54 430.283 454.699 437.419 459.211C435.754 463.01 432.662 465.859 428.856 467.521C425.288 468.708 421.72 469.183 417.915 469.183C413.395 469.183 409.114 467.284 405.784 464.197C402.454 461.348 400.075 457.549 398.648 453.275C395.08 458.498 389.847 462.535 383.901 464.672C377.003 467.521 369.392 469.183 361.78 469.183C347.271 469.183 336.092 465.622 327.767 458.261C319.442 451.138 315.398 440.928 315.398 427.631C315.398 412.197 321.107 400.088 332.762 391.303C344.179 382.755 360.829 378.243 382.236 378.243ZM367.251 444.252C386.042 444.252 395.318 434.992 395.318 416.234V403.65C391.275 402.7 387.469 402.225 383.425 401.988C358.688 401.988 346.32 410.06 346.32 426.206C346.32 438.316 353.455 444.252 367.251 444.252ZM483.087 473.457C483.087 465.384 479.757 453.275 473.097 436.891L431.235 333.13H463.583L500.213 425.494L533.037 333.13H565.386L506.635 488.179C503.305 496.964 496.169 504.325 485.228 510.261C473.335 516.434 460.253 519.283 446.933 519.046V491.503C471.194 491.503 483.087 485.567 483.087 473.457Z" fill="#757575"/>
<path d="M529.706 76.456C522.571 83.5792 522.808 94.9764 529.706 101.862C536.604 108.748 548.259 108.748 555.157 101.862C562.293 94.7389 562.055 83.3418 555.157 76.456C551.827 73.1318 547.308 71.2323 542.313 71.2323C537.793 70.9948 533.036 72.8944 529.706 76.456Z" fill="#757575"/>
<path d="M768.277 412.672V142.702C768.039 86.666 801.577 35.8536 853.192 13.7716C858.187 15.9086 863.182 18.5204 867.939 21.1323C774.461 -32.7668 657.436 34.6664 657.436 142.702V412.672C657.436 520.708 774.223 588.141 867.939 534.242C863.182 536.854 858.187 539.466 853.192 541.603C801.577 519.521 768.039 468.946 768.277 412.672Z" fill="#757575"/>
<path d="M1212.83 155.999L978.782 21.1323C937.395 -2.61182 891.488 -2.84926 853.193 13.7716C858.188 15.9086 863.183 18.5204 867.94 21.1323L1101.99 155.999C1195.47 210.135 1195.47 345.002 1101.99 399.138L867.94 534.242C863.183 536.854 858.188 539.466 853.193 541.603C891.488 558.224 937.395 557.986 978.782 534.242L1212.83 399.138C1306.55 345.002 1306.55 210.135 1212.83 155.999Z" fill="#757575"/>
</g>
<defs>
<clipPath id="clip0_1444_90">
<rect width="1283" height="553" fill="white"/>
</clipPath>
</defs>
</svg>
