<svg width="1589" height="327" viewBox="0 0 1589 327" fill="none" xmlns="http://www.w3.org/2000/svg">
<path d="M428.919 39.743C450.657 52.4703 466.69 66.8875 480.64 87.8531C482.445 90.5441 484.25 93.2351 486.11 96.0076C503.331 127.322 503.389 170.204 494.158 204.239C490.242 213.416 485.915 221.634 480.64 230.092C479.143 232.675 477.645 235.258 476.102 237.919C471.759 244.995 471.759 244.995 463.922 255.193C461.164 255.193 458.405 255.193 455.563 255.193C455.563 257.954 455.563 260.715 455.563 263.56C449.131 268.658 449.131 268.658 440.413 274.018C436.194 276.671 436.194 276.671 431.891 279.378C399.064 296.522 362.519 298.335 326.62 290.115C290.502 277.075 261.153 251.039 242.41 217.541C228.182 184.312 228.382 141.107 240.581 107.202C257.053 72.401 280.442 49.8094 315.518 33.7946C353.295 22.1728 392.8 23.2517 428.919 39.743ZM309.281 87.8531C310.661 91.9947 312.04 96.1364 313.461 100.404C316.65 99.1093 319.84 97.815 323.126 96.4815C346.973 87.0447 368.776 83.0173 393.818 90.7129C413.766 99.7241 424.679 109.695 434.666 129.688C438.16 140.823 440.656 151.695 443.025 163.156C434.75 163.156 426.474 163.156 417.948 163.156C421.228 169.359 424.544 175.544 427.874 181.72C429.717 185.166 431.559 188.612 433.458 192.162C438.152 201.371 438.152 201.371 447.204 204.991C458.336 180.256 460.347 154.8 452.837 128.511C441.116 102.329 419.533 81.8329 392.871 71.1191C360.522 67.141 336.943 70.814 309.281 87.8531ZM288.384 112.954C274.368 135.168 272.463 154.381 275.845 179.89C283.4 207.933 297.513 226.902 321.82 242.642C345.11 253.792 370.838 255.779 395.287 247.25C404.411 243.201 413.309 238.949 422.128 234.275C420.059 225.992 420.059 225.992 417.948 217.541C415.367 218.798 412.787 220.054 410.128 221.349C384.934 232.672 365.502 238.121 338.538 230.092C316.361 218.783 302.276 203.896 293.87 180.135C291.836 173.137 290.083 166.059 288.384 158.972C296.659 158.972 304.935 158.972 313.461 158.972C306.565 143.786 299.669 128.6 292.563 112.954C291.184 112.954 289.805 112.954 288.384 112.954Z" fill="#757575"/>
<path d="M678.382 66.9355C705.267 82.1891 726.277 104.036 735.589 133.871C738.965 166.76 740.203 199.081 718.871 225.908C696.396 250.994 672.559 264.419 639.183 268.903C617.249 269.977 600.696 263.664 580.948 255.192C580.996 259.976 581.045 264.759 581.095 269.687C581.134 275.925 581.172 282.162 581.209 288.399C581.244 291.556 581.279 294.714 581.315 297.967C581.351 306.021 581.166 314.076 580.948 322.128C576.768 326.312 576.768 326.312 563.707 326.867C558.363 326.856 553.018 326.846 547.512 326.835C542.167 326.845 536.823 326.856 531.316 326.867C518.255 326.312 518.255 326.312 514.076 322.128C513.683 314.041 513.585 305.94 513.601 297.843C513.602 292.651 513.602 287.458 513.602 282.108C513.624 276.399 513.645 270.69 513.668 264.981C513.675 259.172 513.681 253.362 513.686 247.553C513.702 232.237 513.743 216.92 513.789 201.604C513.831 185.985 513.851 170.367 513.872 154.748C513.917 124.082 513.988 93.4173 514.076 62.752C540.546 62.752 567.016 62.752 593.486 62.752C621.413 53.4342 651.603 54.6844 678.382 66.9355ZM589.307 129.688C579.656 142.108 578.916 155.844 579.38 171.376C582.363 187.577 589.449 194.166 601.845 204.991C620.001 210.938 627.539 210.957 644.685 202.376C656.376 192.269 663.048 185.875 668.717 171.523C668.717 152.659 666.62 144.696 654.35 130.211C632.547 112.113 611.999 112.021 589.307 129.688Z" fill="#757575"/>
<path d="M164.567 67.1968C193.275 83.5709 211.961 106.185 221.513 138.055C225.447 174.535 220.391 204.073 197.742 233.229C176.523 256.428 149.18 266.695 118.332 268.789C98.1663 268.637 81.4567 262.236 62.6923 255.192C62.6923 278.662 62.6923 302.131 62.6923 326.311C42.0038 326.311 21.3154 326.311 0 326.311C0 239.337 0 152.362 0 62.7519C26.4701 62.7519 52.9402 62.7519 79.4103 62.7519C107.539 53.3668 137.671 54.7367 164.567 67.1968ZM71.0513 133.871C61.9673 151.483 61.8727 164.211 66.8718 183.289C76.686 198.945 82.7746 203.668 100.308 209.174C115.54 208.863 123.776 205.942 136.878 198.192C149.077 185.304 152.26 176.549 154.641 158.972C149.736 140.56 145.964 132.293 130.087 121.582C104.777 112.969 91.479 115.696 71.0513 133.871Z" fill="#757575"/>
<path d="M996.284 67.1968C1023.35 82.6775 1041.58 103.326 1051.27 133.168C1057.63 162.617 1055.29 191.024 1040.69 217.541C1022.41 245.41 997.981 260.964 965.46 267.743C938.563 269.568 919.635 264.661 894.409 255.192C894.409 278.662 894.409 302.131 894.409 326.311C873.721 326.311 853.032 326.311 831.717 326.311C831.717 239.337 831.717 152.362 831.717 62.7519C858.187 62.7519 884.657 62.7519 911.127 62.7519C939.255 53.3668 969.388 54.7367 996.284 67.1968ZM902.768 133.871C894.773 146.746 894.399 154.195 894.67 169.431C899.429 187.215 904.879 193.944 919.486 204.99C935.268 210.368 942.215 210.05 957.885 204.206C972.893 194.525 979.555 186.829 985.835 170.215C986.602 153.715 981.981 143.919 973.819 129.688C946.307 111.129 928.122 113.005 902.768 133.871Z" fill="#757575"/>
<path d="M1255.41 57.7843C1260.1 57.7249 1264.79 57.6656 1269.62 57.6045C1282.89 58.5534 1292.06 61.2716 1304 66.9356C1306.76 64.1745 1309.52 61.4134 1312.36 58.5687C1325.83 57.6045 1325.83 57.6045 1341.88 57.7843C1349.84 57.8247 1349.84 57.8247 1357.96 57.866C1370.87 58.5687 1370.87 58.5687 1375.05 62.7521C1375.46 68.7655 1375.59 74.7988 1375.59 80.8261C1375.6 84.6651 1375.62 88.5041 1375.63 92.4594C1375.62 96.6341 1375.61 100.809 1375.61 105.11C1375.61 109.366 1375.61 113.621 1375.62 118.006C1375.62 127.023 1375.61 136.04 1375.6 145.057C1375.57 158.913 1375.59 172.767 1375.62 186.623C1375.62 195.36 1375.61 204.097 1375.61 212.835C1375.61 217.009 1375.62 221.184 1375.63 225.485C1375.61 231.244 1375.61 231.244 1375.59 237.119C1375.59 240.515 1375.58 243.912 1375.58 247.412C1375.05 255.192 1375.05 255.192 1370.87 259.376C1356.5 259.487 1342.18 259.259 1327.81 258.845C1311.76 258.606 1297.62 259.433 1282.07 263.608C1253.16 271.228 1225.13 267.221 1199.02 252.463C1173.82 234.406 1158.27 212.44 1150.94 182.276C1146.14 149.689 1152.83 124.89 1170.73 97.3476C1193.46 69.975 1220.41 57.9847 1255.41 57.7843ZM1225.37 137.009C1218.02 150.948 1218.27 160.158 1220.41 175.706C1227.89 188.133 1236.5 198.402 1249.67 204.991C1273.88 207.168 1273.88 207.168 1295.38 197.408C1306.63 185.46 1308.02 177.873 1309.22 161.587C1308.1 145.317 1305.73 138.123 1295.64 125.504C1270.68 107.412 1245.62 117.437 1225.37 137.009Z" fill="#757575"/>
<path d="M1387.59 62.752C1408.28 62.752 1428.97 62.752 1450.28 62.752C1464.1 92.9751 1476.18 123.693 1487.9 154.789C1491.91 144.158 1495.91 133.524 1499.91 122.89C1501.04 119.907 1502.17 116.925 1503.33 113.853C1504.43 110.914 1505.53 107.974 1506.67 104.946C1507.68 102.274 1508.69 99.6007 1509.72 96.847C1513.8 85.5562 1517.54 74.1428 1521.33 62.752C1543.4 62.752 1565.47 62.752 1588.21 62.752C1585.22 80.6834 1582.24 94.5737 1576.33 111.307C1573.96 118.048 1573.96 118.048 1571.55 124.925C1569.85 129.711 1568.15 134.497 1566.39 139.427C1564.65 144.386 1562.9 149.345 1561.1 154.454C1557.41 164.908 1553.72 175.359 1550.01 185.805C1545.26 199.201 1540.53 212.604 1535.8 226.01C1531.29 238.812 1526.77 251.611 1522.25 264.409C1519.69 271.638 1519.69 271.638 1517.09 279.014C1515.51 283.455 1513.94 287.896 1512.31 292.472C1510.92 296.391 1509.54 300.31 1508.1 304.348C1504.62 313.761 1504.62 313.761 1500.44 322.128C1476.99 322.128 1453.54 322.128 1429.38 322.128C1436.93 286.547 1436.93 286.547 1442.71 271.926C1450.62 242.668 1440.37 213.785 1429.63 186.459C1428.43 183.292 1427.23 180.125 1425.99 176.862C1422.2 166.873 1418.35 156.908 1414.5 146.945C1410.63 136.889 1406.78 126.828 1402.95 116.758C1400.58 110.524 1398.19 104.299 1395.77 98.0829C1391.03 85.6881 1387.59 76.1466 1387.59 62.752Z" fill="#757575"/>
<path d="M1069.95 0C1092.01 0 1114.08 0 1136.82 0C1136.82 85.5941 1136.82 171.188 1136.82 259.376C1114.75 259.376 1092.68 259.376 1069.95 259.376C1069.95 173.782 1069.95 88.1879 1069.95 0Z" fill="#757575"/>
<path d="M752.307 58.5688C771.616 58.5688 790.925 58.5688 810.819 58.5688C814.999 62.7523 814.999 62.7523 815.502 70.72C815.488 75.9456 815.488 75.9456 815.473 81.2767C815.473 85.213 815.473 89.1492 815.472 93.2047C815.451 97.484 815.429 101.763 815.407 106.172C815.401 110.531 815.395 114.889 815.389 119.379C815.366 133.362 815.313 147.344 815.26 161.326C815.239 170.779 815.22 180.233 815.203 189.687C815.157 212.917 815.085 236.146 814.999 259.376C794.31 259.376 773.622 259.376 752.307 259.376C752.307 193.11 752.307 126.843 752.307 58.5688Z" fill="#757575"/>
<path d="M752.307 0C772.995 0 793.684 0 814.999 0C814.999 16.5666 814.999 33.1332 814.999 50.2018C794.31 50.2018 773.622 50.2018 752.307 50.2018C752.307 33.6352 752.307 17.0686 752.307 0Z" fill="#757575"/>
</svg>
