<svg width="22" height="22" viewBox="0 0 22 22" fill="none" xmlns="http://www.w3.org/2000/svg">
<g clip-path="url(#clip0_2_23)">
<path fill-rule="evenodd" clip-rule="evenodd" d="M11 3.94005H11C11 3.94004 11 3.94004 11 3.94004C11 3.94004 11 3.94004 11 3.94005ZM11.5061 3.94005H17.8258C17.8252 3.93827 17.8246 3.9365 17.8239 3.93472C17.7015 3.59453 17.5094 3.14529 17.2311 2.70012C16.67 1.80292 15.814 1 14.52 1C13.2114 1 12.4738 1.71285 12.0383 2.46944C11.8177 2.85287 11.6805 3.24099 11.5987 3.53606C11.5581 3.68264 11.5318 3.80375 11.516 3.88644C11.5121 3.90673 11.5088 3.92467 11.5061 3.94005ZM18.8796 3.94005C18.8498 3.84279 18.8118 3.72652 18.7648 3.59598C18.626 3.21054 18.4056 2.69226 18.0789 2.16993C17.43 1.1321 16.306 0 14.52 0C12.7486 0 11.7262 1.00717 11.1717 1.9706C11.1089 2.07964 11.0518 2.18843 11 2.29558C10.9482 2.18843 10.8911 2.07964 10.8283 1.9706C10.2738 1.00717 9.25136 0 7.48 0C5.694 0 4.57003 1.1321 3.92106 2.16993C3.59444 2.69226 3.37395 3.21054 3.23519 3.59598C3.18819 3.72652 3.15022 3.84279 3.12042 3.94005H1C0.447715 3.94005 0 4.38776 0 4.94005V9.82013C0 10.3354 0.389767 10.7597 0.890572 10.8142C0.88361 10.8618 0.880005 10.9105 0.880005 10.9601V21.0002C0.880005 21.5525 1.32772 22.0002 1.88001 22.0002H20.12C20.6723 22.0002 21.12 21.5525 21.12 21.0002V10.9601C21.12 10.9105 21.1164 10.8618 21.1094 10.8142C21.6102 10.7597 22 10.3354 22 9.82013V4.94005C22 4.38776 21.5523 3.94005 21 3.94005H18.8796ZM11.5 9.82013H21V4.94005H11.5V9.82013ZM10.5 4.94005H1V9.82013H10.5V4.94005ZM4.17415 3.94005H10.4939C10.4912 3.92467 10.4879 3.90673 10.484 3.88644C10.4682 3.80375 10.4419 3.68264 10.4013 3.53606C10.3195 3.24099 10.1823 2.85287 9.96165 2.46944C9.52618 1.71285 8.78864 1 7.48 1C6.186 1 5.32997 1.80292 4.76894 2.70012C4.49056 3.14529 4.29855 3.59453 4.17606 3.93472C4.17542 3.9365 4.17479 3.93827 4.17415 3.94005ZM20.12 21.0002H11.5V10.9601H20.12V21.0002ZM10.5 21.0002V10.9601H1.88V21.0002H10.5Z" fill="#E4C892"/>
</g>
<defs>
<clipPath id="clip0_2_23">
<rect width="22" height="22" fill="white"/>
</clipPath>
</defs>
</svg>
