<?xml version="1.0" encoding="utf-8"?>
<!-- Generator: Adobe Illustrator 24.2.1, SVG Export Plug-In . SVG Version: 6.00 Build 0)  -->
<svg version="1.1" id="Слой_1" xmlns="http://www.w3.org/2000/svg" xmlns:xlink="http://www.w3.org/1999/xlink" x="0px" y="0px"
	 viewBox="0 0 24 23" style="enable-background:new 0 0 24 23;" xml:space="preserve">
<style type="text/css">
	.st0{fill:#E4C892;}
</style>
<g>
	<path class="st0" d="M4.847,23c-0.088,0-0.176-0.028-0.251-0.082c-0.133-0.097-0.199-0.262-0.17-0.424l1.328-7.785L0.13,9.196
		C0.012,9.082-0.029,8.909,0.021,8.753c0.05-0.156,0.185-0.27,0.346-0.293l7.771-1.135l3.476-7.084C11.688,0.093,11.837,0,12,0
		c0.163,0,0.313,0.093,0.383,0.241l3.476,7.084l7.772,1.135c0.162,0.023,0.296,0.137,0.348,0.293
		c0.05,0.156,0.009,0.329-0.109,0.443l-5.624,5.515l1.328,7.785c0.027,0.16-0.04,0.325-0.172,0.422
		c-0.132,0.097-0.308,0.11-0.453,0.031L12,19.274l-6.952,3.675C4.986,22.983,4.917,23,4.847,23L4.847,23z M1.353,9.188l5.162,5.061
		c0.1,0.099,0.147,0.242,0.121,0.384l-1.218,7.145l6.383-3.375c0.124-0.065,0.272-0.065,0.398,0l6.381,3.375l-1.219-7.145
		c-0.023-0.142,0.023-0.285,0.124-0.384l5.162-5.061l-7.134-1.042c-0.141-0.019-0.26-0.107-0.323-0.236L12,1.41l-3.191,6.5
		C8.747,8.038,8.625,8.126,8.487,8.148L1.353,9.188z M1.353,9.188"/>
</g>
</svg>
