<svg width="1118" height="301" viewBox="0 0 1118 301" fill="none" xmlns="http://www.w3.org/2000/svg">
<path d="M1118 44.7L1117.7 46.3C1107.4 39.8 1104.3 38.7 1108.3 42.9L1074.2 42C1071 57 1068.1 66.1 1065.5 69.5L1067.1 69.6C1064.2 76 1062.7 80.2 1062.5 82.2C1063.6 82.3 1064.1 82.9 1064 84C1062.7 83.9 1060.9 90.8 1058.5 104.6L1056.9 104.3C1057.4 101.3 1054.2 91.2 1047.3 74.1L1034.9 42.1L1025 42L1021.5 42.1L1018.2 41.5L1015.6 41.8C1014.5 41.8 1011.1 41.9 1005.4 42.1C999.7 42.3 996 42.4 994.2 42.4C993 48.7 994.3 54.2 998.2 58.9C1022.4 125.9 1034.2 162.5 1033.4 168.6V170.2L1031.5 173.2C1032.7 173.3 1033.5 176 1034 181.4L1028.9 181.1V182.6C1033.1 183.1 1035 184.9 1034.7 188.1C1033.6 188 1033 188.5 1032.8 189.6L1032.7 191.4C1034.4 230.8 1035.4 253.3 1035.7 258.9L1039.9 258L1078.3 257.7L1078.2 249L1076.6 176.6L1076.3 166.4C1083.3 141.7 1090.4 121.9 1097.5 107.2C1107 72.3 1113.2 55.1 1116.1 55.6L1115.8 58.6L1118 44.7ZM855.3 217.9L851 218.3L810.5 218.2L810.1 43.2H779.3L779 40.7L774.8 43.5C771.9 41.9 770.6 41.2 770.8 41.4L769.8 258L858.7 257.4V255.2C858.4 251.2 858.8 239.6 859.9 220.3L855.3 217.9ZM588.7 54.7C588.8 54.7 588.8 54.5 588.8 54C588.7 54 588.7 53.9 588.7 53.7C588.7 53.2 588.9 48.3 589.3 38.9V2.5C589.3 1.3 589.1 0.6 588.7 0.4H584.5C584 0.4 583.7 0.5 583.5 0.7L582.2 0.4H525.2C524.5 0.4 523.5 0.3 522.1 0C522.1 0.3 521.5 0.4 520.2 0.4H516.9C516.3 0.4 515.7 0.3 515.1 0C514.6 0.3 514.1 0.4 513.5 0.4H502.3C501.7 0.4 500.9 0.5 499.9 0.7C499.7 0.5 499.4 0.4 498.9 0.4C498.1 0.4 496.6 0.5 494.4 0.7C493.2 0.5 492.5 0.4 492.3 0.4C491.6 0.6 490.9 0.7 490.2 0.7L489 0.4L488.6 0.7L487.1 0.4L485.2 0.7L484.8 0.4C484.8 0.6 484.8 0.7 484.7 0.7H482.6L480.7 1C480.7 0.8 480.6 0.7 480.4 0.7C480.2 0.9 480 1 479.7 1H477.7L476.7 0.7C476.7 0.9 476.5 1 476.1 1H475.7L475.3 0.7V1C474.4 1 473.4 0.9 472.2 0.7C472.1 0.7 471.8 0.8 471.3 1C470.6 0.8 469.9 0.7 469.2 0.7H467.7L467.4 1C467.4 0.8 467.3 0.7 467.1 0.7H465.9L465.4 1C465.4 0.8 465.4 0.7 465.3 0.7H464.6L463.1 1C463.1 0.8 463.1 0.7 463 0.7L462.5 1C462.4 1 462 0.9 461.3 0.7C460.9 1.4 460.5 1.7 460 1.7H459.9V1H459.6V1.4L459.9 3.2L459.6 6.6L460.6 6.9V8.1C460.1 8.1 459.9 8.4 459.9 9.1L459.5 8.7V9.7C459.5 10.5 459.5 11.1 459.6 11.5L459.5 13.6V15.1L459.6 17.2C459.5 17.6 459.5 17.9 459.5 18.2C459.5 19.3 459.5 22 459.6 26.3L459.5 28.8C459.6 29.1 459.6 29.9 459.6 31.2V31.6L459.5 32.2H459.6L459.5 36.5V61.5L459.6 63.9C459.5 63.9 459.5 64.4 459.5 65.4V67C459.5 68.3 459.5 69.4 459.6 70.3C459.5 71.5 459.5 72.6 459.5 73.7V82.2L459.6 85.6C459.5 85.6 459.5 85.7 459.5 86H459.6C459.6 86.9 459.6 87.8 459.5 88.8C459.6 90.8 459.6 92.5 459.6 94V94.3L459.5 95C459.7 95 459.8 95.7 459.9 97.1C459.6 101.9 459.5 107.3 459.5 113.4L459.6 115.8C459.5 115.8 459.5 116 459.5 116.5C459.5 117.5 459.5 118.2 459.6 118.6L459.5 120.7V122.5L459.6 124.3C459.5 124.3 459.5 124.4 459.5 124.6C459.5 124.9 459.5 125.2 459.6 125.6C459.5 125.6 459.5 125.7 459.5 125.9V184.5C459.5 185.6 459.6 189.1 459.9 195.1L459.6 197.2C459.8 197.2 459.9 197.5 459.9 198.2V200.3L459.6 201H459.9L459.6 204.4V209.3C459.6 211.3 459.7 214.5 459.9 218.9C459.7 218.9 459.6 219.1 459.6 219.6C459.8 219.6 459.9 219.9 459.9 220.6V221.6L459.6 222.3H459.9L459.6 224.7V225C459.6 225.9 459.7 227 459.9 228.3L459.6 228.9L459.9 230.7C459.9 231.7 459.8 232.6 459.6 233.5C459.8 234.4 459.9 235.3 459.9 236.3V239.7L459.6 241.9C459.8 242.3 459.9 242.8 459.9 243.5V245.3L459.6 246H459.9C459.9 246.5 459.8 246.9 459.6 247.3C459.9 248.3 460 249 460 249.5L459.9 250.8C460 250.8 460 250.9 460 251.1C459.9 251.1 459.9 251.2 459.9 251.5V254.6L459.6 255.3H459.9C459.7 263.8 459.6 270.2 459.6 274.6C459.6 275 459.7 275.2 460 275.3C459.7 277.2 459.6 278.4 459.6 278.9V292.2L459.5 295.8L460.5 296.4C460.6 296 460.6 295.7 460.6 295.4H461.5C461.5 296 461.9 296.3 462.8 296.4C462.8 296.2 462.8 296.1 462.9 296.1H463.3L463.7 296.4C463.7 296.2 464.3 296 465.5 295.8L469.5 296.4C469.5 296.2 470.5 296 472.5 295.8C472.8 296 473 296.1 473.1 296.1C473.4 296.1 473.7 296 474 295.8L475.2 296.1H477.4C477.9 296.1 478.5 296 479.2 295.8C479.4 296 479.9 296.1 480.7 296.1H481.4L482.6 295.8C482.8 296 483.1 296.1 483.6 296.1H484.5C485.1 296.1 485.6 296 486.1 295.8C486.7 296 487.2 296.1 487.7 296.1H488.6L489.9 295.8C490.1 296 490.3 296.1 490.5 296.1C491.1 296.1 491.6 295.9 492.1 295.4C492.3 295.4 492.5 295.5 492.7 295.8C494 295.5 494.7 295.4 494.9 295.4C495.4 295.4 496.3 295.6 497.6 296.1C497.6 295.9 497.6 295.8 497.7 295.8V296.1C498.4 296.1 498.8 296 499 295.8C500 296 500.7 296.1 501.2 296.1H503C503.8 296.1 504.9 296 506.3 295.8C506.6 296 506.9 296.1 507.3 296.1L508.5 295.8L509.5 296.1L511 295.8L512 296.1L513 295.8L514 296.1C514.2 296.1 514.4 295.9 514.7 295.4H515.1V296.1C515.4 296.1 515.7 296 516 295.8C517.4 296 518.5 296.1 519.4 296.1L520.9 295.8C520.9 296 520.9 296.1 521 296.1V297L523.1 297.3H525.6C526.9 297.3 528.7 297.4 531.1 297.6C531.3 297.4 531.6 297.3 532 297.3C532 297.5 532 297.6 532.1 297.6C532.6 297.4 532.9 297.3 533 297.3L534 297.6L534.4 297.3C535.1 297.5 535.7 297.6 536.2 297.6H543.2L544.7 297.3C544.7 297.5 545 297.6 545.6 297.6H546.9C547.4 297.6 547.8 297.5 548.1 297.3L549.3 297.6H556.8C558 297.6 559.7 297.7 562 298C562 297.7 562 297.6 562.1 297.6C562.9 297.9 563.5 298 564 298H567.1C568 298 569.1 298.1 570.5 298.3C570.8 298.1 571 298 571.1 298L580.1 298.6C580.3 298.4 580.5 298.3 580.8 298.3L581.2 298.6L581.6 298.3C582.4 298.5 583 298.6 583.5 298.6H588C588 298.2 588.1 298 588.3 298C589.2 297.2 589.6 295.7 589.6 293.4C589.6 293.3 589 223.1 587.7 82.8C588.9 65.2 588.7 55.8 588.7 54.7ZM567.3 255.2V257.4L478.4 258L479.3 41.4C479.1 41.2 480.4 41.9 483.3 43.5L487.5 40.7L487.8 43.2H518.7L519.1 218.2L559.6 218.3L563.9 217.9L568.4 220.3C567.4 239.6 567 251.2 567.3 255.2ZM442.3 42.3V29.1C442.3 28.2 442.2 27 442 25.4C442.2 25 442.3 24.6 442.3 24.1C442.1 16.1 442 11.3 442 9.6C441.9 8.3 441.9 7.6 441.9 7.5C442 7.5 442 7 442 6V5.6L441.7 4.6C440.9 4.6 438.9 4.7 438.4 5C437.7 4.7 437.1 4.6 436.5 4.6H434.7L433.7 4.3C433.7 4.5 433.7 4.6 433.6 4.6L432.4 4.3H420.7L420.1 4C420.1 4.2 420.1 4.3 420 4.3C418.7 4.3 417.5 4.2 416.3 4C416 4 415.7 4.1 415.4 4.3C414.3 4.1 413.4 4 412.6 4H407.1L406.7 3.6C406.7 3.9 406.7 4 406.6 4H406.2L405.8 3.6C405.8 3.9 405.8 4 405.7 4H405.6L404.7 3.5V4L402.8 3.6H398L397 3.3C397 3.5 396.9 3.6 396.7 3.6L395.5 3.3L395.2 3.6L394 3.3H372.7L371.7 3C371.7 3.2 371.6 3.3 371.4 3.3C371.1 3.3 370.9 3.2 370.7 3L369.5 3.3H368.5L368.2 3C368.2 3.2 368.1 3.3 367.9 3.3H367.6L367.2 3C367.2 3.2 367.2 3.3 367.1 3.3H366.5L366.1 3C366.1 3.2 366.1 3.3 366 3.3H364.5L363.5 3C363.5 3.2 363.3 3.3 362.9 3.3H362.8L362.4 3C362.4 3.2 362.4 3.3 362.3 3.3H361.3L361 3C361 3.2 360.9 3.3 360.7 3.3H359.4L358.2 3C358 3.2 357.7 3.3 357.2 3.3H356.9L356.5 3C356.5 3.2 356.4 3.3 356.2 3.3C355.8 3.3 355.2 3.2 354.4 3C354.2 3.2 354 3.3 353.8 3.3L353.5 3C353.2 3.2 352.9 3.3 352.6 3.3L352.3 3C352.3 3.2 352.2 3.3 352 3.3C351.3 3.3 350.9 3.2 350.7 3C350 3.2 349.4 3.3 348.9 3.3H341.3L339.2 3C339.2 3.2 339.1 3.3 338.9 3.3L338 3C337.9 3 337.7 3.1 337.4 3.3C337.3 3.3 337.1 3.2 336.8 3C336.3 3 335.8 3.1 335.3 3.3C332.8 3.1 330.6 3 328.6 3H327.9L326 3.3C326 3.1 325.9 3 325.7 3C325.6 3 325.4 3.1 325.1 3.3C324.2 3.1 323.5 3 322.9 3H316.8C316.5 3 316.4 3.3 316.4 4C316.4 4.4 316.2 4.6 315.7 4.6C315.7 5.1 315.8 5.3 316.1 5.3L315.8 5.9L315.5 5.6L314.7 5H314.6C314.1 6.1 313.7 6.6 313.3 6.6V7.3C313.6 8.9 313.7 9.8 313.7 10H313.3V10.7C313.3 11.3 313.4 12 313.7 12.8C313.7 13 313.7 13.3 313.6 13.8C313.6 14 313.6 14.1 313.7 14.1C313.9 17.8 314.2 19.6 314.7 19.6C314.7 20.1 314.7 20.5 314.6 20.9L314.7 23V25.4L315.1 26.4V26.8C315.1 27.3 315 27.7 314.8 28.1C315 28.5 315.1 28.8 315.1 29.1C315.1 29.7 315 30.6 314.8 31.8C315 32.3 315.1 32.6 315.1 32.8C315.1 33.1 315 33.4 314.8 33.8L315.1 35.9V36.9L314.5 38.7L315.1 39.3C314.7 41.1 314.4 43.6 314.2 46.9C314.4 47.4 314.5 47.7 314.5 47.9C314.5 48.4 314.3 48.6 313.8 48.6L314.1 49.2V50.7L313.8 52.3C314 52.3 314.1 52.4 314.1 52.6C313.9 54.2 313.7 55.4 313.5 56.2L313.6 56.8C313.5 58 313.5 58.7 313.5 58.9C313.5 59.3 313.6 59.7 313.8 60.2V60.6C313.6 60.9 313.4 62.8 313.2 66.4C313.4 67.7 313.5 68.6 313.5 69.1L312.9 74C313 74 313 74.1 313 74.3V77.4L312.9 79.2C313.1 79.2 313.2 80.1 313.2 81.9L312.9 86.1C313 86.5 313 86.8 313 87.1C313 87.3 313 87.6 312.9 88.1L313 88.7C313 89.3 313 90.2 312.9 91.5L313 92.8L312.9 94.1C312.9 94.4 312.9 94.7 313 95.1L312.9 97.2V97.9C312.9 98.3 313 98.5 313.2 98.5C313.2 99 313.2 100.3 313.1 102.4C313.2 104.4 313.2 105.5 313.2 105.8C313.1 105.8 313.1 105.9 313.1 106.1C313.2 106.1 313.2 106.2 313.2 106.5V107.1C313.2 107.7 313.2 108.2 313.1 108.6C313.2 109 313.2 109.4 313.2 109.9C313.2 114.8 313.3 121.5 313.5 129.9L313.6 131.7C313.5 131.7 313.5 131.8 313.5 132C313.6 132 313.6 132.1 313.6 132.3V140.7C313.6 143 313.6 145.7 313.7 148.9L313.4 152C313.5 152.4 313.5 152.8 313.5 153.3V155.1L313.4 155.8C313.5 155.8 313.5 155.9 313.5 156.1L313.4 157.7L313.7 158.1C313.7 158.7 313.6 159.7 313.4 161.2C313.4 161.5 313.5 161.9 313.7 162.5V163.5H313.6V165.6C313.6 166.6 313.4 169.3 312.9 173.8L313.2 176.2V176.6H312.9C312.9 178.9 312.7 180.6 312.3 181.7L312.4 184.2L312.3 184.8L312.4 185.5C312.4 186.2 312.3 186.5 312 186.5C312.3 189.9 312.4 192.3 312.4 193.7C312.4 194.2 312.3 194.4 312 194.4L312.3 195.1V197.5C311.9 197.5 311.6 197.9 311.4 198.8C311.8 200.6 312 201.7 312 202.2V202.6H311.7V203.2L311.8 206.6C311.5 206.6 311.3 207.1 311.2 208.1C311.6 208.1 311.8 208.6 311.8 209.7L311.7 212.1H312.4V212.8C312.2 213.9 311.8 214.4 311.1 214.4V215.9C311.5 215.9 311.7 216.2 311.7 216.9H311.4L310.2 218.5L310.6 219.5V220.5H310.2C310.2 221.3 310.2 223.2 310.1 226.3L310.2 228.8C310.1 229.2 310.1 229.5 310.1 229.8C310.9 230.8 311.3 231.7 311.3 232.5V233.5H310.9V233.8C311.6 233.8 311.9 234.5 311.9 235.9H311.5V236.6H311.9V237.2C311.6 239.5 311.5 240.8 311.5 241.1H312.1L311.4 244.8C311.7 244.8 311.8 245 311.8 245.5V246.5H311.4C311.4 247 311.4 247.4 311.5 247.8C311.4 249.9 311.3 251.2 311.2 251.7C311.3 251.7 311.3 251.8 311.3 252V253H310.9V253.3C311.2 253.3 311.5 253.6 311.9 254.3C311.9 254.6 311.8 255.9 311.5 258.2C311.9 258.2 312.1 258.9 312.1 260.3L312 262.7H312.7V264H312L312.1 264.7V265H311.7C311.9 266.3 312 267.4 312 268.4C312 268.7 312 269 311.9 269.4C312.1 269.4 312.2 270.4 312.3 272.5C312.1 272.5 312 272.6 312 272.8C313 284.2 313.5 290.4 313.5 291.5V291.8L313.8 291.5C314.4 292.4 314.7 292.8 314.8 292.8C315.8 294.6 316.9 295.5 318.1 295.5C318.1 295.3 318.1 295.2 318.2 295.2H322.2L322.6 295.5C322.6 295.3 322.6 295.2 322.7 295.2H324.5C326.5 295.2 328.3 295.3 329.9 295.5C330.8 295.3 332.2 295.2 334.1 295.2C334.3 295.2 334.5 295.3 334.7 295.5C334.7 295.3 334.8 295.2 335 295.2H341.1L343.5 295.5C343.5 295.3 344 295.2 345 295.2L345.3 295.5C345.3 295.3 345.4 295.2 345.6 295.2H345.7C346 295.2 346.2 295.3 346.4 295.5C346.7 295.3 347 295.2 347.3 295.2H347.9L348.3 295.5V295.2L350.7 295.5C350.8 295.5 353.8 294 356.9 293.8L357.3 294.1V297L358.6 297.3H360.2L361.5 297C361.5 297.2 361.5 297.3 361.6 297.3C361.9 297.1 362.1 297 362.2 297C362.5 297 362.8 297.1 363.1 297.3C363.3 297.1 363.5 297 363.8 297H366L366.4 297.3C366.4 297.1 366.4 297 366.5 297L368.7 298.4C369.4 298.4 370.5 298.5 372.1 298.7C372.1 298.5 372.3 298.4 372.7 298.4C372.7 298.6 372.7 298.7 372.8 298.7V298.4C374 298.4 374.8 298.5 375.2 298.7C377.3 298.5 379.2 298.4 380.9 298.4C383.9 297.5 386.5 297 388.7 297C389.2 297 390.6 297.5 392.9 298.4C393.8 298.4 395.1 298.3 396.9 298.1C396.9 298.3 397.1 298.4 397.5 298.4L397.9 298.1C398 298.1 398.2 298.2 398.5 298.4C400 298.2 401.2 298.1 402.2 298.1H402.6L403 298.4C403 298.2 403 298.1 403.1 298.1H408.2L409.4 297.7C409.6 298 409.9 296.8 410.3 296.8H412.5C413.3 296.8 414.4 296.7 415.8 296.4C416 296.7 416.2 296.8 416.4 296.8C416.5 296.6 416.6 296.5 416.8 296.5C417.6 297.1 418.3 297.8 418.3 297.8H429.4C430.3 297.8 431.7 297.7 433.7 297.5C433.7 297.7 433.8 297.8 434 297.8C434.2 297.6 434.4 297.5 434.7 297.5H440.6C440.8 297.5 440.9 297.3 440.9 296.8V293.8L441.2 291.3C441 291.3 440.9 291.1 440.9 290.7L441.2 290H440.9C440.9 284.6 441 281.5 441.2 280.7C441 273.3 440.9 287.4 440.9 281.8V257L441.2 256.3H440.9C440.9 255.4 441 254.5 441.2 253.6C441.2 253.3 441.1 253 440.9 252.6C440.9 252.1 441 251.7 441.2 251.3C441.3 240.6 441.3 232.4 441.3 226.6V73.1L441.2 69.1C441.3 69.1 441.3 68.3 441.3 66.6V65C441.3 62.3 441.3 59.5 441.2 56.6C441.3 55.4 441.3 54.5 441.3 53.9L441.2 50.8C441.2 50 441.2 49.4 441.3 49C442.3 46.4 442.3 44.2 442.3 42.3ZM416.2 295.2C416.2 295.1 416.3 295.2 416.5 295.3L416.2 295.2ZM423.4 81.2H381.4L381 128.3H421.7L422.1 164.8L420.8 168.7C419.7 168.7 419.2 168.1 419.2 166.8H383.1C381.5 166.8 380.5 168.1 380.1 170.7L379.8 195.4V218.1L421.1 217.8V257.1H339.6L340.4 45V43L423.7 43.3L423.4 81.2ZM297 42.3V29.1C297 28.2 296.9 27 296.7 25.4C296.9 25 297 24.6 297 24.1C296.8 16.1 296.7 11.3 296.7 9.6C296.6 8.3 296.6 7.6 296.6 7.5C296.7 7.5 296.7 7 296.7 6V5.6L296.4 4.6C295.6 4.6 295 4.7 294.5 5C293.8 4.7 293.2 4.6 292.6 4.6H290.7L289.7 4.3C289.7 4.5 289.7 4.6 289.6 4.6L288.4 4.3H275.4L274.8 4C274.8 4.2 274.8 4.3 274.7 4.3C273.4 4.3 272.2 4.2 271 4C270.7 4 270.4 4.1 270.1 4.3C269 4.1 268.1 4 267.3 4H261.8L261.4 3.6C261.4 3.9 261.4 4 261.3 4H260.9L260.5 3.6C260.5 3.9 260.5 4 260.4 4H260.3L259.9 3.6V4L258 3.6L251.8 5L250.8 4.7C250.8 4.9 250.7 5 250.5 5L249.3 4.7L249 5L247.8 4.7L227.9 3.3L226.9 3C226.9 3.2 226.8 3.3 226.6 3.3C226.3 3.3 226.1 3.2 225.9 3L224.7 3.3H223.7L223.4 3C223.4 3.2 223.3 3.3 223.1 3.3H222.8L221.7 2.9C221.7 3.1 221.7 3.2 221.6 3.2H221L220.6 2.9C220.6 3.1 220.6 3.2 220.5 3.2H219L218 2.9C218 3.1 217.8 3.2 217.4 3.2H217.3L216.9 2.9C216.9 3.1 216.9 3.2 216.8 3.2H215.8L215.5 2.9C215.5 3.1 215.4 3.2 215.2 3.2H213.9L212.7 2.9C212.5 3.1 212.2 3.2 211.7 3.2H211.4L211 2.9C211 3.1 210.9 3.2 210.7 3.2C210.3 3.2 209.7 3.1 208.9 2.9C208.7 3.1 208.5 3.2 208.3 3.2L208 2.9C207.7 3.1 207.4 3.2 207.1 3.2L206.8 2.9C206.8 3.1 206.7 3.2 206.5 3.2C205.8 3.2 205.4 3.1 205.2 2.9C204.5 3.1 203.9 3.2 203.4 3.2H195.8L193.7 2.9C193.7 3.1 193.6 3.2 193.4 3.2L192.5 2.9C192.4 2.9 192.2 3 191.9 3.2C191.8 3.2 191.6 3.1 191.3 2.9C190.8 2.9 190.3 3 189.8 3.2C187.3 3 185.1 2.9 183.1 2.9H182.4L180.5 3.2C180.5 3 180.4 2.9 180.2 2.9C180.1 2.9 179.9 3 179.6 3.2C178.7 3 178 2.9 177.4 2.9H171.3C171 2.9 170.9 3.2 170.9 3.9C170.9 4.3 170.7 4.5 170.2 4.5C170.2 5 170.3 5.2 170.6 5.2L170.3 5.8L170 5.5L170.1 4.9H170C169.5 6 169.1 6.5 168.7 6.5V7.2C169 8.8 169.1 9.7 169.1 9.9H168.7V10.6C168.7 11.2 168.8 11.9 169.1 12.7C169.1 12.9 169.1 13.2 169 13.7C169 13.9 169 14 169.1 14C169.3 17.7 169.6 19.5 170.1 19.5C170.1 20 170.1 20.4 170 20.8L170.1 22.9V25.3L170.5 26.3V26.7C170.5 27.2 170.4 27.6 170.2 28C170.4 28.4 170.5 28.7 170.5 29C170.5 29.6 170.4 30.5 170.2 31.7C170.4 32.2 170.5 32.5 170.5 32.7C170.5 33 170.4 33.3 170.2 33.7L170.5 35.8V36.8L169.9 38.6L170.5 39.2C170.1 41 169.8 43.5 169.6 46.8C169.8 47.3 169.9 47.6 169.9 47.8C169.9 48.3 169.7 48.5 169.2 48.5L169.5 49.1V50.6L169.2 52.2C169.4 52.2 169.5 52.3 169.5 52.5C169.3 54.1 169.1 55.3 168.9 56.1L169 56.7C168.9 57.9 168.9 58.6 168.9 58.8C168.9 59.2 169 59.6 169.2 60.1V60.5C169 60.8 168.8 62.7 168.6 66.3C168.8 67.6 168.9 68.5 168.9 69L168.3 73.9C168.4 73.9 168.4 74 168.4 74.2V77.3L168.3 79.1C168.5 79.1 168.6 80 168.6 81.8L168.3 86C168.4 86.4 168.4 86.7 168.4 87C168.4 87.2 168.4 87.5 168.3 88L168.4 88.6C168.4 89.2 168.4 90.1 168.3 91.4L168.4 92.7L168.3 94C168.3 94.3 168.3 94.6 168.4 95L168.3 97.1V97.8C168.3 98.2 168.4 98.4 168.6 98.4C168.6 98.9 168.6 100.2 168.5 102.3C168.6 104.3 168.6 105.4 168.6 105.7C168.5 105.7 168.5 105.8 168.5 106C168.6 106 168.6 106.1 168.6 106.4V107C168.6 107.6 168.6 108.1 168.5 108.5C168.6 108.9 168.6 109.3 168.6 109.8C168.6 114.7 168.7 121.4 168.9 129.8L169 131.6C168.9 131.6 168.9 131.7 168.9 131.9C169 131.9 169 132 169 132.2V140.6C169 142.9 169 145.6 169.1 148.8L168.8 151.9C168.9 152.3 168.9 152.7 168.9 153.2V155L168.8 155.7C168.9 155.7 168.9 155.8 168.9 156L168.8 157.6L169.1 158C169.1 158.6 169 159.6 168.8 161.1C168.8 161.4 168.9 161.8 169.1 162.4V163.4H169V165.5C169 166.5 168.8 169.2 168.3 173.7L168.6 176.1V176.5H168.3C168.3 178.8 168.1 180.5 167.7 181.6L167.8 184.1L167.7 184.7L167.8 185.4C167.8 186.1 167.7 186.4 167.4 186.4C167.7 189.8 167.8 192.2 167.8 193.6C167.8 194.1 167.7 194.3 167.4 194.3L167.7 195V197.4C167.3 197.4 167 197.8 166.8 198.7C167.2 200.5 167.4 201.6 167.4 202.1V202.5H167.1V203.1L167.2 206.5C166.9 206.5 166.7 207 166.6 208C167 208 167.2 208.5 167.2 209.6L167.1 212H167.8V212.7C167.6 213.8 167.2 214.3 166.5 214.3V215.8C166.9 215.8 167.1 216.1 167.1 216.8H166.8L165.6 218.4L166 219.4V220.4H165.6C165.6 221.2 165.6 223.1 165.5 226.2L165.6 228.7C165.5 229.1 165.5 229.4 165.5 229.7C166.3 230.7 166.7 231.6 166.7 232.4V233.4H166.3V233.7C167 233.7 167.3 234.4 167.3 235.8H166.9V236.5H167.3V237.1C167 239.4 166.9 240.7 166.9 241H167.5L166.8 244.7C167.1 244.7 167.2 244.9 167.2 245.4V246.4H166.8C166.8 246.9 166.8 247.3 166.9 247.7C166.8 249.8 166.7 251.1 166.6 251.6C166.7 251.6 166.7 251.7 166.7 251.9V252.9H166.3V253.2C166.6 253.2 166.9 253.5 167.3 254.2C167.3 254.5 167.2 255.8 166.9 258.1C167.3 258.1 167.5 258.8 167.5 260.2L168.4 261.8L169 263.1V266.8C169.5 271.5 169.7 274 169.7 274.4C169.6 274.9 169.6 275.2 169.6 275.4C169.6 276.4 169.6 277.3 169.7 278.2C169.2 285.4 169 289.8 169 291.4V291.7L169.3 291.4C169.9 292.3 170.2 292.7 170.3 292.7C171.3 294.5 172.4 295.4 173.6 295.4C173.6 295.2 173.6 295.1 173.7 295.1H177.7L178.1 295.4C178.1 295.2 178.1 295.1 178.2 295.1H180C182 295.1 183.8 295.2 185.4 295.4C186.3 295.2 187.7 295.1 189.6 295.1C189.8 295.1 190 295.2 190.2 295.4C190.2 295.2 190.3 295.1 190.5 295.1H196.6L199 295.4C199 295.2 199.5 295.1 200.5 295.1L200.8 295.4C200.8 295.2 200.9 295.1 201.1 295.1H201.2C201.5 295.1 201.7 295.2 201.9 295.4C202.2 295.2 202.5 295.1 202.8 295.1H203.4L203.8 295.4V295.1L206.2 295.4C206.3 295.4 207.9 295.3 211 295.1L211.4 295.4V295.1L212.7 295.4H214.3L215.6 295.1C215.6 295.3 215.6 295.4 215.7 295.4C216 295.2 216.2 295.1 216.3 295.1C216.6 295.1 216.9 295.2 217.2 295.4C217.4 295.2 217.6 295.1 217.9 295.1H220.1L220.5 295.4C220.5 295.2 220.5 295.1 220.6 295.1H224.2C224.9 295.1 226 295.2 227.6 295.4C227.6 295.2 227.8 295.1 228.2 295.1C228.2 295.3 228.2 295.4 228.3 295.4V295.1C229.5 295.1 230.3 295.2 230.7 295.4C232.8 295.2 234.7 295.1 236.4 295.1H248.4C249.3 295.1 250.6 295 252.4 294.8C252.4 295 252.6 295.1 253 295.1L253.4 294.8C253.5 294.8 253.7 294.9 254 295.1C255.5 294.9 256.7 294.8 257.7 294.8H258.1L258.5 295.1C258.5 294.9 258.5 294.8 258.6 294.8H263.7L264.9 294.4C265.1 294.7 265.4 294.8 265.8 294.8H268C268.8 294.8 269.9 294.7 271.3 294.4C271.5 294.7 271.7 294.8 271.9 294.8C272.1 294.5 272.4 294.4 272.8 294.4H273.2L273.6 294.8C273.6 294.5 273.6 294.4 273.7 294.4H286.1C287 294.4 288.4 294.3 290.4 294.1C290.4 294.3 290.5 294.4 290.7 294.4C290.9 294.2 291.1 294.1 291.4 294.1H295.9C296.1 294.1 296.2 293.9 296.2 293.4V290.4L296.5 287.9C296.3 287.9 296.2 287.7 296.2 287.3L296.5 286.6H296.7C296.7 281.2 296.8 278.1 297 277.3C296.8 269.9 296.7 263.4 296.7 257.9V253.9L297 253.2H296.7C296.7 252.3 296.8 251.4 297 250.5C297 250.2 296.9 249.9 296.7 249.5C296.7 249 296.8 248.6 297 248.2C297.1 237.5 297.1 229.3 297.1 223.5V73.1L297 69.1C297.1 69.1 297.1 68.3 297.1 66.6V65C297.1 62.3 297.1 59.5 297 56.6C297.1 55.4 297.1 54.5 297.1 53.9L297 50.8C297 50 297 49.4 297.1 49C297 46.4 297 44.2 297 42.3ZM278.1 81.2H236.1L235.7 128.3H276.4L276.8 164.8C274.8 167 273.8 167.6 273.8 166.7H237.7C236.1 166.7 235.1 168 234.7 170.6L234.4 195.3V218L275.7 217.7V257H194.2L195.1 45V43H202.5L205.7 44.5L210.1 43.1L223 43.3C223.9 43.1 226.5 43.1 230.6 43.3H233.2L237 43.1L237.9 43.3H278.6L278.1 81.2ZM912.5 42.9L879.6 257.4L918.9 256.4L922.9 218.8L961.3 219.7L972.1 257.5L1011.1 257.6L965.5 44.1L912.5 42.9ZM951.4 184.6C939.2 183.7 931.8 183.5 929 184C928.7 182.3 931.6 158.8 937.8 113.4L939.6 113C943.7 129.2 948 152 952.5 181.7C951.5 181.9 951.1 182.9 951.4 184.6ZM746.5 84.6C742.5 57.8 721 43.1 682 40.6C660.3 41.2 641.1 41.7 624.6 42.2C625.9 121.3 626.1 166.1 625.2 176.5L626.8 175.9L624.9 200.7L626.5 200.1C626.1 204.7 625.9 223.8 625.9 257.4L673.5 258V188.6C676.3 188 685.6 187.1 701.5 185.9C727.5 181.5 743.2 164.7 748.5 135.3C750.7 123.7 751 113.5 749.5 104.5L746.5 84.6ZM712.4 118.2L676.7 141.9C676.1 142.2 675.4 142.4 674.8 142.4C672.7 142.4 671 140.7 671 138.6V91.1C671 89 672.7 87.3 674.8 87.3C675.5 87.3 676.1 87.5 676.7 87.8L712.5 111.5C713.7 112.2 714.4 113.4 714.4 114.8C714.4 116.3 713.6 117.5 712.4 118.2ZM130.4 193.6C130.4 193.7 130.4 193.7 130.4 193.6ZM125.2 222.5C124.8 221.9 125.1 220.1 125 219.8C124.9 219.5 125 218.7 125 218.5C125 218.2 125.2 218.1 125.1 217.9C125 217.6 124.9 217.3 125 217C125.1 216.8 124.9 216.6 124.8 216.5C124.7 216.3 124.7 216.1 124.8 215.8C125 215.5 125.2 215.3 125.3 214.9C125.4 214.7 125.4 214.6 125.2 214.5C124.8 214.2 124.8 213.8 124.9 213.3C125 212.9 125.1 211.8 124.9 211.5C124.8 211.5 124.8 211.7 124.7 211.7L124.5 211.6L124.4 211.7C124.1 212.1 124 212.5 123.6 212.9C123.2 213.2 123.1 213.4 122.8 213.8C122.7 214 122.6 214.4 122.6 214.6C122.7 215.2 122.5 215.8 122.3 216.4C122 217.4 121.9 218.5 121.6 219.5C121.4 220.2 121.2 220.8 121.2 221.5L125.3 233.5C125.2 232.9 125.2 232.2 125.1 231.6L125.2 231.3C125.2 230.9 125.1 230.6 125.1 230C125.1 229.1 125.2 227.2 125.1 226.4V225.7C125.1 225.3 125 225.1 125 224.8C125 224.4 125.1 224 125.2 223.8C125.3 223.4 125.2 223.3 125.2 223.1C125.2 222.9 125.2 222.8 125.3 222.6L125.2 222.5ZM152.2 84.8C152.2 85.8 152.4 87.1 152.9 88.7C152.8 90.3 152.8 91.6 152.8 92.6C152 119.3 151.5 138.5 151.3 150.3C151.2 160.6 151.9 171.4 151.8 179.8C151.8 181.3 151.2 181.3 151.2 182.8C151.2 184.2 151.8 185.6 151.8 186.9C151.6 197.1 151.4 205.6 151.2 212.2C151.1 213.7 150.1 213.1 150.1 214.5C149.9 221.4 150.9 227.5 150.8 230.7C150.8 231.9 150.3 234 149.3 236C148.7 237.3 147.5 238.8 147.4 238.8C147.5 238.8 147.7 239.5 148.1 240.9C148.1 241.6 147.9 241.9 147.5 241.9L147.8 243.7C147.8 244 146.6 244.9 147.5 244.9H148.1V246.5L147.8 248.3C148 248.3 148.1 248.6 148.2 249.3L147.8 251.8L148.5 253L150.4 254.6L151.4 256.2L152.3 258.3L150.8 262.1V266.7C150.9 268.4 151 269.7 151 270.5C151.2 274.6 151.6 280.8 152.1 289.1C152.4 289.7 150.9 298.4 151.1 299.7H122.9V299.1C122.8 299.1 122.8 299.2 122.8 299.4L122.2 299.1H121.3L120 299.4C120 299.2 119.2 298.9 117.6 298.4C117.4 298.4 117.3 298.8 117.3 299.7H117L116.6 299.4C116.6 299.6 116.5 299.7 116.3 299.7H115.7C115 299.7 114.1 299.8 113 300.1C112.5 300.1 111.7 299.4 110.5 298H109.3C108.7 298 108 297.9 107.1 297.6C106.1 298.1 105.5 298.3 105.2 298.3V298C103.1 297.7 102.1 297.3 102.1 296.8C102 296.8 102 296.9 102 297.2C101.1 297.2 100.7 296.6 100.7 295.4H99.7V296.7H97.5L97.8 297.4C96.9 297.4 96.1 298.1 95.3 299.5H93.7L92.2 299.2C92 299.4 91.6 299.5 91 299.5H85.3V300.2C84.9 300 84.1 299.8 82.8 299.5C81.9 299.8 81.1 299.9 80.4 299.9H78.6L76.8 299.5L76.7 300.2L74.9 299.9C74.7 299.9 74.5 300 74.2 300.2C74.2 300 74.1 299.9 73.9 299.9H73.6L73.2 300.2V299.9L70.2 300.2L69 299.9C68.3 300.1 67.6 300.2 66.9 300.2C66.1 300.2 65.3 300.1 64.5 299.9L63 300.2L61.2 299.9C60.9 300.1 60.7 300.2 60.5 300.2C60.1 300.2 59.8 300.1 59.5 299.9L58 300.2H40.2L37.7 299.9C37.7 300.1 37.6 300.2 37.4 300.2L35.9 299.9H35.6C35.3 299.9 35 300 34.7 300.2C34.4 300 34.1 299.9 33.7 299.9H31.9C31.3 299.9 30.7 299.8 30 299.5C29.4 299.8 28.8 299.9 28.1 299.9H20.3L19.9 300.2C19.9 300 19.8 299.9 19.6 299.9H18.1C17.2 299.9 15.8 299.8 13.9 299.5C13.9 299.8 13.8 299.9 13.6 299.9C13.6 299.6 13.5 299.5 13.3 299.5H10.3L8.8 299.9C8.8 299.6 7.7 299.5 5.4 299.5C4 299.5 3.3 299.1 3.3 298.2L2.9 298.5V297.5H1.9L1.2 298.2C1.2 297.9 0.9 297.2 0.2 296.1H0.9C0.7 294.7 0.4 293.6 0 292.8C0 291.8 -9.68575e-08 290.5 0.0999999 288.9L0 288.2C0.3 284.4 0.6 282.5 0.9 282.5C0.9 282.4 0.8 282.1 0.5 281.5V274.1C0.5 273.6 0.6 273.4 0.9 273.4C0.6 270.5 0.5 269 0.5 268.8L0.8 266.7C0.6 266.2 0.5 265.9 0.5 265.7C0.5 264.5 0.6 263.3 0.8 262.1L0.5 260.3C0.5 260.1 0.6 259.4 0.8 258.2C0.4 257.6 0.2 256.4 0.0999999 254.6C0.2 253.3 0.2 252.1 0.2 251V250.3L0.0999999 249.7H1.7V2.4C2.4 2.4 2.7 2 2.7 1.2L5.7 0.9C6.2 0.9 6.8 1.1 7.6 1.6C8 1.6 8.7 1.4 9.7 0.9L10.1 1.2C11 1 11.5 0.9 11.6 0.9C12.2 0.9 12.6 1 12.9 1.2L14.4 0.9H20.4L21.9 1.2C22.1 1 22.5 0.9 23.1 0.9H27.1L28.7 1.2C28.7 1 28.8 0.9 29 0.9L29.4 1.2L30.9 0.9H38.7L40.5 0.6C40.5 0.8 41.2 1 42.7 1.2C43 1 43.2 0.9 43.4 0.9L44.6 1.2C45 1 45.2 0.9 45.3 0.9L46.8 1.2L47.4 0.9C48.4 1.4 49.4 1.6 50.4 1.6L51.6 1.2C51.6 1.5 51.7 1.6 51.9 1.6C52 1.6 52.2 1.5 52.6 1.2C53.4 1.5 53.9 1.6 54.1 1.6C55.5 1.3 56.3 1.2 56.5 1.2L57.5 2H58.5V1.2L59.7 1.6H60.3L60.7 1.2C60.7 1.6 61.4 1.8 62.8 1.9L63.7 1.6L65.6 2C65.9 2 66.3 1.8 66.8 1.3C66.8 1.6 66.9 1.7 67.1 1.7H67.8C68.1 1.7 68.2 1.5 68.2 1C69.3 1.5 70 1.7 70.3 1.7C70.3 1.2 70.4 1 70.7 1C70.7 1.7 71.1 2 71.9 2C72.1 2 72.2 1.8 72.2 1.3C74.4 1 75.7 0.9 76.1 0.9C76.6 0.9 76.8 1.2 76.8 1.9L78.3 1.6L78.8 2C79.7 1.8 80.4 1.7 81 1.7H83.5L85.3 2L85.4 1.3L86.7 1.7H89.2L91 2C91 1.8 91.1 1.7 91.3 1.7L92.8 2L95 1.7L96.2 2C96.5 1.8 96.9 1.7 97.5 1.7H97.9C99.1 1.7 100 1.9 100.6 2.4C100.6 2.1 100.8 1.9 101.3 1.7V2.7H102C102.8 2 103.4 1.7 103.8 1.7C107.7 2.2 109.8 2.4 110.1 2.4C110.2 2.4 110.2 2.6 110.2 3H111.2V2.4H114.8C115.7 2.4 116.8 2.3 118.2 2C118.5 2.3 118.8 2.4 119.2 2.4L120.1 2C120.8 2.3 121.5 2.4 122.2 2.4H122.6V3C123.2 2.6 123.8 2.4 124.5 2.4H125.1L126 3.4H127.5V2.7H127.8C128.1 2.7 128.2 3 128.2 3.7H128.8C128.8 3 129 2.7 129.5 2.7L129.8 2H130.5C131.2 2.4 131.5 2.9 131.5 3.5H131.9C132.3 3.5 132.6 3.4 132.9 3.1L133.3 3.5L136 2.5V3.5H135.6V3.8H136.3C136.3 3.1 136.7 2.8 137.5 2.8H137.8L139.3 3.1L141.8 2.8H142.5L142.9 2.5V3H143.6V2H144.3V2.7C144.3 3.2 144.1 3.4 143.6 3.4V4C144.3 4 144.6 4.2 144.6 4.7H145L145.6 4.4L145.5 3C145.7 3 145.8 2.9 145.8 2.7C146.6 3.4 147.2 3.7 147.7 3.7C148.1 3.7 148.3 3.5 148.3 3C149.1 3 149.6 3.8 149.8 5.5C149.8 6.4 150.3 7 151.4 7.3C151.4 6.8 151.6 6.6 152 6.6C152 8.7 152.2 9.7 152.7 9.7C152.5 10.2 152.3 11.6 152.1 14C152.3 14 152.4 14.1 152.4 14.3H152V18C152.4 18 152.7 18.8 152.9 20.5L152.5 20.8V34.1C150.8 57.6 150 70 150 71.3L149.9 72H150C150 72.3 150 72.4 149.9 72.4L150.3 73.7V74L149.1 76.2C149.1 76.9 149.2 77.2 149.5 77.2H149.8L150.2 76.8C150.2 78 150.5 78.6 151.2 78.6L150.5 80.4C150.6 80.4 150.8 80.5 151.2 80.8C151.2 81.3 150.9 81.6 150.2 81.8V82.4L152 82.1H152.1V84.8H152.2ZM143.6 256.6C143.6 256.5 143.6 256.5 143.6 256.6V256.4C143.5 255.1 142.4 255.3 141.6 254.2L141.5 254.1V253.9C141.4 253.9 141.4 253.8 141.3 253.8C141.2 253.5 141.1 253.1 141 252.9C141.2 252.9 141.4 252.9 141.4 252.8C141.5 252.2 141.3 251.8 141.3 251.4C141.3 250.9 141.1 250.6 141 249.9C140.9 249.1 140.8 248.9 140.8 248.5C140.8 247.9 140.7 247.9 140.7 247.3C140.6 245.1 140.3 243.3 140.3 240.7C140.3 240.5 140.2 239.3 139.9 239.1C139.6 238.8 139.7 238.1 139.7 237.9C139.6 237.3 139.7 237.2 139.6 237C139.3 236.5 139.5 236.2 139.4 235.8V235.4C139.4 234.3 139.5 233.5 139.4 231.7C139.4 230.9 139.3 230.2 139.2 229.5C139.1 228.8 139 228.2 138.9 227.5C138.7 226.5 138.7 225.5 138.6 224.5V224C138.6 223.5 138.5 223 138.4 222.5C138.4 222.2 138.2 222.3 138.2 221.8V221.4C138.2 221.4 138.2 221.3 138.1 221.3V221.1C138.1 221 138 221 138 220.9H138.2C138.3 220.9 138.4 220.9 138.4 220.8C138.6 220.7 138.4 220.4 138.4 220.3C138.4 220 138.3 219.8 138.3 219.5C138.1 217.5 137.6 213.8 137.6 211.3C137.6 210.1 137.3 209.2 137.2 207.4C137.2 207.1 137.1 206.6 137.1 206.4C137 205.8 137.3 204.5 137.3 204.5C137.3 203.9 137.3 203.4 137.6 202.8C138 201.9 138.1 201.1 138.3 200.1C138.5 199.3 138.5 198.4 138.7 197.6C138.8 197.3 138.9 196.9 138.9 196.9L138.7 196.8V196.3C138.9 195.4 139 194.5 139.1 193.6C139.1 193 139.2 192.4 139.4 191.8C139.6 191.3 139.8 190.8 139.9 190.2C140.1 189.2 140 188.2 139.8 187.2C139.7 186.5 139.4 185.8 139.3 185C139.3 184.5 139.1 183.9 138.9 183.4L138.5 182.5C138.5 181.8 138.4 180.3 138.2 180C138 179.7 137.9 179.3 137.6 179.4C137.3 179.5 137.1 179.5 136.9 179.5C136.7 179.5 136.5 179.5 136.4 179.6C136.2 179.7 136 179.6 135.8 179.6C135.6 179.6 135.6 179.8 135.5 179.7C135.3 179.7 135.1 179.6 134.9 179.8C134.7 180 134.8 180 134.6 180.3C134.4 180.6 134.7 181 134.8 181.3C134.9 181.5 135 182.1 135.2 182.3C135.4 182.5 135.5 182.3 135.8 182.5C136.1 182.7 136.4 182.8 136.4 183C136.5 183.3 136.5 183.5 136.6 183.8C136.8 184.6 136.7 185.5 136.6 186.3C136.5 187.4 136.6 188.4 136.4 189.5C136.3 190.1 136.3 190.7 136.5 191.3C136.6 191.5 136.5 191.7 136.4 191.9C136.2 192.3 136 192.8 135.7 193.2C135.4 193.6 135.2 194.1 135 194.5C134.8 194.9 134.7 195.3 134.5 195.7V195.8L134.3 195.7C134.3 195.7 134 196.9 133.6 197.5C133.3 198 133 198.5 132.5 198.9C132.2 199.1 131.5 199.4 131.2 199C131.1 199.1 131.1 199.1 130.9 199.2C130.7 198.8 130.5 198.2 130.4 197.6C130.5 197.5 130.6 197.3 130.6 197.2V197C130.6 196.8 130.5 196.5 130.5 196.3C130.7 196.3 130.8 195.7 130.8 195.5C130.8 195.2 130.9 194.6 130.8 194.3C130.8 194.1 130.7 194 130.6 193.9H130.4V193.5C130.4 193.4 130.3 193.3 130.2 193.1V192.7C130.3 192.8 130.3 193 130.3 193.2C130.3 192.9 130.2 192.7 130.1 192.5C130.1 192.4 130.1 192.3 130 192.2C129.9 192 129.6 191.6 129.5 191.3C129.7 191.5 129.8 191.6 130 191.9C129.7 191.2 129.7 190.9 129 190.7L129.2 190.5C129 190.6 128.9 190.6 128.7 190.7C128.8 190.6 128.8 190.5 128.7 190.3C128.8 190.8 127.6 190.5 127.3 190.4C126.8 190.4 126.5 190.4 126 190.2L126.2 190.4C126 190.4 125.8 190.4 125.7 190.2C125.7 190.4 125.8 190.5 126 190.6H125.8H125.9C125.7 190.6 125.5 190.7 125.3 190.8C125.1 190.8 125 190.8 124.9 190.7C125 190.9 125 190.9 125.2 191.1C124.9 191.3 124.6 191.5 124.5 191.9C124.4 191.9 124.4 192 124.3 192H124.5V192.1L124.7 191.9H124.9C124.8 192.2 124.6 192.4 124.5 192.7V192.8C124.5 192.8 124.4 192.8 124.4 192.9H124.5C124.4 193.1 124.3 193.2 124.3 193.4C124.3 193.3 124.4 193.3 124.4 193.2C124.5 193.2 124.5 193.1 124.6 193.1C124.6 193.2 124.5 193.3 124.5 193.5L124.7 193.3C124.8 194.3 124.8 194.4 125.1 195.3H125.2C125.1 195.3 125.1 195.3 125 195.4C124.9 195.5 125 195.6 125.1 195.8C125.3 196.1 125.6 196.6 125.7 196.8C125.8 197 126.2 197.5 126.4 197.4V197.6C126.5 197.9 126.6 198.2 126.7 198.4L126.8 198.5C126.9 198.6 127 198.6 127.1 198.6V198.7C127.3 199.1 127.4 199.6 127.4 200H127.2V200.6C127.2 200.6 127.2 200.7 127.1 200.8C127 200.8 127 200.8 127 200.9V201L126.9 201.1C126.8 201.2 126.5 201.2 126.3 201.3C125.9 201.5 125.7 201.3 125.4 201.7C125 201.8 124 202.1 123.7 202.2C123.3 202.3 123 202.8 122.8 203.2C122.2 204.3 122.3 205.1 121.9 206.2C121.8 206.6 121.7 207.1 121.6 207.5C121.5 207.7 121.5 207.9 121.4 208.1C121.3 208.3 121.1 208.8 121.1 208.8L121.2 208.9C121.2 208.9 121.1 209.2 121.1 209.3C120.8 210.2 120.5 211 120.3 211.9C120.2 212.5 120.1 213.1 119.8 213.6C119.5 214.1 119.5 214.5 119.3 215.1C119.2 215.2 119.2 215.4 119.2 215.5L102.2 165.3C116 158.3 124 139.8 126.3 109.6V100C126.3 74.9 112.7 56.5 85.5 44.8H83.9V47.5L79.7 44.8H24.9L21 47.5C21 45.7 20.4 44.8 19.1 44.8L17 49.7V102.2C17 104 17.7 104.9 19.1 104.9L17 109.5V133.4L19.1 138.3C17.7 138.3 17 139.1 17 140.7C18.4 140.7 19.1 141.4 19.1 142.9H17L19.1 147.8L17 152.7C18.4 155.9 19.1 158.2 19.1 159.7C19.1 161.5 18.4 162.4 17 162.4L19.1 174.4V217.2C19.1 218.8 18.4 219.6 17 219.6L19.1 224.2V255.5C19.5 258.6 20.7 260.1 22.8 260.1H58.1V181.4H63.9L74.1 216L85.5 255.6L89.7 257.8H133.7L129.6 245.7C129.7 245.3 129.7 245 129.8 244.5C130 243.3 130.2 241.4 130.2 239.8C130.2 239.1 129.9 239.2 129.9 239C130 238.5 130.2 237.8 130.4 237.1C130.5 236.5 130.4 235.7 130.4 235.5C130.4 235.1 130.6 232.9 130.7 231.4V231.3C130.7 231.1 130.8 230.8 130.8 230.6C130.8 230.2 130.9 230 130.9 230C131 228.7 131.1 227.4 131.9 226.5C133.6 228.7 133.1 228.8 133.9 231.2C134.3 232.9 134.7 234.5 135 236.7C135.1 237.2 135.3 237.6 135.3 238.1C135.4 238.8 135.4 239.9 135.4 240.6C135.5 242.6 135.9 245.2 136.5 247.5C136.7 248.1 136.5 248.5 136.5 249.1C136.5 249.8 136.9 250.4 137 251C137.1 252.4 137.1 252.6 137.6 253.4C137.7 253.4 137.7 253.4 137.8 253.3C137.8 253.5 137.7 253.7 137.7 254V255.3L138.6 255.8H139.1C139.6 256.2 139.7 256.6 139.9 256.8C140.1 257 140.4 257.2 141 257.3H141.3C142 257.4 142.6 257.3 143 257.1C143.4 257.2 143.7 257 143.6 256.6ZM93 112L61.9 91.3C61.4 91 60.8 90.8 60.2 90.8C58.4 90.8 56.9 92.3 56.9 94.1V135.4C56.9 137.2 58.4 138.7 60.2 138.7C60.8 138.7 61.4 138.5 61.9 138.3L93 117.7C94 117.1 94.7 116 94.7 114.8C94.7 113.7 94.1 112.6 93 112Z" fill="#757575"/>
</svg>
