<svg width="1007" height="459" viewBox="0 0 1007 459" fill="none" xmlns="http://www.w3.org/2000/svg">
<path fill-rule="evenodd" clip-rule="evenodd" d="M519.876 455.987C511.681 459.367 495.877 459.367 487.682 455.987L126.196 307.085H179.315V244.745L184.242 244.214C184.242 244.214 196.032 260.549 202.802 306.815C202.961 307.886 261.389 306.815 261.389 306.815C261.389 306.815 255.14 250.454 233.451 219.321C233.434 219.299 233.643 219.096 234.033 218.718L234.034 218.718L234.035 218.717L234.035 218.716C238.815 214.083 270.735 183.14 250.214 133.309C250.223 133.309 243.799 118.801 222.84 110.296L487.859 2.5575C495.951 -0.739219 511.597 -0.739219 519.69 2.5575L784.662 110.269H783.49L831.609 212.551L787.364 309.301H837.849L856.493 268.232L876.557 309.049L519.876 455.987ZM124.218 150.389C124.182 202.136 124.352 296.95 124.369 306.332L29.2515 267.152C-8.66071 251.534 -8.53964 204.356 29.4285 188.925L124.218 150.389ZM870.565 155.566L864.755 142.827L874.456 146.77L870.565 155.566ZM896.426 216.509L919.777 165.194L978.11 188.906C1016.09 204.346 1016.2 251.525 978.306 267.133L927.417 288.097L896.426 216.509ZM661.856 120.736V284.827H764.93L769.335 233.225H717.351V222.227H754.732L758.346 180.096H717.798V169.628H769.856L774.345 120.736H661.856ZM538.453 120.736V285.097H640.4L645.14 232.173H593.603V120.736H538.453ZM407.134 120.736V284.39H462.815V227.247H501.779L505.737 179.574H462.815V169.368H517.257L521.662 120.997L407.134 120.736ZM277.928 120.736V284.827H380.927L385.947 232.694H333.609V221.966H370.991L374.679 180.096H333.609V169.368H386.469L390.603 120.736H277.928ZM546.594 297.744H563.571V349.691H546.594V297.744ZM579.217 297.744H597.135L629.702 334.008V297.744H645.617V349.691H628.538L595.133 312.794V349.691H579.217V297.744ZM716.534 313.948C715.221 310.4 712.073 307.923 707.035 306.498C703.979 305.687 700.827 305.296 697.666 305.334C691.079 305.334 685.659 306.92 681.406 310.093C677.154 313.266 675.061 318.018 675.129 324.351C675.129 330.739 677.424 335.263 682.011 337.919C686.776 340.623 692.179 341.999 697.657 341.905C703.388 341.905 708.082 340.856 711.738 338.758C715.407 336.644 717.661 333.896 718.508 330.479H699.547V321.808H733.613V349.691H722.289L720.576 343.172C717.865 345.307 714.876 347.061 711.691 348.387C707.184 350.156 701.64 351.038 695.059 351.032C684.219 351.032 675.341 348.648 668.424 343.88C661.216 339.081 657.612 332.527 657.612 324.22C657.612 315.802 661.253 309.056 668.536 303.984C675.818 298.911 685.442 296.375 697.405 296.375C707.798 296.375 716.137 298.054 722.42 301.413C728.703 304.773 732.328 308.941 733.297 313.92L716.534 313.948ZM336.592 311.462C335.288 307.923 332.125 305.439 327.102 304.012C324.042 303.206 320.888 302.815 317.724 302.848C311.137 302.848 305.72 304.434 301.473 307.606C297.227 310.779 295.126 315.532 295.169 321.864C295.169 328.265 297.463 332.785 302.051 335.424C302.646 335.763 303.251 336.081 303.865 336.378C308.165 338.458 312.902 339.504 317.696 339.419C323.433 339.419 328.13 338.369 331.786 336.271C335.444 334.173 337.7 331.413 338.557 327.992H319.615V319.322H353.671V347.204H342.356L340.634 340.685C337.926 342.821 334.94 344.579 331.758 345.91C327.251 347.667 321.704 348.545 315.117 348.545C304.277 348.545 295.399 346.161 288.482 341.393C281.285 336.614 277.681 330.071 277.67 321.763C277.67 321.757 277.67 321.75 277.67 321.744C277.67 321.737 277.67 321.731 277.67 321.725C277.67 313.399 281.33 306.656 288.65 301.497C295.92 296.425 305.543 293.889 317.519 293.889C327.912 293.889 336.254 295.568 342.543 298.927C348.832 302.286 352.455 306.454 353.411 311.434L336.592 311.462ZM402.852 307.085L392.347 327.573H413.096L402.852 307.085ZM364.213 347.204L393.4 295.258H412.705L441.658 347.204H423.135L417.864 336.523H387.737L382.075 347.204H364.213ZM491.519 336.103L506.233 295.258H530.781V347.204H514.857V312.067C514.857 311.061 514.857 309.646 514.913 307.839C514.968 306.033 514.968 304.589 514.968 303.602L499.491 347.204H482.942L467.566 303.602C467.566 304.589 467.566 306.005 467.632 307.839C467.686 309.361 467.682 310.576 467.679 311.519C467.679 311.713 467.678 311.896 467.678 312.067V347.204H451.763V295.258H476.618L491.519 336.103Z" fill="#757575"/>
<path fill-rule="evenodd" clip-rule="evenodd" d="M772.203 94.4649L820.313 196.756L776.068 289.772H826.562L845.197 252.428L865.526 290.042H925.417L885.139 200.714L933.593 94.1948H879.421L859.268 139.753L838.603 94.4649H772.203ZM650.563 104.924V267.785H753.645L758.041 217.422H706.057V206.423H743.439L747.043 164.302H706.504V153.825H758.572L763.051 104.924H650.563ZM527.158 104.924V268.046H629.096L633.845 216.369H582.308V104.924H527.158ZM395.848 104.924V267.347H451.519V211.434H490.484L494.442 163.771H451.519V153.564H505.962L510.357 105.194L395.848 104.924ZM266.633 104.924V267.785H369.632L374.642 216.891H322.314V206.172H359.695L363.392 164.302H322.314V153.564H375.173L379.308 104.924H266.633ZM168.188 145.974C168.188 145.974 188.071 137.434 188.071 154.784C188.071 154.784 187.801 174.117 168.468 174.117L168.188 145.974ZM113.075 101.347C112.721 101.468 113.075 290.061 113.075 290.061H168.021V228.969L172.956 228.439C172.956 228.439 184.737 243.535 191.507 289.8C191.666 290.881 250.085 289.8 250.085 289.8C250.085 289.8 243.845 234.687 222.146 203.546C221.932 203.238 261.111 171.435 238.909 117.533C238.928 117.505 215.627 64.953 113.075 101.319V101.347ZM494.041 113.864C494.122 113.863 494.202 113.879 494.276 113.911C494.35 113.942 494.417 113.989 494.473 114.047C494.529 114.106 494.572 114.175 494.6 114.251C494.629 114.326 494.641 114.407 494.637 114.487L492.979 139.902C492.962 140.051 492.893 140.188 492.784 140.291C492.674 140.393 492.533 140.453 492.383 140.461H439.459V177.162H478.628C478.711 177.16 478.794 177.175 478.87 177.208C478.946 177.24 479.015 177.288 479.071 177.35C479.127 177.41 479.17 177.482 479.197 177.561C479.223 177.639 479.233 177.723 479.224 177.805L477.464 198.293C477.441 198.438 477.37 198.571 477.261 198.671C477.153 198.771 477.015 198.831 476.868 198.843H440.083V258.193C440.076 258.349 440.011 258.496 439.901 258.607C439.79 258.717 439.643 258.782 439.487 258.789H405.989C405.833 258.782 405.685 258.717 405.575 258.607C405.465 258.496 405.4 258.349 405.393 258.193L405.532 114.413C405.539 114.257 405.604 114.109 405.715 113.999C405.825 113.889 405.973 113.824 406.128 113.817L494.041 113.864ZM569.893 114.422C570.05 114.425 570.2 114.489 570.311 114.6C570.422 114.711 570.486 114.861 570.489 115.018V229.342H618.348C618.47 229.343 618.59 229.381 618.69 229.451C618.791 229.521 618.867 229.621 618.91 229.736C618.937 229.812 618.949 229.894 618.944 229.975L617.184 258.537C617.167 258.689 617.097 258.829 616.986 258.933C616.875 259.037 616.73 259.099 616.578 259.105H537.01C536.853 259.101 536.705 259.036 536.594 258.926C536.483 258.815 536.419 258.666 536.414 258.509V115.018C536.419 114.862 536.483 114.713 536.594 114.602C536.705 114.491 536.853 114.427 537.01 114.422H569.893ZM749.76 114.422C749.841 114.421 749.922 114.436 749.996 114.467C750.071 114.499 750.139 114.545 750.195 114.604C750.251 114.662 750.294 114.732 750.322 114.808C750.35 114.884 750.361 114.965 750.356 115.046L748.847 140.386C748.829 140.535 748.76 140.672 748.651 140.774C748.542 140.876 748.401 140.937 748.251 140.945L693.52 140.796V174.052H735.428C735.556 174.05 735.681 174.09 735.785 174.166C735.889 174.241 735.965 174.348 736.002 174.471C736.028 174.552 736.035 174.638 736.024 174.722L734.264 196.421C734.236 196.563 734.163 196.691 734.055 196.787C733.947 196.883 733.811 196.941 733.668 196.952H693.52V228.746H746.035C746.116 228.746 746.197 228.764 746.271 228.796C746.345 228.829 746.413 228.876 746.468 228.935C746.524 228.994 746.567 229.064 746.595 229.14C746.623 229.217 746.635 229.298 746.631 229.379L744.871 258.565C744.856 258.715 744.787 258.855 744.678 258.959C744.569 259.064 744.426 259.125 744.275 259.133H660.311C660.154 259.129 660.005 259.064 659.895 258.954C659.784 258.843 659.72 258.694 659.715 258.537V115.018C659.72 114.862 659.784 114.713 659.895 114.602C660.005 114.491 660.154 114.427 660.311 114.422H749.76ZM830.828 103.554C830.94 103.572 831.047 103.614 831.142 103.677C831.236 103.739 831.317 103.821 831.377 103.918L856.931 166.313L884.32 103.61C884.455 103.43 884.65 103.304 884.87 103.256H914.987C915.066 103.242 915.148 103.246 915.226 103.267C915.303 103.288 915.376 103.326 915.437 103.378C915.498 103.43 915.547 103.495 915.581 103.568C915.614 103.642 915.631 103.721 915.63 103.802C915.629 103.91 915.597 104.015 915.537 104.104L872.167 198.265L907.779 280.636C907.833 280.726 907.86 280.828 907.858 280.932C907.856 281.036 907.825 281.138 907.768 281.225C907.71 281.312 907.629 281.381 907.534 281.424C907.438 281.466 907.333 281.481 907.23 281.465H872.446C872.229 281.423 872.036 281.3 871.906 281.121L843.586 221.137L818.013 280.18C817.952 280.274 817.873 280.354 817.78 280.416C817.687 280.479 817.583 280.522 817.473 280.543H792.003C791.898 280.558 791.791 280.542 791.695 280.498C791.599 280.454 791.517 280.383 791.46 280.294C791.402 280.205 791.371 280.102 791.37 279.996C791.369 279.89 791.398 279.786 791.453 279.696L829.859 194.838L788.045 104.392C787.988 104.304 787.959 104.201 787.959 104.096C787.96 103.991 787.99 103.889 788.048 103.801C788.104 103.713 788.185 103.642 788.28 103.598C788.375 103.555 788.481 103.539 788.585 103.554H830.828ZM156.09 184.482C161.156 184.482 197.839 183.663 197.839 154.681C197.839 127.674 170.907 126.492 156.09 138.626V184.482ZM179.148 213.762C171.491 215.402 163.75 216.627 155.96 217.431V279.621C155.955 279.779 155.891 279.929 155.78 280.041C155.67 280.153 155.521 280.22 155.364 280.227H122.443C122.285 280.222 122.134 280.157 122.023 280.044C121.912 279.931 121.849 279.78 121.847 279.621C121.847 279.621 121.782 236.783 121.754 193.944V108.332C121.754 107.931 122.359 108.229 122.359 108.229L122.182 107.661C167.75 93.3661 194.421 96.9422 209.722 104.29C215.721 107.042 220.995 111.155 225.126 116.303C226.294 117.785 227.323 119.372 228.199 121.044C228.56 121.715 228.872 122.413 229.13 123.13C238.163 147.343 232.669 166.732 224.921 180.031C221.704 185.599 217.799 190.739 213.298 195.332C211.576 197.073 210.095 198.405 209.052 199.308C208.521 199.764 208.12 200.09 207.832 200.333C231.607 233.253 237.269 278.783 237.269 278.783C237.269 278.783 237.055 279.444 236.692 279.454C236.692 279.454 228.311 279.724 219.855 279.854C215.636 279.919 211.408 279.947 208.223 279.854C206.921 279.855 205.619 279.805 204.321 279.705C203.927 279.678 203.535 279.625 203.147 279.547C203.005 279.52 202.865 279.483 202.728 279.435C202.614 279.391 202.511 279.32 202.43 279.227C202.349 279.135 202.292 279.024 202.263 278.904C199.073 262.325 194.163 246.123 187.614 230.562C185.22 224.974 183.069 220.662 181.495 217.766C180.713 216.323 180.08 215.233 179.633 214.497C179.428 214.19 179.27 213.957 179.148 213.762ZM365.795 114.534C365.876 114.534 365.956 114.55 366.031 114.583C366.105 114.615 366.172 114.663 366.227 114.722C366.282 114.782 366.324 114.852 366.351 114.928C366.378 115.005 366.388 115.086 366.382 115.167L364.873 140.47C364.855 140.618 364.785 140.755 364.676 140.858C364.567 140.96 364.426 141.02 364.277 141.029L309.546 140.889V174.145H351.5C351.584 174.143 351.668 174.159 351.746 174.192C351.824 174.225 351.894 174.275 351.95 174.338C352.007 174.401 352.049 174.475 352.075 174.556C352.1 174.637 352.107 174.722 352.096 174.806L350.336 196.505C350.309 196.647 350.237 196.777 350.129 196.873C350.021 196.969 349.884 197.026 349.74 197.036H309.546V228.858H362.06C362.142 228.858 362.222 228.874 362.298 228.906C362.373 228.938 362.441 228.985 362.496 229.044C362.552 229.104 362.595 229.174 362.622 229.251C362.65 229.328 362.662 229.41 362.656 229.491L360.896 258.658C360.88 258.808 360.811 258.947 360.702 259.051C360.593 259.155 360.451 259.217 360.3 259.226H276.346C276.187 259.222 276.035 259.157 275.923 259.044C275.81 258.932 275.745 258.78 275.74 258.621V115.13C275.743 114.971 275.808 114.82 275.921 114.708C276.034 114.597 276.187 114.534 276.346 114.534H365.795Z" fill="#757575"/>
<path d="M974.916 96.8679C981.175 96.8442 987.3 98.6762 992.518 102.132C997.733 105.588 1001.81 110.514 1004.23 116.285C1006.91 122.592 1007.49 129.594 1005.87 136.253C1004.26 142.914 1000.54 148.876 995.274 153.256C990.005 157.636 983.465 160.203 976.623 160.575C969.781 160.948 963.001 159.106 957.287 155.322C951.577 151.537 947.238 146.014 944.911 139.571C942.584 133.126 942.395 126.103 944.371 119.542C946.35 112.982 950.39 107.234 955.89 103.149C961.393 99.0653 968.064 96.8626 974.916 96.8679ZM975 103.135C970.527 103.123 966.13 104.291 962.253 106.521C958.376 108.752 955.157 111.966 952.92 115.84C950.678 119.712 949.499 124.108 949.502 128.582C949.51 133.055 950.695 137.447 952.938 141.318C955.184 145.177 958.405 148.378 962.279 150.599C966.154 152.819 970.544 153.983 975.01 153.974C978.39 154.039 981.752 153.429 984.89 152.18C988.033 150.931 990.895 149.068 993.309 146.7C995.722 144.334 997.638 141.508 998.943 138.391C1000.25 135.274 1000.93 131.927 1000.93 128.545C1000.93 125.165 1000.26 121.818 998.943 118.7C997.638 115.582 995.722 112.757 993.309 110.39C990.894 108.023 988.033 106.161 984.89 104.911C981.749 103.662 978.39 103.052 975.01 103.117L975 103.135ZM967.494 145.499H960.584V111.88H976.518C978.66 111.813 980.793 112.213 982.758 113.053C984.342 113.756 985.672 114.93 986.567 116.415C987.444 117.947 987.888 119.689 987.852 121.454C987.883 123.737 987.02 125.943 985.449 127.6C983.681 129.415 981.323 130.538 978.8 130.766C980.171 131.265 981.39 132.108 982.339 133.216C983.66 134.968 984.852 136.813 985.905 138.738L989.873 145.499H981.398L978.604 140.088C977.651 138.212 976.549 136.415 975.308 134.715C974.601 133.717 973.665 132.902 972.579 132.34C971.521 131.898 970.382 131.685 969.236 131.716H967.466L967.494 145.499ZM967.494 117.244V126.361H972.979C974.907 126.478 976.844 126.16 978.632 125.43C979.927 124.809 980.569 123.528 980.569 121.584C980.579 120.96 980.439 120.344 980.141 119.793C979.845 119.243 979.412 118.779 978.884 118.446C977.283 117.565 975.463 117.164 973.641 117.291L967.494 117.244Z" fill="#757575"/>
</svg>
