<svg width="346" height="366" viewBox="0 0 346 366" fill="none" xmlns="http://www.w3.org/2000/svg">
<path d="M80.2521 264.617H128.157C128.149 268.787 128.168 272.965 128.149 277.136C114.625 277.147 101.087 277.114 87.5664 277.151V281.314C87.5501 281.399 87.5586 281.488 87.591 281.569C87.6234 281.65 87.6783 281.72 87.7492 281.771C98.8888 281.797 110.069 281.756 121.205 281.793C121.197 285.931 121.208 290.072 121.205 294.213C109.992 294.242 98.7718 294.191 87.5627 294.239C87.57 295.775 87.5627 297.312 87.5664 298.856C101.098 298.874 114.629 298.856 128.153 298.863V311.378C112.362 311.378 96.5263 311.386 80.7385 311.375C76.1123 311.221 72.1187 307.204 71.9834 302.576V273.499C72.0712 268.981 75.7868 265.085 80.2521 264.617ZM143.915 264.617H200.173L200.169 277.125C193.385 277.158 186.597 277.125 179.81 277.14V311.375C174.598 311.389 169.387 311.375 164.179 311.382C164.124 310.742 164.135 310.101 164.143 309.458C164.135 298.684 164.143 287.91 164.135 277.136C157.399 277.132 150.655 277.147 143.919 277.129C143.908 272.958 143.919 268.787 143.915 264.617Z" fill="#757575"/>
<path fill-rule="evenodd" clip-rule="evenodd" d="M47.9936 264.617H0.00488281V311.382H4.46657L15.6281 311.378V303.608C15.6281 301.018 15.6281 298.431 15.6354 295.841H21.2052L26.775 295.837C29.1046 298.567 31.4195 301.325 33.7381 304.08C35.771 306.503 37.8105 308.922 39.8565 311.334C40.1747 311.396 40.5075 311.389 40.8403 311.386H41.2462C43.7367 311.378 46.2272 311.378 48.7213 311.382L56.1928 311.378C53.9048 308.622 51.6093 305.872 49.3065 303.129C47.2768 300.703 45.2471 298.281 43.2247 295.848C43.8757 295.812 44.5413 295.826 45.2178 295.837C46.5344 295.859 47.8692 295.885 49.1127 295.578C51.8482 294.952 54.207 292.834 55.381 290.317C55.9954 289.004 56.1928 287.591 56.1928 286.146V281.12C56.1928 278.727 56.1928 276.331 56.1855 273.938C56.2136 271.931 55.5757 269.97 54.3716 268.363C53.6146 267.342 52.6597 266.484 51.5639 265.84C50.468 265.197 49.2538 264.781 47.9936 264.617ZM40.5696 278.819V277.136H15.6281V279.539L15.6317 283.311H40.5587C40.5733 281.815 40.5733 280.319 40.5696 278.819ZM263.855 264.617H215.91V283.322L215.914 311.382H220.375L231.541 311.378V304.061L231.544 295.841H233.139C236.331 295.837 239.524 295.834 242.717 295.841L248.883 303.165C251.139 305.847 253.396 308.528 255.656 311.203C255.74 311.327 255.875 311.386 256.058 311.378H272.12L263.08 300.56L259.137 295.852C259.807 295.816 260.487 295.826 261.171 295.837C262.403 295.859 263.643 295.881 264.82 295.625C268.818 294.787 272.072 290.924 272.091 286.816C272.083 282.375 272.087 277.937 272.091 273.499C272.025 269.658 269.267 266.161 265.643 265.012C265.055 264.846 264.458 264.714 263.855 264.617ZM256.453 278.852V277.132H247.552C242.212 277.132 236.873 277.132 231.541 277.14V279.32C231.537 280.648 231.533 281.98 231.541 283.311C239.842 283.319 248.137 283.315 256.435 283.311H256.442C256.453 281.826 256.457 280.341 256.453 278.852ZM336.822 264.617H297.208C295.5 264.806 293.876 265.46 292.513 266.506C291.149 267.553 290.098 268.953 289.473 270.554C288.91 271.952 288.822 273.558 288.851 275.051V301.91C288.877 303.542 289.184 305.137 290 306.567C291.587 309.362 294.498 311.316 297.756 311.378H336.163C340.669 311.298 344.553 307.573 345.032 303.125V272.834C344.885 271.611 344.498 270.429 343.893 269.355C343.289 268.282 342.479 267.338 341.51 266.578C340.161 265.466 338.537 264.869 336.822 264.617ZM320.248 277.136C315 277.136 309.748 277.129 304.529 277.151C304.51 282.525 304.506 287.899 304.515 293.273L304.518 298.863H315.208L329.456 298.859V277.136H320.248Z" fill="#757575"/>
<path d="M10.1786 319.229L55.8304 319.233C55.8304 323.4 55.8377 327.566 55.8231 331.73C42.3832 331.737 28.9433 331.73 15.5034 331.733C15.4961 338.926 15.4961 346.111 15.5034 353.303H40.2913C40.2913 351.759 40.3133 350.215 40.2804 348.672C33.5586 348.679 26.8331 348.683 20.1114 348.672C20.104 344.541 20.0967 340.411 20.115 336.281C32.0189 336.273 43.9228 336.281 55.8194 336.281C55.8487 345.686 55.8194 355.099 55.8341 364.509C55.8328 364.953 55.8206 365.397 55.7975 365.84H9.1144C7.57476 365.668 6.09728 365.405 4.74415 364.615C2.71079 363.444 1.03583 361.48 0.381206 359.208C0.015494 358.099 0.015494 357.005 0.000865544 355.849C0.0118369 346.674 -0.0137629 337.492 0.0118369 328.316C-0.0393627 324.04 3.32518 320.122 7.50893 319.39C8.39761 319.207 9.27531 319.229 10.1786 319.229ZM137.984 319.24C140.471 319.211 142.954 319.225 145.437 319.233C150.009 326.451 154.602 333.654 159.184 340.868C159.543 341.45 159.905 342.028 160.325 342.573C165.226 334.781 170.21 327.032 175.122 319.251C177.539 319.2 179.964 319.233 182.385 319.233C185.749 319.295 188.832 321.38 190.372 324.336C191.133 325.781 191.367 327.365 191.345 328.982C191.327 341.165 191.37 353.515 191.323 365.668L191.067 365.833H175.78C175.714 364.948 175.74 364.059 175.736 363.17C175.729 355.955 175.751 348.737 175.729 341.519C170.748 349.308 165.807 357.13 160.834 364.926C160.64 365.218 160.464 365.526 160.285 365.833H160.27C160.135 365.467 159.872 365.131 159.66 364.805C154.854 357.261 150.071 349.7 145.258 342.16L144.834 341.549C144.823 348.829 144.834 356.109 144.826 363.389C144.834 364.209 144.845 365.017 144.79 365.833H129.247C129.225 365.24 129.218 364.651 129.221 364.059C129.229 352.074 129.214 340.074 129.229 328.09C129.338 323.447 133.361 319.427 137.988 319.236L137.984 319.24ZM233.413 319.236C236.199 319.229 238.986 319.218 241.777 319.247C249.449 328.832 257.118 338.417 264.802 347.987C264.809 338.403 264.802 328.818 264.805 319.233C269.984 319.225 275.162 319.233 280.341 319.233C280.355 331.514 280.341 343.791 280.344 356.072C280.344 357.752 280.074 359.387 279.258 360.872C278.103 362.979 276.102 364.695 273.787 365.376C272.924 365.643 272.061 365.705 271.158 365.84H263.123C262.633 365.295 262.191 364.717 261.737 364.146C254.489 355.11 247.259 346.059 240.006 337.031C240.017 346.338 240.006 355.644 240.014 364.955C240.006 365.248 239.988 365.544 239.963 365.84H224.482C224.438 353.782 224.478 341.713 224.464 329.659C224.46 328.225 224.471 326.791 224.965 325.43C226.19 321.889 229.642 319.288 233.413 319.236ZM297.983 319.236C313.057 319.218 328.172 319.236 343.258 319.229C343.858 319.222 344.439 319.192 345.032 319.32V331.704C331.555 331.777 318.057 331.689 304.584 331.752V353.285C312.856 353.318 321.132 353.292 329.405 353.299C329.405 351.756 329.423 350.215 329.394 348.675C322.676 348.679 315.954 348.668 309.236 348.679C309.203 344.545 309.221 340.411 309.228 336.277C320.865 336.27 332.51 336.284 344.147 336.27C344.451 336.259 344.754 336.319 345.032 336.445V365.837H298.272C297.295 365.683 296.344 365.635 295.405 365.306C293.477 364.692 291.912 363.396 290.72 361.794C289.568 360.181 289.074 358.26 289.052 356.296V328.766C289.074 327.252 289.334 325.723 290.029 324.362C291.543 321.38 294.604 319.302 297.979 319.236H297.983ZM200.071 319.35C205.293 319.328 210.512 319.335 215.734 319.35C215.742 334.843 215.734 350.34 215.734 365.837H200.067L200.071 319.35Z" fill="#757575"/>
<path fill-rule="evenodd" clip-rule="evenodd" d="M111.374 319.229L73.6363 319.233C69.6867 319.244 66.0844 322.086 64.9763 325.843C64.7422 326.721 64.6106 327.636 64.5996 328.543V344.925C64.5996 351.876 64.5996 358.824 64.6106 365.771C69.7854 365.782 74.9602 365.786 80.135 365.771V350.3C88.3782 350.292 96.625 350.289 104.868 350.3V356.453C104.868 359.581 104.861 362.709 104.886 365.837H120.404C120.473 365.244 120.466 364.651 120.462 364.059V347.596C120.462 341.095 120.462 334.594 120.455 328.097C120.382 323.341 116.103 319.229 111.374 319.229ZM95.9996 331.73C90.7078 331.73 85.4123 331.722 80.1497 331.744C80.1277 333.043 80.1314 334.349 80.135 335.652C80.135 336.365 80.1424 337.078 80.135 337.792H104.868V331.73H95.9996Z" fill="#757575"/>
<path fill-rule="evenodd" clip-rule="evenodd" d="M60.5466 53.7413C60.0033 53.7752 59.4596 53.8008 58.9155 53.8182C58.7766 55.212 58.7912 56.5985 58.8058 57.9887C58.8131 58.607 58.8205 59.2216 58.8131 59.8362C58.8058 89.03 58.8058 118.224 58.8131 147.418C58.8058 148.259 58.7839 149.089 58.751 149.92C59.6909 150.304 60.7039 150.282 61.7279 150.256C70.6549 150.247 79.5819 150.243 88.5089 150.245C99.0049 150.245 109.497 150.253 119.989 150.238C120.019 136.402 120.011 122.559 120.004 108.716C119.993 90.497 119.982 72.2856 120.059 54.0925C119.156 53.6792 118.113 53.7048 117.093 53.7267C102.868 53.7366 88.643 53.7415 74.4181 53.7413H60.5466ZM96.4741 84.6838H79.0443C76.2869 84.5741 73.789 86.9886 73.8951 89.7689C73.8878 92.264 76.0345 94.4699 78.5214 94.5614C80.8592 94.6025 83.1975 94.6147 85.5357 94.598C87.5593 94.584 89.583 94.5889 91.6065 94.6126C89.255 98.4942 86.8523 102.35 84.4495 106.202C82.9391 108.628 81.4251 111.057 79.9257 113.49C78.5799 115.462 78.5177 117.916 80.0208 119.811C81.6884 122.142 85.4406 122.391 87.4996 120.488C88.2822 119.753 88.8417 118.74 89.3793 117.77C89.5402 117.477 89.7012 117.185 89.8657 116.907L94.0714 109.502C97.1981 103.983 100.34 98.4723 103.496 92.97C104.103 92.0408 103.931 91.0494 103.697 90.025C103.229 88.4752 102.273 87.118 100.972 86.1555C99.67 85.1931 98.0926 84.6769 96.4741 84.6838ZM174.082 53.7487H139.262C139.211 85.9167 139.226 118.085 139.251 150.245C159.578 150.253 179.9 150.253 200.23 150.245C200.267 132.51 200.263 114.77 200.259 97.0308C200.252 83.729 200.249 70.4235 200.263 57.118C200.263 55.9949 200.238 54.8681 200.208 53.745H174.085L174.082 53.7487ZM172.213 84.6838C167.971 84.6802 163.729 84.6728 159.494 84.7021C156.879 84.8375 154.604 87.0618 154.801 89.7616C154.677 92.264 157.04 94.6126 159.519 94.5687C161.878 94.6126 164.233 94.6053 166.592 94.598C168.556 94.5907 170.52 94.587 172.487 94.609C170.662 97.5722 168.823 100.532 166.98 103.488C164.789 107.007 162.598 110.527 160.441 114.057C158.641 117.031 160.514 121.18 163.981 121.677C166.248 122.006 168.227 121.194 169.397 119.19C171.953 114.734 174.495 110.256 177.04 105.778C179.487 101.465 181.937 97.1515 184.395 92.8566C185.031 91.942 184.797 91.0457 184.541 90.0726L184.483 89.8604C184.005 88.3778 183.075 87.0821 181.823 86.155C180.572 85.228 179.062 84.716 177.505 84.6911C175.742 84.6911 173.976 84.6911 172.213 84.6838ZM254.081 53.7523C242.788 53.7523 231.499 53.7523 220.209 53.7413C220.136 55.4425 220.143 57.1436 220.151 58.8448C220.151 59.7228 220.158 60.6008 220.151 61.4788V95.9955C220.151 114.079 220.143 132.162 220.165 150.245C234.695 150.256 249.225 150.253 263.754 150.253H281.199L281.206 141.07C281.228 111.964 281.246 82.8546 281.184 53.756C272.151 53.7487 263.114 53.7487 254.081 53.7523ZM250.373 84.6875C247.469 84.6911 244.558 84.6948 241.658 84.6765C239.445 84.5777 237.335 85.7265 236.512 87.8373C235.17 90.6909 237.474 94.3785 240.597 94.5504C243.146 94.6236 245.699 94.6126 248.255 94.6017C250.146 94.5943 252.033 94.587 253.924 94.6126C249.901 101.048 245.889 107.505 241.907 113.965C240.162 116.753 241.603 120.448 244.642 121.524C246.171 121.9 248.036 121.86 249.316 120.828C250.355 120.071 250.936 119.029 251.54 117.949L251.869 117.364C254.008 113.585 256.158 109.806 258.305 106.03C260.829 101.604 263.352 97.1698 265.854 92.7395C266.464 91.8506 266.23 91.0604 265.963 90.1494L265.886 89.8824C265.009 86.9666 262.138 84.7606 259.084 84.6985C256.188 84.6838 253.28 84.6838 250.373 84.6875Z" fill="#757575"/>
<path fill-rule="evenodd" clip-rule="evenodd" d="M0.204102 0H324.715C328.968 0.471929 333.046 1.93893 336.432 4.58759C339.093 6.6217 341.251 9.23959 342.741 12.2396C344.231 15.2397 345.013 18.5418 345.026 21.8917V103.422C345.026 152.133 345.034 200.844 345.015 249.552H21.2069C17.367 249.073 13.6842 248.004 10.4404 245.864C7.77969 244.144 5.51232 241.88 3.78675 239.222C2.06118 236.564 0.916337 233.572 0.427186 230.441C0.344804 229.899 0.270434 229.356 0.204102 228.813V0ZM60.3783 34.2862C102.581 34.2789 144.785 34.2789 186.984 34.2789H281.948C284.355 34.2313 286.728 34.2789 289.08 34.8642C296.412 36.4154 302.754 41.7859 305.314 48.8502C306.689 52.3695 306.663 55.823 306.638 59.496L306.63 60.1948V95.3444C306.63 112.813 306.63 130.285 306.638 147.758C306.696 151.387 306.502 154.892 305.05 158.268C301.781 166.467 293.468 171.973 284.68 172.115C242.097 172.13 199.513 172.126 156.93 172.126H60.9159C56.7497 172.157 52.6536 171.053 49.0669 168.932C42.5864 165.139 38.2893 158.045 38.2418 150.498V110.153C38.2418 92.2274 38.2418 74.2941 38.2345 56.3681C38.2102 52.3708 39.3102 48.4472 41.4088 45.0455C45.3695 38.4568 52.7423 34.4545 60.3783 34.2862ZM195.315 198.21C146.503 198.21 97.6955 198.214 48.884 198.203C47.5099 198.145 46.1379 198.36 44.8477 198.837C43.5575 199.313 42.3749 200.042 41.3686 200.98C38.399 203.676 37.3824 207.912 38.6038 211.71C39.807 215.291 43.1643 218.17 46.9347 218.635C48.1526 218.745 49.3887 218.734 50.6211 218.726C78.0068 218.726 105.393 218.724 132.778 218.723H293.984C294.448 218.716 294.906 218.723 295.355 218.723C297.184 218.745 298.899 218.767 300.691 217.991C304.469 216.484 307.201 212.624 307.058 208.509C307.215 204.404 304.586 200.57 300.823 199.015C298.848 198.141 296.866 198.174 294.8 198.207C294.171 198.214 293.534 198.225 292.891 198.207L195.315 198.21Z" fill="#757575"/>
</svg>
