<?xml version="1.0" encoding="utf-8"?>
<!-- Generator: Adobe Illustrator 24.2.1, SVG Export Plug-In . SVG Version: 6.00 Build 0)  -->
<svg version="1.1" id="Layer_1" xmlns="http://www.w3.org/2000/svg" xmlns:xlink="http://www.w3.org/1999/xlink" x="0px" y="0px"
	 viewBox="0 0 28 32" style="enable-background:new 0 0 28 32;" xml:space="preserve">
<style type="text/css">
	.st0{fill:url(#SVGID_1_);}
</style>
<linearGradient id="SVGID_1_" gradientUnits="userSpaceOnUse" x1="14" y1="32" x2="14" y2="-9.094947e-13">
	<stop  offset="0" style="stop-color:#F6DFAF"/>
	<stop  offset="0.0655" style="stop-color:#F2DDB0"/>
	<stop  offset="0.1225" style="stop-color:#E8D6B3"/>
	<stop  offset="0.2583" style="stop-color:#E4D3B3"/>
	<stop  offset="0.4027" style="stop-color:#D7CBB4"/>
	<stop  offset="0.5375" style="stop-color:#C4BFB5"/>
	<stop  offset="0.6854" style="stop-color:#CFC9C0"/>
	<stop  offset="0.8347" style="stop-color:#DED8CF"/>
	<stop  offset="1" style="stop-color:#FCFDFB"/>
</linearGradient>
<path class="st0" d="M4.388,29.677C4.328,31.084,3.412,32,2.187,32c-0.642,0-1.194-0.255-1.63-0.759C0.194,30.823,0,30.281,0,29.671
	c0-0.617,0.23-1.183,0.673-1.632c0.418-0.43,0.934-0.642,1.564-0.642c0.878,0,1.557,0.443,1.891,1.208h-0.77
	c-0.285-0.373-0.685-0.566-1.17-0.566c-0.406,0-0.782,0.162-1.067,0.46c-0.303,0.317-0.472,0.754-0.472,1.177
	c0,0.467,0.157,0.891,0.437,1.189c0.297,0.317,0.703,0.498,1.103,0.498c0.648,0,1.158-0.356,1.485-1.065H1.722v-0.623h2.666V29.677z
	 M5.058,31.913H4.398l1.685-4.428h0.606l1.684,4.428H7.689l-0.472-1.289H5.544L5.058,31.913z M6.386,28.319l-0.619,1.682h1.224
	L6.386,28.319z M8.609,31.913v-4.428h0.927l1.249,3.426l1.249-3.426h0.915v4.428h-0.588l0.042-3.843l-1.4,3.843H10.56L9.166,28.07
	l0.042,3.843H8.609z M15.692,32c-0.637,0-1.176-0.243-1.6-0.704c-0.406-0.442-0.612-0.99-0.612-1.644
	c0-0.611,0.224-1.172,0.654-1.601c0.424-0.43,0.958-0.654,1.57-0.654c1.006,0,1.866,0.679,2.145,1.769H16.71
	c-0.23-0.436-0.576-0.667-1-0.667c-0.642,0-1.145,0.51-1.145,1.159c0,0.704,0.534,1.245,1.128,1.245
	c0.406,0,0.764-0.224,0.994-0.636h1.145C17.546,31.346,16.728,32,15.692,32z M18.896,31.913h-1.151l1.655-4.428h0.861l1.655,4.428
	h-1.164l-0.213-0.642h-1.424L18.896,31.913z M19.829,28.936l-0.431,1.42h0.855L19.829,28.936z M21.997,31.913v-4.428h1.431
	c0.454,0,0.8,0.031,1.091,0.243c0.382,0.274,0.582,0.692,0.582,1.239c0,0.716-0.364,1.252-0.976,1.427l1.054,1.52h-1.303
	l-0.824-1.427v1.427H21.997z M23.258,29.527c0.521,0,0.775-0.137,0.775-0.536c0-0.368-0.224-0.516-0.69-0.516h-0.291v1.052
	C23.052,29.527,23.258,29.527,23.258,29.527z M25.657,31.913v-4.428h2.34v0.978h-1.284v0.716h1.284v0.984h-1.284v0.772h1.284v0.978
	C27.996,31.913,25.657,31.913,25.657,31.913z M27.233,15.321c-0.115-0.067-0.243-0.113-0.38-0.132
	c-0.032-0.005-0.064-0.007-0.097-0.01c-0.018-0.001-0.034-0.005-0.052-0.005h-0.049c-0.044-0.001-0.087-0.004-0.129,0h-8.426
	c-0.596,0-1.08,0.497-1.08,1.109s0.484,1.109,1.08,1.109h3.274c0.108,0.001,0.195,0.091,0.195,0.203
	c0,0.064-0.033,0.117-0.079,0.154c-1.795,0.985-4.104,1.582-6.63,1.582c-0.615,0-1.215-0.037-1.801-0.104v2.519
	c0.51,0.038,1.027,0.06,1.552,0.06c3.516,0,6.714-0.884,9.111-2.326l0.001,0.004c0.03-0.016,0.063-0.025,0.099-0.025
	c0.117,0,0.213,0.098,0.213,0.219c0,0.022-0.003,0.043-0.01,0.064l-0.5,1.394c-0.262,0.733,0.102,1.547,0.815,1.817
	c0.157,0.06,0.318,0.088,0.476,0.088c0.56,0,1.087-0.354,1.291-0.926l1.807-5.041C28.161,16.387,27.855,15.638,27.233,15.321z
	 M14.86,5.803c2.546,0,4.876,0.603,6.678,1.602c0,0,1.144,0.846,1.688,0.034c0.625-0.932-0.622-1.512-0.622-1.512
	c-2.235-1.08-4.999-1.719-7.991-1.718c-0.525,0-1.043,0.021-1.552,0.06v1.639C13.645,5.84,14.246,5.803,14.86,5.803z M1.921,0
	C0.87,0,0.017,0.876,0.017,1.956v21.35c0,1.081,0.853,1.956,1.904,1.956h11.138v-3.517c-6.702-0.503-11.906-4.223-11.906-8.739
	c0-4.516,5.205-8.236,11.906-8.739V0H1.921z M4.525,12.567c0,3.333,3.685,6.101,8.534,6.66V5.908
	C8.211,6.466,4.525,9.234,4.525,12.567z"/>
</svg>
