<?xml version="1.0" encoding="utf-8"?>
<!-- Generator: Adobe Illustrator 24.2.1, SVG Export Plug-In . SVG Version: 6.00 Build 0)  -->
<svg version="1.1" id="Layer_1" xmlns="http://www.w3.org/2000/svg" xmlns:xlink="http://www.w3.org/1999/xlink" x="0px" y="0px"
	 viewBox="0 0 34.3 32.3" style="enable-background:new 0 0 34.3 32.3;" xml:space="preserve">
<style type="text/css">
	.st0{fill:url(#SVGID_1_);}
</style>
<linearGradient id="SVGID_1_" gradientUnits="userSpaceOnUse" x1="17.125" y1="32.25" x2="17.125" y2="-9.094947e-13">
	<stop  offset="0" style="stop-color:#F6DFAF"/>
	<stop  offset="6.550000e-02" style="stop-color:#F2DDB0"/>
	<stop  offset="0.1225" style="stop-color:#E8D6B3"/>
	<stop  offset="0.2583" style="stop-color:#E4D3B3"/>
	<stop  offset="0.4027" style="stop-color:#D7CBB4"/>
	<stop  offset="0.5375" style="stop-color:#C4BFB5"/>
	<stop  offset="0.6854" style="stop-color:#CFC9C0"/>
	<stop  offset="0.8347" style="stop-color:#DED8CF"/>
	<stop  offset="1" style="stop-color:#FCFDFB"/>
</linearGradient>
<path class="st0" d="M8.9,20.4v-6.9H6.3v-2.1c0.4,0,0.8,0,1.2-0.1c0.4-0.1,0.7-0.1,0.9-0.3c0.3-0.1,0.5-0.3,0.6-0.6
	c0.1-0.2,0.2-0.5,0.3-0.9H12v10.8h2.6v2.3H6.3v-2.3H8.9z M18,16L18,16c-0.7-0.4-1.2-0.9-1.5-1.4c-0.3-0.5-0.4-1.1-0.4-1.8
	c0-0.5,0.1-0.9,0.3-1.4c0.2-0.4,0.5-0.8,0.9-1.1c0.4-0.3,0.9-0.6,1.4-0.8c0.6-0.2,1.2-0.3,2-0.3c0.8,0,1.4,0.1,2,0.3
	c0.6,0.2,1,0.4,1.4,0.7c0.4,0.3,0.7,0.6,0.9,1c0.2,0.4,0.3,0.8,0.3,1.3c0,0.6-0.2,1.2-0.5,1.7c-0.3,0.5-0.9,0.9-1.6,1.3v0.1
	c0.8,0.4,1.4,0.8,1.8,1.4c0.4,0.6,0.6,1.3,0.6,2.1c0,0.6-0.1,1.1-0.3,1.6s-0.5,0.9-1,1.3c-0.4,0.4-0.9,0.6-1.6,0.8
	c-0.6,0.2-1.3,0.3-2.1,0.3c-0.8,0-1.6-0.1-2.2-0.3c-0.6-0.2-1.2-0.5-1.6-0.8c-0.4-0.3-0.7-0.8-0.9-1.2c-0.2-0.5-0.3-1-0.3-1.5
	c0-0.8,0.2-1.4,0.6-1.9C16.7,16.8,17.2,16.3,18,16z M19.1,12.8c0,0.4,0.1,0.6,0.3,0.8s0.4,0.4,0.8,0.6c0.2,0.1,0.3,0.2,0.6,0.3
	c0.2,0.1,0.5,0.2,0.9,0.3c0.2-0.3,0.4-0.6,0.5-0.9c0.1-0.3,0.2-0.6,0.2-1c0-0.4-0.1-0.8-0.4-1.1c-0.3-0.3-0.7-0.4-1.1-0.4
	c-0.5,0-0.8,0.1-1.1,0.4C19.2,12.1,19.1,12.4,19.1,12.8z M18.7,18.7c0,0.6,0.2,1.1,0.6,1.5c0.4,0.4,0.9,0.5,1.5,0.5
	c0.2,0,0.3,0,0.6-0.1c0.2-0.1,0.4-0.1,0.6-0.3c0.2-0.1,0.3-0.3,0.4-0.5c0.1-0.2,0.2-0.4,0.2-0.7c0-0.4-0.1-0.8-0.3-1
	c-0.2-0.2-0.5-0.5-1.1-0.8c-0.2-0.1-0.4-0.2-0.7-0.3s-0.6-0.2-0.8-0.3c-0.2,0.2-0.4,0.5-0.6,0.8C18.8,17.9,18.7,18.3,18.7,18.7z
	 M31.7,15.1v-2.5h-2.1v2.5h-2.5v2.1h2.5v2.6h2.1v-2.6h2.5v-2.1H31.7z M28.5,22.4c-2.4,4.8-7.1,7.7-12.4,7.7c-7.7,0-13.9-6.3-13.9-14
	s6.2-14,13.9-14c5.3,0,10,3,12.4,7.7l0,0.1h2.3l-0.1-0.2C28.2,3.8,22.4,0,16,0C7.2,0,0,7.2,0,16.1C0,25,7.2,32.3,16,32.3
	c6.4,0,12.2-3.8,14.7-9.8l0.1-0.2L28.5,22.4L28.5,22.4z"/>
</svg>
