<svg width="22" height="23" viewBox="0 0 22 23" fill="none" xmlns="http://www.w3.org/2000/svg">
<path d="M11 22.5C17.0751 22.5 22 17.5751 22 11.5C22 5.42487 17.0751 0.5 11 0.5C4.92487 0.5 0 5.42487 0 11.5C0 17.5751 4.92487 22.5 11 22.5Z" fill="#F0F0F0"/>
<path d="M21.3158 15.3261C21.758 14.1344 22 12.8455 22 11.5C22 10.1545 21.758 8.8656 21.3158 7.67395H0.684191C0.242043 8.8656 0 10.1545 0 11.5C0 12.8455 0.242043 14.1344 0.684191 15.3261L11 16.2826L21.3158 15.3261Z" fill="#0052B4"/>
<path d="M11 22.5C15.7296 22.5 19.7616 19.5149 21.3158 15.326H0.684204C2.23843 19.5149 6.2704 22.5 11 22.5Z" fill="#D80027"/>
</svg>
