<svg width="2102" height="526" viewBox="0 0 2102 526" fill="none" xmlns="http://www.w3.org/2000/svg">
<mask id="mask0_1390_190" style="mask-type:luminance" maskUnits="userSpaceOnUse" x="0" y="0" width="2102" height="526">
<path d="M2102 0H0V525.462H2102V0Z" fill="white"/>
</mask>
<g mask="url(#mask0_1390_190)">
<path d="M316.725 262.733H501.165C445.956 192.193 378.028 132.794 300.953 87.6528V234.253C311.468 242.642 316.725 252.799 316.725 262.733Z" fill="#757575"/>
<path d="M316.754 262.723C316.754 272.658 311.497 282.593 300.764 290.983V437.583C377.927 392.57 445.876 333.151 500.975 262.503L316.754 262.723Z" fill="#757575"/>
<path d="M142.836 363.63L50.1777 525.465C138.571 512.67 223.71 482.915 300.988 437.814L175.474 364.734C162.55 369.592 151.378 369.149 142.836 363.63Z" fill="#757575"/>
<path d="M127.706 337.116L0.000357912 262.711C-0.0898195 352.695 16.8613 441.867 49.9437 525.443L142.602 363.61C134.935 358.531 129.678 349.48 127.706 337.116Z" fill="#757575"/>
<path d="M142.602 161.833L50.1631 0C16.9057 83.5319 -0.123615 172.724 0.000675476 262.731L127.706 188.327C129.459 175.963 134.935 166.912 142.602 161.833Z" fill="#757575"/>
<path d="M175.246 160.729L300.761 87.6509C223.496 42.5176 138.35 12.7619 49.9492 0L142.607 161.833C151.37 156.313 162.54 155.651 175.246 160.729Z" fill="#757575"/>
<path d="M184.223 165.154L292.872 229.182C295.792 230.949 298.42 232.714 300.758 234.48V87.8805L175.242 160.96C178.355 162.082 181.361 163.486 184.223 165.154Z" fill="#757575"/>
<path d="M127.048 326.977V198.261C127.035 194.937 127.255 191.617 127.706 188.324L0 262.729L127.706 337.132C127.262 333.765 127.043 330.372 127.048 326.977Z" fill="#757575"/>
<path d="M293.102 296.29L184.452 360.317C181.57 362.011 178.569 363.488 175.471 364.733L300.986 437.812V290.992C298.531 293.007 295.893 294.783 293.102 296.29Z" fill="#757575"/>
<path d="M656.48 283.709V360.983H620.117V163.383H679.918C691.442 163.221 702.938 164.633 714.089 167.578C722.604 169.843 730.577 173.824 737.527 179.28C743.444 184.024 748.108 190.166 751.109 197.162C754.051 204.452 755.539 212.254 755.49 220.124C755.505 226.507 754.467 232.849 752.423 238.89C750.504 244.712 747.615 250.164 743.88 255.007C740.01 259.931 735.431 264.247 730.299 267.813C724.615 271.629 718.418 274.602 711.899 276.644C716.668 279.483 720.778 283.326 723.947 287.904L773.014 360.762H740.157C737.414 360.966 734.673 360.365 732.264 359.034C729.854 357.7 727.879 355.694 726.576 353.256L685.175 290.112C683.965 288.002 682.228 286.251 680.137 285.035C677.535 283.822 674.672 283.292 671.813 283.488H656.48V283.709ZM656.48 257.215H679.26C685.352 257.35 691.423 256.454 697.223 254.567C701.933 253.096 706.267 250.609 709.928 247.28C713.152 244.256 715.691 240.565 717.376 236.462C719.095 232.035 719.915 227.304 719.785 222.552C719.785 212.396 716.499 204.89 709.928 199.37C703.356 193.851 693.279 191.202 679.918 191.202H656.699L656.48 257.215Z" fill="#757575"/>
<path d="M871.395 331.164C877.839 331.207 884.233 330.008 890.233 327.633C895.586 325.422 900.377 322.026 904.252 317.697C908.262 313.171 911.253 307.823 913.014 302.022C915.198 295.405 916.236 288.459 916.081 281.489V163.371H952.443V281.71C952.498 292.857 950.568 303.925 946.747 314.386C943.168 324.031 937.65 332.825 930.538 340.217C923.314 347.684 914.569 353.482 904.909 357.217C883.013 365.459 858.899 365.459 837.004 357.217C827.414 353.347 818.696 347.565 811.375 340.217C804.262 332.825 798.742 324.031 795.165 314.386C791.307 303.934 789.376 292.862 789.47 281.71V163.371H825.832V281.71C825.786 288.674 826.82 295.601 828.899 302.243C830.838 307.967 833.808 313.282 837.66 317.918C841.551 322.285 846.333 325.749 851.68 328.074C858.055 330.118 864.704 331.16 871.395 331.164Z" fill="#757575"/>
<path d="M993.826 360.766V163.388H1061.29C1072.36 163.203 1083.4 164.465 1094.15 167.141C1102.24 169.089 1109.84 172.697 1116.49 177.739C1122.11 182.082 1126.55 187.776 1129.41 194.298C1132.32 201.205 1133.75 208.654 1133.58 216.154C1133.64 220.667 1132.9 225.154 1131.39 229.401C1129.97 233.718 1127.83 237.751 1125.04 241.324C1121.92 245.255 1118.23 248.681 1114.09 251.48C1109.19 254.753 1103.89 257.351 1098.31 259.207C1125.26 265.389 1138.62 279.961 1138.62 303.143C1138.76 311.021 1137.16 318.83 1133.94 326.01C1130.72 333.187 1125.96 339.554 1119.99 344.649C1113.43 350.154 1105.83 354.283 1097.65 356.793C1087.79 359.838 1077.53 361.328 1067.21 361.208L993.826 360.766ZM1030.41 248.83H1059.32C1071.8 248.83 1081.22 246.403 1087.58 241.987C1093.93 237.571 1097.21 230.065 1097.21 220.35C1097.21 209.973 1094.37 202.688 1088.46 198.272C1082.54 193.856 1073.56 191.648 1061.29 191.648H1030.19V248.83H1030.41ZM1030.41 274.22V332.286H1067.21C1072.99 332.399 1078.76 331.58 1084.29 329.858C1088.45 328.474 1092.25 326.216 1095.46 323.234C1098.23 320.646 1100.27 317.372 1101.38 313.74C1102.71 309.984 1103.37 306.026 1103.35 302.038C1103.47 298.095 1102.72 294.174 1101.16 290.558C1099.7 287.183 1097.54 284.169 1094.81 281.727C1091.51 279.111 1087.71 277.23 1083.64 276.207C1078.28 274.788 1072.75 274.119 1067.21 274.22H1030.41Z" fill="#757575"/>
<path d="M1254.08 284.37V360.981H1217.71V284.37L1146.3 163.381H1178.5C1181.26 163.267 1183.97 164.126 1186.17 165.809C1188.17 167.435 1189.81 169.465 1190.99 171.77L1226.69 237.785C1228.88 241.759 1230.63 245.512 1232.17 249.044C1233.7 252.578 1235.24 255.889 1236.55 259.421C1237.86 255.889 1239.18 252.356 1240.72 249.044C1242.24 245.733 1244 241.759 1245.97 238.005L1281.68 171.99C1282.87 169.83 1284.43 167.891 1286.27 166.25C1288.41 164.437 1291.14 163.493 1293.94 163.602H1326.14L1254.08 284.37Z" fill="#757575"/>
<path d="M1441.13 291.208V360.754H1404.76V163.376H1468.5C1479.99 163.135 1491.45 164.7 1502.45 168.012C1511.16 170.622 1519.23 175.061 1526.11 181.038C1532.32 186.409 1537.14 193.232 1540.13 200.908C1546.34 217.575 1546.27 235.959 1539.91 252.572C1536.78 260.416 1531.9 267.437 1525.67 273.104C1518.71 279.18 1510.58 283.762 1501.8 286.572C1491.04 290.028 1479.79 291.667 1468.5 291.429H1441.13V291.208ZM1441.13 262.507H1468.29C1474.23 262.629 1480.16 261.731 1485.8 259.857C1490.43 258.336 1494.69 255.855 1498.3 252.572C1501.59 249.344 1504.13 245.425 1505.74 241.091C1507.48 236.284 1508.29 231.19 1508.15 226.077C1508.19 221.189 1507.38 216.331 1505.74 211.726C1504.12 207.525 1501.57 203.751 1498.3 200.687C1494.76 197.515 1490.57 195.177 1486.03 193.844C1480.27 192.158 1474.28 191.339 1468.29 191.415H1441.13V262.507Z" fill="#757575"/>
<path d="M1611.75 330.503H1688.63L1675.5 360.75H1575.17V163.371H1611.53L1611.75 330.503Z" fill="#757575"/>
<path d="M1885.38 360.761H1857.12C1854.36 360.875 1851.65 360.017 1849.45 358.332C1847.46 356.756 1845.88 354.709 1844.85 352.372L1830.17 312.189H1748.9L1734.23 352.372C1733.32 354.597 1731.89 356.568 1730.06 358.112C1727.91 359.893 1725.19 360.834 1722.41 360.761H1693.92L1771.03 163.162H1808.05L1885.38 360.761ZM1758.55 286.358H1820.98L1797.32 220.565C1795.9 217.172 1794.66 213.709 1793.59 210.188C1792.28 206.214 1790.96 201.799 1789.65 197.163C1788.34 201.799 1787.02 206.214 1785.92 210.188C1784.83 214.163 1783.52 217.695 1782.21 220.785L1758.55 286.358Z" fill="#757575"/>
<path d="M1960.94 284.37V360.981H1924.57V284.37L1853.16 163.381H1885.37C1888.12 163.267 1890.83 164.126 1893.03 165.809C1895.04 167.435 1896.67 169.465 1897.85 171.77L1933.56 237.785C1935.75 241.759 1937.5 245.512 1939.03 249.044C1940.56 252.578 1942.1 255.889 1943.41 259.421C1944.73 255.889 1946.04 252.356 1947.58 249.044C1949.11 245.733 1950.86 241.759 1952.83 238.005L1988.54 171.99C1989.75 169.83 1991.29 167.891 1993.14 166.25C1995.28 164.437 1998.02 163.493 2000.81 163.602H2033L1960.94 284.37Z" fill="#757575"/>
<path d="M2100.9 183.248C2100.24 180.75 2099.21 178.368 2097.84 176.183C2096.55 174.014 2095 172.013 2093.23 170.222C2091.41 168.489 2089.43 166.937 2087.32 165.587C2085.13 164.243 2082.77 163.203 2080.31 162.495C2075.16 160.951 2069.68 160.951 2064.54 162.495C2062.05 163.161 2059.7 164.202 2057.53 165.587C2055.38 166.882 2053.39 168.44 2051.61 170.222C2049.9 172.056 2048.35 174.053 2047.02 176.183C2045.68 178.389 2044.64 180.766 2043.94 183.248C2043.26 185.842 2042.89 188.512 2042.85 191.197C2042.86 193.884 2043.23 196.557 2043.94 199.145C2044.61 201.643 2045.64 204.025 2047.02 206.21C2048.3 208.379 2049.84 210.381 2051.61 212.172C2053.43 213.904 2055.42 215.457 2057.53 216.808C2059.72 218.15 2062.07 219.19 2064.54 219.899C2067.11 220.59 2069.76 220.961 2072.43 221.002C2075.09 220.992 2077.74 220.621 2080.31 219.899C2082.79 219.233 2085.15 218.191 2087.32 216.808C2089.47 215.511 2091.45 213.954 2093.23 212.172C2094.95 210.337 2096.49 208.342 2097.84 206.21C2099.17 204.005 2100.2 201.628 2100.9 199.145C2101.58 196.551 2101.95 193.882 2101.99 191.197C2102.09 188.504 2101.72 185.813 2100.9 183.248ZM2050.08 184.573C2050.62 182.556 2051.43 180.625 2052.49 178.832C2053.48 177.034 2054.74 175.396 2056.21 173.975C2057.61 172.472 2059.24 171.204 2061.03 170.222C2062.76 169.059 2064.69 168.235 2066.72 167.794C2068.79 167.161 2070.93 166.863 2073.08 166.91C2075.22 166.972 2077.35 167.268 2079.43 167.794C2081.42 168.374 2083.33 169.19 2085.13 170.222C2086.83 171.349 2088.44 172.604 2089.94 173.975C2091.37 175.441 2092.62 177.071 2093.67 178.832C2094.69 180.644 2095.5 182.572 2096.08 184.573C2096.71 186.647 2097 188.809 2096.96 190.976C2096.95 194.221 2096.36 197.437 2095.21 200.47C2093.99 203.327 2092.29 205.944 2090.17 208.197C2088.07 210.403 2085.53 212.133 2082.72 213.275C2079.82 214.585 2076.69 215.262 2073.52 215.262C2070.34 215.262 2067.21 214.585 2064.32 213.275C2061.6 211.973 2059.09 210.261 2056.87 208.197C2054.66 205.925 2052.92 203.233 2051.76 200.276C2050.59 197.319 2050.02 194.157 2050.08 190.976C2049.53 188.877 2049.53 186.671 2050.08 184.573Z" fill="#757575"/>
<path d="M2080.51 194.716C2080.11 194.159 2079.59 193.706 2078.97 193.391C2081.15 192.765 2083.08 191.448 2084.45 189.637C2085.69 187.905 2086.3 185.805 2086.21 183.677C2086.29 182.252 2086.04 180.828 2085.47 179.522C2084.89 178.216 2084.03 177.067 2082.93 176.17C2079.8 174.143 2076.1 173.213 2072.41 173.52H2060.14V208.183H2068.46V195.599H2070.65C2071.2 195.612 2071.72 195.764 2072.19 196.04C2072.58 196.214 2072.89 196.529 2073.07 196.924L2078.54 207.079C2078.77 207.512 2079.12 207.867 2079.55 208.101C2079.98 208.336 2080.46 208.441 2080.95 208.404H2088.83L2081.83 196.482C2081.3 195.964 2080.86 195.369 2080.51 194.716ZM2077.89 186.988C2077.65 187.65 2077.28 188.253 2076.79 188.755C2076.24 189.295 2075.56 189.677 2074.82 189.858C2073.75 190.143 2072.64 190.292 2071.53 190.3H2068.03V180.365H2072.19C2073.16 180.349 2074.12 180.498 2075.03 180.806C2075.7 180.915 2076.31 181.223 2076.79 181.69C2077.2 182.121 2077.51 182.652 2077.66 183.234C2077.86 183.953 2077.93 184.7 2077.89 185.442C2078.1 185.442 2078.1 186.326 2077.89 186.988Z" fill="#757575"/>
</g>
</svg>
