<svg width="18" height="18" viewBox="0 0 18 18" fill="none" xmlns="http://www.w3.org/2000/svg">
  <path fill-rule="evenodd" clip-rule="evenodd" d="M7.80683 15.9774C9.77176 15.9774 11.5671 15.2345 12.9394 14.0083L16.4373 17.7161C16.7804 18.0798 17.3531 18.0962 17.7164 17.7528C18.0797 17.4093 18.0961 16.8361 17.753 16.4724L14.1474 12.6503C15.0701 11.3384 15.6137 9.7285 15.6137 7.98868C15.6137 3.57665 12.1184 0 7.80683 0C3.49524 0 0 3.57665 0 7.98868C0 12.4007 3.49524 15.9774 7.80683 15.9774ZM7.80683 14.1659C11.0816 14.1659 13.804 11.438 13.804 7.98868C13.804 4.53932 11.0816 1.81149 7.80683 1.81149C4.53202 1.81149 1.80965 4.53932 1.80965 7.98868C1.80965 11.438 4.53202 14.1659 7.80683 14.1659Z" fill="url(#paint0_linear_3149_406)"/>
  <defs>
    <linearGradient id="paint0_linear_3149_406" x1="9.00394" y1="17.9941" x2="9.00394" y2="0.00200541" gradientUnits="userSpaceOnUse">
      <stop stop-color="#F0C788"/>
      <stop offset="0.25" stop-color="#E5C18B"/>
      <stop offset="0.5" stop-color="#ACA498"/>
      <stop offset="0.75" stop-color="#D6CDC3"/>
      <stop offset="1" stop-color="#E6E6E6"/>
    </linearGradient>
  </defs>
</svg>
