<svg width="763" height="471" viewBox="0 0 763 471" fill="none" xmlns="http://www.w3.org/2000/svg">
<path opacity="0.956" fill-rule="evenodd" clip-rule="evenodd" d="M380.685 0.0304451C381.419 -0.0533302 382.132 0.0357913 382.824 0.297756C414.265 20.6728 443.224 44.2854 469.7 71.1352C482.247 84.2142 492.94 98.649 501.777 114.44C514.844 139.021 519.121 165.038 514.608 192.495C504.713 234.491 478.071 254.807 434.682 253.441C439.358 261.414 445.951 267.206 454.463 270.817C466.826 275.64 479.657 277.867 492.956 277.499C492.956 282.489 492.956 287.479 492.956 292.469C477.635 292.839 462.844 290.255 448.582 284.717C427.172 275.121 416.123 258.637 415.436 235.264C431.143 238.895 446.825 238.806 462.482 234.997C475.22 230.987 484.932 223.235 491.619 211.741C502.365 190.706 504.503 168.787 498.035 145.982C492.42 127.083 483.331 110.153 470.769 95.1932C455.476 77.2267 438.636 60.9207 420.247 46.2753C407.66 36.2846 394.74 26.7504 381.487 17.673C353.263 36.7937 327.066 58.5352 302.898 82.8969C289.698 96.633 279.006 112.137 270.82 129.409C261.873 149.124 259.379 169.618 263.336 190.891C270.768 222.644 290.816 238.326 323.481 237.937C331.606 237.927 339.625 237.036 347.539 235.264C346.852 258.634 335.803 275.119 314.392 284.717C300.13 290.255 285.34 292.839 270.018 292.469C270.018 287.479 270.018 282.489 270.018 277.499C283.318 277.867 296.149 275.64 308.511 270.817C317.023 267.206 323.616 261.414 328.292 253.441C278.943 253.724 251.767 229.31 246.762 180.198C245.6 151.612 252.906 125.416 268.682 101.609C281.61 83.3268 296.49 66.6647 313.323 51.6215C334.658 32.8585 357.112 15.6614 380.685 0.0304451Z" fill="#757575"/>
<path opacity="0.958" fill-rule="evenodd" clip-rule="evenodd" d="M380.685 25.6924C381.248 25.6125 381.782 25.7016 382.289 25.9597C411.869 46.2625 438.868 69.6972 463.284 96.2626C475.2 109.747 484.11 125.072 490.015 142.24C495.407 159.743 495.942 177.386 491.619 195.168C483.727 220.229 466.53 232.346 440.028 231.522C429.371 231.094 418.857 229.669 408.485 227.245C407.432 261.574 423.292 283.939 456.067 294.34C468.129 297.741 480.425 299.256 492.956 298.884C492.956 303.874 492.956 308.864 492.956 313.854C471.231 314.731 450.738 310.187 431.474 300.221C406.548 285.247 393.717 263.149 392.981 233.928C393.208 225.241 393.921 216.598 395.12 207.999C406.207 211.172 417.434 213.755 428.801 215.751C439.363 217.332 449.699 216.441 459.809 213.078C463.375 211.472 466.493 209.245 469.165 206.395C477.637 194.786 481.202 181.777 479.858 167.367C478.355 151.988 473.543 137.732 465.423 124.598C453.567 107.389 439.757 91.7958 423.989 77.8181C410.261 65.9238 396.093 54.6075 381.487 43.8696C359.043 60.0665 338.014 78.0656 318.402 97.8664C306.894 109.647 297.627 123.013 290.601 137.963C284.2 152.125 281.883 166.916 283.651 182.337C285.175 193.854 290.254 203.388 298.888 210.939C305.048 214.306 311.642 216.088 318.669 216.285C328.048 216.619 337.314 215.728 346.469 213.612C353.592 211.683 360.721 209.812 367.854 207.999C369.053 216.598 369.766 225.241 369.993 233.928C368.277 269.504 350.813 293.74 317.6 306.637C302.173 311.857 286.312 314.263 270.018 313.854C270.018 308.864 270.018 303.874 270.018 298.884C289.294 299.752 307.471 295.742 324.55 286.855C346.241 272.965 356.221 253.095 354.489 227.245C340.776 230.751 326.875 231.909 312.788 230.72C296.702 229.397 284.673 221.823 276.701 207.999C268.877 192.262 266.382 175.689 269.216 158.279C273.691 134.718 283.848 114.047 299.69 96.2626C316.451 77.5374 334.718 60.5188 354.489 45.2061C363.168 38.5687 371.9 32.0641 380.685 25.6924Z" fill="#757575"/>
<path opacity="0.896" fill-rule="evenodd" clip-rule="evenodd" d="M504.182 288.192C510.954 288.192 517.725 288.192 524.497 288.192C524.497 289.439 524.497 290.687 524.497 291.934C521.824 291.934 519.151 291.934 516.478 291.934C516.478 299.241 516.478 306.547 516.478 313.854C515.231 313.854 513.983 313.854 512.736 313.854C512.736 306.547 512.736 299.241 512.736 291.934C509.884 291.934 507.033 291.934 504.182 291.934C504.182 290.687 504.182 289.439 504.182 288.192Z" fill="#757575"/>
<path opacity="0.891" fill-rule="evenodd" clip-rule="evenodd" d="M527.705 288.192C529.667 288.192 531.624 288.192 533.586 288.192C535.778 294.36 538.275 300.419 541.071 306.369C543.712 300.554 546.203 294.674 548.555 288.726C550.485 288.198 552.442 288.019 554.436 288.192C554.436 296.746 554.436 305.3 554.436 313.854C553.191 313.854 551.94 313.854 550.694 313.854C550.785 307.436 550.694 301.02 550.427 294.607C547.844 300.845 545.257 307.082 542.675 313.319C541.605 314.032 540.536 314.032 539.467 313.319C536.831 307.104 534.249 300.866 531.715 294.607C531.447 301.02 531.357 307.436 531.447 313.854C530.202 313.854 528.951 313.854 527.705 313.854C527.705 305.3 527.705 296.746 527.705 288.192Z" fill="#757575"/>
<path opacity="0.941" fill-rule="evenodd" clip-rule="evenodd" d="M258.79 342.189C259.768 369.092 260.214 396.18 260.126 423.451C260.311 429.535 263.163 431.496 268.68 429.332C269.208 430.55 269.653 431.797 270.017 433.074C263.892 435.455 257.655 437.593 251.305 439.49C250.126 438.749 249.324 437.68 248.899 436.282C248.476 434.433 247.942 432.651 247.295 430.936C242.77 433.867 238.048 436.451 233.128 438.688C217.152 440.539 206.37 433.857 200.783 418.64C197.35 407.018 198.597 395.968 204.526 385.493C210.007 377.881 217.403 373.336 226.713 371.86C231.702 371.504 236.692 371.504 241.682 371.86C243.604 372.172 245.475 372.618 247.295 373.197C247.652 366.425 247.652 359.653 247.295 352.881C246.796 351.49 245.816 350.688 244.355 350.475C242.045 350.209 239.728 350.119 237.405 350.208C237.405 348.782 237.405 347.357 237.405 345.931C244.859 346.167 251.987 344.919 258.79 342.189ZM232.059 375.87C238.413 375.884 243.492 378.379 247.295 383.355C247.652 396.007 247.652 408.66 247.295 421.313C246.852 424.606 245.159 427.012 242.217 428.53C233.256 433.853 225.504 432.517 218.96 424.521C210.541 410.967 210.185 397.245 217.891 383.355C221.668 378.928 226.391 376.433 232.059 375.87Z" fill="#757575"/>
<path opacity="0.938" fill-rule="evenodd" clip-rule="evenodd" d="M25.1606 345.397C30.8811 345.293 36.5837 345.56 42.2686 346.199C44.3808 346.485 46.252 347.287 47.8821 348.605C48.1494 354.839 48.2387 361.077 48.1494 367.316C46.9021 367.316 45.6545 367.316 44.4071 367.316C43.0747 355.019 36.3028 349.584 24.0914 351.01C17.8345 353.087 14.6268 357.453 14.4682 364.109C14.6606 366.126 15.1061 368.086 15.8048 369.99C17.0522 371.593 18.2997 373.197 19.5471 374.801C27.6556 381.127 35.764 387.454 43.8724 393.78C55.7582 403.722 57.8074 415.394 50.0206 428.798C45.3986 434.096 39.6068 437.393 32.6454 438.688C23.0965 440.06 13.6516 439.525 4.31037 437.085C2.86908 436.676 1.53253 436.052 0.300703 435.213C0.0334448 428.265 -0.0556768 421.315 0.0333914 414.363C1.28083 414.363 2.52831 414.363 3.77575 414.363C5.90756 430.751 14.9961 437.078 31.0415 433.342C38.3077 429.593 41.4263 423.623 40.3974 415.432C39.8481 412.534 38.7788 409.861 37.1897 407.413C34.962 405.185 32.7345 402.958 30.5069 400.73C23.3786 395.384 16.2503 390.038 9.12197 384.692C1.2711 377.974 -0.956462 369.687 2.43919 359.832C4.87761 354.364 8.88727 350.532 14.4682 348.337C18.0063 347.009 21.5704 346.029 25.1606 345.397Z" fill="#757575"/>
<path opacity="0.925" fill-rule="evenodd" clip-rule="evenodd" d="M592.931 347.535C600.683 348.433 603.266 352.532 600.683 359.831C598.096 362.891 594.797 363.871 590.793 362.772C584.96 358.549 584.602 353.916 589.724 348.872C590.852 348.42 591.921 347.974 592.931 347.535Z" fill="#757575"/>
<path opacity="0.962" fill-rule="evenodd" clip-rule="evenodd" d="M600.414 370.524C600.74 389.866 601.184 409.291 601.75 428.798C601.959 430.612 602.942 431.77 604.691 432.273C606.99 432.834 609.31 433.28 611.641 433.609C611.641 434.857 611.641 436.104 611.641 437.352C600.59 437.352 589.545 437.352 578.494 437.352C578.494 436.104 578.494 434.857 578.494 433.609C581.873 433.525 584.995 432.634 587.85 430.936C588.422 429.02 588.78 427.06 588.919 425.055C589.01 418.283 589.096 411.512 589.187 404.74C589.256 397.227 588.989 389.742 588.385 382.285C587.738 381.457 586.936 380.834 585.979 380.414C583.493 380.148 580.996 380.058 578.494 380.147C578.494 378.9 578.494 377.652 578.494 376.405C583.375 376.066 588.187 375.264 592.929 373.999C595.666 373.253 598.158 372.095 600.414 370.524Z" fill="#757575"/>
<path opacity="0.948" fill-rule="evenodd" clip-rule="evenodd" d="M637.302 370.524C637.746 373.992 638.013 377.556 638.104 381.216C649.059 370.828 661.622 368.244 675.795 373.464C680.97 377.379 683.376 382.637 683.013 389.236C683.189 402.423 683.371 415.61 683.547 428.798C683.943 430.441 684.921 431.599 686.488 432.273C688.786 432.834 691.107 433.28 693.438 433.609C693.438 434.857 693.438 436.104 693.438 437.352C682.569 437.352 671.695 437.352 660.826 437.352C660.826 436.104 660.826 434.857 660.826 433.609C662.98 433.268 665.119 432.822 667.241 432.273C668.61 431.906 669.588 431.105 670.182 429.867C670.77 423.116 671.037 416.344 670.984 409.551C671.032 402.582 670.764 395.632 670.182 388.701C668.727 381.285 664.183 377.721 656.549 378.009C647.171 378.211 641.382 382.844 639.174 391.909C637.666 404.183 637.484 416.479 638.639 428.798C638.783 429.775 639.232 430.577 639.975 431.203C642.526 432.42 645.199 433.222 647.995 433.609C648.513 434.808 648.695 436.056 648.529 437.352C637.479 437.352 626.433 437.352 615.383 437.352C615.383 436.104 615.383 434.857 615.383 433.609C618.82 433.398 621.943 432.328 624.739 430.402C625.311 428.485 625.669 426.526 625.808 424.521C625.899 417.838 625.984 411.155 626.075 404.472C626.145 397.049 625.877 389.653 625.273 382.285C624.733 381.345 623.931 380.721 622.868 380.414C620.376 380.059 617.885 379.791 615.383 379.612C615.383 378.365 615.383 377.117 615.383 375.87C623.22 376.005 630.523 374.223 637.302 370.524Z" fill="#757575"/>
<path opacity="0.929" fill-rule="evenodd" clip-rule="evenodd" d="M725.515 370.524C731.824 370.769 738.057 371.482 744.227 372.662C750.017 372.558 755.721 371.845 761.335 370.524C762.281 370.935 762.816 371.648 762.939 372.662C762.099 374.572 761.03 376.354 759.731 378.009C755.465 378.453 751.188 378.721 746.9 378.81C751.589 384.972 752.925 391.833 750.91 399.393C747.381 408.624 740.698 413.881 730.861 415.165C727.654 415.343 724.446 415.521 721.238 415.699C718.768 417.084 717.79 419.133 718.298 421.848C718.565 422.115 718.832 422.382 719.1 422.649C726.648 424.769 734.315 426.373 742.088 427.461C756.555 430.533 761.634 439.176 757.325 453.39C753.385 461.428 747.06 466.507 738.346 468.627C726.697 471.315 715.828 469.533 705.734 463.281C698.372 457.35 696.052 449.866 698.784 440.827C703.061 438.51 707.338 436.193 711.615 433.877C708.99 432.963 706.761 431.448 704.932 429.332C704.184 427.423 704.002 425.462 704.397 423.451C708.359 420.091 712.369 416.794 716.426 413.561C703.334 407.242 699.147 397.174 703.863 383.355C708.824 375.305 716.042 371.028 725.515 370.524ZM724.446 374.801C730.941 373.995 735.309 376.668 737.544 382.82C740.383 391.462 739.848 399.838 735.94 407.947C731.759 411.665 727.215 412.11 722.307 409.284C716.245 402.702 714.021 394.95 715.625 386.028C716.544 380.59 719.485 376.847 724.446 374.801ZM718.565 434.678C725.157 435.908 731.754 437.245 738.346 438.688C745.547 440.704 748.664 445.426 747.702 452.856C746.071 457.872 742.778 461.347 737.811 463.281C729.541 466.147 721.698 465.256 714.288 460.608C708.429 455.431 707.092 449.283 710.278 442.163C712.823 439.345 715.587 436.85 718.565 434.678Z" fill="#757575"/>
<path opacity="0.936" fill-rule="evenodd" clip-rule="evenodd" d="M80.2253 371.594C80.7599 371.594 81.2945 371.594 81.8292 371.594C81.7404 374.628 81.8297 377.658 82.0965 380.682C89.6314 372.825 98.8093 369.884 109.63 371.861C120.036 374.426 126.54 380.931 129.143 391.375C132.847 406.924 129.193 420.378 118.183 431.739C107.132 440.075 95.1033 441.769 82.0965 436.817C81.5945 445.578 81.7725 454.31 82.6311 463.014C83.2801 463.842 84.0821 464.465 85.0369 464.885C88.1746 465.851 91.3823 466.297 94.6601 466.222C94.6601 467.648 94.6601 469.073 94.6601 470.499C82.7204 470.499 70.7801 470.499 58.8404 470.499C58.6971 469.099 58.8751 467.762 59.375 466.489C62.6063 466.285 65.5467 465.305 68.1963 463.549C68.3743 463.014 68.5529 462.479 68.7309 461.945C69.3366 448.506 69.6039 435.052 69.5328 421.581C69.6114 408.635 69.3441 395.715 68.7309 382.821C68.0819 381.992 67.2799 381.369 66.3251 380.949C63.8364 380.683 61.3419 380.593 58.8404 380.682C58.5955 379.135 58.9521 377.798 59.9096 376.672C67.1222 376.473 73.8943 374.78 80.2253 371.594ZM95.1947 378.009C106.381 377.769 113.243 383.116 115.778 394.048C117.617 402.286 117.438 410.484 115.243 418.64C111.177 432.123 102.355 437.024 88.7792 433.342C86.4114 432.219 84.1842 430.882 82.0965 429.333C81.7399 417.749 81.7399 406.166 82.0965 394.582C82.6808 385.872 87.0471 380.347 95.1947 378.009Z" fill="#757575"/>
<path opacity="0.933" fill-rule="evenodd" clip-rule="evenodd" d="M155.608 371.593C161.34 371.393 167.043 371.66 172.716 372.395C180.047 374.56 184.057 379.461 184.745 387.097C184.775 400.66 185.132 414.204 185.814 427.729C186.234 428.684 186.857 429.485 187.685 430.134C189.734 430.542 191.694 430.275 193.566 429.333C194.623 430.776 194.801 432.291 194.101 433.877C188.276 435.64 182.484 437.511 176.725 439.49C175.457 438.576 174.567 437.328 174.052 435.748C173.518 433.788 172.983 431.828 172.448 429.867C167.951 433.142 163.228 436.083 158.281 438.688C145.05 440.879 137.743 435.266 136.361 421.848C136.629 414.624 139.836 409.189 145.985 405.542C154.565 401.524 163.297 397.87 172.181 394.582C173.072 389.502 172.27 384.69 169.775 380.147C166.036 376.142 161.67 375.34 156.677 377.741C153.183 380.818 150.332 384.382 148.123 388.434C145.777 388.627 143.549 388.182 141.44 387.097C141.385 383.572 142.098 380.186 143.579 376.94C144.404 375.936 145.384 375.134 146.519 374.534C149.533 373.294 152.562 372.315 155.608 371.593ZM171.112 400.463C171.646 400.463 172.181 400.463 172.716 400.463C172.804 405.812 172.716 411.159 172.448 416.502C172.082 421.243 170.211 425.252 166.835 428.531C160.881 432.222 155.446 431.598 150.529 426.659C147.176 418.186 149.403 411.503 157.212 406.611C161.832 404.393 166.466 402.344 171.112 400.463Z" fill="#757575"/>
<path opacity="0.936" fill-rule="evenodd" clip-rule="evenodd" d="M297.818 371.593C314.357 369.003 324.426 375.774 328.024 391.909C328.321 395.296 328.589 398.682 328.826 402.067C314.926 402.067 301.026 402.067 287.125 402.067C286.372 412.745 290.114 421.389 298.352 427.996C307.721 432.772 316.988 432.505 326.153 427.194C327.236 428.373 328.127 429.709 328.826 431.204C323.496 433.868 318.15 436.541 312.787 439.223C287.945 440.848 274.936 429.176 273.76 404.205C273.755 390.252 279.814 380.005 291.937 373.464C293.944 372.765 295.904 372.141 297.818 371.593ZM298.887 376.405C309.455 374.904 315.514 379.359 317.064 389.77C316.64 394.026 314.323 396.431 310.114 396.988C302.453 397.255 294.79 397.344 287.125 397.255C286.839 389.642 289.512 383.315 295.145 378.276C296.441 377.628 297.689 377.004 298.887 376.405Z" fill="#757575"/>
<path opacity="0.929" fill-rule="evenodd" clip-rule="evenodd" d="M357.697 371.593C362.156 371.504 366.611 371.593 371.063 371.86C379.519 373.555 387.984 373.466 396.457 371.593C397.856 371.394 398.836 371.928 399.398 373.197C398.349 375.206 397.101 377.077 395.655 378.81C391.545 378.901 387.446 379.168 383.359 379.612C389.603 388.661 389.693 397.749 383.626 406.878C376.413 414.333 367.591 417.452 357.162 416.234C354.969 417.845 354.078 419.895 354.489 422.382C355.471 423.141 356.54 423.765 357.697 424.253C364.44 425.649 371.212 426.897 378.013 427.996C392.175 430.926 397.432 439.391 393.784 453.39C389.342 462.46 382.125 467.896 372.132 469.696C361.146 471.779 350.989 469.819 341.658 463.815C334.97 458.008 332.564 450.791 334.441 442.163C338.855 439.376 343.399 436.792 348.074 434.411C341.876 433.13 339.56 429.477 341.124 423.451C344.788 420.232 348.53 417.113 352.351 414.095C340.412 408.303 336.045 398.947 339.253 386.028C341.644 380.072 345.833 375.884 351.816 373.464C353.823 372.764 355.784 372.141 357.697 371.593ZM360.905 375.335C368.696 375.011 373.241 378.753 374.538 386.562C376.008 393.691 375.474 400.641 372.934 407.413C370.09 411.391 366.259 412.727 361.439 411.422C356.178 408.673 353.059 404.307 352.083 398.324C350.569 391.988 351.282 385.928 354.222 380.147C355.986 377.804 358.213 376.2 360.905 375.335ZM354.489 435.748C360.404 436.485 366.285 437.465 372.132 438.688C383.797 441.438 386.916 448.121 381.488 458.736C373.731 465.688 364.91 467.381 355.024 463.815C344.982 458.994 342.398 451.598 347.272 441.629C349.624 439.539 352.029 437.578 354.489 435.748Z" fill="#757575"/>
<path opacity="0.93" fill-rule="evenodd" clip-rule="evenodd" d="M418.108 371.593C422.923 371.504 427.734 371.593 432.543 371.86C442.248 373.549 447.148 379.34 447.245 389.235C447.423 401.532 447.601 413.828 447.779 426.124C447.842 427.948 448.644 429.285 450.185 430.134C452.147 430.475 454.018 430.208 455.799 429.332C456.409 430.497 456.855 431.744 457.135 433.074C451.183 435.565 445.035 437.703 438.691 439.49C437.718 438.621 437.006 437.551 436.552 436.282C435.928 434.141 435.304 432.002 434.681 429.867C429.739 433.674 424.393 436.793 418.642 439.223C406.124 440.159 399.531 434.367 398.861 421.847C399.172 413.3 403.271 407.33 411.158 403.938C418.935 400.662 426.776 397.543 434.681 394.582C435.298 389.725 434.496 385.092 432.275 380.681C426.612 374.482 420.909 374.66 415.167 381.216C413.853 383.757 412.338 386.163 410.623 388.434C408.123 388.544 405.717 388.099 403.406 387.097C403.735 383.426 404.627 379.862 406.079 376.404C409.816 374.003 413.826 372.399 418.108 371.593ZM434.681 399.928C435.64 407.419 435.194 414.904 433.344 422.382C429.114 430.902 422.788 432.952 414.365 428.53C410.208 422.858 410.118 417.066 414.098 411.155C416.351 409.08 418.757 407.208 421.315 405.541C425.846 403.709 430.301 401.838 434.681 399.928Z" fill="#757575"/>
<path opacity="0.948" fill-rule="evenodd" clip-rule="evenodd" d="M481.192 371.594C481.727 371.594 482.261 371.594 482.796 371.594C482.707 374.984 482.796 378.37 483.063 381.751C492.606 371.467 503.922 368.883 517.012 373.999C519.518 376.428 521.567 379.19 523.16 382.286C533.195 371.289 545.047 368.706 558.712 374.534C561.76 377.149 563.631 380.446 564.326 384.425C564.828 399.943 565.363 415.447 565.93 430.937C566.197 431.917 566.823 432.541 567.801 432.808C570.26 433.495 572.752 433.941 575.286 434.144C575.286 435.392 575.286 436.64 575.286 437.887C564.417 437.887 553.543 437.887 542.674 437.887C542.674 436.64 542.674 435.392 542.674 434.144C545.031 433.93 547.352 433.484 549.624 432.808C550.784 432.363 551.586 431.561 552.03 430.402C552.885 417.947 553.067 405.473 552.564 392.979C551.586 380.435 545.079 376.247 533.05 380.415C527.736 383.814 524.797 388.714 524.229 395.117C523.718 407.084 523.896 419.024 524.764 430.937C525.303 431.877 526.105 432.501 527.17 432.808C529.442 433.484 531.762 433.93 534.12 434.144C534.12 435.392 534.12 436.64 534.12 437.887C523.249 437.887 512.378 437.887 501.508 437.887C501.508 436.64 501.508 435.392 501.508 434.144C503.866 433.93 506.184 433.484 508.458 432.808C509.616 432.363 510.418 431.561 510.864 430.402C511.721 417.947 511.899 405.473 511.398 392.979C510.961 381.127 504.991 376.761 493.488 379.88C488.912 381.462 485.972 384.581 484.667 389.236C483.857 392.217 483.323 395.246 483.063 398.325C482.554 409.223 482.732 420.094 483.598 430.937C484.137 431.877 484.939 432.501 486.004 432.808C488.278 433.484 490.595 433.93 492.954 434.144C492.954 435.392 492.954 436.64 492.954 437.887C482.083 437.887 471.212 437.887 460.342 437.887C460.342 436.64 460.342 435.392 460.342 434.144C462.701 433.93 465.018 433.484 467.292 432.808C468.45 432.363 469.252 431.561 469.698 430.402C470.299 422.317 470.566 414.208 470.5 406.077C470.576 398.29 470.308 390.538 469.698 382.821C468.993 381.758 468.013 381.135 466.757 380.95C464.626 380.683 462.488 380.593 460.342 380.682C460.342 379.435 460.342 378.187 460.342 376.94C467.766 376.733 474.716 374.951 481.192 371.594Z" fill="#757575"/>
</svg>
