<?xml version="1.0" encoding="utf-8"?>
<!-- Generator: Adobe Illustrator 24.1.0, SVG Export Plug-In . SVG Version: 6.00 Build 0)  -->
<svg version="1.1" id="Слой_1" xmlns="http://www.w3.org/2000/svg" xmlns:xlink="http://www.w3.org/1999/xlink" x="0px" y="0px"
	 width="486px" height="167px" viewBox="0 0 486 167" style="enable-background:new 0 0 486 167;" xml:space="preserve">
<style type="text/css">
	.st0{fill:#626262;}
</style>
<g>
	<path class="st0" d="M50,161.9c0-6,0-11.5,0-17.4c128.6,0,257.1,0,386,0c0,5.6,0,11.4,0,17.4C307.4,161.9,179,161.9,50,161.9z"/>
	<path class="st0" d="M304.8,6.7c12.9,0,25.6-0.7,38.2,0.2c13,1,20.3,8.2,22,21.1c0.9,6.8,0.6,13.8,0,20.6
		c-0.8,7.7-4.7,13.9-12.2,18c11.9,5.8,14.8,15.9,14.9,27.5c0,4.2,0.1,8.4,0,12.6c-0.4,17.5-9.8,27.7-27.4,28.7
		c-11.6,0.6-23.3,0.1-35.4,0.1C304.8,92.8,304.8,50,304.8,6.7z M325.1,116.9c4.9,0,9.6,0.2,14.3-0.1c3.7-0.2,6.8-2.5,6.9-6.2
		c0.3-8.6,0.4-17.3-0.5-25.9c-0.2-2.3-3.7-5.4-6.3-6.1c-4.5-1.3-9.5-1-14.4-1.3C325.1,91,325.1,103.9,325.1,116.9z M325.1,58.9
		c3.7,0,7,0.3,10.1-0.1c4.5-0.5,8.6-2.5,9.1-7.4c0.6-6.4,0.6-13,0-19.5c-0.4-4.3-3.7-6.7-8-7.1c-3.6-0.3-7.3-0.1-11.2-0.1
		C325.1,36.4,325.1,47.4,325.1,58.9z"/>
	<path class="st0" d="M256.7,135.5c-6.4,0-13,0-20.3,0c-0.5-4.3-1.3-8.8-1.5-13.2c-0.3-6.9-0.1-13.8-0.1-20.7
		c-0.1-16-3.7-19.3-20.2-18.2c0,17.2,0,34.4,0,52c-7,0-13.5,0-20.3,0c0-42.9,0-85.7,0-128.5c13.3,0,26.5-0.9,39.5,0.3
		c12.5,1.1,19.1,8.2,20.6,20.7c1,8.6,0.7,17.5,0.1,26.2c-0.6,7.9-4.8,14.2-12.3,18.5c9.7,5.5,12.7,14.1,12.9,24
		c0.2,8.2,0,16.5,0.3,24.7C255.5,125.9,256.2,130.6,256.7,135.5z M214.4,64.4c3.4,0,6.5,0.2,9.5,0c6.5-0.5,10-3.5,10.4-10.1
		c0.5-6.5,0.4-13.1,0-19.6c-0.2-4.6-2.4-8.8-7.5-9.5c-4-0.6-8.2-0.1-12.4-0.1C214.4,38.3,214.4,51,214.4,64.4z"/>
	<path class="st0" d="M123.6,135.4c0-43,0-85.6,0-129c3.6,0,7.1,0,10.6,0c7.6,0,15.2-0.1,22.8,0.1c14.9,0.5,24.6,8.2,26.3,22.8
		c1.3,11.4,1.3,23.3,0,34.7C181.6,79,172,86.3,156,87.2c-3.8,0.2-7.7,0-12,0c0,16.4,0,32.1,0,48.2
		C137.1,135.4,130.6,135.4,123.6,135.4z M144.3,25.2c0,14.4,0,28.6,0,43.4c3,0,5.6,0.1,8.3,0c7.8-0.2,10.7-3,10.9-10.7
		c0.2-5.4,0.1-10.8,0.1-16.2c0-15.8-2-17.7-17.9-16.9C145.4,24.9,145.1,25,144.3,25.2z"/>
	<path class="st0" d="M71,96.7c0.3,5,0.4,9.3,1,13.6c0.9,5.8,4.2,8.5,9.5,8.4c5.1-0.1,8-2.7,9.1-8.3c1.4-7-0.1-13.6-4.7-18.9
		c-6.9-8-14.3-15.7-21.7-23.3C53.2,56.6,48.8,43.2,52,27.5C54.8,13.5,65.8,5,81.4,4.8C96.8,4.5,107,12,110.2,26.3
		c1,4.7,1.2,9.6,1.8,14.8c-6.9,0-13.1,0-19.4,0c-0.3-3.3-0.5-6.5-1-9.6c-0.9-5.4-4-7.9-9.3-8.1c-5.7-0.1-8.9,2.3-10.1,7.8
		c-1.9,8.2,0.6,15.5,5.9,21.5c5.1,5.8,10.8,11.1,16.5,16.4c12.9,12,19.7,26.2,16.5,44.2c-2.8,15.7-13.2,23.9-30.2,23.6
		c-16.5-0.3-28-9.9-29.8-25.2c-0.5-4.8-0.1-9.7-0.1-15.2c3.3,0,6.7,0,10,0C64.1,96.7,67.3,96.7,71,96.7z"/>
	<path class="st0" d="M401.1,117.2c11.5,0,22.9,0,34.7,0c0,6.4,0,12.2,0,18.3c-18.5,0-36.8,0-55.4,0c0-42.9,0-85.6,0-128.7
		c18.4,0,36.7,0,55.4,0c0,5.7,0,11.5,0,17.8c-11.4,0-22.8,0-34.6,0c0,12.2,0,23.8,0,36.2c9,0,18,0,27.3,0c0,6.5,0,12.2,0,18.4
		c-9.1,0-18,0-27.3,0C401.1,92,401.1,104.3,401.1,117.2z"/>
	<path class="st0" d="M269.1,135.4c0-42.9,0-85.6,0-128.6c6.5,0,13,0,19.9,0c0,42.7,0,85.4,0,128.6
		C282.7,135.4,276.2,135.4,269.1,135.4z"/>
</g>
</svg>
