<?xml version="1.0" encoding="utf-8"?>
<!-- Generator: Adobe Illustrator 24.2.1, SVG Export Plug-In . SVG Version: 6.00 Build 0)  -->
<svg version="1.1" id="Слой_1" xmlns="http://www.w3.org/2000/svg" xmlns:xlink="http://www.w3.org/1999/xlink" x="0px" y="0px"
	 viewBox="0 0 18 24" style="enable-background:new 0 0 18 24;" xml:space="preserve">
<style type="text/css">
	.st0{fill:#E4C892;}
</style>
<g>
	<path class="st0" d="M15.321,7.809c-0.595-0.439-1.272-0.8-2.019-1.081c0.208-0.171,0.409-0.352,0.601-0.544
		c0.817-0.816,1.447-1.791,1.823-2.818c0.367-1.006,0.485-2.04,0.34-2.992c-0.025-0.162-0.152-0.29-0.315-0.314
		c-0.952-0.145-1.988-0.028-2.994,0.339c-1.028,0.375-2.004,1.005-2.821,1.821C9.588,2.569,9.275,2.945,9,3.341
		C8.726,2.946,8.413,2.57,8.063,2.221C7.246,1.404,6.271,0.775,5.243,0.4C4.236,0.033,3.201-0.085,2.248,0.06
		c-0.162,0.025-0.29,0.152-0.315,0.314c-0.145,0.951-0.028,1.986,0.34,2.992c0.375,1.027,1.006,2.002,1.823,2.818
		c0.192,0.192,0.393,0.373,0.601,0.544C3.95,7.009,3.273,7.371,2.679,7.809C0.926,9.101,0,10.998,0,13.296
		c0,2.277,1.074,4.943,2.873,7.133c0.867,1.055,1.859,1.937,2.869,2.552C6.855,23.657,7.951,24,9,24s2.145-0.343,3.258-1.02
		c1.01-0.615,2.003-1.497,2.869-2.552C16.926,18.239,18,15.573,18,13.296C18,10.998,17.074,9.101,15.321,7.809z M10.467,2.751
		c1.387-1.386,3.236-2.129,4.89-1.983c0.146,1.653-0.598,3.5-1.985,4.886c-0.292,0.292-0.607,0.558-0.937,0.793
		c-0.588-0.162-1.21-0.28-1.864-0.352l1.319-1.318c0.147-0.146,0.147-0.384,0-0.53c-0.147-0.146-0.384-0.146-0.531,0l-1.309,1.307
		C9.908,5.038,9.7,4.531,9.434,4.044C9.724,3.582,10.071,3.148,10.467,2.751z M4.627,5.654C3.24,4.268,2.496,2.422,2.642,0.768
		c1.655-0.146,3.503,0.597,4.89,1.983c0.94,0.94,1.591,2.085,1.862,3.266C9.264,6.014,9.133,6.011,9,6.011
		c-0.319,0-0.633,0.01-0.94,0.029L6.265,4.248c-0.147-0.146-0.384-0.146-0.531,0c-0.147,0.146-0.147,0.384,0,0.53l1.36,1.359
		c-0.533,0.073-1.044,0.176-1.53,0.311C5.234,6.213,4.919,5.946,4.627,5.654z M14.606,19.878c-0.198,0.01-0.356,0.174-0.356,0.374
		v0.047c-0.823,0.932-1.722,1.673-2.625,2.179v-0.352c0-0.207-0.168-0.375-0.375-0.375s-0.375,0.168-0.375,0.375v0.375
		c0,0.115,0.052,0.217,0.132,0.286C10.321,23.089,9.641,23.25,9,23.25c-0.641,0-1.321-0.161-2.008-0.464
		c0.081-0.069,0.132-0.171,0.132-0.286v-0.375c0-0.207-0.168-0.375-0.375-0.375c-0.207,0-0.375,0.168-0.375,0.375v0.352
		c-0.903-0.506-1.802-1.247-2.625-2.179v-0.047c0-0.2-0.157-0.364-0.355-0.374c-0.278-0.343-0.537-0.698-0.776-1.06
		c0.004-0.021,0.006-0.043,0.006-0.065v-0.375c0-0.207-0.168-0.375-0.375-0.375c-0.04,0-0.079,0.006-0.115,0.018
		c-0.25-0.445-0.469-0.898-0.654-1.351c0.012-0.037,0.02-0.077,0.02-0.119v-0.094c0-0.156-0.095-0.289-0.231-0.346
		c-0.336-0.966-0.517-1.925-0.517-2.816c0-0.037,0.001-0.074,0.001-0.111c0.026,0.182,0.182,0.322,0.371,0.322
		c0.207,0,0.375-0.168,0.375-0.375v-0.375c0-0.207-0.168-0.375-0.375-0.375c-0.15,0-0.279,0.088-0.339,0.215
		c0.167-1.736,0.967-3.173,2.34-4.185c0.334-0.246,0.699-0.466,1.089-0.659c0.006,0.008,0.013,0.015,0.02,0.022
		c0.07,0.07,0.167,0.11,0.265,0.11c0.099,0,0.196-0.04,0.266-0.11c0.07-0.07,0.11-0.166,0.11-0.265c0-0.015-0.001-0.031-0.003-0.046
		C5.347,7.28,5.856,7.13,6.393,7.018C6.381,7.055,6.374,7.094,6.374,7.136v0.375c0,0.207,0.168,0.375,0.375,0.375
		s0.375-0.168,0.375-0.375V7.136c0-0.089-0.031-0.17-0.083-0.234c0.617-0.092,1.267-0.139,1.946-0.14
		C8.786,6.768,8.625,6.933,8.625,7.136v0.375c0,0.207,0.168,0.375,0.375,0.375c0.207,0,0.375-0.168,0.375-0.375V7.136
		c0-0.203-0.162-0.368-0.364-0.374c0.679,0.001,1.329,0.048,1.946,0.14c-0.052,0.064-0.083,0.146-0.083,0.235v0.375
		c0,0.207,0.168,0.375,0.375,0.375s0.375-0.168,0.375-0.375V7.136c0-0.041-0.007-0.081-0.019-0.118
		c0.538,0.113,1.046,0.262,1.522,0.447c-0.002,0.015-0.003,0.031-0.003,0.046c0,0.099,0.04,0.195,0.11,0.265
		c0.07,0.07,0.167,0.11,0.265,0.11c0.099,0,0.196-0.04,0.266-0.11c0.007-0.007,0.014-0.015,0.02-0.022
		c0.391,0.193,0.755,0.412,1.089,0.659c1.373,1.012,2.173,2.449,2.34,4.185c-0.06-0.127-0.189-0.215-0.339-0.215
		c-0.207,0-0.375,0.168-0.375,0.375v0.375c0,0.207,0.168,0.375,0.375,0.375c0.19,0,0.346-0.141,0.371-0.323
		c0.001,0.037,0.001,0.074,0.001,0.112c0,0.891-0.181,1.85-0.517,2.816c-0.136,0.057-0.231,0.19-0.231,0.346v0.094
		c0,0.042,0.007,0.082,0.02,0.119c-0.186,0.454-0.405,0.906-0.654,1.351c-0.036-0.012-0.075-0.018-0.115-0.018
		c-0.207,0-0.375,0.168-0.375,0.375v0.375c0,0.022,0.002,0.044,0.006,0.065C15.143,19.181,14.884,19.535,14.606,19.878z"/>
	<path class="st0" d="M10.125,8.635c-0.207,0-0.375,0.168-0.375,0.375v0.375c0,0.207,0.168,0.375,0.375,0.375
		s0.375-0.168,0.375-0.375V9.01C10.501,8.803,10.333,8.635,10.125,8.635z"/>
	<path class="st0" d="M7.875,8.635c-0.207,0-0.375,0.168-0.375,0.375v0.375c0,0.207,0.168,0.375,0.375,0.375
		c0.207,0,0.375-0.168,0.375-0.375V9.01C8.25,8.803,8.082,8.635,7.875,8.635z"/>
	<path class="st0" d="M5.624,8.635c-0.207,0-0.375,0.168-0.375,0.375v0.375c0,0.207,0.168,0.375,0.375,0.375S6,9.592,6,9.384V9.01
		C6,8.803,5.832,8.635,5.624,8.635z"/>
	<path class="st0" d="M12.376,8.635C12.168,8.635,12,8.803,12,9.01v0.375c0,0.207,0.168,0.375,0.375,0.375s0.375-0.168,0.375-0.375
		V9.01C12.751,8.803,12.583,8.635,12.376,8.635z"/>
	<path class="st0" d="M14.626,8.635c-0.207,0-0.375,0.168-0.375,0.375v0.375c0,0.207,0.168,0.375,0.375,0.375
		s0.375-0.168,0.375-0.375V9.01C15.002,8.803,14.834,8.635,14.626,8.635z"/>
	<path class="st0" d="M3.374,8.635c-0.207,0-0.375,0.168-0.375,0.375v0.375c0,0.207,0.168,0.375,0.375,0.375
		c0.207,0,0.375-0.168,0.375-0.375V9.01C3.749,8.803,3.581,8.635,3.374,8.635z"/>
	<path class="st0" d="M10.125,12.382c-0.207,0-0.375,0.168-0.375,0.375v0.375c0,0.207,0.168,0.375,0.375,0.375
		s0.375-0.168,0.375-0.375v-0.375C10.501,12.55,10.333,12.382,10.125,12.382z"/>
	<path class="st0" d="M7.875,12.382c-0.207,0-0.375,0.168-0.375,0.375v0.375c0,0.207,0.168,0.375,0.375,0.375
		c0.207,0,0.375-0.168,0.375-0.375v-0.375C8.25,12.55,8.082,12.382,7.875,12.382z"/>
	<path class="st0" d="M5.624,12.382c-0.207,0-0.375,0.168-0.375,0.375v0.375c0,0.207,0.168,0.375,0.375,0.375S6,13.339,6,13.132
		v-0.375C6,12.55,5.832,12.382,5.624,12.382z"/>
	<path class="st0" d="M12.376,12.382c-0.207,0-0.375,0.168-0.375,0.375v0.375c0,0.207,0.168,0.375,0.375,0.375
		s0.375-0.168,0.375-0.375v-0.375C12.751,12.55,12.583,12.382,12.376,12.382z"/>
	<path class="st0" d="M14.626,12.382c-0.207,0-0.375,0.168-0.375,0.375v0.375c0,0.207,0.168,0.375,0.375,0.375
		s0.375-0.168,0.375-0.375v-0.375C15.002,12.55,14.834,12.382,14.626,12.382z"/>
	<path class="st0" d="M3.374,12.382c-0.207,0-0.375,0.168-0.375,0.375v0.375c0,0.207,0.168,0.375,0.375,0.375
		c0.207,0,0.375-0.168,0.375-0.375v-0.375C3.749,12.55,3.581,12.382,3.374,12.382z"/>
	<path class="st0" d="M10.125,16.13c-0.207,0-0.375,0.168-0.375,0.375v0.375c0,0.207,0.168,0.375,0.375,0.375
		s0.375-0.168,0.375-0.375v-0.375C10.501,16.298,10.333,16.13,10.125,16.13z"/>
	<path class="st0" d="M7.875,16.13c-0.207,0-0.375,0.168-0.375,0.375v0.375c0,0.207,0.168,0.375,0.375,0.375
		c0.207,0,0.375-0.168,0.375-0.375v-0.375C8.25,16.298,8.082,16.13,7.875,16.13z"/>
	<path class="st0" d="M5.624,16.13c-0.207,0-0.375,0.168-0.375,0.375v0.375c0,0.207,0.168,0.375,0.375,0.375S6,17.087,6,16.88
		v-0.375C6,16.298,5.832,16.13,5.624,16.13z"/>
	<path class="st0" d="M12.376,16.13c-0.207,0-0.375,0.168-0.375,0.375v0.375c0,0.207,0.168,0.375,0.375,0.375
		s0.375-0.168,0.375-0.375v-0.375C12.751,16.298,12.583,16.13,12.376,16.13z"/>
	<path class="st0" d="M14.626,16.13c-0.207,0-0.375,0.168-0.375,0.375v0.375c0,0.207,0.168,0.375,0.375,0.375
		s0.375-0.168,0.375-0.375v-0.375C15.002,16.298,14.834,16.13,14.626,16.13z"/>
	<path class="st0" d="M3.374,16.13c-0.207,0-0.375,0.168-0.375,0.375v0.375c0,0.207,0.168,0.375,0.375,0.375
		c0.207,0,0.375-0.168,0.375-0.375v-0.375C3.749,16.298,3.581,16.13,3.374,16.13z"/>
	<path class="st0" d="M10.125,19.877c-0.207,0-0.375,0.168-0.375,0.375v0.375c0,0.207,0.168,0.375,0.375,0.375
		s0.375-0.168,0.375-0.375v-0.375C10.501,20.045,10.333,19.877,10.125,19.877z"/>
	<path class="st0" d="M7.875,19.877c-0.207,0-0.375,0.168-0.375,0.375v0.375c0,0.207,0.168,0.375,0.375,0.375
		c0.207,0,0.375-0.168,0.375-0.375v-0.375C8.25,20.045,8.082,19.877,7.875,19.877z"/>
	<path class="st0" d="M5.624,19.877c-0.207,0-0.375,0.168-0.375,0.375v0.375c0,0.207,0.168,0.375,0.375,0.375S6,20.834,6,20.627
		v-0.375C6,20.045,5.832,19.877,5.624,19.877z"/>
	<path class="st0" d="M12.376,19.877c-0.207,0-0.375,0.168-0.375,0.375v0.375c0,0.207,0.168,0.375,0.375,0.375
		s0.375-0.168,0.375-0.375v-0.375C12.751,20.045,12.583,19.877,12.376,19.877z"/>
	<path class="st0" d="M11.25,10.508c-0.207,0-0.375,0.168-0.375,0.375v0.375c0,0.207,0.168,0.375,0.375,0.375
		s0.375-0.168,0.375-0.375v-0.375C11.626,10.676,11.458,10.508,11.25,10.508z"/>
	<path class="st0" d="M9,10.508c-0.207,0-0.375,0.168-0.375,0.375v0.375c0,0.207,0.168,0.375,0.375,0.375
		c0.207,0,0.375-0.168,0.375-0.375v-0.375C9.375,10.676,9.207,10.508,9,10.508z"/>
	<path class="st0" d="M6.75,10.508c-0.207,0-0.375,0.168-0.375,0.375v0.375c0,0.207,0.168,0.375,0.375,0.375
		c0.207,0,0.375-0.168,0.375-0.375v-0.375C7.125,10.676,6.957,10.508,6.75,10.508z"/>
	<path class="st0" d="M13.501,10.508c-0.207,0-0.375,0.168-0.375,0.375v0.375c0,0.207,0.168,0.375,0.375,0.375
		c0.207,0,0.375-0.168,0.375-0.375v-0.375C13.876,10.676,13.708,10.508,13.501,10.508z"/>
	<path class="st0" d="M15.751,11.633c0.207,0,0.375-0.168,0.375-0.375v-0.375c0-0.207-0.168-0.375-0.375-0.375
		s-0.375,0.168-0.375,0.375v0.375C15.376,11.465,15.544,11.633,15.751,11.633z"/>
	<path class="st0" d="M4.499,10.508c-0.207,0-0.375,0.168-0.375,0.375v0.375c0,0.207,0.168,0.375,0.375,0.375
		c0.207,0,0.375-0.168,0.375-0.375v-0.375C4.874,10.676,4.706,10.508,4.499,10.508z"/>
	<path class="st0" d="M2.249,10.508c-0.207,0-0.375,0.168-0.375,0.375v0.375c0,0.207,0.168,0.375,0.375,0.375
		c0.207,0,0.375-0.168,0.375-0.375v-0.375C2.624,10.676,2.456,10.508,2.249,10.508z"/>
	<path class="st0" d="M11.25,14.256c-0.207,0-0.375,0.168-0.375,0.375v0.375c0,0.207,0.168,0.375,0.375,0.375
		s0.375-0.168,0.375-0.375v-0.375C11.626,14.424,11.458,14.256,11.25,14.256z"/>
	<path class="st0" d="M9,14.256c-0.207,0-0.375,0.168-0.375,0.375v0.375c0,0.207,0.168,0.375,0.375,0.375
		c0.207,0,0.375-0.168,0.375-0.375v-0.375C9.375,14.424,9.207,14.256,9,14.256z"/>
	<path class="st0" d="M6.75,14.256c-0.207,0-0.375,0.168-0.375,0.375v0.375c0,0.207,0.168,0.375,0.375,0.375
		c0.207,0,0.375-0.168,0.375-0.375v-0.375C7.125,14.424,6.957,14.256,6.75,14.256z"/>
	<path class="st0" d="M13.501,14.256c-0.207,0-0.375,0.168-0.375,0.375v0.375c0,0.207,0.168,0.375,0.375,0.375
		c0.207,0,0.375-0.168,0.375-0.375v-0.375C13.876,14.424,13.708,14.256,13.501,14.256z"/>
	<path class="st0" d="M15.751,15.381c0.207,0,0.375-0.168,0.375-0.375v-0.375c0-0.207-0.168-0.375-0.375-0.375
		s-0.375,0.168-0.375,0.375v0.375C15.376,15.213,15.544,15.381,15.751,15.381z"/>
	<path class="st0" d="M4.499,14.256c-0.207,0-0.375,0.168-0.375,0.375v0.375c0,0.207,0.168,0.375,0.375,0.375
		c0.207,0,0.375-0.168,0.375-0.375v-0.375C4.874,14.424,4.706,14.256,4.499,14.256z"/>
	<path class="st0" d="M2.249,14.256c-0.207,0-0.375,0.168-0.375,0.375v0.375c0,0.207,0.168,0.375,0.375,0.375
		c0.207,0,0.375-0.168,0.375-0.375v-0.375C2.624,14.424,2.456,14.256,2.249,14.256z"/>
	<path class="st0" d="M11.25,18.003c-0.207,0-0.375,0.168-0.375,0.375v0.375c0,0.207,0.168,0.375,0.375,0.375
		s0.375-0.168,0.375-0.375v-0.375C11.626,18.171,11.458,18.003,11.25,18.003z"/>
	<path class="st0" d="M9,18.003c-0.207,0-0.375,0.168-0.375,0.375v0.375c0,0.207,0.168,0.375,0.375,0.375
		c0.207,0,0.375-0.168,0.375-0.375v-0.375C9.375,18.171,9.207,18.003,9,18.003z"/>
	<path class="st0" d="M6.75,18.003c-0.207,0-0.375,0.168-0.375,0.375v0.375c0,0.207,0.168,0.375,0.375,0.375
		c0.207,0,0.375-0.168,0.375-0.375v-0.375C7.125,18.171,6.957,18.003,6.75,18.003z"/>
	<path class="st0" d="M13.501,18.003c-0.207,0-0.375,0.168-0.375,0.375v0.375c0,0.207,0.168,0.375,0.375,0.375
		c0.207,0,0.375-0.168,0.375-0.375v-0.375C13.876,18.171,13.708,18.003,13.501,18.003z"/>
	<path class="st0" d="M4.499,18.003c-0.207,0-0.375,0.168-0.375,0.375v0.375c0,0.207,0.168,0.375,0.375,0.375
		c0.207,0,0.375-0.168,0.375-0.375v-0.375C4.874,18.171,4.706,18.003,4.499,18.003z"/>
	<path class="st0" d="M9,21.751c-0.207,0-0.375,0.168-0.375,0.375v0.375c0,0.207,0.168,0.375,0.375,0.375
		c0.207,0,0.375-0.168,0.375-0.375v-0.375C9.375,21.919,9.207,21.751,9,21.751z"/>
</g>
</svg>
