<?xml version="1.0" encoding="utf-8"?>
<!-- Generator: Adobe Illustrator 24.2.1, SVG Export Plug-In . SVG Version: 6.00 Build 0)  -->
<svg version="1.1" id="Capa_1" xmlns="http://www.w3.org/2000/svg" xmlns:xlink="http://www.w3.org/1999/xlink" x="0px" y="0px"
	 viewBox="0 0 23 19.454" style="enable-background:new 0 0 23 19.454;" xml:space="preserve">
<style type="text/css">
	.st0{fill:#E4C892;}
</style>
<g>
	<path class="st0" d="M10.246,19.453c-1.367,0-1.542-0.621-1.542-1.163c0-0.5,0.16-1.165,1.546-1.165h2.303
		c0.923,0,1.4,0.082,1.615,0.548l0.087,0.187h0.799c2.804,0,5.086-2.131,5.086-4.752V7.46c-0.877-3.854-4.504-6.599-8.633-6.599
		c-4.155,0-7.787,2.744-8.634,6.525l-0.008,5.721c0,0.236-0.219,0.429-0.488,0.429H1.308C0.269,13.538,0,13.206,0,11.926V8.557
		c0-1.281,0.269-1.613,1.308-1.613l0.67,0.003l0.068-0.233C3.191,2.76,7.081,0,11.505,0c4.397,0,8.282,2.761,9.448,6.715
		l0.068,0.231h0.671C22.731,6.946,23,7.278,23,8.557v3.366c0,1.281-0.269,1.613-1.308,1.613H21.1l-0.039,0.278
		c-0.384,2.795-2.967,4.904-6.011,4.904h-0.802l-0.086,0.188c-0.214,0.465-0.691,0.547-1.614,0.547h-2.302V19.453z"/>
	<g>
		<path class="st0" d="M6.187,12.92v-0.686l2.391-2.306C8.974,9.554,9.43,9.048,9.43,8.477c0-0.629-0.448-1.052-1.117-1.052
			c-0.493,0-0.921,0.229-1.212,0.637L6.23,7.587c0.426-0.665,1.176-1.053,2.061-1.053c1.053,0,2.188,0.587,2.188,1.873
			c0,0.643-0.344,1.274-1.052,1.929l-1.824,1.712h2.981v0.873H6.187V12.92z"/>
		<polygon class="st0" points="15.075,12.92 15.075,11.817 11.707,11.817 11.707,10.763 13.938,6.671 15.023,6.671 12.663,11.003 
			15.075,11.003 15.075,9.526 16.146,9.526 16.146,11.003 16.887,11.003 16.887,11.817 16.146,11.817 16.146,12.92 		"/>
	</g>
</g>
</svg>
