<svg width="1456" height="585" viewBox="0 0 1456 585" fill="none" xmlns="http://www.w3.org/2000/svg">
<path d="M450.186 0H225.117L113.251 193.699L113.976 194.898L168.877 289.991V290.019H168.905L225.145 387.454V387.482L216.501 374.909L163.97 298.55L158.142 290.047V290.019H57.681L0.0473633 389.824L112.61 584.722H337.707L450.242 389.824L450.214 389.768L451.552 387.482H451.441L395.174 290.047L395.201 290.019H395.229L338.99 192.584L405.992 289.991V290.019H506.482H507.736L507.792 290.103L562.749 194.898L450.186 0Z" fill="#757575"/>
<path d="M742.872 280.708C724.135 275.132 706.932 269.835 706.932 252.857C706.932 238.416 720.092 231.586 734.786 231.586C748.198 231.586 763.143 237.663 772.01 249.038L792.253 227.265C778.088 210.064 757.065 201.449 736.32 201.449C704.673 201.449 675.313 220.936 675.313 256.37C675.313 291.05 703.167 301.17 727.704 308.502C747.445 314.58 765.681 319.124 765.681 335.07C765.681 347.727 754.277 356.342 737.826 356.342C722.128 356.342 704.422 348.508 693.018 333.816L671.242 356.593C688.194 377.334 712.759 386.701 735.539 386.701C768.19 386.701 797.55 367.214 797.55 331.53C797.578 296.152 768.19 288.068 742.872 280.708Z" fill="#757575"/>
<path d="M946.919 341.204L918.311 254.14H887.668L858.809 341.204L830.201 254.14H797.3L844.645 382.715H873.001L902.864 297.156L932.726 382.715H961.334L1008.68 254.14H974.244L946.919 341.204Z" fill="#757575"/>
<path d="M1056.94 254.14H1026.05V382.715H1056.94V254.14Z" fill="#757575"/>
<path d="M1041.5 195.177C1029.84 195.177 1020.75 203.791 1020.75 215.166C1020.75 226.289 1029.87 234.903 1041.5 234.903C1053.15 234.903 1062.24 226.289 1062.24 215.166C1062.24 203.763 1053.12 195.177 1041.5 195.177Z" fill="#757575"/>
<path d="M1151.8 251.101C1134.07 251.101 1118.65 259.185 1110.79 272.623V254.139H1080.92V382.714H1111.57V313.632C1111.57 289.852 1127.26 278.449 1142.46 278.449C1156.37 278.449 1167.53 287.566 1167.53 305.268V382.714H1198.14V300.194C1198.14 267.8 1177.62 251.101 1151.8 251.101Z" fill="#757575"/>
<path d="M1284.49 356.648C1272.84 356.648 1263.75 349.818 1263.75 335.628V281.488H1307.86L1292.05 254.167H1263.75V201.505H1232.85V254.167H1197.11L1212.92 281.488H1232.85V340.2C1232.85 369.054 1253.35 384.248 1277.16 384.248C1288.82 384.248 1301.47 380.456 1312.6 372.595L1304.49 350.069C1298.16 354.362 1290.82 356.648 1284.49 356.648Z" fill="#757575"/>
<path d="M1395.38 356.648C1383.73 356.648 1374.64 349.818 1374.64 335.628V281.488H1418.75L1402.94 254.167H1374.64V201.505H1343.74V254.167H1308L1323.81 281.488H1343.74V340.2C1343.74 369.054 1364.24 384.248 1388.05 384.248C1399.71 384.248 1412.36 380.456 1423.49 372.595L1415.38 350.069C1409.05 354.362 1401.71 356.648 1395.38 356.648Z" fill="#757575"/>
<path d="M1442.48 254.111C1434.67 254.111 1428.95 259.91 1428.95 267.8C1428.95 275.689 1434.67 281.46 1442.48 281.46C1450.28 281.46 1456 275.661 1456 267.8C1456.03 259.91 1450.28 254.111 1442.48 254.111ZM1442.48 279.453C1436.01 279.453 1431.13 274.658 1431.13 267.8C1431.13 260.914 1436.04 256.146 1442.48 256.146C1448.95 256.146 1453.8 260.942 1453.8 267.8C1453.82 274.686 1448.95 279.453 1442.48 279.453Z" fill="#757575"/>
<path d="M1448.95 264.817C1448.95 262.001 1446.74 260.021 1443.59 260.021H1437.1V274.435H1440.3V269.89H1442.84L1445.57 274.435H1449.42L1446.16 269.138C1447.86 268.274 1448.95 266.657 1448.95 264.817ZM1443.45 267.214H1440.3V263.172H1443.4C1444.74 263.172 1445.63 264.064 1445.63 265.179C1445.66 266.266 1444.76 267.214 1443.45 267.214Z" fill="#757575"/>
</svg>
