<svg width="2382" height="748" viewBox="0 0 2382 748" fill="none" xmlns="http://www.w3.org/2000/svg">
<path d="M340.128 747.535C324.19 746.665 308.301 745.796 292.411 744.927C273.721 743.961 255.03 742.995 236.34 741.884C235.132 741.836 233.828 740.87 232.717 740.001C194.032 707.883 155.395 675.718 116.759 643.6C100.145 629.739 83.4826 615.878 66.8687 601.969C65.6613 600.955 64.5022 599.216 63.9227 597.429C52.3799 562.704 40.6922 528.027 29.5358 493.012C25.3823 479.972 22.5812 466.159 19.2971 452.587C12.922 426.218 6.74007 399.799 0.36499 373.429C-0.214563 371.014 -0.0697074 369.131 0.558142 366.861C4.7599 352.614 8.96167 338.366 13.0185 324.022C29.4392 266.308 45.8116 208.641 62.2323 150.927C62.7152 149.14 63.3914 147.401 63.6812 145.566C64.4056 141.268 66.6755 139.191 69.2835 137.356C70.2012 136.728 71.0704 135.907 71.9398 135.134C98.889 110.889 125.645 86.2094 152.836 62.3992C164.04 52.5467 176.018 44.4812 187.657 35.5946C202.726 24.1966 217.842 12.8952 232.959 1.64214C234.022 0.821098 235.325 0.386382 236.533 0.386382C305.162 0.193195 373.839 0.0482966 442.467 0C443.482 0 444.544 0.386426 445.413 1.11087C474.005 22.5063 502.693 43.7084 531.091 65.5868C540.557 72.8796 549.298 81.9593 558.281 90.3146C576.537 107.218 594.842 124.171 613.049 141.171C614.16 142.185 615.174 143.924 615.706 145.663C636.376 217.624 656.999 289.683 677.621 361.693C677.718 361.983 677.718 362.273 677.814 362.514C681.098 368.02 679.601 373.478 678.152 379.37C669.121 415.737 660.573 452.298 651.3 488.617C647.967 501.705 643.234 514.262 639.081 526.964C631.305 550.581 623.433 574.15 615.706 597.767C614.933 600.085 613.919 601.631 612.373 602.935C558.909 647.416 505.397 691.849 451.982 736.571C447.394 740.435 442.902 742.367 437.59 742.56C421.942 743.14 406.342 744.106 390.694 744.975C375.577 745.844 360.461 746.762 345.296 747.631C343.605 747.728 341.963 747.631 340.273 747.631C340.128 747.631 340.128 747.583 340.128 747.535ZM442.661 526.771C463.331 559.371 483.857 591.682 504.431 624.089C504.721 623.702 504.914 623.461 505.108 623.123C511.579 610.614 518.003 598.105 524.426 585.596C524.812 584.872 525.102 583.858 525.15 582.988C525.488 577.338 525.73 571.735 526.02 566.084C526.937 548.746 527.855 531.311 528.773 513.924C529.256 505.472 529.642 496.972 530.077 488.23C529.207 488.472 528.531 488.568 527.855 488.762C506.991 495.378 486.175 501.995 465.311 508.612C464.732 508.805 464.056 508.95 463.573 509.433C456.618 515.132 449.808 520.879 442.661 526.771ZM149.841 488.134C150.324 496.972 150.662 505.279 151.145 513.538C152.353 536.237 153.512 559.033 154.768 581.733C154.864 583.326 155.299 585.113 155.975 586.466C161.964 598.25 168.001 609.986 174.086 621.722C174.521 622.543 174.955 623.316 175.487 624.234C196.157 591.682 216.683 559.323 237.306 526.868C230.158 520.927 223.251 515.18 216.345 509.433C215.862 509.046 215.186 508.901 214.558 508.708C199.103 503.782 183.6 498.807 168.146 493.929C162.06 491.949 156.072 490.114 149.841 488.134ZM126.225 404.87C126.997 403.856 127.529 403.083 128.06 402.359C140.279 384.779 152.498 367.102 164.813 349.667C167.759 345.514 169.981 341.119 171.333 335.661C173.072 328.803 175.1 322.138 177.08 315.087C143.611 302.627 110.335 290.263 76.8177 277.802C77.9768 292.098 79.0876 305.911 80.3433 319.675C80.5365 321.897 81.3092 324.263 82.2751 326.05C92.4173 344.451 102.656 362.708 112.847 381.06C117.29 388.884 121.733 396.757 126.225 404.87ZM553.355 405.064C553.887 404.339 554.031 404.146 554.128 403.904C568.907 377.341 583.734 350.826 598.512 324.263C598.947 323.442 599.237 322.428 599.333 321.462C599.864 315.908 600.347 310.257 600.782 304.655C601.555 295.865 602.231 287.027 603.004 277.706C569.438 290.166 536.162 302.53 502.741 314.991C505.446 324.408 507.957 333.536 510.565 342.568C510.806 343.485 511.434 344.307 511.965 345.031C525.295 364.253 538.673 383.427 552.003 402.649C552.438 403.373 552.872 404.146 553.355 405.064ZM498.974 628.242C478.303 595.642 457.922 563.476 437.396 531.166C430.007 537.3 422.714 543.337 415.47 549.47C414.987 549.953 414.552 550.63 414.166 551.306C402.478 571.542 390.742 591.827 379.055 612.111C378.765 612.594 378.572 613.125 378.282 613.802C378.91 614.043 379.393 614.284 379.876 614.381C406.1 622.205 432.325 630.029 458.598 637.708C459.613 637.998 460.675 637.998 461.689 637.757C470.527 635.583 479.366 633.265 488.204 631.043C491.73 630.126 495.207 629.208 498.974 628.242ZM301.684 613.802C301.395 613.174 301.25 612.884 301.105 612.594C289.224 592.02 277.343 571.445 265.462 550.919C265.124 550.34 264.738 549.712 264.303 549.374C257.107 543.337 249.911 537.348 242.57 531.214C222.092 563.525 201.663 595.739 181.089 628.194C181.813 628.484 182.151 628.677 182.49 628.774C193.26 631.526 204.03 634.279 214.8 636.936C217.118 637.515 219.581 638.24 221.754 637.612C244.019 631.237 266.235 624.572 288.451 617.955C292.701 616.506 297.096 615.202 301.684 613.802ZM433.581 148.705C432.953 147.788 432.518 147.111 432.132 146.532C415.228 123.011 398.325 99.4427 381.373 75.9223C380.697 75.0046 379.827 74.2319 378.958 73.7972C367.705 68.1465 356.404 62.5924 345.151 56.9417C344.62 56.652 344.04 56.4588 343.364 56.2656C343.364 96.2552 343.364 135.955 343.364 175.896C344.233 175.896 345.006 175.896 345.73 175.896C353.168 175.896 360.702 175.945 368.14 175.848C369.444 175.848 370.796 175.558 372.052 175.027C381.856 170.873 391.612 166.672 401.367 162.518C411.993 157.93 422.618 153.39 433.581 148.705ZM336.554 175.896C336.554 135.81 336.554 96.1585 336.554 56.2172C335.733 56.5553 335.057 56.8451 334.429 57.1349C323.514 62.5441 312.696 67.9533 301.829 73.4592C300.429 74.1836 298.931 75.391 297.869 76.8882C281.497 99.5393 265.172 122.287 248.848 144.938C248.027 146.097 246.917 146.773 245.902 147.691C247.11 148.947 247.738 149.236 248.317 149.478C267.008 157.543 285.698 165.513 304.389 173.578C306.224 174.399 308.108 175.703 309.991 175.751C318.781 175.993 327.619 175.896 336.554 175.896ZM600.83 269.64C599.816 268.529 599.188 267.95 598.657 267.273C591.219 257.662 583.878 248.003 576.392 238.537C575.282 237.088 573.833 235.881 572.384 235.204C552.872 226.366 533.312 217.576 513.801 208.738C507.715 206.033 501.63 203.28 495.4 200.528C495.303 201.928 495.207 203.039 495.159 204.198C494.289 227.139 493.42 250.08 492.454 273.021C492.309 276.643 492.695 279.975 493.71 283.308C495.69 289.876 497.477 296.493 499.36 303.061C499.747 304.365 500.133 305.669 500.519 306.973C533.892 294.609 566.975 282.245 600.83 269.64ZM179.399 307.021C182.103 297.555 184.711 288.379 187.271 279.203C187.561 278.188 187.464 276.981 187.416 275.822C186.643 255.779 185.919 235.687 185.146 215.596C185.001 210.67 184.711 205.695 184.518 200.672C183.842 200.914 183.455 201.059 183.069 201.252C157.52 212.747 131.924 224.241 106.423 235.784C105.554 236.17 104.685 236.991 104.008 237.909C96.3293 247.81 88.6502 257.759 81.0195 267.708C80.5365 268.336 80.1019 269.012 79.474 269.93C112.943 282.294 146.074 294.609 179.399 307.021ZM343.412 383.185C343.412 426.121 343.412 468.38 343.412 510.64C370.313 510.64 397.117 510.64 424.26 510.64C397.262 468.042 370.458 425.831 343.412 383.185ZM255.61 510.688C282.849 510.688 309.653 510.688 336.409 510.688C336.409 468.284 336.409 426.024 336.409 383.282C309.363 425.879 282.607 468.091 255.61 510.688ZM343.316 201.107C343.316 253.799 343.316 306.056 343.316 358.989C365.339 324.312 387.023 290.118 408.853 255.682C386.927 237.474 365.242 219.363 343.316 201.107ZM336.651 359.085C336.651 306.007 336.651 253.75 336.651 201.059C314.676 219.363 292.943 237.378 271.016 255.682C292.846 290.118 314.579 324.312 336.651 359.085ZM430.152 506.873C438.555 477.219 446.814 447.999 455.169 418.683C419.865 405.595 384.85 392.506 349.208 379.225C376.35 422.112 403.106 464.227 430.152 506.873ZM249.718 506.873C276.764 464.275 303.471 422.161 330.227 379.949C330.131 379.756 330.082 379.66 330.034 379.466C295.019 392.506 259.908 405.547 224.7 418.683C233.056 448.096 241.314 477.219 249.718 506.873ZM200.069 314.701C243.632 330.928 286.664 346.915 329.696 362.949C329.793 362.708 329.889 362.563 329.986 362.321C308.446 328.369 286.906 294.368 265.317 260.415C243.632 278.478 222.044 296.445 200.069 314.701ZM414.552 260.367C392.964 294.416 371.424 328.32 349.932 362.273C350.029 362.514 350.125 362.659 350.222 362.901C393.254 346.866 436.285 330.88 479.8 314.652C457.826 296.445 436.286 278.478 414.552 260.367ZM326.992 371.353C326.992 371.159 327.04 371.014 327.04 370.773C283.96 354.739 240.928 338.752 197.413 322.525C205.817 352.179 214.027 381.157 222.286 410.231C257.397 397.288 292.218 384.344 326.992 371.353ZM352.83 370.773C352.83 370.966 352.83 371.111 352.782 371.353C387.651 384.344 422.521 397.336 457.488 410.328C465.794 381.108 474.005 352.131 482.36 322.621C438.845 338.752 395.862 354.787 352.83 370.773ZM620.97 298.087C615.899 307.215 610.972 316.005 606.095 324.891C605.612 325.761 605.37 326.968 605.274 328.03C604.211 340.298 603.197 352.565 602.231 364.832C600.782 382.412 599.285 399.993 597.836 417.621C596.822 429.743 595.807 441.914 594.793 454.423C595.373 453.891 595.808 453.602 596.194 453.215C611.069 437.084 625.993 420.905 640.819 404.677C641.351 404.049 641.785 402.6 641.737 401.586C641.544 394.825 641.158 388.015 640.868 381.253C639.95 362.225 639.033 343.244 638.018 324.215C637.97 323.249 637.825 322.042 637.342 321.317C631.981 313.638 626.572 306.056 620.97 298.087ZM85.1246 454.713C84.6417 448.917 84.2553 443.797 83.8206 438.678C80.8746 403.615 77.9285 368.551 75.1273 333.44C74.6927 328.32 73.5819 324.022 71.1671 319.965C67.2068 313.542 63.6812 306.635 59.9141 299.97C59.576 299.391 59.2379 298.859 58.8032 298.232C53.2975 306.056 47.8883 313.686 42.5757 321.414C42.1411 321.993 41.9962 323.153 41.9479 324.022C40.6439 349.909 39.3882 375.748 38.2291 401.683C38.1808 402.842 38.8086 404.387 39.4848 405.112C49.3372 415.93 59.2862 426.652 69.1386 437.422C74.3546 443.025 79.5223 448.675 85.1246 454.713ZM529.883 618.969C538.528 616.265 546.835 613.753 555.191 611.049C555.963 610.807 556.639 609.889 557.171 609.165C571.273 589.46 585.231 569.658 599.381 550.002C600.637 548.263 600.83 546.718 600.492 544.496C597.933 529.331 595.518 514.069 593.055 498.856C591.799 491.176 590.543 483.449 589.191 475.335C588.756 476.011 588.563 476.349 588.37 476.784C569.679 513.055 550.989 549.326 532.298 585.596C531.96 586.272 531.574 587.093 531.526 587.914C530.946 598.057 530.415 608.296 529.883 618.969ZM90.8236 475.383C90.6304 476.205 90.4855 476.687 90.3889 477.219C86.7184 500.111 82.9513 522.956 79.3291 545.848C79.1842 546.959 79.6671 548.601 80.2467 549.47C94.3492 569.417 108.5 589.315 122.651 609.117C123.423 610.228 124.534 611.049 125.645 611.435C129.943 612.932 134.193 614.14 138.492 615.444C142.259 616.603 146.026 617.762 149.986 618.873C149.455 608.875 148.972 599.312 148.392 589.846C148.248 588.059 147.861 586.079 147.089 584.63C128.881 549.084 110.528 513.586 92.2724 478.088C91.8861 477.267 91.4031 476.494 90.8236 475.383ZM504.625 132.671C504.48 133.009 504.286 133.347 504.142 133.637C504.625 133.926 505.107 134.12 505.445 134.554C529.207 165.319 552.969 196.132 576.731 226.897C577.503 227.863 578.518 228.684 579.58 229.119C587.307 232.693 595.035 236.122 602.81 239.648C603.438 239.938 604.066 240.131 604.839 240.372C604.936 239.116 605.032 238.199 605.08 237.233C605.418 229.312 605.805 221.343 605.998 213.423C606.046 211.829 605.612 209.8 604.887 208.545C593.344 187.777 581.608 167.203 570.066 146.339C568.23 143.006 566.202 141.799 563.353 141.412C547.125 139.094 530.898 136.583 514.67 134.168C511.338 133.588 507.957 133.154 504.625 132.671ZM74.9824 240.421C75.9484 240.034 76.7211 239.793 77.349 239.455C84.8832 236.074 92.4657 232.741 99.9999 229.216C101.256 228.636 102.56 227.622 103.525 226.318C127.142 195.843 150.614 165.319 174.183 134.796C174.617 134.216 174.955 133.588 175.535 132.864C174.666 132.864 174.038 132.816 173.41 132.864C153.512 135.858 133.614 138.853 113.716 141.944C112.895 142.04 111.881 142.861 111.349 143.779C99.0822 165.512 86.815 187.246 74.6444 209.028C74.1614 209.897 73.8234 211.249 73.8716 212.36C74.0165 217.721 74.258 223.034 74.4512 228.395C74.5478 232.403 74.7893 236.267 74.9824 240.421ZM366.884 42.5976C366.691 42.984 366.498 43.4669 366.305 43.8533C371.762 51.0012 377.219 58.1008 382.725 65.2004C383.739 66.4561 384.899 67.6153 386.154 68.2431C419.237 84.8089 452.416 101.23 485.548 117.747C486.175 118.037 486.803 118.278 487.721 118.665C487.383 117.747 487.238 117.216 487.045 116.781C478.496 96.2069 469.948 75.5842 461.303 54.9616C460.82 53.8024 459.564 52.8365 458.55 52.5467C436.624 45.8335 414.745 39.2168 392.819 32.6002C392.046 32.3587 391.08 32.069 390.356 32.4071C382.484 35.6912 374.708 39.1203 366.884 42.5976ZM192.052 118.665C192.97 118.182 193.404 118.085 193.791 117.844C227.308 101.181 260.874 84.519 294.343 67.7601C295.213 67.2772 296.082 66.5528 296.71 65.6351C301.781 58.6804 306.804 51.6291 311.875 44.5778C312.309 43.9983 312.648 43.3703 313.179 42.5493C305.113 39.0236 297.289 35.5946 289.465 32.2138C288.789 31.924 287.92 32.1173 287.195 32.3104C265.172 38.9754 243.101 45.6403 221.078 52.3052C219.726 52.6916 218.953 53.5609 218.277 55.2513C209.97 75.391 201.615 95.4824 193.211 115.622C192.921 116.443 192.632 117.264 192.052 118.665ZM350.367 674.848C351.188 675.428 351.478 675.67 351.767 675.863C369.347 686.778 386.927 697.741 404.507 708.608C405.376 709.187 406.68 709.187 407.646 708.801C428.944 699.431 450.243 690.014 471.493 680.451C472.556 679.968 473.57 678.905 474.246 677.746C478.11 671.178 481.829 664.513 485.596 657.848C486.079 657.124 486.465 656.303 487.045 655.192C479.559 652.97 472.314 651.135 465.263 648.623C461.158 647.174 457.246 647.416 453.093 648.527C425.709 655.675 398.276 662.533 370.844 669.488C364.276 671.323 357.563 673.013 350.367 674.848ZM329.551 674.993C328.44 674.655 327.909 674.414 327.378 674.317C293.619 665.769 259.908 657.172 226.197 648.527C222.237 647.513 218.567 647.416 214.655 648.817C209.246 650.7 203.74 652.101 198.331 653.694C196.544 654.226 194.757 654.854 192.777 655.482C197.172 663.257 201.373 670.647 205.623 678.036C206.3 679.195 207.362 680.209 208.425 680.692C229.53 690.158 250.732 699.48 271.837 708.898C273.286 709.525 274.445 709.477 275.798 708.608C286.809 701.653 297.869 694.795 308.88 687.985C315.594 683.638 322.355 679.485 329.551 674.993ZM220.112 189.178C219.726 190.433 219.436 191.255 219.195 192.124C211.95 217.576 204.851 243.125 197.461 268.481C195.143 276.353 193.549 284.081 194.467 292.629C194.95 297.217 194.853 301.999 194.998 306.635C194.998 307.166 195.095 307.746 195.191 308.712C217.263 290.311 239.093 272.151 261.116 253.799C247.496 232.258 233.877 210.815 220.112 189.178ZM484.775 308.809C485.113 299.149 485.499 290.118 485.789 281.038C485.837 280.217 485.499 279.348 485.306 278.575C477.096 249.597 468.885 220.667 460.675 191.786C460.482 191.061 460.192 190.289 459.806 189.274C446.041 210.96 432.47 232.355 418.802 253.895C440.729 272.103 462.51 290.263 484.775 308.809ZM463.669 412.598C485.837 420.857 507.86 429.019 530.173 437.374C529.787 435.925 529.594 434.959 529.304 433.993C522.687 410.666 515.781 387.484 509.551 363.915C506.411 351.937 502.113 341.457 495.159 333.053C492.937 330.397 491.053 327.21 488.832 324.022C480.38 353.724 472.073 382.992 463.669 412.598ZM149.6 437.374C172.009 429.019 193.984 420.808 216.2 412.598C207.797 382.992 199.49 353.676 191.038 324.022C185.774 331.605 180.751 338.849 175.68 346.142C175.197 346.818 175.004 347.832 174.762 348.653C169.739 366.378 164.717 384.103 159.694 401.828C156.361 413.515 153.077 425.203 149.6 437.374ZM527.468 445.536C505.252 437.277 483.374 429.164 461.351 420.953C453.044 450.269 444.786 479.344 436.43 508.853C437.541 508.611 438.121 508.515 438.7 508.273C443.916 506.68 449.132 504.844 454.397 503.395C458.55 502.236 462.269 500.063 465.939 497.02C485.692 480.406 505.494 464.034 525.344 447.516C525.875 447.033 526.503 446.406 527.468 445.536ZM152.401 445.633C153.464 446.55 154.14 447.13 154.768 447.709C174.569 464.227 194.37 480.599 214.123 497.213C217.746 500.256 221.464 502.526 225.666 503.54C228.612 504.265 231.51 505.376 234.408 506.293C237.306 507.211 240.203 508.08 243.439 509.046C243.101 507.742 242.956 506.921 242.715 506.1C234.939 478.571 227.067 451.09 219.339 423.513C218.808 421.629 218.229 421.098 216.78 421.678C202.967 426.894 189.058 432.013 175.197 437.181C167.663 439.934 160.225 442.687 152.401 445.633ZM343.412 519.478C343.412 545.945 343.412 572.218 343.412 598.733C344.233 598.105 344.909 597.622 345.537 597.091C364.083 581.684 382.484 565.94 401.174 550.919C408.467 545.075 414.842 538.266 419.527 528.558C420.976 525.515 422.859 522.762 424.743 519.478C397.407 519.478 370.506 519.478 343.412 519.478ZM255.079 519.478C259.28 526.723 263.144 533.484 267.056 540.246C267.684 541.357 268.457 542.323 269.374 543.047C291.156 561.207 312.986 579.366 334.815 597.526C335.298 597.912 335.878 598.25 336.409 598.685C336.409 572.122 336.409 545.848 336.409 519.526C309.363 519.478 282.462 519.478 255.079 519.478ZM413.007 249.114C426.53 227.767 439.956 206.613 453.769 184.831C452.368 184.831 451.547 184.831 450.774 184.831C425.95 184.831 401.174 184.879 376.398 184.783C372.1 184.783 367.995 185.459 363.89 187.439C358.625 189.951 353.216 192.076 347.469 194.587C369.444 212.843 391.08 230.858 413.007 249.114ZM226.101 184.831C239.962 206.661 253.388 227.815 266.863 249.114C288.693 230.954 310.378 212.891 332.304 194.635C331.531 194.249 331 193.959 330.517 193.718C324.287 191.013 318.008 188.308 311.73 185.749C310.474 185.217 309.122 184.928 307.818 184.928C281.497 184.879 255.175 184.879 228.806 184.879C228.178 184.831 227.405 184.831 226.101 184.831ZM588.273 454.857C591.509 416.413 594.649 378.645 597.788 340.926C597.643 340.877 597.45 340.829 597.305 340.684C584.217 364.156 571.128 387.58 557.992 411.197C567.989 425.686 577.938 439.982 588.273 454.857ZM91.6446 454.857C101.932 440.079 111.881 425.783 121.926 411.294C108.79 387.677 95.6532 364.156 82.565 340.636C82.4201 340.733 82.2752 340.829 82.082 340.926C85.2695 378.645 88.4087 416.365 91.6446 454.857ZM96.5708 471.23C113.523 504.168 130.185 536.479 146.847 568.837C146.992 568.741 147.185 568.644 147.33 568.548C145.881 541.019 144.432 513.489 142.983 485.96C127.529 481.082 112.315 476.253 96.5708 471.23ZM532.54 568.596C532.685 568.644 532.926 568.692 533.071 568.789C549.685 536.479 566.347 504.168 583.299 471.278C567.554 476.301 552.293 481.131 536.886 486.009C535.437 513.538 533.989 541.115 532.54 568.596ZM182.103 136.583C160.177 165.029 138.637 192.993 117.048 220.909C117.628 221.247 117.966 221.198 118.256 221.102C139.699 211.443 161.191 201.735 182.634 192.124C183.938 191.544 184.18 190.675 184.083 189.033C183.552 175.8 183.069 162.663 182.586 149.43C182.49 145.324 182.296 141.268 182.103 136.583ZM562.483 221.488C562.58 221.295 562.676 221.102 562.773 220.909C541.233 192.993 519.645 165.029 497.815 136.679C497.67 138.128 497.622 138.853 497.573 139.625C496.946 155.901 496.414 172.177 495.69 188.357C495.593 190.772 496.173 191.641 497.766 192.317C513.752 199.465 529.69 206.613 545.676 213.809C551.279 216.369 556.881 218.928 562.483 221.488ZM284.636 82.6355C284.539 82.394 284.491 82.2492 284.346 82.0077C254.644 96.7864 224.942 111.565 194.757 126.537C209.342 132.816 223.3 138.708 237.257 144.842C238.803 145.518 239.72 145.228 240.88 143.634C250.732 129.773 260.681 116.057 270.533 102.244C275.266 95.7721 279.951 89.2038 284.636 82.6355ZM484.485 126.827C484.485 126.634 484.485 126.44 484.485 126.247C454.831 111.469 425.129 96.7381 395.427 81.9593C395.282 82.2491 395.089 82.5872 394.944 82.877C396.103 84.3259 397.359 85.6782 398.518 87.2236C412.089 106.059 425.66 125.04 439.28 143.827C439.811 144.552 441.019 145.276 441.695 144.986C456.039 139.094 470.238 132.961 484.485 126.827ZM347.469 666.879C379.634 658.669 411.172 650.652 442.661 642.635C442.178 642.007 441.695 641.765 441.212 641.669C419.189 635.1 397.214 628.629 375.191 622.012C373.887 621.625 373.163 622.205 372.39 623.509C366.208 634.279 360.026 645.001 353.844 655.723C351.864 659.249 349.836 662.726 347.469 666.879ZM237.161 642.103C237.161 642.296 237.161 642.441 237.161 642.635C268.698 650.7 300.284 658.717 332.207 666.831C331.773 665.962 331.676 665.624 331.531 665.334C323.466 651.376 315.4 637.467 307.383 623.413C306.369 621.674 305.451 621.722 304.147 622.157C288.886 626.697 273.624 631.237 258.363 635.728C251.311 637.853 244.26 639.978 237.161 642.103ZM210.839 55.7343C210.212 55.7826 209.825 55.7826 209.535 55.9275C194.902 60.3708 180.22 64.6692 165.682 69.4023C162.495 70.4165 159.549 73.0728 156.265 75.1012C165.924 90.2664 175.1 104.707 184.47 119.486C193.308 98.0421 202.001 77.0814 210.839 55.7343ZM468.934 55.5894C477.917 77.1297 486.61 98.187 495.448 119.534C504.866 104.659 514.042 90.218 523.605 75.1495C520.466 73.121 517.761 70.6096 514.863 69.6437C504.528 66.118 494.096 63.1719 483.664 59.9844C478.883 58.4872 474.101 57.1349 468.934 55.5894ZM594.986 470.699C598.802 493.978 602.521 516.87 606.384 540.68C607.254 539.183 607.688 538.314 608.22 537.59C617.348 524.694 626.476 511.702 635.748 499C638.115 495.765 638.936 491.756 640.24 487.554C625.123 481.903 610.2 476.301 594.986 470.699ZM72.8091 540.391C73.0989 540.101 73.3886 539.811 73.6784 539.521C77.3972 516.677 81.116 493.833 84.9314 470.65C69.5733 476.349 54.6981 481.904 39.7746 487.458C40.9337 492.287 42.286 496.344 44.8456 499.87C53.9253 512.282 62.8118 524.984 71.7949 537.638C72.2295 538.41 72.4711 539.473 72.8091 540.391ZM642.365 413.805C627.297 430.178 612.518 446.164 597.546 462.44C612.808 468.139 627.683 473.645 642.462 479.151C645.263 470.988 645.263 470.988 644.731 462.537C644.49 458.528 644.345 454.568 644.152 450.511C643.572 438.533 642.993 426.507 642.365 413.805ZM37.553 413.902C37.4564 414.916 37.4081 415.399 37.4081 415.834C36.6353 432.255 35.9109 448.675 34.945 465.096C34.6552 470.264 35.9109 474.562 37.4081 479.247C52.3316 473.693 67.1585 468.139 82.3717 462.44C67.3034 446.116 52.6213 430.226 37.553 413.902ZM562.29 132.574C553.79 117.457 545.676 103.162 537.659 88.7209C535.293 84.4708 531.815 82.877 528.821 79.9792C519.596 94.5164 510.565 108.764 501.244 123.494C521.625 126.585 541.668 129.531 562.29 132.574ZM178.722 123.494C169.353 108.667 160.225 94.3716 150.952 79.6894C148.151 82.4423 144.963 84.4708 142.983 87.8033C134.725 101.761 126.852 116.153 118.835 130.401C118.546 130.98 118.304 131.56 117.821 132.574C138.202 129.531 158.197 126.585 178.722 123.494ZM397.214 713.534C379.006 702.136 361.282 691.124 343.412 679.968C343.412 698.031 343.412 715.804 343.412 733.336C346.6 733.336 349.884 734.302 352.685 733.142C367.415 727.009 382.001 720.344 397.214 713.534ZM336.506 679.968C318.54 691.173 300.815 702.233 282.752 713.534C283.766 714.017 284.346 714.258 284.926 714.548C298.304 720.489 311.682 726.333 325.06 732.418C328.875 734.157 332.594 733.432 336.506 733.625C336.506 715.756 336.506 698.031 336.506 679.968ZM672.115 370.725C663.084 357.926 654.198 345.321 645.021 332.281C646.084 354.159 647.098 375.168 648.161 396.757C656.371 387.822 664.098 379.37 672.115 370.725ZM34.8001 333.102C34.6552 333.053 34.5103 332.908 34.3654 332.86C25.5272 345.369 16.6891 357.974 7.75429 370.676C15.8197 379.418 23.5954 387.87 31.7091 396.66C32.7716 375.071 33.7859 354.111 34.8001 333.102ZM73.0506 197.05C83.2411 178.939 93.0452 161.504 103.236 143.393C92.031 145.083 81.5507 146.677 70.8772 148.271C71.65 164.546 72.3262 180.388 73.0506 197.05ZM608.944 148.271C598.222 146.677 587.742 145.131 576.586 143.441C586.824 161.552 596.629 179.036 606.771 197.098C607.543 180.291 608.268 164.498 608.944 148.271ZM111.494 607.088C111.591 606.895 111.639 606.702 111.687 606.509C100.29 590.474 88.8917 574.488 77.2524 558.116C75.2239 570.576 73.2921 582.505 71.312 594.676C84.7866 598.829 98.1646 602.935 111.494 607.088ZM568.086 606.557C568.182 606.75 568.231 606.895 568.327 607.088C581.705 602.935 595.083 598.83 608.509 594.628C606.481 582.36 604.549 570.479 602.569 558.067C590.881 574.633 579.483 590.571 568.086 606.557ZM414.697 715.128C423.97 720.923 432.663 726.284 441.357 731.79C442.709 732.659 443.385 732.418 444.303 730.824C451.112 718.75 457.922 706.772 464.732 694.795C465.07 694.215 465.311 693.588 465.891 692.428C448.746 699.963 431.987 707.4 414.697 715.128ZM265.172 715.031C247.882 707.352 231.124 699.914 214.365 692.477C221.513 705.806 228.806 718.75 236.195 731.549C236.436 732.032 237.354 732.225 237.74 732.032C246.772 726.622 255.706 720.972 265.172 715.031ZM276.136 26.7564C275.604 26.2734 275.363 26.0802 275.121 25.9353C262.951 20.6227 250.828 15.3584 238.706 9.99743C237.547 9.46617 237.064 10.0457 236.581 11.2531C234.118 17.3385 231.558 23.3756 229.047 29.461C227.308 33.6628 225.57 37.9128 223.59 42.6459C241.218 37.3333 258.508 32.1173 276.136 26.7564ZM403.541 26.708C421.362 32.1172 438.604 37.3333 456.232 42.6942C455.749 41.4385 455.459 40.6658 455.169 39.9413C451.306 30.6201 447.394 21.3954 443.627 12.0259C442.854 10.094 442.178 9.61105 440.584 10.2872C429.041 15.4066 417.498 20.3812 405.956 25.4523C405.231 25.7421 404.603 26.1285 403.541 26.708ZM130.088 411.825C134.387 419.601 138.637 427.183 143.08 435.104C149.793 411.535 156.265 388.594 162.785 365.654C162.64 365.557 162.543 365.412 162.398 365.315C151.677 380.77 140.907 396.225 130.088 411.825ZM549.781 411.825C538.915 396.177 528.193 380.77 517.471 365.315C517.326 365.412 517.23 365.557 517.085 365.654C523.605 388.643 530.125 411.584 536.79 435.056C541.233 427.039 545.435 419.553 549.781 411.825ZM213.158 188.067C212.675 188.019 212.481 187.97 212.337 188.019C205.575 191.061 198.862 194.104 192.1 197.098C190.893 197.63 190.99 198.692 191.038 199.996C191.521 213.374 192.052 226.704 192.535 240.131C192.728 245.685 193.018 251.287 193.26 256.841C193.404 256.841 193.549 256.89 193.694 256.89C200.118 234.045 206.589 211.201 213.158 188.067ZM486.224 256.89C486.369 256.89 486.513 256.841 486.658 256.841C486.755 255.924 486.803 254.958 486.852 254.04C487.576 235.881 488.252 217.769 488.928 199.61C489.025 197.919 488.445 197.485 487.479 197.098C481.056 194.297 474.633 191.351 468.258 188.453C467.823 188.26 467.388 188.212 466.712 188.067C473.28 211.201 479.752 233.997 486.224 256.89ZM280.337 562.655C280.579 563.476 280.627 563.67 280.724 563.815C289.659 579.269 298.593 594.724 307.48 610.227C308.253 611.628 309.074 611.725 310.184 611.387C314.966 609.89 319.699 608.537 324.48 607.088C326.557 606.46 328.682 605.833 331.29 605.06C314.048 590.716 297.338 576.855 280.337 562.655ZM399.484 563.332C399.387 563.235 399.339 563.09 399.242 562.945C382.532 576.855 365.822 590.764 349.015 604.722C349.256 605.012 349.353 605.205 349.497 605.253C356.452 607.33 363.358 609.503 370.313 611.387C370.989 611.58 372.1 610.662 372.631 609.793C380.697 596.077 388.617 582.216 396.586 568.403C397.504 566.712 398.518 565.022 399.484 563.332ZM149.31 479.199C165.489 484.318 181.475 489.389 197.461 494.509C197.51 494.267 197.606 494.122 197.606 493.881C181.137 480.213 164.668 466.449 147.861 452.491C148.392 461.764 148.875 470.312 149.31 479.199ZM531.96 452.443C515.057 466.449 498.684 480.165 482.263 493.833C482.36 494.074 482.408 494.219 482.457 494.461C498.443 489.389 514.477 484.27 530.511 479.247C531.042 470.409 531.429 461.812 531.96 452.443ZM288.355 175.848C287.534 175.365 287.244 175.22 286.954 175.027C272.224 168.7 257.397 162.325 242.618 156.095C241.942 155.805 240.735 156.433 240.203 157.205C236.05 162.76 232.041 168.459 227.985 174.158C227.695 174.544 227.453 175.124 227.067 175.848C247.448 175.848 267.587 175.848 288.355 175.848ZM452.61 175.848C452.754 175.51 452.996 175.172 453.141 174.882C448.456 168.748 443.82 162.518 439.038 156.481C438.604 155.95 437.493 155.998 436.817 156.288C425.709 161.021 414.601 165.754 403.444 170.535C399.629 172.129 395.813 173.819 391.998 175.413C392.046 175.51 392.046 175.703 392.095 175.8C412.282 175.848 432.47 175.848 452.61 175.848ZM491.198 140.108C491.053 140.06 490.908 140.012 490.715 139.915C482.698 152.569 474.681 165.271 466.471 178.214C474.246 181.74 481.636 185.073 489.315 188.502C489.942 172.081 490.57 156.095 491.198 140.108ZM189.106 139.915C188.961 140.012 188.816 140.108 188.671 140.205C189.299 156.191 189.879 172.177 190.507 188.55C198.282 185.024 205.672 181.692 213.351 178.263C205.14 165.174 197.123 152.569 189.106 139.915ZM343.364 660.504C351.429 646.595 359.06 633.265 366.981 619.597C358.915 617.182 351.236 614.961 343.364 612.594C343.364 628.532 343.364 644.132 343.364 660.504ZM336.506 660.359C336.506 644.035 336.506 628.387 336.506 612.546C328.634 614.912 320.954 617.182 312.937 619.549C320.81 633.313 328.489 646.595 336.506 660.359ZM234.456 152.569C221.126 146.87 208.135 141.316 195.191 135.713C195.095 135.81 195.047 136.003 194.998 136.1C202.967 148.705 210.984 161.214 218.615 173.288C223.879 166.333 229.047 159.62 234.456 152.569ZM445.51 152.472C450.871 159.524 456.039 166.382 461.255 173.336C468.982 161.214 476.951 148.657 484.871 136.148C484.775 136.052 484.727 135.858 484.678 135.762C471.735 141.268 458.743 146.87 445.51 152.472ZM554.128 418.152C549.781 425.976 545.531 433.559 541.136 441.479C554.225 446.357 567.023 451.139 579.822 455.92C579.918 455.727 579.966 455.582 580.015 455.437C571.515 443.025 562.918 430.661 554.128 418.152ZM138.733 441.479C134.29 433.51 130.04 425.879 125.693 418.152C116.903 430.806 108.355 443.17 99.8066 455.437C99.9032 455.63 99.9516 455.775 99.9999 455.968C112.847 451.139 125.597 446.357 138.733 441.479ZM576.924 464.468C576.924 464.275 576.924 464.13 576.924 463.937C564.319 459.204 551.665 454.568 538.818 449.786C538.335 459.107 537.852 467.897 537.418 477.026C550.747 472.727 563.836 468.622 576.924 464.468ZM142.5 476.977C142.017 467.656 141.534 458.866 141.052 449.738C128.156 454.519 115.551 459.204 102.994 463.889C102.994 464.082 102.994 464.227 102.994 464.468C116.082 468.622 129.122 472.824 142.5 476.977ZM669.121 385.6C669.024 385.407 668.928 385.31 668.831 385.117C662.311 392.168 655.791 399.22 649.368 406.319C648.885 406.851 648.74 408.396 648.788 409.362C649.223 419.359 649.754 429.405 650.237 439.451C650.382 442.542 650.527 445.729 650.72 448.82C650.865 448.869 651.01 448.869 651.203 448.917C657.144 427.86 663.132 406.706 669.121 385.6ZM28.908 449.496C29.1012 448.482 29.246 448.096 29.246 447.758C29.8739 434.718 30.5501 421.581 31.0813 408.541C31.1296 407.575 30.5017 406.223 29.9222 405.595C23.8852 398.93 17.7998 392.362 11.7145 385.745C11.5213 385.504 11.2316 385.407 10.6037 385.021C16.7373 406.754 22.7261 427.86 28.908 449.496ZM631.498 518.271C631.353 518.223 631.257 518.078 631.112 518.029C624.93 526.723 618.941 535.754 612.518 543.965C608.896 548.553 607.833 552.803 609.33 559.275C611.021 566.616 611.938 574.295 613.291 582.65C619.473 560.627 625.461 539.425 631.498 518.271ZM66.5789 582.36C66.8687 581.105 67.0619 580.332 67.1585 579.656C68.6074 570.673 70.0079 561.738 71.5534 552.803C71.8432 551.016 71.5534 550.002 70.6841 548.794C63.8743 539.231 57.0163 529.669 50.2065 520.058C49.7719 519.478 49.3855 519.044 48.9026 518.464C48.7577 518.561 48.6611 518.705 48.5162 518.802C54.5049 539.811 60.4453 560.82 66.5789 582.36ZM226.584 17.7248C226.487 17.6282 226.391 17.4834 226.294 17.3868C211.226 29.9922 196.061 42.501 180.992 55.1064C192.052 52.3052 202.967 49.021 213.785 45.6403C214.558 45.3988 215.476 44.3846 215.91 43.3221C218.905 36.4156 221.754 29.4126 224.604 22.4096C225.328 20.7675 225.956 19.222 226.584 17.7248ZM453.624 17.3868C453.527 17.4834 453.431 17.58 453.334 17.6766C453.624 18.401 453.865 19.1738 454.155 19.8499C457.343 27.4808 460.53 35.16 463.621 42.8391C464.345 44.6261 465.263 45.4471 466.616 45.8335C472.266 47.5239 477.917 49.2142 483.567 50.9529C488.59 52.4501 493.613 53.9474 498.684 55.4445C498.732 55.2514 498.781 55.1547 498.829 54.9616C483.761 42.501 468.644 29.9922 453.624 17.3868ZM597.546 137.887C597.594 137.694 597.643 137.5 597.643 137.307C582.623 124.847 567.651 112.338 552.631 99.8291C558.475 111.13 564.512 121.997 570.645 132.767C571.032 133.395 571.756 133.878 572.384 133.975C580.787 135.375 589.191 136.631 597.546 137.887ZM127.48 100.409C127.335 100.215 127.239 100.071 127.142 99.9257C112.122 112.386 97.1504 124.943 82.082 137.404C90.6304 136.679 99.0339 135.375 107.389 134.071C108.017 133.975 108.79 133.492 109.128 132.864C115.358 121.997 121.395 111.227 127.48 100.409ZM46.8741 262.444C51.1725 270.22 55.2776 277.561 58.9964 284.177C62.4738 279.879 65.9028 275.532 69.3318 271.234C69.525 270.944 69.7665 270.364 69.7182 269.978C69.525 264.279 69.2835 258.58 69.042 252.495C61.5078 255.827 54.3117 259.063 46.8741 262.444ZM620.921 284.177C624.64 277.512 628.745 270.075 633.044 262.444C625.558 259.063 618.314 255.827 610.876 252.495C610.634 258.58 610.345 264.086 610.2 269.688C610.2 270.22 610.345 270.896 610.634 271.234C614.015 275.58 617.444 279.831 620.921 284.177ZM354.858 38.8305C349.642 31.9241 344.62 25.3557 340.08 19.4153C335.298 25.6455 330.324 32.1172 325.108 38.927C330.082 41.1004 334.767 43.1772 339.5 45.2056C339.887 45.3988 340.321 45.2057 340.708 45.1091C345.247 42.984 349.836 41.0039 354.858 38.8305ZM522.639 630.077C517.423 631.671 512.449 633.168 507.522 634.714C507.039 634.907 506.46 635.294 506.122 635.873C503.562 640.316 501.051 644.711 498.346 649.541C506.122 651.859 513.656 654.081 521.287 656.399C521.721 647.513 522.156 639.061 522.639 630.077ZM181.572 649.589C178.819 644.711 176.356 640.316 173.796 636.018C173.507 635.487 173.024 635.052 172.637 634.907C167.566 633.313 162.495 631.768 157.231 630.126C157.714 639.012 158.148 647.609 158.631 656.399C166.31 654.129 173.748 651.859 181.572 649.589ZM251.601 732.949C251.601 733.142 251.65 733.336 251.65 733.529C269.567 733.529 287.582 733.529 305.838 733.529C305.403 733.142 305.306 732.901 305.113 732.853C295.068 728.361 284.974 723.87 274.88 719.475C274.397 719.233 273.769 719.233 273.286 719.523C265.993 723.966 258.797 728.458 251.601 732.949ZM428.268 733.481C428.268 733.336 428.317 733.142 428.317 732.901C421.121 728.409 413.924 723.869 406.632 719.426C406.004 719.04 404.99 719.33 404.265 719.668C396.973 722.807 389.68 726.091 382.387 729.375C379.682 730.583 377.026 731.79 374.322 732.998C374.37 733.191 374.37 733.336 374.418 733.432C392.336 733.48 410.302 733.481 428.268 733.481ZM14.6606 348.363C15.1436 347.977 15.3851 347.832 15.4817 347.687C21.9051 338.607 28.3284 329.528 34.6552 320.4C35.2347 319.53 35.5245 318.033 35.5728 316.777C35.9592 310.982 36.2007 305.09 36.4422 299.294C36.6354 294.658 36.8285 289.924 37.0217 285.288C36.8768 285.24 36.7319 285.24 36.5387 285.191C29.3426 306.056 22.0982 326.92 14.6606 348.363ZM664.678 348.074C664.823 347.977 664.919 347.88 665.016 347.784C657.723 326.871 650.479 305.911 643.186 284.998C643.234 296.106 643.717 307.021 644.297 317.888C644.345 318.709 644.635 319.627 645.021 320.206C651.59 329.479 658.158 338.801 664.678 348.074ZM614.933 170.922C614.788 170.922 614.643 170.922 614.498 170.97C613.967 182.754 613.387 194.587 612.953 206.371C612.904 207.337 613.387 208.545 613.822 209.414C618.652 218.107 623.481 226.704 628.359 235.349C628.601 235.832 628.842 236.267 629.132 236.75C629.277 236.653 629.325 236.509 629.47 236.364C624.64 214.582 619.762 192.752 614.933 170.922ZM65.3715 171.067C65.2266 171.018 65.0817 170.97 64.9368 170.873C60.0589 192.703 55.2293 214.582 50.3031 236.653C50.6412 236.46 50.7861 236.412 50.8344 236.315C56.0504 227.139 61.2663 217.866 66.434 208.593C66.7721 207.965 66.917 206.999 66.917 206.226C66.4823 194.587 65.951 182.803 65.3715 171.067ZM503.9 675.911C503.272 675.959 503.079 675.911 502.838 675.959C494.434 679.678 485.982 683.397 477.627 687.212C476.903 687.55 476.226 688.42 475.743 689.289C470.817 697.934 465.843 706.579 460.916 715.321C460.578 715.949 460.289 716.577 459.951 717.205C460.047 717.301 460.095 717.398 460.192 717.494C474.681 703.682 489.17 689.917 503.9 675.911ZM219.678 717.446C219.774 717.349 219.822 717.156 219.967 717.06C216.538 710.974 212.771 705.227 209.68 698.804C205.72 690.4 200.601 684.942 193.356 683.3C192.245 683.059 191.279 682.383 190.169 681.851C185.677 679.92 181.186 677.891 176.694 675.911C176.597 676.104 176.549 676.249 176.501 676.49C190.893 690.11 205.285 703.778 219.678 717.446ZM588.515 610.372C588.515 610.179 588.466 610.083 588.466 609.89C588.273 609.89 588.032 609.841 587.839 609.89C578.807 612.691 569.776 615.492 560.745 618.341C559.875 618.631 559.006 619.452 558.33 620.273C553.693 626.697 549.057 633.265 544.42 639.785C543.599 640.944 542.585 641.91 541.619 642.924C541.813 643.214 542.054 643.552 542.199 643.842C557.654 632.734 573.108 621.577 588.515 610.372ZM137.574 643.89C137.719 643.697 137.767 643.552 137.912 643.359C132.213 635.39 126.514 627.325 120.815 619.404C120.332 618.776 119.608 618.535 118.98 618.293C112.847 616.41 106.761 614.478 100.628 612.594C97.585 611.676 94.4941 610.71 91.4514 609.793C91.4031 609.986 91.3548 610.179 91.3065 610.372C106.761 621.529 122.168 632.734 137.574 643.89ZM418.078 11.1082C418.078 10.915 418.078 10.7702 418.078 10.5287C400.402 11.8327 382.725 13.1367 365.049 14.4407C365.532 15.0203 366.063 15.31 366.594 15.4066C372.438 17.1936 378.378 18.5459 384.126 20.8158C388.907 22.6511 393.254 22.3613 397.89 19.9948C404.507 16.7589 411.316 14.1026 418.078 11.1082ZM314.966 14.972C314.966 14.7788 314.917 14.6822 314.917 14.489C297.241 13.185 279.565 11.881 261.212 10.5287C261.985 11.1083 262.226 11.3498 262.468 11.4463C270.871 15.1169 279.323 18.7874 287.727 22.4096C288.403 22.6994 289.224 22.6994 289.948 22.458C294.875 21.0091 299.752 19.5601 304.679 18.1112C308.059 17.097 311.488 16.0345 314.966 14.972ZM624.592 291.663C628.89 297.024 633.189 302.288 637.101 307.166C636.618 296.589 635.99 284.853 635.459 273.117C635.314 273.069 635.169 273.021 634.976 272.924C631.643 279.009 628.263 285.095 624.592 291.663ZM44.894 273.021C44.7491 273.069 44.5076 273.117 44.3627 273.214C43.8315 284.902 43.2519 296.541 42.7207 307.021C46.6327 302.192 50.8827 296.879 55.181 291.567C51.6554 285.095 48.2264 279.058 44.894 273.021ZM612.228 221.343C611.89 228.974 611.6 235.736 611.407 242.449C611.407 242.932 611.89 243.608 612.18 243.753C617.637 246.264 623.095 248.776 629.18 251.48C623.433 241.193 618.024 231.631 612.228 221.343ZM67.6414 221.343C61.8459 231.631 56.4367 241.193 50.6895 251.48C56.7748 248.727 62.2322 246.313 67.6414 243.753C68.0278 243.56 68.4624 242.642 68.4624 242.159C68.2693 235.494 67.9312 228.878 67.6414 221.343ZM528.241 649.879C534.906 640.51 541.136 631.768 547.367 623.026C541.523 624.282 535.969 625.972 530.415 627.808C529.98 627.904 529.4 628.677 529.352 629.208C528.966 635.728 528.628 642.345 528.241 649.879ZM151.532 647.512C151.242 642.103 150.904 635.487 150.518 628.87C150.469 628.387 149.938 627.856 149.552 627.711C143.949 625.924 138.299 624.185 132.696 622.495C132.551 622.736 132.503 622.881 132.358 623.123C138.83 631.43 145.35 639.688 151.532 647.512ZM511.048 663.016C511.048 662.774 511 662.533 511 662.388C505.59 660.794 500.181 659.152 494.772 657.607C494.386 657.51 493.71 657.703 493.516 658.138C490.377 663.547 487.286 669.005 484.195 674.462C484.292 674.655 484.34 674.752 484.437 674.945C493.275 670.888 502.161 666.976 511.048 663.016ZM378.234 28.5433C378.234 28.3501 378.234 28.2052 378.234 28.012C368.912 25.2108 359.688 22.3613 350.367 19.5601C350.222 19.8499 350.029 20.0914 349.884 20.3812C353.603 25.2591 357.321 30.1371 361.04 34.9668C361.378 35.3531 362.103 35.5463 362.489 35.3531C367.802 33.1798 373.018 30.8615 378.234 28.5433ZM196.109 675.138C194.032 671.468 192.294 668.425 190.555 665.431C189.058 662.774 187.85 658.91 185.919 657.945C183.842 656.979 181.089 658.766 178.674 659.442C175.39 660.359 172.154 661.374 168.87 662.436C168.87 662.678 168.87 662.822 168.87 663.064C177.757 666.976 186.691 670.936 196.109 675.138ZM301.636 28.1087C301.636 28.3018 301.636 28.4467 301.636 28.6399C306.852 30.9582 312.068 33.2764 317.332 35.498C317.767 35.6912 318.491 35.498 318.781 35.1116C322.5 30.282 326.219 25.404 329.938 20.5261C329.793 20.2846 329.648 19.9948 329.455 19.8016C320.182 22.4579 310.909 25.2592 301.636 28.1087ZM606.964 308.277C607.109 308.325 607.205 308.47 607.35 308.519C610.441 303.013 613.532 297.411 616.72 291.712C614.112 288.427 611.697 285.385 609.186 282.149C608.413 290.794 607.688 299.536 606.964 308.277ZM72.5194 308.47C72.6643 308.422 72.7608 308.277 72.954 308.229C72.1813 299.487 71.5051 290.746 70.7807 282.438C68.2693 285.529 65.8062 288.572 63.2465 291.76C66.3858 297.459 69.4767 302.965 72.5194 308.47ZM156.361 602.5C156.216 602.548 155.975 602.597 155.83 602.693C156.12 608.441 156.458 614.188 156.796 619.935C156.844 620.37 157.134 621.094 157.424 621.191C160.66 622.302 163.896 623.268 167.711 624.427C163.654 616.651 160.032 609.551 156.361 602.5ZM524.04 602.742C523.895 602.693 523.653 602.645 523.508 602.548C519.838 609.696 516.167 616.748 512.207 624.523C515.878 623.364 519.017 622.447 522.108 621.432C522.542 621.336 523.074 620.563 523.122 620.08C523.46 614.236 523.75 608.489 524.04 602.742ZM75.9001 262.251C80.9712 255.634 85.6559 249.597 90.2923 243.511C85.4144 245.057 80.8263 247.134 76.1898 249.307C75.8035 249.5 75.4171 250.563 75.4171 251.191C75.562 254.62 75.7552 258.097 75.9001 262.251ZM603.921 262.251C604.066 258.242 604.163 254.91 604.404 251.577C604.501 250.032 604.018 249.404 603.004 248.921C599.285 247.327 595.566 245.588 591.847 243.898C591.123 243.56 590.398 243.318 589.674 242.98C589.626 243.173 589.577 243.318 589.529 243.511C594.214 249.597 598.85 255.634 603.921 262.251ZM330.227 50.0353C326.702 48.4898 323.756 47.1375 320.81 45.9301C320.52 45.8335 319.989 46.0267 319.699 46.413C316.463 50.5665 313.275 54.7683 310.04 58.9218C310.184 59.2116 310.378 59.5014 310.523 59.7912C316.898 56.7002 323.224 53.5609 330.227 50.0353ZM369.299 59.8395C369.444 59.5014 369.637 59.2116 369.782 58.8736C366.643 54.7684 363.552 50.7114 360.412 46.7028C360.074 46.2198 359.35 45.8818 358.964 46.075C356.066 47.2341 353.168 48.5381 349.691 50.0836C356.597 53.561 362.924 56.6519 369.299 59.8395ZM497.332 637.467C490.184 639.302 483.519 640.992 476.854 642.683C481.442 644.566 486.031 645.967 490.619 647.223C491.102 647.319 491.826 646.933 492.164 646.402C493.854 643.649 495.4 640.848 497.332 637.467ZM182.538 637.467C184.47 640.848 186.112 643.794 187.802 646.643C188.044 647.03 188.671 647.319 189.01 647.271C193.694 645.967 198.331 644.566 203.015 643.166C203.015 642.973 203.015 642.828 202.967 642.635C196.351 640.944 189.686 639.302 182.538 637.467ZM493.951 309.436C493.178 306.683 492.502 304.269 491.826 301.902C491.681 301.95 491.488 301.999 491.343 301.999C491.343 304.752 491.343 307.504 491.343 310.402C492.164 310.064 492.937 309.774 493.951 309.436ZM188.527 310.402C188.527 307.36 188.527 304.703 188.527 301.999C188.382 301.95 188.237 301.95 188.044 301.902C187.319 304.365 186.643 306.828 185.919 309.436C186.981 309.823 187.705 310.064 188.527 310.402ZM183.649 317.405C182.876 320.013 182.248 322.331 181.572 324.698C181.717 324.795 181.765 324.891 181.91 324.988C183.359 322.911 184.759 320.834 186.402 318.468C185.387 318.13 184.663 317.84 183.649 317.405ZM493.468 318.468C495.159 320.883 496.559 322.959 498.008 325.036C498.105 324.988 498.201 324.843 498.298 324.795C497.622 322.38 496.897 319.965 496.221 317.502C495.255 317.84 494.579 318.033 493.468 318.468ZM251.988 528.558C252.132 528.365 252.181 528.268 252.326 528.075C251.118 525.95 249.863 523.873 248.51 521.507C247.931 522.521 247.448 523.294 246.917 524.211C248.752 525.853 250.346 527.206 251.988 528.558ZM431.359 521.603C429.959 523.97 428.751 526.095 427.544 528.172C427.641 528.365 427.737 528.461 427.834 528.655C429.572 527.206 431.214 525.853 433.291 524.163C432.47 523.052 431.987 522.424 431.359 521.603ZM242.763 517.595C240.976 517.063 239.382 516.58 237.499 516.001C240.638 519.961 241.459 520.154 242.763 517.595ZM442.564 515.904C440.487 516.532 438.893 517.063 437.251 517.595C438.362 520.299 438.845 520.106 442.564 515.904ZM343.46 187.342C344.861 186.715 346.262 186.135 348.193 185.266C343.654 184.348 343.171 184.541 343.46 187.342ZM336.506 187.391C336.554 184.638 335.395 184.155 332.014 185.459C333.656 186.135 335.009 186.715 336.506 187.391Z" fill="#757575"/>
<path d="M906.062 201.493H844.871V155.37H996.376C1005.84 155.37 1013.38 163.146 1013.38 172.371V201.493H952.185V349.571H906.062V201.493V201.493Z" fill="#757575"/>
<path d="M1225.78 252.495C1225.78 306.152 1182.32 349.619 1128.66 349.619C1075 349.619 1031.54 306.152 1031.54 252.495C1031.54 198.837 1075 155.37 1128.66 155.37C1182.32 155.37 1225.78 198.837 1225.78 252.495ZM1179.42 252.495C1179.42 224.579 1156.57 201.735 1128.66 201.735C1100.5 201.735 1077.9 224.579 1077.9 252.495C1077.9 280.652 1100.5 303.254 1128.66 303.254C1156.57 303.254 1179.42 280.652 1179.42 252.495Z" fill="#757575"/>
<path d="M1256.11 155.37H1297.65C1299.34 155.37 1301.03 156.095 1302.28 157.544L1354.73 218.494L1407.18 157.544C1408.39 156.095 1410.08 155.37 1412.06 155.37H1453.3V349.571H1407.18V228.201L1385.35 253.943L1367.63 274.325C1360.82 282.1 1348.7 282.1 1341.89 274.325L1302.33 228.201V349.571H1256.21V155.37H1256.11Z" fill="#757575"/>
<path d="M1574.58 155.37H1603.94C1613.41 155.37 1620.94 162.904 1620.94 172.371V229.409H1696.19V155.37H1725.55C1734.77 155.37 1742.55 162.904 1742.55 172.371V349.619H1696.19V275.58H1620.94V349.619H1574.58V155.37V155.37Z" fill="#757575"/>
<path d="M1967.08 252.495C1967.08 306.152 1923.61 349.619 1869.95 349.619C1816.3 349.619 1772.83 306.152 1772.83 252.495C1772.83 198.837 1816.3 155.37 1869.95 155.37C1923.61 155.37 1967.08 198.837 1967.08 252.495ZM1920.71 252.495C1920.71 224.579 1897.87 201.735 1869.95 201.735C1841.8 201.735 1819.2 224.579 1819.2 252.495C1819.2 280.652 1841.8 303.254 1869.95 303.254C1897.92 303.254 1920.71 280.652 1920.71 252.495Z" fill="#757575"/>
<path d="M1997.41 267.805C1997.41 258.58 2005.18 250.804 2014.41 250.804H2069.76C2083.86 250.804 2095.01 239.406 2094.29 225.304C2093.81 211.974 2082.41 201.735 2069.27 201.735H1997.41V155.612H2069.03C2107.86 155.612 2140.9 187.149 2140.65 226.028C2140.65 254.185 2124.14 278.237 2100.09 289.393L2160.31 349.619H2096.22L2043.53 296.927V349.619H1997.41V267.805Z" fill="#757575"/>
<path d="M2184.56 155.37H2220.97C2225.85 155.37 2230.68 157.543 2233.82 161.214L2335.53 279.444V155.37H2364.65C2374.12 155.37 2381.65 162.904 2381.65 172.371V349.619H2335.05L2230.68 228.25V349.619H2184.56V155.37V155.37Z" fill="#757575"/>
<path d="M882.493 589.122C881.575 588.832 880.465 588.494 879.547 588.059C878.629 587.77 877.712 587.287 876.746 586.997L874.718 585.934L870.854 583.906C870.226 583.423 869.453 583.133 868.874 582.65C867.618 581.877 866.411 580.96 865.3 580.187C862.837 578.352 860.663 576.323 858.49 574.295C847.382 563.042 840.427 547.587 840.427 530.586C840.427 513.441 847.382 497.986 858.49 486.878C860.663 484.705 862.837 482.869 865.3 481.034C866.362 480.116 867.618 479.344 868.874 478.571C871.482 476.881 874.138 475.48 876.746 474.224C877.663 473.741 878.581 473.452 879.547 472.969L882.493 472.051C888.675 469.878 895.292 468.815 902.246 468.815C909.201 468.815 915.817 469.878 921.999 472.051L924.945 472.969C925.863 473.452 926.781 473.741 927.747 474.224C930.548 475.48 933.156 476.832 935.619 478.571C936.875 479.344 938.082 480.116 939.338 481.034C941.656 482.869 943.974 484.753 946.002 486.878L925.284 507.597C923.738 506.197 922.192 504.796 920.502 503.733H920.357C920.067 503.444 919.585 503.106 919.102 502.816L918.184 502.333L916.928 501.56C916.011 501.077 915.238 500.787 914.32 500.498L913.065 500.015C912.775 499.87 912.437 499.725 912.147 499.725C911.857 499.58 911.664 499.58 911.519 499.435C911.229 499.435 910.746 499.29 910.457 499.145C907.849 498.517 905.047 498.228 902.295 498.228C899.493 498.228 896.74 498.517 894.277 499.145C893.794 499.29 893.505 499.435 893.022 499.435L892.539 499.725C892.249 499.725 891.766 499.87 891.476 500.015L890.221 500.498C889.303 500.787 888.53 501.125 887.757 501.56L886.695 502.043L886.212 502.526L885.294 503.009C885.005 503.154 884.522 503.492 884.232 503.782L882.831 504.699C882.831 504.699 882.686 504.699 882.686 504.844H882.541V504.989C881.914 505.279 881.479 505.762 880.996 506.052V506.197C874.186 512.089 869.888 520.879 869.888 530.586C869.888 540.342 874.234 548.987 880.996 554.976C881.479 555.266 881.914 555.749 882.541 556.232L882.831 556.522L884.232 557.439C885.294 558.212 886.55 558.84 887.806 559.468C888.578 559.951 889.351 560.385 890.269 560.723C891.525 561.206 892.877 561.641 894.277 561.979C896.74 562.607 899.542 563.042 902.295 563.042C905.096 563.042 907.849 562.559 910.457 561.979C911.712 561.689 913.065 561.206 914.32 560.723C915.238 560.434 916.011 559.951 916.928 559.468C918.184 558.84 919.247 558.212 920.309 557.439H920.454L922.917 555.604L925.235 553.431V530.731H943.781C949.818 530.731 954.599 535.513 954.599 541.405V553.141C954.599 561.013 951.653 568.596 946.099 574.15L945.954 574.295C943.926 576.323 941.608 578.303 939.289 580.187L935.57 582.65L933.735 583.713C932.48 584.485 931.127 585.258 929.727 585.886C929.099 586.369 928.326 586.659 927.747 586.949L925.284 587.866V588.011H924.994C924.076 588.494 923.158 588.784 922.048 589.074C915.866 591.247 909.249 592.309 902.295 592.309C895.292 592.358 888.675 591.247 882.493 589.122Z" fill="#757575"/>
<path d="M1016.71 475.722L1016.85 475.577C1018.4 471.713 1022.26 468.912 1026.75 468.912C1031.25 468.912 1034.92 471.52 1036.65 475.239L1091.33 592.165L1091.04 592.309H1060.75L1048.87 566.809H1004.83L992.946 592.309H962.375L1016.71 475.722ZM1035.88 539.232L1026.9 519.623L1017.77 539.232H1035.88Z" fill="#757575"/>
<path d="M1106.78 468.767H1133.2C1134.26 468.767 1135.37 469.25 1136.14 470.167L1169.52 508.949L1202.89 470.167C1203.66 469.25 1204.72 468.767 1205.98 468.767H1232.25V592.358H1202.89V515.132L1188.98 531.504L1177.73 544.496C1173.38 549.422 1165.65 549.422 1161.35 544.496L1136.19 515.132V592.358H1106.83V468.767H1106.78Z" fill="#757575"/>
<path d="M1255.39 468.767H1274.08C1279.92 468.767 1284.9 473.548 1284.9 479.585V592.358H1255.39V468.767Z" fill="#757575"/>
<path d="M1308.03 468.767H1331.21C1334.3 468.767 1337.39 470.167 1339.42 472.486L1404.14 547.732V468.815H1422.69C1428.72 468.815 1433.5 473.596 1433.5 479.634V592.406H1403.85L1337.44 515.18V592.406H1308.08V468.767H1308.03Z" fill="#757575"/>
<path d="M1494.79 589.122C1493.87 588.832 1492.81 588.494 1491.84 588.059C1490.93 587.77 1490.01 587.287 1489.04 586.997L1487.06 585.934L1483.2 583.906C1482.57 583.423 1481.8 583.133 1481.17 582.65C1479.92 581.877 1478.71 580.96 1477.6 580.187C1475.13 578.352 1472.96 576.323 1470.79 574.295C1459.68 563.042 1452.73 547.587 1452.73 530.586C1452.73 513.441 1459.68 497.986 1470.79 486.878C1472.96 484.705 1475.13 482.869 1477.6 481.034C1478.66 480.116 1479.92 479.344 1481.17 478.571C1483.78 476.881 1486.44 475.48 1489.04 474.224C1489.96 473.741 1490.88 473.452 1491.84 472.969L1494.79 472.051C1500.97 469.878 1507.59 468.815 1514.54 468.815C1521.5 468.815 1528.12 469.878 1534.3 472.051L1537.24 472.969C1538.16 473.452 1539.08 473.741 1540.04 474.224C1542.85 475.48 1545.45 476.832 1547.92 478.571C1549.17 479.344 1550.38 480.116 1551.64 481.034C1553.95 482.869 1556.27 484.753 1558.25 486.878L1537.53 507.597C1535.99 506.197 1534.44 504.796 1532.75 503.733H1532.61C1532.32 503.444 1531.83 503.106 1531.35 502.816L1530.43 502.333L1529.18 501.56C1528.26 501.077 1527.49 500.787 1526.57 500.498L1525.31 500.015C1525.02 499.87 1524.69 499.725 1524.4 499.725C1524.11 499.58 1523.91 499.58 1523.77 499.435C1523.48 499.435 1523 499.29 1522.71 499.145C1520.1 498.517 1517.3 498.228 1514.5 498.228C1511.69 498.228 1508.94 498.517 1506.48 499.145C1506 499.29 1505.71 499.435 1505.22 499.435L1504.74 499.725C1504.45 499.725 1503.97 499.87 1503.68 500.015L1502.42 500.498C1501.5 500.787 1500.73 501.125 1499.96 501.56L1498.9 502.043L1498.41 502.526L1497.5 503.009C1497.21 503.154 1496.72 503.492 1496.43 503.782L1495.03 504.699C1495.03 504.699 1494.89 504.699 1494.89 504.844H1494.74V504.989C1494.11 505.279 1493.68 505.762 1493.2 506.052V506.197C1486.39 512.089 1482.09 520.879 1482.09 530.586C1482.09 540.342 1486.44 548.987 1493.2 554.976C1493.68 555.266 1494.11 555.749 1494.74 556.232L1495.03 556.522L1496.43 557.439C1497.5 558.212 1498.75 558.84 1500.01 559.468C1500.78 559.951 1501.55 560.385 1502.47 560.723C1503.73 561.206 1505.08 561.641 1506.48 561.979C1508.94 562.607 1511.74 563.042 1514.5 563.042C1517.25 563.042 1520.05 562.559 1522.71 561.979C1523.96 561.689 1525.31 561.206 1526.57 560.723C1527.49 560.434 1528.26 559.951 1529.18 559.468C1530.43 558.84 1531.5 558.212 1532.56 557.439H1532.7L1535.17 555.604L1537.48 553.431V530.731H1556.03C1562.07 530.731 1566.85 535.513 1566.85 541.405V553.141C1566.85 561.013 1563.9 568.596 1558.35 574.15L1558.2 574.295C1556.22 576.323 1553.91 578.303 1551.59 580.187L1547.87 582.65L1546.03 583.713C1544.78 584.485 1543.43 585.258 1542.02 585.886C1541.4 586.369 1540.62 586.659 1540 586.949L1537.53 587.866V588.011H1537.24C1536.33 588.494 1535.41 588.784 1534.3 589.074C1528.12 591.247 1521.5 592.309 1514.54 592.309C1507.64 592.358 1500.97 591.247 1494.79 589.122Z" fill="#757575"/>
</svg>
