<svg width="968" height="281" viewBox="0 0 968 281" fill="none" xmlns="http://www.w3.org/2000/svg">
<mask id="mask0_1342_1039" style="mask-type:luminance" maskUnits="userSpaceOnUse" x="0" y="0" width="968" height="281">
<path d="M968 0H0V280.667H968V0Z" fill="white"/>
</mask>
<g mask="url(#mask0_1342_1039)">
<path d="M138.098 0C61.8152 0 0 61.8152 0 138.098C0 214.38 61.8152 276.196 138.098 276.196C214.38 276.196 276.196 214.38 276.196 138.098C276.196 61.8152 214.38 0 138.098 0ZM240.685 200.702L201.491 239.896C195.967 245.42 187.287 245.42 181.763 239.896L137.572 195.704L93.3804 239.896C87.8565 245.42 79.1761 245.42 73.6522 239.896L34.4587 200.702C28.9348 195.178 28.9348 186.498 34.4587 180.974L78.65 136.783L34.4587 92.5913C28.9348 87.0674 28.9348 78.387 34.4587 72.863L73.6522 33.6696C79.1761 28.1457 87.8565 28.1457 93.3804 33.6696L137.572 77.8609L181.763 33.6696C187.287 28.1457 195.967 28.1457 201.491 33.6696L240.685 72.863C246.209 78.387 246.209 87.0674 240.685 92.5913L196.493 136.783L240.685 180.974C246.209 186.498 246.209 195.178 240.685 200.702Z" fill="#757575"/>
<path d="M902.239 0.000244141C865.939 0.000244141 836.479 29.4611 836.479 65.7611C836.479 102.061 865.939 131.522 902.239 131.522C938.539 131.522 968 102.061 968 65.7611C968 29.4611 938.539 0.000244141 902.239 0.000244141ZM932.489 78.9133C934.068 80.4916 934.068 83.122 932.489 84.7003L920.915 96.2742C919.337 97.8524 916.707 97.8524 915.129 96.2742L902.239 83.385L889.35 96.2742C887.772 97.8524 885.142 97.8524 883.563 96.2742L871.989 84.7003C870.411 83.122 870.411 80.4916 871.989 78.9133L884.879 66.0242L871.989 53.135C870.411 51.5568 870.411 48.9263 871.989 47.3481L883.563 35.7742C885.142 34.1959 887.772 34.1959 889.35 35.7742L902.239 48.6633L915.129 35.7742C916.707 34.1959 919.337 34.1959 920.915 35.7742L932.489 47.3481C934.068 48.9263 934.068 51.5568 932.489 53.135L919.6 66.0242L932.489 78.9133Z" fill="#757575"/>
<path d="M490.313 163.087H527.139C528.717 163.087 530.296 164.139 530.822 165.718L571.857 275.407C572.909 278.037 570.804 280.668 568.174 280.668H533.978C532.4 280.668 530.822 279.615 530.296 278.037L526.876 268.568C526.35 266.989 524.772 265.937 523.193 265.937H494.259C492.68 265.937 491.102 266.989 490.576 268.568L487.157 278.037C486.63 279.615 485.052 280.668 483.474 280.668H449.541C446.911 280.668 444.807 278.037 445.859 275.407L486.63 165.455C487.157 164.139 488.735 163.087 490.313 163.087ZM516.617 239.107C519.248 239.107 521.089 236.476 520.3 234.109L508.989 199.124H508.2L497.152 234.109C496.363 236.739 498.204 239.107 500.835 239.107H516.617Z" fill="#757575"/>
<path d="M589.217 163.087H616.311C617.626 163.087 618.678 163.613 619.467 164.665L651.821 208.331C653.4 210.435 656.556 210.435 658.135 208.331L690.489 164.665C691.278 163.613 692.33 163.087 693.645 163.087H720.476C722.58 163.087 724.421 164.928 724.421 167.033V276.722C724.421 278.826 722.58 280.668 720.476 280.668H688.648C686.543 280.668 684.702 278.826 684.702 276.722V253.574L684.965 229.374H684.439L667.078 253.048C666.289 254.1 665.237 254.626 663.921 254.626H645.508C644.193 254.626 643.141 254.1 642.352 253.048L624.991 229.111L624.465 229.374L624.728 253.574V276.722C624.728 278.826 622.887 280.668 620.782 280.668H589.217C587.113 280.668 585.271 278.826 585.271 276.722V167.033C585.271 164.665 586.85 163.087 589.217 163.087Z" fill="#757575"/>
<path d="M929.334 209.646H891.718C891.718 209.646 883.564 210.172 883.564 203.07C883.564 195.967 891.718 195.967 891.718 195.967H964.055C966.16 195.967 968.001 194.126 968.001 192.022V166.77C968.001 164.665 966.16 162.824 964.055 162.824H889.351C870.149 162.824 850.42 162.824 850.42 201.754C850.42 237.002 869.36 233.846 888.825 233.846H926.44C926.44 233.846 934.857 233.846 934.857 240.422C934.857 246.998 926.703 247.261 926.703 247.261H832.27C832.27 247.261 832.27 247.261 832.007 247.261H770.718V237.791C770.718 235.687 772.56 233.846 774.664 233.846H812.542C814.647 233.846 816.488 232.004 816.488 229.9V213.065C816.488 210.961 814.647 209.12 812.542 209.12H770.718V199.913C770.718 197.809 772.56 195.967 774.664 195.967H832.007C834.112 195.967 835.953 194.126 835.953 192.022V166.77C835.953 164.665 834.112 162.824 832.007 162.824H741.784C739.679 162.824 737.838 164.665 737.838 166.77V276.459C737.838 278.563 739.679 280.405 741.784 280.405H825.168H832.27H929.071C949.062 280.405 967.738 280.405 967.738 241.474C968.001 206.489 948.01 209.646 929.334 209.646Z" fill="#757575"/>
<path d="M661.818 128.629L639.722 91.8027C638.67 90.2244 637.092 89.1723 635.25 89.1723H623.413C620.52 89.1723 618.153 91.5397 618.153 94.4331V125.735C618.153 128.629 615.785 130.996 612.892 130.996H582.642C579.748 130.996 577.381 128.629 577.381 125.735V5.52443C577.381 2.63095 579.748 0.26355 582.642 0.26355H657.872C688.122 0.26355 703.379 22.6223 703.379 44.7179C703.379 59.9744 696.276 75.231 682.072 83.3853C681.809 83.6483 681.546 84.1744 681.809 84.4375L704.168 123.368C706.272 126.787 703.642 131.259 699.433 131.259H666.29C664.448 131.259 662.87 130.47 661.818 128.629ZM618.153 58.3962C618.153 58.6592 618.416 58.9223 618.679 58.9223H648.403C658.398 58.9223 663.396 51.8201 663.396 44.7179C663.396 37.6157 658.398 30.5136 648.403 30.5136H623.413C620.52 30.5136 618.153 32.8809 618.153 35.7744V58.3962Z" fill="#757575"/>
<path d="M816.485 63.9198C816.221 63.6568 816.221 63.6568 816.221 63.3937C816.221 63.1307 816.221 63.1307 816.485 62.8676C822.798 56.2916 826.48 45.7698 826.48 35.2481C826.48 10.785 810.698 0.000244141 794.915 0.000244141H722.578C718.895 0.000244141 716.002 2.89372 716.002 6.57633V124.946C716.002 128.629 718.895 131.522 722.578 131.522H794.915C818.852 131.522 829.637 112.057 829.637 94.1698C829.637 81.8068 824.639 70.7589 816.485 63.9198ZM780.711 55.2394H752.302V33.9329C752.302 31.8285 754.143 29.9872 756.248 29.9872H780.711C789.917 29.9872 794.126 36.3002 794.126 42.6133C794.126 48.9263 789.917 55.2394 780.711 55.2394ZM756.248 78.3872H780.711C789.917 78.3872 794.126 84.7002 794.126 91.0133C794.126 97.0633 789.917 103.639 780.711 103.639H752.302V82.3329C752.302 80.2285 754.143 78.3872 756.248 78.3872Z" fill="#757575"/>
<path d="M434.546 210.172H391.933C388.513 210.172 385.883 212.803 385.883 216.222V230.953C385.883 234.372 388.513 237.003 391.933 237.003H406.137C406.663 237.003 407.189 237.529 407.189 238.055V245.683C407.189 245.946 406.926 246.472 406.663 246.736C402.718 248.84 398.246 249.892 392.459 249.892H391.67C379.307 249.892 372.994 249.629 367.207 249.366C355.107 248.577 346.163 237.266 346.163 222.536V222.272C346.163 209.646 354.055 199.125 366.155 195.705C369.048 194.916 415.607 194.653 433.231 194.916C436.124 194.916 438.228 192.549 438.228 189.918C438.228 182.29 438.228 168.612 438.228 168.612C438.228 165.718 435.861 163.614 433.231 163.614C415.344 163.614 366.944 163.614 365.891 163.877C333.8 166.244 310.652 190.97 310.652 222.272V222.536C310.652 256.994 328.013 278.3 358.263 280.668C359.578 280.668 369.574 280.931 384.831 280.931C390.881 280.931 395.615 280.931 396.405 280.931C396.931 280.931 397.457 280.931 398.246 280.931C414.291 280.931 439.018 264.885 440.859 260.151C441.122 259.625 440.859 216.749 440.859 216.749C440.596 212.803 437.965 210.172 434.546 210.172Z" fill="#757575"/>
<path d="M418.24 0.000244141H318.021C315.127 0.000244141 312.76 2.36764 312.76 5.26111V35.2481C312.76 38.1416 315.127 40.5089 318.021 40.5089H342.484C345.377 40.5089 347.745 42.8763 347.745 45.7698V126.261C347.745 129.155 350.112 131.522 353.005 131.522H382.992C385.886 131.522 388.253 129.155 388.253 126.261V46.0329C388.253 43.1394 390.621 40.772 393.514 40.772H417.977C420.871 40.772 423.238 38.4046 423.238 35.5111V5.26111C423.501 2.36764 421.134 0.000244141 418.24 0.000244141Z" fill="#757575"/>
<path d="M527.928 0.26355C525.035 0.26355 522.668 2.63095 522.668 5.52442V86.0157C522.668 91.5396 520.563 93.644 514.776 93.644H486.105C480.318 93.644 478.213 91.5396 478.213 86.0157V5.52442C478.213 2.63095 475.846 0.26355 472.952 0.26355H441.913C439.02 0.26355 436.652 2.63095 436.652 5.52442V91.2766C436.652 105.218 440.072 115.477 446.648 121.79C453.224 128.366 464.009 131.522 478.213 131.522H522.141C536.346 131.522 547.131 128.103 553.707 121.79C560.283 115.214 563.702 104.955 563.702 91.2766V5.52442C563.702 2.63095 561.335 0.26355 558.441 0.26355H527.928Z" fill="#757575"/>
</g>
</svg>
