<?xml version="1.0" encoding="utf-8"?>
<!-- Generator: Adobe Illustrator 24.2.1, SVG Export Plug-In . SVG Version: 6.00 Build 0)  -->
<svg version="1.1" id="Layer_1" xmlns="http://www.w3.org/2000/svg" xmlns:xlink="http://www.w3.org/1999/xlink" x="0px" y="0px"
	 viewBox="0 0 48 32" style="enable-background:new 0 0 48 32;" xml:space="preserve">
<style type="text/css">
	.st0{fill:url(#SVGID_1_);}
	.st1{fill:url(#SVGID_2_);}
	.st2{fill:url(#SVGID_3_);}
	.st3{fill:url(#SVGID_4_);}
	.st4{fill:url(#SVGID_5_);}
	.st5{fill:url(#SVGID_6_);}
	.st6{fill:url(#SVGID_7_);}
</style>
<linearGradient id="SVGID_1_" gradientUnits="userSpaceOnUse" x1="24.0289" y1="27.2755" x2="24.0289" y2="31.4168" gradientTransform="matrix(1 0 0 -1 0 32.9898)">
	<stop  offset="6.933688e-02" style="stop-color:#DED8CF"/>
	<stop  offset="1" style="stop-color:#FCFDFB"/>
</linearGradient>
<rect x="1.6" y="1.6" class="st0" width="44.9" height="4.1"/>
<linearGradient id="SVGID_2_" gradientUnits="userSpaceOnUse" x1="24.0289" y1="2.6359" x2="24.0289" y2="6.7755" gradientTransform="matrix(1 0 0 -1 0 32.9898)">
	<stop  offset="0" style="stop-color:#F6DFAF"/>
	<stop  offset="6.550192e-02" style="stop-color:#F2DDB0"/>
	<stop  offset="0.1225" style="stop-color:#E8D6B3"/>
</linearGradient>
<rect x="1.6" y="26.2" class="st1" width="44.9" height="4.1"/>
<linearGradient id="SVGID_3_" gradientUnits="userSpaceOnUse" x1="24" y1="1.0407" x2="24" y2="33.0407" gradientTransform="matrix(1 0 0 -1 0 32.9898)">
	<stop  offset="0" style="stop-color:#F6DFAF"/>
	<stop  offset="6.550192e-02" style="stop-color:#F2DDB0"/>
	<stop  offset="0.1225" style="stop-color:#E8D6B3"/>
	<stop  offset="0.2583" style="stop-color:#E4D3B3"/>
	<stop  offset="0.4027" style="stop-color:#D7CBB4"/>
	<stop  offset="0.5375" style="stop-color:#C4BFB5"/>
	<stop  offset="0.6854" style="stop-color:#CFC9C0"/>
	<stop  offset="0.8347" style="stop-color:#DED8CF"/>
	<stop  offset="1" style="stop-color:#FCFDFB"/>
</linearGradient>
<path class="st2" d="M48,0.5V0l0,0h-0.5H0v0.5l0,0v31l0,0V32h48v-0.5l0,0V0.5L48,0.5z M47.5,31.5H0.5v-31h47.1
	C47.5,0.5,47.5,31.5,47.5,31.5z"/>
<linearGradient id="SVGID_4_" gradientUnits="userSpaceOnUse" x1="36.3759" y1="11.3198" x2="36.3759" y2="22.7089" gradientTransform="matrix(1 0 0 -1 0 32.9898)">
	<stop  offset="0" style="stop-color:#F6DFAF"/>
	<stop  offset="6.550192e-02" style="stop-color:#F2DDB0"/>
	<stop  offset="0.1225" style="stop-color:#E8D6B3"/>
	<stop  offset="0.2583" style="stop-color:#E4D3B3"/>
	<stop  offset="0.4027" style="stop-color:#D7CBB4"/>
	<stop  offset="0.5375" style="stop-color:#C4BFB5"/>
	<stop  offset="0.6854" style="stop-color:#CFC9C0"/>
	<stop  offset="0.8347" style="stop-color:#DED8CF"/>
	<stop  offset="1" style="stop-color:#FCFDFB"/>
</linearGradient>
<path class="st3" d="M39.2,10.3h-2.4c-0.6,0-1,0.3-1.2,0.8l-4.3,10.5h3l0.6-1.7h3.7l0.3,1.7h2.7L39.2,10.3z M35.7,17.6l1.5-4.3
	l0.9,4.3H35.7z"/>
<linearGradient id="SVGID_5_" gradientUnits="userSpaceOnUse" x1="20.9928" y1="11.3198" x2="20.9928" y2="22.7089" gradientTransform="matrix(1 0 0 -1 0 32.9898)">
	<stop  offset="0" style="stop-color:#F6DFAF"/>
	<stop  offset="6.550192e-02" style="stop-color:#F2DDB0"/>
	<stop  offset="0.1225" style="stop-color:#E8D6B3"/>
	<stop  offset="0.2583" style="stop-color:#E4D3B3"/>
	<stop  offset="0.4027" style="stop-color:#D7CBB4"/>
	<stop  offset="0.5375" style="stop-color:#C4BFB5"/>
	<stop  offset="0.6854" style="stop-color:#CFC9C0"/>
	<stop  offset="0.8347" style="stop-color:#DED8CF"/>
	<stop  offset="1" style="stop-color:#FCFDFB"/>
</linearGradient>
<polygon class="st4" points="23.6,10.3 20.8,10.3 18.4,21.7 21.2,21.7 "/>
<linearGradient id="SVGID_6_" gradientUnits="userSpaceOnUse" x1="27.5566" y1="11.1399" x2="27.5566" y2="22.9156" gradientTransform="matrix(1 0 0 -1 0 32.9898)">
	<stop  offset="0" style="stop-color:#F6DFAF"/>
	<stop  offset="6.550192e-02" style="stop-color:#F2DDB0"/>
	<stop  offset="0.1225" style="stop-color:#E8D6B3"/>
	<stop  offset="0.2583" style="stop-color:#E4D3B3"/>
	<stop  offset="0.4027" style="stop-color:#D7CBB4"/>
	<stop  offset="0.5375" style="stop-color:#C4BFB5"/>
	<stop  offset="0.6854" style="stop-color:#CFC9C0"/>
	<stop  offset="0.8347" style="stop-color:#DED8CF"/>
	<stop  offset="1" style="stop-color:#FCFDFB"/>
</linearGradient>
<path class="st5" d="M31.4,17.9c0-3-4-3.2-4-4.5c0-0.4,0.4-0.8,1.2-1c0.4-0.1,1.6-0.1,2.8,0.5l0.5-2.4c-0.8-0.3-1.6-0.6-2.8-0.6
	c-2.8,0-4.8,1.6-4.9,3.8c0,1.6,1.4,2.6,2.5,3.1c1.1,0.5,1.5,0.9,1.5,1.4c0,0.8-0.9,1.1-1.7,1.1c-1.4,0-2.3-0.4-2.9-0.7l-0.5,2.5
	c0.7,0.3,1.9,0.6,3.2,0.6C29.4,21.8,31.4,20.3,31.4,17.9z"/>
<linearGradient id="SVGID_7_" gradientUnits="userSpaceOnUse" x1="12.7807" y1="11.3198" x2="12.7807" y2="22.7089" gradientTransform="matrix(1 0 0 -1 0 32.9898)">
	<stop  offset="0" style="stop-color:#F6DFAF"/>
	<stop  offset="6.550192e-02" style="stop-color:#F2DDB0"/>
	<stop  offset="0.1225" style="stop-color:#E8D6B3"/>
	<stop  offset="0.2583" style="stop-color:#E4D3B3"/>
	<stop  offset="0.4027" style="stop-color:#D7CBB4"/>
	<stop  offset="0.5375" style="stop-color:#C4BFB5"/>
	<stop  offset="0.6854" style="stop-color:#CFC9C0"/>
	<stop  offset="0.8347" style="stop-color:#DED8CF"/>
	<stop  offset="1" style="stop-color:#FCFDFB"/>
</linearGradient>
<path class="st6" d="M13.5,18l-1.2-6.6c-0.1-0.7-0.7-1.1-1.3-1.1H6.1l-0.1,0.3c1,0.2,2.1,0.6,2.8,1c0.4,0.2,0.5,0.4,0.7,1l2.3,9.1h3
	l4.6-11.4h-3L13.5,18z"/>
</svg>
