<svg width="10" height="10" viewBox="0 0 10 10" fill="none" xmlns="http://www.w3.org/2000/svg">
<path d="M9.29808 0.701919C8.59616 0 7.46373 0 5.19887 0H4.79878C2.53627 0 1.40384 0 0.701918 0.701919C0 1.40384 0 2.53627 0 4.80112V5.20122C0 7.46373 0 8.59616 0.701918 9.29808C1.40384 10 2.53627 10 4.79878 10H5.19887C7.46373 10 8.59382 10 9.29808 9.29808C10.0023 8.59616 10 7.46373 10 5.20122V4.80112C10 2.53627 10 1.40618 9.29808 0.701919ZM7.17595 7.20636C7.06741 6.8167 6.84636 6.46769 6.54048 6.20301C6.2346 5.93833 5.85746 5.76973 5.45625 5.7183V7.20636H5.32756C3.04867 7.20636 1.74778 5.64342 1.69396 3.04165H2.83575C2.87319 4.95086 3.71549 5.76041 4.38231 5.92653V3.04165H5.45625V4.67946C6.11605 4.60692 6.80627 3.85821 7.04024 3.04165H8.11652C8.02852 3.46951 7.85324 3.87464 7.60164 4.23172C7.35003 4.5888 7.0275 4.89016 6.65419 5.11699C7.07112 5.32442 7.43934 5.61788 7.73456 5.97803C8.02978 6.33818 8.24529 6.75683 8.36687 7.20636H7.17595Z" fill="url(#paint0_linear_7_64)"/>
<defs>
<linearGradient id="paint0_linear_7_64" x1="5.00336" y1="10.0205" x2="5.00336" y2="-0.000586553" gradientUnits="userSpaceOnUse">
<stop stop-color="#E5BF87"/>
<stop offset="0.52" stop-color="#ABA295"/>
<stop offset="0.74" stop-color="#D7CDC3"/>
<stop offset="1" stop-color="#E6E6E5"/>
</linearGradient>
</defs>
</svg>
