<svg width="23" height="23" viewBox="0 0 23 23" fill="none" xmlns="http://www.w3.org/2000/svg">
<g clip-path="url(#clip0_2170_153)">
<path d="M23 16.0099C23 15.6265 22.9245 15.2468 22.7777 14.8925C22.631 14.5382 22.4159 14.2164 22.1447 13.9453C21.8736 13.6741 21.5517 13.4591 21.1974 13.3123C20.8432 13.1656 20.4634 13.09 20.08 13.09H16.67C17.1165 12.0395 17.3517 10.9112 17.3621 9.76971C17.3726 8.62824 17.1582 7.4959 16.731 6.43732C16.3039 5.37873 15.6724 4.41458 14.8726 3.60004C14.0729 2.78549 13.1206 2.1365 12.07 1.69C11.0194 1.24351 9.89117 1.00833 8.74969 0.997863C7.60822 0.987394 6.47589 1.20182 5.4173 1.62897C4.35871 2.05612 3.39462 2.68763 2.58008 3.48737C1.76553 4.2871 1.11648 5.2394 0.669983 6.28998C0.217412 7.36653 -0.0171165 8.52219 -0.0200195 9.69C-0.0187887 10.8397 0.210557 11.9776 0.654724 13.038C1.09889 14.0984 1.74907 15.0602 2.56757 15.8675C3.38606 16.6748 4.35658 17.3117 5.42297 17.7413C6.48937 18.1708 7.6304 18.3846 8.77997 18.3701V21.77C8.78136 22.0923 8.88392 22.4062 9.07312 22.6672C9.26232 22.9282 9.5286 23.1233 9.83453 23.2249C10.1405 23.3265 10.4706 23.3295 10.7784 23.2336C11.0861 23.1376 11.356 22.9475 11.55 22.69L14.37 18.93H17.37L20.19 22.69C20.3112 22.8525 20.4633 22.9895 20.6376 23.0931C20.8119 23.1967 21.0049 23.2648 21.2056 23.2936C21.4063 23.3224 21.6107 23.3113 21.8071 23.2609C22.0034 23.2105 22.1879 23.1219 22.35 23.0001C22.5387 22.8551 22.6918 22.6689 22.7975 22.4557C22.9033 22.2426 22.9588 22.0079 22.96 21.77L23 16.0099ZM22.31 16.0099C22.31 16.6014 22.0751 17.1686 21.6569 17.5869C21.2387 18.0051 20.6714 18.2401 20.08 18.2401H11.72C11.1311 18.2374 10.5669 18.0029 10.1495 17.5875C9.73218 17.172 9.49524 16.6088 9.48999 16.02C9.48999 15.4285 9.72492 14.8614 10.1431 14.4432C10.5613 14.025 11.1285 13.79 11.72 13.79H13.93L14.36 14.98C14.3828 15.0469 14.4259 15.1048 14.4833 15.1461C14.5406 15.1873 14.6094 15.2097 14.68 15.21H17.12C17.1906 15.2097 17.2594 15.1873 17.3167 15.1461C17.3741 15.1048 17.4172 15.0469 17.44 14.98L17.87 13.79H20.08C20.6714 13.79 21.2387 14.025 21.6569 14.4432C22.0751 14.8614 22.31 15.4285 22.31 16.02V16.0099ZM5.20996 10.2501L3.29999 10.8701L0.73999 8.87006C0.843566 7.74473 1.18438 6.65405 1.73999 5.66998L4.98999 5.56L6.20001 6.82001L5.20996 10.2501ZM1.88 13.8701C1.12104 12.6325 0.713142 11.2116 0.700012 9.75995L2.82001 11.3799L1.88 13.8701ZM5.57001 2.33002L4.88 4.90997L2.20996 5.00006C3.06808 3.82276 4.22929 2.9 5.57001 2.33002ZM6.87 7.11005H10.5L11.5 10.39L8.70001 12.45L5.85999 10.39L6.87 7.11005ZM15.24 5.11005L12.58 4.97003L11.94 2.37006C13.2663 2.96537 14.4067 3.90874 15.24 5.10004V5.11005ZM12.43 5.65997L15.69 5.84003C16.1527 6.68453 16.4576 7.60621 16.59 8.56L14.11 10.64L12.11 10.21L11.11 6.86005L12.43 5.65997ZM15.91 13.08H15.45L14.62 11.08L16.62 9.37994C16.6776 10.6465 16.4199 11.9076 15.87 13.05L15.91 13.08ZM11.72 13.08C11.1477 13.0801 10.5881 13.2478 10.11 13.5623C9.63201 13.8769 9.25652 14.3246 9.02997 14.85V13.05L11.96 10.8799L13.96 11.31L14.7 13.08H11.72ZM16.87 14.5001H14.93L14.66 13.77H17.14L16.87 14.5001ZM11.15 2.08002L11.92 5.19L10.62 6.39996H6.76001L5.53998 5.13995L6.37 2.02997C7.93119 1.55909 9.59896 1.57658 11.15 2.08002ZM2.35999 14.55L3.5 11.55L5.42999 10.92L8.33997 13.08V15.21L5.73999 17.1299C4.4024 16.5934 3.23459 15.7055 2.35999 14.56V14.55ZM6.54999 17.3799L8.69 15.79L8.81 15.8799C8.81 16.1899 8.81 15.47 8.81 17.67C8.04725 17.6833 7.28643 17.589 6.54999 17.39V17.3799ZM11.01 22.27C10.8749 22.4474 10.6755 22.5648 10.4548 22.5966C10.234 22.6284 10.0096 22.5721 9.82996 22.44C9.72496 22.3603 9.6397 22.2575 9.58075 22.1396C9.5218 22.0217 9.49076 21.8918 9.48999 21.7599V18.32L9.89001 18.27C10.4072 18.6905 11.0534 18.9201 11.72 18.92H13.52L11.01 22.27ZM22.31 21.7599C22.31 21.9854 22.2204 22.2016 22.061 22.361C21.9016 22.5204 21.6854 22.61 21.46 22.61C21.3283 22.6085 21.1987 22.5771 21.0809 22.5182C20.9631 22.4594 20.8602 22.3744 20.78 22.27L18.28 18.92H20.08C20.5016 18.923 20.9191 18.8352 21.3038 18.6627C21.6886 18.4901 22.0318 18.2368 22.31 17.92V21.7599Z" fill="#DAC092"/>
<path d="M13.15 15.7501H12.47V15.07C12.4561 14.9886 12.4138 14.9147 12.3506 14.8614C12.2875 14.8081 12.2076 14.779 12.125 14.779C12.0424 14.779 11.9624 14.8081 11.8993 14.8614C11.8362 14.9147 11.7939 14.9886 11.78 15.07V15.7501H11.1C11.0071 15.7501 10.9181 15.7868 10.8525 15.8525C10.7868 15.9181 10.75 16.0072 10.75 16.1C10.75 16.1929 10.7868 16.2818 10.8525 16.3475C10.9181 16.4131 11.0071 16.45 11.1 16.45H11.78V17.1299C11.7939 17.2114 11.8362 17.2853 11.8993 17.3386C11.9624 17.3918 12.0424 17.4211 12.125 17.4211C12.2076 17.4211 12.2875 17.3918 12.3506 17.3386C12.4138 17.2853 12.4561 17.2114 12.47 17.1299V16.45H13.15C13.2428 16.45 13.3318 16.4131 13.3975 16.3475C13.4631 16.2818 13.5 16.1929 13.5 16.1C13.5 16.0072 13.4631 15.9181 13.3975 15.8525C13.3318 15.7868 13.2428 15.7501 13.15 15.7501Z" fill="#DAC092"/>
<path d="M18.65 16.45H19.33V17.1299C19.33 17.2201 19.3658 17.3067 19.4296 17.3704C19.4933 17.4342 19.5798 17.47 19.67 17.47C19.7611 17.4701 19.8486 17.4345 19.914 17.371C19.9794 17.3075 20.0174 17.221 20.02 17.1299V16.45H20.7C20.7928 16.45 20.8818 16.4131 20.9474 16.3475C21.0131 16.2818 21.05 16.1929 21.05 16.1C21.05 16.0072 21.0131 15.9181 20.9474 15.8525C20.8818 15.7868 20.7928 15.7501 20.7 15.7501H20.02V15.07C20.0174 14.9789 19.9794 14.8924 19.914 14.8289C19.8486 14.7654 19.7611 14.73 19.67 14.73C19.5798 14.73 19.4933 14.7658 19.4296 14.8295C19.3658 14.8933 19.33 14.9798 19.33 15.07V15.7501H18.65C18.5571 15.7501 18.4682 15.7868 18.4025 15.8525C18.3369 15.9181 18.3 16.0072 18.3 16.1C18.3 16.1929 18.3369 16.2818 18.4025 16.3475C18.4682 16.4131 18.5571 16.45 18.65 16.45Z" fill="#DAC092"/>
</g>
<defs>
<clipPath id="clip0_2170_153">
<rect width="23" height="23" fill="white"/>
</clipPath>
</defs>
</svg>
