<?xml version="1.0" encoding="utf-8"?>
<!-- Generator: Adobe Illustrator 24.1.0, SVG Export Plug-In . SVG Version: 6.00 Build 0)  -->
<svg version="1.1" id="Слой_1" xmlns="http://www.w3.org/2000/svg" xmlns:xlink="http://www.w3.org/1999/xlink" x="0px" y="0px"
	 width="486px" height="167px" viewBox="0 0 486 167" style="enable-background:new 0 0 486 167;" xml:space="preserve">
<style type="text/css">
	.st0{fill:#626262;}
</style>
<g>
	<g>
		<path class="st0" d="M103,140.3c0.5-0.2,0.8-0.6,0.6-1.1c-0.2-0.3-0.2-0.8-0.2-1.1c0-0.5,0-0.9,0.2-1.4c0.2-0.5-0.2-0.9-0.5-1.1
			c-5-2.3-8-6.8-8-11.9c0-3.7,1.4-7.1,4.3-9.8c2.9-2.8,6.8-4,11.6-4c3.4,0,6.3,0.8,9,2.2c0.2,0.2,0.5,0.2,0.6,0.2l9.9-2
			c0.6-0.2,1.1,0.3,1.1,0.9l0.3,7.7c0,0.5-0.3,0.9-0.8,0.9l-3.7,0.8c-0.5,0.2-0.8,0.6-0.8,1.1c0.2,0.8,0.2,1.5,0.2,2.2
			c0,3.6-1.4,6.7-4,9.3c-2.5,2.5-5.7,3.9-9.8,4.2c-0.5,0-0.8,0.5-0.8,0.9l0,0c0,0.2,0,0.5,0,0.6c0,0.5,0.5,0.8,0.9,0.8
			c5,0.3,9,1.4,12.1,3.3c3.3,2,5,5,5,8.7c0,3.9-1.7,7-5.4,9c-3.6,2-8.2,3.1-13.8,3.1c-5.7,0-10.2-0.9-13.9-2.9c-3.6-2-5.3-5-5.3-9
			C92.1,145.7,96.2,142,103,140.3z M111.2,153.9c5.3,0,7.9-0.8,7.9-2.5c0-1.7-2.6-2.5-7.9-2.5c-5.3,0-7.9,0.8-7.9,2.5
			C103.3,153,105.9,153.9,111.2,153.9z M115.8,123.7c0-2.5-1.5-4.2-4.8-4.2c-6.2-0.3-6.3,8.7,0,8.2
			C114,127.6,115.8,126.2,115.8,123.7z"/>
		<path class="st0" d="M138,114.1c-0.2-0.5,0-0.9,0.5-1.1c3.3-1.7,8.2-3.1,12.7-3.1c10.7,0,15,5.1,15,15.3v20.6
			c0,0.5-0.5,0.9-0.9,0.9h-8.5c-0.5,0-0.9-0.5-0.9-0.9l0,0c0-0.8-0.9-1.2-1.5-0.8c-1.9,1.4-4.5,2.2-7.9,2.2
			c-6.7,0-11.3-4.2-11.3-11.3c0-7.7,5.4-11.9,13-11.9c2.2,0,4.2,0.3,5.7,1.1c0.6,0.3,1.4-0.2,1.4-0.9c-0.3-2.9-2-4.3-5-4.3
			c-2.2,0-5,0.6-8.4,1.9c-0.5,0.2-1.1,0-1.2-0.6L138,114.1z M154.8,135v-1.4c0-0.3-0.2-0.6-0.5-0.8c-1.1-0.6-2.5-0.9-4-0.9
			c-2,0-3.4,1.1-3.4,2.8c0,1.5,1.4,2.6,3.4,2.6s3.4-0.5,4.3-1.5C154.8,135.5,154.8,135.3,154.8,135z"/>
		<path class="st0" d="M229,146.8h-10.2c-0.5,0-0.9-0.5-0.9-0.9v-19.3c0-3.4-1.5-5.1-4.5-5.1c-2.3,0-4.3,1.2-5.4,2.9
			c0,0.2-0.2,0.3-0.2,0.5v21.1c0,0.5-0.5,0.9-0.9,0.9h-10.2c-0.5,0-0.9-0.5-0.9-0.9v-19.5c0-3.4-1.4-5.1-4.2-5.1
			c-2.3,0-4.2,0.9-5.6,2.6c-0.2,0.2-0.2,0.3-0.2,0.6v21.4c0,0.5-0.5,0.9-0.9,0.9h-10.2c-0.5,0-0.9-0.5-0.9-0.9v-34.2
			c0-0.5,0.5-0.9,0.9-0.9h10.2c0.5,0,0.9,0.5,0.9,0.9v0.5c0,0.8,0.9,1.2,1.4,0.8c2.5-1.9,5.6-2.8,9.1-2.8c4.5,0,7.9,1.7,9.6,4.2
			c0.3,0.5,1.1,0.6,1.4,0.2c2.8-2.9,6.3-4.3,10.7-4.3c7.6,0,11.3,4.3,11.3,13.2v22.6C229.9,146.3,229.6,146.8,229,146.8z"/>
		<path class="st0" d="M269.2,143c0.2,0.5,0,0.9-0.3,1.1c-3.6,2.5-8,3.7-13.5,3.7c-5.9,0-10.7-1.7-14.2-5.3c-3.6-3.4-5.3-8-5.3-13.8
			c0-5.4,1.7-9.9,5.4-13.5c3.6-3.6,8.4-5.4,14.2-5.4c4.8,0,8.8,1.5,12.4,4.8c3.4,3.1,5.1,7.3,5.1,12.2c0,2-0.2,3.9-0.5,5.3
			c-0.2,0.5-0.5,0.8-0.9,0.8H250c-0.8,0-1.2,0.8-0.8,1.4c1.4,2.3,3.9,3.6,7.7,3.6c3.3,0,6-0.8,8.5-2c0.5-0.3,1.1,0,1.2,0.5
			L269.2,143z M249.4,124.8h10.5c0.6,0,1.1-0.6,0.9-1.2c-0.6-2.2-2.6-3.9-5.7-3.9s-5.3,1.2-6.5,3.6
			C248.3,124,248.8,124.8,249.4,124.8z"/>
		<path class="st0" d="M290.3,133.1c-5.4-1.2-12.4-3.7-12.4-11.5c0-7.4,6-11.8,14.1-11.8c6,0,10.8,1.4,14.6,4.3
			c0.3,0.3,0.5,0.8,0.3,1.2l-3.7,7c-0.3,0.5-0.9,0.6-1.2,0.3c-2.9-1.9-6-2.8-9.1-2.8c-1.7,0-2.8,0.8-2.8,1.5c0,3.7,19,1.4,19,14.2
			c0,7.4-6,12.2-15.5,12.2c-3.6,0-6.8-0.8-10.2-2.2c-2.8-1.4-4.6-2.6-5.7-3.9c-0.3-0.3-0.3-0.8,0-1.1l4.6-6.5
			c0.3-0.5,0.9-0.5,1.4-0.2c1.1,0.9,2.6,1.7,4.5,2.5c2.5,0.9,4.5,1.4,6.2,1.4c1.9,0,2.8-0.6,2.8-1.5
			C296.9,134.7,294,133.9,290.3,133.1z"/>
	</g>
	<path class="st0" d="M100.3,33.6l-0.5,3.1c-0.6,4,2.5,7.6,6.5,7.6h39.3l-45.5,15c-2.3,0.8-4,2.8-4.5,5.3l-1.9,12.2l-0.6,4.3
		c-0.6,4,2.5,7.6,6.5,7.6h43.3c3.3,0,6-2.3,6.5-5.6L150,80c0.6-4-2.5-7.6-6.5-7.6h-36.7l42.7-14.1c2.3-0.8,4-2.8,4.5-5.3l1.9-12.2
		l0.8-5.3c0.6-4-2.5-7.6-6.5-7.6h-43.3C103.6,28,100.8,30.5,100.3,33.6z M164.3,33.6L157.1,81c-0.6,4,2.5,7.6,6.5,7.6h2.9
		c3.3,0,6-2.3,6.5-5.6l7.1-47.4c0.6-4-2.5-7.6-6.5-7.6h-2.9C167.5,28,164.7,30.5,164.3,33.6z M176.7,8.7h-2.9c-3.3,0-6,2.3-6.5,5.6
		l0,0c-0.6,4,2.5,7.6,6.5,7.6h2.9c3.3,0,6-2.3,6.5-5.6l0,0C183.6,12.2,180.7,8.7,176.7,8.7z M246,8.7h-2.9c-3.3,0-6,2.3-6.5,5.6l0,0
		c-0.6,4,2.5,7.6,6.5,7.6h2.9c3.3,0,6-2.3,6.5-5.6l0,0C253.1,12.2,250,8.7,246,8.7z M233,88.6h2.9c3.3,0,6-2.3,6.5-5.6l7.1-47.4
		c0.6-4-2.5-7.6-6.5-7.6h-2.9c-3.3,0-6,2.3-6.5,5.6L226.5,81C226,85,229.1,88.6,233,88.6z M259.3,33.6L252.2,81
		c-0.6,4,2.5,7.6,6.5,7.6h47.5c3.3,0,6-2.3,6.5-5.6l7.1-47.4c0.6-4-2.5-7.6-6.5-7.6h-47.5C262.6,28,259.8,30.5,259.3,33.6z
		 M297.4,72.5h-27.1c-0.5,0-0.8-0.3-0.8-0.8l4-26.8c0-0.3,0.3-0.6,0.8-0.6h27.1c0.5,0,0.8,0.3,0.8,0.8l-4,26.8
		C298,72.2,297.7,72.5,297.4,72.5z M191.5,7.4l-11,73.5c-0.6,4,2.5,7.6,6.5,7.6h2.9c3.3,0,6-2.3,6.5-5.6l11-73.5
		c0.6-4-2.5-7.6-6.5-7.6H198C194.8,1.9,192,4.4,191.5,7.4z M214.3,7.4l-11,73.5c-0.6,4,2.5,7.6,6.5,7.6h2.9c3.3,0,6-2.3,6.5-5.6
		l11-73.5c0.6-4-2.5-7.6-6.5-7.6h-3.1C217.4,1.9,214.7,4.4,214.3,7.4z M375.7,33.3l-6.8,44.9l-9-45.2c-0.6-3.1-3.3-5.3-6.3-5.3h-19
		c-3.3,0-6,2.3-6.5,5.6L320.9,81c-0.6,4,2.5,7.6,6.5,7.6h4c3.3,0,6-2.3,6.5-5.6l6.3-41.9l8.4,42.3c0.6,3.1,3.3,5.3,6.3,5.3h20.1
		c3.3,0,6-2.3,6.5-5.6l7.1-47.7c0.6-4-2.5-7.6-6.5-7.6h-4C379,27.7,376.2,30.2,375.7,33.3z"/>
</g>
</svg>
