<?xml version="1.0" standalone="no"?>
<!DOCTYPE svg PUBLIC "-//W3C//DTD SVG 20010904//EN"
 "http://www.w3.org/TR/2001/REC-SVG-20010904/DTD/svg10.dtd">
<svg version="1.0" xmlns="http://www.w3.org/2000/svg"
 width="94.000000pt" height="94.000000pt" viewBox="0 0 94.000000 94.000000"
 preserveAspectRatio="xMidYMid meet">
<metadata>
Created by potrace 1.14, written by Peter Selinger 2001-2017
</metadata>
<g transform="translate(0.000000,94.000000) scale(0.100000,-0.100000)"
fill="#000000" stroke="none">
<path d="M401 859 c-24 -24 -31 -39 -31 -71 0 -90 107 -132 172 -68 28 28 30
36 25 78 -10 89 -103 124 -166 61z m114 -24 c31 -30 32 -62 3 -92 -41 -44
-105 -22 -115 39 -4 30 -1 38 22 56 36 28 60 28 90 -3z"/>
<path d="M81 816 c47 -50 266 -269 290 -291 19 -16 -38 44 -126 133 -88 89
-162 162 -164 162 -2 0 -2 -2 0 -4z"/>
<path d="M695 658 c-88 -89 -145 -149 -127 -133 19 17 91 88 160 158 148 149
136 137 131 137 -2 0 -76 -73 -164 -162z"/>
<path d="M46 436 c-36 -76 -44 -101 -34 -107 9 -6 18 1 27 22 13 26 19 29 54
27 30 -1 42 -7 50 -25 11 -24 38 -32 36 -10 0 6 -20 53 -43 102 l-43 90 -47
-99z m58 -2 c9 -23 8 -24 -13 -24 -14 0 -18 5 -14 20 6 24 19 26 27 4z"/>
<path d="M777 513 c-3 -5 -4 -48 -3 -97 1 -87 2 -89 26 -92 103 -10 166 59
128 141 -7 15 -24 33 -39 41 -29 15 -105 19 -112 7z m116 -54 c9 -12 17 -29
17 -39 0 -10 -8 -27 -17 -39 -20 -24 -82 -37 -84 -18 -4 42 -4 104 -1 114 6
18 65 6 85 -18z"/>
<path d="M450 454 c-18 -45 -13 -61 20 -66 24 -4 30 -1 25 9 -3 8 -5 18 -5 21
0 4 -4 1 -9 -7 -5 -7 -14 -10 -20 -7 -16 10 -14 26 4 26 8 0 15 2 15 4 0 2 3
11 6 19 3 8 -2 17 -11 21 -11 4 -19 -2 -25 -20z"/>
<path d="M235 198 c-88 -89 -145 -149 -126 -133 65 58 299 295 290 295 -2 0
-76 -73 -164 -162z"/>
<path d="M540 357 c0 -5 288 -293 308 -308 9 -7 -55 60 -143 149 -152 154
-165 167 -165 159z"/>
<path d="M453 124 c-3 -8 0 -21 7 -27 10 -10 12 -8 6 7 -4 12 -1 23 6 28 11 6
11 8 0 8 -7 0 -15 -7 -19 -16z"/>
<path d="M490 125 c-10 -13 -9 -15 8 -15 12 0 24 -5 27 -10 4 -6 11 -8 16 -4
16 9 -10 34 -28 27 -11 -4 -14 -2 -9 5 10 17 1 15 -14 -3z"/>
<path d="M407 110 c19 -22 33 -26 33 -9 0 5 -4 7 -10 4 -5 -3 -10 1 -10 9 0 9
-7 16 -15 16 -12 0 -12 -3 2 -20z"/>
</g>
</svg>
