<?xml version="1.0" standalone="no"?>
<!DOCTYPE svg PUBLIC "-//W3C//DTD SVG 20010904//EN"
 "http://www.w3.org/TR/2001/REC-SVG-20010904/DTD/svg10.dtd">
<svg version="1.0" xmlns="http://www.w3.org/2000/svg"
 width="928.000000pt" height="928.000000pt" viewBox="0 0 928.000000 928.000000"
 preserveAspectRatio="xMidYMid meet">
<metadata>
Created by potrace 1.14, written by Peter Selinger 2001-2017
</metadata>
<g transform="translate(0.000000,928.000000) scale(0.100000,-0.100000)"
fill="#000000" stroke="none">
<path d="M1149 9116 c-2 -2 -28 -7 -56 -11 -29 -3 -66 -10 -83 -15 -17 -5 -34
-9 -38 -10 -80 -10 -362 -129 -362 -152 0 -5 -3 -7 -7 -6 -15 5 -169 -116
-235 -184 -72 -74 -175 -207 -170 -220 1 -5 -1 -8 -6 -8 -8 0 -56 -90 -92
-173 -21 -48 -59 -163 -66 -202 -2 -11 -6 -31 -9 -45 -3 -14 -9 -45 -13 -70
-9 -58 -9 -6687 0 -6760 4 -30 9 -62 12 -70 3 -8 8 -28 10 -43 10 -60 65 -213
99 -277 52 -96 63 -116 70 -125 4 -5 28 -38 53 -72 25 -35 51 -63 57 -63 6 0
7 -3 4 -6 -8 -8 106 -120 183 -179 93 -71 207 -134 335 -186 54 -21 134 -42
227 -59 100 -19 211 -19 3603 -17 1925 2 3511 5 3525 9 14 3 39 8 55 12 17 3
39 8 51 10 25 5 134 40 184 58 86 32 209 104 302 174 59 46 198 178 198 189 0
3 9 16 21 28 47 50 159 235 159 262 0 8 4 15 9 15 5 0 11 10 14 23 3 12 17 56
32 97 14 41 26 85 27 98 1 12 5 22 9 22 3 0 5 10 4 22 -1 13 0 27 3 33 4 5 8
19 11 30 8 38 10 6710 2 6755 -5 25 -12 61 -15 80 -3 19 -7 42 -9 50 -2 8 -7
29 -11 45 -4 17 -10 37 -13 45 -4 8 -7 17 -8 20 -31 115 -156 343 -227 413
-15 15 -25 27 -22 27 6 0 -84 89 -141 140 -81 72 -314 210 -356 210 -8 0 -19
4 -25 8 -9 9 -134 46 -189 57 -16 3 -41 9 -55 13 -26 7 -7043 15 -7051 8z"/>
</g>
</svg>
