<svg width="104" height="32" viewBox="0 0 104 32" fill="none" xmlns="http://www.w3.org/2000/svg">
<path d="M33.2398 4.90315H32.3477V0.0930387H36.353V4.90315H35.4609V0.930388H33.2398V4.90315Z" fill="#222222"/>
<path d="M37.5837 6.81044V0.0930387H38.23L38.4485 0.893173C38.6427 0.638867 38.8885 0.427978 39.1859 0.260509C39.4893 0.0868362 39.8413 0 40.2418 0C40.6848 0 41.0793 0.108545 41.4252 0.325636C41.7712 0.536524 42.0412 0.831146 42.2354 1.2095C42.4357 1.58786 42.5358 2.01894 42.5358 2.50274C42.5358 2.98034 42.4357 3.40832 42.2354 3.78668C42.0412 4.16504 41.7712 4.46276 41.4252 4.67985C41.0793 4.89074 40.6848 4.99618 40.2418 4.99618C39.8534 4.99618 39.5105 4.91555 39.2132 4.75428C38.9158 4.58681 38.67 4.38213 38.4758 4.14023V6.81044H37.5837ZM40.0507 4.17744C40.3541 4.17744 40.6242 4.10611 40.8608 3.96345C41.0975 3.82079 41.2796 3.62231 41.407 3.368C41.5405 3.1137 41.6073 2.82528 41.6073 2.50274C41.6073 2.18021 41.5405 1.89179 41.407 1.63748C41.2796 1.38318 41.0975 1.18469 40.8608 1.04203C40.6242 0.899375 40.3541 0.828045 40.0507 0.828045C39.7472 0.828045 39.4741 0.899375 39.2314 1.04203C38.9947 1.18469 38.8096 1.38318 38.6761 1.63748C38.5426 1.89179 38.4758 2.18021 38.4758 2.50274C38.4758 2.82528 38.5426 3.1137 38.6761 3.368C38.8096 3.62231 38.9947 3.82079 39.2314 3.96345C39.4741 4.10611 39.7472 4.17744 40.0507 4.17744Z" fill="#222222"/>
<path d="M44.8154 4.90315H43.4954V0.0930387H44.3602V3.87972H44.4968L46.3993 0.0930387H47.7193V4.90315H46.8545V1.12577H46.7179L44.8154 4.90315Z" fill="#222222"/>
<path d="M52.0149 4.90315H51.1228V0.0930387H55.1282V4.90315H54.2361V0.930388H52.0149V4.90315Z" fill="#222222"/>
<path d="M58.5709 4.99618C58.0915 4.99618 57.6637 4.89074 57.2874 4.67985C56.9111 4.46896 56.6168 4.17434 56.4044 3.79598C56.192 3.41763 56.0858 2.98655 56.0858 2.50274C56.0858 2.01894 56.192 1.58786 56.4044 1.2095C56.6168 0.831146 56.9111 0.536524 57.2874 0.325636C57.6637 0.108545 58.0915 0 58.5709 0C59.0504 0 59.4782 0.108545 59.8545 0.325636C60.2307 0.536524 60.5251 0.831146 60.7375 1.2095C60.9499 1.58786 61.0561 2.01894 61.0561 2.50274C61.0561 2.98655 60.9499 3.41763 60.7375 3.79598C60.5251 4.17434 60.2307 4.46896 59.8545 4.67985C59.4782 4.89074 59.0504 4.99618 58.5709 4.99618ZM58.5709 4.15883C59.0322 4.15883 59.4054 4.00687 59.6906 3.70294C59.9819 3.39902 60.1276 2.99895 60.1276 2.50274C60.1276 2.00654 59.9819 1.60647 59.6906 1.30254C59.4054 0.992414 59.0322 0.837349 58.5709 0.837349C58.1097 0.837349 57.7365 0.992414 57.4513 1.30254C57.166 1.60647 57.0234 2.00654 57.0234 2.50274C57.0234 2.99275 57.166 3.39282 57.4513 3.70294C57.7365 4.00687 58.1097 4.15883 58.5709 4.15883Z" fill="#222222"/>
<path d="M61.3343 6.32664V4.0658H61.4344C61.6954 4.0658 61.8926 3.94795 62.0261 3.71225C62.1657 3.47655 62.2568 3.1075 62.2992 2.60509L62.5268 0.0930387H65.8585V4.0658H66.6505V6.32664H65.7584V4.90315H62.2264V6.32664H61.3343ZM64.9664 4.0658V0.930388H63.3552L63.2004 2.60509C63.164 3.00205 63.1094 3.31528 63.0366 3.54478C62.9698 3.77427 62.8758 3.94795 62.7544 4.0658H64.9664Z" fill="#222222"/>
<path d="M67.2904 6.32664V4.0658H67.3906C67.6515 4.0658 67.8488 3.94795 67.9823 3.71225C68.1219 3.47655 68.2129 3.1075 68.2554 2.60509L68.4829 0.0930387H71.8147V4.0658H72.6067V6.32664H71.7146V4.90315H68.1825V6.32664H67.2904ZM70.9226 4.0658V0.930388H69.3113L69.1566 2.60509C69.1202 3.00205 69.0655 3.31528 68.9927 3.54478C68.926 3.77427 68.8319 3.94795 68.7105 4.0658H70.9226Z" fill="#222222"/>
<path d="M77.8454 2.46553C77.8454 2.58958 77.8424 2.68572 77.8363 2.75395H73.9493C73.9978 3.18193 74.1617 3.52307 74.4409 3.77738C74.72 4.03168 75.075 4.15883 75.5059 4.15883C75.8033 4.15883 76.0673 4.09991 76.2979 3.98206C76.5346 3.85801 76.7136 3.69674 76.835 3.49826L77.6725 3.63782C77.4904 4.072 77.1961 4.40694 76.7895 4.64264C76.3889 4.87834 75.9429 4.99618 75.4513 4.99618C74.984 4.99618 74.5653 4.89074 74.1951 4.67985C73.8249 4.46276 73.5366 4.16504 73.3303 3.78668C73.1239 3.40832 73.0208 2.98034 73.0208 2.50274C73.0208 2.01894 73.1239 1.58786 73.3303 1.2095C73.5366 0.831146 73.8218 0.536524 74.186 0.325636C74.5501 0.108545 74.9658 0 75.4331 0C75.8943 0 76.307 0.108545 76.6711 0.325636C77.0413 0.536524 77.3296 0.831146 77.5359 1.2095C77.7423 1.58166 77.8454 2.00033 77.8454 2.46553ZM75.4331 0.809437C75.075 0.809437 74.7655 0.917983 74.5046 1.13507C74.2497 1.35216 74.0798 1.64369 73.9948 2.00964H76.8714C76.7925 1.64989 76.6226 1.36147 76.3616 1.14438C76.1067 0.921084 75.7972 0.809437 75.4331 0.809437Z" fill="#222222"/>
<path d="M78.7077 6.81044V0.0930387H79.354L79.5725 0.893173C79.7667 0.638867 80.0125 0.427978 80.3099 0.260509C80.6133 0.0868362 80.9653 0 81.3658 0C81.8089 0 82.2033 0.108545 82.5492 0.325636C82.8952 0.536524 83.1652 0.831146 83.3594 1.2095C83.5597 1.58786 83.6598 2.01894 83.6598 2.50274C83.6598 2.98034 83.5597 3.40832 83.3594 3.78668C83.1652 4.16504 82.8952 4.46276 82.5492 4.67985C82.2033 4.89074 81.8089 4.99618 81.3658 4.99618C80.9774 4.99618 80.6346 4.91555 80.3372 4.75428C80.0398 4.58681 79.794 4.38213 79.5998 4.14023V6.81044H78.7077ZM81.1747 4.17744C81.4781 4.17744 81.7482 4.10611 81.9848 3.96345C82.2215 3.82079 82.4036 3.62231 82.531 3.368C82.6645 3.1137 82.7313 2.82528 82.7313 2.50274C82.7313 2.18021 82.6645 1.89179 82.531 1.63748C82.4036 1.38318 82.2215 1.18469 81.9848 1.04203C81.7482 0.899375 81.4781 0.828045 81.1747 0.828045C80.8712 0.828045 80.5981 0.899375 80.3554 1.04203C80.1187 1.18469 79.9336 1.38318 79.8001 1.63748C79.6666 1.89179 79.5998 2.18021 79.5998 2.50274C79.5998 2.82528 79.6666 3.1137 79.8001 3.368C79.9336 3.62231 80.1187 3.82079 80.3554 3.96345C80.5981 4.10611 80.8712 4.17744 81.1747 4.17744Z" fill="#222222"/>
<path d="M90.741 4.90315H89.6031L87.9918 2.91212H87.7278V4.90315H86.8631V2.91212H86.5991L84.9878 4.90315H83.8499L85.889 2.41901L84.032 0.0930387H85.0697L86.59 2.03755H86.8631V0.0930387H87.7278V2.03755H88.0009L89.5212 0.0930387H90.5589L88.7019 2.41901L90.741 4.90315Z" fill="#222222"/>
<path d="M95.454 4.90315H94.2797L92.541 2.91212H92.2588V4.90315H91.3667V0.0930387H92.2588V2.03755H92.5319L94.1978 0.0930387H95.272L93.2511 2.41901L95.454 4.90315Z" fill="#222222"/>
<path d="M100.452 2.46553C100.452 2.58958 100.449 2.68572 100.443 2.75395H96.5559C96.6045 3.18193 96.7683 3.52307 97.0475 3.77738C97.3267 4.03168 97.6817 4.15883 98.1126 4.15883C98.4099 4.15883 98.6739 4.09991 98.9045 3.98206C99.1412 3.85801 99.3203 3.69674 99.4416 3.49826L100.279 3.63782C100.097 4.072 99.8027 4.40694 99.3961 4.64264C98.9956 4.87834 98.5495 4.99618 98.058 4.99618C97.5907 4.99618 97.1719 4.89074 96.8017 4.67985C96.4315 4.46276 96.1433 4.16504 95.9369 3.78668C95.7306 3.40832 95.6274 2.98034 95.6274 2.50274C95.6274 2.01894 95.7306 1.58786 95.9369 1.2095C96.1433 0.831146 96.4285 0.536524 96.7926 0.325636C97.1567 0.108545 97.5725 0 98.0397 0C98.501 0 98.9137 0.108545 99.2778 0.325636C99.648 0.536524 99.9362 0.831146 100.143 1.2095C100.349 1.58166 100.452 2.00033 100.452 2.46553ZM98.0397 0.809437C97.6817 0.809437 97.3722 0.917983 97.1112 1.13507C96.8563 1.35216 96.6864 1.64369 96.6015 2.00964H99.478C99.3991 1.64989 99.2292 1.36147 98.9683 1.14438C98.7134 0.921084 98.4039 0.809437 98.0397 0.809437Z" fill="#222222"/>
<path d="M12.0776 19.1201C12.0724 19.115 11.9515 18.992 11.7379 18.992C11.6273 18.992 11.5115 19.0272 11.3982 19.0924C11.3777 19.1025 11.3648 19.1251 11.3699 19.1477C11.3699 19.1527 11.4548 19.7076 11.3905 19.9462C11.3442 20.1244 11.1872 20.3354 10.9042 20.3354C10.8424 20.3354 10.7806 20.3253 10.7163 20.3077H10.7137L10.9273 20.1671C10.9428 20.1571 10.9531 20.1395 10.9531 20.1219C10.9531 20.1018 10.9428 20.0868 10.9273 20.0767L10.5053 19.793C10.6391 19.6951 10.724 19.6248 10.7343 19.6147C10.7472 19.6047 10.7549 19.5896 10.7549 19.5746C10.7549 19.5595 10.7498 19.5444 10.7369 19.5344L10.6623 19.459C10.652 19.449 10.6365 19.4415 10.6237 19.4415C10.6108 19.4415 10.5979 19.4465 10.5877 19.454C10.5825 19.4565 10.4719 19.5394 10.302 19.6549L10.1322 19.5394L10.7961 19.0924L10.8476 19.2205C10.8553 19.2406 10.8733 19.2557 10.899 19.2557C10.899 19.2557 10.899 19.2557 10.9016 19.2557C10.9222 19.2557 10.9428 19.2431 10.9505 19.2255L11.267 18.6581C11.2773 18.638 11.2747 18.6154 11.2644 18.5978C11.2541 18.5827 11.2361 18.5752 11.2181 18.5752C11.2155 18.5752 11.213 18.5752 11.2104 18.5752L10.5568 18.6706C10.5336 18.6731 10.5156 18.6882 10.5105 18.7108C10.5053 18.7309 10.5105 18.7535 10.5285 18.7685L10.634 18.8589L9.87743 19.3661L9.12345 18.8589L9.22896 18.7685C9.2444 18.7535 9.25212 18.7309 9.2444 18.7108C9.23925 18.6882 9.22124 18.6731 9.19808 18.6706L8.54446 18.5752C8.54189 18.5752 8.53932 18.5752 8.53675 18.5752C8.51616 18.5752 8.49815 18.5827 8.49043 18.5978C8.47756 18.6154 8.47756 18.638 8.48785 18.6581L8.80437 19.2255C8.81466 19.2431 8.83525 19.2557 8.85583 19.2557C8.85841 19.2557 8.85841 19.2557 8.85841 19.2557C8.87899 19.2557 8.89958 19.2406 8.9073 19.2205L8.95876 19.0924L9.62267 19.5394L9.45283 19.6549C9.283 19.5394 9.16977 19.4565 9.1672 19.454C9.15176 19.4415 9.13889 19.4364 9.12603 19.4364C9.11059 19.4364 9.09515 19.4415 9.08485 19.454L9.00766 19.5294C8.99736 19.5394 8.98964 19.5545 8.98964 19.5695C8.98964 19.5846 8.99736 19.5997 9.01023 19.6097C9.0231 19.6197 9.10544 19.6901 9.24182 19.788L8.81723 20.0717C8.80179 20.0818 8.79407 20.0993 8.79407 20.1169C8.79407 20.137 8.80437 20.1521 8.81981 20.1621L9.03339 20.3027C9.03339 20.3027 9.03339 20.3027 9.03082 20.3027C8.96648 20.3203 8.90473 20.3303 8.84297 20.3303C8.55991 20.3303 8.40294 20.1219 8.35662 19.9411C8.29228 19.7026 8.3772 19.1502 8.3772 19.1427C8.37977 19.1201 8.36948 19.0975 8.34889 19.0874C8.2331 19.0221 8.1173 18.987 8.00922 18.987C7.79821 18.987 7.6747 19.11 7.66955 19.115C7.65926 19.1226 7.65411 19.1351 7.65411 19.1477C7.65154 19.1828 7.5872 19.9813 7.96548 20.3856C8.10701 20.5337 8.28971 20.6116 8.51101 20.6116C8.54961 20.6116 8.59336 20.6116 8.63453 20.604C8.85069 20.5789 9.0617 20.5237 9.26499 20.4534L9.61752 20.6844L8.83782 21.1991C8.82238 21.2117 8.81209 21.2267 8.81209 21.2468C8.81209 21.2644 8.81981 21.282 8.83782 21.292L9.6201 21.8193L8.95362 22.2713L8.90215 22.1458C8.89443 22.1257 8.87384 22.1131 8.85326 22.1106C8.85326 22.1106 8.85326 22.1106 8.85069 22.1106C8.8301 22.1106 8.80951 22.1232 8.79922 22.1407L8.48271 22.7107C8.47241 22.7283 8.47499 22.7509 8.48528 22.7685C8.49557 22.7835 8.51358 22.7911 8.5316 22.7911C8.53417 22.7911 8.53675 22.7911 8.53932 22.7911L9.19551 22.7007C9.21867 22.6982 9.23668 22.6806 9.24182 22.6605C9.24954 22.6379 9.24183 22.6178 9.22639 22.6002L9.11831 22.5073L9.87485 21.9976L10.6314 22.5073L10.5233 22.6002C10.5053 22.6153 10.5002 22.6379 10.5053 22.6605C10.5105 22.6806 10.5285 22.6956 10.5516 22.7007L11.2052 22.7961C11.2078 22.7961 11.2104 22.7961 11.213 22.7961C11.231 22.7961 11.249 22.7886 11.2593 22.7735C11.2721 22.7559 11.2721 22.7333 11.2619 22.7157L10.9453 22.1458C10.935 22.1282 10.917 22.1156 10.8964 22.1156H10.8939C10.8707 22.1156 10.8527 22.1307 10.8424 22.1508L10.7909 22.2763L10.1245 21.8244L10.9067 21.2971C10.9222 21.287 10.9325 21.2694 10.9325 21.2519C10.9325 21.2318 10.9222 21.2167 10.9067 21.2042L10.127 20.6894L10.4796 20.4584C10.6829 20.5287 10.8939 20.5839 11.11 20.6091C11.1538 20.6141 11.1949 20.6166 11.2335 20.6166C11.4548 20.6166 11.6401 20.5413 11.7791 20.3906C12.1599 19.9863 12.0956 19.1854 12.0905 19.1527C12.093 19.1402 12.0853 19.1276 12.0776 19.1201ZM9.87228 19.7076L10.0395 19.8181C9.98808 19.8508 9.93147 19.8834 9.87228 19.9185C9.81567 19.8834 9.75906 19.8508 9.70502 19.8181L9.87228 19.7076ZM9.26499 20.1169L9.49658 19.9612C9.54033 19.9889 9.58922 20.019 9.64068 20.0491C9.55062 20.0968 9.45798 20.142 9.36792 20.1822L9.26499 20.1169ZM10.4693 21.2544L9.87485 21.6561L9.283 21.2544L9.87485 20.8627L10.4693 21.2544ZM9.87228 20.5212L9.58407 20.3303C9.68443 20.2851 9.77964 20.2349 9.87228 20.1872C9.96492 20.2349 10.0601 20.2851 10.1631 20.3303L9.87228 20.5212ZM10.3844 20.1822C10.2917 20.142 10.1991 20.0968 10.109 20.0491C10.1579 20.019 10.2068 19.9889 10.2531 19.9612L10.4847 20.1169L10.3844 20.1822Z" fill="#222222"/>
<path d="M19.7731 17.6055C19.5287 17.4624 19.1247 17.4122 18.7155 17.4499C19.3588 17.2339 19.7963 16.7669 19.8195 16.3501C19.4849 16.2572 19.1375 16.3074 18.8365 16.3727C19.1478 16.1442 19.6599 15.7299 19.5982 15.1172C19.2971 15.0444 18.7438 15.2503 18.5122 15.3507C19.2533 14.9439 19.5184 13.9848 19.1272 13.4399C18.8956 13.573 17.8354 14.6276 17.6656 14.7506C18.2137 14.1404 18.4685 13.701 18.6152 13.2892C18.7901 12.8398 18.803 12.0589 18.2343 11.7977C17.9667 12.3978 17.0274 13.9345 16.5051 14.5723C16.4484 14.5221 16.4021 14.4543 16.3275 14.4443C16.2014 14.8335 15.8334 15.3507 15.4963 15.5993C15.4783 15.5667 15.4449 15.4763 15.3883 15.3834C15.0306 15.9056 14.1016 16.6213 13.8031 17.0607C13.5689 17.3871 13.5689 17.6809 13.8932 17.9872C14.0244 18.1153 14.274 18.3412 14.0579 18.6576C13.7645 19.077 13.1727 19.1247 12.8536 18.8786C12.8536 18.8033 12.851 18.733 12.8484 18.6677C13.2267 18.5245 13.3142 18.0224 13.0363 17.7085C12.9745 17.824 12.8742 17.9069 12.7532 17.9495C12.7198 17.819 12.6914 17.7562 12.6889 17.7487L12.6734 17.7185H12.64C12.6374 17.7185 12.5139 17.711 12.326 17.6909C12.5371 17.6231 12.6709 17.4348 12.6426 17.1787C12.3183 17.4499 11.9941 17.1912 11.9195 17.1184C11.7162 16.8849 11.6596 16.6238 11.7393 16.2245C11.8062 15.8755 12.1768 15.3206 12.4213 15.1423C12.4573 15.1749 12.5113 15.2427 12.6297 15.2302C12.6992 15.2101 12.8124 15.1523 12.8973 15.1197C13.1418 15.0469 13.3811 15.1021 13.5355 15.1975C13.8134 15.3633 13.7902 15.5466 13.7799 15.6796C14.2045 15.4461 14.0579 15.0594 13.502 14.9138C13.8829 14.9138 14.1968 15.2528 14.274 15.2955C14.485 15.4461 14.7861 15.4135 14.9611 15.3306C15.2982 15.1749 15.3651 14.7858 15.275 14.7079C15.2416 14.8485 15.1335 14.9691 14.9379 14.9916C14.6497 15.0243 14.3692 14.9013 14.1479 14.8058C13.9601 14.728 13.659 14.6728 13.4531 14.6853C13.834 14.4794 14.4258 14.502 14.6369 14.8184C14.7629 14.718 14.8427 14.6301 14.8762 14.4242C14.9842 13.8693 14.5391 13.5855 14.0682 13.5855C14.081 13.4524 13.9832 13.3846 13.8571 13.4298C13.8571 13.3721 13.8417 13.3294 13.8108 13.3068C13.8211 13.3068 13.8366 13.3018 13.8469 13.3018C14.3255 13.2691 14.7758 13.126 15.0177 12.8749C15.4449 12.4305 14.7629 11.8655 15.0074 11.4261C15.2416 11.5265 15.4114 11.6521 15.7356 11.6973C15.7691 11.7651 15.8 11.8982 15.8103 11.9685C15.9132 12.4631 15.414 12.546 15.5426 13.0733C15.5993 13.3118 15.782 13.3947 15.8437 13.6784C15.8437 13.6784 15.8669 13.8768 15.6893 14.05C16.0985 14.0601 16.3146 13.7211 16.1885 13.4072C16.1319 13.2792 15.9904 13.1562 15.9904 13.008C16.2014 13.2792 16.3893 13.2691 16.7135 13.1687C16.8627 13.126 16.873 13.3244 16.7804 13.4851C17.0017 13.357 17.0609 13.1461 17.0609 13.0532C17.0609 12.8297 16.8833 12.7243 16.7135 12.7695C16.6183 12.7795 16.4227 12.9076 16.4124 12.7243C16.3712 12.4079 16.8833 12.4179 16.7804 11.9082C16.7238 11.6521 16.433 11.514 15.9775 11.4588C15.9338 11.4136 15.818 11.3081 15.7562 11.2202C15.5066 10.816 15.2493 10.7105 15.0949 10.7934C14.9122 10.8812 14.817 10.9616 14.6703 11.0369C14.5494 11.0972 14.4258 11.1323 14.3461 11.2202C14.1479 11.4588 14.3358 11.8304 14.4361 12.0589C14.5056 12.1919 14.6703 12.4958 14.5957 12.7243C14.5159 12.9955 14.0553 13.1687 13.7774 13.2239C13.7594 13.2239 13.7491 13.229 13.7311 13.229V13.1235C13.8108 12.9829 13.8803 12.8172 13.9369 12.669C14.1248 12.1794 13.8443 11.981 13.43 11.8856C13.3785 11.853 13.3219 11.8404 13.2524 11.863H13.2396L13.2293 11.9459L13.1727 11.9283L13.1855 11.8279H13.1624C13.2087 11.7952 13.2318 11.74 13.2318 11.6847C13.2318 11.6245 13.2113 11.5793 13.1881 11.5466H13.2447L13.2215 11.524C13.2113 11.5014 13.1881 11.4814 13.1546 11.4462C13.1443 11.4362 13.1341 11.4136 13.1341 11.4035C13.1443 11.4136 13.1546 11.4261 13.1778 11.4362C13.201 11.4588 13.2344 11.4814 13.2447 11.5014L13.2782 11.524V11.0746L13.2447 11.1022C13.2344 11.1122 13.201 11.1348 13.1778 11.1574C13.1546 11.18 13.1443 11.18 13.1341 11.1901C13.1341 11.18 13.1443 11.1675 13.1546 11.1449C13.1907 11.1248 13.2138 11.0896 13.2215 11.0746L13.2447 11.0394H12.7789L12.8021 11.0746C12.8227 11.0896 12.8536 11.1248 12.8767 11.1449C12.887 11.1675 12.8973 11.18 12.9102 11.1901C12.8973 11.18 12.8767 11.18 12.8639 11.1574C12.8227 11.1348 12.8021 11.1122 12.7789 11.1022L12.7558 11.0746V11.5291L12.7789 11.5065C12.8021 11.4864 12.8227 11.4638 12.8639 11.4412C12.8767 11.4311 12.8973 11.4186 12.9102 11.4085C12.8973 11.4186 12.887 11.4412 12.8767 11.4512C12.8536 11.4864 12.8253 11.5065 12.8021 11.5291L12.7789 11.5517H12.8536C12.8124 11.5843 12.8021 11.6295 12.8021 11.6898C12.8021 11.745 12.8227 11.8002 12.8639 11.8329H12.8536L12.8639 11.9333L12.8021 11.9509L12.7892 11.868H12.7789C12.712 11.8454 12.6529 11.858 12.6091 11.8906C12.1871 11.9861 11.9092 12.1844 12.097 12.674C12.1536 12.8247 12.2231 12.9904 12.308 13.1285V13.2013C11.886 13.0683 11.1295 12.6188 10.9262 12.3451C10.903 12.3175 10.885 12.2949 10.8747 12.2798H10.8721L10.8799 11.9861C11.0265 11.7475 11.1578 11.4512 11.2607 11.1826C11.5283 10.477 11.1346 10.1832 10.5093 10.0602C10.4475 10.0175 10.3652 9.99487 10.2648 10.0275L10.2417 10.138L10.1104 10.128L10.1207 9.98232C10.0976 9.99236 10.077 9.99236 10.0538 9.99236C10.1439 9.94968 10.2057 9.84171 10.2057 9.73123C10.2057 9.65339 10.1645 9.55797 10.0976 9.51528H10.2057C10.1413 9.46004 10.041 9.34203 10.0178 9.2667C10.0976 9.2893 10.2159 9.39225 10.2726 9.45V8.87248C10.2159 8.91517 10.0976 9.02816 10.0178 9.03821C10.041 8.97292 10.1413 8.85993 10.2057 8.80469H9.6138C9.66012 8.85993 9.77334 8.97292 9.78363 9.03821C9.71416 9.02816 9.60093 8.91517 9.53917 8.87248V9.45C9.60351 9.39225 9.71416 9.28679 9.78363 9.2667C9.77334 9.34454 9.65754 9.46004 9.6138 9.51528H9.71673C9.64982 9.55797 9.6138 9.65339 9.6138 9.73123C9.6138 9.84171 9.67041 9.94717 9.76048 9.99236C9.73732 9.99236 9.71416 9.99236 9.6807 9.98232L9.69357 10.128L9.56233 10.138L9.54947 10.0275C9.44654 9.99487 9.36934 10.0175 9.29986 10.0602C8.68227 10.1832 8.28598 10.477 8.55618 11.1826C8.64624 11.4537 8.77748 11.7475 8.93702 11.9861V12.2924C8.92673 12.3024 8.91386 12.325 8.89328 12.3476C8.69514 12.6188 7.93087 13.0708 7.51142 13.2039V13.131C7.59634 12.9904 7.66582 12.8247 7.72243 12.6766C7.91028 12.1869 7.63237 11.9886 7.21035 11.8931C7.16403 11.8605 7.10742 11.8479 7.04051 11.8705H7.02765L7.01478 11.9534L6.95817 11.9358L6.96846 11.8354H6.95817C6.99162 11.8028 7.01478 11.7475 7.01478 11.6923C7.01478 11.632 7.00449 11.5868 6.96846 11.5542H7.03794L7.01478 11.5316C6.99162 11.509 6.96846 11.4889 6.94787 11.4537C6.93758 11.4437 6.91957 11.4211 6.90927 11.411C6.92214 11.4211 6.94787 11.4336 6.96074 11.4437C6.99419 11.4663 7.01735 11.4889 7.04051 11.509L7.06367 11.5316V11.0746L7.04051 11.1022C7.01735 11.1122 6.99419 11.1348 6.96074 11.1574C6.95045 11.18 6.92214 11.18 6.90927 11.1901C6.92214 11.18 6.93758 11.1675 6.94787 11.1449C6.97103 11.1248 6.99162 11.0896 7.01478 11.0746L7.03794 11.0394H6.57217L6.59533 11.0746C6.60563 11.0896 6.63393 11.1248 6.65709 11.1449C6.67768 11.1675 6.69054 11.18 6.69054 11.1901C6.68025 11.18 6.66996 11.18 6.6468 11.1574C6.61849 11.1348 6.58247 11.1122 6.57217 11.1022L6.53872 11.0746V11.5291L6.57475 11.5065C6.58504 11.4864 6.61849 11.4638 6.64937 11.4412C6.67253 11.4311 6.68283 11.4186 6.69312 11.4085C6.69312 11.4186 6.68282 11.4412 6.65967 11.4512C6.63651 11.4864 6.6082 11.5065 6.59791 11.5291L6.57475 11.5517H6.63651C6.6082 11.5843 6.58504 11.6295 6.58504 11.6898C6.58504 11.745 6.6082 11.8002 6.65967 11.8329H6.63651L6.64937 11.9333L6.58504 11.9509L6.57475 11.868H6.56188C6.4924 11.8454 6.43579 11.858 6.39204 11.8906C5.97002 11.9861 5.69211 12.1844 5.87996 12.674C5.93657 12.8247 6.00605 12.9904 6.09097 13.1285V13.234C6.07296 13.234 6.05752 13.229 6.04465 13.229C5.76674 13.1737 5.30097 13.0005 5.2212 12.7293C5.14657 12.5033 5.31384 12.197 5.38074 12.0639C5.48882 11.8354 5.67152 11.4638 5.47853 11.2252C5.39361 11.1374 5.26752 11.1022 5.14657 11.0419C4.9999 10.9641 4.90726 10.8863 4.72198 10.7984C4.57273 10.7155 4.31798 10.821 4.06065 11.2252C4.00403 11.3131 3.88566 11.4186 3.83934 11.4638C3.39159 11.519 3.10081 11.6571 3.03905 11.9132C2.93355 12.423 3.4482 12.4129 3.41475 12.7293C3.40188 12.9126 3.20374 12.7845 3.11368 12.7745C2.93612 12.7293 2.76114 12.8347 2.76114 13.0582C2.76114 13.1511 2.82547 13.362 3.04162 13.4901C2.95156 13.3294 2.96185 13.1285 3.11368 13.1737C3.43791 13.2742 3.62061 13.2842 3.83162 13.013C3.83162 13.1612 3.69524 13.2842 3.63348 13.4123C3.50739 13.7286 3.71583 14.0676 4.1327 14.0551C3.94485 13.8818 3.98345 13.6834 3.98345 13.6834C4.04263 13.3997 4.22276 13.3169 4.28452 13.0783C4.41061 12.551 3.90882 12.4682 4.0169 11.9735C4.02719 11.9007 4.05035 11.7701 4.08381 11.7023C4.40804 11.6596 4.5856 11.5316 4.81205 11.4311C5.04621 11.868 4.37459 12.4355 4.80175 12.8799C5.04621 13.1285 5.50169 13.2742 5.9726 13.3068C5.98289 13.3068 5.99833 13.3118 6.0112 13.3143C5.97774 13.3344 5.96231 13.3796 5.96231 13.4374C5.83879 13.3922 5.741 13.46 5.75902 13.5931C5.27009 13.5931 4.83778 13.8768 4.94586 14.4317C4.97931 14.6376 5.05908 14.7255 5.19032 14.8259C5.39618 14.5095 5.98804 14.4869 6.37403 14.6928C6.16302 14.6803 5.86195 14.7355 5.6741 14.8134C5.45794 14.9088 5.18003 15.0318 4.88924 14.9992C4.68853 14.9766 4.58817 14.8535 4.547 14.7154C4.45693 14.7933 4.52384 15.1825 4.86608 15.3382C5.03592 15.421 5.33957 15.4537 5.54801 15.303C5.62778 15.2603 5.94172 14.9213 6.32256 14.9213C5.76931 15.067 5.61491 15.4537 6.04722 15.6872C6.02921 15.5541 6.00862 15.3708 6.28654 15.2051C6.44094 15.1097 6.6854 15.0544 6.92471 15.1272C7.00963 15.1599 7.12286 15.2176 7.19234 15.2377C7.31071 15.2478 7.36732 15.1825 7.40077 15.1498C7.64523 15.3281 8.00292 15.883 8.08269 16.2321C8.16761 16.6313 8.10585 16.8924 7.89999 17.1259C7.83308 17.1988 7.50113 17.4574 7.17947 17.1862C7.14859 17.4398 7.2824 17.6306 7.49341 17.6984C7.30556 17.7185 7.17947 17.7261 7.17432 17.7261H7.14087L7.128 17.7562C7.12543 17.7612 7.09712 17.8265 7.06367 17.9546C6.9453 17.9119 6.84752 17.829 6.78576 17.716C6.50784 18.0274 6.59276 18.5271 6.96846 18.6727C6.96589 18.7405 6.96331 18.8158 6.96331 18.8911C6.64165 19.1322 6.05752 19.082 5.76931 18.6652C5.54801 18.3488 5.80276 18.1228 5.92885 17.9947C6.25309 17.6884 6.25309 17.3946 6.01892 17.0682C5.71784 16.6288 4.79146 15.9132 4.43377 15.3909C4.37459 15.4863 4.34113 15.5742 4.32827 15.6068C3.99374 15.3582 3.61804 14.8435 3.49452 14.4518C3.42504 14.4618 3.37358 14.5296 3.31697 14.5799C2.79974 13.9421 1.85534 12.4054 1.58772 11.8053C1.02417 12.0664 1.03446 12.8498 1.20687 13.2968C1.3587 13.7086 1.61602 14.1455 2.15641 14.7581C1.98658 14.6351 0.928957 13.5805 0.694788 13.4474C0.303648 13.9923 0.568697 14.9515 1.30723 15.3582C1.08078 15.2578 0.522377 15.0519 0.221303 15.1247C0.16469 15.7349 0.669054 16.1517 0.982995 16.3802C0.681921 16.3149 0.334527 16.2647 0 16.3576C0.0231596 16.7744 0.465765 17.2415 1.09107 17.4574C0.692214 17.4172 0.290782 17.4699 0.0437464 17.6131C0.0900655 18.045 0.591856 18.4191 1.19143 18.507C0.787426 18.5497 0.429739 18.7229 0.24189 18.9614C0.463192 19.2452 0.787426 19.4611 1.2815 19.4511C1.16827 19.4913 1.03703 19.5666 0.92381 19.672C0.910943 19.662 0.887784 19.6494 0.867198 19.6494C0.844039 19.6595 0.833745 19.6921 0.844039 19.7147C0.844039 19.7147 0.844039 19.7147 0.844039 19.7323C0.797719 19.765 0.769413 19.8026 0.764266 19.8428C0.717947 19.9056 0.671628 19.9834 0.645895 20.0487C0.658762 20.0537 0.669055 20.0663 0.679348 20.0713C0.674202 20.1089 0.681921 20.1516 0.7128 20.1943C0.692214 20.2169 0.679348 20.2496 0.669055 20.2822L0.378273 20.1717C0.362834 20.4278 0.419446 20.6413 0.553257 20.7718C0.658762 20.8873 0.774559 20.8723 0.741107 20.9099L1.05505 21.0983C1.11166 21.2163 1.22488 21.2163 1.30466 21.1811C1.30466 21.1811 1.30466 21.1912 1.30466 21.2037C1.30466 21.3268 1.38957 21.4247 1.5028 21.4649C1.48221 21.5653 1.52596 21.6306 1.67006 21.6758L2.85377 24.473C2.80746 24.606 2.85378 24.7216 2.95671 24.7667C2.93097 24.7919 2.91039 24.827 2.91039 24.8923C2.95671 24.8597 3.02361 24.8471 3.05964 24.9425C3.08022 25.0078 2.95671 25.2262 3.14456 25.3694C3.1214 25.4974 3.1883 25.6305 3.32469 25.6858C3.32469 25.751 3.38645 25.9695 3.39931 26.0448C3.31439 26.1628 3.1214 26.3386 3.14456 26.5345C3.16772 26.6751 3.22433 26.7178 3.33755 26.7504C3.29123 26.999 3.43276 27.112 3.65149 27.122C3.65149 27.3053 3.82648 27.3706 3.94227 27.3806C4.05035 27.4585 4.09667 27.4911 4.22019 27.5539C4.10697 27.687 4.18674 27.8602 4.39517 27.9155C4.41833 27.9933 4.47495 28.0586 4.59332 28.0862C4.6628 28.1967 4.78631 28.1967 4.86094 28.1641C4.90726 28.1415 4.98703 28.0134 4.91755 27.9029C4.96387 27.8477 4.94071 27.7422 4.90726 27.6744C4.97416 27.5539 4.91755 27.4032 4.82234 27.358C4.83521 27.2902 4.79918 27.1848 4.77602 27.1195C4.94071 27.0191 5.14657 26.891 5.21863 26.8483C5.62263 26.5646 6.0781 26.3135 6.59533 26.2808C6.72657 26.2683 6.97103 26.2582 7.10742 26.2683C7.31585 26.2909 7.60663 26.3512 7.77647 26.2256C7.82794 26.193 7.86139 26.1377 7.8511 26.08C7.82794 25.9519 7.68641 25.8414 7.64009 25.7259C7.62722 25.6908 7.60663 25.6406 7.58348 25.5928C7.73273 25.618 7.86654 25.5979 7.95145 25.5577C8.04152 25.5251 8.2654 25.3644 8.25253 25.1258C8.07497 25.2087 7.64781 25.3192 7.60406 24.8973C7.55774 24.5257 7.89484 24.2093 8.41722 24.3474C8.77491 24.4353 9.29728 25.1785 8.81865 25.5025C8.58448 25.6581 8.2268 25.8063 8.27312 26.2131C8.42494 26.0298 8.6308 25.9419 8.89585 25.9645C8.50471 26.2482 8.20364 26.2808 7.79448 26.4968C7.4368 26.7027 7.16918 27.0417 6.88869 27.0517C6.67253 27.0617 6.55416 26.8132 6.7626 26.6173C6.55159 26.5746 6.27367 26.7353 6.1939 26.9488C6.09097 27.2425 6.17074 27.4535 6.35859 27.5715C6.10384 27.7046 5.91599 27.9657 6.00605 28.3373C6.09097 28.6436 6.40491 28.6436 6.28654 29.0303C6.46152 28.9851 6.57475 28.8696 6.62621 28.7014C6.64937 28.5859 6.66996 28.4629 6.72914 28.4076C6.70598 28.6411 6.84237 28.9851 7.1666 29.1408C7.38791 29.2463 7.7353 29.289 8.00292 29.0178C8.111 29.3241 8.47898 29.5827 8.8624 29.5727C9.03738 29.5727 9.20979 29.4999 9.34103 29.4245C9.43109 29.6505 9.66526 29.879 9.89686 29.9895C10.1362 29.879 10.3703 29.6505 10.4656 29.4245C10.5916 29.4999 10.7666 29.5727 10.939 29.5727C11.307 29.5827 11.6956 29.3241 11.7985 29.0178C12.0661 29.289 12.4135 29.2438 12.6348 29.1408C12.9591 28.9851 13.0955 28.6411 13.0749 28.4076C13.1366 28.4629 13.1572 28.5859 13.1829 28.7014C13.2267 28.8671 13.3399 28.9851 13.5175 29.0303C13.3991 28.6411 13.7182 28.6411 13.7954 28.3373C13.8855 27.9657 13.6976 27.7046 13.448 27.5715C13.6307 27.4535 13.7156 27.2425 13.6075 26.9488C13.5278 26.7328 13.2499 26.5721 13.0388 26.6173C13.2499 26.8107 13.1366 27.0617 12.9128 27.0517C12.6348 27.0417 12.3672 26.7002 12.007 26.4968C11.5978 26.2808 11.2967 26.2482 10.9056 25.9645C11.1732 25.9419 11.3842 26.0298 11.5309 26.2131C11.5772 25.8063 11.2195 25.6581 10.9854 25.5025C10.5144 25.1785 11.0317 24.4353 11.3945 24.3474C11.9117 24.2093 12.254 24.5257 12.2025 24.8973C12.1459 25.3192 11.7316 25.2087 11.5438 25.1258C11.5438 25.3644 11.7651 25.5251 11.8577 25.5577C11.9658 25.6079 12.1614 25.633 12.3389 25.5602C12.3338 25.6029 12.326 25.6456 12.326 25.6581C12.29 26.0197 12.0919 26.0523 12.1588 26.2005C12.2566 26.311 12.8922 26.2884 13.0646 26.3235C13.3656 26.3637 13.623 26.4717 13.9112 26.5294C14.2354 26.5947 14.5828 26.5947 14.8736 26.7127C15.0614 26.7906 15.2725 26.9387 15.4526 27.0291C15.7305 27.0743 15.6868 27.1848 15.8617 27.1848C16.0213 27.1848 16.083 27.0517 16.2863 26.9965C16.4279 26.9638 16.5874 27.0191 16.7289 26.9739C16.8319 26.9513 16.8782 26.8483 16.976 26.7906C17.0892 26.7228 17.2487 26.7228 17.3568 26.6274C17.4134 26.5796 17.4237 26.4842 17.416 26.4189L17.4186 26.434C17.6347 26.2859 17.7994 26.0674 17.8921 25.8163C17.9487 25.8063 17.995 25.7561 17.995 25.7008C17.995 25.6908 17.995 25.6807 17.995 25.6807C18.0516 25.6355 18.0851 25.5677 18.0851 25.5025C18.0851 25.4171 18.0516 25.3518 17.995 25.2966C17.995 25.2966 17.995 25.284 17.995 25.274C17.995 25.2313 17.9718 25.1961 17.9512 25.1685C17.8612 24.6864 17.4855 24.2972 17.0017 24.1767C17.0017 24.1641 17.0017 24.1641 17.0017 24.1541H16.9914C16.9914 24.1315 16.9811 24.1189 16.9631 24.1189C16.8936 24.0612 16.8139 23.9557 16.8061 23.8879C16.8859 23.9105 17.0171 24.0336 17.084 24.0813V23.4435C17.0171 23.4937 16.8859 23.6142 16.8061 23.6368C16.8164 23.559 16.9399 23.4209 17.0043 23.3656H16.3404C16.4021 23.4209 16.5282 23.559 16.5385 23.6368C16.4587 23.6142 16.3275 23.4912 16.2606 23.4435V24.0813C16.3275 24.031 16.4587 23.9105 16.5385 23.8879C16.5282 23.9658 16.4021 24.1039 16.3404 24.1591L16.3635 24.1691C15.8695 24.2796 15.4706 24.6814 15.378 25.1735C15.3445 25.2011 15.3213 25.2363 15.3213 25.279C15.3213 25.289 15.3213 25.3016 15.3213 25.3016C15.2647 25.3568 15.2313 25.4221 15.2313 25.5075C15.2313 25.5728 15.2647 25.6406 15.3213 25.6858C15.3213 25.6858 15.3213 25.6958 15.3213 25.7058C15.3213 25.7787 15.3677 25.8113 15.4243 25.8213C15.4474 25.8841 15.4757 25.9444 15.5041 25.9996C15.5041 25.9946 15.5041 25.9946 15.5118 25.9871C15.4706 26.1704 15.2441 26.2808 15.1927 26.2808C14.7887 26.3361 14.3384 26.1704 13.9292 26.0197C13.7491 25.9519 13.5046 25.8766 13.3837 25.7033C13.309 25.5778 13.2782 25.4974 13.3168 25.3869C13.3605 25.4422 13.4377 25.505 13.5381 25.5577C13.5484 25.5025 13.5484 25.4422 13.5715 25.397C13.677 25.5477 13.8391 25.623 14.0373 25.6129C13.9189 25.5125 13.8623 25.2514 13.9189 25.0254C14.0836 25.2966 14.7089 25.3543 14.8247 24.8647C14.5905 24.9701 14.4413 24.8546 14.3975 24.7316C14.3281 24.5357 14.5571 24.0637 14.3512 23.6996C14.1865 23.4284 13.9987 23.2627 13.5612 23.1949C13.5947 23.1447 13.605 23.0995 13.6178 23.0216C13.2164 23.1673 12.8664 23.0543 12.7017 22.7379C12.7815 22.7705 12.8999 22.7831 13.0157 22.7831C12.658 22.4994 12.6786 21.6934 12.9359 21.279C12.9694 21.2564 12.9797 21.2339 13.0157 21.2238C13.0955 21.3795 13.3296 21.3795 13.448 21.5075C13.4943 21.4623 13.5175 21.4523 13.5638 21.4121C13.5638 21.4121 13.5741 22.0725 13.6204 22.3437C13.6642 22.65 13.9678 22.6149 14.1222 22.7505C14.3049 22.5546 14.6343 22.5647 14.5828 22.2282C14.5365 21.8917 14.4696 21.5854 14.4567 21.3569C14.5597 21.5628 14.7578 22.3336 14.8376 22.5546C14.9662 22.8835 15.293 22.7831 15.4732 22.9112C15.5941 22.6827 15.8952 22.6174 15.7742 22.2709C15.7408 22.183 15.2467 21.1661 15.1721 20.9727C15.3471 21.2238 15.8257 22.1177 15.975 22.3663C16.1397 22.6274 16.4407 22.4994 16.6569 22.5647C16.6981 22.3763 16.9888 22.1604 16.7778 21.834C16.5102 21.3996 15.8849 20.6463 15.8514 20.5408C15.9775 20.6563 16.9477 21.834 17.0223 21.8993C17.2487 22.0926 17.5781 21.9419 17.7737 21.9419C17.7737 21.726 17.9487 21.4824 17.6939 21.2313C17.4597 21.0154 16.9245 20.6438 16.8113 20.5157C17.169 20.7543 17.591 21.1359 17.8406 21.1987C18.2832 21.3092 18.4427 21.1384 18.61 21.0706C18.4736 20.6764 18.6538 20.4931 17.7171 20.1115C18.5302 20.3952 18.8879 20.2546 19.1787 20.0336C19.0655 19.7499 18.7747 19.5139 18.5405 19.436C19.0372 19.4461 19.3666 19.2301 19.5827 18.9464C19.4 18.7078 19.0372 18.5346 18.6229 18.4919C19.2276 18.4116 19.7165 18.0399 19.7731 17.6055ZM0.946969 20.5157C0.936676 20.5157 0.936677 20.5258 0.926384 20.5383C0.856905 20.5283 0.856905 20.4504 0.869771 20.3826C0.903224 20.3826 0.926384 20.3726 0.949543 20.35L0.959836 20.3626L0.926384 20.3826C0.936677 20.4253 0.936676 20.4705 0.946969 20.5157ZM1.16827 20.9802L1.05505 20.915C1.09879 20.8647 1.14511 20.8647 1.18886 20.8924C1.19143 20.925 1.19143 20.9576 1.16827 20.9802ZM1.5028 20.2872C1.48736 20.2872 1.47449 20.2872 1.45905 20.2872C1.45648 20.2847 1.45391 20.2797 1.45133 20.2772C1.47192 20.2722 1.49508 20.2722 1.51309 20.2671C1.51052 20.2722 1.50795 20.2797 1.5028 20.2872ZM7.95403 28.3951C7.67611 28.3951 7.4754 28.2243 7.61693 27.9833C7.69155 28.0912 7.83823 28.1415 7.96432 28.154C7.95403 28.2695 7.95403 28.3022 7.95403 28.3951ZM12.1974 27.9833C12.3415 28.2218 12.1408 28.3951 11.8629 28.3951C11.8629 28.3022 11.8628 28.2695 11.8397 28.1565C11.9684 28.144 12.1202 28.0963 12.1974 27.9833ZM7.94116 13.2943C8.57934 13.1612 9.22781 12.8122 9.51859 12.5184C9.76048 12.5334 10.0718 12.5359 10.3086 12.5209C10.5968 12.8172 11.235 13.1587 11.8731 13.2943C11.5026 13.2943 10.8567 13.2616 10.7769 13.1712C10.8001 13.3972 11.2942 13.6558 11.6184 13.7261C11.3508 13.7588 11.1012 13.7261 10.8901 13.6332C11.0059 13.7939 11.1346 13.917 11.3508 13.9873C11.1243 14.2585 10.6586 14.4367 10.1954 14.3915C10.3086 14.5246 10.5196 14.6075 10.7049 14.5849C10.2906 15.2302 9.98178 15.8931 9.90973 16.6614H9.90715V16.6639C9.83767 15.8956 9.53145 15.2327 9.11973 14.5849C9.30758 14.6075 9.51344 14.5246 9.61894 14.3915C9.15318 14.4342 8.70286 14.2585 8.47126 13.9873C8.68742 13.9145 8.81865 13.7939 8.93188 13.6332C8.72601 13.7261 8.47126 13.7588 8.20364 13.7261C8.52787 13.6558 9.02709 13.3972 9.05025 13.1712C8.96018 13.2616 8.31429 13.2943 7.94116 13.2943ZM2.10752 20.1215C2.04834 20.1441 1.97886 20.1742 1.92482 20.1968C1.92482 20.1918 1.92482 20.1868 1.92482 20.1818C1.98143 20.1617 2.05091 20.1416 2.10752 20.1215ZM6.20162 23.0292C6.21449 23.107 6.22478 23.1522 6.25823 23.2024C5.82077 23.2677 5.63292 23.4359 5.47595 23.7071C5.25208 24.0737 5.48625 24.5458 5.42191 24.7391C5.37817 24.8622 5.23149 24.9777 4.99732 24.8722C5.11055 25.3618 5.73586 25.3066 5.90055 25.0329C5.95716 25.2589 5.90055 25.5225 5.78732 25.6205C5.98032 25.6305 6.14758 25.5552 6.24794 25.4045C6.2711 25.4497 6.2711 25.51 6.28139 25.5652C6.38947 25.51 6.45895 25.4497 6.50269 25.3945C6.52071 25.4497 6.54129 25.5778 6.51556 25.6807C6.43322 25.736 6.338 25.7862 6.19133 25.8615C5.95716 25.972 5.53257 26.1327 5.2881 26.1679C5.08739 26.2005 4.73999 26.09 4.64993 25.8163C4.57016 25.5552 4.34885 25.4723 4.1713 25.633C4.12755 25.6004 4.00146 25.5778 3.95 25.6556C3.95 25.6556 3.89338 25.5326 3.8239 25.4723C3.87022 25.3392 3.8342 25.1785 3.71068 25.1233C3.70039 24.8622 3.5357 24.8622 3.47908 24.7718C3.44563 24.7165 3.44563 24.6487 3.5254 24.6387C3.49195 24.5885 3.42247 24.5784 3.41218 24.5784C3.43534 24.4679 3.39931 24.3298 3.24749 24.2846L1.89651 21.5703C1.98143 21.4824 1.93769 21.3544 1.8399 21.3092C1.8399 21.3092 1.8399 21.2991 1.8399 21.2891C1.84762 21.2665 1.85019 21.2514 1.85277 21.2339C1.88879 21.2288 1.93254 21.2188 1.97114 21.2113C2.23876 21.151 2.65306 20.7668 3.01332 20.5283C2.88723 20.6563 2.36485 21.028 2.13068 21.2439C1.91453 21.4548 2.00459 21.6657 2.04062 21.8541L2.09208 21.9595C2.29023 21.9721 2.58615 22.0876 2.80746 21.9093C2.87693 21.844 3.84964 20.6664 3.9783 20.5509C3.92941 20.6563 3.31439 21.4121 3.03648 21.844C2.83062 22.1704 3.13169 22.3864 3.16772 22.5747C3.38902 22.5094 3.69009 22.6375 3.84964 22.3763C4.00403 22.1277 4.47495 21.2339 4.6525 20.9828C4.5856 21.1786 4.08381 22.193 4.05035 22.2809C3.93198 22.6249 4.23306 22.6927 4.35143 22.9212C4.53413 22.7931 4.86094 22.8936 4.98703 22.5647C5.0668 22.3437 5.26494 21.5728 5.36788 21.3669C5.35501 21.5954 5.2881 21.9018 5.24179 22.2382C5.19547 22.5772 5.5197 22.5672 5.68954 22.7605C5.85423 22.6274 6.1553 22.6601 6.20162 22.3537C6.24794 22.0826 6.25823 21.4222 6.25823 21.4222C6.30455 21.4623 6.32771 21.4724 6.37918 21.5176C6.4924 21.3895 6.72657 21.3895 6.80377 21.2339C6.8398 21.2439 6.85009 21.2665 6.88354 21.2891C7.1383 21.7034 7.16146 22.5094 6.80377 22.7931C6.9067 22.7931 7.03794 22.7806 7.11771 22.748C6.95817 23.0618 6.60563 23.1723 6.20162 23.0292ZM8.72087 26.8307C8.50986 27.1145 8.34517 27.3179 8.20878 27.6694C7.96432 27.6468 8.01064 27.353 8.09041 27.2024C8.2551 26.9086 8.92673 26.5244 9.26126 26.1427C9.11458 26.3888 8.90615 26.6098 8.72087 26.8307ZM9.44911 27.353C9.31272 27.8728 9.21751 28.6411 9.26126 28.9826C8.78777 28.7441 9.05539 27.8175 9.2381 27.4183C9.49285 26.8634 9.67041 26.1854 9.72702 25.7535C9.87627 26.0825 9.54947 27.0015 9.44911 27.353ZM10.553 28.9826C10.5994 28.6386 10.5093 27.8728 10.3652 27.353C10.2674 27.0015 9.94061 26.0825 10.0873 25.7535C10.1439 26.1854 10.3215 26.8634 10.5762 27.4183C10.7589 27.8175 11.024 28.7441 10.553 28.9826ZM11.7239 27.2024C11.8037 27.353 11.85 27.6468 11.6055 27.6694C11.4691 27.3179 11.3044 27.1145 11.0986 26.8307C10.9082 26.6123 10.6997 26.3888 10.5505 26.1427C10.8876 26.5244 11.5592 26.9086 11.7239 27.2024ZM11.6673 23.2301C11.0523 24.3976 9.92259 25.3493 9.90973 25.3342C9.89686 25.3493 8.76719 24.3976 8.15217 23.2301C7.53716 22.0625 7.14087 20.2295 7.12028 19.3557C7.09712 18.4793 7.27468 18.1052 7.27468 18.1052C7.27468 18.1052 8.04409 18.065 8.66168 17.8541C9.18406 17.6784 9.75276 17.2314 9.9123 17.1008C10.0718 17.2314 10.6405 17.6784 11.1655 17.8541C11.7805 18.0625 12.5499 18.1052 12.5499 18.1052C12.5499 18.1052 12.7249 18.4793 12.7017 19.3557C12.676 20.232 12.2823 22.065 11.6673 23.2301Z" fill="#222222"/>
<path d="M40.554 12.8601L40.7058 11.3409H40.6492L40.0547 12.6567L37.3451 16.86H36.9282L34.0796 12.6441L33.5109 11.356H33.4414L33.6627 12.8475V18.9767H32.3555V9.48535H33.3976L36.6915 14.3264L37.2061 15.3559H37.2344L37.7208 14.2988L40.8473 9.48535H41.9461V18.9767H40.5565V12.8601H40.554Z" fill="#222222"/>
<path d="M48.7676 14.9082L48.9632 13.4971H48.8114L48.1295 14.8254L44.7121 18.9734H43.7266V11.8574H45.0055V16.0607L44.9077 17.3087H45.0595L45.6977 16.1009L49.0455 11.8574H50.0466V18.9759H48.7676V14.9082Z" fill="#222222"/>
<path d="M56.7583 15.8699H53.0914V18.9759H51.8125V11.8574H53.0914V14.7601H56.7583V11.8574H58.0373V18.9759H56.7583V15.8699Z" fill="#222222"/>
<path d="M67.051 20.7637H66.1889L65.9522 18.9734H59.7969V11.8574H61.0758V17.9188H64.5909V11.8574H65.8698V17.9188H67.051V20.7637Z" fill="#222222"/>
<path d="M72.92 14.9082L73.1156 13.4971H72.9637L72.2818 14.8254L68.8645 18.9734H67.8789V11.8574H69.1578V16.0607L69.06 17.3087H69.2119L69.85 16.1009L73.1979 11.8574H74.1989V18.9759H72.92V14.9082Z" fill="#222222"/>
<path d="M79.6724 19.0169C79.4511 19.0897 79.2401 19.1324 79.0394 19.1449C78.8413 19.1575 78.6611 19.165 78.5042 19.165C77.5418 19.165 76.7981 18.8562 76.2731 18.236C75.7508 17.6158 75.4883 16.6792 75.4883 15.4237C75.4883 14.2386 75.7765 13.3271 76.3503 12.6843C76.9242 12.0415 77.7579 11.7226 78.8516 11.7226C78.9802 11.7226 79.114 11.7276 79.2479 11.7352C79.3817 11.7452 79.5232 11.7678 79.6724 11.803V9.48535H80.9514V11.818C81.1933 11.7728 81.3914 11.7452 81.5484 11.7377C81.7053 11.7276 81.8443 11.7251 81.9652 11.7251C83.0126 11.7251 83.8026 12.0063 84.3352 12.5663C84.8679 13.1262 85.133 14.0302 85.133 15.2781C85.133 15.8556 85.0609 16.3854 84.9168 16.865C84.7727 17.3446 84.5643 17.7539 84.2915 18.0929C84.0187 18.4318 83.6791 18.6955 83.2776 18.8863C82.8736 19.0771 82.4181 19.1701 81.9086 19.1701C81.8057 19.1701 81.659 19.1575 81.4635 19.1374C81.2679 19.1148 81.0981 19.0797 80.9488 19.0345V21.691H79.6699V19.0169H79.6724ZM78.867 18.1632C78.9879 18.1632 79.1115 18.1581 79.235 18.1506C79.3611 18.1406 79.5155 18.118 79.7008 18.0828V12.8199C79.5335 12.7847 79.3945 12.7596 79.2839 12.7446C79.1732 12.732 79.042 12.7245 78.8953 12.7245C78.2288 12.7245 77.7116 12.9429 77.3462 13.3823C76.9808 13.8217 76.7981 14.4997 76.7981 15.4237C76.7981 15.8129 76.8367 16.1745 76.9165 16.5085C76.9962 16.8424 77.1197 17.1312 77.2922 17.3772C77.4646 17.6208 77.6781 17.8141 77.9381 17.9522C78.1954 18.0929 78.5067 18.1632 78.867 18.1632ZM81.6873 12.7245C81.5381 12.7245 81.4146 12.7295 81.3116 12.737C81.2087 12.7471 81.08 12.7722 80.9231 12.8174V18.1054C81.062 18.133 81.1984 18.1481 81.3322 18.1531C81.466 18.1581 81.6127 18.1607 81.7697 18.1607C82.4542 18.1607 82.9688 17.9121 83.3111 17.4149C83.6533 16.9177 83.8257 16.2046 83.8257 15.2731C83.8257 14.8839 83.7897 14.5323 83.7151 14.216C83.6405 13.8996 83.5195 13.6309 83.3548 13.41C83.1876 13.189 82.9688 13.0182 82.6935 12.9027C82.4207 12.7847 82.0862 12.7245 81.6873 12.7245Z" fill="#222222"/>
<path d="M86.3932 11.8577H87.2553L87.5049 12.7666H87.631C87.8806 12.4151 88.2048 12.1414 88.6037 11.9456C89.0025 11.7522 89.4503 11.6543 89.9521 11.6543C91.0071 11.6543 91.7945 11.9405 92.3143 12.5156C92.8341 13.0906 93.0915 14.0045 93.0915 15.26C93.0915 15.8576 93.0065 16.3975 92.8341 16.8796C92.6617 17.3642 92.4173 17.7735 92.0982 18.1124C91.7791 18.4514 91.3905 18.7126 90.9299 18.8908C90.4719 19.0716 89.9598 19.162 89.3937 19.162C89.2084 19.162 89.0385 19.1545 88.8867 19.1419C88.7349 19.1294 88.5934 19.1068 88.4621 19.0741C88.3335 19.0415 88.2022 19.0063 88.0736 18.9662C87.9449 18.926 87.8085 18.8783 87.6695 18.823V21.683H86.3906V11.8577H86.3932ZM89.6433 12.7114C89.0926 12.7114 88.6577 12.847 88.3463 13.1182C88.0324 13.3894 87.8085 13.8062 87.6695 14.3661V17.6479C87.8806 17.7936 88.1122 17.9065 88.3592 17.9869C88.6088 18.0672 88.9253 18.1099 89.3113 18.1099C90.0576 18.1099 90.6417 17.8714 91.0637 17.3918C91.4857 16.9122 91.6993 16.1991 91.6993 15.25C91.6993 14.4816 91.5423 13.8664 91.231 13.4069C90.917 12.9424 90.3895 12.7114 89.6433 12.7114Z" fill="#222222"/>
<path d="M95.7438 14.5818C96.0397 14.5366 96.315 14.5065 96.5698 14.4939C96.8245 14.4814 97.0536 14.4738 97.2569 14.4738C97.7947 14.4738 98.245 14.5291 98.6104 14.637C98.9758 14.745 99.2692 14.8957 99.493 15.084C99.7144 15.2748 99.8739 15.4983 99.9665 15.7544C100.059 16.013 100.105 16.2892 100.105 16.588C100.105 17.4468 99.8379 18.072 99.3001 18.4662C98.7622 18.8604 97.8873 19.0563 96.6727 19.0563C96.2842 19.0563 95.9085 19.0513 95.5482 19.0437C95.1879 19.0337 94.8251 19.0161 94.4648 18.9885V11.8574H95.7438V14.5818ZM95.7438 17.9163C96.1298 17.9716 96.5235 17.9967 96.9275 17.9967C97.5888 17.9967 98.052 17.8837 98.3171 17.6577C98.5821 17.4317 98.7159 17.1103 98.7159 16.696C98.7159 16.3344 98.5847 16.0306 98.3222 15.787C98.0597 15.5435 97.6094 15.4204 96.9661 15.4204C96.7911 15.4204 96.5981 15.428 96.3819 15.4405C96.1658 15.4531 95.9522 15.4832 95.7412 15.5284V17.9163H95.7438ZM101.454 11.8574H102.733V18.9759H101.454V11.8574Z" fill="#222222"/>
<path d="M32.3555 20.4113C32.744 20.3309 33.1686 20.2732 33.6267 20.243C34.0847 20.2104 34.5376 20.1953 34.9828 20.1953C35.4563 20.1953 35.9349 20.2355 36.4213 20.3183C36.9076 20.3987 37.3502 20.5494 37.7491 20.7653C38.1479 20.9812 38.4747 21.2825 38.7295 21.6667C38.9843 22.0509 39.1129 22.5456 39.1129 23.1507C39.1129 23.7207 38.9971 24.2053 38.7655 24.607C38.5339 25.0088 38.2251 25.3377 37.8417 25.5913C37.4583 25.8449 37.0183 26.0307 36.5216 26.1462C36.025 26.2643 35.5155 26.322 34.9854 26.322C34.9288 26.322 34.8438 26.3195 34.728 26.3145C34.6122 26.3095 34.4913 26.3044 34.3678 26.3019C34.2417 26.2969 34.1233 26.2919 34.0075 26.2818C33.8917 26.2718 33.8068 26.2643 33.7502 26.2542V29.8072H32.3606V20.4113H32.3555ZM35.024 21.388C34.7744 21.388 34.5299 21.393 34.2957 21.4006C34.059 21.4106 33.8763 21.4307 33.7476 21.4684V25.064C33.7939 25.0816 33.8711 25.0942 33.9766 25.0967C34.0821 25.1017 34.1928 25.1067 34.3112 25.1168C34.427 25.1268 34.5376 25.1293 34.6457 25.1293C34.7512 25.1293 34.8335 25.1293 34.8876 25.1293C35.2221 25.1293 35.5489 25.1042 35.8732 25.0565C36.1974 25.0088 36.4907 24.9109 36.7558 24.7702C37.0208 24.6271 37.2319 24.4262 37.394 24.1676C37.5561 23.909 37.6384 23.575 37.6384 23.1658C37.6384 22.8092 37.5587 22.5154 37.4017 22.2844C37.2447 22.0534 37.0414 21.8701 36.7892 21.737C36.5396 21.604 36.2591 21.511 35.9478 21.4633C35.6364 21.4131 35.3302 21.388 35.024 21.388Z" fill="#222222"/>
<path d="M39.4336 26.2562C39.4336 25.6687 39.5108 25.1414 39.6703 24.6768C39.8273 24.2123 40.0589 23.8156 40.3651 23.4917C40.6713 23.1653 41.0445 22.9167 41.4845 22.7459C41.9245 22.5752 42.4263 22.4873 42.9924 22.4873C43.5843 22.4873 44.1041 22.5827 44.5493 22.771C44.9945 22.9619 45.365 23.2255 45.6609 23.5645C45.9569 23.9035 46.1782 24.3002 46.3197 24.7572C46.4638 25.2142 46.5359 25.7139 46.5359 26.2562C46.5359 26.8337 46.4535 27.3535 46.294 27.8155C46.1319 28.2775 45.9003 28.6692 45.5992 28.9957C45.2981 29.3221 44.9276 29.5707 44.4875 29.7414C44.0475 29.9122 43.5483 30 42.995 30C42.3826 30 41.8551 29.9046 41.4099 29.7163C40.9647 29.5255 40.5967 29.2643 40.3059 28.9304C40.0152 28.5964 39.7964 28.1997 39.6523 27.7452C39.5056 27.2857 39.4336 26.7911 39.4336 26.2562ZM40.8232 26.2562C40.8232 26.5902 40.8618 26.9191 40.939 27.2405C41.0162 27.5619 41.1423 27.8482 41.3172 28.1018C41.4896 28.3554 41.7161 28.5588 41.9889 28.7119C42.2642 28.8651 42.6013 28.9429 43.0053 28.9429C44.4309 28.9429 45.1463 28.049 45.1463 26.2587C45.1463 25.9072 45.1077 25.5682 45.0305 25.2418C44.9533 24.9154 44.8298 24.6291 44.6599 24.3806C44.4901 24.132 44.2688 23.9311 43.9935 23.7779C43.7181 23.6248 43.3887 23.5469 43.0053 23.5469C42.2925 23.5469 41.7495 23.7704 41.379 24.2173C41.0084 24.6643 40.8232 25.3448 40.8232 26.2562Z" fill="#222222"/>
<path d="M53.5321 29.3207C53.2079 29.5467 52.827 29.7174 52.3921 29.8279C51.9573 29.9409 51.4992 29.9961 51.0154 29.9961C50.403 29.9961 49.8832 29.9057 49.4509 29.725C49.0211 29.5442 48.6712 29.2906 48.401 28.9667C48.1334 28.6402 47.9378 28.2485 47.8169 27.7865C47.6959 27.3245 47.6367 26.8148 47.6367 26.2548C47.6367 25.0521 47.9352 24.123 48.5322 23.4677C49.1292 22.8123 49.9887 22.4834 51.1106 22.4834C51.6021 22.4834 52.0267 22.5261 52.3896 22.6115C52.7498 22.6968 53.0741 22.8048 53.3623 22.9303L53.0303 23.9473C52.7807 23.8217 52.5131 23.7213 52.2223 23.6485C51.9315 23.5757 51.6176 23.5405 51.2779 23.5405C49.7777 23.5405 49.0263 24.4444 49.0263 26.2523C49.0263 26.5963 49.0675 26.9278 49.1498 27.2492C49.2322 27.5706 49.366 27.8543 49.5512 28.1029C49.7365 28.3515 49.9758 28.5523 50.2769 28.7055C50.5754 28.8587 50.9408 28.9365 51.3757 28.9365C51.7617 28.9365 52.1014 28.8838 52.3896 28.7808C52.6804 28.6779 52.9222 28.5523 53.1152 28.4092L53.5321 29.3207Z" fill="#222222"/>
<path d="M60.0087 29.3207C59.6844 29.5467 59.3036 29.7174 58.8687 29.8279C58.4338 29.9409 57.9758 29.9961 57.492 29.9961C56.8796 29.9961 56.3598 29.9057 55.9274 29.725C55.4977 29.5442 55.1477 29.2906 54.8775 28.9667C54.6099 28.6402 54.4144 28.2485 54.2934 27.7865C54.1725 27.3245 54.1133 26.8148 54.1133 26.2548C54.1133 25.0521 54.4118 24.123 55.0088 23.4677C55.6058 22.8123 56.4653 22.4834 57.5872 22.4834C58.0787 22.4834 58.5033 22.5261 58.8661 22.6115C59.2264 22.6968 59.5506 22.8048 59.8388 22.9303L59.5069 23.9473C59.2573 23.8217 58.9897 23.7213 58.6989 23.6485C58.4081 23.5757 58.0942 23.5405 57.7545 23.5405C56.2543 23.5405 55.5029 24.4444 55.5029 26.2523C55.5029 26.5963 55.544 26.9278 55.6264 27.2492C55.7087 27.5706 55.8425 27.8543 56.0278 28.1029C56.2131 28.3515 56.4524 28.5523 56.7535 28.7055C57.052 28.8587 57.4174 28.9365 57.8523 28.9365C58.2383 28.9365 58.5779 28.8838 58.8661 28.7808C59.1569 28.6779 59.3988 28.5523 59.5918 28.4092L60.0087 29.3207Z" fill="#222222"/>
<path d="M66.3457 25.7412L66.5413 24.3301H66.3895L65.7076 25.6584L62.2903 29.8064H61.3047V22.6904H62.5836V26.8937L62.4858 28.1417H62.6376L63.2758 26.9339L66.6237 22.6904H67.6247V29.809H66.3457V25.7412Z" fill="#222222"/>
<path d="M74.5606 25.7412L74.7562 24.3301H74.6043L73.9224 25.6584L70.5051 29.8064H69.5195V22.6904H70.7985V26.8937L70.7007 28.1417H70.8525L71.4907 26.9339L74.8385 22.6904H75.8395V29.809H74.5606V25.7412Z" fill="#222222"/>
<path d="M26.7664 9.48828H25.418V14.5654H26.7664V9.48828Z" fill="#222222"/>
<path d="M26.7664 14.5635H25.418V19.6406H26.7664V14.5635Z" fill="#222222"/>
<path d="M26.7664 19.6416H25.418V24.7187H26.7664V19.6416Z" fill="#222222"/>
<path d="M26.7664 24.7207H25.418V29.7978H26.7664V24.7207Z" fill="#222222"/>
</svg>
