<svg width="28" height="28" viewBox="0 0 28 28" fill="none" xmlns="http://www.w3.org/2000/svg">
<path d="M0 14C0 8.38215 0 5.57323 1.34824 3.55544C1.93191 2.68192 2.68192 1.93191 3.55544 1.34824C5.57323 0 8.38215 0 14 0C19.6178 0 22.4268 0 24.4446 1.34824C25.3181 1.93191 26.0681 2.68192 26.6518 3.55544C28 5.57323 28 8.38215 28 14C28 19.6178 28 22.4268 26.6518 24.4446C26.0681 25.3181 25.3181 26.0681 24.4446 26.6518C22.4268 28 19.6178 28 14 28C8.38215 28 5.57323 28 3.55544 26.6518C2.68192 26.0681 1.93191 25.3181 1.34824 24.4446C0 22.4268 0 19.6178 0 14Z" fill="#222222"/>
<path d="M24 13.8024C24 13.7024 23.9187 13.6196 23.8188 13.6149C20.2308 13.479 18.0472 13.0213 16.5195 11.4936C14.9887 9.96267 14.5326 7.77723 14.3967 4.1812C14.3936 4.08122 14.3108 4 14.2093 4H13.7907C13.6907 4 13.6079 4.08122 13.6032 4.1812C13.4673 7.77567 13.0112 9.96267 11.4805 11.4936C9.95125 13.0229 7.76912 13.479 4.18119 13.6149C4.08122 13.6181 4 13.7009 4 13.8024V14.221C4 14.321 4.08122 14.4038 4.18119 14.4085C7.76912 14.5444 9.9528 15.0021 11.4805 16.5299C13.0081 18.0577 13.4642 20.2369 13.6017 23.8187C13.6048 23.9187 13.6876 24 13.7891 24H14.2093C14.3092 24 14.392 23.9187 14.3967 23.8187C14.5342 20.2369 14.9903 18.0577 16.518 16.5299C18.0472 15.0005 20.2292 14.5444 23.8172 14.4085C23.9172 14.4054 23.9984 14.3226 23.9984 14.221V13.8024H24Z" fill="#F2F3F5"/>
</svg>
