<svg width="128" height="32" viewBox="0 0 128 32" fill="none" xmlns="http://www.w3.org/2000/svg">
<path fill-rule="evenodd" clip-rule="evenodd" d="M15.36 32C8.11923 32 4.49885 32 2.24942 29.7506C-1.98344e-07 27.5012 -3.57961e-07 23.8807 -6.77192e-07 16.6399L-7.33626e-07 15.3599C-1.05286e-06 8.11911 -1.21247e-06 4.49871 2.24942 2.24929C4.49884 3.61973e-06 8.11922 3.46283e-06 15.36 3.14902e-06L15.36 3.14902e-06L16.64 3.09355e-06L16.64 3.09355e-06C23.8808 2.77975e-06 27.5011 2.62285e-06 29.7506 2.24929C32 4.49871 32 8.11911 32 15.3599L32 16.6399C32 23.8807 32 27.5012 29.7506 29.7506C27.5011 32 23.8808 32 16.64 32L15.36 32Z" fill="#222222"/>
<path d="M18.5038 19.7205C17.6416 19.5051 17.0371 18.7339 17.0371 17.8494L17.0371 7.42833C17.0371 6.42363 17.9865 5.68677 18.9658 5.9314L25.1672 7.48056C26.0294 7.69593 26.6339 8.46716 26.6339 9.35171L26.6339 19.7728C26.6339 20.7775 25.6846 21.5143 24.7053 21.2697L18.5038 19.7205Z" fill="white"/>
<path d="M6.83193 24.5194C5.96976 24.3041 5.36523 23.5328 5.36523 22.6483L5.36524 12.2272C5.36524 11.2225 6.3146 10.4857 7.29388 10.7303L13.4953 12.2795C14.3575 12.4948 14.962 13.2661 14.962 14.1506L14.962 24.5717C14.962 25.5764 14.0127 26.3132 13.0334 26.0686L6.83193 24.5194Z" fill="white"/>
<path d="M12.6679 22.12C11.8057 21.9046 11.2012 21.1334 11.2012 20.2489L11.2012 9.82783C11.2012 8.82313 12.1505 8.08628 13.1298 8.3309L19.3313 9.88006C20.1935 10.0954 20.798 10.8667 20.798 11.7512L20.798 22.1723C20.798 23.1769 19.8486 23.9138 18.8693 23.6692L12.6679 22.12Z" fill="white"/>
<path d="M16.7265 23.1367C16.455 23.0676 16.2617 22.8274 16.2522 22.5473L15.9824 14.5888C15.9044 13.5355 15.1225 12.6978 14.3054 12.4511C14.2596 12.4373 14.2106 12.4559 14.1834 12.4954C14.1558 12.5355 14.1665 12.591 14.205 12.6208C14.4067 12.777 14.9621 13.2867 14.9621 14.1658L14.9604 22.6892L16.7265 23.1367Z" fill="#222222"/>
<path d="M22.5645 20.7352C22.2931 20.6673 22.0996 20.4279 22.0901 20.1483L21.8203 12.1904C21.7423 11.1371 20.9604 10.2994 20.1433 10.0527C20.0974 10.0388 20.0485 10.0575 20.0213 10.0969C19.9937 10.1371 20.0044 10.1926 20.0429 10.2224C20.2446 10.3786 20.8 10.8883 20.8 11.7674L20.7983 20.2936L22.5645 20.7352Z" fill="#222222"/>
<path d="M50.4215 18.3839C52.8448 17.7661 54.4372 15.9127 54.4372 13.4872C54.4372 10.4897 52.037 8.38458 48.6675 8.38458H42.667V24.5162H45.4365V18.5898H47.3982L51.6908 24.5162H54.9449L50.4215 18.3839ZM48.6675 10.9016C50.3984 10.9016 51.5985 11.9541 51.5985 13.4872C51.5985 15.0203 50.3984 16.0728 48.6675 16.0728H45.4365V10.9016H48.6675Z" fill="#222222"/>
<path d="M61.1778 24.745C62.6318 24.745 63.9704 23.9899 64.732 22.7314L65.2628 24.5162H67.2476V12.6177H64.5935V19.5051C64.5935 21.1983 63.4626 22.3882 61.9164 22.3882C60.3931 22.3882 59.3315 21.1983 59.3315 19.5051V12.6177H56.6775V19.8026C56.6775 22.6628 58.6161 24.745 61.1778 24.745Z" fill="#222222"/>
<path d="M75.7177 24.745C78.7871 24.745 81.3258 23.006 81.3258 20.1229C81.3258 16.8966 78.6718 15.9584 76.387 15.1804C74.6099 14.5855 73.0636 14.0364 73.0636 12.5948C73.0636 11.3363 74.2406 10.6727 75.6254 10.6727C77.0793 10.6727 78.1179 11.4278 78.6948 12.7092L81.3258 12.2745C80.495 9.75748 78.3948 8.15576 75.533 8.15576C72.5789 8.15576 70.2249 9.84901 70.2249 12.7321C70.2249 15.9813 72.879 16.8737 75.1638 17.6288C76.9178 18.2008 78.4871 18.75 78.4871 20.2144C78.4871 21.4958 77.3101 22.228 75.7407 22.228C73.9406 22.228 72.9713 21.3814 72.1174 19.8483L69.4402 20.3059C70.2249 23.0289 72.7174 24.745 75.7177 24.745Z" fill="#222222"/>
<path d="M88.5459 22.228C87.6458 22.228 87.2073 21.7933 87.2073 20.9009V14.9059H90.7845V12.6177H87.2073V9.18544H85.2225L84.5532 12.6177H82.5915V14.9059H84.5532V20.9009C84.5532 23.2348 85.9149 24.5162 88.5459 24.5162H90.7845L91.0153 22.228H88.5459Z" fill="#222222"/>
<path d="M98.5996 24.745C102.361 24.745 105.016 22.1823 105.016 18.5669C105.016 14.9516 102.361 12.3889 98.5996 12.3889C94.8377 12.3889 92.1837 14.9516 92.1837 18.5669C92.1837 22.1823 94.8377 24.745 98.5996 24.745ZM98.5996 22.3424C96.4302 22.3424 94.9531 20.8093 94.9531 18.5669C94.9531 16.3245 96.4302 14.7915 98.5996 14.7915C100.769 14.7915 102.246 16.3245 102.246 18.5669C102.246 20.8093 100.769 22.3424 98.5996 22.3424Z" fill="#222222"/>
<path d="M109.977 24.5162V17.4915C109.977 15.9813 110.715 15.1347 112.331 15.1347H113.854L113.623 12.6177H113.116C111.708 12.6177 110.623 13.0067 109.815 14.3338L109.308 12.6177H107.323V24.5162H109.977Z" fill="#222222"/>
<path d="M126.914 18.4297C126.914 14.9974 124.329 12.3889 120.682 12.3889C117.036 12.3889 114.451 14.9745 114.451 18.5669C114.451 22.1594 117.036 24.745 120.682 24.745C123.175 24.745 125.529 23.578 126.429 21.3127L123.937 20.9009C123.36 21.7475 122.252 22.3424 120.844 22.3424C118.813 22.3424 117.474 21.1068 117.221 19.2763H126.868C126.891 19.0246 126.914 18.75 126.914 18.4297ZM120.682 14.677C122.344 14.677 123.59 15.7296 124.029 17.2169H117.382C117.821 15.6838 119.067 14.677 120.682 14.677Z" fill="#222222"/>
</svg>
