<svg width="28" height="28" viewBox="0 0 28 28" fill="none" xmlns="http://www.w3.org/2000/svg">
<path d="M0 14C0 8.38215 0 5.57323 1.34824 3.55544C1.93191 2.68192 2.68192 1.93191 3.55544 1.34824C5.57323 0 8.38215 0 14 0C19.6178 0 22.4268 0 24.4446 1.34824C25.3181 1.93191 26.0681 2.68192 26.6518 3.55544C28 5.57323 28 8.38215 28 14C28 19.6178 28 22.4268 26.6518 24.4446C26.0681 25.3181 25.3181 26.0681 24.4446 26.6518C22.4268 28 19.6178 28 14 28C8.38215 28 5.57323 28 3.55544 26.6518C2.68192 26.0681 1.93191 25.3181 1.34824 24.4446C0 22.4268 0 19.6178 0 14Z" fill="#222222"/>
<path fill-rule="evenodd" clip-rule="evenodd" d="M14.1934 22.9486C12.4269 22.9486 11.606 22.6896 10.1791 21.6536C9.27649 22.8191 6.41833 23.7299 6.29369 22.1716C6.29369 21.0018 6.03581 20.0133 5.74355 18.9342C5.39541 17.6046 5 16.124 5 13.9786C5 8.85477 9.18623 5 14.1461 5C19.1103 5 22.9999 9.0447 22.9999 14.0261C23.0079 16.3815 22.0852 18.6439 20.4341 20.3167C18.783 21.9895 16.5386 22.9361 14.1934 22.9486ZM14.2664 9.42888C11.851 9.3037 9.96847 10.9829 9.55156 13.616C9.20772 15.7959 9.81804 18.4507 10.3381 18.5888C10.5874 18.6493 11.2149 18.1399 11.606 17.7471C12.2527 18.1958 13.0058 18.4653 13.7894 18.5284C14.9925 18.5865 16.1703 18.1682 17.0696 17.3635C17.969 16.5587 18.518 15.4317 18.5988 14.2247C18.6458 13.0152 18.2182 11.8354 17.408 10.9393C16.5978 10.0433 15.4697 9.50242 14.2664 9.4332V9.42888Z" fill="#F2F3F5"/>
</svg>
