<svg width="28" height="28" viewBox="0 0 28 28" fill="none" xmlns="http://www.w3.org/2000/svg">
<path d="M0 14C0 8.38215 0 5.57323 1.34824 3.55544C1.93191 2.68192 2.68192 1.93191 3.55544 1.34824C5.57323 0 8.38215 0 14 0C19.6178 0 22.4268 0 24.4446 1.34824C25.3181 1.93191 26.0681 2.68192 26.6518 3.55544C28 5.57323 28 8.38215 28 14C28 19.6178 28 22.4268 26.6518 24.4446C26.0681 25.3181 25.3181 26.0681 24.4446 26.6518C22.4268 28 19.6178 28 14 28C8.38215 28 5.57323 28 3.55544 26.6518C2.68192 26.0681 1.93191 25.3181 1.34824 24.4446C0 22.4268 0 19.6178 0 14Z" fill="#222222"/>
<path d="M17.5012 14.731C18.2139 14.2857 19.1546 14.4984 19.6028 15.2063C20.0512 15.9125 19.8367 16.8463 19.1247 17.2914C18.1846 17.8777 17.163 18.2935 16.1041 18.5328L19.012 21.4187C19.6083 22.0086 19.6083 22.9663 19.012 23.5571C18.4173 24.1476 17.4523 24.1476 16.8582 23.5571L13.9993 20.7212L11.1424 23.5571C10.8448 23.852 10.4548 23.9996 10.0643 23.9996C9.67469 23.9996 9.28536 23.852 8.98741 23.5571C8.39199 22.9663 8.39199 22.0092 8.98676 21.4187L11.8944 18.5328C10.8359 18.2935 9.81433 17.8771 8.87447 17.2914C8.16214 16.8463 7.94812 15.9132 8.39665 15.2063C8.84471 14.4984 9.78473 14.2857 10.4979 14.731C12.6273 16.0596 15.3705 16.0602 17.5012 14.731ZM14 4C16.8686 4 19.2016 6.31533 19.2016 9.16227C19.2016 12.0079 16.8686 14.3225 14 14.3225C11.1311 14.3225 8.79805 12.0079 8.79805 9.16227C8.79805 6.31533 11.1311 4 14 4ZM14 7.02511C12.813 7.02511 11.8463 7.98377 11.8463 9.16227C11.8463 10.3396 12.813 11.2986 14 11.2986C15.1873 11.2986 16.1537 10.3396 16.1537 9.16227C16.1537 7.98377 15.1873 7.02511 14 7.02511Z" fill="#F2F3F5"/>
</svg>
