<svg width="160" height="160" viewBox="0 0 160 160" fill="none" xmlns="http://www.w3.org/2000/svg">
<path d="M48.4784 1.66666V0H45.2965C44.8357 0 44.4427 0.162569 44.1176 0.487708C43.7925 0.812847 43.6299 1.20582 43.6299 1.66666V3.18181C43.6299 3.64266 43.7925 4.03568 44.1176 4.36077C44.4427 4.68586 44.8357 4.84847 45.2965 4.84847H48.4784V1.66666Z" fill="black"/>
<path d="M51.6662 0H48.4844V4.84847H51.6662C52.127 4.84847 52.5201 4.68586 52.8451 4.36077C53.1702 4.03568 53.3328 3.64266 53.3328 3.18181V1.66666C53.3328 1.20582 53.1702 0.812798 52.8451 0.487708C52.5201 0.162618 52.127 0 51.6662 0Z" fill="black"/>
<path d="M72.7264 1.66666V0H69.5446C69.0837 0 68.6907 0.162569 68.3656 0.487708C68.0405 0.812847 67.8779 1.20582 67.8779 1.66666V4.84847H72.7264V1.66666Z" fill="black"/>
<path d="M77.5721 1.66666C77.5721 1.20582 77.4095 0.812798 77.0844 0.487708C76.7593 0.162618 76.3663 0 75.9054 0H72.7236V4.84847H77.5721V1.66666Z" fill="black"/>
<path d="M92.1248 1.66666V0H88.943C88.4822 0 88.0892 0.162569 87.7641 0.487708C87.439 0.812847 87.2764 1.20582 87.2764 1.66666V3.18181C87.2764 3.64266 87.4389 4.03568 87.7641 4.36077C88.0892 4.68586 88.4822 4.84847 88.943 4.84847H92.1248V1.66666Z" fill="black"/>
<path d="M96.9686 0H92.1201V4.84847H96.9686V0Z" fill="black"/>
<path d="M101.82 0H96.9717V4.84847H101.82V0Z" fill="black"/>
<path d="M106.661 1.66666C106.661 1.20582 106.498 0.812798 106.173 0.487708C105.848 0.162618 105.455 0 104.994 0H101.812V4.84847H106.661V1.66666Z" fill="black"/>
<path d="M116.361 1.66666V0H113.179C112.719 0 112.325 0.162569 112 0.487708C111.675 0.812847 111.513 1.20582 111.513 1.66666V4.84847H116.361V1.66666Z" fill="black"/>
<path d="M119.549 0H116.367V4.84847H119.549C120.01 4.84847 120.403 4.68586 120.728 4.36077C121.053 4.03568 121.216 3.64266 121.216 3.18181V1.66666C121.216 1.20582 121.053 0.812798 120.728 0.487708C120.403 0.162618 120.01 0 119.549 0Z" fill="black"/>
<path d="M63.033 8.03093C63.033 8.49188 62.8704 8.8848 62.5453 9.20989C62.2202 9.53493 61.8273 9.6976 61.3664 9.6976H59.8512C59.3904 9.6976 58.9974 9.53493 58.6723 9.20989C58.3472 8.8848 58.1846 8.49188 58.1846 8.03093V6.51578C58.1846 6.05499 58.3471 5.66197 58.6723 5.33688C58.9975 5.01174 59.3904 4.84912 59.8512 4.84912H61.3664C61.8274 4.84912 62.2203 5.01169 62.5453 5.33683C62.8704 5.66202 63.033 6.05499 63.033 6.51578V8.03093Z" fill="black"/>
<path d="M72.7264 4.84912H67.8779V9.6976H72.7264V4.84912Z" fill="black"/>
<path d="M77.5721 4.84912H72.7236V9.6976H77.5721V4.84912Z" fill="black"/>
<path d="M82.4246 4.84912H77.5762V9.6976H82.4246V4.84912Z" fill="black"/>
<path d="M85.6017 4.84912H82.4199V9.6976H85.6017C86.0626 9.6976 86.4556 9.53498 86.7807 9.20989C87.1058 8.8848 87.2684 8.49178 87.2684 8.03093V6.51578C87.2684 6.05494 87.1058 5.66192 86.7807 5.33683C86.4556 5.01174 86.0626 4.84912 85.6017 4.84912Z" fill="black"/>
<path d="M101.823 4.84912H96.9746V8.03093C96.9746 8.49178 97.1372 8.8848 97.4623 9.20989C97.7875 9.53498 98.1804 9.6976 98.6413 9.6976H101.823V4.84912Z" fill="black"/>
<path d="M106.661 4.84912H101.812V9.6976H104.994C105.455 9.6976 105.848 9.53498 106.173 9.20989C106.498 8.8848 106.661 8.49178 106.661 8.03093V4.84912Z" fill="black"/>
<path d="M116.361 4.84912H111.513V9.6976H116.361V4.84912Z" fill="black"/>
<path d="M48.4784 11.362C48.4784 10.9011 48.3157 10.5081 47.9906 10.183C47.6656 9.85793 47.2725 9.69531 46.8117 9.69531H45.2965C44.8357 9.69531 44.4427 9.85788 44.1176 10.183C43.7925 10.5082 43.6299 10.9011 43.6299 11.362V12.8771C43.6299 12.9024 43.633 12.9403 43.6393 12.9908H43.6299V14.5438H48.4784V12.9908H48.4689C48.4753 12.9403 48.4784 12.9024 48.4784 12.8771V11.362Z" fill="black"/>
<path d="M58.1815 12.8771C58.1815 13.3381 58.0188 13.731 57.6938 14.0561C57.3687 14.3811 56.9758 14.5438 56.5148 14.5438H54.9997C54.5389 14.5438 54.1459 14.3811 53.8208 14.0561C53.4956 13.731 53.333 13.3381 53.333 12.8771V11.362C53.333 10.9012 53.4956 10.5082 53.8207 10.1831C54.1459 9.85793 54.5389 9.69531 54.9997 9.69531H56.5148C56.9758 9.69531 57.3688 9.85788 57.6938 10.183C58.0189 10.5082 58.1815 10.9012 58.1815 11.362V12.8771Z" fill="black"/>
<path d="M72.7264 9.69531H67.8779V12.8771C67.8779 13.338 68.0405 13.731 68.3656 14.0561C68.6908 14.3812 69.0837 14.5438 69.5446 14.5438H72.7264V9.69531Z" fill="black"/>
<path d="M77.5721 9.69531H72.7236V14.5438H75.9054C76.3663 14.5438 76.7593 14.3812 77.0844 14.0561C77.4095 13.731 77.5721 13.338 77.5721 12.8771V9.69531Z" fill="black"/>
<path d="M96.9686 12.8771C96.9686 13.3381 96.8059 13.731 96.4809 14.0561C96.1558 14.3811 95.7629 14.5438 95.3019 14.5438H93.7868C93.326 14.5438 92.933 14.3811 92.6079 14.0561C92.2827 13.731 92.1201 13.3381 92.1201 12.8771V11.362C92.1201 10.9012 92.2827 10.5082 92.6078 10.1831C92.933 9.85793 93.326 9.69531 93.7868 9.69531H95.3019C95.7629 9.69531 96.1559 9.85788 96.4809 10.183C96.806 10.5082 96.9686 10.9012 96.9686 11.362V12.8771Z" fill="black"/>
<path d="M116.361 9.69531H111.513V14.5438H116.361V9.69531Z" fill="black"/>
<path d="M48.4784 14.5454H43.6299V17.7272C43.6299 18.1881 43.7925 18.5811 44.1176 18.9062C44.4427 19.2313 44.8357 19.3939 45.2965 19.3939H48.4784V14.5454Z" fill="black"/>
<path d="M53.3328 16.2121C53.3328 15.7512 53.1702 15.3582 52.8451 15.0331C52.5201 14.708 52.127 14.5454 51.6662 14.5454H48.4844V19.3939H53.3328V16.2121Z" fill="black"/>
<path d="M82.4286 16.2121V14.5454H79.2467C78.7859 14.5454 78.3929 14.708 78.0678 15.0331C77.7427 15.3583 77.5801 15.7512 77.5801 16.2121V17.7272C77.5801 18.1881 77.7426 18.5811 78.0678 18.9062C78.3929 19.2313 78.7859 19.3939 79.2467 19.3939H82.4286V16.2121Z" fill="black"/>
<path d="M87.2703 14.5454H82.4219V19.3939H87.2703V14.5454Z" fill="black"/>
<path d="M90.4582 14.5454H87.2764V19.3939H90.4582C90.919 19.3939 91.312 19.2313 91.6371 18.9062C91.9622 18.5811 92.1248 18.1881 92.1248 17.7272V16.2121C92.1248 15.7512 91.9622 15.3582 91.6371 15.0331C91.312 14.708 90.919 14.5454 90.4582 14.5454Z" fill="black"/>
<path d="M101.823 17.7272C101.823 18.1882 101.66 18.5811 101.335 18.9062C101.01 19.2312 100.617 19.3939 100.156 19.3939H98.6413C98.1805 19.3939 97.7875 19.2312 97.4624 18.9062C97.1372 18.5811 96.9746 18.1882 96.9746 17.7272V16.2121C96.9746 15.7513 97.1372 15.3583 97.4623 15.0332C97.7875 14.708 98.1805 14.5454 98.6413 14.5454H100.156C100.617 14.5454 101.01 14.708 101.335 15.0331C101.66 15.3583 101.823 15.7513 101.823 16.2121V17.7272Z" fill="black"/>
<path d="M111.513 16.2121V14.5454H108.331C107.87 14.5454 107.477 14.708 107.152 15.0331C106.827 15.3583 106.664 15.7512 106.664 16.2121V19.3939H111.513V16.2121Z" fill="black"/>
<path d="M116.361 14.5454H111.513V19.3939H116.361V14.5454Z" fill="black"/>
<path d="M121.216 16.2121C121.216 15.7512 121.053 15.3582 120.728 15.0331C120.403 14.708 120.01 14.5454 119.549 14.5454H116.367V19.3939H121.216V16.2121Z" fill="black"/>
<path d="M43.6356 22.571C43.6356 23.0319 43.4729 23.4248 43.1479 23.7499C42.8228 24.075 42.4299 24.2376 41.9689 24.2376H40.4538C39.993 24.2376 39.6 24.075 39.2749 23.7499C38.9497 23.4248 38.7871 23.0319 38.7871 22.571V21.0558C38.7871 20.595 38.9497 20.202 39.2748 19.8769C39.6 19.5518 39.993 19.3892 40.4538 19.3892H41.9689C42.4299 19.3892 42.8229 19.5517 43.1479 19.8769C43.473 20.2021 43.6356 20.595 43.6356 21.0558V22.571Z" fill="black"/>
<path d="M53.3328 19.3892H48.4844V22.571C48.4844 23.0318 48.6469 23.4248 48.9721 23.7499C49.2972 24.075 49.6902 24.2376 50.151 24.2376H53.3328V19.3892Z" fill="black"/>
<path d="M58.1815 21.0558C58.1815 20.595 58.0189 20.202 57.6938 19.8769C57.3687 19.5518 56.9757 19.3892 56.5148 19.3892H53.333V24.2376H58.1815V21.0558Z" fill="black"/>
<path d="M67.8719 21.0558V19.3892H64.6901C64.2293 19.3892 63.8362 19.5517 63.5111 19.8769C63.1861 20.202 63.0234 20.595 63.0234 21.0558V22.571C63.0234 23.0318 63.186 23.4248 63.5111 23.7499C63.8363 24.075 64.2293 24.2376 64.6901 24.2376H67.8719V21.0558Z" fill="black"/>
<path d="M72.7264 21.0558C72.7264 20.595 72.5638 20.202 72.2387 19.8769C71.9136 19.5518 71.5206 19.3892 71.0597 19.3892H67.8779V24.2376H72.7264V21.0558Z" fill="black"/>
<path d="M87.2703 19.3916H82.4219V24.2401H87.2703V19.3916Z" fill="black"/>
<path d="M106.661 21.0558V19.3892H103.479C103.018 19.3892 102.625 19.5517 102.3 19.8769C101.975 20.202 101.812 20.595 101.812 21.0558V22.571C101.812 23.0318 101.975 23.4248 102.3 23.7499C102.625 24.075 103.018 24.2376 103.479 24.2376H106.661V21.0558Z" fill="black"/>
<path d="M111.515 19.3916H106.667V24.2401H111.515V19.3916Z" fill="black"/>
<path d="M121.216 19.3916H116.367V24.2401H121.216V19.3916Z" fill="black"/>
<path d="M48.4784 27.4264C48.4784 27.8874 48.3157 28.2803 47.9906 28.6054C47.6656 28.9304 47.2726 29.0931 46.8117 29.0931H45.2965C44.8357 29.0931 44.4427 28.9304 44.1176 28.6054C43.7925 28.2803 43.6299 27.8874 43.6299 27.4264V25.9113C43.6299 25.4505 43.7925 25.0575 44.1176 24.7324C44.4428 24.4072 44.8357 24.2446 45.2965 24.2446H46.8117C47.2727 24.2446 47.6657 24.4072 47.9906 24.7323C48.3157 25.0575 48.4784 25.4505 48.4784 25.9113V27.4264Z" fill="black"/>
<path d="M58.1815 24.2446H53.333V27.4264C53.333 27.8873 53.4956 28.2803 53.8207 28.6054C54.1459 28.9305 54.5388 29.0931 54.9997 29.0931H58.1815V24.2446Z" fill="black"/>
<path d="M63.033 25.9113C63.033 25.4504 62.8704 25.0574 62.5453 24.7323C62.2202 24.4072 61.8272 24.2446 61.3664 24.2446H58.1846V29.0931H63.033V25.9113Z" fill="black"/>
<path d="M72.7264 24.2422H67.8779V29.0907H72.7264V24.2422Z" fill="black"/>
<path d="M75.9054 24.2446H72.7236V29.0931H75.9054C76.3663 29.0931 76.7593 28.9305 77.0844 28.6054C77.4095 28.2803 77.5721 27.8873 77.5721 27.4264V25.9113C77.5721 25.4504 77.4095 25.0574 77.0844 24.7323C76.7593 24.4072 76.3663 24.2446 75.9054 24.2446Z" fill="black"/>
<path d="M87.2684 24.2446H82.4199V27.4264C82.4199 27.8873 82.5825 28.2803 82.9076 28.6054C83.2328 28.9305 83.6257 29.0931 84.0866 29.0931H87.2684V24.2446Z" fill="black"/>
<path d="M92.1248 25.9113C92.1248 25.4504 91.9622 25.0574 91.6371 24.7323C91.312 24.4072 90.919 24.2446 90.4582 24.2446H87.2764V29.0931H92.1248V25.9113Z" fill="black"/>
<path d="M101.823 25.9113C101.823 25.4504 101.66 25.0574 101.335 24.7323C101.01 24.4072 100.617 24.2446 100.156 24.2446H98.6413C98.1804 24.2446 97.7874 24.4072 97.4623 24.7323C97.1372 25.0575 96.9746 25.4504 96.9746 25.9113V27.4264C96.9746 27.4517 96.9778 27.4896 96.9841 27.5401H96.9746V29.0931H101.823V27.5401H101.814C101.82 27.4896 101.823 27.4517 101.823 27.4264V25.9113Z" fill="black"/>
<path d="M111.515 24.2422H106.667V29.0907H111.515V24.2422Z" fill="black"/>
<path d="M121.216 24.2422H116.367V29.0907H121.216V24.2422Z" fill="black"/>
<path d="M43.6356 30.7589C43.6356 30.2981 43.473 29.9051 43.1479 29.58C42.8228 29.2549 42.4298 29.0923 41.9689 29.0923H40.4538C39.9929 29.0923 39.5999 29.2549 39.2748 29.58C38.9497 29.9051 38.7871 30.2981 38.7871 30.7589V32.2741C38.7871 32.2994 38.7903 32.3373 38.7966 32.3877H38.7871V33.9408H43.6356V32.3877H43.6261C43.6325 32.3373 43.6356 32.2994 43.6356 32.2741V30.7589Z" fill="black"/>
<path d="M53.3328 32.2741C53.3328 32.735 53.1702 33.128 52.8451 33.4531C52.5201 33.7781 52.1271 33.9408 51.6662 33.9408H50.151C49.6902 33.9408 49.2972 33.7781 48.9721 33.4531C48.647 33.128 48.4844 32.735 48.4844 32.2741V30.7589C48.4844 30.2981 48.6469 29.9051 48.9721 29.58C49.2973 29.2549 49.6902 29.0923 50.151 29.0923H51.6662C52.1272 29.0923 52.5201 29.2549 52.8451 29.58C53.1702 29.9052 53.3328 30.2981 53.3328 30.7589V32.2741Z" fill="black"/>
<path d="M63.0311 29.0923H58.1826V33.9408H63.0311V29.0923Z" fill="black"/>
<path d="M72.7264 29.0923H67.8779V33.9408H72.7264V29.0923Z" fill="black"/>
<path d="M82.4286 30.7589C82.4286 30.2981 82.2659 29.9051 81.9408 29.58C81.6158 29.2549 81.2227 29.0923 80.7619 29.0923H79.2467C78.7859 29.0923 78.3929 29.2549 78.0678 29.58C77.7427 29.9051 77.5801 30.2981 77.5801 30.7589V32.2741C77.5801 32.2994 77.5832 32.3373 77.5895 32.3877H77.5801V33.9408H82.4286V32.3877H82.4191C82.4255 32.3373 82.4286 32.2994 82.4286 32.2741V30.7589Z" fill="black"/>
<path d="M92.1219 29.0923H87.2734V33.9408H92.1219V29.0923Z" fill="black"/>
<path d="M101.82 29.0923H96.9717V33.9408H101.82V29.0923Z" fill="black"/>
<path d="M111.515 29.0923H106.667V33.9408H111.515V29.0923Z" fill="black"/>
<path d="M121.206 30.6453H121.216V29.0923H116.367V30.6453H116.377C116.37 30.6958 116.367 30.7337 116.367 30.7589V32.2741C116.367 32.7349 116.53 33.128 116.855 33.4531C117.18 33.7781 117.573 33.9408 118.034 33.9408H119.549C120.01 33.9408 120.403 33.7781 120.728 33.4531C121.053 33.128 121.216 32.7349 121.216 32.2741V30.7589C121.216 30.7337 121.213 30.6958 121.206 30.6453Z" fill="black"/>
<path d="M43.6356 33.939H38.7871V38.7874H43.6356V33.939Z" fill="black"/>
<path d="M63.0236 35.492H63.033V33.939H58.1846V35.492H58.194C58.1877 35.5425 58.1846 35.5804 58.1846 35.6056V37.1208C58.1846 37.5816 58.3471 37.9746 58.6723 38.2997C58.9974 38.6248 59.3904 38.7874 59.8512 38.7874H61.3664C61.8272 38.7874 62.2202 38.6248 62.5453 38.2997C62.8704 37.9746 63.033 37.5816 63.033 37.1208V35.6056C63.033 35.5804 63.03 35.5425 63.0236 35.492Z" fill="black"/>
<path d="M72.7264 33.939H67.8779V37.1208C67.8779 37.5816 68.0405 37.9746 68.3656 38.2997C68.6908 38.6248 69.0837 38.7874 69.5446 38.7874H72.7264V33.939Z" fill="black"/>
<path d="M77.5721 33.939H72.7236V38.7874H77.5721V33.939Z" fill="black"/>
<path d="M82.4246 33.939H77.5762V38.7874H82.4246V33.939Z" fill="black"/>
<path d="M92.1154 35.492H92.1248V33.939H87.2764V35.492H87.2858C87.2795 35.5425 87.2764 35.5804 87.2764 35.6056V37.1208C87.2764 37.5816 87.4389 37.9746 87.7641 38.2997C88.0892 38.6248 88.4822 38.7874 88.943 38.7874H90.4582C90.919 38.7874 91.312 38.6248 91.6371 38.2997C91.9622 37.9746 92.1248 37.5816 92.1248 37.1208V35.6056C92.1248 35.5804 92.1218 35.5425 92.1154 35.492Z" fill="black"/>
<path d="M101.82 33.939H96.9717V38.7874H101.82V33.939Z" fill="black"/>
<path d="M111.513 33.939H106.664V37.1208C106.664 37.5816 106.827 37.9746 107.152 38.2997C107.477 38.6248 107.87 38.7874 108.331 38.7874H111.513V33.939Z" fill="black"/>
<path d="M116.361 35.6056C116.361 35.1448 116.199 34.7518 115.873 34.4267C115.548 34.1016 115.155 33.939 114.695 33.939H111.513V38.7874H116.361V35.6056Z" fill="black"/>
<path d="M14.5467 40.4557V38.7891H11.3649C10.9041 38.7891 10.511 38.9516 10.186 39.2768C9.86086 39.6019 9.69824 39.9949 9.69824 40.4557V43.6375H14.5467V40.4557Z" fill="black"/>
<path d="M19.3875 40.4567C19.3875 39.9959 19.2249 39.6028 18.8998 39.2777C18.5747 38.9527 18.1817 38.79 17.7209 38.79H14.5391V43.6385H19.3875V40.4567Z" fill="black"/>
<path d="M33.9393 40.4557V38.7891H30.7575C30.2966 38.7891 29.9036 38.9516 29.5785 39.2768C29.2534 39.6019 29.0908 39.9949 29.0908 40.4557V41.9709C29.0908 42.4317 29.2534 42.8247 29.5785 43.1498C29.9037 43.4749 30.2966 43.6375 30.7575 43.6375H33.9393V40.4557Z" fill="black"/>
<path d="M38.7889 38.7881H33.9404V43.6366H38.7889V38.7881Z" fill="black"/>
<path d="M43.6356 38.7881H38.7871V43.6366H43.6356V38.7881Z" fill="black"/>
<path d="M48.4813 38.7881H43.6328V43.6366H48.4813V38.7881Z" fill="black"/>
<path d="M53.3328 40.4557C53.3328 39.9949 53.1702 39.6019 52.8451 39.2768C52.5201 38.9517 52.127 38.7891 51.6662 38.7891H48.4844V43.6375H53.3328V40.4557Z" fill="black"/>
<path d="M77.5721 38.79H72.7236V41.9719C72.7236 42.4327 72.8862 42.8257 73.2113 43.1508C73.5365 43.4759 73.9294 43.6385 74.3903 43.6385H77.5721V38.79Z" fill="black"/>
<path d="M82.4286 38.79H77.5801V43.6385H80.7619C81.2227 43.6385 81.6158 43.4759 81.9408 43.1508C82.2659 42.8257 82.4286 42.4327 82.4286 41.9719V38.79Z" fill="black"/>
<path d="M101.82 38.7881H96.9717V43.6366H101.82V38.7881Z" fill="black"/>
<path d="M104.994 38.79H101.812V43.6385H104.994C105.455 43.6385 105.848 43.4759 106.173 43.1508C106.498 42.8257 106.661 42.4327 106.661 41.9719V40.4567C106.661 39.9959 106.498 39.6028 106.173 39.2777C105.848 38.9527 105.455 38.79 104.994 38.79Z" fill="black"/>
<path d="M116.361 38.7881H111.513V43.6366H116.361V38.7881Z" fill="black"/>
<path d="M126.059 40.4567V38.79H122.878C122.417 38.79 122.024 38.9526 121.699 39.2777C121.374 39.6029 121.211 39.9959 121.211 40.4567V43.6385H126.059V40.4567Z" fill="black"/>
<path d="M130.905 40.4567C130.905 39.9959 130.742 39.6028 130.417 39.2777C130.092 38.9527 129.699 38.79 129.238 38.79H126.057V43.6385H130.905V40.4567Z" fill="black"/>
<path d="M140.606 41.9719C140.606 42.4328 140.444 42.8257 140.119 43.1508C139.793 43.4758 139.401 43.6385 138.94 43.6385H137.424C136.964 43.6385 136.571 43.4758 136.246 43.1508C135.92 42.8257 135.758 42.4328 135.758 41.9719V40.4567C135.758 39.9959 135.92 39.6029 136.246 39.2778C136.571 38.9527 136.964 38.79 137.424 38.79H138.94C139.401 38.79 139.794 38.9526 140.119 39.2777C140.444 39.6029 140.606 39.9959 140.606 40.4567V41.9719Z" fill="black"/>
<path d="M9.69418 45.3048V43.6382H6.51237C6.05152 43.6382 5.6585 43.8008 5.33341 44.1259C5.00832 44.451 4.8457 44.844 4.8457 45.3048V48.4867H9.69418V45.3048Z" fill="black"/>
<path d="M14.5467 43.6367H9.69824V48.4852H14.5467V43.6367Z" fill="black"/>
<path d="M19.3875 43.6382H14.5391V48.4867H17.7209C18.1817 48.4867 18.5747 48.324 18.8998 47.999C19.2249 47.6739 19.3875 47.2808 19.3875 46.82V43.6382Z" fill="black"/>
<path d="M38.7889 43.6367H33.9404V48.4852H38.7889V43.6367Z" fill="black"/>
<path d="M43.6356 43.6367H38.7871V48.4852H43.6356V43.6367Z" fill="black"/>
<path d="M48.4813 43.6367H43.6328V48.4852H48.4813V43.6367Z" fill="black"/>
<path d="M53.3328 43.6367H48.4844V48.4852H53.3328V43.6367Z" fill="black"/>
<path d="M72.7264 45.3034C72.7264 44.8425 72.5638 44.4495 72.2387 44.1244C71.9136 43.7993 71.5206 43.6367 71.0597 43.6367H69.5446C69.0837 43.6367 68.6907 43.7993 68.3656 44.1244C68.0405 44.4496 67.8779 44.8425 67.8779 45.3034V46.8185C67.8779 46.8438 67.8811 46.8817 67.8874 46.9322H67.8779V48.4852H72.7264V46.9322H72.717C72.7234 46.8817 72.7264 46.8438 72.7264 46.8185V45.3034Z" fill="black"/>
<path d="M87.2684 45.3048V43.6382H84.0866C83.6257 43.6382 83.2327 43.8008 82.9076 44.1259C82.5825 44.451 82.4199 44.844 82.4199 45.3048V48.4867H87.2684V45.3048Z" fill="black"/>
<path d="M92.1219 43.6367H87.2734V48.4852H92.1219V43.6367Z" fill="black"/>
<path d="M96.9686 43.6367H92.1201V48.4852H96.9686V43.6367Z" fill="black"/>
<path d="M101.82 43.6367H96.9717V48.4852H101.82V43.6367Z" fill="black"/>
<path d="M116.361 43.6367H111.513V48.4852H116.361V43.6367Z" fill="black"/>
<path d="M126.059 43.6367H121.211V48.4852H126.059V43.6367Z" fill="black"/>
<path d="M130.905 43.6382H126.057V48.4867H129.238C129.699 48.4867 130.092 48.324 130.417 47.999C130.742 47.6739 130.905 47.2808 130.905 46.82V43.6382Z" fill="black"/>
<path d="M150.306 45.3048V43.6382H147.125C146.664 43.6382 146.271 43.8008 145.946 44.1259C145.621 44.451 145.458 44.844 145.458 45.3048V48.4867H150.306V45.3048Z" fill="black"/>
<path d="M155.148 43.6367H150.3V48.4852H155.148V43.6367Z" fill="black"/>
<path d="M160 45.3048C160 44.844 159.837 44.451 159.512 44.1259C159.187 43.8008 158.794 43.6382 158.333 43.6382H155.151V48.4867H160V45.3048Z" fill="black"/>
<path d="M4.84847 50.1496V48.4829H1.66666C1.20582 48.4829 0.812798 48.6455 0.487708 48.9706C0.162618 49.2958 0 49.6887 0 50.1496V53.3314H4.84847V50.1496Z" fill="black"/>
<path d="M9.69808 48.4844H4.84961V53.3328H9.69808V48.4844Z" fill="black"/>
<path d="M14.5467 48.4829H9.69824V53.3314H14.5467V48.4829Z" fill="black"/>
<path d="M24.2411 50.1496V48.4829H21.0592C20.5984 48.4829 20.2054 48.6455 19.8803 48.9706C19.5552 49.2958 19.3926 49.6887 19.3926 50.1496V53.3314H24.2411V50.1496Z" fill="black"/>
<path d="M29.0907 48.4844H24.2422V53.3328H29.0907V48.4844Z" fill="black"/>
<path d="M33.9393 48.4829H29.0908V53.3314H33.9393V48.4829Z" fill="black"/>
<path d="M38.7889 48.4844H33.9404V53.3328H38.7889V48.4844Z" fill="black"/>
<path d="M43.6356 48.4829H38.7871V53.3314H43.6356V48.4829Z" fill="black"/>
<path d="M53.3234 50.0359H53.3328V48.4829H48.4844V50.0359H48.4938C48.4875 50.0864 48.4844 50.1243 48.4844 50.1496V51.6647C48.4844 52.1256 48.6469 52.5186 48.9721 52.8437C49.2972 53.1688 49.6902 53.3314 50.151 53.3314H51.6662C52.127 53.3314 52.5201 53.1688 52.8451 52.8437C53.1702 52.5186 53.3328 52.1256 53.3328 51.6647V50.1496C53.3328 50.1243 53.3298 50.0864 53.3234 50.0359Z" fill="black"/>
<path d="M67.8719 50.151V48.4844H64.6901C64.2293 48.4844 63.8362 48.6469 63.5111 48.9721C63.1861 49.2972 63.0234 49.6902 63.0234 50.151V51.6662C63.0234 52.127 63.186 52.5201 63.5111 52.8451C63.8363 53.1702 64.2293 53.3328 64.6901 53.3328H67.8719V50.151Z" fill="black"/>
<path d="M72.7264 48.4829H67.8779V53.3314H72.7264V48.4829Z" fill="black"/>
<path d="M75.9054 48.4844H72.7236V53.3328H75.9054C76.3663 53.3328 76.7593 53.1702 77.0844 52.8451C77.4095 52.5201 77.5721 52.127 77.5721 51.6662V50.151C77.5721 49.6902 77.4095 49.2972 77.0844 48.9721C76.7593 48.647 76.3663 48.4844 75.9054 48.4844Z" fill="black"/>
<path d="M87.2589 50.0374H87.2684V48.4844H82.4199V50.0374H82.4294C82.4231 50.0879 82.4199 50.1258 82.4199 50.151V51.6662C82.4199 52.127 82.5825 52.5201 82.9076 52.8451C83.2328 53.1702 83.6257 53.3328 84.0866 53.3328H85.6017C86.0626 53.3328 86.4556 53.1702 86.7807 52.8451C87.1058 52.5201 87.2684 52.127 87.2684 51.6662V50.151C87.2684 50.1258 87.2653 50.0879 87.2589 50.0374Z" fill="black"/>
<path d="M101.823 48.4844H96.9746V51.6662C96.9746 52.127 97.1372 52.5201 97.4623 52.8451C97.7875 53.1702 98.1804 53.3328 98.6413 53.3328H101.823V48.4844Z" fill="black"/>
<path d="M106.664 48.4844H101.815V53.3328H106.664V48.4844Z" fill="black"/>
<path d="M111.515 48.4844H106.667V53.3328H111.515V48.4844Z" fill="black"/>
<path d="M116.361 48.4844H111.513V53.3328H116.361V48.4844Z" fill="black"/>
<path d="M121.216 48.4844H116.367V53.3328H121.216V48.4844Z" fill="black"/>
<path d="M126.059 48.4844H121.211V53.3328H126.059V48.4844Z" fill="black"/>
<path d="M145.452 50.151V48.4844H142.27C141.809 48.4844 141.416 48.6469 141.091 48.9721C140.766 49.2972 140.604 49.6902 140.604 50.151V53.3328H145.452V50.151Z" fill="black"/>
<path d="M150.306 48.4844H145.458V53.3328H150.306V48.4844Z" fill="black"/>
<path d="M155.148 48.4844H150.3V53.3328H155.148V48.4844Z" fill="black"/>
<path d="M160 48.4844H155.151V53.3328H160V48.4844Z" fill="black"/>
<path d="M4.84847 53.3315H0V58.18H4.84847V53.3315Z" fill="black"/>
<path d="M14.5467 53.3315H9.69824V58.18H14.5467V53.3315Z" fill="black"/>
<path d="M19.3905 53.3335H14.542V58.182H19.3905V53.3335Z" fill="black"/>
<path d="M24.2411 53.3335H19.3926V58.182H22.5744C23.0352 58.182 23.4283 58.0194 23.7533 57.6943C24.0784 57.3692 24.2411 56.9762 24.2411 56.5153V53.3335Z" fill="black"/>
<path d="M43.6261 54.8865H43.6356V53.3335H38.7871V54.8865H38.7966C38.7903 54.937 38.7871 54.9749 38.7871 55.0002V56.5153C38.7871 56.9762 38.9497 57.3692 39.2748 57.6943C39.6 58.0194 39.9929 58.182 40.4538 58.182H41.9689C42.4298 58.182 42.8228 58.0194 43.1479 57.6943C43.473 57.3692 43.6356 56.9762 43.6356 56.5153V55.0002C43.6356 54.9749 43.6325 54.937 43.6261 54.8865Z" fill="black"/>
<path d="M116.361 53.3335H111.513V58.182H116.361V53.3335Z" fill="black"/>
<path d="M121.216 53.3335H116.367V58.182H121.216V53.3335Z" fill="black"/>
<path d="M126.059 53.3335H121.211V58.182H126.059V53.3335Z" fill="black"/>
<path d="M130.909 53.3335H126.061V58.182H130.909V53.3335Z" fill="black"/>
<path d="M135.755 53.3335H130.906V58.182H135.755V53.3335Z" fill="black"/>
<path d="M140.606 53.3335H135.758V58.182H140.606V53.3335Z" fill="black"/>
<path d="M145.452 53.335H140.604V58.1834H143.785C144.246 58.1834 144.639 58.0208 144.964 57.6957C145.289 57.3706 145.452 56.9776 145.452 56.5168V53.335Z" fill="black"/>
<path d="M159.99 54.888H160V53.335H155.151V54.888H155.161C155.155 54.9385 155.151 54.9764 155.151 55.0016V56.5168C155.151 56.9776 155.314 57.3706 155.639 57.6957C155.964 58.0208 156.357 58.1834 156.818 58.1834H158.333C158.794 58.1834 159.187 58.0208 159.512 57.6957C159.837 57.3706 160 56.9776 160 56.5168V55.0016C160 54.9764 159.997 54.9385 159.99 54.888Z" fill="black"/>
<path d="M4.84847 58.1792H0V63.0277H4.84847V58.1792Z" fill="black"/>
<path d="M14.5467 58.1792H9.69824V63.0277H14.5467V58.1792Z" fill="black"/>
<path d="M29.0887 59.8459V58.1792H25.9069C25.4461 58.1792 25.053 58.3418 24.7279 58.6669C24.4029 58.992 24.2402 59.385 24.2402 59.8459V63.0277H29.0887V59.8459Z" fill="black"/>
<path d="M32.2726 58.1787H29.0908V63.0272H32.2726C32.7335 63.0272 33.1265 62.8646 33.4516 62.5395C33.7767 62.2144 33.9393 61.8214 33.9393 61.3605V59.8454C33.9393 59.3845 33.7767 58.9915 33.4516 58.6664C33.1265 58.3413 32.7335 58.1787 32.2726 58.1787Z" fill="black"/>
<path d="M48.4784 59.8459C48.4784 59.385 48.3157 58.992 47.9906 58.6669C47.6656 58.3418 47.2725 58.1792 46.8117 58.1792H45.2965C44.8357 58.1792 44.4427 58.3418 44.1176 58.6669C43.7925 58.992 43.6299 59.385 43.6299 59.8459V61.361C43.6299 61.3863 43.633 61.4242 43.6393 61.4747H43.6299V63.0277H48.4784V61.4747H48.4689C48.4753 61.4242 48.4784 61.3863 48.4784 61.361V59.8459Z" fill="black"/>
<path d="M111.513 59.8459V58.1792H108.331C107.87 58.1792 107.477 58.3418 107.152 58.6669C106.827 58.992 106.664 59.385 106.664 59.8459V61.361C106.664 61.8219 106.827 62.2149 107.152 62.54C107.477 62.8651 107.87 63.0277 108.331 63.0277H111.513V59.8459Z" fill="black"/>
<path d="M116.361 58.1792H111.513V63.0277H114.695C115.155 63.0277 115.548 62.8651 115.873 62.54C116.199 62.2149 116.361 61.8219 116.361 61.361V58.1792Z" fill="black"/>
<path d="M126.059 58.1807H121.211V63.0291H126.059V58.1807Z" fill="black"/>
<path d="M135.755 58.1807H130.906V63.0291H135.755V58.1807Z" fill="black"/>
<path d="M140.606 58.1792H135.758V63.0277H138.94C139.4 63.0277 139.793 62.8651 140.119 62.54C140.444 62.2149 140.606 61.8219 140.606 61.361V58.1792Z" fill="black"/>
<path d="M155.148 61.361C155.148 61.822 154.986 62.2149 154.661 62.54C154.335 62.865 153.943 63.0277 153.482 63.0277H151.966C151.506 63.0277 151.113 62.865 150.788 62.54C150.462 62.2149 150.3 61.822 150.3 61.361V59.8459C150.3 59.3851 150.462 58.992 150.788 58.667C151.113 58.3418 151.506 58.1792 151.966 58.1792H153.482C153.943 58.1792 154.336 58.3418 154.661 58.6669C154.986 58.9921 155.148 59.3851 155.148 59.8459V61.361Z" fill="black"/>
<path d="M4.84847 63.0303H0V66.2121C0 66.6729 0.162569 67.066 0.487708 67.391C0.812847 67.7161 1.20582 67.8787 1.66666 67.8787H4.84847V63.0303Z" fill="black"/>
<path d="M9.69808 63.0317H4.84961V67.8802H9.69808V63.0317Z" fill="black"/>
<path d="M14.5467 63.0303H9.69824V67.8787H12.8801C13.3409 67.8787 13.7339 67.7161 14.059 67.391C14.3841 67.066 14.5467 66.6729 14.5467 66.2121V63.0303Z" fill="black"/>
<path d="M29.0907 63.0317H24.2422V67.8802H29.0907V63.0317Z" fill="black"/>
<path d="M48.4813 63.0317H43.6328V67.8802H48.4813V63.0317Z" fill="black"/>
<path d="M51.6662 63.0303H48.4844V67.8787H51.6662C52.127 67.8787 52.5201 67.7161 52.8451 67.391C53.1702 67.066 53.3328 66.6729 53.3328 66.2121V64.6969C53.3328 64.2361 53.1702 63.8431 52.8451 63.518C52.5201 63.1929 52.127 63.0303 51.6662 63.0303Z" fill="black"/>
<path d="M121.216 64.6984V63.0317H118.034C117.573 63.0317 117.18 63.1943 116.855 63.5194C116.53 63.8446 116.367 64.2376 116.367 64.6984V67.8802H121.216V64.6984Z" fill="black"/>
<path d="M126.059 63.0317H121.211V67.8802H126.059V63.0317Z" fill="black"/>
<path d="M135.755 63.0317H130.906V67.8802H135.755V63.0317Z" fill="black"/>
<path d="M19.3875 69.5461V67.8794H16.2057C15.7449 67.8794 15.3519 68.042 15.0268 68.3671C14.7017 68.6922 14.5391 69.0852 14.5391 69.5461V71.0612C14.5391 71.5221 14.7016 71.9151 15.0268 72.2402C15.3519 72.5653 15.7449 72.7279 16.2057 72.7279H19.3875V69.5461Z" fill="black"/>
<path d="M24.2411 67.8774H19.3926V72.7259H24.2411V67.8774Z" fill="black"/>
<path d="M29.0907 67.8794H24.2422V72.7279H29.0907V67.8794Z" fill="black"/>
<path d="M32.2726 67.8774H29.0908V72.7259H32.2726C32.7335 72.7259 33.1265 72.5633 33.4516 72.2382C33.7767 71.9131 33.9393 71.5201 33.9393 71.0593V69.5441C33.9393 69.0833 33.7767 68.6902 33.4516 68.3651C33.1265 68.0401 32.7335 67.8774 32.2726 67.8774Z" fill="black"/>
<path d="M43.6356 69.5441V67.8774H40.4538C39.9929 67.8774 39.5999 68.04 39.2748 68.3651C38.9497 68.6903 38.7871 69.0833 38.7871 69.5441V72.7259H43.6356V69.5441Z" fill="black"/>
<path d="M48.4784 67.8794H43.6299V72.7279H46.8117C47.2725 72.7279 47.6656 72.5653 47.9906 72.2402C48.3157 71.9151 48.4784 71.5221 48.4784 71.0612V67.8794Z" fill="black"/>
<path d="M121.216 67.8794H116.367V71.0612C116.367 71.5221 116.53 71.9151 116.855 72.2402C117.18 72.5653 117.573 72.7279 118.034 72.7279H121.216V67.8794Z" fill="black"/>
<path d="M126.059 67.8794H121.211V72.7279H124.393C124.854 72.7279 125.247 72.5653 125.572 72.2402C125.897 71.9151 126.059 71.5221 126.059 71.0612V67.8794Z" fill="black"/>
<path d="M135.755 67.8794H130.906V71.0612C130.906 71.5221 131.069 71.9151 131.394 72.2402C131.719 72.5653 132.112 72.7279 132.573 72.7279H135.755V67.8794Z" fill="black"/>
<path d="M138.94 67.8794H135.758V72.7279H138.94C139.4 72.7279 139.793 72.5653 140.119 72.2402C140.444 71.9151 140.606 71.5221 140.606 71.0612V69.5461C140.606 69.0852 140.444 68.6922 140.119 68.3671C139.793 68.042 139.4 67.8794 138.94 67.8794Z" fill="black"/>
<path d="M24.2411 72.7295H19.3926V77.578H24.2411V72.7295Z" fill="black"/>
<path d="M29.0887 72.7324H24.2402V77.5809H27.422C27.8829 77.5809 28.2759 77.4183 28.601 77.0932C28.9261 76.7681 29.0887 76.3751 29.0887 75.9142V72.7324Z" fill="black"/>
<path d="M43.6261 74.2835H43.6356V72.7305H38.7871V74.2835H38.7966C38.7903 74.334 38.7871 74.3719 38.7871 74.3971V75.9123C38.7871 76.3731 38.9497 76.7661 39.2748 77.0912C39.6 77.4163 39.9929 77.5789 40.4538 77.5789H41.9689C42.4298 77.5789 42.8228 77.4163 43.1479 77.0912C43.473 76.7661 43.6356 76.3731 43.6356 75.9123V74.3971C43.6356 74.3719 43.6325 74.334 43.6261 74.2835Z" fill="black"/>
<path d="M53.3328 74.3971C53.3328 73.9363 53.1702 73.5433 52.8451 73.2182C52.5201 72.8931 52.127 72.7305 51.6662 72.7305H50.151C49.6902 72.7305 49.2972 72.893 48.9721 73.2182C48.647 73.5433 48.4844 73.9363 48.4844 74.3971V75.9123C48.4844 75.9375 48.4875 75.9755 48.4938 76.0259H48.4844V77.5789H53.3328V76.0259H53.3234C53.3298 75.9755 53.3328 75.9376 53.3328 75.9123V74.3971Z" fill="black"/>
<path d="M111.513 75.9142C111.513 76.3752 111.35 76.7681 111.025 77.0932C110.7 77.4182 110.307 77.5809 109.846 77.5809H108.331C107.87 77.5809 107.477 77.4182 107.152 77.0932C106.827 76.7681 106.664 76.3752 106.664 75.9142V74.3991C106.664 73.9383 106.827 73.5453 107.152 73.2202C107.477 72.895 107.87 72.7324 108.331 72.7324H109.846C110.307 72.7324 110.7 72.895 111.025 73.2201C111.35 73.5453 111.513 73.9383 111.513 74.3991V75.9142Z" fill="black"/>
<path d="M130.905 74.3991C130.905 73.9382 130.742 73.5452 130.417 73.2201C130.092 72.895 129.699 72.7324 129.238 72.7324H127.723C127.262 72.7324 126.869 72.895 126.544 73.2201C126.219 73.5453 126.057 73.9382 126.057 74.3991V75.9142C126.057 75.9395 126.06 75.9774 126.066 76.0279H126.057V77.5809H130.905V76.0279H130.896C130.902 75.9774 130.905 75.9395 130.905 75.9142V74.3991Z" fill="black"/>
<path d="M145.452 74.3991V72.7324H142.27C141.809 72.7324 141.416 72.895 141.091 73.2201C140.766 73.5453 140.604 73.9382 140.604 74.3991V75.9142C140.604 76.3751 140.766 76.7681 141.091 77.0932C141.416 77.4183 141.809 77.5809 142.27 77.5809H145.452V74.3991Z" fill="black"/>
<path d="M150.306 74.3991C150.306 73.9382 150.144 73.5452 149.819 73.2201C149.494 72.895 149.101 72.7324 148.64 72.7324H145.458V77.5809H150.306V74.3991Z" fill="black"/>
<path d="M160 74.3991C160 73.9382 159.837 73.5452 159.512 73.2201C159.187 72.895 158.794 72.7324 158.333 72.7324H156.818C156.357 72.7324 155.964 72.895 155.639 73.2201C155.314 73.5453 155.151 73.9382 155.151 74.3991V75.9142C155.151 75.9395 155.155 75.9774 155.161 76.0279H155.151V77.5809H160V76.0279H159.99C159.997 75.9774 160 75.9395 160 75.9142V74.3991Z" fill="black"/>
<path d="M4.84847 79.2419V77.5752H1.66666C1.20582 77.5752 0.812798 77.7378 0.487708 78.0629C0.162618 78.388 0 78.781 0 79.2419V80.757C0 81.2179 0.162569 81.6109 0.487708 81.936C0.812847 82.2611 1.20582 82.4237 1.66666 82.4237H4.84847V79.2419Z" fill="black"/>
<path d="M9.69808 77.5752H4.84961V82.4237H9.69808V77.5752Z" fill="black"/>
<path d="M14.5467 77.5752H9.69824V82.4237H14.5467V77.5752Z" fill="black"/>
<path d="M19.3905 77.5752H14.542V82.4237H19.3905V77.5752Z" fill="black"/>
<path d="M24.2411 77.5752H19.3926V82.4237H24.2411V77.5752Z" fill="black"/>
<path d="M33.9393 79.2419V77.5752H30.7575C30.2966 77.5752 29.9036 77.7378 29.5785 78.0629C29.2534 78.388 29.0908 78.781 29.0908 79.2419V80.757C29.0908 81.2179 29.2534 81.6109 29.5785 81.936C29.9037 82.2611 30.2966 82.4237 30.7575 82.4237H33.9393V79.2419Z" fill="black"/>
<path d="M37.1222 77.5752H33.9404V82.4237H37.1222C37.5831 82.4237 37.9761 82.2611 38.3012 81.936C38.6263 81.6109 38.7889 81.2179 38.7889 80.757V79.2419C38.7889 78.781 38.6263 78.388 38.3012 78.0629C37.9761 77.7378 37.5831 77.5752 37.1222 77.5752Z" fill="black"/>
<path d="M53.3328 77.5752H48.4844V82.4237H53.3328V77.5752Z" fill="black"/>
<path d="M116.361 79.2419V77.5752H113.179C112.719 77.5752 112.325 77.7378 112 78.0629C111.675 78.388 111.513 78.781 111.513 79.2419V82.4237H116.361V79.2419Z" fill="black"/>
<path d="M121.216 77.5752H116.367V82.4237H121.216V77.5752Z" fill="black"/>
<path d="M126.059 77.5752H121.211V82.4237H126.059V77.5752Z" fill="black"/>
<path d="M130.909 77.5752H126.061V82.4237H130.909V77.5752Z" fill="black"/>
<path d="M135.755 77.5752H130.906V82.4237H135.755V77.5752Z" fill="black"/>
<path d="M140.606 79.2419C140.606 78.781 140.444 78.388 140.119 78.0629C139.793 77.7378 139.4 77.5752 138.94 77.5752H135.758V82.4237H140.606V79.2419Z" fill="black"/>
<path d="M150.306 77.5752H145.458V82.4237H150.306V77.5752Z" fill="black"/>
<path d="M160 77.5752H155.151V82.4237H160V77.5752Z" fill="black"/>
<path d="M14.5467 82.4263H9.69824V87.2747H14.5467V82.4263Z" fill="black"/>
<path d="M24.2411 82.4263H19.3926V87.2747H24.2411V82.4263Z" fill="black"/>
<path d="M48.4784 84.0929V82.4263H45.2965C44.8357 82.4263 44.4427 82.5888 44.1176 82.914C43.7925 83.2391 43.6299 83.6321 43.6299 84.0929V85.6081C43.6299 86.0689 43.7925 86.4619 44.1176 86.787C44.4427 87.1121 44.8357 87.2747 45.2965 87.2747H48.4784V84.0929Z" fill="black"/>
<path d="M53.3328 82.4263H48.4844V87.2747H53.3328V82.4263Z" fill="black"/>
<path d="M111.513 84.0929V82.4263H108.331C107.87 82.4263 107.477 82.5888 107.152 82.914C106.827 83.2391 106.664 83.6321 106.664 84.0929V87.2747H111.513V84.0929Z" fill="black"/>
<path d="M116.361 82.4263H111.513V87.2747H114.695C115.155 87.2747 115.548 87.1121 115.873 86.787C116.199 86.4619 116.361 86.0689 116.361 85.6081V82.4263Z" fill="black"/>
<path d="M130.905 82.4263H126.057V85.6081C126.057 86.0689 126.219 86.4619 126.544 86.787C126.869 87.1121 127.262 87.2747 127.723 87.2747H130.905V82.4263Z" fill="black"/>
<path d="M135.755 82.4263H130.906V87.2747H135.755V82.4263Z" fill="black"/>
<path d="M140.606 82.4263H135.758V87.2747H140.606V82.4263Z" fill="black"/>
<path d="M150.306 82.4263H145.458V87.2747H150.306V82.4263Z" fill="black"/>
<path d="M159.99 83.9793H160V82.4263H155.151V83.9793H155.161C155.155 84.0298 155.151 84.0677 155.151 84.0929V85.6081C155.151 86.0689 155.314 86.4619 155.639 86.787C155.964 87.1121 156.357 87.2747 156.818 87.2747H158.333C158.794 87.2747 159.187 87.1121 159.512 86.787C159.837 86.4619 160 86.0689 160 85.6081V84.0929C160 84.0677 159.997 84.0298 159.99 83.9793Z" fill="black"/>
<path d="M9.69418 88.9362V87.2695H6.51237C6.05152 87.2695 5.6585 87.4321 5.33341 87.7572C5.00832 88.0824 4.8457 88.4753 4.8457 88.9362V90.4513C4.8457 90.9122 5.00827 91.3052 5.33341 91.6303C5.65855 91.9554 6.05152 92.118 6.51237 92.118H9.69418V88.9362Z" fill="black"/>
<path d="M14.5467 87.2695H9.69824V92.118H12.8801C13.3409 92.118 13.7339 91.9554 14.059 91.6303C14.3841 91.3052 14.5467 90.9122 14.5467 90.4513V87.2695Z" fill="black"/>
<path d="M24.2411 87.2695H19.3926V90.4513C19.3926 90.9122 19.5551 91.3052 19.8803 91.6303C20.2054 91.9554 20.5984 92.118 21.0592 92.118H24.2411V87.2695Z" fill="black"/>
<path d="M29.0907 87.272H24.2422V92.1204H29.0907V87.272Z" fill="black"/>
<path d="M32.2726 87.2695H29.0908V92.118H32.2726C32.7335 92.118 33.1265 91.9554 33.4516 91.6303C33.7767 91.3052 33.9393 90.9122 33.9393 90.4513V88.9362C33.9393 88.4753 33.7767 88.0823 33.4516 87.7572C33.1265 87.4321 32.7335 87.2695 32.2726 87.2695Z" fill="black"/>
<path d="M53.3234 88.8225H53.3328V87.2695H48.4844V88.8225H48.4938C48.4875 88.8731 48.4844 88.9109 48.4844 88.9362V90.4513C48.4844 90.9122 48.6469 91.3052 48.9721 91.6303C49.2972 91.9554 49.6902 92.118 50.151 92.118H51.6662C52.127 92.118 52.5201 91.9554 52.8451 91.6303C53.1702 91.3052 53.3328 90.9122 53.3328 90.4513V88.9362C53.3328 88.9109 53.3298 88.8731 53.3234 88.8225Z" fill="black"/>
<path d="M111.503 88.8225H111.513V87.2695H106.664V88.8225H106.674C106.667 88.8731 106.664 88.9109 106.664 88.9362V90.4513C106.664 90.9122 106.827 91.3052 107.152 91.6303C107.477 91.9554 107.87 92.118 108.331 92.118H109.846C110.307 92.118 110.7 91.9554 111.025 91.6303C111.35 91.3052 111.513 90.9122 111.513 90.4513V88.9362C111.513 88.9109 111.509 88.8731 111.503 88.8225Z" fill="black"/>
<path d="M135.755 87.272H130.906V92.1204H135.755V87.272Z" fill="black"/>
<path d="M140.606 87.272H135.758V92.1204H140.606V87.272Z" fill="black"/>
<path d="M150.306 87.2695H145.458V90.4513C145.458 90.9122 145.621 91.3052 145.946 91.6303C146.271 91.9554 146.664 92.118 147.125 92.118H150.306V87.2695Z" fill="black"/>
<path d="M155.148 88.9362C155.148 88.4753 154.986 88.0823 154.661 87.7572C154.335 87.4321 153.942 87.2695 153.482 87.2695H150.3V92.118H155.148V88.9362Z" fill="black"/>
<path d="M43.6356 93.7897V92.123H40.4538C39.9929 92.123 39.5999 92.2856 39.2748 92.6108C38.9497 92.9359 38.7871 93.3289 38.7871 93.7897V96.9715H43.6356V93.7897Z" fill="black"/>
<path d="M48.4784 93.7897C48.4784 93.3289 48.3157 92.9358 47.9906 92.6108C47.6656 92.2857 47.2725 92.123 46.8117 92.123H43.6299V96.9715H48.4784V93.7897Z" fill="black"/>
<path d="M126.059 95.3049C126.059 95.7658 125.897 96.1587 125.572 96.4838C125.247 96.8089 124.854 96.9715 124.393 96.9715H122.878C122.417 96.9715 122.024 96.8089 121.699 96.4838C121.374 96.1587 121.211 95.7658 121.211 95.3049V93.7897C121.211 93.3289 121.374 92.9359 121.699 92.6108C122.024 92.2857 122.417 92.123 122.878 92.123H124.393C124.854 92.123 125.247 92.2856 125.572 92.6108C125.897 92.9359 126.059 93.3289 126.059 93.7897V95.3049Z" fill="black"/>
<path d="M135.755 92.123H130.906V95.3049C130.906 95.7657 131.069 96.1587 131.394 96.4838C131.719 96.8089 132.112 96.9715 132.573 96.9715H135.755V92.123Z" fill="black"/>
<path d="M140.606 92.123H135.758V96.9715H138.94C139.4 96.9715 139.793 96.8089 140.119 96.4838C140.444 96.1587 140.606 95.7657 140.606 95.3049V92.123Z" fill="black"/>
<path d="M155.148 92.123H150.3V96.9715H155.148V92.123Z" fill="black"/>
<path d="M19.3875 98.6374V96.9707H16.2057C15.7449 96.9707 15.3519 97.1333 15.0268 97.4584C14.7017 97.7835 14.5391 98.1765 14.5391 98.6374V101.819H19.3875V98.6374Z" fill="black"/>
<path d="M24.2411 98.6374C24.2411 98.1765 24.0784 97.7835 23.7533 97.4584C23.4283 97.1333 23.0352 96.9707 22.5744 96.9707H19.3926V101.819H24.2411V98.6374Z" fill="black"/>
<path d="M33.9393 100.153C33.9393 100.613 33.7766 101.006 33.4516 101.331C33.1265 101.657 32.7336 101.819 32.2726 101.819H30.7575C30.2967 101.819 29.9037 101.657 29.5786 101.331C29.2534 101.006 29.0908 100.613 29.0908 100.153V98.6374C29.0908 98.1766 29.2534 97.7835 29.5785 97.4585C29.9037 97.1333 30.2967 96.9707 30.7575 96.9707H32.2726C32.7336 96.9707 33.1266 97.1333 33.4516 97.4584C33.7767 97.7836 33.9393 98.1766 33.9393 98.6374V100.153Z" fill="black"/>
<path d="M43.6356 96.9707H38.7871V100.153C38.7871 100.613 38.9497 101.006 39.2748 101.331C39.6 101.657 39.9929 101.819 40.4538 101.819H43.6356V96.9707Z" fill="black"/>
<path d="M48.4813 96.9707H43.6328V101.819H48.4813V96.9707Z" fill="black"/>
<path d="M53.3328 98.6374C53.3328 98.1765 53.1702 97.7835 52.8451 97.4584C52.5201 97.1333 52.127 96.9707 51.6662 96.9707H48.4844V101.819H53.3328V98.6374Z" fill="black"/>
<path d="M145.452 98.6374V96.9707H142.27C141.809 96.9707 141.416 97.1333 141.091 97.4584C140.766 97.7835 140.604 98.1765 140.604 98.6374V101.819H145.452V98.6374Z" fill="black"/>
<path d="M150.306 96.9707H145.458V101.819H150.306V96.9707Z" fill="black"/>
<path d="M155.148 96.9707H150.3V101.819H155.148V96.9707Z" fill="black"/>
<path d="M4.84847 103.488V101.822H1.66666C1.20582 101.822 0.812798 101.984 0.487708 102.309C0.162618 102.635 0 103.028 0 103.488V105.004C0 105.464 0.162569 105.857 0.487708 106.183C0.812847 106.508 1.20582 106.67 1.66666 106.67H4.84847V103.488Z" fill="black"/>
<path d="M9.69808 101.821H4.84961V106.669H9.69808V101.821Z" fill="black"/>
<path d="M14.5467 101.821H9.69824V106.669H14.5467V101.821Z" fill="black"/>
<path d="M19.3905 101.821H14.542V106.669H19.3905V101.821Z" fill="black"/>
<path d="M24.2411 101.821H19.3926V106.669H24.2411V101.821Z" fill="black"/>
<path d="M29.0887 103.488C29.0887 103.028 28.9261 102.635 28.601 102.309C28.2759 101.984 27.8829 101.822 27.422 101.822H24.2402V106.67H29.0887V103.488Z" fill="black"/>
<path d="M53.3234 103.375H53.3328V101.822H48.4844V103.375H48.4938C48.4875 103.425 48.4844 103.463 48.4844 103.488V105.004C48.4844 105.464 48.6469 105.857 48.9721 106.183C49.2972 106.508 49.6902 106.67 50.151 106.67H51.6662C52.127 106.67 52.5201 106.508 52.8451 106.183C53.1702 105.857 53.3328 105.464 53.3328 105.004V103.488C53.3328 103.463 53.3298 103.425 53.3234 103.375Z" fill="black"/>
<path d="M116.361 103.488C116.361 103.028 116.199 102.635 115.873 102.309C115.548 101.984 115.155 101.822 114.695 101.822H113.179C112.719 101.822 112.325 101.984 112 102.309C111.675 102.635 111.513 103.028 111.513 103.488V105.004C111.513 105.029 111.516 105.067 111.522 105.117H111.513V106.67H116.361V105.117H116.352C116.358 105.067 116.361 105.029 116.361 105.004V103.488Z" fill="black"/>
<path d="M126.059 103.488V101.822H122.878C122.417 101.822 122.024 101.984 121.699 102.309C121.374 102.635 121.211 103.028 121.211 103.488V105.004C121.211 105.464 121.374 105.857 121.699 106.183C122.024 106.508 122.417 106.67 122.878 106.67H126.059V103.488Z" fill="black"/>
<path d="M130.909 101.821H126.061V106.669H130.909V101.821Z" fill="black"/>
<path d="M135.755 103.488C135.755 103.028 135.592 102.635 135.267 102.309C134.942 101.984 134.549 101.822 134.088 101.822H130.906V106.67H135.755V103.488Z" fill="black"/>
<path d="M145.452 101.822H140.604V105.004C140.604 105.464 140.766 105.857 141.091 106.183C141.416 106.508 141.809 106.67 142.27 106.67H145.452V101.822Z" fill="black"/>
<path d="M150.306 101.821H145.458V106.669H150.306V101.821Z" fill="black"/>
<path d="M155.148 101.821H150.3V106.669H155.148V101.821Z" fill="black"/>
<path d="M160 103.488C160 103.028 159.837 102.635 159.512 102.309C159.187 101.984 158.794 101.822 158.333 101.822H155.151V106.67H160V103.488Z" fill="black"/>
<path d="M14.5467 106.668H9.69824V109.85C9.69824 110.311 9.86081 110.704 10.186 111.029C10.5111 111.354 10.9041 111.517 11.3649 111.517H14.5467V106.668Z" fill="black"/>
<path d="M19.3905 106.668H14.542V111.517H19.3905V106.668Z" fill="black"/>
<path d="M29.0907 106.668H24.2422V111.517H29.0907V106.668Z" fill="black"/>
<path d="M33.9393 106.668H29.0908V111.517H33.9393V106.668Z" fill="black"/>
<path d="M38.7889 108.335C38.7889 107.874 38.6263 107.481 38.3012 107.156C37.9761 106.831 37.5831 106.668 37.1222 106.668H33.9404V111.517H38.7889V108.335Z" fill="black"/>
<path d="M48.4784 109.85C48.4784 110.311 48.3157 110.704 47.9906 111.029C47.6656 111.354 47.2726 111.517 46.8117 111.517H45.2965C44.8357 111.517 44.4427 111.354 44.1176 111.029C43.7925 110.704 43.6299 110.311 43.6299 109.85V108.335C43.6299 107.874 43.7925 107.481 44.1176 107.156C44.4428 106.831 44.8357 106.668 45.2965 106.668H46.8117C47.2727 106.668 47.6657 106.831 47.9906 107.156C48.3157 107.481 48.4784 107.874 48.4784 108.335V109.85Z" fill="black"/>
<path d="M63.033 108.335C63.033 107.874 62.8704 107.481 62.5453 107.156C62.2202 106.831 61.8272 106.668 61.3664 106.668H59.8512C59.3904 106.668 58.9974 106.831 58.6723 107.156C58.3472 107.481 58.1846 107.874 58.1846 108.335V109.85C58.1846 109.876 58.1877 109.913 58.194 109.964H58.1846V111.517H63.033V109.964H63.0236C63.03 109.913 63.033 109.876 63.033 109.85V108.335Z" fill="black"/>
<path d="M72.7264 108.335C72.7264 107.874 72.5638 107.481 72.2387 107.156C71.9136 106.831 71.5206 106.668 71.0597 106.668H69.5446C69.0837 106.668 68.6907 106.831 68.3656 107.156C68.0405 107.481 67.8779 107.874 67.8779 108.335V109.85C67.8779 109.876 67.8811 109.913 67.8874 109.964H67.8779V111.517H72.7264V109.964H72.717C72.7234 109.913 72.7264 109.876 72.7264 109.85V108.335Z" fill="black"/>
<path d="M92.1248 108.335V106.668H88.943C88.4822 106.668 88.0892 106.831 87.7641 107.156C87.439 107.481 87.2764 107.874 87.2764 108.335V109.85C87.2764 110.311 87.4389 110.704 87.7641 111.029C88.0892 111.354 88.4822 111.517 88.943 111.517H92.1248V108.335Z" fill="black"/>
<path d="M96.9686 106.668H92.1201V111.517H96.9686V106.668Z" fill="black"/>
<path d="M101.82 106.668H96.9717V111.517H101.82V106.668Z" fill="black"/>
<path d="M106.664 106.668H101.815V111.517H106.664V106.668Z" fill="black"/>
<path d="M111.515 106.668H106.667V111.517H111.515V106.668Z" fill="black"/>
<path d="M116.361 106.668H111.513V111.517H114.695C115.155 111.517 115.548 111.354 115.873 111.029C116.199 110.704 116.361 110.311 116.361 109.85V106.668Z" fill="black"/>
<path d="M130.905 106.668H126.057V109.85C126.057 110.311 126.219 110.704 126.544 111.029C126.869 111.354 127.262 111.517 127.723 111.517H130.905V106.668Z" fill="black"/>
<path d="M135.755 106.668H130.906V111.517H135.755V106.668Z" fill="black"/>
<path d="M140.606 108.335C140.606 107.874 140.444 107.481 140.119 107.156C139.793 106.831 139.4 106.668 138.94 106.668H135.758V111.517H140.606V108.335Z" fill="black"/>
<path d="M150.306 106.668H145.458V109.85C145.458 110.311 145.621 110.704 145.946 111.029C146.271 111.354 146.664 111.517 147.125 111.517H150.306V106.668Z" fill="black"/>
<path d="M155.148 106.668H150.3V111.517H155.148V106.668Z" fill="black"/>
<path d="M160 106.668H155.151V111.517H160V106.668Z" fill="black"/>
<path d="M9.69418 114.7C9.69418 115.161 9.53151 115.554 9.20647 115.879C8.88138 116.204 8.48846 116.367 8.02751 116.367H6.51237C6.05157 116.367 5.65855 116.204 5.33346 115.879C5.00832 115.554 4.8457 115.161 4.8457 114.7V113.185C4.8457 112.724 5.00827 112.331 5.33341 112.006C5.6586 111.681 6.05157 111.519 6.51237 111.519H8.02751C8.48851 111.519 8.88148 111.681 9.20647 112.006C9.53156 112.331 9.69418 112.724 9.69418 113.185V114.7Z" fill="black"/>
<path d="M19.3875 111.519H14.5391V114.7C14.5391 115.161 14.7016 115.554 15.0268 115.879C15.3519 116.204 15.7449 116.367 16.2057 116.367H19.3875V111.519Z" fill="black"/>
<path d="M24.2411 111.518H19.3926V116.366H24.2411V111.518Z" fill="black"/>
<path d="M29.0887 111.519H24.2402V116.367H27.422C27.8829 116.367 28.2759 116.204 28.601 115.879C28.9261 115.554 29.0887 115.161 29.0887 114.7V111.519Z" fill="black"/>
<path d="M38.7889 111.518H33.9404V116.366H38.7889V111.518Z" fill="black"/>
<path d="M58.1815 113.185V111.519H54.9997C54.5388 111.519 54.1458 111.681 53.8207 112.006C53.4956 112.331 53.333 112.724 53.333 113.185V114.7C53.333 115.161 53.4956 115.554 53.8207 115.879C54.1459 116.204 54.5388 116.367 54.9997 116.367H58.1815V113.185Z" fill="black"/>
<path d="M63.0311 111.518H58.1826V116.366H63.0311V111.518Z" fill="black"/>
<path d="M67.8739 111.518H63.0254V116.366H67.8739V111.518Z" fill="black"/>
<path d="M72.7264 111.519H67.8779V116.367H71.0597C71.5206 116.367 71.9136 116.204 72.2387 115.879C72.5638 115.554 72.7264 115.161 72.7264 114.7V111.519Z" fill="black"/>
<path d="M82.4286 113.185V111.519H79.2467C78.7859 111.519 78.3929 111.681 78.0678 112.006C77.7427 112.331 77.5801 112.724 77.5801 113.185V116.367H82.4286V113.185Z" fill="black"/>
<path d="M85.6017 111.519H82.4199V116.367H85.6017C86.0626 116.367 86.4556 116.204 86.7807 115.879C87.1058 115.554 87.2684 115.161 87.2684 114.7V113.185C87.2684 112.724 87.1058 112.331 86.7807 112.006C86.4556 111.681 86.0626 111.519 85.6017 111.519Z" fill="black"/>
<path d="M101.82 111.518H96.9717V116.366H101.82V111.518Z" fill="black"/>
<path d="M111.515 111.518H106.667V116.366H111.515V111.518Z" fill="black"/>
<path d="M121.216 113.185V111.519H118.034C117.573 111.519 117.18 111.681 116.855 112.006C116.53 112.331 116.367 112.724 116.367 113.185V116.367H121.216V113.185Z" fill="black"/>
<path d="M126.059 113.185C126.059 112.724 125.897 112.331 125.572 112.006C125.247 111.681 124.854 111.519 124.393 111.519H121.211V116.367H126.059V113.185Z" fill="black"/>
<path d="M135.755 111.518H130.906V116.366H135.755V111.518Z" fill="black"/>
<path d="M140.606 111.518H135.758V116.366H140.606V111.518Z" fill="black"/>
<path d="M145.452 113.185C145.452 112.724 145.289 112.331 144.964 112.006C144.639 111.681 144.246 111.519 143.785 111.519H140.604V116.367H145.452V113.185Z" fill="black"/>
<path d="M160 111.518H155.151V116.366H160V111.518Z" fill="black"/>
<path d="M4.84847 119.547C4.84847 120.008 4.68581 120.401 4.36077 120.726C4.03568 121.051 3.64276 121.214 3.18181 121.214H1.66666C1.20586 121.214 0.812847 121.051 0.487757 120.726C0.162618 120.401 0 120.008 0 119.547V118.032C0 117.571 0.162569 117.178 0.487708 116.853C0.812895 116.528 1.20586 116.365 1.66666 116.365H3.18181C3.6428 116.365 4.03577 116.528 4.36077 116.853C4.68586 117.178 4.84847 117.571 4.84847 118.032V119.547Z" fill="black"/>
<path d="M14.5467 119.547C14.5467 120.008 14.3841 120.401 14.059 120.726C13.7339 121.051 13.341 121.214 12.8801 121.214H11.3649C10.9041 121.214 10.5111 121.051 10.186 120.726C9.86086 120.401 9.69824 120.008 9.69824 119.547V118.032C9.69824 117.571 9.86081 117.178 10.186 116.853C10.5111 116.528 10.9041 116.365 11.3649 116.365H12.8801C13.341 116.365 13.734 116.528 14.059 116.853C14.3841 117.178 14.5467 117.571 14.5467 118.032V119.547Z" fill="black"/>
<path d="M33.9393 118.032V116.365H30.7575C30.2966 116.365 29.9036 116.528 29.5785 116.853C29.2534 117.178 29.0908 117.571 29.0908 118.032V119.547C29.0908 120.008 29.2534 120.401 29.5785 120.726C29.9037 121.051 30.2966 121.214 30.7575 121.214H33.9393V118.032Z" fill="black"/>
<path d="M38.7889 116.363H33.9404V121.212H38.7889V116.363Z" fill="black"/>
<path d="M43.6356 118.032C43.6356 117.571 43.473 117.178 43.1479 116.853C42.8228 116.528 42.4298 116.365 41.9689 116.365H38.7871V121.214H43.6356V118.032Z" fill="black"/>
<path d="M53.3328 118.032C53.3328 117.571 53.1702 117.178 52.8451 116.853C52.5201 116.528 52.127 116.365 51.6662 116.365H50.151C49.6902 116.365 49.2972 116.528 48.9721 116.853C48.647 117.178 48.4844 117.571 48.4844 118.032V119.547C48.4844 119.572 48.4875 119.61 48.4938 119.661H48.4844V121.214H53.3328V119.661H53.3234C53.3298 119.61 53.3328 119.572 53.3328 119.547V118.032Z" fill="black"/>
<path d="M63.0236 117.918H63.033V116.365H58.1846V117.918H58.194C58.1877 117.969 58.1846 118.007 58.1846 118.032V119.547C58.1846 120.008 58.3471 120.401 58.6723 120.726C58.9974 121.051 59.3904 121.214 59.8512 121.214H61.3664C61.8272 121.214 62.2202 121.051 62.5453 120.726C62.8704 120.401 63.033 120.008 63.033 119.547V118.032C63.033 118.007 63.03 117.969 63.0236 117.918Z" fill="black"/>
<path d="M77.5721 118.032V116.365H74.3903C73.9294 116.365 73.5364 116.528 73.2113 116.853C72.8863 117.178 72.7236 117.571 72.7236 118.032V119.547C72.7236 120.008 72.8862 120.401 73.2113 120.726C73.5365 121.051 73.9294 121.214 74.3903 121.214H77.5721V118.032Z" fill="black"/>
<path d="M82.4286 116.365H77.5801V121.214H80.7619C81.2227 121.214 81.6158 121.051 81.9408 120.726C82.2659 120.401 82.4286 120.008 82.4286 119.547V116.365Z" fill="black"/>
<path d="M96.9686 118.032V116.365H93.7868C93.3259 116.365 92.9329 116.528 92.6078 116.853C92.2827 117.178 92.1201 117.571 92.1201 118.032V119.547C92.1201 120.008 92.2827 120.401 92.6078 120.726C92.933 121.051 93.3259 121.214 93.7868 121.214H96.9686V118.032Z" fill="black"/>
<path d="M101.823 116.365H96.9746V121.214H100.156C100.617 121.214 101.01 121.051 101.335 120.726C101.66 120.401 101.823 120.008 101.823 119.547V116.365Z" fill="black"/>
<path d="M111.515 116.363H106.667V121.212H111.515V116.363Z" fill="black"/>
<path d="M121.216 116.363H116.367V121.212H121.216V116.363Z" fill="black"/>
<path d="M126.059 116.363H121.211V121.212H126.059V116.363Z" fill="black"/>
<path d="M130.909 116.363H126.061V121.212H130.909V116.363Z" fill="black"/>
<path d="M135.755 116.363H130.906V121.212H135.755V116.363Z" fill="black"/>
<path d="M140.606 116.363H135.758V121.212H140.606V116.363Z" fill="black"/>
<path d="M145.452 116.365H140.604V121.214H143.785C144.246 121.214 144.639 121.051 144.964 120.726C145.289 120.401 145.452 120.008 145.452 119.547V116.365Z" fill="black"/>
<path d="M155.148 118.032V116.365H151.966C151.506 116.365 151.113 116.528 150.788 116.853C150.462 117.178 150.3 117.571 150.3 118.032V121.214H155.148V118.032Z" fill="black"/>
<path d="M160 116.365H155.151V121.214H158.333C158.794 121.214 159.187 121.051 159.512 120.726C159.837 120.401 160 120.008 160 119.547V116.365Z" fill="black"/>
<path d="M43.6356 121.212H38.7871V126.061H43.6356V121.212Z" fill="black"/>
<path d="M48.4813 121.212H43.6328V126.061H48.4813V121.212Z" fill="black"/>
<path d="M53.3328 121.212H48.4844V126.061H53.3328V121.212Z" fill="black"/>
<path d="M58.1815 122.879C58.1815 122.418 58.0189 122.025 57.6938 121.7C57.3687 121.375 56.9757 121.212 56.5148 121.212H53.333V126.061H58.1815V122.879Z" fill="black"/>
<path d="M67.8719 122.879V121.212H64.6901C64.2293 121.212 63.8362 121.375 63.5111 121.7C63.1861 122.025 63.0234 122.418 63.0234 122.879V124.394C63.0234 124.855 63.186 125.248 63.5111 125.573C63.8363 125.898 64.2293 126.061 64.6901 126.061H67.8719V122.879Z" fill="black"/>
<path d="M72.7264 122.879C72.7264 122.418 72.5638 122.025 72.2387 121.7C71.9136 121.375 71.5206 121.212 71.0597 121.212H67.8779V126.061H72.7264V122.879Z" fill="black"/>
<path d="M87.2684 122.879V121.212H84.0866C83.6257 121.212 83.2327 121.375 82.9076 121.7C82.5825 122.025 82.4199 122.418 82.4199 122.879V124.394C82.4199 124.855 82.5825 125.248 82.9076 125.573C83.2328 125.898 83.6257 126.061 84.0866 126.061H87.2684V122.879Z" fill="black"/>
<path d="M92.1248 122.879C92.1248 122.418 91.9622 122.025 91.6371 121.7C91.312 121.375 90.919 121.212 90.4582 121.212H87.2764V126.061H92.1248V122.879Z" fill="black"/>
<path d="M106.661 122.879V121.212H103.479C103.018 121.212 102.625 121.375 102.3 121.7C101.975 122.025 101.812 122.418 101.812 122.879V126.061H106.661V122.879Z" fill="black"/>
<path d="M111.515 121.212H106.667V126.061H111.515V121.212Z" fill="black"/>
<path d="M116.361 121.212H111.513V126.061H116.361V121.212Z" fill="black"/>
<path d="M121.216 121.212H116.367V126.061H121.216V121.212Z" fill="black"/>
<path d="M140.606 121.212H135.758V126.061H140.606V121.212Z" fill="black"/>
<path d="M155.139 122.765H155.148V121.212H150.3V122.765H150.309C150.303 122.816 150.3 122.854 150.3 122.879V124.394C150.3 124.855 150.462 125.248 150.788 125.573C151.113 125.898 151.506 126.061 151.966 126.061H153.482C153.942 126.061 154.335 125.898 154.661 125.573C154.986 125.248 155.148 124.855 155.148 124.394V122.879C155.148 122.854 155.145 122.816 155.139 122.765Z" fill="black"/>
<path d="M43.6356 126.063H38.7871V129.245C38.7871 129.706 38.9497 130.099 39.2748 130.424C39.6 130.749 39.9929 130.911 40.4538 130.911H43.6356V126.063Z" fill="black"/>
<path d="M48.4813 126.061H43.6328V130.91H48.4813V126.061Z" fill="black"/>
<path d="M53.3328 126.061H48.4844V130.91H53.3328V126.061Z" fill="black"/>
<path d="M58.1815 126.063H53.333V130.911H56.5148C56.9757 130.911 57.3687 130.749 57.6938 130.424C58.0189 130.099 58.1815 129.706 58.1815 129.245V126.063Z" fill="black"/>
<path d="M72.7264 126.061H67.8779V130.91H72.7264V126.061Z" fill="black"/>
<path d="M92.1219 126.061H87.2734V130.91H92.1219V126.061Z" fill="black"/>
<path d="M96.9686 126.061H92.1201V130.91H96.9686V126.061Z" fill="black"/>
<path d="M101.82 126.061H96.9717V130.91H101.82V126.061Z" fill="black"/>
<path d="M106.664 126.061H101.815V130.91H106.664V126.061Z" fill="black"/>
<path d="M116.361 126.063H111.513V129.245C111.513 129.706 111.675 130.099 112 130.424C112.326 130.749 112.719 130.911 113.179 130.911H116.361V126.063Z" fill="black"/>
<path d="M121.216 126.061H116.367V130.91H121.216V126.061Z" fill="black"/>
<path d="M130.905 129.245C130.905 129.706 130.742 130.099 130.417 130.424C130.092 130.749 129.699 130.911 129.238 130.911H127.723C127.263 130.911 126.869 130.749 126.544 130.424C126.219 130.099 126.057 129.706 126.057 129.245V127.73C126.057 127.269 126.219 126.876 126.544 126.551C126.87 126.226 127.263 126.063 127.723 126.063H129.238C129.699 126.063 130.092 126.226 130.417 126.551C130.742 126.876 130.905 127.269 130.905 127.73V129.245Z" fill="black"/>
<path d="M140.606 126.061H135.758V130.91H140.606V126.061Z" fill="black"/>
<path d="M143.785 126.063H140.604V130.911H143.785C144.246 130.911 144.639 130.749 144.964 130.424C145.289 130.099 145.452 129.706 145.452 129.245V127.73C145.452 127.269 145.289 126.876 144.964 126.551C144.639 126.226 144.246 126.063 143.785 126.063Z" fill="black"/>
<path d="M48.4784 130.909H43.6299V134.091C43.6299 134.551 43.7925 134.944 44.1176 135.269C44.4427 135.595 44.8357 135.757 45.2965 135.757H48.4784V130.909Z" fill="black"/>
<path d="M53.3328 130.908H48.4844V135.756H53.3328V130.908Z" fill="black"/>
<path d="M72.7264 130.908H67.8779V135.756H72.7264V130.908Z" fill="black"/>
<path d="M87.2684 132.575V130.909H84.0866C83.6257 130.909 83.2327 131.071 82.9076 131.396C82.5825 131.722 82.4199 132.115 82.4199 132.575V135.757H87.2684V132.575Z" fill="black"/>
<path d="M92.1248 130.909H87.2764V135.757H90.4582C90.919 135.757 91.312 135.595 91.6371 135.269C91.9622 134.944 92.1248 134.551 92.1248 134.091V130.909Z" fill="black"/>
<path d="M106.652 132.462H106.661V130.909H101.812V132.462H101.822C101.816 132.512 101.812 132.55 101.812 132.575V134.091C101.812 134.551 101.975 134.944 102.3 135.269C102.625 135.595 103.018 135.757 103.479 135.757H104.994C105.455 135.757 105.848 135.595 106.173 135.269C106.498 134.944 106.661 134.551 106.661 134.091V132.575C106.661 132.55 106.658 132.512 106.652 132.462Z" fill="black"/>
<path d="M121.216 130.908H116.367V135.756H121.216V130.908Z" fill="black"/>
<path d="M140.606 130.908H135.758V135.756H140.606V130.908Z" fill="black"/>
<path d="M150.306 132.575V130.909H147.125C146.664 130.909 146.271 131.071 145.946 131.396C145.621 131.722 145.458 132.115 145.458 132.575V135.757H150.306V132.575Z" fill="black"/>
<path d="M155.148 130.908H150.3V135.756H155.148V130.908Z" fill="black"/>
<path d="M158.333 130.909H155.151V135.757H158.333C158.794 135.757 159.187 135.595 159.512 135.269C159.837 134.944 160 134.551 160 134.091V132.575C160 132.115 159.837 131.721 159.512 131.396C159.187 131.071 158.794 130.909 158.333 130.909Z" fill="black"/>
<path d="M53.3328 135.753H48.4844V138.935C48.4844 139.396 48.6469 139.789 48.9721 140.114C49.2972 140.439 49.6902 140.601 50.151 140.601H53.3328V135.753Z" fill="black"/>
<path d="M56.5148 135.753H53.333V140.601H56.5148C56.9757 140.601 57.3687 140.439 57.6938 140.114C58.0189 139.789 58.1815 139.396 58.1815 138.935V137.42C58.1815 136.959 58.0189 136.566 57.6938 136.241C57.3687 135.916 56.9757 135.753 56.5148 135.753Z" fill="black"/>
<path d="M72.717 137.306H72.7264V135.753H67.8779V137.306H67.8874C67.8811 137.356 67.8779 137.394 67.8779 137.42V138.935C67.8779 139.396 68.0405 139.789 68.3656 140.114C68.6908 140.439 69.0837 140.601 69.5446 140.601H71.0597C71.5206 140.601 71.9136 140.439 72.2387 140.114C72.5638 139.789 72.7264 139.396 72.7264 138.935V137.42C72.7264 137.394 72.7234 137.356 72.717 137.306Z" fill="black"/>
<path d="M82.4286 137.42V135.753H79.2467C78.7859 135.753 78.3929 135.915 78.0678 136.241C77.7427 136.566 77.5801 136.959 77.5801 137.42V138.935C77.5801 139.396 77.7426 139.789 78.0678 140.114C78.3929 140.439 78.7859 140.601 79.2467 140.601H82.4286V137.42Z" fill="black"/>
<path d="M87.2684 135.753H82.4199V140.601H85.6017C86.0626 140.601 86.4556 140.439 86.7807 140.114C87.1058 139.789 87.2684 139.396 87.2684 138.935V135.753Z" fill="black"/>
<path d="M101.823 138.935C101.823 139.396 101.66 139.789 101.335 140.114C101.01 140.439 100.617 140.601 100.156 140.601H98.6413C98.1805 140.601 97.7875 140.439 97.4624 140.114C97.1372 139.789 96.9746 139.396 96.9746 138.935V137.42C96.9746 136.959 97.1372 136.566 97.4623 136.241C97.7875 135.916 98.1805 135.753 98.6413 135.753H100.156C100.617 135.753 101.01 135.915 101.335 136.241C101.66 136.566 101.823 136.959 101.823 137.42V138.935Z" fill="black"/>
<path d="M116.361 137.42V135.753H113.179C112.719 135.753 112.325 135.915 112 136.241C111.675 136.566 111.513 136.959 111.513 137.42V140.601H116.361V137.42Z" fill="black"/>
<path d="M121.216 135.758H116.367V140.606H121.216V135.758Z" fill="black"/>
<path d="M126.059 135.758H121.211V140.606H126.059V135.758Z" fill="black"/>
<path d="M130.909 135.758H126.061V140.606H130.909V135.758Z" fill="black"/>
<path d="M135.755 135.758H130.906V140.606H135.755V135.758Z" fill="black"/>
<path d="M140.606 135.758H135.758V140.606H140.606V135.758Z" fill="black"/>
<path d="M145.452 135.758H140.604V140.606H145.452V135.758Z" fill="black"/>
<path d="M150.306 135.758H145.458V140.606H150.306V135.758Z" fill="black"/>
<path d="M155.148 135.758H150.3V140.606H155.148V135.758Z" fill="black"/>
<path d="M43.6356 142.279V140.612H40.4538C39.9929 140.612 39.5999 140.775 39.2748 141.1C38.9497 141.425 38.7871 141.818 38.7871 142.279V145.461H43.6356V142.279Z" fill="black"/>
<path d="M46.8117 140.612H43.6299V145.461H46.8117C47.2725 145.461 47.6656 145.298 47.9906 144.973C48.3157 144.648 48.4784 144.255 48.4784 143.794V142.279C48.4784 141.818 48.3157 141.425 47.9906 141.1C47.6656 140.775 47.2725 140.612 46.8117 140.612Z" fill="black"/>
<path d="M67.8719 143.794C67.8719 144.255 67.7092 144.648 67.3842 144.973C67.0591 145.298 66.6662 145.461 66.2052 145.461H64.6901C64.2293 145.461 63.8363 145.298 63.5112 144.973C63.1861 144.648 63.0234 144.255 63.0234 143.794V142.279C63.0234 141.818 63.186 141.425 63.5111 141.1C63.8363 140.775 64.2293 140.612 64.6901 140.612H66.2052C66.6662 140.612 67.0592 140.775 67.3842 141.1C67.7093 141.425 67.8719 141.818 67.8719 142.279V143.794Z" fill="black"/>
<path d="M77.5721 142.279C77.5721 141.818 77.4095 141.425 77.0844 141.1C76.7593 140.775 76.3663 140.612 75.9054 140.612H74.3903C73.9294 140.612 73.5364 140.775 73.2113 141.1C72.8863 141.425 72.7236 141.818 72.7236 142.279V143.794C72.7236 143.819 72.7268 143.857 72.7331 143.908H72.7236V145.461H77.5721V143.908H77.5627C77.5691 143.857 77.5721 143.819 77.5721 143.794V142.279Z" fill="black"/>
<path d="M96.9686 143.794C96.9686 144.255 96.8059 144.648 96.4809 144.973C96.1558 145.298 95.7629 145.461 95.3019 145.461H93.7868C93.326 145.461 92.933 145.298 92.6079 144.973C92.2827 144.648 92.1201 144.255 92.1201 143.794V142.279C92.1201 141.818 92.2827 141.425 92.6078 141.1C92.933 140.775 93.326 140.612 93.7868 140.612H95.3019C95.7629 140.612 96.1559 140.775 96.4809 141.1C96.806 141.425 96.9686 141.818 96.9686 142.279V143.794Z" fill="black"/>
<path d="M111.513 142.279V140.612H108.331C107.87 140.612 107.477 140.775 107.152 141.1C106.827 141.425 106.664 141.818 106.664 142.279V145.461H111.513V142.279Z" fill="black"/>
<path d="M116.361 140.609H111.513V145.457H116.361V140.609Z" fill="black"/>
<path d="M135.745 142.165H135.755V140.612H130.906V142.165H130.916C130.909 142.216 130.906 142.254 130.906 142.279V143.794C130.906 144.255 131.069 144.648 131.394 144.973C131.719 145.298 132.112 145.461 132.573 145.461H134.088C134.549 145.461 134.942 145.298 135.267 144.973C135.592 144.648 135.755 144.255 135.755 143.794V142.279C135.755 142.254 135.752 142.216 135.745 142.165Z" fill="black"/>
<path d="M155.148 140.612H150.3V143.794C150.3 144.255 150.462 144.648 150.788 144.973C151.113 145.298 151.506 145.461 151.966 145.461H155.148V140.612Z" fill="black"/>
<path d="M158.333 140.612H155.151V145.461H158.333C158.794 145.461 159.187 145.298 159.512 144.973C159.837 144.648 160 144.255 160 143.794V142.279C160 141.818 159.837 141.425 159.512 141.1C159.187 140.775 158.794 140.612 158.333 140.612Z" fill="black"/>
<path d="M43.6261 147.005H43.6356V145.452H38.7871V147.005H38.7966C38.7903 147.056 38.7871 147.094 38.7871 147.119V148.634C38.7871 149.095 38.9497 149.488 39.2748 149.813C39.6 150.138 39.9929 150.301 40.4538 150.301H41.9689C42.4298 150.301 42.8228 150.138 43.1479 149.813C43.473 149.488 43.6356 149.095 43.6356 148.634V147.119C43.6356 147.094 43.6325 147.056 43.6261 147.005Z" fill="black"/>
<path d="M53.3328 148.634C53.3328 149.095 53.1702 149.488 52.8451 149.813C52.5201 150.138 52.1271 150.301 51.6662 150.301H50.151C49.6902 150.301 49.2972 150.138 48.9721 149.813C48.647 149.488 48.4844 149.095 48.4844 148.634V147.119C48.4844 146.658 48.6469 146.265 48.9721 145.94C49.2973 145.615 49.6902 145.452 50.151 145.452H51.6662C52.1272 145.452 52.5201 145.615 52.8451 145.94C53.1702 146.265 53.3328 146.658 53.3328 147.119V148.634Z" fill="black"/>
<path d="M77.5627 147.005H77.5721V145.452H72.7236V147.005H72.7331C72.7268 147.056 72.7236 147.094 72.7236 147.119V148.634C72.7236 149.095 72.8862 149.488 73.2113 149.813C73.5365 150.138 73.9294 150.301 74.3903 150.301H75.9054C76.3663 150.301 76.7593 150.138 77.0844 149.813C77.4095 149.488 77.5721 149.095 77.5721 148.634V147.119C77.5721 147.094 77.5691 147.056 77.5627 147.005Z" fill="black"/>
<path d="M87.2684 147.119C87.2684 146.658 87.1058 146.265 86.7807 145.94C86.4556 145.615 86.0626 145.452 85.6017 145.452H84.0866C83.6257 145.452 83.2327 145.615 82.9076 145.94C82.5825 146.265 82.4199 146.658 82.4199 147.119V148.634C82.4199 148.659 82.4231 148.697 82.4294 148.748H82.4199V150.301H87.2684V148.748H87.2589C87.2653 148.697 87.2684 148.659 87.2684 148.634V147.119Z" fill="black"/>
<path d="M111.513 145.452H106.664V148.634C106.664 149.095 106.827 149.488 107.152 149.813C107.477 150.138 107.87 150.301 108.331 150.301H111.513V145.452Z" fill="black"/>
<path d="M116.361 145.454H111.513V150.302H116.361V145.454Z" fill="black"/>
<path d="M121.216 145.454H116.367V150.302H121.216V145.454Z" fill="black"/>
<path d="M126.059 145.454H121.211V150.302H126.059V145.454Z" fill="black"/>
<path d="M130.905 147.119C130.905 146.658 130.742 146.265 130.417 145.94C130.092 145.615 129.699 145.452 129.238 145.452H126.057V150.301H130.905V147.119Z" fill="black"/>
<path d="M48.4784 151.969C48.4784 151.508 48.3157 151.115 47.9906 150.79C47.6656 150.465 47.2725 150.302 46.8117 150.302H45.2965C44.8357 150.302 44.4427 150.465 44.1176 150.79C43.7925 151.115 43.6299 151.508 43.6299 151.969V153.484C43.6299 153.509 43.633 153.547 43.6393 153.598H43.6299V155.151H48.4784V153.598H48.4689C48.4753 153.547 48.4784 153.509 48.4784 153.484V151.969Z" fill="black"/>
<path d="M63.033 151.969V150.302H59.8512C59.3904 150.302 58.9974 150.465 58.6723 150.79C58.3472 151.115 58.1846 151.508 58.1846 151.969V155.151H63.033V151.969Z" fill="black"/>
<path d="M66.2052 150.302H63.0234V155.151H66.2052C66.6661 155.151 67.0591 154.988 67.3842 154.663C67.7093 154.338 67.8719 153.945 67.8719 153.484V151.969C67.8719 151.508 67.7093 151.115 67.3842 150.79C67.0591 150.465 66.6661 150.302 66.2052 150.302Z" fill="black"/>
<path d="M82.4286 151.969V150.302H79.2467C78.7859 150.302 78.3929 150.465 78.0678 150.79C77.7427 151.115 77.5801 151.508 77.5801 151.969V155.151H82.4286V151.969Z" fill="black"/>
<path d="M87.2684 150.302H82.4199V155.151H85.6017C86.0626 155.151 86.4556 154.988 86.7807 154.663C87.1058 154.338 87.2684 153.945 87.2684 153.484V150.302Z" fill="black"/>
<path d="M101.823 153.484C101.823 153.945 101.66 154.338 101.335 154.663C101.01 154.988 100.617 155.151 100.156 155.151H98.6413C98.1805 155.151 97.7875 154.988 97.4624 154.663C97.1372 154.338 96.9746 153.945 96.9746 153.484V151.969C96.9746 151.508 97.1372 151.115 97.4623 150.79C97.7875 150.465 98.1805 150.302 98.6413 150.302H100.156C100.617 150.302 101.01 150.465 101.335 150.79C101.66 151.115 101.823 151.508 101.823 151.969V153.484Z" fill="black"/>
<path d="M121.206 151.855H121.216V150.302H116.367V151.855H116.377C116.37 151.906 116.367 151.944 116.367 151.969V153.484C116.367 153.945 116.53 154.338 116.855 154.663C117.18 154.988 117.573 155.151 118.034 155.151H119.549C120.01 155.151 120.403 154.988 120.728 154.663C121.053 154.338 121.216 153.945 121.216 153.484V151.969C121.216 151.944 121.213 151.906 121.206 151.855Z" fill="black"/>
<path d="M130.909 150.304H126.061V155.152H130.909V150.304Z" fill="black"/>
<path d="M160 153.484C160 153.945 159.837 154.338 159.512 154.663C159.187 154.988 158.794 155.151 158.333 155.151H156.818C156.357 155.151 155.964 154.988 155.639 154.663C155.314 154.338 155.151 153.945 155.151 153.484V151.969C155.151 151.508 155.314 151.115 155.639 150.79C155.964 150.465 156.357 150.302 156.818 150.302H158.333C158.794 150.302 159.187 150.465 159.512 150.79C159.837 151.115 160 151.508 160 151.969V153.484Z" fill="black"/>
<path d="M48.4784 155.148H43.6299V158.33C43.6299 158.791 43.7925 159.184 44.1176 159.509C44.4427 159.834 44.8357 159.997 45.2965 159.997H48.4784V155.148Z" fill="black"/>
<path d="M51.6662 155.148H48.4844V159.997H51.6662C52.127 159.997 52.5201 159.834 52.8451 159.509C53.1702 159.184 53.3328 158.791 53.3328 158.33V156.815C53.3328 156.354 53.1702 155.961 52.8451 155.636C52.5201 155.311 52.127 155.148 51.6662 155.148Z" fill="black"/>
<path d="M63.0236 156.701H63.033V155.148H58.1846V156.701H58.194C58.1877 156.752 58.1846 156.79 58.1846 156.815V158.33C58.1846 158.791 58.3471 159.184 58.6723 159.509C58.9974 159.834 59.3904 159.997 59.8512 159.997H61.3664C61.8272 159.997 62.2202 159.834 62.5453 159.509C62.8704 159.184 63.033 158.791 63.033 158.33V156.815C63.033 156.79 63.03 156.752 63.0236 156.701Z" fill="black"/>
<path d="M72.7264 156.815V155.148H69.5446C69.0837 155.148 68.6907 155.311 68.3656 155.636C68.0405 155.961 67.8779 156.354 67.8779 156.815V158.33C67.8779 158.791 68.0405 159.184 68.3656 159.509C68.6908 159.834 69.0837 159.997 69.5446 159.997H72.7264V156.815Z" fill="black"/>
<path d="M77.5721 155.15H72.7236V159.999H77.5721V155.15Z" fill="black"/>
<path d="M82.4286 155.148H77.5801V159.997H80.7619C81.2227 159.997 81.6158 159.834 81.9408 159.509C82.2659 159.184 82.4286 158.791 82.4286 158.33V155.148Z" fill="black"/>
<path d="M96.9686 158.33C96.9686 158.791 96.8059 159.184 96.4809 159.509C96.1558 159.834 95.7629 159.997 95.3019 159.997H93.7868C93.326 159.997 92.933 159.834 92.6079 159.509C92.2827 159.184 92.1201 158.791 92.1201 158.33V156.815C92.1201 156.354 92.2827 155.961 92.6078 155.636C92.933 155.311 93.326 155.148 93.7868 155.148H95.3019C95.7629 155.148 96.1559 155.311 96.4809 155.636C96.806 155.961 96.9686 156.354 96.9686 156.815V158.33Z" fill="black"/>
<path d="M106.661 158.33C106.661 158.791 106.498 159.184 106.173 159.509C105.848 159.834 105.455 159.997 104.994 159.997H103.479C103.018 159.997 102.625 159.834 102.3 159.509C101.975 159.184 101.812 158.791 101.812 158.33V156.815C101.812 156.354 101.975 155.961 102.3 155.636C102.625 155.311 103.018 155.148 103.479 155.148H104.994C105.455 155.148 105.848 155.311 106.173 155.636C106.498 155.961 106.661 156.354 106.661 156.815V158.33Z" fill="black"/>
<path d="M116.361 158.33C116.361 158.791 116.199 159.184 115.873 159.509C115.548 159.834 115.155 159.997 114.695 159.997H113.179C112.719 159.997 112.326 159.834 112 159.509C111.675 159.184 111.513 158.791 111.513 158.33V156.815C111.513 156.354 111.675 155.961 112 155.636C112.326 155.311 112.719 155.148 113.179 155.148H114.695C115.156 155.148 115.548 155.311 115.873 155.636C116.199 155.961 116.361 156.354 116.361 156.815V158.33Z" fill="black"/>
<path d="M126.059 156.815V155.148H122.878C122.417 155.148 122.024 155.311 121.699 155.636C121.374 155.961 121.211 156.354 121.211 156.815V158.33C121.211 158.791 121.374 159.184 121.699 159.509C122.024 159.834 122.417 159.997 122.878 159.997H126.059V156.815Z" fill="black"/>
<path d="M130.909 155.15H126.061V159.999H130.909V155.15Z" fill="black"/>
<path d="M135.755 155.15H130.906V159.999H135.755V155.15Z" fill="black"/>
<path d="M140.606 155.15H135.758V159.999H140.606V155.15Z" fill="black"/>
<path d="M145.452 155.15H140.604V159.999H145.452V155.15Z" fill="black"/>
<path d="M148.64 155.148H145.458V159.997H148.64C149.101 159.997 149.494 159.834 149.819 159.509C150.144 159.184 150.306 158.791 150.306 158.33V156.815C150.306 156.354 150.144 155.961 149.819 155.636C149.494 155.311 149.101 155.148 148.64 155.148Z" fill="black"/>
<path d="M22.3521 0.00439453H11.5872C6.34088 0.00439453 1.89619 3.47062 0.47515 8.20821C0.328193 8.69829 0.213478 9.20195 0.133721 9.71681C0.0458181 10.285 0 10.8667 0 11.4589V22.4794C0 28.7985 5.1995 33.9373 11.5872 33.9373L16.9697 33.9383L22.3521 33.9369C28.7395 33.9369 33.9393 28.7982 33.9393 22.479V11.4589C33.9393 5.14281 28.7398 0.00439453 22.3521 0.00439453ZM28.8484 22.4794C28.8484 25.99 25.9344 28.8464 22.3507 28.8464L16.9697 28.8474L11.5886 28.846C8.00493 28.846 5.0909 25.9897 5.0909 22.4794V11.4589C5.0909 10.3623 5.37531 9.3299 5.87591 8.4278C6.35785 7.55997 7.03969 6.81364 7.86069 6.24855C8.9162 5.52191 10.2015 5.09529 11.5869 5.09529H22.3521C25.9344 5.09529 28.8484 7.94993 28.8484 11.4589V22.4794Z" fill="black"/>
<path d="M148.409 0.00390625H137.644C132.398 0.00390625 127.953 3.47013 126.532 8.20772C126.385 8.69781 126.27 9.20146 126.19 9.71632C126.102 10.2845 126.057 10.8662 126.057 11.4584V22.4789C126.057 28.798 131.256 33.9368 137.644 33.9368L143.026 33.9378L148.409 33.9364C154.796 33.9364 159.996 28.7977 159.996 22.4785V11.4584C159.996 5.14232 154.796 0.00390625 148.409 0.00390625ZM154.905 22.4789C154.905 25.9896 151.991 28.8459 148.407 28.8459L143.026 28.8469L137.645 28.8455C134.062 28.8455 131.148 25.9892 131.148 22.4789V11.4584C131.148 10.3618 131.432 9.32942 131.933 8.42731C132.414 7.55948 133.096 6.81315 133.917 6.24806C134.973 5.52142 136.258 5.09481 137.644 5.09481H148.409C151.991 5.09481 154.905 7.94944 154.905 11.4584V22.4789Z" fill="black"/>
<path d="M22.3521 126.064H11.5872C6.34088 126.064 1.89619 129.53 0.47515 134.268C0.328193 134.758 0.213478 135.262 0.133721 135.776C0.0458181 136.345 0 136.926 0 137.518V148.539C0 154.858 5.1995 159.997 11.5872 159.997L16.9697 159.998L22.3521 159.997C28.7395 159.997 33.9393 154.858 33.9393 148.539V137.518C33.9393 131.202 28.7398 126.064 22.3521 126.064ZM28.8484 148.539C28.8484 152.05 25.9344 154.906 22.3507 154.906L16.9697 154.907L11.5886 154.906C8.00493 154.906 5.0909 152.049 5.0909 148.539V137.518C5.0909 136.422 5.37531 135.389 5.87591 134.487C6.35785 133.62 7.03969 132.873 7.86069 132.308C8.9162 131.581 10.2015 131.155 11.5869 131.155H22.3521C25.9344 131.155 28.8484 134.01 28.8484 137.518V148.539Z" fill="black"/>
<path d="M13.6805 24.2378C11.4856 24.2378 9.7002 22.4877 9.7002 20.3385V13.5897C9.7002 12.9183 9.87474 12.2864 10.1803 11.7335C10.4755 11.2015 10.8932 10.7442 11.3963 10.3991C12.0426 9.95435 12.8304 9.69238 13.6784 9.69238H20.2714C22.4642 9.69238 24.2497 11.4405 24.2497 13.5895V20.3383C24.2497 22.4874 22.4644 24.2377 20.2714 24.2377H16.9749L13.6805 24.2378Z" fill="black"/>
<path d="M139.738 24.2378C137.543 24.2378 135.758 22.4877 135.758 20.3385V13.5897C135.758 12.9183 135.932 12.2864 136.238 11.7335C136.533 11.2015 136.951 10.7442 137.454 10.3991C138.1 9.95435 138.888 9.69238 139.736 9.69238H146.329C148.522 9.69238 150.307 11.4405 150.307 13.5895V20.3383C150.307 22.4874 148.522 24.2377 146.329 24.2377H143.033L139.738 24.2378Z" fill="black"/>
<path d="M13.6805 150.305C11.4856 150.305 9.7002 148.555 9.7002 146.406V139.657C9.7002 138.986 9.87474 138.354 10.1803 137.801C10.4755 137.269 10.8932 136.812 11.3963 136.467C12.0426 136.022 12.8304 135.76 13.6784 135.76H20.2714C22.4642 135.76 24.2497 137.508 24.2497 139.657V146.406C24.2497 148.555 22.4644 150.305 20.2714 150.305H16.9749L13.6805 150.305Z" fill="black"/>
<path fill-rule="evenodd" clip-rule="evenodd" d="M79.147 101.334C69.4926 101.334 64.6655 101.334 61.6662 98.3347C58.667 95.3355 58.667 90.5083 58.667 80.8539L58.667 79.1472C58.667 69.4928 58.667 64.6656 61.6662 61.6663C64.6655 58.6673 69.4926 58.6673 79.147 58.6673L79.147 58.6673L80.8537 58.6673L80.8537 58.6673C90.508 58.6673 95.3352 58.6673 98.3345 61.6663C101.334 64.6656 101.334 69.4928 101.334 79.1472L101.334 80.8539C101.334 90.5083 101.334 95.3355 98.3345 98.3347C95.3352 101.334 90.508 101.334 80.8537 101.334L79.147 101.334Z" fill="black"/>
<path d="M83.3384 84.9579C82.1888 84.6708 81.3828 83.6425 81.3828 82.4631L81.3828 68.5683C81.3828 67.2287 82.6486 66.2462 83.9543 66.5724L92.223 68.638C93.3725 68.9251 94.1786 69.9534 94.1786 71.1328L94.1786 85.0276C94.1786 86.3672 92.9127 87.3496 91.607 87.0235L83.3384 84.9579Z" fill="white"/>
<path d="M67.7759 91.3567C66.6263 91.0695 65.8203 90.0412 65.8203 88.8618L65.8203 74.9671C65.8203 73.6275 67.0861 72.645 68.3918 72.9712L76.6605 75.0367C77.81 75.3239 78.6161 76.3522 78.6161 77.5316L78.6161 91.4263C78.6161 92.7659 77.3502 93.7484 76.0445 93.4222L67.7759 91.3567Z" fill="white"/>
<path d="M75.5572 88.1574C74.4076 87.8703 73.6016 86.842 73.6016 85.6626L73.6016 71.7678C73.6016 70.4282 74.8674 69.4458 76.1731 69.7719L84.4417 71.8375C85.5913 72.1246 86.3973 73.153 86.3973 74.3324L86.3973 88.2271C86.3973 89.5667 85.1315 90.5492 83.8258 90.223L75.5572 88.1574Z" fill="white"/>
<path d="M80.969 89.5129C80.607 89.4207 80.3492 89.1004 80.3366 88.727L79.9769 78.1157C79.8728 76.7113 78.8303 75.5943 77.7409 75.2654C77.6797 75.2469 77.6144 75.2718 77.5782 75.3244C77.5414 75.3779 77.5556 75.4519 77.607 75.4917C77.876 75.6999 78.6164 76.3795 78.6164 77.5517L78.6142 88.9161L80.969 89.5129Z" fill="black"/>
<path d="M88.7523 86.311C88.3905 86.2205 88.1325 85.9012 88.1199 85.5285L87.7601 74.9179C87.656 73.5135 86.6135 72.3966 85.5241 72.0676C85.4629 72.0492 85.3976 72.074 85.3614 72.1266C85.3246 72.1801 85.3388 72.2542 85.3902 72.2939C85.6592 72.5021 86.3996 73.1818 86.3996 74.3539L86.3975 85.7223L88.7523 86.311Z" fill="black"/>
</svg>
