<svg width="28" height="28" viewBox="0 0 28 28" fill="none" xmlns="http://www.w3.org/2000/svg">
<path d="M0 14C0 8.38215 0 5.57323 1.34824 3.55544C1.93191 2.68192 2.68192 1.93191 3.55544 1.34824C5.57323 0 8.38215 0 14 0C19.6178 0 22.4268 0 24.4446 1.34824C25.3181 1.93191 26.0681 2.68192 26.6518 3.55544C28 5.57323 28 8.38215 28 14C28 19.6178 28 22.4268 26.6518 24.4446C26.0681 25.3181 25.3181 26.0681 24.4446 26.6518C22.4268 28 19.6178 28 14 28C8.38215 28 5.57323 28 3.55544 26.6518C2.68192 26.0681 1.93191 25.3181 1.34824 24.4446C0 22.4268 0 19.6178 0 14Z" fill="#222222"/>
<path fill-rule="evenodd" clip-rule="evenodd" d="M5.66866 13.021C10.2321 11.0328 13.275 9.72207 14.7976 9.08879C19.1448 7.28063 20.0481 6.96654 20.6369 6.95617C20.7664 6.95388 21.0559 6.98598 21.2435 7.13816C21.4018 7.26666 21.4454 7.44025 21.4663 7.56208C21.4871 7.68392 21.5131 7.96146 21.4924 8.17832C21.2569 10.6535 20.2375 16.6603 19.7189 19.4326C19.4995 20.6056 19.0674 20.999 18.6492 21.0374C17.7401 21.1211 17.0498 20.4367 16.1694 19.8595C14.7916 18.9564 14.0133 18.3942 12.676 17.5129C11.1305 16.4945 12.1323 15.9347 13.0131 15.0199C13.2436 14.7805 17.2489 11.1374 17.3264 10.8069C17.3361 10.7656 17.3451 10.6115 17.2536 10.5301C17.1621 10.4488 17.027 10.4766 16.9295 10.4987C16.7913 10.5301 14.5904 11.9848 10.3266 14.863C9.7019 15.2919 9.13604 15.501 8.62904 15.49C8.07012 15.4779 6.99499 15.174 6.19573 14.9142C5.21541 14.5955 4.43627 14.427 4.50412 13.8859C4.53946 13.604 4.92764 13.3157 5.66866 13.021Z" fill="#F2F3F5"/>
</svg>
