<svg width="28" height="28" viewBox="0 0 28 28" fill="none" xmlns="http://www.w3.org/2000/svg">
<path d="M0 14C0 8.38215 0 5.57323 1.34824 3.55544C1.93191 2.68192 2.68192 1.93191 3.55544 1.34824C5.57323 0 8.38215 0 14 0C19.6178 0 22.4268 0 24.4446 1.34824C25.3181 1.93191 26.0681 2.68192 26.6518 3.55544C28 5.57323 28 8.38215 28 14C28 19.6178 28 22.4268 26.6518 24.4446C26.0681 25.3181 25.3181 26.0681 24.4446 26.6518C22.4268 28 19.6178 28 14 28C8.38215 28 5.57323 28 3.55544 26.6518C2.68192 26.0681 1.93191 25.3181 1.34824 24.4446C0 22.4268 0 19.6178 0 14Z" fill="#222222"/>
<path d="M14.9656 19.9269C8.54687 19.9269 4.65144 15.4735 4.5 8.07324H7.75093C7.85227 13.5093 10.3255 15.8163 12.2214 16.2865V8.07324H15.3379V12.7635C17.1667 12.5608 19.0796 10.4269 19.7241 8.07324H22.7883C22.2976 10.9689 20.2149 13.1028 18.7415 13.983C20.2149 14.6947 22.5856 16.5575 23.5 19.9269H20.1306C19.419 17.6746 17.6745 15.9301 15.3379 15.6933V19.9269H14.9656Z" fill="#F2F3F5"/>
</svg>
