<svg width="25" height="24" viewBox="0 0 25 24" fill="none" xmlns="http://www.w3.org/2000/svg">
<path fill-rule="evenodd" clip-rule="evenodd" d="M8.5 2C5.18629 2 2.5 4.68629 2.5 8V16C2.5 19.3137 5.18629 22 8.5 22H16.5C19.8137 22 22.5 19.3137 22.5 16V8C22.5 4.68629 19.8137 2 16.5 2H8.5ZM4.5 8C4.5 5.79086 6.29086 4 8.5 4H16.5C18.7091 4 20.5 5.79086 20.5 8V16C20.5 18.2091 18.7091 20 16.5 20H8.5C6.29086 20 4.5 18.2091 4.5 16V8ZM13.5 8C13.5 7.44772 13.0523 7 12.5 7C11.9477 7 11.5 7.44772 11.5 8V11H8.5C7.94772 11 7.5 11.4477 7.5 12C7.5 12.5523 7.94772 13 8.5 13H11.5V16C11.5 16.5523 11.9477 17 12.5 17C13.0523 17 13.5 16.5523 13.5 16V13H16.5C17.0523 13 17.5 12.5523 17.5 12C17.5 11.4477 17.0523 11 16.5 11H13.5V8Z" fill="white"/>
</svg>
