<svg width="24" height="25" viewBox="0 0 24 25" fill="none" xmlns="http://www.w3.org/2000/svg">
<g opacity="0.5">
<path d="M10.4299 18.4067C10.2799 18.4067 10.1399 18.3667 10.0099 18.2767C9.79991 18.1367 9.67991 17.9067 9.67991 17.6567C9.67991 17.5067 9.66991 17.3467 9.64991 17.1867C9.55991 16.4767 9.23991 15.8567 8.69991 15.3167C8.15991 14.7767 7.48991 14.4367 6.76991 14.3467C6.64991 14.3367 6.47991 14.3267 6.31991 14.3367C6.05991 14.3567 5.81991 14.2467 5.66991 14.0367C5.51991 13.8367 5.47991 13.5667 5.55991 13.3267C5.70991 12.9167 5.92991 12.5467 6.18991 12.2467L7.72991 10.3067C10.3799 6.99673 15.7499 3.01673 19.6799 1.43673C20.5099 1.11673 21.3999 1.30673 22.0099 1.90673C22.6399 2.53673 22.8299 3.43673 22.4999 4.25673C20.9199 8.19673 16.9499 13.5567 13.6399 16.2067L11.6699 17.7867C11.2999 18.0567 10.9999 18.2267 10.6999 18.3467C10.6199 18.3867 10.5199 18.4067 10.4299 18.4067ZM7.53991 12.9767C8.37991 13.1967 9.12991 13.6367 9.75991 14.2667C10.3899 14.8867 10.8099 15.6067 11.0199 16.4067L12.7099 15.0467C15.8499 12.5367 19.6199 7.44673 21.1099 3.70673C21.2599 3.33673 21.0499 3.07673 20.9499 2.98673C20.8799 2.91673 20.6199 2.69673 20.2199 2.84673C16.4999 4.34673 11.4099 8.11673 8.88991 11.2567L7.53991 12.9767Z" fill="white"/>
<path d="M4.08011 22.7867C3.33011 22.7867 2.61011 22.4867 2.07011 21.9467C1.45011 21.3267 1.15011 20.4667 1.25011 19.5867L1.52011 17.1267C1.78011 14.6867 3.78011 12.8767 6.26011 12.8267C6.45011 12.8167 6.70011 12.8267 6.93011 12.8467C8.02011 12.9867 8.99011 13.4767 9.77011 14.2567C10.5401 15.0267 11.0001 15.9467 11.1401 16.9767C11.1701 17.1967 11.1901 17.4367 11.1901 17.6467C11.1901 18.9667 10.6801 20.1967 9.76011 21.1267C8.99011 21.8867 8.00011 22.3567 6.88011 22.4967L4.41011 22.7667C4.30011 22.7767 4.19011 22.7867 4.08011 22.7867ZM6.45011 14.3367C6.41011 14.3367 6.36011 14.3367 6.32011 14.3367C4.81011 14.3667 3.21011 15.3967 3.01011 17.2967L2.74011 19.7567C2.69011 20.1767 2.84011 20.5867 3.13011 20.8867C3.42011 21.1767 3.83011 21.3267 4.24011 21.2767L6.70011 21.0067C7.47011 20.9067 8.16011 20.5867 8.68011 20.0667C9.32011 19.4267 9.68011 18.5667 9.68011 17.6467C9.68011 17.4967 9.67011 17.3367 9.65011 17.1767C9.56011 16.4667 9.24011 15.8467 8.70011 15.3067C8.16011 14.7667 7.49011 14.4267 6.77011 14.3367C6.69011 14.3367 6.57011 14.3367 6.45011 14.3367Z" fill="white"/>
<path d="M14.24 15.2567C13.83 15.2567 13.49 14.9167 13.49 14.5067C13.49 12.3067 11.7 10.5267 9.51001 10.5267C9.10001 10.5267 8.76001 10.1867 8.76001 9.77673C8.76001 9.36673 9.09001 9.02673 9.50001 9.02673C12.52 9.02673 14.98 11.4867 14.98 14.5067C14.99 14.9267 14.65 15.2567 14.24 15.2567Z" fill="white"/>
</g>
</svg>
