<svg width="24" height="25" viewBox="0 0 24 25" fill="none" xmlns="http://www.w3.org/2000/svg">
<g opacity="0.5">
<path d="M15.51 2.8667H8.49C6 2.8667 5.45 4.1067 5.13 5.6267L4 11.0367H20L18.87 5.6267C18.55 4.1067 18 2.8667 15.51 2.8667Z" stroke="white" stroke-width="1.5" stroke-linecap="round" stroke-linejoin="round"/>
<path d="M21.9897 19.8567C22.0997 21.0267 21.1597 22.0367 19.9597 22.0367H18.0797C16.9997 22.0367 16.8497 21.5767 16.6597 21.0067L16.4597 20.4067C16.1797 19.5867 15.9997 19.0367 14.5597 19.0367H9.43974C7.99974 19.0367 7.78974 19.6567 7.53974 20.4067L7.33974 21.0067C7.14974 21.5767 6.99974 22.0367 5.91974 22.0367H4.03974C2.83974 22.0367 1.89974 21.0267 2.00974 19.8567L2.56974 13.7667C2.70974 12.2667 2.99974 11.0367 5.61974 11.0367H18.3797C20.9997 11.0367 21.2897 12.2667 21.4297 13.7667L21.9897 19.8567Z" stroke="white" stroke-width="1.5" stroke-linecap="round" stroke-linejoin="round"/>
<path d="M4 8.03674H3" stroke="white" stroke-width="1.5" stroke-linecap="round" stroke-linejoin="round"/>
<path d="M21 8.03674H20" stroke="white" stroke-width="1.5" stroke-linecap="round" stroke-linejoin="round"/>
<path d="M12 3.03674V5.03674" stroke="white" stroke-width="1.5" stroke-linecap="round" stroke-linejoin="round"/>
<path d="M10.5 5.03674H13.5" stroke="white" stroke-width="1.5" stroke-linecap="round" stroke-linejoin="round"/>
<path d="M6 15.0367H9" stroke="white" stroke-width="1.5" stroke-linecap="round" stroke-linejoin="round"/>
<path d="M15 15.0367H18" stroke="white" stroke-width="1.5" stroke-linecap="round" stroke-linejoin="round"/>
</g>
</svg>
