<?xml version="1.0" encoding="UTF-8"?>
<svg xmlns="http://www.w3.org/2000/svg" xmlns:xlink="http://www.w3.org/1999/xlink" width="20px" height="20px" viewBox="0 0 20 20" version="1.1">
<g id="surface1">
<path style=" stroke:none;fill-rule:evenodd;fill:rgb(100%,100%,100%);fill-opacity:1;" d="M 16.003906 5.171875 C 16.320312 4.84375 16.316406 4.324219 15.996094 4.003906 C 15.675781 3.683594 15.15625 3.679688 14.828125 3.996094 L 10 8.820312 L 5.171875 3.996094 C 4.84375 3.679688 4.324219 3.683594 4.003906 4.003906 C 3.683594 4.324219 3.679688 4.84375 3.996094 5.171875 L 8.820312 10 L 3.996094 14.828125 C 3.777344 15.035156 3.691406 15.347656 3.765625 15.636719 C 3.84375 15.929688 4.070312 16.15625 4.363281 16.234375 C 4.652344 16.308594 4.964844 16.222656 5.171875 16.003906 L 10 11.179688 L 14.828125 16.003906 C 15.15625 16.320312 15.675781 16.316406 15.996094 15.996094 C 16.316406 15.675781 16.320312 15.15625 16.003906 14.828125 L 11.179688 10 Z M 16.003906 5.171875 "/>
</g>
</svg>
