<svg width="25" height="25" viewBox="0 0 25 25" fill="none" xmlns="http://www.w3.org/2000/svg">
<path d="M17.5197 5.34216L14.4197 2.94216C14.0197 2.54216 13.1197 2.34216 12.5197 2.34216H8.71973C7.51973 2.34216 6.21973 3.24216 5.91973 4.44216L3.51973 11.7422C3.01973 13.1422 3.91973 14.3422 5.41973 14.3422H9.41973C10.0197 14.3422 10.5197 14.8422 10.4197 15.5422L9.91973 18.7422C9.71973 19.6422 10.3197 20.6422 11.2197 20.9422C12.0197 21.2422 13.0197 20.8422 13.4197 20.2422L17.5197 14.1422" stroke="white" stroke-width="1.5" stroke-miterlimit="10"/>
<path d="M22.6199 5.34214V15.1421C22.6199 16.5421 22.0199 17.0421 20.6199 17.0421H19.6199C18.2199 17.0421 17.6199 16.5421 17.6199 15.1421V5.34214C17.6199 3.94214 18.2199 3.44214 19.6199 3.44214H20.6199C22.0199 3.44214 22.6199 3.94214 22.6199 5.34214Z" stroke="white" stroke-width="1.5" stroke-linecap="round" stroke-linejoin="round"/>
</svg>
