<svg width="22" height="25" viewBox="0 0 22 25" fill="none" xmlns="http://www.w3.org/2000/svg">
<path fill-rule="evenodd" clip-rule="evenodd" d="M21.7 10.7427L11.7 0.941234C11.3111 0.560116 10.6889 0.560116 10.3 0.941234L0.300019 10.7427C0.108129 10.9308 0 11.1881 0 11.4568V23.5367L0.00804008 23.6266C0.0503849 23.8599 0.25454 24.0367 0.5 24.0367L8.5 24.0364C8.77613 24.0364 8.99998 23.8125 9 23.5364V18.0367L9.00509 17.8605C9.09634 16.2857 9.40232 15.0367 11 15.0367L11.1763 15.0418C12.6344 15.1263 12.9558 16.2522 12.9955 17.6869L13 18.0367V23.5364C13 23.8125 13.2239 24.0364 13.5 24.0364L21.5 24.0367L21.5899 24.0287C21.8231 23.9863 22 23.7822 22 23.5367V11.4568C22 11.1881 21.8919 10.9308 21.7 10.7427ZM1.5 11.6669L11 2.35552L20.5 11.6669V22.5367L14.5 22.5365V18.0367L14.4953 17.6674C14.4284 15.2373 13.5423 13.6764 11.263 13.5443L11.0433 13.5374C8.55145 13.5367 7.66187 15.1113 7.5076 17.7737L7.50063 17.9934L7.50011 22.5365L1.5 22.5367V11.6669Z" fill="#F9F9F9"/>
</svg>
