<svg width="24" height="25" viewBox="0 0 24 25" fill="none" xmlns="http://www.w3.org/2000/svg">
<path d="M18 7.57797C17.94 7.56797 17.87 7.56797 17.81 7.57797C16.43 7.52797 15.33 6.39797 15.33 4.99797C15.33 3.56797 16.48 2.41797 17.91 2.41797C19.34 2.41797 20.49 3.57797 20.49 4.99797C20.48 6.39797 19.38 7.52797 18 7.57797Z" stroke="white" stroke-width="1.5" stroke-linecap="round" stroke-linejoin="round"/>
<path d="M16.9694 14.8579C18.3394 15.0879 19.8494 14.8479 20.9094 14.1379C22.3194 13.1979 22.3194 11.6579 20.9094 10.7179C19.8394 10.0079 18.3094 9.76788 16.9394 10.0079" stroke="white" stroke-width="1.5" stroke-linecap="round" stroke-linejoin="round"/>
<path d="M5.96852 7.57797C6.02852 7.56797 6.09852 7.56797 6.15852 7.57797C7.53852 7.52797 8.63852 6.39797 8.63852 4.99797C8.63852 3.56797 7.48852 2.41797 6.05852 2.41797C4.62852 2.41797 3.47852 3.57797 3.47852 4.99797C3.48852 6.39797 4.58852 7.52797 5.96852 7.57797Z" stroke="white" stroke-width="1.5" stroke-linecap="round" stroke-linejoin="round"/>
<path d="M6.99945 14.858C5.62945 15.088 4.11945 14.848 3.05945 14.138C1.64945 13.198 1.64945 11.658 3.05945 10.718C4.12945 10.008 5.65945 9.768 7.02945 10.008" stroke="white" stroke-width="1.5" stroke-linecap="round" stroke-linejoin="round"/>
<path d="M12.0001 15.0479C11.9401 15.0379 11.8701 15.0379 11.8101 15.0479C10.4301 14.9979 9.33008 13.8679 9.33008 12.4679C9.33008 11.0379 10.4801 9.88794 11.9101 9.88794C13.3401 9.88794 14.4901 11.0479 14.4901 12.4679C14.4801 13.8679 13.3801 15.0079 12.0001 15.0479Z" stroke="white" stroke-width="1.5" stroke-linecap="round" stroke-linejoin="round"/>
<path d="M9.0907 18.198C7.6807 19.138 7.6807 20.678 9.0907 21.618C10.6907 22.688 13.3107 22.688 14.9107 21.618C16.3207 20.678 16.3207 19.138 14.9107 18.198C13.3207 17.138 10.6907 17.138 9.0907 18.198Z" stroke="white" stroke-width="1.5" stroke-linecap="round" stroke-linejoin="round"/>
</svg>
