<svg width="24" height="25" viewBox="0 0 24 25" fill="none" xmlns="http://www.w3.org/2000/svg">
<path d="M21.97 19.1578C21.97 19.5178 21.89 19.8878 21.72 20.2478C21.55 20.6078 21.33 20.9478 21.04 21.2678C20.55 21.8078 20.01 22.1978 19.4 22.4478C18.8 22.6978 18.15 22.8278 17.45 22.8278C16.43 22.8278 15.34 22.5878 14.19 22.0978C13.04 21.6078 11.89 20.9478 10.75 20.1178C9.6 19.2778 8.51 18.3478 7.47 17.3178C6.44 16.2778 5.51 15.1878 4.68 14.0478C3.86 12.9078 3.2 11.7678 2.72 10.6378C2.24 9.49776 2 8.40776 2 7.36776C2 6.68776 2.12 6.03776 2.36 5.43776C2.6 4.82776 2.98 4.26776 3.51 3.76776C4.15 3.13776 4.85 2.82776 5.59 2.82776C5.87 2.82776 6.15 2.88776 6.4 3.00776C6.66 3.12776 6.89 3.30776 7.07 3.56776L9.39 6.83776C9.57 7.08776 9.7 7.31776 9.79 7.53776C9.88 7.74776 9.93 7.95776 9.93 8.14776C9.93 8.38776 9.86 8.62776 9.72 8.85776C9.59 9.08776 9.4 9.32776 9.16 9.56776L8.4 10.3578C8.29 10.4678 8.24 10.5978 8.24 10.7578C8.24 10.8378 8.25 10.9078 8.27 10.9878C8.3 11.0678 8.33 11.1278 8.35 11.1878C8.53 11.5178 8.84 11.9478 9.28 12.4678C9.73 12.9878 10.21 13.5178 10.73 14.0478C11.27 14.5778 11.79 15.0678 12.32 15.5178C12.84 15.9578 13.27 16.2578 13.61 16.4378C13.66 16.4578 13.72 16.4878 13.79 16.5178C13.87 16.5478 13.95 16.5578 14.04 16.5578C14.21 16.5578 14.34 16.4978 14.45 16.3878L15.21 15.6378C15.46 15.3878 15.7 15.1978 15.93 15.0778C16.16 14.9378 16.39 14.8678 16.64 14.8678C16.83 14.8678 17.03 14.9078 17.25 14.9978C17.47 15.0878 17.7 15.2178 17.95 15.3878L21.26 17.7378C21.52 17.9178 21.7 18.1278 21.81 18.3778C21.91 18.6278 21.97 18.8778 21.97 19.1578Z" stroke="white" stroke-width="1.5" stroke-miterlimit="10"/>
</svg>
