<svg width="23" height="23" viewBox="0 0 23 23" fill="none" xmlns="http://www.w3.org/2000/svg">
<path fill-rule="evenodd" clip-rule="evenodd" d="M11.1131 0.5L13.88 2.30414L17.1831 2.28231L18.5354 5.29596L21.3259 7.06337L20.8342 10.3297L22.2262 13.3252L20.0467 15.8072L19.5982 19.0798L16.4228 19.9894L14.2762 22.5L11.1131 21.5485L7.94999 22.5L5.80344 19.9894L2.62802 19.0798L2.17955 15.8072L0 13.3252L1.39201 10.3297L0.900319 7.06337L3.69084 5.29596L5.04313 2.28231L8.3462 2.30414L11.1131 0.5ZM14.0523 8.40115L9.63164 13.0947L8.17444 11.5475C7.83433 11.1864 7.26588 11.1694 6.90478 11.5095C6.54367 11.8496 6.52665 12.4181 6.86676 12.7792L8.9778 15.0205C9.3324 15.397 9.93088 15.397 10.2855 15.0205L15.36 9.6328C15.7001 9.2717 15.6831 8.70325 15.322 8.36314C14.9609 8.02303 14.3924 8.04005 14.0523 8.40115Z" fill="#3897F0"/>
</svg>
