<svg width="189" height="74" viewBox="0 0 189 74" fill="none" xmlns="http://www.w3.org/2000/svg">
<path d="M0.805176 66.7064C0.805176 65.688 0.996223 64.7247 1.37832 63.8233C1.76041 62.922 2.28579 62.1307 2.9681 61.4426C3.65041 60.7545 4.42824 60.211 5.32207 59.8188C6.2159 59.4266 7.16431 59.2339 8.17413 59.2339C9.19759 59.2339 10.1597 59.4334 11.0467 59.8188C11.9405 60.211 12.7251 60.7545 13.4006 61.4426C14.0761 62.1307 14.6083 62.9289 14.9972 63.8233C15.3861 64.7247 15.584 65.688 15.584 66.7064C15.584 67.7385 15.3861 68.7018 14.9972 69.5963C14.6083 70.4908 14.0761 71.2821 13.3938 71.9632C12.7115 72.6444 11.9268 73.1743 11.0398 73.5665C10.1528 73.9518 9.19759 74.1444 8.17413 74.1444C7.16431 74.1444 6.20907 73.9655 5.32207 73.6009C4.42824 73.2362 3.64359 72.7201 2.9681 72.0527C2.29261 71.3853 1.76041 70.6009 1.37832 69.6995C0.996223 68.7912 0.805176 67.7935 0.805176 66.7064ZM1.5216 66.727C1.5216 67.6628 1.69218 68.5366 2.03333 69.3486C2.37449 70.1605 2.85211 70.8761 3.45254 71.4954C4.0598 72.1146 4.76258 72.5963 5.57453 72.9403C6.37965 73.2844 7.23254 73.4564 8.13319 73.4564C9.07478 73.4564 9.95496 73.2844 10.7601 72.9403C11.572 72.5963 12.2885 72.1146 12.9025 71.4954C13.5166 70.8761 13.9942 70.1536 14.3422 69.3348C14.6902 68.516 14.8676 67.6421 14.8676 66.7064C14.8676 65.7706 14.697 64.8899 14.3422 64.0711C13.9942 63.2522 13.5166 62.5298 12.9025 61.9174C12.2885 61.2981 11.5789 60.8096 10.7737 60.4518C9.96861 60.094 9.10207 59.9151 8.17413 59.9151C7.23254 59.9151 6.35236 60.094 5.54723 60.4587C4.73528 60.8233 4.02568 61.3188 3.42525 61.9518C2.82482 62.5848 2.36084 63.3142 2.02651 64.133C1.69218 64.9587 1.5216 65.8187 1.5216 66.727Z" fill="black"/>
<path d="M22.5437 59.3992C23.0213 59.3992 23.5125 59.4749 24.0243 59.6262C24.536 59.7776 25.0068 60.0116 25.4435 60.3281C25.8802 60.6446 26.235 61.0574 26.5079 61.5597C26.7808 62.062 26.9173 62.6744 26.9173 63.4038C26.9173 63.9405 26.8354 64.4634 26.6716 64.9657C26.5079 65.468 26.2486 65.9152 25.8802 66.3143C25.5185 66.7134 25.0546 67.0299 24.4814 67.2639C23.9083 67.4978 23.2055 67.6148 22.3731 67.6148H20.101V73.9726H19.405V59.3992H22.5437ZM22.3185 66.9542C23.0827 66.9542 23.7172 66.851 24.2221 66.6377C24.7271 66.4244 25.1228 66.1492 25.4094 65.8051C25.6959 65.4611 25.9006 65.0827 26.0234 64.6561C26.1463 64.2294 26.2077 63.8235 26.2077 63.4244C26.2077 62.9565 26.119 62.5161 25.9416 62.1033C25.7642 61.6905 25.5185 61.3327 25.1978 61.0299C24.8772 60.7271 24.4951 60.4932 24.0584 60.3281C23.6217 60.1629 23.1441 60.0804 22.6255 60.0804H20.1078V66.9542H22.3185ZM24.304 67.1813L28.3774 73.9726H27.5586L23.4852 67.1813H24.304Z" fill="black"/>
<path d="M32.2051 59.3992H32.901V73.9726H32.2051V59.3992Z" fill="black"/>
<path d="M36.7288 66.7064C36.7288 65.688 36.9198 64.7247 37.3019 63.8233C37.684 62.922 38.2094 62.1307 38.8917 61.4426C39.574 60.7545 40.3518 60.211 41.2457 59.8188C42.1395 59.4266 43.0879 59.2339 44.0977 59.2339C45.1212 59.2339 46.0832 59.4334 46.9702 59.8188C47.8641 60.211 48.6487 60.7545 49.3242 61.4426C49.9997 62.1307 50.5319 62.9289 50.9208 63.8233C51.3097 64.7247 51.5076 65.688 51.5076 66.7064C51.5076 67.7385 51.3097 68.7018 50.9208 69.5963C50.5319 70.4908 49.9997 71.2821 49.3174 71.9632C48.6351 72.6444 47.8504 73.1743 46.9634 73.5665C46.0764 73.9518 45.1212 74.1444 44.0977 74.1444C43.0879 74.1444 42.1327 73.9655 41.2457 73.6009C40.3518 73.2362 39.5672 72.7201 38.8917 72.0527C38.2162 71.3853 37.684 70.6009 37.3019 69.6995C36.9198 68.7912 36.7288 67.7935 36.7288 66.7064ZM37.4452 66.727C37.4452 67.6628 37.6158 68.5366 37.9569 69.3486C38.2981 70.1605 38.7757 70.8761 39.3761 71.4954C39.9834 72.1146 40.6862 72.5963 41.4981 72.9403C42.3032 73.2844 43.1561 73.4564 44.0568 73.4564C44.9984 73.4564 45.8785 73.2844 46.6837 72.9403C47.4956 72.5963 48.212 72.1146 48.8261 71.4954C49.4402 70.8761 49.9178 70.1536 50.2658 69.3348C50.6138 68.516 50.7912 67.6421 50.7912 66.7064C50.7912 65.7706 50.6206 64.8899 50.2658 64.0711C49.9178 63.2522 49.4402 62.5298 48.8261 61.9174C48.212 61.2981 47.5024 60.8096 46.6973 60.4518C45.8922 60.094 45.0257 59.9151 44.0977 59.9151C43.1561 59.9151 42.2759 60.094 41.4708 60.4587C40.6589 60.8233 39.9493 61.3188 39.3488 61.9518C38.7484 62.5848 38.2844 63.3142 37.9501 64.133C37.6158 64.9587 37.4452 65.8187 37.4452 66.727Z" fill="black"/>
<path d="M67.2895 74.2822L55.8267 60.7616L56.0109 60.5552L56.0314 73.9726H55.3354V59.1309H55.3764L66.9006 72.7754L66.655 72.8166V59.3992H67.31V74.2822H67.2895Z" fill="black"/>
<path d="M75.2316 59.3992C76.0776 59.3992 76.8214 59.5437 77.4764 59.8396C78.1246 60.1354 78.6295 60.5758 78.9911 61.1607C79.3527 61.7455 79.5301 62.4955 79.5301 63.3969C79.5301 63.9336 79.4483 64.4566 79.2709 64.9588C79.0935 65.4611 78.8342 65.9084 78.4726 66.3075C78.1109 66.7066 77.647 67.0231 77.0738 67.257C76.5007 67.491 75.8184 67.6079 75.0269 67.6079H72.7548V73.9657H72.0588V59.3923H75.2316V59.3992ZM75.0269 66.9543C75.7774 66.9543 76.3983 66.8373 76.9032 66.5965C77.4013 66.3556 77.7902 66.0529 78.07 65.6882C78.3497 65.3235 78.5544 64.9382 78.6704 64.5185C78.7932 64.1056 78.8546 63.7272 78.8546 63.3832C78.8546 62.874 78.766 62.413 78.5954 62.007C78.4248 61.6011 78.186 61.2501 77.8789 60.9611C77.5719 60.6721 77.1966 60.452 76.7531 60.3006C76.3096 60.1492 75.8115 60.0735 75.2725 60.0735H72.7548V66.9474H75.0269V66.9543Z" fill="black"/>
<path d="M83.1533 59.3992H91.9142V60.0804H83.8493V66.2937H91.1159V66.9542H83.8493V73.2914H92.2008V73.9726H83.1533V59.3992Z" fill="black"/>
<path d="M99.2832 59.3992C99.7608 59.3992 100.252 59.4749 100.764 59.6262C101.275 59.7776 101.746 60.0116 102.183 60.3281C102.62 60.6446 102.974 61.0574 103.247 61.5597C103.52 62.062 103.657 62.6744 103.657 63.4038C103.657 63.9405 103.575 64.4634 103.411 64.9657C103.247 65.468 102.988 65.9152 102.62 66.3143C102.258 66.7134 101.794 67.0299 101.221 67.2639C100.648 67.4978 99.945 67.6148 99.1126 67.6148H96.8405V73.9726H96.1445V59.3992H99.2832ZM99.058 66.9542C99.8222 66.9542 100.457 66.851 100.962 66.6377C101.467 66.4244 101.862 66.1492 102.149 65.8051C102.435 65.4611 102.64 65.0827 102.763 64.6561C102.886 64.2294 102.947 63.8235 102.947 63.4244C102.947 62.9565 102.858 62.5161 102.681 62.1033C102.504 61.6905 102.258 61.3327 101.937 61.0299C101.617 60.7271 101.235 60.4932 100.798 60.3281C100.361 60.1629 99.8836 60.0804 99.365 60.0804H96.8473V66.9542H99.058ZM101.044 67.1813L105.117 73.9726H104.298L100.225 67.1813H101.044Z" fill="black"/>
<path d="M108.945 59.3992H116.887V60.0804H109.641V66.5207H116.088V67.1813H109.641V73.9726H108.945V59.3992Z" fill="black"/>
<path d="M121.349 69.1216C121.349 70.0299 121.526 70.8074 121.881 71.4542C122.236 72.101 122.727 72.5964 123.348 72.9405C123.969 73.2845 124.672 73.4565 125.463 73.4565C126.268 73.4565 126.985 73.2845 127.613 72.9405C128.24 72.5964 128.732 72.101 129.093 71.4542C129.455 70.8074 129.632 70.0299 129.632 69.1216V59.3992H130.308V69.1836C130.308 70.2432 130.089 71.1446 129.66 71.8808C129.23 72.6171 128.65 73.1744 127.92 73.5666C127.19 73.9519 126.364 74.1446 125.45 74.1446C124.535 74.1446 123.717 73.9519 122.993 73.5666C122.27 73.1813 121.697 72.6171 121.274 71.8808C120.851 71.1446 120.639 70.2432 120.639 69.1836V59.3992H121.335V69.1216H121.349Z" fill="black"/>
<path d="M135.022 73.9725V59.1101H135.043L142.023 69.1009L141.716 69.0803L148.675 59.1101H148.696V73.9725H148.02V60.7821L148.082 61.1124L141.859 69.9266H141.818L135.596 61.1124L135.718 60.8028V73.9725H135.022Z" fill="black"/>
<path d="M153.445 59.3992H162.206V60.0804H154.141V66.2937H161.407V66.9542H154.141V73.2914H162.492V73.9726H153.445V59.3992Z" fill="black"/>
<path d="M169.575 59.3992C170.052 59.3992 170.544 59.4749 171.055 59.6262C171.567 59.7776 172.038 60.0116 172.474 60.3281C172.911 60.6446 173.266 61.0574 173.539 61.5597C173.812 62.062 173.948 62.6744 173.948 63.4038C173.948 63.9405 173.866 64.4634 173.703 64.9657C173.539 65.468 173.28 65.9152 172.911 66.3143C172.55 66.7134 172.086 67.0299 171.512 67.2639C170.939 67.4978 170.237 67.6148 169.404 67.6148H167.132V73.9726H166.436V59.3992H169.575ZM169.35 66.9542C170.114 66.9542 170.748 66.851 171.253 66.6377C171.758 66.4244 172.154 66.1492 172.44 65.8051C172.727 65.4611 172.932 65.0827 173.054 64.6561C173.177 64.2294 173.239 63.8235 173.239 63.4244C173.239 62.9565 173.15 62.5161 172.973 62.1033C172.795 61.6905 172.55 61.3327 172.229 61.0299C171.908 60.7271 171.526 60.4932 171.089 60.3281C170.653 60.1629 170.175 60.0804 169.657 60.0804H167.139V66.9542H169.35ZM171.335 67.1813L175.408 73.9726H174.59L170.516 67.1813H171.335Z" fill="black"/>
<path d="M182.941 68.6675L177.537 59.3992H178.397L183.433 68.0895L183.166 68.1102L188.202 59.3992H189.041L183.637 68.6675V73.9726H182.941V68.6675Z" fill="black"/>
<path d="M78.7661 6.85781L92.194 2.18579" stroke="black" stroke-miterlimit="10"/>
<path d="M95.5781 1.96558L109.088 7.02292" stroke="black" stroke-miterlimit="10"/>
<path d="M111.442 9.15601L118.558 21.5344" stroke="black" stroke-miterlimit="10"/>
<path d="M119.084 24.7683L116.607 39.0321" stroke="black" stroke-miterlimit="10"/>
<path d="M115.467 42.0254L104.005 51.0804" stroke="black" stroke-miterlimit="10"/>
<path d="M100.955 52.1055L87.0903 52.0642" stroke="black" stroke-miterlimit="10"/>
<path d="M83.7673 51.4107L73.1165 41.9153" stroke="black" stroke-miterlimit="10"/>
<path d="M71.4518 38.7845L68.6475 24.6033" stroke="black" stroke-miterlimit="10"/>
<path d="M68.6475 21.6514L76.1665 8.74316" stroke="black" stroke-miterlimit="10"/>
<path d="M85.2275 50.468L88.1751 32.5505" stroke="black" stroke-miterlimit="10"/>
<path d="M90.4744 30.6858H106.413" stroke="black" stroke-miterlimit="10"/>
<path d="M109.982 29.7983L117.583 24.0735" stroke="black" stroke-miterlimit="10"/>
<path d="M88.564 29.5229L93.5721 3.57568" stroke="black" stroke-miterlimit="10"/>
<path d="M77.5379 9.90594C78.593 9.90594 79.4484 9.04338 79.4484 7.97934C79.4484 6.91531 78.593 6.05273 77.5379 6.05273C76.4828 6.05273 75.6274 6.91531 75.6274 7.97934C75.6274 9.04338 76.4828 9.90594 77.5379 9.90594Z" fill="black"/>
<path d="M68.8179 25.1469C69.8731 25.1469 70.7284 24.2843 70.7284 23.2203C70.7284 22.1563 69.8731 21.2937 68.8179 21.2937C67.7628 21.2937 66.9075 22.1563 66.9075 23.2203C66.9075 24.2843 67.7628 25.1469 68.8179 25.1469Z" fill="black"/>
<path d="M71.8338 42.445C72.8889 42.445 73.7443 41.5824 73.7443 40.5184C73.7443 39.4544 72.8889 38.5918 71.8338 38.5918C70.7787 38.5918 69.9233 39.4544 69.9233 40.5184C69.9233 41.5824 70.7787 42.445 71.8338 42.445Z" fill="black"/>
<path d="M85.2208 53.757C86.2759 53.757 87.1312 52.8945 87.1312 51.8304C87.1312 50.7664 86.2759 49.9038 85.2208 49.9038C84.1657 49.9038 83.3103 50.7664 83.3103 51.8304C83.3103 52.8945 84.1657 53.757 85.2208 53.757Z" fill="black"/>
<path d="M110.323 9.91302C111.378 9.91302 112.233 9.05045 112.233 7.98642C112.233 6.92238 111.378 6.05981 110.323 6.05981C109.268 6.05981 108.412 6.92238 108.412 7.98642C108.412 9.05045 109.268 9.91302 110.323 9.91302Z" fill="black"/>
<path d="M88.564 32.6125C89.6192 32.6125 90.4745 31.7499 90.4745 30.6859C90.4745 29.6219 89.6192 28.7593 88.564 28.7593C87.5089 28.7593 86.6536 29.6219 86.6536 30.6859C86.6536 31.7499 87.5089 32.6125 88.564 32.6125Z" fill="black"/>
<path d="M108.324 32.6125C109.379 32.6125 110.234 31.7499 110.234 30.6859C110.234 29.6219 109.379 28.7593 108.324 28.7593C107.269 28.7593 106.413 29.6219 106.413 30.6859C106.413 31.7499 107.269 32.6125 108.324 32.6125Z" fill="black"/>
<path d="M102.633 53.7502C103.688 53.7502 104.544 52.8876 104.544 51.8236C104.544 50.7595 103.688 49.897 102.633 49.897C101.578 49.897 100.723 50.7595 100.723 51.8236C100.723 52.8876 101.578 53.7502 102.633 53.7502Z" fill="black"/>
<path d="M119.002 25.1262C120.057 25.1262 120.912 24.2636 120.912 23.1996C120.912 22.1355 120.057 21.2729 119.002 21.2729C117.947 21.2729 117.091 22.1355 117.091 23.1996C117.091 24.2636 117.947 25.1262 119.002 25.1262Z" fill="black"/>
<path d="M116 42.445C117.055 42.445 117.91 41.5824 117.91 40.5184C117.91 39.4544 117.055 38.5918 116 38.5918C114.945 38.5918 114.089 39.4544 114.089 40.5184C114.089 41.5824 114.945 42.445 116 42.445Z" fill="black"/>
<path d="M93.9202 3.89227C94.9753 3.89227 95.8307 3.0297 95.8307 1.96566C95.8307 0.90163 94.9753 0.0390625 93.9202 0.0390625C92.8651 0.0390625 92.0098 0.90163 92.0098 1.96566C92.0098 3.0297 92.8651 3.89227 93.9202 3.89227Z" fill="black"/>
</svg>
