<svg width="12" height="15" viewBox="0 0 12 15" fill="none" xmlns="http://www.w3.org/2000/svg">
<ellipse cx="6.23676" cy="4.54877" rx="2.98627" ry="2.98627" stroke="url(#paint0_linear_316_48)" stroke-width="1.5" stroke-linecap="round" stroke-linejoin="round"/>
<path fill-rule="evenodd" clip-rule="evenodd" d="M1.50001 11.6885C1.49921 11.4785 1.54616 11.2712 1.63731 11.0821C1.92335 10.51 2.72999 10.2068 3.39932 10.0695C3.88205 9.96646 4.37144 9.89764 4.86385 9.86353C5.77552 9.78345 6.69246 9.78345 7.60413 9.86353C8.0965 9.89804 8.58587 9.96685 9.06866 10.0695C9.738 10.2068 10.5446 10.4814 10.8307 11.0821C11.014 11.4676 11.014 11.9151 10.8307 12.3006C10.5446 12.9013 9.738 13.1759 9.06866 13.3075C8.5865 13.4147 8.09693 13.4855 7.60413 13.5191C6.8621 13.582 6.11662 13.5935 5.37301 13.5535C5.20138 13.5535 5.03548 13.5535 4.86385 13.5191C4.37289 13.4859 3.8852 13.4152 3.40504 13.3075C2.72999 13.1759 1.92907 12.9013 1.63731 12.3006C1.54662 12.1093 1.49972 11.9002 1.50001 11.6885Z" stroke="url(#paint1_linear_316_48)" stroke-width="1.5" stroke-linecap="round" stroke-linejoin="round"/>
<defs>
<linearGradient id="paint0_linear_316_48" x1="6.23676" y1="1.5625" x2="6.23676" y2="7.53504" gradientUnits="userSpaceOnUse">
<stop stop-color="#BB21E6"/>
<stop offset="1" stop-color="#661BF2" stop-opacity="0.83"/>
</linearGradient>
<linearGradient id="paint1_linear_316_48" x1="6.23408" y1="9.80347" x2="6.23408" y2="13.5768" gradientUnits="userSpaceOnUse">
<stop stop-color="#BB21E6"/>
<stop offset="1" stop-color="#661BF2" stop-opacity="0.83"/>
</linearGradient>
</defs>
</svg>
