<svg width="32" height="31" viewBox="0 0 32 31" fill="none" xmlns="http://www.w3.org/2000/svg">
<g clip-path="url(#clip0_10_1448)">
<path d="M31.1815 24.1251C31.1815 27.7514 28.2184 30.6847 24.5727 30.6847H7.01118C3.36546 30.6924 0.402344 27.7514 0.402344 24.1251V6.70217C0.402344 3.08361 3.36546 0.142578 7.01118 0.142578H24.5649C28.2184 0.142578 31.1738 3.08361 31.1738 6.70217V24.1251H31.1815Z" fill="url(#paint0_linear_10_1448)"/>
<path opacity="0.49" d="M14.6976 9.22885C21.2832 9.22885 27.1551 8.11465 30.9249 6.37319C30.4828 3.03057 27.7524 0.447266 24.4557 0.447266H7.11916C3.55101 0.447266 0.649945 3.45975 0.587891 7.20678C4.28015 8.46129 9.23678 9.22885 14.6976 9.22885Z" fill="#F9F4B9"/>
<path opacity="0.49" d="M21.8114 1.0749C21.8114 1.38028 20.8806 1.63613 16.7617 1.63613C12.6428 1.63613 11.8594 1.38853 11.8594 1.0749C11.8594 0.769526 12.6428 0.513672 16.7617 0.513672C20.8806 0.513672 21.8114 0.761273 21.8114 1.0749Z" fill="#FFF9AE"/>
<path opacity="0.49" d="M23.3164 1.11598C23.3164 1.32232 23.076 1.49564 22.7734 1.49564C22.4709 1.49564 22.2305 1.32232 22.2305 1.11598C22.2305 0.909649 22.4709 0.736328 22.7734 0.736328C23.0682 0.736328 23.3164 0.909649 23.3164 1.11598Z" fill="#FFF9AE"/>
<path d="M11.9294 10.5827C11.9371 10.5662 11.9449 10.5497 11.9526 10.5249C11.8518 10.5166 11.7742 10.5249 11.7199 10.5579C11.7199 10.5579 8.67923 15.9969 6.15826 16.3188C6.15826 16.3188 6.53059 14.9817 5.26622 14.0326C4.87838 13.7437 4.47502 13.6199 4.10269 13.5952C4.49053 12.7203 4.83184 11.474 4.59913 10.0132C4.45951 9.11357 4.14148 8.4533 3.76915 7.97461C4.09493 8.70091 4.41297 9.83987 4.14148 11.1687C3.67606 13.4879 3.44336 13.9005 3.44336 13.9005C3.44336 13.9005 5.39033 14.3957 5.7006 15.4687C6.01088 16.5416 6.16601 16.8717 6.16601 16.8717C6.16601 16.8717 9.6023 15.9556 11.9294 10.5827Z" fill="url(#paint1_radial_10_1448)"/>
<g filter="url(#filter0_b_10_1448)">
<rect x="1.45703" y="1.2207" width="28.6696" height="28.3613" rx="5.8948" fill="#060606"/>
</g>
<path d="M21.8111 9.89432C21.8111 9.93263 21.8111 9.97094 21.8111 10.0093C21.8111 10.0248 21.8099 10.0403 21.8075 10.0557L20.1411 21.0021C20.0983 21.2786 19.9271 21.5551 19.713 21.6934C19.3704 21.9239 18.9851 21.9239 18.6425 21.6934L14.0181 18.2827C13.6756 18.0523 13.6328 17.4992 13.9325 17.2227L18.2143 12.798C18.3 12.7058 18.3 12.5675 18.2571 12.4754C18.1715 12.3371 18.0002 12.291 17.8718 12.3832L12.177 16.4391C11.5347 16.9 10.764 16.9922 10.036 16.7618L7.89513 16.0243C7.68104 15.9321 7.50977 15.7017 7.50977 15.4712C7.50977 15.333 7.55258 15.2408 7.5954 15.1486C7.63822 15.0564 7.72386 14.9642 7.85231 14.9181L20.6978 9.0186C21.029 8.88492 21.4002 8.96665 21.6179 9.22215C21.6329 9.23968 21.6447 9.25956 21.6542 9.28056C21.7348 9.45931 21.8111 9.67681 21.8111 9.89432Z" fill="#82EEF4"/>
</g>
<defs>
<filter id="filter0_b_10_1448" x="-8.70374" y="-8.94007" width="48.9915" height="48.6829" filterUnits="userSpaceOnUse" color-interpolation-filters="sRGB">
<feFlood flood-opacity="0" result="BackgroundImageFix"/>
<feGaussianBlur in="BackgroundImageFix" stdDeviation="5.08039"/>
<feComposite in2="SourceAlpha" operator="in" result="effect1_backgroundBlur_10_1448"/>
<feBlend mode="normal" in="SourceGraphic" in2="effect1_backgroundBlur_10_1448" result="shape"/>
</filter>
<linearGradient id="paint0_linear_10_1448" x1="15.9093" y1="-0.846757" x2="15.676" y2="31.6022" gradientUnits="userSpaceOnUse">
<stop stop-color="#4AFFE3"/>
<stop offset="1" stop-color="#2B759C"/>
</linearGradient>
<radialGradient id="paint1_radial_10_1448" cx="0" cy="0" r="1" gradientUnits="userSpaceOnUse" gradientTransform="translate(10.4711 9.09343) scale(10.8316 11.5249)">
<stop stop-color="#FFC28C"/>
<stop offset="0.2125" stop-color="#F2988F"/>
<stop offset="0.5893" stop-color="#DC5394"/>
<stop offset="0.8618" stop-color="#CE2898"/>
<stop offset="1" stop-color="#C91799"/>
</radialGradient>
<clipPath id="clip0_10_1448">
<rect width="30.7792" height="30.5193" fill="white" transform="translate(0.402344 0.138672)"/>
</clipPath>
</defs>
</svg>
