<svg width="32" height="31" viewBox="0 0 32 31" fill="none" xmlns="http://www.w3.org/2000/svg">
<g clip-path="url(#clip0_10_1458)">
<path d="M31.0291 24.0558C31.0291 27.645 28.0962 30.5483 24.4878 30.5483H7.10574C3.49728 30.556 0.564453 27.645 0.564453 24.0558V6.81091C0.564453 3.22934 3.49728 0.318359 7.10574 0.318359H24.4801C28.0962 0.318359 31.0214 3.22934 31.0214 6.81091V24.0558H31.0291Z" fill="url(#paint0_linear_10_1458)"/>
<path opacity="0.49" d="M14.7135 9.31098C21.2318 9.31098 27.0437 8.20816 30.775 6.4845C30.3374 3.17604 27.6349 0.619141 24.3719 0.619141H7.21256C3.68088 0.619141 0.809467 3.60083 0.748047 7.30957C4.40257 8.55126 9.30854 9.31098 14.7135 9.31098Z" fill="#F9F4B9"/>
<path opacity="0.49" d="M21.7546 1.24104C21.7546 1.54329 20.8333 1.79653 16.7565 1.79653C12.6797 1.79653 11.9043 1.55146 11.9043 1.24104C11.9043 0.938786 12.6797 0.685547 16.7565 0.685547C20.8333 0.685547 21.7546 0.930617 21.7546 1.24104Z" fill="#FFF9AE"/>
<path opacity="0.49" d="M23.2448 1.28007C23.2448 1.4843 23.0068 1.65585 22.7074 1.65585C22.4079 1.65585 22.1699 1.4843 22.1699 1.28007C22.1699 1.07585 22.4079 0.904297 22.7074 0.904297C22.9991 0.904297 23.2448 1.07585 23.2448 1.28007Z" fill="#FFF9AE"/>
<path d="M11.9735 10.6498C11.9812 10.6334 11.9888 10.6171 11.9965 10.5926C11.8967 10.5844 11.8199 10.5926 11.7662 10.6253C11.7662 10.6253 8.75658 16.0086 6.26137 16.3272C6.26137 16.3272 6.62989 15.0039 5.37845 14.0644C4.99457 13.7785 4.59534 13.656 4.22681 13.6315C4.61069 12.7655 4.9485 11.532 4.71818 10.0861C4.57998 9.19568 4.2652 8.54216 3.89668 8.06836C4.21913 8.78723 4.53392 9.91456 4.2652 11.2298C3.80455 13.5253 3.57422 13.9337 3.57422 13.9337C3.57422 13.9337 5.50129 14.4239 5.80839 15.4858C6.11549 16.5478 6.26905 16.8746 6.26905 16.8746C6.26905 16.8746 9.67021 15.9678 11.9735 10.6498Z" fill="url(#paint1_radial_10_1458)"/>
<g filter="url(#filter0_b_10_1458)">
<rect x="1.60938" y="1.38867" width="28.3766" height="28.0715" rx="5.83455" fill="#060606"/>
</g>
<path d="M7.28783 8.39648C7.022 8.39648 6.88331 8.71279 7.0634 8.90832L13.5221 15.9207C13.6383 16.0468 13.6278 16.2438 13.4989 16.3568L7.15621 21.9206C6.94455 22.1063 7.07586 22.4551 7.35742 22.4551H8.04953C8.12356 22.4551 8.19508 22.4282 8.25074 22.3794L14.2327 17.1318C14.3573 17.0226 14.5462 17.0327 14.6584 17.1545L19.4499 22.3567C19.5077 22.4194 19.5891 22.4551 19.6744 22.4551H24.3492C24.615 22.4551 24.7537 22.1388 24.5736 21.9433L17.7131 14.4947C17.5969 14.3686 17.6074 14.1717 17.7363 14.0586L23.5816 8.93099C23.7933 8.74532 23.6619 8.39648 23.3804 8.39648H22.6883C22.6142 8.39648 22.5427 8.42341 22.4871 8.47223L17.0024 13.2836C16.8779 13.3928 16.689 13.3827 16.5768 13.2609L12.1871 8.4949C12.1293 8.43217 12.0479 8.39648 11.9626 8.39648H7.28783ZM9.44209 9.87579C9.26199 9.68026 9.40069 9.36395 9.66652 9.36395H11.3656C11.4509 9.36395 11.5323 9.39964 11.5901 9.46236L22.1946 20.9756C22.3747 21.1712 22.236 21.4875 21.9701 21.4875H20.271C20.1858 21.4875 20.1044 21.4518 20.0466 21.3891L9.44209 9.87579Z" fill="#82EEF4"/>
</g>
<defs>
<filter id="filter0_b_10_1458" x="-8.44755" y="-8.66826" width="48.4908" height="48.1851" filterUnits="userSpaceOnUse" color-interpolation-filters="sRGB">
<feFlood flood-opacity="0" result="BackgroundImageFix"/>
<feGaussianBlur in="BackgroundImageFix" stdDeviation="5.02846"/>
<feComposite in2="SourceAlpha" operator="in" result="effect1_backgroundBlur_10_1458"/>
<feBlend mode="normal" in="SourceGraphic" in2="effect1_backgroundBlur_10_1458" result="shape"/>
</filter>
<linearGradient id="paint0_linear_10_1458" x1="15.913" y1="-0.660865" x2="15.682" y2="31.4564" gradientUnits="userSpaceOnUse">
<stop stop-color="#4AFFE3"/>
<stop offset="1" stop-color="#2B759C"/>
</linearGradient>
<radialGradient id="paint1_radial_10_1458" cx="0" cy="0" r="1" gradientUnits="userSpaceOnUse" gradientTransform="translate(10.5301 9.17574) scale(10.7209 11.4071)">
<stop stop-color="#FFC28C"/>
<stop offset="0.2125" stop-color="#F2988F"/>
<stop offset="0.5893" stop-color="#DC5394"/>
<stop offset="0.8618" stop-color="#CE2898"/>
<stop offset="1" stop-color="#C91799"/>
</radialGradient>
<clipPath id="clip0_10_1458">
<rect width="30.4646" height="30.2073" fill="white" transform="translate(0.564453 0.318359)"/>
</clipPath>
</defs>
</svg>
