<svg width="20" height="19" viewBox="0 0 20 19" fill="none" xmlns="http://www.w3.org/2000/svg">
<path d="M18.6275 4.65306H14.5098V4.45918C14.5098 3.27653 14.0347 2.14232 13.1889 1.30606C12.3432 0.469805 11.1961 0 10 0C8.80393 0 7.65684 0.469805 6.81109 1.30606C5.96534 2.14232 5.4902 3.27653 5.4902 4.45918V4.65306H1.37255C1.00853 4.65306 0.659413 4.79605 0.40201 5.05056C0.144608 5.30507 0 5.65027 0 6.0102V17.6429C0 18.0028 0.144608 18.348 0.40201 18.6025C0.659413 18.857 1.00853 19 1.37255 19H18.6275C18.9915 19 19.3406 18.857 19.598 18.6025C19.8554 18.348 20 18.0028 20 17.6429V6.0102C20 5.65027 19.8554 5.30507 19.598 5.05056C19.3406 4.79605 18.9915 4.65306 18.6275 4.65306ZM6.66667 4.45918C6.66667 3.58505 7.01786 2.74672 7.64298 2.12862C8.2681 1.51051 9.11594 1.16327 10 1.16327C10.8841 1.16327 11.7319 1.51051 12.357 2.12862C12.9821 2.74672 13.3333 3.58505 13.3333 4.45918V4.65306H6.66667V4.45918ZM18.8235 17.6429C18.8235 17.6943 18.8029 17.7436 18.7661 17.7799C18.7293 17.8163 18.6795 17.8367 18.6275 17.8367H1.37255C1.32055 17.8367 1.27067 17.8163 1.2339 17.7799C1.19713 17.7436 1.17647 17.6943 1.17647 17.6429V6.0102C1.17647 5.95878 1.19713 5.90947 1.2339 5.87311C1.27067 5.83675 1.32055 5.81633 1.37255 5.81633H5.4902V7.56122C5.4902 7.71548 5.55217 7.86342 5.66249 7.9725C5.7728 8.08158 5.92242 8.14286 6.07843 8.14286C6.23444 8.14286 6.38406 8.08158 6.49438 7.9725C6.60469 7.86342 6.66667 7.71548 6.66667 7.56122V5.81633H13.3333V7.56122C13.3333 7.71548 13.3953 7.86342 13.5056 7.9725C13.6159 8.08158 13.7656 8.14286 13.9216 8.14286C14.0776 8.14286 14.2272 8.08158 14.3375 7.9725C14.4478 7.86342 14.5098 7.71548 14.5098 7.56122V5.81633H18.6275C18.6795 5.81633 18.7293 5.83675 18.7661 5.87311C18.8029 5.90947 18.8235 5.95878 18.8235 6.0102V17.6429Z" fill="#1D1919"/>
</svg>
