<svg width="20" height="13" viewBox="0 0 20 13" fill="none" xmlns="http://www.w3.org/2000/svg">
<path d="M18.1024 10.476L20 12.3731L19.3731 13L17.476 11.1024C16.7701 11.6683 15.8921 11.9761 14.9874 11.9748C12.7864 11.9748 11 10.1884 11 7.9874C11 5.78635 12.7864 4 14.9874 4C17.1884 4 18.9748 5.78635 18.9748 7.9874C18.9761 8.89209 18.6683 9.77009 18.1024 10.476ZM17.2137 10.1472C17.776 9.56902 18.09 8.79393 18.0887 7.9874C18.0887 6.27415 16.7006 4.88609 14.9874 4.88609C13.2741 4.88609 11.8861 6.27415 11.8861 7.9874C11.8861 9.70065 13.2741 11.0887 14.9874 11.0887C15.7939 11.09 16.569 10.776 17.1472 10.2137L17.2137 10.1472Z" fill="#262319"/>
<rect y="6" width="10" height="1" fill="#161616"/>
<rect width="24" height="1" fill="#161616"/>
<rect y="12" width="11" height="1" fill="#161616"/>
</svg>
