<svg width="24" height="24" viewBox="0 0 24 24" fill="none" xmlns="http://www.w3.org/2000/svg">
<path d="M19.7832 16.3911L24 20.6069L22.6069 22L18.3911 17.7832C16.8224 19.0407 14.8713 19.7246 12.8609 19.7218C7.96968 19.7218 4 15.7521 4 10.8609C4 5.96968 7.96968 2 12.8609 2C17.7521 2 21.7218 5.96968 21.7218 10.8609C21.7246 12.8713 21.0407 14.8224 19.7832 16.3911ZM17.8082 15.6605C19.0577 14.3756 19.7555 12.6532 19.7527 10.8609C19.7527 7.05366 16.6681 3.96909 12.8609 3.96909C9.05366 3.96909 5.96909 7.05366 5.96909 10.8609C5.96909 14.6681 9.05366 17.7527 12.8609 17.7527C14.6532 17.7555 16.3756 17.0577 17.6605 15.8082L17.8082 15.6605Z" fill="#262319"/>
</svg>
